<?xml version="1.0" encoding="utf-8"?>
<!-- Generator: Adobe Illustrator 19.2.1, SVG Export Plug-In . SVG Version: 6.00 Build 0)  -->
<svg version="1.0" id="Layer_1" xmlns="http://www.w3.org/2000/svg" xmlns:xlink="http://www.w3.org/1999/xlink" x="0px" y="0px"
	 width="432px" height="432px" viewBox="0 0 432 432" enable-background="new 0 0 432 432" xml:space="preserve">
<ellipse fill="none" stroke="#000000" stroke-width="2" stroke-miterlimit="10" cx="181.3" cy="119.4" rx="14" ry="21.7"/>
<path fill="none" stroke="#000000" stroke-width="2" stroke-miterlimit="10" d="M170.5,105.6c0,0,8.9,3.7,21.1,0"/>
<line fill="none" stroke="#000000" stroke-width="2" stroke-miterlimit="10" x1="176.3" y1="139.6" x2="177.1" y2="146.9"/>
<line fill="none" stroke="#000000" stroke-width="2" stroke-miterlimit="10" x1="185.3" y1="140.2" x2="185.3" y2="146.1"/>
<path fill="none" stroke="#000000" stroke-width="2" stroke-miterlimit="10" d="M200.7,146l-39.8,1.1l6.3,68.5c0,0,17.2,3.8,33.4,0
	V146z"/>
<polyline fill="none" stroke="#000000" stroke-width="2" stroke-miterlimit="10" points="161,147.1 142,179.6 150.5,215.7 
	150.5,222.7 156.2,229.9 161,227.4 157,218.9 161,219.2 161,214.9 156.2,212.3 153.5,181.7 162.8,166.7 "/>
<path fill="none" stroke="#000000" stroke-width="2" stroke-miterlimit="10" d="M200.7,146c0,0,17.4,43.8,22.1,55.5"/>
<path fill="none" stroke="#000000" stroke-width="2" stroke-miterlimit="10" d="M200.7,172.7c0,0,11.6,23.7,15.5,31.7"/>
<polyline fill="none" stroke="#000000" stroke-width="2" stroke-miterlimit="10" points="168.9,216 168.9,316.7 176,316.7 
	184.5,217.3 "/>
<polyline fill="none" stroke="#000000" stroke-width="2" stroke-miterlimit="10" points="186.2,217.3 199.5,315.7 207.7,315.7 
	200.7,215.7 "/>
<polyline fill="none" stroke="#000000" stroke-width="2" stroke-miterlimit="10" points="168.9,316.7 152.4,329.4 167.2,335.4 
	176,316.7 "/>
<polyline fill="none" stroke="#000000" stroke-width="2" stroke-miterlimit="10" points="199.5,315.7 210.2,335.4 225.8,330.4 
	207.7,315.7 "/>
<line fill="none" stroke="#000000" stroke-width="2" stroke-miterlimit="10" x1="256.7" y1="149.4" x2="257.2" y2="157.2"/>
<line fill="none" stroke="#000000" stroke-width="2" stroke-miterlimit="10" x1="266" y1="149.4" x2="265.2" y2="157.2"/>
<path fill="none" stroke="#000000" stroke-width="2" stroke-miterlimit="10" d="M251.1,157.2h19.9l5.1,21.4l-2.8,25.2
	c0,0-16.2,2.8-23.8,0.7l-2.2-25.9L251.1,157.2z"/>
<path fill="none" stroke="#000000" stroke-width="2" stroke-miterlimit="10" d="M251.1,157.2l-28.2,44.4l-5.3,1.1l-4,7
	c0,0,3.4,2.3,6,4"/>
<path fill="none" stroke="#000000" stroke-width="2" stroke-miterlimit="10" d="M227.3,207.9c0.2-1.7,0.4-3.5,0.4-3.5l19.5-25.9"/>
<polygon fill="none" stroke="#000000" stroke-width="2" stroke-miterlimit="10" points="230.4,210.4 224,206.1 217.5,209.7 
	222.1,219.4 "/>
<path fill="none" stroke="#000000" stroke-width="2" stroke-miterlimit="10" d="M270.9,157.2l7.9,2l8.2,52.5l1.8,4l-1.8,10.2
	l-4.2-1.2V216l-3,2.4l-1.7-2.8l4.2-5.1c0,0-0.2-0.7-0.2-0.9l-6.3-27.1"/>
<path fill="none" stroke="#000000" stroke-width="2" stroke-miterlimit="10" d="M249.4,204.4L236.2,295c0,0,28.5,9,54.2,0
	l-17.2-91.3"/>
<line fill="none" stroke="#000000" stroke-width="2" stroke-miterlimit="10" x1="142" y1="179.6" x2="153.5" y2="181.7"/>
<polyline fill="none" stroke="#000000" stroke-width="2" stroke-miterlimit="10" points="252.4,298.3 255,312.9 259.2,312.9 
	261.1,299 "/>
<polyline fill="none" stroke="#000000" stroke-width="2" stroke-miterlimit="10" points="255,312.9 239.2,323.9 255,330.2 
	259.2,312.9 "/>
<polyline fill="none" stroke="#000000" stroke-width="2" stroke-miterlimit="10" points="275.8,298.3 273.2,312.9 268.9,312.9 
	267.1,299 "/>
<polyline fill="none" stroke="#000000" stroke-width="2" stroke-miterlimit="10" points="273.2,312.9 288.9,323.9 273.2,330.2 
	268.9,312.9 "/>
<path fill="none" stroke="#000000" stroke-width="2" stroke-miterlimit="10" d="M271,119.6c2.5,3.2,4.1,7.7,4.1,12.7
	c0,9.9-6.3,17.9-14,17.9c-7.7,0-14-8-14-17.9c0-4.7,1.5-9.1,3.8-12.3"/>
<path fill="none" stroke="#000000" stroke-width="2" stroke-miterlimit="10" d="M240.5,173.8l-5.3-1.1l1-22.1
	c-0.7-44.1,23.9-42.6,23.9-42.6s17.8-1.9,21.1,16.5s4.8,49.3,4.8,49.3l-4.6,1.4"/>
<path fill="none" stroke="#000000" stroke-width="2" stroke-miterlimit="10" d="M249,119.5c0,0,8.5,5.5,24.2,0"/>
</svg>
