<?xml version="1.0" encoding="utf-8"?>
<!-- Generator: Adobe Illustrator 19.2.1, SVG Export Plug-In . SVG Version: 6.00 Build 0)  -->
<svg version="1.0" xmlns="http://www.w3.org/2000/svg" xmlns:xlink="http://www.w3.org/1999/xlink" x="0px" y="0px" width="432px"
	 height="432px" viewBox="0 0 432 432" enable-background="new 0 0 432 432" xml:space="preserve">
<g id="Layer_2">
	<path fill="#27AAE1" d="M179.1,96.9c0,0-14.7,20.2,0,42.9c0,0-13-3.2-12.1-20C168,102.9,175.2,96.9,179.1,96.9z"/>
	<path fill="#27AAE1" d="M167,146.1l5.3,65.6c0,0,18.3,3.3,22.7,3.2c0,0-15.9,2.8-28-0.3l-6.3-68.5H167z"/>
	<polygon fill="#27AAE1" points="171,215 171,315.7 153,330.6 168.6,337.4 175.7,315.7 184.1,217.1 	"/>
	<polygon fill="#27AAE1" points="192.5,216.1 203.7,314.7 223.7,330 207.5,337.4 196.7,314.7 185.8,216.3 	"/>
	<path fill="#27AAE1" d="M161.6,156.2c-1.2,0.7-12.7,23.7-12.7,23.7l6.3,31.8l-1.4-32.1l8.7-13.9L161.6,156.2z"/>
</g>
<g id="Layer_1">
	<ellipse fill="none" stroke="#000000" stroke-width="2" stroke-miterlimit="10" cx="181" cy="118.4" rx="14" ry="21.7"/>
	<path fill="none" stroke="#000000" stroke-width="2" stroke-miterlimit="10" d="M171.8,98.9c0,0,10,3.2,18.7-1.2"/>
	<path fill="none" stroke="#000000" stroke-width="2" stroke-miterlimit="10" d="M168.6,102.1c0,0,14.3,5.1,24.2-2.1"/>
	<path fill="none" stroke="#000000" stroke-width="2" stroke-miterlimit="10" d="M167,105.6c0,0,16.9,6.1,28-0.9"/>
	<line fill="none" stroke="#000000" stroke-width="2" stroke-miterlimit="10" x1="176" y1="138.6" x2="176.8" y2="145.9"/>
	<line fill="none" stroke="#000000" stroke-width="2" stroke-miterlimit="10" x1="185" y1="139.2" x2="185" y2="145.1"/>
	<path fill="none" stroke="#000000" stroke-width="2" stroke-miterlimit="10" d="M200.5,145l-39.8,1.1l6.3,68.5c0,0,17.2,3.8,33.4,0
		V145z"/>
	<polyline fill="none" stroke="#000000" stroke-width="2" stroke-miterlimit="10" points="160.7,146.1 141.7,178.6 150.2,214.7 
		150.2,221.7 156,228.9 160.7,226.4 156.7,217.9 160.7,218.2 160.7,213.9 156,211.3 153.2,180.7 162.5,165.7 	"/>
	<path fill="none" stroke="#000000" stroke-width="2" stroke-miterlimit="10" d="M200.5,145c0,0,17.4,43.8,22.1,55.5"/>
	<path fill="none" stroke="#000000" stroke-width="2" stroke-miterlimit="10" d="M200.5,171.7c0,0,11.6,23.7,15.5,31.7"/>
	<polyline fill="none" stroke="#000000" stroke-width="2" stroke-miterlimit="10" points="168.6,215 168.6,315.7 175.7,315.7 
		184.2,216.3 	"/>
	<polyline fill="none" stroke="#000000" stroke-width="2" stroke-miterlimit="10" points="186,216.3 199.2,314.7 207.5,314.7 
		200.5,214.7 	"/>
	<polyline fill="none" stroke="#000000" stroke-width="2" stroke-miterlimit="10" points="168.6,315.7 152.1,328.4 167,334.4 
		175.7,315.7 	"/>
	<polyline fill="none" stroke="#000000" stroke-width="2" stroke-miterlimit="10" points="199.2,314.7 210,334.4 225.5,329.4 
		207.5,314.7 	"/>
	<path fill="none" stroke="#000000" stroke-width="2" stroke-miterlimit="10" d="M271.1,119.8c1.6,3.1,2.6,7,2.6,11.2
		c0,10.3-5.7,18.6-12.8,18.6c-7.1,0-12.8-8.3-12.8-18.6c0-0.6,0-1.3,0.1-1.9"/>
	<line fill="none" stroke="#000000" stroke-width="2" stroke-miterlimit="10" x1="256.5" y1="148.4" x2="257" y2="156.2"/>
	<line fill="none" stroke="#000000" stroke-width="2" stroke-miterlimit="10" x1="265.7" y1="148.4" x2="265" y2="156.2"/>
	<path fill="none" stroke="#000000" stroke-width="2" stroke-miterlimit="10" d="M256.7,153.9l-20.7-5.5c0,0,5.5-16.1,5.4-24.3
		s6-18.1,16.7-18.4c10.8-0.3,20.1,2.7,21.1,19.4s7.5,26.3,7.5,26.3s-17,3.6-21.6,3.6"/>
	<path fill="none" stroke="#000000" stroke-width="2" stroke-miterlimit="10" d="M245.8,129.7c0,0,17.6-5.2,27.8-12.4"/>
	<path fill="none" stroke="#000000" stroke-width="2" stroke-miterlimit="10" d="M250.8,156.2h19.9l5.1,21.4l-2.8,25.2
		c0,0-16.2,2.8-23.8,0.7l-2.2-25.9L250.8,156.2z"/>
	<path fill="none" stroke="#000000" stroke-width="2" stroke-miterlimit="10" d="M250.8,156.2l-28.2,44.4l-5.3,1.1l-4,7
		c0,0,3.4,2.3,6,4"/>
	<path fill="none" stroke="#000000" stroke-width="2" stroke-miterlimit="10" d="M227,206.9c0.2-1.7,0.4-3.5,0.4-3.5l19.5-25.9"/>
	<polygon fill="none" stroke="#000000" stroke-width="2" stroke-miterlimit="10" points="230.1,209.4 223.7,205.1 217.2,208.7 
		221.8,218.4 	"/>
	<path fill="none" stroke="#000000" stroke-width="2" stroke-miterlimit="10" d="M270.7,156.2l7.9,2l8.2,52.5l1.8,4l-1.8,10.2
		l-4.2-1.2V215l-3,2.4l-1.7-2.8l4.2-5.1c0,0-0.2-0.7-0.2-0.9l-6.3-27.1"/>
	<path fill="none" stroke="#000000" stroke-width="2" stroke-miterlimit="10" d="M249.1,203.4L236,294c0,0,28.5,9,54.2,0L273,202.7"
		/>
	<line fill="none" stroke="#000000" stroke-width="2" stroke-miterlimit="10" x1="141.7" y1="178.6" x2="153.2" y2="180.7"/>
	<polyline fill="none" stroke="#000000" stroke-width="2" stroke-miterlimit="10" points="252.1,297.3 254.7,311.9 259,311.9 
		260.8,298 	"/>
	<polyline fill="none" stroke="#000000" stroke-width="2" stroke-miterlimit="10" points="254.7,311.9 239,322.9 254.7,329.2 
		259,311.9 	"/>
	<polyline fill="none" stroke="#000000" stroke-width="2" stroke-miterlimit="10" points="275.5,297.3 272.9,311.9 268.7,311.9 
		266.8,298 	"/>
	<polyline fill="none" stroke="#000000" stroke-width="2" stroke-miterlimit="10" points="272.9,311.9 288.7,322.9 272.9,329.2 
		268.7,311.9 	"/>
</g>
<g id="Layer_3">
	<path opacity="0" fill="none" stroke="#27AAE1" stroke-width="20" stroke-miterlimit="10" d="M165.4,98.3c5.8,0,11.5,0.1,17.3,0.1
		c-5.5,3.9-11.7,6.8-18.2,8.6c5.3,0.1,10.7,0.1,16,0.2c-5.5,1.3-10.7,3.5-15.4,6.6c4.1,0.5,8.1,0.9,12.2,1.4
		c-6.4,2-12.9,3.9-19.3,5.9c6.5,1,13.2,1.3,19.7,0.7c-4.1,0.9-8.2,2-12.2,3.4c4.1,0.7,8.2,1.5,12.4,2.2c-4.4,2-8.7,4.1-13.1,6.1
		c5.2,0,10.4,0.9,15.3,2.7c-7.7,2.5-15.4,4.9-23,7.4c4.2,0.3,8.3,0.6,12.5,0.9c-5.8,3.6-12,6.5-18.5,8.8c7-0.6,14-1.1,21-1.7
		c-9.4,3.1-18.8,6.2-28.2,9.2c6.8-0.2,13.7-0.3,20.5-0.5c-5.9,2.4-11.7,4.9-17.6,7.3c6.1-1.8,12.6-2.5,18.9-1.8
		c-5.7,2.4-11,5.8-15.6,9.9c8.6-1.9,17.4-3,26.2-3.4c-9.3,3.5-18.2,8-26.7,13.2c8.8-1.4,17.7-2.2,26.7-2.5
		c-12.5,2.8-24.8,6.7-36.5,11.9c8.3-1.7,16.8-2.8,25.4-3.1c-5.8,2.5-11.7,5.1-17.5,7.6c8.3-1.4,16.6-2,25-1.8
		c-7.4,5.3-15.5,9.8-23.9,13.3c14.4-3.9,29.4-5.7,44.4-5.1c-10.6,3.1-21.6,4.6-32.7,4.6c10.9-0.1,21.7-0.2,32.6-0.3
		c-9.6,2.5-19.2,5-28.8,7.5c3,1.1,6.3,1.1,9.6,1c10.5-0.2,21-0.5,31.5-0.7c-14.8,3.2-29.6,6.9-44.3,10.9c13-1.9,26.3-2.6,39.4-2
		c-11.4,3.4-23.2,5.8-35.1,7.2c15.4,1,30.9,2,46.3,3c-15.6,2.8-31.2,5.5-46.7,8.3c13.2-0.2,26.3-0.4,39.5-0.6
		c-13.1,2.4-26.1,5.4-38.9,9.1c13.3,0.4,26.6,0.2,39.9-0.5c-17.2,5.4-34.8,9.8-52.5,13.1c13.1-1.4,26.3-1.9,39.4-1.5
		c-12.4,4.5-25.4,7.2-38.5,8.1c13.9-1.6,28-2.5,42-2.7c-11.9,5.2-24.6,8.8-37.5,10.4c19.6-2.4,39.3-3.5,59.1-3.5
		c-22.6,3.3-45.2,6.6-67.9,10c20.7-0.6,41.4-1.2,62.1-1.8c-11.8,4.4-23.6,8.8-35.4,13.2c17.6,0.2,35.2,0,52.8-0.5
		c-18.5,0.7-36.9,3-55,6.7c18.8-1.5,37.6-1.6,56.4-0.4c-17.3,2-34.6,4-51.9,6c-6.3,0.7-12.8,1.5-18.6,4.2
		c19.7-2.3,39.6-2.7,59.4-1.4c-20.8,8.2-45.2,3.6-65.4,13.2c20.8-3.1,41.7-4.8,62.7-5c-24.4,1.1-49.2,2.3-72.2,10.4
		c24.1,1.1,48.3-1.3,72.3-3.7c-10.4,3.7-20.9,7.4-31.3,11.1c14.6,1.3,29.5-0.5,43.3-5.3"/>
</g>
</svg>
