<?xml version="1.0" encoding="utf-8"?>
<!-- Generator: Adobe Illustrator 21.0.2, SVG Export Plug-In . SVG Version: 6.00 Build 0)  -->
<!DOCTYPE svg PUBLIC "-//W3C//DTD SVG 1.0//EN" "http://www.w3.org/TR/2001/REC-SVG-20010904/DTD/svg10.dtd">
<svg version="1.0" id="Layer_1" xmlns="http://www.w3.org/2000/svg" xmlns:xlink="http://www.w3.org/1999/xlink" x="0px" y="0px"
	 width="504px" height="504px" viewBox="0 0 504 504" enable-background="new 0 0 504 504" xml:space="preserve">
<g id="Layer_1_1_">
	<ellipse fill="none" stroke="#000000" stroke-width="2" stroke-miterlimit="10" cx="223" cy="60.9" rx="14" ry="22.3"/>
	<polyline fill="none" stroke="#000000" stroke-width="2" stroke-miterlimit="10" points="227.5,82 227.5,88.4 218.9,88.4 
		218.9,82.2 	"/>
	<polygon fill="none" stroke="#000000" stroke-width="2" stroke-miterlimit="10" points="241.2,88.4 203.8,88.4 207.6,162.7 
		237,162.7 	"/>
	<polyline fill="none" stroke="#000000" stroke-width="2" stroke-miterlimit="10" points="203.8,88.4 189.5,123 192.7,168.9 
		198.4,168.9 200.2,126.9 205,112.9 	"/>
	<polyline fill="none" stroke="#000000" stroke-width="2" stroke-miterlimit="10" points="198.2,168.8 202.4,176 199.2,177.8 
		196,174.3 195.2,189.3 188.6,183.1 192.6,168.8 	"/>
	<line fill="none" stroke="#000000" stroke-width="2" stroke-miterlimit="10" x1="200.2" y1="126.9" x2="189.5" y2="123"/>
	<polyline fill="none" stroke="#000000" stroke-width="2" stroke-miterlimit="10" points="241.2,88.4 255.5,123 252.2,168.9 
		246.5,168.9 244.8,126.9 239.9,112.9 	"/>
	<polyline fill="none" stroke="#000000" stroke-width="2" stroke-miterlimit="10" points="246.6,168.8 242.5,176 245.7,177.8 
		248.9,174.3 249.8,189.3 256.2,183.1 252.2,168.8 	"/>
	<line fill="none" stroke="#000000" stroke-width="2" stroke-miterlimit="10" x1="244.8" y1="126.9" x2="255.5" y2="123"/>
	<polyline fill="none" stroke="#000000" stroke-width="2" stroke-miterlimit="10" points="237,162.7 234.5,286.6 228.5,286.6 
		222.2,162.7 215.5,286.6 208.5,286.6 207.6,162.7 	"/>
	<polyline fill="none" stroke="#000000" stroke-width="2" stroke-miterlimit="10" points="234.5,286.6 252.7,294.4 241.2,300.1 
		228.5,286.6 	"/>
	<polyline fill="none" stroke="#000000" stroke-width="2" stroke-miterlimit="10" points="215.5,286.6 205.7,300.1 193.9,294.3 
		208.5,286.6 	"/>
	<ellipse fill="none" stroke="#000000" stroke-width="2" stroke-miterlimit="10" cx="278.9" cy="354" rx="18.3" ry="27.1"/>
	<path fill="none" stroke="#000000" stroke-width="2" stroke-miterlimit="10" d="M252.8,389.1c0,0,24.9-16,49.5,0l7.2,71.2
		c0,0-42.3,15.8-63.2,0L252.8,389.1z"/>
	<path fill="none" stroke="#000000" stroke-width="2" stroke-miterlimit="10" d="M249,462.1l7.3,15.5c0,0,16.2,5.1,40.2,0l7.4-15.5"
		/>
	<path fill="none" stroke="#000000" stroke-width="2" stroke-miterlimit="10" d="M252.7,390.3l-22.6,67l-20.4,4.9
		c0,0,2.1,5.8,2.7,5.2c0.6-0.6,18.8-1.9,18.8-1.9l6.1,3.2l4-3l-3.2-6.7l11.3-33.2"/>
	<path fill="none" stroke="#000000" stroke-width="2" stroke-miterlimit="10" d="M302.4,389.9l23.2,67.3l20.4,4.9
		c0,0-2.1,5.8-2.7,5.2s-18.8-1.9-18.8-1.9l-6.1,3.2l-4-3l3.2-6.7l-11.4-32.2"/>
	
		<ellipse transform="matrix(0.9822 -0.1877 0.1877 0.9822 -58.0188 39.5064)" fill="none" stroke="#000000" stroke-width="2" stroke-miterlimit="10" cx="179.6" cy="326.1" rx="16" ry="23.8"/>
	<line fill="none" stroke="#000000" stroke-width="2" stroke-miterlimit="10" x1="167.8" y1="339.5" x2="164.2" y2="345.4"/>
	<path fill="none" stroke="#000000" stroke-width="2" stroke-miterlimit="10" d="M176.5,408.4l16,5.8l8-4l-15.2-56.3l-27.2-10.7
		c0,0-14,18.5-23.2,75.8c0,0,24.5,9.7,40.7,5.7l3.2-52.2"/>
	<path fill="none" stroke="#000000" stroke-width="2" stroke-miterlimit="10" d="M178.2,382.9c0,0.7,5.3,20.5,12.9,30.8"/>
	<path fill="none" stroke="#000000" stroke-width="2" stroke-miterlimit="10" d="M200.5,410.2l19.7,6.5v15.2c0,0-20,15.8-32.3,16
		s-42.5-3.7-45.8-9.7s-5.7-18.7-5.7-18.7"/>
	<path fill="none" stroke="#000000" stroke-width="2" stroke-miterlimit="10" d="M175.8,422.8c0,0,13.7-5.5,32.4-6.5"/>
	
		<ellipse transform="matrix(2.972084e-02 -0.9996 0.9996 2.972084e-02 200.6699 501.4461)" fill="none" stroke="#000000" stroke-width="2" stroke-miterlimit="10" cx="358.6" cy="147.4" rx="24.3" ry="16.4"/>
	<line fill="none" stroke="#000000" stroke-width="2" stroke-miterlimit="10" x1="366.4" y1="174.4" x2="365.1" y2="169.4"/>
	<line fill="none" stroke="#000000" stroke-width="2" stroke-miterlimit="10" x1="358.1" y1="178.1" x2="358" y2="171.6"/>
	<path fill="none" stroke="#000000" stroke-width="2" stroke-miterlimit="10" d="M359,238.4c7.9-0.9,16.2-1.9,16.2-1.9
		c3.7-40.1-2-63.1-2.9-63.4c-0.9-0.3-20,7.2-20,7.2c1.3,37.6-7.2,59.7-7.2,59.7s2.5-0.3,6-0.7"/>
	<path fill="none" stroke="#000000" stroke-width="2" stroke-miterlimit="10" d="M333.6,251.2c0.4-1.7,0.8-3.2,0.8-3.2l15.5-1.5
		l10-60"/>
	<line fill="none" stroke="#000000" stroke-width="2" stroke-miterlimit="10" x1="367.6" y1="200.2" x2="355.2" y2="253"/>
	<polyline fill="none" stroke="#000000" stroke-width="2" stroke-miterlimit="10" points="320.2,267.8 319,310.4 313.5,310.4 
		305.1,240.8 345.1,240 	"/>
	<path fill="none" stroke="#000000" stroke-width="2" stroke-miterlimit="10" d="M319,310.4l-13.8,15.9l-15.8-6.4
		c0,0,21.7-9.1,24.1-9.5"/>
	<polyline fill="none" stroke="#000000" stroke-width="2" stroke-miterlimit="10" points="295.1,317.5 286,308 313,306.2 	"/>
	<polygon fill="none" stroke="#000000" stroke-width="2" stroke-miterlimit="10" points="396,153.1 381.6,253 374,253 381.6,153.1 	
		"/>
	<polygon fill="none" stroke="#000000" stroke-width="2" stroke-miterlimit="10" points="385,264.5 316.2,267.8 315,251.1 385,253 	
		"/>
	<polyline fill="none" stroke="#000000" stroke-width="2" stroke-miterlimit="10" points="332.4,267.8 332.4,326.3 327.9,326.3 
		323,267.5 	"/>
	<polyline fill="none" stroke="#000000" stroke-width="2" stroke-miterlimit="10" points="371,265.2 374,325.4 381.6,325.4 
		381.6,264.6 	"/>
	<line fill="none" stroke="#000000" stroke-width="2" stroke-miterlimit="10" x1="372.5" y1="292.2" x2="332.4" y2="292.2"/>
	<line fill="none" stroke="#000000" stroke-width="2" stroke-miterlimit="10" x1="372.8" y1="298.3" x2="332.4" y2="299.5"/>
</g>
</svg>
