<?xml version="1.0" encoding="utf-8"?>
<!-- Generator: Adobe Illustrator 21.0.2, SVG Export Plug-In . SVG Version: 6.00 Build 0)  -->
<!DOCTYPE svg PUBLIC "-//W3C//DTD SVG 1.0//EN" "http://www.w3.org/TR/2001/REC-SVG-20010904/DTD/svg10.dtd">
<svg version="1.0" xmlns="http://www.w3.org/2000/svg" xmlns:xlink="http://www.w3.org/1999/xlink" x="0px" y="0px" width="792px"
	 height="612px" viewBox="0 0 792 612" enable-background="new 0 0 792 612" xml:space="preserve">
<g id="Color">
	<ellipse fill="#FFFFFF" cx="397.5" cy="299" rx="172.5" ry="85"/>
</g>
<g id="Stroke">
	
		<path opacity="0" fill="none" stroke="#000000" stroke-width="46" stroke-linecap="round" stroke-linejoin="round" stroke-miterlimit="10" d="
		M208,254c50.8-47.8,116.2-76.5,180.2-104.3c-68.2,66.6-160.9,105.1-224.9,175.8c89.6-66.1,186.2-122.9,287.6-169.1
		c-67.1,46.9-136.8,90.1-208.6,129.4c-32.5,17.8-66.6,35.7-88.9,65.3c111.3-64.6,232.2-111.3,344.4-174.5
		c-56.6,42.9-117,80.8-180.2,113.1c-30.1,15.4-61.6,30-84.9,54.6c101.2-65,208.3-121,319.4-167.1c-13.4,13.1-28.6,24.2-43.7,35.3
		c-39.1,28.4-78.5,56.5-119.8,81.7C339.8,324,288.1,349.9,245.5,388c96.9-72.6,198.5-138.9,303.9-198.4c-8.5,4.8-16.9,19.4-24,26.5
		c-9,8.9-18.7,16.9-28.3,25.1c-19.9,17.2-41.5,32.7-62.5,48.6c-45,34.1-90,68.2-134.9,102.4c58.5-22.5,105.8-66.3,159.1-99.4
		c39.9-24.8,85.1-45.2,111.5-84C489.8,277,398.7,331.7,318,399.6c27.7-14.3,55.5-28.5,83.2-42.8c22.4-11.5,44.9-23.1,65.8-37.2
		c37.9-25.5,70.5-59.3,111.7-79c-61,53.2-133.1,93.2-190.3,150.4c44.9-30.5,91.5-58.5,139.5-83.6c31.4-16.5,64-32.1,90.1-56.1
		c-58.6,53.7-134.9,87-187.5,146.7c52.9-33.1,113.6-53.1,164.6-89.1c-21.1,19.8-42.2,39.7-63.3,59.5c-7.6,7.2-15.5,14.7-19.4,24.4"
		/>
</g>
</svg>
