<?xml version="1.0" encoding="utf-8"?>
<!-- Generator: Adobe Illustrator 21.0.2, SVG Export Plug-In . SVG Version: 6.00 Build 0)  -->
<!DOCTYPE svg PUBLIC "-//W3C//DTD SVG 1.0//EN" "http://www.w3.org/TR/2001/REC-SVG-20010904/DTD/svg10.dtd">
<svg version="1.0" id="Layer_1" xmlns="http://www.w3.org/2000/svg" xmlns:xlink="http://www.w3.org/1999/xlink" x="0px" y="0px"
	 width="288px" height="288px" viewBox="0 0 288 288" enable-background="new 0 0 288 288" xml:space="preserve">
<g id="Color">
	<path fill="#FFFFFF" d="M133.3,196.4l16.5,2.5c0,0,13.5,1,17.5,0s20-7,20-7s17.5,0.5,22,0s21.4-8,21.4-8l11.1-9.5l19-2.5l6.5-14
		c0,0,8.5-21,8.5-23.5s0-11,0-11s-5.5-19-6-21s0.5-13-1.5-18.5s-13.5-14.5-13.5-14.5l-18-11.5c0,0-22.5-2.5-25.5-4s-11.5-10-11.5-10
		s-17-12-22.5-12s-23.5,0-23.5,0h-20.5c0,0-14.5-1-23,0s-29,3-29,3L65.8,47.4c0,0-14.5,13.5-19.5,16s-21,13.5-21,13.5
		s-4.5,19.5-4.5,24.5s-9.7,18.5-9.1,22.5s11.3,29.6,12.1,33.5s5.5,16,13.5,19s39,11.5,40.5,11.5s14.5,9.9,21,11.4
		c6.5,1.6,15.3,0.6,19,0C121.4,198.8,133.3,196.4,133.3,196.4z"/>
	<path fill="#27AAE1" d="M189.6,144.5c0,0-9.3,1.3-10,6.9c-0.7,5.6,0.9,15.1,10,13.8s13.3-2.4,13.3-5.3s0.9-5.5,0-9.1
		C202,147.2,189.6,144.5,189.6,144.5z"/>
	<path fill="#27AAE1" d="M206.5,85.5c0,0-11.8-3.1-14.4,3.1c-2.5,6.2-4.7,16,1.1,17.4s11.3,3.1,15.4,1.5s8.2-4.7,8.4-8.9
		C217.2,94.4,215.4,87.8,206.5,85.5z"/>
	<path fill="#27AAE1" d="M88.3,63.2c0,0-14.2-2.4-15.1,5.5s-0.9,17.6,7.5,17.6s13.7,0,15-4.5s3.1-8.4,2.4-11.4S88.3,63.2,88.3,63.2z
		"/>
	<path fill="#27AAE1" d="M93.9,133.4c0,0-12-2.2-13.3,7.6s3.6,12.9,9.4,12.4s12.5-2.2,13.1-7.3C103.7,141,102.3,134.3,93.9,133.4z"
		/>
	<path fill="#27AAE1" d="M139,99.7c0,0-8.9-5.3-10.5,1.8c-1.6,7.1-6,18,3.3,16.9s13.3-0.9,13.6-6.5C145.7,106.2,139,99.7,139,99.7z"
		/>
	<path fill="#27AAE1" d="M160.6,43.3c0,0-8.7-1.8-10.9,1.8s-7.4,13.1,0,14.9c7.4,1.8,15.1,5.3,17.1,0
		C168.8,54.8,168.4,44.2,160.6,43.3z"/>
	<path fill="#27AAE1" d="M243.7,116.5c0,0-11.6-3.3-13.6,1.1s-7.4,10.4,0.7,14.7c8.2,4.4,10.9,8.5,14,4.7
		C247.8,133.2,251.3,117.7,243.7,116.5z"/>
	<path fill="#27AAE1" d="M141.1,155c0,0-11.2,0-12,7.4s3,14.7,8.7,14.7s13.9,1.7,13.9-6S151.5,154.1,141.1,155z"/>
	<path fill="#27AAE1" d="M47.5,111.9c0,0-11.7-1-11.7,10.5s2.2,17.3,9,16.7s15.3,3.6,15.5-7.7C60.6,120.1,60,111.1,47.5,111.9z"/>
</g>
<g id="Outline">
	<path fill="none" stroke="#000000" stroke-width="2" stroke-miterlimit="10" d="M133.3,196.4l16.5,2.5c0,0,13.5,1,17.5,0s20-7,20-7
		s17.5,0.5,22,0s21.4-8,21.4-8l11.1-9.5l19-2.5l6.5-14c0,0,8.5-21,8.5-23.5s0-11,0-11s-5.5-19-6-21s0.5-13-1.5-18.5
		s-13.5-14.5-13.5-14.5l-18-11.5c0,0-22.5-2.5-25.5-4s-11.5-10-11.5-10s-17-12-22.5-12s-23.5,0-23.5,0h-20.5c0,0-14.5-1-23,0
		s-29,3-29,3L65.8,47.4c0,0-14.5,13.5-19.5,16s-21,13.5-21,13.5s-4.5,19.5-4.5,24.5s-9.7,18.5-9.1,22.5s11.3,29.6,12.1,33.5
		s5.5,16,13.5,19s39,11.5,40.5,11.5s14.5,9.9,21,11.4c6.5,1.6,15.3,0.6,19,0C121.4,198.8,133.3,196.4,133.3,196.4z"/>
	<path fill="none" stroke="#000000" stroke-width="2" stroke-miterlimit="10" d="M189.6,144.5c0,0-9.3,1.3-10,6.9
		c-0.7,5.6,0.9,15.1,10,13.8s13.3-2.4,13.3-5.3s0.9-5.5,0-9.1C202,147.2,189.6,144.5,189.6,144.5z"/>
	<path fill="none" stroke="#000000" stroke-width="2" stroke-miterlimit="10" d="M206.5,85.5c0,0-11.8-3.1-14.4,3.1
		c-2.5,6.2-4.7,16,1.1,17.4s11.3,3.1,15.4,1.5s8.2-4.7,8.4-8.9C217.2,94.4,215.4,87.8,206.5,85.5z"/>
	<path fill="none" stroke="#000000" stroke-width="2" stroke-miterlimit="10" d="M88.3,63.2c0,0-14.2-2.4-15.1,5.5
		s-0.9,17.6,7.5,17.6s13.7,0,15-4.5s3.1-8.4,2.4-11.4S88.3,63.2,88.3,63.2z"/>
	<path fill="none" stroke="#000000" stroke-width="2" stroke-miterlimit="10" d="M93.9,133.4c0,0-12-2.2-13.3,7.6s3.6,12.9,9.4,12.4
		s12.5-2.2,13.1-7.3C103.7,141,102.3,134.3,93.9,133.4z"/>
	<path fill="none" stroke="#000000" stroke-width="2" stroke-miterlimit="10" d="M139,99.7c0,0-8.9-5.3-10.5,1.8
		c-1.6,7.1-6,18,3.3,16.9s13.3-0.9,13.6-6.5C145.7,106.2,139,99.7,139,99.7z"/>
	<path fill="none" stroke="#000000" stroke-width="2" stroke-miterlimit="10" d="M160.6,43.3c0,0-8.7-1.8-10.9,1.8s-7.4,13.1,0,14.9
		c7.4,1.8,15.1,5.3,17.1,0C168.8,54.8,168.4,44.2,160.6,43.3z"/>
	<path fill="none" stroke="#000000" stroke-width="2" stroke-miterlimit="10" d="M243.7,116.5c0,0-11.6-3.3-13.6,1.1
		s-7.4,10.4,0.7,14.7c8.2,4.4,10.9,8.5,14,4.7C247.8,133.2,251.3,117.7,243.7,116.5z"/>
	<path fill="none" stroke="#000000" stroke-width="2" stroke-miterlimit="10" d="M141.1,155c0,0-11.2,0-12,7.4s3,14.7,8.7,14.7
		s13.9,1.7,13.9-6S151.5,154.1,141.1,155z"/>
	<path fill="none" stroke="#000000" stroke-width="2" stroke-miterlimit="10" d="M47.5,111.9c0,0-11.7-1-11.7,10.5s2.2,17.3,9,16.7
		s15.3,3.6,15.5-7.7C60.6,120.1,60,111.1,47.5,111.9z"/>
	<path fill="none" stroke="#000000" stroke-width="2" stroke-miterlimit="10" d="M124.5,199.5c0.6,8.3,1.3,16.8,1.3,16.8l-4,23.7
		l-9.5,18.5h53l-11-16.5l-8.5-19.7c0,0-2-20.8-2-20.3c0,0.1-0.2-1.2-0.6-3.3"/>
</g>
<g id="Stroke">
	
		<path fill="none" stroke="#000000" stroke-width="27" stroke-linecap="round" stroke-linejoin="round" stroke-miterlimit="10" stroke-opacity="0" d="
		M18.4,53.1c39.8-16,81.6-27,124.1-32.6C106.2,35.8,67,43,30.7,58.4c-7.9,3.4-16.2,7.6-20.1,15.2c48.1-6.4,95.4-18.4,140.7-35.7
		c17-6.5,34.2-13.9,52.4-14.4c-3.6,9.9-14.4,15.1-24.3,18.5c-29.5,10-60.7,13.7-91.3,19.5S26.6,75.7,1.2,93.8
		c25.3-1.2,50.4-5.1,75.3-9.3c24.9-4.2,49.8-8.6,74-15.5c33-9.3,65.5-23.3,99.8-23.8c-31.5,18-66.4,30-102.3,35.3
		c-28.5,4.2-57.4,4.2-85.8,9s-57,15-76.8,35.9c81.9-10.8,161.7-33.4,241.1-56c14.9-4.2,30.2-8.5,45.6-7.3
		c-61.8,33.5-134.1,40.5-202.3,58c-26.9,6.9-54.5,16.1-74.1,35.8c40.6-2.3,81.4-8.5,119.5-22.7c18.4-6.8,36-15.4,54.1-22.9
		c43.8-18.2,89.8-30.2,135.7-42.1c-10,8.8-21.7,15.5-33.7,21.3c-83.5,40.5-183,38.2-265.7,80.3c-4.3,2.2-9.2,5.6-8.8,10.4
		c9.4,0.5,18.9,0.4,28.2-0.4c65.5-5.7,122.5-46.2,185.8-63.8c21.8-6,44.4-9.4,65.5-17.4c10.1-3.9,20.1-8.8,30.9-9.5
		c-30.6,30-74.6,40.5-115.6,53c-46,14-90.8,31.8-133.9,53.3c11,1.2,22.1-0.6,33-2.4c32.6-5.4,65.5-10.9,96.2-23.2
		c31.5-12.6,60.8-32.4,94.4-37.2c-24.9,24.3-55.7,41.8-87.9,54.8s-65.9,21.9-99.5,30.7c67.5-6.7,133.6-26.6,193.5-58.4
		c-9.3,14.7-24.8,24.1-39.8,32.9c-10.1,5.9-20.1,11.9-30.2,17.8"/>
</g>
</svg>
