<?xml version="1.0" encoding="utf-8"?>
<!-- Generator: Adobe Illustrator 21.0.2, SVG Export Plug-In . SVG Version: 6.00 Build 0)  -->
<!DOCTYPE svg PUBLIC "-//W3C//DTD SVG 1.0//EN" "http://www.w3.org/TR/2001/REC-SVG-20010904/DTD/svg10.dtd">
<svg version="1.0" xmlns="http://www.w3.org/2000/svg" xmlns:xlink="http://www.w3.org/1999/xlink" x="0px" y="0px" width="915px"
	 height="627px" viewBox="0 0 915 627" enable-background="new 0 0 915 627" xml:space="preserve">
<g id="Color">
	<polyline fill="#FFFFFF" points="51.5,470 209.5,148 672.5,148 846.5,470 51.5,470 	"/>
</g>
<g id="Stroke">
	
		<path opacity="0" fill="none" stroke="#000000" stroke-width="98" stroke-linecap="round" stroke-linejoin="round" stroke-miterlimit="10" d="
		M78.2,497c1.1-55.6,2.1-111.3,3.2-166.9c-6.6,61.4-4.8,123.8,5.4,184.8c40.9-89.4,50.2-189.5,59-287.4
		c-25.9,111.3-36.3,226.2-31.1,340.3c48.8-138.5,61.3-287.3,104.2-427.8c-27,136.9-45.5,275.5-55.6,414.8
		c39.4-158.1,34.5-325.3,80.6-481.5c-8.3,144-16.5,288-24.8,432C256,367,285.4,226.8,307,85.5c-27,167.6-27.1,338.3-26.2,508.1
		c26.8-151.9,53.7-304.1,92.8-453.3c-22.2,120-31.4,242.5-27.3,364.5c31.3-72.2,57.8-142.4,64.6-221.3c3.7-42.6,6.1-85.4,7.1-128.2
		c0.4-14.8,0.9-30.6,9.3-42.8c-0.3,41.6-0.5,83.2-0.8,124.9c-0.2,40.3-4.8,83.3-0.4,123.2c9.8-2.8,19.3-38.7,23.4-48.5
		c7.8-18.7,15.2-37.6,22.4-56.6c5.4-14.4,10.8-29.1,12.5-44.4c1.5-13.7,0.1-27.6,1.4-41.4c2.1-22.6,11.5-44.7,8.9-67.3
		c-20.4,105.2-52.8,209.2-53.4,316.4c-0.1,16.2,9.6,20.1,13.9,33.3c5.2,16,0.7,36,1,52.5c22.6-133.1,45.3-266.2,67.9-399.3
		c-3.2,132.9,14.3,265.3,31.7,397c27.3-140.3,42.7-282.9,46-425.7c-3.4,138.9,11,277.5,25.4,415.7c21.9-116.7,37-234.7,45-353.2
		c10.6,117.8,21.3,235.5,31.9,353.3c14.4-97.7,28.8-195.3,43.2-293c0.5,107.5,1.1,215,1.6,322.4c25.6-56.8,51.2-113.6,76.8-170.4
		c-13.7,50.5-21.8,102.5-24.1,154.7c16.5-23.1,33-46.3,49.4-69.4c-2.5,25.4-4.9,50.8-7.4,76.2"/>
</g>
</svg>
