<?xml version="1.0" encoding="utf-8"?>
<!-- Generator: Adobe Illustrator 21.0.0, SVG Export Plug-In . SVG Version: 6.00 Build 0)  -->
<!DOCTYPE svg PUBLIC "-//W3C//DTD SVG 1.0//EN" "http://www.w3.org/TR/2001/REC-SVG-20010904/DTD/svg10.dtd">
<svg version="1.0" id="Layer_1" xmlns="http://www.w3.org/2000/svg" xmlns:xlink="http://www.w3.org/1999/xlink" x="0px" y="0px"
	 width="792px" height="432px" viewBox="0 0 792 432" enable-background="new 0 0 792 432" xml:space="preserve">
<ellipse fill="none" stroke="#000000" stroke-width="2" stroke-miterlimit="10" cx="425.8" cy="120.6" rx="14.8" ry="21.7"/>
<polyline fill="none" stroke="#000000" stroke-width="2" stroke-miterlimit="10" points="419.4,140.2 419.4,147.9 430.8,147.9 
	430.4,141.2 "/>
<path fill="none" stroke="#000000" stroke-width="2" stroke-miterlimit="10" d="M409.1,147.9h30.5l11.5,150.5c0,0-33.8,8.2-54.2,0
	L409.1,147.9z"/>
<path fill="none" stroke="#000000" stroke-width="2" stroke-miterlimit="10" d="M417.1,162.9l-7.2,66.8c0,0,15.2,3.8,26.2,0
	l-5.3-65.5"/>
<path fill="none" stroke="#000000" stroke-width="2" stroke-miterlimit="10" d="M416.3,230.8l2.2,15.8c0,0,8.6,1,8.8,0
	c0.2-1,0.5-15.2,0.5-15.2"/>
<polyline fill="none" stroke="#000000" stroke-width="2" stroke-miterlimit="10" points="430.5,231.3 433.6,236.9 430.5,238.9 
	427.7,236.5 "/>
<path fill="none" stroke="#000000" stroke-width="2" stroke-miterlimit="10" d="M439.6,147.9c0,0-0.8,10.5-7.8,26.9"/>
<path fill="none" stroke="#000000" stroke-width="2" stroke-miterlimit="10" d="M412,209.2c-2.7,3.7-5.6,7.4-8.8,11.2"/>
<path fill="none" stroke="#000000" stroke-width="2" stroke-miterlimit="10" d="M442.6,187.4c0,0-3.4,6.2-8.6,14.5"/>
<path fill="none" stroke="#000000" stroke-width="2" stroke-miterlimit="10" d="M413.4,230.5c-4.1,4.6-8.1,8.3-11.8,10.4"/>
<path fill="none" stroke="#000000" stroke-width="2" stroke-miterlimit="10" d="M413.9,301.9c-0.5,1,2.4,21.3,2.4,21.3h5.1l2.6-21.1
	"/>
<path fill="none" stroke="#000000" stroke-width="2" stroke-miterlimit="10" d="M427.2,301.8c1.1,5.6,3.5,17.4,3.5,17.4h4.6
	c0,0,2.1-11.5,2.7-17.6"/>
<polyline fill="none" stroke="#000000" stroke-width="2" stroke-miterlimit="10" points="416.3,323.2 428.5,339.5 440.5,330.5 
	421.4,323.2 "/>
<polyline fill="none" stroke="#000000" stroke-width="2" stroke-miterlimit="10" points="430.7,319.2 445.9,327.4 453.4,320.2 
	436.1,319.2 "/>
<ellipse fill="none" stroke="#000000" stroke-width="2" stroke-miterlimit="10" cx="486.5" cy="120.6" rx="14.8" ry="21.7"/>
<polyline fill="none" stroke="#000000" stroke-width="2" stroke-miterlimit="10" points="480.2,140.2 480.2,147.9 491.5,147.9 
	491.1,141.2 "/>
<path fill="none" stroke="#000000" stroke-width="2" stroke-miterlimit="10" d="M469.9,147.9h30.5l11.5,150.5c0,0-33.8,8.2-54.3,0
	L469.9,147.9z"/>
<path fill="none" stroke="#000000" stroke-width="2" stroke-miterlimit="10" d="M477.9,162.9l-7.2,66.8c0,0,15.2,3.8,26.2,0
	l-5.3-65.5"/>
<path fill="none" stroke="#000000" stroke-width="2" stroke-miterlimit="10" d="M477,230.8l2.2,15.8c0,0,8.6,1,8.8,0
	c0.2-1,0.5-15.2,0.5-15.2"/>
<polyline fill="none" stroke="#000000" stroke-width="2" stroke-miterlimit="10" points="491.2,231.3 494.4,236.9 491.2,238.9 
	488.5,236.5 "/>
<path fill="none" stroke="#000000" stroke-width="2" stroke-miterlimit="10" d="M500.4,147.9c0,0-0.8,10.5-7.8,26.9"/>
<path fill="none" stroke="#000000" stroke-width="2" stroke-miterlimit="10" d="M472.8,209.2c-2.7,3.7-5.6,7.4-8.8,11.2"/>
<path fill="none" stroke="#000000" stroke-width="2" stroke-miterlimit="10" d="M503.4,187.4c0,0-3.4,6.2-8.6,14.5"/>
<path fill="none" stroke="#000000" stroke-width="2" stroke-miterlimit="10" d="M474.1,230.5c-4.1,4.6-8.1,8.3-11.8,10.4"/>
<path fill="none" stroke="#000000" stroke-width="2" stroke-miterlimit="10" d="M474.6,301.9c-0.5,1,2.4,21.3,2.4,21.3h5.1l2.6-21.1
	"/>
<path fill="none" stroke="#000000" stroke-width="2" stroke-miterlimit="10" d="M487.9,301.8c1.1,5.6,3.5,17.4,3.5,17.4h4.6
	c0,0,2.1-11.5,2.7-17.6"/>
<polyline fill="none" stroke="#000000" stroke-width="2" stroke-miterlimit="10" points="477,323.2 489.2,339.5 501.2,330.5 
	482.1,323.2 "/>
<polyline fill="none" stroke="#000000" stroke-width="2" stroke-miterlimit="10" points="491.4,319.2 506.6,327.4 514.1,320.2 
	496.9,319.2 "/>
<ellipse fill="none" stroke="#000000" stroke-width="2" stroke-miterlimit="10" cx="549.5" cy="120.6" rx="14.8" ry="21.7"/>
<polyline fill="none" stroke="#000000" stroke-width="2" stroke-miterlimit="10" points="543.2,140.2 543.2,147.9 554.5,147.9 
	554.1,141.2 "/>
<path fill="none" stroke="#000000" stroke-width="2" stroke-miterlimit="10" d="M532.9,147.9h30.5l11.5,150.5c0,0-33.8,8.2-54.2,0
	L532.9,147.9z"/>
<path fill="none" stroke="#000000" stroke-width="2" stroke-miterlimit="10" d="M540.9,162.9l-7.2,66.8c0,0,15.2,3.8,26.2,0
	l-5.3-65.5"/>
<path fill="none" stroke="#000000" stroke-width="2" stroke-miterlimit="10" d="M540,230.8l2.2,15.8c0,0,8.6,1,8.8,0
	s0.5-15.2,0.5-15.2"/>
<polyline fill="none" stroke="#000000" stroke-width="2" stroke-miterlimit="10" points="554.2,231.3 557.4,236.9 554.2,238.9 
	551.5,236.5 "/>
<path fill="none" stroke="#000000" stroke-width="2" stroke-miterlimit="10" d="M563.4,147.9c0,0-0.8,10.5-7.8,26.9"/>
<path fill="none" stroke="#000000" stroke-width="2" stroke-miterlimit="10" d="M535.8,209.2c-2.7,3.7-5.6,7.4-8.8,11.2"/>
<path fill="none" stroke="#000000" stroke-width="2" stroke-miterlimit="10" d="M566.4,187.4c0,0-3.4,6.2-8.6,14.5"/>
<path fill="none" stroke="#000000" stroke-width="2" stroke-miterlimit="10" d="M537.1,230.5c-4.1,4.6-8.1,8.3-11.8,10.4"/>
<path fill="none" stroke="#000000" stroke-width="2" stroke-miterlimit="10" d="M537.6,301.9c-0.5,1,2.4,21.3,2.4,21.3h5.1l2.6-21.1
	"/>
<path fill="none" stroke="#000000" stroke-width="2" stroke-miterlimit="10" d="M550.9,301.8c1.1,5.6,3.5,17.4,3.5,17.4h4.6
	c0,0,2.1-11.5,2.7-17.6"/>
<polyline fill="none" stroke="#000000" stroke-width="2" stroke-miterlimit="10" points="540,323.2 552.2,339.5 564.2,330.5 
	545.1,323.2 "/>
<polyline fill="none" stroke="#000000" stroke-width="2" stroke-miterlimit="10" points="554.4,319.2 569.6,327.4 577.1,320.2 
	559.9,319.2 "/>
<ellipse fill="none" stroke="#000000" stroke-width="2" stroke-miterlimit="10" cx="610" cy="120.6" rx="14.8" ry="21.7"/>
<polyline fill="none" stroke="#000000" stroke-width="2" stroke-miterlimit="10" points="603.7,140.2 603.7,147.9 615,147.9 
	614.6,141.2 "/>
<path fill="none" stroke="#000000" stroke-width="2" stroke-miterlimit="10" d="M593.4,147.9h30.5l11.5,150.5c0,0-33.8,8.2-54.2,0
	L593.4,147.9z"/>
<path fill="none" stroke="#000000" stroke-width="2" stroke-miterlimit="10" d="M601.4,162.9l-7.2,66.8c0,0,15.2,3.8,26.2,0
	l-5.3-65.5"/>
<path fill="none" stroke="#000000" stroke-width="2" stroke-miterlimit="10" d="M600.5,230.8l2.2,15.8c0,0,8.6,1,8.8,0
	s0.5-15.2,0.5-15.2"/>
<polyline fill="none" stroke="#000000" stroke-width="2" stroke-miterlimit="10" points="614.7,231.3 617.9,236.9 614.7,238.9 
	612,236.5 "/>
<path fill="none" stroke="#000000" stroke-width="2" stroke-miterlimit="10" d="M623.9,147.9c0,0-0.8,10.5-7.8,26.9"/>
<path fill="none" stroke="#000000" stroke-width="2" stroke-miterlimit="10" d="M596.2,209.2c-2.7,3.7-5.6,7.4-8.8,11.2"/>
<path fill="none" stroke="#000000" stroke-width="2" stroke-miterlimit="10" d="M626.9,187.4c0,0-3.4,6.2-8.6,14.5"/>
<path fill="none" stroke="#000000" stroke-width="2" stroke-miterlimit="10" d="M597.6,230.5c-4.1,4.6-8.1,8.3-11.8,10.4"/>
<path fill="none" stroke="#000000" stroke-width="2" stroke-miterlimit="10" d="M598.1,301.9c-0.5,1,2.4,21.3,2.4,21.3h5.1l2.6-21.1
	"/>
<path fill="none" stroke="#000000" stroke-width="2" stroke-miterlimit="10" d="M611.4,301.8c1.1,5.6,3.5,17.4,3.5,17.4h4.6
	c0,0,2.1-11.5,2.7-17.6"/>
<polyline fill="none" stroke="#000000" stroke-width="2" stroke-miterlimit="10" points="600.5,323.2 612.7,339.5 624.7,330.5 
	605.6,323.2 "/>
<polyline fill="none" stroke="#000000" stroke-width="2" stroke-miterlimit="10" points="614.9,319.2 630.1,327.4 637.6,320.2 
	620.4,319.2 "/>
<ellipse fill="none" stroke="#000000" stroke-width="2" stroke-miterlimit="10" cx="673" cy="120.6" rx="14.8" ry="21.7"/>
<polyline fill="none" stroke="#000000" stroke-width="2" stroke-miterlimit="10" points="666.7,140.2 666.7,147.9 678,147.9 
	677.6,141.2 "/>
<path fill="none" stroke="#000000" stroke-width="2" stroke-miterlimit="10" d="M656.4,147.9h30.5l11.5,150.5c0,0-33.8,8.2-54.2,0
	L656.4,147.9z"/>
<path fill="none" stroke="#000000" stroke-width="2" stroke-miterlimit="10" d="M664.4,162.9l-7.2,66.8c0,0,15.2,3.8,26.2,0
	l-5.3-65.5"/>
<path fill="none" stroke="#000000" stroke-width="2" stroke-miterlimit="10" d="M663.5,230.8l2.2,15.8c0,0,8.6,1,8.8,0
	s0.5-15.2,0.5-15.2"/>
<polyline fill="none" stroke="#000000" stroke-width="2" stroke-miterlimit="10" points="677.7,231.3 680.9,236.9 677.7,238.9 
	675,236.5 "/>
<path fill="none" stroke="#000000" stroke-width="2" stroke-miterlimit="10" d="M686.9,147.9c0,0-0.8,10.5-7.8,26.9"/>
<path fill="none" stroke="#000000" stroke-width="2" stroke-miterlimit="10" d="M659.2,209.2c-2.7,3.7-5.6,7.4-8.8,11.2"/>
<path fill="none" stroke="#000000" stroke-width="2" stroke-miterlimit="10" d="M689.9,187.4c0,0-3.4,6.2-8.6,14.5"/>
<path fill="none" stroke="#000000" stroke-width="2" stroke-miterlimit="10" d="M660.6,230.5c-4.1,4.6-8.1,8.3-11.8,10.4"/>
<path fill="none" stroke="#000000" stroke-width="2" stroke-miterlimit="10" d="M661.1,301.9c-0.5,1,2.4,21.3,2.4,21.3h5.1l2.6-21.1
	"/>
<path fill="none" stroke="#000000" stroke-width="2" stroke-miterlimit="10" d="M674.4,301.8c1.1,5.6,3.5,17.4,3.5,17.4h4.6
	c0,0,2.1-11.5,2.7-17.6"/>
<polyline fill="none" stroke="#000000" stroke-width="2" stroke-miterlimit="10" points="663.5,323.2 675.7,339.5 687.7,330.5 
	668.6,323.2 "/>
<polyline fill="none" stroke="#000000" stroke-width="2" stroke-miterlimit="10" points="677.9,319.2 693.1,327.4 700.6,320.2 
	683.4,319.2 "/>
<ellipse fill="none" stroke="#000000" stroke-width="2" stroke-miterlimit="10" cx="736" cy="120.6" rx="14.8" ry="21.7"/>
<polyline fill="none" stroke="#000000" stroke-width="2" stroke-miterlimit="10" points="729.7,140.2 729.7,147.9 741,147.9 
	740.6,141.2 "/>
<path fill="none" stroke="#000000" stroke-width="2" stroke-miterlimit="10" d="M719.4,147.9h30.5l11.5,150.5c0,0-33.8,8.2-54.2,0
	L719.4,147.9z"/>
<path fill="none" stroke="#000000" stroke-width="2" stroke-miterlimit="10" d="M727.4,162.9l-7.2,66.8c0,0,15.2,3.8,26.2,0
	l-5.3-65.5"/>
<path fill="none" stroke="#000000" stroke-width="2" stroke-miterlimit="10" d="M726.5,230.8l2.2,15.8c0,0,8.6,1,8.8,0
	s0.5-15.2,0.5-15.2"/>
<polyline fill="none" stroke="#000000" stroke-width="2" stroke-miterlimit="10" points="740.7,231.3 743.9,236.9 740.7,238.9 
	738,236.5 "/>
<path fill="none" stroke="#000000" stroke-width="2" stroke-miterlimit="10" d="M749.9,147.9c0,0-0.8,10.5-7.8,26.9"/>
<path fill="none" stroke="#000000" stroke-width="2" stroke-miterlimit="10" d="M722.2,209.2c-2.7,3.7-5.6,7.4-8.8,11.2"/>
<path fill="none" stroke="#000000" stroke-width="2" stroke-miterlimit="10" d="M752.9,187.4c0,0-3.4,6.2-8.6,14.5"/>
<path fill="none" stroke="#000000" stroke-width="2" stroke-miterlimit="10" d="M723.6,230.5c-4.1,4.6-8.1,8.3-11.8,10.4"/>
<path fill="none" stroke="#000000" stroke-width="2" stroke-miterlimit="10" d="M724.1,301.9c-0.5,1,2.4,21.3,2.4,21.3h5.1l2.6-21.1
	"/>
<path fill="none" stroke="#000000" stroke-width="2" stroke-miterlimit="10" d="M737.4,301.8c1.1,5.6,3.5,17.4,3.5,17.4h4.6
	c0,0,2.1-11.5,2.7-17.6"/>
<polyline fill="none" stroke="#000000" stroke-width="2" stroke-miterlimit="10" points="726.5,323.2 738.7,339.5 750.7,330.5 
	731.6,323.2 "/>
<polyline fill="none" stroke="#000000" stroke-width="2" stroke-miterlimit="10" points="740.9,319.2 756.1,327.4 763.6,320.2 
	746.4,319.2 "/>
<path fill="#FFFFFF" stroke="#000000" stroke-miterlimit="10" d="M721.8,126.6c0,0,12.8,0.3,15.2-0.8s5.5-1.9,8.1-0.6
	s4.8,1.5,4.8,1.5"/>
<path fill="none" stroke="#000000" stroke-width="2" stroke-miterlimit="10" d="M718.4,159.3c0,0-11.4-4-11.3-4.5
	c0.1-0.5-4.3-63.6,29.7-61.2c0,0,11.5,0.2,11.7,15.5"/>
<path fill="#FFFFFF" stroke="#000000" stroke-miterlimit="10" d="M659.1,125.6c0,0,13.6,1.7,16.9,0s8.3-0.2,10.9,1.1"/>
<path fill="none" stroke="#000000" stroke-width="2" stroke-miterlimit="10" d="M666.7,145.9l-16.6-5.7c0,0-2.5-45,22.9-45.9
	s18.7,48,18.7,48l-13.8,3.7"/>
<path fill="#FFFFFF" stroke="#000000" stroke-miterlimit="10" d="M596.2,129c0,0,11.7-1.2,15.9-2.3c4.2-1.1,11,1.2,11,1.2"/>
<path fill="none" stroke="#000000" stroke-width="2" stroke-miterlimit="10" d="M617.6,102c0,0-1.6-13.9-18.8-10.2
	c-17.2,3.7-24.8,38.5-14.7,60.7l8.8-0.5"/>
<path fill="none" stroke="#000000" stroke-width="2" stroke-miterlimit="10" d="M535.7,128.3c0,0,6.6-0.3,12.1-1.9
	s15.6,1.9,15.6,1.9"/>
<path fill="none" stroke="#000000" stroke-width="2" stroke-miterlimit="10" d="M537.5,107.8c0,0,8.6,3,21.3-4.2"/>
<path fill="none" stroke="#000000" stroke-width="2" stroke-miterlimit="10" d="M539.9,104.1c0,0,6.4,1.8,14.6-3.9"/>
<path fill="none" stroke="#000000" stroke-width="2" stroke-miterlimit="10" d="M471.7,116.2c0,0,6.1,0.4,13-7.8c0,0,5,3.7,14.1,0"
	/>
<path fill="none" stroke="#000000" stroke-width="2" stroke-miterlimit="10" d="M473.8,109.5c0,0,9.2-3.9,11-7.2c0,0,6,2.6,11.1,1.4
	"/>
</svg>
