<?xml version="1.0" encoding="utf-8"?>
<!-- Generator: Adobe Illustrator 21.0.0, SVG Export Plug-In . SVG Version: 6.00 Build 0)  -->
<!DOCTYPE svg PUBLIC "-//W3C//DTD SVG 1.0//EN" "http://www.w3.org/TR/2001/REC-SVG-20010904/DTD/svg10.dtd">
<svg version="1.0" id="Layer_1" xmlns="http://www.w3.org/2000/svg" xmlns:xlink="http://www.w3.org/1999/xlink" x="0px" y="0px"
	 width="792px" height="432px" viewBox="0 0 792 432" enable-background="new 0 0 792 432" xml:space="preserve">
<g>
	<ellipse fill="none" stroke="#000000" stroke-width="2" stroke-miterlimit="10" cx="739.8" cy="121.7" rx="14.8" ry="21.7"/>
	<path fill="none" stroke="#000000" stroke-width="2" stroke-miterlimit="10" d="M722.2,160.4c0,0-11.4-4-11.3-4.5
		c0.1-0.5-4.3-63.6,29.7-61.2c0,0,11.5,0.2,11.7,15.5"/>
	<polyline fill="none" stroke="#000000" stroke-width="2" stroke-miterlimit="10" points="733.5,141.3 733.5,149 744.8,149 
		744.4,142.3 	"/>
	<path fill="none" stroke="#000000" stroke-width="2" stroke-miterlimit="10" d="M723.2,149h30.5l11.5,150.5c0,0-33.8,8.2-54.2,0
		L723.2,149z"/>
	<path fill="none" stroke="#000000" stroke-width="2" stroke-miterlimit="10" d="M731.2,164l-7.2,66.8c0,0,15.2,3.8,26.2,0
		l-5.3-65.5"/>
	<path fill="none" stroke="#000000" stroke-width="2" stroke-miterlimit="10" d="M730.3,231.9l2.2,15.8c0,0,8.6,1,8.8,0
		s0.5-15.2,0.5-15.2"/>
	<polyline fill="none" stroke="#000000" stroke-width="2" stroke-miterlimit="10" points="744.5,232.4 747.7,238 744.5,240 
		741.8,237.6 	"/>
	<path fill="none" stroke="#000000" stroke-width="2" stroke-miterlimit="10" d="M753.7,149c0,0-0.8,10.5-7.8,26.9"/>
	<path fill="none" stroke="#000000" stroke-width="2" stroke-miterlimit="10" d="M726.1,210.3c-2.7,3.7-5.6,7.4-8.8,11.2"/>
	<path fill="none" stroke="#000000" stroke-width="2" stroke-miterlimit="10" d="M756.7,188.5c0,0-3.4,6.2-8.6,14.5"/>
	<path fill="none" stroke="#000000" stroke-width="2" stroke-miterlimit="10" d="M727.4,231.6c-4.1,4.6-8.1,8.3-11.8,10.4"/>
	<path fill="none" stroke="#000000" stroke-width="2" stroke-miterlimit="10" d="M727.9,303c-0.5,1,2.4,21.3,2.4,21.3h5.1l2.6-21.1"
		/>
	<path fill="none" stroke="#000000" stroke-width="2" stroke-miterlimit="10" d="M741.2,302.9c1.1,5.6,3.5,17.4,3.5,17.4h4.6
		c0,0,2.1-11.5,2.7-17.6"/>
	<polyline fill="none" stroke="#000000" stroke-width="2" stroke-miterlimit="10" points="730.3,324.3 742.5,340.6 754.5,331.6 
		735.4,324.3 	"/>
	<polyline fill="none" stroke="#000000" stroke-width="2" stroke-miterlimit="10" points="744.7,320.3 759.9,328.5 767.4,321.3 
		750.2,320.3 	"/>
	<path fill="#FFFFFF" stroke="#000000" stroke-miterlimit="10" d="M725.6,127.7c0,0,12.8,0.3,15.2-0.8s5.5-1.9,8.1-0.6
		s4.8,1.5,4.8,1.5"/>
</g>
<g>
	<ellipse fill="none" stroke="#000000" stroke-width="2" stroke-miterlimit="10" cx="676.8" cy="121.7" rx="14.8" ry="21.7"/>
	<polyline fill="none" stroke="#000000" stroke-width="2" stroke-miterlimit="10" points="670.5,141.3 670.5,149 681.8,149 
		681.4,142.3 	"/>
	<path fill="none" stroke="#000000" stroke-width="2" stroke-miterlimit="10" d="M660.2,149h30.5l11.5,150.5c0,0-33.8,8.2-54.2,0
		L660.2,149z"/>
	<path fill="none" stroke="#000000" stroke-width="2" stroke-miterlimit="10" d="M668.2,164l-7.2,66.8c0,0,15.2,3.8,26.2,0
		l-5.3-65.5"/>
	<path fill="none" stroke="#000000" stroke-width="2" stroke-miterlimit="10" d="M667.3,231.9l2.2,15.8c0,0,8.6,1,8.8,0
		s0.5-15.2,0.5-15.2"/>
	<polyline fill="none" stroke="#000000" stroke-width="2" stroke-miterlimit="10" points="681.5,232.4 684.7,238 681.5,240 
		678.8,237.6 	"/>
	<path fill="none" stroke="#000000" stroke-width="2" stroke-miterlimit="10" d="M690.7,149c0,0-0.8,10.5-7.8,26.9"/>
	<path fill="none" stroke="#000000" stroke-width="2" stroke-miterlimit="10" d="M663.1,210.3c-2.7,3.7-5.6,7.4-8.8,11.2"/>
	<path fill="none" stroke="#000000" stroke-width="2" stroke-miterlimit="10" d="M693.7,188.5c0,0-3.4,6.2-8.6,14.5"/>
	<path fill="none" stroke="#000000" stroke-width="2" stroke-miterlimit="10" d="M664.4,231.6c-4.1,4.6-8.1,8.3-11.8,10.4"/>
	<path fill="none" stroke="#000000" stroke-width="2" stroke-miterlimit="10" d="M664.9,303c-0.5,1,2.4,21.3,2.4,21.3h5.1l2.6-21.1"
		/>
	<path fill="none" stroke="#000000" stroke-width="2" stroke-miterlimit="10" d="M678.2,302.9c1.1,5.6,3.5,17.4,3.5,17.4h4.6
		c0,0,2.1-11.5,2.7-17.6"/>
	<polyline fill="none" stroke="#000000" stroke-width="2" stroke-miterlimit="10" points="667.3,324.3 679.5,340.6 691.5,331.6 
		672.4,324.3 	"/>
	<polyline fill="none" stroke="#000000" stroke-width="2" stroke-miterlimit="10" points="681.7,320.3 696.9,328.5 704.4,321.3 
		687.2,320.3 	"/>
	<path fill="#FFFFFF" stroke="#000000" stroke-miterlimit="10" d="M662.9,126.7c0,0,13.6,1.7,16.9,0s8.3-0.2,10.9,1.1"/>
	<path fill="none" stroke="#000000" stroke-width="2" stroke-miterlimit="10" d="M670.5,147l-16.6-5.7c0,0-2.5-45,22.9-45.9
		s18.7,48,18.7,48l-13.8,3.7"/>
</g>
<g>
	<ellipse fill="none" stroke="#000000" stroke-width="2" stroke-miterlimit="10" cx="613.8" cy="121.7" rx="14.8" ry="21.7"/>
	<polyline fill="none" stroke="#000000" stroke-width="2" stroke-miterlimit="10" points="607.5,141.3 607.5,149 618.8,149 
		618.4,142.3 	"/>
	<path fill="none" stroke="#000000" stroke-width="2" stroke-miterlimit="10" d="M597.2,149h30.5l11.5,150.5c0,0-33.8,8.2-54.2,0
		L597.2,149z"/>
	<path fill="none" stroke="#000000" stroke-width="2" stroke-miterlimit="10" d="M605.2,164l-7.2,66.8c0,0,15.2,3.8,26.2,0
		l-5.3-65.5"/>
	<path fill="none" stroke="#000000" stroke-width="2" stroke-miterlimit="10" d="M604.3,231.9l2.2,15.8c0,0,8.6,1,8.8,0
		s0.5-15.2,0.5-15.2"/>
	<polyline fill="none" stroke="#000000" stroke-width="2" stroke-miterlimit="10" points="618.5,232.4 621.7,238 618.5,240 
		615.8,237.6 	"/>
	<path fill="none" stroke="#000000" stroke-width="2" stroke-miterlimit="10" d="M627.7,149c0,0-0.8,10.5-7.8,26.9"/>
	<path fill="none" stroke="#000000" stroke-width="2" stroke-miterlimit="10" d="M600.1,210.3c-2.7,3.7-5.6,7.4-8.8,11.2"/>
	<path fill="none" stroke="#000000" stroke-width="2" stroke-miterlimit="10" d="M630.7,188.5c0,0-3.4,6.2-8.6,14.5"/>
	<path fill="none" stroke="#000000" stroke-width="2" stroke-miterlimit="10" d="M601.4,231.6c-4.1,4.6-8.1,8.3-11.8,10.4"/>
	<path fill="none" stroke="#000000" stroke-width="2" stroke-miterlimit="10" d="M601.9,303c-0.5,1,2.4,21.3,2.4,21.3h5.1l2.6-21.1"
		/>
	<path fill="none" stroke="#000000" stroke-width="2" stroke-miterlimit="10" d="M615.2,302.9c1.1,5.6,3.5,17.4,3.5,17.4h4.6
		c0,0,2.1-11.5,2.7-17.6"/>
	<polyline fill="none" stroke="#000000" stroke-width="2" stroke-miterlimit="10" points="604.3,324.3 616.5,340.6 628.5,331.6 
		609.4,324.3 	"/>
	<polyline fill="none" stroke="#000000" stroke-width="2" stroke-miterlimit="10" points="618.7,320.3 633.9,328.5 641.4,321.3 
		624.2,320.3 	"/>
	<path fill="#FFFFFF" stroke="#000000" stroke-miterlimit="10" d="M600.1,130.1c0,0,11.7-1.2,15.9-2.3c4.2-1.1,11,1.2,11,1.2"/>
	<path fill="none" stroke="#000000" stroke-width="2" stroke-miterlimit="10" d="M621.4,103.1c0,0-1.6-13.9-18.8-10.2
		c-17.2,3.7-24.8,38.5-14.7,60.7l8.8-0.5"/>
</g>
<g>
	<ellipse fill="none" stroke="#000000" stroke-width="2" stroke-miterlimit="10" cx="553.3" cy="121.7" rx="14.8" ry="21.7"/>
	<polyline fill="none" stroke="#000000" stroke-width="2" stroke-miterlimit="10" points="547,141.3 547,149 558.3,149 557.9,142.3 
			"/>
	<path fill="none" stroke="#000000" stroke-width="2" stroke-miterlimit="10" d="M536.7,149h30.5l11.5,150.5c0,0-33.8,8.2-54.2,0
		L536.7,149z"/>
	<path fill="none" stroke="#000000" stroke-width="2" stroke-miterlimit="10" d="M544.7,164l-7.2,66.8c0,0,15.2,3.8,26.2,0
		l-5.3-65.5"/>
	<path fill="none" stroke="#000000" stroke-width="2" stroke-miterlimit="10" d="M543.8,231.9l2.2,15.8c0,0,8.6,1,8.8,0
		s0.5-15.2,0.5-15.2"/>
	<polyline fill="none" stroke="#000000" stroke-width="2" stroke-miterlimit="10" points="558,232.4 561.2,238 558,240 555.3,237.6 
			"/>
	<path fill="none" stroke="#000000" stroke-width="2" stroke-miterlimit="10" d="M567.2,149c0,0-0.8,10.5-7.8,26.9"/>
	<path fill="none" stroke="#000000" stroke-width="2" stroke-miterlimit="10" d="M539.6,210.3c-2.7,3.7-5.6,7.4-8.8,11.2"/>
	<path fill="none" stroke="#000000" stroke-width="2" stroke-miterlimit="10" d="M570.2,188.5c0,0-3.4,6.2-8.6,14.5"/>
	<path fill="none" stroke="#000000" stroke-width="2" stroke-miterlimit="10" d="M540.9,231.6c-4.1,4.6-8.1,8.3-11.8,10.4"/>
	<path fill="none" stroke="#000000" stroke-width="2" stroke-miterlimit="10" d="M541.4,303c-0.5,1,2.4,21.3,2.4,21.3h5.1l2.6-21.1"
		/>
	<path fill="none" stroke="#000000" stroke-width="2" stroke-miterlimit="10" d="M554.7,302.9c1.1,5.6,3.5,17.4,3.5,17.4h4.6
		c0,0,2.1-11.5,2.7-17.6"/>
	<polyline fill="none" stroke="#000000" stroke-width="2" stroke-miterlimit="10" points="543.8,324.3 556,340.6 568,331.6 
		548.9,324.3 	"/>
	<polyline fill="none" stroke="#000000" stroke-width="2" stroke-miterlimit="10" points="558.2,320.3 573.4,328.5 580.9,321.3 
		563.7,320.3 	"/>
	<path fill="none" stroke="#000000" stroke-width="2" stroke-miterlimit="10" d="M539.5,129.4c0,0,6.6-0.3,12.1-1.9
		s15.6,1.9,15.6,1.9"/>
	<path fill="none" stroke="#000000" stroke-width="2" stroke-miterlimit="10" d="M541.3,108.9c0,0,8.6,3,21.3-4.2"/>
	<path fill="none" stroke="#000000" stroke-width="2" stroke-miterlimit="10" d="M543.7,105.2c0,0,6.4,1.8,14.6-3.9"/>
</g>
<g>
	<ellipse fill="none" stroke="#000000" stroke-width="2" stroke-miterlimit="10" cx="490.3" cy="121.7" rx="14.8" ry="21.7"/>
	<polyline fill="none" stroke="#000000" stroke-width="2" stroke-miterlimit="10" points="484,141.3 484,149 495.3,149 494.9,142.3 
			"/>
	<path fill="none" stroke="#000000" stroke-width="2" stroke-miterlimit="10" d="M473.7,149h30.5l11.5,150.5c0,0-33.8,8.2-54.3,0
		L473.7,149z"/>
	<path fill="none" stroke="#000000" stroke-width="2" stroke-miterlimit="10" d="M481.7,164l-7.2,66.8c0,0,15.2,3.8,26.2,0
		l-5.3-65.5"/>
	<path fill="none" stroke="#000000" stroke-width="2" stroke-miterlimit="10" d="M480.8,231.9l2.2,15.8c0,0,8.6,1,8.8,0
		s0.5-15.2,0.5-15.2"/>
	<polyline fill="none" stroke="#000000" stroke-width="2" stroke-miterlimit="10" points="495,232.4 498.2,238 495,240 492.3,237.6 
			"/>
	<path fill="none" stroke="#000000" stroke-width="2" stroke-miterlimit="10" d="M504.2,149c0,0-0.8,10.5-7.8,26.9"/>
	<path fill="none" stroke="#000000" stroke-width="2" stroke-miterlimit="10" d="M476.6,210.3c-2.7,3.7-5.6,7.4-8.8,11.2"/>
	<path fill="none" stroke="#000000" stroke-width="2" stroke-miterlimit="10" d="M507.2,188.5c0,0-3.4,6.2-8.6,14.5"/>
	<path fill="none" stroke="#000000" stroke-width="2" stroke-miterlimit="10" d="M477.9,231.6c-4.1,4.6-8.1,8.3-11.8,10.4"/>
	<path fill="none" stroke="#000000" stroke-width="2" stroke-miterlimit="10" d="M478.4,303c-0.5,1,2.4,21.3,2.4,21.3h5.1l2.6-21.1"
		/>
	<path fill="none" stroke="#000000" stroke-width="2" stroke-miterlimit="10" d="M491.7,302.9c1.1,5.6,3.5,17.4,3.5,17.4h4.6
		c0,0,2.1-11.5,2.7-17.6"/>
	<polyline fill="none" stroke="#000000" stroke-width="2" stroke-miterlimit="10" points="480.8,324.3 493,340.6 505,331.6 
		485.9,324.3 	"/>
	<polyline fill="none" stroke="#000000" stroke-width="2" stroke-miterlimit="10" points="495.2,320.3 510.4,328.5 517.9,321.3 
		500.7,320.3 	"/>
	<path fill="none" stroke="#000000" stroke-width="2" stroke-miterlimit="10" d="M475.5,117.3c0,0,6.1,0.4,13-7.8c0,0,5,3.7,14.1,0"
		/>
	<path fill="none" stroke="#000000" stroke-width="2" stroke-miterlimit="10" d="M477.6,110.6c0,0,9.2-3.9,11-7.2
		c0,0,6,2.6,11.1,1.4"/>
</g>
<g>
	<ellipse fill="none" stroke="#000000" stroke-width="2" stroke-miterlimit="10" cx="429.6" cy="121.7" rx="14.8" ry="21.7"/>
	<polyline fill="none" stroke="#000000" stroke-width="2" stroke-miterlimit="10" points="423.2,141.3 423.2,149 434.6,149 
		434.2,142.3 	"/>
	<path fill="none" stroke="#000000" stroke-width="2" stroke-miterlimit="10" d="M412.9,149h30.5l11.5,150.5c0,0-33.8,8.2-54.2,0
		L412.9,149z"/>
	<path fill="none" stroke="#000000" stroke-width="2" stroke-miterlimit="10" d="M420.9,164l-7.2,66.8c0,0,15.2,3.8,26.2,0
		l-5.3-65.5"/>
	<path fill="none" stroke="#000000" stroke-width="2" stroke-miterlimit="10" d="M420.1,231.9l2.2,15.8c0,0,8.6,1,8.8,0
		s0.5-15.2,0.5-15.2"/>
	<polyline fill="none" stroke="#000000" stroke-width="2" stroke-miterlimit="10" points="434.3,232.4 437.4,238 434.3,240 
		431.5,237.6 	"/>
	<path fill="none" stroke="#000000" stroke-width="2" stroke-miterlimit="10" d="M443.4,149c0,0-0.8,10.5-7.8,26.9"/>
	<path fill="none" stroke="#000000" stroke-width="2" stroke-miterlimit="10" d="M415.8,210.3c-2.7,3.7-5.6,7.4-8.8,11.2"/>
	<path fill="none" stroke="#000000" stroke-width="2" stroke-miterlimit="10" d="M446.4,188.5c0,0-3.4,6.2-8.6,14.5"/>
	<path fill="none" stroke="#000000" stroke-width="2" stroke-miterlimit="10" d="M417.2,231.6c-4.1,4.6-8.1,8.3-11.8,10.4"/>
	<path fill="none" stroke="#000000" stroke-width="2" stroke-miterlimit="10" d="M417.7,303c-0.5,1,2.4,21.3,2.4,21.3h5.1l2.6-21.1"
		/>
	<path fill="none" stroke="#000000" stroke-width="2" stroke-miterlimit="10" d="M431,302.9c1.1,5.6,3.5,17.4,3.5,17.4h4.6
		c0,0,2.1-11.5,2.7-17.6"/>
	<polyline fill="none" stroke="#000000" stroke-width="2" stroke-miterlimit="10" points="420.1,324.3 432.3,340.6 444.3,331.6 
		425.2,324.3 	"/>
	<polyline fill="none" stroke="#000000" stroke-width="2" stroke-miterlimit="10" points="434.5,320.3 449.7,328.5 457.2,321.3 
		439.9,320.3 	"/>
</g>
<g>
	<ellipse fill="none" stroke="#000000" stroke-width="2" stroke-miterlimit="10" cx="363.7" cy="121.7" rx="14.8" ry="21.7"/>
	<polyline fill="none" stroke="#000000" stroke-width="2" stroke-miterlimit="10" points="357.3,141.3 357.3,149 368.7,149 
		368.3,142.3 	"/>
	<path fill="none" stroke="#000000" stroke-width="2" stroke-miterlimit="10" d="M347,149h30.5L389,299.5c0,0-33.8,8.2-54.2,0
		L347,149z"/>
	<path fill="none" stroke="#000000" stroke-width="2" stroke-miterlimit="10" d="M355,164l-7.2,66.8c0,0,15.2,3.8,26.2,0l-5.3-65.5"
		/>
	<path fill="none" stroke="#000000" stroke-width="2" stroke-miterlimit="10" d="M354.2,231.9l2.2,15.8c0,0,8.6,1,8.8,0
		s0.5-15.2,0.5-15.2"/>
	<polyline fill="none" stroke="#000000" stroke-width="2" stroke-miterlimit="10" points="368.4,232.4 371.5,238 368.4,240 
		365.6,237.6 	"/>
	<path fill="none" stroke="#000000" stroke-width="2" stroke-miterlimit="10" d="M377.5,149c0,0-0.8,10.5-7.8,26.9"/>
	<path fill="none" stroke="#000000" stroke-width="2" stroke-miterlimit="10" d="M349.9,210.3c-2.7,3.7-5.6,7.4-8.8,11.2"/>
	<path fill="none" stroke="#000000" stroke-width="2" stroke-miterlimit="10" d="M380.5,188.5c0,0-3.4,6.2-8.6,14.5"/>
	<path fill="none" stroke="#000000" stroke-width="2" stroke-miterlimit="10" d="M351.3,231.6c-4.1,4.6-8.1,8.3-11.8,10.4"/>
	<path fill="none" stroke="#000000" stroke-width="2" stroke-miterlimit="10" d="M351.8,303c-0.5,1,2.4,21.3,2.4,21.3h5.1l2.6-21.1"
		/>
	<path fill="none" stroke="#000000" stroke-width="2" stroke-miterlimit="10" d="M365.1,302.9c1.1,5.6,3.5,17.4,3.5,17.4h4.6
		c0,0,2.1-11.5,2.7-17.6"/>
	<polyline fill="none" stroke="#000000" stroke-width="2" stroke-miterlimit="10" points="354.2,324.3 366.4,340.6 378.4,331.6 
		359.3,324.3 	"/>
	<polyline fill="none" stroke="#000000" stroke-width="2" stroke-miterlimit="10" points="368.6,320.3 383.8,328.5 391.3,321.3 
		374,320.3 	"/>
	<path fill="#FFFFFF" stroke="#000000" stroke-miterlimit="10" d="M349.4,127.7c0,0,12.8,0.3,15.2-0.8s5.5-1.9,8.1-0.6
		s4.8,1.5,4.8,1.5"/>
	<path fill="none" stroke="#000000" stroke-width="2" stroke-miterlimit="10" d="M346.1,160.4c0,0-11.4-4-11.3-4.5
		s-4.3-63.6,29.7-61.2c0,0,11.5,0.2,11.7,15.5"/>
</g>
<g>
	<ellipse fill="none" stroke="#000000" stroke-width="2" stroke-miterlimit="10" cx="300.7" cy="121.7" rx="14.8" ry="21.7"/>
	<polyline fill="none" stroke="#000000" stroke-width="2" stroke-miterlimit="10" points="294.3,141.3 294.3,149 305.7,149 
		305.3,142.3 	"/>
	<path fill="none" stroke="#000000" stroke-width="2" stroke-miterlimit="10" d="M284,149h30.5L326,299.5c0,0-33.7,8.2-54.2,0
		L284,149z"/>
	<path fill="none" stroke="#000000" stroke-width="2" stroke-miterlimit="10" d="M292,164l-7.2,66.8c0,0,15.2,3.8,26.2,0l-5.3-65.5"
		/>
	<path fill="none" stroke="#000000" stroke-width="2" stroke-miterlimit="10" d="M291.2,231.9l2.2,15.8c0,0,8.6,1,8.7,0
		s0.5-15.2,0.5-15.2"/>
	<polyline fill="none" stroke="#000000" stroke-width="2" stroke-miterlimit="10" points="305.4,232.4 308.5,238 305.4,240 
		302.6,237.6 	"/>
	<path fill="none" stroke="#000000" stroke-width="2" stroke-miterlimit="10" d="M314.5,149c0,0-0.8,10.5-7.8,26.9"/>
	<path fill="none" stroke="#000000" stroke-width="2" stroke-miterlimit="10" d="M286.9,210.3c-2.7,3.7-5.6,7.4-8.8,11.2"/>
	<path fill="none" stroke="#000000" stroke-width="2" stroke-miterlimit="10" d="M317.5,188.5c0,0-3.4,6.2-8.6,14.5"/>
	<path fill="none" stroke="#000000" stroke-width="2" stroke-miterlimit="10" d="M288.3,231.6c-4.1,4.6-8.1,8.3-11.8,10.4"/>
	<path fill="none" stroke="#000000" stroke-width="2" stroke-miterlimit="10" d="M288.8,303c-0.5,1,2.4,21.3,2.4,21.3h5.1l2.6-21.1"
		/>
	<path fill="none" stroke="#000000" stroke-width="2" stroke-miterlimit="10" d="M302.1,302.9c1.1,5.6,3.5,17.4,3.5,17.4h4.6
		c0,0,2.1-11.5,2.7-17.6"/>
	<polyline fill="none" stroke="#000000" stroke-width="2" stroke-miterlimit="10" points="291.2,324.3 303.4,340.6 315.4,331.6 
		296.3,324.3 	"/>
	<polyline fill="none" stroke="#000000" stroke-width="2" stroke-miterlimit="10" points="305.6,320.3 320.8,328.5 328.3,321.3 
		311,320.3 	"/>
	<path fill="#FFFFFF" stroke="#000000" stroke-miterlimit="10" d="M286.7,126.7c0,0,13.6,1.7,16.9,0c3.2-1.7,8.3-0.2,10.9,1.1"/>
	<path fill="none" stroke="#000000" stroke-width="2" stroke-miterlimit="10" d="M294.3,147l-16.6-5.7c0,0-2.5-45,22.9-45.9
		s18.7,48,18.7,48l-13.8,3.7"/>
</g>
<g>
	<ellipse fill="none" stroke="#000000" stroke-width="2" stroke-miterlimit="10" cx="237.7" cy="121.7" rx="14.8" ry="21.7"/>
	<polyline fill="none" stroke="#000000" stroke-width="2" stroke-miterlimit="10" points="231.3,141.3 231.3,149 242.7,149 
		242.3,142.3 	"/>
	<path fill="none" stroke="#000000" stroke-width="2" stroke-miterlimit="10" d="M221,149h30.5L263,299.5c0,0-33.8,8.2-54.2,0
		L221,149z"/>
	<path fill="none" stroke="#000000" stroke-width="2" stroke-miterlimit="10" d="M229,164l-7.2,66.8c0,0,15.2,3.8,26.2,0l-5.3-65.5"
		/>
	<path fill="none" stroke="#000000" stroke-width="2" stroke-miterlimit="10" d="M228.2,231.9l2.2,15.8c0,0,8.6,1,8.8,0
		s0.5-15.2,0.5-15.2"/>
	<polyline fill="none" stroke="#000000" stroke-width="2" stroke-miterlimit="10" points="242.4,232.4 245.5,238 242.4,240 
		239.6,237.6 	"/>
	<path fill="none" stroke="#000000" stroke-width="2" stroke-miterlimit="10" d="M251.5,149c0,0-0.8,10.5-7.8,26.9"/>
	<path fill="none" stroke="#000000" stroke-width="2" stroke-miterlimit="10" d="M223.9,210.3c-2.7,3.7-5.6,7.4-8.8,11.2"/>
	<path fill="none" stroke="#000000" stroke-width="2" stroke-miterlimit="10" d="M254.5,188.5c0,0-3.4,6.2-8.6,14.5"/>
	<path fill="none" stroke="#000000" stroke-width="2" stroke-miterlimit="10" d="M225.3,231.6c-4.1,4.6-8.1,8.3-11.8,10.4"/>
	<path fill="none" stroke="#000000" stroke-width="2" stroke-miterlimit="10" d="M225.8,303c-0.5,1,2.4,21.3,2.4,21.3h5.1l2.6-21.1"
		/>
	<path fill="none" stroke="#000000" stroke-width="2" stroke-miterlimit="10" d="M239.1,302.9c1.1,5.6,3.5,17.4,3.5,17.4h4.6
		c0,0,2.1-11.5,2.7-17.6"/>
	<polyline fill="none" stroke="#000000" stroke-width="2" stroke-miterlimit="10" points="228.2,324.3 240.4,340.6 252.4,331.6 
		233.3,324.3 	"/>
	<polyline fill="none" stroke="#000000" stroke-width="2" stroke-miterlimit="10" points="242.6,320.3 257.8,328.5 265.3,321.3 
		248,320.3 	"/>
	<path fill="#FFFFFF" stroke="#000000" stroke-miterlimit="10" d="M224,130.1c0,0,11.7-1.2,15.9-2.3s11,1.2,11,1.2"/>
	<path fill="none" stroke="#000000" stroke-width="2" stroke-miterlimit="10" d="M245.3,103.1c0,0-1.6-13.9-18.8-10.2
		c-17.2,3.7-24.8,38.5-14.7,60.7l8.8-0.5"/>
</g>
<g>
	<ellipse fill="none" stroke="#000000" stroke-width="2" stroke-miterlimit="10" cx="177.2" cy="121.7" rx="14.8" ry="21.7"/>
	<polyline fill="none" stroke="#000000" stroke-width="2" stroke-miterlimit="10" points="170.8,141.3 170.8,149 182.2,149 
		181.8,142.3 	"/>
	<path fill="none" stroke="#000000" stroke-width="2" stroke-miterlimit="10" d="M160.5,149H191l11.5,150.5c0,0-33.8,8.2-54.2,0
		L160.5,149z"/>
	<path fill="none" stroke="#000000" stroke-width="2" stroke-miterlimit="10" d="M168.5,164l-7.2,66.8c0,0,15.2,3.8,26.2,0
		l-5.3-65.5"/>
	<path fill="none" stroke="#000000" stroke-width="2" stroke-miterlimit="10" d="M167.7,231.9l2.2,15.8c0,0,8.6,1,8.8,0
		s0.5-15.2,0.5-15.2"/>
	<polyline fill="none" stroke="#000000" stroke-width="2" stroke-miterlimit="10" points="181.9,232.4 185,238 181.9,240 
		179.1,237.6 	"/>
	<path fill="none" stroke="#000000" stroke-width="2" stroke-miterlimit="10" d="M191,149c0,0-0.8,10.5-7.8,26.9"/>
	<path fill="none" stroke="#000000" stroke-width="2" stroke-miterlimit="10" d="M163.4,210.3c-2.7,3.7-5.6,7.4-8.8,11.2"/>
	<path fill="none" stroke="#000000" stroke-width="2" stroke-miterlimit="10" d="M194,188.5c0,0-3.4,6.2-8.6,14.5"/>
	<path fill="none" stroke="#000000" stroke-width="2" stroke-miterlimit="10" d="M164.8,231.6c-4.1,4.6-8.1,8.3-11.8,10.4"/>
	<path fill="none" stroke="#000000" stroke-width="2" stroke-miterlimit="10" d="M165.3,303c-0.5,1,2.4,21.3,2.4,21.3h5.1l2.6-21.1"
		/>
	<path fill="none" stroke="#000000" stroke-width="2" stroke-miterlimit="10" d="M178.6,302.9c1.1,5.6,3.5,17.4,3.5,17.4h4.6
		c0,0,2.1-11.5,2.7-17.6"/>
	<polyline fill="none" stroke="#000000" stroke-width="2" stroke-miterlimit="10" points="167.7,324.3 179.9,340.6 191.9,331.6 
		172.8,324.3 	"/>
	<polyline fill="none" stroke="#000000" stroke-width="2" stroke-miterlimit="10" points="182.1,320.3 197.3,328.5 204.8,321.3 
		187.5,320.3 	"/>
	<path fill="none" stroke="#000000" stroke-width="2" stroke-miterlimit="10" d="M163.3,129.4c0,0,6.6-0.3,12.1-1.9
		s15.6,1.9,15.6,1.9"/>
	<path fill="none" stroke="#000000" stroke-width="2" stroke-miterlimit="10" d="M165.2,108.9c0,0,8.6,3,21.3-4.2"/>
	<path fill="none" stroke="#000000" stroke-width="2" stroke-miterlimit="10" d="M167.6,105.2c0,0,6.4,1.8,14.6-3.9"/>
</g>
<g>
	<ellipse fill="none" stroke="#000000" stroke-width="2" stroke-miterlimit="10" cx="114.2" cy="121.7" rx="14.8" ry="21.7"/>
	<polyline fill="none" stroke="#000000" stroke-width="2" stroke-miterlimit="10" points="107.8,141.3 107.8,149 119.2,149 
		118.8,142.3 	"/>
	<path fill="none" stroke="#000000" stroke-width="2" stroke-miterlimit="10" d="M97.5,149H128l11.5,150.5c0,0-33.8,8.2-54.2,0
		L97.5,149z"/>
	<path fill="none" stroke="#000000" stroke-width="2" stroke-miterlimit="10" d="M105.5,164l-7.2,66.8c0,0,15.2,3.8,26.2,0
		l-5.3-65.5"/>
	<path fill="none" stroke="#000000" stroke-width="2" stroke-miterlimit="10" d="M104.7,231.9l2.2,15.8c0,0,8.6,1,8.8,0
		s0.5-15.2,0.5-15.2"/>
	<polyline fill="none" stroke="#000000" stroke-width="2" stroke-miterlimit="10" points="118.9,232.4 122,238 118.9,240 
		116.1,237.6 	"/>
	<path fill="none" stroke="#000000" stroke-width="2" stroke-miterlimit="10" d="M128,149c0,0-0.8,10.5-7.8,26.9"/>
	<path fill="none" stroke="#000000" stroke-width="2" stroke-miterlimit="10" d="M100.4,210.3c-2.7,3.7-5.6,7.4-8.8,11.2"/>
	<path fill="none" stroke="#000000" stroke-width="2" stroke-miterlimit="10" d="M131,188.5c0,0-3.4,6.2-8.6,14.5"/>
	<path fill="none" stroke="#000000" stroke-width="2" stroke-miterlimit="10" d="M101.8,231.6c-4.1,4.6-8.1,8.3-11.8,10.4"/>
	<path fill="none" stroke="#000000" stroke-width="2" stroke-miterlimit="10" d="M102.3,303c-0.5,1,2.4,21.3,2.4,21.3h5.1l2.6-21.1"
		/>
	<path fill="none" stroke="#000000" stroke-width="2" stroke-miterlimit="10" d="M115.6,302.9c1.1,5.6,3.5,17.4,3.5,17.4h4.6
		c0,0,2.1-11.5,2.7-17.6"/>
	<polyline fill="none" stroke="#000000" stroke-width="2" stroke-miterlimit="10" points="104.7,324.3 116.9,340.6 128.9,331.6 
		109.8,324.3 	"/>
	<polyline fill="none" stroke="#000000" stroke-width="2" stroke-miterlimit="10" points="119.1,320.3 134.3,328.5 141.8,321.3 
		124.5,320.3 	"/>
	<path fill="none" stroke="#000000" stroke-width="2" stroke-miterlimit="10" d="M99.4,117.3c0,0,6.1,0.4,13-7.8c0,0,5,3.7,14.1,0"
		/>
	<path fill="none" stroke="#000000" stroke-width="2" stroke-miterlimit="10" d="M101.4,110.6c0,0,9.2-3.9,11-7.2
		c0,0,6,2.6,11.1,1.4"/>
</g>
<g>
	<ellipse fill="none" stroke="#000000" stroke-width="2" stroke-miterlimit="10" cx="53.4" cy="121.7" rx="14.8" ry="21.7"/>
	<polyline fill="none" stroke="#000000" stroke-width="2" stroke-miterlimit="10" points="47.1,141.3 47.1,149 58.4,149 58.1,142.3 
			"/>
	<path fill="none" stroke="#000000" stroke-width="2" stroke-miterlimit="10" d="M36.8,149h30.5l11.5,150.5c0,0-33.7,8.2-54.2,0
		L36.8,149z"/>
	<path fill="none" stroke="#000000" stroke-width="2" stroke-miterlimit="10" d="M44.8,164l-7.2,66.8c0,0,15.2,3.8,26.2,0l-5.3-65.5
		"/>
	<path fill="none" stroke="#000000" stroke-width="2" stroke-miterlimit="10" d="M43.9,231.9l2.2,15.8c0,0,8.6,1,8.8,0
		s0.5-15.2,0.5-15.2"/>
	<polyline fill="none" stroke="#000000" stroke-width="2" stroke-miterlimit="10" points="58.1,232.4 61.3,238 58.1,240 55.4,237.6 
			"/>
	<path fill="none" stroke="#000000" stroke-width="2" stroke-miterlimit="10" d="M67.3,149c0,0-0.8,10.5-7.8,26.9"/>
	<path fill="none" stroke="#000000" stroke-width="2" stroke-miterlimit="10" d="M39.7,210.3c-2.7,3.7-5.6,7.4-8.8,11.2"/>
	<path fill="none" stroke="#000000" stroke-width="2" stroke-miterlimit="10" d="M70.3,188.5c0,0-3.4,6.2-8.6,14.5"/>
	<path fill="none" stroke="#000000" stroke-width="2" stroke-miterlimit="10" d="M41,231.6c-4.1,4.6-8.1,8.3-11.8,10.4"/>
	<path fill="none" stroke="#000000" stroke-width="2" stroke-miterlimit="10" d="M41.5,303c-0.5,1,2.4,21.3,2.4,21.3H49l2.6-21.1"/>
	<path fill="none" stroke="#000000" stroke-width="2" stroke-miterlimit="10" d="M54.9,302.9c1.1,5.6,3.5,17.4,3.5,17.4H63
		c0,0,2.1-11.5,2.7-17.6"/>
	<polyline fill="none" stroke="#000000" stroke-width="2" stroke-miterlimit="10" points="43.9,324.3 56.1,340.6 68.1,331.6 
		49.1,324.3 	"/>
	<polyline fill="none" stroke="#000000" stroke-width="2" stroke-miterlimit="10" points="58.3,320.3 73.5,328.5 81,321.3 
		63.8,320.3 	"/>
</g>
</svg>
