<?xml version="1.0" encoding="utf-8"?>
<!-- Generator: Adobe Illustrator 21.0.0, SVG Export Plug-In . SVG Version: 6.00 Build 0)  -->
<!DOCTYPE svg PUBLIC "-//W3C//DTD SVG 1.0//EN" "http://www.w3.org/TR/2001/REC-SVG-20010904/DTD/svg10.dtd">
<svg version="1.0" id="Layer_1" xmlns="http://www.w3.org/2000/svg" xmlns:xlink="http://www.w3.org/1999/xlink" x="0px" y="0px"
	 width="792px" height="432px" viewBox="0 0 792 432" enable-background="new 0 0 792 432" xml:space="preserve">
<ellipse fill="none" stroke="#000000" stroke-width="2" stroke-miterlimit="10" cx="53.4" cy="121.7" rx="14.8" ry="21.7"/>
<polyline fill="none" stroke="#000000" stroke-width="2" stroke-miterlimit="10" points="47.1,141.3 47.1,149 58.4,149 58.1,142.3 
	"/>
<path fill="none" stroke="#000000" stroke-width="2" stroke-miterlimit="10" d="M36.8,149h30.5l11.5,150.5c0,0-33.7,8.2-54.2,0
	L36.8,149z"/>
<path fill="none" stroke="#000000" stroke-width="2" stroke-miterlimit="10" d="M44.8,164l-7.2,66.8c0,0,15.2,3.8,26.2,0l-5.3-65.5"
	/>
<path fill="none" stroke="#000000" stroke-width="2" stroke-miterlimit="10" d="M43.9,231.9l2.2,15.8c0,0,8.6,1,8.8,0
	s0.5-15.2,0.5-15.2"/>
<polyline fill="none" stroke="#000000" stroke-width="2" stroke-miterlimit="10" points="58.1,232.4 61.3,238 58.1,240 55.4,237.6 
	"/>
<path fill="none" stroke="#000000" stroke-width="2" stroke-miterlimit="10" d="M67.3,149c0,0-0.8,10.5-7.8,26.9"/>
<path fill="none" stroke="#000000" stroke-width="2" stroke-miterlimit="10" d="M39.7,210.3c-2.7,3.7-5.6,7.4-8.8,11.2"/>
<path fill="none" stroke="#000000" stroke-width="2" stroke-miterlimit="10" d="M70.3,188.5c0,0-3.4,6.2-8.6,14.5"/>
<path fill="none" stroke="#000000" stroke-width="2" stroke-miterlimit="10" d="M41,231.6c-4.1,4.6-8.1,8.3-11.8,10.4"/>
<path fill="none" stroke="#000000" stroke-width="2" stroke-miterlimit="10" d="M41.5,303c-0.5,1,2.4,21.3,2.4,21.3H49l2.6-21.1"/>
<path fill="none" stroke="#000000" stroke-width="2" stroke-miterlimit="10" d="M54.9,302.9c1.1,5.6,3.5,17.4,3.5,17.4H63
	c0,0,2.1-11.5,2.7-17.6"/>
<polyline fill="none" stroke="#000000" stroke-width="2" stroke-miterlimit="10" points="43.9,324.3 56.1,340.6 68.1,331.6 
	49.1,324.3 "/>
<polyline fill="none" stroke="#000000" stroke-width="2" stroke-miterlimit="10" points="58.3,320.3 73.5,328.5 81,321.3 
	63.8,320.3 "/>
<ellipse fill="none" stroke="#000000" stroke-width="2" stroke-miterlimit="10" cx="114.2" cy="121.7" rx="14.8" ry="21.7"/>
<polyline fill="none" stroke="#000000" stroke-width="2" stroke-miterlimit="10" points="107.8,141.3 107.8,149 119.2,149 
	118.8,142.3 "/>
<path fill="none" stroke="#000000" stroke-width="2" stroke-miterlimit="10" d="M97.5,149H128l11.5,150.5c0,0-33.8,8.2-54.2,0
	L97.5,149z"/>
<path fill="none" stroke="#000000" stroke-width="2" stroke-miterlimit="10" d="M105.5,164l-7.2,66.8c0,0,15.2,3.8,26.2,0l-5.3-65.5
	"/>
<path fill="none" stroke="#000000" stroke-width="2" stroke-miterlimit="10" d="M104.7,231.9l2.2,15.8c0,0,8.6,1,8.8,0
	s0.5-15.2,0.5-15.2"/>
<polyline fill="none" stroke="#000000" stroke-width="2" stroke-miterlimit="10" points="118.9,232.4 122,238 118.9,240 
	116.1,237.6 "/>
<path fill="none" stroke="#000000" stroke-width="2" stroke-miterlimit="10" d="M128,149c0,0-0.8,10.5-7.8,26.9"/>
<path fill="none" stroke="#000000" stroke-width="2" stroke-miterlimit="10" d="M100.4,210.3c-2.7,3.7-5.6,7.4-8.8,11.2"/>
<path fill="none" stroke="#000000" stroke-width="2" stroke-miterlimit="10" d="M131,188.5c0,0-3.4,6.2-8.6,14.5"/>
<path fill="none" stroke="#000000" stroke-width="2" stroke-miterlimit="10" d="M101.8,231.6c-4.1,4.6-8.1,8.3-11.8,10.4"/>
<path fill="none" stroke="#000000" stroke-width="2" stroke-miterlimit="10" d="M102.3,303c-0.5,1,2.4,21.3,2.4,21.3h5.1l2.6-21.1"
	/>
<path fill="none" stroke="#000000" stroke-width="2" stroke-miterlimit="10" d="M115.6,302.9c1.1,5.6,3.5,17.4,3.5,17.4h4.6
	c0,0,2.1-11.5,2.7-17.6"/>
<polyline fill="none" stroke="#000000" stroke-width="2" stroke-miterlimit="10" points="104.7,324.3 116.9,340.6 128.9,331.6 
	109.8,324.3 "/>
<polyline fill="none" stroke="#000000" stroke-width="2" stroke-miterlimit="10" points="119.1,320.3 134.3,328.5 141.8,321.3 
	124.5,320.3 "/>
<ellipse fill="none" stroke="#000000" stroke-width="2" stroke-miterlimit="10" cx="177.2" cy="121.7" rx="14.8" ry="21.7"/>
<polyline fill="none" stroke="#000000" stroke-width="2" stroke-miterlimit="10" points="170.8,141.3 170.8,149 182.2,149 
	181.8,142.3 "/>
<path fill="none" stroke="#000000" stroke-width="2" stroke-miterlimit="10" d="M160.5,149H191l11.5,150.5c0,0-33.8,8.2-54.2,0
	L160.5,149z"/>
<path fill="none" stroke="#000000" stroke-width="2" stroke-miterlimit="10" d="M168.5,164l-7.2,66.8c0,0,15.2,3.8,26.2,0l-5.3-65.5
	"/>
<path fill="none" stroke="#000000" stroke-width="2" stroke-miterlimit="10" d="M167.7,231.9l2.2,15.8c0,0,8.6,1,8.8,0
	s0.5-15.2,0.5-15.2"/>
<polyline fill="none" stroke="#000000" stroke-width="2" stroke-miterlimit="10" points="181.9,232.4 185,238 181.9,240 
	179.1,237.6 "/>
<path fill="none" stroke="#000000" stroke-width="2" stroke-miterlimit="10" d="M191,149c0,0-0.8,10.5-7.8,26.9"/>
<path fill="none" stroke="#000000" stroke-width="2" stroke-miterlimit="10" d="M163.4,210.3c-2.7,3.7-5.6,7.4-8.8,11.2"/>
<path fill="none" stroke="#000000" stroke-width="2" stroke-miterlimit="10" d="M194,188.5c0,0-3.4,6.2-8.6,14.5"/>
<path fill="none" stroke="#000000" stroke-width="2" stroke-miterlimit="10" d="M164.8,231.6c-4.1,4.6-8.1,8.3-11.8,10.4"/>
<path fill="none" stroke="#000000" stroke-width="2" stroke-miterlimit="10" d="M165.3,303c-0.5,1,2.4,21.3,2.4,21.3h5.1l2.6-21.1"
	/>
<path fill="none" stroke="#000000" stroke-width="2" stroke-miterlimit="10" d="M178.6,302.9c1.1,5.6,3.5,17.4,3.5,17.4h4.6
	c0,0,2.1-11.5,2.7-17.6"/>
<polyline fill="none" stroke="#000000" stroke-width="2" stroke-miterlimit="10" points="167.7,324.3 179.9,340.6 191.9,331.6 
	172.8,324.3 "/>
<polyline fill="none" stroke="#000000" stroke-width="2" stroke-miterlimit="10" points="182.1,320.3 197.3,328.5 204.8,321.3 
	187.5,320.3 "/>
<ellipse fill="none" stroke="#000000" stroke-width="2" stroke-miterlimit="10" cx="237.7" cy="121.7" rx="14.8" ry="21.7"/>
<polyline fill="none" stroke="#000000" stroke-width="2" stroke-miterlimit="10" points="231.3,141.3 231.3,149 242.7,149 
	242.3,142.3 "/>
<path fill="none" stroke="#000000" stroke-width="2" stroke-miterlimit="10" d="M221,149h30.5L263,299.5c0,0-33.8,8.2-54.2,0
	L221,149z"/>
<path fill="none" stroke="#000000" stroke-width="2" stroke-miterlimit="10" d="M229,164l-7.2,66.8c0,0,15.2,3.8,26.2,0l-5.3-65.5"
	/>
<path fill="none" stroke="#000000" stroke-width="2" stroke-miterlimit="10" d="M228.2,231.9l2.2,15.8c0,0,8.6,1,8.8,0
	s0.5-15.2,0.5-15.2"/>
<polyline fill="none" stroke="#000000" stroke-width="2" stroke-miterlimit="10" points="242.4,232.4 245.5,238 242.4,240 
	239.6,237.6 "/>
<path fill="none" stroke="#000000" stroke-width="2" stroke-miterlimit="10" d="M251.5,149c0,0-0.8,10.5-7.8,26.9"/>
<path fill="none" stroke="#000000" stroke-width="2" stroke-miterlimit="10" d="M223.9,210.3c-2.7,3.7-5.6,7.4-8.8,11.2"/>
<path fill="none" stroke="#000000" stroke-width="2" stroke-miterlimit="10" d="M254.5,188.5c0,0-3.4,6.2-8.6,14.5"/>
<path fill="none" stroke="#000000" stroke-width="2" stroke-miterlimit="10" d="M225.3,231.6c-4.1,4.6-8.1,8.3-11.8,10.4"/>
<path fill="none" stroke="#000000" stroke-width="2" stroke-miterlimit="10" d="M225.8,303c-0.5,1,2.4,21.3,2.4,21.3h5.1l2.6-21.1"
	/>
<path fill="none" stroke="#000000" stroke-width="2" stroke-miterlimit="10" d="M239.1,302.9c1.1,5.6,3.5,17.4,3.5,17.4h4.6
	c0,0,2.1-11.5,2.7-17.6"/>
<polyline fill="none" stroke="#000000" stroke-width="2" stroke-miterlimit="10" points="228.2,324.3 240.4,340.6 252.4,331.6 
	233.3,324.3 "/>
<polyline fill="none" stroke="#000000" stroke-width="2" stroke-miterlimit="10" points="242.6,320.3 257.8,328.5 265.3,321.3 
	248,320.3 "/>
<ellipse fill="none" stroke="#000000" stroke-width="2" stroke-miterlimit="10" cx="300.7" cy="121.7" rx="14.8" ry="21.7"/>
<polyline fill="none" stroke="#000000" stroke-width="2" stroke-miterlimit="10" points="294.3,141.3 294.3,149 305.7,149 
	305.3,142.3 "/>
<path fill="none" stroke="#000000" stroke-width="2" stroke-miterlimit="10" d="M284,149h30.5L326,299.5c0,0-33.7,8.2-54.2,0
	L284,149z"/>
<path fill="none" stroke="#000000" stroke-width="2" stroke-miterlimit="10" d="M292,164l-7.2,66.8c0,0,15.2,3.8,26.2,0l-5.3-65.5"
	/>
<path fill="none" stroke="#000000" stroke-width="2" stroke-miterlimit="10" d="M291.2,231.9l2.2,15.8c0,0,8.6,1,8.7,0
	s0.5-15.2,0.5-15.2"/>
<polyline fill="none" stroke="#000000" stroke-width="2" stroke-miterlimit="10" points="305.4,232.4 308.5,238 305.4,240 
	302.6,237.6 "/>
<path fill="none" stroke="#000000" stroke-width="2" stroke-miterlimit="10" d="M314.5,149c0,0-0.8,10.5-7.8,26.9"/>
<path fill="none" stroke="#000000" stroke-width="2" stroke-miterlimit="10" d="M286.9,210.3c-2.7,3.7-5.6,7.4-8.8,11.2"/>
<path fill="none" stroke="#000000" stroke-width="2" stroke-miterlimit="10" d="M317.5,188.5c0,0-3.4,6.2-8.6,14.5"/>
<path fill="none" stroke="#000000" stroke-width="2" stroke-miterlimit="10" d="M288.3,231.6c-4.1,4.6-8.1,8.3-11.8,10.4"/>
<path fill="none" stroke="#000000" stroke-width="2" stroke-miterlimit="10" d="M288.8,303c-0.5,1,2.4,21.3,2.4,21.3h5.1l2.6-21.1"
	/>
<path fill="none" stroke="#000000" stroke-width="2" stroke-miterlimit="10" d="M302.1,302.9c1.1,5.6,3.5,17.4,3.5,17.4h4.6
	c0,0,2.1-11.5,2.7-17.6"/>
<polyline fill="none" stroke="#000000" stroke-width="2" stroke-miterlimit="10" points="291.2,324.3 303.4,340.6 315.4,331.6 
	296.3,324.3 "/>
<polyline fill="none" stroke="#000000" stroke-width="2" stroke-miterlimit="10" points="305.6,320.3 320.8,328.5 328.3,321.3 
	311,320.3 "/>
<ellipse fill="none" stroke="#000000" stroke-width="2" stroke-miterlimit="10" cx="363.7" cy="121.7" rx="14.8" ry="21.7"/>
<polyline fill="none" stroke="#000000" stroke-width="2" stroke-miterlimit="10" points="357.3,141.3 357.3,149 368.7,149 
	368.3,142.3 "/>
<path fill="none" stroke="#000000" stroke-width="2" stroke-miterlimit="10" d="M347,149h30.5L389,299.5c0,0-33.8,8.2-54.2,0
	L347,149z"/>
<path fill="none" stroke="#000000" stroke-width="2" stroke-miterlimit="10" d="M355,164l-7.2,66.8c0,0,15.2,3.8,26.2,0l-5.3-65.5"
	/>
<path fill="none" stroke="#000000" stroke-width="2" stroke-miterlimit="10" d="M354.2,231.9l2.2,15.8c0,0,8.6,1,8.8,0
	s0.5-15.2,0.5-15.2"/>
<polyline fill="none" stroke="#000000" stroke-width="2" stroke-miterlimit="10" points="368.4,232.4 371.5,238 368.4,240 
	365.6,237.6 "/>
<path fill="none" stroke="#000000" stroke-width="2" stroke-miterlimit="10" d="M377.5,149c0,0-0.8,10.5-7.8,26.9"/>
<path fill="none" stroke="#000000" stroke-width="2" stroke-miterlimit="10" d="M349.9,210.3c-2.7,3.7-5.6,7.4-8.8,11.2"/>
<path fill="none" stroke="#000000" stroke-width="2" stroke-miterlimit="10" d="M380.5,188.5c0,0-3.4,6.2-8.6,14.5"/>
<path fill="none" stroke="#000000" stroke-width="2" stroke-miterlimit="10" d="M351.3,231.6c-4.1,4.6-8.1,8.3-11.8,10.4"/>
<path fill="none" stroke="#000000" stroke-width="2" stroke-miterlimit="10" d="M351.8,303c-0.5,1,2.4,21.3,2.4,21.3h5.1l2.6-21.1"
	/>
<path fill="none" stroke="#000000" stroke-width="2" stroke-miterlimit="10" d="M365.1,302.9c1.1,5.6,3.5,17.4,3.5,17.4h4.6
	c0,0,2.1-11.5,2.7-17.6"/>
<polyline fill="none" stroke="#000000" stroke-width="2" stroke-miterlimit="10" points="354.2,324.3 366.4,340.6 378.4,331.6 
	359.3,324.3 "/>
<polyline fill="none" stroke="#000000" stroke-width="2" stroke-miterlimit="10" points="368.6,320.3 383.8,328.5 391.3,321.3 
	374,320.3 "/>
<path fill="#FFFFFF" stroke="#000000" stroke-miterlimit="10" d="M349.4,127.7c0,0,12.8,0.3,15.2-0.8s5.5-1.9,8.1-0.6
	s4.8,1.5,4.8,1.5"/>
<path fill="none" stroke="#000000" stroke-width="2" stroke-miterlimit="10" d="M346.1,160.4c0,0-11.4-4-11.3-4.5
	s-4.3-63.6,29.7-61.2c0,0,11.5,0.2,11.7,15.5"/>
<path fill="#FFFFFF" stroke="#000000" stroke-miterlimit="10" d="M286.7,126.7c0,0,13.6,1.7,16.9,0c3.2-1.7,8.3-0.2,10.9,1.1"/>
<path fill="none" stroke="#000000" stroke-width="2" stroke-miterlimit="10" d="M294.3,147l-16.6-5.7c0,0-2.5-45,22.9-45.9
	s18.7,48,18.7,48l-13.8,3.7"/>
<path fill="#FFFFFF" stroke="#000000" stroke-miterlimit="10" d="M224,130.1c0,0,11.7-1.2,15.9-2.3s11,1.2,11,1.2"/>
<path fill="none" stroke="#000000" stroke-width="2" stroke-miterlimit="10" d="M245.3,103.1c0,0-1.6-13.9-18.8-10.2
	c-17.2,3.7-24.8,38.5-14.7,60.7l8.8-0.5"/>
<path fill="none" stroke="#000000" stroke-width="2" stroke-miterlimit="10" d="M163.3,129.4c0,0,6.6-0.3,12.1-1.9
	s15.6,1.9,15.6,1.9"/>
<path fill="none" stroke="#000000" stroke-width="2" stroke-miterlimit="10" d="M165.2,108.9c0,0,8.6,3,21.3-4.2"/>
<path fill="none" stroke="#000000" stroke-width="2" stroke-miterlimit="10" d="M167.6,105.2c0,0,6.4,1.8,14.6-3.9"/>
<path fill="none" stroke="#000000" stroke-width="2" stroke-miterlimit="10" d="M99.4,117.3c0,0,6.1,0.4,13-7.8c0,0,5,3.7,14.1,0"/>
<path fill="none" stroke="#000000" stroke-width="2" stroke-miterlimit="10" d="M101.4,110.6c0,0,9.2-3.9,11-7.2c0,0,6,2.6,11.1,1.4
	"/>
</svg>
