<?xml version="1.0" encoding="utf-8"?>
<!-- Generator: Adobe Illustrator 19.2.1, SVG Export Plug-In . SVG Version: 6.00 Build 0)  -->
<svg version="1.0" id="Layer_1" xmlns="http://www.w3.org/2000/svg" xmlns:xlink="http://www.w3.org/1999/xlink" x="0px" y="0px"
	 width="288px" height="288px" viewBox="0 0 288 288" enable-background="new 0 0 288 288" xml:space="preserve">
<path fill="none" stroke="#000000" stroke-width="2" stroke-miterlimit="10" d="M266.1,184.7H26.7c-6.6,0-12-5.4-12-12v-64.5
	c0-6.6,5.4-12,12-12h239.4c6.6,0,12,5.4,12,12v64.5C278.1,179.3,272.7,184.7,266.1,184.7z"/>
<path fill="none" stroke="#000000" stroke-width="2" stroke-miterlimit="10" d="M261.4,180.2h-230c-6.6,0-12-5.4-12-12v-55.4
	c0-6.6,5.4-12,12-12h230c6.6,0,12,5.4,12,12v55.4C273.4,174.8,268,180.2,261.4,180.2z"/>
</svg>
