<?xml version="1.0" encoding="utf-8"?>
<!-- Generator: Adobe Illustrator 19.2.1, SVG Export Plug-In . SVG Version: 6.00 Build 0)  -->
<svg version="1.0" id="Layer_1" xmlns="http://www.w3.org/2000/svg" xmlns:xlink="http://www.w3.org/1999/xlink" x="0px" y="0px"
	 width="648px" height="417.6px" viewBox="0 0 648 417.6" enable-background="new 0 0 648 417.6" xml:space="preserve">
<path fill="none" stroke="#000000" stroke-width="2" stroke-miterlimit="10" d="M314.7,70.1c-0.3,0.1-0.7,0.2-1,0.2
	c-7.4,1.3-15-6.1-16.9-16.7s2.6-20.2,10-21.5s15,6.1,16.9,16.7c1.2,6.9-0.2,13.4-3.5,17.5"/>
<path fill="none" stroke="#000000" stroke-width="2" stroke-miterlimit="10" d="M295.3,48.2c0,0,17.3-4.1,25.1-12.4"/>
<path fill="none" stroke="#000000" stroke-width="2" stroke-miterlimit="10" d="M294,42.7c0.9-0.2,11.8,1.7,23.1-8.6"/>
<path fill="none" stroke="#000000" stroke-width="2" stroke-miterlimit="10" d="M295.9,37.7c0,0,10.4,1.8,17.4-6.6"/>
<path fill="none" stroke="#000000" stroke-width="2" stroke-miterlimit="10" d="M293.6,78.1c0,0,15.2-3.7,31.2-2.1
	c0,0,2.1,45.1,5.2,59.8c0,0-17.2,2.6-26.5,1.3C303.5,137.2,295.3,113.7,293.6,78.1z"/>
<polyline fill="none" stroke="#000000" stroke-width="2" stroke-miterlimit="10" points="308.7,69.4 309.6,76 315.6,75 315.6,70.3 
	"/>
<polyline fill="none" stroke="#000000" stroke-width="2" stroke-miterlimit="10" points="293.6,78.1 280.4,102.9 300.4,125.3 "/>
<path fill="none" stroke="#000000" stroke-width="2" stroke-miterlimit="10" d="M285,108.1c0,0,7.3-10.1,9.6-11.7"/>
<line fill="none" stroke="#000000" stroke-width="2" stroke-miterlimit="10" x1="290.4" y1="101" x2="297.4" y2="112.1"/>
<polyline fill="none" stroke="#000000" stroke-width="2" stroke-miterlimit="10" points="299.6,124.4 289.2,127.5 297.2,134.3 
	301.5,128.6 "/>
<polygon fill="none" stroke="#000000" stroke-width="2" stroke-miterlimit="10" points="324.8,71.1 329.5,65.5 327.1,63.3 
	323.9,67.2 312.1,63.3 311.4,68.5 323,72.7 "/>
<path fill="none" stroke="#000000" stroke-width="2" stroke-miterlimit="10" d="M326.3,69.4c0,0,15.4,15,18.3,38.7l-18.7-15.2"/>
<path fill="none" stroke="#000000" stroke-width="2" stroke-miterlimit="10" d="M323,72.7c0,0,12.4,11.9,10.1,26.2"/>
<line fill="none" stroke="#000000" stroke-width="2" stroke-miterlimit="10" x1="324.8" y1="77.2" x2="330" y2="82.3"/>
<path fill="none" stroke="#000000" stroke-width="2" stroke-miterlimit="10" d="M303.5,137.4c0,0-0.6,57.2,7.9,88.8h4.3l1.9-88.8
	l9.9,87.4l3.9-0.2c0,0,6.3-59.4-1.4-88.5"/>
<path fill="none" stroke="#000000" stroke-width="2" stroke-miterlimit="10" d="M310.7,226.2c-0.4,0.3-17.9,7.2-17.9,7.2
	s10.8,7.2,11.6,6.9s11.5-13.5,11.5-13.5L310.7,226.2z"/>
<polygon fill="none" stroke="#000000" stroke-width="2" stroke-miterlimit="10" points="327.4,225.9 337,240.3 348.4,233.3 
	332.2,225.2 "/>
<path fill="none" stroke="#000000" stroke-width="2" stroke-miterlimit="10" d="M114.7,283.1h23.7c0,0,2.3-28,2.3-29.7
	c0-1.7-7.7-13-9-14.7c-1.3-1.7-16-11.3-16-11.3H90.3c0,0-13.3,0.7-14,2c-0.7,1.3-17.7,33-19.3,47.7s-3,26.3-3,26.3s-1.7,35.7-1.3,38
	c0.3,2.3,6.3,24.3,7.7,26c1.3,1.7,23.7,14,23.7,14s28.7,5.3,34.3,3.7c5.7-1.7,23.3-6,22.3-11.3c-1-5.3,4.7-42,4.7-43.3
	c0-1.3-11-6.7-12.7-7c-1.7-0.3-16.3-1.7-16.3-1.7s-2.7,19.3-5,21c-2.3,1.7-9.3,6.7-17.3,4.7s-15.3-9.7-15.3-9.7l2-25l2.7-19.7
	c0,0,3.7-13.3,7.3-17c3.7-3.7,11.3-5.7,11.3-5.7s7.7,0,9,1.7L114.7,283.1z"/>
<path fill="none" stroke="#000000" stroke-width="2" stroke-miterlimit="10" d="M147.3,237.8c0,0,3.7,148.6,5,147.7
	c1.3-1,28,2.3,28,0c0-2.3-1.3-14.7-1.3-14.7l-1.3-37c0,0,11.3-3.7,11.3-2.3c0,1.3,4,34.7,4,36c0,1.3,2.3,18,2.3,18s34.7-1,34.7-2.7
	c0-1.7-3.7-59.3-3.7-59.3s-0.7-50.3-1.3-53c-0.7-2.7-0.7-36.7-3.3-36.7c-2.7,0-23.3,0-23.3,0l-1.7,64.7c0,0-15.3,3.7-15.7,2.7
	s-2-10.7-2-14s-3-49-3-49l-18.7,1L147.3,237.8z"/>
<path fill="none" stroke="#000000" stroke-width="2" stroke-miterlimit="10" d="M308.7,226.7c-7.9,0-21,0.7-21,0.7
	s-2.7,22.7-2.3,24.3c0.3,1.7,4,39,4,39l-0.3,41.3h-14c0,0-3.3-6.7-3.7-10c-0.3-3.3-4.7-67.3-5-68.3c-0.3-1-2.3-22-2.3-22l-32.4,2
	l3,85.7l5.7,30.3l5,23c0,0,28,11.3,29.7,11c1.7-0.3,28-7,29.7-7c1.7,0,13.7-7.3,13.7-7.3s-0.3-91.3,0-92.7
	c0.3-1.3-3.7-49.3-3.7-49.3"/>
<path fill="none" stroke="#000000" stroke-width="2" stroke-miterlimit="10" d="M327.5,226.2c-2.5,0.7-4.1,1.2-4.1,1.2l5.3,78.2v6.5
	v48l2,14l31.7-2c0,0-2.3-24-2.3-28.7c0-4.7-2.3-24.3-2.3-27.7c0-3.3,0-9.3,0-9.3l14.7,29.3c0,0,7.3,21.7,8,23c0.7,1.3,9,12.3,9,12.3
	l27.7-13c0,0-7.3-14-8-17s-4.3-16.7-4.3-16.7l-7.3-12.7l-11-22.3c0,0,18-17.3,18-31.3s-1.7-20.3-1.7-20.3l-13-15.5l-17.3-2.5H349
	c0,0-10,3-17.2,5.1"/>
<path fill="none" stroke="#000000" stroke-width="2" stroke-miterlimit="10" d="M355.7,250.1c0,0,1,35.7,2.3,35.3
	c1.3-0.3,17-12.7,17-12.7s3-8,3-10s0-7.7,0-7.7l-11.2-7.3L355.7,250.1z"/>
<path fill="none" stroke="#000000" stroke-width="2" stroke-miterlimit="10" d="M473.8,272.4l23.5-2.6c0,0-0.8-28.1-1-29.7
	c-0.2-1.7-9.1-12.1-10.6-13.6c-1.5-1.5-17.2-9.5-17.2-9.5l-25.2,2.8c0,0-13.2,2.1-13.7,3.5s-13.9,34.8-13.9,49.5
	c0,14.8-0.1,26.5-0.1,26.5s2.3,35.6,2.9,37.9c0.6,2.3,9,23.5,10.5,25c1.5,1.5,25.1,11.3,25.1,11.3s29.1,2.1,34.5-0.2
	c5.4-2.3,22.5-8.5,20.9-13.7c-1.6-5.2,0-42.3-0.2-43.6c-0.1-1.3-11.7-5.4-13.4-5.6c-1.7-0.1-16.4,0.2-16.4,0.2s-0.5,19.5-2.6,21.4
	c-2.1,1.9-8.5,7.7-16.7,6.6c-8.2-1.1-16.3-7.9-16.3-7.9l-0.8-25.1l0.5-19.8c0,0,2.2-13.7,5.4-17.7c3.2-4,10.6-6.9,10.6-6.9
	s7.6-0.8,9.1,0.7L473.8,272.4z"/>
<path fill="none" stroke="#000000" stroke-width="2" stroke-miterlimit="10" d="M582.9,214.3c0,0,14,148,12.5,147.2
	c-1.4-0.8-27.5,5.6-27.8,3.3c-0.3-2.3-0.4-14.7-0.4-14.7l-3.1-36.9c0,0-11.7-2.3-11.5-1c0.2,1.3,0.1,34.9,0.3,36.2
	c0.2,1.3-0.2,18.1-0.2,18.1s-34.5,3.1-34.7,1.5s-3.4-59.3-3.4-59.3s-5.3-50.1-5-52.8c0.3-2.7-3.7-36.5-1-36.8
	c2.6-0.3,23.2-2.8,23.2-2.8l9.3,64c0,0,15.7,1.8,15.9,0.8c0.2-1,0.7-10.8,0.3-14.1c-0.4-3.3-2.8-49-2.8-49l18.7-1.2L582.9,214.3z"/>
<path fill="none" stroke="#000000" stroke-width="2" stroke-miterlimit="10" d="M54.9,295.2L63,293l3.5,3.9c0,0,5.8-2.2,6.8-2
	s10.1-1.9,10.1-1.9"/>
<path fill="none" stroke="#000000" stroke-width="2" stroke-miterlimit="10" d="M106.8,345.6l2.5,9.9l4.8,10.2c0,0,8.8-0.2,10,0
	s12.9,12.8,12.9,12.8"/>
<polyline fill="none" stroke="#000000" stroke-width="2" stroke-miterlimit="10" points="125.5,322.7 128.2,341.8 121.8,365.7 "/>
<polyline fill="none" stroke="#000000" stroke-width="2" stroke-miterlimit="10" points="149.1,305.6 158.5,308.8 174.2,308.8 
	191,318 203,329.8 226.6,327.5 "/>
<polyline fill="none" stroke="#000000" stroke-width="2" stroke-miterlimit="10" points="269.7,299.5 262.2,290 251.5,290 
	247,282.5 233.3,279.6 "/>
<polyline fill="none" stroke="#000000" stroke-width="2" stroke-miterlimit="10" points="278.8,332.1 288.8,350 285,357.3 
	290.7,380 "/>
<path fill="none" stroke="#000000" stroke-width="2" stroke-miterlimit="10" d="M287.1,365.7c0.1,0.3,30.1,0,30.1,0"/>
<polyline fill="none" stroke="#000000" stroke-width="2" stroke-miterlimit="10" points="328,295.7 340.2,307.8 343,319.5 
	345.8,325.5 358.6,326.5 "/>
<polyline fill="none" stroke="#000000" stroke-width="2" stroke-miterlimit="10" points="352.4,326 341.9,341.3 347.1,352.5 
	343.3,372.3 "/>
<path fill="none" stroke="#000000" stroke-width="2" stroke-miterlimit="10" d="M370.2,219.8l2.1,14c0,0,12.5,9.5,13.5,10
	s17.9,0,17.9,0"/>
<polyline fill="none" stroke="#000000" stroke-width="2" stroke-miterlimit="10" points="496.9,253 474.2,245.1 466,249 449.5,249 
	415.8,269 "/>
<path fill="none" stroke="#000000" stroke-width="2" stroke-miterlimit="10" d="M431.3,259.8c0,0,3.7,13.2,3.2,14.2
	s-10.8,13.5-10.8,14.5s3,18.5,3,18.5l16.8,5.3"/>
<path fill="none" stroke="#000000" stroke-width="2" stroke-miterlimit="10" d="M462.8,338.7V354l22.2-10l1.2,10
	c0,0,0.2,9.2,1.5,9.2s15.1,3.7,15.1,3.7"/>
<polyline fill="none" stroke="#000000" stroke-width="2" stroke-miterlimit="10" points="515.1,318.3 533.5,318.3 541.5,305 
	554.5,300.8 570.8,304.5 589,293.5 "/>
<line fill="none" stroke="#000000" stroke-width="2" stroke-miterlimit="10" x1="518" y1="234.1" x2="515.1" y2="239.3"/>
<path fill="none" stroke="#000000" stroke-width="2" stroke-miterlimit="10" d="M518,243.1c0.1-0.6,3-4.8,3.4-4.9"/>
<path fill="none" stroke="#000000" stroke-width="2" stroke-miterlimit="10" d="M572.4,281.4c0,0,7.5-0.6,3.2,5.1"/>
<path fill="none" stroke="#000000" stroke-width="2" stroke-miterlimit="10" d="M530.1,351.5c0,0-4.6,5.4,0,6.6"/>
<line fill="none" stroke="#000000" stroke-width="2" stroke-miterlimit="10" x1="575.5" y1="345" x2="573.9" y2="351.5"/>
<line fill="none" stroke="#000000" stroke-width="2" stroke-miterlimit="10" x1="428" y1="338.2" x2="430.5" y2="344.3"/>
<path fill="none" stroke="#000000" stroke-width="2" stroke-miterlimit="10" d="M431.5,335.2c0.2,0.5,3,5.4,3.5,6.8"/>
<path fill="none" stroke="#000000" stroke-width="2" stroke-miterlimit="10" d="M456.3,234.8c0,0-4.8-4.5-5.2,0.8"/>
<path fill="none" stroke="#000000" stroke-width="2" stroke-miterlimit="10" d="M332.8,255.9c0,0,6.2-1.9,6.5-4.6"/>
<path fill="none" stroke="#000000" stroke-width="2" stroke-miterlimit="10" d="M333.2,259.8c1.2,0.5,7.3-2,8.6-3.9"/>
<path fill="none" stroke="#000000" stroke-width="2" stroke-miterlimit="10" d="M384.4,330.2h4.1l0.9,3.2c0,0-2.2,1-2.5,1.8"/>
<line fill="none" stroke="#000000" stroke-width="2" stroke-miterlimit="10" x1="253.2" y1="345.6" x2="256.2" y2="341.9"/>
<line fill="none" stroke="#000000" stroke-width="2" stroke-miterlimit="10" x1="261.2" y1="341.9" x2="254.8" y2="349.2"/>
<path fill="none" stroke="#000000" stroke-width="2" stroke-miterlimit="10" d="M296.9,276c0,0,7-4,5.3,1.2"/>
<line fill="none" stroke="#000000" stroke-width="2" stroke-miterlimit="10" x1="308.4" y1="338.7" x2="309.5" y2="344.3"/>
<path fill="none" stroke="#000000" stroke-width="2" stroke-miterlimit="10" d="M304.2,338.2"/>
<line fill="none" stroke="#000000" stroke-width="2" stroke-miterlimit="10" x1="304.2" y1="338.2" x2="305.8" y2="345"/>
<line fill="none" stroke="#000000" stroke-width="2" stroke-miterlimit="10" x1="208.5" y1="303" x2="213.2" y2="298.3"/>
<line fill="none" stroke="#000000" stroke-width="2" stroke-miterlimit="10" x1="209.8" y1="306.5" x2="214.8" y2="301.8"/>
<path fill="none" stroke="#000000" stroke-width="2" stroke-miterlimit="10" d="M163,266.6c0,0-0.8,4.9,0,6.2"/>
<line fill="none" stroke="#000000" stroke-width="2" stroke-miterlimit="10" x1="166" y1="269" x2="166" y2="274.6"/>
<path fill="none" stroke="#000000" stroke-width="2" stroke-miterlimit="10" d="M161.8,345.6c0,0-5.4,8.6,0.9,7.3"/>
<line fill="none" stroke="#000000" stroke-width="2" stroke-miterlimit="10" x1="207.2" y1="367" x2="210.9" y2="368.5"/>
<line fill="none" stroke="#000000" stroke-width="2" stroke-miterlimit="10" x1="69.1" y1="353.8" x2="69.1" y2="359.5"/>
<line fill="none" stroke="#000000" stroke-width="2" stroke-miterlimit="10" x1="71.8" y1="350.8" x2="71.8" y2="360.8"/>
<path fill="none" stroke="#000000" stroke-width="2" stroke-miterlimit="10" d="M79.5,257.9c0,0,0.7-2.9,3.8-2"/>
<path fill="none" stroke="#000000" stroke-width="2" stroke-miterlimit="10" d="M75,255.8c0,0,1.9-6.2,8.3-5.5"/>
<line fill="none" stroke="#000000" stroke-width="2" stroke-miterlimit="10" x1="119.5" y1="259.9" x2="123.5" y2="263"/>
</svg>
