<?xml version="1.0" encoding="utf-8"?>
<!-- Generator: Adobe Illustrator 21.0.0, SVG Export Plug-In . SVG Version: 6.00 Build 0)  -->
<!DOCTYPE svg PUBLIC "-//W3C//DTD SVG 1.0//EN" "http://www.w3.org/TR/2001/REC-SVG-20010904/DTD/svg10.dtd">
<svg version="1.0" xmlns="http://www.w3.org/2000/svg" xmlns:xlink="http://www.w3.org/1999/xlink" x="0px" y="0px" width="648px"
	 height="417.6px" viewBox="0 0 648 417.6" enable-background="new 0 0 648 417.6" xml:space="preserve">
<g id="Color">
	<path fill="#FFFFFF" d="M114.7,283.1h23.7c0,0,2.3-28,2.3-29.7s-7.7-13-9-14.7s-16-11.3-16-11.3H90.3c0,0-13.3,0.7-14,2
		s-17.7,33-19.3,47.7s-3,26.3-3,26.3s-1.7,35.7-1.3,38c0.3,2.3,6.3,24.3,7.7,26c1.3,1.7,23.7,14,23.7,14s28.7,5.3,34.3,3.7
		c5.7-1.7,23.3-6,22.3-11.3s4.7-42,4.7-43.3s-11-6.7-12.7-7s-16.3-1.7-16.3-1.7s-2.7,19.3-5,21s-9.3,6.7-17.3,4.7
		s-15.3-9.7-15.3-9.7l2-25l2.7-19.7c0,0,3.7-13.3,7.3-17c3.7-3.7,11.3-5.7,11.3-5.7s7.7,0,9,1.7L114.7,283.1z"/>
	<path fill="#FFFFFF" d="M147.3,237.8c0,0,3.7,148.6,5,147.7c1.3-1,28,2.3,28,0s-1.3-14.7-1.3-14.7l-1.3-37c0,0,11.3-3.7,11.3-2.3
		c0,1.3,4,34.7,4,36s2.3,18,2.3,18s34.7-1,34.7-2.7s-3.7-59.3-3.7-59.3s-0.7-50.3-1.3-53c-0.7-2.7-0.7-36.7-3.3-36.7
		c-2.7,0-23.3,0-23.3,0l-1.7,64.7c0,0-15.3,3.7-15.7,2.7s-2-10.7-2-14s-3-49-3-49l-18.7,1L147.3,237.8z"/>
	<path fill="#FFFFFF" d="M314.8,227.4c-7.9,0-27.1,0-27.1,0s-2.7,22.7-2.3,24.3c0.3,1.7,4,39,4,39l-0.3,41.3h-14c0,0-3.3-6.7-3.7-10
		c-0.3-3.3-4.7-67.3-5-68.3s-2.3-22-2.3-22l-32.4,2l3,85.7l5.7,30.3l5,23c0,0,28,11.3,29.7,11s28-7,29.7-7s13.7-7.3,13.7-7.3
		s-0.3-91.3,0-92.7C318.8,275.4,314.8,227.4,314.8,227.4"/>
	<path fill="#FFFFFF" d="M409.2,341c-0.7-3-4.3-16.7-4.3-16.7l-7.3-12.7l-11-22.3c0,0,18-17.3,18-31.3s-1.7-20.3-1.7-20.3l-13-15.5
		l-17.3-2.5H349c0,0-10,3-17.2,5.1c-2.5,0.7-8.4,2.6-8.4,2.6l5.3,78.2v6.5v48l2,14l31.7-2c0,0-2.3-24-2.3-28.7s-2.3-24.3-2.3-27.7
		c0-3.3,0-9.3,0-9.3l14.7,29.3c0,0,7.3,21.7,8,23s9,12.3,9,12.3l27.7-13C417.2,358,409.9,344,409.2,341z M378,262.7c0,2-3,10-3,10
		s-15.7,12.4-17,12.7c-1.3,0.4-2.3-35.3-2.3-35.3l11.1-2.4L378,255C378,255,378,260.7,378,262.7z"/>
	<path fill="#FFFFFF" d="M473.8,272.4l23.5-2.6c0,0-0.8-28.1-1-29.7c-0.2-1.7-9.1-12.1-10.6-13.6s-17.2-9.5-17.2-9.5l-25.2,2.8
		c0,0-13.2,2.1-13.7,3.5s-13.9,34.8-13.9,49.5c0,14.8-0.1,26.5-0.1,26.5s2.3,35.6,2.9,37.9s9,23.5,10.5,25s25.1,11.3,25.1,11.3
		s29.1,2.1,34.5-0.2c5.4-2.3,22.5-8.5,20.9-13.7s0-42.3-0.2-43.6c-0.1-1.3-11.7-5.4-13.4-5.6c-1.7-0.1-16.4,0.2-16.4,0.2
		s-0.5,19.5-2.6,21.4s-8.5,7.7-16.7,6.6s-16.3-7.9-16.3-7.9l-0.8-25.1l0.5-19.8c0,0,2.2-13.7,5.4-17.7c3.2-4,10.6-6.9,10.6-6.9
		s7.6-0.8,9.1,0.7L473.8,272.4z"/>
	<path fill="#FFFFFF" d="M582.9,214.3c0,0,14,148,12.5,147.2c-1.4-0.8-27.5,5.6-27.8,3.3c-0.3-2.3-0.4-14.7-0.4-14.7l-3.1-36.9
		c0,0-11.7-2.3-11.5-1s0.1,34.9,0.3,36.2c0.2,1.3-0.2,18.1-0.2,18.1s-34.5,3.1-34.7,1.5s-3.4-59.3-3.4-59.3s-5.3-50.1-5-52.8
		s-3.7-36.5-1-36.8c2.6-0.3,23.2-2.8,23.2-2.8l9.3,64c0,0,15.7,1.8,15.9,0.8s0.7-10.8,0.3-14.1c-0.4-3.3-2.8-49-2.8-49l18.7-1.2
		L582.9,214.3z"/>
</g>
<g id="Lines">
	<path fill="none" stroke="#000000" stroke-width="2" stroke-miterlimit="10" d="M114.7,283.1h23.7c0,0,2.3-28,2.3-29.7
		s-7.7-13-9-14.7s-16-11.3-16-11.3H90.3c0,0-13.3,0.7-14,2s-17.7,33-19.3,47.7s-3,26.3-3,26.3s-1.7,35.7-1.3,38
		c0.3,2.3,6.3,24.3,7.7,26c1.3,1.7,23.7,14,23.7,14s28.7,5.3,34.3,3.7c5.7-1.7,23.3-6,22.3-11.3s4.7-42,4.7-43.3s-11-6.7-12.7-7
		s-16.3-1.7-16.3-1.7s-2.7,19.3-5,21s-9.3,6.7-17.3,4.7s-15.3-9.7-15.3-9.7l2-25l2.7-19.7c0,0,3.7-13.3,7.3-17
		c3.7-3.7,11.3-5.7,11.3-5.7s7.7,0,9,1.7L114.7,283.1z"/>
	<path fill="none" stroke="#000000" stroke-width="2" stroke-miterlimit="10" d="M147.3,237.8c0,0,3.7,148.6,5,147.7
		c1.3-1,28,2.3,28,0s-1.3-14.7-1.3-14.7l-1.3-37c0,0,11.3-3.7,11.3-2.3c0,1.3,4,34.7,4,36s2.3,18,2.3,18s34.7-1,34.7-2.7
		s-3.7-59.3-3.7-59.3s-0.7-50.3-1.3-53c-0.7-2.7-0.7-36.7-3.3-36.7c-2.7,0-23.3,0-23.3,0l-1.7,64.7c0,0-15.3,3.7-15.7,2.7
		s-2-10.7-2-14s-3-49-3-49l-18.7,1L147.3,237.8z"/>
	<path fill="none" stroke="#000000" stroke-width="2" stroke-miterlimit="10" d="M314.8,227.4c-7.9,0-27.1,0-27.1,0
		s-2.7,22.7-2.3,24.3c0.3,1.7,4,39,4,39l-0.3,41.3h-14c0,0-3.3-6.7-3.7-10c-0.3-3.3-4.7-67.3-5-68.3s-2.3-22-2.3-22l-32.4,2l3,85.7
		l5.7,30.3l5,23c0,0,28,11.3,29.7,11s28-7,29.7-7s13.7-7.3,13.7-7.3s-0.3-91.3,0-92.7C318.8,275.4,314.8,227.4,314.8,227.4"/>
	<path fill="none" stroke="#000000" stroke-width="2" stroke-miterlimit="10" d="M331.8,224.8c-2.5,0.7-8.4,2.6-8.4,2.6l5.3,78.2
		v6.5v48l2,14l31.7-2c0,0-2.3-24-2.3-28.7s-2.3-24.3-2.3-27.7c0-3.3,0-9.3,0-9.3l14.7,29.3c0,0,7.3,21.7,8,23s9,12.3,9,12.3l27.7-13
		c0,0-7.3-14-8-17s-4.3-16.7-4.3-16.7l-7.3-12.7l-11-22.3c0,0,18-17.3,18-31.3s-1.7-20.3-1.7-20.3l-13-15.5l-17.3-2.5H349
		C349,219.7,339,222.7,331.8,224.8"/>
	<path fill="none" stroke="#000000" stroke-width="2" stroke-miterlimit="10" d="M355.7,250.1c0,0,1,35.7,2.3,35.3
		c1.3-0.3,17-12.7,17-12.7s3-8,3-10s0-7.7,0-7.7l-11.2-7.3L355.7,250.1z"/>
	<path fill="none" stroke="#000000" stroke-width="2" stroke-miterlimit="10" d="M473.8,272.4l23.5-2.6c0,0-0.8-28.1-1-29.7
		c-0.2-1.7-9.1-12.1-10.6-13.6s-17.2-9.5-17.2-9.5l-25.2,2.8c0,0-13.2,2.1-13.7,3.5s-13.9,34.8-13.9,49.5c0,14.8-0.1,26.5-0.1,26.5
		s2.3,35.6,2.9,37.9s9,23.5,10.5,25s25.1,11.3,25.1,11.3s29.1,2.1,34.5-0.2c5.4-2.3,22.5-8.5,20.9-13.7s0-42.3-0.2-43.6
		c-0.1-1.3-11.7-5.4-13.4-5.6c-1.7-0.1-16.4,0.2-16.4,0.2s-0.5,19.5-2.6,21.4s-8.5,7.7-16.7,6.6s-16.3-7.9-16.3-7.9l-0.8-25.1
		l0.5-19.8c0,0,2.2-13.7,5.4-17.7c3.2-4,10.6-6.9,10.6-6.9s7.6-0.8,9.1,0.7L473.8,272.4z"/>
	<path fill="none" stroke="#000000" stroke-width="2" stroke-miterlimit="10" d="M582.9,214.3c0,0,14,148,12.5,147.2
		c-1.4-0.8-27.5,5.6-27.8,3.3c-0.3-2.3-0.4-14.7-0.4-14.7l-3.1-36.9c0,0-11.7-2.3-11.5-1s0.1,34.9,0.3,36.2
		c0.2,1.3-0.2,18.1-0.2,18.1s-34.5,3.1-34.7,1.5s-3.4-59.3-3.4-59.3s-5.3-50.1-5-52.8s-3.7-36.5-1-36.8c2.6-0.3,23.2-2.8,23.2-2.8
		l9.3,64c0,0,15.7,1.8,15.9,0.8s0.7-10.8,0.3-14.1c-0.4-3.3-2.8-49-2.8-49l18.7-1.2L582.9,214.3z"/>
	<path fill="none" stroke="#000000" stroke-width="2" stroke-miterlimit="10" d="M54.9,295.2L63,293l3.5,3.9c0,0,5.8-2.2,6.8-2
		s10.1-1.9,10.1-1.9"/>
	<path fill="none" stroke="#000000" stroke-width="2" stroke-miterlimit="10" d="M106.8,345.6l2.5,9.9l4.8,10.2c0,0,8.8-0.2,10,0
		s12.9,12.8,12.9,12.8"/>
	<polyline fill="none" stroke="#000000" stroke-width="2" stroke-miterlimit="10" points="125.5,322.7 128.2,341.8 121.8,365.7 	"/>
	<polyline fill="none" stroke="#000000" stroke-width="2" stroke-miterlimit="10" points="149.1,305.6 158.5,308.8 174.2,308.8 
		191,318 203,329.8 226.6,327.5 	"/>
	<polyline fill="none" stroke="#000000" stroke-width="2" stroke-miterlimit="10" points="269.7,299.5 262.2,290 251.5,290 
		247,282.5 233.3,279.6 	"/>
	<polyline fill="none" stroke="#000000" stroke-width="2" stroke-miterlimit="10" points="278.8,332.1 288.8,350 285,357.3 
		290.7,380 	"/>
	<path fill="none" stroke="#000000" stroke-width="2" stroke-miterlimit="10" d="M287.1,365.7c0.1,0.3,30.1,0,30.1,0"/>
	<polyline fill="none" stroke="#000000" stroke-width="2" stroke-miterlimit="10" points="328,295.7 340.2,307.8 343,319.5 
		345.8,325.5 358.6,326.5 	"/>
	<polyline fill="none" stroke="#000000" stroke-width="2" stroke-miterlimit="10" points="352.4,326 341.9,341.3 347.1,352.5 
		343.3,372.3 	"/>
	<path fill="none" stroke="#000000" stroke-width="2" stroke-miterlimit="10" d="M370.2,219.8l2.1,14c0,0,12.5,9.5,13.5,10
		s17.9,0,17.9,0"/>
	<polyline fill="none" stroke="#000000" stroke-width="2" stroke-miterlimit="10" points="496.9,253 474.2,245.1 466,249 449.5,249 
		415.8,269 	"/>
	<path fill="none" stroke="#000000" stroke-width="2" stroke-miterlimit="10" d="M431.3,259.8c0,0,3.7,13.2,3.2,14.2
		s-10.8,13.5-10.8,14.5s3,18.5,3,18.5l16.8,5.3"/>
	<path fill="none" stroke="#000000" stroke-width="2" stroke-miterlimit="10" d="M462.8,338.7V354l22.2-10l1.2,10
		c0,0,0.2,9.2,1.5,9.2s15.1,3.7,15.1,3.7"/>
	<polyline fill="none" stroke="#000000" stroke-width="2" stroke-miterlimit="10" points="515.1,318.3 533.5,318.3 541.5,305 
		554.5,300.8 570.8,304.5 589,293.5 	"/>
	<line fill="none" stroke="#000000" stroke-width="2" stroke-miterlimit="10" x1="518" y1="234.1" x2="515.1" y2="239.3"/>
	<path fill="none" stroke="#000000" stroke-width="2" stroke-miterlimit="10" d="M518,243.1c0.1-0.6,3-4.8,3.4-4.9"/>
	<path fill="none" stroke="#000000" stroke-width="2" stroke-miterlimit="10" d="M572.4,281.4c0,0,7.5-0.6,3.2,5.1"/>
	<path fill="none" stroke="#000000" stroke-width="2" stroke-miterlimit="10" d="M530.1,351.5c0,0-4.6,5.4,0,6.6"/>
	<line fill="none" stroke="#000000" stroke-width="2" stroke-miterlimit="10" x1="575.5" y1="345" x2="573.9" y2="351.5"/>
	<line fill="none" stroke="#000000" stroke-width="2" stroke-miterlimit="10" x1="428" y1="338.2" x2="430.5" y2="344.3"/>
	<path fill="none" stroke="#000000" stroke-width="2" stroke-miterlimit="10" d="M431.5,335.2c0.2,0.5,3,5.4,3.5,6.8"/>
	<path fill="none" stroke="#000000" stroke-width="2" stroke-miterlimit="10" d="M456.3,234.8c0,0-4.8-4.5-5.2,0.8"/>
	<path fill="none" stroke="#000000" stroke-width="2" stroke-miterlimit="10" d="M332.8,255.9c0,0,6.2-1.9,6.5-4.6"/>
	<path fill="none" stroke="#000000" stroke-width="2" stroke-miterlimit="10" d="M333.2,259.8c1.2,0.5,7.3-2,8.6-3.9"/>
	<path fill="none" stroke="#000000" stroke-width="2" stroke-miterlimit="10" d="M384.4,330.2h4.1l0.9,3.2c0,0-2.2,1-2.5,1.8"/>
	<line fill="none" stroke="#000000" stroke-width="2" stroke-miterlimit="10" x1="253.2" y1="345.6" x2="256.2" y2="341.9"/>
	<line fill="none" stroke="#000000" stroke-width="2" stroke-miterlimit="10" x1="261.2" y1="341.9" x2="254.8" y2="349.2"/>
	<path fill="none" stroke="#000000" stroke-width="2" stroke-miterlimit="10" d="M296.9,276c0,0,7-4,5.3,1.2"/>
	<line fill="none" stroke="#000000" stroke-width="2" stroke-miterlimit="10" x1="308.4" y1="338.7" x2="309.5" y2="344.3"/>
	<path fill="none" stroke="#000000" stroke-width="2" stroke-miterlimit="10" d="M304.2,338.2"/>
	<line fill="none" stroke="#000000" stroke-width="2" stroke-miterlimit="10" x1="304.2" y1="338.2" x2="305.8" y2="345"/>
	<line fill="none" stroke="#000000" stroke-width="2" stroke-miterlimit="10" x1="208.5" y1="303" x2="213.2" y2="298.3"/>
	<line fill="none" stroke="#000000" stroke-width="2" stroke-miterlimit="10" x1="209.8" y1="306.5" x2="214.8" y2="301.8"/>
	<path fill="none" stroke="#000000" stroke-width="2" stroke-miterlimit="10" d="M163,266.6c0,0-0.8,4.9,0,6.2"/>
	<line fill="none" stroke="#000000" stroke-width="2" stroke-miterlimit="10" x1="166" y1="269" x2="166" y2="274.6"/>
	<path fill="none" stroke="#000000" stroke-width="2" stroke-miterlimit="10" d="M161.8,345.6c0,0-5.4,8.6,0.9,7.3"/>
	<line fill="none" stroke="#000000" stroke-width="2" stroke-miterlimit="10" x1="207.2" y1="367" x2="210.9" y2="368.5"/>
	<line fill="none" stroke="#000000" stroke-width="2" stroke-miterlimit="10" x1="69.1" y1="353.8" x2="69.1" y2="359.5"/>
	<line fill="none" stroke="#000000" stroke-width="2" stroke-miterlimit="10" x1="71.8" y1="350.8" x2="71.8" y2="360.8"/>
	<path fill="none" stroke="#000000" stroke-width="2" stroke-miterlimit="10" d="M79.5,257.9c0,0,0.7-2.9,3.8-2"/>
	<path fill="none" stroke="#000000" stroke-width="2" stroke-miterlimit="10" d="M75,255.8c0,0,1.9-6.2,8.3-5.5"/>
	<line fill="none" stroke="#000000" stroke-width="2" stroke-miterlimit="10" x1="119.5" y1="259.9" x2="123.5" y2="263"/>
</g>
<g id="Stroke">
	
		<path opacity="0" fill="none" stroke="#000000" stroke-width="43" stroke-linecap="round" stroke-linejoin="round" stroke-miterlimit="10" d="
		M55,217.7c81.6,2.3,162.7-11.6,243.9-19.1c102.1-9.3,205.2-8.5,307.1,2.6c0.6,5-5.5,7.9-10.4,9.1c-91.4,22.6-187,15.4-281.1,17.5
		c-71.8,1.6-143.3,8.6-214.8,15.7c-24.7,2.4-49.5,4.9-74.2,7.3c-6.2,0.6-12.7,1.4-17.5,5.3c84,12.8,169.6,0,254.5-2.2
		c109.8-2.7,220.1,12.4,329.2-0.5c1.6,11.6-11,19.7-22,23.6c-44,15.3-92,12.7-138.6,11.6c-128.6-3.3-257.3,5.2-385.7,13.8
		c76.6,15.7,155.9,6.7,234,1.9c98.8-6.1,197.9-5.2,296.9-4.4c18.6,0.2,37.2,0.3,55.6,2.7c-62.2,31.1-135.2,28.1-204.7,26.6
		c-120.9-2.7-242,1-362.6,11.2c-7.6,0.6-17.6,4.3-16.2,11.8c58.4,15.6,120,4.9,180-2c107.4-12.4,215.8-12.8,323.9-13.1
		c19.9-0.1,39.9-0.1,59.7,2.5c2.1,5.8-3.9,11.3-9.4,13.9c-14.3,6.7-30.4,8.1-46.2,8.9C402.1,371,246,345.7,93,368.3
		c-10.2,1.5-22.7,5.3-24.3,15.5c162-10.4,324.1-19.6,486.3-27.7c0,4.1-3.7,7.2-7.1,9.5c-23.8,15.9-53,22.2-81.7,23.3
		c-28.7,1.1-57.2-2.7-85.8-5.3c-92.8-8.4-186.3-3.8-279.4,0.8"/>
</g>
</svg>
