<?xml version="1.0" encoding="utf-8"?>
<!-- Generator: Adobe Illustrator 19.2.1, SVG Export Plug-In . SVG Version: 6.00 Build 0)  -->
<svg version="1.0" id="Layer_1" xmlns="http://www.w3.org/2000/svg" xmlns:xlink="http://www.w3.org/1999/xlink" x="0px" y="0px"
	 width="288px" height="288px" viewBox="0 0 288 288" enable-background="new 0 0 288 288" xml:space="preserve">
<ellipse transform="matrix(0.9987 -5.183929e-02 5.183929e-02 0.9987 -1.7484 7.434)" fill="none" stroke="#000000" stroke-width="2" stroke-miterlimit="10" cx="142.4" cy="37.4" rx="15.3" ry="23.2"/>
<polyline fill="none" stroke="#000000" stroke-width="2" stroke-miterlimit="10" points="138,59.3 138,66.7 149.3,66.7 148.2,59.3 
	"/>
<path fill="none" stroke="#000000" stroke-width="2" stroke-miterlimit="10" d="M122.2,67.9l41.8-1.3l-2.7,93.5c0,0-25.8,4.8-32,0
	L122.2,67.9z"/>
<polyline fill="none" stroke="#000000" stroke-width="2" stroke-miterlimit="10" points="164,66.7 181,107.1 175.3,148.8 
	170.3,148.8 172.5,107.7 163.3,90.7 "/>
<path fill="none" stroke="#000000" stroke-width="2" stroke-miterlimit="10" d="M122.2,67.9c-1,0.1-16.3,35.4-16.3,35.4l2.5,45.4
	h5.6l2.3-43.3l7.7-13.7"/>
<path fill="none" stroke="#000000" stroke-width="2" stroke-miterlimit="10" d="M170.3,148.8c-0.4,0.6-3.9,5.6-3.9,5.6l2.5,2.1
	l2.5-2l-0.8,14.2l6.3-5.8l-1.6-14.1"/>
<path fill="none" stroke="#000000" stroke-width="2" stroke-miterlimit="10" d="M108.4,148.8c-0.3,0.6-2.5,18.2-2.5,18.2
	s7.9,4.3,7.9,4.1c0-0.2,0-15.4,0-15.4l2.9,2l2.6-3.1l-5.3-5.9"/>
<line fill="none" stroke="#000000" stroke-width="2" stroke-miterlimit="10" x1="116.4" y1="105.5" x2="105.9" y2="103.3"/>
<line fill="none" stroke="#000000" stroke-width="2" stroke-miterlimit="10" x1="172.5" y1="107.7" x2="181" y2="107.1"/>
<polyline fill="none" stroke="#000000" stroke-width="2" stroke-miterlimit="10" points="129.4,160.2 135.4,261.1 140.8,261.1 
	144.1,162.3 "/>
<polyline fill="none" stroke="#000000" stroke-width="2" stroke-miterlimit="10" points="146.7,162.1 156.4,261.1 161.6,261.1 
	161.4,160.2 "/>
<path fill="none" stroke="#000000" stroke-width="2" stroke-miterlimit="10" d="M135.4,261.1l-18.9,7.4c0,0,14.6,6.6,15,6.3
	s9.3-13.7,9.3-13.7"/>
<polyline fill="none" stroke="#000000" stroke-width="2" stroke-miterlimit="10" points="156.4,261.1 165.3,274.7 178.2,267.9 
	161.6,261.1 "/>
<polyline fill="none" stroke="#000000" stroke-width="2" stroke-miterlimit="10" points="130.3,21.4 125.3,13.6 134.8,16.8 "/>
<path fill="none" stroke="#000000" stroke-width="2" stroke-miterlimit="10" d="M147.3,15.8c0.2,0.1,7.4-6.4,7.4-6.4l-1.6,12.1"/>
<path fill="none" stroke="#000000" stroke-width="2" stroke-miterlimit="10" d="M161.4,182c0,0,20.6,49.4,56.6,6.5"/>
<path fill="none" stroke="#000000" stroke-width="2" stroke-miterlimit="10" d="M211.2,184.6c0.8,0.5,12.9,7.5,12.9,7.5l-0.8-14.7
	L211.2,184.6z"/>
</svg>
