<?xml version="1.0" encoding="utf-8"?>
<!-- Generator: Adobe Illustrator 19.2.1, SVG Export Plug-In . SVG Version: 6.00 Build 0)  -->
<svg version="1.0" id="Layer_1" xmlns="http://www.w3.org/2000/svg" xmlns:xlink="http://www.w3.org/1999/xlink" x="0px" y="0px"
	 width="288px" height="288px" viewBox="0 0 288 288" enable-background="new 0 0 288 288" xml:space="preserve">
<path fill="none" stroke="#000000" stroke-width="2" stroke-miterlimit="10" d="M132.8,17.4l0.5,37.6c0,2.9,2.5,5.1,5.3,4.9
	l24.8-1.7c2.8-0.2,4.9-2.7,4.6-5.5l-3.8-36.2c-0.3-2.6-2.5-4.5-5-4.5l-21.6,0.3C134.9,12.4,132.7,14.6,132.8,17.4z"/>
<path fill="none" stroke="#000000" stroke-width="2" stroke-miterlimit="10" d="M133,33.3c0,0-7-3.2-7,3s7.1,6.4,7.1,6.4"/>
<path fill="none" stroke="#000000" stroke-width="2" stroke-miterlimit="10" d="M166.1,30.3c0,0,7-3.4,7,2.8s-6.9,6.6-6.9,6.6"/>
<polyline fill="none" stroke="#000000" stroke-width="2" stroke-miterlimit="10" points="143.9,58.7 143.9,68.3 162.8,67.2 
	159.7,57.9 "/>
<path fill="none" stroke="#000000" stroke-width="2" stroke-miterlimit="10" d="M129.6,138.7c-7-26.8-17.2-66.5-17.2-66.5l79.8-7.5
	c0,0-5.1,42.7-8.6,71.8"/>
<path fill="none" stroke="#000000" stroke-width="2" stroke-miterlimit="10" d="M182.1,149c-1,8.3-1.6,13.7-1.6,13.7h-44.6
	c0,0-1.1-4.3-2.9-11.1"/>
<polyline fill="none" stroke="#000000" stroke-width="2" stroke-miterlimit="10" points="135.8,162.7 134,258.5 142.5,258.5 
	158.2,175.1 175.5,258.5 185.8,258.5 180.4,162.7 "/>
<polyline fill="none" stroke="#000000" stroke-width="2" stroke-miterlimit="10" points="112.3,72.2 77.1,110.5 128,151.5 
	139.1,151.5 139.1,139.6 125.2,138.7 "/>
<path fill="none" stroke="#000000" stroke-width="2" stroke-miterlimit="10" d="M119.5,99.8l-10.3,13.9l15.9,20.7c0,0,2.8,0.4,3.3,0
	"/>
<polyline fill="none" stroke="#000000" stroke-width="2" stroke-miterlimit="10" points="192.1,65.4 229.5,95.4 189.7,147.2 
	178.9,149.8 176.1,138.2 189.4,134.1 "/>
<path fill="none" stroke="#000000" stroke-width="2" stroke-miterlimit="10" d="M188.6,95l12.4,9.7L188.4,130c0,0-3.6,1.1-4.2,0.8"
	/>
<polyline fill="none" stroke="#000000" stroke-width="2" stroke-miterlimit="10" points="134,258.5 114.8,268.6 132.3,279.3 
	142.5,258.5 "/>
<polyline fill="none" stroke="#000000" stroke-width="2" stroke-miterlimit="10" points="175.5,258.5 182.9,279.3 202.8,272.2 
	185.8,258.5 "/>
</svg>
