<?xml version="1.0" encoding="utf-8"?>
<!-- Generator: Adobe Illustrator 19.2.1, SVG Export Plug-In . SVG Version: 6.00 Build 0)  -->
<svg version="1.0" id="Layer_1" xmlns="http://www.w3.org/2000/svg" xmlns:xlink="http://www.w3.org/1999/xlink" x="0px" y="0px"
	 width="288px" height="288px" viewBox="0 0 288 288" enable-background="new 0 0 288 288" xml:space="preserve">
<path fill="none" stroke="#000000" stroke-width="2" stroke-miterlimit="10" d="M115.5,28.1l0.5,36.6c0,2.8,2.4,5,5.2,4.8l24.2-1.6
	c2.7-0.2,4.8-2.6,4.5-5.4l-3.7-35.3c-0.3-2.5-2.4-4.4-4.9-4.4l-21.1,0.3C117.7,23.2,115.5,25.4,115.5,28.1z"/>
<path fill="none" stroke="#000000" stroke-width="2" stroke-miterlimit="10" d="M115.8,43.7c0,0-6.9-3.1-6.8,2.9s6.9,6.3,6.9,6.3"/>
<path fill="none" stroke="#000000" stroke-width="2" stroke-miterlimit="10" d="M148,40.7c0,0,6.8-3.3,6.9,2.7s-6.7,6.5-6.7,6.5"/>
<polyline fill="none" stroke="#000000" stroke-width="2" stroke-miterlimit="10" points="126.4,68.4 126.4,77.8 144.9,76.6 
	141.8,67.6 "/>
<path fill="none" stroke="#000000" stroke-width="2" stroke-miterlimit="10" d="M112.5,146.3c-6.8-26.1-16.8-64.8-16.8-64.8
	l77.8-7.3c0,0-5,41.6-8.4,69.9l-1.5,12.2c-1,8.1-1.6,13.3-1.6,13.3h-43.5c0,0-1.1-4.2-2.8-10.8"/>
<polyline fill="none" stroke="#000000" stroke-width="2" stroke-miterlimit="10" points="118.5,169.7 116.7,263.2 125.1,263.2 
	140.3,181.9 157.2,263.2 167.2,263.2 162,169.7 "/>
<polyline fill="none" stroke="#000000" stroke-width="2" stroke-miterlimit="10" points="95.6,81.5 61.3,118.9 110.9,158.9 
	121.7,158.9 121.7,147.2 108.1,146.4 "/>
<path fill="none" stroke="#000000" stroke-width="2" stroke-miterlimit="10" d="M102.6,108.5l-10,13.5l15.5,20.2c0,0,2.8,0.4,3.3,0"
	/>
<polyline fill="none" stroke="#000000" stroke-width="2" stroke-miterlimit="10" points="116.7,263.2 98,272.9 115.1,283.4 
	125.1,263.2 "/>
<polyline fill="none" stroke="#000000" stroke-width="2" stroke-miterlimit="10" points="157.2,263.2 164.4,283.4 183.8,276.5 
	167.2,263.2 "/>
<path fill="none" stroke="#000000" stroke-width="2" stroke-miterlimit="10" d="M173.5,74.3c0,0,19.8-13.6,34.8-4.9V32.7L195,33.3
	l1.1-11.5H213l13.7,61.8l-57,21.4"/>
<path fill="none" stroke="#000000" stroke-width="2" stroke-miterlimit="10" d="M198.3,33.1c-0.3,0,0.7-5.8,0.7-5.8"/>
<line fill="none" stroke="#000000" stroke-width="2" stroke-miterlimit="10" x1="201.7" y1="33" x2="202.3" y2="27.4"/>
<line fill="none" stroke="#000000" stroke-width="2" stroke-miterlimit="10" x1="205.5" y1="32.8" x2="205.5" y2="27.4"/>
</svg>
