<?xml version="1.0" encoding="utf-8"?>
<!-- Generator: Adobe Illustrator 21.0.0, SVG Export Plug-In . SVG Version: 6.00 Build 0)  -->
<!DOCTYPE svg PUBLIC "-//W3C//DTD SVG 1.0//EN" "http://www.w3.org/TR/2001/REC-SVG-20010904/DTD/svg10.dtd">
<svg version="1.0" id="Layer_1" xmlns="http://www.w3.org/2000/svg" xmlns:xlink="http://www.w3.org/1999/xlink" x="0px" y="0px"
	 width="1271.9px" height="1189.4px" viewBox="0 0 1271.9 1189.4" enable-background="new 0 0 1271.9 1189.4" xml:space="preserve">
<circle fill="none" stroke="#000000" stroke-width="5" stroke-miterlimit="10" cx="658" cy="317.9" r="52.7"/>
<polyline fill="none" stroke="#000000" stroke-width="5" stroke-miterlimit="10" points="629.7,362.3 629.7,573.2 704,573.2 
	686.8,362.3 "/>
<line fill="none" stroke="#000000" stroke-width="5" stroke-miterlimit="10" x1="650.5" y1="573.2" x2="650.5" y2="1017.8"/>
<line fill="none" stroke="#000000" stroke-width="5" stroke-miterlimit="10" x1="682.4" y1="573.2" x2="692" y2="1017.8"/>
<polygon fill="none" stroke="#000000" stroke-width="5" stroke-miterlimit="10" points="634.5,1017.8 704,1017.8 711.2,1102.9 
	892.9,1102.9 884.9,1170.8 466.7,1170.8 474.7,1094.5 629.7,1100.5 "/>
<path fill="none" stroke="#000000" stroke-width="5" stroke-miterlimit="10" d="M306.4,212.9c0,0-31.8-55.2-53-35.7
	s20.9,84.8,20.9,84.8l767,2.5c0,0,43-65,21.4-84.6s-53.2,35.4-53.2,35.4L306.4,212.9z"/>
<path fill="none" stroke="#000000" stroke-width="5" stroke-miterlimit="10" d="M273.7,402.6"/>
<path fill="none" stroke="#000000" stroke-width="5" stroke-miterlimit="10" d="M207.2,312.3"/>
<path fill="none" stroke="#000000" stroke-width="5" stroke-miterlimit="10" d="M120.3,695.8h314.4c0,0-25.2,139.8-167.8,139.8
	S120.3,695.8,120.3,695.8z"/>
<polyline fill="none" stroke="#000000" stroke-width="5" stroke-miterlimit="10" points="434.7,695.8 294.9,264.4 277.7,264.4 
	120.3,695.8 "/>
<path fill="none" stroke="#000000" stroke-width="5" stroke-miterlimit="10" d="M865.2,696.6h314.4c0,0-25.2,139.8-167.8,139.8
	S865.2,696.6,865.2,696.6z"/>
<polyline fill="none" stroke="#000000" stroke-width="5" stroke-miterlimit="10" points="1179.6,696.6 1039.8,265.2 1022.2,265.2 
	865.2,696.6 "/>
<g id="Layer_2">
	<path fill="#27AAE1" d="M283.5,375.5c0,0-20.2,32.1,0.9,57.5c0,0-17.5-1.3-18.1-27.1C265.9,380.1,283.5,375.5,283.5,375.5z"/>
	<path fill="#27AAE1" d="M266.2,695.1c1.2,0.3,2.4,0.6,3.5,1.1l0.2-0.6l5.4-160.1h23.9l-26-4.8l-4.7-91.1h-8.9l4.9,95.9L266.2,695.1
		z"/>
	<path fill="#27AAE1" d="M291.9,696.1c1.3-0.6,2.6-1.2,3.9-1.6l-4.2-158.9h-8.1l8.1,160.1L291.9,696.1z"/>
	<polygon fill="#27AAE1" points="260.3,450.5 248.1,486.9 249,543.6 252.7,543.6 255,489.5 261.3,471.3 	"/>
</g>
<g id="Layer_1_1_">
	<ellipse fill="none" stroke="#000000" stroke-width="5" stroke-miterlimit="10" cx="284.4" cy="404.3" rx="18.1" ry="28.7"/>
	<path fill="none" stroke="#000000" stroke-width="3" stroke-miterlimit="10" d="M296.4,378c0,0-14.3,2.7-22,0"/>
	<path fill="none" stroke="#000000" stroke-width="3" stroke-miterlimit="10" d="M298.5,381.7c-1.3,0.7-15.1,4-27.1,0.6"/>
	<path fill="none" stroke="#000000" stroke-width="3" stroke-miterlimit="10" d="M300,386c0,0-14.9,6.3-29.9,0.8"/>
	<polyline fill="none" stroke="#000000" stroke-width="5" stroke-miterlimit="10" points="290.3,431.5 290.3,439.7 279.3,439.7 
		279.3,431.7 	"/>
	<polygon fill="none" stroke="#000000" stroke-width="5" stroke-miterlimit="10" points="308.1,439.7 259.7,439.7 264.6,535.6 
		302.5,535.6 	"/>
	<polyline fill="none" stroke="#000000" stroke-width="5" stroke-miterlimit="10" points="259.7,439.7 241.3,484.4 245.4,543.7 
		252.8,543.7 255,489.5 261.3,471.3 	"/>
	<polyline fill="none" stroke="#000000" stroke-width="5" stroke-miterlimit="10" points="252.7,543.6 257.9,552.7 253.8,555.1 
		249.7,550.7 248.5,570 240.1,562 245.3,543.6 	"/>
	<line fill="none" stroke="#000000" stroke-width="5" stroke-miterlimit="10" x1="255" y1="489.5" x2="241.3" y2="484.4"/>
	<polyline fill="none" stroke="#000000" stroke-width="5" stroke-miterlimit="10" points="307.9,439.7 326.4,484.4 322.3,543.7 
		314.8,543.7 312.6,489.5 306.4,471.3 	"/>
	<polyline fill="none" stroke="#000000" stroke-width="5" stroke-miterlimit="10" points="315,543.6 309.8,552.7 313.7,555.1 
		318,550.7 319,570 327.5,562 322.3,543.6 	"/>
	<line fill="none" stroke="#000000" stroke-width="5" stroke-miterlimit="10" x1="312.6" y1="489.5" x2="326.4" y2="484.4"/>
	<polyline fill="none" stroke="#000000" stroke-width="5" stroke-miterlimit="10" points="302.5,535.6 299.3,695.7 291.6,695.7 
		283.5,535.6 274.7,695.7 265.8,695.7 264.6,535.6 	"/>
</g>
</svg>
