<?xml version="1.0" encoding="utf-8"?>
<!-- Generator: Adobe Illustrator 21.0.0, SVG Export Plug-In . SVG Version: 6.00 Build 0)  -->
<!DOCTYPE svg PUBLIC "-//W3C//DTD SVG 1.0//EN" "http://www.w3.org/TR/2001/REC-SVG-20010904/DTD/svg10.dtd">
<svg version="1.0" id="Layer_1" xmlns="http://www.w3.org/2000/svg" xmlns:xlink="http://www.w3.org/1999/xlink" x="0px" y="0px"
	 width="1271.9px" height="1189.4px" viewBox="0 0 1271.9 1189.4" enable-background="new 0 0 1271.9 1189.4" xml:space="preserve">
<circle fill="none" stroke="#000000" stroke-width="5" stroke-miterlimit="10" cx="658" cy="317.9" r="52.7"/>
<polyline fill="none" stroke="#000000" stroke-width="5" stroke-miterlimit="10" points="629.7,362.3 629.7,573.2 704,573.2 
	686.8,362.3 "/>
<line fill="none" stroke="#000000" stroke-width="5" stroke-miterlimit="10" x1="650.5" y1="573.2" x2="650.5" y2="1017.8"/>
<line fill="none" stroke="#000000" stroke-width="5" stroke-miterlimit="10" x1="682.4" y1="573.2" x2="692" y2="1017.8"/>
<polygon fill="none" stroke="#000000" stroke-width="5" stroke-miterlimit="10" points="634.5,1017.8 704,1017.8 711.2,1102.9 
	892.9,1102.9 884.9,1170.8 466.7,1170.8 474.7,1094.5 629.7,1100.5 "/>
<path fill="none" stroke="#000000" stroke-width="5" stroke-miterlimit="10" d="M306.4,212.9c0,0-31.8-55.2-53-35.7
	s20.9,84.8,20.9,84.8l767,2.5c0,0,43-65,21.4-84.6s-53.2,35.4-53.2,35.4L306.4,212.9z"/>
<path fill="none" stroke="#000000" stroke-width="5" stroke-miterlimit="10" d="M207.2,312.3"/>
<path fill="none" stroke="#000000" stroke-width="5" stroke-miterlimit="10" d="M120.3,695.8h314.4c0,0-25.2,139.8-167.8,139.8
	S120.3,695.8,120.3,695.8z"/>
<polyline fill="none" stroke="#000000" stroke-width="5" stroke-miterlimit="10" points="434.7,695.8 294.9,264.4 277.7,264.4 
	120.3,695.8 "/>
<path fill="none" stroke="#000000" stroke-width="5" stroke-miterlimit="10" d="M865.2,696.6h314.4c0,0-25.2,139.8-167.8,139.8
	S865.2,696.6,865.2,696.6z"/>
<polyline fill="none" stroke="#000000" stroke-width="5" stroke-miterlimit="10" points="1179.6,696.6 1039.8,265.2 1022.2,265.2 
	865.2,696.6 "/>
<path fill="none" stroke="#000000" stroke-width="5" stroke-miterlimit="10" d="M260.7,455.3l0.5,37.6c0,2.9,2.5,5.1,5.3,4.9
	l24.8-1.7c2.8-0.2,4.9-2.7,4.6-5.5l-3.8-36.2c-0.3-2.6-2.5-4.5-5-4.5l-21.6,0.3C262.8,450.3,260.6,452.5,260.7,455.3z"/>
<path fill="none" stroke="#000000" stroke-width="5" stroke-miterlimit="10" d="M260.9,471.2c0,0-7-3.2-7,3c0,6.2,7.1,6.4,7.1,6.4"
	/>
<path fill="none" stroke="#000000" stroke-width="5" stroke-miterlimit="10" d="M294,468.2c0,0,7-3.4,7,2.8c0,6.2-6.9,6.6-6.9,6.6"
	/>
<polyline fill="none" stroke="#000000" stroke-width="5" stroke-miterlimit="10" points="271.8,496.6 271.8,506.2 290.7,505.1 
	287.6,495.8 "/>
<path fill="none" stroke="#000000" stroke-width="5" stroke-miterlimit="10" d="M257.5,576.6c-7-26.8-17.2-66.5-17.2-66.5l79.8-7.5
	c0,0-5.1,42.7-8.6,71.8"/>
<path fill="none" stroke="#000000" stroke-width="5" stroke-miterlimit="10" d="M310,586.9c-1,8.3-1.6,13.7-1.6,13.7h-44.6
	c0,0-1.1-4.3-2.9-11.1"/>
<polyline fill="none" stroke="#000000" stroke-width="5" stroke-miterlimit="10" points="263.7,600.6 261.9,696.4 270.4,696.4 
	286.1,613 303.4,696.4 313.7,696.4 308.3,600.6 "/>
<polyline fill="none" stroke="#000000" stroke-width="5" stroke-miterlimit="10" points="240.2,510.1 205,548.4 255.9,589.4 
	267,589.4 267,577.5 253.1,576.6 "/>
<path fill="none" stroke="#000000" stroke-width="5" stroke-miterlimit="10" d="M247.4,537.7l-10.3,13.9l15.9,20.7
	c0,0,2.8,0.4,3.3,0"/>
<polyline fill="none" stroke="#000000" stroke-width="5" stroke-miterlimit="10" points="320,503.3 357.4,533.3 317.6,585.1 
	306.8,587.7 304,576.1 317.3,572 "/>
<path fill="none" stroke="#000000" stroke-width="5" stroke-miterlimit="10" d="M316.5,532.9l12.4,9.7l-12.6,25.3
	c0,0-3.6,1.1-4.2,0.8"/>
</svg>
