<?xml version="1.0" encoding="utf-8"?>
<!-- Generator: Adobe Illustrator 21.0.0, SVG Export Plug-In . SVG Version: 6.00 Build 0)  -->
<!DOCTYPE svg PUBLIC "-//W3C//DTD SVG 1.0//EN" "http://www.w3.org/TR/2001/REC-SVG-20010904/DTD/svg10.dtd">
<svg version="1.0" id="Layer_1" xmlns="http://www.w3.org/2000/svg" xmlns:xlink="http://www.w3.org/1999/xlink" x="0px" y="0px"
	 width="288px" height="288px" viewBox="0 0 288 288" enable-background="new 0 0 288 288" xml:space="preserve">
<circle fill="none" stroke="#000000" stroke-width="1.5" stroke-miterlimit="10" cx="143.4" cy="55.2" r="13.2"/>
<polyline fill="none" stroke="#000000" stroke-width="1.5" stroke-miterlimit="10" points="136.3,66.3 136.3,119.1 154.9,119.1 
	150.6,66.3 "/>
<line fill="none" stroke="#000000" stroke-width="1.5" stroke-miterlimit="10" x1="141.5" y1="119.1" x2="141.5" y2="230.4"/>
<line fill="none" stroke="#000000" stroke-width="1.5" stroke-miterlimit="10" x1="149.5" y1="119.1" x2="151.9" y2="230.4"/>
<polygon fill="none" stroke="#000000" stroke-width="1.5" stroke-miterlimit="10" points="137.5,230.4 154.9,230.4 156.7,251.7 
	202.2,251.7 200.2,268.7 95.5,268.7 97.5,249.6 136.3,251.1 "/>
<path fill="none" stroke="#000000" stroke-width="1.5" stroke-miterlimit="10" d="M55.4,29.2c0,0-8-13.8-13.3-8.9s5.3,21.2,5.3,21.2
	h192c0,0,10.7-16.3,5.3-21.2s-13.3,8.9-13.3,8.9S55.4,29.2,55.4,29.2z"/>
<path fill="none" stroke="#000000" stroke-width="1.5" stroke-miterlimit="10" d="M47.2,76.4"/>
<path fill="none" stroke="#000000" stroke-width="1.5" stroke-miterlimit="10" d="M30.6,53.8"/>
<path fill="none" stroke="#000000" stroke-width="1.5" stroke-miterlimit="10" d="M7.9,149.5h78.7c0,0-6.3,35-42,35
	S7.9,149.5,7.9,149.5z"/>
<polyline fill="none" stroke="#000000" stroke-width="1.5" stroke-miterlimit="10" points="86.6,149.5 51.6,41.5 47.3,41.5 
	7.9,149.5 "/>
<path fill="none" stroke="#000000" stroke-width="1.5" stroke-miterlimit="10" d="M195.3,149.5H274c0,0-6.3,35-42,35
	S195.3,149.5,195.3,149.5z"/>
<polyline fill="none" stroke="#000000" stroke-width="1.5" stroke-miterlimit="10" points="274,149.5 239,41.5 234.6,41.5 
	195.3,149.5 "/>
</svg>
