<?xml version="1.0" encoding="utf-8"?>
<!-- Generator: Adobe Illustrator 21.0.0, SVG Export Plug-In . SVG Version: 6.00 Build 0)  -->
<!DOCTYPE svg PUBLIC "-//W3C//DTD SVG 1.0//EN" "http://www.w3.org/TR/2001/REC-SVG-20010904/DTD/svg10.dtd">
<svg version="1.0" id="Layer_1" xmlns="http://www.w3.org/2000/svg" xmlns:xlink="http://www.w3.org/1999/xlink" x="0px" y="0px"
	 width="1271.9px" height="1189.4px" viewBox="0 0 1271.9 1189.4" enable-background="new 0 0 1271.9 1189.4" xml:space="preserve">
<circle fill="none" stroke="#000000" stroke-width="5" stroke-miterlimit="10" cx="658" cy="317.9" r="52.7"/>
<polyline fill="none" stroke="#000000" stroke-width="5" stroke-miterlimit="10" points="629.7,362.3 629.7,573.2 704,573.2 
	686.8,362.3 "/>
<line fill="none" stroke="#000000" stroke-width="5" stroke-miterlimit="10" x1="650.5" y1="573.2" x2="650.5" y2="1017.8"/>
<line fill="none" stroke="#000000" stroke-width="5" stroke-miterlimit="10" x1="682.4" y1="573.2" x2="692" y2="1017.8"/>
<polygon fill="none" stroke="#000000" stroke-width="5" stroke-miterlimit="10" points="634.5,1017.8 704,1017.8 711.2,1102.9 
	892.9,1102.9 884.9,1170.8 466.7,1170.8 474.7,1094.5 629.7,1100.5 "/>
<path fill="none" stroke="#000000" stroke-width="5" stroke-miterlimit="10" d="M306,359.7c0,0-51.9-37-63.1-10.4
	s54.3,68.4,54.3,68.4l698.6-316.7c0,0,12-77-15.7-85.9s-33.7,54.3-33.7,54.3L306,359.7z"/>
<path fill="none" stroke="#000000" stroke-width="5" stroke-miterlimit="10" d="M273.7,402.6"/>
<path fill="none" stroke="#000000" stroke-width="5" stroke-miterlimit="10" d="M207.2,312.3"/>
<path fill="none" stroke="#000000" stroke-width="5" stroke-miterlimit="10" d="M133,849.1h314.4c0,0-25.2,139.8-167.8,139.8
	S133,849.1,133,849.1z"/>
<polyline fill="none" stroke="#000000" stroke-width="5" stroke-miterlimit="10" points="447.4,849.1 307.6,417.6 290.4,417.6 
	133,849.1 "/>
<path fill="none" stroke="#000000" stroke-width="5" stroke-miterlimit="10" d="M824.5,537.5h314.4c0,0-25.2,139.8-167.8,139.8
	S824.5,537.5,824.5,537.5z"/>
<polyline fill="none" stroke="#000000" stroke-width="5" stroke-miterlimit="10" points="1138.9,537.5 999.1,106.1 981.5,106.1 
	824.5,537.5 "/>
<path fill="none" stroke="#000000" stroke-width="5" stroke-miterlimit="10" d="M257.4,613.1l0.5,36.6c0,2.8,2.4,5,5.2,4.8l24.2-1.6
	c2.7-0.2,4.8-2.6,4.5-5.4l-3.7-35.3c-0.3-2.5-2.4-4.4-4.9-4.4l-21.1,0.3C259.6,608.2,257.4,610.4,257.4,613.1z"/>
<path fill="none" stroke="#000000" stroke-width="5" stroke-miterlimit="10" d="M257.7,628.7c0,0-6.9-3.1-6.8,2.9
	c0.1,6,6.9,6.3,6.9,6.3"/>
<path fill="none" stroke="#000000" stroke-width="5" stroke-miterlimit="10" d="M289.9,625.7c0,0,6.8-3.3,6.9,2.7
	c0.1,6-6.7,6.5-6.7,6.5"/>
<polyline fill="none" stroke="#000000" stroke-width="5" stroke-miterlimit="10" points="268.3,653.4 268.3,662.8 286.8,661.6 
	283.7,652.6 "/>
<path fill="none" stroke="#000000" stroke-width="5" stroke-miterlimit="10" d="M254.4,731.3c-6.8-26.1-16.8-64.8-16.8-64.8
	l77.8-7.3c0,0-5,41.6-8.4,69.9l-1.5,12.2c-1,8.1-1.6,13.3-1.6,13.3h-43.5c0,0-1.1-4.2-2.8-10.8"/>
<polyline fill="none" stroke="#000000" stroke-width="5" stroke-miterlimit="10" points="260.4,754.7 258.6,848.2 267,848.2 
	282.2,766.9 299.1,848.2 309.1,848.2 303.9,754.7 "/>
<polyline fill="none" stroke="#000000" stroke-width="5" stroke-miterlimit="10" points="237.5,666.5 203.2,703.9 252.8,743.9 
	263.6,743.9 263.6,732.2 250,731.4 "/>
<path fill="none" stroke="#000000" stroke-width="5" stroke-miterlimit="10" d="M244.5,693.5l-10,13.5l15.5,20.2c0,0,2.8,0.4,3.3,0"
	/>
<path fill="none" stroke="#000000" stroke-width="5" stroke-miterlimit="10" d="M315.4,659.3c0,0,19.8-13.6,34.8-4.9v-36.7
	l-13.3,0.6l1.1-11.5h16.9l13.7,61.8l-57,21.4"/>
<path fill="none" stroke="#000000" stroke-width="5" stroke-miterlimit="10" d="M340.2,618.1c-0.3,0,0.7-5.8,0.7-5.8"/>
<line fill="none" stroke="#000000" stroke-width="5" stroke-miterlimit="10" x1="343.6" y1="618" x2="344.2" y2="612.4"/>
<line fill="none" stroke="#000000" stroke-width="5" stroke-miterlimit="10" x1="347.4" y1="617.8" x2="347.4" y2="612.4"/>
</svg>
