<?xml version="1.0" encoding="utf-8"?>
<!-- Generator: Adobe Illustrator 21.0.0, SVG Export Plug-In . SVG Version: 6.00 Build 0)  -->
<!DOCTYPE svg PUBLIC "-//W3C//DTD SVG 1.0//EN" "http://www.w3.org/TR/2001/REC-SVG-20010904/DTD/svg10.dtd">
<svg version="1.0" id="Layer_1" xmlns="http://www.w3.org/2000/svg" xmlns:xlink="http://www.w3.org/1999/xlink" x="0px" y="0px"
	 width="1271.9px" height="1189.4px" viewBox="0 0 1271.9 1189.4" enable-background="new 0 0 1271.9 1189.4" xml:space="preserve">
<circle fill="none" stroke="#000000" stroke-width="5" stroke-miterlimit="10" cx="658" cy="317.9" r="52.7"/>
<polyline fill="none" stroke="#000000" stroke-width="5" stroke-miterlimit="10" points="629.7,362.3 629.7,573.2 704,573.2 
	686.8,362.3 "/>
<line fill="none" stroke="#000000" stroke-width="5" stroke-miterlimit="10" x1="650.5" y1="573.2" x2="650.5" y2="1017.8"/>
<line fill="none" stroke="#000000" stroke-width="5" stroke-miterlimit="10" x1="682.4" y1="573.2" x2="692" y2="1017.8"/>
<polygon fill="none" stroke="#000000" stroke-width="5" stroke-miterlimit="10" points="634.5,1017.8 704,1017.8 711.2,1102.9 
	892.9,1102.9 884.9,1170.8 466.7,1170.8 474.7,1094.5 629.7,1100.5 "/>
<path fill="none" stroke="#000000" stroke-width="5" stroke-miterlimit="10" d="M306.4,212.9c0,0-31.8-55.2-53-35.7
	s20.9,84.8,20.9,84.8l767,2.5c0,0,43-65,21.4-84.6s-53.2,35.4-53.2,35.4L306.4,212.9z"/>
<path fill="none" stroke="#000000" stroke-width="5" stroke-miterlimit="10" d="M273.7,402.6"/>
<path fill="none" stroke="#000000" stroke-width="5" stroke-miterlimit="10" d="M207.2,312.3"/>
<path fill="none" stroke="#000000" stroke-width="5" stroke-miterlimit="10" d="M120.3,695.8h314.4c0,0-25.2,139.8-167.8,139.8
	S120.3,695.8,120.3,695.8z"/>
<polyline fill="none" stroke="#000000" stroke-width="5" stroke-miterlimit="10" points="434.7,695.8 294.9,264.4 277.7,264.4 
	120.3,695.8 "/>
<path fill="none" stroke="#000000" stroke-width="5" stroke-miterlimit="10" d="M865.2,696.6h314.4c0,0-25.2,139.8-167.8,139.8
	S865.2,696.6,865.2,696.6z"/>
<polyline fill="none" stroke="#000000" stroke-width="5" stroke-miterlimit="10" points="1179.6,696.6 1039.8,265.2 1022.2,265.2 
	865.2,696.6 "/>
<path fill="none" stroke="#000000" stroke-width="5" stroke-miterlimit="10" d="M244.7,459.9l0.5,36.6c0,2.8,2.4,5,5.2,4.8l24.2-1.6
	c2.7-0.2,4.8-2.6,4.5-5.4l-3.7-35.3c-0.3-2.5-2.4-4.4-4.9-4.4l-21.1,0.3C246.9,455,244.7,457.2,244.7,459.9z"/>
<path fill="none" stroke="#000000" stroke-width="5" stroke-miterlimit="10" d="M245,475.5c0,0-6.9-3.1-6.8,2.9
	c0.1,6,6.9,6.3,6.9,6.3"/>
<path fill="none" stroke="#000000" stroke-width="5" stroke-miterlimit="10" d="M277.2,472.5c0,0,6.8-3.3,6.9,2.7
	c0.1,6-6.7,6.5-6.7,6.5"/>
<polyline fill="none" stroke="#000000" stroke-width="5" stroke-miterlimit="10" points="255.6,500.2 255.6,509.6 274.1,508.4 
	271,499.4 "/>
<path fill="none" stroke="#000000" stroke-width="5" stroke-miterlimit="10" d="M241.7,578.1c-6.8-26.1-16.8-64.8-16.8-64.8
	l77.8-7.3c0,0-5,41.6-8.4,69.9l-1.5,12.2c-1,8.1-1.6,13.3-1.6,13.3h-43.5c0,0-1.1-4.2-2.8-10.8"/>
<polyline fill="none" stroke="#000000" stroke-width="5" stroke-miterlimit="10" points="247.7,601.5 245.9,695 254.3,695 
	269.5,613.7 286.4,695 296.4,695 291.2,601.5 "/>
<polyline fill="none" stroke="#000000" stroke-width="5" stroke-miterlimit="10" points="224.8,513.3 190.5,550.7 240.1,590.7 
	250.9,590.7 250.9,579 237.3,578.2 "/>
<path fill="none" stroke="#000000" stroke-width="5" stroke-miterlimit="10" d="M231.8,540.3l-10,13.5l15.5,20.2c0,0,2.8,0.4,3.3,0"
	/>
<path fill="none" stroke="#000000" stroke-width="5" stroke-miterlimit="10" d="M302.7,506.1c0,0,19.8-13.6,34.8-4.9v-36.7
	l-13.3,0.6l1.1-11.5h16.9l13.7,61.8l-57,21.4"/>
<path fill="none" stroke="#000000" stroke-width="5" stroke-miterlimit="10" d="M327.5,464.9c-0.3,0,0.7-5.8,0.7-5.8"/>
<line fill="none" stroke="#000000" stroke-width="5" stroke-miterlimit="10" x1="330.9" y1="464.8" x2="331.5" y2="459.2"/>
<line fill="none" stroke="#000000" stroke-width="5" stroke-miterlimit="10" x1="334.7" y1="464.6" x2="334.7" y2="459.2"/>
</svg>
