<?xml version="1.0" encoding="utf-8"?>
<!-- Generator: Adobe Illustrator 19.2.1, SVG Export Plug-In . SVG Version: 6.00 Build 0)  -->
<svg version="1.0" xmlns="http://www.w3.org/2000/svg" xmlns:xlink="http://www.w3.org/1999/xlink" x="0px" y="0px" width="288px"
	 height="288px" viewBox="0 0 288 288" enable-background="new 0 0 288 288" xml:space="preserve">
<g id="Layer_2">
	<path fill="#27AAE1" d="M169.8,124.3c0,0,16.2,21.9,8,33.1c0,0,9.2-7.4,6.1-19c-3.1-11.5-8.7-15.3-8.7-15.3L169.8,124.3z"/>
	<path fill="#27AAE1" d="M185.4,158.2c0,0,14.8,25.9,17.7,40.4l-15.5,5.8l25.8,0.3c0,0-11.8-33.4-15.6-38.2
		c-3.7-4.8-7.9-10.3-7.9-10.3L185.4,158.2z"/>
	<path fill="#27AAE1" d="M197.8,183c0,0-7.2,17.1-21.3,20.6c0,0,1.7,1.5,2.5,1.3c0.8-0.1,14.3-7.3,14.3-7.3l9.9-11.5L197.8,183z"/>
	<path fill="#27AAE1" d="M214.8,213.7c-1,0-34.9-0.8-34.9-0.6c0,0.3,4.7,27.9,4.7,27.9l-21.7,6c0,0,8.1,6.7,8.7,6.5
		s17.2-8.3,17.2-8.3l-1.9-4.7l-2.3-22.6c0,0,16.7,5.3,30.7,3.9L214.8,213.7z"/>
	<path fill="#27AAE1" d="M200.6,221.7c0,0-0.2,12.1,2.7,19.5v1.1l29-4.8c0,0-2.1,16.2-1.5,16c0.7-0.2,10.5-1.7,10.5-1.7l-3.7-20.4
		l-28.3-0.2l0.3-8.6L200.6,221.7z"/>
	<path fill="#27AAE1" d="M103.6,109l0.1-0.6l0.1-5.9l-2.3-0.8c0,0-0.6,2.3-2.1,6C101.1,107.9,102.4,108.3,103.6,109z"/>
	<path fill="#27AAE1" d="M90.2,124.1c-6.2,8.5-15.6,17.6-29.1,23.6l-3.6,15.8c0,0,11.5-2.1,19.2-8.9c7.3-6.5,21.1-24.1,22.4-25.7
		C95.6,127.6,93.5,125.9,90.2,124.1z"/>
</g>
<g id="Layer_1">
	<path fill="none" stroke="#000000" stroke-width="2" stroke-miterlimit="10" d="M95.1,92.8l-3.9-1C84.8,90,81,83.4,82.8,77
		l4.1-15.3c1.7-6.4,8.3-10.2,14.7-8.4l3.9,1c6.4,1.7,10.2,8.3,8.4,14.7l-4.1,15.3C108.1,90.7,101.5,94.5,95.1,92.8z"/>
	<path fill="none" stroke="#000000" stroke-width="2" stroke-miterlimit="10" d="M84.3,71.4c0,0,5.8,2.9,10,2.6
		c4.2-0.3,9.5,1.5,9.8,3.2s6.7,3.4,6.7,3.4"/>
	<path fill="none" stroke="#000000" stroke-width="2" stroke-miterlimit="10" d="M85.7,66.2c0,0-4.1-1.4-5.3,2.3
		c-1.2,3.7,2.2,6.4,2.2,6.4"/>
	<path fill="none" stroke="#000000" stroke-width="2" stroke-miterlimit="10" d="M95.3,100.1c6.2,1.1,12.9,1.2,19.6-0.4
		c0,0-1.9-13.2,1.9-24.9s5.8-26.2-9.5-29.6c0,0-22.5-10.8-36.1,20.7c0,0-8,17.9-9.5,18.8c0,0,15.2,8.7,24.1,13.1"/>
	<path fill="none" stroke="#000000" stroke-width="2" stroke-miterlimit="10" d="M87.1,90c-0.6,3.2-1.4,8-1.4,8l9.3,2.2
		c0,0,1.1-4.3,1.9-7.3"/>
	<path fill="none" stroke="#000000" stroke-width="2" stroke-miterlimit="10" d="M103.7,130.6c0.1,28.9,1.3,72.2,7.1,90.5
		c0,0-42.9,5.3-64.3-10.7L72.6,98c0,0,20.7,0.4,31.3,4.4c0,0-0.1,2.2-0.1,5.9"/>
	<path fill="none" stroke="#000000" stroke-width="2" stroke-miterlimit="10" d="M80.2,103.3c0,0,37.4,9.5,65.7,10l-2.2,32.3
		c0,0-43.2-9.8-65-32.3"/>
	<polyline fill="none" stroke="#000000" stroke-width="2" stroke-miterlimit="10" points="145.9,115.9 155.6,112.4 155.6,115.9 
		152.6,117.9 167.2,119.2 161.1,129.1 145,126.1 	"/>
	<path fill="none" stroke="#000000" stroke-width="2" stroke-miterlimit="10" d="M103.9,103.3c0,0,17.5,5.6,44.9,7.4
		c0,0-0.1,1.7-0.2,4.2"/>
	<path fill="none" stroke="#000000" stroke-width="2" stroke-miterlimit="10" d="M148,127.1c-0.3,7.3-0.6,14.3-0.6,14.3l-3.4-0.8"/>
	<path fill="none" stroke="#000000" stroke-width="2" stroke-miterlimit="10" d="M99.6,101.1c0,0-0.8,2.1-2.5,5.5"/>
	<path fill="none" stroke="#000000" stroke-width="2" stroke-miterlimit="10" d="M87.5,122c-6.1,8.1-14.6,16.9-25.9,23.3"/>
	<path fill="none" stroke="#000000" stroke-width="2" stroke-miterlimit="10" d="M99.1,128.7c-7.2,11.4-22.2,31.5-41.7,34.7"/>
	<polyline fill="none" stroke="#000000" stroke-width="2" stroke-miterlimit="10" points="61.6,217.4 63.2,235 67.9,235 71.6,220.1 
			"/>
	<polyline fill="none" stroke="#000000" stroke-width="2" stroke-miterlimit="10" points="90.5,221.9 93.4,235 98.4,235 99.6,221.8 
			"/>
	<path fill="none" stroke="#000000" stroke-width="2" stroke-miterlimit="10" d="M63.2,235c-0.2,2,19.3,14.7,19.3,14.7l7.5-10.3
		L67.9,235"/>
	<polyline fill="none" stroke="#000000" stroke-width="2" stroke-miterlimit="10" points="93.4,235 109.5,247 120,238.6 97.4,235 	
		"/>
	<path fill="none" stroke="#000000" stroke-width="2" stroke-miterlimit="10" d="M154.1,112.8c-0.9-3.1-1.7-5.8-1.7-5.8l8,4.5
		l2.5-14.8l10.4,12.3l3.6-10.8l5,20.7c0,0-7.4,6.7-18.1,5.6"/>
	<path fill="none" stroke="#000000" stroke-width="2" stroke-miterlimit="10" d="M175.2,123.1c3.4,2.8,6.4,7.7,7.8,13.6
		c2.5,10.3-0.5,20-6.9,21.5s-13.5-5.6-16-15.9c-1.1-4.6-1.1-9.1-0.3-12.7"/>
	<path fill="none" stroke="#000000" stroke-width="2" stroke-miterlimit="10" d="M156.8,128.4c0,0,11.6,3.3,21.9-4.1"/>
	<path fill="none" stroke="#000000" stroke-width="2" stroke-miterlimit="10" d="M157.5,133.1c0,0,11.4,1.5,24-5.2"/>
	<polyline fill="none" stroke="#000000" stroke-width="2" stroke-miterlimit="10" points="181.5,154 183.9,158.8 176.5,162.3 
		174.2,158.4 	"/>
	<path fill="none" stroke="#000000" stroke-width="2" stroke-miterlimit="10" d="M182.5,196.2c-4-13-15.4-29.5-15.4-29.5
		c-0.3,0,22.7-10.7,22.7-10.7s13.9,15.2,24,50.3c2.1,7.4,1.3,15.4,1.3,15.4c-14.3,1.4-26.7-2.6-26.7-2.6l-3.3-1.1l-0.9-0.2
		c0.9,7.2,2.9,23.1,2.9,23.1h-3.3c0,0-10.3-17.9-16-27.8"/>
	<path fill="none" stroke="#000000" stroke-width="2" stroke-miterlimit="10" d="M183.9,168.2l8.6,14.8c0,0-8.2,13.8-18.5,18.2
		l2.5,2.3c0,0,18.2-0.5,26.5-17.5c0,0-4.1-10.2-9.2-20.3"/>
	<polyline fill="none" stroke="#000000" stroke-width="2" stroke-miterlimit="10" points="174.6,201.2 165.5,202.3 166.4,213.1 
		173.5,213.1 177.8,204.3 	"/>
	<line fill="none" stroke="#000000" stroke-width="2" stroke-miterlimit="10" x1="192.6" y1="183.1" x2="203.1" y2="186.1"/>
	<path fill="none" stroke="#000000" stroke-width="2" stroke-miterlimit="10" d="M213.4,204.6c0,0-18.2-1.1-35.4,0.3"/>
	<path fill="none" stroke="#000000" stroke-width="2" stroke-miterlimit="10" d="M176.5,182.3c0,0,0.4,13.9-4.7,18.9"/>
	<path fill="none" stroke="#000000" stroke-width="2" stroke-miterlimit="10" d="M166,209.7c-1.1-1.9-1.7-3-1.7-3
		c0.4-0.1,0.9-0.2,1.3-0.3"/>
	<path fill="none" stroke="#000000" stroke-width="2" stroke-miterlimit="10" d="M196.3,220.6c0,0-0.1,15.1,5.2,21.8l30.6-4.8l1-6.1
		h-23.7c0,0-1-1.1,0-9.4"/>
	<polygon fill="none" stroke="#000000" stroke-width="2" stroke-miterlimit="10" points="183.9,241 164.2,244.4 171.6,251.1 
		188.8,244.4 187.2,241 	"/>
	<polygon fill="none" stroke="#000000" stroke-width="2" stroke-miterlimit="10" points="233.2,231.5 229.9,251.1 241.2,251.1 
		237.6,231.5 	"/>
</g>
<g id="Layer_3">
	<path opacity="0" fill="none" stroke="#000000" stroke-width="25" stroke-miterlimit="10" d="M79.3,89.9c0.4,1.3,1.9,1.8,3.2,2.1
		c32.3,6.5,65.7-3.5,98.4-0.5c-23.7,4.9-47.5,9-71.5,12.5c-17.5,2.5-35.4,4.8-51.1,13c50.7-0.9,101.4-2.7,152.1-5.2
		c-20.1,4.9-40.6,8.2-61.2,10.1c-13.7,1.3-27.4,1.9-40.9,4.3c-13.8,2.5-27.2,6.8-40.6,11c4.6,2.3,9.9,2.4,15,2.3
		c39.5-0.4,79-4,118.4-7.7c-54.5,3.8-108.6,12.8-161.4,26.8c57.9,2.1,115.3-11.3,173.2-11.4c-48.5,7.8-99.3,3.6-145.6,20.2
		c53.6,5.3,107.7,4.1,161.6,3c-37.6,3-75,8.8-111.7,17.5c7.2,2.7,15.2,2.8,22.9,2.8c24.2,0,48.5,0.1,72.7,0.1
		c-30.9,2.8-61.5,8.7-91.3,17.5c50.3,2.4,100.8-0.8,151.1-3.9c-42.4,10.3-88.8,4.6-128.4,22.9c39-0.9,78.1-1.7,117.1,0.7
		c-28.5,3.6-57,7.3-85.4,10.9c-2.8,0.4-6.3,1.5-6.4,4.2c29.1-1.8,58.1-4.9,86.9-9.2c-30.1,8.6-62.8,2.5-93.2,9.7
		c-1.9,0.4-4.2,2-3.3,3.7c16.3,1.7,32.6,3.3,48.9,4.5c15.4,1.2,31,2.2,46-1.1c-0.6-1.3-1.1-2.6-1.7-3.9"/>
</g>
</svg>
