<?xml version="1.0" encoding="utf-8"?>
<!-- Generator: Adobe Illustrator 19.2.1, SVG Export Plug-In . SVG Version: 6.00 Build 0)  -->
<svg version="1.0" id="Layer_1" xmlns="http://www.w3.org/2000/svg" xmlns:xlink="http://www.w3.org/1999/xlink" x="0px" y="0px"
	 width="288px" height="288px" viewBox="0 0 288 288" enable-background="new 0 0 288 288" xml:space="preserve">
<ellipse transform="matrix(0.9566 -0.2914 0.2914 0.9566 -7.9972 46.0776)" fill="none" stroke="#000000" stroke-width="2" stroke-miterlimit="10" cx="150.7" cy="49.9" rx="4.9" ry="2.2"/>
<path fill="none" stroke="#000000" stroke-width="2" stroke-miterlimit="10" d="M146.4,51c0,0-7.8,4.1-7.9,7.6s7.7,6.8,18.4,2.5
	s12.4-10.5,9.8-12.9s-8.6-1.9-12,0"/>
<path fill="none" stroke="#000000" stroke-width="2" stroke-miterlimit="10" d="M163.5,93.3c-3,2.4-6.5,3.6-10.1,3.2
	c-8.9-1.1-14.8-12-13.2-24.3c0.5-3.8,1.6-7.3,3.2-10.2"/>
<path fill="none" stroke="#000000" stroke-width="2" stroke-miterlimit="10" d="M166,55.2c4.8,4.3,7.4,12.3,6.3,21
	c-0.7,5.8-3,10.9-6.1,14.5"/>
<path fill="none" stroke="#000000" stroke-width="2" stroke-miterlimit="10" d="M159.4,86.7l6.4,9.9c0,0-1,4.5,2.8,3
	c5.6-2.3,0.3-4.3,0.3-4.3l-6.6-9.2L159.4,86.7z"/>
<path fill="none" stroke="#000000" stroke-width="2" stroke-miterlimit="10" d="M140.4,81.2c0,0-14.6,0.9-18.5,24.5"/>
<path fill="none" stroke="#000000" stroke-width="2" stroke-miterlimit="10" d="M134.4,91.4c0,0-13.4,12.9-17.1,22
	c0,0,12,13.8,30.2,17.1l1.1-5.4c0,0-14.9-10.4-18.8-14.2l7.9-7.9"/>
<polyline fill="none" stroke="#000000" stroke-width="2" stroke-miterlimit="10" points="148.7,125.2 155.5,124.4 156.2,133.4 
	151.8,136 152.1,132.9 147.5,130.5 "/>
<path fill="none" stroke="#000000" stroke-width="2" stroke-miterlimit="10" d="M121,116.8c-0.1,8.6,0.9,19.2,3.7,32.5
	c0,0,11.7,5.7,26.3,4.7c0,0,0.1-9.5,1-21.2"/>
<path fill="none" stroke="#000000" stroke-width="2" stroke-miterlimit="10" d="M152.8,125c1.2-11.2,3.1-22.8,6.4-29.2"/>
<path fill="none" stroke="#000000" stroke-width="2" stroke-miterlimit="10" d="M157.3,100.3l5.7,18.3c0,0-4.9,6.2-7.3,9.3"/>
<path fill="none" stroke="#000000" stroke-width="2" stroke-miterlimit="10" d="M153,124.6c-0.1-0.1-0.1-0.2-0.1-0.2l5.1-9.6"/>
<polyline fill="none" stroke="#000000" stroke-width="2" stroke-miterlimit="10" points="148.7,131.8 147.5,134.2 150.2,136 
	152.1,135 "/>
<path fill="none" stroke="#000000" stroke-width="2" stroke-miterlimit="10" d="M141,153.7c0,0,4.3,46.6-12,76.4h-6.8
	c0,0,12.8-42.8,2.4-80.8"/>
<path fill="none" stroke="#000000" stroke-width="2" stroke-miterlimit="10" d="M151,154c0,0,11.5,39.3-3.5,75.1h-5
	c0,0,7-40.5-1-59.8"/>
<polyline fill="none" stroke="#000000" stroke-width="2" stroke-miterlimit="10" points="122.3,230 133.7,241.8 144.5,236.4 
	128.3,230 "/>
<polyline fill="none" stroke="#000000" stroke-width="2" stroke-miterlimit="10" points="142.5,229 157.8,236 165.7,230 146.7,229 
	"/>
</svg>
