<?xml version="1.0" encoding="utf-8"?>
<!-- Generator: Adobe Illustrator 21.0.0, SVG Export Plug-In . SVG Version: 6.00 Build 0)  -->
<!DOCTYPE svg PUBLIC "-//W3C//DTD SVG 1.0//EN" "http://www.w3.org/TR/2001/REC-SVG-20010904/DTD/svg10.dtd">
<svg version="1.0" xmlns="http://www.w3.org/2000/svg" xmlns:xlink="http://www.w3.org/1999/xlink" x="0px" y="0px" width="288px"
	 height="288px" viewBox="0 0 288 288" enable-background="new 0 0 288 288" xml:space="preserve">
<g id="Color">
	<path d="M195.2,169.5l11.1,0.5L194,153.5l12.5-2.9l-4.6-0.9c-5.7-1.1-11.2-13.5-13-18.6l8.6-36.5l-28.1-27.1l-0.2-0.2l-0.2-0.1
		c-2.9-1-12.1-4-14.1-4.2c-1-0.8-4.3-6.5-6.9-11.5l-0.4-0.8l-19.9,6.4l13.5,1.7l4.2,6.1h-19.3l6.5,20.2l2-12h9.8
		c0,2.9,0.2,11.2,0.2,12.2c0,0.4,0.2,0.7,0.5,1c0.4,0.3,1.4,0.9,11.4-3l3.5-1.4l-8.9-1.2v-3.3h12.4l16.9,16.9v11.8l-2.8,15.8
		l-4.5-2.2l-7.6-19.1h-8.4l-8.6-10.3l-1.9,14l-15-7l8.4,10.9l-23.3,7l-7.9-3l10.1,20.8l4.2-6.6l6.3,7.1l2.3-7.1l7.3,5.6l3.5-6.5
		l6.1,10.4l-5.1-2l-2.6,4.5l-4.8-7l-2.6,8.3l-4.7-4.6l-3.5,5l-6.9-6.1l3.3,17.6l30.8-6.4l2.9,4.9l-26.7,17.4l-20-10.4l-2.8-18.3
		l-17.2,5.5l11.2,2v7.7l-11.2-7.5l-6.9,8.6l3.6,12.2l5.5-9.1l7.6,4.1l-4.2,9.8L106,178l-3.7-7.6l3.2-3.9l26,18.8l0.5-1
		c1.1-2.2,2.9-5.7,3.4-6.3c0.7-0.6,6.9-3.6,13-6.3l0.8,4.3c0.1,4-8,12.1-11.2,14.8l-2,1.8h12.5c-2.2,2.9-6.3,8.3-6.7,9l-0.3,0.6
		l0.3,0.5c0.3,0.5,0.7,1.1,10.9,0.5l-4.6,4.9h5.5l-7.3,14.1l-22.5,13.2l6.6,1.9l31.9-7.4l29.6-18.2l0.4-0.3l2.9-26.5l11.4,4.8
		L195.2,169.5z M181.8,213.8c0,0-15.6,10.2-19,12.7s-32.8,8.3-32.8,8.3l22.4-11l16.2-22.7c0,0,0.1-7.1,0.1-15.2
		c-13.8-3.3-14.3-17.9-14.3-17.9s-2.2-4.7-1.9-7.1c0.3-2.5,2.2-6.9,2.2-6.9l2.3-0.3l0,0.4l0.3-0.2l0.2-1l2.4,0.5l1.1,5.5l1.8,0.4
		l-1.5,7.5c0.4,0.9,2.1,4.3,4.9,5.9c0.6,0.3,1.2,0.5,1.9,0.7c0.1,0,0.3,0.1,0.4,0.1l0,0c0.1,0,0.2,0.1,0.4,0.1c0-5.7,0.1-10,0.1-10
		c1.2-0.9,2.8-1.6,4.5-2.3l-0.2,0l-0.6-4.1c0,0,0,0,0,0c-4.6-0.1-8.2-5.9-8.1-12.9c0-2.2,0.4-4.3,1.1-6.1c-0.7-0.2-1.2-0.4-1.3-0.4
		l0.6-1.6c0,0,0.5,0.2,1.4,0.5c0.1-0.1,0.1-0.3,0.2-0.4c-0.8-0.3-1.3-0.5-1.4-0.5l0.6-1.6c0,0,0.7,0.3,1.8,0.6
		c0.1-0.1,0.2-0.3,0.3-0.4c-0.5-0.1-0.9-0.2-1.1-0.2l0.3-1.7c0.6,0.1,1.4,0.2,2.4,0.4c1.1-0.8,2.4-1.3,3.7-1.3
		c1.5,0,2.9,0.7,4.1,1.8c0.7-0.1,1.3-0.2,1.7-0.3l0.7,1.5c-0.3,0.1-0.6,0.2-1,0.3c0.1,0.2,0.3,0.4,0.4,0.6c0.2-0.1,0.4-0.1,0.6-0.2
		l0.6,1.6c-0.2,0.1-0.3,0.1-0.5,0.2c0.1,0.2,0.2,0.4,0.3,0.7c0.2-0.1,0.4-0.2,0.6-0.3l0.9,1.4c-0.3,0.2-0.6,0.3-0.9,0.4
		c0.5,1.6,0.7,3.4,0.7,5.3c-0.1,4.6-1.7,8.6-4.2,10.8l1,4.4c3.6-1,6.6-1.5,6.6-1.5c7.2,16.8,5.5,41.4,5.5,41.4
		S190.7,210.2,181.8,213.8z"/>
</g>
<g id="Stroke">
	
		<path opacity="0" fill="none" stroke="#000000" stroke-width="18" stroke-linecap="round" stroke-linejoin="round" stroke-miterlimit="10" d="
		M111.2,62.3c18.9-6.4,38.9-9.4,58.9-8.8c-12,11.1-31.4,8.9-45.4,17.3c19.9-3.1,40-5.5,60-7.2c-0.5,1.8-2.3,2.9-3.9,3.8
		c-18.1,9.7-40,9.8-58.7,18.3c27.7-4.7,55.3-9.3,83-14c0.7,2.9-2.9,4.7-5.7,5.4c-15.2,3.9-30.5,7.1-46,9.7
		c16.8-1.1,33.6-1.1,50.4-0.2c-0.7,2.8-3.9,4-6.7,4.8c-10.7,2.8-21.7,4.5-32.8,4.9c15.3,3.7,30.3,8.3,45,13.8
		c0.3,2.5-3.2,3.3-5.7,3.1c-30.1-2.4-59.2-12.5-89.3-14.2c-8-0.5-17.2,0.3-22.1,6.6c40.7-0.7,82.3-1.2,120.9,11.7
		c2.2,0.7,4.8,2.2,4.5,4.4c-41.6,2.9-83.7-7.7-124.9-1.4c-1,1.7,1.2,3.5,3,4.2c7.6,2.9,15.6,4.2,23.7,5.3c22.8,3,45.8,4.3,68.8,3.9
		c8.9-0.2,18.8-0.3,25.5,5.6c-3.1,1.1-6.5,1.1-9.8,1.2c-21.5,0.3-43-1.3-64.5-0.5c-21.5,0.8-43.3,4.2-62.5,13.7
		c40.2,2.2,80.5,0.5,120.4-5c2.4-0.3,5.6-0.3,6.5,2c0.7,1.7-0.4,3.6-2,4.5c-1.6,0.9-3.4,0.9-5.2,1c-22.6,0.6-45.2,1.2-67.8,1.9
		c-16.9,0.5-34.8,1.3-48.6,11c51.6,2.5,103.2-8,154.7-4.7c-23.7,6.2-48.1,10-72.6,11.4c-19.6,1.2-39.2,0.8-58.8,1.7
		c-1.6,0.1-3.5,0.4-4.2,1.8c23.9,5.6,48.5,7.8,73,6.5c11.9-0.6,23.8-2.1,35.6-1.6c4.7,0.2,10.2,1.2,12.4,5.5
		c-24.8,7.6-52,2.1-77.1,8.5c5.6,3.4,12.3,4.2,18.8,5.3c8.4,1.4,16.6,3.4,24.7,5.9c3.6,1.1,7.7,3.1,7.9,6.9
		c-15.9,0.9-32-0.9-47.3-5.4c2.1,4.9,8,6.6,12.9,8.5c5,2,10.3,6.4,8.8,11.5c-11.4,0.1-22.4-3.5-33.2-7c6.8,2.2,12.9,6.8,16.8,12.8
		c-7.4,0-14.7-1-21.8-2.9c-0.4,2.6,0.6,5.4,2.4,7.3"/>
</g>
</svg>
