<?xml version="1.0" encoding="utf-8"?>
<!-- Generator: Adobe Illustrator 20.1.0, SVG Export Plug-In . SVG Version: 6.00 Build 0)  -->
<!DOCTYPE svg PUBLIC "-//W3C//DTD SVG 1.0//EN" "http://www.w3.org/TR/2001/REC-SVG-20010904/DTD/svg10.dtd">
<svg version="1.0" xmlns="http://www.w3.org/2000/svg" xmlns:xlink="http://www.w3.org/1999/xlink" x="0px" y="0px" width="288px"
	 height="288px" viewBox="0 0 288 288" enable-background="new 0 0 288 288" xml:space="preserve">
<g id="Layer_1">
	<path fill="#231F20" d="M194.2,168.8l10.9,0.5l-12.1-16.2l10.6-2.5l-1.7-0.3c-7-1.4-13-17.7-13.5-19.2l8.5-36.3L169.1,68l-0.1-0.1
		c-1.3-0.4-12.8-4.2-14.1-4.2h0c-0.8-0.3-4.3-6.2-7.2-11.8l-0.1-0.3l-16.7,5.4l11,1.4l5,7.3h-19.6l5.4,17l1.7-10h10.9
		c0,2,0.2,11.8,0.2,12.8c0,0.2,0.1,0.3,0.2,0.5c1,0.7,7.9-1.9,10.8-3.1l1.3-0.5l-7.1-0.9v-4.5h13.3l17.3,17.3l0,12.1l-2.9,16.7
		l-5.4-2.7l-7.4-18.7l-0.1-0.2h-8.3l-7.9-9.4l-1.8,13.4l-13.4-6.2l7.4,9.6l-24.4,7.3l-6.7-2.5l8.9,18.4l4.1-6.3l6.1,6.9l2.2-6.9
		l7.4,5.7l3.7-6.8l7.6,12.9L144,135l-2.9,4.9l-4.6-6.7l-2.5,8.1l-4.9-4.8l-3.5,4.9l-6.1-5.3l2.9,15.2l30.6-6.3l3.5,5.8L129,168.6
		l-20.6-10.7l-2.7-17.8l-14.1,4.5l9.2,1.6v9.4L89,147.7l-6.3,7.9l3.1,10.5l5.1-8.4l8.6,4.7l-4.2,9.8l9.5,4.5l-3.1-6.3l3.8-4.6
		l25.9,18.8l0.2-0.4c0-0.1,2.8-5.5,3.5-6.5c0.5-0.7,8.6-4.4,13.9-6.8l0.9,5.1c0.3,5.2-11.3,15.3-11.4,15.4l-0.8,0.7h12
		c-1.6,2.1-6.9,9.2-7.4,9.9c-0.1,0.2-0.1,0.3,0,0.5c0.4,0.6,4.4,0.6,11.9,0.1l-4.7,5h5.1l-7.9,15.2l-21.5,12.6l5,1.5l31.6-7.3
		l29.8-18.2l3-27l10.5,4.4L194.2,168.8z"/>
</g>
<g id="Layer_2_1_">
	<g id="Layer_2">
		<path fill="none" stroke="#231F20" stroke-width="25" stroke-miterlimit="10" stroke-opacity="0" d="M113.5,52.1
			c22.5-0.3,45,0.3,67.4,1.7c-24.6,0.6-49.1,2.5-73.4,5.5c25.6,1.6,51.3,3.2,76.9,4.8c-24-0.3-48.1,0.4-72,2.1
			c-10,0.7-20.1,1.6-29.7,4.8c48.4,0,96.8,0,145.1,0c-9.2,4.5-19.6,5.3-29.8,5.7c-33.6,1.4-67.3-0.5-100.7,2.6
			c40,5.5,80.5,8.4,120.9,8.7c-14.9,1.8-29.9,1.3-44.8,1.5c-26,0.3-51.9,2.4-77.6,6.3c42.8,1.8,85.7,3.6,128.5,5.5
			c-47.3,5.3-94.7,10.5-142,15.8c39-1.4,78.1-2.9,117.1-4.3c-11.2,3.8-23.2,5-35,6c-32.5,2.9-65,5.4-97.6,7.8
			c42.9,1.2,85.9,2.3,128.8,3.5c-21.3,5-43.3,7.1-65.2,8.4c-17.5,1.1-35.1,1.6-52.3,4.7c41.1-1.3,82.1-2.5,123.2-3.8
			c-41.3,5-82.6,10-123.9,14.9c41,0.1,82,0,123-0.4c-39.6,5.2-80.1,0.9-119.6,7.3c-1.6,0.3-3.7,1.6-2.8,2.9
			c6.1,0.9,12.3,0.8,18.5,0.8c37.7-0.3,75.4-0.7,113.1-1c-41.6,0.9-83.2,3.6-124.5,8c43.1,1.8,86.2,2.2,129.4,1.3
			c-11.4,4.8-24.1,4.7-36.5,4.8c-19.3,0.1-38.5,0.9-57.7,2.2c32.4-2.1,65-1.2,97.3,2.5c-3.6,3.4-8.9,4.2-13.8,4.6
			c-24.7,2.4-49.6,2.5-74.5,2.7c24.1,4.1,48.1,8.8,71.9,14.3c-25.7-1.6-51.1-8.4-76.9-6.8C146,204.8,168,212.3,187,225
			c-13.1-5.7-27-9.6-41.2-11.7c9.6,7.7,19.4,15.1,29.6,22.1c-15.2-7.4-30.9-13.7-47-18.9c6.5,8.3,14.6,15.4,23.8,20.6
			c-9.6-6.4-20.3-11.1-31.5-13.8c5.1,6.5,11.4,11.9,18.6,16c-7.5-5.7-16-10.2-25-13.1"/>
	</g>
</g>
</svg>
