<?xml version="1.0" encoding="utf-8"?>
<!-- Generator: Adobe Illustrator 19.2.1, SVG Export Plug-In . SVG Version: 6.00 Build 0)  -->
<svg version="1.0" xmlns="http://www.w3.org/2000/svg" xmlns:xlink="http://www.w3.org/1999/xlink" x="0px" y="0px" width="288px"
	 height="288px" viewBox="0 0 288 288" enable-background="new 0 0 288 288" xml:space="preserve">
<g id="Layer_1">
	<path d="M126.2,235.2L147,223l8.2-15.8h-4.8l4.8-5.1c0,0-13,0.9-12.5,0s7.8-10.5,7.8-10.5h-11.8c0,0,11.8-10.3,11.5-15.7l-1-5.6
		c0,0-13.8,6.1-14.5,7.1s-3.5,6.5-3.5,6.5l-25.8-18.7l-4.2,5.1l2.7,5.6l-8.2-3.9l4.2-9.8l-9.2-5l-4.8,8l-2.8-9.5l6-7.5l12,8v-10.4
		l-8-1.4l12.2-3.9l2.7,17.6L129,169l28-18.2l-3.8-6.3l-30.5,6.3l-2.6-13.8l5.6,4.9l3.5-4.9l5,4.9l2.5-7.9l4.5,6.6l3-5.1l7,2.7
		l-8.5-14.4l-3.8,7l-7.5-5.8l-2.2,6.8l-6-6.8l-4,6.2l-8.2-17l5.9,2.2l25-7.5l-6.8-8.8l12.5,5.8l1.8-13.1l7.5,8.9h8.2l7.5,18.8l6,3
		l3-17.2V94l-17.5-17.5h-13.8v5.2l6,0.8c0,0-10.5,4.2-10.5,3s-0.2-13.2-0.2-13.2H134l-1.5,8.8l-4.8-15h19.8l-5.5-8l-9.5-1.2
		l14.8-4.8c0,0,6.2,12,7.5,12s14,4.2,14,4.2L196.5,95l-8.5,36.2c0,0,6.2,18,13.8,19.5l-9.5,2.2l12,16l-10.8-0.5l10.8,19.5l-10-4.2
		l-3,27.3l-29.5,18.1l-31.5,7.3L126.2,235.2z"/>
	<polygon fill="#FFFFFF" points="142,114.8 156,108.8 153,117.2 	"/>
</g>
<g id="Layer_2">
	<path opacity="0" fill="none" stroke="#7CC35A" stroke-width="25" stroke-miterlimit="10" d="M113.5,52.1c22.5-0.3,45,0.3,67.4,1.7
		c-24.6,0.6-49.1,2.5-73.4,5.5c25.6,1.6,51.3,3.2,76.9,4.8c-24-0.3-48.1,0.4-72,2.1c-10,0.7-20.1,1.6-29.7,4.8
		c48.4,0,96.8,0,145.1,0c-9.2,4.5-19.6,5.3-29.8,5.7c-33.6,1.4-67.3-0.5-100.7,2.6c40,5.5,80.5,8.4,120.9,8.7
		c-14.9,1.8-29.9,1.3-44.8,1.5c-26,0.3-51.9,2.4-77.6,6.3c42.8,1.8,85.7,3.6,128.5,5.5c-47.3,5.3-94.7,10.5-142,15.8
		c39-1.4,78.1-2.9,117.1-4.3c-11.2,3.8-23.2,5-35,6c-32.5,2.9-65,5.4-97.6,7.8c42.9,1.2,85.9,2.3,128.8,3.5
		c-21.3,5-43.3,7.1-65.2,8.4c-17.5,1.1-35.1,1.6-52.3,4.7c41.1-1.3,82.1-2.5,123.2-3.8c-41.3,5-82.6,10-123.9,14.9
		c41,0.1,82,0,123-0.4c-39.6,5.2-80.1,0.9-119.6,7.3c-1.6,0.3-3.7,1.6-2.8,2.9c6.1,0.9,12.3,0.8,18.5,0.8c37.7-0.3,75.4-0.7,113.1-1
		c-41.6,0.9-83.2,3.6-124.5,8c43.1,1.8,86.2,2.2,129.4,1.3c-11.4,4.8-24.1,4.7-36.5,4.8c-19.3,0.1-38.5,0.9-57.7,2.2
		c32.4-2.1,65-1.2,97.3,2.5c-3.6,3.4-8.9,4.2-13.8,4.6c-24.7,2.4-49.6,2.5-74.5,2.7c24.1,4.1,48.1,8.8,71.9,14.3
		c-25.7-1.6-51.1-8.4-76.9-6.8C146,204.8,168,212.3,187,225c-13.1-5.7-27-9.6-41.2-11.7c9.6,7.7,19.4,15.1,29.6,22.1
		c-15.2-7.4-30.9-13.7-47-18.9c6.5,8.3,14.6,15.4,23.8,20.6c-9.6-6.4-20.3-11.1-31.5-13.8c5.1,6.5,11.4,11.9,18.6,16
		c-7.5-5.7-16-10.2-25-13.1"/>
</g>
</svg>
