<?xml version="1.0" encoding="utf-8"?>
<!-- Generator: Adobe Illustrator 19.2.1, SVG Export Plug-In . SVG Version: 6.00 Build 0)  -->
<svg version="1.0" xmlns="http://www.w3.org/2000/svg" xmlns:xlink="http://www.w3.org/1999/xlink" x="0px" y="0px" width="288px"
	 height="288px" viewBox="0 0 288 288" enable-background="new 0 0 288 288" xml:space="preserve">
<g id="Layer_2">
	<path fill="#27AAE1" d="M119.3,91.3c0,0,13.7,18.3,4.7,29.5c0,0,7-4.5,6.5-11.9c-0.5-7.4-4-12.8-4-12.8S123,91.5,119.3,91.3z"/>
	<path fill="#27AAE1" d="M114.4,85.9"/>
	<g>
		<path fill="#27AAE1" d="M142.4,184.3l8.6,0.3l11.1-2.4l9.4-4.9l-2.3-1.9c0,0-5.7,4.1-8.7,4.3c-3,0.2-7.6,0.4-7.6,0.4
			s3.5-6.6,1.2-17c-2.3-10.4-9.4-31.1-9.4-31.1l-7.1-12.5l-2.6,1.1c0,0,13.4,30.6,13.5,44S142.4,184.3,142.4,184.3z"/>
		<path fill="#27AAE1" d="M187.2,194.1l-12.5-14.7c-16.2,17-53.3,12.8-53.3,12.8l-2,2.3l3.8,1c0,0,19.8,0.7,20.4,1
			c0.5,0.3,6.7-1.3,13.5-2.8c6.7-1.5,14.6-8.5,14.6-8.5l3.6,7.4l-2.9-7.2l0,0.8l-3,2.6c0,0,0.9,3.4,1.6,3.7c0.7,0.2,4.1,0.8,4.6,0.9
			l1,3.3L187.2,194.1z"/>
	</g>
</g>
<g id="Layer_1">
	
		<ellipse transform="matrix(0.983 -0.1834 0.1834 0.983 -17.3414 23.9762)" fill="none" stroke="#000000" stroke-width="2" stroke-miterlimit="10" cx="121" cy="105.8" rx="9.9" ry="15.2"/>
	<path fill="none" stroke="#000000" stroke-width="2" stroke-miterlimit="10" d="M111.4,94.3c0,0,11.5-0.2,14.5-2.3"/>
	<path fill="none" stroke="#000000" stroke-width="2" stroke-miterlimit="10" d="M110.1,96.5c0,0,11,2,17.1-2.1"/>
	<path fill="none" stroke="#000000" stroke-width="2" stroke-miterlimit="10" d="M109.7,99c0,0,14.1,2.2,19.3-2.5"/>
	<polyline fill="none" stroke="#000000" stroke-width="2" stroke-miterlimit="10" points="128.5,118.3 130.6,122.4 125.5,125.4 
		123.8,120.7 	"/>
	<path fill="none" stroke="#000000" stroke-width="2" stroke-miterlimit="10" d="M125.9,154.3c1.9,9.7,3.6,18.5,3.6,18.5
		s19.2,0.4,24.7-6.7c0,0-3.8-29-16.2-46.9c0,0-11.9,4.5-16.9,9.8c0,0,1.3,7,3,15.3"/>
	<path fill="none" stroke="#000000" stroke-width="2" stroke-miterlimit="10" d="M128.9,128.9c0,0-3.8,14.2-6.6,17.8
		c0,0-7.9-2.1-13.9-10.6l-3.2,1.8c0,0,4.4,18.6,23.8,17.1c0,0,8.2-9.8,8.7-20.2"/>
	<line fill="none" stroke="#000000" stroke-width="2" stroke-miterlimit="10" x1="122.3" y1="146.6" x2="128.9" y2="154.9"/>
	<path fill="none" stroke="#000000" stroke-width="2" stroke-miterlimit="10" d="M108.4,136l0.6-7.1l-1.8-1l-2.5-7.6l-2.6,0.9
		c0,0-1.1,5.6-0.9,8.6c0.2,2.9,3.9,7.8,3.9,7.8"/>
	<path fill="none" stroke="#000000" stroke-width="2" stroke-miterlimit="10" d="M105.2,120.3h2.3l2.6,6.1h1.8v8.4
		c0,0,4.8,7.3,11.1,6.8"/>
	<line fill="none" stroke="#000000" stroke-width="2" stroke-miterlimit="10" x1="111.2" y1="135" x2="109" y2="136.3"/>
	<path fill="none" stroke="#000000" stroke-width="2" stroke-miterlimit="10" d="M129.4,172.8l-10,21.7c0,0,33.2,7.7,53-9.4l-2.5-6
		c0,0-21.2,10.4-37.2,2.2"/>
	<path fill="none" stroke="#000000" stroke-width="2" stroke-miterlimit="10" d="M154.2,166.1c0,0,3.3,12.1-6.2,18.4"/>
	<polyline fill="none" stroke="#000000" stroke-width="2" stroke-miterlimit="10" points="169.9,179.1 173.4,176.9 186.3,194.7 
		176.2,197.2 171.6,186.5 	"/>
	<path fill="none" stroke="#000000" stroke-width="2" stroke-miterlimit="10" d="M170.9,177.5l-2.4-2.2c0,0-6.9,5.5-16.6,5.4"/>
	<polyline fill="none" stroke="#000000" stroke-width="2" stroke-miterlimit="10" points="175.1,194.7 169.9,192.8 168.2,188.3 	"/>
</g>
<g id="Layer_3">
	<path opacity="0" fill="none" stroke="#000000" stroke-width="25" stroke-miterlimit="10" d="M111.2,90.5
		c6.3,0.6,12.6,1.3,18.9,1.9c-6.1,1.7-12.2,3.4-18.3,5c8.7-0.1,17.4,0.3,26,1.1c-7.8,3.5-15.8,6.2-24,8.3c7.5,0.1,15,0.1,22.5,0.2
		c-8.5,2.7-16.9,5.8-25.1,9.3c10.8,0.1,21.6,0.2,32.4,0.2c-6.1,3.4-12.7,5.9-19.5,7.4c8.1,1.3,16.2,2.5,24.4,3.8
		c-4,2.4-8.3,4.4-12.7,5.9c7.3,0.1,14.8,0.2,21.3,3.6c-8.1,3.7-16.2,7.4-24.4,11.1c6.8,1.3,13.7,2.4,20.6,3.2
		c-4.5,2.4-9.2,4.4-14,5.9c7.4-0.2,14.9-0.1,22.3,0.3c-6.5,3.2-13.2,5.8-20.2,7.8c9,0.1,18.1,0.6,27.1,1.3
		c-11.7,4.6-24.1,7.7-36.6,9.2c11.7,1.2,23.6,1,35.3-0.5c-17,4.8-35.4,1.3-52.5,5.8c0.8,1.6,3,1.8,4.8,1.8
		c20.5-0.5,40.9-1.8,61.3-4.1c-7,4.3-15.3,5.6-23.4,6.8c-11,1.6-21.9,3.3-32.9,4.9c-1.7,0.2-3.6,0.7-4.3,2.1
		c23.7,0.2,47.4-2.4,70.5-7.7c-3.1,1.6-6.7,2-10.1,2.4c-19.1,2.1-38.1,4.3-57.2,6.4c17,3,34.5,0.9,51.6-1.7
		c4.4-0.7,8.9-1.4,13.2-0.4"/>
</g>
</svg>
