<?xml version="1.0" encoding="utf-8"?>
<!-- Generator: Adobe Illustrator 20.1.0, SVG Export Plug-In . SVG Version: 6.00 Build 0)  -->
<!DOCTYPE svg PUBLIC "-//W3C//DTD SVG 1.0//EN" "http://www.w3.org/TR/2001/REC-SVG-20010904/DTD/svg10.dtd">
<svg version="1.0" xmlns="http://www.w3.org/2000/svg" xmlns:xlink="http://www.w3.org/1999/xlink" x="0px" y="0px" width="288px"
	 height="288px" viewBox="0 0 288 288" enable-background="new 0 0 288 288" xml:space="preserve">
<g id="Fill">
	<g>
		<path fill="#FFFFFF" d="M132.9,182.6l0.9,1.4l0.4-0.1l0.3-1.2l-0.9-2.1l1.7,0.9c0,0,2.7-13.9,2.8-14.9v-8.3l-8.9,19.9l4.4,2.4
			l-0.1,0.2l-2.4-1.4l-2.9,5.7l1.3,0.5l2.9-1.8L132.9,182.6z"/>
		<polygon fill="#FFFFFF" points="159.5,180.2 157.1,181.6 157,181.4 156.1,183.6 156.4,184.8 156.8,184.9 157.7,183.4 158.2,184.6 
			161.1,186.4 162.3,185.9 		"/>
		<path fill="#FFFFFF" d="M148.8,209.7c4.8-0.2,8.5-1.4,8.5-1.4c-5.1-12.1-4.9-32-4.4-42.3l2.1,16.4l6.1-3.3l-7.8-19.3
			c0-0.4,0.1-0.6,0.1-0.6c-0.2-0.1-0.5-0.2-0.7-0.2l0.8,0c0.8-0.2,1.5-0.5,1.5-0.5c-2.9-2.8-1.9-15.6-3.1-18.4s-6.8-1.7-6.8-1.7
			s-6.3-1.2-7.1,2.9c-0.7,3.5-0.5,13-1.5,16.2l2.3,0.6l0.4,0c-0.5,0-0.8,0.1-0.8,0.1s-0.3,8.3-0.4,13.4l-0.1,0.1l-0.2,5.1
			c-1,6.9-5.4,27.7-5.4,27.7c3,2.9,6.8,4.3,10.5,4.9l-2.5-0.3l1,4.5h0.6l1-4.2c1.7,0.3,3.4,0.3,4.9,0.3l1.1,4.6h0.6l1-4.5
			L148.8,209.7z"/>
		<polygon fill="#FFFFFF" points="136.5,217.8 142.4,214.6 141.3,213.6 133.4,214.6 		"/>
		<polygon fill="#FFFFFF" points="148.5,215.3 154.3,218.5 157.4,215.3 149.5,214.3 		"/>
	</g>
</g>
<g id="Stroke">
	
		<path opacity="0" fill="none" stroke="#000000" stroke-width="8" stroke-linecap="round" stroke-linejoin="round" stroke-miterlimit="10" d="
		M137.9,136.9c5.3-0.9,10.8-0.6,16,0.7c-0.8,1.7-3.1,1.8-5,1.7c-5-0.1-10.1,0.6-14.9,2c8.5,1.2,17.8-1.3,25.5,2.4
		c-0.9,1.6-3.1,1.9-4.9,1.9c-4.4,0.1-8.8,0.3-13.3,0.4c-5.1,0.2-10.4,0.3-14.9,2.6c5.9,0.6,11.8-0.4,17.8-0.7
		c5.9-0.3,12.1,0.1,17.3,3c-4.4,1.7-9.3,2.2-14,2.5c-6.9,0.5-13.7,1-20.6,1.4c-1.9,0.1-4.2,0.5-5,2.2c12.2,0,24.4-0.4,36.5-1.1
		c2.5-0.2,5.3-0.2,7,1.6c-3.2,2.9-7.6,3.9-11.9,4.2c-4.3,0.3-8.6-0.1-12.8,0.3c-3.5,0.4-7,1.3-10.2,2.7c-0.3,0.1-0.6,0.3-0.7,0.5
		c-0.3,0.5,0,1.2,0.5,1.5c0.5,0.3,1.1,0.3,1.7,0.3c9.6-0.1,19.3-0.1,28.9,0c1.2,0,2.8,0.3,3.1,1.5c0.3,1.3-1.3,2.2-2.6,2.6
		c-12.7,3.8-26.2,3-39.3,5.1c12.9,1.8,26.1,2.4,39.1,1.7c2.6-0.1,5.7-0.1,7.3,2c-14.4,6.9-32.4-1.1-47.2,5.1
		c-0.2,0.1-0.5,0.2-0.5,0.4c8.2,0.9,16.5,1.8,24.7,2.3c5.8,0.4,12.1,0.7,16.4,4.6c-9.3,2.3-19,1.8-28.5,2.4
		c-2.4,0.2-5.1,0.5-6.7,2.4c2,1.2,4.4,1.4,6.8,1.5c9.4,0.4,18.7,0.8,28.1,1.2c0.6,0,1.3,0.1,1.7,0.6c0.4,0.5,0.1,1.4-0.4,1.8
		c-0.5,0.4-1.2,0.6-1.9,0.7c-10.8,1.9-22,0-32.8,1.9c-0.9,0.2-2,0.7-1.8,1.5c0.1,0.7,1,0.9,1.7,1c9.8,1.3,19.7,0.2,29.5,1.5
		c1.6,0.2,3.2,0.5,4.6,1.3c1.4,0.8,2.5,2.3,2.4,3.9c-11.4,1.1-22.8-1.4-34.2-0.1c6.1,0.3,12.1,2.1,17.3,5.2"/>
</g>
</svg>
