<?xml version="1.0" encoding="utf-8"?>
<!-- Generator: Adobe Illustrator 19.2.1, SVG Export Plug-In . SVG Version: 6.00 Build 0)  -->
<svg version="1.0" xmlns="http://www.w3.org/2000/svg" xmlns:xlink="http://www.w3.org/1999/xlink" x="0px" y="0px" width="288px"
	 height="288px" viewBox="0 0 288 288" enable-background="new 0 0 288 288" xml:space="preserve">
<g id="Layer_2">
	<polygon fill="#27AAE1" points="149.9,158.3 137.9,173.1 137.7,176.9 145.1,168.7 153,159 	"/>
</g>
<g id="Layer_1">
	<path fill="none" stroke="#000000" stroke-width="2" stroke-miterlimit="10" d="M259.9,218.4v-34l-7-20v-21l-25-32.5l-15-23.5
		c0,0-21-11.5-22.5-12s-28-6-31-5.5s-35.5,9.5-38.5,11S89.4,97.4,89.4,97.4l-5.5,12.5l-31,20c0,0-12,36-14,38.5s-12,21-12,21l4,29"
		/>
	<path fill="none" stroke="#000000" stroke-width="2" stroke-miterlimit="10" d="M71.7,218.4v-34l10.7-20.5l13.4-24.5l19-16.5h33.5
		h28.5l15.5,19c0,0,18,16.5,18.5,18s10.5,38,10.5,38v20.5"/>
	<line fill="none" stroke="#000000" stroke-width="2" stroke-miterlimit="10" x1="231.1" y1="210.9" x2="237.1" y2="206.1"/>
	<line fill="none" stroke="#000000" stroke-width="2" stroke-miterlimit="10" x1="235.6" y1="210.9" x2="239.9" y2="208.5"/>
	<line fill="none" stroke="#000000" stroke-width="2" stroke-miterlimit="10" x1="231.1" y1="174.9" x2="234.1" y2="179.1"/>
	<path fill="none" stroke="#000000" stroke-width="2" stroke-miterlimit="10" d="M232.6,170.6c1.2,1,5.1,8.5,5.1,8.5"/>
	<path fill="none" stroke="#000000" stroke-width="2" stroke-miterlimit="10" d="M188.6,95.6c0,0-3.5,1.5-1.2,5.8"/>
	<line fill="none" stroke="#000000" stroke-width="2" stroke-miterlimit="10" x1="200.1" y1="118.4" x2="204.9" y2="114.4"/>
	<line fill="none" stroke="#000000" stroke-width="2" stroke-miterlimit="10" x1="200.1" y1="121.4" x2="205.9" y2="121.4"/>
	<path fill="none" stroke="#000000" stroke-width="2" stroke-miterlimit="10" d="M89.6,120.3c0,0-1.2,1.5-1.2,5.2"/>
	<path fill="none" stroke="#000000" stroke-width="2" stroke-miterlimit="10" d="M93.1,119.7c0,0-1.2,1.5-1.2,5.2"/>
	<line fill="none" stroke="#000000" stroke-width="2" stroke-miterlimit="10" x1="125" y1="93.9" x2="129" y2="92.8"/>
	<line fill="none" stroke="#000000" stroke-width="2" stroke-miterlimit="10" x1="127" y1="99" x2="131.6" y2="99.6"/>
	<line fill="none" stroke="#000000" stroke-width="2" stroke-miterlimit="10" x1="48" y1="185.3" x2="53.2" y2="179.9"/>
	<line fill="none" stroke="#000000" stroke-width="2" stroke-miterlimit="10" x1="49" y1="189.9" x2="53.2" y2="185.3"/>
	<path fill="none" stroke="#000000" stroke-miterlimit="10" d="M145.1,155.4L145.1,155.4c-2.9,0-5.2-2.3-5.2-5.2v-3.8
		c0-2.9,2.3-5.2,5.2-5.2l0,0c2.9,0,5.2,2.3,5.2,5.2v3.8C150.2,153,147.9,155.4,145.1,155.4z"/>
	<path fill="none" stroke="#000000" stroke-miterlimit="10" d="M139.9,148.1c0,0,2.1,1,3.2,0.5c1.2-0.4,2.4-0.6,4.2,0
		c1.8,0.6,2.9-0.7,2.9-0.7"/>
	<path fill="none" stroke="#000000" stroke-miterlimit="10" d="M139.9,146.9c0,0-2.4,0.9,0,2.8"/>
	<path fill="none" stroke="#000000" stroke-miterlimit="10" d="M150.4,147c0,0,2.4,0.9,0,2.8"/>
	<path fill="none" stroke="#000000" stroke-miterlimit="10" d="M153.5,159c0.8-0.2,1.5-0.5,1.5-0.5c-2.9-2.8-1.9-15.6-3.1-18.4
		s-6.8-1.7-6.8-1.7s-6.3-1.2-7.1,2.9c-0.7,3.5-0.5,13-1.5,16.2l2.3,0.6"/>
	<path fill="none" stroke="#000000" stroke-miterlimit="10" d="M143.6,155.5c-0.2-0.2,0,2.3,0,2.3l3.6,0.1v-2.4
		C147.1,155.5,144.4,156.2,143.6,155.5z"/>
	<path fill="none" stroke="#000000" stroke-miterlimit="10" d="M138.4,158.2c0,0,9.8-1.1,15,1c0,0-3.2,32.1,3.9,49.1
		c0,0-15.9,5-25-3.8c0,0,5.6-26.3,5.6-29.6S138.4,158.2,138.4,158.2z"/>
	<path fill="none" stroke="#000000" stroke-miterlimit="10" d="M138.1,158.3c0,0-8.9,19.9-8.9,19.9l6.1,3.3c0,0,2.7-13.9,2.8-14.9"
		/>
	<polyline fill="none" stroke="#000000" stroke-miterlimit="10" points="133.6,180.8 132.4,183.7 129.5,185.5 128.2,185 
		131.1,179.3 	"/>
	<polyline fill="none" stroke="#000000" stroke-miterlimit="10" points="133.6,180.5 134.5,182.7 134.2,183.9 133.8,184 
		132.8,182.5 	"/>
	<path fill="none" stroke="#000000" stroke-miterlimit="10" d="M153.2,159.5c0,0,7.9,19.6,7.9,19.6l-6.1,3.3l-2.1-16.7
		c0,0,0.2-4.8,0.3-5.9"/>
	<polyline fill="none" stroke="#000000" stroke-miterlimit="10" points="157,181.6 158.2,184.6 161.1,186.4 162.3,185.9 
		159.5,180.2 	"/>
	<polyline fill="none" stroke="#000000" stroke-miterlimit="10" points="157,181.4 156.1,183.6 156.4,184.8 156.8,184.9 
		157.8,183.3 	"/>
	<polyline fill="none" stroke="#000000" stroke-miterlimit="10" points="140.3,209.1 141.3,213.6 141.9,213.6 142.9,209.4 	"/>
	<polyline fill="none" stroke="#000000" stroke-miterlimit="10" points="150.5,209.8 149.5,214.3 148.9,214.3 147.8,209.6 	"/>
	<polygon fill="none" stroke="#000000" stroke-miterlimit="10" points="141.3,213.6 133.4,214.6 136.5,217.8 142.4,214.6 	"/>
	<polygon fill="none" stroke="#000000" stroke-miterlimit="10" points="149.5,214.3 157.4,215.3 154.3,218.5 148.5,215.3 	"/>
	<polygon fill="none" stroke="#000000" stroke-miterlimit="10" points="148.7,158.3 137.9,171.7 137.7,176.9 153.2,159.5 	"/>
	<path fill="none" stroke="#000000" stroke-miterlimit="10" d="M131,165.7c0,0-1.9-0.2-4.5-0.4"/>
	<path fill="none" stroke="#000000" stroke-miterlimit="10" d="M123,165c-1.9-0.2-4-0.4-5.8-0.5"/>
	<path fill="none" stroke="#000000" stroke-miterlimit="10" d="M115.3,164.3c-2-0.2-3.4-0.3-3.4-0.3"/>
	<path fill="none" stroke="#000000" stroke-miterlimit="10" d="M132.2,158.6c0,0-3.6-1.4-8-3.1"/>
	<path fill="none" stroke="#000000" stroke-miterlimit="10" d="M117.6,152.9c-4.4-1.7-8.2-3.2-8.2-3.2"/>
	<path fill="none" stroke="#000000" stroke-miterlimit="10" d="M132.6,151.6c0,0-4.8-4.6-8.9-8.6"/>
	<path fill="none" stroke="#000000" stroke-miterlimit="10" d="M121.9,141.2c-2.2-2.1-3.8-3.7-3.8-3.7"/>
	<path fill="none" stroke="#000000" stroke-miterlimit="10" d="M159.9,165.7c0,0,1.9-0.2,4.5-0.4"/>
	<path fill="none" stroke="#000000" stroke-miterlimit="10" d="M167.8,165c1.9-0.2,4-0.4,5.8-0.5"/>
	<path fill="none" stroke="#000000" stroke-miterlimit="10" d="M175.6,164.3c2-0.2,3.4-0.3,3.4-0.3"/>
	<path fill="none" stroke="#000000" stroke-miterlimit="10" d="M158.6,158.6c0,0,3.6-1.4,8-3.1"/>
	<path fill="none" stroke="#000000" stroke-miterlimit="10" d="M173.3,152.9c4.4-1.7,8.2-3.2,8.2-3.2"/>
	<path fill="none" stroke="#000000" stroke-miterlimit="10" d="M158.2,151.6c0,0,4.8-4.6,8.9-8.6"/>
	<path fill="none" stroke="#000000" stroke-miterlimit="10" d="M169,141.2c2.2-2.1,3.8-3.7,3.8-3.7"/>
</g>
<g id="Layer_3">
	<path opacity="0" fill="none" stroke="#27AAE1" stroke-width="14" stroke-miterlimit="10" d="M144.9,159.2c3.1,0,6.1,0,9.2,0
		c-3,0.4-6.1,0.9-9.1,1.3c-0.6,0.1-1.4,0.4-1.4,1c2.8,0.1,5.5,0.1,8.3,0.2c-4.3,1.8-9.1,2.5-13.7,2.2c1.4,0.6,3,0.7,4.5,0.8
		c2.3,0.1,4.7,0.2,7,0.3c-4.7,1.5-9.7,2.2-14.7,2c5.1,0,10.3,0,15.4,0.1c-5,2.2-10.5,3.4-15.9,3.3c5,0.1,10,0.1,14.9,0.2
		c-3.7,0.4-7.3,0.8-11,1.3c-3,0.3-6.1,0.7-9,1.8c4.2,0.2,8.4,0.3,12.5,0.3c1.1,0,2.2,0,3.2-0.5c1-0.4,2.1-1.3,3.1-0.9"/>
</g>
</svg>
