<?xml version="1.0" encoding="utf-8"?>
<!-- Generator: Adobe Illustrator 20.1.0, SVG Export Plug-In . SVG Version: 6.00 Build 0)  -->
<!DOCTYPE svg PUBLIC "-//W3C//DTD SVG 1.0//EN" "http://www.w3.org/TR/2001/REC-SVG-20010904/DTD/svg10.dtd">
<svg version="1.0" id="Layer_1" xmlns="http://www.w3.org/2000/svg" xmlns:xlink="http://www.w3.org/1999/xlink" x="0px" y="0px"
	 width="288px" height="288px" viewBox="0 0 288 288" enable-background="new 0 0 288 288" xml:space="preserve">
<g>
	<g id="XMLID_1_">
		<g>
			<path fill="#FCFBFA" d="M216.2,144.6l8,16.8l-0.2,22.9c-3,13.5-3,13.8-3,13.9c0,0.4-0.7,6-1.1,9.9L194,221.8l-11.3,1.8l-18.7,1.8
				l-23.6-2l-15-4.8l-0.2,0c-7.8,0.6-28.6,1.8-31.6,1.2c-3.7-0.8-14.3-4-17.1-5c-2.4-0.8-7-7.6-7.4-8.8c-0.2-0.8-2.9-17-4.8-27.7
				l4.5-22c1.8-6.8,4.8-17.9,5.5-19.5c1.4-0.8,5.8-3.6,21.3-14.1l15-13.5l18.8-8.6h24.1l24.4,2.5l21.6,23.5l0.1,0.1
				c3.5,3.1,7.3,6.7,7.8,7.5C207.7,134.9,208.9,136.6,216.2,144.6z"/>
			<path d="M74.1,137c0.1,0,0.2-0.1,0.2-0.1C74.2,136.9,74.1,137,74.1,137z M69.2,206.1c0.3,1.2,5,8,7.4,8.8c2.8,1,13.4,4.2,17.1,5
				c3,0.6,23.8-0.7,31.6-1.2l0.2,0l15,4.8l23.6,2l18.7-1.8l11.3-1.8l25.9-13.9c0.5-3.9,1.1-9.5,1.1-9.9c0-0.1,0-0.4,3-13.9l0.2-22.9
				l-8-16.8c-7.3-7.9-8.4-9.7-8.6-10.3c-0.5-0.8-4.3-4.4-7.8-7.5l-0.1-0.1L178,103.2l-24.4-2.5h-24.1l-18.8,8.6l-15,13.5
				c-15.6,10.5-20,13.3-21.3,14.1c-0.7,1.7-3.8,12.7-5.5,19.5l-4.5,22C66.2,189.1,69,205.2,69.2,206.1z M66.9,155.9
				c5-19,5.7-20.6,6.5-20.8c1.6-0.8,13.3-8.7,21.1-14l15.2-13.6l19.3-8.8l24.7,0l25.2,2.5l22.1,24.1c7.3,6.5,8.3,7.9,8.4,8.5
				c0.5,0.9,4.6,5.5,8.2,9.5l0.2,0.2l8.3,17.3l-0.2,23.6c-1.2,5.2-2.9,13.1-3,13.7c-0.1,0.9-0.7,6.1-1.2,10.5l-0.1,0.5l-27.1,14.5
				l-11.7,1.8l-18.9,1.8h-0.1l-24-2l-14.7-4.7c-2.7,0.2-28.2,2-32,1.2c-3.8-0.8-14.4-4-17.3-5c-3.2-1.2-8.3-8.9-8.6-10.2
				c-0.3-1.2-4.4-25.3-4.8-28.1l0-0.2l0-0.2L66.9,155.9z"/>
		</g>
		<g>
		</g>
	</g>
	<rect x="130.9" y="166.7" transform="matrix(0.7463 -0.6656 0.6656 0.7463 -79.1131 130.7457)" width="2" height="5"/>
	<rect x="81.7" y="200.3" transform="matrix(0.5582 -0.8297 0.8297 0.5582 -132.4108 158.6315)" width="2" height="6.6"/>
	<rect x="79.3" y="204.3" transform="matrix(0.6247 -0.7809 0.7809 0.6247 -131.8934 140.5794)" width="2" height="6.4"/>
	<rect x="157.3" y="115" transform="matrix(0.3162 -0.9487 0.9487 0.3162 -3.7138 230.9476)" width="2" height="6"/>
	<rect x="157.4" y="118.7" transform="matrix(0.5547 -0.8321 0.8321 0.5547 -31.0776 186.1339)" width="2" height="6.9"/>
	<rect x="194.6" y="192.2" transform="matrix(0.4671 -0.8842 0.8842 0.4671 -65.4838 277.6458)" width="6" height="2"/>
	<rect x="198.2" y="193.4" transform="matrix(0.5244 -0.8515 0.8515 0.5244 -69.0718 265.145)" width="9.2" height="2"/>
	<rect x="147.5" y="212.5" width="5.7" height="2"/>
	<rect x="149.4" y="215.3" transform="matrix(0.1219 -0.9925 0.9925 0.1219 -84.5032 340.7814)" width="2" height="5.7"/>
	<rect x="90.1" y="154.9" transform="matrix(0.2208 -0.9753 0.9753 0.2208 -79.6912 211.9559)" width="5.4" height="2"/>
	<path d="M96.7,151c-0.2,0.2-0.7,0.8-2.2,9.4l2,0.4c0.7-3.7,1.6-7.9,1.9-8.5c0,0,0,0-0.1,0.1L96.7,151z"/>
	<rect x="133.9" y="164.7" transform="matrix(0.7463 -0.6656 0.6656 0.7463 -77.0207 132.2352)" width="2" height="5"/>
</g>
</svg>
