<?xml version="1.0" encoding="utf-8"?>
<!-- Generator: Adobe Illustrator 19.2.1, SVG Export Plug-In . SVG Version: 6.00 Build 0)  -->
<svg version="1.0" id="Layer_1" xmlns="http://www.w3.org/2000/svg" xmlns:xlink="http://www.w3.org/1999/xlink" x="0px" y="0px"
	 width="288px" height="288px" viewBox="0 0 288 288" enable-background="new 0 0 288 288" xml:space="preserve">
<path fill="none" stroke="#000000" stroke-width="2" stroke-miterlimit="10" d="M143.2,185.9v-66.8c0,0-26.4-21.8-52.2-11.2v69.2
	C91,177.2,114.6,172.9,143.2,185.9z"/>
<path fill="none" stroke="#000000" stroke-width="2" stroke-miterlimit="10" d="M145.2,185.9l0-66.7c0,0,26.4-21.7,52.2-11.2l0,69.2
	C197.4,177.2,173.8,172.9,145.2,185.9z"/>
<polyline fill="none" stroke="#000000" stroke-width="2" stroke-miterlimit="10" points="91,114.2 87,114.2 87,185.2 136.3,185.2 
	131.3,189.4 143.2,189.4 145.2,189.4 157.1,189.4 152.1,185.2 201.4,185.2 201.4,114.2 197.4,114.2 "/>
<polyline fill="none" stroke="#000000" stroke-width="2" stroke-miterlimit="10" points="92.4,177 92.4,182 133.1,182 "/>
<polyline fill="none" stroke="#000000" stroke-width="2" stroke-miterlimit="10" points="194.5,177 194.5,182 155,182 "/>
<polygon fill="none" stroke="#000000" stroke-width="2" stroke-miterlimit="10" points="150,115.8 150,141.6 155,133.4 160,141.6 
	160,110.6 "/>
</svg>
