<?xml version="1.0" encoding="utf-8"?>
<!-- Generator: Adobe Illustrator 20.1.0, SVG Export Plug-In . SVG Version: 6.00 Build 0)  -->
<!DOCTYPE svg PUBLIC "-//W3C//DTD SVG 1.0//EN" "http://www.w3.org/TR/2001/REC-SVG-20010904/DTD/svg10.dtd">
<svg version="1.0" xmlns="http://www.w3.org/2000/svg" xmlns:xlink="http://www.w3.org/1999/xlink" x="0px" y="0px" width="288px"
	 height="288px" viewBox="0 0 288 288" enable-background="new 0 0 288 288" xml:space="preserve">
<g id="Fill">
	<g id="Layer_2_2_">
		<path fill="#26A9E0" d="M154.8,13.6c0,0-18,4-18.6,24c-0.6,14.8,6.6,19.9,10.2,21.6c1.3,0.6,2.1,0.7,2.1,0.7S130.3,33,154.8,13.6z
			"/>
		<path fill="#26A9E0" d="M140.2,255.1c2.4-33-0.8-114-0.8-114c7.8,5.8,23.7-0.8,23.7-0.8c-10.8,3.8-27.2-5.7-27.2-5.7
			c-2.3-3.6-2.3-3.6-2.3-3.6c-2.7-0.2-5.3,2.7-8,1.7l3.3,4.1l1.2,9.3l8.5,110.1l7.4,17.2l12-5L140.2,255.1z"/>
		<path fill="#26A9E0" d="M127.7,110.1c1,0.5-0.3,3.7,0,5c0,0,0.3,1.7,0.4,2c0.1,0,1.5,0.4,1.6,0.5c0.3,0.2-0.3,2,0,2.1
			c0.9,0.7-5.3,0.7-4.2,1.3c0.4,0.3,6.4,7.2,6.9,7.4c3.4-26.1,3.6-63.9,3.6-63.9l-7.1-0.5l0.4,33.7L127.7,110.1z"/>
		<polygon fill="#26A9E0" points="128.9,74.4 109.1,85.7 111.1,90.2 129.2,80.6 		"/>
	</g>
</g>
<g id="Lines">
	
		<ellipse transform="matrix(0.2563 -0.9666 0.9666 0.2563 78.1607 175.0944)" fill="none" stroke="#000000" stroke-width="2" stroke-miterlimit="10" cx="152.9" cy="36.8" rx="23.2" ry="16.5"/>
	<path fill="none" stroke="#000000" stroke-width="2" stroke-miterlimit="10" d="M147.1,12.6c0,0,7.1,5.5,21.5,6.8"/>
	<path fill="none" stroke="#000000" stroke-width="2" stroke-miterlimit="10" d="M143.9,15.3c0,0,12.1,9.1,27.3,7.9"/>
	<path fill="none" stroke="#000000" stroke-width="2" stroke-miterlimit="10" d="M141.4,18.5c0,0,14.8,12.7,30.6,8.4"/>
	<polyline fill="none" stroke="#000000" stroke-width="2" stroke-miterlimit="10" points="141.5,56 141.2,64.4 151.3,66 152.4,58.9 
			"/>
	<path fill="none" stroke="#000000" stroke-width="2" stroke-miterlimit="10" d="M127.7,117.2c0.8-12,1.9-35.2,1.3-53.7
		c0,0,21.2,0.7,41.3,7c0,0,7.8,11.8-3.7,53.1"/>
	<path fill="none" stroke="#000000" stroke-width="2" stroke-miterlimit="10" d="M129,63.5l-31.1,21c0,0,1.1,23.3,20.1,38l3.9-4.8
		c0,0-9.9-17.7-10.7-27.5l18.2-9.7"/>
	<path fill="none" stroke="#000000" stroke-width="2" stroke-miterlimit="10" d="M109.5,76.7c0,0-0.5,7.1,1.5,13.6"/>
	<polyline fill="none" stroke="#000000" stroke-width="2" stroke-miterlimit="10" points="121.4,117.5 129.7,117.5 129.7,119.6 
		125.5,120.9 133.6,130.9 125.6,132.7 117.8,122.5 	"/>
	<path fill="none" stroke="#000000" stroke-width="2" stroke-miterlimit="10" d="M168.4,129.4c0,0,29.4-25.9,2.7-57.9"/>
	<line fill="none" stroke="#000000" stroke-width="2" stroke-miterlimit="10" x1="172.7" y1="99.7" x2="182" y2="103.9"/>
	<polygon fill="none" stroke="#000000" stroke-width="2" stroke-miterlimit="10" points="155.6,119.1 155.6,121.7 159.4,124.2 
		150.3,126.1 154.2,133 168.4,129.4 168.4,123.9 	"/>
	<path fill="none" stroke="#000000" stroke-width="2" stroke-miterlimit="10" d="M164.3,131.2c-0.9,3.1-2,6.2-3.1,9.5
		c0,0-9.1,10.5-35.5-6c0,0,0,0-0.1-2"/>
	<path fill="none" stroke="#000000" stroke-width="2" stroke-miterlimit="10" d="M129.4,136.9l9.2,119.3h5.8c0,0,9.2-75,5.4-112.1"
		/>
	<path fill="none" stroke="#000000" stroke-width="2" stroke-miterlimit="10" d="M163.1,135.3c0,0,1.1,94.3-9.8,117.1h-4.9
		c0,0,2.4-74.1,2.2-75.3"/>
	<polygon fill="none" stroke="#000000" stroke-width="2" stroke-miterlimit="10" points="138.2,256.8 147.4,270.9 158,266.2 
		144.3,256.2 	"/>
	<polyline fill="none" stroke="#000000" stroke-width="2" stroke-miterlimit="10" points="148.4,252.4 148.4,256.5 164.2,262.6 
		172,255.1 153.3,252.4 	"/>
</g>
</svg>
