<?xml version="1.0" encoding="utf-8"?>
<!-- Generator: Adobe Illustrator 21.0.0, SVG Export Plug-In . SVG Version: 6.00 Build 0)  -->
<!DOCTYPE svg PUBLIC "-//W3C//DTD SVG 1.0//EN" "http://www.w3.org/TR/2001/REC-SVG-20010904/DTD/svg10.dtd">
<svg version="1.0" id="Layer_1" xmlns="http://www.w3.org/2000/svg" xmlns:xlink="http://www.w3.org/1999/xlink" x="0px" y="0px"
	 width="288px" height="288px" viewBox="0 0 288 288" enable-background="new 0 0 288 288" xml:space="preserve">
<ellipse transform="matrix(0.1057 -0.9944 0.9944 0.1057 89.3954 185.0954)" stroke="#000000" stroke-width="4" stroke-miterlimit="10" cx="147.6" cy="42.8" rx="22.9" ry="16.3"/>
<path stroke="#000000" stroke-width="4" stroke-miterlimit="10" d="M138.5,20.1c0,0,7.8,4.3,22.1,3.4"/>
<path stroke="#000000" stroke-width="4" stroke-miterlimit="10" d="M135.6,23.2c0,0,13.2,7.1,27.9,3.7"/>
<path stroke="#000000" stroke-width="4" stroke-miterlimit="10" d="M133.6,26.7c0,0,16.3,10.2,31.1,3.6"/>
<polyline stroke="#000000" stroke-width="4" stroke-miterlimit="10" points="141.1,64.4 140.3,70.6 150.5,71.6 151.9,64.4 "/>
<path stroke="#000000" stroke-width="4" stroke-miterlimit="10" d="M160.5,121c0.3-16.5,0.9-37.8,1.7-47.4c0,0-26.2-7.3-37.7,1.3
	c0,0-0.3,23.4-0.5,42.3"/>
<path stroke="#000000" stroke-width="4" stroke-miterlimit="10" d="M124.6,75l-20.3,18.7c0,0,0.5,23.8,21.5,35.3l1.1-7.3
	c0,0-9.6-13.1-14.8-35.1L124.6,75z"/>
<path stroke="#000000" stroke-width="4" stroke-miterlimit="10" d="M115.2,98.8l8.5-5.5L115.2,98.8z"/>
<polygon stroke="#000000" stroke-width="4" stroke-miterlimit="10" points="126.4,129.9 138.4,134.1 144.5,128.9 132.8,124 
	135.8,121 134.8,119 127.5,122 "/>
<path stroke="#000000" stroke-width="4" stroke-miterlimit="10" d="M164,127.5c0,0,20.2-27.6-1.8-51.3l-2.1,14.5l-5.1,31.7
	L164,127.5z"/>
<line stroke="#000000" stroke-width="4" stroke-miterlimit="10" x1="161.1" y1="97.8" x2="172.3" y2="99.6"/>
<polygon stroke="#000000" stroke-width="4" stroke-miterlimit="10" points="151.3,117.4 151.3,120 155,122.4 146,124.3 149.9,131.1 
	164,127.5 164,122.1 "/>
<path stroke="#000000" stroke-width="4" stroke-miterlimit="10" d="M124,117.2c-0.1,7.6-0.3,24-0.3,24s14.8,10.5,36.4,2
	c0,0,0.3-13.7,0.4-22.2L124,117.2z"/>
<path stroke="#000000" stroke-width="4" stroke-miterlimit="10" d="M124.8,141.8l10,117.9h5.7c0,0,9.2-77.2,5.5-113.8"/>
<path stroke="#000000" stroke-width="4" stroke-miterlimit="10" d="M160.1,140.2c0,0,0.1,93.3-10.7,115.8h-4.9
	c0,0,1.7-108.9,1.5-110.1L160.1,140.2z"/>
<polygon stroke="#000000" stroke-width="4" stroke-miterlimit="10" points="134.4,260.4 143.5,274.3 154,269.7 140.5,259.7 "/>
<polyline stroke="#000000" stroke-width="4" stroke-miterlimit="10" points="144.5,256 144.5,260 160.2,266.1 167.9,258.6 
	149.4,256 "/>
<polygon stroke="#000000" stroke-width="4" stroke-miterlimit="10" points="112.1,86.6 124.6,75 124.7,93.3 115.2,98.8 "/>
</svg>
