<?xml version="1.0" encoding="utf-8"?>
<!-- Generator: Adobe Illustrator 21.0.0, SVG Export Plug-In . SVG Version: 6.00 Build 0)  -->
<!DOCTYPE svg PUBLIC "-//W3C//DTD SVG 1.0//EN" "http://www.w3.org/TR/2001/REC-SVG-20010904/DTD/svg10.dtd">
<svg version="1.0" id="Layer_1" xmlns="http://www.w3.org/2000/svg" xmlns:xlink="http://www.w3.org/1999/xlink" x="0px" y="0px"
	 width="288px" height="288px" viewBox="0 0 288 288" enable-background="new 0 0 288 288" xml:space="preserve">
<ellipse transform="matrix(0.9912 -0.1324 0.1324 0.9912 -3.7243 17.589)" stroke="#000000" stroke-width="4" stroke-miterlimit="10" cx="130.4" cy="36.8" rx="16.5" ry="23.2"/>
<path stroke="#000000" stroke-width="4" stroke-miterlimit="10" d="M115.9,16.7c0,0,8.7,2.4,22.5-1.9"/>
<path stroke="#000000" stroke-width="4" stroke-miterlimit="10" d="M113.9,20.4c0,0,14.7,3.8,28.3-3.1"/>
<path stroke="#000000" stroke-width="4" stroke-miterlimit="10" d="M112.8,24.3c0,0,18.5,6.1,31.5-3.9"/>
<polyline stroke="#000000" stroke-width="4" stroke-miterlimit="10" points="127.2,58.9 129.8,65.9 140.1,64.4 138.4,57.5 "/>
<path stroke="#000000" stroke-width="4" stroke-miterlimit="10" d="M124.5,113.7c-2.7-11.7-6.8-27-12.8-44.5c0,0,20.5-5.5,41.6-5.3
	c0,0,10.9,9,11.9,51.9"/>
<path stroke="#000000" stroke-width="4" stroke-miterlimit="10" d="M111.7,69.2l-17.9,32.1c0,0,12.8,19.5,36.6,22.5l0.9-6.1
	c0,0-17.5-10.2-23.2-18.2l8.5-15.2"/>
<path stroke="#000000" stroke-width="4" stroke-miterlimit="10" d="M100.4,89.5c0,0,2.7,5.5,7.7,10.1"/>
<polyline stroke="#000000" stroke-width="4" stroke-miterlimit="10" points="131.2,117.7 138.5,113.8 139.5,115.7 136.4,118.8 
	148.3,123.8 142.1,129.1 130.4,123.8 "/>
<path stroke="#000000" stroke-width="4" stroke-miterlimit="10" d="M167.9,122.4c0,0,21.3-32.9-13-56.5l4.5,47.8L167.9,122.4z"/>
<line stroke="#000000" stroke-width="4" stroke-miterlimit="10" x1="164" y1="92.6" x2="174.1" y2="94.1"/>
<polygon stroke="#000000" stroke-width="4" stroke-miterlimit="10" points="155.1,112.1 155.1,114.7 158.9,117.2 149.8,119.1 
	153.7,126 167.9,122.4 167.9,116.9 "/>
<path stroke="#000000" stroke-width="4" stroke-miterlimit="10" d="M165.2,123.7c0,3.2-0.1,6.5-0.2,10c0,0-5.7,12.7-35.7,4.6
	c0,0-0.7-5.6-2.8-15.5l-2-9.1l40.7,2.1L165.2,123.7z"/>
<path stroke="#000000" stroke-width="4" stroke-miterlimit="10" d="M129.3,138.3l9.2,117.8h5.8c0,0,9.3-78,5.5-115.1"/>
<path stroke="#000000" stroke-width="4" stroke-miterlimit="10" d="M164,135.2c0,0,0.1,94.3-10.8,117.1h-4.9
	c0,0,1.7-110.1,1.5-111.3L164,135.2z"/>
<polygon stroke="#000000" stroke-width="4" stroke-miterlimit="10" points="138.1,256.7 147.3,270.8 157.9,266.1 144.2,256.1 "/>
<polyline stroke="#000000" stroke-width="4" stroke-miterlimit="10" points="148.3,252.3 148.3,256.4 164.1,262.5 171.9,255 
	153.2,252.3 "/>
</svg>
