<?xml version="1.0" encoding="utf-8"?>
<!-- Generator: Adobe Illustrator 19.2.1, SVG Export Plug-In . SVG Version: 6.00 Build 0)  -->
<svg version="1.0" xmlns="http://www.w3.org/2000/svg" xmlns:xlink="http://www.w3.org/1999/xlink" x="0px" y="0px" width="288px"
	 height="288px" viewBox="0 0 288 288" enable-background="new 0 0 288 288" xml:space="preserve">
<g id="Layer_2">
	<path fill="#26A9E0" d="M125.8,13.7c0,0-16.2,8.9-11.2,28.2c3.6,14.4,11.9,17.3,15.8,17.9c1.4,0.2,2.2,0.1,2.2,0.1
		S107.7,39.1,125.8,13.7z"/>
	<path fill="#26A9E0" d="M140.1,255c2.4-33-0.8-114-0.8-114c7,0.5,16.8-1.2,16.8-1.2c-7.8,0.2-20.3-5.3-20.3-5.3
		c-0.2-3-0.6-6.1-1-9.2c-2.7-0.2-5.8-0.7-8.5-1.7l2.5,11.6L130,146l8.5,110.1l7.4,17.2l12-5L140.1,255z"/>
	<path fill="#26A9E0" d="M124.2,113.8c1.1,0.2,2.2,0.8,2.9,1.9c0,0,0.1,0.1,0.2,0.3c0.1,0,0.2,0.1,0.3,0.1c0.3,0.1,0.8,0.3,1.1,0.4
		c1.1,0.4,2.3,0.7,3.5,0.9c0.5,0.1,0.9,0.2,1.4,0.3c-5.2-25.8-16.3-49.8-16.3-49.8l-5.5,1.3l9.8,32.3L124.2,113.8z"/>
	<polygon fill="#26A9E0" points="114.8,79.4 104.2,96.5 108.1,99.5 117.8,84.3 	"/>
</g>
<g id="Layer_1">
	
		<ellipse transform="matrix(0.9912 -0.1324 0.1324 0.9912 -3.7237 17.5891)" fill="none" stroke="#000000" stroke-width="2" stroke-miterlimit="10" cx="130.4" cy="36.8" rx="16.5" ry="23.2"/>
	<path fill="none" stroke="#000000" stroke-width="2" stroke-miterlimit="10" d="M115.9,16.7c0,0,8.7,2.4,22.5-1.9"/>
	<path fill="none" stroke="#000000" stroke-width="2" stroke-miterlimit="10" d="M113.9,20.4c0,0,14.7,3.8,28.3-3.1"/>
	<path fill="none" stroke="#000000" stroke-width="2" stroke-miterlimit="10" d="M112.8,24.3c0,0,18.5,6.1,31.5-3.9"/>
	<polyline fill="none" stroke="#000000" stroke-width="2" stroke-miterlimit="10" points="127.2,58.9 129.8,65.9 140.1,64.4 
		138.4,57.5 	"/>
	<path fill="none" stroke="#000000" stroke-width="2" stroke-miterlimit="10" d="M124.5,113.7c-2.7-11.7-6.8-27-12.8-44.5
		c0,0,20.5-5.5,41.6-5.3c0,0,10.9,9,11.9,51.9"/>
	<path fill="none" stroke="#000000" stroke-width="2" stroke-miterlimit="10" d="M111.7,69.2l-17.9,32.1c0,0,12.8,19.5,36.6,22.5
		l0.9-6.1c0,0-17.5-10.2-23.2-18.2l8.5-15.2"/>
	<path fill="none" stroke="#000000" stroke-width="2" stroke-miterlimit="10" d="M100.4,89.5c0,0,2.7,5.5,7.7,10.1"/>
	<polyline fill="none" stroke="#000000" stroke-width="2" stroke-miterlimit="10" points="131.2,117.7 138.5,113.8 139.5,115.7 
		136.4,118.8 148.3,123.8 142.1,129.1 130.4,123.8 	"/>
	<path fill="none" stroke="#000000" stroke-width="2" stroke-miterlimit="10" d="M167.9,122.4c0,0,21.3-32.9-13-56.5"/>
	<line fill="none" stroke="#000000" stroke-width="2" stroke-miterlimit="10" x1="164" y1="92.6" x2="174.1" y2="94.1"/>
	<polygon fill="none" stroke="#000000" stroke-width="2" stroke-miterlimit="10" points="155.1,112.1 155.1,114.7 158.9,117.2 
		149.8,119.1 153.7,126 167.9,122.4 167.9,116.9 	"/>
	<path fill="none" stroke="#000000" stroke-width="2" stroke-miterlimit="10" d="M165.2,123.7c0,3.2-0.1,6.5-0.2,10
		c0,0-5.7,12.7-35.7,4.6c0,0-0.7-5.6-2.8-15.5"/>
	<path fill="none" stroke="#000000" stroke-width="2" stroke-miterlimit="10" d="M129.3,138.3l9.2,117.8h5.8c0,0,9.3-78,5.5-115.1"
		/>
	<path fill="none" stroke="#000000" stroke-width="2" stroke-miterlimit="10" d="M164,135.2c0,0,0.1,94.3-10.8,117.1h-4.9
		c0,0,2.4-74.1,2.2-75.3"/>
	<polygon fill="none" stroke="#000000" stroke-width="2" stroke-miterlimit="10" points="138.1,256.7 147.3,270.8 157.9,266.1 
		144.2,256.1 	"/>
	<polyline fill="none" stroke="#000000" stroke-width="2" stroke-miterlimit="10" points="148.3,252.3 148.3,256.4 164.1,262.5 
		171.9,255 153.2,252.3 	"/>
</g>
<g id="Layer_3">
	<path opacity="0" fill="none" stroke="#26A9E0" stroke-width="25" stroke-miterlimit="10" d="M110.7,15.7
		c10.1,0.4,20.2,0.7,30.3,1.1c-11.2,6.8-23.2,12.4-35.7,16.6c9.9,1.2,19.8,2.4,29.7,3.6c-12.3,2-24.3,5.6-35.7,10.6
		c13.9-0.5,27.8-0.4,41.6,0.4c-16.4,6.6-33.5,11.4-51,14.1c19,1.6,38.2,0.8,57.3,0C128,69.5,108.6,76.6,89,83.3
		c18.6-0.7,37.2-0.1,55.7,1.9c-17,5.3-33.9,10.5-50.9,15.8c18.9,2.1,37.9,3.6,56.8,4.6c-17.8,4.5-35.6,9-53.4,13.5
		c-3.8,1-7.9,2.1-10.4,5.2c21.3,2.2,42.7,3.4,64.2,3.6c-12.8,6.1-25.7,12.3-38.5,18.4c15.8-0.4,31.6,0.3,47.3,2
		c-16.9,4.4-33.5,10.2-49.5,17.3c12.7,0.5,25.4,1,38.1,1.5c-9,1.6-18,3.5-26.8,5.9c-5,1.3-10.8,3.6-12,8.6
		c13.9,0.8,27.7,1.5,41.6,2.3c-6.5,2.2-13.5,2.8-20.2,4.3c-6.7,1.5-13.5,4.3-17.7,9.8c8.1,2,16.4,3.1,24.7,3.4
		c-5.7,2.9-11.4,5.8-17,8.7c-2.7,1.4-5.9,3.9-5,6.8c12.8,0.6,25.6,1.1,38.4,1.4c-7,2.8-14.1,5.5-21.1,8.3c-3.6,1.4-7.8,3.4-8.5,7.3
		c9.8,0.7,19.5,1.4,29.3,2.1c-7.1,3.7-14.3,7.4-21.4,11.1c-2.4,1.3-5.1,2.9-5.6,5.5c6.5,0.4,13.1,0.9,19.6,1.3
		c-5.6,1-11.3,2.1-16.9,3.1c-2.9,0.5-6.5,1.9-6.3,4.8c9.7,2.2,19.5,3.9,29.3,5.1c-5.1,0-10.3,0.9-15.1,2.6
		c8.8,3.7,19.4,2.7,27.4-2.6"/>
</g>
</svg>
