<?xml version="1.0" encoding="utf-8"?>
<!-- Generator: Adobe Illustrator 19.2.1, SVG Export Plug-In . SVG Version: 6.00 Build 0)  -->
<svg version="1.0" id="Layer_1" xmlns="http://www.w3.org/2000/svg" xmlns:xlink="http://www.w3.org/1999/xlink" x="0px" y="0px"
	 width="288px" height="288px" viewBox="0 0 288 288" enable-background="new 0 0 288 288" xml:space="preserve">
<path fill="none" stroke="#000000" stroke-width="2" stroke-miterlimit="10" d="M102.3,110.6c0,0,29.4-22.1,52.9-0.8
	s24.9,24.6,30.7,24.3c0,0,3.2-9.9,9.5-9.3s10,9.5,10,9.5l10,6.8h-18.5c0,0-29.3,41.3-69.2,23.4s-38-26.1-61.6-6.4"/>
<path fill="none" stroke="#000000" stroke-width="2" stroke-miterlimit="10" d="M171.7,135.6c0,0-25-24.7-44.8-22.5
	S99.4,137.3,69.2,132"/>
<path fill="none" stroke="#000000" stroke-width="2" stroke-miterlimit="10" d="M166.9,142.3c0,0-16-19.9-39.3-16.9
	c-23.3,3-18.8,11.2-39.2,11.7"/>
</svg>
