<?xml version="1.0" encoding="utf-8"?>
<!-- Generator: Adobe Illustrator 19.2.1, SVG Export Plug-In . SVG Version: 6.00 Build 0)  -->
<svg version="1.0" xmlns="http://www.w3.org/2000/svg" xmlns:xlink="http://www.w3.org/1999/xlink" x="0px" y="0px" width="288px"
	 height="288px" viewBox="0 0 288 288" enable-background="new 0 0 288 288" xml:space="preserve">
<g id="Layer_2">
	<polygon fill="#27AAE1" points="107.9,89.7 66.7,141.3 65.8,157.1 111.4,109.6 109.6,90.5 	"/>
	<path fill="#27AAE1" d="M222.5,51.7c0,0,12.2,23.4-1.5,36.2c0,0,13.2-2.5,12.1-20.9C232.4,54.6,222.5,51.7,222.5,51.7z"/>
	<path fill="#27AAE1" d="M231,94l-3.1,50.6l-14.1,3.7l14,1l0.8,89.1l5.9,14.5l12.4-2.8l-15.1-12.4l1.6-89.5l2.6-27.8
		c0,0,8.2,15.2,8.9,36.5l-2.3,7.2c0,0,1.3,1.9,1.8,1.3c0.5-0.7,3.6-7.9,3.6-7.9s-1.2-28-11.9-46.9l1.1-15.8L231,94z"/>
	<polygon fill="#27AAE1" points="217,149.6 215.3,237 198,245 213.8,251.2 218,237 221,149.6 	"/>
</g>
<g id="Layer_1">
	<path fill="none" stroke="#000000" stroke-width="2" stroke-miterlimit="10" d="M94.2,79.4h-8.8c-6.6,0-12-5.4-12-12V43.6
		c0-6.6,5.4-12,12-12h8.8c6.6,0,12,5.4,12,12v23.8C106.2,74,100.8,79.4,94.2,79.4z"/>
	<path fill="none" stroke="#000000" stroke-width="2" stroke-miterlimit="10" d="M73.5,58.7c0,0,8.9,0.7,13-0.7
		c4.1-1.3,4.4-0.7,8.5,0.7c4.1,1.4,11.3,0.2,11.3,0.2"/>
	<path fill="none" stroke="#000000" stroke-width="2" stroke-miterlimit="10" d="M73.5,51.7c0,0-7.9,4.1,0,9.6"/>
	<path fill="none" stroke="#000000" stroke-width="2" stroke-miterlimit="10" d="M106.2,51.7c0,0,7.6,6.3,0,9.6"/>
	<path fill="none" stroke="#000000" stroke-width="2" stroke-miterlimit="10" d="M75.7,88.6c-10-0.6-22.1-6.4-22.1-6.4
		c3.1-6.9,5.8-29.2,5.8-29.2c1.5-39,29.9-30.7,29.9-30.7s28.4-8.5,24.5,29.5c0,0,3.1,26.4,11.3,31.3c0,0-16.5,6.5-23.2,5"/>
	<polyline fill="none" stroke="#000000" stroke-width="2" stroke-miterlimit="10" points="85.9,79.4 85.2,86.5 95.1,86.5 94.1,79.4 
			"/>
	<path fill="none" stroke="#000000" stroke-width="2" stroke-miterlimit="10" d="M109.6,90.1c-16.8-6.6-41.1,0-41.1,0
		s-2,103.1-9.9,125.6c0,0,32.2,22.2,62.6,0L109.6,90.1z"/>
	<path fill="none" stroke="#000000" stroke-width="2" stroke-miterlimit="10" d="M68.5,90.1c0,0-21.6,36.3-35.6,50.4l6.6,31.8
		c0,0,25.3-40.1,28-52.4"/>
	<polyline fill="none" stroke="#000000" stroke-width="2" stroke-miterlimit="10" points="32.9,143.8 22,150 14.4,163.9 26.2,162.9 
		35.2,151.5 	"/>
	<polyline fill="none" stroke="#000000" stroke-width="2" stroke-miterlimit="10" points="32,155.6 32.9,161.4 35.2,161.4 36,155.6 
			"/>
	<path fill="none" stroke="#000000" stroke-width="2" stroke-miterlimit="10" d="M109.6,91.3c0,0,13.7,30.9,25.1,26.1
		c11.4-4.8,21.5-9.3,21.5-9.3v35.6c0,0-36.1,3.2-44-28.1"/>
	<polyline fill="none" stroke="#000000" stroke-width="2" stroke-miterlimit="10" points="156.2,109.9 163.4,102.9 165.6,105 
		164,109.9 181,109.9 176,114.9 156.2,116.7 	"/>
	<line fill="none" stroke="#000000" stroke-width="2" stroke-miterlimit="10" x1="106.2" y1="89" x2="66.7" y2="136.7"/>
	<line fill="none" stroke="#000000" stroke-width="2" stroke-miterlimit="10" x1="111.4" y1="108.1" x2="65.3" y2="157.5"/>
	<path fill="none" stroke="#000000" stroke-width="2" stroke-miterlimit="10" d="M76.6,223.8c0.5,6.3,1.1,13.1,1.1,13.1h4.2
		c0,0,1-6.5,2-12.2"/>
	<path fill="none" stroke="#000000" stroke-width="2" stroke-miterlimit="10" d="M96.1,225.3c0.6,5.6,1.3,11.6,1.3,11.6h5.3
		c0,0,0.4-7,0.7-13.2"/>
	<polyline fill="none" stroke="#000000" stroke-width="2" stroke-miterlimit="10" points="77.6,237 57,247.7 77.6,250.6 81.8,237 	
		"/>
	<polyline fill="none" stroke="#000000" stroke-width="2" stroke-miterlimit="10" points="97.4,237 98.3,251.9 117.3,247.7 
		102.7,237 	"/>
	<path fill="none" stroke="#000000" stroke-width="2" stroke-miterlimit="10" d="M233.2,69.8c0,10-5.4,18.1-12.1,18.1
		c-1.2,0-2.3-0.2-3.3-0.7c-5.1-2.2-8.8-9.1-8.8-17.4c0-10,5.4-18.1,12.1-18.1C227.7,51.7,233.2,59.8,233.2,69.8z"/>
	<path fill="none" stroke="#000000" stroke-width="2" stroke-miterlimit="10" d="M211.2,54.6c0,0,10.7,2.1,17.1,0"/>
	<path fill="none" stroke="#000000" stroke-width="2" stroke-miterlimit="10" d="M208.9,57.4c0,0,12.6,2.9,21,0"/>
	<path fill="none" stroke="#000000" stroke-width="2" stroke-miterlimit="10" d="M208.9,60c0,0,7,5.8,22.5,0.5"/>
	<line fill="none" stroke="#000000" stroke-width="2" stroke-miterlimit="10" x1="217.5" y1="93.7" x2="217.7" y2="87.2"/>
	<line fill="none" stroke="#000000" stroke-width="2" stroke-miterlimit="10" x1="224.4" y1="87.2" x2="224.4" y2="93.6"/>
	<path fill="none" stroke="#000000" stroke-width="2" stroke-miterlimit="10" d="M204.9,94.8c0,0,17.8-2.7,32.2,0l-3.9,54.9
		l-24.3-1.3L204.9,94.8z"/>
	<path fill="none" stroke="#000000" stroke-width="2" stroke-miterlimit="10" d="M204.9,94.8c0,0-6.1,41.4-20,48.9l2.4,4.8
		c0,0,13.7-4.8,19.8-23.9"/>
	<line fill="none" stroke="#000000" stroke-width="2" stroke-miterlimit="10" x1="196.8" y1="126.2" x2="202.2" y2="133.4"/>
	<path fill="none" stroke="#000000" stroke-width="2" stroke-miterlimit="10" d="M184,143.7l-9.7,4.8l-3.7,10.7c0,0,3.8,2.2,4.2,2.2
		s7.5-9.5,7.5-9.5l1.6,4.5l3.1-0.6l0.2-7.3"/>
	<path fill="none" stroke="#000000" stroke-width="2" stroke-miterlimit="10" d="M237.1,94.8c0,0,13.8,25.5,13.6,62.8h-5.9
		c0,0-1.4-23.5-9.5-38"/>
	<polyline fill="none" stroke="#000000" stroke-width="2" stroke-miterlimit="10" points="244.8,157.5 242.1,163.9 244.8,165.8 
		246.6,163.6 248.8,172.7 252.8,175.5 251.3,157.5 	"/>
	<line fill="none" stroke="#000000" stroke-width="2" stroke-miterlimit="10" x1="239.9" y1="130.7" x2="246.6" y2="121.7"/>
	<polyline fill="none" stroke="#000000" stroke-width="2" stroke-miterlimit="10" points="208.9,148.3 212.1,237 218,237 221,149.6 
		225.5,238.5 231.4,238.2 233.2,149.6 	"/>
	<polyline fill="none" stroke="#000000" stroke-width="2" stroke-miterlimit="10" points="212.1,237 196.8,242.7 210.8,247.7 
		218,237 	"/>
	<polyline fill="none" stroke="#000000" stroke-width="2" stroke-miterlimit="10" points="225.5,238.5 230.3,251.9 243.3,248.8 
		231.4,238.2 	"/>
</g>
<g id="Layer_3">
	<path opacity="0" fill="none" stroke="#27AAE1" stroke-width="25" stroke-miterlimit="10" d="M91.7,91.7c8.6,0,17.2,0.5,25.8,1.3
		c-2.3,3.6-7,4.5-11.2,5.2c-11.2,2-22.2,5-32.9,8.9c12.8,0.9,25.6,1.7,38.4,2.6c-13.3,3.8-27.8,3.1-40.4,8.6
		c11.5,0.4,23,0.8,34.5,1.2c-13.1,4.6-26.7,7.8-40.4,9.7c10,0.4,20,1.1,29.9,2.2c-11.4,2.2-22.8,4.9-34,8.1
		c-2.2,0.6-4.7,1.4-5.8,3.4c10.5,7.1,23.9,9.8,36.3,7.3"/>
	<path opacity="0" fill="none" stroke="#27AAE1" stroke-width="25" stroke-miterlimit="10" d="M217.6,52.2c5.5,3.5,12.8,2.9,18.6,6
		c-6.3,3-12.6,6-18.8,9c6.1,0.8,12.2,1.6,18.3,2.4c1.2,0.2,2.5,0.4,3.1,1.5c-7,4.6-16,4.4-23.7,7.5c4.7-0.1,9.4,0.5,13.9,1.7
		c-6.4,1-12.6,2.7-18.7,4.8c9,0.3,18.1,0.6,27.1,0.9"/>
	<path opacity="0" fill="none" stroke="#27AAE1" stroke-width="25" stroke-miterlimit="10" d="M222,95.1c10.3-0.3,20.6,1.2,30.3,4.6
		c-6.9,3.8-14.3,6.6-22,8.2c1.5,0.9,3,1.9,4.6,2.8c-4.3,2.2-8.6,4.4-12.9,6.6c6.2,1.5,12.4,2.9,18.5,4.4c-7.8,2.7-15.7,5.1-23.7,7.2
		c7.3,1.4,14.7,2.2,22.1,2.5c-4.9,1.5-9.8,3.1-14.7,4.6c7.4-0.2,14.7-0.3,22.1-0.5c-11.4,1-22.7,4.1-33,9.1c9.3,2,18.6,3.9,27.8,5.9
		c-9.9,2.1-19.7,4.1-29.6,6.2c14.5-0.5,29,0,43.4,1.3c-3.8,3.6-9.8,2.8-15,2.8c-8.7-0.1-17.4,2.5-24.6,7.4
		c5.4,0.6,10.7,1.8,15.8,3.8c-9,2.1-18.2,4.3-25.9,9.3c8.8,1.8,17.6,3.1,26.5,4c-7.2,4.4-17.3,4.2-22.5,10.8
		c9.6,0.9,19.3,1.2,29,1.1c-9.3,4.9-21.4,3.3-29.5,9.9c6.8,1.3,13.7,2.3,20.7,2.9c-6.6,3.6-15.6,3-20.6,8.6
		c8.4,0.9,16.9,1.2,25.4,0.7c-9.6,2.1-19.1,4.6-28.5,7.5c-2.6,0.8-5.7,2.1-6.1,4.9c9.8,1.8,19.9,1.6,29.9,1.5
		c-9.4,0.9-18.7,2.9-27.5,6.1c13,0.6,26.1,1.1,39.1,1.7c-11.5,1.1-23,2.2-34.5,3.3c-0.5,1.4,1.4,2.3,2.9,2.5
		c10.4,1.3,21,1.8,31.5,1.4"/>
</g>
</svg>
