<?xml version="1.0" encoding="utf-8"?>
<!-- Generator: Adobe Illustrator 19.2.1, SVG Export Plug-In . SVG Version: 6.00 Build 0)  -->
<svg version="1.0" xmlns="http://www.w3.org/2000/svg" xmlns:xlink="http://www.w3.org/1999/xlink" x="0px" y="0px" width="288px"
	 height="288px" viewBox="0 0 288 288" enable-background="new 0 0 288 288" xml:space="preserve">
<g id="Layer_2">
	<path fill="#27AAE1" d="M119.8,132.6c-0.2-0.2-0.5-0.4-0.7-0.7c-0.6-0.3-1.1-0.8-1.7-1.3c-0.2-0.2-0.4-0.5-0.5-0.8
		c-1.6-1.5-3.3-2.8-5-4.1c-4.9,5.7-10.2,11.2-15.7,16l-2.8,18.4l27.4-26.7l0,0C120.4,133.1,120.1,132.9,119.8,132.6z"/>
	<path fill="#27AAE1" d="M140.7,84.8c0,0-5.9,10.5-15.2,23.5c3,0.9,6.1,3.3,7.9,5.5c0.3,0.4,0.6,0.8,0.8,1.2l7.4-10.1l0.6-20.1
		L140.7,84.8z"/>
	<path fill="#27AAE1" d="M174.7,55.9c0,0-12,23.4,3.1,41c0,0-12.3-6.6-11.3-22.4C167.5,58.7,174.7,55.9,174.7,55.9z"/>
	<path fill="#27AAE1" d="M155.5,123c0.3,0,0.5,0.1,0.8,0.1c0.8-1.8,1.6-3.4,2.7-4.5l-0.8-13c0,0-3.5,6.7-6.2,17.4
		C153.1,122.9,154.3,122.9,155.5,123z"/>
	<path fill="#27AAE1" d="M152.3,149.3c-0.6,0.2-1.4,0.2-2.3-0.1c-0.4-0.2-0.7-0.4-1-0.6c0,2.6,0.2,5.3,0.5,8.1l2.7,0.6
		C152.3,157.3,152.2,154,152.3,149.3z"/>
	<path fill="#27AAE1" d="M161,122.8l-0.1,6.2c1-0.7,2-1.1,3.1-1.3l-2-41l-3.9,1.6l0.8,34.1L161,122.8z"/>
	<path fill="#27AAE1" d="M165.2,151.4l-0.8-15.6c-0.8,0-1.7-0.1-2.6-0.2c-0.4-0.1-0.7-0.2-1-0.4l-0.2,16l-1.7,0.1v2.7l2.4,0.6
		l5.1,79.8L149,252l17.8,2.2l3.2-19.7l2.1-78.4l19.5-0.3L165.2,151.4z"/>
	<polygon fill="#27AAE1" points="185.4,156.1 192.5,234.5 210.5,249.6 191,252 189.4,234.5 179.9,156.1 	"/>
</g>
<g id="Layer_1">
	<path fill="none" stroke="#000000" stroke-width="2" stroke-miterlimit="10" d="M129.6,76.5l-6.5-0.9c-6.5-1-11.1-7.1-10.1-13.6
		l3.2-21.9c1-6.5,7.1-11.1,13.6-10.1l6.5,0.9c6.5,1,11.1,7.1,10.1,13.6l-3.2,21.9C142.3,72.9,136.1,77.5,129.6,76.5z"/>
	<path fill="none" stroke="#000000" stroke-width="2" stroke-miterlimit="10" d="M114.1,54.8c0,0,8.2,2.5,15.1,2.2
		c6.9-0.3,10.2,2.6,14.4,3.7"/>
	<path fill="none" stroke="#000000" stroke-width="2" stroke-miterlimit="10" d="M114.9,49.3c0,0-5.6,2.4-1,7.1"/>
	<path fill="none" stroke="#000000" stroke-width="2" stroke-miterlimit="10" d="M116.4,80c-3.8,0.1-17.8-6.7-17.8-6.7
		s0.9-1.5,7.9-28.8c7-27.4,27.6-18.8,27.6-18.8s13.4-1.1,15.8,12.7c2.4,13.7-1.3,40-1.3,40s-10.9,3.4-14.6,3.4"/>
	<polyline fill="none" stroke="#000000" stroke-width="2" stroke-miterlimit="10" points="121.8,75.2 120.4,80.6 131.9,82 
		132.9,76.8 	"/>
	<path fill="none" stroke="#000000" stroke-width="2" stroke-miterlimit="10" d="M140.4,145.3c-0.4,31,0,64.1,3.4,73
		c0,0-30.5,7.1-58.7-4.5l20.4-133.2c0,0,20.4-1.8,36.6,4.2c0,0-0.6,14.2-1.2,33.3"/>
	<path fill="none" stroke="#000000" stroke-width="2" stroke-miterlimit="10" d="M111.8,85.8c0,0,16,38.4,49.6,36.9v28.7
		c0,0-53.7-7.3-56.1-46.2"/>
	<polyline fill="none" stroke="#000000" stroke-width="2" stroke-miterlimit="10" points="161.4,127.6 171.8,123.7 185.4,127.6 
		185.4,137.3 170.9,137.3 161.4,135.9 	"/>
	<path fill="none" stroke="#000000" stroke-width="2" stroke-miterlimit="10" d="M136.9,83.6c0,0-5.4,9-13.3,20.4"/>
	<path fill="none" stroke="#000000" stroke-width="2" stroke-miterlimit="10" d="M110.3,122c-4.4,5.5-9,10.8-13.5,15.3"/>
	<path fill="none" stroke="#000000" stroke-width="2" stroke-miterlimit="10" d="M135.7,114.5c2.5-3.8,4.5-7.5,5.8-10.9"/>
	<path fill="none" stroke="#000000" stroke-width="2" stroke-miterlimit="10" d="M93.3,160.1c0,0,14.2-12.2,27.4-26.7"/>
	<polyline fill="none" stroke="#000000" stroke-width="2" stroke-miterlimit="10" points="103.4,218.9 104.8,236.5 110.8,236.5 
		114.4,220.2 	"/>
	<polyline fill="none" stroke="#000000" stroke-width="2" stroke-miterlimit="10" points="124.9,220.4 126.6,235.8 132.9,235.8 
		134.2,219.8 	"/>
	<polyline fill="none" stroke="#000000" stroke-width="2" stroke-miterlimit="10" points="110.8,236.5 125.7,252 108.9,253.3 
		104.8,236.5 	"/>
	<polyline fill="none" stroke="#000000" stroke-width="2" stroke-miterlimit="10" points="126.6,235.8 134.2,249.6 149.6,243.9 
		132.9,235.8 	"/>
	<ellipse fill="none" stroke="#000000" stroke-width="2" stroke-miterlimit="10" cx="179.9" cy="75.7" rx="13.4" ry="21.4"/>
	<path fill="none" stroke="#000000" stroke-width="2" stroke-miterlimit="10" d="M170,55.9c0,0,11.6,6,19.1,2.3"/>
	<path fill="none" stroke="#000000" stroke-width="2" stroke-miterlimit="10" d="M168,60.1c0,0,13.2,7.7,23.7,2.5"/>
	<path fill="none" stroke="#000000" stroke-width="2" stroke-miterlimit="10" d="M166.5,64.1c0,0,14.4,6.6,26.7,2.7"/>
	<path fill="none" stroke="#000000" stroke-width="2" stroke-miterlimit="10" d="M165.2,68.3c0,0,17.7,7.1,29.4,1.4"/>
	<path fill="none" stroke="#000000" stroke-width="2" stroke-miterlimit="10" d="M159,123c0-17,0-34.7,0-34.7s3.3-2.2,9-3.5"/>
	<path fill="none" stroke="#000000" stroke-width="2" stroke-miterlimit="10" d="M198.3,98c0,18.5,0,57.4,0,57.4s-26.2,2.4-39.4-1.2
		c0,0,0-1.1,0-2.9"/>
	<path fill="none" stroke="#000000" stroke-width="2" stroke-miterlimit="10" d="M201,95.2c3.7,12,9.5,36.8,8.2,61l-5.4,1.2
		c0,0,2.2-19.2-5.6-36"/>
	<polyline fill="none" stroke="#000000" stroke-width="2" stroke-miterlimit="10" points="203.9,157.3 201.5,165.5 203.9,168 
		203.9,178.9 212.2,173.6 209.3,156.1 	"/>
	<path fill="none" stroke="#000000" stroke-width="2" stroke-miterlimit="10" d="M200.3,126.2c-0.1-0.3,6.6-5.7,6.6-5.7"/>
	<path fill="none" stroke="#000000" stroke-width="2" stroke-miterlimit="10" d="M149.1,121.5c1.8-10.9,4.2-20.2,6.1-26.3
		c0,0,2-5.8,3.8-6.8"/>
	<path fill="none" stroke="#000000" stroke-width="2" stroke-miterlimit="10" d="M159,118.6c-0.6,1.2-1.1,2.5-1.6,3.8"/>
	<path fill="none" stroke="#000000" stroke-width="2" stroke-miterlimit="10" d="M152.3,149.3c-0.2,4.9-0.1,8-0.1,8l-5.4-1.2
		c-0.2-2.9-0.2-5.9-0.2-8.8"/>
	<polyline fill="none" stroke="#000000" stroke-width="2" stroke-miterlimit="10" points="152.3,157.3 154.7,165.5 152.3,168 
		152.3,178.9 144,173.6 146.9,156.1 	"/>
	<polyline fill="none" stroke="#000000" stroke-width="2" stroke-miterlimit="10" points="161.4,154.7 166.5,234.5 173.4,234.5 
		178.6,156.1 	"/>
	<polyline fill="none" stroke="#000000" stroke-width="2" stroke-miterlimit="10" points="179.9,156.1 189.4,234.5 195.2,234.5 
		198.3,155.3 	"/>
	<polyline fill="none" stroke="#000000" stroke-width="2" stroke-miterlimit="10" points="166.5,234.5 149.6,248.6 170,252 
		173.4,234.5 	"/>
	<polyline fill="none" stroke="#000000" stroke-width="2" stroke-miterlimit="10" points="189.4,234.5 193.3,253.3 212.2,247.9 
		195.2,234.5 	"/>
	<line fill="none" stroke="#000000" stroke-width="2" stroke-miterlimit="10" x1="141.5" y1="97.9" x2="152.1" y2="103.6"/>
	<path fill="none" stroke="#000000" stroke-width="2" stroke-miterlimit="10" d="M142.1,84.8c1-0.3,25.3-1.1,25.3-1.1"/>
	<path fill="none" stroke="#000000" stroke-width="2" stroke-miterlimit="10" d="M193.2,83.6c0.7,0,9.2,1.1,9.2,1.1
		s-1.5,13.1-1.9,13.1c-0.5,0-6.6-0.7-6.6-0.7l-3.6-8.8"/>
	<line fill="none" stroke="#000000" stroke-width="2" stroke-miterlimit="10" x1="194.6" y1="97.2" x2="194.6" y2="89.7"/>
	<line fill="none" stroke="#000000" stroke-width="2" stroke-miterlimit="10" x1="198.3" y1="98" x2="198.3" y2="89.7"/>
</g>
<g id="Layer_3">
	<path opacity="0" fill="none" stroke="#27AAE1" stroke-width="25" stroke-miterlimit="10" d="M133.3,50.3
		c19.9,1.3,39.8,4.4,59.1,9.2c-26,3.8-52,7.6-78,11.3c-2.2,0.3-4.9,1.2-5,3.4c28.2-0.2,56.5-0.4,84.5,2.8
		c-27.7,11.4-59.9,3.3-88.4,12.4c29.4,1,58.7,2.6,88,4.9c-25.7,2.1-51.4,4.3-77.2,6.4c-5.5,0.5-11.8,1.4-14.8,6
		c22.4,0,45-0.1,66.9,4.8c-24.2,2.8-48.5,5.5-72.7,8.3c-2.9,0.3-6.2,0.9-8,3.2c30,0.1,60,0.1,90,0.2c-29.6,6.1-59.2,12.2-88.3,20.4
		c10.5,1,21,1.9,31.6,2.9c5,0.5,9.9,0.9,14.9,1.2c11.5,0.7,23,0.5,34.4-0.6c10.1,2.3,20.2,4.6,30.4,7c-17.6,0.2-35.2,3.5-51.6,9.9
		c-1.6,0.6-4.2,0.6-4.2-1.1c-1.5,1.4-0.9,4,0.7,5.3c1.5,1.3,3.6,1.7,5.6,2c14.1,2.2,28.2,4.4,42.2,6.5c-16.2,2.2-32.4,4.5-48.6,7
		c-2.7,0.4-5.9,1.2-6.9,3.8c26.6,2.6,53.2,5.1,79.8,7.7c-23.7,5.1-47.4,10.1-71.1,15.2c-1.9,0.4-3.9,0.9-5.1,2.4
		c19.1,1.4,38.2,3.1,57.2,5c-7.4,4-15.5,6.2-23.6,8.4c-12,3.3-24,6.5-36.1,9.8c24.8,0.8,49.6,1.5,74.4,2.3
		c-27,2.5-54.4,1.4-80.9,7.2c-1.9,0.4-4,1.1-4.6,2.9c27.9,1.6,55.8,2,83.7,1.3"/>
</g>
</svg>
