<?xml version="1.0" encoding="utf-8"?>
<!-- Generator: Adobe Illustrator 19.2.1, SVG Export Plug-In . SVG Version: 6.00 Build 0)  -->
<svg version="1.0" id="Layer_1" xmlns="http://www.w3.org/2000/svg" xmlns:xlink="http://www.w3.org/1999/xlink" x="0px" y="0px"
	 width="288px" height="288px" viewBox="0 0 288 288" enable-background="new 0 0 288 288" xml:space="preserve">
<ellipse fill="none" stroke="#000000" stroke-width="2" stroke-miterlimit="10" cx="138.7" cy="52.5" rx="15.6" ry="21.6"/>
<polyline fill="none" stroke="#000000" stroke-width="2" stroke-miterlimit="10" points="133.8,73.2 134.9,80.2 143.1,80.2 
	143.1,73.2 "/>
<path fill="none" stroke="#000000" stroke-width="2" stroke-miterlimit="10" d="M114.5,89.2c-0.2-4.2-0.4-6.7-0.4-6.7
	s26.1-5.4,46.1,0c0,0-0.2,2.9-0.5,7.6"/>
<path fill="none" stroke="#000000" stroke-width="2" stroke-miterlimit="10" d="M133.8,98l-32.1-14c0,0,1.9,12.4,3.7,24.5"/>
<path fill="none" stroke="#000000" stroke-width="2" stroke-miterlimit="10" d="M133.8,125.1c0-11.6,0-27.6,0-27.6h7.9
	c0,0,0,16.5,0,28.1"/>
<polyline fill="none" stroke="#000000" stroke-width="2" stroke-miterlimit="10" points="141.4,98 173.6,84 166.5,130.7 
	141.4,136.9 "/>
<path fill="none" stroke="#000000" stroke-width="2" stroke-miterlimit="10" d="M114.1,82.5c0,0-1.4,2.2-3.4,5.7"/>
<path fill="none" stroke="#000000" stroke-width="2" stroke-miterlimit="10" d="M104.1,101.1c-1.6,3.7-3,7.6-3.9,11.2
	c0,0,7,24.9,46.6,18.6v-5.1c0,0-24.9,2.8-42.6-18.6"/>
<polyline fill="none" stroke="#000000" stroke-width="2" stroke-miterlimit="10" points="146.8,125.8 152.1,118.1 154.2,120.5 
	153,124.6 163.8,119.8 161.8,129.5 146.8,130.9 "/>
<path fill="none" stroke="#000000" stroke-width="2" stroke-miterlimit="10" d="M107.5,122.5c0.7,4.9,1.2,8.2,1.2,8.2l25.1,6.2"/>
<path fill="none" stroke="#000000" stroke-width="2" stroke-miterlimit="10" d="M141.7,131.8c0,3.1,0,5.1,0,5.1h-7.9c0,0,0-2,0-5"/>
<path fill="none" stroke="#000000" stroke-width="2" stroke-miterlimit="10" d="M160.2,82.8c0,0,20.4-16.1,12.8-45.2l5.1-1.3
	c0,0,9.4,28.5-5.2,51.9"/>
<line fill="none" stroke="#000000" stroke-width="2" stroke-miterlimit="10" x1="177.3" y1="32.2" x2="178.1" y2="36.3"/>
<path fill="none" stroke="#000000" stroke-width="2" stroke-miterlimit="10" d="M172.9,37.3c0,0-5.6-7-5.6-7.4c0-0.4,0-5.4,0-5.4
	l1-3l-0.8-10.4h2.8l3.2,9.4l5.9,2.8l-2,8.4l-4.8-0.5l-1.3-7.1"/>
<path fill="none" stroke="#000000" stroke-width="2" stroke-miterlimit="10" d="M157,133.5c-0.7,11.9-1.3,21.2-1.3,21.2
	s-24.2,3-37.5,0c0,0-0.5-9.7-1.2-22.1"/>
<polyline fill="none" stroke="#000000" stroke-width="2" stroke-miterlimit="10" points="118.2,154.7 116.5,260.7 121.7,260.7 
	135.7,156 "/>
<polyline fill="none" stroke="#000000" stroke-width="2" stroke-miterlimit="10" points="137.8,156 149.4,260.7 155.3,260.7 
	154.2,154.9 "/>
<polyline fill="none" stroke="#000000" stroke-width="2" stroke-miterlimit="10" points="116.5,260.7 96.5,272.8 116.5,274.5 
	121.7,260.7 "/>
<polyline fill="none" stroke="#000000" stroke-width="2" stroke-miterlimit="10" points="149.4,260.7 155.3,276.9 174.1,274.5 
	155.3,260.7 "/>
</svg>
