<?xml version="1.0" encoding="utf-8"?>
<!-- Generator: Adobe Illustrator 19.2.1, SVG Export Plug-In . SVG Version: 6.00 Build 0)  -->
<svg version="1.0" id="Layer_1" xmlns="http://www.w3.org/2000/svg" xmlns:xlink="http://www.w3.org/1999/xlink" x="0px" y="0px"
	 width="432px" height="432px" viewBox="0 0 432 432" enable-background="new 0 0 432 432" xml:space="preserve">
<polygon fill="none" stroke="#000000" stroke-width="2" stroke-miterlimit="10" points="49,93 49,121.5 367.5,125 367.5,90.5 "/>
<path fill="none" stroke="#000000" stroke-width="2" stroke-miterlimit="10" d="M52.5,121.5L49,341c0,0,26.5-4,62-3s156,1.5,188-14
	s60-32,84.5-56.5c0,0-20-81.5-19.5-142.5"/>
<path fill="none" stroke="#000000" stroke-width="2" stroke-miterlimit="10" d="M383.5,267.5c0,0-24-35-73.5-43.5
	c0,0,4.6,83.9-53.4,109.4"/>
<path fill="none" stroke="#000000" stroke-width="2" stroke-miterlimit="10" d="M373.3,277.1c0,0-1.6,43.7,2.7,53.7L267.3,332"/>
<path fill="none" stroke="#000000" stroke-width="2" stroke-miterlimit="10" d="M52.1,168.5c0,0,249.4,0,314.2,0"/>
<path fill="none" stroke="#000000" stroke-width="2" stroke-miterlimit="10" d="M52.1,200.5c0,0,260.4,0,318.2,0"/>
<path fill="none" stroke="#000000" stroke-width="2" stroke-miterlimit="10" d="M50.7,232.5c24.3,0,169.5,0,259.3,0"/>
<path fill="none" stroke="#000000" stroke-width="2" stroke-miterlimit="10" d="M338.5,232.5c17.7,0,31.2,0,38,0"/>
<path fill="none" stroke="#000000" stroke-width="2" stroke-miterlimit="10" d="M49.7,264.5c20.7,0,165.2,0,256.5,0"/>
<path fill="none" stroke="#000000" stroke-width="2" stroke-miterlimit="10" d="M49.5,296.5c19,0,153.9,0,245.8,0"/>
<line fill="none" stroke="#000000" stroke-width="2" stroke-miterlimit="10" x1="97.5" y1="168.5" x2="97.5" y2="337.9"/>
<line fill="none" stroke="#000000" stroke-width="2" stroke-miterlimit="10" x1="142.9" y1="168.5" x2="142.9" y2="337.9"/>
<line fill="none" stroke="#000000" stroke-width="2" stroke-miterlimit="10" x1="193.4" y1="168.5" x2="193.4" y2="337.9"/>
<path fill="none" stroke="#000000" stroke-width="2" stroke-miterlimit="10" d="M234.7,168.5c0,0,0,143.5,0,166.3"/>
<path fill="none" stroke="#000000" stroke-width="2" stroke-miterlimit="10" d="M332.7,168.5c0,0-3.3,39,4.5,64"/>
<path fill="none" stroke="#000000" stroke-width="2" stroke-miterlimit="10" d="M284.3,168.5c0,0-3.4,81.2,3.6,139.4"/>
<g>
	<path d="M62.5,133.9h6.9l4.7,13.4h0.1l4.8-13.4h6.8v20.6h-4.5v-15.8h-0.1l-5.4,15.8h-3.5L67,138.7H67v15.8h-4.5V133.9z"/>
	<path d="M96.7,133.9h3.8l9,20.6h-5.1l-1.8-4.4h-8l-1.7,4.4h-5L96.7,133.9z M98.4,139.9l-2.5,6.4h5L98.4,139.9z"/>
	<path d="M111.5,133.9h8c1,0,2,0.1,3,0.3c0.9,0.2,1.8,0.5,2.5,1c0.7,0.5,1.3,1.1,1.7,1.9c0.4,0.8,0.6,1.8,0.6,3
		c0,1.5-0.4,2.7-1.1,3.7c-0.8,1-1.9,1.7-3.3,1.9l5.2,8.7h-5.4l-4.3-8.2H116v8.2h-4.5V133.9z M116,142.4h2.7c0.4,0,0.8,0,1.3,0
		c0.5,0,0.9-0.1,1.2-0.3c0.4-0.1,0.7-0.4,0.9-0.7c0.2-0.3,0.4-0.7,0.4-1.3c0-0.5-0.1-0.9-0.3-1.3c-0.2-0.3-0.5-0.5-0.8-0.7
		c-0.3-0.2-0.7-0.3-1.1-0.3c-0.4-0.1-0.8-0.1-1.3-0.1h-3V142.4z"/>
	<path d="M143.8,139.2c-0.4-0.5-1-1-1.6-1.3c-0.7-0.3-1.4-0.4-2.3-0.4c-0.9,0-1.6,0.2-2.4,0.5c-0.7,0.3-1.4,0.8-1.9,1.4
		c-0.5,0.6-0.9,1.3-1.3,2.1c-0.3,0.8-0.5,1.7-0.5,2.6c0,1,0.2,1.9,0.5,2.7s0.7,1.5,1.2,2.1c0.5,0.6,1.1,1.1,1.8,1.4
		c0.7,0.3,1.5,0.5,2.3,0.5c0.9,0,1.8-0.2,2.5-0.6c0.7-0.4,1.3-0.9,1.8-1.6l3.8,2.8c-0.9,1.2-2,2.1-3.3,2.7c-1.3,0.6-2.7,0.9-4.1,0.9
		c-1.6,0-3.1-0.3-4.5-0.8c-1.4-0.5-2.5-1.2-3.5-2.2c-1-0.9-1.8-2.1-2.3-3.4c-0.6-1.3-0.8-2.8-0.8-4.5c0-1.6,0.3-3.1,0.8-4.5
		c0.6-1.3,1.3-2.5,2.3-3.4c1-0.9,2.2-1.7,3.5-2.2c1.4-0.5,2.8-0.8,4.5-0.8c0.6,0,1.2,0.1,1.8,0.2c0.6,0.1,1.3,0.3,1.9,0.5
		c0.6,0.2,1.2,0.5,1.8,0.9c0.6,0.4,1.1,0.9,1.5,1.4L143.8,139.2z"/>
	<path d="M150.3,133.9h4.5v7.7h8.8v-7.7h4.5v20.6h-4.5v-8.9h-8.8v8.9h-4.5V133.9z"/>
</g>
</svg>
