<?xml version="1.0" encoding="utf-8"?>
<!-- Generator: Adobe Illustrator 21.0.0, SVG Export Plug-In . SVG Version: 6.00 Build 0)  -->
<!DOCTYPE svg PUBLIC "-//W3C//DTD SVG 1.0//EN" "http://www.w3.org/TR/2001/REC-SVG-20010904/DTD/svg10.dtd">
<svg version="1.0" id="Layer_1" xmlns="http://www.w3.org/2000/svg" xmlns:xlink="http://www.w3.org/1999/xlink" x="0px" y="0px"
	 width="504px" height="504px" viewBox="0 0 504 504" enable-background="new 0 0 504 504" xml:space="preserve">
<g id="Layer_2">
	<path fill="#27AAE1" d="M196.4,43.6c0,0-15.6,24.9,0.7,44.5c0,0-13.5-1-13.9-21C182.7,47.2,196.4,43.6,196.4,43.6z"/>
	<polygon fill="#27AAE1" points="184.8,93.4 188.4,163.9 208.6,167.7 190.1,167.7 185.9,291.6 178.8,307.6 165.5,301.5 182.9,291.6 
		181.7,167.7 177.9,93.4 	"/>
	<polygon fill="#27AAE1" points="202.6,167.7 205.9,291.6 225.9,302 214.2,307.6 202.6,291.6 196.4,167.7 	"/>
	<polygon fill="#27AAE1" points="178.3,101.7 168.9,130 169.6,173.8 172.4,173.8 174.3,131.9 179.1,117.9 	"/>
</g>
<g id="Layer_1_1_">
	<ellipse fill="none" stroke="#000000" stroke-width="2" stroke-miterlimit="10" cx="197.1" cy="65.9" rx="14" ry="22.3"/>
	<path fill="none" stroke="#000000" stroke-width="2" stroke-miterlimit="10" d="M206.3,45.6c0,0-11.1,2.1-17,0"/>
	<path fill="none" stroke="#000000" stroke-width="2" stroke-miterlimit="10" d="M208,48.5c-1,0.6-11.7,3.1-21,0.5"/>
	<path fill="none" stroke="#000000" stroke-width="2" stroke-miterlimit="10" d="M209.1,51.8c0,0-11.5,4.9-23.2,0.6"/>
	<polyline fill="none" stroke="#000000" stroke-width="2" stroke-miterlimit="10" points="201.6,87 201.6,93.4 193,93.4 193,87.2 	
		"/>
	<polygon fill="none" stroke="#000000" stroke-width="2" stroke-miterlimit="10" points="215.4,93.4 177.9,93.4 181.7,167.7 
		211.1,167.7 	"/>
	<polyline fill="none" stroke="#000000" stroke-width="2" stroke-miterlimit="10" points="177.9,93.4 163.6,128 166.8,173.9 
		172.5,173.9 174.3,131.9 179.1,117.9 	"/>
	<polyline fill="none" stroke="#000000" stroke-width="2" stroke-miterlimit="10" points="172.4,173.8 176.5,181 173.4,182.8 
		170.1,179.3 169.3,194.3 162.7,188.1 166.7,173.8 	"/>
	<line fill="none" stroke="#000000" stroke-width="2" stroke-miterlimit="10" x1="174.3" y1="131.9" x2="163.6" y2="128"/>
	<polyline fill="none" stroke="#000000" stroke-width="2" stroke-miterlimit="10" points="215.3,93.4 229.6,128 226.4,173.9 
		220.6,173.9 218.9,131.9 214,117.9 	"/>
	<polyline fill="none" stroke="#000000" stroke-width="2" stroke-miterlimit="10" points="220.7,173.8 216.6,181 219.8,182.8 
		223,179.3 223.9,194.3 230.4,188.1 226.4,173.8 	"/>
	<line fill="none" stroke="#000000" stroke-width="2" stroke-miterlimit="10" x1="218.9" y1="131.9" x2="229.6" y2="128"/>
	<polyline fill="none" stroke="#000000" stroke-width="2" stroke-miterlimit="10" points="211.1,167.7 208.6,291.6 202.6,291.6 
		196.4,167.7 189.6,291.6 182.6,291.6 181.7,167.7 	"/>
	<polyline fill="none" stroke="#000000" stroke-width="2" stroke-miterlimit="10" points="208.6,291.6 226.8,299.4 215.3,305.1 
		202.6,291.6 	"/>
	<polyline fill="none" stroke="#000000" stroke-width="2" stroke-miterlimit="10" points="189.6,291.6 179.8,305.1 168,299.3 
		182.6,291.6 	"/>
	<ellipse fill="none" stroke="#000000" stroke-width="2" stroke-miterlimit="10" cx="253" cy="359" rx="18.3" ry="27.1"/>
	<path fill="none" stroke="#000000" stroke-width="2" stroke-miterlimit="10" d="M226.9,394.1c0,0,24.9-16,49.5,0l7.2,71.2
		c0,0-42.3,15.8-63.2,0L226.9,394.1z"/>
	<path fill="none" stroke="#000000" stroke-width="2" stroke-miterlimit="10" d="M223.1,467.1l7.3,15.5c0,0,16.2,5.1,40.2,0
		l7.4-15.5"/>
	<path fill="none" stroke="#000000" stroke-width="2" stroke-miterlimit="10" d="M226.8,395.3l-22.6,67l-20.4,4.9
		c0,0,2.1,5.8,2.7,5.2c0.6-0.6,18.8-1.9,18.8-1.9l6.1,3.2l4-3l-3.2-6.7l11.3-33.2"/>
	<path fill="none" stroke="#000000" stroke-width="2" stroke-miterlimit="10" d="M276.5,394.9l23.2,67.3l20.4,4.9
		c0,0-2.1,5.8-2.7,5.2s-18.8-1.9-18.8-1.9l-6.1,3.2l-4-3l3.2-6.7l-11.4-32.2"/>
	
		<ellipse transform="matrix(0.1877 -0.9822 0.9822 0.1877 -41.7724 611.4878)" fill="none" stroke="#000000" stroke-width="2" stroke-miterlimit="10" cx="348.8" cy="331" rx="23.8" ry="16"/>
	<line fill="none" stroke="#000000" stroke-width="2" stroke-miterlimit="10" x1="360.7" y1="344.4" x2="364.3" y2="350.3"/>
	<path fill="none" stroke="#000000" stroke-width="2" stroke-miterlimit="10" d="M351.9,413.3l-16,5.8l-8-4l15.2-56.3l27.2-10.7
		c0,0,14,18.5,23.2,75.8c0,0-24.5,9.7-40.7,5.7l-3.2-52.2"/>
	<path fill="none" stroke="#000000" stroke-width="2" stroke-miterlimit="10" d="M350.2,387.8c0,0.7-5.3,20.5-12.9,30.8"/>
	<path fill="none" stroke="#000000" stroke-width="2" stroke-miterlimit="10" d="M327.9,415.1l-19.7,6.5v15.2c0,0,20,15.8,32.3,16
		s42.5-3.7,45.8-9.7s5.7-18.7,5.7-18.7"/>
	<path fill="none" stroke="#000000" stroke-width="2" stroke-miterlimit="10" d="M352.6,427.6c0,0-13.7-5.5-32.4-6.5"/>
	<polygon fill="none" stroke="#000000" stroke-width="2" stroke-miterlimit="10" points="467,158.9 459.4,258.8 467,258.8 
		481.3,158.9 	"/>
	<polygon fill="none" stroke="#000000" stroke-width="2" stroke-miterlimit="10" points="470.3,258.8 400.3,256.9 401.5,273.6 
		470.3,270.3 	"/>
	<polyline fill="none" stroke="#000000" stroke-width="2" stroke-miterlimit="10" points="408.2,273.3 413.1,332.1 417.7,332.1 
		417.7,273.6 	"/>
	<polyline fill="none" stroke="#000000" stroke-width="2" stroke-miterlimit="10" points="467,270.5 467,331.2 459.4,331.2 
		456.3,271 	"/>
	<line fill="none" stroke="#000000" stroke-width="2" stroke-miterlimit="10" x1="417.7" y1="298" x2="457.7" y2="298"/>
	<line fill="none" stroke="#000000" stroke-width="2" stroke-miterlimit="10" x1="417.7" y1="305.3" x2="458" y2="304.1"/>
	
		<ellipse transform="matrix(2.972332e-02 -0.9996 0.9996 2.972332e-02 277.7044 592.2437)" fill="none" stroke="#000000" stroke-width="2" stroke-miterlimit="10" cx="443.9" cy="153.1" rx="24.3" ry="16.4"/>
	<path fill="none" stroke="#000000" stroke-width="2" stroke-miterlimit="10" d="M436.4,245.2c-3.5,0.4-6,0.7-6,0.7
		s8.5-22.1,7.2-59.7c0,0,19.1-7.5,20-7.2s6.6,23.3,2.9,63.4c0,0-8.3,1-16.2,1.9"/>
	<path fill="none" stroke="#000000" stroke-width="2" stroke-miterlimit="10" d="M445.3,192.4l-10,60l-15.5,1.5c0,0-0.4,1.5-0.8,3.2
		"/>
	<line fill="none" stroke="#000000" stroke-width="2" stroke-miterlimit="10" x1="440.5" y1="258.8" x2="453" y2="206"/>
	<polyline fill="none" stroke="#000000" stroke-width="2" stroke-miterlimit="10" points="430.4,245.8 390.5,246.6 398.8,316.2 
		404.3,316.2 405.5,273.6 	"/>
	<path fill="none" stroke="#000000" stroke-width="2" stroke-miterlimit="10" d="M398.8,316.2c-2.4,0.4-24.1,9.5-24.1,9.5l15.8,6.4
		l13.8-15.9"/>
	<polyline fill="none" stroke="#000000" stroke-width="2" stroke-miterlimit="10" points="398.3,312 371.3,313.8 380.5,323.3 	"/>
	<line fill="none" stroke="#000000" stroke-width="2" stroke-miterlimit="10" x1="443.2" y1="177.4" x2="443.4" y2="184"/>
	<line fill="none" stroke="#000000" stroke-width="2" stroke-miterlimit="10" x1="450.5" y1="175.2" x2="451.6" y2="180.2"/>
	
		<ellipse transform="matrix(0.9822 -0.1877 0.1877 0.9822 -59.4119 34.7536)" fill="none" stroke="#000000" stroke-width="2" stroke-miterlimit="10" cx="153.8" cy="331.1" rx="16" ry="23.8"/>
	<line fill="none" stroke="#000000" stroke-width="2" stroke-miterlimit="10" x1="141.9" y1="344.5" x2="138.3" y2="350.4"/>
	<path fill="none" stroke="#000000" stroke-width="2" stroke-miterlimit="10" d="M150.6,413.4l16,5.8l8-4l-15.2-56.3l-27.2-10.7
		c0,0-14,18.5-23.2,75.8c0,0,24.5,9.7,40.7,5.7l3.2-52.2"/>
	<path fill="none" stroke="#000000" stroke-width="2" stroke-miterlimit="10" d="M152.4,387.9c0,0.7,5.3,20.5,12.9,30.8"/>
	<path fill="none" stroke="#000000" stroke-width="2" stroke-miterlimit="10" d="M174.6,415.2l19.7,6.5v15.2c0,0-20,15.8-32.3,16
		s-42.5-3.7-45.8-9.7s-5.7-18.7-5.7-18.7"/>
	<path fill="none" stroke="#000000" stroke-width="2" stroke-miterlimit="10" d="M149.9,427.8c0,0,13.7-5.5,32.4-6.5"/>
	
		<ellipse transform="matrix(0.9996 -2.972332e-02 2.972332e-02 0.9996 -4.3135 1.8301)" fill="none" stroke="#000000" stroke-width="2" stroke-miterlimit="10" cx="59.4" cy="146" rx="16.4" ry="24.3"/>
	<line fill="none" stroke="#000000" stroke-width="2" stroke-miterlimit="10" x1="52.9" y1="168.1" x2="51.7" y2="173.1"/>
	<line fill="none" stroke="#000000" stroke-width="2" stroke-miterlimit="10" x1="60.1" y1="170.3" x2="59.9" y2="176.8"/>
	<path fill="none" stroke="#000000" stroke-width="2" stroke-miterlimit="10" d="M66.9,238c3.5,0.4,6,0.7,6,0.7s-8.5-22.1-7.2-59.7
		c0,0-19.1-7.5-20-7.2s-6.6,23.3-2.9,63.4c0,0,8.3,1,16.2,1.9"/>
	<path fill="none" stroke="#000000" stroke-width="2" stroke-miterlimit="10" d="M58.1,185.2l10,60l15.5,1.5c0,0,0.4,1.5,0.8,3.2"/>
	<line fill="none" stroke="#000000" stroke-width="2" stroke-miterlimit="10" x1="62.8" y1="251.7" x2="50.4" y2="198.9"/>
	<polyline fill="none" stroke="#000000" stroke-width="2" stroke-miterlimit="10" points="72.9,238.7 112.9,239.5 104.5,309.1 
		99.1,309.1 97.8,266.5 	"/>
	<path fill="none" stroke="#000000" stroke-width="2" stroke-miterlimit="10" d="M104.5,309.1c2.4,0.4,24.1,9.5,24.1,9.5l-15.8,6.4
		L99,309.1"/>
	<polyline fill="none" stroke="#000000" stroke-width="2" stroke-miterlimit="10" points="105,304.9 132,306.7 122.9,316.2 	"/>
	<polygon fill="none" stroke="#000000" stroke-width="2" stroke-miterlimit="10" points="36.4,151.8 44,251.7 36.4,251.7 
		22.1,151.8 	"/>
	<polygon fill="none" stroke="#000000" stroke-width="2" stroke-miterlimit="10" points="33,251.7 103,249.8 101.8,266.5 33,263.2 	
		"/>
	<polyline fill="none" stroke="#000000" stroke-width="2" stroke-miterlimit="10" points="95.1,266.2 90.2,325 85.7,325 85.7,266.5 
			"/>
	<polyline fill="none" stroke="#000000" stroke-width="2" stroke-miterlimit="10" points="36.4,263.3 36.4,324.1 44,324.1 47,263.9 
			"/>
	<line fill="none" stroke="#000000" stroke-width="2" stroke-miterlimit="10" x1="85.7" y1="290.9" x2="45.6" y2="290.9"/>
	<line fill="none" stroke="#000000" stroke-width="2" stroke-miterlimit="10" x1="85.7" y1="298.2" x2="45.3" y2="297"/>
</g>
<g id="Layer_3">
	<path fill="none" stroke="#70BF44" stroke-width="15" stroke-miterlimit="10" stroke-opacity="0" d="M195.8,42.5
		c3.6,0.2,7.1,0.4,10.7,0.6c-5.5,1.7-11.1,2.7-16.8,3c7.1,0.2,14.3,0.4,21.4,0.5c-8.2,1.4-16.3,2.9-24.5,4.3c5.4,0,10.8,0,16.2,0
		c-6.3,1.7-12.6,3.3-18.9,5c5.3,0,10.7,0.1,16,0.1c-6.5,1.3-12.8,3.3-18.9,6.1c7.4-0.3,14.8-0.7,22.2-1c-7.6,1.7-15.2,3.3-22.8,5
		c9.7,0,19.4,0.1,29,0.1c-9.9,2.5-19.8,5-29.7,7.5c7.8-1,15.7-1,23.5,0.1c-9.3,1.7-18.7,3.4-28,5c8.7,0.7,17.4,1.4,26.1,2.1
		c-6.2,1.8-12.6,3.1-19,4c7.9,0.5,15.9,1,23.8,1.4c-12.3,1.2-24.5,3.4-36.4,6.5c10.3,0.7,20.7,0.9,31,0.7
		c-10.2,2.4-20.3,4.7-30.5,7.1c10.2-0.3,20.3-0.6,30.5-1c-10.6,2.6-21.2,5.3-31.8,7.9c10.8-0.6,21.6-1.1,32.5-1.7
		c-11.6,0.8-23.2,3.2-34.1,7.2c8.8-0.4,17.6-0.9,26.4-1.3c-10.8,2.3-21.4,5.3-31.7,9c11.8,0.1,23.6,0.1,35.3,0.2
		c-11.8,0-23.7,2.2-34.8,6.3c13.8-0.5,27.5-1,41.3-1.5c-11.4,0.6-22.6,3.3-33,7.8c14.8-0.8,29.5-1.6,44.3-2.4
		c-18.6,3.2-37.1,7.1-55.4,11.8c12.6,0.8,25.3,0.9,37.9,0.2c-14,0.9-27.8,3.9-40.9,9c15.5,0.2,31,0.4,46.6,0.6
		c-14.8,1.8-29.5,4.8-43.8,9c18.8-1.1,37.7-1.6,56.5-1.4c-20.1,2.8-40.2,5.7-60.3,8.5c15.7,1,31.4,1.1,47.1,0.6
		c-19.1,1.7-38.1,3.4-57.2,5.1c20.9,3.2,42.1,2.9,63.2,2.6c-11.6,1.1-23.2,3.5-34.3,7.2c15.6,0.8,31.3,1,47,0.5
		c-22.3,5.6-45.7,2.3-68.7,3.5c-3.4,0.2-7.2,0.7-9.2,3.4c20.9,1.1,41.7,2.2,62.6,3.2c-9.2,1.7-18.4,3.9-27.4,6.7
		c11.5,2.5,23.3,3.5,35,2.9c-12,1.2-23.8,3.5-35.3,7c8.2,2.3,16.7,3.2,25.2,2.7c-7.3,0.8-14.5,2.6-21.2,5.4c8.6,2,17.4,3.2,26.2,3.5
		c-6.4,0.6-12.8,2.4-18.6,5.2c7,0.9,13.9,1.8,20.9,2.8c-10-0.3-20,3.4-27.3,10.2c9.8,2,19.8,2.6,29.8,1.9
		c-8.9,0.1-17.9,1.9-26.1,5.4c9.3,0.5,18.7,0.9,28,1.4c-9.3,2.9-18.1,6.9-26.4,12c11.3,0.3,22.6,0.6,33.8,0.9
		c-13.8-0.1-28.1-0.1-41,5c12.5,1.3,25.1,1.1,37.5-0.4c-11.5,0.9-22.8,4.1-32.9,9.5c12.4-0.1,24.8-0.1,37.2-0.2
		c-14.1,2.6-28.3,5.3-42.4,7.9c13.3-0.4,26.6-0.8,39.9-1.2c-20.2,1.6-40.3,4.5-60.1,8.6c18.6,0.5,37.2-0.4,55.7-2.6
		c-9.9,1.1-19.7,2.8-29.3,5.2c-2.9,0.7-6.3,1.9-7.2,4.8c21.6,1.5,43.4,0.2,64.7-3.8c-24.8,1.7-54.6,5.1-79.4,5.8
		c15.5-1.6,36-5.3,51.5-6.9c-12.6,1.5-25.1,2.9-37.7,4.4c19.5-2.3,39.1-4.6,58.6-7c-14.1,1.5-28,4.7-41.3,9.6
		c10.6,0.9,21.2,1.1,31.8,0.8c-6.2,1.4-12.3,2.9-18.5,4.3c5.5,0.8,11.3-0.7,15.7-4.1"/>
</g>
</svg>
