<?xml version="1.0" encoding="utf-8"?>
<!-- Generator: Adobe Illustrator 21.0.0, SVG Export Plug-In . SVG Version: 6.00 Build 0)  -->
<!DOCTYPE svg PUBLIC "-//W3C//DTD SVG 1.0//EN" "http://www.w3.org/TR/2001/REC-SVG-20010904/DTD/svg10.dtd">
<svg version="1.0" id="Layer_1" xmlns="http://www.w3.org/2000/svg" xmlns:xlink="http://www.w3.org/1999/xlink" x="0px" y="0px"
	 width="504px" height="504px" viewBox="0 0 504 504" enable-background="new 0 0 504 504" xml:space="preserve">
<g id="Layer_2">
	<path fill="#27AAE1" d="M274.2,197.4c-3.1,2.5-40.4,46.6-40.4,46.6s-1.5,16.1,0,14.9s50.3-59.2,50.3-59.2L274.2,197.4z"/>
</g>
<g id="Layer_1_1_">
	<path fill="none" stroke="#000000" stroke-width="2" stroke-miterlimit="10" d="M263.4,186.2H251c-5.9,0-10.8-4.9-10.8-10.8v-24.9
		c0-5.9,4.9-10.8,10.8-10.8h12.4c5.9,0,10.8,4.9,10.8,10.8v24.9C274.2,181.4,269.3,186.2,263.4,186.2z"/>
	<path fill="none" stroke="#000000" stroke-width="2" stroke-miterlimit="10" d="M240.1,162.2c0,0,6.8,3.1,10.7,1.8
		c3.9-1.4,8-1.9,13.8,0c5.8,1.9,9.6-2.2,9.6-2.2"/>
	<path fill="none" stroke="#000000" stroke-width="2" stroke-miterlimit="10" d="M229.2,193.2c3.2-10.5,2.7-41.5,4.9-53.2
		c2.5-13.4,23.2-9.5,23.2-9.5s18.2-3.7,22.3,5.6c4.1,9.3,0.8,51.3,10.3,60.5c0,0-3.3,1-5.8,1.7"/>
	<path fill="none" stroke="#000000" stroke-width="2" stroke-miterlimit="10" d="M240.1,158.6c0,0-7.9,3.1,0,9.3"/>
	<path fill="none" stroke="#000000" stroke-width="2" stroke-miterlimit="10" d="M274.8,158.6c0,0,7.9,3.1,0,9.3"/>
	<path fill="none" stroke="#000000" stroke-width="2" stroke-miterlimit="10" d="M252.2,186.7c-0.7-0.6-0.1,7.6-0.1,7.6l11.8,0.3v-8
		C264,186.7,255,188.9,252.2,186.7z"/>
	<path fill="none" stroke="#000000" stroke-width="2" stroke-miterlimit="10" d="M235.2,195.4c0,0,32.3-3.5,49.4,3.1
		c0,0-10.5,105.6,12.8,161.4c0,0-52.1,16.5-82.1-12.6c0,0,18.3-86.3,18.3-97.2C233.6,239.2,235.2,195.4,235.2,195.4z"/>
	<polygon fill="none" stroke="#000000" stroke-width="2" stroke-miterlimit="10" points="269,195.8 233.6,239.9 232.9,257.1 
		283.5,199.7 	"/>
	<polyline fill="none" stroke="#000000" stroke-width="2" stroke-miterlimit="10" points="199.3,156.8 185.7,169.8 213.6,214.8 
		233.6,209.9 235.2,195.4 222.2,190.7 219.3,156.8 209.8,153.2 	"/>
	<path fill="none" stroke="#000000" stroke-width="2" stroke-miterlimit="10" d="M202,144.9l-5.4-8.7l6.4-25.9h2.3v14.8
		c0,0,4.5,4.9,5.1,4.5c0.6-0.4,3.3-1.9,3.3-1.9l1.7,4.3l-7.8,13l4.1,15.4l-5.7,7.5l-7.3-3.8L202,144.9z"/>
	<polyline fill="none" stroke="#000000" stroke-width="2" stroke-miterlimit="10" points="198.6,127.6 207.2,131.4 208.3,136.6 	"/>
	<polyline fill="none" stroke="#000000" stroke-width="2" stroke-miterlimit="10" points="197.4,132.4 202.9,135.4 203.9,139.7 	"/>
	<polygon fill="none" stroke="#000000" stroke-width="2" stroke-miterlimit="10" points="313,257.1 289.8,271.5 283.1,219.9 
		285.2,200.9 	"/>
	<polyline fill="none" stroke="#000000" stroke-width="2" stroke-miterlimit="10" points="298.6,267 304.3,276.8 314.5,281.1 
		318.3,278.9 306.1,261.6 	"/>
	<polyline fill="none" stroke="#000000" stroke-width="2" stroke-miterlimit="10" points="298.6,267 296.7,274.5 298.3,278.4 
		299.9,278.4 302.4,272.9 	"/>
	<polyline fill="none" stroke="#000000" stroke-width="2" stroke-miterlimit="10" points="241.6,362.6 244.9,377.6 246.9,377.6 
		250.2,363.9 	"/>
	<polyline fill="none" stroke="#000000" stroke-width="2" stroke-miterlimit="10" points="275.1,365 271.8,380 269.8,380 
		266.1,364.6 	"/>
	<polygon fill="none" stroke="#000000" stroke-width="2" stroke-miterlimit="10" points="244.8,377.6 218.9,381 229,391.5 
		248.3,381 	"/>
	<polygon fill="none" stroke="#000000" stroke-width="2" stroke-miterlimit="10" points="271.9,380 297.8,383.2 287.7,393.8 
		268.4,383.2 	"/>
</g>
<g id="Layer_4">
	<path fill="none" stroke="#70BF44" stroke-width="15" stroke-miterlimit="10" stroke-opacity="0" d="M264.2,196.2
		c11.4,0.3,22.7,0.6,34.1,0.9c-14.6,1.4-29.3,1.3-44,1.2c11.3,2.5,22.9,3.6,34.5,3.2c-10.9,0.8-21.7,2.4-32.4,4.8
		c10.5,0.6,21,1.2,31.5,1.9c-13.1-0.1-26.2,0.4-39.3,1.6c0.5,1.8,2.8,2.2,4.7,2.2c7.1,0.2,14.2,0.3,21.3,0.5c-10,0-20,0.6-29.9,1.9
		c9.4,4,20.2,1.2,30.3,2.6c-14.1,0.3-28.2,1.9-42,4.9c12.3,1.5,24.7,2.3,37.1,2.6c-12.2,2-25.1-0.6-37,3c10.9,1.8,22,2.3,33,1.7
		c-12,0.6-24,1.3-35.9,1.9c9.4,0.6,18.7,1.2,28.1,1.7c-10.9,2.1-21.8,4.2-32.7,6.3c9.9,0.9,19.8,1.7,29.7,2.6
		c-7.3,1.2-14.6,2.5-21.9,3.7c6.3-1,12.8-1.4,19.2-1.1c-8.8,2-17.8,3.5-26.8,4.4c6.4-0.4,12.9-0.5,19.3-0.4
		c-6.8,0.5-13.6,1.8-20.1,4c10.1,2.4,20.7,2.9,31,1.3"/>
</g>
</svg>
