<?xml version="1.0" encoding="utf-8"?>
<!-- Generator: Adobe Illustrator 21.0.0, SVG Export Plug-In . SVG Version: 6.00 Build 0)  -->
<!DOCTYPE svg PUBLIC "-//W3C//DTD SVG 1.0//EN" "http://www.w3.org/TR/2001/REC-SVG-20010904/DTD/svg10.dtd">
<svg version="1.0" id="Layer_1" xmlns="http://www.w3.org/2000/svg" xmlns:xlink="http://www.w3.org/1999/xlink" x="0px" y="0px"
	 width="432px" height="432px" viewBox="0 0 432 432" enable-background="new 0 0 432 432" xml:space="preserve">
<g id="Color">
	<polygon fill="#27AAE1" points="193.3,175.5 194.6,199.2 228.1,188.6 	"/>
</g>
<g id="Lines">
	<path fill="none" stroke="#000000" stroke-width="2" stroke-miterlimit="10" d="M242.6,260.7c-22.3,0-97.8,0-97.8,0l15.4-48.4
		l-6.8-59H269l-6.1,63l23.8,44.4C286.7,260.7,267.2,260.7,242.6,260.7"/>
	<line fill="none" stroke="#000000" stroke-width="2" stroke-miterlimit="10" x1="160.2" y1="212.2" x2="263" y2="216.3"/>
	<path fill="none" stroke="#000000" stroke-width="2" stroke-miterlimit="10" d="M156.3,224.7c1.4-0.1,112.3,1.9,112.3,1.9"/>
	<path fill="none" stroke="#000000" stroke-width="2" stroke-miterlimit="10" d="M272.8,234.5c0,0-42.1,0.6-69,1"/>
	<path fill="none" stroke="#000000" stroke-width="2" stroke-miterlimit="10" d="M203.8,235.5c-26.8,0.4-51.2,0.8-51.2,0.8"/>
	<path fill="none" stroke="#000000" stroke-width="2" stroke-miterlimit="10" d="M149.4,246.2c0,0,62.3,0,85.5,0"/>
	<path fill="none" stroke="#000000" stroke-width="2" stroke-miterlimit="10" d="M234.9,246.2c24.2,0,44,0,44,0"/>
	<line fill="none" stroke="#000000" stroke-width="2" stroke-miterlimit="10" x1="174.1" y1="212.8" x2="165.3" y2="260.7"/>
	<path fill="none" stroke="#000000" stroke-width="2" stroke-miterlimit="10" d="M188.6,213.4c0,0,0,33.4,0,47.3"/>
	<path fill="none" stroke="#000000" stroke-width="2" stroke-miterlimit="10" d="M204.9,214.3c0,0,2.2,35.7,2.9,46.4"/>
	<path fill="none" stroke="#000000" stroke-width="2" stroke-miterlimit="10" d="M222.1,214.7c0,0,5.3,34.4,7.7,46"/>
	<line fill="none" stroke="#000000" stroke-width="2" stroke-miterlimit="10" x1="235.2" y1="215.2" x2="250.8" y2="260.7"/>
	<line fill="none" stroke="#000000" stroke-width="2" stroke-miterlimit="10" x1="250.8" y1="215.8" x2="266.2" y2="260.7"/>
	<circle fill="none" stroke="#000000" stroke-width="2" stroke-miterlimit="10" cx="210.4" cy="158.4" r="1.1"/>
	<polygon fill="none" stroke="#000000" stroke-width="2" stroke-miterlimit="10" points="161.2,162.4 262.2,164.6 257.5,211.2 
		166.8,208.2 	"/>
	<path fill="none" stroke="#000000" stroke-width="2" stroke-miterlimit="10" d="M144.8,260.7c0.4,1.3,4.6,15.1,4.6,15.1
		s13.8,0.3,32.6,0.7"/>
	<path fill="none" stroke="#000000" stroke-width="2" stroke-miterlimit="10" d="M182.1,276.5c20.9,0.4,101,2.2,101,2.2l4.1-18"/>
	<polygon fill="none" stroke="#000000" stroke-width="2" stroke-miterlimit="10" points="179.6,171.2 182.8,202.2 237.1,203.7 
		238.6,170.5 	"/>
</g>
<g id="Stroke">
	
		<path fill="none" stroke="#000000" stroke-width="10" stroke-linecap="round" stroke-linejoin="round" stroke-miterlimit="10" stroke-opacity="0" d="
		M185.9,176.2c6-0.8,12.1-1.6,18.1-2.4c0.2,0,0.4,0,0.5,0c0.7,0.2,0.4,1.3-0.1,1.9c-2,2.4-4.5,4.3-7.3,5.6
		c-3.5,1.6-7.4,2.4-10.2,5.1c7.2-0.2,14.7-0.6,21.1-3.8c2-1,3.9-2.3,6.1-2.5c1-0.1,2.3,0.3,2.5,1.3c0.1,0.9-0.8,1.6-1.5,2
		c-4.5,2.7-8.9,5.4-13.4,8.1c-1.6,0.9-3.1,1.9-4.3,3.3c-1.2,1.4-1.9,3.3-1.5,5c3.7,0.2,7.2-1.5,10.2-3.7s5.5-4.8,8.5-7
		c3.8-2.8,8.1-4.8,12.7-5.7c-2,1.6-3.2,4-3.3,6.5c-0.1,1.3-0.4,3.1-1.7,3"/>
</g>
</svg>
