<?xml version="1.0" encoding="utf-8"?>
<!-- Generator: Adobe Illustrator 21.0.0, SVG Export Plug-In . SVG Version: 6.00 Build 0)  -->
<!DOCTYPE svg PUBLIC "-//W3C//DTD SVG 1.0//EN" "http://www.w3.org/TR/2001/REC-SVG-20010904/DTD/svg10.dtd">
<svg version="1.0" xmlns="http://www.w3.org/2000/svg" xmlns:xlink="http://www.w3.org/1999/xlink" x="0px" y="0px" width="432px"
	 height="432px" viewBox="0 0 432 432" enable-background="new 0 0 432 432" xml:space="preserve">
<g id="Color">
	<polygon fill="#27AAE1" points="201.9,90.7 203.1,114.4 236.6,103.8 	"/>
</g>
<g id="Lines">
	
		<ellipse transform="matrix(0.9984 -5.704488e-02 5.704488e-02 0.9984 -10.7783 13.0281)" fill="none" stroke="#000000" stroke-width="2" stroke-miterlimit="10" cx="222.8" cy="195.3" rx="32.1" ry="46.5"/>
	<line fill="none" stroke="#000000" stroke-width="2" stroke-miterlimit="10" x1="206.1" y1="233.9" x2="206.1" y2="247"/>
	<line fill="none" stroke="#000000" stroke-width="2" stroke-miterlimit="10" x1="240.3" y1="235.3" x2="240.3" y2="246.8"/>
	<path fill="none" stroke="#000000" stroke-width="2" stroke-miterlimit="10" d="M270.1,342.4c-2.2-25.1-10.7-92.9-10.7-92.9
		c-34.4-7.4-73.6,0-73.6,0l-11.4,92.9"/>
	<path fill="none" stroke="#000000" stroke-width="2" stroke-miterlimit="10" d="M185.8,249.5c0,0-23.4,40-28.4,92.9"/>
	<path fill="none" stroke="#000000" stroke-width="2" stroke-miterlimit="10" d="M259.4,249.5c0,0,26.4,44.6,28.6,92.9"/>
	
		<ellipse transform="matrix(0.1837 -0.983 0.983 0.1837 -66.0236 215.4838)" fill="none" stroke="#000000" stroke-width="2" stroke-miterlimit="10" cx="96.7" cy="147.5" rx="41" ry="28.3"/>
	<line fill="none" stroke="#000000" stroke-width="2" stroke-miterlimit="10" x1="75.8" y1="179.1" x2="72.4" y2="190.1"/>
	<line fill="none" stroke="#000000" stroke-width="2" stroke-miterlimit="10" x1="95.3" y1="188" x2="93.1" y2="194.9"/>
	<path fill="none" stroke="#000000" stroke-width="2" stroke-miterlimit="10" d="M96.8,321.9l13.4-120.4
		c-30-12.4-57.3-14.9-57.3-14.9s-23.1,61.2-26.7,124.5"/>
	<path fill="none" stroke="#000000" stroke-width="2" stroke-miterlimit="10" d="M110.1,201.5c0,0,18.5,94.8,32.8,117.1"/>
	<path fill="none" stroke="#000000" stroke-width="2" stroke-miterlimit="10" d="M103.8,258.6c0,0,9.5,48.2,22.7,64.7"/>
	
		<ellipse transform="matrix(0.983 -0.1837 0.1837 0.983 -21.4332 65.6654)" fill="none" stroke="#000000" stroke-width="2" stroke-miterlimit="10" cx="343.7" cy="148.5" rx="28.3" ry="41"/>
	<line fill="none" stroke="#000000" stroke-width="2" stroke-miterlimit="10" x1="364.7" y1="180.1" x2="368.1" y2="191"/>
	<line fill="none" stroke="#000000" stroke-width="2" stroke-miterlimit="10" x1="345.2" y1="189" x2="347.4" y2="195.8"/>
	<path fill="none" stroke="#000000" stroke-width="2" stroke-miterlimit="10" d="M343.7,322.8l-13.4-120.4
		c30-12.4,57.3-14.9,57.3-14.9s23.1,61.2,26.7,124.5"/>
	<path fill="none" stroke="#000000" stroke-width="2" stroke-miterlimit="10" d="M330.3,202.4c0,0-18.5,94.8-32.8,117.1"/>
	<path fill="none" stroke="#000000" stroke-width="2" stroke-miterlimit="10" d="M336.7,259.5c0,0-9.5,48.2-22.7,64.7"/>
	<path fill="none" stroke="#000000" stroke-width="2" stroke-miterlimit="10" d="M192.8,175.9c-22.3,0-39.4,0-39.4,0l15.4-48.4
		l-6.8-59h115.6l-6.1,63l23.8,44.4c0,0-19.5,0-44.1,0"/>
	<line fill="none" stroke="#000000" stroke-width="2" stroke-miterlimit="10" x1="168.8" y1="127.4" x2="271.5" y2="131.5"/>
	<path fill="none" stroke="#000000" stroke-width="2" stroke-miterlimit="10" d="M164.9,139.9c1.4-0.1,112.3,1.9,112.3,1.9"/>
	<path fill="none" stroke="#000000" stroke-width="2" stroke-miterlimit="10" d="M281.4,149.7c0,0-24.5,0.4-51.4,0.8"/>
	<path fill="none" stroke="#000000" stroke-width="2" stroke-miterlimit="10" d="M212.4,150.7c-26.8,0.4-51.2,0.8-51.2,0.8"/>
	<path fill="none" stroke="#000000" stroke-width="2" stroke-miterlimit="10" d="M158,161.4c0,0,18.7,0,41.9,0"/>
	<path fill="none" stroke="#000000" stroke-width="2" stroke-miterlimit="10" d="M243.5,161.4c24.2,0,44,0,44,0"/>
	<line fill="none" stroke="#000000" stroke-width="2" stroke-miterlimit="10" x1="182.7" y1="128" x2="173.9" y2="175.9"/>
	<path fill="none" stroke="#000000" stroke-width="2" stroke-miterlimit="10" d="M197.1,128.6c0,0,0,23.5,0,37.4"/>
	<path fill="none" stroke="#000000" stroke-width="2" stroke-miterlimit="10" d="M213.5,129.5c0,0,0.6,9.9,1.3,20.6"/>
	<path fill="none" stroke="#000000" stroke-width="2" stroke-miterlimit="10" d="M230.6,129.9c0,0,2.5,11.8,4.9,23.4"/>
	<line fill="none" stroke="#000000" stroke-width="2" stroke-miterlimit="10" x1="243.8" y1="130.4" x2="259.4" y2="175.9"/>
	<line fill="none" stroke="#000000" stroke-width="2" stroke-miterlimit="10" x1="259.4" y1="131" x2="274.8" y2="175.9"/>
	<circle fill="none" stroke="#000000" stroke-width="2" stroke-miterlimit="10" cx="219" cy="73.6" r="1.1"/>
	<polygon fill="none" stroke="#000000" stroke-width="2" stroke-miterlimit="10" points="169.8,77.6 270.7,79.8 266,126.4 
		175.4,123.4 	"/>
	<path fill="none" stroke="#000000" stroke-width="2" stroke-miterlimit="10" d="M153.4,175.9c0.4,1.3,4.6,15.1,4.6,15.1
		s13.8,0.3,32.6,0.7"/>
	<path fill="none" stroke="#000000" stroke-width="2" stroke-miterlimit="10" d="M254.8,193.1c20.9,0.4,36.8,0.8,36.8,0.8l4.1-18"/>
	<polygon fill="none" stroke="#000000" stroke-width="2" stroke-miterlimit="10" points="188.1,86.4 191.3,117.4 245.7,118.9 
		247.1,85.7 	"/>
</g>
<g id="Stroke">
	
		<path opacity="0" fill="none" stroke="#000000" stroke-width="10" stroke-linecap="round" stroke-linejoin="round" stroke-miterlimit="10" d="
		M194.5,91.4c6-0.8,12.1-1.6,18.1-2.4c0.2,0,0.4,0,0.5,0c0.7,0.2,0.4,1.3-0.1,1.9c-2,2.4-4.5,4.3-7.3,5.6c-3.5,1.6-7.4,2.4-10.2,5.1
		c7.2-0.2,14.7-0.6,21.1-3.8c2-1,3.9-2.3,6.1-2.5c1-0.1,2.3,0.3,2.5,1.3c0.1,0.9-0.8,1.6-1.5,2c-4.5,2.7-8.9,5.4-13.4,8.1
		c-1.6,0.9-3.1,1.9-4.3,3.3s-1.9,3.3-1.5,5c3.7,0.2,7.2-1.5,10.2-3.7c3-2.2,5.5-4.8,8.5-7c3.8-2.8,8.1-4.8,12.7-5.7
		c-2,1.6-3.2,4-3.3,6.5c-0.1,1.3-0.4,3.1-1.7,3"/>
</g>
</svg>
