<?xml version="1.0" encoding="utf-8"?>
<!-- Generator: Adobe Illustrator 21.0.0, SVG Export Plug-In . SVG Version: 6.00 Build 0)  -->
<!DOCTYPE svg PUBLIC "-//W3C//DTD SVG 1.0//EN" "http://www.w3.org/TR/2001/REC-SVG-20010904/DTD/svg10.dtd">
<svg version="1.0" xmlns="http://www.w3.org/2000/svg" xmlns:xlink="http://www.w3.org/1999/xlink" x="0px" y="0px" width="146.5px"
	 height="322.5px" viewBox="0 0 146.5 322.5" enable-background="new 0 0 146.5 322.5" xml:space="preserve">
<g id="Color">
	<g>
		<path d="M19,142.3l-2.1-4.9C17.5,139,18.2,140.7,19,142.3z"/>
		<path d="M15.1,133.3l1.8,4.1c-0.5-1.3-1-2.7-1.4-4.1H15.1z"/>
		<path d="M71.3,175c-23,0-42.9-13.4-52.3-32.7l52.3,121.6l56.3-130.6h-0.5C120,157.4,97.7,175,71.3,175z"/>
	</g>
</g>
<g id="Fill">
	
		<path opacity="0" fill="none" stroke="#70CBCE" stroke-width="31" stroke-linecap="round" stroke-linejoin="round" stroke-miterlimit="10" d="
		M8.8,51.6c21.7,5.2,44.2,4.9,66.5,5.9c22.3,1,45.1,3.4,65.1,13.2c1.3,0.7,2.9,1.7,2.9,3.2c-18.7,5.8-38.8,5.1-58.4,5.6
		c-19.2,0.5-38.4,2.3-57.4,5.4C15,86.9,2.5,89.6-8.2,96.1c5.2,3.1,11.4,3.9,17.5,4.5c19.6,2,39.3,2.9,59,2.8
		c26.4-0.2,54.5-1.9,77.5,11.2c-22.8,10.2-48.8,9.3-73.8,9.6c-20.9,0.3-41.8,1.6-62.6,3.9c-4.9,0.5-10.3,1.5-13,5.7
		c22.1,10.7,47.6,11.1,72.1,10.2c24.5-0.8,49.6-2.6,73.1,4.6c-17.1,10.8-38,13.8-58.1,15.1s-40.7,1.4-60.2,7.1
		c-4.3,1.3-8.9,3.2-10.6,7.2c2.7,2.2,6.2,2.9,9.6,3.6c26,4.8,52.4,7.7,78.8,8.7c7,0.3,14,0.4,20.8,2.1c1.5,0.4,3.2,1,3.9,2.4
		c1.6,3.1-2.7,5.9-6.2,6.7c-29.7,7-60.6,8.9-89.9,17.5c-1.9,0.6-4.2,1.6-4.4,3.6c13.6,1.9,27.3,3.2,41,3.8
		c13.4,0.6,27.5,0.7,38.8,7.9c-14.7,9.7-34.6,6.4-50.4,14.2c8.8,2.9,17.3,6.8,25.3,11.6c-6.8,3.9-12.3,10-15.3,17.2"/>
</g>
</svg>
