<?xml version="1.0" encoding="utf-8"?>
<!-- Generator: Adobe Illustrator 21.0.0, SVG Export Plug-In . SVG Version: 6.00 Build 0)  -->
<!DOCTYPE svg PUBLIC "-//W3C//DTD SVG 1.0//EN" "http://www.w3.org/TR/2001/REC-SVG-20010904/DTD/svg10.dtd">
<svg version="1.0" xmlns="http://www.w3.org/2000/svg" xmlns:xlink="http://www.w3.org/1999/xlink" x="0px" y="0px" width="146.5px"
	 height="322.5px" viewBox="0 0 146.5 322.5" enable-background="new 0 0 146.5 322.5" xml:space="preserve">
<g id="Color">
	<circle cx="73.2" cy="63.9" r="58.2"/>
	<polyline points="15,69.9 73.2,316.8 131.5,69.9 	"/>
</g>
<g id="Layer_2">
	
		<path opacity="0" fill="none" stroke="#03C0E3" stroke-width="42" stroke-linecap="round" stroke-linejoin="round" stroke-miterlimit="10" d="
		M0-0.9c50.3-1.6,100.8,1.2,150.6,8.5c-19.4,18.5-49.2,18.8-76.1,20c-25.4,1.2-50.7,4.2-75.6,9.1c-4.2,0.8-9.7,4.4-7.4,8
		c0.9,1.3,2.5,1.9,4,2.3C51.9,63.1,114,47.7,169.8,65.8c-0.8,8-11.3,10.4-19.3,10.6c-50,1.1-100.8-4-149.6,6.7
		c-5.9,1.3-13.4,5.2-12,11.1c48.1,6.3,96.3,12.6,144.4,18.9c8.7,1.1,18.6,3,23.3,10.5c-13.4,9.7-31.3,10-47.9,10.1
		c-36.7,0.4-73.4,2.4-110,6.2c-4.6,0.5-10.1,1.6-11.8,5.9c43,20.1,90.6,30.3,138,29.6c5.5-0.1,13.1,1.8,12.5,7.3
		c-0.4,3.7-4.7,5.5-8.4,6.4c-34.1,8.4-69.9,5.1-104.7,9.4c-3.8,0.5-8.9,2.9-7.7,6.5c27.9,14,60.2,16.1,91.3,14.8
		c2.3-0.1,4.8-0.1,6.7,1.3c2.9,2.2,2.3,7.1-0.2,9.8c-2.6,2.6-6.3,3.6-9.9,4.4c-26.1,5.8-52.9,8.6-79.6,8.3c-2.1,2.5,1.9,5.6,5,6.4
		c17.6,4.5,35.2,9,52.8,13.5c2.8,0.7,6.2,2,6.5,4.9c0.4,3.4-3.8,5.4-7.2,6.2c-9.2,2.3-18.4,4.5-27.7,6.8c3.8,5.6,11.5,6.3,18.1,7.7
		c6.6,1.3,14.2,5.6,13.7,12.3c-5.8,1.8-11.6,3.5-17.4,5.3c-1.1,0.3-2.2,0.7-3,1.4c-2.5,2.2-1.1,6.6,1.7,8.4s6.4,1.5,9.7,1.2
		c1,1.6,0.9,3.9-0.3,5.4"/>
</g>
</svg>
