<?xml version="1.0" encoding="utf-8"?>
<!-- Generator: Adobe Illustrator 19.2.1, SVG Export Plug-In . SVG Version: 6.00 Build 0)  -->
<svg version="1.0" id="Layer_1" xmlns="http://www.w3.org/2000/svg" xmlns:xlink="http://www.w3.org/1999/xlink" x="0px" y="0px"
	 width="432px" height="432px" viewBox="0 0 432 432" enable-background="new 0 0 432 432" xml:space="preserve">
<path fill="none" stroke="#000000" stroke-width="2" stroke-miterlimit="10" d="M218,111c0,0-9.3-6.7-10.3-6.7s-10.3,0-10.3,0
	l-9.7,6.7c0,0-5.8-1-7.2,0c-1.5,1-11.1-1.7-11.1-1.7l-10,0.3c0,0-8.7,8.7-9.7,9.3s-9.7-1-12.7,0s-14.3,2-15.3,3.3
	c-1,1.3-6.7,5-6.7,5l-6.7,11.3v8.3l-5.7,13c0,0,0.3-3,0,4.7c-0.3,7.7,0,10.3,0,10.3s-3,15-4,16s0,9.3,0,9.3s-1,6.1,1.7,10.2
	c2.7,4.1,6.7,6.5,6.7,6.5l7,5l4.7,7.3l8,7.7l7.7,1.7c0,0,2.7-1.3,16,0c0,0,8.3,8.3,9.7,8.7c1.3,0.3,8.7,1.3,11.3,1.7
	c2.7,0.3,9.1,0,9.1,0s6.2-4,9.9-2.3c3.7,1.7,13.7,4.3,16.3,5.3c2.7,1,6.3,2,11.3,2s12,1.3,14.3,0c2.3-1.3,11.7-6,11.7-6
	s9.7-3.7,11.5-3c1.8,0.7,17.2,2,17.2,2s9.7-2,10.7-2s5.3-2.3,5.3-2.3l7-8l8.3-2.7l11-2c0,0,6.3-1,8.7-2.3c2.3-1.3,5-2.7,5-2.7
	l3.3-9.7l2.3-11V194c0,0-5-16-5.7-17.3c-0.7-1.3-0.3-1.3-0.7-7.3s-0.3-11.3-0.3-11.3s-2-7.7-2.7-11.3c-0.7-3.7-9-21.7-9-21.7l-15-13
	l-11-3.7c0,0-8.7-4.7-10-4c-1.3,0.7-8.7-0.1-8.7-0.1s-11.7,0.6-14.3,0c-2.7-0.6-6.7-2.1-9,0s-9.3,4.1-9.3,4.1l-7,3.7
	c0,0-6-0.3-7-0.3S218,111,218,111z"/>
<path fill="none" stroke="#000000" stroke-width="2" stroke-miterlimit="10" d="M246,267c0,0-4.3,0.7-5,2s-1.7,7-1.7,7s-1.7,4,0,5.3
	c1.7,1.3,5.3,4,5.3,4h7.7c0,0,7.7-5,7.7-6s0,0,0-3.2c0-3.2,0-6.5,0-6.5l-4.5-2.7H246z"/>
<path fill="none" stroke="#000000" stroke-width="2" stroke-miterlimit="10" d="M282,292l-7.7,1.8v4.7c0,0-0.8,4,0,5.2
	c0.8,1.2,2.5,1,3.6,2s1.2,1.3,3,1.3s5.8-1.5,5.8-1.5l2-4.7c0,0,0.8-4.2,0.8-5.8s-1-4.2-1-4.2L282,292z"/>
<path fill="none" stroke="#000000" stroke-width="2" stroke-miterlimit="10" d="M310.7,312.3c0,0-4.3,0.2-4.5,0.7
	c-0.2,0.5-2.2,6.3-2.2,6.3s-1,4,0,5.3c1,1.3-0.1,3.3,3.1,3.7c3.2,0.3,5.4,0,6.9,0s5.8-0.7,6.2-1.8c0.3-1.2,2.2-5.5,1.8-7.2
	c-0.3-1.7-1-4-1.7-4.5c-0.7-0.5-1.5-2.7-3.7-2.5C314.5,312.5,310.7,312.3,310.7,312.3z"/>
</svg>
