<?xml version="1.0" encoding="utf-8"?>
<!-- Generator: Adobe Illustrator 19.2.1, SVG Export Plug-In . SVG Version: 6.00 Build 0)  -->
<svg version="1.0" id="Layer_1" xmlns="http://www.w3.org/2000/svg" xmlns:xlink="http://www.w3.org/1999/xlink" x="0px" y="0px"
	 width="432px" height="432px" viewBox="0 0 432 432" enable-background="new 0 0 432 432" xml:space="preserve">
<path fill="none" stroke="#000000" stroke-width="2" stroke-miterlimit="10" d="M228.3,114.7l-13-4.3h-10.7l-9.3,4.3h-4
	c0,0-7.7-3-9.7-2.2s-13.7,2.5-15,2.2c-1.3-0.3-6.7,2.5-6.7,2.5l-7.3,3.2L139,122c0,0-6,3.7-8.7,5.7c-2.7,2-5,5.3-6,6.7
	c-1,1.3-2.7,13.7-2.7,13.7s-6.7,4.7-7.3,7.7c-0.7,3-2.2,13.7-2.2,13.7s0.1,7,0,11.3c-0.1,4.3,0,14.3,0,14.3l5.6,8.3l5.3,8.7l8,13
	l7,6l9.1,6l8.6,3.3h11.7c0,0,19,8,20.3,8c1.3,0,3,3,10.3,3s11.3,0,11.3,0h17.5h11.9c0,0-7.7,0,12.3-1.7c20-1.7,15,0,15,0l14.7-4.3
	c0,0,14.3-10.7,16.3-11.3s8.7-3,9.7-5.7c1-2.7,3-6.2,3.7-9.4c0.7-3.2,4-8.6,5.3-11.2c1.3-2.7,3-4.3,3-7.7s0-9.3,0-9.3
	s-0.3,0.3,0-7.3c0.3-7.7,0.7-8.3,0-12.3c-0.7-4,0.3-6-1.7-12.3c-2-6.3-3-8-3-8l-2-3.7l-5.7-8.3l-5-8.3l-7-10.3c0,0-4.7-2.7-6-2.8
	c-1.3-0.2-9.7-1.5-11.7-2.2s-8.7-1.3-8.7-1.3l-10.7-0.7c0,0-6,0.7-8.3,0.7s-9,1.7-11,1.7S228.3,114.7,228.3,114.7z"/>
<path fill="none" stroke="#000000" stroke-width="2" stroke-miterlimit="10" d="M273,256.7h-4.3c0,0-4,2.3-4.3,3.3
	c-0.3,1-1.7,3.1-2,4.9c-0.3,1.8-1.7,4.4,0,5.1c1.7,0.7,4.9,2,4.9,2h2.7c0,0,3.3,1.3,5.3,0s4.3-1.3,4.3-2.7c0-1.3,0-2.7,0-2.7
	l1.3-5.7v-4.3h-4.7H273z"/>
<path fill="none" stroke="#000000" stroke-width="2" stroke-miterlimit="10" d="M284,284h-3.8l-4.3,4.2l-1.3,3.3c0,0-0.8,2.3,0,3.8
	s1.5,2.5,3.3,2.8c1.8,0.3,1.5-0.5,3.2,0s4.7,0.1,4.7,0.1l4-1.2l2.5-3.5v-3.7v-3.3l-1.3-2.5l-2.2-0.7L284,284z"/>
<path fill="none" stroke="#000000" stroke-width="2" stroke-miterlimit="10" d="M294.2,307.8c0,0-6.2-0.7-6.3,0
	c-0.2,0.7-2,4.7-2,4.7l-1.7,6.2c0,0-0.3,1.3,0.8,2c1.2,0.7,1,0.5,2.5,1.2c1.5,0.7,7.7,1.3,8.2,1c0.6-0.3,1.9-1,3.2-2.3
	s3.3,0,3.3-3.7c0-3.7,0-6,0-6l-1.8-3.3L294.2,307.8z"/>
</svg>
