<?xml version="1.0" encoding="utf-8"?>
<!-- Generator: Adobe Illustrator 21.0.0, SVG Export Plug-In . SVG Version: 6.00 Build 0)  -->
<!DOCTYPE svg PUBLIC "-//W3C//DTD SVG 1.0//EN" "http://www.w3.org/TR/2001/REC-SVG-20010904/DTD/svg10.dtd">
<svg version="1.0" id="Layer_1" xmlns="http://www.w3.org/2000/svg" xmlns:xlink="http://www.w3.org/1999/xlink" x="0px" y="0px"
	 width="432px" height="432px" viewBox="0 0 432 432" enable-background="new 0 0 432 432" xml:space="preserve">
<path fill="#FFFFFF" stroke="#000000" stroke-width="2" stroke-miterlimit="10" d="M116.7,180.7l3.7-9.7l7-8l7-3.7h10.3
	c0,0,7-8,9.3-8.7s9.7-3.3,11-3.3s12.7,0,12.7,0s8.3-1.3,10,0s5.3,2,8.3,1.3s13-3.3,13-3.3l22.3-2c0,0,10.3-1,11.3,0s15,3.3,15.3,3.7
	s4.3,4.3,7.3,4.7c3,0.3,10,0.7,12,0.7s12.7,0,12.7,0l9,2.7l8.7,4.3l10,11l1.7,12.7v7.3v6.7c0,0-2,6.7-4.3,8.7s-9,3.2-9,3.2l-8,1.5
	l-10,2.3l-10,4.2l-8.7,1.8c0,0-12,3-14.3,3s-6.3,0-9,0s-5.3-1.7-10-1.7s-9.7-1-9.7-1l-8.3,1c0,0-1.7,1-9.7,1.7s-6,0-6,0l-13,0.3
	l-8,3l-10.3-1.5l-11.3,1.5c0,0-14,0.3-14.3,0s-4.8,2.8-6.8,0.1s-6.2-6.5-6.2-6.5l-9.5-6.5l-4.8-8.8l-2.7-2.7c0,0-2-7.7-2.3-9.3
	c-0.3-1.7,0-7.3,0-7.3L116.7,180.7z"/>
<path fill="#FFFFFF" stroke="#000000" stroke-width="2" stroke-miterlimit="10" d="M220.8,236.3c0,0-3.5,1.2-3.5,1.7
	s-1.2,3.3-1.2,3.3v4v3.5l1.6,0.8h4c0,0,3.3-0.7,4.8-1.2s2.7-1.5,2.7-1.5l0.8-2.5v-5.2l-1.3-3L220.8,236.3L220.8,236.3z"/>
<path fill="#FFFFFF" stroke="#000000" stroke-width="2" stroke-miterlimit="10" d="M201.3,257.5l-3.8,1.2c0,0-2.8,2.2-3,3.2
	s0,4.8,0,4.8l-0.1,2l3.5,2.3h6l3-2.7c0,0,2.3,0.7,1.8-4.1s1.2-2.2-0.5-4.8c-1.7-2.5-1.7-2.5-1.7-2.5L201.3,257.5z"/>
<path fill="#FFFFFF" stroke="#000000" stroke-width="2" stroke-miterlimit="10" d="M177.2,275.3h-4l-3.8,4.7v3v3.8l3.9,2.5h6.9
	c0,0,1.2,1.2,3-1.7c1.8-2.8,1.8-3,2.2-4.7c0.3-1.7-0.2-4.8,0-5.5s-2-2.2-2-2.2h-6.2V275.3z"/>
</svg>
