<?xml version="1.0" encoding="utf-8"?>
<!-- Generator: Adobe Illustrator 21.0.0, SVG Export Plug-In . SVG Version: 6.00 Build 0)  -->
<!DOCTYPE svg PUBLIC "-//W3C//DTD SVG 1.0//EN" "http://www.w3.org/TR/2001/REC-SVG-20010904/DTD/svg10.dtd">
<svg version="1.0" id="Lines" xmlns="http://www.w3.org/2000/svg" xmlns:xlink="http://www.w3.org/1999/xlink" x="0px" y="0px"
	 width="720.4px" height="898px" viewBox="0 0 720.4 898" enable-background="new 0 0 720.4 898" xml:space="preserve">
<g>
	
		<ellipse transform="matrix(0.1309 -0.9914 0.9914 0.1309 263.5842 545.5475)" fill="none" stroke="#010101" stroke-width="1.5" stroke-miterlimit="10" cx="442.9" cy="122.4" rx="23.3" ry="16.7"/>
	<polyline fill="none" stroke="#010101" stroke-width="1.5" stroke-miterlimit="10" points="435.3,144.4 435.3,151.1 443.1,152 
		444.5,146.1 	"/>
	<path fill="none" stroke="#010101" stroke-width="1.5" stroke-miterlimit="10" d="M418.5,229.2H445l12.4-73.6
		c-16.3-5.3-40.4-4.2-40.4-4.2L418.5,229.2z"/>
	<path fill="none" stroke="#010101" stroke-width="1.5" stroke-miterlimit="10" d="M416.9,151.5c0,0-17.4,17.1-24.4,52.5"/>
	<path fill="none" stroke="#010101" stroke-width="1.5" stroke-miterlimit="10" d="M392.5,204c-0.4,4.3-2.7,22.5-2.8,27.2l6.5,1.5
		c0,0,4.2-17.1,6.3-25.9"/>
	<path fill="none" stroke="#010101" stroke-width="1.5" stroke-miterlimit="10" d="M402.4,206.9c3.4-10.5,8.1-21.6,14.4-27.2"/>
	<line fill="none" stroke="#010101" stroke-width="1.5" stroke-miterlimit="10" x1="407.2" y1="194.3" x2="398.4" y2="183.2"/>
	<path fill="none" stroke="#010101" stroke-width="1.5" stroke-miterlimit="10" d="M389.6,231.3l-6.3,9.6c0,0,2.8,8.9,3.2,8.9
		c0.4,0,15.2,0,15.2,0l2.4-11l-8.2-6.1"/>
	<path fill="none" stroke="#010101" stroke-width="1.5" stroke-miterlimit="10" d="M456.5,160.8c0,0,2.8,33.8,32.7,45.3l-2.6,6.5
		c0,0-22.5,0.1-34.9-25.6"/>
	<polyline fill="none" stroke="#010101" stroke-width="1.5" stroke-miterlimit="10" points="488.9,206.5 495.1,202.6 505.6,205.7 
		501.5,221.8 488.4,218.7 486.6,213.5 	"/>
	<path fill="none" stroke="#010101" stroke-width="1.5" stroke-miterlimit="10" d="M418.5,229.2c9.3,61.4-9.4,124.1-9.4,124.1
		l10.6,0.9c20.9-41.9,25.3-125.2,25.3-125.2"/>
	<path fill="none" stroke="#010101" stroke-width="1.5" stroke-miterlimit="10" d="M445.4,226.8c15.8,48.1,25.1,128.7,25.1,128.7
		l-10.1,1.1c0,0-13.1-67.4-20.6-78.1"/>
	<polyline fill="none" stroke="#010101" stroke-width="1.5" stroke-miterlimit="10" points="419.7,354.4 442.1,360.2 428.7,368.3 
		405.9,358.6 409,353.3 	"/>
	<polyline fill="none" stroke="#010101" stroke-width="1.5" stroke-miterlimit="10" points="460.4,356.7 460.4,365.4 488.7,369.9 
		498.4,356.7 470.5,355.6 	"/>
</g>
<g>
	
		<ellipse transform="matrix(0.1309 -0.9914 0.9914 0.1309 -148.2105 905.749)" fill="none" stroke="#010101" stroke-width="1.5" stroke-miterlimit="10" cx="442.5" cy="537.4" rx="23.3" ry="16.7"/>
	<polyline fill="none" stroke="#010101" stroke-width="1.5" stroke-miterlimit="10" points="434.9,559.3 434.9,566.1 442.7,567 
		444,561.1 	"/>
	<path fill="none" stroke="#010101" stroke-width="1.5" stroke-miterlimit="10" d="M418,644.2h26.5l12.4-73.6
		c-16.3-5.3-40.4-4.2-40.4-4.2L418,644.2z"/>
	<path fill="none" stroke="#010101" stroke-width="1.5" stroke-miterlimit="10" d="M416.4,566.5c0,0-17.4,17.1-24.4,52.5"/>
	<path fill="none" stroke="#010101" stroke-width="1.5" stroke-miterlimit="10" d="M392,619c-0.4,4.3-2.7,22.5-2.8,27.2l6.5,1.5
		c0,0,4.2-17.1,6.3-25.9"/>
	<path fill="none" stroke="#010101" stroke-width="1.5" stroke-miterlimit="10" d="M402,621.8c3.4-10.5,8.1-21.6,14.4-27.2"/>
	<line fill="none" stroke="#010101" stroke-width="1.5" stroke-miterlimit="10" x1="406.7" y1="609.3" x2="397.9" y2="598.1"/>
	<path fill="none" stroke="#010101" stroke-width="1.5" stroke-miterlimit="10" d="M389.2,646.2l-6.3,9.6c0,0,2.8,8.9,3.2,8.9
		c0.4,0,15.2,0,15.2,0l2.4-11l-8.2-6.1"/>
	<path fill="none" stroke="#010101" stroke-width="1.5" stroke-miterlimit="10" d="M456,575.8c0,0,2.8,33.8,32.7,45.3l-2.6,6.5
		c0,0-22.5,0.1-34.9-25.6"/>
	<polyline fill="none" stroke="#010101" stroke-width="1.5" stroke-miterlimit="10" points="488.5,621.4 494.7,617.5 505.2,620.6 
		501,636.8 487.9,633.7 486.2,628.4 	"/>
	<path fill="none" stroke="#010101" stroke-width="1.5" stroke-miterlimit="10" d="M418,644.2c9.3,61.4-9.4,124.1-9.4,124.1
		l10.6,0.9c20.9-41.9,25.3-125.2,25.3-125.2"/>
	<path fill="none" stroke="#010101" stroke-width="1.5" stroke-miterlimit="10" d="M445,641.8c15.8,48.1,25.1,128.7,25.1,128.7
		l-10.1,1.1c0,0-13.1-67.4-20.6-78.1"/>
	<polyline fill="none" stroke="#010101" stroke-width="1.5" stroke-miterlimit="10" points="419.2,769.4 441.6,775.2 428.3,783.2 
		405.5,773.5 408.6,768.3 	"/>
	<polyline fill="none" stroke="#010101" stroke-width="1.5" stroke-miterlimit="10" points="459.9,771.7 459.9,780.4 488.2,784.9 
		497.9,771.7 470,770.6 	"/>
</g>
<g>
	<g>
		
			<ellipse transform="matrix(0.1309 -0.9914 0.9914 0.1309 219.3371 404.6712)" fill="none" stroke="#010101" stroke-width="1.5" stroke-miterlimit="10" cx="340.5" cy="77.2" rx="13.8" ry="9.9"/>
		<polyline fill="none" stroke="#010101" stroke-width="1.5" stroke-miterlimit="10" points="335.9,90.2 335.9,94.2 340.6,94.8 
			341.4,91.3 		"/>
		<path fill="none" stroke="#010101" stroke-width="1.5" stroke-miterlimit="10" d="M326,140.6h15.8l7.4-43.7
			c-9.7-3.1-24-2.5-24-2.5L326,140.6z"/>
		<path fill="none" stroke="#010101" stroke-width="1.5" stroke-miterlimit="10" d="M325,94.5c0,0-10.3,10.2-14.5,31.2"/>
		<path fill="none" stroke="#010101" stroke-width="1.5" stroke-miterlimit="10" d="M310.5,125.7c-0.2,2.6-1.6,13.4-1.7,16.2
			l3.8,0.9c0,0,2.5-10.2,3.8-15.4"/>
		<path fill="none" stroke="#010101" stroke-width="1.5" stroke-miterlimit="10" d="M316.4,127.3c2-6.2,4.8-12.8,8.6-16.2"/>
		<line fill="none" stroke="#010101" stroke-width="1.5" stroke-miterlimit="10" x1="319.2" y1="119.9" x2="314" y2="113.3"/>
		<path fill="none" stroke="#010101" stroke-width="1.5" stroke-miterlimit="10" d="M308.8,141.8l-3.8,5.7c0,0,1.7,5.3,1.9,5.3
			c0.2,0,9,0,9,0l1.4-6.6l-4.9-3.6"/>
		<path fill="none" stroke="#010101" stroke-width="1.5" stroke-miterlimit="10" d="M348.5,100c0,0,1.7,20.1,19.4,26.9l-1.5,3.8
			c0,0-13.4,0.1-20.7-15.2"/>
		<polyline fill="none" stroke="#010101" stroke-width="1.5" stroke-miterlimit="10" points="367.8,127.1 371.4,124.8 377.7,126.6 
			375.2,136.2 367.4,134.4 366.4,131.3 		"/>
		<path fill="none" stroke="#010101" stroke-width="1.5" stroke-miterlimit="10" d="M326,140.6c5.5,36.5-5.6,73.6-5.6,73.6l6.3,0.6
			c12.4-24.9,15-74.3,15-74.3"/>
		<path fill="none" stroke="#010101" stroke-width="1.5" stroke-miterlimit="10" d="M341.9,139.2c9.4,28.5,14.9,76.4,14.9,76.4
			l-6,0.6c0,0-7.8-40-12.2-46.4"/>
		<polyline fill="none" stroke="#010101" stroke-width="1.5" stroke-miterlimit="10" points="326.7,214.9 339.9,218.3 332,223.1 
			318.5,217.4 320.4,214.3 		"/>
		<polyline fill="none" stroke="#010101" stroke-width="1.5" stroke-miterlimit="10" points="350.8,216.3 350.8,221.5 367.6,224.1 
			373.4,216.3 356.8,215.6 		"/>
	</g>
	<g>
		
			<ellipse transform="matrix(0.2321 -0.9727 0.9727 0.2321 10.8523 537.2028)" fill="none" stroke="#010101" stroke-width="1.5" stroke-miterlimit="10" cx="345.7" cy="261.7" rx="14.9" ry="10.3"/>
		<polyline fill="none" stroke="#010101" stroke-width="1.5" stroke-miterlimit="10" points="340,275.2 339.1,279.7 344.2,280.7 
			345.3,276.2 		"/>
		<path fill="none" stroke="#010101" stroke-width="1.5" stroke-miterlimit="10" d="M325.9,321.1c1-9.6,4.5-41.4,4.5-41.4
			s13.6-0.3,19.6,3.8l-9,42.4c0,0-9.8-1.3-13.8-1.8"/>
		<polyline fill="none" stroke="#010101" stroke-width="1.5" stroke-miterlimit="10" points="330.4,279.7 313.1,293 318.3,317.3 
			322.5,316.3 320.6,294.9 		"/>
		<line fill="none" stroke="#010101" stroke-width="1.5" stroke-miterlimit="10" x1="329.4" y1="289.6" x2="314.2" y2="299"/>
		<polyline fill="none" stroke="#010101" stroke-width="1.5" stroke-miterlimit="10" points="318.3,317.3 317.2,323.6 321.2,327.9 
			328.4,324.5 322.5,316.3 		"/>
		<polyline fill="none" stroke="#010101" stroke-width="1.5" stroke-miterlimit="10" points="349.1,287.6 355.7,301.3 369.7,297.1 
			370.7,300.9 354.2,309.1 346.8,300.1 		"/>
		<path fill="none" stroke="#010101" stroke-width="1.5" stroke-miterlimit="10" d="M369.7,297.1v-3.2l6.4-4l2.7,3.6
			c0,0,2.6,4.6,2.7,4.8"/>
		<path fill="none" stroke="#010101" stroke-width="1.5" stroke-miterlimit="10" d="M381.5,298.4c-1,0.7-5.8,4.7-5.8,4.7l-5-2.1"/>
		<path fill="none" stroke="#010101" stroke-width="1.5" stroke-miterlimit="10" d="M339.1,325.8c0,0-3.4,45.4-28.9,69.4l-3.3-2
			c0,0,19-42.9,18.7-67.2"/>
		<path fill="none" stroke="#010101" stroke-width="1.5" stroke-miterlimit="10" d="M341,325.8c0,0,15.6,35.3,18.5,68.1l-4.2,1.3
			c0,0-15.6-50.4-18.2-55.7"/>
		<path fill="none" stroke="#010101" stroke-width="1.5" stroke-miterlimit="10" d="M306.6,393.1l-4.8,4.6c0,0,8.8,8,9.2,8
			s14.2-0.5,14.2-0.5l-15-10.1"/>
		<path fill="none" stroke="#010101" stroke-width="1.5" stroke-miterlimit="10" d="M355.3,395.3v6.2c0,0,8-1,14-1.6l6.8-0.4
			l-0.6-6.6c-6.2,0.5-16,1.2-16,1.2"/>
	</g>
</g>
<g>
	<g>
		
			<ellipse transform="matrix(0.1309 -0.9914 0.9914 0.1309 -192.4576 764.8726)" fill="none" stroke="#010101" stroke-width="1.5" stroke-miterlimit="10" cx="340" cy="492.2" rx="13.8" ry="9.9"/>
		<polyline fill="none" stroke="#010101" stroke-width="1.5" stroke-miterlimit="10" points="335.5,505.2 335.5,509.2 340.1,509.8 
			340.9,506.3 		"/>
		<path fill="none" stroke="#010101" stroke-width="1.5" stroke-miterlimit="10" d="M325.5,555.6h15.8l7.4-43.7
			c-9.7-3.1-24-2.5-24-2.5L325.5,555.6z"/>
		<path fill="none" stroke="#010101" stroke-width="1.5" stroke-miterlimit="10" d="M324.5,509.5c0,0-10.3,10.2-14.5,31.2"/>
		<path fill="none" stroke="#010101" stroke-width="1.5" stroke-miterlimit="10" d="M310.1,540.6c-0.2,2.6-1.6,13.4-1.7,16.2
			l3.8,0.9c0,0,2.5-10.2,3.8-15.4"/>
		<path fill="none" stroke="#010101" stroke-width="1.5" stroke-miterlimit="10" d="M316,542.3c2-6.2,4.8-12.8,8.6-16.2"/>
		<line fill="none" stroke="#010101" stroke-width="1.5" stroke-miterlimit="10" x1="318.8" y1="534.9" x2="313.6" y2="528.2"/>
		<path fill="none" stroke="#010101" stroke-width="1.5" stroke-miterlimit="10" d="M308.4,556.8l-3.8,5.7c0,0,1.7,5.3,1.9,5.3
			s9,0,9,0l1.4-6.6l-4.9-3.6"/>
		<path fill="none" stroke="#010101" stroke-width="1.5" stroke-miterlimit="10" d="M348,515c0,0,1.7,20.1,19.4,26.9l-1.5,3.8
			c0,0-13.4,0.1-20.7-15.2"/>
		<polyline fill="none" stroke="#010101" stroke-width="1.5" stroke-miterlimit="10" points="367.3,542.1 371,539.8 377.2,541.6 
			374.8,551.2 367,549.4 366,546.2 		"/>
		<path fill="none" stroke="#010101" stroke-width="1.5" stroke-miterlimit="10" d="M325.5,555.6c5.5,36.5-5.6,73.6-5.6,73.6
			l6.3,0.6c12.4-24.9,15-74.3,15-74.3"/>
		<path fill="none" stroke="#010101" stroke-width="1.5" stroke-miterlimit="10" d="M341.5,554.1c9.4,28.5,14.9,76.4,14.9,76.4
			l-6,0.6c0,0-7.8-40-12.2-46.4"/>
		<polyline fill="none" stroke="#010101" stroke-width="1.5" stroke-miterlimit="10" points="326.2,629.9 339.5,633.3 331.6,638.1 
			318.1,632.3 319.9,629.2 		"/>
		<polyline fill="none" stroke="#010101" stroke-width="1.5" stroke-miterlimit="10" points="350.4,631.2 350.4,636.4 367.2,639.1 
			372.9,631.2 356.4,630.6 		"/>
	</g>
	<g>
		
			<ellipse transform="matrix(0.2321 -0.9727 0.9727 0.2321 -393.135 855.4181)" fill="none" stroke="#010101" stroke-width="1.5" stroke-miterlimit="10" cx="345.2" cy="676.7" rx="14.9" ry="10.3"/>
		<polyline fill="none" stroke="#010101" stroke-width="1.5" stroke-miterlimit="10" points="339.5,690.2 338.7,694.6 343.7,695.7 
			344.8,691.2 		"/>
		<path fill="none" stroke="#010101" stroke-width="1.5" stroke-miterlimit="10" d="M325.5,736.1c1-9.6,4.5-41.4,4.5-41.4
			s13.6-0.3,19.6,3.8l-9,42.4c0,0-9.8-1.3-13.8-1.8"/>
		<polyline fill="none" stroke="#010101" stroke-width="1.5" stroke-miterlimit="10" points="329.9,694.6 312.7,708 317.9,732.2 
			322,731.3 320.2,709.8 		"/>
		<line fill="none" stroke="#010101" stroke-width="1.5" stroke-miterlimit="10" x1="328.9" y1="704.6" x2="313.7" y2="714"/>
		<polyline fill="none" stroke="#010101" stroke-width="1.5" stroke-miterlimit="10" points="317.9,732.2 316.8,738.5 320.7,742.9 
			327.9,739.5 322,731.3 		"/>
		<polyline fill="none" stroke="#010101" stroke-width="1.5" stroke-miterlimit="10" points="348.7,702.6 355.3,716.3 369.2,712.1 
			370.2,715.9 353.8,724.1 346.3,715 		"/>
		<path fill="none" stroke="#010101" stroke-width="1.5" stroke-miterlimit="10" d="M369.2,712.1v-3.2l6.4-4l2.7,3.6
			c0,0,2.6,4.6,2.7,4.8"/>
		<path fill="none" stroke="#010101" stroke-width="1.5" stroke-miterlimit="10" d="M381,713.4c-1,0.7-5.8,4.7-5.8,4.7l-5-2.1"/>
		<path fill="none" stroke="#010101" stroke-width="1.5" stroke-miterlimit="10" d="M338.7,740.8c0,0-3.4,45.4-28.9,69.4l-3.3-2
			c0,0,19-42.9,18.7-67.2"/>
		<path fill="none" stroke="#010101" stroke-width="1.5" stroke-miterlimit="10" d="M340.6,740.8c0,0,15.6,35.3,18.5,68.1l-4.2,1.3
			c0,0-15.6-50.4-18.2-55.7"/>
		<path fill="none" stroke="#010101" stroke-width="1.5" stroke-miterlimit="10" d="M306.1,808.1l-4.8,4.6c0,0,8.8,8,9.2,8
			c0.4,0,14.2-0.5,14.2-0.5l-15-10.1"/>
		<path fill="none" stroke="#010101" stroke-width="1.5" stroke-miterlimit="10" d="M354.8,810.3v6.2c0,0,8-1,14-1.6l6.8-0.4
			l-0.6-6.6c-6.2,0.5-16,1.2-16,1.2"/>
	</g>
</g>
<g>
	<g>
		<g>
			
				<ellipse transform="matrix(0.1309 -0.9914 0.9914 0.1309 194.8291 303.6596)" fill="none" stroke="#010101" stroke-width="1.5" stroke-miterlimit="10" cx="270.6" cy="40.7" rx="7.9" ry="5.6"/>
			<polyline fill="none" stroke="#010101" stroke-width="1.5" stroke-miterlimit="10" points="268,48.1 268,50.4 270.7,50.7 
				271.1,48.7 			"/>
			<path fill="none" stroke="#010101" stroke-width="1.5" stroke-miterlimit="10" d="M262.3,76.8h9l4.2-24.8
				c-5.5-1.8-13.6-1.4-13.6-1.4L262.3,76.8z"/>
			<path fill="none" stroke="#010101" stroke-width="1.5" stroke-miterlimit="10" d="M261.8,50.5c0,0-5.9,5.8-8.2,17.7"/>
			<path fill="none" stroke="#010101" stroke-width="1.5" stroke-miterlimit="10" d="M253.6,68.2c-0.1,1.5-0.9,7.6-1,9.2l2.2,0.5
				c0,0,1.4-5.8,2.1-8.7"/>
			<path fill="none" stroke="#010101" stroke-width="1.5" stroke-miterlimit="10" d="M256.9,69.2c1.1-3.5,2.7-7.3,4.9-9.2"/>
			<line fill="none" stroke="#010101" stroke-width="1.5" stroke-miterlimit="10" x1="258.5" y1="65" x2="255.6" y2="61.2"/>
			<path fill="none" stroke="#010101" stroke-width="1.5" stroke-miterlimit="10" d="M252.6,77.4l-2.1,3.2c0,0,1,3,1.1,3
				s5.1,0,5.1,0l0.8-3.7l-2.8-2"/>
			<path fill="none" stroke="#010101" stroke-width="1.5" stroke-miterlimit="10" d="M275.2,53.7c0,0,1,11.4,11,15.3l-0.9,2.2
				c0,0-7.6,0-11.8-8.6"/>
			<polyline fill="none" stroke="#010101" stroke-width="1.5" stroke-miterlimit="10" points="286.1,69.1 288.2,67.7 291.8,68.8 
				290.4,74.3 285.9,73.2 285.4,71.4 			"/>
			<path fill="none" stroke="#010101" stroke-width="1.5" stroke-miterlimit="10" d="M262.3,76.8c3.1,20.7-3.2,41.9-3.2,41.9
				l3.6,0.3c7-14.1,8.5-42.2,8.5-42.2"/>
			<path fill="none" stroke="#010101" stroke-width="1.5" stroke-miterlimit="10" d="M271.4,75.9c5.3,16.2,8.5,43.4,8.5,43.4
				l-3.4,0.4c0,0-4.4-22.7-7-26.4"/>
			<polyline fill="none" stroke="#010101" stroke-width="1.5" stroke-miterlimit="10" points="262.8,119 270.3,120.9 265.8,123.7 
				258.1,120.4 259.2,118.6 			"/>
			<polyline fill="none" stroke="#010101" stroke-width="1.5" stroke-miterlimit="10" points="276.5,119.8 276.5,122.7 286,124.2 
				289.3,119.8 279.9,119.4 			"/>
		</g>
		<g>
			
				<ellipse transform="matrix(0.2321 -0.9727 0.9727 0.2321 68.4174 377.9126)" fill="none" stroke="#010101" stroke-width="1.5" stroke-miterlimit="10" cx="273.6" cy="145.6" rx="8.5" ry="5.9"/>
			<polyline fill="none" stroke="#010101" stroke-width="1.5" stroke-miterlimit="10" points="270.3,153.3 269.8,155.8 272.7,156.4 
				273.3,153.9 			"/>
			<path fill="none" stroke="#010101" stroke-width="1.5" stroke-miterlimit="10" d="M262.3,179.4c0.6-5.5,2.5-23.6,2.5-23.6
				s7.7-0.2,11.1,2.1l-5.1,24.1c0,0-5.6-0.7-7.8-1"/>
			<polyline fill="none" stroke="#010101" stroke-width="1.5" stroke-miterlimit="10" points="264.9,155.8 255.1,163.4 258,177.2 
				260.4,176.7 259.3,164.5 			"/>
			<line fill="none" stroke="#010101" stroke-width="1.5" stroke-miterlimit="10" x1="264.3" y1="161.5" x2="255.6" y2="166.8"/>
			<polyline fill="none" stroke="#010101" stroke-width="1.5" stroke-miterlimit="10" points="258,177.2 257.4,180.8 259.6,183.3 
				263.7,181.3 260.4,176.7 			"/>
			<polyline fill="none" stroke="#010101" stroke-width="1.5" stroke-miterlimit="10" points="275.5,160.3 279.3,168.2 287.2,165.7 
				287.8,167.9 278.4,172.6 274.2,167.4 			"/>
			<path fill="none" stroke="#010101" stroke-width="1.5" stroke-miterlimit="10" d="M287.2,165.7v-1.8l3.6-2.3l1.5,2
				c0,0,1.5,2.6,1.5,2.7"/>
			<path fill="none" stroke="#010101" stroke-width="1.5" stroke-miterlimit="10" d="M293.9,166.5c-0.5,0.4-3.3,2.7-3.3,2.7
				l-2.9-1.2"/>
			<path fill="none" stroke="#010101" stroke-width="1.5" stroke-miterlimit="10" d="M269.8,182.1c0,0-1.9,25.8-16.4,39.5l-1.9-1.1
				c0,0,10.8-24.4,10.6-38.2"/>
			<path fill="none" stroke="#010101" stroke-width="1.5" stroke-miterlimit="10" d="M270.9,182.1c0,0,8.9,20.1,10.5,38.7l-2.4,0.7
				c0,0-8.9-28.6-10.4-31.6"/>
			<path fill="none" stroke="#010101" stroke-width="1.5" stroke-miterlimit="10" d="M251.3,220.4l-2.7,2.6c0,0,5,4.5,5.2,4.5
				c0.2,0,8.1-0.3,8.1-0.3l-8.5-5.7"/>
			<path fill="none" stroke="#010101" stroke-width="1.5" stroke-miterlimit="10" d="M279,221.6v3.5c0,0,4.5-0.5,8-0.9l3.9-0.2
				l-0.3-3.8c-3.5,0.3-9.1,0.7-9.1,0.7"/>
		</g>
	</g>
	<g>
		<g>
			
				<ellipse transform="matrix(0.1309 -0.9914 0.9914 0.1309 -14.0934 482.9743)" fill="none" stroke="#010101" stroke-width="1.5" stroke-miterlimit="10" cx="268.4" cy="249.5" rx="7.9" ry="5.6"/>
			<polyline fill="none" stroke="#010101" stroke-width="1.5" stroke-miterlimit="10" points="265.8,256.9 265.8,259.2 268.5,259.5 
				268.9,257.5 			"/>
			<path fill="none" stroke="#010101" stroke-width="1.5" stroke-miterlimit="10" d="M260.2,285.6h9l4.2-24.8
				c-5.5-1.8-13.6-1.4-13.6-1.4L260.2,285.6z"/>
			<path fill="none" stroke="#010101" stroke-width="1.5" stroke-miterlimit="10" d="M259.6,259.3c0,0-5.9,5.8-8.2,17.7"/>
			<path fill="none" stroke="#010101" stroke-width="1.5" stroke-miterlimit="10" d="M251.4,277.1c-0.1,1.5-0.9,7.6-1,9.2l2.2,0.5
				c0,0,1.4-5.8,2.1-8.7"/>
			<path fill="none" stroke="#010101" stroke-width="1.5" stroke-miterlimit="10" d="M254.8,278c1.1-3.5,2.7-7.3,4.9-9.2"/>
			<line fill="none" stroke="#010101" stroke-width="1.5" stroke-miterlimit="10" x1="256.3" y1="273.8" x2="253.4" y2="270"/>
			<path fill="none" stroke="#010101" stroke-width="1.5" stroke-miterlimit="10" d="M250.4,286.3l-2.1,3.2c0,0,1,3,1.1,3
				s5.1,0,5.1,0l0.8-3.7l-2.8-2"/>
			<path fill="none" stroke="#010101" stroke-width="1.5" stroke-miterlimit="10" d="M273,262.5c0,0,1,11.4,11,15.3l-0.9,2.2
				c0,0-7.6,0-11.8-8.6"/>
			<polyline fill="none" stroke="#010101" stroke-width="1.5" stroke-miterlimit="10" points="283.9,277.9 286,276.6 289.6,277.6 
				288.2,283.1 283.8,282 283.2,280.2 			"/>
			<path fill="none" stroke="#010101" stroke-width="1.5" stroke-miterlimit="10" d="M260.2,285.6c3.1,20.7-3.2,41.9-3.2,41.9
				l3.6,0.3c7-14.1,8.5-42.2,8.5-42.2"/>
			<path fill="none" stroke="#010101" stroke-width="1.5" stroke-miterlimit="10" d="M269.3,284.8c5.3,16.2,8.5,43.4,8.5,43.4
				l-3.4,0.4c0,0-4.4-22.7-7-26.4"/>
			<polyline fill="none" stroke="#010101" stroke-width="1.5" stroke-miterlimit="10" points="260.6,327.8 268.1,329.8 263.6,332.5 
				255.9,329.2 257,327.4 			"/>
			<polyline fill="none" stroke="#010101" stroke-width="1.5" stroke-miterlimit="10" points="274.3,328.6 274.3,331.5 283.9,333 
				287.1,328.6 277.7,328.2 			"/>
		</g>
		<g>
			
				<ellipse transform="matrix(0.2321 -0.9727 0.9727 0.2321 -136.3781 536.136)" fill="none" stroke="#010101" stroke-width="1.5" stroke-miterlimit="10" cx="271.4" cy="354.4" rx="8.5" ry="5.9"/>
			<polyline fill="none" stroke="#010101" stroke-width="1.5" stroke-miterlimit="10" points="268.1,362.1 267.6,364.6 270.5,365.2 
				271.1,362.7 			"/>
			<path fill="none" stroke="#010101" stroke-width="1.5" stroke-miterlimit="10" d="M260.1,388.2c0.6-5.5,2.5-23.6,2.5-23.6
				s7.7-0.2,11.1,2.1l-5.1,24.1c0,0-5.6-0.7-7.8-1"/>
			<polyline fill="none" stroke="#010101" stroke-width="1.5" stroke-miterlimit="10" points="262.7,364.6 252.9,372.2 255.8,386 
				258.2,385.5 257.1,373.3 			"/>
			<line fill="none" stroke="#010101" stroke-width="1.5" stroke-miterlimit="10" x1="262.1" y1="370.3" x2="253.5" y2="375.7"/>
			<polyline fill="none" stroke="#010101" stroke-width="1.5" stroke-miterlimit="10" points="255.8,386 255.2,389.6 257.5,392.1 
				261.6,390.2 258.2,385.5 			"/>
			<polyline fill="none" stroke="#010101" stroke-width="1.5" stroke-miterlimit="10" points="273.3,369.2 277.1,377 285,374.6 
				285.6,376.7 276.2,381.4 272,376.2 			"/>
			<path fill="none" stroke="#010101" stroke-width="1.5" stroke-miterlimit="10" d="M285,374.6v-1.8l3.6-2.3l1.5,2
				c0,0,1.5,2.6,1.5,2.7"/>
			<path fill="none" stroke="#010101" stroke-width="1.5" stroke-miterlimit="10" d="M291.7,375.3c-0.5,0.4-3.3,2.7-3.3,2.7
				l-2.9-1.2"/>
			<path fill="none" stroke="#010101" stroke-width="1.5" stroke-miterlimit="10" d="M267.6,390.9c0,0-1.9,25.8-16.4,39.5l-1.9-1.1
				c0,0,10.8-24.4,10.6-38.2"/>
			<path fill="none" stroke="#010101" stroke-width="1.5" stroke-miterlimit="10" d="M268.7,390.9c0,0,8.9,20.1,10.5,38.7l-2.4,0.7
				c0,0-8.9-28.6-10.4-31.6"/>
			<path fill="none" stroke="#010101" stroke-width="1.5" stroke-miterlimit="10" d="M249.1,429.2l-2.7,2.6c0,0,5,4.5,5.2,4.5
				c0.2,0,8.1-0.3,8.1-0.3l-8.5-5.7"/>
			<path fill="none" stroke="#010101" stroke-width="1.5" stroke-miterlimit="10" d="M276.8,430.4v3.5c0,0,4.5-0.5,8-0.9l3.9-0.2
				l-0.3-3.8c-3.5,0.3-9.1,0.7-9.1,0.7"/>
		</g>
	</g>
</g>
<g>
	<g>
		<g>
			
				<ellipse transform="matrix(0.1309 -0.9914 0.9914 0.1309 -216.9656 663.861)" fill="none" stroke="#010101" stroke-width="1.5" stroke-miterlimit="10" cx="270.2" cy="455.7" rx="7.9" ry="5.6"/>
			<polyline fill="none" stroke="#010101" stroke-width="1.5" stroke-miterlimit="10" points="267.6,463.1 267.6,465.4 270.2,465.7 
				270.7,463.7 			"/>
			<path fill="none" stroke="#010101" stroke-width="1.5" stroke-miterlimit="10" d="M261.9,491.7h9l4.2-24.8
				c-5.5-1.8-13.6-1.4-13.6-1.4L261.9,491.7z"/>
			<path fill="none" stroke="#010101" stroke-width="1.5" stroke-miterlimit="10" d="M261.3,465.5c0,0-5.9,5.8-8.2,17.7"/>
			<path fill="none" stroke="#010101" stroke-width="1.5" stroke-miterlimit="10" d="M253.1,483.2c-0.1,1.5-0.9,7.6-1,9.2l2.2,0.5
				c0,0,1.4-5.8,2.1-8.7"/>
			<path fill="none" stroke="#010101" stroke-width="1.5" stroke-miterlimit="10" d="M256.5,484.2c1.1-3.5,2.7-7.3,4.9-9.2"/>
			<line fill="none" stroke="#010101" stroke-width="1.5" stroke-miterlimit="10" x1="258.1" y1="479.9" x2="255.1" y2="476.2"/>
			<path fill="none" stroke="#010101" stroke-width="1.5" stroke-miterlimit="10" d="M252.2,492.4l-2.1,3.2c0,0,1,3,1.1,3
				s5.1,0,5.1,0l0.8-3.7l-2.8-2"/>
			<path fill="none" stroke="#010101" stroke-width="1.5" stroke-miterlimit="10" d="M274.7,468.6c0,0,1,11.4,11,15.3l-0.9,2.2
				c0,0-7.6,0-11.8-8.6"/>
			<polyline fill="none" stroke="#010101" stroke-width="1.5" stroke-miterlimit="10" points="285.7,484 287.8,482.7 291.3,483.8 
				289.9,489.2 285.5,488.2 284.9,486.4 			"/>
			<path fill="none" stroke="#010101" stroke-width="1.5" stroke-miterlimit="10" d="M261.9,491.7c3.1,20.7-3.2,41.9-3.2,41.9
				l3.6,0.3c7-14.1,8.5-42.2,8.5-42.2"/>
			<path fill="none" stroke="#010101" stroke-width="1.5" stroke-miterlimit="10" d="M271,490.9c5.3,16.2,8.5,43.4,8.5,43.4
				l-3.4,0.4c0,0-4.4-22.7-7-26.4"/>
			<polyline fill="none" stroke="#010101" stroke-width="1.5" stroke-miterlimit="10" points="262.3,534 269.9,535.9 265.4,538.6 
				257.7,535.4 258.7,533.6 			"/>
			<polyline fill="none" stroke="#010101" stroke-width="1.5" stroke-miterlimit="10" points="276,534.7 276,537.7 285.6,539.2 
				288.9,534.7 279.4,534.4 			"/>
		</g>
		<g>
			
				<ellipse transform="matrix(0.2321 -0.9727 0.9727 0.2321 -335.57 696.1279)" fill="none" stroke="#010101" stroke-width="1.5" stroke-miterlimit="10" cx="273.1" cy="560.6" rx="8.5" ry="5.9"/>
			<polyline fill="none" stroke="#010101" stroke-width="1.5" stroke-miterlimit="10" points="269.9,568.3 269.4,570.8 272.2,571.4 
				272.9,568.8 			"/>
			<path fill="none" stroke="#010101" stroke-width="1.5" stroke-miterlimit="10" d="M261.9,594.4c0.6-5.5,2.5-23.6,2.5-23.6
				s7.7-0.2,11.1,2.1l-5.1,24.1c0,0-5.6-0.7-7.8-1"/>
			<polyline fill="none" stroke="#010101" stroke-width="1.5" stroke-miterlimit="10" points="264.4,570.8 254.6,578.4 257.6,592.2 
				259.9,591.6 258.9,579.4 			"/>
			<line fill="none" stroke="#010101" stroke-width="1.5" stroke-miterlimit="10" x1="263.8" y1="576.4" x2="255.2" y2="581.8"/>
			<polyline fill="none" stroke="#010101" stroke-width="1.5" stroke-miterlimit="10" points="257.6,592.2 256.9,595.8 259.2,598.2 
				263.3,596.3 259.9,591.6 			"/>
			<polyline fill="none" stroke="#010101" stroke-width="1.5" stroke-miterlimit="10" points="275.1,575.3 278.8,583.1 286.8,580.7 
				287.3,582.9 278,587.5 273.7,582.4 			"/>
			<path fill="none" stroke="#010101" stroke-width="1.5" stroke-miterlimit="10" d="M286.8,580.7v-1.8l3.6-2.3l1.5,2
				c0,0,1.5,2.6,1.5,2.7"/>
			<path fill="none" stroke="#010101" stroke-width="1.5" stroke-miterlimit="10" d="M293.5,581.4c-0.5,0.4-3.3,2.7-3.3,2.7
				l-2.9-1.2"/>
			<path fill="none" stroke="#010101" stroke-width="1.5" stroke-miterlimit="10" d="M269.4,597c0,0-1.9,25.8-16.4,39.5l-1.9-1.1
				c0,0,10.8-24.4,10.6-38.2"/>
			<path fill="none" stroke="#010101" stroke-width="1.5" stroke-miterlimit="10" d="M270.5,597c0,0,8.9,20.1,10.5,38.7l-2.4,0.7
				c0,0-8.9-28.6-10.4-31.6"/>
			<path fill="none" stroke="#010101" stroke-width="1.5" stroke-miterlimit="10" d="M250.9,635.3l-2.7,2.6c0,0,5,4.5,5.2,4.5
				c0.2,0,8.1-0.3,8.1-0.3l-8.5-5.7"/>
			<path fill="none" stroke="#010101" stroke-width="1.5" stroke-miterlimit="10" d="M278.6,636.6v3.5c0,0,4.5-0.5,8-0.9l3.9-0.2
				l-0.3-3.8c-3.5,0.3-9.1,0.7-9.1,0.7"/>
		</g>
	</g>
	<g>
		<g>
			
				<ellipse transform="matrix(0.1309 -0.9914 0.9914 0.1309 -425.888 843.1757)" fill="none" stroke="#010101" stroke-width="1.5" stroke-miterlimit="10" cx="268" cy="664.5" rx="7.9" ry="5.6"/>
			<polyline fill="none" stroke="#010101" stroke-width="1.5" stroke-miterlimit="10" points="265.4,671.9 265.4,674.2 268,674.5 
				268.5,672.5 			"/>
			<path fill="none" stroke="#010101" stroke-width="1.5" stroke-miterlimit="10" d="M259.7,700.5h9l4.2-24.8
				c-5.5-1.8-13.6-1.4-13.6-1.4L259.7,700.5z"/>
			<path fill="none" stroke="#010101" stroke-width="1.5" stroke-miterlimit="10" d="M259.2,674.3c0,0-5.9,5.8-8.2,17.7"/>
			<path fill="none" stroke="#010101" stroke-width="1.5" stroke-miterlimit="10" d="M250.9,692c-0.1,1.5-0.9,7.6-1,9.2l2.2,0.5
				c0,0,1.4-5.8,2.1-8.7"/>
			<path fill="none" stroke="#010101" stroke-width="1.5" stroke-miterlimit="10" d="M254.3,693c1.1-3.5,2.7-7.3,4.9-9.2"/>
			<line fill="none" stroke="#010101" stroke-width="1.5" stroke-miterlimit="10" x1="255.9" y1="688.8" x2="252.9" y2="685"/>
			<path fill="none" stroke="#010101" stroke-width="1.5" stroke-miterlimit="10" d="M250,701.2l-2.1,3.2c0,0,1,3,1.1,3s5.1,0,5.1,0
				l0.8-3.7l-2.8-2"/>
			<path fill="none" stroke="#010101" stroke-width="1.5" stroke-miterlimit="10" d="M272.5,677.4c0,0,1,11.4,11,15.3l-0.9,2.2
				c0,0-7.6,0-11.8-8.6"/>
			<polyline fill="none" stroke="#010101" stroke-width="1.5" stroke-miterlimit="10" points="283.5,692.9 285.6,691.5 289.1,692.6 
				287.7,698 283.3,697 282.7,695.2 			"/>
			<path fill="none" stroke="#010101" stroke-width="1.5" stroke-miterlimit="10" d="M259.7,700.5c3.1,20.7-3.2,41.9-3.2,41.9
				l3.6,0.3c7-14.1,8.5-42.2,8.5-42.2"/>
			<path fill="none" stroke="#010101" stroke-width="1.5" stroke-miterlimit="10" d="M268.8,699.7c5.3,16.2,8.5,43.4,8.5,43.4
				l-3.4,0.4c0,0-4.4-22.7-7-26.4"/>
			<polyline fill="none" stroke="#010101" stroke-width="1.5" stroke-miterlimit="10" points="260.1,742.8 267.7,744.7 263.2,747.5 
				255.5,744.2 256.5,742.4 			"/>
			<polyline fill="none" stroke="#010101" stroke-width="1.5" stroke-miterlimit="10" points="273.8,743.6 273.8,746.5 283.4,748 
				286.7,743.6 277.3,743.2 			"/>
		</g>
		<g>
			
				<ellipse transform="matrix(0.2321 -0.9727 0.9727 0.2321 -540.3655 854.3514)" fill="none" stroke="#010101" stroke-width="1.5" stroke-miterlimit="10" cx="270.9" cy="769.4" rx="8.5" ry="5.9"/>
			<polyline fill="none" stroke="#010101" stroke-width="1.5" stroke-miterlimit="10" points="267.7,777.1 267.2,779.6 270.1,780.2 
				270.7,777.7 			"/>
			<path fill="none" stroke="#010101" stroke-width="1.5" stroke-miterlimit="10" d="M259.7,803.2c0.6-5.5,2.5-23.6,2.5-23.6
				s7.7-0.2,11.1,2.1l-5.1,24.1c0,0-5.6-0.7-7.8-1"/>
			<polyline fill="none" stroke="#010101" stroke-width="1.5" stroke-miterlimit="10" points="262.2,779.6 252.4,787.2 255.4,801 
				257.7,800.4 256.7,788.3 			"/>
			<line fill="none" stroke="#010101" stroke-width="1.5" stroke-miterlimit="10" x1="261.6" y1="785.3" x2="253" y2="790.6"/>
			<polyline fill="none" stroke="#010101" stroke-width="1.5" stroke-miterlimit="10" points="255.4,801 254.7,804.6 257,807 
				261.1,805.1 257.7,800.4 			"/>
			<polyline fill="none" stroke="#010101" stroke-width="1.5" stroke-miterlimit="10" points="272.9,784.1 276.7,791.9 284.6,789.5 
				285.2,791.7 275.8,796.4 271.6,791.2 			"/>
			<path fill="none" stroke="#010101" stroke-width="1.5" stroke-miterlimit="10" d="M284.6,789.5v-1.8l3.6-2.3l1.5,2
				c0,0,1.5,2.6,1.5,2.7"/>
			<path fill="none" stroke="#010101" stroke-width="1.5" stroke-miterlimit="10" d="M291.3,790.3c-0.5,0.4-3.3,2.7-3.3,2.7
				l-2.9-1.2"/>
			<path fill="none" stroke="#010101" stroke-width="1.5" stroke-miterlimit="10" d="M267.2,805.9c0,0-1.9,25.8-16.4,39.5l-1.9-1.1
				c0,0,10.8-24.4,10.6-38.2"/>
			<path fill="none" stroke="#010101" stroke-width="1.5" stroke-miterlimit="10" d="M268.3,805.9c0,0,8.9,20.1,10.5,38.7l-2.4,0.7
				c0,0-8.9-28.6-10.4-31.6"/>
			<path fill="none" stroke="#010101" stroke-width="1.5" stroke-miterlimit="10" d="M248.7,844.1l-2.7,2.6c0,0,5,4.5,5.2,4.5
				c0.2,0,8.1-0.3,8.1-0.3l-8.5-5.7"/>
			<path fill="none" stroke="#010101" stroke-width="1.5" stroke-miterlimit="10" d="M276.4,845.4v3.5c0,0,4.5-0.5,8-0.9l3.9-0.2
				l-0.3-3.8c-3.5,0.3-9.1,0.7-9.1,0.7"/>
		</g>
	</g>
</g>
</svg>
