<?xml version="1.0" encoding="utf-8"?>
<!-- Generator: Adobe Illustrator 21.0.0, SVG Export Plug-In . SVG Version: 6.00 Build 0)  -->
<!DOCTYPE svg PUBLIC "-//W3C//DTD SVG 1.0//EN" "http://www.w3.org/TR/2001/REC-SVG-20010904/DTD/svg10.dtd">
<svg version="1.0" xmlns="http://www.w3.org/2000/svg" xmlns:xlink="http://www.w3.org/1999/xlink" x="0px" y="0px" width="1496px"
	 height="868px" viewBox="0 0 1496 868" enable-background="new 0 0 1496 868" xml:space="preserve">
<g id="Color">
	<path fill="#66BAD8" d="M361.6,787.5c-2-8.3-2.8-17.1-3.5-25.7c-1.5-18.6-3-38,3.8-55.4c4.5-11.4,12.3-21.2,20.3-30.6
		c10-11.7,20.7-23.2,26.8-37.3c6.4-15,7.2-31.8,13-47c4.2-11,11-20.8,15.1-31.9c4.5-12.2,5.5-25.4,6.5-38.4c0.4-5,0.8-10.1-0.6-15
		c-4.7-17.1-26.4-22.1-38.6-34.9c-11.7-12.3-13.7-30.8-21.3-46c-11.5-23.1-35-37.1-56.2-51.8c-19.1-13.2-27.7-30.4-36.4-51.6
		c-3.6-8.7-7-18.9-2.8-27.3c7.6-15.1,23.4-19.8,38-24.8c19.5-6.7,41.5-8.8,62-12.5c22.7-4.1,50.2-14,73.4-13.4c0,0,206,6,243,6
		c37,0,175,45,184,42s39-1,51-41s176-165,189-188s12-53,58-48s64-27,71,12s-32,74-56,133s-14,97,6,127s120,46,163,59s120,34,126,49
		s38,57-5,71s-163,5-212,15s57,47,113,47s92,6,94,19s52,86-52,88s-220,14-262,8s-97-31-117,20s-31,95-35,125s-130,64-149,63
		s-39.1-8-79.6-22C751,815,672,806,572,808c-39,0.8-78,3.8-116.7,8.8c-27.2,3.5-68.4,17.5-86.5-11.4
		C365.3,799.8,363.1,793.8,361.6,787.5z"/>
</g>
<g id="Stroke">
	
		<path opacity="0" fill="none" stroke="#000000" stroke-width="152" stroke-linecap="round" stroke-linejoin="round" stroke-miterlimit="10" d="
		M114.4,816.9c-2.5-231.2-2.8-472.1,98.9-679.7c-5.2,240-10.4,480.1-15.6,720.1c32.8-189.4,65.6-378.9,98.4-568.3
		c3.4-19.7,7.3-40.3,20.1-55.6c-10.3,235.6-9.3,471.8,2.9,707.3c48.7-79.8,68.5-174.1,75.7-267.4s2.6-187,6.6-280.4
		c4.7-107.6,20.8-214.7,48.1-319c22.1,137.9,38.2,278.2,22.1,416.9c-15.7,134.3-60.6,275.2-9,400.1c75.4-238,92.8-489.8,109.7-738.9
		c43,73.3,27.6,165.1,15.2,249.2c-11,74.9-18.5,150.2-22.5,225.8c-1.8,34.6-2.9,69.4,0.5,103.9c3.4,34.5,11.1,68.4,18.9,102.1
		c29.6-95.5,40.2-195.6,50.6-295c11.5-109.6,23-219.1,34.5-328.7c27.1,7.5,37.4,40.4,40,68.4c5.5,58.7-2.7,117.7-7.1,176.5
		c-12.3,161.9,4.2,326,48.3,482.3c66.5-111.9,69.9-249.4,64.7-379.5c-5.1-130.1-16.4-264.1,26-387.2
		c15.9,193.1,31.9,386.2,47.8,579.3c5.1,61.6,10.3,124,31,182.2c32.4-35.2,30.7-88.9,27-136.6c-9.8-165.2-25.7-330.3-38.6-495.4
		c-1.2-14.9-2.2-29.9-3.5-44.8c-1.1-12.2-5.3-24.6-2.7-36.8c2.1-9.7,9.6-19,19.5-19.7c9.2-0.7,17.4,6,22.4,13.8
		c6.6,10.2,9.3,22.4,11.7,34.4c15.8,78.2,24.9,157.5,36.8,236.3c6,39.7,12.7,79.4,21.3,118.6c4,18.4,6,32.3,5.6,51.5
		c-0.4,20.6-0.8,41.2-1.3,61.8c-0.2,9.1-0.4,18.1-0.6,27.2c-0.2,9.8,2,19.6,6.5,28.3c8.9-24.1,24-42.8,35.8-65
		c11.5-21.6,13.4-51.1,13.5-75.1c0.2-28.8-3.6-57.5-5.6-86.3c-3.8-54.3-1.3-109.6-15.4-162.2c-11.3-42.2-33.3-83.6-28-127
		c5.1,6.5,7.7,14.5,10.2,22.4c18.8,59.2,33.4,119.6,48,180c13.9,57.5,27.8,115.2,36.5,173.7c2.4,15.9,4.4,31.9,9.2,47.1
		c1.1,3.5,2.6,7.3,5.9,9c3.2,1.7,7.5,0.7,9.7-2.1c3.1-4.1,0-14.9,0.2-20.1c3.6-147.3-18.8-295.2-65.8-434.8
		c-18.7-55.6-41.7-112.4-35.5-170.8c123.4,198.7,134.7,451.1,256.2,651c55.6-129.6,16.9-278.1-22.3-413.6
		c-30.2-104.2-60.3-208.4-90.5-312.6c54.1,18.4,83.1,76.1,102.7,129.8c75.3,205.7,99.1,436.2,229.3,612.3c-2-105-4-210.9-26.6-313.5
		c-23.8-108.2-70.6-214.3-63.1-324.8"/>
</g>
</svg>
