<?xml version="1.0" encoding="utf-8"?>
<!-- Generator: Adobe Illustrator 19.2.1, SVG Export Plug-In . SVG Version: 6.00 Build 0)  -->
<svg version="1.0" id="Layer_1" xmlns="http://www.w3.org/2000/svg" xmlns:xlink="http://www.w3.org/1999/xlink" x="0px" y="0px"
	 width="288px" height="288px" viewBox="0 0 288 288" enable-background="new 0 0 288 288" xml:space="preserve">
<path fill="none" stroke="#000000" stroke-width="2" stroke-miterlimit="10" d="M61.6,70l16,6.4h15l7.5,17.6l17.5,8l9.5,17.5
	l18.5,21.3v15.8l-36.5-11.2l-5.5-12.8l-25,4l-12.5-11l10.5,15.3L54.1,143l-8.5-6.5l-11,8.8h10.5l10,5l25-5l8-4.5l13.5,4.5l1,9.1
	l40.5,13.2l2.5,32.3l-4,23.7l-9.5,18.5h53l-11-16.5l-8.5-19.7c0,0-2-20.8-2-20.3s-3-18-3-18l17-11.5l26,9.4l17.5-15.8h21l-15-4.4
	l23.5-10.8l3-18l-7.5,13.5l-21.5,10.8L203.1,156l-21-10.8l-18.5,4.4l-0.5-16.6l18.5-15.5l26.5,1.5l8-8.7V92l17.5-8.9l1-19.6l-7,17.2
	l-16.5,7.9l-1,17.9l-6,3.8h-26l-18,10.7l-2-22l11-27l-13.5-8.5l0.5-15L148.6,63l11,9l-4.5,8.7l-13-8.7l-6.5-10.5l-21,3l19.5,2.7
	l6,12.6l11,6.2c0,0,0,12-0.5,13s-0.5,20.5-0.5,20.5l-17.5-3.5l-7.5-19.5l-20-7l-12.5-29l-2,9.5l-13,2L61.6,70z"/>
</svg>
