<?xml version="1.0" encoding="utf-8"?>
<!-- Generator: Adobe Illustrator 19.2.1, SVG Export Plug-In . SVG Version: 6.00 Build 0)  -->
<svg version="1.0" xmlns="http://www.w3.org/2000/svg" xmlns:xlink="http://www.w3.org/1999/xlink" x="0px" y="0px" width="576px"
	 height="576px" viewBox="0 0 576 576" enable-background="new 0 0 576 576" xml:space="preserve">
<g id="Layer_2">
	<path fill="#27AAE1" d="M282.6,67.3c0,0-14.1,29.7,1.4,41c0,0-16.1-4.8-13-24.1C274,64.8,282.6,67.3,282.6,67.3z"/>
	<path fill="#27AAE1" d="M277.5,178.7c0,0-3.3-63.9-5-63.8c-1.7,0.2-9,1.2-9,1.2l0.4,6.5c0,0-16.3,18.9-15.2,18.9
		c1.1,0,17.2,18.5,17.2,18.5l-5.6,7.4l5,4.6l4.3-1.9l1.5,13.2l1,97L259.5,294l13.9,3l6.3-17.1L277.5,178.7z M265.3,150.1
		c-1.8-2.2-3-2.9-4.2-5.5c-0.3-0.7-1.6-1-1.8-1.7c-3.2-0.7-4-6-0.2-7.1c0.2-0.1,0.3-0.1,0.4-0.1c1.4-3.4,7.4-3.1,7.1,1.2
		c-0.1,1.7-0.6,3.5,0,5.2c0.7,1.7,0,4.4,0.6,6.2C269,152.4,268.3,153.7,265.3,150.1z"/>
	<path fill="#27AAE1" d="M284.8,178.7c0,0,2.9,98.8,3.4,99.5c0.5,0.7,6.8,13.8,6.8,13.8l18-4.6l-19.3-8.9l-4-99.8H284.8z"/>
	<path fill="#27AAE1" d="M51.8,510.5c0,0,52.2-49,100.8-58.8c0,0-28.2,54.8,9.8,53s43.2-11.8,58.2-31.8s41.5-26,41.5-26
		s-0.6,66.2,34.3,59.2S337,497,360,478.8s52.5-35.2,60.8-36.8c0,0-23.8,62.5,2,63.5s34.8,2.5,52.8-20.5s30.8-28.8,30.8-28.8
		s0.5,47.8,20.8,54.2H51.8z"/>
</g>
<g id="Layer_1">
	<path fill="none" stroke="#000000" stroke-width="2" stroke-miterlimit="10" d="M271,87.6c0,11.4,6.2,20.6,13.8,20.6
		c1.3,0,2.6-0.3,3.8-0.8c5.8-2.5,10-10.4,10-19.8c0-11.4-6.2-20.6-13.8-20.6C277.2,67,271,76.3,271,87.6z"/>
	<path fill="none" stroke="#000000" stroke-width="2" stroke-miterlimit="10" d="M296,70.3c0,0-12.2,2.4-19.5,0"/>
	<path fill="none" stroke="#000000" stroke-width="2" stroke-miterlimit="10" d="M298.6,73.5c0,0-14.4,3.3-23.9,0"/>
	<path fill="none" stroke="#000000" stroke-width="2" stroke-miterlimit="10" d="M298.6,76.4c0,0-7.9,6.6-25.7,0.5"/>
	<line fill="none" stroke="#000000" stroke-width="2" stroke-miterlimit="10" x1="288.8" y1="114.9" x2="288.6" y2="107.5"/>
	<line fill="none" stroke="#000000" stroke-width="2" stroke-miterlimit="10" x1="281" y1="107.5" x2="281" y2="114.8"/>
	<path fill="none" stroke="#000000" stroke-width="2" stroke-miterlimit="10" d="M303.2,114.1c0,0-23.2-1-39.8,2l7.5,62.5l27.7-1.5
		L303.2,114.1z"/>
	<path fill="none" stroke="#000000" stroke-width="2" stroke-miterlimit="10" d="M263.5,116.1c0,0-20.6,21.2-23.9,25.9l29.4,20.1"/>
	<line fill="none" stroke="#000000" stroke-width="2" stroke-miterlimit="10" x1="248.7" y1="131.6" x2="267.7" y2="151.4"/>
	<line fill="none" stroke="#000000" stroke-width="2" stroke-miterlimit="10" x1="255.3" y1="139.2" x2="265.3" y2="131.6"/>
	<polyline fill="none" stroke="#000000" stroke-width="2" stroke-miterlimit="10" points="263.5,158.4 258.2,165.5 265.3,172 
		269.6,168.5 	"/>
	<polyline fill="none" stroke="#000000" stroke-width="2" stroke-miterlimit="10" points="303.2,114.1 321.6,139.2 299.7,162.9 	"/>
	<line fill="none" stroke="#000000" stroke-width="2" stroke-miterlimit="10" x1="313.9" y1="129.8" x2="300.6" y2="149.6"/>
	<line fill="none" stroke="#000000" stroke-width="2" stroke-miterlimit="10" x1="301.8" y1="133.1" x2="308.2" y2="138.2"/>
	<polyline fill="none" stroke="#000000" stroke-width="2" stroke-miterlimit="10" points="299.7,167 307.3,170.1 311.1,162.9 
		303.2,159.6 	"/>
	<polyline fill="none" stroke="#000000" stroke-width="2" stroke-miterlimit="10" points="298.6,177.2 295,278.2 288.2,278.2 
		284.8,178.7 279.7,279.9 273,279.6 271,178.7 	"/>
	<polyline fill="none" stroke="#000000" stroke-width="2" stroke-miterlimit="10" points="279.7,279.9 274.2,295.2 259.5,291.7 
		273,279.6 	"/>
	<polyline fill="none" stroke="#000000" stroke-width="2" stroke-miterlimit="10" points="295,278.2 312.4,284.7 296.5,290.4 
		288.2,278.2 	"/>
	<path fill="none" stroke="#000000" stroke-width="2" stroke-miterlimit="10" d="M273.4,275.4c-6.7,1.3-15.2,2.8-16.8,1.8
		c-2.2-1.4-14.2-3.3-18.2-3.1c-4,0.2-23.5,1.4-25.5,3.1c-2,1.6-21,26.6-22.5,29.6s-5,31-6,37.5s-12,23.2-13.5,23.1
		c-1.5-0.1-27.5,26.4-29.5,30.4s-15,45.5-15,45.5s-0.8,4-2.1,10.2"/>
	<path fill="none" stroke="#000000" stroke-width="2" stroke-miterlimit="10" d="M288.7,272.3c-3,0.7-6.1,1.3-8.4,1.7"/>
	<path fill="none" stroke="#000000" stroke-width="2" stroke-miterlimit="10" d="M459.1,487c0,0-7.8-56.5-14.5-82.5
		S411.7,356,409.7,351s-3.8-17.1-5.3-20.6s-9-31.5-10.5-35s-10.5-16.2-16-15.1c-5.5,1.1-14.2-1.9-23.1-2.6s-32.9-8.5-36.9-7.9
		s-16.5-0.6-18.4,0c-0.5,0.2-1.6,0.4-3.1,0.8"/>
	<path fill="none" stroke="#000000" stroke-width="2" stroke-miterlimit="10" d="M222.6,297.5c0,0,20.5,6.2,23.2,6.8s19.5,2,19.5,2
		s15.2-5.8,18.2-4.4s10.5,2.9,15,2.9c4.5,0,22.7-2.2,23.5-2.9s14.2-7.9,14.2-7.9"/>
	<path fill="none" stroke="#000000" stroke-width="2" stroke-miterlimit="10" d="M43,508.8c0,0,50.5-59.5,116.5-61.5
		c0,0-29.5,57,15,53.5s35.8-61.8,98.9-64.3c0,0-8.4,66.8,37.3,61.3s54.7-63.5,134.2-66.5c0,0-42.5,63-12.5,68.5s43-55.5,88.5-63
		c0,0-21.5,63,12.5,63.5"/>
</g>
<g id="Layer_3">
	<path opacity="0" fill="none" stroke="#27AAE1" stroke-width="35" stroke-miterlimit="10" d="M261,71.7c11.6-2,23.5-2,35,0.1
		c-19.8,16.7-42.3,30.2-66.5,39.6c22-0.6,43.9-1.3,65.9-1.9c-21.4,15.2-44.8,27.5-69.3,36.6c24.8-3.2,49.8-4,74.8-2.5
		c-27,11.8-53.9,23.6-80.9,35.4c32.2,1.8,64.5,1.6,96.7-0.7c0.6,7.5-7.6,12.3-14.5,15.2c-22,9.2-43.9,18.3-65.9,27.5
		c30-0.1,60,0.9,89.9,3.2C300.6,240,273.8,253.7,246,265c27.5-1.4,55.1-1.7,82.6-0.9c-20.9,10.2-43.1,17.7-65.9,22.2
		c19.3,0.3,38.6,0.5,57.9,0.8c-66.9,33.4-133.8,66.8-200.7,100.3c-8.2,4.1-16.5,8.2-23,14.6c-6.4,6.2-10.7,14.1-15.6,21.6
		c-5.5,8.4-11.8,16.3-18.7,23.6c141.9,4.5,305.9,28.3,447.7,22.9c13.6-0.5,5.6-25.5,17.8-31.5c-137.4,12-274.7,24-412.1,36
		c-28.9,2.5-57.9,5.1-86.1,12c161.6,12.5,323.9,10.1,485.9,7.6c-146,6.7-292.8-7.6-438.3,6.3c149.2,6.7,298.8,6.8,448,0.4
		c1.1-4.9-5-9.8-9.5-7.6"/>
</g>
</svg>
