<?xml version="1.0" encoding="utf-8"?>
<!-- Generator: Adobe Illustrator 19.2.1, SVG Export Plug-In . SVG Version: 6.00 Build 0)  -->
<svg version="1.0" xmlns="http://www.w3.org/2000/svg" xmlns:xlink="http://www.w3.org/1999/xlink" x="0px" y="0px" width="288px"
	 height="288px" viewBox="0 0 288 288" enable-background="new 0 0 288 288" xml:space="preserve">
<g id="Layer_2">
	<path fill="#27AAE1" d="M143.2,45.4c0,0,28.4,54.2,4.1,82.2c0,0,9-2.3,12.1-5.7s17.3-21,10.1-46.8S147.3,45.4,143.2,45.4z"/>
	<polygon fill="#27AAE1" points="159.4,135.4 159.4,144.4 173.6,136.2 	"/>
</g>
<g id="Layer_1">
	
		<ellipse transform="matrix(0.9951 -9.902809e-02 9.902809e-02 0.9951 -7.8603 14.6073)" fill="none" stroke="#000000" stroke-width="2" stroke-miterlimit="10" cx="143.2" cy="86.5" rx="28" ry="41.3"/>
	<path fill="none" stroke="#000000" stroke-width="2" stroke-miterlimit="10" d="M159.4,48.2c0,0-27.3,8.3-45.6,8.7"/>
	<path fill="none" stroke="#000000" stroke-width="2" stroke-miterlimit="10" d="M163.4,53.5c0,0-23,12-49.6,10.7"/>
	<path fill="none" stroke="#000000" stroke-width="2" stroke-miterlimit="10" d="M166.8,56.8c0,0-24.3,20.3-56.9,15"/>
	<line fill="none" stroke="#000000" stroke-width="2" stroke-miterlimit="10" x1="138.3" y1="126.4" x2="138.3" y2="134.6"/>
	<line fill="none" stroke="#000000" stroke-width="2" stroke-miterlimit="10" x1="153.9" y1="125.7" x2="155" y2="134.6"/>
	<path fill="none" stroke="#000000" stroke-width="2" stroke-miterlimit="10" d="M113.8,136.2c0,0,31.2-3.7,59.8,0"/>
	<path fill="none" stroke="#000000" stroke-width="2" stroke-miterlimit="10" d="M211,158.6c0.4-20.2,0.7-37.3,0.7-37.3L154,153.1
		l4,8.5h-22.5l4.2-7.2l-64.5-31.8c0,0,0.3,15.7,0.6,34.7"/>
	<polyline fill="none" stroke="#000000" stroke-width="2" stroke-miterlimit="10" points="77.9,124 83,120.1 145,152.4 143.2,157.6 
		150.2,157.6 147.4,151.4 207,116.9 207,124 	"/>
	<path fill="none" stroke="#000000" stroke-width="2" stroke-miterlimit="10" d="M135.5,161.6v77.8c0,0,16,5.2,24,0l-1.5-77.8"/>
	<path fill="none" stroke="#000000" stroke-width="2" stroke-miterlimit="10" d="M76.3,186.6c0.4,20.9,0.7,38.8,0.7,38.8l58.5,12"/>
	<path fill="none" stroke="#000000" stroke-width="2" stroke-miterlimit="10" d="M159.4,237.4l50.3-13.8c0,0,0.3-16.5,0.7-36.3"/>
	<polygon fill="none" stroke="#000000" stroke-width="2" stroke-miterlimit="10" points="73,154.6 91.7,170.6 90,189.9 67.5,185.4 	
		"/>
	<line fill="none" stroke="#000000" stroke-width="2" stroke-miterlimit="10" x1="91.3" y1="175.2" x2="79.6" y2="168.9"/>
	<line fill="none" stroke="#000000" stroke-width="2" stroke-miterlimit="10" x1="90.3" y1="180.7" x2="78.5" y2="175.9"/>
	<path fill="none" stroke="#000000" stroke-width="2" stroke-miterlimit="10" d="M78.5,182c0,0,11.8,2.8,11.8,2.8"/>
	<polygon fill="none" stroke="#000000" stroke-width="2" stroke-miterlimit="10" points="215.1,154.6 196.3,170.6 198.1,189.9 
		220.6,185.4 	"/>
	<line fill="none" stroke="#000000" stroke-width="2" stroke-miterlimit="10" x1="196.8" y1="175.2" x2="208.5" y2="168.9"/>
	<line fill="none" stroke="#000000" stroke-width="2" stroke-miterlimit="10" x1="197.8" y1="180.7" x2="209.6" y2="175.9"/>
	<path fill="none" stroke="#000000" stroke-width="2" stroke-miterlimit="10" d="M209.6,182c0,0-11.8,2.8-11.8,2.8"/>
	<line fill="none" stroke="#000000" stroke-width="2" stroke-miterlimit="10" x1="184.5" y1="161.6" x2="186.7" y2="207.5"/>
	<line fill="none" stroke="#000000" stroke-width="2" stroke-miterlimit="10" x1="177" y1="175.9" x2="192" y2="173.3"/>
	<line fill="none" stroke="#000000" stroke-width="2" stroke-miterlimit="10" x1="105.5" y1="65.6" x2="91.1" y2="46.1"/>
	<line fill="none" stroke="#000000" stroke-width="2" stroke-miterlimit="10" x1="102.1" y1="75.1" x2="57.8" y2="43.3"/>
	<line fill="none" stroke="#000000" stroke-width="2" stroke-miterlimit="10" x1="97.1" y1="82.6" x2="76" y2="73.6"/>
	<line fill="none" stroke="#000000" stroke-width="2" stroke-miterlimit="10" x1="181.2" y1="65.6" x2="195.5" y2="46.1"/>
	<line fill="none" stroke="#000000" stroke-width="2" stroke-miterlimit="10" x1="184.5" y1="75.1" x2="228.9" y2="43.3"/>
	<line fill="none" stroke="#000000" stroke-width="2" stroke-miterlimit="10" x1="189.5" y1="82.6" x2="210.7" y2="73.6"/>
</g>
<g id="Layer_3">
	<path opacity="0" fill="none" stroke="#27AAE1" stroke-width="25" stroke-miterlimit="10" d="M134.3,46.7c10.5,1.1,20.8,3.2,31,6.1
		c-13.4,6.6-27,12.8-40.7,18.5c21.6,0.7,43.2,1.3,64.4,5.3c-20.8,8.1-42.3,14.6-64.2,19.4c22.8-0.3,45.7,0.3,68.5,1.8
		c-16.7,9.3-35.7,13.3-54.4,17.2c17.6,2.8,35.2,5.6,52.9,8.3c-19.8,3.2-39.7,6.3-58.6,13.2c14.3,1.7,28.4,4.8,42.2,9.2"/>
</g>
</svg>
