<?xml version="1.0" encoding="utf-8"?>
<!-- Generator: Adobe Illustrator 21.0.0, SVG Export Plug-In . SVG Version: 6.00 Build 0)  -->
<!DOCTYPE svg PUBLIC "-//W3C//DTD SVG 1.0//EN" "http://www.w3.org/TR/2001/REC-SVG-20010904/DTD/svg10.dtd">
<svg version="1.0" id="Layer_1" xmlns="http://www.w3.org/2000/svg" xmlns:xlink="http://www.w3.org/1999/xlink" x="0px" y="0px"
	 width="288px" height="288px" viewBox="0 0 288 288" enable-background="new 0 0 288 288" xml:space="preserve">
<path fill="none" stroke="#000000" stroke-width="3" stroke-linejoin="round" stroke-miterlimit="10" d="M177.4,149.9
	c0,0-3.9-8-15-2.5c-11,5.5-23.8,18.1-42.5-4.4h-8.3l4.5-3c0,0,0.9-4.4,4.5-4.3c3.6,0.1,4.3,4.2,4.3,4.2s4.4-0.5,11.5-8.7
	s22.5-7.2,27.1-0.7"/>
<path fill="none" stroke="#000000" stroke-width="3" stroke-linejoin="round" stroke-miterlimit="10" d="M131.3,140.6
	c0,0,11.2-11.1,20.1-10.1s12.4,10.9,26,8.5"/>
<path fill="none" stroke="#000000" stroke-width="3" stroke-linejoin="round" stroke-miterlimit="10" d="M133.5,143.6
	c0,0,7.2-8.9,17.6-7.6c10.5,1.3,8.4,5,17.6,5.2"/>
</svg>
