<?xml version="1.0" encoding="utf-8"?>
<!-- Generator: Adobe Illustrator 19.2.1, SVG Export Plug-In . SVG Version: 6.00 Build 0)  -->
<svg version="1.0" xmlns="http://www.w3.org/2000/svg" xmlns:xlink="http://www.w3.org/1999/xlink" x="0px" y="0px" width="288px"
	 height="288px" viewBox="0 0 288 288" enable-background="new 0 0 288 288" xml:space="preserve">
<g id="Layer_2">
	<path fill="#27AAE1" d="M67.4,105.2c0.4,0.8,1,1.5,1.6,2c2.2,0.8,4.3,2,5.8,3.5c0,0,0.1,0.1,0.1,0.1c0,0,0-0.1,0-0.1l0-15.2
		l-0.8-4.3c0,0-2.9,5.6-7.6,12.9C66.9,104.3,67.2,104.7,67.4,105.2z"/>
	<path fill="#27AAE1" d="M59.4,122.6c-1.2-1.2-2.4-2.7-3.3-4.2c-6.3,7.4-13.8,14.1-21.6,16.8c0,0-1.8,18-1.7,17.7
		c0-0.2,20-10.2,32.9-25.3C63.1,126.5,61.2,124.4,59.4,122.6z"/>
	<path fill="#27AAE1" d="M217.5,70.1c0,0,16.8,15.5,9.7,38.2c0,0,7.7-6.5,6.5-14.5C232.7,85.8,232.3,73.1,217.5,70.1z"/>
	<path fill="#27AAE1" d="M233.9,110.8l15.3,51.6l-14.6,9.1l13-3.9c0,0-13.9,46.4,5.1,67.7l-21.2,10.7l8.4,7.1l22.6-12l-7.9-8.5
		c0,0-9-20.1-6.9-33.7c2.1-13.7,8.8-35.6,8.8-35.6l1.3-0.9l-18.7-54.1L233.9,110.8z"/>
	<path fill="#27AAE1" d="M229.4,171.9c0,0-17.3,33.2-23.2,64.5l-24.2,6.3l5.5,9.5l23.6-7.2l-1.9-8.6l17.5-40.6l6.2-12.2l2.8-12.8
		L229.4,171.9z"/>
</g>
<g id="Layer_1">
	<path fill="none" stroke="#000000" stroke-width="2" stroke-miterlimit="10" d="M67.9,80L64,79c-6.4-1.7-10.2-8.3-8.4-14.7L59.7,49
		c1.7-6.4,8.3-10.2,14.7-8.4l3.9,1c6.4,1.7,10.2,8.3,8.4,14.7l-4.1,15.3C80.9,78,74.3,81.8,67.9,80z"/>
	<path fill="none" stroke="#000000" stroke-width="2" stroke-miterlimit="10" d="M57.1,58.7c0,0,5.8,2.9,10,2.6
		c4.2-0.3,9.5,1.5,9.8,3.2c0.3,1.7,6.7,3.4,6.7,3.4"/>
	<path fill="none" stroke="#000000" stroke-width="2" stroke-miterlimit="10" d="M58.5,53.4c0,0-4.1-1.4-5.3,2.3
		c-1.2,3.7,2.2,6.4,2.2,6.4"/>
	<path fill="none" stroke="#000000" stroke-width="2" stroke-miterlimit="10" d="M68.1,87.4c6.2,1.1,12.9,1.2,19.6-0.4
		c0,0-1.9-13.2,1.9-24.9s5.8-26.2-9.5-29.6c0,0-22.5-10.8-36.1,20.7c0,0-8,17.9-9.5,18.8c0,0,9.2,7.4,18.1,11.7"/>
	<line fill="none" stroke="#000000" stroke-width="2" stroke-miterlimit="10" x1="58.5" y1="75.7" x2="55.8" y2="84.3"/>
	<line fill="none" stroke="#000000" stroke-width="2" stroke-miterlimit="10" x1="67.9" y1="80" x2="67.1" y2="87.6"/>
	<path fill="none" stroke="#000000" stroke-width="2" stroke-miterlimit="10" d="M76,137.2c1.1,36.9,3.2,84.1,7.5,93
		c0,0-36.9,8-58.4,0L39.6,82.4c0,0,22.5,0.3,35.5,9.3c0,0-0.2,11.5-0.1,19"/>
	<polyline fill="none" stroke="#000000" stroke-width="2" stroke-miterlimit="10" points="106.4,136.7 116.6,131.4 117.4,135.7 
		114.9,139.2 130.4,140.9 125.4,150.5 107,147.9 	"/>
	<path fill="none" stroke="#000000" stroke-width="2" stroke-miterlimit="10" d="M52.9,91.7c0,0,36.5,36.2,53.5,32.3l2,39.2
		c0,0-46.5-33-58.5-54.1"/>
	<path fill="none" stroke="#000000" stroke-width="2" stroke-miterlimit="10" d="M70.2,88.9c0,0-2.8,7.1-6.1,13.1"/>
	<path fill="none" stroke="#000000" stroke-width="2" stroke-miterlimit="10" d="M54.6,115c-5.1,6-11.7,12.1-19.8,16.7"/>
	<path fill="none" stroke="#000000" stroke-width="2" stroke-miterlimit="10" d="M32.8,151.2c0,0,18.6-6.5,32.4-24.2"/>
	<path fill="none" stroke="#000000" stroke-width="2" stroke-miterlimit="10" d="M41.4,233.7c0,0.5,2.8,17.3,2.8,17.3h6l3-18.3"/>
	<path fill="none" stroke="#000000" stroke-width="2" stroke-miterlimit="10" d="M60.9,232.5c0.5,4.4,1.1,10.2,1.1,10.2h5.3
		c0,0,0.9-5.3,1.7-9.9"/>
	<polyline fill="none" stroke="#000000" stroke-width="2" stroke-miterlimit="10" points="43.6,251.6 60.6,264 74.2,254.7 50.2,251 
			"/>
	<polyline fill="none" stroke="#000000" stroke-width="2" stroke-miterlimit="10" points="61.3,242.9 74,249.1 82.8,243.3 
		66.3,242.7 	"/>
	<path fill="none" stroke="#000000" stroke-width="2" stroke-miterlimit="10" d="M95.7,122.7c4.6-25,26.1-44,51.8-44
		c29.1,0,52.8,24.3,52.8,54.2c0,7.1-1.3,14-3.8,20.2"/>
	<path fill="none" stroke="#000000" stroke-width="2" stroke-miterlimit="10" d="M190.5,164.3c-9.6,13.8-25.2,22.7-43,22.7
		c-16,0-30.3-7.3-40-18.9c0,0-4.4-4.9-7.8-11.4"/>
	<path fill="none" stroke="#000000" stroke-width="2" stroke-miterlimit="10" d="M109.9,95.6l2.8-0.8c0,0,1.5,0.6,2.2,0.8
		s3.6,0.1,4.1-0.4s1.6-1.4,2.2-1.4s2-0.2,2.8,0s2.6-0.3,3.6-0.1c1,0.2,4.9,0.5,5.9-0.1c1-0.6,4-2,4-2h2.2c0,0,3.1,1.6,3.8,2
		s1.9,2.4,1.6,3s-1,3.2-1,3.2l-0.1,4.1l1.2,0.8l4-1.4l3.9-2.2l3.1-1.9l4.4-0.4l0.9,0.9v2.1l-2.2,2.9l0.6,2l2.9,2.9l0.9,2l1.6,2.6
		v1.9h-1.9h-2.6h-3.1h-2c0,0-0.6,2.6-0.8,3.1s-0.2,3.4-0.2,3.4s-0.8,2-1.8,2.2s-2.9,0-2.9,0l-3.2,0.9c0,0-1.4,1.6-1.4,2.2
		s0.5,1.4,1,2.5s1.9,2.9,1.2,3.4s-1.6,1.8-2.9,1.5s-3.1-0.1-4.6-1.4s-4-2.8-4-2.8s-1.5-1.1-3.6-1s-2-0.2-2.9,0.5
		c-0.9,0.8-0.9,2-0.9,2l0.8,3.5c0,0,1.4,3.1,1.8,3.8s2.9,4.6,4.5,4.9s3.5-1.1,3.9,0s4.4,4.5,4.8,4.5s2.8-0.5,2.8-1.1
		s-0.6-1.6-0.1-3.1s0.8-3.2,1.6-3.8s0.1-0.6,1.9-1.1s3.8-1.1,3.8-1.1s1.6-0.2,2.8-0.2s2.6,0.2,2.6,0.6s0.4,1.1,0.4,2.2
		s1.2,3.6,1.5,4s2.6,2.5,3.1,2.5s3.8,1.1,3.8,1.1l3.6,1l1.2,2.1v3.9l-0.9,2l-1.4,3.5l-1.5,3.4c0,0,0.1,2.5-0.1,3.6s1.4,0.4-0.5,2.5
		s-3.1,3.4-3.5,4.1s-2.6,3.5-2.6,3.5l-2.5,1.2l-4,0.8l-2.6-0.6l-2.5-2.6c0,0-2.1-2.1-1.9-4s0.4-2.2,0.5-3s0.2-1.9,0.1-4
		s-0.4-3.6-0.4-3.6l-0.5-1.8l-2.9-1.4l-0.8-0.4l-3-2.1l-0.1-1.9l-0.6-2l-0.9-2.1l-3.4-2.5l-4-1.6l-4.3-0.4c0,0-1,0.3-1.2,0.3"/>
	<path fill="none" stroke="#000000" stroke-width="2" stroke-miterlimit="10" d="M102.7,104.3c0,0,2.5,3.4,3,3.7s-1.2,2.5-1.2,2.5
		s-3.6,1.8-4,1.9S99,120,99,120.6c0,0.6,1.4,3,1.7,3.5"/>
	<path fill="none" stroke="#000000" stroke-width="2" stroke-miterlimit="10" d="M106.3,124.1c1-0.1,3.6-0.4,3.6-0.4v2.1l2.1,4.4
		c0,0,0.8,1.9,0.9,2.2c0,0.1,0.2,0.2,0.4,0.2"/>
	<path fill="none" stroke="#000000" stroke-width="2" stroke-miterlimit="10" d="M200.2,121.4c0,0-4.8,1.4-5.2,1.8s-2.1,3.6-2.1,3.6
		l-3.4,4.6c0,0-2.1,2.1-2.1,2.9s0,4.4,0,4.4v4.4l1.6,3.4c0,0,1.5,1.1,1.9,2s0.6,3.1,0.6,3.1s-0.1,1.3-0.1,2.1"/>
	<path fill="none" stroke="#000000" stroke-width="2" stroke-miterlimit="10" d="M174.3,86.9c0,0,1,6.5,1,7s-0.2,3.9,0.8,5
		s3.1,1.8,3.6,1.8s1.1,0.1,2.1,0s1.5,0.2,2.2,0.1s2.8-0.4,3.4-0.4s2.2,0,2.2,0"/>
	
		<ellipse transform="matrix(0.9783 -0.2074 0.2074 0.9783 -13.9672 47.63)" fill="none" stroke="#000000" stroke-width="2" stroke-miterlimit="10" cx="220.2" cy="90.4" rx="13.3" ry="20.6"/>
	<path fill="none" stroke="#000000" stroke-width="2" stroke-miterlimit="10" d="M227.7,70.8c0,0-11.2,6.2-20.2,4.5"/>
	<path fill="none" stroke="#000000" stroke-width="2" stroke-miterlimit="10" d="M229.4,73.2c0,0-9.2,8.1-23.2,5.3"/>
	<path fill="none" stroke="#000000" stroke-width="2" stroke-miterlimit="10" d="M231.7,76.2c0,0-12,10.1-24.2,5.9"/>
	<polyline fill="none" stroke="#000000" stroke-width="2" stroke-miterlimit="10" points="230.3,106.5 232.6,110.9 223.1,114.8 
		222,110.8 	"/>
	<path fill="none" stroke="#000000" stroke-width="2" stroke-miterlimit="10" d="M219.7,145.4c-2-13.6-4.1-27.6-4.1-27.6l23.5-9.5
		l18.7,54.1c0,0-15,10.9-34.5,8c0,0-0.9-5.8-2-13.6"/>
	<path fill="none" stroke="#000000" stroke-width="2" stroke-miterlimit="10" d="M216.4,122.8c0,0-3,28.9-19,30"/>
	<path fill="none" stroke="#000000" stroke-width="2" stroke-miterlimit="10" d="M234.7,120.8c-0.5,1-11,33.3-35.8,35.5v6.1
		c0,0,26.8,2.4,43.5-26.3"/>
	<path fill="none" stroke="#000000" stroke-width="2" stroke-miterlimit="10" d="M198.9,156.3c-1-0.6-5.1-5.8-5.1-5.8l-2.3,2.3v3.5
		l-11.4,1.2l9.4,7.1l9.4-2.2"/>
	<path fill="none" stroke="#000000" stroke-width="2" stroke-miterlimit="10" d="M257.9,162.4c0,0-23,44.1,0,72.8h-5.1
		c0,0-27.1-13.7-18.1-63.7"/>
	<path fill="none" stroke="#000000" stroke-width="2" stroke-miterlimit="10" d="M223.4,170.4c0,0-19.1,37.5-21.1,66.1l6.8,0.1
		c0,0,14.1-35.8,24.1-53.5"/>
	<polyline fill="none" stroke="#000000" stroke-width="2" stroke-miterlimit="10" points="257.9,235.2 262.6,241 240.1,249.3 
		231.6,242.3 252.8,235.2 	"/>
	<polyline fill="none" stroke="#000000" stroke-width="2" stroke-miterlimit="10" points="209.3,236.9 211,245.1 187.2,248.2 
		182.3,240.4 202.3,236.5 	"/>
</g>
<g id="Layer_3">
	<path opacity="0" fill="none" stroke="#27AAE1" stroke-width="35" stroke-miterlimit="10" d="M57,91.4c7.8,0.1,15.7,1.2,23.3,3.1
		c-13.1,5.6-26.5,10.2-40.2,14.1c17.9-0.3,35.8-0.5,53.7,0.7c-20,6.1-40.7,9.3-61.3,12.5c16.4-0.4,32.8-0.8,49.1,0.7
		c-20.9,6.3-41.9,12.6-62.8,18.9c18.6,0,37.1,0,55.7,0c1.6,0,3.8,0.5,3.8,2.1c1.9-1,3.8-2.1,5.7-3.1"/>
	<path opacity="0" fill="none" stroke="#27AAE1" stroke-width="35" stroke-miterlimit="10" d="M212.7,70.9c8-0.1,15.9,1.2,23.5,3.8
		c-7.7,3.3-15.4,6.6-23,9.9c11,0.1,22,2.1,32.3,5.8c-14.7,9.3-33.1,10.4-49.4,16.7c16.7,2.6,34.7-1.7,50.1,5.1
		c-8.4,2.5-16.9,5.1-25.3,7.6c-2.9,0.9-5.9,1.8-8,3.9c20.4-0.6,40.9-1.3,61.1,1.1c-3.7,2.9-8.3,4.3-12.8,5.6
		c-18.3,5.3-36.7,10.6-55,15.9c19.2,4.2,38.4,8.3,57.7,12.5c-19.5,5.3-39.1,10.6-58.6,15.9c23.4,0.7,46.8-0.8,70.2-2.3
		c-23.1,9.5-49.6,8.1-72.8,17.4c20.3,0.2,40.5,1.1,60.7,2.7c-17.5,3.2-35,6.4-52.5,9.7c-7.7,1.4-15.5,2.9-22.1,7.1
		c22.6,0.2,45.2,0.4,67.8,0.5c-24.9,6.9-50.4,11.1-75.8,15.4c22.3,0.6,44.7,1.3,67,1.9c-22.5,3.9-45,7.7-67.4,11.6
		c9.7-1.3,19.6-1.5,29.4-1.5c18.8-0.1,37.6-0.1,56.4,0.3c-27.4,9.6-57.4,5.2-86.3,8.1c-1.1,0.1-2.5,0.4-2.8,1.5
		c29.6,2.5,59.4,1.9,88.9-1.6"/>
</g>
</svg>
