<?xml version="1.0" encoding="utf-8"?>
<!-- Generator: Adobe Illustrator 19.2.1, SVG Export Plug-In . SVG Version: 6.00 Build 0)  -->
<svg version="1.0" id="Layer_1" xmlns="http://www.w3.org/2000/svg" xmlns:xlink="http://www.w3.org/1999/xlink" x="0px" y="0px"
	 width="288px" height="288px" viewBox="0 0 288 288" enable-background="new 0 0 288 288" xml:space="preserve">
<path fill="none" stroke="#000000" stroke-width="2" stroke-miterlimit="10" d="M133.3,196.4l16.5,2.5c0,0,13.5,1,17.5,0s20-7,20-7
	s17.5,0.5,22,0s21.4-8,21.4-8l11.1-9.5l19-2.5l6.5-14c0,0,8.5-21,8.5-23.5s0-11,0-11s-5.5-19-6-21s0.5-13-1.5-18.5
	s-13.5-14.5-13.5-14.5l-18-11.5c0,0-22.5-2.5-25.5-4s-11.5-10-11.5-10s-17-12-22.5-12s-23.5,0-23.5,0h-20.5c0,0-14.5-1-23,0
	s-29,3-29,3L65.8,47.4c0,0-14.5,13.5-19.5,16c-5,2.5-21,13.5-21,13.5s-4.5,19.5-4.5,24.5s-9.7,18.5-9.1,22.5s11.3,29.6,12.1,33.5
	c0.8,3.9,5.5,16,13.5,19s39,11.5,40.5,11.5s14.5,9.9,21,11.4c6.5,1.6,15.3,0.6,19,0C121.4,198.8,133.3,196.4,133.3,196.4z"/>
<path fill="none" stroke="#000000" stroke-width="2" stroke-miterlimit="10" d="M121.3,197.9c0.6,8.3,1.3,16.8,1.3,16.8l-4,23.7
	l-9.5,18.5h53l-11-16.5l-8.5-19.7c0,0-2-20.8-2-20.3c0,0.1-0.2-1.2-0.6-3.3"/>
<path fill="none" stroke="#000000" stroke-width="2" stroke-miterlimit="10" d="M189.6,144.5c0,0-9.3,1.3-10,6.9
	c-0.7,5.6,0.9,15.1,10,13.8s13.3-2.4,13.3-5.3s0.9-5.5,0-9.1C202,147.2,189.6,144.5,189.6,144.5z"/>
<path fill="none" stroke="#000000" stroke-width="2" stroke-miterlimit="10" d="M206.5,85.5c0,0-11.8-3.1-14.4,3.1
	c-2.5,6.2-4.7,16,1.1,17.4s11.3,3.1,15.4,1.5s8.2-4.7,8.4-8.9C217.2,94.4,215.4,87.8,206.5,85.5z"/>
<path fill="none" stroke="#000000" stroke-width="2" stroke-miterlimit="10" d="M88.3,63.2c0,0-14.2-2.4-15.1,5.5
	s-0.9,17.6,7.5,17.6s13.7,0,15-4.5c1.3-4.5,3.1-8.4,2.4-11.4S88.3,63.2,88.3,63.2z"/>
<path fill="none" stroke="#000000" stroke-width="2" stroke-miterlimit="10" d="M93.9,133.4c0,0-12-2.2-13.3,7.6
	c-1.3,9.8,3.6,12.9,9.4,12.4c5.8-0.5,12.5-2.2,13.1-7.3C103.7,141,102.3,134.3,93.9,133.4z"/>
<path fill="none" stroke="#000000" stroke-width="2" stroke-miterlimit="10" d="M139,99.7c0,0-8.9-5.3-10.5,1.8
	c-1.6,7.1-6,18,3.3,16.9c9.3-1.1,13.3-0.9,13.6-6.5C145.7,106.2,139,99.7,139,99.7z"/>
<path fill="none" stroke="#000000" stroke-width="2" stroke-miterlimit="10" d="M160.6,43.3c0,0-8.7-1.8-10.9,1.8
	c-2.2,3.6-7.4,13.1,0,14.9c7.4,1.8,15.1,5.3,17.1,0C168.8,54.8,168.4,44.2,160.6,43.3z"/>
<path fill="none" stroke="#000000" stroke-width="2" stroke-miterlimit="10" d="M243.7,116.5c0,0-11.6-3.3-13.6,1.1
	c-2,4.4-7.4,10.4,0.7,14.7c8.2,4.4,10.9,8.5,14,4.7C247.8,133.2,251.3,117.7,243.7,116.5z"/>
<path fill="none" stroke="#000000" stroke-width="2" stroke-miterlimit="10" d="M141.1,155c0,0-11.2,0-12,7.4
	c-0.8,7.4,3,14.7,8.7,14.7c5.7,0,13.9,1.7,13.9-6S151.5,154.1,141.1,155z"/>
<path fill="none" stroke="#000000" stroke-width="2" stroke-miterlimit="10" d="M47.5,111.9c0,0-11.7-1-11.7,10.5s2.2,17.3,9,16.7
	s15.3,3.6,15.5-7.7C60.6,120.1,60,111.1,47.5,111.9z"/>
</svg>
