<?xml version="1.0" encoding="utf-8"?>
<!-- Generator: Adobe Illustrator 19.2.1, SVG Export Plug-In . SVG Version: 6.00 Build 0)  -->
<svg version="1.0" id="Layer_1" xmlns="http://www.w3.org/2000/svg" xmlns:xlink="http://www.w3.org/1999/xlink" x="0px" y="0px"
	 width="432px" height="432px" viewBox="0 0 432 432" enable-background="new 0 0 432 432" xml:space="preserve">
<ellipse fill="none" stroke="#000000" stroke-width="2" stroke-miterlimit="10" cx="205.3" cy="68.1" rx="19" ry="31.1"/>
<polyline fill="none" stroke="#000000" stroke-width="2" stroke-miterlimit="10" points="200.2,98 200.2,107.2 211.3,107.2 
	211.3,97.5 "/>
<path fill="none" stroke="#000000" stroke-width="2" stroke-miterlimit="10" d="M225.1,130.2c-0.8,32.1-2.2,86.5-2.2,86.5h-36.7
	l-3.8-109.5h43.2c0,0-0.2,6.1-0.4,15.4L225.1,130.2z"/>
<polyline fill="none" stroke="#000000" stroke-width="2" stroke-miterlimit="10" points="182.2,107.3 160.9,152.7 163.1,208.8 
	170.1,209.8 173.9,157.3 183.5,136.2 "/>
<line fill="none" stroke="#000000" stroke-width="2" stroke-miterlimit="10" x1="173.9" y1="157.3" x2="160.9" y2="152.7"/>
<polyline fill="none" stroke="#000000" stroke-width="2" stroke-miterlimit="10" points="170.1,209.8 175.3,217.7 172.7,221.7 
	167.4,216.8 168.1,231.5 159.4,237.2 154.3,228.2 163.1,208.8 "/>
<polyline fill="none" stroke="#000000" stroke-width="2" stroke-miterlimit="10" points="225.7,107.2 247,152.7 244.8,208.8 
	237.8,209.8 234,157.3 225,134.8 "/>
<line fill="none" stroke="#000000" stroke-width="2" stroke-miterlimit="10" x1="234" y1="157.3" x2="247" y2="152.7"/>
<polyline fill="none" stroke="#000000" stroke-width="2" stroke-miterlimit="10" points="244.8,208.8 249.7,213.7 250.6,221.5 
	238.5,223.3 236,220.3 "/>
<path fill="none" stroke="#000000" stroke-width="2" stroke-miterlimit="10" d="M237.8,209.8l-5.6,5.7c0,0,0.5,0.9,1.1,2"/>
<line fill="none" stroke="#000000" stroke-width="2" stroke-miterlimit="10" x1="236.1" y1="213.9" x2="239.8" y2="220.5"/>
<polygon fill="none" stroke="#000000" stroke-width="2" stroke-miterlimit="10" points="214.1,228.9 272.1,220.9 278,259.7 
	219,266.8 "/>
<path fill="none" stroke="#000000" stroke-width="2" stroke-miterlimit="10" d="M234.3,226.2c0,0-2.4-5.4,4.1-8.2"/>
<path fill="none" stroke="#000000" stroke-width="2" stroke-miterlimit="10" d="M250.2,217.2c4.4,1.8,4.8,6.1,4.8,6.1"/>
<path fill="none" stroke="#000000" stroke-width="2" stroke-miterlimit="10" d="M250.1,213.8c0,0,6.1-0.1,8.7,8.6"/>
<path fill="none" stroke="#000000" stroke-width="2" stroke-miterlimit="10" d="M236.7,215.5c0,0-6.8,1.8-5.9,10.5"/>
<polyline fill="none" stroke="#000000" stroke-width="2" stroke-miterlimit="10" points="186.3,216.8 192.3,376.3 201.2,376.3 
	204.1,216.8 "/>
<path fill="none" stroke="#000000" stroke-width="2" stroke-miterlimit="10" d="M207,216.8l8.7,159.6h9.4c0,0-0.8-63-1.4-109.8"/>
<path fill="none" stroke="#000000" stroke-width="2" stroke-miterlimit="10" d="M223.1,227.5c-0.1-6.7-0.1-10.7-0.1-10.7"/>
<polyline fill="none" stroke="#000000" stroke-width="2" stroke-miterlimit="10" points="192.3,376.3 167.3,384.9 184.6,393.4 
	201.2,376.3 "/>
<polyline fill="none" stroke="#000000" stroke-width="2" stroke-miterlimit="10" points="215.6,376.3 228.6,394.9 245.2,388.1 
	225.6,376.3 "/>
<polyline fill="none" stroke="#000000" stroke-width="2" stroke-miterlimit="10" points="196,107.3 194.8,114.2 202.4,108.6 "/>
<polyline fill="none" stroke="#000000" stroke-width="2" stroke-miterlimit="10" points="213.2,107.3 216,114.2 210,109.6 "/>
<path fill="none" stroke="#000000" stroke-width="2" stroke-miterlimit="10" d="M208.1,118h-4.6c-1.3,0-2.4-1.1-2.4-2.4V111
	c0-1.3,1.1-2.4,2.4-2.4h4.6c1.3,0,2.4,1.1,2.4,2.4v4.6C210.4,116.9,209.4,118,208.1,118z"/>
<polyline fill="none" stroke="#000000" stroke-width="2" stroke-miterlimit="10" points="203.4,118 199.1,149.1 205.2,170.1 
	210.4,149.1 207.2,118 "/>
</svg>
