<?xml version="1.0" encoding="utf-8"?>
<!-- Generator: Adobe Illustrator 21.0.0, SVG Export Plug-In . SVG Version: 6.00 Build 0)  -->
<!DOCTYPE svg PUBLIC "-//W3C//DTD SVG 1.0//EN" "http://www.w3.org/TR/2001/REC-SVG-20010904/DTD/svg10.dtd">
<svg version="1.0" id="Layer_1" xmlns="http://www.w3.org/2000/svg" xmlns:xlink="http://www.w3.org/1999/xlink" x="0px" y="0px"
	 width="288px" height="288px" viewBox="0 0 288 288" enable-background="new 0 0 288 288" xml:space="preserve">
<ellipse transform="matrix(0.9998 -1.853403e-02 1.853403e-02 0.9998 -0.717 2.0483)" fill="none" stroke="#000000" stroke-width="2" stroke-miterlimit="10" cx="110.1" cy="39.7" rx="14.3" ry="23.3"/>
<ellipse transform="matrix(0.9976 -6.972871e-02 6.972871e-02 0.9976 -2.565 11.9339)" fill="none" stroke="#000000" stroke-width="2" stroke-miterlimit="10" cx="169.7" cy="42.7" rx="13.8" ry="21.4"/>
<polyline fill="none" stroke="#000000" stroke-width="2" stroke-miterlimit="10" points="105.9,61.7 105.9,70.7 113.6,70.8 
	115.1,61.7 "/>
<polyline fill="none" stroke="#000000" stroke-width="2" stroke-miterlimit="10" points="166.2,63 167.7,69.3 175.1,68.9 174.8,63 
	"/>
<path fill="none" stroke="#000000" stroke-width="2" stroke-miterlimit="10" d="M91.8,94.8c0.4-12.3,0.7-22.6,0.6-24.1
	c0,0,19.8-0.4,33.7,2.5c0,0-0.3,10.7-0.8,23.6"/>
<path fill="none" stroke="#000000" stroke-width="2" stroke-miterlimit="10" d="M92.4,70.8c0,0-5.4,11.7-9.7,21.1"/>
<path fill="none" stroke="#000000" stroke-width="2" stroke-miterlimit="10" d="M81.3,94.9c-2.3,5.1-4.1,8.9-4.1,8.9
	s12,13.2,40.3,2.6"/>
<path fill="none" stroke="#000000" stroke-width="2" stroke-miterlimit="10" d="M125.5,73c0,0,10.4,20.5,11.5,37.7l-42.6-9.4
	l-9.6,1.5l-4.9-11.1l14.5,3l35,1.8"/>
<polyline fill="none" stroke="#000000" stroke-width="2" stroke-miterlimit="10" points="125.5,90.6 118.7,88.4 111.8,95.5 "/>
<path fill="none" stroke="#000000" stroke-width="2" stroke-miterlimit="10" d="M124.9,108.9c-0.5,16.9-1.1,33.4-1.1,33.4l-33.7-1.1
	c0,0,0.6-15.4,1.1-31.9"/>
<path fill="none" stroke="#000000" stroke-width="2" stroke-miterlimit="10" d="M157.9,70.9l27-3.1c0,0,8,49.2,3.3,74.5l-30.3,1.2
	C157.9,143.5,164.8,91.3,157.9,70.9z"/>
<path fill="none" stroke="#000000" stroke-width="2" stroke-miterlimit="10" d="M157.9,71.9c0,0-21.7,26.2-7.1,76.1l5.3-2.7
	c0,0-5.2-36.9,4.8-47"/>
<line fill="none" stroke="#000000" stroke-width="2" stroke-miterlimit="10" x1="146.2" y1="105.7" x2="155.9" y2="110.6"/>
<path fill="none" stroke="#000000" stroke-width="2" stroke-miterlimit="10" d="M185,67.8c0,0,18.7,15.9,25.3,27.7l-20.5,30.1"/>
<line fill="none" stroke="#000000" stroke-width="2" stroke-miterlimit="10" x1="187.5" y1="86.7" x2="204.7" y2="103.7"/>
<line fill="none" stroke="#000000" stroke-width="2" stroke-miterlimit="10" x1="195.6" y1="95.5" x2="189.2" y2="106.3"/>
<polygon fill="none" stroke="#000000" stroke-width="2" stroke-miterlimit="10" points="150.1,148 150.9,161.9 156.9,171 160.5,171 
	158.3,148 156.1,144.8 "/>
<path fill="none" stroke="#000000" stroke-width="2" stroke-miterlimit="10" d="M189.8,132.9c0,0,7.6,2.9,7.9,2.7
	c0.2-0.2,12.6-7.1,12.6-7.1l-6.5-6.9l-14,4.3"/>
<path fill="none" stroke="#000000" stroke-width="2" stroke-miterlimit="10" d="M188.2,142.3c0,0,7.4,53.9,9.4,106.6h-5.2
	l-18.6-105.4"/>
<path fill="none" stroke="#000000" stroke-width="2" stroke-miterlimit="10" d="M91.8,141.2c0,0,1.4,50.1,2.8,99.6h5.9l7-98.5"/>
<polyline fill="none" stroke="#000000" stroke-width="2" stroke-miterlimit="10" points="123.8,142.3 123.8,240.8 117.5,240.8 
	108.9,142.3 "/>
<polyline fill="none" stroke="#000000" stroke-width="2" stroke-miterlimit="10" points="157.9,143.5 166.8,239.2 173.8,239.2 
	174.6,148 "/>
<polygon fill="none" stroke="#000000" stroke-width="2" stroke-miterlimit="10" points="95,241.6 80.7,252.1 96.4,260.8 102,242.2 
	"/>
<polygon fill="none" stroke="#000000" stroke-width="2" stroke-miterlimit="10" points="117.5,241.6 124.8,241.6 145.7,252.1 
	132.5,262.1 "/>
<path fill="none" stroke="#000000" stroke-width="2" stroke-miterlimit="10" d="M167.4,240.1c-0.4,0-20.5,8-20.5,8l13.5,8.1
	l14.2-16.1H167.4z"/>
<polygon fill="none" stroke="#000000" stroke-width="2" stroke-miterlimit="10" points="192.1,248.9 199.5,249.4 217.9,259.1 
	201.5,265.7 "/>
</svg>
