<?xml version="1.0" encoding="utf-8"?>
<!-- Generator: Adobe Illustrator 21.0.0, SVG Export Plug-In . SVG Version: 6.00 Build 0)  -->
<!DOCTYPE svg PUBLIC "-//W3C//DTD SVG 1.0//EN" "http://www.w3.org/TR/2001/REC-SVG-20010904/DTD/svg10.dtd">
<svg version="1.0" id="Layer_1" xmlns="http://www.w3.org/2000/svg" xmlns:xlink="http://www.w3.org/1999/xlink" x="0px" y="0px"
	 width="288px" height="288px" viewBox="0 0 288 288" enable-background="new 0 0 288 288" xml:space="preserve">
<ellipse transform="matrix(0.989 -0.148 0.148 0.989 -4.9189 15.4565)" fill="none" stroke="#000000" stroke-width="2" stroke-miterlimit="10" cx="101.4" cy="40.8" rx="16" ry="23.6"/>
<ellipse transform="matrix(5.247766e-02 -0.9986 0.9986 5.247766e-02 129.0202 217.5456)" fill="none" stroke="#000000" stroke-width="2" stroke-miterlimit="10" cx="179.1" cy="40.8" rx="23.3" ry="14.3"/>
<path fill="none" stroke="#000000" stroke-width="2" stroke-miterlimit="10" d="M100.5,63.4c0.7,3.3,1.8,8,1.8,8l7-0.3
	c0,0,0-4.5,0-8.1"/>
<polyline fill="none" stroke="#000000" stroke-width="2" stroke-miterlimit="10" points="173.1,62.4 173.1,69.8 180.6,69.8 
	181.6,63.5 "/>
<path fill="none" stroke="#000000" stroke-width="2" stroke-miterlimit="10" d="M89.2,73.9c1.8,0,35.4-4.5,35.4-4.5l2.1,76.1
	l-27.9,1.8L89.2,73.9z"/>
<path fill="none" stroke="#000000" stroke-width="2" stroke-miterlimit="10" d="M89.2,73.9c0,0-19.6,23.5-22.3,37.4l29.9,21.3"/>
<path fill="none" stroke="#000000" stroke-width="2" stroke-miterlimit="10" d="M74.3,116.6c0,0,9.2-17.1,17.1-23"/>
<line fill="none" stroke="#000000" stroke-width="2" stroke-miterlimit="10" x1="82.5" y1="104.7" x2="95.3" y2="120.6"/>
<polyline fill="none" stroke="#000000" stroke-width="2" stroke-miterlimit="10" points="96.5,135.9 82.4,135 85.2,144.2 97,140.1 
	"/>
<polyline fill="none" stroke="#000000" stroke-width="2" stroke-miterlimit="10" points="124.6,69.4 145.7,95.1 158.8,73.9 
	174.5,74.8 175.1,81.6 161,81.1 147.2,109.2 124.9,87.1 "/>
<line fill="none" stroke="#000000" stroke-width="2" stroke-miterlimit="10" x1="145.7" y1="95.1" x2="147.2" y2="109.2"/>
<path fill="none" stroke="#000000" stroke-width="2" stroke-miterlimit="10" d="M158.5,74.7c-0.2-3.3-0.3-5.2-0.3-5.2
	s26.5-0.4,37.7,4.5l-7.1,65.8l-26.7-2c0,0-1.8-32.9-2.9-53"/>
<path fill="none" stroke="#000000" stroke-width="2" stroke-miterlimit="10" d="M158.2,68.9c0,0-0.5,3.3-1.2,8.1"/>
<path fill="none" stroke="#000000" stroke-width="2" stroke-miterlimit="10" d="M154.5,94.4c-1.5,9.8-2.7,18.2-2.7,18.2l3.8,27
	l4.7-1.6l0.2-29.7"/>
<polyline fill="none" stroke="#000000" stroke-width="2" stroke-miterlimit="10" points="195.9,73.9 205.7,114 203.9,141.9 
	197.2,140.1 195.9,115.8 192.4,106 "/>
<line fill="none" stroke="#000000" stroke-width="2" stroke-miterlimit="10" x1="195.9" y1="115.8" x2="205.5" y2="113.3"/>
<polyline fill="none" stroke="#000000" stroke-width="2" stroke-miterlimit="10" points="155.3,139 154.2,152.5 158.5,160.9 
	162.2,160.9 "/>
<polygon fill="none" stroke="#000000" stroke-width="2" stroke-miterlimit="10" points="197.3,140.5 194.8,151.8 200,165 
	206.7,159.5 204,142.3 "/>
<polyline fill="none" stroke="#000000" stroke-width="2" stroke-miterlimit="10" points="98.7,147.3 105,245.7 109.3,245.7 
	112.4,147.3 121.9,245.7 126.7,245.7 126.7,145.5 "/>
<polyline fill="none" stroke="#000000" stroke-width="2" stroke-miterlimit="10" points="162,137.6 162,240.3 170,240.3 
	176.1,147.3 "/>
<polyline fill="none" stroke="#000000" stroke-width="2" stroke-miterlimit="10" points="188.8,139.6 195,242.9 188.8,244.2 
	175,139 "/>
<polygon fill="none" stroke="#000000" stroke-width="2" stroke-miterlimit="10" points="104.4,246.6 82.1,259.4 104.4,268.8 
	110.5,247.4 "/>
<polygon fill="none" stroke="#000000" stroke-width="2" stroke-miterlimit="10" points="121.2,246.6 124.2,270.7 142,259.7 
	128,246.6 "/>
<polygon fill="none" stroke="#000000" stroke-width="2" stroke-miterlimit="10" points="162,241.2 147.3,254.7 164.2,260.7 
	170.8,241.2 "/>
<polygon fill="none" stroke="#000000" stroke-width="2" stroke-miterlimit="10" points="187,244.8 196.5,242.8 210.5,257.7 
	192.5,265.4 "/>
</svg>
