<?xml version="1.0" encoding="utf-8"?>
<!-- Generator: Adobe Illustrator 21.0.0, SVG Export Plug-In . SVG Version: 6.00 Build 0)  -->
<!DOCTYPE svg PUBLIC "-//W3C//DTD SVG 1.0//EN" "http://www.w3.org/TR/2001/REC-SVG-20010904/DTD/svg10.dtd">
<svg version="1.0" id="Layer_1" xmlns="http://www.w3.org/2000/svg" xmlns:xlink="http://www.w3.org/1999/xlink" x="0px" y="0px"
	 width="432px" height="432px" viewBox="0 0 432 432" enable-background="new 0 0 432 432" xml:space="preserve">
<g id="Layer_2">
	<path fill="#27AAE1" d="M239.9,37.1c0,0,17.5,43.7-12,60.7c0,0,16.7,1.1,23.5-20.6C258.2,55.5,245.9,37.9,239.9,37.1z"/>
	<polygon fill="#27AAE1" points="230.5,126.2 213.8,221 228.7,390.2 233.3,389.3 260.3,386.5 246.6,379 233,382 224,221.5 
		231.4,184.9 242.3,123.5 	"/>
	<polygon fill="#27AAE1" points="192.8,217.6 181.3,397.7 187,397.7 208.4,392.7 197.7,387.8 186,390.7 203.3,219.9 	"/>
</g>
<g id="Layer_1_1_">
	
		<ellipse transform="matrix(0.1485 -0.9889 0.9889 0.1485 131.6644 286.96)" fill="none" stroke="#000000" stroke-width="2" stroke-miterlimit="10" cx="232.5" cy="67" rx="31" ry="20.5"/>
	<path fill="none" stroke="#000000" stroke-width="2" stroke-miterlimit="10" d="M226.5,36.8c0,0,8.1,4.9,20.5,3.4"/>
	<path fill="none" stroke="#000000" stroke-width="2" stroke-miterlimit="10" d="M223,39.4c0,0,14,6.6,26.8,4.1"/>
	<path fill="none" stroke="#000000" stroke-width="2" stroke-miterlimit="10" d="M219.5,42.4c0,0,19,9.4,31.9,4.8"/>
	<path fill="none" stroke="#000000" stroke-width="2" stroke-miterlimit="10" d="M242.3,123.5c-3.7,20.8-17.6,99.2-17.6,99.2
		L183,216l15.3-114.3c0,0,25-3.7,42.3,6"/>
	<line fill="none" stroke="#000000" stroke-width="2" stroke-miterlimit="10" x1="235.1" y1="96.9" x2="236" y2="105.6"/>
	<line fill="none" stroke="#000000" stroke-width="2" stroke-miterlimit="10" x1="220.9" y1="94.6" x2="218.6" y2="102.4"/>
	<polyline fill="none" stroke="#000000" stroke-width="2" stroke-miterlimit="10" points="198,104 169.5,150 185,201.3 	"/>
	<polyline fill="none" stroke="#000000" stroke-width="2" stroke-miterlimit="10" points="192.8,143.2 185.5,150.7 189.1,170.8 	"/>
	<line fill="none" stroke="#000000" stroke-width="2" stroke-miterlimit="10" x1="185.5" y1="150.7" x2="169.5" y2="150"/>
	<polyline fill="none" stroke="#000000" stroke-width="2" stroke-miterlimit="10" points="183,216 175,397.7 185.5,397.7 
		203.3,219.9 205.8,219.9 224,391.2 233.3,389.3 224.8,222.8 	"/>
	<path fill="none" stroke="#000000" stroke-width="2" stroke-miterlimit="10" d="M185.5,397.7c0.8,0.3,24.4-4.2,24.4-4.2l-11.5-5.8
		l-12.2,2.8"/>
	<path fill="none" stroke="#000000" stroke-width="2" stroke-miterlimit="10" d="M233.3,389.3c1.2,0.3,27-2.8,27-2.8l-13.5-7.5
		l-13.9,3"/>
	<path fill="none" stroke="#000000" stroke-width="2" stroke-miterlimit="10" d="M253.7,65.6L257,67l9,34c0,0-29,8-43,11"/>
	<path fill="none" stroke="#000000" stroke-width="2" stroke-miterlimit="10" d="M219.6,128.5c21.4-4.5,63.5-14.4,63.5-14.4
		s-2.6,0.6,0,0C277,96,266,59,266,59s-10.5-5-14.6-7.5"/>
	<line fill="none" stroke="#000000" stroke-width="2" stroke-miterlimit="10" x1="247.8" y1="105.6" x2="253.3" y2="120.9"/>
</g>
<g id="Layer_3">
	<path fill="none" d="M233,38.4c4.9-0.3,9.8-0.7,14.6-1c-7.2,1.2-14.2,3.6-20.7,6.9c10.2,1.6,20.6,2,30.9,1.3
		c-8,0.5-15.9,1.9-23.5,4.2c5.7-0.6,11.4-0.3,17,1c-5.1,0.8-10,2.7-14.2,5.6c7,0.1,14.1,0.8,21,2c-7.3,1-14.6,2.8-21.6,5.2
		c5.8,0.1,11.6,0.2,17.4,0.3c-6.9,2-14,3.5-21.1,4.6c9.5,0,19,0,28.5-0.1c-7.7,3.2-15.9,5-24.1,5.4c3.1-0.6,6.4-0.1,9.3,1.3
		c-4.8,2.2-9.7,4.4-14.5,6.5c8,0,16.1,0,24.1,0c-8.3,1.6-16.7,3.2-25,4.8c2.6,0,5.2,0,7.9,0c-5.7,2.5-11,6-15.6,10.1
		c8.4,0,16.8,0,25.2,0c-7.2,1.3-14.4,2.7-21.6,4c3.6-0.3,7.3-0.2,10.9,0.3c-5.9,5.1-11.4,10.7-16.6,16.5c9.1-0.4,17.5,9.9,26.5,11.2
		c-11.6,3.8-22.2-1.3-33,4.4c8.4,0.5,16.7,2,24.7,4.6c-5.3,4.3-11.2,8-17.4,10.9c6.8,0.6,13.7,1.1,20.5,1.7
		c-6.3,1.8-12.5,3.7-18.8,5.5c8.3,0.1,16.7,0.1,25,0.2c-10.5,1.9-20.9,4.3-31.1,7.2c7.6,0.7,15.3,1.5,22.9,2.2
		c-11.6,2.5-22.9,6.3-33.6,11.3c15.5-0.6,31-0.2,46.4,1.2c-14.6,1.3-29,3.7-43.2,7.2c11.2,0.5,22.4,0.9,33.6,1.4
		c-15.5,2.5-30.9,5-46.4,7.6c12.6-0.7,25.2-0.3,37.7,1.1c-17.6,1.4-35,4.5-52,9.2c16.7,1,33.5,2.1,50.2,3.1
		c-18.2,2.1-36.3,5.2-54.2,9.3c15.6,1,31.4,0.4,46.9-1.8c-16.4,1.4-32.5,5.5-47.6,12.1c14,1.1,28.1,1.3,42.2,0.6
		c-13.8,1.8-27.3,5.4-40.1,10.7c14.4,0.4,28.8,0.5,43.2,0.2c-9.6,1.2-19.1,3.2-28.3,6c14.4,0.5,28.7,0.2,43.1-0.8
		c-21.9,3.8-43.3,10.2-63.7,19c-5,2.2-10.4,4.9-12.5,9.9c31.3-12.6,65.2-18.7,98.9-17.8c-39.8-1.2-79.8,2.5-118.7,10.8
		c26.8-0.2,53.8-0.5,80,5.1c-13.7,3.6-27.8,5.5-41.9,5.8c18.6,1.4,37.2,2,55.8,2.1c-32.4-0.6-64.8,1.5-96.9,6.2
		c27.4,3.2,55,4.1,82.5,2.9c-19.6,3-38.8,8.8-56.9,17c20,0.4,40,0.8,59.9,1.2c-20.5,0.8-41.1,1.6-61.6,2.4c25-0.5,50-0.9,75-1.4
		c-24.4,2.2-49,3.3-73.5,3.5c21.5,1,42.9,2.6,64.3,4.8c-27.6,0.3-55.2,3.2-82.3,8.5c26.4,4.1,53,6.5,79.6,7.3
		c-11.8,1-23.5,3.7-34.6,7.9c26.4-4,53.2-5.4,79.9-4.3c-34.4,7.2-68.8,14.3-103.2,21.5c16.1,0.4,32.3,0.3,48.4-0.4
		c-11.5,2.1-22.9,5-34,8.5c22.7,0.1,45.4,0.2,68,0.3c-33.6-2.4-67.8,3-99.1,15.5c39.7-0.4,79.4-0.8,119.1-1.2
		c-20.9,2.4-42,3.2-63,2.3c10.8-1.3,21.6-1.8,32.5-1.5c-27,0.8-54,2.9-80.9,6.4c18,0.8,36,1.6,54,2.4c-9.8,0.1-19.7,2.5-28.4,7.1
		c18.2,1.8,36.5,2.3,54.7,1.5c-20.8,0.1-41.5,0.2-62.3,0.3c27.9-2.6,55.7-5.3,83.6-7.9c-20.9-4.4-42.1-6.8-63.5-7.2
		c15.2-2.6,30.5-4.4,45.8-5.3c-6.4-1.1-12.9-2.3-19.3-3.4c0.7-1.2,1.3-2.5,2-3.7"/>
</g>
</svg>
