<?xml version="1.0" encoding="utf-8"?>
<!-- Generator: Adobe Illustrator 21.0.0, SVG Export Plug-In . SVG Version: 6.00 Build 0)  -->
<!DOCTYPE svg PUBLIC "-//W3C//DTD SVG 1.0//EN" "http://www.w3.org/TR/2001/REC-SVG-20010904/DTD/svg10.dtd">
<svg version="1.0" xmlns="http://www.w3.org/2000/svg" xmlns:xlink="http://www.w3.org/1999/xlink" x="0px" y="0px" width="511.2px"
	 height="432px" viewBox="0 0 511.2 432" enable-background="new 0 0 511.2 432" xml:space="preserve">
<g id="Color">
	<path fill="#27AAE1" d="M269.4,21c0,0,16.6,23.5-1.3,43.2c0,0,13.6-1.8,14.4-19.1C283.2,27.8,271.3,21,269.4,21z"/>
	<path fill="#27AAE1" d="M278.9,70.5l-5.2,68.3l-15.8,4.1c0,0,8,3.3,17.3,0.3l-2.2,65.1l4-1l5.3-65.8l2.5-71L278.9,70.5L278.9,70.5z
		"/>
	<polygon fill="#27AAE1" points="284.4,83 295.3,102.5 294.4,144 290.6,144 290.4,104.2 282.5,91.5 	"/>
</g>
<g id="Lines">
	<ellipse fill="none" stroke="#000000" stroke-width="2" stroke-miterlimit="10" cx="268.1" cy="42.6" rx="14.4" ry="21.6"/>
	<path fill="none" stroke="#000000" stroke-width="2" stroke-miterlimit="10" d="M258,24.1c0,0,15.6,1,19.1-0.6"/>
	<path fill="none" stroke="#000000" stroke-width="2" stroke-miterlimit="10" d="M256.3,27.1c0,0,14.8,3.1,24,0"/>
	<path fill="none" stroke="#000000" stroke-width="2" stroke-miterlimit="10" d="M254.7,30.5c0,0,18.4,4.4,27,0"/>
	<polyline fill="none" stroke="#000000" stroke-width="2" stroke-miterlimit="10" points="263,62.8 263,69.8 272.5,69.8 271.8,63.5 
			"/>
	<path fill="none" stroke="#000000" stroke-width="2" stroke-miterlimit="10" d="M251.9,70.5h33l-2.5,71c0,0-15.8,5.7-28.7,0
		L251.9,70.5z"/>
	<polyline fill="none" stroke="#000000" stroke-width="2" stroke-miterlimit="10" points="251.9,70.5 231.4,62.8 223.9,38 
		226.7,31.5 226.2,23.5 217.5,22.5 215.5,9.4 211.6,11.6 211.6,30.5 216.6,39.4 224.2,70.5 251.9,84.9 	"/>
	<line fill="none" stroke="#000000" stroke-width="2" stroke-miterlimit="10" x1="231.4" y1="62.8" x2="224.2" y2="70.5"/>
	<polyline fill="none" stroke="#000000" stroke-width="2" stroke-miterlimit="10" points="284.9,70.5 300.4,102.5 296.8,144 
		290.6,144 290.6,104.5 284.3,92.3 	"/>
	<polyline fill="none" stroke="#000000" stroke-width="2" stroke-miterlimit="10" points="290.6,144 286.3,152 289.8,154.2 
		292.4,151.5 292.4,168.8 302.4,163.3 296.8,144 	"/>
	<line fill="none" stroke="#000000" stroke-width="2" stroke-miterlimit="10" x1="253.7" y1="141.5" x2="258" y2="208.3"/>
	<line fill="none" stroke="#000000" stroke-width="2" stroke-miterlimit="10" x1="282.4" y1="141.5" x2="277.1" y2="208.3"/>
	<line fill="none" stroke="#000000" stroke-width="2" stroke-miterlimit="10" x1="267.5" y1="144" x2="268.4" y2="206.7"/>
	
		<ellipse transform="matrix(0.1091 -0.994 0.994 0.1091 105.3609 318.4676)" fill="none" stroke="#000000" stroke-width="2" stroke-miterlimit="10" cx="230.3" cy="100.5" rx="10" ry="7.7"/>
	<line fill="none" stroke="#000000" stroke-width="2" stroke-miterlimit="10" x1="225.9" y1="109" x2="225.3" y2="112.5"/>
	<line fill="none" stroke="#000000" stroke-width="2" stroke-miterlimit="10" x1="231.4" y1="110.7" x2="230.7" y2="113.8"/>
	<path fill="none" stroke="#000000" stroke-width="2" stroke-miterlimit="10" d="M211.6,137.5l7.8-25.8l14.2,3c0,0,0,19.8,1.5,24.2"
		/>
	<polyline fill="none" stroke="#000000" stroke-width="2" stroke-miterlimit="10" points="191.5,90.6 190.7,94.6 197.2,95.8 
		197.7,92 	"/>
	
		<ellipse transform="matrix(0.1575 -0.9875 0.9875 0.1575 88.8662 261.4159)" fill="none" stroke="#000000" stroke-width="2" stroke-miterlimit="10" cx="197.6" cy="78.6" rx="13.4" ry="10.1"/>
	<path fill="none" stroke="#000000" stroke-width="2" stroke-miterlimit="10" d="M175.1,130.5l11.3-36.7l14,2.5c0,0,0,32.7,1.8,37.5
		"/>
	
		<ellipse transform="matrix(0.9694 -0.2455 0.2455 0.9694 -9.7815 81.7242)" fill="none" stroke="#000000" stroke-width="2" stroke-miterlimit="10" cx="322.9" cy="80.1" rx="9.2" ry="12.4"/>
	<line fill="none" stroke="#000000" stroke-width="2" stroke-miterlimit="10" x1="323.3" y1="92.3" x2="324.7" y2="96.2"/>
	<line fill="none" stroke="#000000" stroke-width="2" stroke-miterlimit="10" x1="329.3" y1="90.2" x2="330.7" y2="94.3"/>
	<path fill="none" stroke="#000000" stroke-width="2" stroke-miterlimit="10" d="M321.6,128c0-0.7-2.7-29.2-2.7-29.2l17.5-6.5
		l11,26.7"/>
	
		<ellipse transform="matrix(0.9978 -6.601790e-02 6.601790e-02 0.9978 -3.0335 23.1917)" fill="none" stroke="#000000" stroke-width="2" stroke-miterlimit="10" cx="349.4" cy="57.5" rx="8.9" ry="12.3"/>
	<line fill="none" stroke="#000000" stroke-width="2" stroke-miterlimit="10" x1="350.2" y1="69.7" x2="351.7" y2="72.9"/>
	<line fill="none" stroke="#000000" stroke-width="2" stroke-miterlimit="10" x1="355.5" y1="66.7" x2="357.2" y2="69.7"/>
	<polyline fill="none" stroke="#000000" stroke-width="2" stroke-miterlimit="10" points="353.4,107.3 347.4,75.2 361.6,67.7 
		376.3,92.3 	"/>
	
		<ellipse transform="matrix(9.686638e-02 -0.9953 0.9953 9.686638e-02 17.5949 351.5156)" fill="none" stroke="#000000" stroke-width="2" stroke-miterlimit="10" cx="202.5" cy="166.1" rx="20.5" ry="14.9"/>
	<polyline fill="none" stroke="#000000" stroke-width="2" stroke-miterlimit="10" points="195.1,184.5 194.3,189.1 202,190.4 
		202.5,186.5 	"/>
	<polyline fill="none" stroke="#000000" stroke-width="2" stroke-miterlimit="10" points="175.1,220 183.4,187.2 212.9,192.2 
		215.1,252.5 	"/>
	
		<ellipse transform="matrix(9.055941e-02 -0.9959 0.9959 9.055941e-02 22.7611 236.7461)" fill="none" stroke="#000000" stroke-width="2" stroke-miterlimit="10" cx="141" cy="105.9" rx="23.9" ry="16.7"/>
	<path fill="none" stroke="#000000" stroke-width="2" stroke-miterlimit="10" d="M134,128.3c0,0-0.7,6.3-0.5,6.3s9.7,0.9,9.7,0.9
		l0.4-6.4"/>
	<path fill="none" stroke="#000000" stroke-width="2" stroke-miterlimit="10" d="M110.6,215c1-2.8,5.8-61.8,14.5-81.2l25.3,2.4
		c0,0,4.8,65.2,12.8,80.8"/>
	<ellipse fill="none" stroke="#000000" stroke-width="2" stroke-miterlimit="10" cx="335.6" cy="181.9" rx="17" ry="21.8"/>
	<polyline fill="none" stroke="#000000" stroke-width="2" stroke-miterlimit="10" points="335.6,204.2 337.7,209.3 346.5,205.6 
		344.3,200.7 	"/>
	<path fill="none" stroke="#000000" stroke-width="2" stroke-miterlimit="10" d="M325.6,263l2.7-49.7l30-12.7c0,0,16,36,16,59"/>
	
		<ellipse transform="matrix(0.9986 -5.273949e-02 5.273949e-02 0.9986 -6.076 20.1411)" fill="none" stroke="#000000" stroke-width="2" stroke-miterlimit="10" cx="378.6" cy="125.2" rx="14.7" ry="20.3"/>
	<line fill="none" stroke="#000000" stroke-width="2" stroke-miterlimit="10" x1="379.7" y1="145.5" x2="383.1" y2="151.3"/>
	<path fill="none" stroke="#000000" stroke-width="2" stroke-miterlimit="10" d="M388.8,140.3c0.5,0.3,3.5,5.1,3.5,5.1"/>
	<path fill="none" stroke="#000000" stroke-width="2" stroke-miterlimit="10" d="M385.9,231.8l-11.7-75.4l25.3-14.9
		c0,0,22.7,26.2,31.7,75.5"/>
	
		<ellipse transform="matrix(0.9574 -0.2888 0.2888 0.9574 -25.4997 134.9569)" fill="none" stroke="#000000" stroke-width="2" stroke-miterlimit="10" cx="444.6" cy="153.9" rx="12.7" ry="18.6"/>
	<polyline fill="none" stroke="#000000" stroke-width="2" stroke-miterlimit="10" points="448,172.1 450.5,176.3 456.9,172.9 
		454.3,168.8 	"/>
	<path fill="none" stroke="#000000" stroke-width="2" stroke-miterlimit="10" d="M491.4,220.2c-6.2-25.2-27-51.4-27-51.4l-24.2,13.1
		l12.2,54.1"/>
	
		<ellipse transform="matrix(0.1816 -0.9834 0.9834 0.1816 -69.5877 211.9732)" fill="none" stroke="#000000" stroke-width="2" stroke-miterlimit="10" cx="92.6" cy="147.8" rx="20" ry="13.7"/>
	<polyline fill="none" stroke="#000000" stroke-width="2" stroke-miterlimit="10" points="83.5,164.5 81.4,170 89,172 90.8,167.7 	
		"/>
	<path fill="none" stroke="#000000" stroke-width="2" stroke-miterlimit="10" d="M52.9,218.3c1.3-1.3,19.3-50.7,19.3-50.7l23,6v23.7
		"/>
	
		<ellipse transform="matrix(0.1932 -0.9812 0.9812 0.1932 -176.5331 273.3231)" fill="none" stroke="#000000" stroke-width="2" stroke-miterlimit="10" cx="77.9" cy="244" rx="25.7" ry="18.3"/>
	<path fill="none" stroke="#000000" stroke-width="2" stroke-miterlimit="10" d="M65.5,265l-3.4,7.4l10.6,2.8c0,0,1-5.9,1.3-5.8"/>
	<path fill="none" stroke="#000000" stroke-width="2" stroke-miterlimit="10" d="M20.6,357.7c0.3-1,18.3-68.3,30-88.3l30.3,8
		c0,0,0.4,78.3,9,95"/>
	<path fill="none" stroke="#000000" stroke-width="2" stroke-miterlimit="10" d="M164.1,281.3c-5.1-4.8-8.1-13.4-7.1-22.7
		c1.4-13.7,10.6-24,20.6-23s16.9,13,15.5,26.7c-1.1,11-7.2,19.7-14.7,22.3"/>
	<path fill="none" stroke="#000000" stroke-width="2" stroke-miterlimit="10" d="M195.1,374v-80c-21.5-20-54.2-11-54.2-11
		l-12.7,80.7"/>
	<path fill="none" stroke="#000000" stroke-width="2" stroke-miterlimit="10" d="M272.3,268.2c-6.6-2.8-11.8-10.1-12.8-19.3
		c-1.4-12.3,5.3-23.2,15-24.3s18.7,8,20.1,20.4c0.9,8.1-1.7,15.6-6.3,20.1"/>
	<path fill="none" stroke="#000000" stroke-width="2" stroke-miterlimit="10" d="M255.9,274.7c0,0,24.4-11.7,46.6-10.3l2.8,10.3"/>
	<path fill="none" stroke="#000000" stroke-width="2" stroke-miterlimit="10" d="M233.3,335.6c-6.6-5.1-10.6-15.4-9.8-27
		c1.1-16,11-28.3,22.1-27.6c11.1,0.8,19.2,14.3,18.1,30.3c-0.8,12-6.6,22-14.2,25.9"/>
	<path fill="none" stroke="#000000" stroke-width="2" stroke-miterlimit="10" d="M198.9,412c0.3-1.3,20.7-75.3,20.7-75.3
		s31.7-5,42.3,6.7l3,81.7"/>
	<polyline fill="none" stroke="#000000" stroke-width="2" stroke-miterlimit="10" points="329.1,322.2 331.6,326.3 320.2,332.3 
		317.1,326.7 	"/>
	
		<ellipse transform="matrix(5.499829e-02 -0.9985 0.9985 5.499829e-02 2.1162 601.0676)" fill="none" stroke="#000000" stroke-width="2" stroke-miterlimit="10" cx="318.6" cy="299.4" rx="27.3" ry="20"/>
	<path fill="none" stroke="#000000" stroke-width="2" stroke-miterlimit="10" d="M374.3,414.3c0,0-10.7-63.7-32.3-93.5l-32,16.8
		l-4.7,87.3"/>
	
		<ellipse transform="matrix(5.499832e-02 -0.9985 0.9985 5.499832e-02 131.7033 650.5715)" fill="none" stroke="#000000" stroke-width="2" stroke-miterlimit="10" cx="409.5" cy="255.7" rx="33.1" ry="24.3"/>
	<line fill="none" stroke="#000000" stroke-width="2" stroke-miterlimit="10" x1="425.6" y1="288.2" x2="422.4" y2="283.3"/>
	<line fill="none" stroke="#000000" stroke-width="2" stroke-miterlimit="10" x1="409.6" y1="288.8" x2="412.4" y2="295.1"/>
	<path fill="none" stroke="#000000" stroke-width="2" stroke-miterlimit="10" d="M477.2,395.2c0,0-12.9-77.3-39.3-113.5l-38.8,20.4
		l-5.7,106"/>
</g>
<g id="Stroke">
	
		<path opacity="0" fill="none" stroke="#000000" stroke-width="8" stroke-linecap="round" stroke-linejoin="round" stroke-miterlimit="10" d="
		M269.6,22c2.9,0.1,5.8,0.2,8.8,0.4c-2.3,1.7-4.8,3.2-7.5,4.2c2.7-0.2,5.5-0.1,8.2,0.4c-3,1.8-6.2,3.2-9.6,4c4-0.4,7.9-0.5,11.9-0.2
		c-2.8,1.4-5.6,2.8-8.4,4.3c3.5,0,7,0,10.5,0c-3.9,1-7.8,2-11.7,3c4.4,0,8.9,0.2,13.3,0.7c-3.1,2.5-7,4.1-11,4.5
		c2.8,0,5.6,0,8.4,0.1c-3.1,1.6-6.4,2.8-9.9,3.5c4.1,0.2,8.2,0.4,12.3,0.6c-4.8,1.5-9.6,3.1-14.5,4.6c3.5-0.4,7.1-0.1,10.5,1
		c-4.9,0.6-9.7,1.9-14.3,3.8c5.5,0,11.1,0.1,16.6,0.1c-5.6,1.7-11.1,3.4-16.7,5c6.8,0.1,13.9,0.3,20.2,3c-3.1,2.7-6.8,4.7-10.8,5.7
		c4.6,0.1,9.2,0.2,13.8,0.3c-4.7,1.8-9.5,3.6-14.2,5.4c4.4-0.1,8.8-0.1,13.2-0.2c-6.2,2.8-12.7,5-19.3,6.6c5.5,0.5,11,0.6,16.5,0.4
		c-6.5,3.3-13.3,6.1-20.3,8.2c8.2-0.3,16.4-0.5,24.6-0.8c-6,1.3-11.9,2.6-17.9,3.9c8.8-1.7,17.9-2,26.8-0.9
		c-9.3,2.5-18.5,5-27.8,7.5c9.4,0,18.9,0.1,28.3,0.1c-10,2-20,4-30,5.9c9.2,0.2,18.4,0.3,27.5,0.5c-10.2,1.9-20.5,3.1-30.9,3.7
		c11.5,0.4,23,0.8,34.5,1.1c-10.5,3.3-21.4,5.2-32.4,5.6c11.1,1,22.2,2.1,33.3,3.1c-9.7,2.2-19.6,3.6-29.5,4.2
		c9.7,0.3,19.4,1.4,29,3.2c-10.9,0.6-21.8,1.1-32.7,1.7c8.8,1.1,17.6,2.2,26.5,3.3c-12.5,1-25.1,1.5-37.6,1.7
		c11.8,0.8,23.7,1.5,35.5,2.3c-11.6,3.1-23.8,3.5-35.8,3.8c9.5,0.2,19,0.8,28.5,1.7c-6.8,1.3-13.4,3.4-19.7,6.1
		c6.6-1,13.3-1.4,20-1.2c-4.5,1.6-8.9,3.4-13.2,5.4c4.4-0.5,8.9-0.7,13.4-0.6c-6,1-11.7,3.5-16.4,7.4c2.4,0.1,4.9,0.3,7.3,0.4
		c-5.2,1.1-10.2,2.9-14.8,5.4c6.9,0.8,13.9,1,20.9,0.6c-6,1.2-12.1,2.5-18.1,3.7c5.2-0.3,10.3-0.6,15.5-0.9c-4.2,1.1-8.3,2.9-12,5.3
		c5.1,0.2,10.1,0.9,15,2.2c-5.1,2.6-10.2,5.2-15.3,7.8c2.6,1.1,5.5,1.7,8.3,1.8c-2.5,0.8-5,1.6-7.6,2.4c2.6,1.4,5.6,1.9,8.5,1.4
		c-3.8,0.8-7.5,2.2-10.8,4.2c4.7,2,9.7,3.1,14.8,3.1c-3.2-0.2-6.3,0.1-9.4,1c2.1,0.9,4.3,1.6,6.6,2c-2.9-0.3-5.8,0.3-8.3,1.7
		c1.1,1.3,2.9,1.9,4.6,1.6c-0.9,0.4-1.2,1.6-0.6,2.4c0.6,0.7,1.9,0.7,2.5-0.2"/>
</g>
</svg>
