<?xml version="1.0" encoding="utf-8"?>
<!-- Generator: Adobe Illustrator 19.2.1, SVG Export Plug-In . SVG Version: 6.00 Build 0)  -->
<svg version="1.0" xmlns="http://www.w3.org/2000/svg" xmlns:xlink="http://www.w3.org/1999/xlink" x="0px" y="0px" width="432px"
	 height="432px" viewBox="0 0 432 432" enable-background="new 0 0 432 432" xml:space="preserve">
<g id="Layer_2">
	<path fill="#27AAE1" d="M218.8,29.3c0,0,29.3,38.3-0.9,67.3c0,0,20.4-3.8,20.4-33.7S218.8,29.3,218.8,29.3z"/>
	<polygon fill="#27AAE1" points="229.8,104.3 229.8,150.3 234.7,152.8 240.2,147.3 240.2,104.3 	"/>
	<path fill="#27AAE1" d="M229.8,207.5l7,174c0,0,12.5,19.7,13.2,20s15.7-6,15.7-6l-25.4-14.3l-1.8-171.4l-3.3-4.2L229.8,207.5z"/>
	<polygon fill="#27AAE1" points="207,209.8 207.5,381.5 181,395 199,404.3 212.3,381.5 218,219.5 211.3,219.5 211.3,209.9 	"/>
	<polygon fill="#27AAE1" points="239.8,115.2 261.7,137 249.3,161.7 247.1,159.2 250.8,155 247.8,152.4 254.6,137.3 239.8,125.2 	
		"/>
</g>
<g id="Layer_1">
	<circle fill="none" stroke="#000000" stroke-width="2" stroke-miterlimit="10" cx="218" cy="179.3" r="15.8"/>
	<path fill="none" stroke="#000000" stroke-width="2" stroke-miterlimit="10" d="M247.1,159.2c2-2,4.2-4.2,4.2-4.2l-9.4-9.4
		l-7.2,7.2c-3-1.9-6.4-3.3-10-4.1v-10.3h-13.4v10.3c-3.6,0.8-7,2.2-10,4.1l-7.2-7.2l-9.4,9.4c0,0,1.2,1.2,2.6,2.6"/>
	<path fill="none" stroke="#000000" stroke-width="2" stroke-miterlimit="10" d="M185.9,172.3c-2.9,0-8.5,0-8.5,0v13.4h9.9
		c0.8,3.7,2.2,7.2,4.2,10.4l-6.9,6.9l9.4,9.4l6.8-6.8c3.1,2.1,6.7,3.6,10.4,4.4v9.6h13.4v-9.6c3.8-0.8,7.3-2.3,10.4-4.4l6.8,6.8
		l9.4-9.4l-6.9-6.9c2-3.1,3.4-6.6,4.2-10.4h9.9v-13.4h-10c-0.1-0.3-0.1-0.5-0.2-0.8"/>
	<ellipse fill="none" stroke="#000000" stroke-width="2" stroke-miterlimit="10" cx="217.1" cy="63" rx="21.3" ry="33.7"/>
	<path fill="none" stroke="#000000" stroke-width="2" stroke-miterlimit="10" d="M204.2,32.4c0,0,10.2,3.2,25.8,0"/>
	<path fill="none" stroke="#000000" stroke-width="2" stroke-miterlimit="10" d="M201.2,36.2c0,0,18.9,4.4,31.5,0"/>
	<path fill="none" stroke="#000000" stroke-width="2" stroke-miterlimit="10" d="M198.8,40.6c0,0,18.8,6,36.9,0"/>
	<path fill="none" stroke="#000000" stroke-width="2" stroke-miterlimit="10" d="M212.3,95.8c-0.1,0.6,0,8.4,0,8.4"/>
	<line fill="none" stroke="#000000" stroke-width="2" stroke-miterlimit="10" x1="223.7" y1="95" x2="223.7" y2="104.2"/>
	<path fill="none" stroke="#000000" stroke-width="2" stroke-miterlimit="10" d="M193.6,146.7c-0.7-22.7-1.4-42.4-1.4-42.4h48
		c0,0-0.4,20.6-0.8,43.9"/>
	<path fill="none" stroke="#000000" stroke-width="2" stroke-miterlimit="10" d="M238.4,208.5c-0.1,3.2-0.1,5-0.1,5
		s-6.6,0.2-13.4,0.4"/>
	<path fill="none" stroke="#000000" stroke-width="2" stroke-miterlimit="10" d="M211.3,214.3c-8.4,0.2-15.5,0.5-15.5,0.5
		s0-1.4-0.1-3.9"/>
	<polyline fill="none" stroke="#000000" stroke-width="2" stroke-miterlimit="10" points="192.2,104.2 160.5,137.5 180.5,167.3 	"/>
	<polyline fill="none" stroke="#000000" stroke-width="2" stroke-miterlimit="10" points="192.9,123.5 177.4,137.7 186.2,153.4 	"/>
	<line fill="none" stroke="#000000" stroke-width="2" stroke-miterlimit="10" x1="177.4" y1="137.7" x2="161.2" y2="137.7"/>
	<polyline fill="none" stroke="#000000" stroke-width="2" stroke-miterlimit="10" points="240.2,104.3 271.9,137.5 251.9,167.3 	"/>
	<polyline fill="none" stroke="#000000" stroke-width="2" stroke-miterlimit="10" points="239.6,123.5 255,137.7 248.7,152.4 	"/>
	<path fill="none" stroke="#000000" stroke-width="2" stroke-miterlimit="10" d="M245.3,157.6c0.7,0.5,8.5,11.2,7.9,11.3
		s-13,8.2-13,8.2l-5-6.6L245.3,157.6z"/>
	<line fill="none" stroke="#000000" stroke-width="2" stroke-miterlimit="10" x1="255" y1="137.7" x2="271.2" y2="137.7"/>
	<polyline fill="none" stroke="#000000" stroke-width="2" stroke-miterlimit="10" points="195.8,214.8 204.2,381.5 212.3,381.5 
		218,219.5 232.3,381.5 240.2,381.5 238.3,213.5 	"/>
	<polyline fill="none" stroke="#000000" stroke-width="2" stroke-miterlimit="10" points="204.2,381.5 179.7,391.8 199.2,401.5 
		212.3,381.5 	"/>
	<polyline fill="none" stroke="#000000" stroke-width="2" stroke-miterlimit="10" points="232.3,381.5 245.5,401.5 264.2,394.2 
		240.2,381.5 	"/>
	<polygon fill="none" stroke="#000000" stroke-width="2" stroke-miterlimit="10" points="187.8,156.7 179.5,168.5 194.2,177.1 
		197.8,167.4 	"/>
</g>
<g id="Layer_3">
	<path fill="none" d="M223.5,30c4.1,0,8.1,0.1,12.2,0.1c-6.3,1.9-12.5,4.3-18.4,7.2c7.9,0.1,15.8,0.1,23.6,0.2
		c-5.3,1.5-10.6,3.5-15.6,5.9c5.9,0.1,11.8,0.1,17.8,0.2c-7,1.6-13.9,3.7-20.6,6.2c6.9,0.1,13.8,0.2,20.7,0.3
		c-4.7,2.2-9.6,3.8-14.7,4.9c5.9,0.1,11.9,0.2,17.8,0.3c-7.4,2.8-15,5-22.8,6.6c6.4,0.2,12.8,0.5,19.2,0.7c-4.7,1.9-9.6,3-14.7,3.4
		c4.4,0,8.8,0.1,13.2,0.1c-5.3,2.7-10.5,5.5-15.8,8.2c5.1,0.1,10.2,0.1,15.3,0.2c-3.6,2.3-7.3,4.3-11.3,5.9
		c4.1,0.1,8.1,0.1,12.2,0.2c-5.8,4.8-12.2,8.8-19.1,11.8c6-0.9,12-1.8,18-2.6c-7,3.2-14,6.3-21,9.5c9.3,1.6,18.8,2.4,28.2,2.2
		c-8.3,2.1-16.6,4.3-25,6.4c10-0.2,19.9-0.3,29.9-0.5c-8.1,2.6-16.2,5.2-24.3,7.8c12.4,0,24.9-0.1,37.3-0.1
		c-11.2,1.5-22.3,3.9-33.2,7.1c10.8,0.1,21.5,0.2,32.3,0.3c-14.9,0.8-29.7,2.7-44.3,5.7c14.9-0.6,29.8,0.6,44.4,3.5
		c-12.7-0.1-25.5,1.4-37.8,4.6c16.4,0.9,32.7,1.7,49.1,2.6c-12.4,0.1-24.8,2.1-36.6,5.7c7.8,0.9,15.6,1.8,23.4,2.7
		c-15,0.3-30,2.1-44.7,5.3c16.8,2.5,33.8,3.2,50.7,2.1c-10.7-0.8-21.4,0.2-31.8,3c5.4,4.8,13.2,6.8,20.2,5.2
		c-6,8.5-12,17.1-19.8,24.1s-17.5,12.2-27.9,12.6c-0.4,3.8-2.6,7.4-5.9,9.4c16.7-0.7,33.5-0.6,50.3,0c-13.9,2.4-27.9,4.1-42,5.2
		c15.6,0.4,31.2,0.9,46.9,1.3c-21.7,0.2-43.3,1.6-64.9,4c18.4,2.7,37.1,2.9,55.6,0.8c-17.6,6.3-36.1,9.9-54.8,10.6
		c19.6,0.8,39.1,2.2,58.6,4.1c-18.4,5.6-37.4,8.9-56.5,10c19.3,0.5,38.7,1,58,1.6c-19.2,5.2-39,8.4-58.8,9.5
		c22.5,1.8,45,3.7,67.6,5.5c-21.9,2.2-43.9,4.3-65.8,6.5c18.5,0.4,37.1,0.7,55.6,1.1c-15.6-0.3-31.3,1.6-46.4,5.7
		c20.4,0.3,40.8,0.7,61.1,1c-20.9,0.6-42.3,1.3-61.8,8.6c15.4,0.5,30.8,1.1,46.2,1.6c-18.7-1.4-37.6,1.4-55,8.2
		c20.4,1.8,40.9,2.5,61.3,1.9c-15.2,1.4-30.2,3.7-45.1,7.1c13.7,1.5,27.6,1.9,41.4,1.1c-21.4,2.6-42.4,8.2-62.2,16.6
		c14.1-1,28.2-1.9,42.4-2.9c-8.1-0.7-16.5,1.7-23.1,6.6c12.1,2.6,24.9,1.3,36.2-3.7c3.6-1.6,7.5-4.5,6.9-8.4
		c-16-1.1-32.2,1.1-47.4,6.3c11.7,1.6,23.4,2.6,35.2,2.8c-22.8,2.9-45.7,5.9-68.5,8.8c20.9,1.3,41.8,2,62.7,2.1
		c-13.7,0.3-27.3,0.6-41,0.9c18.3,0.3,36.7,0.5,55,0.8c-20,2.6-40.1,5.1-60.1,7.7c15.5,1.3,31.1,1.5,46.7,0.4
		c-17.3,1.1-34.6,3.8-51.4,7.9c18.6,1.5,37.2,3,55.8,4.6c-10.7,1.1-21.4,2.1-32.1,3.2c14.9,0.2,29.8,1.9,44.3,5.3
		c-23.2,1.7-46.3,5.6-68.7,11.6c16.1,0.8,45.5,0.8,61.6,1.6c-15.4,0.5-44,5.3-57.9,12.1c1.2,3.7,5.8,4.7,9.6,5
		c20.2,1.8,40.6,2.4,60.9,1.6c-23.1-2.8-46.5-3.7-69.8-2.8c28.7,4.6,57.8,6.4,86.8,5.4c-13.2,0.2-26.5,1.5-39.5,3.8
		c14.6,2,29.9-0.8,42.9-7.9c-4.2-4-10.4-4.5-16.2-4.8c-22.4-1.1-44.9-1.6-67.4-1.3c22,1,44.1,1.2,66.2,0.5
		c-28.9-2.2-57.9-4.4-86.8-6.7c22.6,1.7,45.3,2.5,68,2.3c-8.6-0.1-17.1,1.3-25.2,4c0.7-2.1,1.5-4.2,2.2-6.4"/>
</g>
</svg>
