<?xml version="1.0" encoding="utf-8"?>
<!-- Generator: Adobe Illustrator 19.2.1, SVG Export Plug-In . SVG Version: 6.00 Build 0)  -->
<svg version="1.0" xmlns="http://www.w3.org/2000/svg" xmlns:xlink="http://www.w3.org/1999/xlink" x="0px" y="0px" width="432px"
	 height="432px" viewBox="0 0 432 432" enable-background="new 0 0 432 432" xml:space="preserve">
<g id="Layer_2">
	<path fill="#27AAE1" d="M229.2,22c0,0,10.1,48.3-21.2,60.6c0,0,15.8,7.3,27.1-17.1C246.5,41.2,234.2,24.3,229.2,22z"/>
	<path fill="#27AAE1" d="M227.6,90.5l1.7,12.3c0,0,4.2,14.7,3.9,13.5s0.2-26.1,0.2-26.1L227.6,90.5z"/>
	<path fill="#27AAE1" d="M216.3,211.7l8,174.8c0,0-26.7,15.5-26,16.2c0.7,0.8,17.8,11,17.8,11l16.4-27.2l3.2-157.9l-9.2,5.9l-4-5
		l2.7-13.4l-3.7,0.9l-2.4-3.5l1.1-1.6L216.3,211.7z"/>
	<polygon fill="#27AAE1" points="207.3,211 215,378.5 188.5,385 199.6,393.8 220.4,383.2 213,211.5 	"/>
</g>
<g id="Layer_1">
	
		<ellipse transform="matrix(0.261 -0.9653 0.9653 0.261 110.8001 250.1525)" fill="none" stroke="#000000" stroke-width="2" stroke-miterlimit="10" cx="218.8" cy="52.7" rx="32" ry="19.8"/>
	<path fill="none" stroke="#000000" stroke-width="2" stroke-miterlimit="10" d="M216.9,22c0,0,11.9,5.4,20,6.6"/>
	<path fill="none" stroke="#000000" stroke-width="2" stroke-miterlimit="10" d="M212.6,23.7c0,0,10.3,6.8,26.2,9"/>
	<path fill="none" stroke="#000000" stroke-width="2" stroke-miterlimit="10" d="M209.5,26.7c0,0,11.8,8,29.3,10.1"/>
	<path fill="none" stroke="#000000" stroke-width="2" stroke-miterlimit="10" d="M235.6,194c0.2,11,0.4,18.3,0.4,18.3s-0.6,0-1.7,0"
		/>
	<path fill="none" stroke="#000000" stroke-width="2" stroke-miterlimit="10" d="M220.2,211.9c-7-0.3-14.2-0.8-17.2-1.6L198.3,93
		l35-2.8c0,0,0.3,12.2,0.6,28.8"/>
	<line fill="none" stroke="#000000" stroke-width="2" stroke-miterlimit="10" x1="209.7" y1="83.2" x2="209.7" y2="92.1"/>
	<line fill="none" stroke="#000000" stroke-width="2" stroke-miterlimit="10" x1="222.9" y1="81.2" x2="224" y2="90.9"/>
	<path fill="none" stroke="#000000" stroke-width="2" stroke-miterlimit="10" d="M236,212.3c0,0-0.1,4.8-0.3,12.8"/>
	<path fill="none" stroke="#000000" stroke-width="2" stroke-miterlimit="10" d="M235.7,228.6c-0.9,43.3-3.2,157.9-3.2,157.9h-11.8
		l-7.8-175"/>
	<polyline fill="none" stroke="#000000" stroke-width="2" stroke-miterlimit="10" points="203,210.3 212,378.5 220.4,378.5 	"/>
	<polyline fill="none" stroke="#000000" stroke-width="2" stroke-miterlimit="10" points="220.8,386.5 194.5,398 214.3,410.5 
		232.5,386.5 	"/>
	<polyline fill="none" stroke="#000000" stroke-width="2" stroke-miterlimit="10" points="212,378.5 187.2,381.8 200.8,391.5 	"/>
	<polyline fill="none" stroke="#000000" stroke-width="2" stroke-miterlimit="10" points="228.7,98.8 242.1,152.2 233.5,208 
		224.5,206.3 227.6,154.5 216.3,104.8 	"/>
	<polyline fill="none" stroke="#000000" stroke-width="2" stroke-miterlimit="10" points="225.1,206.1 219.1,214.3 221.5,217.2 
		225.2,216.1 222.4,229.5 226.3,234.8 236,228 233.5,208 	"/>
	<line fill="none" stroke="#000000" stroke-width="2" stroke-miterlimit="10" x1="199.6" y1="391.5" x2="220.4" y2="383.2"/>
	<line fill="none" stroke="#000000" stroke-width="2" stroke-miterlimit="10" x1="227.6" y1="154.5" x2="242.1" y2="152.2"/>
</g>
<g id="Layer_3">
	<path fill="none" d="M226,23.6c3.4-0.9,7.3-0.3,10.2,1.8c-3.5,1.7-7.1,3.5-10.6,5.2c3.6,0.3,7.1,0.6,10.7,0.8
		c-4.6,1.3-9.3,2.5-13.9,3.8c7.2-0.4,14.5,0.2,21.6,1.7c-9.6,0.8-19.2,3.1-28.1,6.8c9.7,0.1,19.3,0.2,29,0.3
		c-8.8,0.9-17.6,2.3-26.3,4.1c7.7,0.1,15.3,0.1,23,0.2c-10.6,4-21.4,7.3-32.5,9.9c9,0.2,18.1,0.4,27.1,0.5c-8,4-16.5,6.8-25.3,8.2
		c9.2-1.5,18.5-2,27.8-1.6c-11.6,5.5-24,9.2-36.7,11c9.6-0.4,19.2-0.2,28.8,0.5c-7.1,4.6-15.1,7.8-23.5,9.3
		c10.9-2.4,22.1-3.4,33.3-3.2c-8.1,2.7-16.3,5.5-24.4,8.2c5.5-0.5,11-0.2,16.4,0.8c-3.3,1.8-6.3,4.1-9,6.7c3.5,0.1,7,0.2,10.5,0.3
		c-3.1,2.7-6.2,5.3-9.3,8c2.2,0.3,4.5,0.5,6.7,0.8c-2.9,0.5-5.5,2.6-6.7,5.3c5.3,2,6.8,8.8,6.7,14.5c-0.3,14.2-6,28.2-15.7,38.5
		c5.1,1.5,10.1,3.4,14.9,5.8c-6.2,5.5-13.4,9.9-21.2,12.8c6.6,0.2,13.3,0.4,19.9,0.6c-8.2,4.4-16.3,8.8-24.5,13.1
		c8.9,0,17.9,0,26.8,0.1c-8.6,5.7-17.8,10.7-27.2,15c11.9-1.6,23.8-3.3,35.7-4.9c-12.8,4.5-25.2,9.7-37.4,15.7
		c11.1,0.7,22.2,0,33.1-2c-11.8,4.6-23.1,10.6-33.6,17.8c12,1.3,24.2,1.4,36.2,0.2c-6.7,2.9-13.5,5.8-20.2,8.7
		c9.5-1.2,19.1-2.3,28.6-3.5c-15.9,3-31.4,7.8-46.3,14.2c15.9-1.2,31.9-2.4,47.8-3.6c-12.3,5.2-25.1,9.2-38.2,12
		c4.6,0.9,9.4,0.9,14.1,0.1c-9.1,2.1-18,5.3-26.5,9.3c14.5-1.7,29-3.4,43.6-5c-6.8,3.3-13.7,6.5-20.5,9.8c7,0.3,14-0.2,20.8-1.5
		c-10.9,3.2-21.1,9.1-29.4,16.9c10-0.8,19.9-3,29.4-6.4c-12.6,5.3-24.5,12.1-35.5,20.2c8.7-2.9,17.5-5.8,26.2-8.7
		c-9.3,4.7-18.6,9.4-27.9,14.1c12-0.5,24-1,36-1.5c-8.8,3.8-17.7,7.6-26.5,11.4c5.2,1.4,10.8,1.5,16.1,0.2
		c-11.4,3.7-22.1,9.3-31.6,16.6c13.9-1,27.9-2.1,41.8-3.1c-7,3.2-13.6,7.1-19.6,11.7c6.2,0.9,12.6,0,18.2-2.7
		c-14.2,4.4-27.8,11-40,19.5c11.5,2.9,23.7,2.7,35.1-0.7c-10.2,1.4-20.2,3.9-29.8,7.3c5,1.3,10.2,1.7,15.3,1.2
		c-10.9,1.5-21.6,4.8-31.5,9.7c12.6-0.4,25.2-2.3,37.4-5.8c-9.1,1.6-17.8,5.1-25.4,10.2c14.3-0.5,28.5-2.1,42.6-4.6
		c-8.4,2.3-16.5,5.9-23.9,10.5c5.7-0.1,11.3-0.9,16.7-2.5c-13.4,3.1-26.6,7.1-39.5,11.9c4.3-0.3,8.6-1.9,12.1-4.4
		c-5.8,0.1-11.5,2.4-15.6,6.4c10,2.2,20.4,3,30.6,2.3c0.5-1.2,1-2.4,1.5-3.6"/>
</g>
</svg>
