<?xml version="1.0" encoding="utf-8"?>
<!-- Generator: Adobe Illustrator 21.0.0, SVG Export Plug-In . SVG Version: 6.00 Build 0)  -->
<!DOCTYPE svg PUBLIC "-//W3C//DTD SVG 1.0//EN" "http://www.w3.org/TR/2001/REC-SVG-20010904/DTD/svg10.dtd">
<svg version="1.0" id="Layer_1" xmlns="http://www.w3.org/2000/svg" xmlns:xlink="http://www.w3.org/1999/xlink" x="0px" y="0px"
	 width="432px" height="432px" viewBox="0 0 432 432" enable-background="new 0 0 432 432" xml:space="preserve">
<g id="Layer_2">
	<polygon fill="#27AAE1" points="220.9,177.2 199.1,214.2 212.6,212.9 230.7,184.3 229.3,178.2 	"/>
</g>
<g id="Layer_1_1_">
	<ellipse fill="none" stroke="#000000" stroke-width="2" stroke-miterlimit="10" cx="211.4" cy="274.1" rx="59.6" ry="61.2"/>
	<path fill="none" stroke="#000000" stroke-width="2" stroke-miterlimit="10" d="M168.9,232l3.1-0.8c0,0,1.7,0.7,2.5,0.8
		s4.1,0.1,4.7-0.4c0.6-0.6,1.8-1.6,2.5-1.6s2.3-0.3,3.1,0s3-0.4,4.1-0.1c1.1,0.3,5.5,0.6,6.6-0.1c1.1-0.7,4.5-2.2,4.5-2.2h2.5
		c0,0,3.5,1.8,4.2,2.2c0.7,0.5,2.1,2.7,1.8,3.4s-1.1,3.7-1.1,3.7l-0.1,4.7l1.3,0.8l4.5-1.6l4.4-2.5l3.5-2.1l4.9-0.4l1,1v2.4
		l-2.5,3.3l0.7,2.3l3.3,3.3l1,2.3l1.8,3v2.1h-2.1h-3h-3.5h-2.3c0,0-0.7,3-0.8,3.5c-0.1,0.6-0.3,3.8-0.3,3.8s-0.8,2.3-2,2.5
		s-3.3,0-3.3,0l-3.7,1c0,0-1.6,1.8-1.6,2.5s0.6,1.6,1.1,2.8c0.6,1.3,2.1,3.3,1.4,3.8c-0.8,0.6-1.8,2-3.3,1.7s-3.5-0.1-5.2-1.6
		c-1.7-1.4-4.5-3.1-4.5-3.1s-1.7-1.3-4.1-1.1c-2.4,0.1-2.3-0.3-3.3,0.6c-1,0.8-1,2.3-1,2.3l0.8,3.9c0,0,1.6,3.5,2,4.2
		s3.3,5.2,5.1,5.5s4-1.3,4.4,0s4.9,5.1,5.4,5.1c0.4,0,3.1-0.6,3.1-1.3s-0.7-1.8-0.1-3.5c0.6-1.7,0.8-3.7,1.8-4.2s0.1-0.7,2.1-1.3
		c2-0.6,4.2-1.3,4.2-1.3s1.8-0.3,3.1-0.3s3,0.3,3,0.7c0,0.4,0.4,1.3,0.4,2.5c0,1.3,1.4,4.1,1.7,4.5s3,2.8,3.5,2.8
		c0.6,0,4.2,1.3,4.2,1.3l4.1,1.1l1.4,2.4v4.4l-1,2.3l-1.6,4l-1.7,3.8c0,0,0.1,2.8-0.1,4.1s1.6,0.4-0.6,2.8c-2.1,2.4-3.5,3.8-4,4.7
		s-3,4-3,4l-2.8,1.4l-4.5,0.8l-3-0.7l-2.8-3c0,0-2.4-2.4-2.1-4.5c0.3-2.1,0.4-2.5,0.6-3.4s0.3-2.1,0.1-4.5c-0.1-2.4-0.4-4.1-0.4-4.1
		l-0.6-2l-3.3-1.6l-0.8-0.4l-3.4-2.4l-0.1-2.1l-0.6-2.3l-1.1-2.4l-3.8-2.8l-4.5-1.8l-4.8-0.4l-6.9-1.6c0,0,0.4,1.7-1.7-1.1
		s-3-4.1-3-4.1s-1-5.1-1-5.9s-0.8-3.4-0.8-3.4h-2.1c0,0-2.4-0.2-2.5-0.6s-1-2.5-1-2.5l-2.4-4.9v-2.4c0,0-3.7,0-3.7,0.4s1.8,3,0,3.4
		s-2.8,2.1-3.5,1.3c-0.7-0.8-3.1-4.4-3.1-4.4s-2-3.4-2-4.1s1.1-9.2,1.6-9.3c0.4-0.1,4.5-2.1,4.5-2.1s2-2.5,1.4-2.8s-3.4-4.2-3.4-4.2
		"/>
	<path fill="none" stroke="#000000" stroke-width="2" stroke-miterlimit="10" d="M271.1,261.1c0,0-5.5,1.6-5.9,2s-2.4,4.1-2.4,4.1
		l-3.8,5.2c0,0-2.4,2.4-2.4,3.3c0,0.8,0,4.9,0,4.9v4.9l1.8,3.8c0,0,1.7,1.3,2.1,2.3s0.7,3.5,0.7,3.5s-0.1,2.8,0,3.3
		c0.1,0.4,3.4,3.5,3.4,3.5"/>
	<path fill="none" stroke="#000000" stroke-width="2" stroke-miterlimit="10" d="M241.7,222.1c0,0,1.1,7.3,1.1,7.9s-0.3,4.4,0.8,5.7
		s3.5,2,4.1,2s1.3,0.1,2.4,0c1.1-0.1,1.7,0.3,2.5,0.1s3.1-0.5,3.8-0.5c0.7,0,2.5,0.1,2.5,0.1"/>
	<path fill="none" stroke="#000000" stroke-width="2" stroke-miterlimit="10" d="M216,168.7h-17c-6.6,0-12-5.4-12-12v-34.9
		c0-6.6,5.4-12,12-12h17c6.6,0,12,5.4,12,12v34.9C228,163.3,222.6,168.7,216,168.7z"/>
	<path fill="none" stroke="#000000" stroke-width="2" stroke-miterlimit="10" d="M228,133.9c0,0,8.5,6,0,10.1"/>
	<path fill="none" stroke="#000000" stroke-width="2" stroke-miterlimit="10" d="M187,141.9c0,0,4.8,1.4,10.4,0
		c5.6-1.4,8.5-4.1,15.5-1.4c7,2.7,15.2,0.5,15.2,0.5"/>
	<path fill="none" stroke="#000000" stroke-width="2" stroke-miterlimit="10" d="M183.8,220.2c1.3-16.6,1.9-31.7,1.1-42.9
		c0,0,30.9-2.2,45,1c0,0,2.2,16.4,4.9,39.4"/>
	<path fill="none" stroke="#000000" stroke-width="2" stroke-miterlimit="10" d="M220.2,177.1c7.1-0.6,24.1-9.9,24.1-9.9
		c-2.5-5.4-7.8-57.6-12.5-64.1c-4.8-6.5-24.3-0.9-24.3-0.9s-24.9-5.1-27.6,9.4c-2.7,14.5-7,47.2-10.7,52.4c0,0,9.1,9.2,22.4,13.1"/>
	<polyline fill="none" stroke="#000000" stroke-width="2" stroke-miterlimit="10" points="201.8,168.7 202.7,176.7 214.4,176.6 
		214.4,168.2 	"/>
	<path fill="none" stroke="#000000" stroke-width="2" stroke-miterlimit="10" d="M212.6,212.9c9.9-15.6,18.1-28.6,18.1-28.6l-0.8-6
		c0,0-7.6-1.3-11.5-1.3c0,0-12.2,19.8-22.6,38.3"/>
	<polyline fill="none" stroke="#000000" stroke-width="2" stroke-miterlimit="10" points="185.4,178.3 122.2,233 138.8,256.5 
		185,199.7 	"/>
	<polyline fill="none" stroke="#000000" stroke-width="2" stroke-miterlimit="10" points="126.4,239.9 114,247.5 114.3,252.3 
		122,252 111.4,266.7 125.6,268.3 136.1,252.3 	"/>
	<path fill="none" stroke="#000000" stroke-width="2" stroke-miterlimit="10" d="M187,135c0,0-9.2,5,0,10.2"/>
</g>
<g id="Layer_3">
	<path fill="none" d="M218.7,178.3c5.3-0.5,10.6-0.5,15.8,0.1c-5.6,0.2-11.2,0.4-16.7,0.7c5.9,0.8,11.8,1.6,17.7,2.4
		c-6.4-0.2-12.9,0.1-19.3,0.7c6.4,0,12.8,0.3,19.1,0.9c-6.9,0.7-13.8,1.3-20.8,2c6.4,0,12.8,0.1,19.2,0.5
		c-8.2,0.2-16.3,1.2-24.4,2.9c5.1,0.8,10.2,1,15.3,1.3c-4.3,0.5-8.5,1-12.8,1.4c5.9,0.2,11.8,0.3,17.7,0.5c-6.9,1.2-14,0.6-21,1.4
		c-1.5,0.2-3.1,0.4-4.3,1.3c6.9-0.1,13.8,0.2,20.7,0.9c-5.4,0.1-10.8,0.5-16.2,1c-1.5,0.2-3.2,0.4-4.3,1.5
		c8.9-0.4,17.8-0.3,26.6,0.4c-9,0.7-18.3-0.4-26.8,2.8c-0.9,0.3-1.8,0.8-2.2,1.7c7.3-0.1,14.6-0.2,21.9-0.3
		c-10.5,0.6-21.1,1.2-31.4,3.4c10.5,0.3,20.9,0.6,31.4,0.9c-8.1,1.5-16.2,3.1-24.3,4.6c8.4-0.1,16.8-0.2,25.2-0.2
		c-7.5,0-15.1,0.2-22.6,0.6c-2.4,0.1-5,0.3-7,1.5c6.1,1.8,12.4,2.7,18.7,2.5"/>
</g>
</svg>
