<?xml version="1.0" encoding="utf-8"?>
<!-- Generator: Adobe Illustrator 19.2.1, SVG Export Plug-In . SVG Version: 6.00 Build 0)  -->
<svg version="1.0" id="Layer_1" xmlns="http://www.w3.org/2000/svg" xmlns:xlink="http://www.w3.org/1999/xlink" x="0px" y="0px"
	 width="432px" height="432px" viewBox="0 0 432 432" enable-background="new 0 0 432 432" xml:space="preserve">
<path fill="none" stroke="#000000" stroke-width="2" stroke-miterlimit="10" d="M213.1,48.6c3.4-5.3,8-8.6,13.1-8.6
	c10.5,0,19,13.9,19,31.1s-8.5,31.1-19,31.1s-19-13.9-19-31.1c0-4.5,0.6-8.7,1.6-12.6"/>
<line fill="none" stroke="#000000" stroke-width="2" stroke-miterlimit="10" x1="221" y1="101.3" x2="221" y2="110.2"/>
<line fill="none" stroke="#000000" stroke-width="2" stroke-miterlimit="10" x1="232.2" y1="100.5" x2="232.8" y2="110.2"/>
<path fill="none" stroke="#000000" stroke-width="2" stroke-miterlimit="10" d="M247.6,133.2c-0.8,32.1-2.2,86.5-2.2,86.5h-36.7
	l-3.8-109.5h43.2c0,0-0.2,6.1-0.4,15.4L247.6,133.2z"/>
<polyline fill="none" stroke="#000000" stroke-width="2" stroke-miterlimit="10" points="248.2,110.2 268.5,150.2 256.2,210.8 
	249.5,209.5 255.8,152.3 247.5,138.2 "/>
<polyline fill="none" stroke="#000000" stroke-width="2" stroke-miterlimit="10" points="249.5,209.5 245.4,219.7 249.5,221.9 
	252.2,217.5 253.9,236.2 264,226.6 256.2,210.8 "/>
<line fill="none" stroke="#000000" stroke-width="2" stroke-miterlimit="10" x1="255.8" y1="152.3" x2="268.5" y2="150.2"/>
<polyline fill="none" stroke="#000000" stroke-width="2" stroke-miterlimit="10" points="211.8,110.2 183.2,82.2 210.8,56.7 
	235.5,55.7 235.5,51.2 207.2,47.3 163.7,82.2 205.4,125.4 "/>
<line fill="none" stroke="#000000" stroke-width="2" stroke-miterlimit="10" x1="183.2" y1="82.2" x2="164.5" y2="81.5"/>
<line fill="none" stroke="#000000" stroke-width="2" stroke-miterlimit="10" x1="229.1" y1="219.8" x2="229.1" y2="379.3"/>
<polyline fill="none" stroke="#000000" stroke-width="2" stroke-miterlimit="10" points="208.7,219.7 220.3,379.3 238,379.3 
	245.4,219.7 "/>
<polyline fill="none" stroke="#000000" stroke-width="2" stroke-miterlimit="10" points="220.3,379.3 196.2,384.8 215.2,393.2 
	229.1,380 248.3,393.2 262,385.2 238,379.3 "/>
</svg>
