<?xml version="1.0" encoding="utf-8"?>
<!-- Generator: Adobe Illustrator 19.2.1, SVG Export Plug-In . SVG Version: 6.00 Build 0)  -->
<svg version="1.0" id="Layer_1" xmlns="http://www.w3.org/2000/svg" xmlns:xlink="http://www.w3.org/1999/xlink" x="0px" y="0px"
	 width="432px" height="432px" viewBox="0 0 432 432" enable-background="new 0 0 432 432" xml:space="preserve">
<ellipse fill="none" stroke="#000000" stroke-width="2" stroke-miterlimit="10" cx="216.3" cy="72.1" rx="19" ry="31.1"/>
<polyline fill="none" stroke="#000000" stroke-width="2" stroke-miterlimit="10" points="211.2,102 211.2,111.2 222.3,111.2 
	222.3,101.5 "/>
<path fill="none" stroke="#000000" stroke-width="2" stroke-miterlimit="10" d="M222.5,108.3c8.5-0.1,17.4-0.7,25.8-1.9
	c0,0,12.3-72.6-32-70.4c0,0-41.5-3.2-34,70.4c0,0,12.5,1.5,28.8,1.9"/>
<path fill="none" stroke="#000000" stroke-width="2" stroke-miterlimit="10" d="M191.3,152.9c-0.8-5.5-1.3-9.1-1.3-9.1l8.3-31.6h38
	c0,0,5,21.9,6.7,29.2"/>
<path fill="none" stroke="#000000" stroke-width="2" stroke-miterlimit="10" d="M240,171.7c-2.2,18-4.8,38-4.8,38h-35.7
	c0,0-2.5-17.1-4.9-33.9"/>
<path fill="none" stroke="#000000" stroke-width="2" stroke-miterlimit="10" d="M247.8,165.7c-7-0.3-12.6-5.8-12.6-12.6
	c0-6.9,5.9-12.6,13.2-12.6c7.3,0,13.2,5.6,13.2,12.6c0,2.6-0.8,5.1-2.3,7.1"/>
<path fill="none" stroke="#000000" stroke-width="2" stroke-miterlimit="10" d="M235.3,149.8c0,0-43.3-2.3-46.1,5.5
	c-2.7,7.5-3.8,27.2,25.8,22.7"/>
<path fill="none" stroke="#000000" stroke-width="2" stroke-miterlimit="10" d="M230.5,174.7c11.4-2.8,16.8-5.2,19.2-6.7"/>
<polyline fill="none" stroke="#000000" stroke-width="2" stroke-miterlimit="10" points="198.3,112.2 169.3,139.7 188.1,165.7 "/>
<polyline fill="none" stroke="#000000" stroke-width="2" stroke-miterlimit="10" points="192.2,135.4 185.7,141.5 190.5,148.2 "/>
<path fill="none" stroke="#000000" stroke-width="2" stroke-miterlimit="10" d="M214.1,177.9l5.6-9.4l11.5,1.8l-1.4,7.4
	C229.9,177.8,220,181.7,214.1,177.9z"/>
<line fill="none" stroke="#000000" stroke-width="2" stroke-miterlimit="10" x1="236.3" y1="112.2" x2="255.6" y2="142.5"/>
<path fill="none" stroke="#000000" stroke-width="2" stroke-miterlimit="10" d="M260.6,160.2l-9-2.3c0,0-4.6,8.7-3.9,9.2
	c0.7,0.5,10.8,3.3,10.8,3.3s4.8-8.8,5-9c0.2-0.2-2.3-5.4-2.3-5.4"/>
<line fill="none" stroke="#000000" stroke-width="2" stroke-miterlimit="10" x1="169.3" y1="139.7" x2="186.4" y2="142.1"/>
<path fill="none" stroke="#000000" stroke-width="2" stroke-miterlimit="10" d="M199.5,209.8l-15.7,148.8c0,0,39.8,11.5,71.7,0
	l-20.3-148.8"/>
<path fill="none" stroke="#000000" stroke-width="2" stroke-miterlimit="10" d="M204.8,362c0.4,11.2,0.7,18.4,0.7,18.4h8.9
	c0,0,0.1-6.6,0.3-17.1"/>
<path fill="none" stroke="#000000" stroke-width="2" stroke-miterlimit="10" d="M227.9,362.5c0.6,10.9,1,17.8,1,17.8h9.4
	c0,0-0.1-6.9-0.2-17.8"/>
<polyline fill="none" stroke="#000000" stroke-width="2" stroke-miterlimit="10" points="205.5,380.3 180.6,388.9 197.8,397.4 
	214.5,380.3 "/>
<polyline fill="none" stroke="#000000" stroke-width="2" stroke-miterlimit="10" points="228.9,380.3 241.8,398.9 258.5,392.1 
	238.8,380.3 "/>
</svg>
