<?xml version="1.0" encoding="utf-8"?>
<!-- Generator: Adobe Illustrator 19.2.1, SVG Export Plug-In . SVG Version: 6.00 Build 0)  -->
<svg version="1.0" id="Layer_1" xmlns="http://www.w3.org/2000/svg" xmlns:xlink="http://www.w3.org/1999/xlink" x="0px" y="0px"
	 width="432px" height="432px" viewBox="0 0 432 432" enable-background="new 0 0 432 432" xml:space="preserve">
<path fill="none" stroke="#000000" stroke-width="2" stroke-miterlimit="10" d="M232.4,64.4c1.4,4.4,2.3,9.4,2.3,14.7
	c0,17.1-8.5,31.1-19,31.1s-19-13.9-19-31.1c0-4.3,0.5-8.4,1.5-12.2"/>
<polyline fill="none" stroke="#000000" stroke-width="2" stroke-miterlimit="10" points="210.6,109 210.6,118.2 221.7,118.2 
	221.7,108.5 "/>
<path fill="none" stroke="#000000" stroke-width="2" stroke-miterlimit="10" d="M237.1,141.2c-0.8,32.1-2.2,86.5-2.2,86.5h-36.7
	l-3.8-109.5h43.2c0,0-0.2,6.1-0.4,15.4L237.1,141.2z"/>
<polyline fill="none" stroke="#000000" stroke-width="2" stroke-miterlimit="10" points="237.8,118.2 259,163.7 256.9,219.8 
	249.9,220.8 246,168.3 237.1,145.8 "/>
<line fill="none" stroke="#000000" stroke-width="2" stroke-miterlimit="10" x1="246" y1="168.3" x2="259" y2="163.7"/>
<polyline fill="none" stroke="#000000" stroke-width="2" stroke-miterlimit="10" points="249.9,220.8 244.7,228.7 247.3,232.7 
	252.5,227.7 251.9,242.5 260.5,248.2 265.7,239.2 256.9,219.8 "/>
<polyline fill="none" stroke="#000000" stroke-width="2" stroke-miterlimit="10" points="198.4,227.7 204.4,387.3 213.3,387.3 
	216.2,227.7 "/>
<polyline fill="none" stroke="#000000" stroke-width="2" stroke-miterlimit="10" points="219,227.7 227.7,387.3 237.1,387.3 
	235,227.7 "/>
<polyline fill="none" stroke="#000000" stroke-width="2" stroke-miterlimit="10" points="204.4,387.3 179.4,395.9 196.7,404.4 
	213.3,387.3 "/>
<polyline fill="none" stroke="#000000" stroke-width="2" stroke-miterlimit="10" points="227.7,387.3 240.7,405.9 257.3,399.1 
	237.7,387.3 "/>
<polyline fill="none" stroke="#000000" stroke-width="2" stroke-miterlimit="10" points="194.7,118.2 173.4,163.7 175.6,219.8 
	182.6,220.8 186.4,168.3 195.4,145.8 "/>
<line fill="none" stroke="#000000" stroke-width="2" stroke-miterlimit="10" x1="186.4" y1="168.3" x2="173.4" y2="163.7"/>
<polyline fill="none" stroke="#000000" stroke-width="2" stroke-miterlimit="10" points="182.6,220.8 187.8,228.7 185.2,232.7 
	179.9,227.8 180.6,242.5 171.9,248.2 166.8,239.2 175.6,219.8 "/>
<path fill="none" stroke="#000000" stroke-width="2" stroke-miterlimit="10" d="M197.6,69.5c0,0-18.2-31.5,7.9-37.5
	s33.8,7.8,28.2,37.5"/>
<path fill="none" stroke="#000000" stroke-width="2" stroke-miterlimit="10" d="M197.4,67.6c0,0,17.9-8.2,36.2-2.6"/>
<path fill="none" stroke="#000000" stroke-width="2" stroke-miterlimit="10" d="M235.4,56.4c0,0-19.3-13.2-44-4.9"/>
<path fill="none" stroke="#000000" stroke-width="2" stroke-miterlimit="10" d="M206.1,48.8c0,0,10.4-9,26.4-9.8"/>
</svg>
