<?xml version="1.0" encoding="utf-8"?>
<!-- Generator: Adobe Illustrator 19.2.1, SVG Export Plug-In . SVG Version: 6.00 Build 0)  -->
<svg version="1.0" id="Layer_1" xmlns="http://www.w3.org/2000/svg" xmlns:xlink="http://www.w3.org/1999/xlink" x="0px" y="0px"
	 width="432px" height="432px" viewBox="0 0 432 432" enable-background="new 0 0 432 432" xml:space="preserve">
<ellipse fill="none" stroke="#000000" stroke-width="2" stroke-miterlimit="10" cx="229.3" cy="65.1" rx="19" ry="31.1"/>
<polyline fill="none" stroke="#000000" stroke-width="2" stroke-miterlimit="10" points="224.2,95 224.2,104.2 235.3,104.2 
	235.3,94.5 "/>
<path fill="none" stroke="#000000" stroke-width="2" stroke-miterlimit="10" d="M249.2,127.2c-0.8,32.1-2.2,86.5-2.2,86.5h-36.7
	l-3.8-109.5h43.2c0,0-0.2,6.1-0.4,15.4"/>
<rect x="228.7" y="119.4" fill="none" stroke="#000000" stroke-width="2" stroke-miterlimit="10" width="23.8" height="7.9"/>
<polyline fill="none" stroke="#000000" stroke-width="2" stroke-miterlimit="10" points="206.5,104.2 184.3,127.3 164.7,92.5 
	157.3,95.3 180.8,146.3 207.2,125.3 "/>
<path fill="none" stroke="#000000" stroke-width="2" stroke-miterlimit="10" d="M164.7,92.5l5.5-6.4l1.8-12h-4.5l-1.6,5.2
	c0,0-2.2-0.5-2.2-0.9s-1.4-19.9-1.4-19.9l-9.6-3l-7.8,6.6c0,0,4.1,27.2,4.4,27.6s8.2,5.5,8.2,5.5"/>
<polyline fill="none" stroke="#000000" stroke-width="2" stroke-miterlimit="10" points="249.8,104.2 271,149.7 268.8,205.8 
	261.8,206.8 258,154.3 249.1,131.8 "/>
<line fill="none" stroke="#000000" stroke-width="2" stroke-miterlimit="10" x1="184.3" y1="127.3" x2="180.8" y2="146.3"/>
<line fill="none" stroke="#000000" stroke-width="2" stroke-miterlimit="10" x1="258" y1="154.3" x2="271" y2="149.7"/>
<polyline fill="none" stroke="#000000" stroke-width="2" stroke-miterlimit="10" points="261.8,206.8 256.7,214.7 259.2,218.7 
	264.5,213.8 263.8,228.5 272.5,234.2 277.7,225.2 268.8,205.8 "/>
<polyline fill="none" stroke="#000000" stroke-width="2" stroke-miterlimit="10" points="210.3,213.8 216.3,373.3 225.2,373.3 
	228.1,213.8 "/>
<polyline fill="none" stroke="#000000" stroke-width="2" stroke-miterlimit="10" points="231,213.8 239.7,373.3 249.1,373.3 
	247,213.8 "/>
<polyline fill="none" stroke="#000000" stroke-width="2" stroke-miterlimit="10" points="216.3,373.3 191.4,381.9 208.6,390.4 
	225.2,373.3 "/>
<polyline fill="none" stroke="#000000" stroke-width="2" stroke-miterlimit="10" points="239.7,373.3 252.6,391.9 269.2,385.1 
	249.6,373.3 "/>
</svg>
