<?xml version="1.0" encoding="utf-8"?>
<!-- Generator: Adobe Illustrator 21.0.0, SVG Export Plug-In . SVG Version: 6.00 Build 0)  -->
<!DOCTYPE svg PUBLIC "-//W3C//DTD SVG 1.0//EN" "http://www.w3.org/TR/2001/REC-SVG-20010904/DTD/svg10.dtd">
<svg version="1.0" id="Layer_1" xmlns="http://www.w3.org/2000/svg" xmlns:xlink="http://www.w3.org/1999/xlink" x="0px" y="0px"
	 width="504px" height="504px" viewBox="0 0 504 504" enable-background="new 0 0 504 504" xml:space="preserve">
<g id="Layer_2">
	<path fill="#27AAE1" d="M196.4,43.6c0,0-15.6,24.9,0.7,44.5c0,0-13.5-1-13.9-21C182.7,47.2,196.4,43.6,196.4,43.6z"/>
	<polygon fill="#27AAE1" points="184.8,93.4 188.4,163.9 208.6,167.7 190.1,167.7 185.9,291.6 178.8,307.6 165.5,301.5 182.9,291.6 
		181.7,167.7 177.9,93.4 	"/>
	<polygon fill="#27AAE1" points="202.6,167.7 205.9,291.6 225.9,302 214.2,307.6 202.6,291.6 196.4,167.7 	"/>
	<polygon fill="#27AAE1" points="178.3,101.7 168.9,130 169.6,173.8 172.4,173.8 174.3,131.9 179.1,117.9 	"/>
</g>
<g id="Layer_1_1_">
	<ellipse fill="none" stroke="#000000" stroke-width="2" stroke-miterlimit="10" cx="197.1" cy="65.9" rx="14" ry="22.3"/>
	<path fill="none" stroke="#000000" stroke-width="2" stroke-miterlimit="10" d="M206.3,45.6c0,0-11.1,2.1-17,0"/>
	<path fill="none" stroke="#000000" stroke-width="2" stroke-miterlimit="10" d="M208,48.5c-1,0.6-11.7,3.1-21,0.5"/>
	<path fill="none" stroke="#000000" stroke-width="2" stroke-miterlimit="10" d="M209.1,51.8c0,0-11.5,4.9-23.2,0.6"/>
	<polyline fill="none" stroke="#000000" stroke-width="2" stroke-miterlimit="10" points="201.6,87 201.6,93.4 193,93.4 193,87.2 	
		"/>
	<polygon fill="none" stroke="#000000" stroke-width="2" stroke-miterlimit="10" points="215.4,93.4 177.9,93.4 181.7,167.7 
		211.1,167.7 	"/>
	<polyline fill="none" stroke="#000000" stroke-width="2" stroke-miterlimit="10" points="177.9,93.4 163.6,128 166.8,173.9 
		172.5,173.9 174.3,131.9 179.1,117.9 	"/>
	<polyline fill="none" stroke="#000000" stroke-width="2" stroke-miterlimit="10" points="172.4,173.8 176.5,181 173.4,182.8 
		170.1,179.3 169.3,194.3 162.7,188.1 166.7,173.8 	"/>
	<line fill="none" stroke="#000000" stroke-width="2" stroke-miterlimit="10" x1="174.3" y1="131.9" x2="163.6" y2="128"/>
	<polyline fill="none" stroke="#000000" stroke-width="2" stroke-miterlimit="10" points="215.3,93.4 229.6,128 226.4,173.9 
		220.6,173.9 218.9,131.9 214,117.9 	"/>
	<polyline fill="none" stroke="#000000" stroke-width="2" stroke-miterlimit="10" points="220.7,173.8 216.6,181 219.8,182.8 
		223,179.3 223.9,194.3 230.4,188.1 226.4,173.8 	"/>
	<line fill="none" stroke="#000000" stroke-width="2" stroke-miterlimit="10" x1="218.9" y1="131.9" x2="229.6" y2="128"/>
	<polyline fill="none" stroke="#000000" stroke-width="2" stroke-miterlimit="10" points="211.1,167.7 208.6,291.6 202.6,291.6 
		196.4,167.7 189.6,291.6 182.6,291.6 181.7,167.7 	"/>
	<polyline fill="none" stroke="#000000" stroke-width="2" stroke-miterlimit="10" points="208.6,291.6 226.8,299.4 215.3,305.1 
		202.6,291.6 	"/>
	<polyline fill="none" stroke="#000000" stroke-width="2" stroke-miterlimit="10" points="189.6,291.6 179.8,305.1 168,299.3 
		182.6,291.6 	"/>
	<ellipse fill="none" stroke="#000000" stroke-width="2" stroke-miterlimit="10" cx="198.1" cy="343.1" rx="18.3" ry="27.1"/>
	<path fill="none" stroke="#000000" stroke-width="2" stroke-miterlimit="10" d="M172,378.2c0,0,24.9-16,49.5,0l7.2,71.2
		c0,0-42.3,15.8-63.2,0L172,378.2z"/>
	<path fill="none" stroke="#000000" stroke-width="2" stroke-miterlimit="10" d="M168.2,451.2l7.3,15.5c0,0,16.2,5.1,40.2,0
		l7.4-15.5"/>
	<path fill="none" stroke="#000000" stroke-width="2" stroke-miterlimit="10" d="M171.9,379.4l-22.6,67l-20.4,4.9
		c0,0,2.1,5.8,2.7,5.2c0.6-0.6,18.8-1.9,18.8-1.9l6.1,3.2l4-3l-3.2-6.7l11.3-33.2"/>
	<path fill="none" stroke="#000000" stroke-width="2" stroke-miterlimit="10" d="M221.6,379l23.2,67.3l20.4,4.9c0,0-2.1,5.8-2.7,5.2
		s-18.8-1.9-18.8-1.9l-6.1,3.2l-4-3l3.2-6.7l-11.4-32.2"/>
	
		<ellipse transform="matrix(0.1877 -0.9822 0.9822 0.1877 -70.7904 544.7426)" fill="none" stroke="#000000" stroke-width="2" stroke-miterlimit="10" cx="294" cy="315.2" rx="23.8" ry="16"/>
	<line fill="none" stroke="#000000" stroke-width="2" stroke-miterlimit="10" x1="305.8" y1="328.5" x2="309.4" y2="334.4"/>
	<path fill="none" stroke="#000000" stroke-width="2" stroke-miterlimit="10" d="M297,397.4l-16,5.8l-8-4l15.2-56.3l27.2-10.7
		c0,0,14,18.5,23.2,75.8c0,0-24.5,9.7-40.7,5.7l-3.2-52.2"/>
	<path fill="none" stroke="#000000" stroke-width="2" stroke-miterlimit="10" d="M295.3,371.9c0,0.7-5.3,20.5-12.9,30.8"/>
	<path fill="none" stroke="#000000" stroke-width="2" stroke-miterlimit="10" d="M273,399.2l-19.7,6.5v15.2c0,0,20,15.8,32.3,16
		s42.5-3.7,45.8-9.7s5.7-18.7,5.7-18.7"/>
	<path fill="none" stroke="#000000" stroke-width="2" stroke-miterlimit="10" d="M297.7,411.7c0,0-13.7-5.5-32.4-6.5"/>
	
		<ellipse transform="matrix(0.9822 -0.1877 0.1877 0.9822 -57.4129 24.1762)" fill="none" stroke="#000000" stroke-width="2" stroke-miterlimit="10" cx="98.9" cy="315.2" rx="16" ry="23.8"/>
	<line fill="none" stroke="#000000" stroke-width="2" stroke-miterlimit="10" x1="87" y1="328.6" x2="83.4" y2="334.5"/>
	<path fill="none" stroke="#000000" stroke-width="2" stroke-miterlimit="10" d="M95.7,397.5l16,5.8l8-4L104.5,343l-27.2-10.7
		c0,0-14,18.5-23.2,75.8c0,0,24.5,9.7,40.7,5.7l3.2-52.2"/>
	<path fill="none" stroke="#000000" stroke-width="2" stroke-miterlimit="10" d="M97.5,372c0,0.7,5.3,20.5,12.9,30.8"/>
	<path fill="none" stroke="#000000" stroke-width="2" stroke-miterlimit="10" d="M119.7,399.3l19.7,6.5V421c0,0-20,15.8-32.3,16
		s-42.5-3.7-45.8-9.7s-5.7-18.7-5.7-18.7"/>
	<path fill="none" stroke="#000000" stroke-width="2" stroke-miterlimit="10" d="M95,411.9c0,0,13.7-5.5,32.4-6.5"/>
</g>
<g id="Layer_3">
	<path fill="none" stroke="#70BF44" stroke-width="15" stroke-miterlimit="10" stroke-opacity="0" d="M195.8,42.5
		c3.6,0.2,7.1,0.4,10.7,0.6c-5.5,1.7-11.1,2.7-16.8,3c7.1,0.2,14.3,0.4,21.4,0.5c-8.2,1.4-16.3,2.9-24.5,4.3c5.4,0,10.8,0,16.2,0
		c-6.3,1.7-12.6,3.3-18.9,5c5.3,0,10.7,0.1,16,0.1c-6.5,1.3-12.8,3.3-18.9,6.1c7.4-0.3,14.8-0.7,22.2-1c-7.6,1.7-15.2,3.3-22.8,5
		c9.7,0,19.4,0.1,29,0.1c-9.9,2.5-19.8,5-29.7,7.5c7.8-1,15.7-1,23.5,0.1c-9.3,1.7-18.7,3.4-28,5c8.7,0.7,17.4,1.4,26.1,2.1
		c-6.2,1.8-12.6,3.1-19,4c7.9,0.5,15.9,1,23.8,1.4c-12.3,1.2-24.5,3.4-36.4,6.5c10.3,0.7,20.7,0.9,31,0.7
		c-10.2,2.4-20.3,4.7-30.5,7.1c10.2-0.3,20.3-0.6,30.5-1c-10.6,2.6-21.2,5.3-31.8,7.9c10.8-0.6,21.6-1.1,32.5-1.7
		c-11.6,0.8-23.2,3.2-34.1,7.2c8.8-0.4,17.6-0.9,26.4-1.3c-10.8,2.3-21.4,5.3-31.7,9c11.8,0.1,23.6,0.1,35.3,0.2
		c-11.8,0-23.7,2.2-34.8,6.3c13.8-0.5,27.5-1,41.3-1.5c-11.4,0.6-22.6,3.3-33,7.8c14.8-0.8,29.5-1.6,44.3-2.4
		c-18.6,3.2-37.1,7.1-55.4,11.8c12.6,0.8,25.3,0.9,37.9,0.2c-14,0.9-27.8,3.9-40.9,9c15.5,0.2,31,0.4,46.6,0.6
		c-14.8,1.8-29.5,4.8-43.8,9c18.8-1.1,37.7-1.6,56.5-1.4c-20.1,2.8-40.2,5.7-60.3,8.5c15.7,1,31.4,1.1,47.1,0.6
		c-19.1,1.7-38.1,3.4-57.2,5.1c20.9,3.2,42.1,2.9,63.2,2.6c-11.6,1.1-23.2,3.5-34.3,7.2c15.6,0.8,31.3,1,47,0.5
		c-22.3,5.6-45.7,2.3-68.7,3.5c-3.4,0.2-7.2,0.7-9.2,3.4c20.9,1.1,41.7,2.2,62.6,3.2c-9.2,1.7-18.4,3.9-27.4,6.7
		c11.5,2.5,23.3,3.5,35,2.9c-12,1.2-23.8,3.5-35.3,7c8.2,2.3,16.7,3.2,25.2,2.7c-7.3,0.8-14.5,2.6-21.2,5.4c8.6,2,17.4,3.2,26.2,3.5
		c-6.4,0.6-12.8,2.4-18.6,5.2c7,0.9,13.9,1.8,20.9,2.8c-10-0.3-20,3.4-27.3,10.2c9.8,2,19.8,2.6,29.8,1.9
		c-8.9,0.1-17.9,1.9-26.1,5.4c9.3,0.5,18.7,0.9,28,1.4c-9.3,2.9-18.1,6.9-26.4,12c11.3,0.3,22.6,0.6,33.8,0.9
		c-13.8-0.1-28.1-0.1-41,5c12.5,1.3,25.1,1.1,37.5-0.4c-11.5,0.9-22.8,4.1-32.9,9.5c12.4-0.1,24.8-0.1,37.2-0.2
		c-14.1,2.6-28.3,5.3-42.4,7.9c13.3-0.4,26.6-0.8,39.9-1.2c-20.2,1.6-40.3,4.5-60.1,8.6c18.6,0.5,37.2-0.4,55.7-2.6
		c-9.9,1.1-19.7,2.8-29.3,5.2c-2.9,0.7-6.3,1.9-7.2,4.8c21.6,1.5,43.4,0.2,64.7-3.8c-24.8,1.7-54.6,5.1-79.4,5.8
		c15.5-1.6,36-5.3,51.5-6.9c-12.6,1.5-25.1,2.9-37.7,4.4c19.5-2.3,39.1-4.6,58.6-7c-14.1,1.5-28,4.7-41.3,9.6
		c10.6,0.9,21.2,1.1,31.8,0.8c-6.2,1.4-12.3,2.9-18.5,4.3c5.5,0.8,11.3-0.7,15.7-4.1"/>
</g>
</svg>
