<?xml version="1.0" encoding="utf-8"?>
<!-- Generator: Adobe Illustrator 21.0.0, SVG Export Plug-In . SVG Version: 6.00 Build 0)  -->
<!DOCTYPE svg PUBLIC "-//W3C//DTD SVG 1.0//EN" "http://www.w3.org/TR/2001/REC-SVG-20010904/DTD/svg10.dtd">
<svg version="1.0" id="Layer_1" xmlns="http://www.w3.org/2000/svg" xmlns:xlink="http://www.w3.org/1999/xlink" x="0px" y="0px"
	 width="504px" height="504px" viewBox="0 0 504 504" enable-background="new 0 0 504 504" xml:space="preserve">
<g id="Layer_2">
	<path fill="#27AAE1" d="M222.2,38.6c0,0-15.6,24.9,0.7,44.5c0,0-13.5-1-13.9-21C208.6,42.2,222.2,38.6,222.2,38.6z"/>
	<polygon fill="#27AAE1" points="210.7,88.4 214.2,158.9 234.5,162.7 216,162.7 211.8,286.6 204.7,302.6 191.4,296.5 208.8,286.6 
		207.6,162.7 203.8,88.4 	"/>
	<polygon fill="#27AAE1" points="228.5,162.7 231.8,286.6 251.8,297 240.1,302.6 228.5,286.6 222.2,162.7 	"/>
	<polygon fill="#27AAE1" points="204.2,96.7 194.8,125 195.5,168.8 198.2,168.8 200.2,126.9 205,112.9 	"/>
</g>
<g id="Layer_1_1_">
	<ellipse fill="none" stroke="#000000" stroke-width="2" stroke-miterlimit="10" cx="223" cy="60.9" rx="14" ry="22.3"/>
	<path fill="none" stroke="#000000" stroke-width="2" stroke-miterlimit="10" d="M232.2,40.6c0,0-11.1,2.1-17,0"/>
	<path fill="none" stroke="#000000" stroke-width="2" stroke-miterlimit="10" d="M233.9,43.5c-1,0.6-11.7,3.1-21,0.5"/>
	<path fill="none" stroke="#000000" stroke-width="2" stroke-miterlimit="10" d="M235,46.8c0,0-11.5,4.9-23.2,0.6"/>
	<polyline fill="none" stroke="#000000" stroke-width="2" stroke-miterlimit="10" points="227.5,82 227.5,88.4 218.9,88.4 
		218.9,82.2 	"/>
	<polygon fill="none" stroke="#000000" stroke-width="2" stroke-miterlimit="10" points="241.2,88.4 203.8,88.4 207.6,162.7 
		237,162.7 	"/>
	<polyline fill="none" stroke="#000000" stroke-width="2" stroke-miterlimit="10" points="203.8,88.4 189.5,123 192.7,168.9 
		198.4,168.9 200.2,126.9 205,112.9 	"/>
	<polyline fill="none" stroke="#000000" stroke-width="2" stroke-miterlimit="10" points="198.2,168.8 202.4,176 199.2,177.8 
		196,174.3 195.2,189.3 188.6,183.1 192.6,168.8 	"/>
	<line fill="none" stroke="#000000" stroke-width="2" stroke-miterlimit="10" x1="200.2" y1="126.9" x2="189.5" y2="123"/>
	<polyline fill="none" stroke="#000000" stroke-width="2" stroke-miterlimit="10" points="241.2,88.4 255.5,123 252.2,168.9 
		246.5,168.9 244.8,126.9 239.9,112.9 	"/>
	<polyline fill="none" stroke="#000000" stroke-width="2" stroke-miterlimit="10" points="246.6,168.8 242.5,176 245.7,177.8 
		248.9,174.3 249.8,189.3 256.2,183.1 252.2,168.8 	"/>
	<line fill="none" stroke="#000000" stroke-width="2" stroke-miterlimit="10" x1="244.8" y1="126.9" x2="255.5" y2="123"/>
	<polyline fill="none" stroke="#000000" stroke-width="2" stroke-miterlimit="10" points="237,162.7 234.5,286.6 228.5,286.6 
		222.2,162.7 215.5,286.6 208.5,286.6 207.6,162.7 	"/>
	<polyline fill="none" stroke="#000000" stroke-width="2" stroke-miterlimit="10" points="234.5,286.6 252.7,294.4 241.2,300.1 
		228.5,286.6 	"/>
	<polyline fill="none" stroke="#000000" stroke-width="2" stroke-miterlimit="10" points="215.5,286.6 205.7,300.1 193.9,294.3 
		208.5,286.6 	"/>
	<ellipse fill="none" stroke="#000000" stroke-width="2" stroke-miterlimit="10" cx="278.9" cy="354" rx="18.3" ry="27.1"/>
	<path fill="none" stroke="#000000" stroke-width="2" stroke-miterlimit="10" d="M252.8,389.1c0,0,24.9-16,49.5,0l7.2,71.2
		c0,0-42.3,15.8-63.2,0L252.8,389.1z"/>
	<path fill="none" stroke="#000000" stroke-width="2" stroke-miterlimit="10" d="M249,462.1l7.3,15.5c0,0,16.2,5.1,40.2,0l7.4-15.5"
		/>
	<path fill="none" stroke="#000000" stroke-width="2" stroke-miterlimit="10" d="M252.7,390.3l-22.6,67l-20.4,4.9
		c0,0,2.1,5.8,2.7,5.2c0.6-0.6,18.8-1.9,18.8-1.9l6.1,3.2l4-3l-3.2-6.7l11.3-33.2"/>
	<path fill="none" stroke="#000000" stroke-width="2" stroke-miterlimit="10" d="M302.4,389.9l23.2,67.3l20.4,4.9
		c0,0-2.1,5.8-2.7,5.2s-18.8-1.9-18.8-1.9l-6.1,3.2l-4-3l3.2-6.7l-11.4-32.2"/>
	
		<ellipse transform="matrix(0.9822 -0.1877 0.1877 0.9822 -58.0211 39.5174)" fill="none" stroke="#000000" stroke-width="2" stroke-miterlimit="10" cx="179.6" cy="326.1" rx="16" ry="23.8"/>
	<line fill="none" stroke="#000000" stroke-width="2" stroke-miterlimit="10" x1="167.8" y1="339.5" x2="164.2" y2="345.4"/>
	<path fill="none" stroke="#000000" stroke-width="2" stroke-miterlimit="10" d="M176.5,408.4l16,5.8l8-4l-15.2-56.3l-27.2-10.7
		c0,0-14,18.5-23.2,75.8c0,0,24.5,9.7,40.7,5.7l3.2-52.2"/>
	<path fill="none" stroke="#000000" stroke-width="2" stroke-miterlimit="10" d="M178.2,382.9c0,0.7,5.3,20.5,12.9,30.8"/>
	<path fill="none" stroke="#000000" stroke-width="2" stroke-miterlimit="10" d="M200.5,410.2l19.7,6.5v15.2c0,0-20,15.8-32.3,16
		s-42.5-3.7-45.8-9.7s-5.7-18.7-5.7-18.7"/>
	<path fill="none" stroke="#000000" stroke-width="2" stroke-miterlimit="10" d="M175.8,422.8c0,0,13.7-5.5,32.4-6.5"/>
	
		<ellipse transform="matrix(2.972208e-02 -0.9996 0.9996 2.972208e-02 200.7244 501.4389)" fill="none" stroke="#000000" stroke-width="2" stroke-miterlimit="10" cx="358.6" cy="147.3" rx="24.3" ry="16.4"/>
	<line fill="none" stroke="#000000" stroke-width="2" stroke-miterlimit="10" x1="366.4" y1="174.4" x2="365.1" y2="169.4"/>
	<line fill="none" stroke="#000000" stroke-width="2" stroke-miterlimit="10" x1="358.1" y1="178.1" x2="358" y2="171.6"/>
	<path fill="none" stroke="#000000" stroke-width="2" stroke-miterlimit="10" d="M359,238.4c7.9-0.9,16.2-1.9,16.2-1.9
		c3.7-40.1-2-63.1-2.9-63.4c-0.9-0.3-20,7.2-20,7.2c1.3,37.6-7.2,59.7-7.2,59.7s2.5-0.3,6-0.7"/>
	<path fill="none" stroke="#000000" stroke-width="2" stroke-miterlimit="10" d="M333.6,251.2c0.4-1.7,0.8-3.2,0.8-3.2l15.5-1.5
		l10-60"/>
	<line fill="none" stroke="#000000" stroke-width="2" stroke-miterlimit="10" x1="367.6" y1="200.2" x2="355.2" y2="253"/>
	<polyline fill="none" stroke="#000000" stroke-width="2" stroke-miterlimit="10" points="320.2,267.8 319,310.4 313.5,310.4 
		305.1,240.8 345.1,240 	"/>
	<path fill="none" stroke="#000000" stroke-width="2" stroke-miterlimit="10" d="M319,310.4l-13.8,15.9l-15.8-6.4
		c0,0,21.7-9.1,24.1-9.5"/>
	<polyline fill="none" stroke="#000000" stroke-width="2" stroke-miterlimit="10" points="295.1,317.5 286,308 313,306.2 	"/>
	<polygon fill="none" stroke="#000000" stroke-width="2" stroke-miterlimit="10" points="396,153.1 381.6,253 374,253 381.6,153.1 	
		"/>
	<polygon fill="none" stroke="#000000" stroke-width="2" stroke-miterlimit="10" points="385,264.5 316.2,267.8 315,251.1 385,253 	
		"/>
	<polyline fill="none" stroke="#000000" stroke-width="2" stroke-miterlimit="10" points="332.4,267.8 332.4,326.3 327.9,326.3 
		323,267.5 	"/>
	<polyline fill="none" stroke="#000000" stroke-width="2" stroke-miterlimit="10" points="371,265.2 374,325.4 381.6,325.4 
		381.6,264.6 	"/>
	<line fill="none" stroke="#000000" stroke-width="2" stroke-miterlimit="10" x1="372.5" y1="292.2" x2="332.4" y2="292.2"/>
	<line fill="none" stroke="#000000" stroke-width="2" stroke-miterlimit="10" x1="372.8" y1="298.3" x2="332.4" y2="299.5"/>
</g>
<g id="Layer_3">
	<path fill="none" stroke="#70BF44" stroke-width="15" stroke-miterlimit="10" stroke-opacity="0" d="M221.7,37.5
		c3.6,0.2,7.1,0.4,10.7,0.6c-5.5,1.7-11.1,2.7-16.8,3c7.1,0.2,14.3,0.4,21.4,0.5c-8.2,1.4-16.3,2.9-24.5,4.3c5.4,0,10.8,0,16.2,0
		c-6.3,1.7-12.6,3.3-18.9,5c5.3,0,10.7,0.1,16,0.1c-6.5,1.3-12.8,3.3-18.9,6.1c7.4-0.3,14.8-0.7,22.2-1c-7.6,1.7-15.2,3.3-22.8,5
		c9.7,0,19.4,0.1,29,0.1c-9.9,2.5-19.8,5-29.7,7.5c7.8-1,15.7-1,23.5,0.1c-9.3,1.7-18.7,3.4-28,5c8.7,0.7,17.4,1.4,26.1,2.1
		c-6.2,1.8-12.6,3.1-19,4c7.9,0.5,15.9,1,23.8,1.4c-12.3,1.2-24.5,3.4-36.4,6.5c10.3,0.7,20.7,0.9,31,0.7
		c-10.2,2.4-20.3,4.7-30.5,7.1c10.2-0.3,20.3-0.6,30.5-1c-10.6,2.6-21.2,5.3-31.8,7.9c10.8-0.6,21.6-1.1,32.5-1.7
		c-11.6,0.8-23.2,3.2-34.1,7.2c8.8-0.4,17.6-0.9,26.4-1.3c-10.8,2.3-21.4,5.3-31.7,9c11.8,0.1,23.6,0.1,35.3,0.2
		c-11.8,0-23.7,2.2-34.8,6.3c13.8-0.5,27.5-1,41.3-1.5c-11.4,0.6-22.6,3.3-33,7.8c14.8-0.8,29.5-1.6,44.3-2.4
		c-18.6,3.2-37.1,7.1-55.4,11.8c12.6,0.8,25.3,0.9,37.9,0.2c-14,0.9-27.8,3.9-40.9,9c15.5,0.2,31,0.4,46.6,0.6
		c-14.8,1.8-29.5,4.8-43.8,9c18.8-1.1,37.7-1.6,56.5-1.4c-20.1,2.8-40.2,5.7-60.3,8.5c15.7,1,31.4,1.1,47.1,0.6
		c-19.1,1.7-38.1,3.4-57.2,5.1c20.9,3.2,42.1,2.9,63.2,2.6c-11.6,1.1-23.2,3.5-34.3,7.2c15.6,0.8,31.3,1,47,0.5
		c-22.3,5.6-45.7,2.3-68.7,3.5c-3.4,0.2-7.2,0.7-9.2,3.4c20.9,1.1,41.7,2.2,62.6,3.2c-9.2,1.7-18.4,3.9-27.4,6.7
		c11.5,2.5,23.3,3.5,35,2.9c-12,1.2-23.8,3.5-35.3,7c8.2,2.3,16.7,3.2,25.2,2.7c-7.3,0.8-14.5,2.6-21.2,5.4c8.6,2,17.4,3.2,26.2,3.5
		c-6.4,0.6-12.8,2.4-18.6,5.2c7,0.9,13.9,1.8,20.9,2.8c-10-0.3-20,3.4-27.3,10.2c9.8,2,19.8,2.6,29.8,1.9
		c-8.9,0.1-17.9,1.9-26.1,5.4c9.3,0.5,18.7,0.9,28,1.4c-9.3,2.9-18.1,6.9-26.4,12c11.3,0.3,22.6,0.6,33.8,0.9
		c-13.8-0.1-28.1-0.1-41,5c12.5,1.3,25.1,1.1,37.5-0.4c-11.5,0.9-22.8,4.1-32.9,9.5c12.4-0.1,24.8-0.1,37.2-0.2
		c-14.1,2.6-28.3,5.3-42.4,7.9c13.3-0.4,26.6-0.8,39.9-1.2c-20.2,1.6-40.3,4.5-60.1,8.6c18.6,0.5,37.2-0.4,55.7-2.6
		c-9.9,1.1-19.7,2.8-29.3,5.2c-2.9,0.7-6.3,1.9-7.2,4.8c21.6,1.5,43.4,0.2,64.7-3.8c-24.8,1.7-54.6,5.1-79.4,5.8
		c15.5-1.6,36-5.3,51.5-6.9c-12.6,1.5-25.1,2.9-37.7,4.4c19.5-2.3,39.1-4.6,58.6-7c-14.1,1.5-28,4.7-41.3,9.6
		c10.6,0.9,21.2,1.1,31.8,0.8c-6.2,1.4-12.3,2.9-18.5,4.3c5.5,0.8,11.3-0.7,15.7-4.1"/>
</g>
</svg>
