<?xml version="1.0" encoding="utf-8"?>
<!-- Generator: Adobe Illustrator 19.2.1, SVG Export Plug-In . SVG Version: 6.00 Build 0)  -->
<svg version="1.0" id="Layer_1" xmlns="http://www.w3.org/2000/svg" xmlns:xlink="http://www.w3.org/1999/xlink" x="0px" y="0px"
	 width="432px" height="432px" viewBox="0 0 432 432" enable-background="new 0 0 432 432" xml:space="preserve">
<ellipse fill="none" stroke="#000000" stroke-width="2" stroke-miterlimit="10" cx="224.1" cy="68.1" rx="19" ry="31.1"/>
<line fill="none" stroke="#000000" stroke-width="2" stroke-miterlimit="10" x1="219.1" y1="98.3" x2="219.1" y2="107.2"/>
<line fill="none" stroke="#000000" stroke-width="2" stroke-miterlimit="10" x1="230.3" y1="97.5" x2="231" y2="107.2"/>
<path fill="none" stroke="#000000" stroke-width="2" stroke-miterlimit="10" d="M205.2,170c-1-29.8-2.2-62.8-2.2-62.8h43.2
	c0,0-0.2,6.1-0.4,15.4l-0.2,7.6c-0.8,32.1-2.2,86.5-2.2,86.5s-13.5,0-24.1,0"/>
<polyline fill="none" stroke="#000000" stroke-width="2" stroke-miterlimit="10" points="203,107.2 178,160 192.7,214.3 198.7,212 
	193.3,160.8 204.2,139.8 "/>
<polyline fill="none" stroke="#000000" stroke-width="2" stroke-miterlimit="10" points="192.7,214.3 192.7,224.2 200.8,225.8 
	211,220.6 206.5,215.3 198.7,212 "/>
<line fill="none" stroke="#000000" stroke-width="2" stroke-miterlimit="10" x1="178" y1="160" x2="193.3" y2="160.8"/>
<path fill="none" stroke="#000000" stroke-width="2" stroke-miterlimit="10" d="M195.2,177.2c9.7-3.3,17.5-6,17.5-6l11.2,44.1
	c0,0-6.2,1.9-14.4,4.4"/>
<path fill="none" stroke="#000000" stroke-width="2" stroke-miterlimit="10" d="M193.8,224.5c-11.3,3.5-21.5,6.6-21.5,6.6l-14-41.3
	c0,0,12.4-4.2,25.3-8.6"/>
<polyline fill="none" stroke="#000000" stroke-width="2" stroke-miterlimit="10" points="212.8,171.5 217,166.9 227.7,211.3 
	223.9,215.3 "/>
<path fill="none" stroke="#000000" stroke-width="2" stroke-miterlimit="10" d="M217.7,165.9c0,0-11.1,3.8-23,7.9"/>
<path fill="none" stroke="#000000" stroke-width="2" stroke-miterlimit="10" d="M182.7,177.9c-12,4.1-22.6,7.7-22.6,7.7l-2.2,3.8"/>
<polyline fill="none" stroke="#000000" stroke-width="2" stroke-miterlimit="10" points="246.3,107.2 267.6,152.7 265.4,208.8 
	258.4,209.8 254.6,157.3 245.6,134.8 "/>
<line fill="none" stroke="#000000" stroke-width="2" stroke-miterlimit="10" x1="254.6" y1="157.3" x2="267.6" y2="152.7"/>
<polyline fill="none" stroke="#000000" stroke-width="2" stroke-miterlimit="10" points="258.4,209.8 253.3,217.7 255.8,221.7 
	261.1,216.7 260.4,231.5 269.1,237.2 274.3,228.2 265.4,208.8 "/>
<path fill="none" stroke="#000000" stroke-width="2" stroke-miterlimit="10" d="M206.7,223.3c1.1,30.1,5.8,153,5.8,153h8.9
	l2.9-159.6"/>
<polyline fill="none" stroke="#000000" stroke-width="2" stroke-miterlimit="10" points="227.2,216.7 235.8,376.3 245.2,376.3 
	243.2,216.7 "/>
<polyline fill="none" stroke="#000000" stroke-width="2" stroke-miterlimit="10" points="212.5,376.3 187.5,384.9 204.8,393.4 
	221.4,376.3 "/>
<polyline fill="none" stroke="#000000" stroke-width="2" stroke-miterlimit="10" points="235.8,376.3 248.8,394.9 265.4,388.1 
	245.8,376.3 "/>
</svg>
