<?xml version="1.0" encoding="utf-8"?>
<!-- Generator: Adobe Illustrator 19.2.1, SVG Export Plug-In . SVG Version: 6.00 Build 0)  -->
<svg version="1.0" xmlns="http://www.w3.org/2000/svg" xmlns:xlink="http://www.w3.org/1999/xlink" x="0px" y="0px" width="288px"
	 height="288px" viewBox="0 0 288 288" enable-background="new 0 0 288 288" xml:space="preserve">
<g id="Layer_2">
	<path fill="#27AAE1" d="M192.8,48.8c0,0,17.1,35.9-8.8,59c0,0,19.7-4.6,22.1-30C206.1,77.9,206.4,54.6,192.8,48.8z"/>
	<path fill="#27AAE1" d="M205.4,121.7c0,0,10.8,17.1,11.9,25.3l-7.9,1.9l-5.5-13.2L205.4,121.7z"/>
	<path fill="#27AAE1" d="M227.6,151.3c0,0-11.9,9.8-57.2,8.4l0.8,3.1l-5.4,4c0,0,15.8,3.3,29.3,1.7c13.5-1.6,26.1-5.2,26.1-5.2
		l8.8-4.8L227.6,151.3z"/>
	<polygon fill="#27AAE1" points="197.8,114 194.4,151.3 202.9,149.9 206.1,115.3 	"/>
	<polygon fill="#27AAE1" points="191.6,168.6 188.5,211.7 165.8,216.8 199.2,219 201.3,168.6 	"/>
	<polygon fill="#27AAE1" points="186.6,218.1 186.6,228.4 199.2,226.6 199.2,219 	"/>
	<polygon fill="#27AAE1" points="165.8,216.8 164.2,230.6 169.6,229.8 171.2,217.1 	"/>
</g>
<g id="Layer_1">
	
		<ellipse transform="matrix(0.9571 -0.2897 0.2897 0.9571 -21.9184 27.6468)" fill="none" stroke="#000000" stroke-width="2" stroke-miterlimit="10" cx="82.4" cy="87.8" rx="19.9" ry="30.6"/>
	
		<ellipse transform="matrix(0.1416 -0.9899 0.9899 0.1416 82.131 250.4582)" fill="none" stroke="#000000" stroke-width="2" stroke-miterlimit="10" cx="185.5" cy="77.9" rx="30.2" ry="20.3"/>
	<path fill="none" stroke="#000000" stroke-width="2" stroke-miterlimit="10" d="M178.4,49.3c0,0,10,3.4,20.7,2"/>
	<path fill="none" stroke="#000000" stroke-width="2" stroke-miterlimit="10" d="M175.2,50.5c0,0,8.2,8,27.4,5.4"/>
	<path fill="none" stroke="#000000" stroke-width="2" stroke-miterlimit="10" d="M172.5,54.6c0,0,13,10,33.6,5.9"/>
	<path fill="none" stroke="#000000" stroke-width="2" stroke-miterlimit="10" d="M88.1,117.2c-0.2,0.8,0.7,3.3,0.7,3.3l9.1-2.4
		l-0.9-4.4"/>
	<polyline fill="none" stroke="#000000" stroke-width="2" stroke-miterlimit="10" points="175.2,106 175.2,111.7 186.2,112.6 
		186.6,107.4 	"/>
	<path fill="none" stroke="#000000" stroke-width="2" stroke-miterlimit="10" d="M85.7,175.7C81,157.8,75,138.9,68.5,128.5
		c-1-1.7,35.6-13.2,42.3-14.6c0,0,5.8,11.9,12.6,28.5"/>
	<path fill="none" stroke="#000000" stroke-width="2" stroke-miterlimit="10" d="M202.9,149.9c1.7-19.2,3.2-34.6,3.2-34.6
		c-22.8-4.2-51.8-4.5-51.8-4.5l-3.9,42.6"/>
	<line fill="none" stroke="#000000" stroke-width="2" stroke-miterlimit="10" x1="154.2" y1="110.8" x2="112.6" y2="119.3"/>
	<line fill="none" stroke="#000000" stroke-width="2" stroke-miterlimit="10" x1="142.7" y1="134.4" x2="152.1" y2="134"/>
	<line fill="none" stroke="#000000" stroke-width="2" stroke-miterlimit="10" x1="114.5" y1="121.7" x2="127.9" y2="132.4"/>
	<path fill="none" stroke="#000000" stroke-width="2" stroke-miterlimit="10" d="M125.1,142.2c0.1-0.5,0-8,0-8l13.2-8.3l9.7,5.5
		l-8.8,5.1v3.8"/>
	<polyline fill="none" stroke="#000000" stroke-width="2" stroke-miterlimit="10" points="146.4,153.5 143.8,151.6 144.8,140.2 
		119.3,142.2 117.2,158.5 144.6,162.3 	"/>
	<path fill="none" stroke="#000000" stroke-width="2" stroke-miterlimit="10" d="M155.2,153.4c-2.8,0-5.8,0-8.8,0l-1.8,8.9
		c5.6,1.4,10.9,2.6,15.9,3.5"/>
	<path fill="none" stroke="#000000" stroke-width="2" stroke-miterlimit="10" d="M148,153.5c0.7,0,7.4-5.7,7.4-5.7l10.4-0.7
		l5.4,15.7l-9.1,6.6l-7.8-17.2"/>
	<path fill="none" stroke="#000000" stroke-width="2" stroke-miterlimit="10" d="M224.3,144.2c0,0-9.6,7.3-56.5,8.9"/>
	<path fill="none" stroke="#000000" stroke-width="2" stroke-miterlimit="10" d="M165.8,166.7c46.5,7.1,64.1-8.2,64.1-8.2
		c-5.7-23-23.8-43.2-23.8-43.2"/>
	<line fill="none" stroke="#000000" stroke-width="2" stroke-miterlimit="10" x1="204" y1="135.8" x2="209.4" y2="149"/>
	<path fill="none" stroke="#000000" stroke-width="2" stroke-miterlimit="10" d="M148,215.6l51.1,3.3c-0.6-9.5,0.6-30,2.2-50.4"/>
	<polyline fill="none" stroke="#000000" stroke-width="2" stroke-miterlimit="10" points="150.3,163.8 148.9,215.7 148,230.6 	"/>
	<path fill="none" stroke="#000000" stroke-width="2" stroke-miterlimit="10" d="M68.5,128.5c0,0-19.4,41.5,25.4,66
		c0,0,28.6-10.8,38.7-33.9"/>
	<path fill="none" stroke="#000000" stroke-width="2" stroke-miterlimit="10" d="M121.1,159.1c0,0-19.4,22-50,15"/>
	<path fill="none" stroke="#000000" stroke-width="2" stroke-miterlimit="10" d="M131.6,163.3c5.2,14.4,9.9,29.8,12.2,43.1L95.3,219
		c0,0-2.1-11.4-5.5-26.5"/>
	<line fill="none" stroke="#000000" stroke-width="2" stroke-miterlimit="10" x1="95.3" y1="219" x2="97.9" y2="228.1"/>
	<line fill="none" stroke="#000000" stroke-width="2" stroke-miterlimit="10" x1="143.7" y1="207.1" x2="148.3" y2="226.6"/>
	<path fill="none" stroke="#000000" stroke-width="2" stroke-miterlimit="10" d="M121.1,212.9c0.7,0.4,2.5,17.7,2.5,17.7"/>
	<line fill="none" stroke="#000000" stroke-width="2" stroke-miterlimit="10" x1="123.6" y1="211.7" x2="128.6" y2="230.6"/>
	<line fill="none" stroke="#000000" stroke-width="2" stroke-miterlimit="10" x1="171.2" y1="217.1" x2="169.6" y2="229.8"/>
	<line fill="none" stroke="#000000" stroke-width="2" stroke-miterlimit="10" x1="177.7" y1="217.6" x2="177.7" y2="229.2"/>
	<line fill="none" stroke="#000000" stroke-width="2" stroke-miterlimit="10" x1="199.2" y1="219" x2="199.2" y2="226.6"/>
	<path fill="none" stroke="#000000" stroke-width="2" stroke-miterlimit="10" d="M94.4,214c-1.7,0-17.2,3.3-30.1,9.5
		c0,0,91.3,17.6,161.4-2.8c0,0-3.5-5.9-27.3-11.1"/>
	<path fill="none" stroke="#000000" stroke-width="2" stroke-miterlimit="10" d="M72.7,214l-23.4,12.1c0,0,23.8,14.6,80.4,14.3"/>
	<path fill="none" stroke="#000000" stroke-width="2" stroke-miterlimit="10" d="M115.8,236.1c0,0,42.8,1.6,70.8-2.1"/>
	<path fill="none" stroke="#000000" stroke-width="2" stroke-miterlimit="10" d="M208.3,206.5c0,0,14,3.3,26.4,10.6
		c0,0,4.9,8.6-34.9,16.9"/>
</g>
<g id="Layer_3">
	<path opacity="0" fill="none" stroke="#27AAE1" stroke-width="22" stroke-miterlimit="10" d="M177.9,49.1c9.2-1.2,18.4-1.8,27.6-2
		c-10.1,2.8-20.3,5.5-30.4,8.3c9.5,0.1,19,0.9,28.4,2.5c-13.3,0.7-26.5,3.1-39.2,7.2c17,0.6,34,1.1,50.9,1.7
		c-8.5,4.3-17.3,8-26.4,11c7.8,0.5,15.7,0.1,23.4-1.3c-7,4.2-14.4,7.7-22.1,10.3c8.1-0.2,16.3-0.4,24.4-0.6
		c-11.6,5.1-23.7,9.3-36,12.5c7.7-0.1,15.5-0.2,23.2-0.3c-7.4,3.2-14.9,6.4-22.3,9.6c8.3-0.4,16.6-0.2,24.9,0.5
		c-8.6,4.2-17.6,7.8-26.8,10.5c13.6-0.2,27.1-0.4,40.7-0.6c-7.6,2.4-15.3,4.7-22.9,7.1c6.2-0.4,12.5-1.1,18.6-2.1
		c-8.7,3.4-17.5,6.9-26.2,10.3c12-1.6,24.1-3.2,36.1-4.8c-12.3,2.9-24.4,6.6-36.2,11.1c9.2-1.3,18.4-2.5,27.6-3.8
		c-11.9,3.7-23.8,7.5-35.7,11.2c11.3-3.2,22.9-5.6,34.6-7.1c-11,2.1-22,4.1-33,6.2c8.9-2.9,18.4-4.2,27.7-4
		c-11.7,7.2-24.9,11.6-37.9,15.9c20.9,5.8,43.9,3.7,63.5-5.8c-25.7,7.9-52,13.8-78.5,17.7c24.5-3.5,49.4-7.1,71.7-17.9
		c0,1.3-0.1,2.7-0.1,4c-18.8,4.6-37.5,9.7-56,15.1c10-1,20.1-2.1,30.1-3.1c-4.7,4.2-9.9,8-15.4,11c7-1.9,14-3.8,21-5.7
		c-8.2,4-16.5,8-24.7,12c8.5-1,17.1-2,25.6-3c-7.7,5.1-15.3,10.1-23,15.2c6.7-1.1,13.3-2.3,20-3.4c-7.2,3.3-14.2,7-21.1,10.9
		c3.4-0.5,6.8-1,10.2-1.5c-6,3.4-12.1,6.7-18.1,10.1c8.1-2.3,16.1-4.6,24.2-6.8c-12.2,5-24.8,8.9-37.6,11.6
		c11.5,0.1,23.1-0.3,34.6-1.2c-12.7,2-25.2,5.6-37,10.6c13.2,0.4,26.4-0.1,39.5-1.3c-5.7,0.1-11.5,0.8-17.1,2
		c6-2.6,12.1-4.9,18.4-6.7c-3.8,1.2-7.3,3.3-10,6.2"/>
</g>
</svg>
