<?xml version="1.0" encoding="utf-8"?>
<!-- Generator: Adobe Illustrator 19.2.1, SVG Export Plug-In . SVG Version: 6.00 Build 0)  -->
<svg version="1.0" xmlns="http://www.w3.org/2000/svg" xmlns:xlink="http://www.w3.org/1999/xlink" x="0px" y="0px" width="288px"
	 height="288px" viewBox="0 0 288 288" enable-background="new 0 0 288 288" xml:space="preserve">
<g id="Layer_2">
	<path fill="#27AAE1" d="M147.8,40.4c0,0,7.9,16.7-2.4,31.5l5.6,1.9c0,0,7.6-9.7,6.4-16.7S153,41.6,147.8,40.4z"/>
	<path fill="#27AAE1" d="M154.5,77.7c0.5,0.4,12.3,15.3,17.7,31.2v5.1l-17.7-13.8L154,84.4l1.5-0.8l-2.7-4.3L154.5,77.7z"/>
	<path fill="#27AAE1" d="M147.8,82.8c0,0,5.3,24.9,5,57.7l-8.8,4l15.2-1.5L154,83.1L147.8,82.8z"/>
	<path fill="#27AAE1" d="M152.2,144c0,0,5.5,25.7,6.5,88.4l1.8-0.5c0,0,4.3-50.2,1.7-68.6c-2.6-18.3-3-20.3-3-20.3L152.2,144z"/>
	<path fill="#27AAE1" d="M141,144.5c0,0-1.5,58.3,1.8,88.9h2.1l1-44.4l1.2-42.4V144L141,144.5z"/>
	<polygon fill="#27AAE1" points="160.5,231.8 179,242.2 168.8,249.2 157.7,233.4 	"/>
	<polygon fill="#27AAE1" points="144.8,233.4 133.6,250.5 123.1,244 142.8,233.4 	"/>
</g>
<g id="Layer_1">
	<path fill="none" stroke="#000000" stroke-width="2" stroke-miterlimit="10" d="M145.8,77.2c-1.3,0.4-2.7,0.6-4.1,0.5
		c-7.5-0.7-12.9-9.9-11.9-20.5s7.8-18.8,15.3-18.2c7.5,0.7,12.9,9.9,11.9,20.5c-0.5,5.8-2.8,10.9-6,14.2"/>
	<path fill="none" stroke="#000000" stroke-width="2" stroke-miterlimit="10" d="M132.2,42.5c0,0,11.2,3.8,21.8-1.5"/>
	<path fill="none" stroke="#000000" stroke-width="2" stroke-miterlimit="10" d="M128.5,45.7c1,0,11.9,5.1,26.6-2.4"/>
	<path fill="none" stroke="#000000" stroke-width="2" stroke-miterlimit="10" d="M127.5,51.5c0,0,19.2,0.5,29.7-5.4"/>
	<polygon fill="none" stroke="#000000" stroke-width="2" stroke-miterlimit="10" points="154,78.3 158.7,72.6 156.3,70.5 153,74.4 
		141.3,70.5 140.5,75.6 152.2,79.8 	"/>
	<path fill="none" stroke="#000000" stroke-width="2" stroke-miterlimit="10" d="M155.5,76.5c0,0,15.4,15,18.3,38.7L155,100.1"/>
	<path fill="none" stroke="#000000" stroke-width="2" stroke-miterlimit="10" d="M152.2,79.8c0,0,12.4,11.9,10.1,26.2"/>
	<line fill="none" stroke="#000000" stroke-width="2" stroke-miterlimit="10" x1="154" y1="84.4" x2="159.2" y2="89.5"/>
	<polyline fill="none" stroke="#000000" stroke-width="2" stroke-miterlimit="10" points="137.9,76.5 138.6,82 144.8,82.1 
		144.8,77.5 	"/>
	<path fill="none" stroke="#000000" stroke-width="2" stroke-miterlimit="10" d="M122.8,85.3c0,0,15.2-3.7,31.2-2.1
		c0,0,2.1,45.1,5.2,59.8c0,0-17.2,2.6-26.5,1.3C132.7,144.3,124.5,120.9,122.8,85.3z"/>
	<polyline fill="none" stroke="#000000" stroke-width="2" stroke-miterlimit="10" points="122.8,85.3 109.5,110.1 129.6,132.5 	"/>
	<path fill="none" stroke="#000000" stroke-width="2" stroke-miterlimit="10" d="M114.2,115.2c0,0,7.3-10.1,9.6-11.7"/>
	<line fill="none" stroke="#000000" stroke-width="2" stroke-miterlimit="10" x1="119.6" y1="108.1" x2="126.6" y2="119.3"/>
	<polyline fill="none" stroke="#000000" stroke-width="2" stroke-miterlimit="10" points="128.8,131.6 118.4,134.6 126.4,141.5 
		130.7,135.7 	"/>
	<path fill="none" stroke="#000000" stroke-width="2" stroke-miterlimit="10" d="M132.7,144.6c0,0-0.6,57.2,7.9,88.8h4.3l1.9-88.8
		l9.9,87.4l3.9-0.2c0,0,6.3-59.4-1.4-88.5"/>
	<path fill="none" stroke="#000000" stroke-width="2" stroke-miterlimit="10" d="M139.9,233.4c-0.4,0.3-17.9,7.2-17.9,7.2
		s10.8,7.2,11.6,6.9s11.5-13.5,11.5-13.5L139.9,233.4z"/>
	<polygon fill="none" stroke="#000000" stroke-width="2" stroke-miterlimit="10" points="156.6,233.1 166.2,247.5 177.5,240.4 
		161.4,232.4 	"/>
</g>
<g id="Layer_3">
	<path opacity="0" fill="none" stroke="#27AAE1" stroke-width="22" stroke-miterlimit="10" d="M143.7,39.7c3.4,0.1,6.8,0.1,10.2,0.2
		c-3.5,1.6-7,3.2-10.5,4.8c6-0.8,12-0.9,18-0.3c-7.1,2-14.2,4-21.3,6c4.9-0.2,9.8-0.4,14.7-0.6c-4.3,3.5-9.1,6.5-14.2,8.7
		c5.6-3,12-4.3,18.3-3.8c-5.2,4.4-10.6,8.4-16.4,12c3.8-1.8,7.8-2.8,12-3.1c-4.9,3.9-10.2,7.4-15.7,10.4c4.8-1.1,9.8-1.8,14.7-1.9
		c-4,2.9-8,5.8-12,8.7c5.5-1.7,11.4-2.2,17.1-1.6c-4.7,1.7-9.6,2.9-14.5,3.5c7,0,14,0,21,0c-5.4,1.3-11,2.1-16.6,2.5
		c5.7,0.1,11.4,0.2,17.1,0.3c-7.9,0.6-15.8,0.7-23.8,0.5c6.6,0.7,13.3,1.4,19.9,2.2c-5,1.4-10.2,2.4-15.5,2.9c7.4,1,14.9,2,22.3,2.9
		c-6.7,0.9-13.4,1.9-20.1,2.8c7.2,0.1,14.5,0.8,21.6,2c-9.9,0.5-19.8,1.4-29.6,2.9c13,2.2,26.2,3.7,39.4,4.4
		c-11.6,2.4-23.2,4.9-34.8,7.3c4.9,0.2,9.8,0.4,14.7,0.7c-5.4,3.2-10.8,6.4-16.3,9.5c5.3-0.5,10.5-0.9,15.8-1.4
		c-6,3.3-12.1,6.2-18.3,8.9c6.9-0.1,13.7-0.2,20.6-0.2c-4.5,2.1-8.9,4.4-13.3,6.7c3.4,0.2,6.8,0.4,10.2,0.6
		c-6.4,3.9-13.6,6.5-21,7.8c10.2-1.5,20.8-3.1,30.7-0.1c-11,2.4-22,4.7-33.1,7.1c10.8-0.4,21.6-0.1,32.4,0.8
		c-9,2.5-18.2,4.3-27.5,5.4c7.2,0.1,14.4,0.3,21.6,0.4c-8.4,2.2-16.7,4.5-25.1,6.7c9.3,2.9,19.4,1.8,29,0.7
		c-10.4,3.1-20.7,6.2-31.1,9.3c8.2-0.2,16.5-0.4,24.7-0.5c2.9-0.1,6.5,0.2,7.8,2.9c-11.4,3.1-22.9,5.9-34.4,8.4
		c10.5,0.4,20.9,0.7,31.4,1.1c-7.1,6-16.5,9.3-25.8,9c8,0.2,16,1.4,23.8,3.6c-7.9,2.8-16.1,5-24.4,6.3c9,2.4,18.2,3.9,27.5,4.7
		c-9.5,0.1-19.3,0.3-28.1,3.9c8.7,0.8,17.4,1.6,26,2.3c-6.8,6.8-19,3.4-27,8.7c8.7-0.2,17.4,0.2,26.1,1c-6.8,6.5-18.2,3.7-26.5,8
		c13-0.4,26-0.3,39,0.6c-15,0-30,1-44.9,2.8c-1.8,0.2-3.9,0.6-4.9,2.2c17.4,1.3,34.9,1.3,52.3,0.2c-19.3-0.8-38.7,0.2-57.8,3
		c7.6,7.2,19.3,8.3,29.7,6.9c10.4-1.4,20.6-4.9,31.1-5.4"/>
</g>
</svg>
