<?xml version="1.0" encoding="utf-8"?>
<!-- Generator: Adobe Illustrator 19.2.1, SVG Export Plug-In . SVG Version: 6.00 Build 0)  -->
<svg version="1.0" xmlns="http://www.w3.org/2000/svg" xmlns:xlink="http://www.w3.org/1999/xlink" x="0px" y="0px" width="288px"
	 height="288px" viewBox="0 0 288 288" enable-background="new 0 0 288 288" xml:space="preserve">
<g id="Layer_2">
	<path fill="#27AAE1" d="M147.6,35.6c0,0-20.9,18.1-5.8,39.6c0,0-16.4-3.7-9.1-24.7C139.5,31,147.6,35.6,147.6,35.6z"/>
	<polygon fill="#27AAE1" points="129.8,78.1 122.1,136.8 137.1,142.9 114.8,139.7 121.2,92.7 105.7,102.2 106.1,139.4 110,146.4 
		108.1,148 102.5,139.4 100,99 122.1,85.2 124.3,77.8 	"/>
	<path fill="#27AAE1" d="M124.3,141.1c0,0,32.5,50.3,44.7,95.2l-1.5,0.8c0,0-21.4-45.6-31.2-60.1l-3.5-6.2c0,0-1.5,32.9-32.7,61.7
		l-3.4-0.7c0,0,19.1-23.5,23.1-46s-0.1-37.7-0.1-37.7l-4.9-8.3L124.3,141.1z"/>
	<polygon fill="#27AAE1" points="94.7,231.4 92.2,244.7 108.8,251 122.8,243 100,232.4 	"/>
	<polygon fill="#27AAE1" points="167.5,237 166.2,251 191,255.2 197,247.4 	"/>
</g>
<g id="Layer_1">
	
		<ellipse transform="matrix(0.192 -0.9814 0.9814 0.192 63.255 187.8882)" fill="none" stroke="#000000" stroke-width="2" stroke-miterlimit="10" cx="145.7" cy="55.5" rx="20.1" ry="13.8"/>
	<path fill="none" stroke="#000000" stroke-width="2" stroke-miterlimit="10" d="M135.9,37.6c0,0,15,4.2,20.6,1.2"/>
	<path fill="none" stroke="#000000" stroke-width="2" stroke-miterlimit="10" d="M133.6,40.1c0,0,16.2,4.9,26.4,1.9"/>
	<path fill="none" stroke="#000000" stroke-width="2" stroke-miterlimit="10" d="M160.9,45c0,0-16.9,4.1-28-0.9"/>
	<polyline fill="none" stroke="#000000" stroke-width="2" stroke-miterlimit="10" points="138.8,74.1 137.6,79.1 144.1,80.5 
		146.8,74.9 	"/>
	<path fill="none" stroke="#000000" stroke-width="2" stroke-miterlimit="10" d="M124.3,77.8c0,0,19,0.2,30,6.7
		c0,0-12.5,51.2-17.2,58.3l-22.3-3.2L124.3,77.8z"/>
	<path fill="none" stroke="#000000" stroke-width="2" stroke-miterlimit="10" d="M124.3,77.8l-31,18.7c0,0,1.6,23.4,9.2,42.9h3.6
		c0,0-1.3-28.6-0.4-37.2"/>
	<line fill="none" stroke="#000000" stroke-width="2" stroke-miterlimit="10" x1="122.1" y1="92.2" x2="94.7" y2="108.4"/>
	<polygon fill="none" stroke="#000000" stroke-width="2" stroke-miterlimit="10" points="106.1,139.4 110,146.4 108.1,148 
		106.1,148 107.4,159.4 100,154.9 102.5,139.4 	"/>
	<path fill="none" stroke="#000000" stroke-width="2" stroke-miterlimit="10" d="M153,89.7c0,0,0.9,29.5,20.2,39.5l-2.5,4
		c0,0-12.3-1.4-23.1-22.9"/>
	<polygon fill="none" stroke="#000000" stroke-width="2" stroke-miterlimit="10" points="173.2,129.2 181.9,129.2 194.4,136.4 
		184.9,139.4 178.5,135.8 180.2,139.4 175.7,139.4 170.7,133.2 	"/>
	<path fill="none" stroke="#000000" stroke-width="2" stroke-miterlimit="10" d="M114.8,139.7c0,0,48.2,81.8,52.8,97.3l4.2-1.2
		c0,0-11.7-56.4-34.7-93"/>
	<path fill="none" stroke="#000000" stroke-width="2" stroke-miterlimit="10" d="M118.7,146.4c0,0,4.4,48.9-24,85l5.4,1
		c0,0,30-26.7,32.7-61.7"/>
	<polygon fill="none" stroke="#000000" stroke-width="2" stroke-miterlimit="10" points="167.5,237 168.9,248.5 190.2,253 
		197,244.5 172.7,236.3 	"/>
	<polygon fill="none" stroke="#000000" stroke-width="2" stroke-miterlimit="10" points="93.4,231.8 89.9,241 110.8,248.4 
		121.2,242.4 100,232.4 	"/>
</g>
<g id="Layer_3">
	<path opacity="0" fill="none" stroke="#27AAE1" stroke-width="22" stroke-miterlimit="10" d="M128.4,37.8c6.3-3.7,14-5,21.2-3.6
		c-8.2,4.9-16.5,9.8-24.7,14.7c5.4-1.5,11-2.1,16.6-1.8c-8.5,6-17.2,11.6-26.3,16.6c8.3-2.3,16.8-3.9,25.4-4.7
		c-8.4,3.5-16.7,7.1-25.1,10.6c8.6-1.7,17.3-2.3,26.1-2c-6.5,3.8-13.5,6.9-20.7,9.2c4.2-1.6,8.5-3.1,12.7-4.7
		c-13.1,8.3-26.2,16.6-39.3,24.9c17.3-4,34.6-8.2,51.8-12.6c-20.2,8.9-40.5,17.9-60.7,26.8c16.1-5,32.2-9.9,48.3-14.9
		c-12.5,7.1-24.7,14.9-36.4,23.3c11.1-5.2,22.8-9.1,34.8-11.8c-12,6.8-24.1,13.5-36.1,20.3c12.8-5.8,26.2-10.5,39.8-14
		c-15.1,9.8-29.7,20.3-43.7,31.5c7.4-2.3,14.6-5.4,21.5-9.1c-2.9,1.7-5.3,4.2-7,7.1c6-1.6,12.1-3.3,18.1-4.9
		c-7.4,9.9-15.4,19.3-23.9,28.3c11.2-8.6,23.9-15.1,37.4-19.1c-7.3,7.8-15.1,15.2-23.3,22.1c7.9-6,16.6-11,25.7-14.8
		c-13.3,9.4-27.1,19-43.1,22.1c12.9-6.3,27.2-9.6,41.5-9.6c-10.2,6.6-21,12.2-32.4,16.5c15.4-4.5,31.6-6.4,47.6-5.4
		c-16.1,5.6-33.1,8.5-50.2,8.7c23-2.3,46.2-3.2,69.4-2.9c-24.2,5.6-48.9,9.5-73.7,11.7c19.1-0.7,38.1-1.5,57.2-2.2
		c-23.4,6-46.7,12-70.1,18c32.4-1.7,64.8-4.1,97.2-7.2c-27.3,5-55.2,7.1-83,6.4c31-0.7,62-1.5,93-2.2c-32.9,7.5-67,7-100.8,6.3
		c26.6-0.5,53.2-0.9,79.9-1.4c-32.4,4.2-64.7,8.3-97.1,12.5c19.3,0.8,38.5,1.6,57.8,2.3c-14.2,0.8-28.4,1.6-42.7,2.5
		c-1.1,0.1-2.2,0.2-3.1,0.8s-1.2,2.1-0.3,2.8c8.5-2.1,17.3-3.1,26-3c-7.6,5.2-15.4,10-23.5,14.5c18.6-2.4,37.1-4.7,55.7-7.1
		c-11.4,2.6-22.8,5.2-34.3,7.8c20.8-6.4,42.4-9.6,63.9-12.7c-17-2-34.1-3.3-51.2-3.8c21.7-5.7,44.2-7.9,66.6-10.1
		c-24,4.2-48,8.3-72.1,12.5c17.2-5.4,35.1-8.6,53.1-9.4c-13.1,5.5-25.8,12.2-37.7,20c16.9-1.3,33.9-2.7,50.8-4
		c-10.9,1.4-21.7,4.6-31.5,9.6c20.9-2.7,42-4.4,63-5c-14.9,3.4-29.9,6-45,7.7c14-4.1,28.5-6.2,43-6.2c-23.3,1-46.7,1.9-70,2.9
		c15.2-2.7,30.3-6.2,45.2-10.3c-22.9,5-46.2,7.9-69.6,8.7c6.5-2.5,13-5,19.5-7.4c-16.4,2.4-32.9,4.7-49.3,7.1
		c19.7-4.8,40.3-4.6,60.6-4.3c9.1,0.1,18.2,0.2,27.3,0.3"/>
</g>
</svg>
