<?xml version="1.0" encoding="utf-8"?>
<!-- Generator: Adobe Illustrator 19.2.1, SVG Export Plug-In . SVG Version: 6.00 Build 0)  -->
<svg version="1.0" xmlns="http://www.w3.org/2000/svg" xmlns:xlink="http://www.w3.org/1999/xlink" x="0px" y="0px" width="288px"
	 height="288px" viewBox="0 0 288 288" enable-background="new 0 0 288 288" xml:space="preserve">
<g id="Layer_2">
	<path fill="#27AAE1" d="M114.9,98.8l16.8,58.1c0,0,26.4,0.2,24.3,0.6s-31.8,5.2-31.8,5.2l-18.7-61.6L114.9,98.8z"/>
</g>
<g id="Layer_1">
	<path fill="none" stroke="#000000" stroke-width="2" stroke-miterlimit="10" d="M143,83.8c-0.9,0-3.9,0-3.9,0c-6.6,0-12-5.4-12-12
		V54.2c0-6.6,5.4-12,12-12h4.1c6.6,0,12,5.4,12,12v17.6c0,3.4-1.5,6.5-3.8,8.7"/>
	<path fill="none" stroke="#000000" stroke-width="2" stroke-miterlimit="10" d="M127.1,63.8c0,0,7.4,0.8,10.7,0s3.8-2,8.6,0
		c4.9,2,8.7,0.4,8.7,0.4"/>
	<path fill="none" stroke="#000000" stroke-width="2" stroke-miterlimit="10" d="M127.1,59c0,0-8.3,3,0,7.5"/>
	<path fill="none" stroke="#000000" stroke-width="2" stroke-miterlimit="10" d="M155.2,59c0,0,8.4,2.9,0,6.8"/>
	<path fill="none" stroke="#000000" stroke-width="2" stroke-miterlimit="10" d="M118.1,83.6c-9.1-59.2,23.1-47.3,23.1-47.3
		s26.4-11.8,22.8,39.2"/>
	<path fill="none" stroke="#000000" stroke-width="2" stroke-miterlimit="10" d="M129,93.9c5.9-1.7,10.4-3.1,10.4-3.1l36.9-6.5
		l-3-12.5l-35.2,13.8c0,0-5,0.6-11.5,1.3"/>
	<polyline fill="none" stroke="#000000" stroke-width="2" stroke-miterlimit="10" points="174.4,76 182.8,72.2 183.6,77.4 
		175.1,78.8 	"/>
	<polygon fill="none" stroke="#000000" stroke-width="2" stroke-miterlimit="10" points="109.9,86.8 125.3,80.7 129.5,96.6 
		119.8,99.7 	"/>
	<line fill="none" stroke="#000000" stroke-width="2" stroke-miterlimit="10" x1="122" y1="98.8" x2="118" y2="91.2"/>
	<line fill="none" stroke="#000000" stroke-width="2" stroke-miterlimit="10" x1="124.3" y1="97.5" x2="121" y2="89.4"/>
	<line fill="none" stroke="#000000" stroke-width="2" stroke-miterlimit="10" x1="126.7" y1="96.9" x2="124.3" y2="88.5"/>
	<path fill="none" stroke="#000000" stroke-width="2" stroke-miterlimit="10" d="M111.9,88.5c-7,0.8-12.6,1.4-12.6,1.4l2.8,12
		c0,0,7.4-2.2,15.6-4.6"/>
	<polyline fill="none" stroke="#000000" stroke-width="2" stroke-miterlimit="10" points="100.3,94.1 89.6,95.4 90.9,101 101,97.3 	
		"/>
	<path fill="none" stroke="#000000" stroke-width="2" stroke-miterlimit="10" d="M101.4,99.1c-7.3,10.6-16.6,24.1-16.6,24.1
		l13.6,25.1l16.5-16.4"/>
	<line fill="none" stroke="#000000" stroke-width="2" stroke-miterlimit="10" x1="105.6" y1="101.1" x2="124.3" y2="162.7"/>
	<line fill="none" stroke="#000000" stroke-width="2" stroke-miterlimit="10" x1="171.8" y1="85.7" x2="185.8" y2="144"/>
	<path fill="none" stroke="#000000" stroke-width="2" stroke-miterlimit="10" d="M173.8,84.7c0,0,14.7,14.4,24.9,29.5
		c0,0,0.1,14.8-4.7,30.7"/>
	<polyline fill="none" stroke="#000000" stroke-width="2" stroke-miterlimit="10" points="180.7,122.6 181.9,116 177.9,111.1 	"/>
	<path fill="none" stroke="#000000" stroke-width="2" stroke-miterlimit="10" d="M172.6,159.5c-0.2-0.8-12-11.8-12-11.8l-8.2,3.9
		l7.1,14L172.6,159.5z"/>
	<path fill="none" stroke="#000000" stroke-width="2" stroke-miterlimit="10" d="M156,157.5c-8.5,1.4-36.2,5.9-36.2,5.9l3.5,11.8
		c0,0,27.6-9.8,34.9-12.4"/>
	<polyline fill="none" stroke="#000000" stroke-width="2" stroke-miterlimit="10" points="121,167.6 110.4,169.5 112,175 122,170.8 
			"/>
	<line fill="none" stroke="#000000" stroke-width="2" stroke-miterlimit="10" x1="154.8" y1="151.2" x2="158.2" y2="156.9"/>
	<line fill="none" stroke="#000000" stroke-width="2" stroke-miterlimit="10" x1="156.9" y1="150" x2="160.6" y2="155.6"/>
	<line fill="none" stroke="#000000" stroke-width="2" stroke-miterlimit="10" x1="159.3" y1="149" x2="163.1" y2="154.1"/>
	<path fill="none" stroke="#000000" stroke-width="2" stroke-miterlimit="10" d="M172.4,159.4c10.6-2.5,24.1-5.6,24.1-5.6l-3.6-12.3
		c0,0-16.2,7.4-26.4,12"/>
	<polyline fill="none" stroke="#000000" stroke-width="2" stroke-miterlimit="10" points="194.1,145.6 202.3,141.4 203.3,146.6 
		194.9,148.3 	"/>
	<path fill="none" stroke="#000000" stroke-width="2" stroke-miterlimit="10" d="M189.8,155.8c-2.5,5.3-5.7,10.3-9.7,14.6
		c0,0-10.4-5.2-15.1-7.6"/>
	<path fill="none" stroke="#000000" stroke-width="2" stroke-miterlimit="10" d="M118,142c-0.3,5.6-0.8,15.3-1.6,26.6"/>
	<path fill="none" stroke="#000000" stroke-width="2" stroke-miterlimit="10" d="M116,173.6c-1.4,19.5-3.5,42.2-6.1,55.8
		c0,0,52,12.9,79.3-4.1c0,0-11.5-21.9-16.1-58.4"/>
	<polyline fill="none" stroke="#000000" stroke-width="2" stroke-miterlimit="10" points="131.7,233 136.5,246.8 139.2,247 
		140.6,233.8 	"/>
	<polyline fill="none" stroke="#000000" stroke-width="2" stroke-miterlimit="10" points="154.9,234.1 157.5,247 160,247 165,233.6 
			"/>
	<polyline fill="none" stroke="#000000" stroke-width="2" stroke-miterlimit="10" points="135.8,246.8 116.2,254 129.8,262.3 
		139.2,247 	"/>
	<polyline fill="none" stroke="#000000" stroke-width="2" stroke-miterlimit="10" points="156.5,246.9 165.5,262.3 178.9,255.2 
		160.1,246.9 	"/>
</g>
<g id="Layer_3">
	<path opacity="0" fill="none" stroke="#ED1F6C" stroke-width="22" stroke-miterlimit="10" d="M96.5,98.4c6.3-0.6,12.6-1.1,18.8-1.7
		c-5.6,4.7-11.7,8.8-18.1,12.3c6.5-2.9,13.5-4.6,20.6-5c-6.3,5.3-13,10.1-20.2,14.1c8.1-2,16.3-3.4,24.7-4.1
		c-6.6,4.6-13.1,9.2-19.7,13.8c9.6-2.3,19.3-4.3,29-5.8c-6.4,4.8-12.8,9.7-19.2,14.5c7.1-2,14.3-3.5,21.6-4.4
		c-9.2,5-18.4,10-27.6,15c7.1-0.6,14.1-1.2,21.2-1.8c-4.7,4.4-10,8.2-15.7,11.3c7.6-2.4,15.6-3.7,23.6-3.8c-5.3,3-10.7,6.1-16,9.1
		c6.3,0.1,12.5,0.2,18.8,0.2c2.3,0,4.7,0,6.9-0.8c2.6-1.1,4.5-3.3,6.8-4.8c4.5-2.9,10.6-2.9,15.1,0"/>
</g>
</svg>
