<?xml version="1.0" encoding="utf-8"?>
<!-- Generator: Adobe Illustrator 19.2.1, SVG Export Plug-In . SVG Version: 6.00 Build 0)  -->
<svg version="1.0" xmlns="http://www.w3.org/2000/svg" xmlns:xlink="http://www.w3.org/1999/xlink" x="0px" y="0px" width="288px"
	 height="288px" viewBox="0 0 288 288" enable-background="new 0 0 288 288" xml:space="preserve">
<g id="Layer_2">
	<polygon fill="#27AAE1" points="152.7,88.9 124.1,124 130.6,127.5 162.7,91.5 	"/>
</g>
<g id="Layer_1">
	<path fill="none" stroke="#000000" stroke-width="2" stroke-miterlimit="10" d="M142.8,80.4h-5.2c-6.6,0-12-5.4-12-12V52.5
		c0-6.6,5.4-12,12-12h5.2c6.6,0,12,5.4,12,12v15.9C154.8,75,149.4,80.4,142.8,80.4z"/>
	<path fill="none" stroke="#000000" stroke-width="2" stroke-miterlimit="10" d="M125.6,59.8c0,0,5.8,2.7,9.1,1.5
		c3.3-1.2,6.8-1.7,11.8,0s8.2-1.9,8.2-1.9"/>
	<path fill="none" stroke="#000000" stroke-width="2" stroke-miterlimit="10" d="M125.6,56.7c0,0-6.8,2.6,0,7.9"/>
	<path fill="none" stroke="#000000" stroke-width="2" stroke-miterlimit="10" d="M155.3,56.7c0,0,6.8,2.6,0,7.9"/>
	<path fill="none" stroke="#000000" stroke-width="2" stroke-miterlimit="10" d="M163.9,90.6c2.2-0.6,4.3-1.3,4.3-1.3
		c-8.2-7.8-5.3-43.8-8.8-51.8s-19.1-4.8-19.1-4.8s-17.7-3.3-19.9,8.2c-1.9,10-1.4,36.5-4.2,45.6l6.4,0.8"/>
	<path fill="none" stroke="#000000" stroke-width="2" stroke-miterlimit="10" d="M135.9,80.4c-0.6-0.5,0,6.5,0,6.5l10.1,0.3v-6.8
		C146,80.4,138.2,82.3,135.9,80.4z"/>
	<path fill="none" stroke="#000000" stroke-width="2" stroke-miterlimit="10" d="M119.8,121.9c0.4-14.4,1.1-34.1,1.1-34.1
		s27.7-3,42.3,2.7c0,0-0.3,2.9-0.6,7.9"/>
	<path fill="none" stroke="#000000" stroke-width="2" stroke-miterlimit="10" d="M120.9,87.8c0,0-15,23.7-20,41.7
		c0,0,17.5,20.8,27.2,26.8L139,132l-26.4-14"/>
	<polyline fill="none" stroke="#000000" stroke-width="2" stroke-miterlimit="10" points="139,132 147.4,130.5 155.3,136.7 
		151.2,146.4 135.6,140.4 	"/>
	<line fill="none" stroke="#000000" stroke-width="2" stroke-miterlimit="10" x1="146.7" y1="141.6" x2="151.6" y2="143.9"/>
	<line fill="none" stroke="#000000" stroke-width="2" stroke-miterlimit="10" x1="147.5" y1="138.9" x2="152.7" y2="141.5"/>
	<line fill="none" stroke="#000000" stroke-width="2" stroke-miterlimit="10" x1="153.8" y1="138.8" x2="148.9" y2="135.6"/>
	<path fill="none" stroke="#000000" stroke-width="2" stroke-miterlimit="10" d="M130.6,127.5c13-14.5,32.1-36,32.1-36l-12.8-3.5
		c0,0-19.7,24.5-27.3,34.1"/>
	<polygon fill="none" stroke="#000000" stroke-width="2" stroke-miterlimit="10" points="168,99.1 172.3,88.5 176.8,90.6 
		170.6,100.3 	"/>
	<path fill="none" stroke="#000000" stroke-width="2" stroke-miterlimit="10" d="M171.5,108c2.2-3.2,3.7-5.5,3.7-5.5l-12-5.7
		c0,0-0.7,1.8-1.8,4.4"/>
	<polygon fill="none" stroke="#000000" stroke-width="2" stroke-miterlimit="10" points="168.2,102.5 156.8,100.7 154.8,109.5 
		165.6,114.3 170.6,120.9 174.2,114.1 	"/>
	<line fill="none" stroke="#000000" stroke-width="2" stroke-miterlimit="10" x1="156.8" y1="103.3" x2="163.9" y2="104.5"/>
	<line fill="none" stroke="#000000" stroke-width="2" stroke-miterlimit="10" x1="156.1" y1="105.4" x2="163.5" y2="107"/>
	<line fill="none" stroke="#000000" stroke-width="2" stroke-miterlimit="10" x1="155.7" y1="107.6" x2="163.2" y2="110"/>
	<path fill="none" stroke="#000000" stroke-width="2" stroke-miterlimit="10" d="M157.5,110.8c-3.2,7.8-6.5,15.9-6.5,15.9
		s-1.3,1.8-3.2,4.4"/>
	<path fill="none" stroke="#000000" stroke-width="2" stroke-miterlimit="10" d="M139.9,142c-3.8,5.3-7.2,9.9-7.2,9.9l15.6,7.4
		l7.7-28.6c0,0,5.5-8,10.5-15.5"/>
	<polyline fill="none" stroke="#000000" stroke-width="2" stroke-miterlimit="10" points="139.3,154.9 133.4,163.4 138.5,165.8 
		141.4,155.9 	"/>
	<path fill="none" stroke="#000000" stroke-width="2" stroke-miterlimit="10" d="M162.3,90.2c0,0,3,3.7,6.3,7.6"/>
	<path fill="none" stroke="#000000" stroke-width="2" stroke-miterlimit="10" d="M173.8,104.1c1.5,1.8,2.4,2.9,2.4,2.9"/>
	<polyline fill="none" stroke="#000000" stroke-width="2" stroke-miterlimit="10" points="166,116 162.7,128 180.1,154.9 187.3,149 
		181.1,105.8 171.2,108.3 	"/>
	<line fill="none" stroke="#000000" stroke-width="2" stroke-miterlimit="10" x1="180.1" y1="154.9" x2="161.2" y2="136.3"/>
	<path fill="none" stroke="#000000" stroke-width="2" stroke-miterlimit="10" d="M161.4,122.8c-0.8,30.7,0.5,76.5,12.8,106
		c0,0-44.7,14.2-70.3-10.8c0,0,10-47.2,14-71"/>
	<polyline fill="none" stroke="#000000" stroke-width="2" stroke-miterlimit="10" points="126.4,231.2 129.2,244 130.9,244 
		133.7,232.2 	"/>
	<polyline fill="none" stroke="#000000" stroke-width="2" stroke-miterlimit="10" points="155,233.2 152.2,246 150.5,246 
		147.4,232.8 	"/>
	<polygon fill="none" stroke="#000000" stroke-width="2" stroke-miterlimit="10" points="129.1,244 106.9,246.8 115.6,255.8 
		132.1,246.8 	"/>
	<polygon fill="none" stroke="#000000" stroke-width="2" stroke-miterlimit="10" points="152.3,246 174.5,248.8 165.8,257.8 
		149.3,248.8 	"/>
</g>
<g id="Layer_3">
	<path opacity="0" fill="none" stroke="#27AAE1" stroke-width="15" stroke-miterlimit="10" d="M111.9,87.4c23.9-2.5,48-3.7,72.1-3.6
		c-25.4,9-52.5,12.1-79.4,14.8c25-0.8,50-1.5,75-2.3c-3.4,2.4-7.7,3.2-11.8,3.8c-8.8,1.3-17.6,2.4-26.5,3.4
		c-11.8,1.4-23.5,2.8-35.3,4.2c23.3-0.2,46.6-1,69.9-2.1c-27.3,3.4-54.3,9.1-81.3,14.8c5.2,1.2,10.6,1,15.9,0.7
		c28.4-1.7,56.5-6.9,85-6.8c-19.2,2.8-38.3,5.5-57.5,8.3c-8.9,1.3-18.1,2.7-25.3,8c22.4,4.4,45.2,7.1,68,8.1"/>
</g>
</svg>
