<?xml version="1.0" encoding="utf-8"?>
<!-- Generator: Adobe Illustrator 19.2.1, SVG Export Plug-In . SVG Version: 6.00 Build 0)  -->
<svg version="1.0" id="Layer_1" xmlns="http://www.w3.org/2000/svg" xmlns:xlink="http://www.w3.org/1999/xlink" x="0px" y="0px"
	 width="288px" height="288px" viewBox="0 0 288 288" enable-background="new 0 0 288 288" xml:space="preserve">
<polygon fill="none" stroke="#000000" stroke-width="2" stroke-miterlimit="10" points="144,93 87.3,85 87.3,104 144,100.1 
	200.6,104 200.6,86.2 "/>
<line fill="none" stroke="#000000" stroke-width="2" stroke-miterlimit="10" x1="94.3" y1="103.4" x2="94.3" y2="184"/>
<line fill="none" stroke="#000000" stroke-width="2" stroke-miterlimit="10" x1="190.3" y1="103.3" x2="193" y2="184.6"/>
<polygon fill="none" stroke="#000000" stroke-width="2" stroke-miterlimit="10" points="144,191.5 87.3,183.5 87.3,202.5 144,198.6 
	200.6,202.5 200.6,184.7 "/>
<polyline fill="none" stroke="#000000" stroke-width="2" stroke-miterlimit="10" points="87.3,92 74.6,90.2 75.5,98.3 87.3,96.5 "/>
<polyline fill="none" stroke="#000000" stroke-width="2" stroke-miterlimit="10" points="200.6,92.8 213.6,90.2 213.6,98.3 
	200.6,97.3 "/>
<polyline fill="none" stroke="#000000" stroke-width="2" stroke-miterlimit="10" points="87.3,190.5 74.6,188.7 75.5,196.8 
	87.3,195 "/>
<polyline fill="none" stroke="#000000" stroke-width="2" stroke-miterlimit="10" points="200.6,191.3 213.6,188.7 213.6,196.8 
	200.6,195.8 "/>
</svg>
