<?xml version="1.0" encoding="utf-8"?>
<!-- Generator: Adobe Illustrator 19.2.1, SVG Export Plug-In . SVG Version: 6.00 Build 0)  -->
<svg version="1.0" xmlns="http://www.w3.org/2000/svg" xmlns:xlink="http://www.w3.org/1999/xlink" x="0px" y="0px" width="288px"
	 height="288px" viewBox="0 0 288 288" enable-background="new 0 0 288 288" xml:space="preserve">
<g id="Layer_2">
	<path fill="#27AAE1" d="M109.1,75.3c0,0,24.7-1.3,18.9,29.5c-4,21.5-10.5,35.1-21.4,36.3s-19.4-19.3-18.1-29.8
		S92.9,81.8,109.1,75.3z"/>
	<path fill="#27AAE1" d="M80.8,147c0,0-20,13-17.9,42.9l13.9-3.8l1.9-12l-5.5-0.4c0,0,1.1-6.2,5.5-9.6L80.8,147z"/>
	<path fill="#27AAE1" d="M129.9,157.6c0,0-32.8-12.8-49.1-10.6c0,0-6.7,41.8-4.7,65.8c0,0,32.1,6,53.3,2.5l1.1-31.4l11.9,16.2
		l11-26.1l-5.5,0.2l-6.2,8.6L129.9,157.6z"/>
</g>
<g id="Layer_1">
	
		<ellipse transform="matrix(0.138 -0.9904 0.9904 0.138 -10.985 203.1208)" fill="none" stroke="#000000" stroke-width="2" stroke-miterlimit="10" cx="111.2" cy="107.9" rx="33.5" ry="22.5"/>
	
		<ellipse transform="matrix(0.9543 -0.2988 0.2988 0.9543 -24.6033 61.513)" fill="none" stroke="#000000" stroke-width="2" stroke-miterlimit="10" cx="188.9" cy="111.2" rx="20.5" ry="31"/>
	<path fill="none" stroke="#000000" stroke-width="2" stroke-miterlimit="10" d="M102.8,77.1c0,0,14,5.1,26.5,5.6"/>
	<path fill="none" stroke="#000000" stroke-width="2" stroke-miterlimit="10" d="M99.7,78.7c0,0,18.7,11.5,34.1,10.5"/>
	<path fill="none" stroke="#000000" stroke-width="2" stroke-miterlimit="10" d="M97.1,81.8c0,0,7.7,12.4,36.7,13.5"/>
	<path fill="none" stroke="#000000" stroke-width="2" stroke-miterlimit="10" d="M92.9,85c0,0,15.6,19.5,42.1,17"/>
	<path fill="none" stroke="#000000" stroke-width="2" stroke-miterlimit="10" d="M91.1,88.5c0,0,15.3,24.5,44,18"/>
	<path fill="none" stroke="#000000" stroke-width="2" stroke-miterlimit="10" d="M89.1,91.8c0,0,14.8,32.5,46,19"/>
	<polyline fill="none" stroke="#000000" stroke-width="2" stroke-miterlimit="10" points="97.9,136.8 97.1,142.5 110.5,145.7 
		111.2,141 	"/>
	<path fill="none" stroke="#000000" stroke-width="2" stroke-miterlimit="10" d="M203.5,136.8c0,0,2,4.8,3,7.1"/>
	<path fill="none" stroke="#000000" stroke-width="2" stroke-miterlimit="10" d="M197.3,147.2c-1-1.8-3.2-5.6-3.2-5.6"/>
	<path fill="none" stroke="#000000" stroke-width="2" stroke-miterlimit="10" d="M129.3,215.3l1.1-62.5
		c-24.2-10.7-48.7-12.7-48.7-12.7s-6.4,44.2-5.7,72.7"/>
	<path fill="none" stroke="#000000" stroke-width="2" stroke-miterlimit="10" d="M229.1,205.7c5.2-39.9-7-65.5-7-65.5
		c-9.3,1.3-38.1,11.7-38.1,11.7l0.3,25.3"/>
	<path fill="none" stroke="#000000" stroke-width="2" stroke-miterlimit="10" d="M81.2,140.1c0,0-28.6,14.8-25.3,51.7l20.9-5.6"/>
	<path fill="none" stroke="#000000" stroke-width="2" stroke-miterlimit="10" d="M78.8,164.2c0,0-8.8,6.6-7.7,23.6"/>
	<line fill="none" stroke="#000000" stroke-width="2" stroke-miterlimit="10" x1="72.6" y1="173.9" x2="77.8" y2="173.9"/>
	<polyline fill="none" stroke="#000000" stroke-width="2" stroke-miterlimit="10" points="129.9,183.2 142.3,200 153.3,173.9 	"/>
	<line fill="none" stroke="#000000" stroke-width="2" stroke-miterlimit="10" x1="130.4" y1="152.8" x2="147.8" y2="187"/>
	<line fill="none" stroke="#000000" stroke-width="2" stroke-miterlimit="10" x1="145.6" y1="174.2" x2="143.3" y2="177.7"/>
	<path fill="none" stroke="#000000" stroke-width="2" stroke-miterlimit="10" d="M194,148.3c0,0,9.1,42-2.9,63l-24.3-41.4l-9.5-5.7
		l3.8-6.4l-5-9.1l2.5-1.7l13.7,17.1l24.5,26.7"/>
	<path fill="none" stroke="#000000" stroke-width="2" stroke-miterlimit="10" d="M147.8,140.1c0,0-11.4-4.5-24.7-6"/>
	<path fill="none" stroke="#000000" stroke-width="2" stroke-miterlimit="10" d="M174.3,129.4c-9.7,2.3-22,6.2-26.5,10.7l2.2,33.8
		c0,0,6.8-1.1,18.3-1.4"/>
	<path fill="none" stroke="#000000" stroke-width="2" stroke-miterlimit="10" d="M187.9,150.7c0.2-3.8,0.4-7.6,0.6-11.1"/>
	<line fill="none" stroke="#000000" stroke-width="2" stroke-miterlimit="10" x1="150.1" y1="173.9" x2="141.2" y2="173.9"/>
	<path fill="none" stroke="#000000" stroke-width="2" stroke-miterlimit="10" d="M180.1,172.5c1.4,0,2.8,0.1,4.3,0.2"/>
	<path fill="none" stroke="#000000" stroke-width="2" stroke-miterlimit="10" d="M152.3,145.7c0,0,3.7-2.9,7.8-2.9
		c4.1,0.1,4.7,0,6.9-1.4c2.2-1.5,5.5-1,7-0.6c1.4,0.4,0.9,0.7,2.8-0.3"/>
</g>
<g id="Layer_3">
	<path opacity="0" fill="none" stroke="#27AAE1" stroke-width="22" stroke-miterlimit="10" d="M98.6,74.5
		c14.5-1.2,29.1-2.1,43.7-2.6c-20.7,2.8-39.3,15.7-60.2,16.2c22.5-1.4,45.1-2,67.6-1.8c-26,4.3-52.1,8.6-78.1,13
		c27.7-1.4,55.5-2.8,83.2-4.3c-23.4,3.3-46.9,5.7-70.4,7.3c22.3,0.3,44.5,0.6,66.8,0.8c-29,2.7-58,5.4-86.4,12
		c29.6-1.5,59.2-1.6,88.8-0.2c-23.8,5.7-48.4,7.4-72.8,9.1c21.2-2.6,42.6-3.3,63.9-2.2c-27,7-55.8,4.1-83,10.2
		c23.6,0.6,47.2,1.2,70.7,3.6c-23.2,1.2-46.4,3.5-69.4,6.8c29.3-2.6,58.7-5.1,88-7.7c-26.1,7.3-53.6,6.7-80.4,10.6
		c23.3-1.3,46.6-2.6,70-4c-27,1.1-53.8,4.2-80.3,9.5c-5.9,1.2-12.1,2.6-16.1,7.1c15.4-0.4,30.5-3.2,45.6-6
		c-10,1.5-19.9,3.9-29.4,7.3c22.1-1.1,44.1-3.2,66-6.5c3.8-0.6,7.9-1.1,11.3,0.6c-14.9-0.1-29.9,0.7-44.8,2.3
		c16.5-1.6,33.1-3.3,49.6-4.9c-16.6-1-33.2-2-49.8-3c24.4-0.1,48.8-0.2,73.2-0.3c-24.3,7.3-48.9,13.7-73.8,19.1
		c-8.3,1.8-17.3,3.5-25.2,0.1c27.5-5.5,55.8-7.6,83.9-6.2c-25.2,6.8-51.9,6.9-77.2,13.5c32.6-0.9,65.1-2.3,97.7-4.4
		c-13.5,0.4-27,0.8-40.6,1.2c-13.1,0.4-26.1,0.8-39.2,1.5c-6.6,0.4-13.4,0.9-19.6,3.2c34,0.6,68-1.8,102-4.3
		c-30.8,0.4-61.6,3-92,7.7c-5.7,0.9-11.5,1.8-16.9,4.2c42.3-2.8,84.7-4.8,127-6c-39,4.1-78,8.1-117,12.2
		c35.6-2.2,71.2-5.1,106.7-8.5c-35.3,0.3-70.5,4.5-105.5,8.7c22.7-0.9,45.5-1.8,68.2-2.7c-30.4,2.8-60.8,5.5-91.2,8.3
		c28.7-0.3,57.4-0.6,86.1-0.9c-19.7,3.6-39.6,6.5-59.6,8.5c22.6-1,45.2-1.7,67.9-2.1c-23.4,2.2-47,3.3-70.5,3.3
		c16.9,0.7,33.8,0.6,50.7-0.1c-14.6,1.3-29,3.8-43.2,7.3c21.6,0.1,43.2,0.2,64.7,2.2c-20.3,1.8-40.8,2.1-61.1,0.9
		c16.4,1.1,32.8,1.7,49.3,1.7c-1.3-0.1-2.6-0.1-3.9-0.2"/>
</g>
</svg>
