<?xml version="1.0" encoding="utf-8"?>
<!-- Generator: Adobe Illustrator 19.2.1, SVG Export Plug-In . SVG Version: 6.00 Build 0)  -->
<svg version="1.0" id="Layer_1" xmlns="http://www.w3.org/2000/svg" xmlns:xlink="http://www.w3.org/1999/xlink" x="0px" y="0px"
	 width="288px" height="288px" viewBox="0 0 288 288" enable-background="new 0 0 288 288" xml:space="preserve">
<polygon fill="none" stroke="#000000" stroke-width="2" stroke-miterlimit="10" points="143.6,87.7 104.5,82.2 104.5,95.3 
	143.6,92.6 182.7,95.3 182.7,83 "/>
<line fill="none" stroke="#000000" stroke-width="2" stroke-miterlimit="10" x1="109.3" y1="95" x2="109.3" y2="192.5"/>
<line fill="none" stroke="#000000" stroke-width="2" stroke-miterlimit="10" x1="175.6" y1="94.8" x2="177.4" y2="193.3"/>
<polygon fill="none" stroke="#000000" stroke-width="2" stroke-miterlimit="10" points="143.6,197.3 104.5,191.8 104.5,204.9 
	143.6,202.3 182.7,204.9 182.7,192.7 "/>
<polyline fill="none" stroke="#000000" stroke-width="2" stroke-miterlimit="10" points="104.5,87 95.8,85.8 96.3,91.4 104.5,90.1 
	"/>
<polyline fill="none" stroke="#000000" stroke-width="2" stroke-miterlimit="10" points="182.7,87.6 191.7,85.8 191.7,91.4 
	182.7,90.7 "/>
<polyline fill="none" stroke="#000000" stroke-width="2" stroke-miterlimit="10" points="104.5,196.7 95.8,195.4 96.3,201 
	104.5,199.8 "/>
<polyline fill="none" stroke="#000000" stroke-width="2" stroke-miterlimit="10" points="182.7,197.2 191.7,195.4 191.7,201 
	182.7,200.3 "/>
</svg>
