<?xml version="1.0" encoding="utf-8"?>
<!-- Generator: Adobe Illustrator 19.2.1, SVG Export Plug-In . SVG Version: 6.00 Build 0)  -->
<svg version="1.0" id="Layer_1" xmlns="http://www.w3.org/2000/svg" xmlns:xlink="http://www.w3.org/1999/xlink" x="0px" y="0px"
	 width="288px" height="288px" viewBox="0 0 288 288" enable-background="new 0 0 288 288" xml:space="preserve">
<ellipse transform="matrix(0.1156 -0.9933 0.9933 0.1156 43.5476 171.308)" fill="none" stroke="#000000" stroke-width="2" stroke-miterlimit="10" cx="118" cy="61.2" rx="23" ry="13.7"/>
<polyline fill="none" stroke="#000000" stroke-width="2" stroke-miterlimit="10" points="111.8,83.7 111.8,90.4 117.1,90.4 
	118,84.2 "/>
<ellipse transform="matrix(1 -5.833645e-03 5.833645e-03 1 -0.3579 1.0428)" fill="none" stroke="#000000" stroke-width="2" stroke-miterlimit="10" cx="178.6" cy="61.9" rx="12.4" ry="20.3"/>
<polyline fill="none" stroke="#000000" stroke-width="2" stroke-miterlimit="10" points="181.8,81.7 181.8,88.2 173.8,87.9 
	174.3,81.7 "/>
<path fill="none" stroke="#000000" stroke-width="2" stroke-miterlimit="10" d="M100.6,90.7c0,0,15.7-1.3,24.8,1.6
	c0,0-0.7,54.9,1,63c0,0-21.8,4.6-29,0C97.3,155.3,96.9,114.4,100.6,90.7z"/>
<path fill="none" stroke="#000000" stroke-width="2" stroke-miterlimit="10" d="M168.4,88.2c0,0,14.2-1.2,22.5,1.5
	c0,0-0.6,49.8,0.9,57.2c0,0-19.8,4.2-26.4,0C165.4,146.8,165,109.7,168.4,88.2z"/>
<polygon fill="none" stroke="#000000" stroke-width="2" stroke-miterlimit="10" points="82.2,57.2 80.7,45.8 87.1,37.5 93.2,38.6 
	91,48.9 93.2,49.6 87,60 "/>
<path fill="none" stroke="#000000" stroke-width="2" stroke-miterlimit="10" d="M82.2,57.2c-0.8,1-9.3,14.5-12.6,29
	c0,0,6,12.2,28.5,19.1"/>
<path fill="none" stroke="#000000" stroke-width="2" stroke-miterlimit="10" d="M100.6,90.7c0,0-18.3-3.4-28.5-12.9"/>
<path fill="none" stroke="#000000" stroke-width="2" stroke-miterlimit="10" d="M87,60c0,0-6.8,16.3-6.3,23.7"/>
<path fill="none" stroke="#000000" stroke-width="2" stroke-miterlimit="10" d="M126.3,91.8c0,0,8.5,12.6,14,58.5l-4.9,1.6
	l-10.2-40.7"/>
<polygon fill="none" stroke="#000000" stroke-width="2" stroke-miterlimit="10" points="135.2,152.8 133.5,161.1 137.4,170.8 
	142.2,165.8 141.2,151 "/>
<polygon fill="none" stroke="#000000" stroke-width="2" stroke-miterlimit="10" points="207.1,52.4 203.8,47.3 202.6,42.2 
	204.3,40.1 203.1,32.5 208.3,29.7 214,46.8 212.5,50.9 "/>
<path fill="none" stroke="#000000" stroke-width="2" stroke-miterlimit="10" d="M190.8,103.6c0,0,22.7-10,27.9-20.8l-6.3-32.1
	l-5.2,2c0,0,2,22.6,0.1,28"/>
<path fill="none" stroke="#000000" stroke-width="2" stroke-miterlimit="10" d="M190.9,89.6c0,0,18.8-9,26-16"/>
<path fill="none" stroke="#000000" stroke-width="2" stroke-miterlimit="10" d="M168.4,88.2c0,0-12.1,12.2-12.1,54.8l3.9,1.3
	c0,0,5.5-24.5,6.1-33.9"/>
<polygon fill="none" stroke="#000000" stroke-width="2" stroke-miterlimit="10" points="156.2,142.9 153.8,154.1 157.1,160.9 
	162.3,160.9 160.8,145.1 "/>
<path fill="none" stroke="#000000" stroke-width="2" stroke-miterlimit="10" d="M109.1,157.4c-0.1,2.3-2.3,82.8-2.3,82.8h-7.5
	l-2-84.9"/>
<polyline fill="none" stroke="#000000" stroke-width="2" stroke-miterlimit="10" points="123.6,155.8 128.3,240.1 123.6,240.1 
	109.1,157.3 "/>
<path fill="none" stroke="#000000" stroke-width="2" stroke-miterlimit="10" d="M99,241.2l-16,4.6c0,0,12.1,9.9,12.6,9.5
	c0.5-0.5,11.9-14,11.9-14H99z"/>
<polygon fill="none" stroke="#000000" stroke-width="2" stroke-miterlimit="10" points="123.1,241.2 118.7,257.6 135.6,256 
	129.3,240.1 "/>
<path fill="none" stroke="#000000" stroke-width="2" stroke-miterlimit="10" d="M176.1,148.7c-0.1,2.1-2.1,75.1-2.1,75.1h-6.8
	l-1.8-77.1"/>
<polyline fill="none" stroke="#000000" stroke-width="2" stroke-miterlimit="10" points="189.3,147.3 193.5,223.9 189.3,223.9 
	176.1,148.7 "/>
<polyline fill="none" stroke="#000000" stroke-width="2" stroke-miterlimit="10" points="167.2,223.9 160.3,239.1 176.6,240.1 
	174,223.9 "/>
<polyline fill="none" stroke="#000000" stroke-width="2" stroke-miterlimit="10" points="189.3,223.9 196.3,237.9 206.9,232 
	194.3,223.9 "/>
</svg>
