<?xml version="1.0" encoding="utf-8"?>
<!-- Generator: Adobe Illustrator 20.1.0, SVG Export Plug-In . SVG Version: 6.00 Build 0)  -->
<!DOCTYPE svg PUBLIC "-//W3C//DTD SVG 1.0//EN" "http://www.w3.org/TR/2001/REC-SVG-20010904/DTD/svg10.dtd">
<svg version="1.0" xmlns="http://www.w3.org/2000/svg" xmlns:xlink="http://www.w3.org/1999/xlink" x="0px" y="0px" width="288px"
	 height="288px" viewBox="0 0 288 288" enable-background="new 0 0 288 288" xml:space="preserve">
<g id="Fill">
	<g>
		<path fill="#FFFFFF" d="M114.9,83.9l-3.1-0.2v6.7h5.3l0.9-6.2l-1.6-0.1c7.1-0.1,13.8-9.3,15.2-21.3c1.5-12.6-3.4-23.6-10.9-24.4
			c-7.5-0.9-14.8,8.6-16.3,21.3C102.9,72,107.6,82.7,114.9,83.9z"/>
		<path fill="#FFFFFF" d="M123.6,240.1h4.7l-4.7-84.3c1.7-0.3,2.8-0.5,2.8-0.5c-1-4.9-1.2-27.2-1.1-43.8l10.1,40.4l4.9-1.6
			c-5.5-45.9-14-58.5-14-58.5l-1,18.2c0-10,0.1-17.7,0.1-17.7c-9.1-2.9-24.8-1.6-24.8-1.6L88.1,87l-7.9-3.3L87,60l6.2-10.4L91,48.9
			l2.2-10.3l-6.1-1.1l-6.4,8.3l1.5,11.4c-0.8,1-9.3,14.5-12.6,29c0,0,6,12.2,28.5,19.1l0.9-0.7c-2,23-1.7,50.7-1.6,50.7c0,0,0,0,0,0
			l-0.1,0l2,84.9h7.5c0,0,2.2-80.5,2.3-82.8l-0.3-0.1c0.1,0,0.2,0,0.3,0L123.6,240.1z"/>
		<polygon fill="#FFFFFF" points="135.2,152.8 133.5,161.1 137.4,170.8 142.2,165.8 141.2,151 		"/>
		<path fill="#FFFFFF" d="M218.7,82.8l-1.8-9.2c0,0,0,0,0,0l0,0l-4.5-22.7l0.1,0l1.5-4.1l-5.7-17.1l-5.2,2.8l1.2,7.6l-1.7,2.1
			l1.2,5.1l3.3,5.1l3.2-0.9l-3.1,1.2c0,0,1.7,19.5,0.4,26.6l-16.7,10.3l0,0.1c-2.6-0.9-5.9-1.3-9.1-1.6v-6.4h-0.4
			c5.6-2,9.7-10.2,9.6-19.9c-0.1-11.2-5.7-20.3-12.5-20.2c-6.8,0-12.3,9.2-12.3,20.4c0.1,9.7,4.2,17.7,9.8,19.7h-1.7l-0.5,6.2l1,0
			c-3.7,0-6.4,0.3-6.4,0.3s-12.1,12.2-12.1,54.7l-0.1,0l-2.4,11.2l3.3,6.8h5.2l-1.5-15.8l-4.1-2l3.5,1.2c0,0,4.9-21.9,6-32.3
			c-0.9,17.7-0.8,34.8-0.8,34.9c0,0,0,0,0,0l1.8,76.9h6.8c0,0,2-72.1,2.1-75c0,0,0,0,0,0l13.2,75.1l7,14l10.6-5.9l-12.6-8.1h-0.8
			l-4.2-76.5c1.5-0.3,2.5-0.5,2.5-0.5c-1.5-7.2-0.9-53.9-0.9-57l-0.1,13.7C190.8,103.6,213.5,93.6,218.7,82.8z"/>
		<path fill="#FFFFFF" d="M99,241.2l-16,4.6c0,0,12.1,9.9,12.6,9.5c0.5-0.5,11.9-14,11.9-14L99,241.2L99,241.2z"/>
		<polygon fill="#FFFFFF" points="123.1,241.2 118.7,257.6 135.6,256 129.3,240.1 		"/>
		<polygon fill="#FFFFFF" points="167.2,223.9 160.3,239.1 176.6,240.1 174,223.9 		"/>
	</g>
</g>
<g id="Stroke">
	
		<path opacity="0" fill="none" stroke="#000000" stroke-width="29" stroke-linecap="round" stroke-linejoin="round" stroke-miterlimit="10" d="
		M66.3,27.8c52,0.6,105.5-9.8,154.9,6.1c-11.7,2.7-23.8,3.5-35.9,4.2c-44.5,2.7-89,4.8-133.6,6.3c-0.3,3.7,3.8,6.1,7.3,7.3
		c20.4,6.8,42.4,4.8,63.8,3.1c31-2.4,62.1-3.9,93.2-4.6c2,0,4.5,0.3,5,2.1c-7.8,4.8-17.1,6.4-26.1,7.8c-41,6.5-82,13-123.1,19.5
		c-2.4,0.4-5.4,1.6-5.2,4C121.5,82.2,176,77.2,230,68.9c-4.9,9-14.8,14.4-24.8,16.6s-20.4,1.7-30.7,2
		c-35.5,1.1-70.7,11.8-100.8,30.8c25.2-1.4,49.4-10.6,74.5-13.6c23-2.7,47-0.3,68.7-8.3c-8.5,12.3-23.3,19-37.9,21.8
		c-14.7,2.8-29.8,2.3-44.7,3.3c-16.9,1.1-33.6,4.1-49.8,8.9c-4.8,1.4-9.8,3.1-13.5,6.5c39.8,1.1,79.9,2.2,119.1-4.7
		c7.6-1.3,15.2-3,22.8-2.3c1.1,0.1,2.4,0.4,2.8,1.4c0.4,0.9-0.1,1.9-0.6,2.7c-3.8,5.6-10.5,8.6-17.1,9.7c-6.7,1.1-13.5,0.4-20.2,0.4
		c-33.3-0.3-65.2,12.7-95.9,25.4c38.3,4.4,76.5-9.3,115-9.7c3.1,0,6.4,0,9.2,1.4c-28.8,18.4-63,28.5-97.2,28.7
		c-9.2,0-20.1,0.1-25.4,7.7c10.8-0.3,21.6-0.6,32.4-0.9c15.2-0.4,30.4-0.8,45.5-2.5c16-1.8,32.3-5,48.1-1.7
		c-3.8,8.4-11.3,14.8-19.6,18.8c-8.3,4.1-17.4,6.2-26.4,8.2c-25.5,5.8-51.1-8.8-76.5-3c-3.3,0.8-5.6,9.1-4.8,12.4
		c30.9,3.6,56.3,12.4,86.6,5.3c16.8-3.9,31.2-14.5,48.2-17.3c-6.3,10.6-11.1,25.7-22.5,30.4C167,258.3,112,248.6,83,243.3"/>
</g>
</svg>
