<?xml version="1.0" encoding="utf-8"?>
<!-- Generator: Adobe Illustrator 23.0.2, SVG Export Plug-In . SVG Version: 6.00 Build 0)  -->
<svg version="1.0" id="Layer_1" xmlns="http://www.w3.org/2000/svg" xmlns:xlink="http://www.w3.org/1999/xlink" x="0px" y="0px"
	 width="432px" height="432px" viewBox="0 0 432 432" enable-background="new 0 0 432 432" xml:space="preserve">
<g id="Layer_3">
	<path fill="#FFFFFF" d="M248.3,332.7l-18.6-112.3v-7l6.6,3l3.4-7l-10-1.3l23.2-46.6L226,134.9l-16.7,1.9l-2.1-9
		c0,0,13.7-5.5,11.9-24.7c-1.7-19.2-10.7-27.3-21.6-25.5c0,0-10.5,2.6-13.7,16.3s5.8,34,13.7,34.3v9.6l-13.7,2.1l-19.1,30.4L191,209
		l-8.4,6.5l6,5.7l5.5-5.4l0.9,6.8l-5.8,111.3L167,345.6l19.4,9l10.2-20.8L213,222.4l26.7,111.3l10.5,21.2l17.1-7.8L248.3,332.7z
		 M179.5,171.7l7.4-10.3l0.7,4.9l3.9,30.3L179.5,171.7z M227.1,158.3l9.3,8l-8,22.6L227.1,158.3z"/>
</g>
<g>
	
		<ellipse transform="matrix(0.9985 -5.423521e-02 5.423521e-02 0.9985 -5.2843 11.0686)" fill="none" stroke="#000000" stroke-width="2" stroke-miterlimit="10" cx="201.3" cy="102.9" rx="18" ry="25.9"/>
	<polyline fill="none" stroke="#000000" stroke-width="2" stroke-miterlimit="10" points="197.6,129 197.6,137.6 209.4,136.3 
		207.3,127.6 	"/>
	<polygon fill="none" stroke="#000000" stroke-width="2" stroke-miterlimit="10" points="183.9,139.7 226.1,134.6 229.7,220.3 
		195.1,222.4 	"/>
	<polyline fill="none" stroke="#000000" stroke-width="2" stroke-miterlimit="10" points="183.9,139.7 164.9,170.1 191.7,209.7 
		182.7,215.3 188.7,221 194.2,215.6 	"/>
	<polyline fill="none" stroke="#000000" stroke-width="2" stroke-miterlimit="10" points="186.8,160.6 179.7,171.7 191.7,197.2 	"/>
	<line fill="none" stroke="#000000" stroke-width="2" stroke-miterlimit="10" x1="164.9" y1="170.1" x2="179.7" y2="171.7"/>
	<polyline fill="none" stroke="#000000" stroke-width="2" stroke-miterlimit="10" points="226.1,134.6 253.3,160.6 229.7,207.7 
		239.7,209.3 236.3,216.3 229.7,213.3 	"/>
	<polyline fill="none" stroke="#000000" stroke-width="2" stroke-miterlimit="10" points="227.1,158 236.3,166.5 228.4,190.3 	"/>
	<line fill="none" stroke="#000000" stroke-width="2" stroke-miterlimit="10" x1="236.3" y1="166.5" x2="253.3" y2="160.6"/>
	<polyline fill="none" stroke="#000000" stroke-width="2" stroke-miterlimit="10" points="195.1,222.4 189.2,333.8 196.8,333.8 
		213.2,221.3 	"/>
	<polyline fill="none" stroke="#000000" stroke-width="2" stroke-miterlimit="10" points="213.2,221.3 239.7,333.8 248.3,332.3 
		229.7,220.3 	"/>
	<polyline fill="none" stroke="#000000" stroke-width="2" stroke-miterlimit="10" points="189.2,333.8 167.1,345.5 186.5,354.5 
		196.8,333.8 	"/>
	<polyline fill="none" stroke="#000000" stroke-width="2" stroke-miterlimit="10" points="239.6,334.4 250.2,354.9 267.3,347.2 
		248.3,332.3 	"/>
</g>
</svg>
