<?xml version="1.0" encoding="utf-8"?>
<!-- Generator: Adobe Illustrator 23.0.2, SVG Export Plug-In . SVG Version: 6.00 Build 0)  -->
<svg version="1.0" id="Layer_1" xmlns="http://www.w3.org/2000/svg" xmlns:xlink="http://www.w3.org/1999/xlink" x="0px" y="0px"
	 width="432px" height="432px" viewBox="0 0 432 432" enable-background="new 0 0 432 432" xml:space="preserve">
<circle fill="none" stroke="#000000" stroke-width="2" stroke-miterlimit="10" cx="216.2" cy="216.2" r="87"/>
<circle fill="none" stroke="#000000" stroke-width="2" stroke-miterlimit="10" cx="216.2" cy="216.2" r="80.2"/>
<g>
	<line fill="none" stroke="#000000" stroke-width="2" stroke-miterlimit="10" x1="216.3" y1="140.6" x2="216.3" y2="161.8"/>
	<line fill="none" stroke="#000000" stroke-width="2" stroke-miterlimit="10" x1="173.7" y1="155.6" x2="186.1" y2="172.9"/>
	<line fill="none" stroke="#000000" stroke-width="2" stroke-miterlimit="10" x1="150.4" y1="184" x2="169.9" y2="192.3"/>
	<line fill="none" stroke="#000000" stroke-width="2" stroke-miterlimit="10" x1="143.7" y1="214.8" x2="165.7" y2="214.8"/>
	<line fill="none" stroke="#000000" stroke-width="2" stroke-miterlimit="10" x1="258.7" y1="156.4" x2="246.3" y2="173.7"/>
	<line fill="none" stroke="#000000" stroke-width="2" stroke-miterlimit="10" x1="282" y1="184.9" x2="262.5" y2="193.2"/>
	<line fill="none" stroke="#000000" stroke-width="2" stroke-miterlimit="10" x1="288.7" y1="215.7" x2="266.7" y2="215.7"/>
	<line fill="none" stroke="#000000" stroke-width="2" stroke-miterlimit="10" x1="216.3" y1="291.7" x2="216.3" y2="270.5"/>
	<line fill="none" stroke="#000000" stroke-width="2" stroke-miterlimit="10" x1="173.7" y1="276.7" x2="186.1" y2="259.4"/>
	<line fill="none" stroke="#000000" stroke-width="2" stroke-miterlimit="10" x1="150.4" y1="248.3" x2="169.9" y2="240"/>
	<line fill="none" stroke="#000000" stroke-width="2" stroke-miterlimit="10" x1="258.7" y1="275.9" x2="246.3" y2="258.6"/>
	<line fill="none" stroke="#000000" stroke-width="2" stroke-miterlimit="10" x1="282" y1="247.4" x2="262.5" y2="239.1"/>
</g>
<g>
	<path fill="none" stroke="#000000" stroke-width="2" stroke-miterlimit="10" d="M207.9,220.2c-1,2-4.8,9.4-4.8,9.4s3.6,0.5,6.9,1"
		/>
	<path fill="none" stroke="#000000" stroke-width="2" stroke-miterlimit="10" d="M218.2,228.8c10.3-7.7,35.7-26.8,35.7-26.8
		s-21.1,8.2-34.7,13.4"/>
	<polygon fill="none" stroke="#000000" stroke-width="2" stroke-miterlimit="10" points="212.5,177.6 207.2,226.4 213.6,235.4 
		220.5,225.8 	"/>
</g>
</svg>
