<?xml version="1.0" encoding="utf-8"?>
<!-- Generator: Adobe Illustrator 21.0.2, SVG Export Plug-In . SVG Version: 6.00 Build 0)  -->
<!DOCTYPE svg PUBLIC "-//W3C//DTD SVG 1.0//EN" "http://www.w3.org/TR/2001/REC-SVG-20010904/DTD/svg10.dtd">
<svg version="1.0" id="Layer_1" xmlns="http://www.w3.org/2000/svg" xmlns:xlink="http://www.w3.org/1999/xlink" x="0px" y="0px"
	 width="288px" height="288px" viewBox="0 0 288 288" enable-background="new 0 0 288 288" xml:space="preserve">
<g id="Fill">
	<g id="Layer_2_2_">
		<path fill="#26A9E0" d="M154.8,13.6c0,0-18,4-18.6,24c-0.6,14.8,6.6,19.9,10.2,21.6c1.3,0.6,2.1,0.7,2.1,0.7S130.3,33,154.8,13.6z
			"/>
		<path fill="#26A9E0" d="M140.2,255.1c2.4-33-0.8-114-0.8-114c7.8,5.8,23.7-0.8,23.7-0.8c-10.8,3.8-27.2-5.7-27.2-5.7
			c-2.3-3.6-2.3-3.6-2.3-3.6c-2.7-0.2-5.3,2.7-8,1.7l3.3,4.1l1.2,9.3l8.5,110.1l7.4,17.2l12-5L140.2,255.1z"/>
		<path fill="#26A9E0" d="M127.7,110.1c1,0.5-0.3,3.7,0,5c0,0,0.3,1.7,0.4,2c0.1,0,1.5,0.4,1.6,0.5c0.3,0.2-0.3,2,0,2.1
			c0.9,0.7-5.3,0.7-4.2,1.3c0.4,0.3,6.4,7.2,6.9,7.4c3.4-26.1,3.6-63.9,3.6-63.9l-7.1-0.5l0.4,33.7L127.7,110.1z"/>
		<polygon fill="#26A9E0" points="128.9,74.4 109.1,85.7 111.1,90.2 129.2,80.6 		"/>
	</g>
</g>
<g id="Lines">
	
		<ellipse transform="matrix(0.2563 -0.9666 0.9666 0.2563 78.2205 175.1304)" fill="none" stroke="#000000" stroke-width="2" stroke-miterlimit="10" cx="152.9" cy="36.7" rx="23.2" ry="16.5"/>
	<path fill="none" stroke="#000000" stroke-width="2" stroke-miterlimit="10" d="M147.1,12.6c0,0,7.1,5.5,21.5,6.8"/>
	<path fill="none" stroke="#000000" stroke-width="2" stroke-miterlimit="10" d="M143.9,15.3c0,0,12.1,9.1,27.3,7.9"/>
	<path fill="none" stroke="#000000" stroke-width="2" stroke-miterlimit="10" d="M141.4,18.5c0,0,14.8,12.7,30.6,8.4"/>
	<polyline fill="none" stroke="#000000" stroke-width="2" stroke-miterlimit="10" points="141.5,56 141.2,64.4 151.3,66 152.4,58.9 
			"/>
	<path fill="none" stroke="#000000" stroke-width="2" stroke-miterlimit="10" d="M127.7,117.2c0.8-12,1.9-35.2,1.3-53.7
		c0,0,21.2,0.7,41.3,7c0,0,7.8,11.8-3.7,53.1"/>
	<path fill="none" stroke="#000000" stroke-width="2" stroke-miterlimit="10" d="M129,63.5l-31.1,21c0,0,1.1,23.3,20.1,38l3.9-4.8
		c0,0-9.9-17.7-10.7-27.5l18.2-9.7"/>
	<path fill="none" stroke="#000000" stroke-width="2" stroke-miterlimit="10" d="M109.5,76.7c0,0-0.5,7.1,1.5,13.6"/>
	<polyline fill="none" stroke="#000000" stroke-width="2" stroke-miterlimit="10" points="121.4,117.5 129.7,117.5 129.7,119.6 
		125.5,120.9 133.6,130.9 125.6,132.7 117.8,122.5 	"/>
	<path fill="none" stroke="#000000" stroke-width="2" stroke-miterlimit="10" d="M168.4,129.4c0,0,29.4-25.9,2.7-57.9"/>
	<line fill="none" stroke="#000000" stroke-width="2" stroke-miterlimit="10" x1="172.7" y1="99.7" x2="182" y2="103.9"/>
	<polygon fill="none" stroke="#000000" stroke-width="2" stroke-miterlimit="10" points="155.6,119.1 155.6,121.7 159.4,124.2 
		150.3,126.1 154.2,133 168.4,129.4 168.4,123.9 	"/>
	<path fill="none" stroke="#000000" stroke-width="2" stroke-miterlimit="10" d="M164.3,131.2c-0.9,3.1-2,6.2-3.1,9.5
		c0,0-9.1,10.5-35.5-6c0,0,0,0-0.1-2"/>
	<path fill="none" stroke="#000000" stroke-width="2" stroke-miterlimit="10" d="M129.4,136.9l9.2,119.3h5.8c0,0,9.2-75,5.4-112.1"
		/>
	<path fill="none" stroke="#000000" stroke-width="2" stroke-miterlimit="10" d="M163.1,135.3c0,0,1.1,94.3-9.8,117.1h-4.9
		c0,0,2.4-74.1,2.2-75.3"/>
	<polygon fill="none" stroke="#000000" stroke-width="2" stroke-miterlimit="10" points="138.2,256.8 147.4,270.9 158,266.2 
		144.3,256.2 	"/>
	<polyline fill="none" stroke="#000000" stroke-width="2" stroke-miterlimit="10" points="148.4,252.4 148.4,256.5 164.2,262.6 
		172,255.1 153.3,252.4 	"/>
</g>
<g id="Stroke">
	
		<path opacity="0" fill="none" stroke="#000000" stroke-width="12" stroke-linecap="round" stroke-linejoin="round" stroke-miterlimit="10" d="
		M154.6,18.5c-5.3-3.1-11.5-4.7-17.6-4.8c5.8,2.7,11.1,6.4,15.7,10.8c-7.4,0-14.7,0-22.1-0.1c6.5,1,12.8,3.4,18.3,7.1
		c-7.3,1.6-14.5,3.2-21.8,4.8c6.8,2.4,13.7,4.7,20.5,7.1c-5.2,2.9-11,4.9-17,5.7c5.7,1.2,11.4,2.4,17.1,3.5c0.1,1.4,0.3,2.8,0.4,4.3
		c-4.5,0-9.1,0.3-13.6,1c1.6,2.8,3.7,5.2,6.4,7.1c-5.2,1.3-10.4,2.2-15.7,2.9c6.3,1.7,11,8,10.8,14.6c-9.8-1.5-19.6-2.9-29.4-4.4
		c11.7,5,23,10.9,33.8,17.6c-13.9,0.2-26.8-9.6-40.5-7.6c14.1,4.6,27.2,12.4,37.8,22.8c-4.9,0.8-9.9,1.7-14.8,2.5
		c6.7,1.8,13.1,4.5,19.1,8.1c-8.3-0.2-16.7,0.4-24.9,1.8c6.9,4.2,14.2,7.7,21.7,10.3c-4.9,1.1-9.9,1.5-14.9,2
		c12.4,2.8,24.9,5.3,37.5,7.4c-12.9-1-25.8-2-38.7-0.8c7.8,0.1,15.6,2.2,22.3,6.1c-6.7,0.8-13.3,2.6-19.4,5.4
		c5.3,3.6,11.2,6.3,17.4,8c-8.3,3.5-16.8,6.2-25.6,8.2c7.5,0.9,14.9,2.5,22.1,4.8c-4.2,2.4-8.4,4.8-12.6,7.2
		c6.4,0.2,12.7,1.2,18.8,3c-7.9,1.6-15.7,3.7-23.4,6.2c8.4,2.1,16.6,5,24.4,8.6c-5.7,1.9-11.5,3.9-17.2,5.8
		c4.9,0.7,9.8,2.1,14.3,4.1c-5,0.6-9.8,2.4-14,5.2c4,1.2,7.9,2.4,11.9,3.6c-3.1,1.3-6,3-8.7,5c2.4,1.8,5.2,3,8.1,3.4
		c-2.2,2.7-4.7,5.2-7.3,7.5c3.4,0.7,6.7,1.4,10.1,2.1c-2.2,1.9-4.8,3.6-7.5,4.7c2.5,0.1,5,0.9,7.1,2.3c-3.1,3.5-6.5,6.7-10.2,9.5
		c3.1,0.4,6.3,0.7,9.4,1.1c-2.3,1.5-4.7,2.9-7,4.4c6.9-0.1,13.8-0.3,20.7-0.5c-3.9,1.5-7.7,3.6-11.2,6c4.6-0.2,9.2-0.3,13.8-0.5
		c-5.6,2.2-11,5.1-16,8.5c6-0.6,12.1-1.2,18.1-1.8c-3.9,2.6-7.9,5.1-11.8,7.7"/>
</g>
</svg>
