<?xml version="1.0" encoding="utf-8"?>
<!-- Generator: Adobe Illustrator 21.0.2, SVG Export Plug-In . SVG Version: 6.00 Build 0)  -->
<!DOCTYPE svg PUBLIC "-//W3C//DTD SVG 1.0//EN" "http://www.w3.org/TR/2001/REC-SVG-20010904/DTD/svg10.dtd">
<svg version="1.0" id="Layer_1" xmlns="http://www.w3.org/2000/svg" xmlns:xlink="http://www.w3.org/1999/xlink" x="0px" y="0px"
	 width="288px" height="288px" viewBox="0 0 288 288" enable-background="new 0 0 288 288" xml:space="preserve">
<g id="Layer_1_1_">
	
		<ellipse transform="matrix(0.1834 -0.983 0.983 0.1834 57.2099 244.6003)" fill="none" stroke="#000000" stroke-width="2" stroke-miterlimit="10" cx="175.8" cy="87.9" rx="21.2" ry="13.8"/>
	<path fill="none" stroke="#000000" stroke-width="2" stroke-miterlimit="10" d="M169,155.5c-2.6,13.5-5,25.8-5,25.8
		s-26.8,0.5-34.4-9.3c0,0,5.2-40.4,22.6-65.4c0,0,16.6,6.2,23.6,13.6c0,0-1.9,9.7-4.1,21.4"/>
	<path fill="none" stroke="#000000" stroke-width="2" stroke-miterlimit="10" d="M164,181.2l14,30.3c0,0-46.3,10.7-73.8-13.1
		l3.5-8.3c0,0,29.6,14.6,51.9,3"/>
	<path fill="none" stroke="#000000" stroke-width="2" stroke-miterlimit="10" d="M129.5,171.9c0,0-4.6,16.9,8.6,25.7"/>
	<polyline fill="none" stroke="#000000" stroke-width="2" stroke-miterlimit="10" points="107.6,190.1 102.7,187 84.8,211.8 
		98.9,215.3 105.3,200.4 	"/>
	<path fill="none" stroke="#000000" stroke-width="2" stroke-miterlimit="10" d="M106.2,187.8l3.3-3.1c0,0,9.6,7.7,23.2,7.5"/>
	<polyline fill="none" stroke="#000000" stroke-width="2" stroke-miterlimit="10" points="100.4,211.8 107.6,209.1 110,202.8 	"/>
	<polyline fill="none" stroke="#000000" stroke-width="2" stroke-miterlimit="10" points="165.2,105.3 162.3,111.1 169.5,115.2 
		171.9,108.7 	"/>
	<path fill="none" stroke="#000000" stroke-width="2" stroke-miterlimit="10" d="M164.7,120.1c0,0,5.2,19.9,9.2,24.7
		c0,0,11-3,19.3-14.8l4.5,2.4c0,0-6.1,26-33.1,23.9c0,0-11.4-13.6-12.1-28.2"/>
	<line fill="none" stroke="#000000" stroke-width="2" stroke-miterlimit="10" x1="174" y1="144.8" x2="164.7" y2="156.3"/>
	<path fill="none" stroke="#000000" stroke-width="2" stroke-miterlimit="10" d="M193.3,130l-0.9-9.9l2.4-1.4l3.5-10.6l3.7,1.2
		c0,0,1.6,7.8,1.2,11.9c-0.3,4.1-5.4,10.8-5.4,10.8"/>
	<path fill="none" stroke="#000000" stroke-width="2" stroke-miterlimit="10" d="M197.8,108.1h-3.2l-3.6,8.4h-2.4v11.7
		c0,0-6.7,10.2-15.4,9.5"/>
	<line fill="none" stroke="#000000" stroke-width="2" stroke-miterlimit="10" x1="189.4" y1="128.6" x2="192.4" y2="130.4"/>
</g>
</svg>
