<?xml version="1.0" encoding="utf-8"?>
<!-- Generator: Adobe Illustrator 23.0.2, SVG Export Plug-In . SVG Version: 6.00 Build 0)  -->
<svg version="1.0" id="Layer_1" xmlns="http://www.w3.org/2000/svg" xmlns:xlink="http://www.w3.org/1999/xlink" x="0px" y="0px"
	 width="432px" height="432px" viewBox="0 0 432 432" enable-background="new 0 0 432 432" xml:space="preserve">
<g>
	<path fill="#27AAE1" d="M223.4,71.3c0,0,25.5,25.1,0,49.1c0,0,13.4-1.8,15.2-20.8S229.6,71.6,223.4,71.3z"/>
	<polygon fill="#27AAE1" points="233.5,125.3 231.1,203.1 208,207.4 231.1,207.9 233.5,344.4 247.4,359.3 259.2,354.8 236.1,344.4 
		238.8,201.1 243.6,126.1 	"/>
	<polygon fill="#27AAE1" points="215.1,207.9 210.9,344.4 191.4,356.2 206.4,362.8 215.1,344.4 222.6,207.9 	"/>
	<polygon points="202.3,126.1 192,131.7 183.9,147 202.3,137.3 	"/>
	<polygon points="244.9,125.4 252.5,148 243.6,158.4 242,155.3 243.6,125.4 	"/>
</g>
<g id="Layer_1_1_">
	<path fill="none" stroke="#000000" stroke-width="2" stroke-miterlimit="10" d="M235.4,72.7c0,0-13.6,4-20.7,0.8"/>
	<path fill="none" stroke="#000000" stroke-width="2" stroke-miterlimit="10" d="M235.4,76.7c-0.8,0.4-15.5,3.5-23.4,0.9"/>
	<path fill="none" stroke="#000000" stroke-width="2" stroke-miterlimit="10" d="M237,80.2c0,0-13.5,4.7-26.9,1.1"/>
	<polyline fill="none" stroke="#000000" stroke-width="2" stroke-miterlimit="10" points="228.3,119.1 228.3,126.1 218.9,126.1 
		218.9,119.3 	"/>
	<polygon fill="none" stroke="#000000" stroke-width="2" stroke-miterlimit="10" points="243.6,126.1 202.3,126.1 206.4,207.9 
		238.8,207.9 	"/>
	<polyline fill="none" stroke="#000000" stroke-width="2" stroke-miterlimit="10" points="202.3,126.1 192.9,131.2 202.3,111.3 
		217.7,110.2 218.8,103.3 202.3,102.4 176.9,131.6 176.6,145.5 202.8,137.1 	"/>
	<line fill="none" stroke="#000000" stroke-width="2" stroke-miterlimit="10" x1="202.3" y1="102.4" x2="202.3" y2="111.3"/>
	<polyline fill="none" stroke="#000000" stroke-width="2" stroke-miterlimit="10" points="243.4,126.1 259.2,164.2 255.7,214.8 
		249.3,214.8 247.4,168.6 242,153.1 	"/>
	<polyline fill="none" stroke="#000000" stroke-width="2" stroke-miterlimit="10" points="249.4,214.7 244.9,222.5 248.4,224.5 
		251.9,220.7 252.9,237.2 260.1,230.4 255.7,214.7 	"/>
	<line fill="none" stroke="#000000" stroke-width="2" stroke-miterlimit="10" x1="247.4" y1="168.6" x2="259.2" y2="164.2"/>
	<polyline fill="none" stroke="#000000" stroke-width="2" stroke-miterlimit="10" points="238.8,207.9 236.1,344.4 229.4,344.4 
		222.6,207.9 215.1,344.4 207.4,344.4 206.4,207.9 	"/>
	<polyline fill="none" stroke="#000000" stroke-width="2" stroke-miterlimit="10" points="236.1,344.4 256.2,352.9 243.4,359.2 
		229.4,344.4 	"/>
	<polyline fill="none" stroke="#000000" stroke-width="2" stroke-miterlimit="10" points="215.1,344.4 204.4,359.2 191.4,352.8 
		207.4,344.4 	"/>
	<path fill="none" stroke="#000000" stroke-width="2" stroke-miterlimit="10" d="M208,102.5c-0.1-0.4-0.1-0.8-0.2-1.2
		c-0.3-1.9-0.4-3.9-0.4-5.9c0-14,7.3-25.3,16.2-25.3c9,0,16.2,11.3,16.2,25.3s-7.3,25.3-16.2,25.3c-5.1,0-9.7-3.7-12.6-9.4"/>
	<path fill="none" stroke="#000000" stroke-width="1.7" stroke-miterlimit="10" d="M217.2,103.2l8.9-0.7l-0.7,3.5l-4,0.9
		c0,0,1.7,4.7-1.4,5.2c-3.8,0.6-2.7,1.2-5.2-1.9"/>
	<line fill="none" stroke="#000000" stroke-width="1.7" stroke-miterlimit="10" x1="203.2" y1="95.4" x2="182.9" y2="89"/>
	<line fill="none" stroke="#000000" stroke-width="1.7" stroke-miterlimit="10" x1="197.7" y1="101" x2="168.6" y2="99.7"/>
	<line fill="none" stroke="#000000" stroke-width="1.7" stroke-miterlimit="10" x1="191.4" y1="107.5" x2="172.6" y2="110"/>
	<line fill="none" stroke="#000000" stroke-width="5" stroke-miterlimit="10" x1="208.4" y1="126.1" x2="211.8" y2="207.9"/>
	<line fill="none" stroke="#000000" stroke-width="5" stroke-miterlimit="10" x1="217" y1="126.1" x2="219.9" y2="207.9"/>
	<line fill="none" stroke="#000000" stroke-width="5" stroke-miterlimit="10" x1="226.1" y1="127.3" x2="227.1" y2="207.9"/>
	<line fill="none" stroke="#000000" stroke-width="5" stroke-miterlimit="10" x1="236.4" y1="126.1" x2="234.1" y2="207.9"/>
</g>
<g id="Layer_2_1_">
	
		<path fill="none" stroke="#000000" stroke-width="29" stroke-linecap="round" stroke-linejoin="round" stroke-miterlimit="10" stroke-opacity="0" d="
		M224.5,72.3c5.4,0,10.7,1.1,15.7,3.2c-6.3,2.1-13.2,2.6-19.8,1.6c7.2,1,14.3,2,21.5,3.1c-3.2,2.6-7.3,4-11.4,3.9
		c6.1,1.3,11.9,3.6,17.2,6.8c-8.5,1.3-17.1,1.9-25.7,1.7c6.8,2.4,13.5,4.7,20.3,7.1c-4.5,1.5-9.3,2.5-14,2.9
		c4.3,1.7,8.5,3.5,12.8,5.2c-6.4,1.3-12.8,2.6-19.2,3.8c6.6,2,13.3,4,19.9,6c-12,0.5-24,1-36,1.4c21.6,7.4,44.4,11.3,67.2,11.7
		c-17.1-0.6-34.2,0.7-51.4,0.1c-2.5-0.1-5-0.2-7.4-0.7c-2-0.4-4-1-6-1.6c-5.1-1.4-10.7-1.9-15.5,0.2c-0.3,0.1-0.7,0.3-0.6,0.7
		c0,0.4,0.4,0.6,0.8,0.6c4.2,1,8.7-0.1,13,0.8c0.4,0.1,0.8,0.2,1,0.5c0.4,0.5,0.1,1.4-0.5,1.8c-0.6,0.4-1.3,0.4-2,0.4
		c-5.1,0-10.2,0.4-15.2,1.4c-0.4,0.1-0.8,0.3-0.8,0.6c5.2,2.8,12.4-1,17.2,2.4c-0.2,0.7-1,0.9-1.7,1c-2.6,0.3-5.2,0-7.8,0.3
		c-3.2,0.4-6.4,0.3-9.6,0.6c2.4,1.2,5.3,0.6,7.9,1.2c0.1,0,0.3,0.1,0.4,0.2c0.1,0.2,0,0.5-0.1,0.6c-0.4,0.4-1.1,0.5-1.8,0.5
		c-2.5,0-5.1-0.5-7.3,0.6c2.1,0.8,4.5,0.8,6.8,0.7c-1.5,0.9-3.4,0.7-5.2,0.7c-1.8-0.1-3.7,0.1-4.9,1.4c2.2,0.4,4.5,0.8,6.6,0.2
		c1-0.3,2-0.9,3-1.3c3.6-1.6,7.3-1.1,11.2-1.1c3.6,0,7.5,0.7,11,0.2c3.9-0.5,7.5-2.3,11.4-3.1c10.6-2.2,20.4-5.1,31.2-1.7
		c0.3,0.1,0.7,0.2,0.8,0.6c0.2,0.6-0.4,1.1-0.9,1.3c-8.1,3.7-17.8,2.1-26.2,5.2c9.9-0.8,19.9-1.1,29.8-0.7c-1.2,1.7-3.2,2.8-5.3,3.3
		c-2.1,0.5-4.2,0.5-6.4,0.5c-4.4-0.1-8.8-0.2-13.3,0.1c-3,0.2-6,0.6-8.7,1.7c10.6,1.8,21.4,2.8,32.2,3c-0.4,1.4-2,2.1-3.5,2.3
		c-4.6,0.7-9.2-0.9-13.7-1.9c-6.4-1.3-13-1.4-19.5-1.4c-0.7,0-1.7,0.3-1.6,1c8,0.8,15.9,2.1,23.7,3.9c1.7,0.4,3.4,0.8,5,1.6
		c-2.2,1.7-5.4,0.4-8.1,0.5c-2.2,0.1-4.3,1.1-6.4,1.7c-2.2,0.6-4.6,0.9-6.8,1.3c-5.6,1.1-11.1,2.5-16.5,4.1
		c18.4,3.6,36.9,6.7,55.5,9.1c-21.3,0-43.2,0.1-62.8,8.3c12.6,4.2,25.7,7,38.9,8.4c-13.7,1.4-27.3,2.7-41,4.1
		c-4.7,0.5-9.6,1-13.4,3.7c23.7,3,47.6,4.4,71.5,4.1c-18.4-1.5-36.9-2.9-55.4-4c-5.9-0.3-12.2-0.6-17.3,2.5
		c28.7,2.9,57.4,5.7,86.1,8.6c-27.3-0.8-54.6-1.6-81.8-1.9c-5.4-0.1-11.4,0.2-15.1,4c24.9,7.1,50.8,10,76.5,12.7
		c-18.2-1.5-36.7-0.7-54.7,2.3c17.9,4.3,36.2,7.4,54.5,9.2c-20.4-0.4-40.8-0.7-61.2-1.1c0.5,3.4,4.6,4.8,7.9,5.6
		c14.9,3.3,29.9,6.6,44.8,9.9c-11.7,0-23.4,0.4-35,1.3c-3.6,0.3-7.8,1-9.6,4.2c16.8,8.8,35.9,12,54.6,15.1
		c-14.3-1.5-28.8-2-43.2-1.5c9.5,4.1,19.5,7.3,29.6,9.4c-12.6-0.1-25.2,0.6-37.7,2.3c-4.6,0.6-10,2.1-11.2,6.5
		c14.6,8,31.2,11.3,47.5,14.5c-14.3-1.7-28.9-0.8-42.9,2.8c22.3,8.6,46.5,10.5,70.3,12.3c-19.1-0.6-38.2-0.2-57.3,1.3
		c14.8,4.9,30.2,8,45.8,9.1c-21.3-0.1-42.6-0.2-63.8,0.4c-6.6,0.2-13.4,0.5-19.3,3.5c0.6,2.3,3.3,3.3,5.7,3.8
		c12.5,2.8,24.9,5.5,37.4,8.3c-12.1-0.5-24.4,2.3-35.1,8c35.5,6.3,71.8,5.8,107.9,5.3c-25.1-3.3-50.6-4-75.9-2.1
		c18,0.7,36.2-0.5,53.9-3.8c-33.5-4.8-67.2-8.5-101-11c10.3,2.2,20.8,3.1,31.3,2.7"/>
</g>
</svg>
