<?xml version="1.0" encoding="utf-8"?>
<!-- Generator: Adobe Illustrator 23.0.2, SVG Export Plug-In . SVG Version: 6.00 Build 0)  -->
<svg version="1.0" xmlns="http://www.w3.org/2000/svg" xmlns:xlink="http://www.w3.org/1999/xlink" x="0px" y="0px" width="595.3px"
	 height="841.9px" viewBox="0 0 595.3 841.9" enable-background="new 0 0 595.3 841.9" xml:space="preserve">
<g id="Color">
	<path fill="#28A2C9" d="M272.9,539.2h-40.5c-5.5,0-9.9-4.4-9.9-9.9V312.6c0-5.5,4.4-9.9,9.9-9.9h40.5c5.5,0,9.9,4.4,9.9,9.9v216.6
		C282.8,534.7,278.3,539.2,272.9,539.2z"/>
	<path fill="#28A2C9" d="M362.9,539.2h-40.5c-5.5,0-9.9-4.4-9.9-9.9V312.6c0-5.5,4.4-9.9,9.9-9.9h40.5c5.5,0,9.9,4.4,9.9,9.9v216.6
		C372.8,534.7,368.3,539.2,362.9,539.2z"/>
</g>
<g id="Layer_2">
	
		<path opacity="0" fill="none" stroke="#000000" stroke-width="28" stroke-linecap="round" stroke-linejoin="round" stroke-miterlimit="10" d="
		M178.6,290.2c82.9-3.1,166.1-0.8,248.7,7.1c-18,11.9-41.6,8.3-63,6c-40.9-4.4-82.2-2.2-123.2-0.1c-22.6,1.2-45.3,2.4-67.2,8.2
		c3.5,2.6,7.8,3.7,12.1,4.7c76.1,17.5,156.5-0.8,233.3,13.3c3.8,0.7,7.7,1.6,10.5,4.2c-6.1,5.3-14.6,6.7-22.7,7.5
		c-37.1,3.7-74.4-0.3-111.6-1.7c-37.2-1.5-75.4-0.2-110.1,13.2c60.5,13.3,123.1,10.6,185,9.8c16.7-0.2,34.6,0,48.4,9.4
		c-63.5,13.7-129.4,5.7-194.2,8.3c-20.6,0.8-42.5,3.2-58.8,15.8c48.1,3.9,96.4,5.1,144.6,3.6c33-1,68-2.8,96.6,13.7
		c-19.1,9.8-41.9,7.6-63.3,5.3c-37.4-3.9-75-7.1-112.6-7.1c-18.5,0-37.1,0.8-55.1,5.1c57.9,12.5,117.4,17.5,176.6,14.9
		c19.8-0.9,41.6-2,57,10.4c-8.6,2.9-17.8,3-26.9,3.1c-57.4,0.3-114.9,0.7-172.3,1c-14,0.1-28.2,0.2-41.5,4.5
		c66.7,6.6,133.5,13.2,200.5,13.2c17.1,0,36.1,0.3,48.7,11.8c-34,11.3-70.4,13.3-106.2,12.7c-35.8-0.7-75.5-14.1-107.4-2.8
		c-3.5,1.2-8,0.7-9.7,4c46.8,5.2,93.7,10.4,140.8,10.9c29.4,0.3,61.1-0.5,85.2,16.3c-73.8,10.4-137.9-1.6-212.3,1.7
		c-6.8,0.3-25.9,5.1-28.5,11.4c42.8,3.2,85.7-4.6,128.7-4.9c35.3-0.2,70.4,4.7,105.3,9.7c-23.2,4.2-46.6,6.9-70.1,8.3
		c-13.4,0.8-27,1.1-39.9,4.8c-9.8,2.8-19.8,1.4-29.8,3.6c-10.1,2.3-20.4-3.3-30.7-3.6c-7.3-0.2-14.1,11.1-21.4,11"/>
</g>
</svg>
