<?xml version="1.0" encoding="utf-8"?>
<!-- Generator: Adobe Illustrator 21.0.2, SVG Export Plug-In . SVG Version: 6.00 Build 0)  -->
<!DOCTYPE svg PUBLIC "-//W3C//DTD SVG 1.0//EN" "http://www.w3.org/TR/2001/REC-SVG-20010904/DTD/svg10.dtd">
<svg version="1.0" id="Layer_1" xmlns="http://www.w3.org/2000/svg" xmlns:xlink="http://www.w3.org/1999/xlink" x="0px" y="0px"
	 width="504px" height="504px" viewBox="0 0 504 504" enable-background="new 0 0 504 504" xml:space="preserve">
<g id="Layer_2">
	<path fill="#27AAE1" d="M235,43.4c0,0-15.6,24.9,0.7,44.5c0,0-13.5-1-13.9-21C221.3,47,235,43.4,235,43.4z"/>
	<polygon fill="#27AAE1" points="223.4,93.2 227,163.7 247.2,167.5 228.7,167.5 224.5,291.4 217.4,307.4 204.1,301.3 221.5,291.4 
		220.3,167.5 216.5,93.2 	"/>
	<polygon fill="#27AAE1" points="241.2,167.5 244.5,291.4 264.5,301.8 252.8,307.4 241.2,291.4 235,167.5 	"/>
	<polygon fill="#27AAE1" points="216.9,101.5 207.5,129.8 208.2,173.6 211,173.6 212.9,131.7 217.7,117.7 	"/>
</g>
<g id="Layer_1_1_">
	<ellipse fill="none" stroke="#000000" stroke-width="2" stroke-miterlimit="10" cx="235.7" cy="65.7" rx="14" ry="22.3"/>
	<path fill="none" stroke="#000000" stroke-width="2" stroke-miterlimit="10" d="M244.9,45.4c0,0-11.1,2.1-17,0"/>
	<path fill="none" stroke="#000000" stroke-width="2" stroke-miterlimit="10" d="M246.6,48.3c-1,0.6-11.7,3.1-21,0.5"/>
	<path fill="none" stroke="#000000" stroke-width="2" stroke-miterlimit="10" d="M247.7,51.6c0,0-11.5,4.9-23.2,0.6"/>
	<polyline fill="none" stroke="#000000" stroke-width="2" stroke-miterlimit="10" points="240.2,86.8 240.2,93.2 231.6,93.2 
		231.6,87 	"/>
	<polygon fill="none" stroke="#000000" stroke-width="2" stroke-miterlimit="10" points="254,93.2 216.5,93.2 220.3,167.5 
		249.7,167.5 	"/>
	<polyline fill="none" stroke="#000000" stroke-width="2" stroke-miterlimit="10" points="216.5,93.2 202.2,127.8 205.4,173.7 
		211.1,173.7 212.9,131.7 217.7,117.7 	"/>
	<polyline fill="none" stroke="#000000" stroke-width="2" stroke-miterlimit="10" points="211,173.6 215.1,180.8 212,182.6 
		208.7,179.1 207.9,194.1 201.3,187.9 205.3,173.6 	"/>
	<line fill="none" stroke="#000000" stroke-width="2" stroke-miterlimit="10" x1="212.9" y1="131.7" x2="202.2" y2="127.8"/>
	<polyline fill="none" stroke="#000000" stroke-width="2" stroke-miterlimit="10" points="253.9,93.2 268.2,127.8 265,173.7 
		259.2,173.7 257.5,131.7 252.6,117.7 	"/>
	<polyline fill="none" stroke="#000000" stroke-width="2" stroke-miterlimit="10" points="259.3,173.6 255.2,180.8 258.4,182.6 
		261.6,179.1 262.5,194.1 269,187.9 265,173.6 	"/>
	<line fill="none" stroke="#000000" stroke-width="2" stroke-miterlimit="10" x1="257.5" y1="131.7" x2="268.2" y2="127.8"/>
	<polyline fill="none" stroke="#000000" stroke-width="2" stroke-miterlimit="10" points="249.7,167.5 247.2,291.4 241.2,291.4 
		235,167.5 228.2,291.4 221.2,291.4 220.3,167.5 	"/>
	<polyline fill="none" stroke="#000000" stroke-width="2" stroke-miterlimit="10" points="247.2,291.4 265.4,299.2 253.9,304.9 
		241.2,291.4 	"/>
	<polyline fill="none" stroke="#000000" stroke-width="2" stroke-miterlimit="10" points="228.2,291.4 218.4,304.9 206.6,299.1 
		221.2,291.4 	"/>
	<ellipse fill="none" stroke="#000000" stroke-width="2" stroke-miterlimit="10" cx="185.8" cy="344.1" rx="18.3" ry="27.1"/>
	<path fill="none" stroke="#000000" stroke-width="2" stroke-miterlimit="10" d="M159.7,379.2c0,0,24.9-16,49.5,0l7.2,71.2
		c0,0-42.3,15.8-63.2,0L159.7,379.2z"/>
	<path fill="none" stroke="#000000" stroke-width="2" stroke-miterlimit="10" d="M155.9,452.2l7.3,15.5c0,0,16.2,5.1,40.2,0
		l7.4-15.5"/>
	<path fill="none" stroke="#000000" stroke-width="2" stroke-miterlimit="10" d="M159.6,380.4l-22.6,67l-20.4,4.9
		c0,0,2.1,5.8,2.7,5.2c0.6-0.6,18.8-1.9,18.8-1.9l6.1,3.2l4-3l-3.2-6.7l11.3-33.2"/>
	<path fill="none" stroke="#000000" stroke-width="2" stroke-miterlimit="10" d="M209.3,380l23.2,67.3l20.4,4.9c0,0-2.1,5.8-2.7,5.2
		s-18.8-1.9-18.8-1.9l-6.1,3.2l-4-3l3.2-6.7l-11.4-32.2"/>
	<polygon fill="none" stroke="#000000" stroke-width="2" stroke-miterlimit="10" points="358.9,208.9 351.3,308.8 358.9,308.8 
		373.2,208.9 	"/>
	<polygon fill="none" stroke="#000000" stroke-width="2" stroke-miterlimit="10" points="362.2,308.8 292.2,306.9 293.4,323.6 
		362.2,320.3 	"/>
	<polyline fill="none" stroke="#000000" stroke-width="2" stroke-miterlimit="10" points="300.1,323.3 305,382.1 309.6,382.1 
		309.6,323.6 	"/>
	<polyline fill="none" stroke="#000000" stroke-width="2" stroke-miterlimit="10" points="358.9,320.5 358.9,381.2 351.3,381.2 
		348.2,321 	"/>
	<line fill="none" stroke="#000000" stroke-width="2" stroke-miterlimit="10" x1="309.6" y1="348" x2="349.6" y2="348"/>
	<line fill="none" stroke="#000000" stroke-width="2" stroke-miterlimit="10" x1="309.6" y1="355.3" x2="349.9" y2="354.1"/>
	
		<ellipse transform="matrix(2.972084e-02 -0.9996 0.9996 2.972084e-02 122.8753 532.6253)" fill="none" stroke="#000000" stroke-width="2" stroke-miterlimit="10" cx="335.8" cy="203" rx="24.3" ry="16.4"/>
	<path fill="none" stroke="#000000" stroke-width="2" stroke-miterlimit="10" d="M328.3,295.2c-3.5,0.4-6,0.7-6,0.7
		s8.5-22.1,7.2-59.7c0,0,19.1-7.5,20-7.2c0.9,0.3,6.6,23.3,2.9,63.4c0,0-8.3,1-16.2,1.9"/>
	<path fill="none" stroke="#000000" stroke-width="2" stroke-miterlimit="10" d="M337.2,242.4l-10,60l-15.5,1.5c0,0-0.4,1.5-0.8,3.2
		"/>
	<line fill="none" stroke="#000000" stroke-width="2" stroke-miterlimit="10" x1="332.4" y1="308.8" x2="344.9" y2="256"/>
	<polyline fill="none" stroke="#000000" stroke-width="2" stroke-miterlimit="10" points="322.3,295.8 282.4,296.6 290.7,366.2 
		296.2,366.2 297.4,323.6 	"/>
	<path fill="none" stroke="#000000" stroke-width="2" stroke-miterlimit="10" d="M290.7,366.2c-2.4,0.4-24.1,9.5-24.1,9.5l15.8,6.4
		l13.8-15.9"/>
	<polyline fill="none" stroke="#000000" stroke-width="2" stroke-miterlimit="10" points="290.2,362 263.2,363.8 272.4,373.3 	"/>
	<line fill="none" stroke="#000000" stroke-width="2" stroke-miterlimit="10" x1="335.1" y1="227.4" x2="335.3" y2="234"/>
	<line fill="none" stroke="#000000" stroke-width="2" stroke-miterlimit="10" x1="342.4" y1="225.2" x2="343.5" y2="230.2"/>
</g>
<g id="Layer_3">
	<path fill="none" stroke="#70BF44" stroke-width="15" stroke-miterlimit="10" stroke-opacity="0" d="M234.4,42.3
		c3.6,0.2,7.1,0.4,10.7,0.6c-5.5,1.7-11.1,2.7-16.8,3c7.1,0.2,14.3,0.4,21.4,0.5c-8.2,1.4-16.3,2.9-24.5,4.3c5.4,0,10.8,0,16.2,0
		c-6.3,1.7-12.6,3.3-18.9,5c5.3,0,10.7,0.1,16,0.1c-6.5,1.3-12.8,3.3-18.9,6.1c7.4-0.3,14.8-0.7,22.2-1c-7.6,1.7-15.2,3.3-22.8,5
		c9.7,0,19.4,0.1,29,0.1c-9.9,2.5-19.8,5-29.7,7.5c7.8-1,15.7-1,23.5,0.1c-9.3,1.7-18.7,3.4-28,5c8.7,0.7,17.4,1.4,26.1,2.1
		c-6.2,1.8-12.6,3.1-19,4c7.9,0.5,15.9,1,23.8,1.4c-12.3,1.2-24.5,3.4-36.4,6.5c10.3,0.7,20.7,0.9,31,0.7
		c-10.2,2.4-20.3,4.7-30.5,7.1c10.2-0.3,20.3-0.6,30.5-1c-10.6,2.6-21.2,5.3-31.8,7.9c10.8-0.6,21.6-1.1,32.5-1.7
		c-11.6,0.8-23.2,3.2-34.1,7.2c8.8-0.4,17.6-0.9,26.4-1.3c-10.8,2.3-21.4,5.3-31.7,9c11.8,0.1,23.6,0.1,35.3,0.2
		c-11.8,0-23.7,2.2-34.8,6.3c13.8-0.5,27.5-1,41.3-1.5c-11.4,0.6-22.6,3.3-33,7.8c14.8-0.8,29.5-1.6,44.3-2.4
		c-18.6,3.2-37.1,7.1-55.4,11.8c12.6,0.8,25.3,0.9,37.9,0.2c-14,0.9-27.8,3.9-40.9,9c15.5,0.2,31,0.4,46.6,0.6
		c-14.8,1.8-29.5,4.8-43.8,9c18.8-1.1,37.7-1.6,56.5-1.4c-20.1,2.8-40.2,5.7-60.3,8.5c15.7,1,31.4,1.1,47.1,0.6
		c-19.1,1.7-38.1,3.4-57.2,5.1c20.9,3.2,42.1,2.9,63.2,2.6c-11.6,1.1-23.2,3.5-34.3,7.2c15.6,0.8,31.3,1,47,0.5
		c-22.3,5.6-45.7,2.3-68.7,3.5c-3.4,0.2-7.2,0.7-9.2,3.4c20.9,1.1,41.7,2.2,62.6,3.2c-9.2,1.7-18.4,3.9-27.4,6.7
		c11.5,2.5,23.3,3.5,35,2.9c-12,1.2-23.8,3.5-35.3,7c8.2,2.3,16.7,3.2,25.2,2.7c-7.3,0.8-14.5,2.6-21.2,5.4c8.6,2,17.4,3.2,26.2,3.5
		c-6.4,0.6-12.8,2.4-18.6,5.2c7,0.9,13.9,1.8,20.9,2.8c-10-0.3-20,3.4-27.3,10.2c9.8,2,19.8,2.6,29.8,1.9
		c-8.9,0.1-17.9,1.9-26.1,5.4c9.3,0.5,18.7,0.9,28,1.4c-9.3,2.9-18.1,6.9-26.4,12c11.3,0.3,22.6,0.6,33.8,0.9
		c-13.8-0.1-28.1-0.1-41,5c12.5,1.3,25.1,1.1,37.5-0.4c-11.5,0.9-22.8,4.1-32.9,9.5c12.4-0.1,24.8-0.1,37.2-0.2
		c-14.1,2.6-28.3,5.3-42.4,7.9c13.3-0.4,26.6-0.8,39.9-1.2c-20.2,1.6-40.3,4.5-60.1,8.6c18.6,0.5,37.2-0.4,55.7-2.6
		c-9.9,1.1-19.7,2.8-29.3,5.2c-2.9,0.7-6.3,1.9-7.2,4.8c21.6,1.5,43.4,0.2,64.7-3.8c-24.8,1.7-54.6,5.1-79.4,5.8
		c15.5-1.6,36-5.3,51.5-6.9c-12.6,1.5-25.1,2.9-37.7,4.4c19.5-2.3,39.1-4.6,58.6-7c-14.1,1.5-28,4.7-41.3,9.6
		c10.6,0.9,21.2,1.1,31.8,0.8c-6.2,1.4-12.3,2.9-18.5,4.3c5.5,0.8,11.3-0.7,15.7-4.1"/>
</g>
</svg>
