<?xml version="1.0" encoding="utf-8"?>
<!-- Generator: Adobe Illustrator 23.0.2, SVG Export Plug-In . SVG Version: 6.00 Build 0)  -->
<svg version="1.0" id="Layer_1" xmlns="http://www.w3.org/2000/svg" xmlns:xlink="http://www.w3.org/1999/xlink" x="0px" y="0px"
	 width="504px" height="504px" viewBox="0 0 504 504" enable-background="new 0 0 504 504" xml:space="preserve">
<g id="Layer_1_1_">
	<ellipse fill="none" stroke="#000000" stroke-width="2" stroke-miterlimit="10" cx="290.5" cy="343.1" rx="18.3" ry="27.1"/>
	<path fill="none" stroke="#000000" stroke-width="2" stroke-miterlimit="10" d="M264.4,378.2c0,0,24.9-16,49.5,0l7.2,71.2
		c0,0-42.3,15.8-63.2,0L264.4,378.2z"/>
	<path fill="none" stroke="#000000" stroke-width="2" stroke-miterlimit="10" d="M260.5,451.2l7.3,15.5c0,0,16.2,5.1,40.2,0
		l7.4-15.5"/>
	<path fill="none" stroke="#000000" stroke-width="2" stroke-miterlimit="10" d="M264.2,379.4l-22.6,67l-20.4,4.9
		c0,0,2.1,5.8,2.7,5.2c0.6-0.6,18.8-1.9,18.8-1.9l6.1,3.2l4-3l-3.2-6.7l11.3-33.2"/>
	<path fill="none" stroke="#000000" stroke-width="2" stroke-miterlimit="10" d="M314,379l23.2,67.3l20.4,4.9c0,0-2.1,5.8-2.7,5.2
		s-18.8-1.9-18.8-1.9l-6.1,3.2l-4-3l3.2-6.7l-11.4-32.2"/>
	
		<ellipse transform="matrix(0.9822 -0.1877 0.1877 0.9822 -55.7664 41.491)" fill="none" stroke="#000000" stroke-width="2" stroke-miterlimit="10" cx="191.2" cy="315.2" rx="16" ry="23.8"/>
	<line fill="none" stroke="#000000" stroke-width="2" stroke-miterlimit="10" x1="179.3" y1="328.6" x2="175.8" y2="334.5"/>
	<path fill="none" stroke="#000000" stroke-width="2" stroke-miterlimit="10" d="M188,397.5l16,5.8l8-4L196.8,343l-27.2-10.7
		c0,0-14,18.5-23.2,75.8c0,0,24.5,9.7,40.7,5.7l3.2-52.2"/>
	<path fill="none" stroke="#000000" stroke-width="2" stroke-miterlimit="10" d="M189.8,372c0,0.7,5.3,20.5,12.9,30.8"/>
	<path fill="none" stroke="#000000" stroke-width="2" stroke-miterlimit="10" d="M212,399.3l19.7,6.5V421c0,0-20,15.8-32.3,16
		s-42.5-3.7-45.8-9.7s-5.7-18.7-5.7-18.7"/>
	<path fill="none" stroke="#000000" stroke-width="2" stroke-miterlimit="10" d="M187.3,411.9c0,0,13.7-5.5,32.4-6.5"/>
	<g id="Layer_1_2_">
		
			<ellipse transform="matrix(0.983 -0.1834 0.1834 0.983 -27.5769 44.3689)" fill="none" stroke="#000000" stroke-width="2" stroke-miterlimit="10" cx="226.1" cy="171.3" rx="13.8" ry="21.2"/>
		<path fill="none" stroke="#000000" stroke-width="2" stroke-miterlimit="10" d="M230.2,225c-2.2-11.7-4.1-21.4-4.1-21.4
			c7-7.4,23.6-13.6,23.6-13.6c17.4,25,22.6,65.4,22.6,65.4c-7.6,9.8-34.4,9.3-34.4,9.3s-2.4-12.3-5-25.8"/>
		<path fill="none" stroke="#000000" stroke-width="2" stroke-miterlimit="10" d="M242.3,276.5c22.3,11.6,51.9-3,51.9-3l3.5,8.3
			c-27.5,23.8-73.8,13.1-73.8,13.1l14-30.3"/>
		<path fill="none" stroke="#000000" stroke-width="2" stroke-miterlimit="10" d="M263.8,281c13.2-8.8,8.6-25.7,8.6-25.7"/>
		<polyline fill="none" stroke="#000000" stroke-width="2" stroke-miterlimit="10" points="296.6,283.8 303,298.7 317.1,295.2 
			299.2,270.4 294.3,273.5 		"/>
		<path fill="none" stroke="#000000" stroke-width="2" stroke-miterlimit="10" d="M269.2,275.6c13.6,0.2,23.2-7.5,23.2-7.5l3.3,3.1"
			/>
		<polyline fill="none" stroke="#000000" stroke-width="2" stroke-miterlimit="10" points="291.9,286.2 294.3,292.5 301.5,295.2 		
			"/>
		<polyline fill="none" stroke="#000000" stroke-width="2" stroke-miterlimit="10" points="230,192.1 232.4,198.6 239.6,194.5 
			236.7,188.7 		"/>
		<path fill="none" stroke="#000000" stroke-width="2" stroke-miterlimit="10" d="M249.4,211.5c-0.7,14.6-12.1,28.2-12.1,28.2
			c-27,2.1-33.1-23.9-33.1-23.9l4.5-2.4c8.3,11.8,19.3,14.8,19.3,14.8c4-4.8,9.2-24.7,9.2-24.7"/>
		<line fill="none" stroke="#000000" stroke-width="2" stroke-miterlimit="10" x1="237.2" y1="239.7" x2="227.9" y2="228.2"/>
		<path fill="none" stroke="#000000" stroke-width="2" stroke-miterlimit="10" d="M204.1,215.4c0,0-5.1-6.7-5.4-10.8
			c-0.4-4.1,1.2-11.9,1.2-11.9l3.7-1.2l3.5,10.6l2.4,1.4l-0.9,9.9"/>
		<path fill="none" stroke="#000000" stroke-width="2" stroke-miterlimit="10" d="M228.7,221.1c-8.7,0.7-15.4-9.5-15.4-9.5v-11.7
			h-2.4l-3.6-8.4h-3.2"/>
		<line fill="none" stroke="#000000" stroke-width="2" stroke-miterlimit="10" x1="209.5" y1="213.8" x2="212.5" y2="212"/>
	</g>
</g>
</svg>
