<?xml version="1.0" encoding="utf-8"?>
<!-- Generator: Adobe Illustrator 23.0.2, SVG Export Plug-In . SVG Version: 6.00 Build 0)  -->
<svg version="1.0" xmlns="http://www.w3.org/2000/svg" xmlns:xlink="http://www.w3.org/1999/xlink" x="0px" y="0px" width="504px"
	 height="504px" viewBox="0 0 504 504" enable-background="new 0 0 504 504" xml:space="preserve">
<g id="Color">
	<g>
		<path fill="#27AAE1" d="M255.1,155.5c0,0-19.1,25.5-6.6,41.1c0,0-9.7-6.3-9.1-16.6c0.6-10.3,5.6-17.8,5.6-17.8
			S249.8,156,255.1,155.5z"/>
		<g>
			<path fill="#27AAE1" d="M223.8,285.1l-12,0.4l-15.5-3.4l-13.1-6.8l3.2-2.6c0,0,7.9,5.7,12.1,6c4.2,0.2,10.6,0.5,10.6,0.5
				s-4.8-9.2-1.6-23.7s13.1-43.3,13.1-43.3l9.9-17.4l3.7,1.6c0,0-18.6,42.7-18.8,61.3C215.3,276.3,223.8,285.1,223.8,285.1z"/>
			<path fill="#27AAE1" d="M161.4,298.8l17.4-20.5c22.6,23.7,74.8,16.4,74.8,16.4l0.9,5.4l-4,0.7c0,0-27.6,0.9-28.4,1.4
				c-0.7,0.5-9.4-1.8-18.7-3.9c-9.4-2.1-21.4-10.6-21.4-10.6l-4.1,9l4.1-10v1.1l4.2,3.7c0,0-1.2,4.8-2.2,5.2
				c-0.9,0.3-5.7,1.1-6.4,1.3l-1.4,4.7L161.4,298.8z"/>
		</g>
	</g>
</g>
<g id="Fill">
	<g id="Layer_3">
		<path fill="none" stroke="#27AAE1" stroke-width="18" stroke-miterlimit="10" stroke-opacity="0" d="M233.8,155.9
			c8.8-1.4,17.8-1.3,26.5,0.2c-11.4,1.6-22.7,3.3-34.1,4.9c13,0.7,25.9,1.8,38.8,3.2c-14.3,1.2-28.5,3.4-42.5,6.5
			c16.4,2,32.9,3.6,49.4,4.8c-22.8,2.5-45.7,4.9-68.2,9.9c18.4,1.1,36.8,2.1,55.2,3.2c-18.9,3.2-37.9,6.3-56.8,9.5
			c18.7,3.4,38.3,0.6,56.5,6c-21.6,1.1-43.4,2.1-64.1,8.2c16.6,1.3,33.3,2.6,49.2,7.3c-14.1,0.6-28.1,1.8-42.1,3.7
			c-4.3,0.6-9,1.4-12.1,4.3c13.2,2.4,26.5,4.7,39.8,6.8c-11.3,5.1-23.6,7.7-35.7,10.3c14.8,1.6,29.4,4.2,43.8,7.6
			c-20.8,2-41.5,4.8-62.1,8.2c-2.3,0.4-4.7,0.8-6.4,2.4c21.8,0.5,43.7,1.5,65,5.9c-29.8,2.4-59.6,4.7-89.5,7.1
			c-1.4,0.1-3.1,0.6-3.2,1.9c34,2.7,68.4-0.7,102.3,3.2c-6.2,3.3-13.5,3.9-20.6,4.2c-24.3,1.2-48.9,0.2-72.7,4.9
			c36.4,9.2,74.5-0.4,112.1-1.3c-24.6,4.1-49.8,0.6-74.5,3.7c-4.8,0.6-9.7,1.5-14,3.6c25.9,6,53,7.1,79.3,3.1"/>
	</g>
</g>
<g id="Lines">
	<ellipse fill="none" stroke="#000000" stroke-width="2" stroke-miterlimit="10" cx="185.8" cy="344.1" rx="18.3" ry="27.1"/>
	<path fill="none" stroke="#000000" stroke-width="2" stroke-miterlimit="10" d="M159.7,379.2c0,0,24.9-16,49.5,0l7.2,71.2
		c0,0-42.3,15.8-63.2,0L159.7,379.2z"/>
	<path fill="none" stroke="#000000" stroke-width="2" stroke-miterlimit="10" d="M155.9,452.2l7.3,15.5c0,0,16.2,5.1,40.2,0
		l7.4-15.5"/>
	<path fill="none" stroke="#000000" stroke-width="2" stroke-miterlimit="10" d="M159.6,380.4l-22.6,67l-20.4,4.9
		c0,0,2.1,5.8,2.7,5.2c0.6-0.6,18.8-1.9,18.8-1.9l6.1,3.2l4-3l-3.2-6.7l11.3-33.2"/>
	<path fill="none" stroke="#000000" stroke-width="2" stroke-miterlimit="10" d="M209.3,380l23.2,67.3l20.4,4.9c0,0-2.1,5.8-2.7,5.2
		s-18.8-1.9-18.8-1.9l-6.1,3.2l-4-3l3.2-6.7l-11.4-32.2"/>
	<polygon fill="none" stroke="#000000" stroke-width="2" stroke-miterlimit="10" points="358.9,208.9 351.3,308.8 358.9,308.8 
		373.2,208.9 	"/>
	<polygon fill="none" stroke="#000000" stroke-width="2" stroke-miterlimit="10" points="362.2,308.8 292.2,306.9 293.4,323.6 
		362.2,320.3 	"/>
	<polyline fill="none" stroke="#000000" stroke-width="2" stroke-miterlimit="10" points="300.1,323.3 305,382.1 309.6,382.1 
		309.6,323.6 	"/>
	<polyline fill="none" stroke="#000000" stroke-width="2" stroke-miterlimit="10" points="358.9,320.5 358.9,381.2 351.3,381.2 
		348.2,321 	"/>
	<line fill="none" stroke="#000000" stroke-width="2" stroke-miterlimit="10" x1="309.6" y1="348" x2="349.6" y2="348"/>
	<line fill="none" stroke="#000000" stroke-width="2" stroke-miterlimit="10" x1="309.6" y1="355.3" x2="349.9" y2="354.1"/>
	
		<ellipse transform="matrix(2.971960e-02 -0.9996 0.9996 2.971960e-02 122.892 532.5861)" fill="none" stroke="#000000" stroke-width="2" stroke-miterlimit="10" cx="335.8" cy="203" rx="24.3" ry="16.4"/>
	<path fill="none" stroke="#000000" stroke-width="2" stroke-miterlimit="10" d="M328.3,295.2c-3.5,0.4-6,0.7-6,0.7
		s8.5-22.1,7.2-59.7c0,0,19.1-7.5,20-7.2s6.6,23.3,2.9,63.4c0,0-8.3,1-16.2,1.9"/>
	<path fill="none" stroke="#000000" stroke-width="2" stroke-miterlimit="10" d="M337.2,242.4l-10,60l-15.5,1.5c0,0-0.4,1.5-0.8,3.2
		"/>
	<line fill="none" stroke="#000000" stroke-width="2" stroke-miterlimit="10" x1="332.4" y1="308.8" x2="344.9" y2="256"/>
	<polyline fill="none" stroke="#000000" stroke-width="2" stroke-miterlimit="10" points="322.3,295.8 282.4,296.6 290.7,366.2 
		296.2,366.2 297.4,323.6 	"/>
	<path fill="none" stroke="#000000" stroke-width="2" stroke-miterlimit="10" d="M290.7,366.2c-2.4,0.4-24.1,9.5-24.1,9.5l15.8,6.4
		l13.8-15.9"/>
	<polyline fill="none" stroke="#000000" stroke-width="2" stroke-miterlimit="10" points="290.2,362 263.2,363.8 272.4,373.3 	"/>
	<line fill="none" stroke="#000000" stroke-width="2" stroke-miterlimit="10" x1="335.1" y1="227.4" x2="335.3" y2="234"/>
	<line fill="none" stroke="#000000" stroke-width="2" stroke-miterlimit="10" x1="342.4" y1="225.2" x2="343.5" y2="230.2"/>
	
		<ellipse transform="matrix(0.1834 -0.983 0.983 0.1834 34.3549 392.8995)" fill="none" stroke="#000000" stroke-width="2" stroke-miterlimit="10" cx="253.7" cy="175.8" rx="21.2" ry="13.8"/>
	<path fill="none" stroke="#000000" stroke-width="2" stroke-miterlimit="10" d="M246.8,243.4c-2.6,13.5-5,25.8-5,25.8
		s-26.8,0.5-34.4-9.3c0,0,5.2-40.4,22.6-65.4c0,0,16.6,6.2,23.6,13.6c0,0-1.9,9.7-4.1,21.4"/>
	<path fill="none" stroke="#000000" stroke-width="2" stroke-miterlimit="10" d="M241.8,269.1l14,30.3c0,0-46.3,10.7-73.8-13.1
		l3.5-8.3c0,0,29.6,14.6,51.9,3"/>
	<path fill="none" stroke="#000000" stroke-width="2" stroke-miterlimit="10" d="M207.3,259.8c0,0-4.6,16.9,8.6,25.7"/>
	<polyline fill="none" stroke="#000000" stroke-width="2" stroke-miterlimit="10" points="185.4,278 180.5,274.9 162.6,299.7 
		176.7,303.2 183.1,288.3 	"/>
	<path fill="none" stroke="#000000" stroke-width="2" stroke-miterlimit="10" d="M184,275.7l3.3-3.1c0,0,9.6,7.7,23.2,7.5"/>
	<polyline fill="none" stroke="#000000" stroke-width="2" stroke-miterlimit="10" points="178.2,299.7 185.4,297 187.8,290.7 	"/>
	<polyline fill="none" stroke="#000000" stroke-width="2" stroke-miterlimit="10" points="243,193.2 240.1,199 247.3,203.1 
		249.7,196.6 	"/>
	<path fill="none" stroke="#000000" stroke-width="2" stroke-miterlimit="10" d="M242.5,208c0,0,5.2,19.9,9.2,24.7
		c0,0,11-3,19.3-14.8l4.5,2.4c0,0-6.1,26-33.1,23.9c0,0-11.4-13.6-12.1-28.2"/>
	<line fill="none" stroke="#000000" stroke-width="2" stroke-miterlimit="10" x1="251.8" y1="232.7" x2="242.5" y2="244.2"/>
	<path fill="none" stroke="#000000" stroke-width="2" stroke-miterlimit="10" d="M271.1,217.9l-0.9-9.9l2.4-1.4l3.5-10.6l3.7,1.2
		c0,0,1.6,7.8,1.2,11.9c-0.3,4.1-5.4,10.8-5.4,10.8"/>
	<path fill="none" stroke="#000000" stroke-width="2" stroke-miterlimit="10" d="M275.6,196h-3.2l-3.6,8.4h-2.4v11.7
		c0,0-6.7,10.2-15.4,9.5"/>
	<line fill="none" stroke="#000000" stroke-width="2" stroke-miterlimit="10" x1="267.2" y1="216.5" x2="270.2" y2="218.3"/>
	<path fill="none" stroke="#000000" stroke-width="2" stroke-miterlimit="10" d="M267,159.8c0,0-16.1-0.2-20.2-3.3"/>
	<path fill="none" stroke="#000000" stroke-width="2" stroke-miterlimit="10" d="M268.7,162.8c0,0-15.3,2.7-23.8-3"/>
	<path fill="none" stroke="#000000" stroke-width="2" stroke-miterlimit="10" d="M269.3,166.3c0,0-19.6,3-26.8-3.5"/>
</g>
</svg>
