<?xml version="1.0" encoding="utf-8"?>
<!-- Generator: Adobe Illustrator 23.0.2, SVG Export Plug-In . SVG Version: 6.00 Build 0)  -->
<svg version="1.0" xmlns="http://www.w3.org/2000/svg" xmlns:xlink="http://www.w3.org/1999/xlink" x="0px" y="0px" width="504px"
	 height="504px" viewBox="0 0 504 504" enable-background="new 0 0 504 504" xml:space="preserve">
<g id="Color">
	<path fill="#27AAE1" d="M446.8,129.1c0,0,15.7,17.7,0,47.9l3.5,4.5c0,0,11.9,11.8,3.5,59.4l-0.7,2.6l-1.3,10.4h-54.9l6.2,63.9
		l2.5-44h-4l-1.2-16.7l59.1,1.9l2.3-52.8c0,0-0.9-22.9-4.1-27l-4.1,1.2l-1.9-2.5l-1.1-2.5c0,0,10.2-8,9.9-21.6
		C460,140,454.8,131.1,446.8,129.1z"/>
</g>
<g id="Layer_1">
	<ellipse fill="none" stroke="#000000" stroke-width="2" stroke-miterlimit="10" cx="253" cy="359" rx="18.3" ry="27.1"/>
	<path fill="none" stroke="#000000" stroke-width="2" stroke-miterlimit="10" d="M226.9,394.1c0,0,24.9-16,49.5,0l7.2,71.2
		c0,0-42.3,15.8-63.2,0L226.9,394.1z"/>
	<path fill="none" stroke="#000000" stroke-width="2" stroke-miterlimit="10" d="M223.1,467.1l7.3,15.5c0,0,16.2,5.1,40.2,0
		l7.4-15.5"/>
	<path fill="none" stroke="#000000" stroke-width="2" stroke-miterlimit="10" d="M226.8,395.3l-22.6,67l-20.4,4.9
		c0,0,2.1,5.8,2.7,5.2c0.6-0.6,18.8-1.9,18.8-1.9l6.1,3.2l4-3l-3.2-6.7l11.3-33.2"/>
	<path fill="none" stroke="#000000" stroke-width="2" stroke-miterlimit="10" d="M276.5,394.9l23.2,67.3l20.4,4.9
		c0,0-2.1,5.8-2.7,5.2s-18.8-1.9-18.8-1.9l-6.1,3.2l-4-3l3.2-6.7l-11.4-32.2"/>
	
		<ellipse transform="matrix(0.1877 -0.9822 0.9822 0.1877 -41.8453 611.467)" fill="none" stroke="#000000" stroke-width="2" stroke-miterlimit="10" cx="348.8" cy="331" rx="23.8" ry="16"/>
	<line fill="none" stroke="#000000" stroke-width="2" stroke-miterlimit="10" x1="360.7" y1="344.4" x2="364.3" y2="350.3"/>
	<path fill="none" stroke="#000000" stroke-width="2" stroke-miterlimit="10" d="M351.9,413.3l-16,5.8l-8-4l15.2-56.3l27.2-10.7
		c0,0,14,18.5,23.2,75.8c0,0-24.5,9.7-40.7,5.7l-3.2-52.2"/>
	<path fill="none" stroke="#000000" stroke-width="2" stroke-miterlimit="10" d="M350.2,387.8c0,0.7-5.3,20.5-12.9,30.8"/>
	<path fill="none" stroke="#000000" stroke-width="2" stroke-miterlimit="10" d="M327.9,415.1l-19.7,6.5v15.2c0,0,20,15.8,32.3,16
		s42.5-3.7,45.8-9.7s5.7-18.7,5.7-18.7"/>
	<path fill="none" stroke="#000000" stroke-width="2" stroke-miterlimit="10" d="M352.6,427.6c0,0-13.7-5.5-32.4-6.5"/>
	<polygon fill="none" stroke="#000000" stroke-width="2" stroke-miterlimit="10" points="467,158.9 459.4,258.8 467,258.8 
		481.3,158.9 	"/>
	<polygon fill="none" stroke="#000000" stroke-width="2" stroke-miterlimit="10" points="470.3,258.8 400.3,256.9 401.5,273.6 
		470.3,270.3 	"/>
	<polyline fill="none" stroke="#000000" stroke-width="2" stroke-miterlimit="10" points="408.2,273.3 413.1,332.1 417.7,332.1 
		417.7,273.6 	"/>
	<polyline fill="none" stroke="#000000" stroke-width="2" stroke-miterlimit="10" points="467,270.5 467,331.2 459.4,331.2 
		456.3,271 	"/>
	<line fill="none" stroke="#000000" stroke-width="2" stroke-miterlimit="10" x1="417.7" y1="298" x2="457.7" y2="298"/>
	<line fill="none" stroke="#000000" stroke-width="2" stroke-miterlimit="10" x1="417.7" y1="305.3" x2="458" y2="304.1"/>
	
		<ellipse transform="matrix(2.972084e-02 -0.9996 0.9996 2.972084e-02 277.7516 592.3161)" fill="none" stroke="#000000" stroke-width="2" stroke-miterlimit="10" cx="444" cy="153.1" rx="24.3" ry="16.4"/>
	<path fill="none" stroke="#000000" stroke-width="2" stroke-miterlimit="10" d="M436.4,245.2c-3.5,0.4-6,0.7-6,0.7
		s8.5-22.1,7.2-59.7c0,0,19.1-7.5,20-7.2s6.6,23.3,2.9,63.4c0,0-8.3,1-16.2,1.9"/>
	<path fill="none" stroke="#000000" stroke-width="2" stroke-miterlimit="10" d="M445.3,192.4l-10,60l-15.5,1.5c0,0-0.4,1.5-0.8,3.2
		"/>
	<line fill="none" stroke="#000000" stroke-width="2" stroke-miterlimit="10" x1="440.5" y1="258.8" x2="453" y2="206"/>
	<polyline fill="none" stroke="#000000" stroke-width="2" stroke-miterlimit="10" points="430.4,245.8 390.5,246.6 398.8,316.2 
		404.3,316.2 405.5,273.6 	"/>
	<path fill="none" stroke="#000000" stroke-width="2" stroke-miterlimit="10" d="M398.8,316.2c-2.4,0.4-24.1,9.5-24.1,9.5l15.8,6.4
		l13.8-15.9"/>
	<polyline fill="none" stroke="#000000" stroke-width="2" stroke-miterlimit="10" points="398.3,312 371.3,313.8 380.5,323.3 	"/>
	<line fill="none" stroke="#000000" stroke-width="2" stroke-miterlimit="10" x1="443.2" y1="177.4" x2="443.4" y2="184"/>
	<line fill="none" stroke="#000000" stroke-width="2" stroke-miterlimit="10" x1="450.5" y1="175.2" x2="451.6" y2="180.2"/>
	
		<ellipse transform="matrix(0.9822 -0.1877 0.1877 0.9822 -59.4139 34.7532)" fill="none" stroke="#000000" stroke-width="2" stroke-miterlimit="10" cx="153.8" cy="331.1" rx="16" ry="23.8"/>
	<line fill="none" stroke="#000000" stroke-width="2" stroke-miterlimit="10" x1="141.9" y1="344.5" x2="138.3" y2="350.4"/>
	<path fill="none" stroke="#000000" stroke-width="2" stroke-miterlimit="10" d="M150.6,413.4l16,5.8l8-4l-15.2-56.3l-27.2-10.7
		c0,0-14,18.5-23.2,75.8c0,0,24.5,9.7,40.7,5.7l3.2-52.2"/>
	<path fill="none" stroke="#000000" stroke-width="2" stroke-miterlimit="10" d="M152.4,387.9c0,0.7,5.3,20.5,12.9,30.8"/>
	<path fill="none" stroke="#000000" stroke-width="2" stroke-miterlimit="10" d="M174.6,415.2l19.7,6.5v15.2c0,0-20,15.8-32.3,16
		s-42.5-3.7-45.8-9.7s-5.7-18.7-5.7-18.7"/>
	<path fill="none" stroke="#000000" stroke-width="2" stroke-miterlimit="10" d="M149.9,427.8c0,0,13.7-5.5,32.4-6.5"/>
	
		<ellipse transform="matrix(0.9996 -2.972084e-02 2.972084e-02 0.9996 -4.3132 1.83)" fill="none" stroke="#000000" stroke-width="2" stroke-miterlimit="10" cx="59.4" cy="146" rx="16.4" ry="24.3"/>
	<line fill="none" stroke="#000000" stroke-width="2" stroke-miterlimit="10" x1="52.9" y1="168.1" x2="51.7" y2="173.1"/>
	<line fill="none" stroke="#000000" stroke-width="2" stroke-miterlimit="10" x1="60.1" y1="170.3" x2="59.9" y2="176.8"/>
	<path fill="none" stroke="#000000" stroke-width="2" stroke-miterlimit="10" d="M66.9,238c3.5,0.4,6,0.7,6,0.7s-8.5-22.1-7.2-59.7
		c0,0-19.1-7.5-20-7.2s-6.6,23.3-2.9,63.4c0,0,8.3,1,16.2,1.9"/>
	<path fill="none" stroke="#000000" stroke-width="2" stroke-miterlimit="10" d="M58.1,185.2l10,60l15.5,1.5c0,0,0.4,1.5,0.8,3.2"/>
	<line fill="none" stroke="#000000" stroke-width="2" stroke-miterlimit="10" x1="62.8" y1="251.7" x2="50.4" y2="198.9"/>
	<polyline fill="none" stroke="#000000" stroke-width="2" stroke-miterlimit="10" points="72.9,238.7 112.9,239.5 104.5,309.1 
		99.1,309.1 97.8,266.5 	"/>
	<path fill="none" stroke="#000000" stroke-width="2" stroke-miterlimit="10" d="M104.5,309.1c2.4,0.4,24.1,9.5,24.1,9.5l-15.8,6.4
		L99,309.1"/>
	<polyline fill="none" stroke="#000000" stroke-width="2" stroke-miterlimit="10" points="105,304.9 132,306.7 122.9,316.2 	"/>
	<polygon fill="none" stroke="#000000" stroke-width="2" stroke-miterlimit="10" points="36.4,151.8 44,251.7 36.4,251.7 
		22.1,151.8 	"/>
	<polygon fill="none" stroke="#000000" stroke-width="2" stroke-miterlimit="10" points="33,251.7 103,249.8 101.8,266.5 33,263.2 	
		"/>
	<polyline fill="none" stroke="#000000" stroke-width="2" stroke-miterlimit="10" points="95.1,266.2 90.2,325 85.7,325 85.7,266.5 
			"/>
	<polyline fill="none" stroke="#000000" stroke-width="2" stroke-miterlimit="10" points="36.4,263.3 36.4,324.1 44,324.1 47,263.9 
			"/>
	<line fill="none" stroke="#000000" stroke-width="2" stroke-miterlimit="10" x1="85.7" y1="290.9" x2="45.6" y2="290.9"/>
	<line fill="none" stroke="#000000" stroke-width="2" stroke-miterlimit="10" x1="85.7" y1="298.2" x2="45.3" y2="297"/>
	<path fill="none" stroke="#000000" stroke-width="2" stroke-miterlimit="10" d="M456.3,132.7c0,0-13.9,5-28.7,0"/>
	<path fill="none" stroke="#000000" stroke-width="2" stroke-miterlimit="10" d="M456.3,136.6c0,0-14.6,4.3-28.7,0"/>
	<path fill="none" stroke="#000000" stroke-width="2" stroke-miterlimit="10" d="M450.5,131.1c-1-0.5-6.8,1.9-12.8,0"/>
</g>
<g id="Layer_3">
	
		<path opacity="0" fill="none" stroke="#000000" stroke-width="11" stroke-linecap="round" stroke-linejoin="round" stroke-miterlimit="10" d="
		M458.3,128.6c-5.5-0.6-11.2,1.8-14.8,6c6.7-0.2,13.5,0.5,20.1,2c-5.9,3.3-12.6,5.3-19.4,5.6c1.9,3.3,6.7,3.3,10.5,3
		c3.8-0.2,8.7,0.4,9.9,4.1c-6.9,1.2-13.9,1.8-20.9,1.9c4.3,1.5,8.7,3,13,4.5c3.5,1.2,7.5,2.8,8.7,6.4c-6.4-0.3-12.7,0-19,0.8
		c3.3,1.7,6.7,3.4,10,5.1c0.6,0.3,1.3,0.7,1.4,1.4c0.1,0.9-0.9,1.6-1.8,1.9c-4.6,1.9-9.2,3.8-13.8,5.7c3.1,2,7.2,2.3,10.5,0.8
		c-2.1,1.8-4.3,3.4-6.6,4.8c5.8,0.6,11.7,0.6,17.6,0.1c-4.6,3.1-9.4,5.8-14.5,8c4.2-0.1,8.4-0.2,12.6-0.3c-1.7,3.2-4.1,6-7,8.2
		c3.7-0.1,7.4,1.2,10.3,3.6c-3.6,2.3-7.8,3.8-12.1,4.3c3.2,1,6.4,2,9.6,2.9c-0.8,4.7-6.4,6.6-11,7.6c3.4,0.6,6.9,1.2,10.3,1.8
		c0.5,0.1,1,0.2,1.4,0.5c1.3,1.2-0.5,3.2-2.2,3.9c-3.2,1.4-6.6,2.3-10.1,2.8c4.9,1.5,9.5,4.1,13.5,7.4c-4.8,1.5-9.8,2.4-14.8,2.8
		c3.6,2,7.1,3.9,10.7,5.9c-5.9,1.6-12.2,2.1-18.3,1.5c6.5,4.7,13.7,8.4,21.3,11.1c-11.6-0.9-23.3-0.6-35-0.4
		c-11.3,0.2-22.6,0.4-33.8,0.7c2.1,1.5,4.5,2.6,7,3.1c-2.3,1.3-4.6,2.6-6.9,3.9c3.3,2.1,7,3.7,10.9,4.6c-2.7,1.8-5.6,3.3-8.6,4.6
		c3.1,1.1,5.9,2.8,8.3,5c-2.6,1.5-5.1,3.1-7.7,4.6c2.5,1.7,5,3.4,7.5,5c-2,0.6-3.9,1.7-5.3,3.3c2.9,0.9,5.6,2.2,8.2,3.9
		c-4.1,1.8-8.3,3.6-12.4,5.5c4.6,1.9,9.3,3.8,13.9,5.7c-3.5,0.9-6.9,2.4-10,4.4c2.3,1.6,4.8,2.8,7.5,3.6c-1.9,0.6-3.8,1.3-5.7,1.9
		c3,1.5,6,3,9.1,4.4"/>
</g>
</svg>
