<?xml version="1.0" encoding="utf-8"?>
<!-- Generator: Adobe Illustrator 23.0.2, SVG Export Plug-In . SVG Version: 6.00 Build 0)  -->
<svg version="1.0" id="Layer_1" xmlns="http://www.w3.org/2000/svg" xmlns:xlink="http://www.w3.org/1999/xlink" x="0px" y="0px"
	 width="432px" height="432px" viewBox="0 0 432 432" enable-background="new 0 0 432 432" xml:space="preserve">
<g>
	<path fill="#FFFFFF" d="M246.7,269.9c-0.1,0-0.3,0-0.4,0c-27-3.1-38.6-22.4-42.8-32.6c-35.2-3.1-60.5-18.7-60.5-37.6
		c0-21.4,32.1-38.2,73-38.2s73,16.8,73,38.2c0,18.9-25,34.4-59.9,37.5c2.5,16.6,19.1,26,19.3,26.1c1.5,0.8,2.1,2.5,1.6,4.1
		C249.6,268.9,248.2,269.9,246.7,269.9z"/>
	<path d="M216,165c38.4,0,69.5,15.5,69.5,34.7c0,17.6-26.2,32.1-60.2,34.3c0.7,20.9,21.4,32.4,21.4,32.4
		c-26.7-3.1-37.3-23-40.8-32.4c-33.6-2.4-59.4-16.8-59.4-34.3C146.5,180.5,177.6,165,216,165 M216,158c-19.6,0-38.2,3.9-52.3,10.9
		c-15.6,7.8-24.2,18.7-24.2,30.8c0,11,7.3,21.3,20.6,28.9c10.8,6.2,25.2,10.4,40.9,12c5.1,11.2,17.6,29.6,44.8,32.7
		c0.3,0,0.5,0,0.8,0c3,0,5.7-1.9,6.7-4.9c1-3.2-0.3-6.6-3.3-8.3c-0.1-0.1-12.8-7.4-16.7-20c14.6-1.8,28-5.8,38.2-11.6
		c13.5-7.6,20.9-17.9,20.9-29c0-12.1-8.6-23-24.2-30.8C254.2,161.9,235.6,158,216,158L216,158z"/>
</g>
</svg>
