<?xml version="1.0" encoding="utf-8"?>
<!-- Generator: Adobe Illustrator 19.2.1, SVG Export Plug-In . SVG Version: 6.00 Build 0)  -->
<svg version="1.0" id="Layer_1" xmlns="http://www.w3.org/2000/svg" xmlns:xlink="http://www.w3.org/1999/xlink" x="0px" y="0px"
	 width="288px" height="288px" viewBox="0 0 288 288" enable-background="new 0 0 288 288" xml:space="preserve">
<circle fill="none" stroke="#000000" stroke-width="2" stroke-miterlimit="10" cx="105.7" cy="160.5" r="19.1"/>
<path fill="none" stroke="#000000" stroke-width="2" stroke-miterlimit="10" d="M154.8,168.2V152h-12.1c-1-4.4-2.8-8.6-5.2-12.2
	l8.7-8.7l-11.4-11.4l-8.8,8.8c-3.7-2.3-7.8-4-12.2-5V111H97.6v12.5c-4.4,1-8.5,2.7-12.2,5l-8.8-8.8l-11.4,11.4l8.7,8.7
	c-2.4,3.7-4.2,7.8-5.2,12.2H56.6v16.2h12c0.9,4.5,2.7,8.8,5.1,12.6l-8.4,8.4l11.4,11.4l8.3-8.3c3.8,2.5,8.1,4.3,12.7,5.3v11.6h16.2
	v-11.6c4.6-1,8.9-2.8,12.7-5.3l8.3,8.3l11.4-11.4l-8.4-8.4c2.4-3.8,4.1-8,5.1-12.6H154.8z"/>
<ellipse transform="matrix(0.2921 -0.9564 0.9564 0.2921 16.8092 266.4039)" fill="none" stroke="#000000" stroke-width="2" stroke-miterlimit="10" cx="188.4" cy="121.8" rx="16.5" ry="16.5"/>
<path fill="none" stroke="#000000" stroke-width="2" stroke-miterlimit="10" d="M227.1,140.6l4.1-13.4l-10-3.1
	c0.3-3.9-0.2-7.8-1.2-11.4l9.4-5l-6.6-12.4l-9.5,5c-2.5-2.9-5.4-5.3-8.8-7.2l3.1-10.3l-13.4-4.1L191,89.1c-3.9-0.3-7.7,0.1-11.3,1.1
	l-5-9.5l-12.4,6.6l5,9.4c-2.9,2.4-5.4,5.4-7.4,8.8l-10-3.1l-4.1,13.4l9.9,3c-0.4,4,0,7.9,1,11.7l-9,4.8l6.6,12.4l8.9-4.8
	c2.5,3,5.6,5.6,9.1,7.6l-2.9,9.6l13.4,4.1l2.9-9.6c4,0.3,8-0.1,11.8-1.2l4.8,8.9l12.4-6.6l-4.8-9c2.9-2.5,5.5-5.6,7.4-9.1
	L227.1,140.6z"/>
</svg>
