<?xml version="1.0" encoding="utf-8"?>
<!-- Generator: Adobe Illustrator 19.2.1, SVG Export Plug-In . SVG Version: 6.00 Build 0)  -->
<svg version="1.0" id="Layer_1" xmlns="http://www.w3.org/2000/svg" xmlns:xlink="http://www.w3.org/1999/xlink" x="0px" y="0px"
	 width="720px" height="1152px" viewBox="0 0 720 1152" enable-background="new 0 0 720 1152" xml:space="preserve">
<ellipse transform="matrix(0.9926 -0.1211 0.1211 0.9926 -109.49 44.1895)" fill="none" stroke="#000000" stroke-width="2" stroke-miterlimit="10" cx="308.9" cy="923.2" rx="14.8" ry="20"/>
<line fill="none" stroke="#000000" stroke-width="2" stroke-miterlimit="10" x1="306.8" y1="942.7" x2="307.7" y2="948.6"/>
<line fill="none" stroke="#000000" stroke-width="2" stroke-miterlimit="10" x1="316.3" y1="941.2" x2="317.6" y2="947"/>
<path fill="none" stroke="#000000" stroke-width="2" stroke-miterlimit="10" d="M302.9,1009.8c-2.2-12.4-10.5-58.8-10.5-58.8l33-5.3
	l5,64.8c0,0-0.2,0-0.7,0.1"/>
<polyline fill="none" stroke="#000000" stroke-width="2" stroke-miterlimit="10" points="325.4,945.7 349.3,973 349.3,1010.9 
	356.6,1022.2 342.9,1022.2 337.3,1011.2 333.3,1009.7 333.9,1006.9 341.8,1006.9 339.3,978 326.9,964.4 "/>
<line fill="none" stroke="#000000" stroke-width="2" stroke-miterlimit="10" x1="293.1" y1="954.8" x2="288.8" y2="997.2"/>
<line fill="none" stroke="#000000" stroke-width="2" stroke-miterlimit="10" x1="297.8" y1="981.2" x2="294.5" y2="999.9"/>
<polygon fill="none" stroke="#000000" stroke-width="2" stroke-miterlimit="10" points="330.4,1010.5 311.4,999.4 273.1,1047.7 
	276.8,1050.4 316.4,1016.7 330.4,1014.7 "/>
<polyline fill="none" stroke="#000000" stroke-width="2" stroke-miterlimit="10" points="301.8,1003.5 284.8,995.2 244.3,1019.2 
	245.8,1022.2 285.9,1009.4 298.8,1015.2 "/>
<polyline fill="none" stroke="#000000" stroke-width="2" stroke-miterlimit="10" points="273.1,1047.7 251.1,1055.5 262.1,1067.4 
	276.8,1050.4 "/>
<polygon fill="none" stroke="#000000" stroke-width="2" stroke-miterlimit="10" points="244.3,1019.2 222.4,1021.2 230.9,1029 
	246.1,1023.4 "/>
<ellipse transform="matrix(0.2814 -0.9596 0.9596 0.2814 -586.6788 1068.3208)" fill="none" stroke="#000000" stroke-width="2" stroke-miterlimit="10" cx="419.9" cy="925.9" rx="20" ry="14.8"/>
<line fill="none" stroke="#000000" stroke-width="2" stroke-miterlimit="10" x1="418.9" y1="945.4" x2="417" y2="951.1"/>
<line fill="none" stroke="#000000" stroke-width="2" stroke-miterlimit="10" x1="409.8" y1="942.5" x2="407.5" y2="947.9"/>
<path fill="none" stroke="#000000" stroke-width="2" stroke-miterlimit="10" d="M411.7,1012.3c4.2-11.9,19.9-56.3,19.9-56.3
	L400,945.4l-15.5,63.1c0,0,0.2,0.1,0.6,0.2"/>
<polyline fill="none" stroke="#000000" stroke-width="2" stroke-miterlimit="10" points="400,945.4 372,968.4 365.8,1005.8 
	356.7,1015.8 370.2,1018 377.5,1008 381.8,1007.2 381.6,1004.3 373.9,1003 381.1,975 395.5,963.6 "/>
<line fill="none" stroke="#000000" stroke-width="2" stroke-miterlimit="10" x1="430.4" y1="959.7" x2="427.7" y2="1002.1"/>
<line fill="none" stroke="#000000" stroke-width="2" stroke-miterlimit="10" x1="421.4" y1="984.9" x2="421.7" y2="1003.9"/>
<polygon fill="none" stroke="#000000" stroke-width="2" stroke-miterlimit="10" points="384.5,1008.5 405,1000.6 435,1054.5 
	430.9,1056.6 397.3,1016.9 383.8,1012.6 "/>
<polyline fill="none" stroke="#000000" stroke-width="2" stroke-miterlimit="10" points="413.9,1006.2 432,1000.8 468.1,1031.1 
	466.1,1033.8 428.6,1014.6 414.9,1018.3 "/>
<polyline fill="none" stroke="#000000" stroke-width="2" stroke-miterlimit="10" points="435,1054.5 455.4,1065.9 442.6,1075.7 
	430.9,1056.6 "/>
<polygon fill="none" stroke="#000000" stroke-width="2" stroke-miterlimit="10" points="468.1,1031.1 489.3,1036.7 479.6,1043 
	465.6,1034.9 "/>
<ellipse transform="matrix(0.9983 -5.791032e-02 5.791032e-02 0.9983 -44.7805 21.7813)" fill="none" stroke="#000000" stroke-width="2" stroke-miterlimit="10" cx="353.4" cy="783.5" rx="14.8" ry="20"/>
<polyline fill="none" stroke="#000000" stroke-width="2" stroke-miterlimit="10" points="351,803.1 350.6,809.6 360.9,809.2 
	358.9,802.4 "/>
<polygon fill="none" stroke="#000000" stroke-width="2" stroke-miterlimit="10" points="336.5,810.8 374.5,808.4 371.9,866.9 
	343.8,866.9 "/>
<polyline fill="none" stroke="#000000" stroke-width="2" stroke-miterlimit="10" points="340.7,810.5 322.5,761.8 302.5,760.5 
	304.2,765.9 314.5,768.3 338.1,822.8 "/>
<polyline fill="none" stroke="#000000" stroke-width="2" stroke-miterlimit="10" points="370.8,808.7 380.9,761.3 398.7,759.9 
	398.4,764.9 387.5,767.7 374.2,815.4 "/>
<polyline fill="none" stroke="#000000" stroke-width="2" stroke-miterlimit="10" points="371.9,866.9 388.5,947.2 399,940.2 
	399.9,947.9 383.8,956.3 357.6,877.2 337.7,956.7 325.6,941.8 327.5,934.4 334.6,940.9 343.8,866.9 "/>
<ellipse transform="matrix(0.9926 -0.1211 0.1211 0.9926 -71.5207 47.0471)" fill="none" stroke="#000000" stroke-width="2" stroke-miterlimit="10" cx="351.4" cy="612.1" rx="11.9" ry="16.1"/>
<path fill="none" stroke="#000000" stroke-width="2" stroke-miterlimit="10" d="M364,611.9c3.6-0.5,6.1-0.8,6.1-0.8l1.1,58.5
	l-28.1,1.8l-10.8-55.5c0,0,3.3-0.4,8-1"/>
<polyline fill="none" stroke="#000000" stroke-width="2" stroke-miterlimit="10" points="336.5,615.4 315.2,567.9 295.2,567.9 
	297.2,573.1 307.7,574.9 334.7,627.8 "/>
<polyline fill="none" stroke="#000000" stroke-width="2" stroke-miterlimit="10" points="366.5,611.6 373.5,563.6 382.6,546.7 
	387.1,553.7 379.1,565.2 370.2,618.1 "/>
<polyline fill="none" stroke="#000000" stroke-width="2" stroke-miterlimit="10" points="343.1,671.4 321.6,754.8 300.3,751 
	300.3,760.5 325.3,760.5 356.6,680.5 379.8,760.5 402.6,758.8 402.6,749.5 384.8,751.8 371.2,669.6 "/>
<ellipse transform="matrix(0.9891 -0.1474 0.1474 0.9891 -79.8358 33.0475)" fill="none" stroke="#000000" stroke-width="2" stroke-miterlimit="10" cx="183.1" cy="555.3" rx="9.8" ry="15.8"/>
<polyline fill="none" stroke="#000000" stroke-width="2" stroke-miterlimit="10" points="181.8,570.4 183.1,576 190.3,574.3 
	189.1,569 "/>
<path fill="none" stroke="#000000" stroke-width="2" stroke-miterlimit="10" d="M199.5,583.3c2.9,14.6,7.6,38.6,7.6,38.6l-25.3,5.9
	l-6.9-49.1c0,0,16.1-4.4,21.1-5.8"/>
<polyline fill="none" stroke="#000000" stroke-width="2" stroke-miterlimit="10" points="188.9,581.4 214.4,549.7 230.4,544 
	230.4,548.1 215.9,555.3 196.1,589.2 "/>
<path fill="none" stroke="#000000" stroke-width="2" stroke-miterlimit="10" d="M207.1,621.9c0,0,8.2,5.2,8.2,5.9
	c0,0.7,2.2,37.5,2.2,37.5h9.5v6.1l-17-1.8l-3-33.4l-13.2-10.1l-0.8,22.6l-25,29l9,2.5l-2.2,5.2l-18.8-5.2l25.7-32.2v-20.2"/>
<polygon fill="none" stroke="#000000" stroke-width="2" stroke-miterlimit="10" points="346.7,503.6 336.7,472.3 283.7,493.3 
	352.7,594.6 415.7,493.6 370.7,463.6 "/>
<polyline fill="none" stroke="#000000" stroke-width="2" stroke-miterlimit="10" points="321,548.1 313.7,555.3 295.7,554 "/>
<polyline fill="none" stroke="#000000" stroke-width="2" stroke-miterlimit="10" points="327,556.8 317.1,566.6 293.4,566.6 "/>
<polyline fill="none" stroke="#000000" stroke-width="2" stroke-miterlimit="10" points="317.3,480 310.2,459.3 288.4,459.3 "/>
<path fill="none" stroke="#000000" stroke-width="2" stroke-miterlimit="10" d="M288.4,471.6c1.7,0,16-2,16-2l5.8,13.2"/>
<polyline fill="none" stroke="#000000" stroke-width="2" stroke-miterlimit="10" points="390.1,534.7 407.1,544 428.7,539.3 "/>
<polyline fill="none" stroke="#000000" stroke-width="2" stroke-miterlimit="10" points="394.7,527.3 409.4,533 425.1,527.3 "/>
<polyline fill="none" stroke="#000000" stroke-width="2" stroke-miterlimit="10" points="382.5,471.5 387.4,455.3 432.2,452.5 "/>
<polyline fill="none" stroke="#000000" stroke-width="2" stroke-miterlimit="10" points="388.7,476.2 394.7,465.3 431.6,461.8 "/>
<polygon fill="none" stroke="#000000" stroke-width="2" stroke-miterlimit="10" points="328.2,443.3 318.9,456.8 338.2,456.8 "/>
<line fill="none" stroke="#000000" stroke-width="2" stroke-miterlimit="10" x1="324.9" y1="456.8" x2="324.9" y2="477"/>
<line fill="none" stroke="#000000" stroke-width="2" stroke-miterlimit="10" x1="331.4" y1="456.8" x2="332.4" y2="474"/>
<circle fill="none" stroke="#000000" stroke-width="2" stroke-miterlimit="10" cx="300.7" cy="498.4" r="3.6"/>
<circle fill="none" stroke="#000000" stroke-width="2" stroke-miterlimit="10" cx="330.6" cy="484.8" r="3.6"/>
<circle fill="none" stroke="#000000" stroke-width="2" stroke-miterlimit="10" cx="374.4" cy="477.9" r="3.6"/>
<circle fill="none" stroke="#000000" stroke-width="2" stroke-miterlimit="10" cx="400.2" cy="495.5" r="3.6"/>
<ellipse transform="matrix(9.284638e-02 -0.9957 0.9957 9.284638e-02 -179.8215 616.816)" fill="none" stroke="#000000" stroke-width="2" stroke-miterlimit="10" cx="248.6" cy="407.1" rx="16.4" ry="10.2"/>
<polyline fill="none" stroke="#000000" stroke-width="2" stroke-miterlimit="10" points="241.9,420.4 240.5,427.3 249.2,428.2 
	249.2,423.2 "/>
<path fill="none" stroke="#000000" stroke-width="2" stroke-miterlimit="10" d="M256.1,444c-2.3,16.6-5.8,41-5.8,41l-23.7-3.1
	l2.2-54.8l29.4,1.8c0,0-0.4,2.6-1,6.8"/>
<polyline fill="none" stroke="#000000" stroke-width="2" stroke-miterlimit="10" points="246.4,435.7 280.9,434.9 282.4,431.5 
	285.7,430.9 285.7,434.9 293.4,435.7 290.4,443.5 279.8,441 246.4,444.6 "/>
<polyline fill="none" stroke="#000000" stroke-width="2" stroke-miterlimit="10" points="237.9,483.3 222.9,546.7 237.6,541.5 
	237.6,535.8 228.3,537.8 248.6,484.9 "/>
<line fill="none" stroke="#000000" stroke-width="2" stroke-miterlimit="10" x1="228.1" y1="482.8" x2="217.6" y2="548.1"/>
<ellipse transform="matrix(0.1333 -0.9911 0.9911 0.1333 -55.5467 595.4315)" fill="none" stroke="#000000" stroke-width="2" stroke-miterlimit="10" cx="312.7" cy="329.5" rx="16.2" ry="9.7"/>
<polyline fill="none" stroke="#000000" stroke-width="2" stroke-miterlimit="10" points="305.9,342.7 304.7,348.5 312.7,350.7 
	313.6,345.2 "/>
<polygon fill="none" stroke="#000000" stroke-width="2" stroke-miterlimit="10" points="297.9,346.7 321.4,354 310.2,399.7 
	291.1,395.5 "/>
<polyline fill="none" stroke="#000000" stroke-width="2" stroke-miterlimit="10" points="291.1,395.5 273.3,397.3 283.7,430.9 
	274.8,430.9 275.3,435.1 "/>
<polyline fill="none" stroke="#000000" stroke-width="2" stroke-miterlimit="10" points="302.9,398.1 288.4,405.8 291.1,435.5 "/>
<polyline fill="none" stroke="#000000" stroke-width="2" stroke-miterlimit="10" points="310.2,399.7 310.2,452.5 317.3,452.5 
	315.3,459.3 304.7,459.3 300.6,398.1 "/>
<polyline fill="none" stroke="#000000" stroke-width="2" stroke-miterlimit="10" points="297.9,346.7 283.3,313.3 267.6,309.8 
	268.8,315.3 278.3,319.3 295.6,361.3 "/>
<polyline fill="none" stroke="#000000" stroke-width="2" stroke-miterlimit="10" points="321.4,354 340.1,346.7 341.6,316.5 
	355.6,314.8 355.6,318.8 347.6,321.8 347.1,352.5 318.9,365.8 "/>
<ellipse transform="matrix(0.1565 -0.9877 0.9877 0.1565 -106.3508 995.7965)" fill="none" stroke="#000000" stroke-width="2" stroke-miterlimit="10" cx="529.8" cy="560.2" rx="15.8" ry="9.8"/>
<polyline fill="none" stroke="#000000" stroke-width="2" stroke-miterlimit="10" points="531,575.3 529.6,580.9 522.4,579.1 
	523.7,573.9 "/>
<path fill="none" stroke="#000000" stroke-width="2" stroke-miterlimit="10" d="M513.1,588c-3,14.6-7.9,38.5-7.9,38.5l25.3,6.2
	l7.3-49c0,0-16.1-4.6-21-6"/>
<polyline fill="none" stroke="#000000" stroke-width="2" stroke-miterlimit="10" points="523.8,586.2 498.6,554.3 482.6,548.5 
	482.6,552.5 497,559.9 516.5,593.9 "/>
<path fill="none" stroke="#000000" stroke-width="2" stroke-miterlimit="10" d="M505.2,626.5c0,0-8.3,5.1-8.3,5.9
	s-2.6,37.5-2.6,37.5l-9.5-0.1l-0.1,6.1l17-1.6l3.3-33.3l13.3-10l0.6,22.6l24.7,29.2l-9,2.4l2.1,5.3l18.9-5.1l-25.4-32.5l0.2-20.2"/>
<ellipse transform="matrix(0.9796 -0.2011 0.2011 0.9796 -72.9852 105.3371)" fill="none" stroke="#000000" stroke-width="2" stroke-miterlimit="10" cx="482" cy="411.9" rx="10.3" ry="16.4"/>
<polyline fill="none" stroke="#000000" stroke-width="2" stroke-miterlimit="10" points="489.1,425.3 489.3,432.4 480.5,431.8 
	481.3,426.9 "/>
<path fill="none" stroke="#000000" stroke-width="2" stroke-miterlimit="10" d="M475.1,444c1.1,15.8,2.9,42,2.9,42l23.9,0.8
	l-2.3-54.4l-25.3-0.1c0,0,0.1,1.1,0.2,2.9"/>
<polyline fill="none" stroke="#000000" stroke-width="2" stroke-miterlimit="10" points="489.8,438.1 455.9,431.7 455,428 
	451.8,426.9 451.1,430.9 443.4,430.4 445.1,438.6 456,437.9 488.4,446.8 "/>
<polyline fill="none" stroke="#000000" stroke-width="2" stroke-miterlimit="10" points="490.4,486.4 494.9,551.4 479.6,546.7 
	478.6,539.3 491,541.7 479.6,486.3 "/>
<line fill="none" stroke="#000000" stroke-width="2" stroke-miterlimit="10" x1="498.4" y1="487.7" x2="498.1" y2="553.9"/>
<ellipse transform="matrix(3.011634e-02 -0.9995 0.9995 3.011634e-02 93.0938 766.9928)" fill="none" stroke="#000000" stroke-width="2" stroke-miterlimit="10" cx="441.8" cy="335.5" rx="16.2" ry="9.7"/>
<path fill="none" stroke="#000000" stroke-width="2" stroke-miterlimit="10" d="M433.6,344.6c-2.6,0.4-4.4,0.6-4.4,0.6l3.6,47
	l19.6-1.1l1.2-49.2c0,0-0.9,0.1-2.3,0.3"/>
<polyline fill="none" stroke="#000000" stroke-width="2" stroke-miterlimit="10" points="452.3,391.1 469.5,395.8 453.8,427.2 
	462.6,428.7 461.4,432.7 "/>
<polyline fill="none" stroke="#000000" stroke-width="2" stroke-miterlimit="10" points="440.3,391.7 453.3,401.7 445.8,430.6 "/>
<polyline fill="none" stroke="#000000" stroke-width="2" stroke-miterlimit="10" points="432.8,392.2 423.7,447.2 411.7,446 
	414.6,452.5 428.5,451.8 442.5,392.1 "/>
<polyline fill="none" stroke="#000000" stroke-width="2" stroke-miterlimit="10" points="429.1,345.2 385.1,310.4 386.3,304.8 
	382.5,303.8 381.3,308.9 "/>
<polyline fill="none" stroke="#000000" stroke-width="2" stroke-miterlimit="10" points="370.2,314.8 371.7,318.1 381.8,317.7 
	430.5,360.4 "/>
<ellipse transform="matrix(0.1456 -0.9893 0.9893 0.1456 69.5995 561.8349)" fill="none" stroke="#000000" stroke-width="2" stroke-miterlimit="10" cx="360.1" cy="240.6" rx="16.9" ry="12.3"/>
<path fill="none" stroke="#000000" stroke-width="2" stroke-miterlimit="10" d="M336.1,253.3c0.5-1.1,3.8-7.6,11.4-10.8"/>
<path fill="none" stroke="#000000" stroke-width="2" stroke-miterlimit="10" d="M371.8,245.3c5.6,3.9,8.7,8.9,9.5,10.2"/>
<path fill="none" stroke="#000000" stroke-width="2" stroke-miterlimit="10" d="M375.2,281c-2.6,11.2-5.1,21.7-5.1,21.7h-18.7
	c0,0-3.5-11.1-7.1-22.7"/>
<path fill="none" stroke="#000000" stroke-width="2" stroke-miterlimit="10" d="M336.7,252.1c0,0-13.9,28.9,18,29.8v-5.6
	c0,0-14.5-2-15.8-13.8"/>
<path fill="none" stroke="#000000" stroke-width="2" stroke-miterlimit="10" d="M381.3,255.5c0,0,12.6,29.9-18,26.4l-1.4-6.3
	c0,0,11.5-0.4,17.8-9.7"/>
<path fill="none" stroke="#000000" stroke-width="2" stroke-miterlimit="10" d="M354.7,276.3c0,0,2.4-1.9,7.2-0.7"/>
<path fill="none" stroke="#000000" stroke-width="2" stroke-miterlimit="10" d="M354.7,281.9c0,0,2.7,2.8,8.1,0"/>
<path fill="none" stroke="#000000" stroke-width="2" stroke-miterlimit="10" d="M352,302.7l-14.5,9.2c0,0,17.1,2.4,17.2,2.3
	s5.4-11.5,5.4-11.5l-0.9-19.1"/>
<polyline fill="none" stroke="#000000" stroke-width="2" stroke-miterlimit="10" points="360.1,303.3 367.7,315.4 381.3,308.9 
	370.1,302.7 "/>
<path fill="none" stroke="#000000" stroke-width="2" stroke-miterlimit="10" d="M339,277.4c0,0,0.4,23.5,11.4,24.4"/>
<path fill="none" stroke="#000000" stroke-width="2" stroke-miterlimit="10" d="M378.5,280.1c0,0-0.8,18.8-8.2,22.1"/>
<ellipse transform="matrix(7.937509e-02 -0.9968 0.9968 7.937509e-02 103.2052 437.8106)" fill="none" stroke="#000000" stroke-width="2" stroke-miterlimit="10" cx="288.6" cy="163" rx="19.4" ry="12.9"/>
<polyline fill="none" stroke="#000000" stroke-width="2" stroke-miterlimit="10" points="282.2,180.4 281,188.3 288.6,189.3 
	289.6,182.2 "/>
<path fill="none" stroke="#000000" stroke-width="2" stroke-miterlimit="10" d="M294.7,236.5c-0.2,7.3-0.3,12.5-0.3,12.5l-30.5-2.5
	l9.5-58.8l22.2,3.5c0,0-0.4,18.6-0.8,34.7"/>
<line fill="none" stroke="#000000" stroke-width="2" stroke-miterlimit="10" x1="267.6" y1="246.8" x2="269.1" y2="310.4"/>
<polyline fill="none" stroke="#000000" stroke-width="2" stroke-miterlimit="10" points="279.8,247.9 277.5,312 289.6,314.8 
	293.8,308 282.8,307.3 289.6,249 "/>
<path fill="none" stroke="#000000" stroke-width="2" stroke-miterlimit="10" d="M285.7,209.5c0,0,14.7,27.9,19.9,31.1h7.1v3.2
	l-4.6,1.5l4.6,6.8l-4.3,2.2L281,218.4"/>
<line fill="none" stroke="#000000" stroke-width="2" stroke-miterlimit="10" x1="295.4" y1="205.8" x2="314.6" y2="218.4"/>
<line fill="none" stroke="#000000" stroke-width="2" stroke-miterlimit="10" x1="295.7" y1="214.5" x2="312.7" y2="222.8"/>
<circle fill="none" stroke="#000000" stroke-width="2" stroke-miterlimit="10" cx="317.2" cy="222" r="5.2"/>
<ellipse fill="none" stroke="#000000" stroke-width="2" stroke-miterlimit="10" cx="358" cy="162.5" rx="12.2" ry="17.9"/>
<path fill="none" stroke="#000000" stroke-width="2" stroke-miterlimit="10" d="M353.5,179.1c0.1,0.1,0,7.1,0,7.1h8.4v-6.8"/>
<path fill="none" stroke="#000000" stroke-width="2" stroke-miterlimit="10" d="M349.6,235.3c-6,0-10.6,0-10.6,0l2.8-49h32.5l2.2,49
	c0,0-1.4,0-3.7,0"/>
<line fill="none" stroke="#000000" stroke-width="2" stroke-miterlimit="10" x1="340.8" y1="235.3" x2="340.9" y2="246.8"/>
<line fill="none" stroke="#000000" stroke-width="2" stroke-miterlimit="10" x1="375.2" y1="235.3" x2="375.2" y2="249"/>
<line fill="none" stroke="#000000" stroke-width="2" stroke-miterlimit="10" x1="341.8" y1="186.3" x2="318.9" y2="217.1"/>
<line fill="none" stroke="#000000" stroke-width="2" stroke-miterlimit="10" x1="340.6" y1="207.3" x2="322.3" y2="220.8"/>
<ellipse transform="matrix(0.999 -4.525959e-02 4.525959e-02 0.999 -7.0213 19.5794)" fill="none" stroke="#000000" stroke-width="2" stroke-miterlimit="10" cx="428.9" cy="164.8" rx="12.9" ry="19.4"/>
<polyline fill="none" stroke="#000000" stroke-width="2" stroke-miterlimit="10" points="434.7,182.4 435.7,190.3 428,191.1 
	427.2,183.9 "/>
<path fill="none" stroke="#000000" stroke-width="2" stroke-miterlimit="10" d="M420.3,238.1c-0.1,7.3-0.2,12.5-0.2,12.5l30.6-1.5
	l-7.5-59l-22.4,2.7c0,0-0.2,18.6-0.4,34.7"/>
<path fill="none" stroke="#000000" stroke-width="2" stroke-miterlimit="10" d="M447,249.3c0,0-0.7,12.3-1.5,26"/>
<path fill="none" stroke="#000000" stroke-width="2" stroke-miterlimit="10" d="M445,284.3c-0.3,5.9-0.7,11.7-1,16.4l-0.4,7.7
	c-0.2,2.7-0.2,4.3-0.2,4.3l-8.4,1.3"/>
<polyline fill="none" stroke="#000000" stroke-width="2" stroke-miterlimit="10" points="434.8,249.9 434.9,314.1 422.7,316.5 
	418.7,309.6 429.8,309.2 425,250.8 "/>
<path fill="none" stroke="#000000" stroke-width="2" stroke-miterlimit="10" d="M430.2,211.4c0,0-15.6,27.4-21,30.4l-7.1-0.2
	l-0.1,3.2l4.5,1.7l-4.8,6.7l4.3,2.3l28.6-34.9"/>
<line fill="none" stroke="#000000" stroke-width="2" stroke-miterlimit="10" x1="420.6" y1="207.3" x2="401" y2="219.3"/>
<line fill="none" stroke="#000000" stroke-width="2" stroke-miterlimit="10" x1="420" y1="216.1" x2="402.8" y2="223.7"/>
<ellipse transform="matrix(3.417695e-02 -0.9994 0.9994 3.417695e-02 162.0908 613.2618)" fill="none" stroke="#000000" stroke-width="2" stroke-miterlimit="10" cx="398.3" cy="222.8" rx="5.2" ry="5.2"/>
<line fill="none" stroke="#000000" stroke-width="2" stroke-miterlimit="10" x1="374.9" y1="186.3" x2="396.8" y2="217.8"/>
<line fill="none" stroke="#000000" stroke-width="2" stroke-miterlimit="10" x1="375.4" y1="207.3" x2="393.2" y2="221.4"/>
<path fill="none" stroke="#27AAE1" stroke-width="2" stroke-miterlimit="10" d="M360.7,73.3c-1,0.3-1.8-0.7-1.8-0.7
	S270,44.2,258.8,109.3c-11.2,65.2-23.9,194.8-23.9,194.8l29.1,20L145.7,575.3l20.9,19.4l-30,96.4l40.2,9l27.6-27.7l22.6,15.9
	l18.5-14.6L227,627.3l15.7,6.7l31.1-158l-60.7,460.5c0,0,19.6,33.8,59.3,39.3v21.7l-81,32.8l65.1,74.7l99.8-50.6l99.8,52.6
	l66.3-73.7l-82.5-35.2l0.3-21.7c39.7-4.9,61.9-37.2,61.9-37.2l-53.3-461.4l28.5,158.4l15.8-6.5L474.1,676l18.2,14.9l22.9-15.6
	l27.1,28.2l40.3-8.4l-28.5-96.8l21.3-19.1L461.1,326.2l29.4-19.6c0,0-10.7-129.9-20.8-195.2c-8.7-56-75.6-44.1-94.5-39.6l-9,1.7
	L360.7,73.3z"/>
<polyline fill="none" stroke="#000000" stroke-width="2" stroke-miterlimit="10" points="453.5,344 460.9,314.1 452.3,275.7 
	443.4,275.7 442.5,282.5 447,285.4 451.7,311.3 449.1,324.5 "/>
</svg>
