<?xml version="1.0" encoding="utf-8"?>
<!-- Generator: Adobe Illustrator 21.0.0, SVG Export Plug-In . SVG Version: 6.00 Build 0)  -->
<!DOCTYPE svg PUBLIC "-//W3C//DTD SVG 1.0//EN" "http://www.w3.org/TR/2001/REC-SVG-20010904/DTD/svg10.dtd">
<svg version="1.0" id="Stroke" xmlns="http://www.w3.org/2000/svg" xmlns:xlink="http://www.w3.org/1999/xlink" x="0px" y="0px"
	 width="194px" height="191.7px" viewBox="0 0 194 191.7" enable-background="new 0 0 194 191.7" xml:space="preserve">
<ellipse transform="matrix(0.2814 -0.9596 0.9596 0.2814 38.0026 112.2896)" fill="none" stroke="#000000" stroke-width="2" stroke-miterlimit="10" cx="94" cy="30.8" rx="20" ry="14.8"/>
<line fill="none" stroke="#000000" stroke-width="2" stroke-miterlimit="10" x1="92.9" y1="50.2" x2="91" y2="55.9"/>
<line fill="none" stroke="#000000" stroke-width="2" stroke-miterlimit="10" x1="83.8" y1="47.3" x2="81.5" y2="52.7"/>
<path fill="none" stroke="#000000" stroke-width="2" stroke-miterlimit="10" d="M85.7,117.1c4.2-11.9,19.9-56.3,19.9-56.3L74,50.2
	l-15.5,63.1c0,0,0.2,0.1,0.6,0.2"/>
<polyline fill="none" stroke="#000000" stroke-width="2" stroke-miterlimit="10" points="74,50.2 46,73.2 39.8,110.6 30.7,120.6 
	44.2,122.8 51.5,112.8 55.8,112 55.6,109.1 47.9,107.8 55.1,79.8 69.5,68.4 "/>
<line fill="none" stroke="#000000" stroke-width="2" stroke-miterlimit="10" x1="104.4" y1="64.5" x2="101.7" y2="106.9"/>
<line fill="none" stroke="#000000" stroke-width="2" stroke-miterlimit="10" x1="95.4" y1="89.7" x2="95.7" y2="108.7"/>
<polygon fill="none" stroke="#000000" stroke-width="2" stroke-miterlimit="10" points="58.5,113.3 79,105.4 109,159.3 104.9,161.4 
	71.3,121.7 57.8,117.4 "/>
<polyline fill="none" stroke="#000000" stroke-width="2" stroke-miterlimit="10" points="87.9,111 106,105.6 142.1,135.9 
	140.1,138.6 102.6,119.4 88.9,123.1 "/>
<polyline fill="none" stroke="#000000" stroke-width="2" stroke-miterlimit="10" points="109,159.3 129.4,170.7 116.6,180.5 
	104.9,161.4 "/>
<polygon fill="none" stroke="#000000" stroke-width="2" stroke-miterlimit="10" points="142.1,135.9 163.3,141.5 153.6,147.8 
	139.6,139.7 "/>
</svg>
