<?xml version="1.0" encoding="utf-8"?>
<!-- Generator: Adobe Illustrator 21.0.0, SVG Export Plug-In . SVG Version: 6.00 Build 0)  -->
<!DOCTYPE svg PUBLIC "-//W3C//DTD SVG 1.0//EN" "http://www.w3.org/TR/2001/REC-SVG-20010904/DTD/svg10.dtd">
<svg version="1.0" id="Stroke" xmlns="http://www.w3.org/2000/svg" xmlns:xlink="http://www.w3.org/1999/xlink" x="0px" y="0px"
	 width="194px" height="425.7px" viewBox="0 0 194 425.7" enable-background="new 0 0 194 425.7" xml:space="preserve">
<ellipse transform="matrix(0.1565 -0.9877 0.9877 0.1565 -119.0027 319.1903)" fill="none" stroke="#000000" stroke-width="2" stroke-miterlimit="10" cx="127.4" cy="229.3" rx="15.8" ry="9.8"/>
<polyline fill="none" stroke="#000000" stroke-width="2" stroke-miterlimit="10" points="128.5,244.4 127.1,250 119.9,248.2 
	121.2,243 "/>
<path fill="none" stroke="#000000" stroke-width="2" stroke-miterlimit="10" d="M110.6,257.1c-3,14.6-7.9,38.5-7.9,38.5l25.3,6.2
	l7.3-49c0,0-16.1-4.6-21-6"/>
<polyline fill="none" stroke="#000000" stroke-width="2" stroke-miterlimit="10" points="121.3,255.3 96.1,223.4 80.1,217.6 
	80.1,221.6 94.5,229 114,263 "/>
<path fill="none" stroke="#000000" stroke-width="2" stroke-miterlimit="10" d="M102.7,295.6c0,0-8.3,5.1-8.3,5.9S91.8,339,91.8,339
	l-9.5-0.1l-0.1,6.1l17-1.6l3.3-33.3l13.3-10l0.6,22.6l24.7,29.2l-9,2.4l2.1,5.3l18.9-5.1L127.7,322l0.2-20.2"/>
<ellipse transform="matrix(0.9796 -0.2011 0.2011 0.9796 -14.6616 17.6444)" fill="none" stroke="#000000" stroke-width="2" stroke-miterlimit="10" cx="79.5" cy="81" rx="10.3" ry="16.4"/>
<polyline fill="none" stroke="#000000" stroke-width="2" stroke-miterlimit="10" points="86.6,94.4 86.8,101.5 78,100.9 78.8,96 "/>
<path fill="none" stroke="#000000" stroke-width="2" stroke-miterlimit="10" d="M72.6,113.1c1.1,15.8,2.9,42,2.9,42l23.9,0.8
	l-2.3-54.4l-25.3-0.1c0,0,0.1,1.1,0.2,2.9"/>
<polyline fill="none" stroke="#000000" stroke-width="2" stroke-miterlimit="10" points="87.3,107.2 53.4,100.8 52.5,97.1 49.3,96 
	48.6,100 40.9,99.5 42.6,107.7 53.5,107 85.9,115.9 "/>
<polyline fill="none" stroke="#000000" stroke-width="2" stroke-miterlimit="10" points="87.9,155.5 92.4,220.5 77.1,215.8 
	76.1,208.4 88.5,210.8 77.1,155.4 "/>
<line fill="none" stroke="#000000" stroke-width="2" stroke-miterlimit="10" x1="95.9" y1="156.8" x2="95.6" y2="223"/>
</svg>
