<?xml version="1.0" encoding="utf-8"?>
<!-- Generator: Adobe Illustrator 21.0.0, SVG Export Plug-In . SVG Version: 6.00 Build 0)  -->
<!DOCTYPE svg PUBLIC "-//W3C//DTD SVG 1.0//EN" "http://www.w3.org/TR/2001/REC-SVG-20010904/DTD/svg10.dtd">
<svg version="1.0" id="Stroke" xmlns="http://www.w3.org/2000/svg" xmlns:xlink="http://www.w3.org/1999/xlink" x="0px" y="0px"
	 width="194px" height="425.7px" viewBox="0 0 194 425.7" enable-background="new 0 0 194 425.7" xml:space="preserve">
<ellipse transform="matrix(0.9891 -0.1474 0.1474 0.9891 -33.3072 10.6817)" fill="none" stroke="#000000" stroke-width="2" stroke-miterlimit="10" cx="55.4" cy="230.1" rx="9.8" ry="15.8"/>
<polyline fill="none" stroke="#000000" stroke-width="2" stroke-miterlimit="10" points="54.1,245.2 55.4,250.8 62.6,249.1 
	61.4,243.8 "/>
<path fill="none" stroke="#000000" stroke-width="2" stroke-miterlimit="10" d="M71.8,258.1c2.9,14.6,7.6,38.6,7.6,38.6l-25.3,5.9
	l-6.9-49.1c0,0,16.1-4.4,21.1-5.8"/>
<polyline fill="none" stroke="#000000" stroke-width="2" stroke-miterlimit="10" points="61.2,256.2 86.7,224.5 102.7,218.8 
	102.7,222.9 88.2,230.1 68.4,264 "/>
<path fill="none" stroke="#000000" stroke-width="2" stroke-miterlimit="10" d="M79.4,296.7c0,0,8.2,5.2,8.2,5.9s2.2,37.5,2.2,37.5
	h9.5v6.1l-17-1.8l-3-33.4l-13.2-10.1l-0.8,22.6l-25,29l9,2.5l-2.2,5.2L28.3,355L54,322.8v-20.2"/>
<ellipse transform="matrix(9.284457e-02 -0.9957 0.9957 9.284457e-02 28.184 194.6411)" fill="none" stroke="#000000" stroke-width="2" stroke-miterlimit="10" cx="120.9" cy="81.9" rx="16.4" ry="10.2"/>
<polyline fill="none" stroke="#000000" stroke-width="2" stroke-miterlimit="10" points="114.2,95.2 112.8,102.1 121.5,103 
	121.5,98 "/>
<path fill="none" stroke="#000000" stroke-width="2" stroke-miterlimit="10" d="M128.4,118.8c-2.3,16.6-5.8,41-5.8,41l-23.7-3.1
	l2.2-54.8l29.4,1.8c0,0-0.4,2.6-1,6.8"/>
<polyline fill="none" stroke="#000000" stroke-width="2" stroke-miterlimit="10" points="118.7,110.5 153.2,109.7 154.7,106.3 
	158,105.7 158,109.7 165.7,110.5 162.7,118.3 152.1,115.8 118.7,119.4 "/>
<polyline fill="none" stroke="#000000" stroke-width="2" stroke-miterlimit="10" points="110.2,158.1 95.2,221.5 109.9,216.3 
	109.9,210.6 100.6,212.6 120.9,159.7 "/>
<line fill="none" stroke="#000000" stroke-width="2" stroke-miterlimit="10" x1="100.4" y1="157.6" x2="89.9" y2="222.9"/>
</svg>
