<?xml version="1.0" encoding="utf-8"?>
<!-- Generator: Adobe Illustrator 21.0.0, SVG Export Plug-In . SVG Version: 6.00 Build 0)  -->
<!DOCTYPE svg PUBLIC "-//W3C//DTD SVG 1.0//EN" "http://www.w3.org/TR/2001/REC-SVG-20010904/DTD/svg10.dtd">
<svg version="1.0" id="Stroke" xmlns="http://www.w3.org/2000/svg" xmlns:xlink="http://www.w3.org/1999/xlink" x="0px" y="0px"
	 width="215.3px" height="195px" viewBox="0 0 215.3 195" enable-background="new 0 0 215.3 195" xml:space="preserve">
<ellipse transform="matrix(0.1456 -0.9893 0.9893 0.1456 -12.5206 201.5336)" fill="none" stroke="#000000" stroke-width="2" stroke-miterlimit="10" cx="110.4" cy="108" rx="16.9" ry="12.3"/>
<path fill="none" stroke="#000000" stroke-width="2" stroke-miterlimit="10" d="M86.5,120.7c0.5-1.1,3.8-7.6,11.4-10.8"/>
<path fill="none" stroke="#000000" stroke-width="2" stroke-miterlimit="10" d="M122.2,112.7c5.6,3.9,8.7,8.9,9.5,10.2"/>
<path fill="none" stroke="#000000" stroke-width="2" stroke-miterlimit="10" d="M125.6,148.4c-2.6,11.2-5.1,21.7-5.1,21.7h-18.7
	c0,0-3.5-11.1-7.1-22.7"/>
<path fill="none" stroke="#000000" stroke-width="2" stroke-miterlimit="10" d="M87.1,119.5c0,0-13.9,28.9,18,29.8v-5.6
	c0,0-14.5-2-15.8-13.8"/>
<path fill="none" stroke="#000000" stroke-width="2" stroke-miterlimit="10" d="M131.7,122.9c0,0,12.6,29.9-18,26.4l-1.4-6.3
	c0,0,11.5-0.4,17.8-9.7"/>
<path fill="none" stroke="#000000" stroke-width="2" stroke-miterlimit="10" d="M105.1,143.7c0,0,2.4-1.9,7.2-0.7"/>
<path fill="none" stroke="#000000" stroke-width="2" stroke-miterlimit="10" d="M105.1,149.3c0,0,2.7,2.8,8.1,0"/>
<path fill="none" stroke="#000000" stroke-width="2" stroke-miterlimit="10" d="M102.4,170.1l-14.5,9.2c0,0,17.1,2.4,17.2,2.3
	s5.4-11.5,5.4-11.5l-0.9-19.1"/>
<polyline fill="none" stroke="#000000" stroke-width="2" stroke-miterlimit="10" points="110.5,170.7 118.1,182.8 131.7,176.3 
	120.5,170.1 "/>
<path fill="none" stroke="#000000" stroke-width="2" stroke-miterlimit="10" d="M89.4,144.8c0,0,0.4,23.5,11.4,24.4"/>
<path fill="none" stroke="#000000" stroke-width="2" stroke-miterlimit="10" d="M128.9,147.5c0,0-0.8,18.8-8.2,22.1"/>
<ellipse transform="matrix(7.937863e-02 -0.9968 0.9968 7.937863e-02 5.4928 66.8853)" fill="none" stroke="#000000" stroke-width="2" stroke-miterlimit="10" cx="39" cy="30.5" rx="19.4" ry="12.9"/>
<polyline fill="none" stroke="#000000" stroke-width="2" stroke-miterlimit="10" points="32.6,47.8 31.4,55.7 39,56.7 40,49.6 "/>
<path fill="none" stroke="#000000" stroke-width="2" stroke-miterlimit="10" d="M45.1,103.9c-0.2,7.3-0.3,12.5-0.3,12.5l-30.5-2.5
	l9.5-58.8L46,58.6c0,0-0.4,18.6-0.8,34.7"/>
<line fill="none" stroke="#000000" stroke-width="2" stroke-miterlimit="10" x1="18" y1="114.2" x2="19.5" y2="177.8"/>
<polyline fill="none" stroke="#000000" stroke-width="2" stroke-miterlimit="10" points="30.2,115.3 27.9,179.4 40,182.2 
	44.2,175.4 33.2,174.7 40,116.4 "/>
<path fill="none" stroke="#000000" stroke-width="2" stroke-miterlimit="10" d="M36.1,76.9c0,0,14.7,27.9,19.9,31.1h7.1v3.2
	l-4.6,1.5l4.6,6.8l-4.3,2.2L31.4,85.8"/>
<line fill="none" stroke="#000000" stroke-width="2" stroke-miterlimit="10" x1="45.8" y1="73.2" x2="65" y2="85.8"/>
<line fill="none" stroke="#000000" stroke-width="2" stroke-miterlimit="10" x1="46.1" y1="81.9" x2="63.1" y2="90.2"/>
<circle fill="none" stroke="#000000" stroke-width="2" stroke-miterlimit="10" cx="67.6" cy="89.4" r="5.2"/>
<ellipse fill="none" stroke="#000000" stroke-width="2" stroke-miterlimit="10" cx="108.4" cy="29.9" rx="12.2" ry="17.9"/>
<path fill="none" stroke="#000000" stroke-width="2" stroke-miterlimit="10" d="M103.9,46.5c0.1,0.1,0,7.1,0,7.1h8.4v-6.8"/>
<path fill="none" stroke="#000000" stroke-width="2" stroke-miterlimit="10" d="M100,102.7c-6,0-10.6,0-10.6,0l2.8-49h32.5l2.2,49
	c0,0-1.4,0-3.7,0"/>
<line fill="none" stroke="#000000" stroke-width="2" stroke-miterlimit="10" x1="91.2" y1="102.7" x2="91.3" y2="114.2"/>
<line fill="none" stroke="#000000" stroke-width="2" stroke-miterlimit="10" x1="125.6" y1="102.7" x2="125.6" y2="116.4"/>
<line fill="none" stroke="#000000" stroke-width="2" stroke-miterlimit="10" x1="92.2" y1="53.7" x2="69.3" y2="84.5"/>
<line fill="none" stroke="#000000" stroke-width="2" stroke-miterlimit="10" x1="91" y1="74.7" x2="72.7" y2="88.2"/>
<ellipse transform="matrix(0.999 -4.525847e-02 4.525847e-02 0.999 -1.2736 8.1467)" fill="none" stroke="#000000" stroke-width="2" stroke-miterlimit="10" cx="179.3" cy="32.2" rx="12.9" ry="19.4"/>
<polyline fill="none" stroke="#000000" stroke-width="2" stroke-miterlimit="10" points="185.1,49.8 186.1,57.7 178.4,58.5 
	177.6,51.3 "/>
<path fill="none" stroke="#000000" stroke-width="2" stroke-miterlimit="10" d="M170.7,105.5c-0.1,7.3-0.2,12.5-0.2,12.5l30.6-1.5
	l-7.5-59l-22.4,2.7c0,0-0.2,18.6-0.4,34.7"/>
<path fill="none" stroke="#000000" stroke-width="2" stroke-miterlimit="10" d="M197.4,116.7c0,0-0.7,12.3-1.5,26"/>
<path fill="none" stroke="#000000" stroke-width="2" stroke-miterlimit="10" d="M195.4,151.7c-0.3,5.9-0.7,11.7-1,16.4l-0.4,7.7
	c-0.2,2.7-0.2,4.3-0.2,4.3l-8.4,1.3"/>
<polyline fill="none" stroke="#000000" stroke-width="2" stroke-miterlimit="10" points="185.2,117.3 185.3,181.5 173.1,183.9 
	169.1,177 180.2,176.6 175.4,118.2 "/>
<path fill="none" stroke="#000000" stroke-width="2" stroke-miterlimit="10" d="M180.6,78.8c0,0-15.6,27.4-21,30.4l-7.1-0.2
	l-0.1,3.2l4.5,1.7l-4.8,6.7l4.3,2.3L185,88"/>
<line fill="none" stroke="#000000" stroke-width="2" stroke-miterlimit="10" x1="171" y1="74.7" x2="151.4" y2="86.7"/>
<line fill="none" stroke="#000000" stroke-width="2" stroke-miterlimit="10" x1="170.4" y1="83.5" x2="153.2" y2="91.1"/>
<ellipse transform="matrix(3.417749e-02 -0.9994 0.9994 3.417749e-02 53.4937 235.7784)" fill="none" stroke="#000000" stroke-width="2" stroke-miterlimit="10" cx="148.7" cy="90.2" rx="5.2" ry="5.2"/>
<line fill="none" stroke="#000000" stroke-width="2" stroke-miterlimit="10" x1="125.3" y1="53.7" x2="147.2" y2="85.2"/>
<line fill="none" stroke="#000000" stroke-width="2" stroke-miterlimit="10" x1="125.8" y1="74.7" x2="143.6" y2="88.8"/>
</svg>
