<?xml version="1.0" encoding="utf-8"?>
<!-- Generator: Adobe Illustrator 21.0.0, SVG Export Plug-In . SVG Version: 6.00 Build 0)  -->
<!DOCTYPE svg PUBLIC "-//W3C//DTD SVG 1.0//EN" "http://www.w3.org/TR/2001/REC-SVG-20010904/DTD/svg10.dtd">
<svg version="1.0" id="Stroke" xmlns="http://www.w3.org/2000/svg" xmlns:xlink="http://www.w3.org/1999/xlink" x="0px" y="0px"
	 width="215.3px" height="195px" viewBox="0 0 215.3 195" enable-background="new 0 0 215.3 195" xml:space="preserve">
<polygon fill="none" stroke="#000000" stroke-width="2" stroke-miterlimit="10" points="96.4,82.2 86.4,50.9 33.4,71.9 102.4,173.1 
	165.4,72.2 120.4,42.2 "/>
<polyline fill="none" stroke="#000000" stroke-width="2" stroke-miterlimit="10" points="70.7,126.6 63.4,133.9 45.4,132.6 "/>
<polyline fill="none" stroke="#000000" stroke-width="2" stroke-miterlimit="10" points="76.7,135.4 66.8,145.1 43.1,145.1 "/>
<polyline fill="none" stroke="#000000" stroke-width="2" stroke-miterlimit="10" points="67,58.6 59.9,37.9 38.1,37.9 "/>
<path fill="none" stroke="#000000" stroke-width="2" stroke-miterlimit="10" d="M38.1,50.2c1.7,0,16-2,16-2l5.8,13.2"/>
<polyline fill="none" stroke="#000000" stroke-width="2" stroke-miterlimit="10" points="139.8,113.3 156.8,122.6 178.4,117.9 "/>
<polyline fill="none" stroke="#000000" stroke-width="2" stroke-miterlimit="10" points="144.4,105.9 159.1,111.6 174.8,105.9 "/>
<polyline fill="none" stroke="#000000" stroke-width="2" stroke-miterlimit="10" points="132.2,50.1 137.1,33.9 181.9,31.1 "/>
<polyline fill="none" stroke="#000000" stroke-width="2" stroke-miterlimit="10" points="138.4,54.8 144.4,43.9 181.3,40.4 "/>
<polygon fill="none" stroke="#000000" stroke-width="2" stroke-miterlimit="10" points="77.9,21.9 68.6,35.4 87.9,35.4 "/>
<line fill="none" stroke="#000000" stroke-width="2" stroke-miterlimit="10" x1="74.6" y1="35.4" x2="74.6" y2="55.6"/>
<line fill="none" stroke="#000000" stroke-width="2" stroke-miterlimit="10" x1="81.1" y1="35.4" x2="82.1" y2="52.6"/>
<circle fill="none" stroke="#000000" stroke-width="2" stroke-miterlimit="10" cx="50.4" cy="77" r="3.6"/>
<circle fill="none" stroke="#000000" stroke-width="2" stroke-miterlimit="10" cx="80.3" cy="63.4" r="3.6"/>
<circle fill="none" stroke="#000000" stroke-width="2" stroke-miterlimit="10" cx="124.1" cy="56.5" r="3.6"/>
<circle fill="none" stroke="#000000" stroke-width="2" stroke-miterlimit="10" cx="149.9" cy="74.1" r="3.6"/>
</svg>
