<?xml version="1.0" encoding="utf-8"?>
<!-- Generator: Adobe Illustrator 21.0.0, SVG Export Plug-In . SVG Version: 6.00 Build 0)  -->
<!DOCTYPE svg PUBLIC "-//W3C//DTD SVG 1.0//EN" "http://www.w3.org/TR/2001/REC-SVG-20010904/DTD/svg10.dtd">
<svg version="1.0" id="Stroke" xmlns="http://www.w3.org/2000/svg" xmlns:xlink="http://www.w3.org/1999/xlink" x="0px" y="0px"
	 width="215.3px" height="195px" viewBox="0 0 215.3 195" enable-background="new 0 0 215.3 195" xml:space="preserve">
<ellipse transform="matrix(0.1333 -0.9911 0.9911 0.1333 -17.1285 100.2207)" fill="none" stroke="#000000" stroke-width="2" stroke-miterlimit="10" cx="48.7" cy="59.9" rx="16.2" ry="9.7"/>
<polyline fill="none" stroke="#000000" stroke-width="2" stroke-miterlimit="10" points="41.9,73.2 40.7,79 48.7,81.2 49.6,75.7 "/>
<polygon fill="none" stroke="#000000" stroke-width="2" stroke-miterlimit="10" points="33.9,77.2 57.4,84.5 46.2,130.2 27.1,126 
	"/>
<polyline fill="none" stroke="#000000" stroke-width="2" stroke-miterlimit="10" points="27.1,126 9.3,127.8 19.7,161.4 10.8,161.4 
	11.3,165.6 "/>
<polyline fill="none" stroke="#000000" stroke-width="2" stroke-miterlimit="10" points="38.9,128.6 24.4,136.3 27.1,166 "/>
<polyline fill="none" stroke="#000000" stroke-width="2" stroke-miterlimit="10" points="46.2,130.2 46.2,183 53.3,183 51.3,189.8 
	40.7,189.8 36.6,128.6 "/>
<polyline fill="none" stroke="#000000" stroke-width="2" stroke-miterlimit="10" points="33.9,77.2 19.3,43.8 3.6,40.3 4.8,45.8 
	14.3,49.8 31.6,91.8 "/>
<polyline fill="none" stroke="#000000" stroke-width="2" stroke-miterlimit="10" points="57.4,84.5 76.1,77.2 77.6,47 91.6,45.3 
	91.6,49.3 83.6,52.3 83.1,83 54.9,96.3 "/>
<ellipse transform="matrix(3.011774e-02 -0.9995 0.9995 3.011774e-02 106.4564 241.6812)" fill="none" stroke="#000000" stroke-width="2" stroke-miterlimit="10" cx="177.8" cy="66" rx="16.2" ry="9.7"/>
<path fill="none" stroke="#000000" stroke-width="2" stroke-miterlimit="10" d="M169.6,75.1c-2.6,0.4-4.4,0.6-4.4,0.6l3.6,47
	l19.6-1.1l1.2-49.2c0,0-0.9,0.1-2.3,0.3"/>
<polyline fill="none" stroke="#000000" stroke-width="2" stroke-miterlimit="10" points="188.3,121.6 205.5,126.3 189.8,157.7 
	198.6,159.2 197.4,163.2 "/>
<polyline fill="none" stroke="#000000" stroke-width="2" stroke-miterlimit="10" points="176.3,122.2 189.3,132.2 181.8,161.1 "/>
<polyline fill="none" stroke="#000000" stroke-width="2" stroke-miterlimit="10" points="168.8,122.7 159.7,177.7 147.7,176.5 
	150.6,183 164.5,182.3 178.5,122.6 "/>
<polyline fill="none" stroke="#000000" stroke-width="2" stroke-miterlimit="10" points="165.1,75.7 121.1,40.9 122.3,35.3 
	118.5,34.3 117.3,39.4 "/>
<polyline fill="none" stroke="#000000" stroke-width="2" stroke-miterlimit="10" points="106.2,45.3 107.7,48.6 117.8,48.2 
	166.5,90.9 "/>
<polyline fill="none" stroke="#000000" stroke-width="2" stroke-miterlimit="10" points="189.5,74.5 196.9,44.6 188.3,6.2 
	179.4,6.2 178.5,13 183,15.9 187.7,41.8 185.1,55 "/>
</svg>
