<?xml version="1.0" encoding="utf-8"?>
<!-- Generator: Adobe Illustrator 21.0.0, SVG Export Plug-In . SVG Version: 6.00 Build 0)  -->
<!DOCTYPE svg PUBLIC "-//W3C//DTD SVG 1.0//EN" "http://www.w3.org/TR/2001/REC-SVG-20010904/DTD/svg10.dtd">
<svg version="1.0" id="Stroke" xmlns="http://www.w3.org/2000/svg" xmlns:xlink="http://www.w3.org/1999/xlink" x="0px" y="0px"
	 width="194px" height="425.7px" viewBox="0 0 194 425.7" enable-background="new 0 0 194 425.7" xml:space="preserve">
<ellipse transform="matrix(0.9983 -5.791158e-02 5.791158e-02 0.9983 -13.9572 6.2869)" fill="none" stroke="#000000" stroke-width="2" stroke-miterlimit="10" cx="101.5" cy="244" rx="14.8" ry="20"/>
<polyline fill="none" stroke="#000000" stroke-width="2" stroke-miterlimit="10" points="99.1,263.6 98.7,270.1 109,269.7 
	107,262.9 "/>
<polygon fill="none" stroke="#000000" stroke-width="2" stroke-miterlimit="10" points="84.6,271.3 122.6,268.9 120,327.4 
	91.9,327.4 "/>
<polyline fill="none" stroke="#000000" stroke-width="2" stroke-miterlimit="10" points="88.8,271 70.6,222.3 50.6,221 52.3,226.4 
	62.6,228.8 86.2,283.3 "/>
<polyline fill="none" stroke="#000000" stroke-width="2" stroke-miterlimit="10" points="118.9,269.2 129,221.8 146.8,220.4 
	146.5,225.4 135.6,228.2 122.3,275.9 "/>
<polyline fill="none" stroke="#000000" stroke-width="2" stroke-miterlimit="10" points="120,327.4 136.6,407.7 147.1,400.7 
	148,408.4 131.9,416.8 105.7,337.7 85.8,417.2 73.7,402.3 75.6,394.9 82.7,401.4 91.9,327.4 "/>
<ellipse transform="matrix(0.9926 -0.1211 0.1211 0.9926 -8.0513 12.5843)" fill="none" stroke="#000000" stroke-width="2" stroke-miterlimit="10" cx="99.5" cy="72.5" rx="11.9" ry="16.1"/>
<path fill="none" stroke="#000000" stroke-width="2" stroke-miterlimit="10" d="M112.1,72.4c3.6-0.5,6.1-0.8,6.1-0.8l1.1,58.5
	l-28.1,1.8L80.4,76.4c0,0,3.3-0.4,8-1"/>
<polyline fill="none" stroke="#000000" stroke-width="2" stroke-miterlimit="10" points="84.6,75.9 63.3,28.4 43.3,28.4 45.3,33.6 
	55.8,35.4 82.8,88.3 "/>
<polyline fill="none" stroke="#000000" stroke-width="2" stroke-miterlimit="10" points="114.6,72.1 121.6,24.1 130.7,7.2 
	135.2,14.2 127.2,25.7 118.3,78.6 "/>
<polyline fill="none" stroke="#000000" stroke-width="2" stroke-miterlimit="10" points="91.2,131.9 69.7,215.3 48.4,211.5 
	48.4,221 73.4,221 104.7,141 127.9,221 150.7,219.3 150.7,210 132.9,212.3 119.3,130.1 "/>
</svg>
