<?xml version="1.0" encoding="utf-8"?>
<!-- Generator: Adobe Illustrator 19.2.1, SVG Export Plug-In . SVG Version: 6.00 Build 0)  -->
<svg version="1.0" id="Layer_1" xmlns="http://www.w3.org/2000/svg" xmlns:xlink="http://www.w3.org/1999/xlink" x="0px" y="0px"
	 width="288px" height="288px" viewBox="0 0 288 288" enable-background="new 0 0 288 288" xml:space="preserve">
<ellipse fill="none" stroke="#000000" stroke-width="2" stroke-miterlimit="10" cx="156.1" cy="142" rx="52.8" ry="54.2"/>
<path fill="none" stroke="#000000" stroke-width="2" stroke-miterlimit="10" d="M118.5,104.7l2.8-0.8c0,0,1.5,0.6,2.2,0.8
	s3.6,0.1,4.1-0.4c0.5-0.5,1.6-1.4,2.2-1.4s2-0.2,2.8,0s2.6-0.3,3.6-0.1c1,0.2,4.9,0.5,5.9-0.1c1-0.6,4-2,4-2h2.2c0,0,3.1,1.6,3.8,2
	s1.9,2.4,1.6,3s-1,3.2-1,3.2l-0.1,4.1l1.2,0.8l4-1.4l3.9-2.2l3.1-1.9l4.4-0.4l0.9,0.9v2.1l-2.2,2.9l0.6,2l2.9,2.9l0.9,2l1.6,2.6v1.9
	h-1.9h-2.6h-3.1h-2c0,0-0.6,2.6-0.8,3.1s-0.2,3.4-0.2,3.4s-0.8,2-1.8,2.2s-2.9,0-2.9,0l-3.2,0.9c0,0-1.4,1.6-1.4,2.2s0.5,1.4,1,2.5
	s1.9,2.9,1.2,3.4c-0.7,0.5-1.6,1.8-2.9,1.5s-3.1-0.1-4.6-1.4c-1.5-1.2-4-2.8-4-2.8s-1.5-1.1-3.6-1s-2-0.2-2.9,0.5s-0.9,2-0.9,2
	l0.8,3.5c0,0,1.4,3.1,1.8,3.8s2.9,4.6,4.5,4.9s3.5-1.1,3.9,0s4.4,4.5,4.8,4.5s2.8-0.5,2.8-1.1s-0.6-1.6-0.1-3.1s0.8-3.2,1.6-3.8
	s0.1-0.6,1.9-1.1s3.8-1.1,3.8-1.1s1.6-0.2,2.8-0.2s2.6,0.2,2.6,0.6s0.4,1.1,0.4,2.2s1.2,3.6,1.5,4s2.6,2.5,3.1,2.5s3.8,1.1,3.8,1.1
	l3.6,1l1.2,2.1v3.9l-0.9,2l-1.4,3.5l-1.5,3.4c0,0,0.1,2.5-0.1,3.6s1.4,0.4-0.5,2.5s-3.1,3.4-3.5,4.1s-2.6,3.5-2.6,3.5l-2.5,1.2
	l-4,0.8l-2.6-0.6l-2.5-2.6c0,0-2.1-2.1-1.9-4s0.4-2.2,0.5-3s0.2-1.9,0.1-4s-0.4-3.6-0.4-3.6l-0.5-1.8l-2.9-1.4l-0.8-0.4l-3-2.1
	l-0.1-1.9l-0.6-2l-0.9-2.1l-3.4-2.5l-4-1.6l-4.2-0.4l-6.1-1.4c0,0,0.4,1.5-1.5-1c-1.9-2.5-2.6-3.6-2.6-3.6s-0.9-4.5-0.9-5.2
	s-0.8-3-0.8-3h-1.9c0,0-2.1-0.2-2.2-0.5s-0.9-2.2-0.9-2.2l-2.1-4.4v-2.1c0,0-3.2,0-3.2,0.4s1.6,2.6,0,3s-2.5,1.9-3.1,1.1
	s-2.8-3.9-2.8-3.9s-1.8-3-1.8-3.6s1-8.1,1.4-8.2s4-1.9,4-1.9s1.8-2.2,1.2-2.5s-3-3.7-3-3.7"/>
<path fill="none" stroke="#000000" stroke-width="2" stroke-miterlimit="10" d="M208.8,130.5c0,0-4.8,1.4-5.2,1.8s-2.1,3.6-2.1,3.6
	l-3.4,4.6c0,0-2.1,2.1-2.1,2.9s0,4.4,0,4.4v4.4l1.6,3.4c0,0,1.5,1.1,1.9,2s0.6,3.1,0.6,3.1s-0.1,2.5,0,2.9s3,3.1,3,3.1"/>
<path fill="none" stroke="#000000" stroke-width="2" stroke-miterlimit="10" d="M182.9,96c0,0,1,6.5,1,7s-0.2,3.9,0.8,5
	s3.1,1.8,3.6,1.8s1.1,0.1,2.1,0s1.5,0.2,2.2,0.1s2.8-0.4,3.4-0.4s2.2,0,2.2,0"/>
<path fill="none" stroke="#000000" stroke-width="2" stroke-miterlimit="10" d="M142.1,83.9c0,0-2.6-7.4-5.3-15.2"/>
<path fill="none" stroke="#000000" stroke-width="2" stroke-miterlimit="10" d="M134.5,62.3c-2.1-6.1-3.9-11.1-3.9-11.1"/>
<path fill="none" stroke="#000000" stroke-width="2" stroke-miterlimit="10" d="M156.4,80.5c0,0-0.1-5.3-0.2-12.6"/>
<path fill="none" stroke="#000000" stroke-width="2" stroke-miterlimit="10" d="M156,61.9c-0.1-6.2-0.2-13.2-0.3-19.5"/>
<path fill="none" stroke="#000000" stroke-width="2" stroke-miterlimit="10" d="M155.6,36.2c0-2.2-0.1-5.5-0.2-13.8"/>
<path fill="none" stroke="#000000" stroke-width="2" stroke-miterlimit="10" d="M172.1,82.2c0,0,1.2-6.8,2.6-14.3"/>
<path fill="none" stroke="#000000" stroke-width="2" stroke-miterlimit="10" d="M175.9,61.8c1.3-7.1,2.4-13.3,2.4-13.3"/>
<path fill="none" stroke="#000000" stroke-width="2" stroke-miterlimit="10" d="M88.3,151.2c0,0-7.7,1.7-15.7,3.5"/>
<path fill="none" stroke="#000000" stroke-width="2" stroke-miterlimit="10" d="M65.9,156.2c-6.3,1.4-11.4,2.6-11.4,2.6"/>
<path fill="none" stroke="#000000" stroke-width="2" stroke-miterlimit="10" d="M86.5,136.6c0,0-5.2-0.5-12.6-1.2"/>
<path fill="none" stroke="#000000" stroke-width="2" stroke-miterlimit="10" d="M68,134.8c-6.2-0.6-13.1-1.3-19.4-1.9"/>
<path fill="none" stroke="#000000" stroke-width="2" stroke-miterlimit="10" d="M42.4,132.3c-2.2-0.2-5.5-0.5-13.7-1.3"/>
<path fill="none" stroke="#000000" stroke-width="2" stroke-miterlimit="10" d="M90.1,121.1c0,0-6.6-2-13.9-4.2"/>
<path fill="none" stroke="#000000" stroke-width="2" stroke-miterlimit="10" d="M70.2,115.1c-6.9-2.1-12.9-3.9-12.9-3.9"/>
<path fill="none" stroke="#000000" stroke-width="2" stroke-miterlimit="10" d="M174.1,205.2c0,0,2.6,7.4,5.3,15.2"/>
<path fill="none" stroke="#000000" stroke-width="2" stroke-miterlimit="10" d="M181.7,226.8c2.1,6.1,3.9,11.1,3.9,11.1"/>
<path fill="none" stroke="#000000" stroke-width="2" stroke-miterlimit="10" d="M159.9,208.6c0,0,0.1,5.3,0.2,12.6"/>
<path fill="none" stroke="#000000" stroke-width="2" stroke-miterlimit="10" d="M160.2,227.2c0.1,6.2,0.2,13.2,0.3,19.5"/>
<path fill="none" stroke="#000000" stroke-width="2" stroke-miterlimit="10" d="M160.7,252.9c0,2.2,0.1,5.5,0.2,13.8"/>
<path fill="none" stroke="#000000" stroke-width="2" stroke-miterlimit="10" d="M144.1,206.8c0,0-1.2,6.8-2.6,14.3"/>
<path fill="none" stroke="#000000" stroke-width="2" stroke-miterlimit="10" d="M140.4,227.3c-1.3,7.1-2.4,13.3-2.4,13.3"/>
<path fill="none" stroke="#000000" stroke-width="2" stroke-miterlimit="10" d="M219.3,151.2c0,0,7.7,1.7,15.7,3.5"/>
<path fill="none" stroke="#000000" stroke-width="2" stroke-miterlimit="10" d="M241.7,156.2c6.3,1.4,11.4,2.6,11.4,2.6"/>
<path fill="none" stroke="#000000" stroke-width="2" stroke-miterlimit="10" d="M221.1,136.6c0,0,5.2-0.5,12.6-1.2"/>
<path fill="none" stroke="#000000" stroke-width="2" stroke-miterlimit="10" d="M239.6,134.8c6.2-0.6,13.1-1.3,19.4-1.9"/>
<path fill="none" stroke="#000000" stroke-width="2" stroke-miterlimit="10" d="M217.5,121.1c0,0,6.6-2,13.9-4.2"/>
<path fill="none" stroke="#000000" stroke-width="2" stroke-miterlimit="10" d="M237.4,115.1c6.9-2.1,12.9-3.9,12.9-3.9"/>
</svg>
