<?xml version="1.0" encoding="utf-8"?>
<!-- Generator: Adobe Illustrator 21.0.0, SVG Export Plug-In . SVG Version: 6.00 Build 0)  -->
<!DOCTYPE svg PUBLIC "-//W3C//DTD SVG 1.0//EN" "http://www.w3.org/TR/2001/REC-SVG-20010904/DTD/svg10.dtd">
<svg version="1.0" id="Layer_1" xmlns="http://www.w3.org/2000/svg" xmlns:xlink="http://www.w3.org/1999/xlink" x="0px" y="0px"
	 width="288px" height="288px" viewBox="0 0 288 288" enable-background="new 0 0 288 288" xml:space="preserve">
<ellipse transform="matrix(0.2921 -0.9564 0.9564 0.2921 -36.2328 239.7407)" fill="none" stroke="#000000" stroke-width="2" stroke-miterlimit="10" cx="143.8" cy="144.3" rx="16.5" ry="16.5"/>
<path fill="none" stroke="#000000" stroke-width="2" stroke-miterlimit="10" d="M182.6,163.1l4.1-13.4l-10-3.1
	c0.3-3.9-0.2-7.8-1.2-11.4l9.4-5l-6.6-12.4l-9.5,5c-2.5-2.9-5.4-5.3-8.8-7.2l3.1-10.3l-13.4-4.1l-3.2,10.4
	c-3.9-0.3-7.7,0.1-11.3,1.1l-5-9.5l-12.4,6.6l5,9.4c-2.9,2.4-5.4,5.4-7.4,8.8l-10-3.1l-4.1,13.4l9.9,3c-0.4,4,0,7.9,1,11.7l-9,4.8
	l6.6,12.4l8.9-4.8c2.5,3,5.6,5.6,9.1,7.6l-2.9,9.6l13.4,4.1l2.9-9.6c4,0.3,8-0.1,11.8-1.2l4.8,8.9l12.4-6.6l-4.8-9
	c2.9-2.5,5.5-5.6,7.4-9.1L182.6,163.1z"/>
</svg>
