<?xml version="1.0" encoding="utf-8"?>
<!-- Generator: Adobe Illustrator 21.0.0, SVG Export Plug-In . SVG Version: 6.00 Build 0)  -->
<!DOCTYPE svg PUBLIC "-//W3C//DTD SVG 1.0//EN" "http://www.w3.org/TR/2001/REC-SVG-20010904/DTD/svg10.dtd">
<svg version="1.0" id="Layer_1" xmlns="http://www.w3.org/2000/svg" xmlns:xlink="http://www.w3.org/1999/xlink" x="0px" y="0px"
	 width="288px" height="288px" viewBox="0 0 288 288" enable-background="new 0 0 288 288" xml:space="preserve">
<circle fill="none" stroke="#000000" stroke-width="2" stroke-miterlimit="10" cx="144" cy="144.9" r="19.1"/>
<path fill="none" stroke="#000000" stroke-width="2" stroke-miterlimit="10" d="M193.1,152.6v-16.2H181c-1-4.4-2.8-8.6-5.2-12.2
	l8.7-8.7l-11.4-11.4l-8.8,8.8c-3.7-2.3-7.8-4-12.2-5V95.4h-16.2v12.5c-4.4,1-8.5,2.7-12.2,5l-8.8-8.8l-11.4,11.4l8.7,8.7
	c-2.4,3.7-4.2,7.8-5.2,12.2H94.9v16.2h12c0.9,4.5,2.7,8.8,5.1,12.6l-8.4,8.4L115,185l8.3-8.3c3.8,2.5,8.1,4.3,12.7,5.3v11.6h16.2
	V182c4.6-1,8.9-2.8,12.7-5.3l8.3,8.3l11.4-11.4l-8.4-8.4c2.4-3.8,4.1-8,5.1-12.6L193.1,152.6L193.1,152.6z"/>
</svg>
