<?xml version="1.0" encoding="utf-8"?>
<!-- Generator: Adobe Illustrator 21.0.0, SVG Export Plug-In . SVG Version: 6.00 Build 0)  -->
<!DOCTYPE svg PUBLIC "-//W3C//DTD SVG 1.0//EN" "http://www.w3.org/TR/2001/REC-SVG-20010904/DTD/svg10.dtd">
<svg version="1.0" xmlns="http://www.w3.org/2000/svg" xmlns:xlink="http://www.w3.org/1999/xlink" x="0px" y="0px" width="792px"
	 height="612px" viewBox="0 0 792 612" enable-background="new 0 0 792 612" xml:space="preserve">
<g id="Color">
	<polygon fill="#FFFFFF" points="556,34.6 236,34.6 76,306 236,577.4 556,577.4 716,306 	"/>
</g>
<g id="Lines">
	<polygon fill="none" stroke="#000000" stroke-width="9" stroke-miterlimit="10" points="556,34.6 236,34.6 76,306 236,577.4 
		556,577.4 716,306 	"/>
</g>
<g id="Stroke">
	<path opacity="0" fill="none" stroke="#000000" stroke-width="92" stroke-miterlimit="10" d="M376,292.2
		c11.1-0.9,19.7,14.1,13.2,23.2c-18.1,0.8-31.9-21.3-25.4-38.2s28.3-24.9,45.4-18.6c23.5,8.6,33.9,39.9,23.5,62.7
		c-11.6,25.4-44.1,37.7-70.9,29.7c-26.8-8-46.5-33.3-51.7-60.7c-3.2-17.2-0.5-37.1,13-48.3c7.5-6.3,17.4-9,27-10.9
		c37.4-7.5,76.6-5.2,112.9,6.5c6.8,2.2,13.9,5,18.4,10.6c4.7,5.9,5.5,13.9,5.8,21.4c1.5,38.3-7.8,76.9-26.5,110.3
		c-6.1,10.9-13.6,21.6-24.6,27.5c-10.9,5.9-23.8,6.4-36.2,6.3c-16.6-0.1-33.5-0.9-49.1-6.6c-23.5-8.7-42.1-28.3-52.6-51
		c-10.6-22.7-13.7-48.4-12.4-73.4c0.5-10.2,1.8-20.8,7.2-29.5c7.3-11.9,20.7-18.4,33.4-24.2c30.8-14.1,62.3-28.1,95.9-32.9
		c33.6-4.8,70,0.6,96.4,21.9c7.3,5.9,13.8,13,17.1,21.8c2.9,7.5,3.2,15.7,3.4,23.7c1.7,61.1-4.7,127.6-45.7,172.9
		c-9.9,10.9-22,20.5-36.2,24.2c-13.5,3.6-27.8,1.7-41.5-1.1c-26.1-5.3-51.4-14-76.3-23.4c-24.1-9-49.5-20.1-62.9-42
		c-11.4-18.6-12-41.7-12.3-63.6c-0.3-23-0.5-46.3,4.9-68.6c5.9-24.2-44.9-38.1-31.2-58.9c12.7-19.3-6.9-49.2,13-61
		c24.9-14.7,152.3-14,181.2-13.1c18.1,0.5,36.5,2.1,53.1,9.4c22.8,9.9,39.8,29.4,55.9,48.3c13.2,15.3,26.5,30.9,34.9,49.3
		c12.7,27.4,13.5,59,9.2,88.9c-6,41.6-21.5,81.7-45.1,116.5c-9,13.3-19.5,26.1-33.7,33.6c-15,8-32.6,9.2-49.6,10.3
		c-26.5,1.7-53.1,3.4-79.4-0.4c-26.2-3.7-52.4-13.3-71.7-31.5c-24.2-22.8-35-56.1-43.4-88.3c-6.2-23.7-11.6-47.9-10.2-72.3
		c3.5-62.8,53.7-116.9,113.4-136.8s126.2-9.7,183.9,15.3c20.3,8.8,40.7,20.1,52.8,38.7c10.5,16.2,13.5,36,14.7,55.3
		c5.2,84-20.4,169.6-70.9,236.9c-11.5,15.4-25,30.3-42.7,37.8c-17,7.2-36.3,6.8-54.7,4.8c-33.1-3.6-65.6-11.9-97.9-20.1
		c-28.4-7.3-57.2-14.7-83.1-28.5c-14.2-7.5-27.5-17.1-37.4-29.7c-10.8-13.6-17.1-30.2-22.4-46.7c-25.1-79.1-28.5-163.4-27.3-246.4
		c0.3-23.3,1.2-47.3,10.6-68.6c15.6-35,52.9-56.9,90.8-61.9s76.5,4.6,112.1,18.7c47.1,18.6,91.3,45.3,127.7,80.5
		c21.4,20.7,40.3,44.6,51.2,72.3c11.3,29,13.3,60.7,14.7,91.8c1.9,42,2.9,84.4-4,125.9c-6.8,41.5-22,82.5-49.4,114.4
		c-8.4,9.8-18.2,18.9-30.2,23.7c-11.7,4.7-24.6,5-37.2,5.3c-46.9,1-94.2,1.9-140.2-7.4c-36.3-7.3-71.3-21-103.5-39.2
		c-19.7-11.2-38.8-24.3-52.7-42.3c-17.7-22.8-25.7-51.5-31.8-79.8c-9.7-45.2-32.3-79.5-34.1-125.8c-1.1-27.1,16.1-66.6,25.2-92.2
		c14.2-39.9,48-69.7,83.7-92.6c23.7-15.2,49.3-28.4,76.9-34.1c32.8-6.8,66.8-2.8,99.7,3c43.9,7.8,87.2,19,129.4,33.4
		c27.3,9.3,55.5,20.9,73.3,43.6c16.1,20.4,21.5,46.9,26.6,72.3c6.7,33.9,13.4,67.8,17.5,102.1c5.8,47.5,6.3,97.4-12.7,141.4
		c-7.9,18.3-19.9,35.9-37.7,44.6c-14.8,7.2-31.8,7.5-48.2,7.7c-50.5,0.5-100.9,0.4-151.4,0.3c-53.9-0.1-108.4-0.2-161.1-11.8
		c-18.9-4.1-37.9-10-53.3-21.6c-20-15.1-32.1-38.9-37.8-63.3c-5.8-24.4-5.8-49.8-5.9-74.8c-0.1-40.5-0.1-81-0.2-121.5
		c0-17.2,0-34.6,4.8-51.1c8.6-29.8,32.3-53.5,59.6-68.4s58-22,88.5-27.8c70.1-13.4,141.3-20.9,212.7-22.3
		c10.2-0.2,20.7-0.2,30.3,3.3c11.4,4.2,20.4,13.2,28.9,21.8c15.8,15.9,31.6,32,44,50.7c23.1,34.9,32.6,76.8,51.3,114.2
		c15.1,30.1,35.9,57,51.4,86.9s25.5,64.8,16.6,97.2c-7.9,28.6-29.2,51.4-51.2,71.4c-20,18.3-41.1,35.3-63.2,51
		c-10.2,7.3-20.9,14.4-33,17.8c-11.7,3.3-24.1,2.9-36.3,2.5c-41.1-1.4-82.2-2.8-123.4-4.2"/>
</g>
</svg>
