<?xml version="1.0" encoding="utf-8"?>
<!-- Generator: Adobe Illustrator 21.0.0, SVG Export Plug-In . SVG Version: 6.00 Build 0)  -->
<!DOCTYPE svg PUBLIC "-//W3C//DTD SVG 1.0//EN" "http://www.w3.org/TR/2001/REC-SVG-20010904/DTD/svg10.dtd">
<svg version="1.0" id="Layer_1" xmlns="http://www.w3.org/2000/svg" xmlns:xlink="http://www.w3.org/1999/xlink" x="0px" y="0px"
	 width="360px" height="288px" viewBox="0 0 360 288" enable-background="new 0 0 360 288" xml:space="preserve">
<line fill="none" stroke="#000000" stroke-width="2" stroke-miterlimit="10" x1="27.8" y1="179.1" x2="340.2" y2="179.1"/>
<line fill="none" stroke="#000000" stroke-width="2" stroke-miterlimit="10" x1="269.2" y1="192.1" x2="274.8" y2="190.4"/>
<line fill="none" stroke="#000000" stroke-width="2" stroke-miterlimit="10" x1="272" y1="194.1" x2="278.2" y2="194.1"/>
<path fill="none" stroke="#000000" stroke-width="2" stroke-miterlimit="10" d="M208.2,191.3c0,0,6.2-1.6,6,0.9s-3,5-3,5"/>
<path fill="none" stroke="#000000" stroke-width="2" stroke-miterlimit="10" d="M177.8,190.4c0,0-4.2,0.2-4.8,3.8s4.8,3,4.8,3"/>
<line fill="none" stroke="#000000" stroke-width="2" stroke-miterlimit="10" x1="197" y1="200.9" x2="197" y2="206.1"/>
<line fill="none" stroke="#000000" stroke-width="2" stroke-miterlimit="10" x1="200.5" y1="199.4" x2="200.5" y2="206.1"/>
<line fill="none" stroke="#000000" stroke-width="2" stroke-miterlimit="10" x1="130.2" y1="192.1" x2="135.8" y2="192.1"/>
<line fill="none" stroke="#000000" stroke-width="2" stroke-miterlimit="10" x1="130.2" y1="195.9" x2="134.8" y2="197.2"/>
<line fill="none" stroke="#000000" stroke-width="2" stroke-miterlimit="10" x1="83.8" y1="200.9" x2="86.8" y2="195.9"/>
<line fill="none" stroke="#000000" stroke-width="2" stroke-miterlimit="10" x1="85.2" y1="203.8" x2="91.2" y2="199.4"/>
<path fill="none" stroke="#000000" stroke-width="2" stroke-miterlimit="10" d="M57,191.3c0,0-2.5-0.1-3,2.5s4,2.8,4,2.8"/>
</svg>
