<?xml version="1.0" encoding="utf-8"?>
<!-- Generator: Adobe Illustrator 19.2.1, SVG Export Plug-In . SVG Version: 6.00 Build 0)  -->
<svg version="1.0" id="Layer_1" xmlns="http://www.w3.org/2000/svg" xmlns:xlink="http://www.w3.org/1999/xlink" x="0px" y="0px"
	 width="288px" height="288px" viewBox="0 0 288 288" enable-background="new 0 0 288 288" xml:space="preserve">
<polygon fill="none" stroke="#000000" stroke-width="2" stroke-miterlimit="10" points="88.1,90.4 90.6,203.8 200.1,200.9 
	200.1,80.1 "/>
<path fill="none" stroke="#000000" stroke-width="2" stroke-miterlimit="10" d="M148.3,84.9l1.4-32l24.7-44.3
	c-47.3-10-76.7,3-76.7,3l30.3,40.3l5.9,34.3"/>
<path fill="none" stroke="#000000" stroke-width="2" stroke-miterlimit="10" d="M97.7,11.6c0,0,42.7,15,76.7-3"/>
<path fill="none" stroke="#000000" stroke-width="2" stroke-miterlimit="10" d="M140.5,202.4l-1.4,32l-24.7,44.3
	c47.3,10,76.7-3,76.7-3l-30.3-40.3l-5.7-33.3"/>
<path fill="none" stroke="#000000" stroke-width="2" stroke-miterlimit="10" d="M191.1,275.7c0,0-42.7-15-76.7,3"/>
<line fill="none" stroke="#000000" stroke-width="2" stroke-miterlimit="10" x1="90.3" y1="192.9" x2="200.1" y2="187.6"/>
<circle fill="none" stroke="#000000" stroke-width="2" stroke-miterlimit="10" cx="185.2" cy="194.9" r="2.8"/>
<circle fill="none" stroke="#000000" stroke-width="2" stroke-miterlimit="10" cx="161.8" cy="195.5" r="2.8"/>
<circle fill="none" stroke="#000000" stroke-width="2" stroke-miterlimit="10" cx="133.6" cy="196.4" r="2.8"/>
<circle fill="none" stroke="#000000" stroke-width="2" stroke-miterlimit="10" cx="106.4" cy="198" r="2.8"/>
<line fill="none" stroke="#000000" stroke-width="2" stroke-miterlimit="10" x1="199.9" y1="94.4" x2="88.6" y2="104"/>
<ellipse transform="matrix(0.9993 -3.751637e-02 3.751637e-02 0.9993 -3.538 3.9389)" fill="none" stroke="#000000" stroke-width="2" stroke-miterlimit="10" cx="103.2" cy="96.2" rx="2.8" ry="2.8"/>
<ellipse transform="matrix(0.9993 -3.751637e-02 3.751637e-02 0.9993 -3.4195 4.8438)" fill="none" stroke="#000000" stroke-width="2" stroke-miterlimit="10" cx="127.4" cy="93.5" rx="2.8" ry="2.8"/>
<ellipse transform="matrix(0.9993 -3.751637e-02 3.751637e-02 0.9993 -3.308 5.884)" fill="none" stroke="#000000" stroke-width="2" stroke-miterlimit="10" cx="155.1" cy="91.1" rx="2.8" ry="2.8"/>
<ellipse transform="matrix(0.9993 -3.751988e-02 3.751988e-02 0.9993 -3.2107 6.9057)" fill="none" stroke="#000000" stroke-width="2" stroke-miterlimit="10" cx="182.4" cy="89" rx="2.8" ry="2.8"/>
</svg>
