<?xml version="1.0" encoding="utf-8"?>
<!-- Generator: Adobe Illustrator 19.2.1, SVG Export Plug-In . SVG Version: 6.00 Build 0)  -->
<svg version="1.0" id="Layer_1" xmlns="http://www.w3.org/2000/svg" xmlns:xlink="http://www.w3.org/1999/xlink" x="0px" y="0px"
	 width="288px" height="288px" viewBox="0 0 288 288" enable-background="new 0 0 288 288" xml:space="preserve">
<path fill="none" stroke="#000000" stroke-width="2" stroke-miterlimit="10" d="M29.8,73.7c0,0,26,15.8,54.5-2.6"/>
<path fill="none" stroke="#000000" stroke-width="2" stroke-miterlimit="10" d="M138.7,68.8c10.4,5.1,30.7,11.3,51.1-4.2"/>
<path fill="none" stroke="#000000" stroke-width="2" stroke-miterlimit="10" d="M87.4,71.8l13.7,143.3c0,0,38,50.3,41,50.3
	s57.7-4.3,57.7-5.7c0-1.3,0-19.3,0-19.3l-43.3-6.7l-17.7-46.7"/>
<polyline fill="none" stroke="#000000" stroke-width="2" stroke-miterlimit="10" points="181.6,155.6 179.1,133.1 205.8,130.7 
	205.8,154.1 "/>
<path fill="none" stroke="#000000" stroke-width="2" stroke-miterlimit="10" d="M215.8,190.1v-36c0,0-40.3,1.7-43.7,2l2.1,34"/>
<polyline fill="none" stroke="#000000" stroke-width="2" stroke-miterlimit="10" points="199.8,243.7 215.8,243.7 222.1,190.1 
	161.4,190.1 164.8,235 "/>
<path fill="none" stroke="#000000" stroke-width="2" stroke-miterlimit="10" d="M199.8,251.3l56.7-11.6c0,0-10-19.4-11.3-19.5
	s-26.2-3.9-26.2-3.9"/>
<path fill="none" stroke="#000000" stroke-width="2" stroke-miterlimit="10" d="M216.7,235.9c1.2-0.1,35.4-3.3,35.4-3.3"/>
<path fill="none" stroke="#000000" stroke-width="2" stroke-miterlimit="10" d="M218.6,225.2c0.4,0,30.5,0.8,30.5,0.8"/>
<polyline fill="none" stroke="#000000" stroke-width="2" stroke-miterlimit="10" points="242,219.6 236.7,213.4 219.8,210 "/>
<path fill="none" stroke="#000000" stroke-width="2" stroke-miterlimit="10" d="M152.5,74c0.4,15.8,2.1,88.9,2.1,88.9l18.9,15"/>
<path fill="none" stroke="#000000" stroke-width="2" stroke-miterlimit="10" d="M77.9,67.7c0,0,23,11.5,38,8.4s27.2-6.9,40.2-20.1"
	/>
<path fill="none" stroke="#000000" stroke-width="2" stroke-miterlimit="10" d="M62,33.5c0,0,14.9,21.9,34.9,15.8
	s21.1-26.7,21.1-26.7"/>
<path fill="none" stroke="#000000" stroke-width="2" stroke-miterlimit="10" d="M112.8,37.7c0,0,22,11,32.1-9.5"/>
</svg>
