<?xml version="1.0" encoding="utf-8"?>
<!-- Generator: Adobe Illustrator 21.0.0, SVG Export Plug-In . SVG Version: 6.00 Build 0)  -->
<!DOCTYPE svg PUBLIC "-//W3C//DTD SVG 1.0//EN" "http://www.w3.org/TR/2001/REC-SVG-20010904/DTD/svg10.dtd">
<svg version="1.0" xmlns="http://www.w3.org/2000/svg" xmlns:xlink="http://www.w3.org/1999/xlink" x="0px" y="0px" width="288px"
	 height="288px" viewBox="0 0 288 288" enable-background="new 0 0 288 288" xml:space="preserve">
<g id="Color">
	<path fill="#27AAE1" d="M87.4,71.8l13.2,3.8l5.9,135.9l39.5,48.8l53.8-4.5v4.5l-57.7,5.1c0,0-40.9-48.9-41-50.3
		S87.4,71.8,87.4,71.8z"/>
	<polygon fill="#27AAE1" points="222.1,210.5 223,214.8 239.7,216.9 242,220.8 222.1,216.9 222.1,222.5 245.5,223.8 247.8,223.8 
		249.1,226 222.1,225.6 223.2,230.8 251.1,229.6 252.1,232.6 219.8,235.6 219.8,241.8 256.5,237.5 256.5,239.7 199.8,251.3 
		199.8,245 216.7,243.7 219.8,210 	"/>
	<path fill="#27AAE1" d="M138.8,187c0,0,24.7,41.5,25.2,42.5s0.8,5.5,0.8,5.5l-8.3-1.3L138.8,187z"/>
</g>
<g id="Lines">
	<path fill="none" stroke="#000000" stroke-width="2" stroke-miterlimit="10" d="M29.8,73.7c0,0,26,15.8,54.5-2.6"/>
	<path fill="none" stroke="#000000" stroke-width="2" stroke-miterlimit="10" d="M138.7,68.8c10.4,5.1,30.7,11.3,51.1-4.2"/>
	<path fill="none" stroke="#000000" stroke-width="2" stroke-miterlimit="10" d="M87.4,71.8l13.7,143.3c0,0,38,50.3,41,50.3
		s57.7-4.3,57.7-5.7c0-1.3,0-19.3,0-19.3l-43.3-6.7L138.8,187"/>
	<polyline fill="none" stroke="#000000" stroke-width="2" stroke-miterlimit="10" points="165.4,159 164,132.8 215.2,131.3 
		214.1,157.5 	"/>
	<path fill="none" stroke="#000000" stroke-width="2" stroke-miterlimit="10" d="M216.8,190.1l-0.2-32.4c0,0-50.5,1.7-53.9,2
		l2.4,30.4"/>
	<polyline fill="none" stroke="#000000" stroke-width="2" stroke-miterlimit="10" points="199.8,243.7 215.8,243.7 222.1,190.1 
		161.4,190.1 164.8,235 	"/>
	<path fill="none" stroke="#000000" stroke-width="2" stroke-miterlimit="10" d="M199.8,251.3l56.7-11.6c0,0-10-19.4-11.3-19.5
		s-26.2-3.9-26.2-3.9"/>
	<path fill="none" stroke="#000000" stroke-width="2" stroke-miterlimit="10" d="M216.7,235.9c1.2-0.1,35.4-3.3,35.4-3.3"/>
	<path fill="none" stroke="#000000" stroke-width="2" stroke-miterlimit="10" d="M218.6,225.2c0.4,0,30.5,0.8,30.5,0.8"/>
	<polyline fill="none" stroke="#000000" stroke-width="2" stroke-miterlimit="10" points="242,219.6 236.7,213.4 219.8,210 	"/>
	<path fill="none" stroke="#000000" stroke-width="2" stroke-miterlimit="10" d="M152.5,74c0.4,15.8,2.1,88.9,2.1,88.9l9.4,10.2"/>
	<path fill="none" stroke="#000000" stroke-width="2" stroke-miterlimit="10" d="M77.9,67.7c0,0,23,11.5,38,8.4s27.2-6.9,40.2-20.1"
		/>
	<path fill="none" stroke="#000000" stroke-width="2" stroke-miterlimit="10" d="M62,33.5c0,0,14.9,21.9,34.9,15.8
		S118,22.6,118,22.6"/>
	<path fill="none" stroke="#000000" stroke-width="2" stroke-miterlimit="10" d="M112.8,37.7c0,0,22,11,32.1-9.5"/>
</g>
<g id="Stroke">
	
		<path opacity="0" fill="none" stroke="#000000" stroke-width="15" stroke-linecap="round" stroke-linejoin="round" stroke-miterlimit="10" d="
		M84,77.3c10.2-0.7,20.5-0.4,30.7,0.9c-7,7.3-21.5,1.9-27.9,9.7c5.8,1.5,11.7,2.5,17.7,3.1c0.5,1.8-1.7,3.1-3.6,3.6
		c-7.1,2-14.1,4-21.2,6c7.8,2.9,16.3,3.2,24.6,3.3c0.2,4.1-4.4,6.5-8.4,7.4c-4,0.9-8.7,1.9-10.2,5.7c4.7,0.9,9.5,1.8,14.2,2.8
		c-1.5,6.9-13,6.3-15.9,12.7c8.1,0.2,16.2,0.4,24.3,0.6c-5.6,5-11.8,9.3-18.5,12.9c6.3,1.5,12.8,2.4,19.3,2.6
		c-5.7,4.1-11.4,8.2-17.1,12.4c6.2,2.1,12.6,3.8,19.1,5.1c-3.3,2.1-6.7,4.3-10,6.4c-3,1.9-6.4,4.8-5.4,8.3c1.1,4.1,6.9,4.1,11,3.2
		c-3.2,4.4-6.3,9-9.2,13.6c-0.8,1.2-1.6,2.8-0.9,4.1c0.7,1.3,2.4,1.5,3.8,1.5c3.5,0.1,7,0.3,10.5,0.4c-6.1,3.5-10.9,9.1-13.5,15.7
		c5.5,1.6,11.7,0.4,16.2-3.1c-2.9,5.2-5.2,10.8-6.7,16.5c6.5-0.6,12.9-2.6,18.6-5.8c-3.7,3.8-6.6,8.4-8.3,13.5
		c8-1,16.1-1.5,24.2-1.4c-5.8,4.9-10.4,11.2-13.3,18.2c4.6-1.3,9.3-2.5,13.9-3.8c-0.8,2.9-1.5,5.8-2.3,8.8c1-0.7,2.1-1.3,3.1-2
		c-0.3,3-0.7,5.9-1,8.9c2.6-4.1,5.4-8,8.6-11.7c0.1,3.8,0.5,7.5,1.1,11.2c0.2,1,0.5,2.2,1.5,2.5c1.4,0.4,2.4-1.2,2.9-2.5
		c1.6-4.6,2.9-9.2,3.7-14c0,5.5,0.5,11,1.3,16.4c4.6-2.9,8.1-7.3,10-12.4c0.7,3.6,1.4,7.1,2.1,10.7c5.6-4.2,10.1-9.8,13-16.2
		c1.2,3.4,2.5,6.8,3.7,10.3c3.3-4.1,5.7-8.8,7-13.9c-0.2,7.3-0.4,15,2.6,21.6c5.8-21.5,14.2-42.3,25-61.7
		c-0.3,13.1-9.1,27.8-1.1,40.3c9-15,10.4-30.5,11.8-45.6c4.3,13.7,1.6,29.5,8.6,42.1c3.7-8.2,5-17.5,3.6-26.4
		c6.2,9.6,2.9,24.4,11.8,31.5c0.5-11-0.5-22.4-5.5-32.2c-5-9.8-14.5-17.8-25.5-18.6c-13.8-1-25.7,8.8-36.8,17.1
		c-10.9,8.2-22.6,15.4-34.8,21.5c-0.3-6.1,1.8-12.2,5.8-16.8c-3.5,0.6-7,1.2-10.5,1.8c0.9-3.4,2.8-6.5,5.5-8.8
		c-3.9-0.1-7.9,0.4-11.7,1.3c2.6-2.8,4.9-5.8,6.9-8.9c-4.1,0.3-8.3,0-12.3-0.7c3.2-1.7,6.3-3.3,9.5-5c-2.8-0.3-6.1-1-7.1-3.7
		c-0.6-1.7,0-3.5,0.1-5.3s-0.7-4-2.4-4.2"/>
</g>
</svg>
