<?xml version="1.0" encoding="utf-8"?>
<!-- Generator: Adobe Illustrator 21.0.0, SVG Export Plug-In . SVG Version: 6.00 Build 0)  -->
<!DOCTYPE svg PUBLIC "-//W3C//DTD SVG 1.0//EN" "http://www.w3.org/TR/2001/REC-SVG-20010904/DTD/svg10.dtd">
<svg version="1.0" id="Layer_1" xmlns="http://www.w3.org/2000/svg" xmlns:xlink="http://www.w3.org/1999/xlink" x="0px" y="0px"
	 width="288px" height="288px" viewBox="0 0 288 288" enable-background="new 0 0 288 288" xml:space="preserve">
<g id="Color">
	<path fill="#27AAE1" d="M132.1,114.4c0,0,17.5,10.6,14.2,25.2c0,0,8-7.3-3.9-22.3C142.4,117.3,137.8,112.5,132.1,114.4z"/>
	<polygon fill="#27AAE1" points="152.3,146.6 136.5,182.4 64.7,213.4 54.3,197.3 46.9,196.8 56.1,216.6 60.1,217.4 64.7,216.4 
		144.8,185.4 146.4,184.4 159.3,143.9 152.3,145.1 	"/>
	<polygon fill="#27AAE1" points="145.1,206.3 160.5,199.9 173.9,176 167,157.7 167,155.5 156.9,151.4 159.3,143.9 171.9,157.7 
		179.1,176 162.1,203.2 147.7,208.7 	"/>
</g>
<g id="Lines">
	
		<ellipse transform="matrix(0.9663 -0.2575 0.2575 0.9663 -17.7527 39.0691)" fill="none" stroke="#000000" stroke-width="2" stroke-miterlimit="10" cx="140.3" cy="87.3" rx="11.6" ry="16.3"/>
	<polyline fill="none" stroke="#000000" stroke-width="2" stroke-miterlimit="10" points="149.6,99.3 151.7,104.4 146.5,106.7 
		143.7,103.2 	"/>
	<polyline fill="none" stroke="#000000" stroke-width="2" stroke-miterlimit="10" points="159.3,102 186,124 169.4,153 165.8,148.5 
		175.4,127.5 170.7,124.4 	"/>
	<line fill="none" stroke="#000000" stroke-width="2" stroke-miterlimit="10" x1="186.2" y1="123.4" x2="175.2" y2="127.9"/>
	<polygon fill="none" stroke="#000000" stroke-width="2" stroke-miterlimit="10" points="156.5,164.5 165.1,167.3 167,156.7 
		161.7,154.2 	"/>
	
		<ellipse transform="matrix(0.9187 -0.395 0.395 0.9187 -39.441 64.9777)" fill="none" stroke="#000000" stroke-width="2" stroke-miterlimit="10" cx="138.1" cy="128.3" rx="10" ry="15.1"/>
	<polyline fill="none" stroke="#000000" stroke-width="2" stroke-miterlimit="10" points="147.2,139.6 148.3,144.9 142.2,146.6 
		141.2,143.1 	"/>
	<path fill="none" stroke="#000000" stroke-width="2" stroke-miterlimit="10" d="M133.6,143.9l-7.8,3.6l2.4,8.5c0,0,5.8,2.9,6,2.9
		s3.9-2.7,3.9-2.7L133.6,143.9z"/>
	<path fill="none" stroke="#000000" stroke-width="2" stroke-miterlimit="10" d="M127.7,146.6c0,0-3.2-13-0.6-21.8"/>
	<line fill="none" stroke="#000000" stroke-width="2" stroke-miterlimit="10" x1="131.5" y1="144.9" x2="131.7" y2="137.1"/>
	<polyline fill="none" stroke="#000000" stroke-width="2" stroke-miterlimit="10" points="165.1,167.3 168,176.4 159.3,197.3 
		152.2,197.2 144,205.3 147,208 162.1,203.2 179.1,176 171.3,157.2 159.6,143.6 	"/>
	<line fill="none" stroke="#000000" stroke-width="2" stroke-miterlimit="10" x1="159.3" y1="197.3" x2="161.6" y2="202.5"/>
	<line fill="none" stroke="#000000" stroke-width="2" stroke-miterlimit="10" x1="167.9" y1="175.8" x2="179.1" y2="176"/>
	<polyline fill="none" stroke="#000000" stroke-width="2" stroke-miterlimit="10" points="126.9,179.3 63.7,211.5 66.1,216 
		146.3,184.8 	"/>
	<path fill="none" stroke="#000000" stroke-width="2" stroke-miterlimit="10" d="M62.5,206.9c0.5-0.3,55.2-31.3,55.2-31.3"/>
	<path fill="none" stroke="#000000" stroke-width="2" stroke-miterlimit="10" d="M185.4,155.5l-2.3,23.6h38.4v3.5
		c0,0-45.2,6.2-51.5,7.1"/>
	<path fill="none" stroke="#000000" stroke-width="2" stroke-miterlimit="10" d="M171.9,157.7c6.1-1.2,14.2-2.7,14.2-2.7
		s-3.7-7.3-8.4-16.5"/>
	<path fill="none" stroke="#000000" stroke-width="2" stroke-miterlimit="10" d="M173.9,130.9c-7.1-14-14.6-28.9-14.6-28.9l-25.8,12
		"/>
	<path fill="none" stroke="#000000" stroke-width="2" stroke-miterlimit="10" d="M158.7,165.2c-0.5,0.2-7,19.2-7,19.2H164"/>
	<path fill="none" stroke="#000000" stroke-width="2" stroke-miterlimit="10" d="M221.5,178.5c0-0.5,1.5-3,1.5-3l17.1,8.2
		c0,0-9.1,2.6-9.3,2.6s-8.7-3.4-8.7-3.4"/>
	<path fill="none" stroke="#000000" stroke-width="2" stroke-miterlimit="10" d="M184.2,174.3c0.5,0.2,30.2,1.5,30.2,1.5v3.3"/>
	<path fill="none" stroke="#000000" stroke-width="2" stroke-miterlimit="10" d="M214.5,175.8c0.5-0.6,4.2-4.6,4.2-4.6l18.5,5.3
		l-6.4,2.6"/>
	<path fill="none" stroke="#000000" stroke-width="2" stroke-miterlimit="10" d="M135.1,148.1c1-0.1,24.2-4.2,24.2-4.2l-13.1,41.2
		c0,0-30.3-8.4-29.3-9.1c1-0.7,13.7-18.8,13.7-18.8"/>
	<polygon fill="none" stroke="#000000" stroke-width="2" stroke-miterlimit="10" points="63.5,211.9 60.1,198.8 52,196.7 
		60.4,217.4 64.7,216.4 64,213.6 	"/>
	<polyline fill="none" stroke="#000000" stroke-width="2" stroke-miterlimit="10" points="52.1,197.3 46.9,196.8 56.1,216.6 
		60.1,216.5 	"/>
	<line fill="none" stroke="#000000" stroke-width="2" stroke-miterlimit="10" x1="155.6" y1="156.7" x2="159.1" y2="159.3"/>
	<path fill="none" stroke="#000000" stroke-width="2" stroke-miterlimit="10" d="M126.7,118c1.4,0.4,8.3,3.6,13.5-2.6"/>
	<path fill="none" stroke="#000000" stroke-width="2" stroke-miterlimit="10" d="M124.9,120.6c0,0,7.6,4.8,17.8-2.4"/>
	<path fill="none" stroke="#000000" stroke-width="2" stroke-miterlimit="10" d="M124.1,124.2c0,0,11.1,4.4,20.8-3.7"/>
</g>
<g id="Fill">
	
		<path opacity="0" fill="none" stroke="#231F20" stroke-width="14" stroke-linecap="round" stroke-linejoin="round" stroke-miterlimit="10" d="
		M132.6,116.8c4.1-0.8,8.3-0.9,12.4-0.3c-1.9,0.9-3.8,2.1-5.3,3.6c1.7,0.5,3.3,0.9,5,1.4c0.4,0.1,0.8,0.2,1.1,0.6
		c0.6,0.8-0.3,1.9-1.3,2.3c-1,0.4-2.2,0.7-2.5,1.6c3.2,0.4,6.5,0.9,9.7,1.3c-3,1.5-6.1,3-9.1,4.4c2.1,0.3,4.1,0.7,6.2,1
		c0.3,0,0.6,0.1,0.8,0.3c0.6,0.6-0.2,1.5-0.9,1.9c-1.4,0.8-2.8,1.7-4.3,2.5c0.9,1.4,2.3,2.4,3.8,2.9c-1,1.2-2,2.5-3.1,3.7
		c9.8-0.3,19.7-0.6,29.5-0.9c-10.8,6.4-25.3,2.4-36.5,8c15.4,3.6,32.4-4.2,47,1.9c-6.5,5-15.2,5.6-23.3,5.4
		c-8.2-0.2-16.5-1-24.3,1.6c15.4,1,30.8,1.9,46.2,2.9c0.3,2-2.2,3.2-4.2,3.6c-14.1,2.7-28.5-3-42.9-3c-1.3,0-2.9,0.3-3.2,1.5
		c7.3,2.2,14.8,3.8,22.4,4.7c3.6,0.4,7.2,0.7,10.7,1.4c7.3,1.6,13.9,5.1,20.5,8.7c-8.9,1.1-18,0.6-26.7-1.5
		c-9.2-2.2-18.4-6.2-27.7-4.9c15.2,4.9,30.4,9.9,45.5,14.8c-8.3,2.4-17.3,0.4-25.4-2.5c-8.2-2.9-16.1-6.8-24.6-8.2
		c5.6,5.6,12.5,10,19.9,12.8c7.1,2.7,15.4,4.3,20,10.4c-1.1,1.3-2.9,1.8-4.6,1.9c-6.3,0.5-12.2-3-17.1-6.9
		c-4.9-3.9-9.4-8.5-15.2-11.1c-1.1,1.9,0.2,4.3,1.8,5.8c6.1,6.3,16.2,9.2,19.3,17.4c-2.9,2.2-6.9,0.1-9.9-2
		c-6.6-4.8-13.4-9.6-18.2-16.3c-0.6-0.8-1.2-1.6-2.1-1.9c-1.7-0.5-3.4,1.5-3.2,3.3c0.2,1.8,1.5,3.3,2.8,4.6
		c-4.6,0.7-9.5-0.5-13.2-3.4c-1.7,1.1-1.3,3.7-0.8,5.7s0.4,4.8-1.6,5.4c-0.8,0.3-1.7,0-2.5-0.4c-1.8-0.8-3.2-2.3-4.8-3.3
		c-1.7-1-3.9-1.6-5.5-0.6c-4,2.4-0.7,10.2-4.8,12.4c-0.9,0.5-2,0.5-3,0.5c-2.5-0.2-4.9-1-7-2.4c-0.9-0.6-1.8-1.4-2.9-1.7
		c-1.1-0.3-2.5-0.1-3,0.9c-0.6,1-0.1,2.2-0.1,3.4c-0.1,3.5-4.9,5.2-8,3.7c-3.2-1.5-4.9-4.9-6.5-8c-2.3-4.6-4.5-9.2-6.8-13.8
		c-2.7,3-1.4,7.7,0.2,11.5c2,5,4.1,10,6.1,14.9"/>
</g>
</svg>
