<?xml version="1.0" encoding="utf-8"?>
<!-- Generator: Adobe Illustrator 19.2.1, SVG Export Plug-In . SVG Version: 6.00 Build 0)  -->
<svg version="1.0" id="Layer_1" xmlns="http://www.w3.org/2000/svg" xmlns:xlink="http://www.w3.org/1999/xlink" x="0px" y="0px"
	 width="288px" height="288px" viewBox="0 0 288 288" enable-background="new 0 0 288 288" xml:space="preserve">
<polygon fill="none" stroke="#000000" stroke-width="2" stroke-miterlimit="10" points="135.8,116.8 122.2,74.1 50,102.7 144,240.7 
	229.8,103.2 168.5,62.3 "/>
<polyline fill="none" stroke="#000000" stroke-width="2" stroke-miterlimit="10" points="100.8,177.3 90.9,187.2 66.4,185.3 "/>
<polyline fill="none" stroke="#000000" stroke-width="2" stroke-miterlimit="10" points="108.9,189.2 95.4,202.6 63.2,202.6 "/>
<polyline fill="none" stroke="#000000" stroke-width="2" stroke-miterlimit="10" points="95.8,84.6 86,56.4 56.4,56.4 "/>
<path fill="none" stroke="#000000" stroke-width="2" stroke-miterlimit="10" d="M56.4,73.2c2.3,0,21.8-2.7,21.8-2.7L86,88.5"/>
<polyline fill="none" stroke="#000000" stroke-width="2" stroke-miterlimit="10" points="194.9,159.1 218,171.7 247.5,165.4 "/>
<polyline fill="none" stroke="#000000" stroke-width="2" stroke-miterlimit="10" points="201.2,149 221.2,156.7 242.5,149 "/>
<polyline fill="none" stroke="#000000" stroke-width="2" stroke-miterlimit="10" points="184.5,73 191.2,51 221.8,47.1 "/>
<polyline fill="none" stroke="#000000" stroke-width="2" stroke-miterlimit="10" points="193,79.5 201.2,64.6 225,62.3 "/>
<polygon fill="none" stroke="#000000" stroke-width="2" stroke-miterlimit="10" points="110.6,34.6 97.9,53 124.2,53 "/>
<line fill="none" stroke="#000000" stroke-width="2" stroke-miterlimit="10" x1="106.1" y1="53" x2="106.1" y2="80.5"/>
<line fill="none" stroke="#000000" stroke-width="2" stroke-miterlimit="10" x1="114.9" y1="53" x2="116.3" y2="76.5"/>
<circle fill="none" stroke="#000000" stroke-width="2" stroke-miterlimit="10" cx="73.1" cy="109.7" r="4.9"/>
<circle fill="none" stroke="#000000" stroke-width="2" stroke-miterlimit="10" cx="113.8" cy="91.2" r="4.9"/>
<circle fill="none" stroke="#000000" stroke-width="2" stroke-miterlimit="10" cx="173.4" cy="81.8" r="4.9"/>
<circle fill="none" stroke="#000000" stroke-width="2" stroke-miterlimit="10" cx="208.6" cy="105.7" r="4.9"/>
</svg>
