<?xml version="1.0" encoding="utf-8"?>
<!-- Generator: Adobe Illustrator 21.0.0, SVG Export Plug-In . SVG Version: 6.00 Build 0)  -->
<!DOCTYPE svg PUBLIC "-//W3C//DTD SVG 1.0//EN" "http://www.w3.org/TR/2001/REC-SVG-20010904/DTD/svg10.dtd">
<svg version="1.0" xmlns="http://www.w3.org/2000/svg" xmlns:xlink="http://www.w3.org/1999/xlink" x="0px" y="0px" width="288px"
	 height="288px" viewBox="0 0 288 288" enable-background="new 0 0 288 288" xml:space="preserve">
<g id="Color">
	<path fill="#27AAE1" d="M179.1,163.9l-3.6-17.4l-5.5,0.8l-4.5-3.3c0,0,2.9-13.3,1.8-15.2s-2.8-9.5-10-10.2c0,0,12.1,12.5,1.1,28
		l9,1.8v2.8h6.3l1.4,10.8l-3.1,3.4c0,0-15.7,1.4-23.7-5.7H146l0.9,4.3c0,0,13,8.6,25.5,5.5l1.1,8.2h3l-1.6-12.3L179.1,163.9z"/>
</g>
<g id="Lines">
	
		<ellipse transform="matrix(0.1409 -0.99 0.99 0.1409 -13.5671 230.2942)" fill="none" stroke="#000000" stroke-width="2" stroke-miterlimit="10" cx="125.9" cy="123" rx="14.1" ry="10.3"/>
	<ellipse fill="none" stroke="#000000" stroke-width="2" stroke-miterlimit="10" cx="156.6" cy="132.5" rx="10.6" ry="14"/>
	<path fill="none" stroke="#000000" stroke-width="2" stroke-miterlimit="10" d="M146.1,119.2c0,0,8.6,7.1,19.4,4.5"/>
	<path fill="none" stroke="#000000" stroke-width="2" stroke-miterlimit="10" d="M151.8,117.2c0,0,2.1,5.3,10.8,3.7"/>
	<path fill="none" stroke="#000000" stroke-width="2" stroke-miterlimit="10" d="M143.8,122c0,0,8.4,8.4,22.3,4.8"/>
	<polyline fill="none" stroke="#000000" stroke-width="2" stroke-miterlimit="10" points="119.7,134.8 119.7,138.7 125.9,139.9 
		127.6,136.5 	"/>
	<path fill="none" stroke="#000000" stroke-width="2" stroke-miterlimit="10" d="M135.2,158.8c-0.5-8.1-1-15.5-1-15.5
		c-10.3-6.3-26-4.8-26-4.8l-2.5,40.6"/>
	<path fill="none" stroke="#000000" stroke-width="2" stroke-miterlimit="10" d="M112.2,141.6c0,0,13,16.5,14.3,17.7s17.2-3,17.2-3
		v3.2l-15.8,8.8c0,0-10.6-3-17.6-13.3"/>
	<path fill="none" stroke="#000000" stroke-width="2" stroke-miterlimit="10" d="M136.5,180.3c0,0-0.5-7.7-1-16"/>
	<polyline fill="none" stroke="#000000" stroke-width="2" stroke-miterlimit="10" points="152.5,157 150,147.3 147.4,147.3 
		143.7,156.3 143.7,159.5 148.1,159.5 151.9,161.8 	"/>
	<line fill="none" stroke="#000000" stroke-width="2" stroke-miterlimit="10" x1="126.5" y1="159.3" x2="128" y2="168.3"/>
	<path fill="none" stroke="#000000" stroke-width="2" stroke-miterlimit="10" d="M148.8,141.6c-5,2.1-8.1,4.9-8.1,4.9
		s-0.6,3.9-1,10.8"/>
	<path fill="none" stroke="#000000" stroke-width="2" stroke-miterlimit="10" d="M139.4,161.9c-0.2,4.8-0.2,11.4,0,17.8"/>
	<line fill="none" stroke="#000000" stroke-width="2" stroke-miterlimit="10" x1="174.9" y1="165.2" x2="176.5" y2="177.5"/>
	<path fill="none" stroke="#000000" stroke-width="2" stroke-miterlimit="10" d="M146.1,179.1c0,0,0-14.9,0-20.3"/>
	<path fill="none" stroke="#000000" stroke-width="2" stroke-miterlimit="10" d="M172.2,155.8l-19.7,1.2l-0.7,4.8
		c11.5,6.7,27.3,2.1,27.3,2.1l-4.3-20.5c-0.4-0.2-1.6-0.9-2-1.1"/>
	<line fill="none" stroke="#000000" stroke-width="2" stroke-miterlimit="10" x1="148.7" y1="147.3" x2="148.1" y2="159"/>
	<path fill="none" stroke="#000000" stroke-width="2" stroke-miterlimit="10" d="M133.6,142.9c0,0,7.3-2.6,13.3-5.2"/>
	<line fill="none" stroke="#000000" stroke-width="2" stroke-miterlimit="10" x1="140.2" y1="151" x2="134.8" y2="153.2"/>
	<polyline fill="none" stroke="#000000" stroke-width="2" stroke-miterlimit="10" points="166.8,136.5 171.6,137.7 173.5,146.5 
		169.2,147.3 164.5,141.9 	"/>
</g>
<g id="Stroke">
	
		<path opacity="0" fill="none" stroke="#000000" stroke-width="9" stroke-linecap="round" stroke-linejoin="round" stroke-miterlimit="10" d="
		M152.5,117.8c3.3-0.2,6.6-0.2,9.9,0.3c1.8,0.2,4,1.2,3.8,2.9c-0.2,1.1-1.3,1.8-2.4,2.3c-2.9,1.3-6,2.2-9.1,2.9
		c5.1,0.4,10.2,0.9,15.3,1.3c0.4,0,0.8,0.1,1,0.4c0.3,0.5-0.3,1.1-0.8,1.4c-3.9,2.3-8.2,3.9-12.7,4.6c7.3,1.3,14.8,1.9,22.2,2
		c-8.3,5.8-19.4,5.8-28.5,10.2c6.5,0,13,0,19.6,0c2.5,0,5.2,0.1,7.1,1.7c-4.4,0.7-8.9,1.4-13.3,2.2c6.2,1,12.4,2.2,18.5,3.7
		c-3.7,1.2-7.6,2-11.5,2.4c3.3-0.1,6.5,0.5,9.5,1.7c-0.9,1.8-3.3,2.3-5.3,2.2s-4.2-0.5-6,0.4c2.5,2.2,5,4.5,7.4,6.7
		c-3.2,0.5-6.4,1.8-9.1,3.6c3.1,1.1,6.4,1.6,9.7,1.6c-2.3,0.4-4.5,1.3-6.5,2.6c-0.7,0.5-1.4,1.3-1,2c0.2,0.4,0.6,0.5,1.1,0.6
		c1.7,0.5,3.4,0.7,5.2,0.6c-6.2-4.1-9.7-11.9-8.6-19.2c0.8,4.5-0.2,9.3-2.6,13.2c-0.5-2.2-0.8-4.5-0.7-6.8c-0.5,2.5-1.5,4.9-3,7
		c0-3.9-0.1-7.8-0.1-11.7c-0.7,2.8-2.3,5.3-4.5,7.2c-0.2-2.4-0.5-4.8-0.7-7.2c-1.3,2.2-2.6,4.5-4,6.7c0-2.3,0-4.6-0.1-6.9
		c-1.5,2.7-3,5.5-4.4,8.2c0-2.8,0-5.7,0-8.5c0-0.4,0-0.8-0.3-1.2c-0.3-0.3-0.9-0.3-1,0"/>
</g>
</svg>
