<?xml version="1.0" encoding="utf-8"?>
<!-- Generator: Adobe Illustrator 19.2.1, SVG Export Plug-In . SVG Version: 6.00 Build 0)  -->
<svg version="1.0" id="Layer_1" xmlns="http://www.w3.org/2000/svg" xmlns:xlink="http://www.w3.org/1999/xlink" x="0px" y="0px"
	 width="288px" height="288px" viewBox="0 0 288 288" enable-background="new 0 0 288 288" xml:space="preserve">
<g id="Layer_2">
	<path fill="#27AAE1" d="M150.3,43.9c0,0-14.4,15.5-5.3,36.1c0,0-13-5.8-7.2-23.6C142.5,41.7,150.3,43.9,150.3,43.9z"/>
	<polygon fill="#27AAE1" points="124.8,94 109,100 103.2,126.7 105.3,126.7 112,102.8 124.8,99.2 	"/>
	<path fill="#27AAE1" d="M132.4,84.8l-4.1,53c0,0,36.3,62.7,43,81.7l22.3,4.5c0,0-8.8,7.6-9.3,7.4c-0.5-0.2-16.1-5.9-16.1-5.9
		l0.6-4.8l-34.1-57.6c0,0-3,16.7-5.3,19.6c-2.4,3-8.2,17-13.5,21.8S101.1,218,101.1,218l14.8,12.1l-11.7,2.7l-11.8-13.3
		c0,0,13.3-15.7,15.7-20.4c2.5-4.7,9-21.9,10.5-29.6c1.5-7.7,4.8-25.8,4.8-25.8l-3.5-4.3l6.3-52.9L132.4,84.8z"/>
</g>
<g id="Layer_1_1_">
	
		<ellipse transform="matrix(0.1802 -0.9836 0.9836 0.1802 61.0264 197.4836)" fill="none" stroke="#000000" stroke-width="2" stroke-miterlimit="10" cx="149" cy="62.1" rx="18.4" ry="12.4"/>
	<path fill="none" stroke="#000000" stroke-width="2" stroke-miterlimit="10" d="M139.8,46.5c0,0,13.8,1.9,21,0"/>
	<path fill="none" stroke="#000000" stroke-width="2" stroke-miterlimit="10" d="M137.9,49.6c0,0,14,2.8,24.8,0"/>
	<path fill="none" stroke="#000000" stroke-width="2" stroke-miterlimit="10" d="M136.5,53.2c0,0,16.2,3.7,26.6,0"/>
	<path fill="none" stroke="#000000" stroke-width="2" stroke-miterlimit="10" d="M155.7,89.1c0,0-17.8-8.3-29.5-2.6l-5.7,52.9
		l19.4,2.6L155.7,89.1z"/>
	<polyline fill="none" stroke="#000000" stroke-width="2" stroke-miterlimit="10" points="126.2,86.6 104.2,95.4 101.1,126.7 
		105.3,126.7 111.2,103 	"/>
	<line fill="none" stroke="#000000" stroke-width="2" stroke-miterlimit="10" x1="103.2" y1="105.2" x2="124.8" y2="99.2"/>
	<polyline fill="none" stroke="#000000" stroke-width="2" stroke-miterlimit="10" points="105.3,126.7 108,131.5 108,136.9 
		104.9,136.9 103.2,134.2 101.7,146.3 96.9,140.1 101.1,126.4 	"/>
	<path fill="none" stroke="#000000" stroke-width="2" stroke-miterlimit="10" d="M154.8,92c0,0,4.9,27,28.4,27.7v5.3
		c0,0-19.7,2-32.9-16.5"/>
	<polyline fill="none" stroke="#000000" stroke-width="2" stroke-miterlimit="10" points="183.2,119.7 190.8,117.2 202.1,123.3 
		196.3,126.4 191.3,125.1 192.6,127.6 188.7,128.4 183.2,125 	"/>
	<path fill="none" stroke="#000000" stroke-width="2" stroke-miterlimit="10" d="M120.4,139.5c0,0,39.2,61,48.6,81.2h6.4
		c0,0-21.6-57-35.6-78.6"/>
	<path fill="none" stroke="#000000" stroke-width="2" stroke-miterlimit="10" d="M122.1,142.2c0,0-0.7,45.9-25.2,73l4.1,3
		c0,0,31.9-24.5,33.7-56"/>
	<polygon fill="none" stroke="#000000" stroke-width="2" stroke-miterlimit="10" points="169,220.8 194.7,222 183.8,230.3 
		168.2,225.5 	"/>
	<path fill="none" stroke="#000000" stroke-width="2" stroke-miterlimit="10" d="M96.9,215.2l-5.7,5.6c0,0,8.9,10.6,9.4,10.6
		s16.5-3.7,16.5-3.7l-16-9.6"/>
	<polyline fill="none" stroke="#000000" stroke-width="2" stroke-miterlimit="10" points="140.6,77.3 139,84.6 146.5,86 147.9,79.8 
			"/>
	<path fill="none" stroke="#000000" stroke-width="2" stroke-miterlimit="10" d="M29.3,215.2c0,0,30.2,0,68,0"/>
	<path fill="none" stroke="#000000" stroke-width="2" stroke-miterlimit="10" d="M105.2,215.2c19.7,0,41.1,0,61,0"/>
	<path fill="none" stroke="#000000" stroke-width="2" stroke-miterlimit="10" d="M173.8,215.2c39.6,0,71.8,0,71.8,0"/>
	<line fill="none" stroke="#000000" stroke-width="2" stroke-miterlimit="10" x1="15.7" y1="245.7" x2="271" y2="245.7"/>
</g>
<g id="Layer_3">
	<path fill="none" stroke="#27AAE1" stroke-width="18" stroke-miterlimit="10" stroke-opacity="0" d="M135.1,45.4
		c4.6-1.5,9.5-2,14.4-1.5c-5.4,3.5-11.2,6.5-17.1,9c6.9,0.1,13.8,0.5,20.7,1.2c-10.2,2.5-20.6,4.3-31.1,5.5
		c8.6,1.4,17.3,2.7,25.9,4.1c-12.9,2.8-25.7,5.5-38.6,8.3c17.4,0.7,34.7,1.4,52.1,2.1c-16.4,2-32.7,4.8-48.8,8.3
		c12.8,1.4,25.8,2,38.7,1.8c-19.1,6.5-39.2,9.6-59.1,12.7c19,0.8,38,1.6,57.1,2.4c-11.8,2.1-23.6,4.2-35.4,6.4
		c-4.5,0.8-9.2,1.7-13.2,3.9c15.1,0.8,30.1,1.1,45.2,0.9c-14.8,3.6-29.7,6.5-44.8,8.2c12.4,2.7,25,4.8,37.5,6.5
		c-12.1,2.4-24.2,4.7-36.4,7.1c-2.4,0.5-5,1-6.6,2.9c15.8,0.9,31.6,1.8,47.5,2.6c-13.7,1.9-27.4,3.9-41,5.8c-3,0.4-6.4,1.1-7.8,3.8
		c20.4,0.5,40.7,1,61.1,1.4c-14.8,2.4-29.6,5.4-44.2,8.9c17.8,1.3,35.5,3.3,53.1,6.2c-17.2,1.6-34.5,2.6-51.9,3
		c13.2,1.7,26.3,4.1,39.2,7c-24.3,2.1-48.5,5.4-72.4,9.8c28.3,0.6,56.6,1.3,84.9,1.9c-21.5,3.6-42.9,7.2-64.4,10.8
		c17.5-0.2,35-0.4,52.6-0.6c-6.1,2.5-12.7,3.1-19.3,3.7c-12.9,1.1-25.7,2.1-38.6,3.2c16.6,0.4,33.1,0.8,49.7,1.1
		c-10.4,2.7-21.1,4.4-31.9,5.1c33.6,4.2,67.6,4.9,101.3,2.1c-44.1,9.8-89.7,9.9-134.9,9.9c28,7.7,57.2,10.6,86.3,10.5
		c9.6-0.1,19.7-0.6,28-5.6"/>
</g>
</svg>
