<?xml version="1.0" encoding="utf-8"?>
<!-- Generator: Adobe Illustrator 19.2.1, SVG Export Plug-In . SVG Version: 6.00 Build 0)  -->
<svg version="1.0" xmlns="http://www.w3.org/2000/svg" xmlns:xlink="http://www.w3.org/1999/xlink" x="0px" y="0px" width="288px"
	 height="288px" viewBox="0 0 288 288" enable-background="new 0 0 288 288" xml:space="preserve">
<g id="Layer_2">
	<path fill="#27AAE1" d="M137.3,71.6c0,0,16.5,16.4,9.6,30.4c0,0,9.3-10,4.8-17.5S144.7,70.1,137.3,71.6z"/>
	<path fill="#27AAE1" d="M171.5,134.4c0.8-1.5,2.1-1.9,3.3-1.7L159.3,102l-3.7,2.6c0,0,8.2,19.9,14,34.2
		C170.2,137.3,170.8,135.8,171.5,134.4z"/>
	<path fill="#27AAE1" d="M177.5,137.8C177.5,137.9,177.5,137.9,177.5,137.8c-1.6,3.1-2.7,6.5-4.5,9.5c1.4,3.4,2.2,5.6,2.2,5.7
		c-0.1,0.3-3.9,4.2-3.9,4.2l14.9-2.2L177.5,137.8z"/>
	<path fill="#27AAE1" d="M164,110.4l15.8,15.6l-12,25.4c0,0-2.3-2.3-2-2.9c0.3-0.6,9.4-21,9.4-21l-5.2-2.8L164,110.4z"/>
	<path fill="#27AAE1" d="M171.9,159l6.8,17c0,0-7.1,14-6.8,13.7c0.3-0.3,49.6-7.1,49.6-7.1l9.3,3.6l9.3-2.6c0,0-12-5.5-12.5-5.4
		s-8.1-3.4-8.1-3.4s-4.9,0.8-5,1.2s-30.2-1.2-30.2-1.2l0.8-19.3L171.9,159z"/>
</g>
<g id="Layer_1">
	
		<ellipse transform="matrix(0.9663 -0.2575 0.2575 0.9663 -17.7585 39.0855)" fill="none" stroke="#000000" stroke-width="2" stroke-miterlimit="10" cx="140.3" cy="87.3" rx="11.6" ry="16.3"/>
	<polyline fill="none" stroke="#000000" stroke-width="2" stroke-miterlimit="10" points="149.6,99.3 151.7,104.4 146.5,106.7 
		143.7,103.2 	"/>
	<polyline fill="none" stroke="#000000" stroke-width="2" stroke-miterlimit="10" points="159.3,102 186,124 169.4,153 165.8,148.5 
		175.4,127.5 170.7,124.4 	"/>
	<line fill="none" stroke="#000000" stroke-width="2" stroke-miterlimit="10" x1="186.2" y1="123.4" x2="175.2" y2="127.9"/>
	<polygon fill="none" stroke="#000000" stroke-width="2" stroke-miterlimit="10" points="156.5,164.5 165.1,167.3 167,156.7 
		161.7,154.2 	"/>
	
		<ellipse transform="matrix(0.9187 -0.395 0.395 0.9187 -39.4565 64.9618)" fill="none" stroke="#000000" stroke-width="2" stroke-miterlimit="10" cx="138.1" cy="128.3" rx="10" ry="15.1"/>
	<polyline fill="none" stroke="#000000" stroke-width="2" stroke-miterlimit="10" points="147.2,139.6 148.3,144.9 142.2,146.6 
		141.2,143.1 	"/>
	<path fill="none" stroke="#000000" stroke-width="2" stroke-miterlimit="10" d="M133.6,143.9l-7.8,3.6l2.4,8.5c0,0,5.8,2.9,6,2.9
		s3.9-2.7,3.9-2.7L133.6,143.9z"/>
	<path fill="none" stroke="#000000" stroke-width="2" stroke-miterlimit="10" d="M127.7,146.6c0,0-3.2-13-0.6-21.8"/>
	<line fill="none" stroke="#000000" stroke-width="2" stroke-miterlimit="10" x1="131.5" y1="144.9" x2="131.7" y2="137.1"/>
	<polyline fill="none" stroke="#000000" stroke-width="2" stroke-miterlimit="10" points="165.1,167.3 168,176.4 159.3,197.3 
		152.2,197.2 144,205.3 147,208 162.1,203.2 179.1,176 171.3,157.2 159.6,143.6 	"/>
	<line fill="none" stroke="#000000" stroke-width="2" stroke-miterlimit="10" x1="159.3" y1="197.3" x2="161.6" y2="202.5"/>
	<line fill="none" stroke="#000000" stroke-width="2" stroke-miterlimit="10" x1="167.9" y1="175.8" x2="179.1" y2="176"/>
	<polyline fill="none" stroke="#000000" stroke-width="2" stroke-miterlimit="10" points="126.9,179.3 63.7,211.5 66.1,216 
		146.3,184.8 	"/>
	<path fill="none" stroke="#000000" stroke-width="2" stroke-miterlimit="10" d="M62.5,206.9c0.5-0.3,55.2-31.3,55.2-31.3"/>
	<path fill="none" stroke="#000000" stroke-width="2" stroke-miterlimit="10" d="M185.4,155.5l-2.3,23.6h38.4v3.5
		c0,0-45.2,6.2-51.5,7.1"/>
	<path fill="none" stroke="#000000" stroke-width="2" stroke-miterlimit="10" d="M171.9,157.7c6.1-1.2,14.2-2.7,14.2-2.7
		s-3.7-7.3-8.4-16.5"/>
	<path fill="none" stroke="#000000" stroke-width="2" stroke-miterlimit="10" d="M173.9,130.9c-7.1-14-14.6-28.9-14.6-28.9l-25.8,12
		"/>
	<path fill="none" stroke="#000000" stroke-width="2" stroke-miterlimit="10" d="M158.7,165.2c-0.5,0.2-7,19.2-7,19.2H164"/>
	<path fill="none" stroke="#000000" stroke-width="2" stroke-miterlimit="10" d="M221.5,178.5c0-0.5,1.5-3,1.5-3l17.1,8.2
		c0,0-9.1,2.6-9.3,2.6s-8.7-3.4-8.7-3.4"/>
	<path fill="none" stroke="#000000" stroke-width="2" stroke-miterlimit="10" d="M184.2,174.3c0.5,0.2,30.2,1.5,30.2,1.5v3.3"/>
	<path fill="none" stroke="#000000" stroke-width="2" stroke-miterlimit="10" d="M214.5,175.8c0.5-0.6,4.2-4.6,4.2-4.6l18.5,5.3
		l-6.4,2.6"/>
	<path fill="none" stroke="#000000" stroke-width="2" stroke-miterlimit="10" d="M135.1,148.1c1-0.1,24.2-4.2,24.2-4.2l-13.1,41.2
		c0,0-30.3-8.4-29.3-9.1c1-0.7,13.7-18.8,13.7-18.8"/>
	<polygon fill="none" stroke="#000000" stroke-width="2" stroke-miterlimit="10" points="63.5,211.9 60.1,198.8 52,196.7 
		60.4,217.4 64.7,216.4 64,213.6 	"/>
	<polyline fill="none" stroke="#000000" stroke-width="2" stroke-miterlimit="10" points="52.1,197.3 46.9,196.8 56.1,216.6 
		60.1,216.5 	"/>
	<line fill="none" stroke="#000000" stroke-width="2" stroke-miterlimit="10" x1="155.6" y1="156.7" x2="159.1" y2="159.3"/>
	<path fill="none" stroke="#000000" stroke-width="2" stroke-miterlimit="10" d="M129.5,74.2c1.4,0.4,8.3,3.6,13.5-2.6"/>
	<path fill="none" stroke="#000000" stroke-width="2" stroke-miterlimit="10" d="M127.7,76.8c0,0,7.6,4.8,17.8-2.4"/>
	<path fill="none" stroke="#000000" stroke-width="2" stroke-miterlimit="10" d="M126.9,80.4c0,0,11.1,4.4,20.8-3.7"/>
</g>
<g id="Layer_3">
	<path opacity="0" fill="none" stroke="#27AAE1" stroke-width="18" stroke-miterlimit="10" d="M132.3,72.4
		c8.2-1.2,16.6-1.4,24.8-0.4c-0.2,1.5-2,2-3.5,2.1c-8.8,1.2-17.7,2.4-26.5,3.6c14.4,0.6,28.9,1.2,43.3,1.8c-13.3,2-26.7,3.9-40,5.9
		c13.1,0.4,26.3,0.7,39.4,1.1C158,88,146.4,90.1,135,93c16.1,0.3,32.3,0.6,48.4,0.8c-16.2,1.6-32.3,3.1-48.5,4.7
		c0.4,1.7,2.5,2.1,4.3,2.2c15,0.8,30,1.6,45,2.4c-11.8,0.8-23.6,1.5-35.3,2.3c-1.3,0.1-3.1,0.8-2.6,2c15.2,1.3,30.3,2.6,45.5,4
		c-20.1,0.7-40.2,2.4-60.2,5c-0.1,1.1,1.4,1.6,2.5,1.7c17.2,1.7,34.8-0.5,51.7,3.3c-14.2,3.3-29.3-0.3-43.4,3.4c3,1.7,6.6,1.9,10,2
		c16.3,0.8,32.6,1.7,48.9,2.5c-20.9,5.5-43,3.6-64.2,7.7c3.7,1.3,7.8,1.5,11.7,1.6c13.9,0.5,27.8,1.1,41.7,1.6
		c-11.2,0.1-22.5,0.3-33.6,1.8c10.4,2.1,21,3.2,31.6,3.4c-9.2,1.1-18.3,3.4-27,6.7c14.4-0.1,28.9-0.2,43.3-0.2
		c-18,2-36.1,4-53.4,9.3c22.5,0.1,45.1,0.3,67.6,0.4c-23.5,2.7-47.9-2-70.8,4c8.9,0.3,17.7,0.6,26.6,0.8c21.9,0.7,43.8,1.4,65.6,3.9
		c-31.3,7.3-64.2,2.4-95.9,7.8c33,0.2,66,0.4,98.9,0.6c-27.4,0.2-54.9,0.5-82.1,3.6c-6.4,0.7-13,1.7-18.3,5.4
		c31.6,1.5,63.2,1.5,94.8,0"/>
</g>
</svg>
