<?xml version="1.0" encoding="utf-8"?>
<!-- Generator: Adobe Illustrator 19.2.1, SVG Export Plug-In . SVG Version: 6.00 Build 0)  -->
<svg version="1.0" xmlns="http://www.w3.org/2000/svg" xmlns:xlink="http://www.w3.org/1999/xlink" x="0px" y="0px" width="288px"
	 height="288px" viewBox="0 0 288 288" enable-background="new 0 0 288 288" xml:space="preserve">
<g id="Layer_2">
	<path fill="#27AAE1" d="M145.9,74c1.3,2.1,1.8,4.8,1.8,7.4c2.2,1.2,4,1.5,4,1.5c-12.1-15.4-3.2-37.9-3.2-37.9s-8.6,2.2-9.6,18.8
		c-0.2,2.4,0,4.4,0.4,6.3C141.9,70.4,144.3,71.4,145.9,74z"/>
	<path fill="#27AAE1" d="M135.1,89.5l7,51l15.5,5.5l-10.1,1.1l-3.4,78.1l-7.8,14.1c0,0-11.6-5.5-11.1-5.7c0.5-0.2,18-8.7,18-8.7
		L138,146c0,0-2-2.2-3.4-19c-1.4-16.8-4.7-37.5-4.7-37.5L135.1,89.5z"/>
	<polygon fill="#27AAE1" points="159.5,147 167.8,226.7 183,237 171.2,244 164.6,225.9 154.7,147 	"/>
</g>
<g id="Layer_1">
	<path fill="none" stroke="#000000" stroke-width="2" stroke-miterlimit="10" d="M138.9,69.5c-0.4-1.7-0.6-3.6-0.7-5.5
		c-0.2-10.6,5.4-19.3,12.6-19.4s13.2,8.3,13.4,18.9c0.2,10.6-5.4,19.3-12.6,19.4c-1.3,0-2.5-0.2-3.7-0.7"/>
	<path fill="none" stroke="#000000" stroke-width="2" stroke-miterlimit="10" d="M140.4,48.7c0,0,11.1,0.9,18.1-3"/>
	<path fill="none" stroke="#000000" stroke-width="2" stroke-miterlimit="10" d="M138.8,52c0,0,13.3,3,22.5-2.9"/>
	<path fill="none" stroke="#000000" stroke-width="2" stroke-miterlimit="10" d="M137.5,55.5c0,0,19.7,3,26.8-2.8"/>
	<path fill="none" stroke="#000000" stroke-width="2" stroke-miterlimit="10" d="M154.9,89.1c0.7,0,1.1-0.1,1.1-0.1l-1-6.9"/>
	<path fill="none" stroke="#000000" stroke-width="2" stroke-miterlimit="10" d="M151.8,89.1c6.8-0.1,13.2-0.1,16,0.2l-2.1,55.7
		c0,0-17,4.2-28.7,0.6l-7-56.1c0,0,6.2-0.2,13.6-0.3"/>
	<polyline fill="none" stroke="#000000" stroke-width="2" stroke-miterlimit="10" points="138,146 142.8,224.5 146.3,224.5 
		151.7,147 	"/>
	<polyline fill="none" stroke="#000000" stroke-width="2" stroke-miterlimit="10" points="154,147 164.5,224.5 168.5,224.5 
		165.7,144.3 	"/>
	<polygon fill="none" stroke="#000000" stroke-width="2" stroke-miterlimit="10" points="143.4,225.1 128.3,231.4 139.5,239.2 
		146.6,225.1 	"/>
	<path fill="none" stroke="#000000" stroke-width="2" stroke-miterlimit="10" d="M164.6,225.9c0.2,0.7,6.7,15.3,6.7,15.3l12.6-6.7
		l-14.3-8.6H164.6z"/>
	<path fill="none" stroke="#000000" stroke-width="2" stroke-miterlimit="10" d="M135.6,106.5c9.8,8.8,27.9,7,27.9,7l-16.2-32.6
		l-1-7.8l-8.4-4.3c0,0-3.6,3.5-4.5,4.1l5.4,7l-5,1l0.6,3.4l7.5,1.1l5.4,15"/>
	<path fill="none" stroke="#000000" stroke-width="2" stroke-miterlimit="10" d="M138,95.9c0,0,13.5,8.1,20.1,8"/>
	<path fill="none" stroke="#000000" stroke-width="2" stroke-miterlimit="10" d="M99.1,62.5c0,0,0.9,1.9,2.5,2.4s3.6-1.4,3.6-1.4
		S103.1,58.6,99.1,62.5z"/>
	<path fill="none" stroke="#000000" stroke-width="2" stroke-miterlimit="10" d="M109.5,63.7c0,0,14.5,2.5,19.8,5.1"/>
	<line fill="none" stroke="#000000" stroke-width="2" stroke-miterlimit="10" x1="111.6" y1="67.5" x2="127.1" y2="72.6"/>
	<path fill="none" stroke="#000000" stroke-width="2" stroke-miterlimit="10" d="M167.1,108.1c0,0,8.1,19,10.4,20.6l-1.4,3.9
		c0,0-7.7-4.8-9.6-10.5"/>
	<polyline fill="none" stroke="#000000" stroke-width="2" stroke-miterlimit="10" points="175.9,132.9 177.5,139.8 181.2,140.5 
		181.8,138.1 180.2,135 187.8,138.5 187.4,133.4 177.9,129 	"/>
</g>
<g id="Layer_3">
	<path opacity="0" fill="none" stroke="#27AAE1" stroke-width="18" stroke-miterlimit="10" d="M133,43.8c8.8-0.5,17.7-0.5,26.5,0
		c-13,3.9-26.4,6.4-39.9,7.4c13.9,1.7,27.9,2.6,41.9,2.9c-11.7,1-23.3,4.3-33.7,9.6c11.1,0.9,22.1,1.7,33.2,2.6
		c-15.5,3-31.4,6.2-44.5,15.1c13.2,0.5,26.5,0.9,39.7,1.4c-10,2.8-20.1,5.6-30.1,8.4c-1.9,0.5-4,1.3-4.5,3.1
		c10.9,2.3,22,3.9,33.2,4.7c-9.7,1.2-19.3,3.7-28.4,7.2c9.2,2.3,18.8,3.1,28.2,4c-10.8,3.3-21.4,7.6-31.6,12.7
		c8.6,0.8,17.2,1.7,25.7,2.5c-6.9,2.3-13.8,4.6-20.7,6.9c-1.8,0.6-3.7,1.3-4.7,2.8c12.4,1.2,24.8,2.4,37.2,3.6
		c-11.2,1.2-22.7,2.6-32.5,8.3c14,0.7,27.9,1.4,41.9,2.1c-13.1,4.7-27.1,6.1-41,7.5c12.1,1.1,24.2,2.8,36.2,5
		c-9.1,2.7-18.2,5.4-27.2,8.1c11.3-0.8,22.7,0,33.8,2.1c-12.1,3.6-24.1,7.2-36.2,10.8c10.5,2.2,21.3,3.1,32.1,2.8
		c-12.6,4.3-25.1,8.6-37.7,12.9c14.6,0.1,29.2,0.3,43.8,0.4c-12.1,5.2-24.9,8.2-37.7,11.2c11.6,1,23.2,2,34.9,2.9
		c-11.7,5.7-24.6,8.6-37.3,11.4c16.2,2.1,32.5,3.3,48.8,3.6c-12.1,1.9-24.4,1.5-36.6,1.5c-6.3,0-13.4,0.4-17.8,5
		c16.7,5.9,34.9,7.5,52.4,4.5"/>
</g>
</svg>
