<?xml version="1.0" encoding="utf-8"?>
<!-- Generator: Adobe Illustrator 19.2.1, SVG Export Plug-In . SVG Version: 6.00 Build 0)  -->
<svg version="1.0" xmlns="http://www.w3.org/2000/svg" xmlns:xlink="http://www.w3.org/1999/xlink" x="0px" y="0px" width="288px"
	 height="288px" viewBox="0 0 288 288" enable-background="new 0 0 288 288" xml:space="preserve">
<g id="Layer_2">
	<path fill="#27AAE1" d="M106.3,69.9c0,0-11.4,30,3.6,40.3c0,0-14.6-4.3-13.9-19.1S99.4,70.2,106.3,69.9z"/>
	<path fill="#27AAE1" d="M102.9,125.2l4.1,114.1l-11,10.7l-7.5-4.3l17.1-5.5l-8.4-103.9l-10,10.2l-14-18.8c0,0,15.5,12.1,15.8,11.3
		s9-14.8,9-14.8l1.9,2.9L102.9,125.2z"/>
	<polygon fill="#27AAE1" points="118.2,176.6 121.2,239.6 118.7,239.2 114.6,176.7 	"/>
	<path fill="#27AAE1" d="M119.9,238.2l15.5,11c0,0-7.9,3.5-8.7,2.7s-8.1-10.4-8.1-10.4L119.9,238.2z"/>
	<polygon fill="#27AAE1" points="178.5,90.9 150.2,138.4 148.2,154.4 184.2,98.7 183.7,90.9 	"/>
</g>
<g id="Layer_1">
	<path fill="none" stroke="#000000" stroke-width="2" stroke-miterlimit="10" d="M170.4,84.2h-4.3c-6.6,0-12-5.4-12-12V55.6
		c0-6.6,5.4-12,12-12h4.3c6.6,0,12,5.4,12,12v16.7C182.4,78.8,177,84.2,170.4,84.2z"/>
	<path fill="none" stroke="#000000" stroke-width="2" stroke-miterlimit="10" d="M182.4,59.6c0,0,5.8,4.2,0,7"/>
	<path fill="none" stroke="#000000" stroke-width="2" stroke-miterlimit="10" d="M154.1,65.7c0,0,3.3,1,7.2,0c3.8-1,5.8-2.8,10.7-1
		c4.8,1.8,10.5,0.3,10.5,0.3"/>
	<path fill="none" stroke="#000000" stroke-width="2" stroke-miterlimit="10" d="M152.6,90.2c0,0,21.3-1.5,31,0.7
		c0,0,11.5,86.9,10.7,117.2c0,0-22.3,11.2-54.3,0C140.1,208.1,154.9,123.4,152.6,90.2z"/>
	<path fill="none" stroke="#000000" stroke-width="2" stroke-miterlimit="10" d="M177,90c4.9-0.4,16.6-6.8,16.6-6.8
		c-1.8-3.8-5.4-39.7-8.7-44.2s-16.8-0.6-16.8-0.6s-17.2-3.5-19.1,6.5s-4.8,32.6-7.4,36.2c0,0,2.3,7.1,11.8,9"/>
	<polyline fill="none" stroke="#000000" stroke-width="2" stroke-miterlimit="10" points="164.3,84.2 164.9,89.8 173,90 173,83.9 	
		"/>
	<path fill="none" stroke="#000000" stroke-width="2" stroke-miterlimit="10" d="M175.7,90c0,0-21.2,34.6-25.2,44.9l-1.9,16.5
		L184.2,95l-0.5-4.1C183.7,90.9,178.4,90,175.7,90z"/>
	<path fill="none" stroke="#000000" stroke-width="2" stroke-miterlimit="10" d="M183.7,90.9c0,0,20.5,26.3,32.2,45.3l-10,21.2
		l-19.5-44.6"/>
	<polyline fill="none" stroke="#000000" stroke-width="2" stroke-miterlimit="10" points="212.9,142.5 221.6,148.9 222.7,159.7 
		210.1,148.4 	"/>
	<polyline fill="none" stroke="#000000" stroke-width="2" stroke-miterlimit="10" points="208.5,151.9 211.6,157.4 214.2,156.7 
		213.4,151.4 	"/>
	<polyline fill="none" stroke="#000000" stroke-width="2" stroke-miterlimit="10" points="173.4,212.9 176.1,238.2 181.6,238.2 
		183.7,211.5 	"/>
	<polyline fill="none" stroke="#000000" stroke-width="2" stroke-miterlimit="10" points="152.6,211.5 155.9,238.2 162.1,238.2 
		163.4,213.1 	"/>
	<polygon fill="none" stroke="#000000" stroke-width="2" stroke-miterlimit="10" points="162.1,238.2 140.1,240.7 148.6,251.1 
		162.1,240.9 	"/>
	<polyline fill="none" stroke="#000000" stroke-width="2" stroke-miterlimit="10" points="176.1,238.2 174.4,242.7 196.2,251.1 
		201.4,239.7 181.6,238.2 	"/>
	
		<ellipse transform="matrix(0.9945 -0.1043 0.1043 0.9945 -8.7545 11.9228)" fill="none" stroke="#000000" stroke-width="2" stroke-miterlimit="10" cx="109.7" cy="89.7" rx="13.8" ry="20.6"/>
	<path fill="none" stroke="#000000" stroke-width="2" stroke-miterlimit="10" d="M104.7,115.6c6.3-0.8,15-1.6,20-1l2,61.5
		c0,0-19,1.5-27.3,0c0,0-1.6-37.3-2.2-52.8"/>
	<polyline fill="none" stroke="#000000" stroke-width="2" stroke-miterlimit="10" points="106.3,109.1 107.6,115.2 115.4,114.4 
		115.4,109.1 	"/>
	<path fill="none" stroke="#000000" stroke-width="2" stroke-miterlimit="10" d="M124.8,119.6c0,0,13.1,8.8,25.4,8"/>
	<path fill="none" stroke="#000000" stroke-width="2" stroke-miterlimit="10" d="M125.2,131.1c0,0,13.2,6,25,2.5"/>
	<line fill="none" stroke="#000000" stroke-width="2" stroke-miterlimit="10" x1="135" y1="134" x2="142.6" y2="127"/>
	<line fill="none" stroke="#000000" stroke-width="2" stroke-miterlimit="10" x1="152.6" y1="90.2" x2="119.9" y2="104.8"/>
	<polyline fill="none" stroke="#000000" stroke-width="2" stroke-miterlimit="10" points="104,107.7 98.1,108 92.5,117.2 
		99.7,126.2 106.3,122.7 104.3,112.2 	"/>
	<line fill="none" stroke="#000000" stroke-width="2" stroke-miterlimit="10" x1="152.6" y1="104.2" x2="129.4" y2="122.2"/>
	<path fill="none" stroke="#000000" stroke-width="2" stroke-miterlimit="10" d="M98.6,73.8c0,0,9.8-0.2,15.3-3.5"/>
	<path fill="none" stroke="#000000" stroke-width="2" stroke-miterlimit="10" d="M96.1,76.2c0,0,9.8,2.3,22.8-4.2"/>
	<path fill="none" stroke="#000000" stroke-width="2" stroke-miterlimit="10" d="M94.9,79.4c0,0,14,1.7,26.5-3.7"/>
	<polyline fill="none" stroke="#000000" stroke-width="2" stroke-miterlimit="10" points="99.4,176.1 104.6,239.2 109.1,239.2 
		111.8,176.7 	"/>
	<polyline fill="none" stroke="#000000" stroke-width="2" stroke-miterlimit="10" points="114.6,176.7 118.7,239.2 122.2,239.2 
		125.2,176.7 	"/>
	<polygon fill="none" stroke="#000000" stroke-width="2" stroke-miterlimit="10" points="104.6,240.1 90.1,244.2 100.9,249.2 
		109.1,240.1 	"/>
	<polygon fill="none" stroke="#000000" stroke-width="2" stroke-miterlimit="10" points="117.4,240.1 123.7,239.2 137.9,247.9 
		125.2,249.9 	"/>
	<line fill="none" stroke="#000000" stroke-width="2" stroke-miterlimit="10" x1="101.7" y1="125.2" x2="98" y2="118.2"/>
	<line fill="none" stroke="#000000" stroke-width="2" stroke-miterlimit="10" x1="101.7" y1="116.4" x2="104.1" y2="123.6"/>
	<path fill="none" stroke="#000000" stroke-width="2" stroke-miterlimit="10" d="M94.9,120.7c-1,1.2-7.2,15.2-7.2,15.2l-12-14.3
		v-11.5h-4.2v6.8h-7.2l1,10.7h7l14.5,19.3l10.5-10.8"/>
	<line fill="none" stroke="#000000" stroke-width="2" stroke-miterlimit="10" x1="87.7" y1="135.9" x2="86.7" y2="146.9"/>
</g>
<g id="Layer_3">
	<path opacity="0" fill="none" stroke="#27AAE1" stroke-width="20" stroke-miterlimit="10" d="M82.2,65.8c8.6,1.4,17.3,1.7,26,2
		c23.2,0.8,46.5,1.7,69.7,2.5c-41.9,1.1-83.7,3.6-125.4,7.5c4.4,2.6,9.8,2.8,15,2.9c49.8,1.1,99.5,2.2,149.3,3.2
		c-51.4,4.9-102.8,9.2-154.2,13c47.1,1.1,94.3,1,141.4,1c-34.6,4.4-69.1,8.9-103.7,13.3c-9.8,1.3-19.6,2.5-29,5.5
		c52,5,104.3,5.6,156.5,4.3c-55.5,5.1-111.1,10.1-166.6,15.2c44,5.5,88.3,9.3,132.6,10.7c-36-4.2-70.8,12.1-106.4,18.4
		c45.2,0.9,90.3,2.2,135.5,4c-37.5,4.3-75,8.5-112.5,12.8c-9,1-17.9,2-26.8,3.9c-4,0.8-8.2,2-10.6,5.3c4.8,1.1,9.7,1.2,14.6,1.4
		c33.1,1,66.2,1.9,99.4,2.9c-34.5,2-69.3-1.5-103.6,2.6c-7.6,0.9-15.3,2.2-22.2,5.5c2.8,3.8,7.8,5,12.5,5.8
		c18.6,3.2,37.5,4.3,56.4,5.3c10.4,0.6,20.8,1.2,31.2,1.8c-34.1,3-68.7-3.4-102.5,2.1c6.1,2.3,12.7,3,19.2,3.7
		c21,2.2,42.1,4.4,63.1,6.6c-20.1-0.3-40.3-0.6-60.1,2.6c-2.9,0.5-6.5,1.7-6.8,4.6c27,8.2,55.1,11.8,83.1,15.4
		c-16.6-3-33.5-4.7-50.3-4.9c8.3,3.5,17.5,5.1,26.5,4.7"/>
</g>
</svg>
