<?xml version="1.0" encoding="utf-8"?>
<!-- Generator: Adobe Illustrator 19.2.1, SVG Export Plug-In . SVG Version: 6.00 Build 0)  -->
<svg version="1.0" id="Layer_1" xmlns="http://www.w3.org/2000/svg" xmlns:xlink="http://www.w3.org/1999/xlink" x="0px" y="0px"
	 width="288px" height="288px" viewBox="0 0 288 288" enable-background="new 0 0 288 288" xml:space="preserve">
<g id="Layer_2">
	<path fill="#27AAE1" d="M129.7,44.7c0,0-10.9,6.5-8.7,19.8s9.2,18.3,14.8,17.8C135.9,82.2,118.7,69.1,129.7,44.7z"/>
	<polygon fill="#27AAE1" points="123.2,91.7 134,145.8 148,147.5 135.6,148.8 133.8,226.6 125.5,240.8 115.3,235 131.7,227.4 
		126.4,147.5 118,91.7 	"/>
	<polygon fill="#27AAE1" points="119.7,102 107.2,120.8 111.4,149.7 114,149.3 112.2,120.8 120.8,108.9 	"/>
	<path fill="#27AAE1" d="M148,147.5l9.2,79.9l16.6,11.6l-12.8,5.2c0,0-6.4-15.5-6.5-16.9s-10.6-78.6-10.6-78.6L148,147.5z"/>
</g>
<g id="Layer_1_1_">
	
		<ellipse transform="matrix(0.9951 -9.859571e-02 9.859571e-02 0.9951 -5.5782 13.5197)" fill="none" stroke="#000000" stroke-width="2" stroke-miterlimit="10" cx="134" cy="63.2" rx="13" ry="19.2"/>
	<path fill="none" stroke="#000000" stroke-width="2" stroke-miterlimit="10" d="M122,49c0,0,11.2,0,17.8-4.3"/>
	<path fill="none" stroke="#000000" stroke-width="2" stroke-miterlimit="10" d="M120.7,52.5c0,0,13.5,2,22.2-4.7"/>
	<path fill="none" stroke="#000000" stroke-width="2" stroke-miterlimit="10" d="M119.7,56c0,0,19.8,1.5,26.5-4.8"/>
	<polyline fill="none" stroke="#000000" stroke-width="2" stroke-miterlimit="10" points="132.2,81.9 132.9,89 140.7,88.1 
		139.1,81.3 	"/>
	<path fill="none" stroke="#000000" stroke-width="2" stroke-miterlimit="10" d="M118,91.7c0,0,30.5-5,37.7-4.6v58.7
		c0,0-16.8,4.8-28.7,1.7L118,91.7z"/>
	<polyline fill="none" stroke="#000000" stroke-width="2" stroke-miterlimit="10" points="118,91.7 102.2,119.7 109.2,150 
		114,149.3 112.2,120.8 120.7,108.2 	"/>
	<polyline fill="none" stroke="#000000" stroke-width="2" stroke-miterlimit="10" points="109.2,150 109.2,162.3 117,169.3 
		120.7,165.2 114.9,155.2 119.7,157 121.5,153 114,149.3 	"/>
	<line fill="none" stroke="#000000" stroke-width="2" stroke-miterlimit="10" x1="102.2" y1="119.7" x2="112.2" y2="120.8"/>
	<polyline fill="none" stroke="#000000" stroke-width="2" stroke-miterlimit="10" points="155.7,98 178,103.5 186.3,72.7 
		183.4,64.9 	"/>
	<line fill="none" stroke="#000000" stroke-width="2" stroke-miterlimit="10" x1="155.7" y1="87.1" x2="173.2" y2="91.7"/>
	<path fill="none" stroke="#000000" stroke-width="2" stroke-miterlimit="10" d="M169.5,101.4c0.2-0.8,11.2-26.9,11.2-26.9l-4.8-4.9
		l1.5-3.4l6.5,2.2"/>
	<path fill="none" stroke="#000000" stroke-width="2" stroke-miterlimit="10" d="M182.3,68.3c0,0,3.6-7.5-1.7-8.2
		s-11.7-2.1-12.5,5.5c-0.8,7.5,5,8.6,7,8.9s3.7-1.1,3.7-1.1"/>
	<line fill="none" stroke="#000000" stroke-width="2" stroke-miterlimit="10" x1="177.2" y1="59.2" x2="177.2" y2="56.2"/>
	<polyline fill="none" stroke="#000000" stroke-width="2" stroke-miterlimit="10" points="127,147.5 131.8,226 135.2,226 
		140.7,148.5 	"/>
	<polyline fill="none" stroke="#000000" stroke-width="2" stroke-miterlimit="10" points="144,148.5 154.5,226 158.5,226 
		155.7,145.8 	"/>
	<polygon fill="none" stroke="#000000" stroke-width="2" stroke-miterlimit="10" points="132.4,226.6 117.2,232.9 128.5,240.8 
		135.6,226.6 	"/>
	<path fill="none" stroke="#000000" stroke-width="2" stroke-miterlimit="10" d="M154.6,227.4c0.2,0.7,6.7,15.3,6.7,15.3l12.6-6.7
		l-14.3-8.6H154.6z"/>
</g>
<g id="Layer_3">
	<path fill="none" stroke="#27AAE1" stroke-width="18" stroke-miterlimit="10" stroke-opacity="0" d="M111.1,46.1
		c10.3,0.1,20.6,0.1,30.9,0.2c-11.2,2.4-22.5,4-33.9,4.7c12.4-0.3,24.9,0,37.3,1c-12.6,0.7-25.1,1.9-37.6,3.7
		c9.3,1.3,18.6,1.7,28,1.3c-11.7,1.8-23.5,3.5-35.2,5.3c12.3,0.1,24.6,0.3,36.9,0.4c-10.5,2.5-21.1,5-31.5,7.7
		c12.4-0.1,24.7-0.3,37.1-0.4c-16.2,1.4-32.5,2.9-48.7,4.3c15.4,2.6,31,3.4,46.5,4.3c-14.4,2.3-28.7,4.7-43.1,7
		c-1.5,0.2-3.4,1.3-2.8,2.7c18,0.8,36,1.5,54,2.3c-17.6,3.6-35.1,7.2-52.7,10.7c13.1-1.7,26.4-2.5,39.6-2.4
		c-6.7,2.7-13.7,4.2-20.8,5.7c-6.9,1.4-13.7,2.9-20.6,4.3c17.5,0.1,35,0.3,52.6,0.4c-16.8,4.6-33.8,8.5-50.9,11.6
		c16.3,0.4,32.7,0.9,49,1.3c-17.4,6.9-37.3,4.4-55.1,10.2c19.3,0.3,38.6,0.5,57.9,0.8c-16.1,3.3-32.2,6.6-48.3,10
		c20.3-0.1,40.6,0.4,60.9,1.4c-11.7,2.7-23.8,3-35.9,3.3c-7.9,0.2-15.8,0.3-23.7,0.5c18.9,1.3,37.8,2.9,56.6,4.9
		c-16.3,2.1-32.6,4.1-48.9,6.2c20,2.1,39.9,4.2,59.9,6.3c-17.1,2.9-34.2,5.9-51.4,8.8c14.4,1.2,28.8,2.4,43.2,3.6
		c-12.6,1.1-25.2,2.3-37.8,3.4c13.9,2,27.9,3.1,41.9,3.3c-13.9,1.5-27.8,3-41.7,4.6c15,2.2,30.1,4.5,45.1,6.7
		c-14.4,0.5-29,1.1-43.1,4.5c9.8-0.1,19.5,0.5,29.2,1.9c-14.7,1.2-29.3,2.4-44,3.6c21,1.4,42,2.8,63,4.3c-18.6,2-37.2,4.6-55.6,7.8
		c14.8,1.1,29.6,2.3,44.4,3.4c-18.6,1.4-37.1,2.8-55.7,4.2c20.9,1.5,41.8,2.6,62.8,3.2c-13.9,2.5-28,2.5-42.1,2.6
		c-6.6,0-13.2,0-19.8,0.1c18.6,5,38.1,5.2,57.4,5.4c-16.8,0.2-33.7,0.4-50.5,0.6c22,8.7,46.4,11.2,69.7,7.2c-1.9-0.5-3.8-1-5.7-1.5"
		/>
</g>
</svg>
