<?xml version="1.0" encoding="utf-8"?>
<!-- Generator: Adobe Illustrator 19.2.1, SVG Export Plug-In . SVG Version: 6.00 Build 0)  -->
<svg version="1.0" xmlns="http://www.w3.org/2000/svg" xmlns:xlink="http://www.w3.org/1999/xlink" x="0px" y="0px" width="288px"
	 height="288px" viewBox="0 0 288 288" enable-background="new 0 0 288 288" xml:space="preserve">
<g id="Layer_2">
	<path fill="#27AAE1" d="M177.3,67.6c0,0-19.1,25.5-6.6,41.1c0,0-9.7-6.3-9.1-16.6s5.6-17.8,5.6-17.8S172,68.1,177.3,67.6z"/>
	<g>
		<path fill="#27AAE1" d="M146,197.2l-12,0.4l-15.5-3.4l-13.1-6.8l3.2-2.6c0,0,7.9,5.7,12.1,6c4.2,0.2,10.6,0.5,10.6,0.5
			s-4.8-9.2-1.6-23.7c3.2-14.5,13.1-43.3,13.1-43.3l9.9-17.4l3.7,1.6c0,0-18.6,42.7-18.8,61.3C137.5,188.4,146,197.2,146,197.2z"/>
		<path fill="#27AAE1" d="M83.6,210.9l17.4-20.5c22.6,23.7,74.8,16.4,74.8,16.4l0.9,5.4l-4,0.7c0,0-27.6,0.9-28.4,1.4
			c-0.7,0.5-9.4-1.8-18.7-3.9c-9.4-2.1-21.4-10.6-21.4-10.6l-4.1,9l4.1-10l0,1.1l4.2,3.7c0,0-1.2,4.8-2.2,5.2
			c-0.9,0.3-5.7,1.1-6.4,1.3l-1.4,4.7L83.6,210.9z"/>
	</g>
</g>
<g id="Layer_1">
	
		<ellipse transform="matrix(0.1834 -0.983 0.983 0.1834 57.1858 244.5553)" fill="none" stroke="#000000" stroke-width="2" stroke-miterlimit="10" cx="175.8" cy="87.9" rx="21.2" ry="13.8"/>
	<path fill="none" stroke="#000000" stroke-width="2" stroke-miterlimit="10" d="M169,155.5c-2.6,13.5-5,25.8-5,25.8
		s-26.8,0.5-34.4-9.3c0,0,5.2-40.4,22.6-65.4c0,0,16.6,6.2,23.6,13.6c0,0-1.9,9.7-4.1,21.4"/>
	<path fill="none" stroke="#000000" stroke-width="2" stroke-miterlimit="10" d="M164,181.2l14,30.3c0,0-46.3,10.7-73.8-13.1
		l3.5-8.3c0,0,29.6,14.6,51.9,3"/>
	<path fill="none" stroke="#000000" stroke-width="2" stroke-miterlimit="10" d="M129.5,171.9c0,0-4.6,16.9,8.6,25.7"/>
	<polyline fill="none" stroke="#000000" stroke-width="2" stroke-miterlimit="10" points="107.6,190.1 102.7,187 84.8,211.8 
		98.9,215.3 105.3,200.4 	"/>
	<path fill="none" stroke="#000000" stroke-width="2" stroke-miterlimit="10" d="M106.2,187.8l3.3-3.1c0,0,9.6,7.7,23.2,7.5"/>
	<polyline fill="none" stroke="#000000" stroke-width="2" stroke-miterlimit="10" points="100.4,211.8 107.6,209.1 110,202.8 	"/>
	<polyline fill="none" stroke="#000000" stroke-width="2" stroke-miterlimit="10" points="165.2,105.3 162.3,111.1 169.5,115.2 
		171.9,108.7 	"/>
	<path fill="none" stroke="#000000" stroke-width="2" stroke-miterlimit="10" d="M164.7,120.1c0,0,5.2,19.9,9.2,24.7
		c0,0,11-3,19.3-14.8l4.5,2.4c0,0-6.1,26-33.1,23.9c0,0-11.4-13.6-12.1-28.2"/>
	<line fill="none" stroke="#000000" stroke-width="2" stroke-miterlimit="10" x1="174" y1="144.8" x2="164.7" y2="156.3"/>
	<path fill="none" stroke="#000000" stroke-width="2" stroke-miterlimit="10" d="M193.3,130l-0.9-9.9l2.4-1.4l3.5-10.6l3.7,1.2
		c0,0,1.6,7.8,1.2,11.9c-0.3,4.1-5.4,10.8-5.4,10.8"/>
	<path fill="none" stroke="#000000" stroke-width="2" stroke-miterlimit="10" d="M197.8,108.1h-3.2l-3.6,8.4h-2.4v11.7
		c0,0-6.7,10.2-15.4,9.5"/>
	<line fill="none" stroke="#000000" stroke-width="2" stroke-miterlimit="10" x1="189.4" y1="128.6" x2="192.4" y2="130.4"/>
	<path fill="none" stroke="#000000" stroke-width="2" stroke-miterlimit="10" d="M189.2,71.9c0,0-16.1-0.2-20.2-3.3"/>
	<path fill="none" stroke="#000000" stroke-width="2" stroke-miterlimit="10" d="M190.9,74.9c0,0-15.3,2.7-23.8-3"/>
	<path fill="none" stroke="#000000" stroke-width="2" stroke-miterlimit="10" d="M191.5,78.4c0,0-19.6,3-26.8-3.5"/>
</g>
<g id="Layer_3">
	<path opacity="0" fill="none" stroke="#27AAE1" stroke-width="18" stroke-miterlimit="10" d="M156,68c8.8-1.4,17.8-1.3,26.5,0.2
		c-11.4,1.6-22.7,3.3-34.1,4.9c13,0.7,25.9,1.8,38.8,3.2c-14.3,1.2-28.5,3.4-42.5,6.5c16.4,2,32.9,3.6,49.4,4.8
		c-22.8,2.5-45.7,4.9-68.2,9.9c18.4,1.1,36.8,2.1,55.2,3.2c-18.9,3.2-37.9,6.3-56.8,9.5c18.7,3.4,38.3,0.6,56.5,6
		c-21.6,1.1-43.4,2.1-64.1,8.2c16.6,1.3,33.3,2.6,49.2,7.3c-14.1,0.6-28.1,1.8-42.1,3.7c-4.3,0.6-9,1.4-12.1,4.3
		c13.2,2.4,26.5,4.7,39.8,6.8c-11.3,5.1-23.6,7.7-35.7,10.3c14.8,1.6,29.4,4.2,43.8,7.6c-20.8,2-41.5,4.8-62.1,8.2
		c-2.3,0.4-4.7,0.8-6.4,2.4c21.8,0.5,43.7,1.5,65,5.9c-29.8,2.4-59.6,4.7-89.5,7.1c-1.4,0.1-3.1,0.6-3.2,1.9
		c34,2.7,68.4-0.7,102.3,3.2c-6.2,3.3-13.5,3.9-20.6,4.2c-24.3,1.2-48.9,0.2-72.7,4.9c36.4,9.2,74.5-0.4,112.1-1.3
		c-24.6,4.1-49.8,0.6-74.5,3.7c-4.8,0.6-9.7,1.5-14,3.6c25.9,6,53,7.1,79.3,3.1"/>
</g>
</svg>
