<?xml version="1.0" encoding="utf-8"?>
<!-- Generator: Adobe Illustrator 21.0.0, SVG Export Plug-In . SVG Version: 6.00 Build 0)  -->
<!DOCTYPE svg PUBLIC "-//W3C//DTD SVG 1.0//EN" "http://www.w3.org/TR/2001/REC-SVG-20010904/DTD/svg10.dtd">
<svg version="1.0" xmlns="http://www.w3.org/2000/svg" xmlns:xlink="http://www.w3.org/1999/xlink" x="0px" y="0px" width="194px"
	 height="191.7px" viewBox="0 0 194 191.7" enable-background="new 0 0 194 191.7" xml:space="preserve">
<g id="Color">
	<path fill="#27AAE1" d="M119.3,13.3c0,0,20.1,13.5,6.4,39.4l0.9,5.9l5.8,2.7l4.2,55.3l1.6,3.9l-11.6,2.7l-38.6,36l-22.3,8.3
		l11,11.1l13.4-18.2l39.1-33.8l14-2v-4.2l-5-64.8l-7.8,1.3l-1.3-5.8c0,0,10.3-8.3,6.7-22.9C132.3,13.7,119.3,13.3,119.3,13.3z"/>
	<path fill="#27AAE1" d="M138.9,64.8L158.7,86v32.7l5.3,10.5l-9.2,1.1l1.6,3.8c0,0,14,0,14-1.9s-8.2-11.6-8.2-11.6V83l-23.9-27.3
		L138.9,64.8z"/>
	<polygon fill="#27AAE1" points="106.9,109.4 110.6,89.7 107.3,72.8 103.8,108.2 	"/>
	<path fill="#27AAE1" d="M114.6,116L97,112.3l-38.4,19.9H36.3c0,0,4.6,6.8,6,6.8s16.3-6.8,16.3-6.8L99,119.7l12.6,5.6l4.1-5.4
		L114.6,116z"/>
</g>
<g id="Stroke">
	
		<ellipse transform="matrix(0.9926 -0.1211 0.1211 0.9926 -3.1215 14.9895)" fill="none" stroke="#000000" stroke-width="2" stroke-miterlimit="10" cx="121.8" cy="33.2" rx="14.8" ry="20"/>
	<path fill="none" stroke="#000000" stroke-width="2" stroke-miterlimit="10" d="M105.2,21.3c0,0,19.2,6.6,29.7,3.8"/>
	<path fill="none" stroke="#000000" stroke-width="2" stroke-miterlimit="10" d="M106.9,17.3c0,0,13.7,6.4,25.6,3"/>
	<path fill="none" stroke="#000000" stroke-width="2" stroke-miterlimit="10" d="M110.6,13.2c0,0,6,5.4,18.5,4.1"/>
	<line fill="none" stroke="#000000" stroke-width="2" stroke-miterlimit="10" x1="119.6" y1="52.7" x2="120.5" y2="58.6"/>
	<line fill="none" stroke="#000000" stroke-width="2" stroke-miterlimit="10" x1="129.1" y1="51.2" x2="130.4" y2="57"/>
	<path fill="none" stroke="#000000" stroke-width="2" stroke-miterlimit="10" d="M115.7,119.8c-2.2-12.4-10.5-58.8-10.5-58.8l33-5.3
		l5,64.8c0,0-0.2,0-0.7,0.1"/>
	<polyline fill="none" stroke="#000000" stroke-width="2" stroke-miterlimit="10" points="138.2,55.7 162.1,83 162.1,120.9 
		169.4,132.2 155.7,132.2 150.1,121.2 146.1,119.7 146.7,116.9 154.6,116.9 152.1,88 139.7,74.4 	"/>
	<line fill="none" stroke="#000000" stroke-width="2" stroke-miterlimit="10" x1="105.9" y1="64.8" x2="101.6" y2="107.2"/>
	<line fill="none" stroke="#000000" stroke-width="2" stroke-miterlimit="10" x1="110.6" y1="91.2" x2="107.3" y2="109.9"/>
	<polygon fill="none" stroke="#000000" stroke-width="2" stroke-miterlimit="10" points="143.2,120.5 124.2,109.4 85.9,157.7 
		89.6,160.4 129.2,126.7 143.2,124.7 	"/>
	<polyline fill="none" stroke="#000000" stroke-width="2" stroke-miterlimit="10" points="114.6,113.5 97.6,105.2 57.1,129.2 
		58.6,132.2 98.7,119.4 111.6,125.2 	"/>
	<polyline fill="none" stroke="#000000" stroke-width="2" stroke-miterlimit="10" points="85.9,157.7 63.9,165.5 74.9,177.4 
		89.6,160.4 	"/>
	<polygon fill="none" stroke="#000000" stroke-width="2" stroke-miterlimit="10" points="57.1,129.2 35.2,131.2 43.7,139 
		58.9,133.4 	"/>
</g>
<g id="Stroke_1_">
	
		<path opacity="0" fill="none" stroke="#000000" stroke-width="34" stroke-linecap="round" stroke-linejoin="round" stroke-miterlimit="10" d="
		M120.7,14.6c6.5-1.3,13.5-0.5,19.5,2.3c-5.2,2-10.3,4.2-15.3,6.5c1.7,1.8,4.7,1.2,7.2,1.2c2.5-0.1,5.7,1.7,4.9,4.1
		c-0.5,1.5-2.2,2-3.7,2.4c-2.7,0.7-5.4,1.3-8.1,2c3.7,2.8,8.3,4.4,13,4.6c0.8,3-2.4,5.5-5.4,6.2c-3,0.7-6.4,0.7-8.7,2.8
		c4.1,0.9,8.2,1.8,12.3,2.7c-4.5,2.7-9,5.4-13.5,8.1c6.7,1.9,14,1.6,20.5-0.8c-1.8,7.1-13.9,5.9-17,12.5c12.2,0.6,24.4-0.4,36.3-3
		c-3.1,7.4-12.1,10.2-19.9,11.9s-23.4,0.8-27.1,8c7.4,0.9,21.3,1.4,28.4-0.6c7.2-2,14.5-3.4,21.9-4.3c3.1-0.3,7-0.1,8.2,2.8
		c-1.5,3.9-6.3,5.2-10.5,6c-11.8,2.3-23.7,4.6-35.5,6.8c7.2,2.7,15.1,2.8,22.8,3.6c7.7,0.8,15.7,2.5,21.4,7.7
		c-21,1.1-41.9,2.2-62.9,3.3c20.4,6.5,40.2,14.9,59.1,25c-1.6-7.3-6.5-13.9-13.1-17.4c-5.7-3.1-12.4-3.9-18.8-4.6
		c-12.1-1.4-24.2-2.8-36.4-4.2c-1.4-0.2-3.2-0.2-4,0.9c-1.1,1.5,0.2,3.6,1.6,4.8c6.8,6.2,16.6,7.6,25.4,10.1
		c6.1,1.7,12.1,4.1,17.7,7c2.3,1.2,4.8,3.6,3.6,5.8c-14.1-2.5-28.5-5.1-41.1-12c-7.4-4-14.3-9.5-22.7-10.3c-1.4-0.1-3.3,0.1-3.7,1.5
		c-0.2,0.7,0,1.4,0.3,2.1c5.6,13.4,23.8,17.6,30.2,30.6c-18.8-2.4-37-9.6-52.3-20.8c-2.5-1.8-5-3.8-8-4.1c-1.2,4.3,2.4,8.4,5.8,11.2
		c8.9,7.5,18.7,13.9,29.1,19.3c3.1,1.6,6.4,3.1,9,5.5c2.7,2.3,4.7,5.6,4.7,9.1c-13-2.7-26.5-5.6-37.1-13.6
		c-5.8-4.4-10.4-10.2-14.9-15.8c-4.9-6.2-9.9-12.3-14.8-18.5c7.3,12.7,17.8,23.5,30.4,31.1c1.8,1.1,3.7,2.1,5.2,3.6
		c2.5,2.5,3.8,5.9,5.6,8.9c2.9,4.8,7.3,8.7,12.4,10.9"/>
</g>
</svg>
