<?xml version="1.0" encoding="utf-8"?>
<!-- Generator: Adobe Illustrator 21.0.0, SVG Export Plug-In . SVG Version: 6.00 Build 0)  -->
<!DOCTYPE svg PUBLIC "-//W3C//DTD SVG 1.0//EN" "http://www.w3.org/TR/2001/REC-SVG-20010904/DTD/svg10.dtd">
<svg version="1.0" id="Layer_1" xmlns="http://www.w3.org/2000/svg" xmlns:xlink="http://www.w3.org/1999/xlink" x="0px" y="0px"
	 width="720px" height="1152px" viewBox="0 0 720 1152" enable-background="new 0 0 720 1152" xml:space="preserve">
<path fill="none" stroke="#27AAE1" stroke-width="2" stroke-miterlimit="10" d="M360.7,73.3c-1,0.3-1.8-0.7-1.8-0.7
	S270,44.2,258.8,109.3c-11.2,65.2-23.9,194.8-23.9,194.8l29.1,20L145.7,575.3l20.9,19.4l-30,96.4l40.2,9l27.6-27.7l22.6,15.9
	l18.5-14.6L227,627.3l15.7,6.7l31.1-158l-60.7,460.5c0,0,19.6,33.8,59.3,39.3v21.7l-81,32.8l65.1,74.7l99.8-50.6l99.8,52.6
	l66.3-73.7l-82.5-35.2l0.3-21.7c39.7-4.9,61.9-37.2,61.9-37.2l-53.3-461.4l28.5,158.4l15.8-6.5l-19,46.3l18.2,14.9l22.9-15.6
	l27.1,28.2l40.3-8.4l-28.5-96.8l21.3-19.1l-114.3-253l29.4-19.6c0,0-10.7-129.9-20.8-195.2c-8.7-56-75.6-44.1-94.5-39.6l-9,1.7
	L360.7,73.3z"/>
</svg>
