<?xml version="1.0" encoding="utf-8"?>
<!-- Generator: Adobe Illustrator 21.0.0, SVG Export Plug-In . SVG Version: 6.00 Build 0)  -->
<!DOCTYPE svg PUBLIC "-//W3C//DTD SVG 1.0//EN" "http://www.w3.org/TR/2001/REC-SVG-20010904/DTD/svg10.dtd">
<svg version="1.0" xmlns="http://www.w3.org/2000/svg" xmlns:xlink="http://www.w3.org/1999/xlink" x="0px" y="0px" width="288px"
	 height="288px" viewBox="0 0 288 288" enable-background="new 0 0 288 288" xml:space="preserve">
<g id="Color">
	<path fill="#27AAE1" d="M126.3,127.5c-0.8,0.5-3-2.3-3.1-2.4c-3.4-2.9-3.4-2.9-5.6-4.6c-0.1-0.1,0-0.3-0.1-0.4
		c-4.9,5.7-15.8,16.9-21.3,21.7l-2.8,18.4L126.3,127.5C126.4,127.6,126.5,127.7,126.3,127.5C126.1,127.3,126.2,127.4,126.3,127.5z"
		/>
	<path fill="#27AAE1" d="M140.7,84.8c0,0-3.1,5.8-12.4,18.8c2.1,3.7,5,7.5,7.2,6.1c0.3,0.4-0.2,2,0,2.4l6.1-7.1l0.6-20.1H140.7z"/>
	<path fill="#27AAE1" d="M180.1,49.5c0,0-12.4,24.2,3.2,42.4c0,0-12.7-6.8-11.7-23.2S180.1,49.5,180.1,49.5z"/>
	<path fill="#27AAE1" d="M160.2,118.8c0.3,0,0.5,0.1,0.8,0.1c0.8-1.9,1.7-3.5,2.8-4.7l-0.8-13.4c0,0-3.6,6.9-6.4,18
		C157.7,118.7,159,118.7,160.2,118.8z"/>
	<path fill="#27AAE1" d="M156.9,146c-0.6,0.2-0.8-3.4-1.7-3.8c-0.4-0.2-1.4-0.4-1.7-0.6c0,2.7,0.2,9.1,0.5,12l2.8,0.6
		C156.9,154.3,156.8,150.9,156.9,146z"/>
	<path fill="#27AAE1" d="M165.9,118.6l-0.1,6.4c0.5-4,1.9-4.8,3-5l-1.9-38.8l-4,1.7l0.8,35.3L165.9,118.6z"/>
	<path fill="#27AAE1" d="M170.3,148.2l-0.8-16.1c-0.6-2,0-2-0.9-2.1c-0.4-0.1-2.3-1.3-2.6-1.5v16.6l-2.1,3.1v2.8l2.5,0.6l5.3,82.5
		l-18,18.2l18.4,2.3l3.3-20.4l2.2-81.1l20.2-0.3L170.3,148.2z"/>
	<polygon fill="#27AAE1" points="191.1,153.1 198.5,234.2 217.1,249.8 196.9,252.3 195.3,234.2 185.5,153.1 	"/>
</g>
<g id="Lines">
	<path fill="none" stroke="#000000" stroke-width="2" stroke-miterlimit="10" d="M129.6,76.5l-6.5-0.9c-6.5-1-11.1-7.1-10.1-13.6
		l3.2-21.9c1-6.5,7.1-11.1,13.6-10.1l6.5,0.9c6.5,1,11.1,7.1,10.1,13.6l-3.2,21.9C142.3,72.9,136.1,77.5,129.6,76.5z"/>
	<path fill="none" stroke="#000000" stroke-width="2" stroke-miterlimit="10" d="M114.1,54.8c0,0,8.2,2.5,15.1,2.2
		c6.9-0.3,10.2,2.6,14.4,3.7"/>
	<path fill="none" stroke="#000000" stroke-width="2" stroke-miterlimit="10" d="M114.9,49.3c0,0-5.6,2.4-1,7.1"/>
	<path fill="none" stroke="#000000" stroke-width="2" stroke-miterlimit="10" d="M116.4,80c-3.8,0.1-17.8-6.7-17.8-6.7
		s0.9-1.5,7.9-28.8c7-27.4,27.6-18.8,27.6-18.8s13.4-1.1,15.8,12.7c2.4,13.7-1.3,40-1.3,40s-10.9,3.4-14.6,3.4"/>
	<polyline fill="none" stroke="#000000" stroke-width="2" stroke-miterlimit="10" points="121.8,75.2 120.4,80.6 131.9,82 
		132.9,76.8 	"/>
	<path fill="none" stroke="#000000" stroke-width="2" stroke-miterlimit="10" d="M139.7,135.8c-0.4,31,0.7,73.6,4.1,82.5
		c0,0-30.5,7.1-58.7-4.5l20.4-133.2c0,0,20.4-1.8,36.6,4.2c0,0,0,9.8-0.6,28.9"/>
	<path fill="none" stroke="#000000" stroke-width="2" stroke-miterlimit="10" d="M111.8,85.8c0,0,19.8,34.5,53.4,33l0.4,26.3
		c0,0-39-6.6-60.3-39.9"/>
	<polyline fill="none" stroke="#000000" stroke-width="2" stroke-miterlimit="10" points="165.6,121.3 176,117.4 189.6,121.3 
		189.6,131 175.1,131 165.6,129.6 	"/>
	<path fill="none" stroke="#000000" stroke-width="2" stroke-miterlimit="10" d="M140.7,84.8c0,0-4.5,7.4-12.4,18.8"/>
	<path fill="none" stroke="#000000" stroke-width="2" stroke-miterlimit="10" d="M117.5,120c-4.4,5.5-16.8,17.2-21.3,21.7"/>
	<path fill="none" stroke="#000000" stroke-width="2" stroke-miterlimit="10" d="M136.4,110.9c2.5-3.8,3.8-3.9,5.1-7.3"/>
	<path fill="none" stroke="#000000" stroke-width="2" stroke-miterlimit="10" d="M93.3,160.1c0,0,19.8-18.1,33-32.6"/>
	<polyline fill="none" stroke="#000000" stroke-width="2" stroke-miterlimit="10" points="103.4,218.9 104.8,236.5 110.8,236.5 
		114.4,220.2 	"/>
	<polyline fill="none" stroke="#000000" stroke-width="2" stroke-miterlimit="10" points="124.9,220.4 126.6,235.8 132.9,235.8 
		134.2,219.8 	"/>
	<polyline fill="none" stroke="#000000" stroke-width="2" stroke-miterlimit="10" points="110.8,236.5 125.7,252 108.9,253.3 
		104.8,236.5 	"/>
	<polyline fill="none" stroke="#000000" stroke-width="2" stroke-miterlimit="10" points="126.6,235.8 134.2,249.6 149.6,243.9 
		132.9,235.8 	"/>
	<line fill="none" stroke="#000000" stroke-width="2" stroke-miterlimit="10" x1="141.5" y1="97.9" x2="158.4" y2="95.4"/>
	<path fill="none" stroke="#000000" stroke-width="2" stroke-miterlimit="10" d="M142.1,84.8c1-0.3,29.4-9.6,29.4-9.6"/>
	<path fill="none" stroke="#000000" stroke-width="2" stroke-miterlimit="10" d="M198.6,76.6c0.7,0,10.2,3.1,10.2,3.1
		s-1.5,13.1-1.9,13.1c-0.5,0-6.6-0.7-6.6-0.7l-4-7.5"/>
	<line fill="none" stroke="#000000" stroke-width="2" stroke-miterlimit="10" x1="201" y1="92.2" x2="201" y2="84.7"/>
	<line fill="none" stroke="#000000" stroke-width="2" stroke-miterlimit="10" x1="204.7" y1="93" x2="204.7" y2="84.7"/>
	<ellipse fill="none" stroke="#000000" stroke-width="2" stroke-miterlimit="10" cx="185.5" cy="69.9" rx="13.9" ry="22.1"/>
	<path fill="none" stroke="#000000" stroke-width="2" stroke-miterlimit="10" d="M175.2,49.5c0,0,12,6.2,19.8,2.4"/>
	<path fill="none" stroke="#000000" stroke-width="2" stroke-miterlimit="10" d="M173.2,53.8c0,0,13.7,8,24.5,2.6"/>
	<path fill="none" stroke="#000000" stroke-width="2" stroke-miterlimit="10" d="M171.6,57.9c0,0,14.9,6.8,27.6,2.8"/>
	<path fill="none" stroke="#000000" stroke-width="2" stroke-miterlimit="10" d="M170.3,62.3c0,0,18.3,7.3,30.4,1.4"/>
	<path fill="none" stroke="#000000" stroke-width="2" stroke-miterlimit="10" d="M163.8,118.8c0-17.6,0-35.9,0-35.9s3.4-2.3,9.3-3.6
		"/>
	<path fill="none" stroke="#000000" stroke-width="2" stroke-miterlimit="10" d="M204.5,93c0,19.1,0,59.4,0,59.4s-27.1,2.5-40.7-1.2
		c0,0,0-4.6,0-6.4"/>
	<path fill="none" stroke="#000000" stroke-width="2" stroke-miterlimit="10" d="M207.3,90.1c3.8,12.4,9.8,38.1,8.5,63.1l-5.6,1.2
		c0,0,2.3-19.9-5.8-37.2"/>
	<polyline fill="none" stroke="#000000" stroke-width="2" stroke-miterlimit="10" points="210.3,154.3 207.8,162.8 210.3,165.4 
		210.3,176.7 218.9,171.2 215.9,153.1 	"/>
	<path fill="none" stroke="#000000" stroke-width="2" stroke-miterlimit="10" d="M206.6,122.2c-0.1-0.3,6.8-5.9,6.8-5.9"/>
	<path fill="none" stroke="#000000" stroke-width="2" stroke-miterlimit="10" d="M153.6,117.3c1.9-11.3,4.3-20.9,6.3-27.2
		c0,0,2.1-6,3.9-7"/>
	<path fill="none" stroke="#000000" stroke-width="2" stroke-miterlimit="10" d="M163.8,114.3c-0.6,1.2-1.1,2.6-1.7,3.9"/>
	<path fill="none" stroke="#000000" stroke-width="2" stroke-miterlimit="10" d="M157,142.9c-0.2,5.1-0.1,11.5-0.1,11.5l-5.6-1.2
		c-0.2-3-0.3-10-0.3-13"/>
	<polyline fill="none" stroke="#000000" stroke-width="2" stroke-miterlimit="10" points="156.9,154.3 159.4,162.8 156.9,165.4 
		156.9,176.7 148.3,171.2 151.3,153.1 	"/>
	<polyline fill="none" stroke="#000000" stroke-width="2" stroke-miterlimit="10" points="166.3,151.6 171.6,234.2 178.7,234.2 
		184.1,153.1 	"/>
	<polyline fill="none" stroke="#000000" stroke-width="2" stroke-miterlimit="10" points="185.5,153.1 195.3,234.2 201.3,234.2 
		204.5,152.3 	"/>
	<polyline fill="none" stroke="#000000" stroke-width="2" stroke-miterlimit="10" points="171.6,234.2 154.1,248.7 175.2,252.3 
		178.7,234.2 	"/>
	<polyline fill="none" stroke="#000000" stroke-width="2" stroke-miterlimit="10" points="195.3,234.2 199.3,253.6 218.9,248 
		201.3,234.2 	"/>
</g>
</svg>
