<?xml version="1.0" encoding="utf-8"?>
<!-- Generator: Adobe Illustrator 19.2.1, SVG Export Plug-In . SVG Version: 6.00 Build 0)  -->
<svg version="1.0" xmlns="http://www.w3.org/2000/svg" xmlns:xlink="http://www.w3.org/1999/xlink" x="0px" y="0px" width="288px"
	 height="288px" viewBox="0 0 288 288" enable-background="new 0 0 288 288" xml:space="preserve">
<g id="Layer_2">
	<polygon fill="#27AAE1" points="104.2,92.5 73.9,129 72.8,142.8 113.8,96.7 110.8,93.6 	"/>
</g>
<g id="Layer_1">
	<path fill="none" stroke="#000000" stroke-width="2" stroke-miterlimit="10" d="M113.6,93.6c2-0.6,3.9-1.2,3.9-1.2
		c-7.4-7.1-4.8-39.7-8-47s-17.3-4.4-17.3-4.4s-16.1-3-18.1,7.4c-1.7,9.1-1.3,33.1-3.8,41.3l5.8,1.6"/>
	<path fill="none" stroke="#000000" stroke-width="2" stroke-miterlimit="10" d="M75.1,91.5c0,0,25.1-2.7,38.4,2.4
		c0,0-8.2,82.1,10,125.4c0,0-40.5,12.8-63.8-9.8c0,0,14.2-67.1,14.2-75.6S75.1,91.5,75.1,91.5z"/>
	<polyline fill="none" stroke="#000000" stroke-width="2" stroke-miterlimit="10" points="122.6,151.5 125.8,159.1 133.1,163.6 
		136.3,162.3 129,147.7 	"/>
	<polyline fill="none" stroke="#000000" stroke-width="2" stroke-miterlimit="10" points="122.5,150.9 120.3,156.4 121,159.6 
		122.2,159.8 124.8,155.8 	"/>
	<polyline fill="none" stroke="#000000" stroke-width="2" stroke-miterlimit="10" points="80.1,221.5 82.6,233.1 84.1,233.1 
		86.7,222.4 	"/>
	<polygon fill="none" stroke="#000000" stroke-width="2" stroke-miterlimit="10" points="82.5,233.1 62.4,235.7 70.3,243.9 
		84.7,234.1 	"/>
	<polyline fill="none" stroke="#000000" stroke-width="2" stroke-miterlimit="10" points="106.1,223.3 103.5,235 102,235 99.1,223 	
		"/>
	<path fill="none" stroke="#000000" stroke-width="2" stroke-miterlimit="10" d="M113.7,244.6c-4.1-2.2-12.1-7.7-12.1-7.7l2-1.9
		c0,0,10.4,1.3,16,2"/>
	<path fill="none" stroke="#000000" stroke-width="2" stroke-miterlimit="10" d="M88.3,84.7c-0.6-0.4,0,5.9,0,5.9l9.2,0.3v-6.2
		C97.5,84.7,90.4,86.4,88.3,84.7z"/>
	<path fill="none" stroke="#000000" stroke-width="2" stroke-miterlimit="10" d="M113,94.9c0,0,20.2,50.1,20.2,50.1l-15.6,8.3
		l-5.2-42.7c0,0,0.5-12.2,0.7-15.1"/>
	<path fill="none" stroke="#000000" stroke-width="2" stroke-miterlimit="10" d="M78.9,65.7c0,0,5.3,2.4,8.3,1.4
		c3-1.1,6.2-1.5,10.7,0c4.5,1.5,7.5-1.7,7.5-1.7"/>
	<polygon fill="none" stroke="#000000" stroke-width="2" stroke-miterlimit="10" points="101.4,91.8 73.8,126.1 73.3,139.4 
		113,94.9 	"/>
	<path fill="none" stroke="#000000" stroke-width="2" stroke-miterlimit="10" d="M93.4,84.3h-2.5c-6.6,0-12-5.4-12-12V60.2
		c0-6.6,5.4-12,12-12h2.5c6.6,0,12,5.4,12,12v12.2C105.4,78.9,100,84.3,93.4,84.3z"/>
	<path fill="none" stroke="#000000" stroke-width="2" stroke-miterlimit="10" d="M78.9,62.8c0,0-6.1,2.4,0,7.2"/>
	<path fill="none" stroke="#000000" stroke-width="2" stroke-miterlimit="10" d="M105.8,62.9c0,0,6.1,2.4,0,7.2"/>
	<polyline fill="none" stroke="#000000" stroke-width="2" stroke-miterlimit="10" points="62.9,149.3 59.7,156.8 52.4,161.4 
		49.2,160.1 56.5,145.5 	"/>
	<polyline fill="none" stroke="#000000" stroke-width="2" stroke-miterlimit="10" points="63,148.7 65.2,154.2 64.5,157.4 
		63.3,157.6 60.7,153.6 	"/>
	<path fill="none" stroke="#000000" stroke-width="2" stroke-miterlimit="10" d="M74.4,91.8c0,0-22.8,50.8-22.8,50.8l15.6,8.3
		c0,0,6.8-35.4,7.1-38"/>
	<polygon fill="none" stroke="#000000" stroke-width="2" stroke-miterlimit="10" points="149.2,96.2 156.5,121.2 183.1,114.1 
		179.4,84 	"/>
	<path fill="none" stroke="#000000" stroke-width="2" stroke-miterlimit="10" d="M278.3,154.8c-0.9,0-37.2-46.2-37.2-46.2l-30.5-1.8
		c0,0,2.4,7.5,3.3,7.4c0.9-0.1,24.8,4.7,24.8,4.7"/>
	<path fill="none" stroke="#000000" stroke-width="2" stroke-miterlimit="10" d="M212.8,112.7l-4.4,4.5c0,0,6.3,27,9.4,26.1
		c3-0.9,27.8-7.3,27.8-7.3l-7-17.2c0,0-0.5-0.1-1.4-0.3"/>
	<path fill="none" stroke="#000000" stroke-width="2" stroke-miterlimit="10" d="M238.1,138c0.9-0.2,16.9,34,16.9,34"/>
	<path fill="none" stroke="#000000" stroke-width="2" stroke-miterlimit="10" d="M193.6,63c0.3,0.2,7,28.6,7,28.6l45-9l-5.1-31.5
		L193.6,63z"/>
	<path fill="none" stroke="#000000" stroke-width="2" stroke-miterlimit="10" d="M216.5,88.4c0,0,1.1,7.7,2.6,18.1"/>
	<path fill="none" stroke="#000000" stroke-width="2" stroke-miterlimit="10" d="M224,141.3c1.7,12.2,3.1,21.6,3.1,21.6l14.1-8
		c0,0-1.5-7.2-3.5-17"/>
	<path fill="none" stroke="#000000" stroke-width="2" stroke-miterlimit="10" d="M231.4,107.6C229,95.7,227,86.3,227,86.3"/>
	<line fill="none" stroke="#000000" stroke-width="2" stroke-miterlimit="10" x1="239.7" y1="122.5" x2="221.4" y2="123.1"/>
	<line fill="none" stroke="#000000" stroke-width="2" stroke-miterlimit="10" x1="242" y1="126.9" x2="220.5" y2="130.7"/>
	<path fill="none" stroke="#000000" stroke-width="2" stroke-miterlimit="10" d="M243.5,130.7c-0.4,0.4-18.2,5.2-18.2,5.2"/>
	<path fill="none" stroke="#000000" stroke-width="2" stroke-miterlimit="10" d="M178.3,115.4c0,0,6.6,58.1,22.3,70.8"/>
	<path fill="none" stroke="#000000" stroke-width="2" stroke-miterlimit="10" d="M161.5,119.8c0,0-8.7,45.2,18.5,76.9"/>
	<path fill="none" stroke="#000000" stroke-width="2" stroke-miterlimit="10" d="M179.7,86.5c8-3.6,13.9-6.3,13.9-6.3l1.6,11.3
		c0,0-6.1,1.9-14.3,4.4"/>
	<path fill="none" stroke="#000000" stroke-width="2" stroke-miterlimit="10" d="M130.3,113.7l-4,0.9c0,0,0.2,3.9,0.8,3.9
		c0.6,0,4.2,0,4.2,0L130.3,113.7z"/>
	<polygon fill="none" stroke="#000000" stroke-width="2" stroke-miterlimit="10" points="125.8,172 122.6,174.9 125.8,179.8 
		131.6,176.5 	"/>
	<polygon fill="none" stroke="#000000" stroke-width="2" stroke-miterlimit="10" points="144.4,140.9 140.6,143.3 142.5,148.1 
		146.9,148.1 	"/>
	<polygon fill="none" stroke="#000000" stroke-width="2" stroke-miterlimit="10" points="145.6,124.4 141.8,125.4 142.4,130.7 
		149.2,132.1 149.2,125.6 	"/>
	<path fill="none" stroke="#000000" stroke-width="2" stroke-miterlimit="10" d="M164.6,242l-6.2-5.8l-7.9,1.6
		c0,0-2.3-12.5-2.9-12.7c-0.6-0.2-8.2-2.4-8.2-2.4l-8.9,13.3l-10.3,0.6l-7.6,8.6l-14.2-5.1l-10.3,6"/>
	<polyline fill="none" stroke="#000000" stroke-width="2" stroke-miterlimit="10" points="55.2,207.2 41.3,203 39.8,212.2 30,214 
		32.4,222 17.6,223.4 13.9,235.5 	"/>
	<polygon fill="none" stroke="#000000" stroke-width="2" stroke-miterlimit="10" points="89.6,205.2 86.6,207.9 88.1,211.7 
		92.8,211.7 	"/>
	<path fill="none" stroke="#000000" stroke-width="2" stroke-miterlimit="10" d="M124.3,186.2l-2.3,1.5c0,0-0.7,1.8,0,2.5
		s3.7,1.4,3.7,1.4L124.3,186.2z"/>
</g>
<g id="Layer_3">
	<path opacity="0" fill="none" stroke="#27AAE1" stroke-width="18" stroke-miterlimit="10" d="M61.8,90.2c20.5,0.1,41,0.2,61.5,0.3
		c-24.7,3.2-49.1,8.7-72.7,16.4c19.3-0.1,38.5-0.2,57.8-0.9c-15.7,2.6-31.5,5.1-47.2,7.7c19.1-0.5,38.1-1.3,57.2-2.4
		c-21.7,3.1-43.4,6.3-64.8,11.2c17.3,0.6,34.5,1.3,51.8,1.9c-7.4,2.1-14.9,4.3-22.3,6.4c-1.6,0.5-3.6,1.4-3.4,3.1
		c17.7,0.3,35.4,0.4,53.1,0.1c-1.3-0.1-2.6-0.2-3.8-0.2"/>
</g>
</svg>
