<?xml version="1.0" encoding="utf-8"?>
<!-- Generator: Adobe Illustrator 21.0.0, SVG Export Plug-In . SVG Version: 6.00 Build 0)  -->
<!DOCTYPE svg PUBLIC "-//W3C//DTD SVG 1.0//EN" "http://www.w3.org/TR/2001/REC-SVG-20010904/DTD/svg10.dtd">
<svg version="1.0" xmlns="http://www.w3.org/2000/svg" xmlns:xlink="http://www.w3.org/1999/xlink" x="0px" y="0px" width="288px"
	 height="288px" viewBox="0 0 288 288" enable-background="new 0 0 288 288" xml:space="preserve">
<g id="Color">
	<path fill="#27AAE1" d="M174.3,85.6c0,0-10.2,19.9,2.6,34.9c0,0-10.5-5.6-9.6-19.1C168.1,88,174.3,85.6,174.3,85.6z"/>
	<path fill="#27AAE1" d="M157.9,142.8c0.3,0,0.4,0.1,0.7,0.1c0.7-1.5,1.4-2.9,2.3-3.8l-0.7-11.1c0,0-3,5.7-5.3,14.8
		C155.9,142.7,156.9,142.7,157.9,142.8z"/>
	<path fill="#27AAE1" d="M155.2,165.2c-0.5,0.2-1.2,0.2-2-0.1c-0.3-0.2-0.6-0.3-0.9-0.5c0,2.2,0.2,4.5,0.4,6.9l2.3,0.5
		C155.2,172.1,155.1,169.2,155.2,165.2z"/>
	<path fill="#27AAE1" d="M162.6,142.7l-0.1,5.3c0.9-0.6,1.7-2.4,2.6-2.6l-1.7-33.4l-3.3,1.4l0.7,29.1L162.6,142.7z"/>
	<path fill="#27AAE1" d="M166.2,167l-0.7-13.3c-0.7,0-1.4-0.1-2.2-0.2c-0.3-0.1-0.6-0.2-0.9-0.3l-0.2,13.6l-1.4,0.1v2.3l2,0.5
		l4.3,68l-14.8,15l15.2,1.9l2.7-16.8L172,171l16.6-0.3L166.2,167z"/>
	<polygon fill="#27AAE1" points="183.4,171 189.4,237.8 204.8,250.7 188.2,252.8 186.8,237.8 178.7,171 	"/>
	<path fill="#27AAE1" d="M116.8,134.6c-0.8,0.5-1.5,0.9-1.5,0.8c-0.2-0.1,0.2-0.9,0.7-1.8c-1.9-2.3-3.3-5-4.1-7.9
		c-4.9,5.7-10.2,11.2-15.7,16l-2.8,18.4l24.7-24.1C117.7,135.6,117.2,135.1,116.8,134.6z"/>
	<path fill="#27AAE1" d="M140.7,84.8c0,0-8.6,14.1-17.9,27.1c2.1,3.7,3.8,8.7,6,7.2c0.3,0.4-0.2,2,0,2.4l12.8-16.6l0.6-20.1H140.7z"
		/>
</g>
<g id="Lines">
	<path fill="none" stroke="#000000" stroke-width="2" stroke-miterlimit="10" d="M129.6,76.5l-6.5-0.9c-6.5-1-11.1-7.1-10.1-13.6
		l3.2-21.9c1-6.5,7.1-11.1,13.6-10.1l6.5,0.9c6.5,1,11.1,7.1,10.1,13.6l-3.2,21.9C142.3,72.9,136.1,77.5,129.6,76.5z"/>
	<path fill="none" stroke="#000000" stroke-width="2" stroke-miterlimit="10" d="M114.1,54.8c0,0,8.2,2.5,15.1,2.2
		c6.9-0.3,10.2,2.6,14.4,3.7"/>
	<path fill="none" stroke="#000000" stroke-width="2" stroke-miterlimit="10" d="M114.9,49.3c0,0-5.6,2.4-1,7.1"/>
	<path fill="none" stroke="#000000" stroke-width="2" stroke-miterlimit="10" d="M116.4,80c-3.8,0.1-17.8-6.7-17.8-6.7
		s0.9-1.5,7.9-28.8c7-27.4,27.6-18.8,27.6-18.8s13.4-1.1,15.8,12.7c2.4,13.7-1.3,40-1.3,40s-10.9,3.4-14.6,3.4"/>
	<polyline fill="none" stroke="#000000" stroke-width="2" stroke-miterlimit="10" points="121.8,75.2 120.4,80.6 131.9,82 
		132.9,76.8 	"/>
	<path fill="none" stroke="#000000" stroke-width="2" stroke-miterlimit="10" d="M141,157.4c-0.4,31-0.6,52,2.8,60.9
		c0,0-30.5,7.1-58.7-4.5l20.4-133.2c0,0,20.4-1.8,36.6,4.2c0,0-0.2,31.6-0.8,50.7"/>
	<path fill="none" stroke="#000000" stroke-width="2" stroke-miterlimit="10" d="M111.8,85.8c0,0,17.2,58.8,50.8,57.3l0.4,26.3
		c0,0-54.1-20.9-57.7-64.2"/>
	<polyline fill="none" stroke="#000000" stroke-width="2" stroke-miterlimit="10" points="163,145.6 173.4,141.7 187,145.6 
		187,155.3 172.5,155.3 163,153.9 	"/>
	<path fill="none" stroke="#000000" stroke-width="2" stroke-miterlimit="10" d="M140.7,84.8c0,0-10,15.7-17.9,27.1"/>
	<path fill="none" stroke="#000000" stroke-width="2" stroke-miterlimit="10" d="M111.9,125.7c-4.4,5.5-11.2,11.5-15.7,16"/>
	<path fill="none" stroke="#000000" stroke-width="2" stroke-miterlimit="10" d="M128.8,121.5c2.5-3.8,11.4-14.5,12.7-17.9"/>
	<path fill="none" stroke="#000000" stroke-width="2" stroke-miterlimit="10" d="M93.3,160.1c0,0,11.2-8.3,24.4-22.8"/>
	<polyline fill="none" stroke="#000000" stroke-width="2" stroke-miterlimit="10" points="103.4,218.9 104.8,236.5 110.8,236.5 
		114.4,220.2 	"/>
	<polyline fill="none" stroke="#000000" stroke-width="2" stroke-miterlimit="10" points="124.9,220.4 126.6,235.8 132.9,235.8 
		134.2,219.8 	"/>
	<polyline fill="none" stroke="#000000" stroke-width="2" stroke-miterlimit="10" points="110.8,236.5 125.7,252 108.9,253.3 
		104.8,236.5 	"/>
	<polyline fill="none" stroke="#000000" stroke-width="2" stroke-miterlimit="10" points="126.6,235.8 134.2,249.6 149.6,243.9 
		132.9,235.8 	"/>
	<line fill="none" stroke="#000000" stroke-width="2" stroke-miterlimit="10" x1="141.5" y1="97.9" x2="159.8" y2="114.5"/>
	<path fill="none" stroke="#000000" stroke-width="2" stroke-miterlimit="10" d="M142.1,84.8c1-0.3,25.2,16.7,25.2,16.7"/>
	<path fill="none" stroke="#000000" stroke-width="2" stroke-miterlimit="10" d="M189.1,107.3c0.7,0,9.2,1.1,9.2,1.1
		s-1.5,13.1-1.9,13.1c-0.5,0-6.6-0.7-6.6-0.7l-2.6-6.4"/>
	<line fill="none" stroke="#000000" stroke-width="2" stroke-miterlimit="10" x1="190.5" y1="120.9" x2="190.5" y2="113.4"/>
	<line fill="none" stroke="#000000" stroke-width="2" stroke-miterlimit="10" x1="194.2" y1="121.7" x2="194.2" y2="113.4"/>
	<ellipse fill="none" stroke="#000000" stroke-width="2" stroke-miterlimit="10" cx="178.7" cy="102.5" rx="11.4" ry="18.2"/>
	<path fill="none" stroke="#000000" stroke-width="2" stroke-miterlimit="10" d="M170.3,85.6c0,0,9.9,5.1,16.3,2"/>
	<path fill="none" stroke="#000000" stroke-width="2" stroke-miterlimit="10" d="M168.6,89.2c0,0,11.2,6.6,20.2,2.1"/>
	<path fill="none" stroke="#000000" stroke-width="2" stroke-miterlimit="10" d="M167.3,92.6c0,0,12.3,5.6,22.8,2.3"/>
	<path fill="none" stroke="#000000" stroke-width="2" stroke-miterlimit="10" d="M166.2,96.2c0,0,15.1,6.1,25.1,1.2"/>
	<path fill="none" stroke="#000000" stroke-width="2" stroke-miterlimit="10" d="M160.9,142.8c0-14.5,0-29.6,0-29.6s2.8-1.9,7.7-3"
		/>
	<path fill="none" stroke="#000000" stroke-width="2" stroke-miterlimit="10" d="M194.4,121.5c0,15.8,0,48.9,0,48.9s-22.3,2-33.6-1
		c0,0,0-0.9,0-2.5"/>
	<path fill="none" stroke="#000000" stroke-width="2" stroke-miterlimit="10" d="M196.7,119.1c3.2,10.2,8.1,31.4,7,52l-4.6,1
		c0,0,1.9-16.4-4.8-30.7"/>
	<polyline fill="none" stroke="#000000" stroke-width="2" stroke-miterlimit="10" points="199.1,172.1 197.1,179 199.1,181.2 
		199.1,190.5 206.2,185.9 203.7,171 	"/>
	<path fill="none" stroke="#000000" stroke-width="2" stroke-miterlimit="10" d="M196.1,145.6c-0.1-0.3,5.6-4.9,5.6-4.9"/>
	<path fill="none" stroke="#000000" stroke-width="2" stroke-miterlimit="10" d="M152.4,141.6c1.5-9.3,3.6-17.2,5.2-22.4
		c0,0,1.7-4.9,3.2-5.8"/>
	<path fill="none" stroke="#000000" stroke-width="2" stroke-miterlimit="10" d="M160.9,139.1c-0.5,1-0.9,2.1-1.4,3.2"/>
	<path fill="none" stroke="#000000" stroke-width="2" stroke-miterlimit="10" d="M155.2,165.2c-0.2,4.2-0.1,6.8-0.1,6.8l-4.6-1
		c-0.2-2.5-0.2-5-0.2-7.5"/>
	<polyline fill="none" stroke="#000000" stroke-width="2" stroke-miterlimit="10" points="155.2,172.1 157.2,179 155.2,181.2 
		155.2,190.5 148.1,185.9 150.6,171 	"/>
	<polyline fill="none" stroke="#000000" stroke-width="2" stroke-miterlimit="10" points="162.9,169.8 167.3,237.8 173.2,237.8 
		177.6,171 	"/>
	<polyline fill="none" stroke="#000000" stroke-width="2" stroke-miterlimit="10" points="178.7,171 186.8,237.8 191.7,237.8 
		194.4,170.4 	"/>
	<polyline fill="none" stroke="#000000" stroke-width="2" stroke-miterlimit="10" points="167.3,237.8 152.9,249.9 170.3,252.8 
		173.2,237.8 	"/>
	<polyline fill="none" stroke="#000000" stroke-width="2" stroke-miterlimit="10" points="186.8,237.8 190.1,253.9 206.2,249.3 
		191.7,237.8 	"/>
</g>
<g id="Stroke">
	
		<path opacity="0" fill="none" stroke="#000000" stroke-width="20" stroke-linecap="round" stroke-linejoin="round" stroke-miterlimit="10" d="
		M131.8,79.3c26.7,0.5,53.3,3.1,79.5,7.7c-0.1,3.1-4.1,4.3-7.2,4.6c-30.3,3.1-60.7,6.3-91,9.4c28.7-0.2,57.4,2.5,85.6,8.1
		c-12.4,4.2-25.3,6.7-38.3,7.9c-22.5,2.1-45.6,0.3-67.1,7.3c11.8,3,24.1,2.5,36.3,2.6c26.4,0.2,52.8,2.8,78.6,8
		c-18.7,6.5-39,8.5-58.7,6c-13.1-1.7-25.9-5.4-39-6.4c-13.1-1-27.2,1.1-37.3,9.6c5.7,0.2,11.3,0.5,17,0.7
		c37.6,1.6,76.2,3.4,111,17.8c-19,5.9-39.4,2.4-59.1,0.4c-18-1.8-36.2-2.2-54.3-1.3c-3.8,0.2-7.8,0.6-10.6,3
		c43,11.6,87.7,17.1,132.3,16.5c-13.9,3-27.7,6-41.6,9c-4.1,0.9-8.9,2.4-10.1,6.4c10.6,0.5,21.2,1.1,31.8,1.6
		c3.3,0.2,7.2,0.7,8.6,3.7c-2.6,1.3-5.5,1.6-8.4,1.9c-9.6,1-19.3,2-28.9,3c-0.7,2.1,2.2,3.4,4.3,3.7c11.2,1.5,22.4,3,33.6,4.4
		c1,1.5,0.1,3.7-1.3,4.8c-1.4,1.1-3.3,1.4-5.1,1.6c-12.5,1.9-25,3.7-37.5,5.6c12.6,2.2,25.2,4.3,37.8,6.5c2.7,0.5,5.8,1.1,7.2,3.5
		c-16,0.8-32,1.8-48,2.9c-2.4,0.2-5.4,0.7-6.3,3c27.3,8.9,56.2,12.9,84.8,11.7c-22.3-0.3-44.5-0.6-66.8-0.8
		c-7.1-0.1-14.1-0.2-21.2,0.7"/>
</g>
</svg>
