<?xml version="1.0" encoding="utf-8"?>
<!-- Generator: Adobe Illustrator 21.0.0, SVG Export Plug-In . SVG Version: 6.00 Build 0)  -->
<!DOCTYPE svg PUBLIC "-//W3C//DTD SVG 1.0//EN" "http://www.w3.org/TR/2001/REC-SVG-20010904/DTD/svg10.dtd">
<svg version="1.0" id="Layer_1" xmlns="http://www.w3.org/2000/svg" xmlns:xlink="http://www.w3.org/1999/xlink" x="0px" y="0px"
	 width="621px" height="361px" viewBox="0 0 621 361" enable-background="new 0 0 621 361" xml:space="preserve">
<path fill="#FFFFFF" stroke="#000000" stroke-width="2" stroke-miterlimit="10" d="M386.5,40l-32.3-9h-26.6l-23.1,9h-9.9
	c0,0-19.2-6.3-24.1-4.6c-5,1.7-34.1,5.3-37.3,4.6c-3.2-0.6-16.7,5.3-16.7,5.3L198.2,52l-33.8,3.4c0,0-14.9,7.8-21.6,12
	s-12.4,11.1-14.9,14.1c-2.5,2.7-6.7,28.8-6.7,28.8s-16.7,9.9-18.2,16.2c-1.7,6.3-5.5,28.8-5.5,28.8s0.2,14.7,0,23.8s0,30.1,0,30.1
	l13.9,17.4l13.2,18.3l19.9,27.3l17.4,12.6l22.6,12.6l21.4,6.9H235c0,0,47.3,16.8,50.5,16.8c3.2,0,7.5,6.3,25.6,6.3
	c18.2,0,28.1,0,28.1,0h43.5h29.6c0,0-19.2,0,30.6-3.6s37.3,0,37.3,0l36.6-9c0,0,35.6-22.5,40.5-23.8s21.6-6.3,24.1-12
	c2.5-5.7,7.5-13,9.2-19.8c1.7-6.7,9.9-18.1,13.2-23.5c3.2-5.7,7.5-9,7.5-16.2s0-19.5,0-19.5s-0.7,0.6,0-15.3
	c0.7-16.2,1.7-17.4,0-25.9s0.7-12.6-4.2-25.9s-7.5-16.8-7.5-16.8l-5-7.8l-14.2-17.4L568,73.4l-17.4-21.6c0,0-11.7-5.7-14.9-5.9
	c-3.2-0.4-24.1-3.2-29.1-4.6S485,38.5,485,38.5l-26.6-1.5c0,0-14.9,1.5-20.6,1.5c-5.7,0-22.4,3.6-27.4,3.6S386.5,40,386.5,40z"/>
<path fill="#FFFFFF" stroke="#000000" stroke-width="2" stroke-miterlimit="10" d="M76.8,108.7H66.1c0,0-9.9,4.8-10.7,6.9
	c-0.7,2.1-4.2,6.5-5,10.3c-0.7,3.8-4.2,9.2,0,10.7s12.2,4.2,12.2,4.2h6.7c0,0,8.2,2.7,13.2,0c5-2.7,10.7-2.7,10.7-5.7
	c0-2.7,2-5.7,2-5.7l1.2-12l0,0l-11.7-9h-8V108.7z"/>
<path fill="#FFFFFF" stroke="#000000" stroke-width="2" stroke-miterlimit="10" d="M50.1,153h-7.8l-8.9,7.6l-2.7,6
	c0,0-1.6,4.2,0,6.9c1.6,2.7,3.1,4.5,6.8,5.1c3.7,0.5,3.1-0.9,6.6,0c3.5,0.9,9.7,0.2,9.7,0.2l8.2-2.2l5.1-6.3v-6.7v-6l-2.7-4.5
	l-4.5-1.3L50.1,153z"/>
<path fill="#FFFFFF" stroke="#000000" stroke-width="2" stroke-miterlimit="10" d="M21.3,194.3c0,0-9-0.7-9.2,0
	c-0.3,0.7-2.9,4.9-2.9,4.9l-2.5,6.5c0,0-0.4,1.4,1.2,2.1c1.8,0.7,1.5,0.5,3.6,1.3s11.2,1.4,12,1.1c0.9-0.3,2.8-1.1,4.7-2.4
	s4.8,0,4.8-3.9s0-6.3,0-6.3l-2.6-3.5L21.3,194.3z"/>
</svg>
