<?xml version="1.0" encoding="utf-8"?>
<!-- Generator: Adobe Illustrator 19.2.1, SVG Export Plug-In . SVG Version: 6.00 Build 0)  -->
<svg version="1.0" xmlns="http://www.w3.org/2000/svg" xmlns:xlink="http://www.w3.org/1999/xlink" x="0px" y="0px" width="288px"
	 height="288px" viewBox="0 0 288 288" enable-background="new 0 0 288 288" xml:space="preserve">
<g id="Layer_2">
	<path fill="#27AAE1" d="M103.1,86.7c-0.4-0.1-34.2,40.7-34.2,41c0,0.3,0,12.8,0,12.8l42.6-50.5L103.1,86.7z"/>
	<path fill="#27AAE1" d="M210.7,74.6c0,0,13.9,18.9-1.2,33.3c0,0,11.8-1.9,11.2-14.7C220.1,80.4,214.3,74.2,210.7,74.6z"/>
	<path fill="#27AAE1" d="M220.7,113.6c0,0-3.8,44.3-4.2,58.2c-0.3,13.9,0,74.9,0,74.9l4.2,14.9l11.2-3.2l-13-12.2l2.6-88.3l5.2-43.6
		L220.7,113.6z"/>
	<path fill="#27AAE1" d="M206.3,164.8l-2.5,80.4c0,0-12.9,7.3-13.1,7.6c-0.2,0.2,10,4.2,10,4.2l6.2-11.8l3.1-73.5l-0.4-7H206.3z"/>
	<path fill="#27AAE1" d="M226.4,121.4l11.2,11.5l-14.2,16.5l4,8.1l-2,1.9c0,0-3.9-0.2-3.7-1.5s0.3-13.7,0.8-14.2
		s10.6-10.8,10.6-10.8l-8.7-6.1L226.4,121.4z"/>
</g>
<g id="Layer_1">
	<path fill="none" stroke="#000000" stroke-width="2" stroke-miterlimit="10" d="M113,87.7c2.2-0.6,4.3-1.3,4.3-1.3
		c-8.2-7.8-5.3-43.8-8.8-51.8s-19.1-4.8-19.1-4.8S71.6,26.5,69.5,38c-1.9,10-1.4,36.5-4.2,45.6l6.4,1.8"/>
	<path fill="none" stroke="#000000" stroke-width="2" stroke-miterlimit="10" d="M70.5,85.4c0,0,27.7-3,42.3,2.7
		c0,0-9,90.5,11,138.3c0,0-44.7,14.2-70.3-10.8c0,0,15.7-74,15.7-83.3S70.5,85.4,70.5,85.4z"/>
	<polyline fill="none" stroke="#000000" stroke-width="2" stroke-miterlimit="10" points="122.9,151.6 126.4,159.9 134.4,165 
		138,163.5 129.9,147.4 	"/>
	<polyline fill="none" stroke="#000000" stroke-width="2" stroke-miterlimit="10" points="122.8,150.9 120.3,157 121.1,160.5 
		122.4,160.7 125.3,156.4 	"/>
	<polyline fill="none" stroke="#000000" stroke-width="2" stroke-miterlimit="10" points="76,228.8 78.8,241.6 80.5,241.6 
		83.3,229.8 	"/>
	<polygon fill="none" stroke="#000000" stroke-width="2" stroke-miterlimit="10" points="78.7,241.6 56.5,244.5 65.2,253.5 
		81.7,244.5 	"/>
	<polyline fill="none" stroke="#000000" stroke-width="2" stroke-miterlimit="10" points="104.6,230.8 101.8,243.6 100.1,243.6 
		97,230.5 	"/>
	<polygon fill="none" stroke="#000000" stroke-width="2" stroke-miterlimit="10" points="101.9,243.6 124.1,246.5 115.4,255.5 
		98.9,246.5 	"/>
	<path fill="none" stroke="#000000" stroke-width="2" stroke-miterlimit="10" d="M85,78c-0.6-0.5,0,6.5,0,6.5l10.1,0.3V78
		C95.1,78,87.4,79.8,85,78z"/>
	<path fill="none" stroke="#000000" stroke-width="2" stroke-miterlimit="10" d="M112.3,89.2c0,0,22.2,55.3,22.2,55.3l-17.2,9.2
		l-5.8-47.1c0,0,0.6-13.4,0.8-16.6"/>
	<path fill="none" stroke="#000000" stroke-width="2" stroke-miterlimit="10" d="M74.7,56.9c0,0,5.8,2.7,9.1,1.5
		c3.3-1.2,6.8-1.7,11.8,0c5,1.7,8.2-1.9,8.2-1.9"/>
	<polygon fill="none" stroke="#000000" stroke-width="2" stroke-miterlimit="10" points="99.5,85.7 69.1,123.6 68.5,138.2 
		112.3,89.2 	"/>
	<path fill="none" stroke="#000000" stroke-width="2" stroke-miterlimit="10" d="M91.9,77.5h-5.2c-6.6,0-12-5.4-12-12V49.6
		c0-6.6,5.4-12,12-12h5.2c6.6,0,12,5.4,12,12v15.9C103.9,72.1,98.5,77.5,91.9,77.5z"/>
	<path fill="none" stroke="#000000" stroke-width="2" stroke-miterlimit="10" d="M74.7,53.8c0,0-6.8,2.6,0,7.9"/>
	<path fill="none" stroke="#000000" stroke-width="2" stroke-miterlimit="10" d="M104.4,53.8c0,0,6.8,2.6,0,7.9"/>
	<polyline fill="none" stroke="#000000" stroke-width="2" stroke-miterlimit="10" points="57,149.2 53.5,157.5 45.4,162.5 
		41.9,161.1 50,144.9 	"/>
	<polyline fill="none" stroke="#000000" stroke-width="2" stroke-miterlimit="10" points="57.1,148.5 59.6,154.6 58.8,158.1 
		57.5,158.3 54.6,153.9 	"/>
	<path fill="none" stroke="#000000" stroke-width="2" stroke-miterlimit="10" d="M69.7,85.7c0,0-25.1,56-25.1,56l17.2,9.2
		c0,0,7.5-39,7.8-41.9"/>
	<polygon fill="none" stroke="#000000" stroke-width="2" stroke-miterlimit="10" points="138,29.2 145.4,253.5 166.7,255.5 
		166.7,29.2 	"/>
	<line fill="none" stroke="#000000" stroke-width="2" stroke-miterlimit="10" x1="138.6" y1="46.6" x2="153.7" y2="46.6"/>
	<line fill="none" stroke="#000000" stroke-width="2" stroke-miterlimit="10" x1="138.4" y1="42.1" x2="147.9" y2="42.1"/>
	<line fill="none" stroke="#000000" stroke-width="2" stroke-miterlimit="10" x1="138.7" y1="50.6" x2="149" y2="50.6"/>
	<line fill="none" stroke="#000000" stroke-width="2" stroke-miterlimit="10" x1="139.5" y1="74.6" x2="151.4" y2="74.6"/>
	<line fill="none" stroke="#000000" stroke-width="2" stroke-miterlimit="10" x1="139.5" y1="70.1" x2="146.1" y2="69.4"/>
	<line fill="none" stroke="#000000" stroke-width="2" stroke-miterlimit="10" x1="139.6" y1="79.6" x2="148.6" y2="79.6"/>
	<line fill="none" stroke="#000000" stroke-width="2" stroke-miterlimit="10" x1="140.6" y1="104.9" x2="155.7" y2="104.9"/>
	<line fill="none" stroke="#000000" stroke-width="2" stroke-miterlimit="10" x1="140.4" y1="100.4" x2="149.9" y2="100.4"/>
	<line fill="none" stroke="#000000" stroke-width="2" stroke-miterlimit="10" x1="140.7" y1="108.9" x2="151" y2="108.9"/>
	<line fill="none" stroke="#000000" stroke-width="2" stroke-miterlimit="10" x1="141.5" y1="132.9" x2="153.4" y2="132.9"/>
	<line fill="none" stroke="#000000" stroke-width="2" stroke-miterlimit="10" x1="141.5" y1="128.4" x2="148.1" y2="127.7"/>
	<line fill="none" stroke="#000000" stroke-width="2" stroke-miterlimit="10" x1="141.6" y1="137.9" x2="150.6" y2="137.9"/>
	<line fill="none" stroke="#000000" stroke-width="2" stroke-miterlimit="10" x1="142.6" y1="171.8" x2="157.7" y2="171.8"/>
	<line fill="none" stroke="#000000" stroke-width="2" stroke-miterlimit="10" x1="142.4" y1="167.3" x2="151.9" y2="167.3"/>
	<line fill="none" stroke="#000000" stroke-width="2" stroke-miterlimit="10" x1="142.7" y1="175.8" x2="153" y2="175.8"/>
	<line fill="none" stroke="#000000" stroke-width="2" stroke-miterlimit="10" x1="143.5" y1="199.8" x2="155.4" y2="199.8"/>
	<line fill="none" stroke="#000000" stroke-width="2" stroke-miterlimit="10" x1="143.5" y1="195.3" x2="150.1" y2="194.6"/>
	<line fill="none" stroke="#000000" stroke-width="2" stroke-miterlimit="10" x1="143.6" y1="204.8" x2="152.6" y2="204.8"/>
	<line fill="none" stroke="#000000" stroke-width="2" stroke-miterlimit="10" x1="144.6" y1="234.2" x2="159.7" y2="234.2"/>
	<line fill="none" stroke="#000000" stroke-width="2" stroke-miterlimit="10" x1="144.4" y1="229.7" x2="153.9" y2="229.7"/>
	<line fill="none" stroke="#000000" stroke-width="2" stroke-miterlimit="10" x1="144.7" y1="238.2" x2="155" y2="238.2"/>
	<path fill="none" stroke="#000000" stroke-width="2" stroke-miterlimit="10" d="M220.7,91.2c0,9.2-5,16.7-11.2,16.7
		c-1.1,0-2.1-0.2-3.1-0.6c-4.7-2-8.1-8.4-8.1-16c0-9.2,5-16.7,11.2-16.7C215.7,74.6,220.7,82,220.7,91.2z"/>
	<path fill="none" stroke="#000000" stroke-width="2" stroke-miterlimit="10" d="M200.5,77.2c0,0,9.9,1.9,15.8,0"/>
	<path fill="none" stroke="#000000" stroke-width="2" stroke-miterlimit="10" d="M198.3,79.8c0,0,11.6,2.7,19.3,0"/>
	<path fill="none" stroke="#000000" stroke-width="2" stroke-miterlimit="10" d="M198.3,82.2c0,0,6.4,5.3,20.8,0.4"/>
	<path fill="none" stroke="#000000" stroke-width="2" stroke-miterlimit="10" d="M194.6,112.7c0,0,18.8-0.8,32.1,1.6l-6.1,50.5
		l-22.4-1.2L194.6,112.7z"/>
	<polyline fill="none" stroke="#000000" stroke-width="2" stroke-miterlimit="10" points="198.3,163.6 201.3,245.3 206.8,245.3 
		209.5,164.8 213.6,246.7 219.1,246.4 220.7,164.8 	"/>
	<polyline fill="none" stroke="#000000" stroke-width="2" stroke-miterlimit="10" points="201.3,245.3 187.2,250.5 200.1,255.2 
		206.8,245.3 	"/>
	<polyline fill="none" stroke="#000000" stroke-width="2" stroke-miterlimit="10" points="213.8,246.8 218.3,259.1 230.2,256.3 
		219.3,246.5 	"/>
	<line fill="none" stroke="#000000" stroke-width="2" stroke-miterlimit="10" x1="206.3" y1="113.3" x2="206.4" y2="107.3"/>
	<line fill="none" stroke="#000000" stroke-width="2" stroke-miterlimit="10" x1="212.6" y1="107.3" x2="212.6" y2="113.2"/>
	<path fill="none" stroke="#000000" stroke-width="2" stroke-miterlimit="10" d="M226.8,114.3c0,0,16.7,17.2,19.3,21l-23.8,16.3"/>
	<line fill="none" stroke="#000000" stroke-width="2" stroke-miterlimit="10" x1="238.7" y1="126.8" x2="223.4" y2="142.8"/>
	<line fill="none" stroke="#000000" stroke-width="2" stroke-miterlimit="10" x1="233.4" y1="132.9" x2="225.3" y2="126.8"/>
	<polyline fill="none" stroke="#000000" stroke-width="2" stroke-miterlimit="10" points="226.8,148.4 231,154.2 225.3,159.4 
		221.8,156.6 	"/>
	<polyline fill="none" stroke="#000000" stroke-width="2" stroke-miterlimit="10" points="194.6,112.7 179.8,132.9 197.5,152 	"/>
	<line fill="none" stroke="#000000" stroke-width="2" stroke-miterlimit="10" x1="186" y1="125.3" x2="196.7" y2="141.3"/>
	<line fill="none" stroke="#000000" stroke-width="2" stroke-miterlimit="10" x1="195.8" y1="128" x2="190.6" y2="132.1"/>
	<polyline fill="none" stroke="#000000" stroke-width="2" stroke-miterlimit="10" points="197.5,155.4 191.4,157.9 188.3,152 
		194.6,149.4 	"/>
</g>
<g id="Layer_3">
	<path opacity="0" fill="none" stroke="#27AAE1" stroke-width="20" stroke-miterlimit="10" d="M69.7,63.1
		c55.5,4.4,111.6-3.8,166.9,2.4c-54.8,9.3-111.9-2-166,10.7c55.3,2.9,110.7,4.7,166,5.4c-58.8,1.9-117.5,4.4-176.2,7.3
		c58.3,10.5,118.1,10.2,177.3,7.3c-58.5-0.8-117.4-1.6-175.1,8.3c65.5,6,131.4,7.8,197.1,5.5c-61.3-2.7-122.7-0.5-183.6,6.6
		c56.2,1.7,112.5,3.5,168.7,5.2c-53.5-4.2-107.3-4.5-161-3.7c-11.7,0.2-23.7,0.4-34.8,4.2c69,9.2,138.8,12,208.3,8.4
		c-63.3-4-126.9-1.9-190.3,1.2c37.2,4.5,74.4,8.9,111.7,13.4c26.7,3.2,53.7,6.4,80.3,2.7c-26.7,1.4-53.2,5.8-78.8,13.1
		c20.1,0.4,40.2,1.3,60.3,2.7c-19.9,1.9-39.8,4.7-59.5,8.3c16.8,2.8,33.8,4.3,50.9,4.3c-12.9,1.5-25.8,3.1-38.7,4.6
		c18.5,1.2,37,2.5,55.5,3.7c-17.7,0.6-35.4,0.8-53,0.4c6.1,3.5,12.8,6,19.8,7.5c-9.8-0.5-19.7,1.2-28.7,5c14.7,5,30.4,6.1,45.8,7.2
		c-13.9,0.6-27.8,0.7-41.6,0.3c10.9,1.6,21.7,3.2,32.6,4.8c-11.7-0.3-23.3,0.4-34.9,2.2c11.8,3.6,24.1,5.6,36.5,6.1
		c-10.4,1-20.7,2.9-30.7,5.7c9.6,4.2,20.3,5.2,30.7,6.2c-16.8,0-33.7,0-50.2,3.1c12.4,4.2,25.4,6.9,38.6,7.8c-7-0.5-14.1,0.5-20.7,3
		c13.7,4,27.9,6.3,42.1,7c-9.8-0.1-19.7-0.1-29.5-0.2c5.4,0.8,10.8,1.7,16.2,2.5c-3-0.1-6,0.7-8.6,2.1c6.3,2,13.2,2.1,19.5,0.2"/>
</g>
</svg>
