<?xml version="1.0" encoding="utf-8"?>
<!-- Generator: Adobe Illustrator 19.2.1, SVG Export Plug-In . SVG Version: 6.00 Build 0)  -->
<svg version="1.0" id="Layer_1" xmlns="http://www.w3.org/2000/svg" xmlns:xlink="http://www.w3.org/1999/xlink" x="0px" y="0px"
	 width="288px" height="288px" viewBox="0 0 288 288" enable-background="new 0 0 288 288" xml:space="preserve">
<polygon fill="none" stroke="#000000" stroke-width="2" stroke-miterlimit="10" points="95.5,23.8 95.5,104.5 210.2,99.2 
	210.2,23.8 "/>
<polygon fill="none" stroke="#000000" stroke-width="2" stroke-miterlimit="10" points="109.1,33.4 109.1,92.3 196.8,88.4 
	196.8,33.4 "/>
<polyline fill="none" stroke="#000000" stroke-width="2" stroke-miterlimit="10" points="95.5,45.5 64.2,27.8 64.2,90.5 95.5,75.5 
	"/>
<line fill="none" stroke="#000000" stroke-width="2" stroke-miterlimit="10" x1="74.1" y1="33.4" x2="74.1" y2="85.8"/>
<path fill="none" stroke="#000000" stroke-width="2" stroke-miterlimit="10" d="M210.2,48.8c2-0.3,13.7-2.7,13.7-2.7l-2,30.3
	l-11.7-4.7"/>
<path fill="none" stroke="#000000" stroke-width="2" stroke-miterlimit="10" d="M148.2,101.8c-7,60.1-18.7,160.4-18.7,160.4l7.3,0.2
	l16.9-160.6v161.7h5.6v-162l19,160.8l8.3-0.2c0,0-13.2-101-21.1-160.9"/>
</svg>
