<?xml version="1.0" encoding="utf-8"?>
<!-- Generator: Adobe Illustrator 21.0.0, SVG Export Plug-In . SVG Version: 6.00 Build 0)  -->
<!DOCTYPE svg PUBLIC "-//W3C//DTD SVG 1.0//EN" "http://www.w3.org/TR/2001/REC-SVG-20010904/DTD/svg10.dtd">
<svg version="1.0" id="Layer_2" xmlns="http://www.w3.org/2000/svg" xmlns:xlink="http://www.w3.org/1999/xlink" x="0px" y="0px"
	 width="288px" height="288px" viewBox="0 0 288 288" enable-background="new 0 0 288 288" xml:space="preserve">
<circle fill="none" stroke="#000000" stroke-width="2" stroke-miterlimit="10" cx="122.1" cy="149.7" r="8.4"/>
<path fill="none" stroke="#000000" stroke-width="2" stroke-miterlimit="10" d="M143.6,153.1v-7.1h-5.3c-0.4-1.9-1.2-3.8-2.3-5.4
	l3.8-3.8l-5-5l-3.9,3.9c-1.6-1-3.4-1.8-5.4-2.2v-5.5h-7.1v5.5c-1.9,0.4-3.7,1.2-5.4,2.2l-3.9-3.9l-5,5l3.8,3.8
	c-1.1,1.6-1.8,3.4-2.3,5.4h-5.3v7.1h5.3c0.4,2,1.2,3.9,2.2,5.5l-3.7,3.7l5,5l3.6-3.6c1.7,1.1,3.6,1.9,5.6,2.3v5.1h7.1V166
	c2-0.4,3.9-1.2,5.6-2.3l3.6,3.6l5-5l-3.7-3.7c1.1-1.7,1.8-3.5,2.2-5.5H143.6L143.6,153.1z"/>
<ellipse transform="matrix(0.2921 -0.9564 0.9564 0.2921 -18.5758 241.7856)" fill="none" stroke="#000000" stroke-width="2" stroke-miterlimit="10" cx="154" cy="133.4" rx="6.3" ry="6.3"/>
<path fill="none" stroke="#000000" stroke-width="2" stroke-miterlimit="10" d="M168.9,140.6l1.6-5.1l-3.8-1.2
	c0.1-1.5-0.1-3-0.5-4.4l3.6-1.9l-2.5-4.7l-3.6,1.9c-1-1.1-2.1-2-3.4-2.8l1.2-3.9l-5.1-1.6l-1.2,4c-1.5-0.1-2.9,0-4.3,0.4l-1.9-3.6
	l-4.7,2.5l1.9,3.6c-1.1,0.9-2.1,2.1-2.8,3.4l-3.8-1.2l-1.6,5.1l3.8,1.1c-0.2,1.5,0,3,0.4,4.5l-3.4,1.8l2.5,4.7l3.4-1.8
	c1,1.1,2.1,2.1,3.5,2.9l-1.1,3.7l5.1,1.6l1.1-3.7c1.5,0.1,3.1,0,4.5-0.5l1.8,3.4l4.7-2.5l-1.8-3.4c1.1-1,2.1-2.1,2.8-3.5
	L168.9,140.6z"/>
</svg>
