<?xml version="1.0" encoding="utf-8"?>
<!-- Generator: Adobe Illustrator 19.2.1, SVG Export Plug-In . SVG Version: 6.00 Build 0)  -->
<svg version="1.0" id="Layer_1" xmlns="http://www.w3.org/2000/svg" xmlns:xlink="http://www.w3.org/1999/xlink" x="0px" y="0px"
	 width="288px" height="288px" viewBox="0 0 288 288" enable-background="new 0 0 288 288" xml:space="preserve">
<path fill="none" stroke="#000000" stroke-width="2" stroke-miterlimit="10" d="M143,186.4v-66.8c0,0-26.4-21.8-52.2-11.2v69.2
	C90.8,177.7,114.4,173.4,143,186.4z"/>
<polyline fill="none" stroke="#000000" stroke-width="2" stroke-miterlimit="10" points="90.8,114.7 86.8,114.7 86.8,185.7 
	136,185.7 131,189.9 143,189.9 145,189.9 156.9,189.9 151.9,185.7 201.1,185.7 201.1,114.7 197.1,114.7 "/>
<path fill="none" stroke="#000000" stroke-width="2" stroke-miterlimit="10" d="M145,186.4l0-66.7c0,0,26.4-21.7,52.2-11.2l0,69.2
	C197.1,177.7,173.6,173.4,145,186.4z"/>
<polyline fill="none" stroke="#000000" stroke-width="2" stroke-miterlimit="10" points="92.1,177.5 92.1,182.5 132.9,182.5 "/>
<polyline fill="none" stroke="#000000" stroke-width="2" stroke-miterlimit="10" points="194.3,177.5 194.3,182.5 154.7,182.5 "/>
<polygon fill="none" stroke="#000000" stroke-width="2" stroke-miterlimit="10" points="149.8,116.3 149.8,142.1 154.7,133.9 
	159.8,142.1 159.8,111.1 "/>
</svg>
