<?xml version="1.0" encoding="utf-8"?>
<!-- Generator: Adobe Illustrator 21.0.0, SVG Export Plug-In . SVG Version: 6.00 Build 0)  -->
<!DOCTYPE svg PUBLIC "-//W3C//DTD SVG 1.0//EN" "http://www.w3.org/TR/2001/REC-SVG-20010904/DTD/svg10.dtd">
<svg version="1.0" id="Layer_2" xmlns="http://www.w3.org/2000/svg" xmlns:xlink="http://www.w3.org/1999/xlink" x="0px" y="0px"
	 width="792px" height="1002px" viewBox="0 0 792 1002" enable-background="new 0 0 792 1002" xml:space="preserve">
<path fill="none" stroke="#35ABDF" stroke-width="8" stroke-miterlimit="10" d="M441.9,747.3c0,0,19-71,6-152"/>
<polyline fill="none" stroke="#35ABDF" stroke-width="8" stroke-miterlimit="10" points="433.5,624 447.6,590.6 468.4,620.9 "/>
<path fill="none" stroke="#35ABDF" stroke-width="8" stroke-miterlimit="10" d="M640.9,863.8c0,0-115-14.5-156-262.5"/>
<polyline fill="none" stroke="#35ABDF" stroke-width="8" stroke-miterlimit="10" points="475.2,631.3 482.7,595.9 508.9,621.6 "/>
<path fill="none" stroke="#35ABDF" stroke-width="8" stroke-miterlimit="10" d="M139,892.3c0,0-93.8-303.5,89.9-315.3
	c2.2-0.1,4.4-0.2,6.6-0.3c21.7-0.5,43,5.5,61.8,16.2c31.8,18,77.9,31.8,108.8-1.4"/>
<polyline fill="none" stroke="#35ABDF" stroke-width="8" stroke-miterlimit="10" points="378.2,596.7 413,586.5 402.5,621.7 "/>
<path fill="none" stroke="#35ABDF" stroke-width="8" stroke-miterlimit="10" d="M446,118.2c-1.3,2.6,2.5,47.1,2.5,47.1"/>
<polyline fill="none" stroke="#35ABDF" stroke-width="8" stroke-miterlimit="10" points="430.3,143.2 443.9,109.7 465.2,139.6 "/>
</svg>
