<?xml version="1.0" encoding="utf-8"?>
<!-- Generator: Adobe Illustrator 21.0.0, SVG Export Plug-In . SVG Version: 6.00 Build 0)  -->
<!DOCTYPE svg PUBLIC "-//W3C//DTD SVG 1.0//EN" "http://www.w3.org/TR/2001/REC-SVG-20010904/DTD/svg10.dtd">
<svg version="1.0" id="Layer_1" xmlns="http://www.w3.org/2000/svg" xmlns:xlink="http://www.w3.org/1999/xlink" x="0px" y="0px"
	 width="360px" height="288px" viewBox="0 0 360 288" enable-background="new 0 0 360 288" xml:space="preserve">
<path fill="#27AAE1" stroke="#000000" stroke-width="2" stroke-miterlimit="10" d="M208.2,112.6c0,0,7-1,7,5.4s-2.4,14.2-5,14
	s-14.9-7.9-9.5-17.4"/>
<path fill="#27AAE1" stroke="#000000" stroke-width="2" stroke-miterlimit="10" d="M151.8,108.9c0,0-7-1-7,5.4s2.4,14.2,5,14
	s14.9-7.9,9.5-17.4"/>
<polyline fill="none" stroke="#000000" stroke-width="2" stroke-miterlimit="10" points="183.9,190.5 183.9,122.7 183.9,107.4 "/>
<path fill="none" stroke="#000000" stroke-width="2" stroke-miterlimit="10" d="M184.1,141.8c0,0-8.9-17-12.9-10.5
	C167.2,137.8,178.2,143.9,184.1,141.8z"/>
<path fill="none" stroke="#000000" stroke-width="2" stroke-miterlimit="10" d="M183.2,141.8c0,0,8.9-17,12.9-10.5
	C200.1,137.8,189.1,143.9,183.2,141.8z"/>
<path fill="none" stroke="#000000" stroke-width="2" stroke-miterlimit="10" d="M183.9,169.4c0,0-13.9-17-20.2-10.5
	C157.2,165.5,174.7,171.5,183.9,169.4z"/>
<path fill="none" stroke="#000000" stroke-width="2" stroke-miterlimit="10" d="M184.2,169.4c0,0,13.9-17,20.2-10.5
	S193.4,171.5,184.2,169.4z"/>
<path fill="none" stroke="#000000" stroke-width="2" stroke-miterlimit="10" d="M184.2,107.9c0,0-5.1-5.6-6.1-2.9
	S179.6,109.2,184.2,107.9z"/>
<path fill="none" stroke="#000000" stroke-width="2" stroke-miterlimit="10" d="M183.9,107.9c0,0,5.1-5.6,6.1-2.9
	S188.5,109.2,183.9,107.9z"/>
<path fill="none" stroke="#000000" stroke-width="2" stroke-miterlimit="10" d="M183.9,107.4c0,0-3.4-12.5-14.8-9.5
	s-14.6,9.5-14.6,9.5"/>
<path fill="none" stroke="#000000" stroke-width="2" stroke-miterlimit="10" d="M183.9,106.3c0,0,8.3-13.3,15.7-4.9
	c4.1,4.7,5.6,8.8,6.1,11.5"/>
<path fill="none" stroke="#000000" stroke-width="2" stroke-miterlimit="10" d="M154.2,109c0,0-3.6-6.7-5.3-4.3
	C147.4,107.2,149.5,109.3,154.2,109z"/>
<path fill="none" stroke="#000000" stroke-width="2" stroke-miterlimit="10" d="M154,109c0,0,6.3-4.2,6.6-1.3
	C160.9,110.6,158.1,111.4,154,109z"/>
<path fill="none" stroke="#000000" stroke-width="2" stroke-miterlimit="10" d="M205.6,112.8c0,0,3.6-6.7,5.3-4.3
	C212.6,110.9,210.6,113,205.6,112.8z"/>
<path fill="none" stroke="#000000" stroke-width="2" stroke-miterlimit="10" d="M206.1,112.7c0,0-6.3-4.2-6.6-1.3
	C199.1,114.3,201.9,115.1,206.1,112.7z"/>
</svg>
