<?xml version="1.0" encoding="utf-8"?>
<!-- Generator: Adobe Illustrator 21.0.0, SVG Export Plug-In . SVG Version: 6.00 Build 0)  -->
<!DOCTYPE svg PUBLIC "-//W3C//DTD SVG 1.0//EN" "http://www.w3.org/TR/2001/REC-SVG-20010904/DTD/svg10.dtd">
<svg version="1.0" id="Layer_1" xmlns="http://www.w3.org/2000/svg" xmlns:xlink="http://www.w3.org/1999/xlink" x="0px" y="0px"
	 width="360px" height="288px" viewBox="0 0 360 288" enable-background="new 0 0 360 288" xml:space="preserve">
<line fill="none" stroke="#000000" stroke-width="2" stroke-miterlimit="10" x1="179.9" y1="183.8" x2="179.9" y2="116"/>
<path fill="none" stroke="#000000" stroke-width="2" stroke-miterlimit="10" d="M180.1,116.1c0,0-8.9-17-12.9-10.5
	C163.2,112.1,174.3,118.2,180.1,116.1z"/>
<path fill="none" stroke="#000000" stroke-width="2" stroke-miterlimit="10" d="M179.2,116.1c0,0,8.9-17,12.9-10.5
	C196.1,112.1,185,118.2,179.2,116.1z"/>
<path fill="none" stroke="#000000" stroke-width="2" stroke-miterlimit="10" d="M179.8,152.7c0,0-13.9-17-20.2-10.5
	C153.2,148.8,170.7,154.8,179.8,152.7z"/>
<path fill="none" stroke="#000000" stroke-width="2" stroke-miterlimit="10" d="M180.2,152.7c0,0,13.9-17,20.2-10.5
	S189.3,154.8,180.2,152.7z"/>
</svg>
