<?xml version="1.0" encoding="utf-8"?>
<!-- Generator: Adobe Illustrator 19.2.1, SVG Export Plug-In . SVG Version: 6.00 Build 0)  -->
<svg version="1.0" id="Layer_1" xmlns="http://www.w3.org/2000/svg" xmlns:xlink="http://www.w3.org/1999/xlink" x="0px" y="0px"
	 width="360px" height="288px" viewBox="0 0 360 288" enable-background="new 0 0 360 288" xml:space="preserve">
<line fill="none" stroke="#000000" stroke-width="2" stroke-miterlimit="10" x1="27.8" y1="179.1" x2="340.2" y2="179.1"/>
<line fill="none" stroke="#000000" stroke-width="2" stroke-miterlimit="10" x1="269.2" y1="192.1" x2="274.8" y2="190.4"/>
<line fill="none" stroke="#000000" stroke-width="2" stroke-miterlimit="10" x1="272" y1="194.1" x2="278.2" y2="194.1"/>
<path fill="none" stroke="#000000" stroke-width="2" stroke-miterlimit="10" d="M208.2,191.3c0,0,6.2-1.6,6,0.9s-3,5-3,5"/>
<path fill="none" stroke="#000000" stroke-width="2" stroke-miterlimit="10" d="M177.8,190.4c0,0-4.2,0.2-4.8,3.8s4.8,3,4.8,3"/>
<line fill="none" stroke="#000000" stroke-width="2" stroke-miterlimit="10" x1="197" y1="200.9" x2="197" y2="206.1"/>
<line fill="none" stroke="#000000" stroke-width="2" stroke-miterlimit="10" x1="200.5" y1="199.4" x2="200.5" y2="206.1"/>
<line fill="none" stroke="#000000" stroke-width="2" stroke-miterlimit="10" x1="130.2" y1="192.1" x2="135.8" y2="192.1"/>
<line fill="none" stroke="#000000" stroke-width="2" stroke-miterlimit="10" x1="130.2" y1="195.9" x2="134.8" y2="197.2"/>
<line fill="none" stroke="#000000" stroke-width="2" stroke-miterlimit="10" x1="83.8" y1="200.9" x2="86.8" y2="195.9"/>
<line fill="none" stroke="#000000" stroke-width="2" stroke-miterlimit="10" x1="85.2" y1="203.8" x2="91.2" y2="199.4"/>
<path fill="none" stroke="#000000" stroke-width="2" stroke-miterlimit="10" d="M57,191.3c0,0-2.5-0.1-3,2.5s4,2.8,4,2.8"/>
<line fill="none" stroke="#000000" stroke-width="2" stroke-miterlimit="10" x1="82.2" y1="147.1" x2="82.2" y2="179.1"/>
<path fill="none" stroke="#000000" stroke-width="2" stroke-miterlimit="10" d="M82.2,147.5c0,0-6.9-10.1-10-6.2
	S77.8,148.8,82.2,147.5z"/>
<path fill="none" stroke="#000000" stroke-width="2" stroke-miterlimit="10" d="M81.6,147.5c0,0,6.9-10.1,10-6.2
	S86.1,148.8,81.6,147.5z"/>
<line fill="none" stroke="#000000" stroke-width="2" stroke-miterlimit="10" x1="151.1" y1="179.1" x2="151.1" y2="111.3"/>
<path fill="none" stroke="#000000" stroke-width="2" stroke-miterlimit="10" d="M151.3,111.4c0,0-8.9-17-12.9-10.5
	C134.4,107.4,145.5,113.5,151.3,111.4z"/>
<path fill="none" stroke="#000000" stroke-width="2" stroke-miterlimit="10" d="M150.4,111.4c0,0,8.9-17,12.9-10.5
	C167.3,107.4,156.2,113.5,150.4,111.4z"/>
<path fill="none" stroke="#000000" stroke-width="2" stroke-miterlimit="10" d="M151,148c0,0-13.9-17-20.2-10.5
	C124.4,144.1,141.9,150.1,151,148z"/>
<path fill="none" stroke="#000000" stroke-width="2" stroke-miterlimit="10" d="M151.4,148c0,0,13.9-17,20.2-10.5
	S160.5,150.1,151.4,148z"/>
<polyline fill="none" stroke="#000000" stroke-width="2" stroke-miterlimit="10" points="260,179.1 260,111.3 260,96 "/>
<path fill="none" stroke="#000000" stroke-width="2" stroke-miterlimit="10" d="M260.2,130.4c0,0-8.9-17-12.9-10.5
	C243.3,126.4,254.4,132.5,260.2,130.4z"/>
<path fill="none" stroke="#000000" stroke-width="2" stroke-miterlimit="10" d="M259.4,130.4c0,0,8.9-17,12.9-10.5
	C276.3,126.4,265.2,132.5,259.4,130.4z"/>
<path fill="none" stroke="#000000" stroke-width="2" stroke-miterlimit="10" d="M260,158c0,0-13.9-17-20.2-10.5
	C233.4,154.1,250.8,160.1,260,158z"/>
<path fill="none" stroke="#000000" stroke-width="2" stroke-miterlimit="10" d="M260.4,158c0,0,13.9-17,20.2-10.5
	S269.5,160.1,260.4,158z"/>
<path fill="none" stroke="#000000" stroke-width="2" stroke-miterlimit="10" d="M260.4,96.5c0,0-5.1-5.6-6.1-2.9
	S255.7,97.8,260.4,96.5z"/>
<path fill="none" stroke="#000000" stroke-width="2" stroke-miterlimit="10" d="M260,96.5c0,0,5.1-5.6,6.1-2.9S264.6,97.8,260,96.5z
	"/>
<path fill="none" stroke="#000000" stroke-width="2" stroke-miterlimit="10" d="M260,96c0,0-3.4-12.5-14.8-9.5S230.6,96,230.6,96"/>
<path fill="none" stroke="#000000" stroke-width="2" stroke-miterlimit="10" d="M260,94.9c0,0,8.3-13.3,15.7-4.9
	c4.1,4.7,5.6,8.8,6.1,11.5"/>
<path fill="none" stroke="#000000" stroke-width="2" stroke-miterlimit="10" d="M230.4,97.6c0,0-3.6-6.7-5.3-4.3
	C223.5,95.8,225.6,97.9,230.4,97.6z"/>
<path fill="none" stroke="#000000" stroke-width="2" stroke-miterlimit="10" d="M230.1,97.6c0,0,6.3-4.2,6.6-1.3
	C237,99.2,234.2,100,230.1,97.6z"/>
<path fill="none" stroke="#000000" stroke-width="2" stroke-miterlimit="10" d="M227.9,97.5c0,0-7-1-7,5.4s2.4,14.2,5,14
	s14.9-7.9,9.5-17.4"/>
<path fill="none" stroke="#000000" stroke-width="2" stroke-miterlimit="10" d="M281.8,101.4c0,0,3.6-6.7,5.3-4.3
	C288.7,99.5,286.7,101.6,281.8,101.4z"/>
<path fill="none" stroke="#000000" stroke-width="2" stroke-miterlimit="10" d="M282.2,101.3c0,0-6.3-4.2-6.6-1.3
	C275.2,102.9,278,103.7,282.2,101.3z"/>
<path fill="none" stroke="#000000" stroke-width="2" stroke-miterlimit="10" d="M284.4,101.2c0,0,7-1,7,5.4s-2.4,14.2-5,14
	s-14.9-7.9-9.5-17.4"/>
</svg>
