<?xml version="1.0" encoding="utf-8"?>
<!-- Generator: Adobe Illustrator 21.0.0, SVG Export Plug-In . SVG Version: 6.00 Build 0)  -->
<!DOCTYPE svg PUBLIC "-//W3C//DTD SVG 1.0//EN" "http://www.w3.org/TR/2001/REC-SVG-20010904/DTD/svg10.dtd">
<svg version="1.0" id="Layer_1" xmlns="http://www.w3.org/2000/svg" xmlns:xlink="http://www.w3.org/1999/xlink" x="0px" y="0px"
	 width="288px" height="288px" viewBox="0 0 288 288" enable-background="new 0 0 288 288" xml:space="preserve">
<polyline fill="none" stroke="#000000" stroke-width="2" stroke-miterlimit="10" points="78,201 99,173.2 96.8,155.2 99,133.8 
	104,97 122.5,73.5 127.8,73.5 137,82 139.8,106.5 144,101.8 149.5,101.2 153,107.2 149.8,144 144,164.9 125,182.5 113,212.8 "/>
<polyline fill="none" stroke="#000000" stroke-width="2" stroke-linejoin="bevel" stroke-miterlimit="10" points="130.7,76.2 
	134.5,73.5 141.8,73.5 146.5,98.2 150.2,91.5 156.5,91.2 159.5,100.2 158,139.2 150,166.2 162,215.8 "/>
<polyline fill="none" stroke="#000000" stroke-width="2" stroke-linejoin="bevel" stroke-miterlimit="10" points="130.7,177.8 
	130.7,188.8 126.5,215.8 "/>
<line fill="none" stroke="#000000" stroke-width="2" stroke-linejoin="bevel" stroke-miterlimit="10" x1="107.4" y1="92.7" x2="104" y2="127.8"/>
<line fill="none" stroke="#000000" stroke-width="2" stroke-linejoin="bevel" stroke-miterlimit="10" x1="111.5" y1="87.4" x2="111.5" y2="122.8"/>
<line fill="none" stroke="#000000" stroke-width="2" stroke-linejoin="bevel" stroke-miterlimit="10" x1="116.8" y1="80.7" x2="120.8" y2="117"/>
<line fill="none" stroke="#000000" stroke-width="2" stroke-linejoin="bevel" stroke-miterlimit="10" x1="122.8" y1="74.2" x2="130.2" y2="110.2"/>
<polyline fill="none" stroke="#000000" stroke-width="2" stroke-linejoin="bevel" stroke-miterlimit="10" points="139.8,106.5 
	138,127.8 135.5,134.2 "/>
<line fill="none" stroke="#000000" stroke-width="2" stroke-linejoin="bevel" stroke-miterlimit="10" x1="146.5" y1="98.2" x2="144" y2="101.8"/>
</svg>
