<?xml version="1.0" encoding="utf-8"?>
<!-- Generator: Adobe Illustrator 21.0.0, SVG Export Plug-In . SVG Version: 6.00 Build 0)  -->
<!DOCTYPE svg PUBLIC "-//W3C//DTD SVG 1.0//EN" "http://www.w3.org/TR/2001/REC-SVG-20010904/DTD/svg10.dtd">
<svg version="1.0" id="Layer_1" xmlns="http://www.w3.org/2000/svg" xmlns:xlink="http://www.w3.org/1999/xlink" x="0px" y="0px"
	 width="432px" height="360px" viewBox="0 0 432 360" enable-background="new 0 0 432 360" xml:space="preserve">
<g id="Layer_2">
	<path fill="#27AAE1" d="M188.2,200.9c0,0-19.1,25.5-6.6,41.1c0,0-9.7-6.3-9.1-16.6s5.6-17.8,5.6-17.8S182.9,201.3,188.2,200.9z"/>
	<g>
		<path fill="#27AAE1" d="M156.9,330.5l-12,0.4l-15.5-3.4l-13.1-6.8l3.2-2.6c0,0,7.9,5.7,12.1,6c4.2,0.2,10.6,0.5,10.6,0.5
			s-4.8-9.2-1.6-23.7s13.1-43.3,13.1-43.3l9.9-17.4l3.7,1.6c0,0-18.6,42.7-18.8,61.3C148.4,321.7,156.9,330.5,156.9,330.5z"/>
		<path fill="#27AAE1" d="M94.5,344.2l17.4-20.5c22.6,23.7,74.8,16.4,74.8,16.4l0.9,5.4l-4,0.7c0,0-27.6,0.9-28.4,1.4
			c-0.7,0.5-9.4-1.8-18.7-3.9c-9.4-2.1-21.4-10.6-21.4-10.6l-4.1,9l4.1-10v1.1l4.2,3.7c0,0-1.2,4.8-2.2,5.2
			c-0.9,0.3-5.7,1.1-6.4,1.3l-1.4,4.7L94.5,344.2z"/>
	</g>
</g>
<g id="Layer_1_1_">
	
		<ellipse transform="matrix(0.1834 -0.983 0.983 0.1834 -64.9782 364.0641)" fill="none" stroke="#000000" stroke-width="3" stroke-miterlimit="10" cx="186.6" cy="221.1" rx="21.2" ry="13.8"/>
	<path fill="none" stroke="#000000" stroke-width="3" stroke-miterlimit="10" d="M179.9,288.8c-2.6,13.5-5,25.8-5,25.8
		s-26.8,0.5-34.4-9.3c0,0,5.2-40.4,22.6-65.4c0,0,16.6,6.2,23.6,13.6c0,0-1.9,9.7-4.1,21.4"/>
	<path fill="none" stroke="#000000" stroke-width="3" stroke-miterlimit="10" d="M174.9,314.5l14,30.3c0,0-46.3,10.7-73.8-13.1
		l3.5-8.3c0,0,29.6,14.6,51.9,3"/>
	<path fill="none" stroke="#000000" stroke-width="3" stroke-miterlimit="10" d="M140.4,305.2c0,0-4.6,16.9,8.6,25.7"/>
	<polyline fill="none" stroke="#000000" stroke-width="3" stroke-miterlimit="10" points="118.5,323.4 113.6,320.2 95.7,345.1 
		109.8,348.5 116.2,333.7 	"/>
	<path fill="none" stroke="#000000" stroke-width="3" stroke-miterlimit="10" d="M117.1,321.1l3.3-3.1c0,0,9.6,7.7,23.2,7.5"/>
	<polyline fill="none" stroke="#000000" stroke-width="3" stroke-miterlimit="10" points="111.3,345.1 118.5,342.4 120.9,336.1 	"/>
	<polyline fill="none" stroke="#000000" stroke-width="3" stroke-miterlimit="10" points="176.1,238.6 173.2,244.4 180.4,248.4 
		182.8,242 	"/>
	<path fill="none" stroke="#000000" stroke-width="3" stroke-miterlimit="10" d="M175.6,253.4c0,0,5.2,19.9,9.2,24.7
		c0,0,11-3,19.3-14.8l4.5,2.4c0,0-6.1,26-33.1,23.9c0,0-11.4-13.6-12.1-28.2"/>
	<line fill="none" stroke="#000000" stroke-width="3" stroke-miterlimit="10" x1="184.9" y1="278.1" x2="175.6" y2="289.6"/>
	<path fill="none" stroke="#000000" stroke-width="3" stroke-miterlimit="10" d="M204.2,263.3l-0.9-9.9l2.4-1.4l3.5-10.6l3.7,1.2
		c0,0,1.6,7.8,1.2,11.9c-0.3,4.1-5.4,10.8-5.4,10.8"/>
	<path fill="none" stroke="#000000" stroke-width="3" stroke-miterlimit="10" d="M208.7,241.4h-3.2l-3.6,8.4h-2.4v11.7
		c0,0-6.7,10.2-15.4,9.5"/>
	<line fill="none" stroke="#000000" stroke-width="3" stroke-miterlimit="10" x1="200.3" y1="261.9" x2="203.3" y2="263.7"/>
	<path fill="none" stroke="#000000" stroke-width="3" stroke-miterlimit="10" d="M200.1,205.2c0,0-16.1-0.2-20.2-3.3"/>
	<path fill="none" stroke="#000000" stroke-width="3" stroke-miterlimit="10" d="M201.8,208.2c0,0-15.3,2.7-23.8-3"/>
	<path fill="none" stroke="#000000" stroke-width="3" stroke-miterlimit="10" d="M202.4,211.7c0,0-19.6,3-26.8-3.5"/>
	<polyline fill="none" stroke="#000000" stroke-width="3" stroke-miterlimit="10" points="243.5,234.9 256.2,229.6 259.5,243.5 	"/>
	<path fill="none" stroke="#000000" stroke-width="3" stroke-miterlimit="10" d="M256.2,229.6c0,0-12.5,25.7-34.3,32.3"/>
	<ellipse fill="none" stroke="#000000" stroke-width="3" stroke-miterlimit="10" cx="301.4" cy="168.7" rx="52.8" ry="54.2"/>
	<line fill="none" stroke="#000000" stroke-width="3" stroke-miterlimit="10" x1="287.2" y1="108.3" x2="275.4" y2="75"/>
	<line fill="none" stroke="#000000" stroke-width="3" stroke-miterlimit="10" x1="303.4" y1="105.8" x2="303.4" y2="50.5"/>
	<line fill="none" stroke="#000000" stroke-width="3" stroke-miterlimit="10" x1="320.7" y1="105.8" x2="328.4" y2="72.8"/>
	<line fill="none" stroke="#000000" stroke-width="3" stroke-miterlimit="10" x1="235.1" y1="180.9" x2="201.9" y2="192.6"/>
	<line fill="none" stroke="#000000" stroke-width="3" stroke-miterlimit="10" x1="232.6" y1="164.6" x2="177.4" y2="164.6"/>
	<line fill="none" stroke="#000000" stroke-width="3" stroke-miterlimit="10" x1="232.6" y1="147.4" x2="199.6" y2="139.6"/>
	<line fill="none" stroke="#000000" stroke-width="3" stroke-miterlimit="10" x1="318.3" y1="233" x2="330" y2="266.2"/>
	<line fill="none" stroke="#000000" stroke-width="3" stroke-miterlimit="10" x1="302" y1="235.5" x2="302" y2="290.7"/>
	<line fill="none" stroke="#000000" stroke-width="3" stroke-miterlimit="10" x1="284.8" y1="235.5" x2="277" y2="268.5"/>
	<line fill="none" stroke="#000000" stroke-width="3" stroke-miterlimit="10" x1="364.6" y1="180.9" x2="397.8" y2="192.6"/>
	<line fill="none" stroke="#000000" stroke-width="3" stroke-miterlimit="10" x1="367.1" y1="164.6" x2="422.3" y2="164.6"/>
	<line fill="none" stroke="#000000" stroke-width="3" stroke-miterlimit="10" x1="367.1" y1="147.4" x2="400.1" y2="139.6"/>
	<polyline fill="none" stroke="#000000" stroke-width="3" stroke-miterlimit="10" points="219.8,70 210.9,59.4 223.3,52.2 	"/>
	<path fill="none" stroke="#000000" stroke-width="3" stroke-miterlimit="10" d="M210.9,59.4c0,0,28.3,4.4,40.9,23.3"/>
	<path fill="none" stroke="#000000" stroke-width="3" stroke-miterlimit="10" d="M187.2,10.3c0,0-45.2,7.3-42.1,44.4
		s38.6,47.7,66.1,34.2C211.1,88.9,139.2,68.3,187.2,10.3z"/>
	<polyline fill="none" stroke="#000000" stroke-width="3" stroke-miterlimit="10" points="91.7,85.2 78.4,89 76.8,74.8 	"/>
	<path fill="none" stroke="#000000" stroke-width="3" stroke-miterlimit="10" d="M78.4,89c0,0,15.4-24.1,37.9-28"/>
	<ellipse fill="none" stroke="#000000" stroke-width="3" stroke-miterlimit="10" cx="64.4" cy="164.6" rx="52.8" ry="54.2"/>
	<path fill="none" stroke="#000000" stroke-width="3" stroke-miterlimit="10" d="M26.8,127.4l2.8-0.8c0,0,1.5,0.6,2.2,0.8
		c0.8,0.1,3.6,0.1,4.1-0.4s1.6-1.4,2.2-1.4s2-0.2,2.8,0s2.6-0.3,3.6-0.1c1,0.2,4.9,0.5,5.9-0.1s4-2,4-2h2.2c0,0,3.1,1.6,3.8,2
		s1.9,2.4,1.6,3c-0.2,0.6-1,3.2-1,3.2l-0.1,4.1l1.2,0.8l4-1.4l3.9-2.2l3.1-1.9l4.4-0.4l0.9,0.9v2.1l-2.2,2.9l0.6,2l2.9,2.9l0.9,2
		l1.6,2.6v1.9h-1.9h-2.6h-3.1h-2c0,0-0.6,2.6-0.8,3.1s-0.2,3.4-0.2,3.4s-0.8,2-1.8,2.2s-2.9,0-2.9,0l-3.3,0.9c0,0-1.4,1.6-1.4,2.2
		s0.5,1.4,1,2.5s1.9,2.9,1.2,3.4c-0.7,0.5-1.6,1.8-2.9,1.5s-3.1-0.1-4.6-1.4s-4-2.8-4-2.8s-1.5-1.1-3.6-1s-2-0.2-2.9,0.5
		s-0.9,2-0.9,2l0.8,3.5c0,0,1.4,3.1,1.8,3.8s2.9,4.6,4.5,4.9c1.6,0.2,3.5-1.1,3.9,0s4.4,4.5,4.8,4.5s2.8-0.5,2.8-1.1
		s-0.6-1.6-0.1-3.1s0.7-3.2,1.6-3.8c0.9-0.5,0.1-0.6,1.9-1.1s3.8-1.1,3.8-1.1s1.6-0.2,2.8-0.2s2.6,0.2,2.6,0.6s0.4,1.1,0.4,2.2
		s1.2,3.6,1.5,4s2.6,2.5,3.1,2.5s3.8,1.1,3.8,1.1l3.6,1l1.2,2.1v3.9l-0.9,2l-1.4,3.5l-1.5,3.4c0,0,0.1,2.5-0.1,3.6s1.4,0.4-0.5,2.5
		s-3.1,3.4-3.5,4.1s-2.6,3.5-2.6,3.5l-2.5,1.2l-4,0.8l-2.6-0.6l-2.5-2.6c0,0-2.1-2.1-1.9-4s0.4-2.2,0.5-3s0.2-1.9,0.1-4
		s-0.4-3.6-0.4-3.6l-0.5-1.8l-2.9-1.4l-0.8-0.4l-3-2.1l-0.1-1.9l-0.6-2l-0.9-2.1l-3.4-2.5l-4-1.6l-4.2-0.4l-6.1-1.4
		c0,0,0.4,1.5-1.5-1s-2.6-3.6-2.6-3.6s-0.9-4.5-0.9-5.2s-0.8-3-0.8-3h-1.9c0,0-2.1-0.2-2.3-0.5s-0.9-2.2-0.9-2.2l-2.1-4.4v-2.1
		c0,0-3.2,0-3.2,0.4s1.6,2.6,0,3s-2.5,1.9-3.1,1.1s-2.8-3.9-2.8-3.9s-1.7-3-1.7-3.6s1-8.1,1.4-8.2s4-1.9,4-1.9s1.8-2.2,1.2-2.5
		s-3-3.7-3-3.7"/>
	<path fill="none" stroke="#000000" stroke-width="3" stroke-miterlimit="10" d="M117.1,153.1c0,0-4.8,1.4-5.2,1.8s-2.1,3.6-2.1,3.6
		l-3.4,4.6c0,0-2.1,2.1-2.1,2.9s0,4.4,0,4.4v4.4l1.6,3.4c0,0,1.5,1.1,1.9,2s0.6,3.1,0.6,3.1s-0.1,2.5,0,2.9s3,3.1,3,3.1"/>
	<path fill="none" stroke="#000000" stroke-width="3" stroke-miterlimit="10" d="M91.2,118.6c0,0,1,6.5,1,7s-0.2,3.9,0.8,5
		s3.1,1.8,3.6,1.8s1.1,0.1,2.1,0s1.5,0.2,2.2,0.1c0.8-0.2,2.8-0.4,3.4-0.4s2.2,0,2.2,0"/>
	<polyline fill="none" stroke="#000000" stroke-width="3" stroke-miterlimit="10" points="122.4,240.1 132.1,249.8 120.5,258.2 	"/>
	<path fill="none" stroke="#000000" stroke-width="3" stroke-miterlimit="10" d="M132.1,249.8c0,0-28.5-1.8-42.9-19.6"/>
</g>
<g id="Layer_3">
	
		<path opacity="3.000000e-02" fill="none" stroke="#27AAE1" stroke-width="18" stroke-miterlimit="10" enable-background="new    " d="
		M170.3,199.7c9.3,1.6,18.6,3.1,27.8,4.7c-14.4,0.2-28.7,2.4-42.4,6.5c12.8,1.9,25.8,2.7,38.8,2.2c-12.7,0.7-25.4,1.5-38.1,2.2
		c11.6,0.8,23.3,1.7,34.9,2.5c-13.1,3.2-26.5,5.6-39.9,7.3c16.2-0.6,32.5-0.2,48.7,1.1c-18.4,4-36.8,8.1-55.2,12.1
		c16.4-0.7,32.8-0.1,49.1,1.8c-19.4,1.5-38.8,3-58.2,4.5c20.4,1.2,40.9,2.3,61.3,3.5c-21.6,3-43.3,6-64.9,9
		c21.6,0.7,43.1,1.3,64.7,2c-20.5,1.5-41,3-61.5,4.5c-3,0.2-6.4,0.7-8,3.2c15.7,0.7,31.4,1.3,47.1,2c-14.4,0.4-28.7,2.4-42.7,5.9
		c15.7,1.7,31.4,4,46.9,6.9c-21.3,0.7-42.5,3.3-63.3,7.7c20.3,2.7,40.7,4.7,61.2,6.1c-16.8,1.1-33.7,2.3-50.5,3.4
		c-5.7,0.4-11.6,0.8-16.4,3.9c17,3.5,34.3,5.8,51.6,6.7c-19.5,0.4-39,2-58.3,4.7c29.4,0.6,58.8,1.2,88.1,1.8
		c-29.1,1.3-58.2,4.2-87,8.6c30.3-0.1,60.6-0.2,90.9-0.2c-37.5,4.7-75,9.4-112.5,14.1c41.8-0.5,83.6-1,125.4-1.5
		c-23.3,3.7-46.9,5.5-70.5,5.5c-11.4,0-23.2-0.4-33.7,4.2c31.2,1.2,62.5-1.5,93-8.1"/>
</g>
</svg>
