<?xml version="1.0" encoding="utf-8"?>
<!-- Generator: Adobe Illustrator 21.0.0, SVG Export Plug-In . SVG Version: 6.00 Build 0)  -->
<!DOCTYPE svg PUBLIC "-//W3C//DTD SVG 1.0//EN" "http://www.w3.org/TR/2001/REC-SVG-20010904/DTD/svg10.dtd">
<svg version="1.0" id="Layer_1" xmlns="http://www.w3.org/2000/svg" xmlns:xlink="http://www.w3.org/1999/xlink" x="0px" y="0px"
	 width="432px" height="360px" viewBox="0 0 432 360" enable-background="new 0 0 432 360" xml:space="preserve">
<g id="Layer_1_1_">
	<polyline fill="none" stroke="#000000" stroke-width="3" stroke-miterlimit="10" points="135.6,308 154.2,283.5 152.2,267.6 
		154.2,248.6 158.6,216.1 174.9,195.3 179.6,195.3 187.8,202.9 190.2,224.5 194,220.3 198.8,219.9 201.9,225.2 199,257.6 194,276.1 
		177.2,291.7 166.6,318.4 	"/>
	<polyline fill="none" stroke="#000000" stroke-width="3" stroke-linejoin="bevel" stroke-miterlimit="10" points="182.2,197.7 
		185.6,195.3 192,195.3 196.2,217.2 199.5,211.3 205,211 207.6,219 206.3,253.4 199.3,277.3 209.9,321.1 	"/>
	<polyline fill="none" stroke="#000000" stroke-width="3" stroke-linejoin="bevel" stroke-miterlimit="10" points="182.2,287.5 
		182.2,297.2 178.4,321.1 	"/>
	
		<line fill="none" stroke="#000000" stroke-width="3" stroke-linejoin="bevel" stroke-miterlimit="10" x1="161.6" y1="212.3" x2="158.6" y2="243.3"/>
	
		<line fill="none" stroke="#000000" stroke-width="3" stroke-linejoin="bevel" stroke-miterlimit="10" x1="165.3" y1="207.7" x2="165.3" y2="238.9"/>
	
		<line fill="none" stroke="#000000" stroke-width="3" stroke-linejoin="bevel" stroke-miterlimit="10" x1="170" y1="201.7" x2="173.4" y2="233.8"/>
	
		<line fill="none" stroke="#000000" stroke-width="3" stroke-linejoin="bevel" stroke-miterlimit="10" x1="175.2" y1="196" x2="181.7" y2="227.8"/>
	<polyline fill="none" stroke="#000000" stroke-width="3" stroke-linejoin="bevel" stroke-miterlimit="10" points="190.2,224.5 
		188.6,243.3 186.4,249 	"/>
	
		<line fill="none" stroke="#000000" stroke-width="3" stroke-linejoin="bevel" stroke-miterlimit="10" x1="196.2" y1="217.2" x2="194" y2="220.3"/>
	<path fill="none" stroke="#27AAE1" stroke-width="4" stroke-miterlimit="10" d="M256.2,229.6c0,0-12.5,25.7-34.3,32.3"/>
	<polyline fill="none" stroke="#27AAE1" stroke-width="4" stroke-miterlimit="10" points="243.5,234.9 256.2,229.6 259.5,243.5 	"/>
	<ellipse fill="none" stroke="#000000" stroke-width="3" stroke-miterlimit="10" cx="301.4" cy="168.7" rx="52.8" ry="54.2"/>
	<line fill="none" stroke="#000000" stroke-width="3" stroke-miterlimit="10" x1="287.2" y1="108.3" x2="275.4" y2="75"/>
	<line fill="none" stroke="#000000" stroke-width="3" stroke-miterlimit="10" x1="303.4" y1="105.8" x2="303.4" y2="50.5"/>
	<line fill="none" stroke="#000000" stroke-width="3" stroke-miterlimit="10" x1="320.7" y1="105.8" x2="328.4" y2="72.8"/>
	<line fill="none" stroke="#000000" stroke-width="3" stroke-miterlimit="10" x1="242.6" y1="180.9" x2="209.4" y2="192.6"/>
	<line fill="none" stroke="#000000" stroke-width="3" stroke-miterlimit="10" x1="240.1" y1="164.6" x2="184.9" y2="164.6"/>
	<line fill="none" stroke="#000000" stroke-width="3" stroke-miterlimit="10" x1="240.1" y1="147.4" x2="207.1" y2="139.6"/>
	<line fill="none" stroke="#000000" stroke-width="3" stroke-miterlimit="10" x1="358.6" y1="180.9" x2="391.8" y2="192.6"/>
	<line fill="none" stroke="#000000" stroke-width="3" stroke-miterlimit="10" x1="361.1" y1="164.6" x2="416.3" y2="164.6"/>
	<line fill="none" stroke="#000000" stroke-width="3" stroke-miterlimit="10" x1="361.1" y1="147.4" x2="394.1" y2="139.6"/>
	<polyline fill="none" stroke="#27AAE1" stroke-width="4" stroke-miterlimit="10" points="219.8,70 210.9,59.4 223.3,52.2 	"/>
	<path fill="none" stroke="#27AAE1" stroke-width="4" stroke-miterlimit="10" d="M210.9,59.4c0,0,28.3,4.4,40.9,23.3"/>
	<path fill="none" stroke="#000000" stroke-width="3" stroke-miterlimit="10" d="M187.2,10.3c0,0-45.2,7.3-42.1,44.4
		s38.6,47.7,66.1,34.2C211.1,88.9,139.2,68.3,187.2,10.3z"/>
	<polyline fill="none" stroke="#27AAE1" stroke-width="4" stroke-miterlimit="10" points="91.7,85.2 78.4,89 76.8,74.8 	"/>
	<path fill="none" stroke="#27AAE1" stroke-width="4" stroke-miterlimit="10" d="M78.4,89c0,0,15.4-24.1,37.9-28"/>
	<ellipse fill="none" stroke="#000000" stroke-width="3" stroke-miterlimit="10" cx="64.4" cy="164.6" rx="52.8" ry="54.2"/>
	<path fill="none" stroke="#000000" stroke-width="3" stroke-miterlimit="10" d="M26.8,127.4l2.8-0.8c0,0,1.5,0.6,2.2,0.8
		c0.8,0.1,3.6,0.1,4.1-0.4s1.6-1.4,2.2-1.4s2-0.2,2.8,0s2.6-0.3,3.6-0.1c1,0.2,4.9,0.5,5.9-0.1s4-2,4-2h2.2c0,0,3.1,1.6,3.8,2
		s1.9,2.4,1.6,3c-0.2,0.6-1,3.2-1,3.2l-0.1,4.1l1.2,0.8l4-1.4l3.9-2.2l3.1-1.9l4.4-0.4l0.9,0.9v2.1l-2.2,2.9l0.6,2l2.9,2.9l0.9,2
		l1.6,2.6v1.9h-1.9h-2.6h-3.1h-2c0,0-0.6,2.6-0.8,3.1s-0.2,3.4-0.2,3.4s-0.8,2-1.8,2.2s-2.9,0-2.9,0l-3.3,0.9c0,0-1.4,1.6-1.4,2.2
		s0.5,1.4,1,2.5s1.9,2.9,1.2,3.4c-0.7,0.5-1.6,1.8-2.9,1.5s-3.1-0.1-4.6-1.4s-4-2.8-4-2.8s-1.5-1.1-3.6-1s-2-0.2-2.9,0.5
		s-0.9,2-0.9,2l0.8,3.5c0,0,1.4,3.1,1.8,3.8s2.9,4.6,4.5,4.9c1.6,0.2,3.5-1.1,3.9,0s4.4,4.5,4.8,4.5s2.8-0.5,2.8-1.1
		s-0.6-1.6-0.1-3.1s0.7-3.2,1.6-3.8c0.9-0.5,0.1-0.6,1.9-1.1s3.8-1.1,3.8-1.1s1.6-0.2,2.8-0.2s2.6,0.2,2.6,0.6s0.4,1.1,0.4,2.2
		s1.2,3.6,1.5,4s2.6,2.5,3.1,2.5s3.8,1.1,3.8,1.1l3.6,1l1.2,2.1v3.9l-0.9,2l-1.4,3.5l-1.5,3.4c0,0,0.1,2.5-0.1,3.6s1.4,0.4-0.5,2.5
		s-3.1,3.4-3.5,4.1s-2.6,3.5-2.6,3.5l-2.5,1.2l-4,0.8l-2.6-0.6l-2.5-2.6c0,0-2.1-2.1-1.9-4s0.4-2.2,0.5-3s0.2-1.9,0.1-4
		s-0.4-3.6-0.4-3.6l-0.5-1.8l-2.9-1.4l-0.8-0.4l-3-2.1l-0.1-1.9l-0.6-2l-0.9-2.1l-3.4-2.5l-4-1.6l-4.2-0.4l-6.1-1.4
		c0,0,0.4,1.5-1.5-1s-2.6-3.6-2.6-3.6s-0.9-4.5-0.9-5.2s-0.8-3-0.8-3h-1.9c0,0-2.1-0.2-2.3-0.5s-0.9-2.2-0.9-2.2l-2.1-4.4v-2.1
		c0,0-3.2,0-3.2,0.4s1.6,2.6,0,3s-2.5,1.9-3.1,1.1s-2.8-3.9-2.8-3.9s-1.7-3-1.7-3.6s1-8.1,1.4-8.2s4-1.9,4-1.9s1.8-2.2,1.2-2.5
		s-3-3.7-3-3.7"/>
	<path fill="none" stroke="#000000" stroke-width="3" stroke-miterlimit="10" d="M117.1,153.1c0,0-4.8,1.4-5.2,1.8s-2.1,3.6-2.1,3.6
		l-3.4,4.6c0,0-2.1,2.1-2.1,2.9s0,4.4,0,4.4v4.4l1.6,3.4c0,0,1.5,1.1,1.9,2s0.6,3.1,0.6,3.1s-0.1,2.5,0,2.9s3,3.1,3,3.1"/>
	<path fill="none" stroke="#000000" stroke-width="3" stroke-miterlimit="10" d="M91.2,118.6c0,0,1,6.5,1,7s-0.2,3.9,0.8,5
		s3.1,1.8,3.6,1.8s1.1,0.1,2.1,0s1.5,0.2,2.2,0.1c0.8-0.2,2.8-0.4,3.4-0.4s2.2,0,2.2,0"/>
	<polyline fill="none" stroke="#27AAE1" stroke-width="4" stroke-miterlimit="10" points="122.4,240.1 132.1,249.8 120.5,258.2 	"/>
	<path fill="none" stroke="#27AAE1" stroke-width="4" stroke-miterlimit="10" d="M132.1,249.8c0,0-28.5-1.8-42.9-19.6"/>
</g>
</svg>
