<?xml version="1.0" encoding="utf-8"?>
<!-- Generator: Adobe Illustrator 21.0.0, SVG Export Plug-In . SVG Version: 6.00 Build 0)  -->
<!DOCTYPE svg PUBLIC "-//W3C//DTD SVG 1.0//EN" "http://www.w3.org/TR/2001/REC-SVG-20010904/DTD/svg10.dtd">
<svg version="1.0" id="Layer_1" xmlns="http://www.w3.org/2000/svg" xmlns:xlink="http://www.w3.org/1999/xlink" x="0px" y="0px"
	 width="432px" height="432px" viewBox="0 0 432 432" enable-background="new 0 0 432 432" xml:space="preserve">
<path fill="none" stroke="#000000" stroke-width="4" stroke-miterlimit="10" d="M55.5,184c0,0,24.5,18.5,65.5-9
	c0,0,32.5,26.1,63.5-14.4s4-64.1,4-64.1"/>
<path fill="none" stroke="#000000" stroke-width="4" stroke-miterlimit="10" d="M198,134.1c0,0,30.6,30.2,56.3-17.8
	c0,0,26.3,6,30-14c3.7-20-12.1-26.7-12.1-26.7"/>
<path fill="none" stroke="#000000" stroke-width="4" stroke-miterlimit="10" d="M64.3,132.3c0,0,27.3-50.7,74.7-1.7"/>
<path fill="none" stroke="#000000" stroke-width="4" stroke-miterlimit="10" d="M123.7,117.6c0,0,9-20,23.6-18.6
	c14.7,1.3,22.3,14,22.3,14"/>
<path fill="none" stroke="#000000" stroke-width="4" stroke-miterlimit="10" d="M201,75.6c0,0,1.3-12.3,11.7-11.9
	c10.3,0.3,18,6.8,18.3,11.9"/>
<path fill="none" stroke="#000000" stroke-width="4" stroke-miterlimit="10" d="M221.6,65.6c0,0,3.6-16.4,19.9-14.1s16,14.1,16,14.1
	"/>
<path fill="none" stroke="#000000" stroke-width="4" stroke-miterlimit="10" d="M186.7,157.5L248.2,258c0,0-7.8,15.5-6,27
	s42.3,75.5,64.3,89.5c0,0,8.6,4.6,14-1.2c0,0,7.5,9.9,17.7,3.4c0,0,3,4,9.5,1.4s3.8-14.6,3.8-14.6s3.8,1.2,7.5-1s17-15.2-19.2-66.8"
	/>
<path fill="none" stroke="#000000" stroke-width="4" stroke-miterlimit="10" d="M243.2,132.3l49.8,99.4c0,0,25-8.5,38.8,5.8
	S357,278,364.5,283c0,0,6.3,10.8-5.5,15.2s-24.2,0.8-38.2-27.5"/>
<path fill="none" stroke="#000000" stroke-width="4" stroke-miterlimit="10" d="M275.6,325.2c0,0,36.9,5.5,58.6-29.2"/>
<line fill="none" stroke="#000000" stroke-width="4" stroke-miterlimit="10" x1="320.5" y1="373.2" x2="292.5" y2="324.6"/>
<line fill="none" stroke="#000000" stroke-width="4" stroke-miterlimit="10" x1="325" y1="307.7" x2="351.5" y2="363.5"/>
<path fill="none" stroke="#000000" stroke-width="4" stroke-miterlimit="10" d="M338.2,376.7c0,0-21-50.3-28.9-57.6"/>
</svg>
