<?xml version="1.0" encoding="utf-8"?>
<!-- Generator: Adobe Illustrator 21.0.0, SVG Export Plug-In . SVG Version: 6.00 Build 0)  -->
<!DOCTYPE svg PUBLIC "-//W3C//DTD SVG 1.0//EN" "http://www.w3.org/TR/2001/REC-SVG-20010904/DTD/svg10.dtd">
<svg version="1.0" id="Layer_1" xmlns="http://www.w3.org/2000/svg" xmlns:xlink="http://www.w3.org/1999/xlink" x="0px" y="0px"
	 width="432px" height="432px" viewBox="0 0 432 432" enable-background="new 0 0 432 432" xml:space="preserve">
<path fill="none" stroke="#000000" stroke-width="4" stroke-miterlimit="10" d="M245.1,242.5c-9.4-10.8-50.8-58.5-50.8-58.5l9-54.3
	L183,91l-30-11.3c0,0-7.7,9.6,1.3,13.9s21,11,21,11l4.8,25L158.3,103l-38-9.3c0,0-3.3,11.2,6,14c9.3,2.7,25.7,9,25.7,9l3.8,21.6
	L135,122.7L96.7,123c0,0,1,12.3,11.7,12.5S136,139,136,139l10,18c0,0-26.7,1.3-28.3,3c-1.7,1.7-4.7,22.3,0.7,24.7
	c0,0,6.5-4.8,9.5-15.2c0,0,25.5,3.8,25.5,4.8s0.7,28.3,2,28.3s47.3,72.7,47.3,72.7"/>
<path fill="none" stroke="#000000" stroke-width="4" stroke-miterlimit="10" d="M250.3,342c0,0-24-16.3-25.3-17.7
	c-1.3-1.3,1.7-22.3,1.3-23.7c-0.3-1.3-15-7.3-15-7.3l16.3-4.3l19.3,22.3l9-24c0,0-12-15.7-14.7-17.3c-2.7-1.7-22.3-18.3-22.3-18.3
	l6-21l4.7,10.3c0,0,12,7.7,13,7.7s4.3-12.3,4.3-12.3s-8.3-19.3-8.3-20.7c0-1.3-2-11,0-15s19-14.3,19-14.3L256,223l15.7,10.7
	l10.7-41.7c0,0-10.3-20.7-12.3-23.3c-2-2.7-12.3-13.3-12.3-17.7s14.3-28.6,14.3-28.6s2.3,22.5,2.7,22.9c0.3,0.4,22.7,10.1,23.7,10.8
	s7,51,8,51.3s47.3,27.7,47.3,27.7l-17,103.7"/>
<path fill="none" stroke="#000000" stroke-width="4" stroke-miterlimit="10" d="M196.7,305.7c0,0,1.7-22,1.7-23.3s-20-19.3-20-19.3
	l2.7,16.7l-4.7,26c0,0-26.7,4-26.7,2S143,270,143,270l7-42l-14-22.7l-5.3,23L115.3,270l18,45.3l-24.7-9.7L82,310l22,7.7l5,35.7"/>
</svg>
