<?xml version="1.0" encoding="utf-8"?>
<!-- Generator: Adobe Illustrator 19.2.1, SVG Export Plug-In . SVG Version: 6.00 Build 0)  -->
<svg version="1.0" xmlns="http://www.w3.org/2000/svg" xmlns:xlink="http://www.w3.org/1999/xlink" x="0px" y="0px" width="432px"
	 height="432px" viewBox="0 0 432 432" enable-background="new 0 0 432 432" xml:space="preserve">
<g id="Layer_2">
	<path fill="#27AAE1" d="M263,148.7c0,0-26.4,53.7-52.9,72.1l-4,35.3c0,0,69.4-49.3,65.5-83.1c-0.3-2.2-1.4-23.5-1.4-23.5l-7.7-2.6"
		/>
</g>
<g id="Layer_1">
	<path fill="none" stroke="#000000" stroke-width="2" stroke-miterlimit="10" d="M256.5,135.4l-21.1,0.9
		c-6.6,0.3-12.2-4.9-12.5-11.5l-1.8-40.1c-0.3-6.6,4.9-12.2,11.5-12.5l21.1-0.9c6.6-0.3,12.2,4.9,12.5,11.5l1.8,40.1
		C268.3,129.5,263.1,135.1,256.5,135.4z"/>
	<path fill="none" stroke="#000000" stroke-width="2" stroke-miterlimit="10" d="M222.2,108.2c0,0,10.4,1.7,16.6-0.9
		c6.2-2.5,15.3-2.3,16.6,0.1c1.3,2.4,11.9,1.9,11.9,1.9"/>
	<path fill="none" stroke="#000000" stroke-width="2" stroke-miterlimit="10" d="M221.8,99.4c0,0-7-0.1-7,6.1c0,6.2,7.3,8.7,7.3,8.7
		"/>
	<path fill="none" stroke="#000000" stroke-width="2" stroke-miterlimit="10" d="M253.1,146.9c10.1-1.4,20.4-4.4,29.8-10.2
		c0,0-9.3-19.4-9.3-39.1c0.1-19.7-4-43.1-29-40.8c0,0-39.8-5.5-45.3,49.4c0,0-3.5,31.5-5.4,33.5c0,0,12.2,6.7,28,9"/>
	<polyline fill="none" stroke="#000000" stroke-width="2" stroke-miterlimit="10" points="234.6,136.3 234.6,146.9 253.1,146.9 
		253.1,135.1 	"/>
	<path fill="none" stroke="#000000" stroke-width="2" stroke-miterlimit="10" d="M216.7,149.5c0,0,36.3-6.6,53.6,0
		c0,0,8.1,140.8,14.2,181.6c0,0-47.4,17.7-85.7,0L216.7,149.5z"/>
	<path fill="none" stroke="#000000" stroke-width="2" stroke-miterlimit="10" d="M216.6,149.9c-9.5,3.5-20.3,7.5-20.3,7.5L155.6,216
		c0,0,20.4,21.5,35.7,23.1l15.3-55.3c0,0,2.8-1.5,6.6-3.6"/>
	<path fill="none" stroke="#000000" stroke-width="2" stroke-miterlimit="10" d="M165,225.6c-0.5,1.4-9.4,20.2-9.4,20.2l4.7,18
		l13.3-19.1l2.7,7.8l6.4-3.8l-2.7-13.6"/>
	<path fill="none" stroke="#000000" stroke-width="2" stroke-miterlimit="10" d="M321.8,207.5c8.5,1.2,24,3.5,24,3.5l-3.7,7.1
		l-13.1,1.4l9,6.1l-4.6,5.3l-13.2-6.9"/>
	<path fill="none" stroke="#000000" stroke-width="2" stroke-miterlimit="10" d="M271.3,165.5c11.5,11.4,33.8,32.3,49.7,36l-1,45.6
		c0,0-28-12.7-46.1-40.2"/>
	<path fill="none" stroke="#000000" stroke-width="2" stroke-miterlimit="10" d="M259,147c0,0-23.1,41.4-49.1,68.6"/>
	<path fill="none" stroke="#000000" stroke-width="2" stroke-miterlimit="10" d="M271.7,173c0.1,1.4-30.6,57.3-65.3,79.4"/>
	<path fill="none" stroke="#000000" stroke-width="2" stroke-miterlimit="10" d="M213.9,337.3c-2.7,7.4-9.3,25.5-9.3,25.5h7.6
		c0,0,13.2-12,21.2-24.3"/>
	<polyline fill="none" stroke="#000000" stroke-width="2" stroke-miterlimit="10" points="251.3,339 270,364.4 279.1,364.4 
		272.7,334.3 	"/>
	<path fill="none" stroke="#000000" stroke-width="2" stroke-miterlimit="10" d="M205,363.4c3.6,0,37.6,6.3,37.6,6.3l-18.8,10.6
		L205,363.4z"/>
	<polygon fill="none" stroke="#000000" stroke-width="2" stroke-miterlimit="10" points="269,364.4 307.1,364.4 296.6,375.5 
		269,369.2 	"/>
</g>
<g id="Layer_3">
	<path opacity="0" fill="none" stroke="#36449B" stroke-width="15" stroke-miterlimit="10" d="M258.5,147.9c5,0.4,10.1,0.8,15.1,1.2
		c-5.6,0.4-11.2,0.8-16.8,1.3c6.2,2.4,12.6,4.1,19.2,5.1c-7.9-0.5-15.7-1-23.6-1.6c7.5,2.9,15.3,5.2,23.2,7c-9.7-1.5-19.3-3-29-4.5
		c9.8,3.2,19.1,7.9,27.5,13.8c-8.4-2-16.9-4-25.3-6c9.2,2.9,17.8,7.7,25.1,14c-8.2-4.5-17.3-7.5-26.5-8.7
		c9.1,4.9,18.3,9.8,27.4,14.7c-11.4-3.1-22.6-7.1-33.4-11.8c9.2,7.5,19,14.2,29.4,19.9c-9.2-5.8-19.8-9.5-30.6-10.8
		c6.9,5.6,18.3,12.4,25.6,17.5c-9.7-7-24.7-14-36.1-17.9c-0.7,2.5,1.7,4.6,3.8,6.1c9.4,6.3,18.9,12.7,28.3,19
		c-9.2-6.5-19.8-11-30.8-13.1c5.5,9,13.3,16.5,22.5,21.7c-10.4-6.2-21.7-11-33.3-14.3c7.5,10.7,22.5,12.9,32.5,21.3
		c-11.8-3.6-23.6-7.3-35.4-10.9c3.6,7.2,9.5,13.2,16.7,16.9c-6.5-7.3-15.1-12.8-24.5-15.7c7.2,9,15.5,17,24.8,23.7
		c-10.7-4.9-21.8-9-33.2-12.1c6.8,7.1,14.7,13.3,23.3,18.1c-8-6.3-16.9-11.5-26.2-15.5c5.7,9.2,13,17.4,21.5,24.1
		c-9.7-4.8-19.1-10.1-28.2-16c7.2,7.9,15.4,14.8,24.3,20.5c-3.6,0.5-7-1.2-10.2-2.9c-5.5-2.8-11-5.7-16.6-8.5
		c-0.7-0.3-1.5-1-1.2-1.7c0.2-0.7,1.6,0.3,0.8,0.4"/>
</g>
</svg>
