<?xml version="1.0" encoding="utf-8"?>
<!-- Generator: Adobe Illustrator 19.2.1, SVG Export Plug-In . SVG Version: 6.00 Build 0)  -->
<svg version="1.0" xmlns="http://www.w3.org/2000/svg" xmlns:xlink="http://www.w3.org/1999/xlink" x="0px" y="0px" width="432px"
	 height="432px" viewBox="0 0 432 432" enable-background="new 0 0 432 432" xml:space="preserve">
<g id="Layer_2">
	<polyline fill="#27AAE1" points="224.2,146.9 197.7,195.4 195.6,209.9 230.6,155.8 230,147.6 223.3,146.9 	"/>
	<path fill="#27AAE1" d="M120.2,108.6c0,0,17.7,19.3,4,35.2c0,0,9.7-3.6,8.7-17.6C131.8,112.3,120.2,108.6,120.2,108.6z"/>
	<polygon fill="#27AAE1" points="132.9,146.7 138.4,201.2 124.5,208 144.1,205.1 139.2,145.9 	"/>
	<polygon fill="#27AAE1" points="138.4,206.2 153.5,303.2 164.3,311.2 170.3,307.6 155.8,302.8 144.1,205.1 	"/>
	<polygon fill="#27AAE1" points="126.6,207.7 138.4,305.7 128.8,316 136.8,319 141,305.3 132.6,207.4 	"/>
	<polygon fill="#27AAE1" points="139.8,155 156,170.3 165.2,204.8 163.6,206 152.5,172.7 141,162.8 	"/>
</g>
<g id="Layer_1">
	<path fill="none" stroke="#000000" stroke-width="2" stroke-miterlimit="10" d="M216.6,141.2l-4.3,0.1c-6.6,0.1-12.1-5.2-12.2-11.8
		l-0.2-16.7c-0.1-6.6,5.2-12.1,11.8-12.2l4.3-0.1c6.6-0.1,12.1,5.2,12.2,11.8l0.2,16.7C228.6,135.6,223.2,141.1,216.6,141.2z"/>
	<path fill="none" stroke="#000000" stroke-width="2" stroke-miterlimit="10" d="M228.3,116.3c0,0,5.9,4.1,0.1,7"/>
	<path fill="none" stroke="#000000" stroke-width="2" stroke-miterlimit="10" d="M200,122.9c0,0,3.3,1,7.2-0.1s5.8-2.9,10.7-1.1
		s10.5,0.2,10.5,0.2"/>
	<path fill="none" stroke="#000000" stroke-width="2" stroke-miterlimit="10" d="M199,147.4c0,0,21.3-1.8,31,0.2
		c0,0,12.7,86.7,12.3,117c0,0-22.1,11.6-54.2,0.8C188.1,265.4,201.7,180.5,199,147.4z"/>
	<path fill="none" stroke="#000000" stroke-width="2" stroke-miterlimit="10" d="M223.3,146.9c4.9-0.5,16.5-7.1,16.5-7.1
		c-1.8-3.7-5.9-39.7-9.3-44.1s-16.8-0.4-16.8-0.4s-17.3-3.3-19,6.8c-1.7,10-4.4,32.6-6.9,36.3c0,0,2.4,7,11.9,8.9"/>
	<polyline fill="none" stroke="#000000" stroke-width="2" stroke-miterlimit="10" points="210.5,141.2 211.2,146.8 219.3,146.9 
		219.3,140.8 	"/>
	<path fill="none" stroke="#000000" stroke-width="2" stroke-miterlimit="10" d="M222,146.9c0,0-20.7,34.9-24.6,45.2l-1.7,16.5
		l34.9-56.8l-0.6-4.1C230,147.6,224.8,146.8,222,146.9z"/>
	<path fill="none" stroke="#000000" stroke-width="2" stroke-miterlimit="10" d="M230,147.6c0,0,20.9,26,32.8,44.9l-9.7,21.3
		l-20.1-44.3"/>
	<path fill="none" stroke="#000000" stroke-width="2" stroke-miterlimit="10" d="M260,198.8l8.7,6.3l1.3,10.8c0,0-1.2-1.1-2.9-2.5"
		/>
	<path fill="none" stroke="#000000" stroke-width="2" stroke-miterlimit="10" d="M260.6,207.7c-1.9-1.6-3.3-2.9-3.3-2.9"/>
	<path fill="none" stroke="#000000" stroke-width="2" stroke-miterlimit="10" d="M255.7,208.3l3.2,5.4l2.7-0.7c0,0-0.2-1.1-0.4-2.3"
		/>
	<polyline fill="none" stroke="#000000" stroke-width="2" stroke-miterlimit="10" points="221.4,269.8 224.5,295.1 229.9,295 
		231.7,268.2 	"/>
	<polyline fill="none" stroke="#000000" stroke-width="2" stroke-miterlimit="10" points="200.6,268.6 204.3,295.3 210.5,295.3 
		211.4,270.1 	"/>
	<polygon fill="none" stroke="#000000" stroke-width="2" stroke-miterlimit="10" points="210.5,295.3 188.6,298.1 197.1,308.3 
		210.5,297.9 	"/>
	<polyline fill="none" stroke="#000000" stroke-width="2" stroke-miterlimit="10" points="224.5,295.1 222.8,299.6 244.8,307.6 
		249.8,296.2 229.9,295 	"/>
	<path fill="none" stroke="#000000" stroke-width="2" stroke-miterlimit="10" d="M199,148.1c0,0-19.3,26.6-30.7,45.8l10.3,21
		L199,170"/>
	<path fill="none" stroke="#000000" stroke-width="2" stroke-miterlimit="10" d="M171.4,200.1l-8.5,6.5l-1,10.8c0,0,0.6-0.5,1.4-1.3
		"/>
	<path fill="none" stroke="#000000" stroke-width="2" stroke-miterlimit="10" d="M170,209.9c2.3-2.2,4.3-3.9,4.3-3.9"/>
	<polyline fill="none" stroke="#000000" stroke-width="2" stroke-miterlimit="10" points="176,209.4 173,214.9 170.3,214.3 171,209 
			"/>
	
		<ellipse transform="matrix(0.9901 -0.1404 0.1404 0.9901 -16.5296 18.33)" fill="none" stroke="#000000" stroke-width="2" stroke-miterlimit="10" cx="121.6" cy="126.3" rx="11.1" ry="17.8"/>
	<path fill="none" stroke="#000000" stroke-width="2" stroke-miterlimit="10" d="M126.7,110c0,0-8.6,2.9-13.4,1.9"/>
	<path fill="none" stroke="#000000" stroke-width="2" stroke-miterlimit="10" d="M128.4,112.3c-0.7,0.6-8.9,3.8-16.5,2.7"/>
	<path fill="none" stroke="#000000" stroke-width="2" stroke-miterlimit="10" d="M129.7,114.8c0,0-8.5,5.2-18.2,3.1"/>
	<polyline fill="none" stroke="#000000" stroke-width="2" stroke-miterlimit="10" points="127.5,142.5 128.2,147.5 121.5,148.5 
		120.8,143.6 	"/>
	<polygon fill="none" stroke="#000000" stroke-width="2" stroke-miterlimit="10" points="139.2,145.9 109.6,150.1 120.9,208.4 
		144.1,205.1 	"/>
	<polyline fill="none" stroke="#000000" stroke-width="2" stroke-miterlimit="10" points="139.8,145.9 161.3,169.4 167.1,203.3 
		163.6,206 152.9,172.7 140.6,162.4 	"/>
	<line fill="none" stroke="#000000" stroke-width="2" stroke-miterlimit="10" x1="152.9" y1="172.7" x2="161.3" y2="169.4"/>
	<polyline fill="none" stroke="#000000" stroke-width="2" stroke-miterlimit="10" points="144.1,205.1 156,303.2 151.2,303.9 
		132.5,206.7 141,305.3 135.5,306.1 120.9,208.4 	"/>
	<polyline fill="none" stroke="#000000" stroke-width="2" stroke-miterlimit="10" points="156,303.2 171.3,307.3 162.8,313.1 
		151.2,303.9 	"/>
	<polyline fill="none" stroke="#000000" stroke-width="2" stroke-miterlimit="10" points="141,305.3 134.8,317 124.8,313.8 
		135.5,306.1 	"/>
	<polygon fill="none" stroke="#000000" stroke-width="2" stroke-miterlimit="10" points="164.2,217.4 162.3,209.4 168.5,205.9 
		170.5,212.5 	"/>
	<polyline fill="none" stroke="#000000" stroke-width="2" stroke-miterlimit="10" points="109.6,150.1 101.4,179.2 101,213.6 
		104.8,215.7 110.3,181.1 113.2,169 	"/>
	<line fill="none" stroke="#000000" stroke-width="2" stroke-miterlimit="10" x1="110.3" y1="181.1" x2="101.4" y2="179.2"/>
	<polygon fill="none" stroke="#000000" stroke-width="2" stroke-miterlimit="10" points="106,227 106.6,218.8 100,216.4 99,223.1 	
		"/>
	
		<ellipse transform="matrix(0.1821 -0.9833 0.9833 0.1821 131.7893 410.3409)" fill="none" stroke="#000000" stroke-width="2" stroke-miterlimit="10" cx="312.6" cy="125.9" rx="17.8" ry="11.1"/>
	<polyline fill="none" stroke="#000000" stroke-width="2" stroke-miterlimit="10" points="306,141.8 305,146.8 311.7,148.1 
		312.6,143.3 	"/>
	<polygon fill="none" stroke="#000000" stroke-width="2" stroke-miterlimit="10" points="294.2,144.8 323.6,150.3 309.8,208 
		286.8,203.7 	"/>
	<polyline fill="none" stroke="#000000" stroke-width="2" stroke-miterlimit="10" points="293.6,144.8 271.1,167.3 263.8,201 
		267.2,203.8 279.4,171 292.1,161.2 	"/>
	<line fill="none" stroke="#000000" stroke-width="2" stroke-miterlimit="10" x1="279.4" y1="171" x2="271.1" y2="167.3"/>
	<polyline fill="none" stroke="#000000" stroke-width="2" stroke-miterlimit="10" points="286.8,203.7 270.7,301.2 275.5,302.1 
		298.3,205.9 285.7,304 291.1,305 309.8,208 	"/>
	<polyline fill="none" stroke="#000000" stroke-width="2" stroke-miterlimit="10" points="270.7,301.2 255.3,304.7 263.6,310.8 
		275.5,302.1 	"/>
	<polyline fill="none" stroke="#000000" stroke-width="2" stroke-miterlimit="10" points="285.7,304 291.3,316 301.4,313.1 
		291.1,305 	"/>
	<polygon fill="none" stroke="#000000" stroke-width="2" stroke-miterlimit="10" points="266.2,215.2 268.4,207.2 262.4,203.5 
		260.1,210 	"/>
	<polyline fill="none" stroke="#000000" stroke-width="2" stroke-miterlimit="10" points="323.6,150.3 330.5,179.6 329.5,214 
		325.6,216 321.6,181.2 319.2,169 	"/>
	<line fill="none" stroke="#000000" stroke-width="2" stroke-miterlimit="10" x1="321.6" y1="181.2" x2="330.5" y2="179.6"/>
	<polygon fill="none" stroke="#000000" stroke-width="2" stroke-miterlimit="10" points="323.9,227.3 323.6,219 330.4,216.8 
		331.1,223.7 	"/>
	
		<ellipse transform="matrix(0.4256 -0.9049 0.9049 0.4256 85.2466 456.2951)" fill="none" stroke="#000000" stroke-width="2" stroke-miterlimit="10" cx="402" cy="161" rx="17.8" ry="11.1"/>
	<polyline fill="none" stroke="#000000" stroke-width="2" stroke-miterlimit="10" points="391.6,174.7 389.5,179.3 395.6,182.2 
		397.7,177.8 	"/>
	<polygon fill="none" stroke="#000000" stroke-width="2" stroke-miterlimit="10" points="379.5,174.6 406.5,187.3 378.6,239.7 
		357.4,229.7 	"/>
	<polyline fill="none" stroke="#000000" stroke-width="2" stroke-miterlimit="10" points="379.5,174.6 351.4,190.5 332.5,214.2 
		335.5,219.5 358.5,196.1 373.3,190 	"/>
	<line fill="none" stroke="#000000" stroke-width="2" stroke-miterlimit="10" x1="358.5" y1="196.1" x2="351.4" y2="190.5"/>
	<polyline fill="none" stroke="#000000" stroke-width="2" stroke-miterlimit="10" points="357.4,229.7 317.1,319.9 321.5,322 
		368,234.7 330.9,326.4 335.9,328.8 378.6,239.7 	"/>
	<polyline fill="none" stroke="#000000" stroke-width="2" stroke-miterlimit="10" points="317.1,319.9 301.3,319.4 307.8,327.4 
		321.5,322 	"/>
	<polyline fill="none" stroke="#000000" stroke-width="2" stroke-miterlimit="10" points="330.9,326.4 333.3,339.4 343.8,339.2 
		335.9,328.8 	"/>
	<polyline fill="none" stroke="#000000" stroke-width="2" stroke-miterlimit="10" points="406.5,187.3 405.8,217.5 396.1,250.5 
		391.8,251.4 396.7,216.7 397.5,204.3 	"/>
	<line fill="none" stroke="#000000" stroke-width="2" stroke-miterlimit="10" x1="396.7" y1="216.7" x2="405.8" y2="217.5"/>
	<path fill="none" stroke="#000000" stroke-width="2" stroke-miterlimit="10" d="M332.5,214.2l-12.7,4.4l0.7,5.7
		c0,0,1.5-0.4,3.5-0.9"/>
	<path fill="none" stroke="#000000" stroke-width="2" stroke-miterlimit="10" d="M331.6,221.6c0.2-0.1,0.4-0.1,0.4-0.1l-0.8,5.1
		l3,0.5l1.3-7.6"/>
	<polyline fill="none" stroke="#000000" stroke-width="2" stroke-miterlimit="10" points="391.8,251.6 387.6,256.7 389.4,258.3 
		392.1,257.5 392,266.5 398.9,260.7 396.1,250.5 	"/>
	
		<ellipse transform="matrix(0.9211 -0.3894 0.3894 0.9211 -58.9931 24.1767)" fill="none" stroke="#000000" stroke-width="2" stroke-miterlimit="10" cx="30.1" cy="157.6" rx="11.1" ry="17.8"/>
	<polyline fill="none" stroke="#000000" stroke-width="2" stroke-miterlimit="10" points="40,171.7 42,176.4 35.7,179.1 33.8,174.5 
			"/>
	<polygon fill="none" stroke="#000000" stroke-width="2" stroke-miterlimit="10" points="52.2,172.1 24.6,183.8 50.4,237.2 
		72,228.1 	"/>
	<polyline fill="none" stroke="#000000" stroke-width="2" stroke-miterlimit="10" points="52.2,172.1 79.6,189.1 97.5,213.6 
		94.3,218.7 72.2,194.4 57.7,187.7 	"/>
	<line fill="none" stroke="#000000" stroke-width="2" stroke-miterlimit="10" x1="72.2" y1="194.4" x2="79.6" y2="189.1"/>
	<polyline fill="none" stroke="#000000" stroke-width="2" stroke-miterlimit="10" points="72,228.1 108.7,319.8 104.3,321.7 
		61.2,232.6 94.7,325.7 89.6,327.9 50.4,237.2 	"/>
	<polyline fill="none" stroke="#000000" stroke-width="2" stroke-miterlimit="10" points="108.7,319.8 124.5,319.9 117.7,327.6 
		104.3,321.7 	"/>
	<polyline fill="none" stroke="#000000" stroke-width="2" stroke-miterlimit="10" points="94.7,325.7 91.7,338.6 81.3,338 
		89.6,327.9 	"/>
	<polyline fill="none" stroke="#000000" stroke-width="2" stroke-miterlimit="10" points="24.6,183.8 24.2,213.9 32.5,247.3 
		36.8,248.3 33.2,213.5 33,201 	"/>
	<line fill="none" stroke="#000000" stroke-width="2" stroke-miterlimit="10" x1="33.2" y1="213.5" x2="24.2" y2="213.9"/>
	<path fill="none" stroke="#000000" stroke-width="2" stroke-miterlimit="10" d="M97.5,213.6l12.5,4.9l-0.9,5.7c0,0-1.5-0.5-3.5-1"
		/>
	<path fill="none" stroke="#000000" stroke-width="2" stroke-miterlimit="10" d="M98.1,220.9c-0.2-0.1-0.4-0.1-0.4-0.1l0.6,5.2
		l-3,0.4l-1-7.6"/>
	<polyline fill="none" stroke="#000000" stroke-width="2" stroke-miterlimit="10" points="36.8,248.5 40.8,253.8 38.9,255.3 
		36.2,254.4 36,263.5 29.4,257.3 32.5,247.3 	"/>
</g>
<g id="Layer_3">
	<path opacity="0" fill="none" stroke="#27AAE1" stroke-width="20" stroke-miterlimit="10" d="M118.9,108.1c2.7-1.4,5.8-1.9,8.7-1.4
		c-4.1,3.1-8.6,5.5-13.4,7.2c4.7-1,9.6-1.6,14.4-1.7c-3,2.5-6.2,4.8-9.6,6.8c5.6-2.1,11.6-3.1,17.5-3c-8.1,3.8-16.6,7-25.3,9.4
		c9.7-3.9,20.1-5.8,30.5-5.6c-7.7,3.4-15.6,6.5-23.6,9.2c5.3-2,10.7-3.5,16.3-4.3c-5.1,3-10.3,5.8-15.6,8.4
		c7.6-2.4,15.6-3.8,23.7-4.1c-8.7,4.3-17.4,8.6-26.1,12.8c7.9-3.4,16.3-5.4,24.8-6.1c-7.6,4.9-15.5,9.4-23.7,13.4
		c10.6-3.8,21.8-6.2,33-7.2c-10.2,5.3-20.7,9.9-31.5,13.8c8.5-3.3,17.5-5.3,26.6-6c-9.2,4.9-19,8.9-29,11.9
		c11-4.4,22.8-6.6,34.6-6.3c-6.2,3.4-12.6,6.3-19.3,8.5c12.2-5.1,25.3-8.2,38.5-9c-15.1,6.6-31.3,10.3-47.3,13.8
		c16.4-2.8,33-4.3,49.6-4.5c-14.7,4.8-29.4,9.7-44.2,14.5c9.8-3.6,19.9-6.5,30.2-8.6c-10.3,5-21,9.3-31.8,12.9
		c15.8-3.3,31.8-5.6,47.9-7c-16.3,3.7-32.7,7.3-49,11c14.2-4.1,28.9-6.5,43.7-7.1c-13.8,4.9-27.8,9.1-42,12.6
		c13.1-0.1,26.2-1.6,39-4.3c-14.6,1.7-29.2,3.9-43.7,6.6c17.2-3,34.6-4.8,52-5.2c-15.9,8.9-36,6-52.9,12.8c20.4-3.4,41.1-5,61.8-4.8
		c-22.5,2.6-44.8,6.5-66.8,11.7c12.6-1.9,25.4-2.4,38.1-1.3c-14.8,4.1-29.3,8.8-43.7,14.1c14.8-2.5,29.7-4,44.7-4.7
		c-11.8,3.4-23.6,6.8-35.4,10.3c11.3-2.9,22.6-5.3,34.1-7.3c-12.7,6.8-26.1,12.5-39.8,16.8c13-3.3,26.5-5,39.9-5.2
		c-11.9,5.7-24,10.9-36.3,15.7c11.7-4.6,23.9-8,36.4-10.2c-11.4,8.6-23.6,16.2-36.3,22.8c14.1-3.5,28.2-6.7,42.4-9.6
		c-12.2,5.9-24.6,11.5-37.1,16.7c10.6-2.6,21.3-5.2,31.9-7.7c-13.9,6.7-27.7,13.3-41.6,20c14.7-0.9,29.3-2.7,43.8-5.4
		c-13,4.2-25.9,8.4-38.9,12.6c13.3-3.1,26.6-5.6,40.1-7.6c-12.1,5.3-24.2,10.7-36.4,16c13.2-2.1,26.4-4.2,39.6-6.3
		c-19.4,5.5-38.4,12.4-56.8,20.5c17.2-1.5,34.4-3.8,51.4-6.8c-10.9,4.6-22,8.7-33.3,12.3c14.5-6.2,29.6-11.1,44.9-14.6
		c-18.3,5.9-36.5,11.8-54.8,17.7c25.1-5.1,50.3-9.3,75.7-12.3c-14.8,5.4-29.8,10.3-45,14.6c9.1-4.5,18.3-9.1,27.4-13.6
		c-6.2,2.1-12.6,3.7-19,4.9c1.4-2.4,3.5-4.4,6.1-5.6"/>
</g>
<g id="Layer_4">
	<path opacity="0" fill="none" stroke="#27AAE1" stroke-width="20" stroke-miterlimit="10" d="M220.7,148c4.4-0.4,8.9-0.1,13.2,0.9
		c-6.4-0.2-12.9,0-19.3,0.7c6.6,0.2,13.2,1,19.8,2.1c-6.2,0.2-12.3,0.8-18.4,1.8c6.8,0.5,13.7,1,20.5,1.5c-8.4,0.7-16.8,1.3-25.2,2
		c5.1,0.1,10.2,0.3,15.3,0.8c-5.6,0.7-11.1,1.5-16.7,2.2c6.4,0.3,12.8,0.6,19.3,1c-7,1.1-14,2.2-21,3.3c6.2-0.4,12.4,0,18.5,1.1
		c-7.9,0.4-15.7,1-23.5,2c7.1,0.4,14.2,0.8,21.3,1.2c-6.8,0.8-13.5,1.8-20.2,3c6.5,1.1,13.2,1.6,19.8,1.7c-6.7,0.6-13.3,1.2-20,1.8
		c5.9,0.5,11.8,1,17.7,1.6c-7.4,1-14.9,1.7-22.3,1.9c4.9,0.5,9.7,1.1,14.6,1.6c-4.7,1.4-9.6,2-14.5,1.9c5.2,0.8,10.3,1.6,15.5,2.4
		c-5.4,1.4-10.9,2.4-16.5,3.2c4.4,0.2,8.7,0.5,13.1,0.7c-6,1.8-12.2,2.6-18.4,2.6c3.8,0,7.7,0.3,11.5,1c-5.2,0.4-10.3,0.8-15.5,1.2
		c6.3,0.2,12.5,0.9,18.7,2.1c-5.1,1.1-10.3,2.1-15.4,3.2c6,0.3,12,0.5,17.9,0.8c-7,3-16.3,0.4-21.6,5.9c4.1,0,8.1,0,12.2,0"/>
</g>
</svg>
