<?xml version="1.0" encoding="utf-8"?>
<!-- Generator: Adobe Illustrator 21.0.0, SVG Export Plug-In . SVG Version: 6.00 Build 0)  -->
<!DOCTYPE svg PUBLIC "-//W3C//DTD SVG 1.0//EN" "http://www.w3.org/TR/2001/REC-SVG-20010904/DTD/svg10.dtd">
<svg version="1.0" xmlns="http://www.w3.org/2000/svg" xmlns:xlink="http://www.w3.org/1999/xlink" x="0px" y="0px" width="432px"
	 height="432px" viewBox="0 0 432 432" enable-background="new 0 0 432 432" xml:space="preserve">
<g id="Color">
	<g>
		<path fill="#E52125" d="M262.8,192.5c-11.9-18.9-32.8-44.9-32.8-44.9c-1.8-0.4-4-0.6-6.3-0.8c5.1-0.8,16.1-7,16.1-7
			c-1.8-3.7-5.9-39.7-9.3-44.1c-3.4-4.4-16.8-0.4-16.8-0.4s-17.3-3.3-19,6.8c-1.7,10-4.4,32.6-6.9,36.3c0,0,2.4,7,11.9,8.9l0.8,0
			c-0.9,0.1-1.5,0.1-1.5,0.1c0.9,10.9,0,27.4-1.6,44.6c0,0,0,0.1,0,0.1l-1.7,16.5l0.1-0.1c-3.3,29.6-7.7,56.9-7.7,56.9
			c4.4,1.5,8.5,2.5,12.5,3.2l3.7,26.7h6.2l0.9-25.2l-2.8-0.4c5,0.4,9.5,0.3,13.6,0l-0.7,0.1l3.1,25.3l-1.7,4.5l22,8l5-11.4
			l-19.9-1.2l1.8-26.8l-0.4,0.1c7-1.6,11-3.7,11-3.7c0.3-20.6-5.5-67.2-9.2-94.9l20,44.1L262.8,192.5z"/>
		<path fill="#E52125" d="M257.3,204.8c0,0,1.4,1.3,3.3,2.9L257.3,204.8z"/>
		<polygon fill="#E52125" points="197.1,308.3 210.5,297.9 210.5,295.3 188.6,298.1 		"/>
		<path fill="#E52125" d="M199,170v-21.9c0,0-19.3,26.6-30.7,45.8l3.1,6.2l-8.5,6.5l-0.2,2.6l-0.4,0.2l0.2,1l-0.6,7
			c0,0,0.6-0.5,1.4-1.3l0.4-0.8l0.5,2.1l6.3-4.9l-2-6.6l-0.1,0l2.9-5.8l2.9,5.9c-0.2,0.2-2.1,1.8-4.3,3.9l4.3-3.9l1.6,3.4L171,209
			l-0.7,5.3l2.7,0.6l2.9-5.4l2.7,5.4L199,170z"/>
		<polygon fill="#E52125" points="152.9,172.7 163.6,206 167.1,203.3 161.3,169.4 139.8,145.9 140.6,162.4 		"/>
		<path fill="#E52125" d="M144.1,205.1l-4.9-59.2l-11,1.6l-0.7-5l0,0c4-3,6.2-10,5.1-17.8c-0.5-3.7-1.7-7-3.3-9.7
			c0.3-0.2,0.5-0.3,0.5-0.3l-0.6,0.1c-0.5-0.8-1-1.5-1.6-2.2c0.4-0.2,0.7-0.3,0.8-0.4l-1,0.2c-0.7-0.8-1.4-1.4-2.2-2
			c0.9-0.3,1.5-0.5,1.5-0.5l-1.8,0.3c-1.8-1.3-3.8-1.9-5.8-1.6c-2,0.3-3.7,1.4-5.1,3.1l-0.7,0.1c0.2,0,0.4,0.1,0.5,0.1
			c-0.7,0.9-1.3,1.9-1.8,3l-0.1,0c0,0,0.1,0,0.1,0c-1.5,3.5-2.1,8-1.4,12.9c1.1,8,5.4,14.2,10.2,15.8l0.7,4.8l-11.9,1.7l11.3,58.3
			l14.6,97.7l-10.7,7.7l10,3.2l6.2-11.7l-8.5-98.6l0,0l18.7,97.2l11.6,9.2l8.5-5.8l-15.3-4.1L144.1,205.1z"/>
		<polygon fill="#E52125" points="101,213.6 104.8,215.7 110.3,181.1 113.2,169 109.6,150.1 101.4,179.2 		"/>
		<path fill="#E52125" d="M99,223.1l7,3.9l0.3-3.6c1.7,0.4,2.8,0.8,2.8,0.8l0.9-5.7l-12.5-4.9l2.5,2.9L99,223.1z"/>
		<polygon fill="#E52125" points="279.4,171 292.1,161.2 293.6,144.8 271.1,167.3 263.8,201 267.2,203.8 		"/>
		<path fill="#E52125" d="M291.1,305l18.7-97l13.8-57.7l-11.9-2.2l0.9-4.8l-0.2,0c4.9-1.3,9.5-7.4,11-15.3
			c1.8-9.7-1.6-18.4-7.7-19.5c-6-1.1-12.4,5.8-14.2,15.5c-1.4,7.7,0.5,14.9,4.4,18l-1,5l2.9,0.6l-13.7-2.6l-7.4,58.9l-16.1,97.5
			l-15.4,3.5l8.3,6.1l11.9-8.7l22.8-96.2L285.7,304l5.6,12l10.1-2.9L291.1,305z"/>
		<path fill="#E52125" d="M266.8,212.9l0.3,0.5c1.7,1.4,2.9,2.5,2.9,2.5l-1.3-10.8l-8.7-6.3l2.4,4.8l-2.3,6.4l0.5,0.5l-4.9-2.2
			l3.2,5.4l2.7-0.7c0,0-0.2-0.9-0.4-2l5,4.2L266.8,212.9z"/>
		<polygon fill="#E52125" points="321.6,181.2 325.6,216 329.5,214 330.5,179.6 323.6,150.3 319.2,169 		"/>
		<path fill="#E52125" d="M409.6,144.9c-5.5-2.6-13.4,2.5-17.6,11.4c-3.3,7.1-3.3,14.4-0.4,18.4l-2.1,4.6l0.7,0.3l-10.7-5
			l-22.1,55.1l-40.3,90.2l-15.8-0.5l6.5,8l13.7-5.4l46.5-87.3l-37.1,91.7l2.4,13l10.5-0.2l-7.9-10.4l42.7-89.1l27.9-52.4l-10.9-5.1
			l2.1-4.3c5.1-0.1,11-4.8,14.4-12.1C416.3,156.9,415.1,147.5,409.6,144.9z"/>
		<polygon fill="#E52125" points="332.5,214.2 335.5,219.5 358.5,196.1 373.3,190 379.5,174.6 351.4,190.5 		"/>
		<polygon fill="#E52125" points="396.7,216.7 391.8,251.4 396.1,250.5 405.8,217.5 406.5,187.3 397.5,204.3 		"/>
		<path fill="#E52125" d="M320.5,224.3c0,0,1.4-0.4,3.3-0.8l0.1,3.8l7.2-3.6l-0.7-6.9l-0.4,0.1l2.5-2.7l-12.7,4.4L320.5,224.3z"/>
		<path fill="#E52125" d="M332,221.5l-0.8,5.1l3,0.5l1.3-7.6l-3.9,2.1C331.8,221.5,332,221.5,332,221.5z"/>
		<polygon fill="#E52125" points="387.6,256.7 389.4,258.3 392.1,257.5 392,266.5 398.9,260.7 396.1,250.5 391.8,251.6 		"/>
		<path fill="#E52125" d="M72,228.1l-14.3-40.4l14.5,6.7l22.1,24.3l3.2-5.1l-17.9-24.5l-27.4-17l-15.3,6.5l5.1-2.2l-2-4.7l0,0
			c3.1-3.9,3.4-11.2,0.4-18.4c-3.8-9.1-11.5-14.5-17.2-12.1c-5.6,2.4-7.1,11.7-3.3,20.7c3.1,7.4,8.9,12.4,13.9,12.6l1.9,4.5
			l-11.1,4.7l-0.4,30.1l8.3,33.4l4.3,1l-3.6-34.8L33,201.2l17.4,36l39.2,90.7L81.3,338l10.4,0.6l3-12.9l-33.5-93.1l0,0l43.1,89.1
			l13.4,5.9l6.8-7.7l-15.8-0.1L72,228.1z"/>
		<path fill="#E52125" d="M94.3,218.8l1,7.6l3-0.4l-0.6-5.2c0,0,0.2,0,0.4,0.1L94.3,218.8z"/>
		<polygon fill="#E52125" points="36,263.5 36.2,254.4 38.9,255.3 40.8,253.8 36.8,248.5 32.5,247.3 29.4,257.3 		"/>
	</g>
</g>
<g id="Stroke">
	
		<path opacity="0" fill="none" stroke="#000000" stroke-width="48" stroke-linecap="round" stroke-linejoin="round" stroke-miterlimit="10" d="
		M3.2,151.3c79.3-22.1,160.1-44.4,242.3-41.2c21.9,0.8,43.7,3.5,65.5,6.4c38.7,5.2,78.9,11.8,110.5,34.6c2.8,2.1,5.9,5.7,4,8.6
		c-83.2-5.1-165.7-21.3-249.1-20.5c-45.7,0.5-92.3,6.3-133.8,25.5c-7.6,3.5-15.6,8.1-18.7,16c-0.8,2-1.2,4.2-0.5,6.2
		c1.5,4.4,7.1,5.5,11.8,5.7c72.6,3.6,143.2-22.4,215.6-28.6c47.3-4,95.6,0.6,140.3,16.6c4.7,1.7,9.6,3.6,12.7,7.5
		c3.1,3.9,3.8,10.2,0.1,13.5c-2.8,2.5-6.9,2.5-10.6,2.5c-110.2-2.4-220.7-12.6-330.3-1.8c-12.5,1.2-26,3.2-34.9,12.2
		c-3.7,3.7-6.3,9.1-4.9,14.1c1.9,6.7,9.6,9.6,16.4,10.8c37.9,6.8,76-7.3,113.9-14.2c32.6-5.9,65.9-6.5,99-6.5
		c53.4,0,106.8,1.6,160.1,4.8c1.3,8.2-8,13.7-16,16c-24.8,7-51,6.3-76.8,5.8c-50.1-0.9-100.2-0.6-150.3,0.6c-10,0.2-20.1,0.5-30,2.1
		c-30.4,4.9-57.4,21.8-83.4,38.3c43.7-3.6,87.3-7.2,131-10.9c61.9-5.1,123.9-10.3,185.9-8.5c3.7,0.1,8.4,0.9,9.3,4.5
		c0.4,1.7-0.2,3.4-1,4.9c-5.8,10.6-20.3,11.4-32.3,11.5c-94,0.8-186.1,37.2-279.8,29.7c-1.6,2.1-0.5,5.4,1.6,7.1
		c2.1,1.6,4.9,2.1,7.6,2.4c90.6,11.7,182.7,5.6,273.4-5.9"/>
</g>
</svg>
