<?xml version="1.0" encoding="utf-8"?>
<!-- Generator: Adobe Illustrator 21.0.0, SVG Export Plug-In . SVG Version: 6.00 Build 0)  -->
<!DOCTYPE svg PUBLIC "-//W3C//DTD SVG 1.0//EN" "http://www.w3.org/TR/2001/REC-SVG-20010904/DTD/svg10.dtd">
<svg version="1.0" id="Layer_2" xmlns="http://www.w3.org/2000/svg" xmlns:xlink="http://www.w3.org/1999/xlink" x="0px" y="0px"
	 width="1697px" height="1139px" viewBox="0 0 1697 1139" enable-background="new 0 0 1697 1139" xml:space="preserve">
<path fill="none" stroke="#000000" stroke-width="4" stroke-miterlimit="10" d="M1338.2,714l4-46.5l-65.2-55.7l0.1-21.5l-2.3-32.9
	l-6.8-12.5l-11.7-2.6l-21.9-13.9l0-12.8l14.5-95.1l0.5-11.8l-4.5-10.5l-37.6-45.5l-7.1-13.9l6.5-6.7l11.6-37.9l-24.3-33.1l-10.7-9.1
	l-6.9-17.6l-17.9-19.3l1.4-32l-37.9-79.9l-1.1-14.1l-5.2-5.7l-10.1-17.6L1083,48.7L973.6,36.3l-40.9,9.9l-31.9-14.8l-77.3-10.1
	l-57.2,7.9l-64.9-10L649.6,42l-11,11.1l-70-3.3l-92.6,15.5l-44.4,33.8l-31,65l9.9,60.8l-7.9,15.5L405,268L391,330.9l-2.8,37.1
	l-6.6,14.4l-4.2,27l-3.4,85.4l-19.4,80.8l-14.5,21.1l4.1,43.2l-9.5,47.4l-3.9,8.3l1,10.1l-2.9,60.9l-10.6,19.8l-6,27.6l-49.7,99.7
	l-5.2,34.1l-29.7,70.9l12.3,37.4l37.2,45.3l80.4-0.5l18,3.1l12.7,9.9l29,5.8l52.4-7.4l110.5-27l50.2,9.4l53.2,8.2l59.3,11.9
	l100.2-11.8l16.1-0.4l66.5-14.7l23.7,5h25l48,7l28-1l35,7l42-1l48-8l121,2l83.1-8.9l21.9-83.1l-34-76l-21-64l3.6-48.4l-8.2-40.8
	l-6.4-53.4L1338.2,714L1338.2,714z"/>
<path fill="#FFFFFF" stroke="#000000" stroke-width="4" stroke-miterlimit="10" d="M1334.1,378.7c-4.5,0.7-2.9,3.8-6.6,7.9
	c-3.7,4-1.2,3.6-3.7,10.8c-2.5,7.2,3.7,4.5,5.8,7.2c2.1,2.7,3.1,3.6,6.2,7.2s9.2,4,9.2,4h11.9c0,0,3.3-1.1,9-4.9
	c5.8-3.8,0-0.2,2.1-3.4c2.1-3.1,0-9.4,0-9.4l-4.5-11.7l-7.2-7.2H1345C1345,379.1,1338.6,378,1334.1,378.7z"/>
<path fill="#FFFFFF" stroke="#000000" stroke-width="4" stroke-miterlimit="10" d="M1264.2,342.8c-3.8,0.8-5.1,4.1-7.6,6.8
	s0,12.2,0,17.7s0,6,0,8.2c0,2.2,11.4,16.3,11.4,16.3h12.7l18.3-2.7c0,0,0,0,5.1-6c5.1-6,0-16.3,0-16.3l-3.8-11.4l-5.1-12.2h-14.8
	C1280.4,343.1,1268,342,1264.2,342.8z"/>
<path fill="#FFFFFF" stroke="#000000" stroke-width="4" stroke-miterlimit="10" d="M1440.1,439.8c-3.8,0.6-2.4,3.2-5.5,6.6
	s-1,3-3.1,9s3.1,3.8,4.8,6c1.7,2.3,2.6,3,5.1,6s7.7,3.4,7.7,3.4h10c0,0,2.7-0.9,7.6-4.1c4.8-3.2,0-0.2,1.7-2.8c1.7-2.6,0-7.9,0-7.9
	l-3.8-9.8l-6-6h-9.4C1449.2,440.1,1443.9,439.2,1440.1,439.8z"/>
<path fill="#FFFFFF" stroke="#000000" stroke-width="4" stroke-miterlimit="10" d="M1391.7,412.8c-2.5,0.5-3.4,2.7-5,4.5
	c-1.7,1.8,0,8.1,0,11.7s0,3.9,0,5.4s7.6,10.8,7.6,10.8h8.4l12.1-1.8c0,0,0,0,3.4-3.9c3.4-3.9,0-10.8,0-10.8l-2.5-7.5l-3.4-8.1h-9.7
	C1402.5,413,1394.2,412.3,1391.7,412.8z"/>
</svg>
