<?xml version="1.0" encoding="utf-8"?>
<!-- Generator: Adobe Illustrator 21.0.0, SVG Export Plug-In . SVG Version: 6.00 Build 0)  -->
<!DOCTYPE svg PUBLIC "-//W3C//DTD SVG 1.0//EN" "http://www.w3.org/TR/2001/REC-SVG-20010904/DTD/svg10.dtd">
<svg version="1.0" id="Layer_1" xmlns="http://www.w3.org/2000/svg" xmlns:xlink="http://www.w3.org/1999/xlink" x="0px" y="0px"
	 width="576px" height="576px" viewBox="0 0 576 576" enable-background="new 0 0 576 576" xml:space="preserve">
<path fill="none" stroke="#000000" stroke-width="3" stroke-miterlimit="10" d="M284.2,56.5c0.1,0,0.1,0,0.2,0c4.6-0.1,8,0,12.5,0.2
	"/>
<path fill="none" stroke="#000000" stroke-width="3" stroke-miterlimit="10" d="M304.7,57.7c14.3,1.1,28.2,3.6,41.7,7.3"/>
<path fill="none" stroke="#000000" stroke-width="3" stroke-miterlimit="10" d="M351.8,66.6c2.9,0.9,5.8,1.8,8.7,2.9"/>
<path fill="none" stroke="#000000" stroke-width="3" stroke-miterlimit="10" d="M367,71.8c9.8,3.8,19.2,8.2,28.2,13.3"/>
<path fill="none" stroke="#000000" stroke-width="3" stroke-miterlimit="10" d="M400.2,87.9c2.7,1.6,5.5,3.3,8.1,5"/>
<path fill="none" stroke="#000000" stroke-width="3" stroke-miterlimit="10" d="M413.1,96.2c59.6,41,99.3,110.4,100.4,189.7
	c1.2,82.3-39.6,155.2-102,197.3"/>
<path fill="none" stroke="#000000" stroke-width="3" stroke-miterlimit="10" d="M405.2,487.3c-2.7,1.7-5.3,3.3-8.1,4.8"/>
<path fill="none" stroke="#000000" stroke-width="3" stroke-miterlimit="10" d="M391.4,495.2c-7.4,3.9-15,7.4-22.9,10.5"/>
<path fill="none" stroke="#000000" stroke-width="3" stroke-miterlimit="10" d="M362.6,508c-4.2,1.5-8.5,2.9-12.8,4.2"/>
<path fill="none" stroke="#000000" stroke-width="3" stroke-miterlimit="10" d="M343.9,513.8c-10.6,2.8-21.4,4.8-32.5,6"/>
<path fill="none" stroke="#000000" stroke-width="3" stroke-miterlimit="10" d="M304.4,520.4c-3.2,0.2-6.3,0.4-9.5,0.5"/>
<path fill="none" stroke="#000000" stroke-width="3" stroke-miterlimit="10" d="M288.6,521c-14.2,0.1-28.2-1.2-41.7-3.8"/>
<path fill="none" stroke="#000000" stroke-width="3" stroke-miterlimit="10" d="M240.1,515.8c-3.1-0.7-6.2-1.4-9.2-2.3"/>
<path fill="none" stroke="#000000" stroke-width="3" stroke-miterlimit="10" d="M225,511.9c-12.2-3.6-24.1-8.3-35.4-13.9"/>
<path fill="none" stroke="#000000" stroke-width="3" stroke-miterlimit="10" d="M183.7,495c-4.1-2.2-8.1-4.5-12.1-7"/>
<path fill="none" stroke="#000000" stroke-width="3" stroke-miterlimit="10" d="M165.7,484.2C104.1,443.5,62.9,373,61.8,292.2
	c-1.1-81.5,38.5-153.8,99.6-196"/>
<path fill="none" stroke="#000000" stroke-width="3" stroke-miterlimit="10" d="M166.2,93c2.7-1.8,5.5-3.5,8.3-5.2"/>
<path fill="none" stroke="#000000" stroke-width="3" stroke-miterlimit="10" d="M179.7,84.9c9.1-5.1,18.5-9.5,28.3-13.2"/>
<path fill="none" stroke="#000000" stroke-width="3" stroke-miterlimit="10" d="M214.1,69.4c2.9-1,5.9-2,8.9-2.9"/>
<path fill="none" stroke="#000000" stroke-width="3" stroke-miterlimit="10" d="M228.6,64.9c15.5-4.2,31.7-6.8,48.4-7.6"/>
<path fill="none" stroke="#000000" stroke-width="3" stroke-miterlimit="10" d="M94.1,169.3c0,0,10.8,14.6,13,15.6
	s-5.2,10.8-5.2,10.8s-15.4,7.7-17,8.3s-5.4,32.7-5.4,35.4c0,2.7,7.7,15.4,7.7,15.4s9.3,13.3,12,16.4c2.7,3.2,6.4-3.3,13.3-5
	s-0.2-11.2-0.2-12.8s13.9-1.8,13.9-1.8l0.1,9.1l9.4,18.6c0,0,3.3,8,3.9,9.6c0.6,1.6,9.7,2.1,9.7,2.1l8-0.1c0,0,3.3,9.5,3.4,12.7
	s4.1,22.4,4.1,22.4s3.3,4.8,11.5,15.4s6.5,4.2,6.5,4.2l26.3,5.5l18.2,1.4l17.2,6.7l14.6,10.5l4.1,9l2.5,8.5l0.6,8l13,8.9l3.2,1.6
	l12.4,5.7l2.2,7.5c0,0,1.2,6.4,1.8,15.5s0.2,13.9-0.3,17.1s-1,4.8-2,12.9c-1,8,8.3,17,8.3,17l10.9,11.1l11.3,2.5l15.2-6.4l12.5-2.6
	c0,0,9.5-11.9,11-15.1c1.6-3.2,6.8-8.7,14.7-17.9c7.9-9.2,1-5.9,2-10.7c1-4.8,0.3-15.5,0.3-15.5l6.2-14.5l5.7-15.1l3.6-8.6
	l-0.2-16.6l-5.5-9l-15.6-4.1c0,0-14-4.6-16.1-4.6s-12.4-8.9-13.5-10.5s-6.6-12.2-6.7-17s-1.7-8-1.7-9.6s-6.5-2.6-11.3-2.5
	s-11.8,1.2-11.8,1.2s-8.5,2.8-16,5s-4.2,2.7-8,4.9c-3.7,2.2-4.7,9.7-6.7,16.2c-2.1,6.5,0.7,10.7,0.7,13.4c0,2.7-10.1,5-11.7,5
	s-18.9-14.2-20.6-19c-1.7-4.8-9.6,1.2-16.6,0.2s-17.9-18-19.6-20.6c-1.6-2.7-7.7-16-7.7-16l-3.4-14.8c0,0-0.1-5.5,3.6-8.7
	c3.7-3.3,3.2-1.7,12.3-2.3s15.6,4.1,15.6,4.1s10.8,6.3,17.3,11.5c6.5,5.3,14,4.6,19.9,5.6s9.6-4.4,12.5-6.6s-3.1-9.6-5.3-14.4
	c-2.2-4.8-4.4-8-4.4-10.6c0-2.7,5.8-9.7,5.8-9.7l13.9-3.9c0,0,8,1,12.3-0.2s7.4-9.7,7.4-9.7s0.4-12.3,0.9-14.5s3-13.4,3-13.4
	l8.6-0.1l13.4-0.2l11.2-0.2l8-0.1l-0.1-8l-7.1-11.1l-3.9-8.5l-12.5-12.1l-2.8-8.5l9.5-12.4l-0.1-9.1l-3.8-3.7l-18.7,1.9l-13.3,8.2
	l-16.5,9.9l-16.9,6.1l-5-3.1l0.3-17.7c0,0,3.1-11.3,4.1-14s-4.4-11.2-7.1-12.9c-2.7-1.7-16.2-8.2-16.2-8.2l-9.6,0.1
	c0,0-12.8,6.1-17,8.6c-4.2,2.6-20.9,1.5-25.2,0.6c-4.3-1-12.3,1.7-15.5,0.7s-9.1,0.1-11.8,0.2c-2.7,0-7.4,3.9-9.6,6
	c-2.1,2.2-14.4,2.3-17.6,1.9c-3.2-0.5-9.7-3.1-9.7-3.1l-11.7,3.4l-0.9-2.2"/>
<path fill="none" stroke="#000000" stroke-width="3" stroke-miterlimit="10" d="M508.1,238c0,0-15.7,4.7-17.3,6.3
	c-1.6,1.6-8.9,15.6-8.9,15.6l-14.2,20c0,0-9,9.2-8.9,12.4s0.3,18.7,0.3,18.7l0.3,18.7l7.2,14.4c0,0,6.5,4.7,8.1,8.5
	s2.9,13.3,2.9,13.3s-0.4,10.7,0.2,12.3s12.9,13.1,12.9,13.1"/>
<path fill="none" stroke="#000000" stroke-width="3" stroke-miterlimit="10" d="M399.7,89.2c0,0,4.7,28.9,4.7,31s-0.8,16.6,3.5,21.4
	c4.3,4.8,13.5,7.3,15.6,7.3s4.8,0.5,9.1-0.1c4.3-0.6,6.4,0.9,9.6,0.1s11.7-2,14.4-2c2.7,0,9.4,0.1,9.4,0.1"/>
<path fill="none" stroke="#000000" stroke-width="3" stroke-miterlimit="10" d="M475.5,418.3c-39,60.7-106.7,101.3-184.2,102.4
	c-78.2,1.1-147.6-38-188.1-98.2"/>
</svg>
