<?xml version="1.0" encoding="utf-8"?>
<!-- Generator: Adobe Illustrator 21.0.0, SVG Export Plug-In . SVG Version: 6.00 Build 0)  -->
<!DOCTYPE svg PUBLIC "-//W3C//DTD SVG 1.0//EN" "http://www.w3.org/TR/2001/REC-SVG-20010904/DTD/svg10.dtd">
<svg version="1.0" xmlns="http://www.w3.org/2000/svg" xmlns:xlink="http://www.w3.org/1999/xlink" x="0px" y="0px" width="432px"
	 height="432px" viewBox="0 0 432 432" enable-background="new 0 0 432 432" xml:space="preserve">
<g id="Color">
	<polyline points="90.5,227.2 131.3,322 126.8,324.1 79.3,232.2 116.9,328.6 111.6,331 68.2,237.3 	"/>
	<g>
		<polygon points="40.7,212.4 40.9,214.4 41.3,214.4 59,247.2 59,247.2 60.8,259.3 68,261.7 63.4,250.1 67.1,251.6 68.8,249.1 
			63.4,245.2 50.2,212.7 50.1,211.7 50.1,211.7 49.1,200.4 39.7,182.2 40.8,212.4 		"/>
		<path d="M109.3,242.9l2.9-6.9l-8-9.5l0,0l-13.4-35.8l-22.4-21l-0.2-0.4l-10.6,4.8l-2.1-4.8c3.2-4.2,3.3-11.9-0.1-19.3
			c-4.3-9.4-12.4-14.8-18.3-12.1c-5.8,2.7-7.1,12.4-2.9,21.7c3.5,7.6,9.5,12.6,14.8,12.8l0,0l2.2,4.6l-11.5,5.2l28.5,55.1l22.3-10.1
			l-14.9-38.7l8.5,8.9l15.8,31.2l-0.6,6.7l3,0.3l1.2-3.7L109.3,242.9z"/>
		<polygon points="131.3,322 126.8,324.1 141,329.9 147.8,321.6 		"/>
		<polygon points="103.2,341.8 114.1,342.1 116.9,328.6 111.6,331 		"/>
	</g>
	<path d="M231.2,195.9l2.6-43.9l-0.1,2.2l4.1,11.8l1.4,35.2l0,0l-3.3,5.8l2.6,1.6l2.7-2.9l0.7,12.5l5.6-5.2l-3.4-11.9l2.6-38.5
		L234.9,134v-0.4h-11.6v-5.3h-0.2c4.7-2.4,8.1-9.5,8.1-17.8c0-10.3-5.2-18.7-11.7-18.7c-3,0-5.7,1.8-7.8,4.7l-0.8,1.7l-3.7-0.2
		l-26.1,18.7l22.8,26.6l2.7,52.6l0.7,103.9l-12.2,6.5l9.9,4.8l8.2-11.3l5.7-103.9l5.2,103.9l10.6,11.3l9.7-4.7l-15.2-6.6
		L231.2,195.9z M207.2,104.7l1.2-0.1c-0.4,1.9-0.6,3.9-0.6,5.9c0,8.4,3.5,15.6,8.3,17.9l0,0v5.2h-9.3l-13.9-17.3L207.2,104.7z"/>
	<g>
		<polygon points="267.4,200.6 267.3,200.6 262.8,212.1 267.8,217.8 269.7,205.5 272.1,208.6 274.9,207.3 272.2,201.2 272.2,201.2 
			277.1,166.5 282.3,155.3 283.3,134.9 268.6,162.3 		"/>
		<path d="M323.2,167.8l-8.8-29.6V138l-10.2-1c0-0.2,0.2-2.8,0.3-2.9c4.8-1.5,9.5-7.1,11.6-14.5c2.9-9.9,0.2-19.3-6-21.1
			c-6.2-1.8-13.5,4.8-16.3,14.6c-2.3,7.8-1.1,15.3,2.6,19l-0.2-0.2c-0.1,1.4-0.4,4.1-0.4,4.1h0.2l0,0l-12.7-1.3l-3,61.9l-9.6,102.8
			l-12.7,5.1l9.3,5.8l9.2-10.4L292.4,198l-5.1,103.2l9.4,12.2l10-3.7l-14.4-8l12.3-102.5L312,153l-0.8,5.2l2.9,12l-2.1,35l0,0
			l-3.9,5.5l2.5,1.7l2.9-2.5l-0.5,12.4l6-4.6l-2.2-12.1L323.2,167.8z"/>
	</g>
	<g>
		<polygon points="308.9,319.6 320.9,327.3 331.3,320.7 326.2,318.3 		"/>
		<polygon points="333.2,333.4 345.3,339.1 350.6,327.5 345.4,325.5 		"/>
		<path d="M378.1,231.1l21.5-29.7l-3.4-31.3l-0.2,0.7l-10.1-2l1.6-7.6c2.7-1.8,5.2-4.6,7.1-8c4.5-8.2,4-17.1-1.3-20
			c-5.2-2.9-13.1,1.4-17.6,9.6c-4.5,8.2-4,17.1,1.3,20c0.3,0.1,0.5,0.2,0.8,0.4l-0.3,4l-12.5-2.4l-0.3,1.6l-14.9,25.9
			c0,0,3.4,17.3,4.5,25.2l-0.6,2.8c0.4,0.2,0.9,0.5,1.4,0.7l-0.1,0.6l-0.7-0.4L326.1,318l5.2,1.9l33.4-92.9h0.4l0,0l0,0h0.6
			c0,0,0.1,0.2,0.2,0.5l-0.8-0.4l-19.8,98.1l5.3,2c0,0,18.4-63.3,25.8-88.6l0,0c0.5-1.7,1-3.3,1.4-4.7l0,0l0,0l0.1-2.6l-0.4-0.2
			v-0.2L378.1,231.1z M356.9,194.3l3.1-5.7l-2.8,13.7L356.9,194.3z M390.5,199.1l-5.3,9.5c1.5-5.4,3.2-11.3,4.8-16.7L390.5,199.1z"
			/>
	</g>
	<g>
		<polygon points="146.7,317.9 160.9,318.7 166.8,307.9 161.2,308.3 		"/>
		<polygon points="174.6,318 188,317.1 186.9,304.4 181.4,305.2 		"/>
		<path d="M163.7,206.9l4.2-36.4l-18.3-25.6l0.2,0.7l-9.8,3.2l-2.4-7.4c1.4-2.9,2.3-6.5,2.3-10.5c-0.1-9.3-4.9-16.9-10.9-16.8
			c-6,0-10.8,7.6-10.7,17c0.1,9.3,4.9,16.9,10.9,16.8c0.3,0,0.6,0,0.9-0.1l1.7,3.7l-12.1,4l0.5,1.5l-0.3,29.9
			c0,0,11.5,13.4,16.3,19.8l0.9,2.7c0.5,0,1,0,1.6-0.1l0.2,0.6h-0.8l22.9,98.2l5.5-0.9L150,209.8l0.3-0.2l0,0l0,0l0.5-0.3
			c0,0,0.2,0.1,0.4,0.3h-1l30.8,95.2l5.6-0.9c0,0-15-64.2-20.9-89.9l0,0c-0.4-1.8-0.8-3.4-1.1-4.7l0,0l0,0l-1.2-2.3h-0.5l-0.1-0.2
			L163.7,206.9z M127.2,185.2v-6.5l4.3,13.3L127.2,185.2z M158.8,172.9v10.8c-1.3-5.5-2.7-11.4-4-16.9L158.8,172.9z"/>
	</g>
</g>
<g id="Layer_2">
	
		<path opacity="0" fill="none" stroke="#81FF7A" stroke-width="17" stroke-linecap="round" stroke-linejoin="round" stroke-miterlimit="10" d="
		M22.4,137c8.5-1.5,17.2-1.8,25.7-1c2.5,0.2,5.7,1.4,5.5,3.9c-0.2,1.4-1.5,2.4-2.8,3.2c-7.7,4.8-15.4,9.6-23.1,14.4
		c12.9,2.9,26.4-12,38-5.9c-12.6,7.6-25.2,15.2-37.8,22.9c15.7-4.5,31.5-8.9,47.2-13.4c-12.2,17.2-40.8,16.7-51.4,34.9
		c19.8-8.5,39.9-16.4,60.2-23.8c-1.3,8.2-11.3,11-19.3,13.4c-12.5,3.7-24,10.6-33.2,19.8c21.5-5.3,42.6-11.9,63.3-19.7
		c-11.5,19.6-45.2,14.2-57.7,33.1c21.7-7,43.8-12.8,66.2-17.4c-4.7,10.5-16.4,15.7-27.4,18.9s-22.9,5.3-31.6,12.8
		c19.5-4.4,38.9-8.8,58.4-13.2c-11.3,15.1-34.3,15.2-49,27c20.8-3.5,41.2-9.8,60.4-18.7c-3.2,10.3-14.6,15.6-25.1,18.1
		c-10.5,2.5-21.9,3.6-30.5,10.2c17-2.7,34-5.5,51-8.2c-11.3,8.1-22.5,16.2-33.8,24.4c11.9-4.3,23.8-8.6,35.7-12.9
		c-5.8,9.1-14.5,16.4-24.6,20.3c10.4-2.3,20.8-4.6,31.2-6.9c-5.6,11.6-17.7,18.4-29.2,24.1c11.1-6.8,26.5-7.8,39.4-8.4
		c-9.7,8.3-19.5,15.2-29.2,23.5c8.1-5.4,17.1-7.7,26.6-9.6c-4.4,10-11.9,18.6-21.1,24.3c10.6-6.3,23-9.4,35.3-8.9
		c-14.9,6-29.1,13.6-42.5,22.4c17.2-3.8,33.6-11.3,47.7-21.8c2.2-1.6,4.4-3.4,7.1-4c2.5-0.6,5.2,0,7.7,0.4
		c10.1,1.4,20.6-0.3,29.7-4.9c-11.3,0.2-22.7,0.4-34,0.6c3.8-5.3,11.1-6,17.5-6.9c6.4-1,13.9-3.9,14.9-10.3
		c-10.1,3.3-20.9,4.7-31.5,4.1c7.2-3.5,14.4-7,21.6-10.5c3.4-1.6,7.3-4.5,6.3-8.1c-11.9,1-23.7,2-35.6,3c11.6-4,22.4-10,31.9-17.8
		c-13.3-1.1-26.7-0.6-39.8,1.4c13.7-4.2,26.8-10.2,38.9-17.9c-13.2-1.5-26.6-1.4-39.7,0.3c11-4.4,21.9-8.8,32.9-13.3
		c-10.2-4.2-21.8-5-32.5-2.4c10.7-5.8,21.9-10.8,33.4-14.9c-11.8-1.1-23.9,0.4-35.1,4.3c9.1-6.1,19-10.9,29.4-14.2
		c-11.5,1.4-23.1,1.2-34.5-0.7c11.8-6.3,23.6-12.7,35.3-19c-14.6,2.2-29.2,4.4-43.9,6.6c14.6-7.6,29.2-15.2,43.9-22.8
		c-19.3,3.3-38.4,8.1-57,14.2c9.9-15.8,35-12.9,48.8-25.4c-13.8-1-27.8-0.8-41.5,0.7c12-3.4,24-6.7,35.9-10.1
		c2.2-0.6,4.9-3.1,3.1-4.5c-12.9,6.4-28.1,8.2-42.2,4.9c10.8-2,21.3-5.1,31.5-9.3c-10.9,0.2-21.9,0.4-32.8,0.7
		c9.9-4.9,20.2-9.1,30.6-12.7c-8.6-0.7-17.2-0.3-25.7,1.2c4.7-4.8,10.5-8.5,16.9-10.6c-7.3-0.6-14.7-0.8-22-0.4
		c10.1-9.5,25.6-9.1,39.2-11.4c26.3-4.3,51.4-20,77.6-15.4c-13.5,3.8-27,7.7-40.4,11.5c15.9-4.5,33.1-4.6,49.1-0.2
		c-21.1,3.9-42.3,7.7-63.4,11.6c21.7-0.8,43.3-1.7,65-2.5c-15.9,5.2-32,9.4-48.4,12.8c16-0.2,31.9-0.4,47.9-0.5
		c-16,3.1-32.1,6.3-48.1,9.4c17.4,0.6,34.7,1.1,52.1,1.7c-14.9,3-29.8,5.9-44.7,8.9c15.6,0.8,31.3,1.6,46.9,2.4
		c-17.6,3.6-35.3,7.2-52.9,10.9c19.9,1,39.8,1.9,59.7,2.9c-16.3,3.5-32.7,7.1-49,10.6c16,2.1,32,4.1,48,6.2
		c-17.3,2.3-34.6,4.7-51.9,7c17.1,2.4,34.1,4.8,51.2,7.3c-15.6,1.2-31.1,2.3-46.7,3.5c14.2,3.3,28.3,6.5,42.5,9.8
		c-15.1,2.2-30.2,4.4-45.3,6.6c14.3,1.4,28.6,2.7,42.9,4.1c-12.8,3.7-25.6,7.3-38.4,11c7.5,1.8,14.9,3.5,22.4,5.3
		c-9.5,3.3-19.2,5.9-29,7.7c10.6-0.3,21.2,0.3,31.8,1.7c-8.3,6.5-17.7,11.4-27.7,14.6c8.3-0.3,16.6,0.7,24.6,2.9
		c-7.5,3.8-15.6,6.5-23.8,8.2c8.6-0.3,17.2,0.9,25.4,3.4c-10.3,4.3-20.6,8.5-31,12.8c10.6-1.1,21.5,0.8,31.1,5.5
		c-11.6,4.1-23.2,8.1-34.8,12.2c14.6,0,29.3-0.1,43.9-0.1c-15.8,1.9-31.6,3.7-47.4,5.6c38.7-1.6,77.5-3.2,116.2-4.7
		c-5.8,6-14.5,9-22.8,7.9c-2.8-4.9-8.6-7.9-14.3-7.4c9.2-1.2,18.3-2.5,27.5-3.7c-12.5-1.4-25-2.7-37.4-4.1c12.1-3,24.3-6,36.4-8.9
		c-10-1.6-20-3.2-30-4.8c13.8-1.9,27.5-3.8,41.3-5.6c-12.1-1.8-24.3-3.5-36.4-5.3c10.4-3.6,21.2-5.9,32.2-6.6
		c-12.7-0.9-25.3-3.6-37.2-8.1c11.1-0.2,22.2-1.2,33.1-2.9c-9.7-3.5-19.6-6.3-29.7-8.3c10.2-6,22.1-9.1,34-8.9
		c-10.8,0.9-21.9-1.4-31.5-6.4c9.9-0.8,19.8-1.6,29.7-2.4c-10.8-2.5-21.6-5-32.4-7.5c9.9,0.2,19.8,0.5,29.8,0.7
		c-13.9-2.6-27.7-5.1-41.6-7.7c21.8,0.3,43.6,2,65.2,4.9c-16.3-12.4-41.7-0.4-59.4-10.6c19.7,0.1,39.4,0.2,59.1,0.2
		c-19.6-6.7-40.2-10.5-60.9-11.2c19.7-3.8,39.9-2.7,59.9-1.6c-16.6-8.3-36.1-10.5-54.1-6.1c13.4-12.4,37.1,4,52.8-5.2
		c-16.4-8.1-35.3-11.2-53.5-8.9c16.3-11.7,39.9,4.2,58.8-2.6c-21-12.5-48.6-3.6-71.9-11.1c22.2-3.5,45.1-2.8,67.1,1.9
		c-11.1-12.3-32.8-3.4-47.1-11.6c16.2-2,32.5-2.6,48.8-1.9c-15.3-3.5-30.5-7.1-45.8-10.6c13.2-0.6,26.5-1.3,39.7-1.9
		c-7.4-8.1-25.2-2.6-28.8-13c7.5-2.4,15.7-2.7,23.4-1c-5.3-6.6-13.6-10.6-22-10.8c10.1-1.1,20.4-0.6,30.5,1.3
		c-5.9-4.7-13.1-7.7-20.5-8.6c2.8-4.6,9.4-5.4,14.5-3.6c5.1,1.8,9.3,5.5,14,8.1c6.9,3.9,14.9,5.4,22.5,7.6
		c19.3,5.6,36.9,15.7,54.3,25.7c-4.6,0.3-8.4,0.8-12.8-0.4c-4.4-1.1-9-1.8-13.5-2.2c-1.7-0.1-3.4-0.2-4.9,0.5s-2.6,2.6-2,4.1
		c6.8,3.1,13.6,4.3,21,4.7c7.1,0.4,14.5,3.6,21.4,5.6c-19.1,3.2-38.4,5-57.8,5.6c15.7-0.4,31.5,3.6,45.2,11.5
		c-16,2.3-32.1,3.2-48.2,2.6c17.1,0.3,35.4,3.5,49.1,13.7c-18.6,0.4-37.2-0.1-55.8,0.3c18,1.5,35.6,6.5,50.3,17.1
		c-16-0.5-31.9,0.5-47.9,0c12.6,5,25.2,7.9,36.3,15.6c-9.3,0.5-19.1,3-28.3,3.5c7.2,3,13.6,7.7,18.6,13.7c-8.7-0.4-18.3,1.2-27,0.9
		c10.6,6.3,21.7,11.5,31.2,19.3c-13.8-1.2-27.6-2.4-41.4-3.7c11.7,7.5,23.3,15,35,22.5c-12-0.8-24.9-2.6-36.9-3.4
		c9,7.3,19.8,14.7,30.1,20c-12.2-1.7-24.5-2.3-36.8-1.8c8.3,5.9,17.5,9.8,23.1,18.3c-10.1,0.9-17.4-2.3-27.6-3
		c10.6,4.7,15.8,12.9,24.5,20.5c-13.5-6.9-28.1-6.7-43-9.6c9.7,10.7,24.3,16.7,38.7,15.9"/>
</g>
</svg>
