<?xml version="1.0" encoding="utf-8"?>
<!-- Generator: Adobe Illustrator 21.0.0, SVG Export Plug-In . SVG Version: 6.00 Build 0)  -->
<!DOCTYPE svg PUBLIC "-//W3C//DTD SVG 1.0//EN" "http://www.w3.org/TR/2001/REC-SVG-20010904/DTD/svg10.dtd">
<svg version="1.0" id="Layer_1" xmlns="http://www.w3.org/2000/svg" xmlns:xlink="http://www.w3.org/1999/xlink" x="0px" y="0px"
	 width="432px" height="432px" viewBox="0 0 432 432" enable-background="new 0 0 432 432" xml:space="preserve">
<polyline points="90.5,227.2 131.3,322 126.8,324.1 79.3,232.2 116.9,328.6 111.6,331 68.2,237.3 "/>
<g>
	<polygon points="40.7,212.4 40.9,214.4 41.3,214.4 59,247.2 59,247.2 60.8,259.3 68,261.7 63.4,250.1 67.1,251.6 68.8,249.1 
		63.4,245.2 50.2,212.7 50.1,211.7 50.1,211.7 49.1,200.4 39.7,182.2 40.8,212.4 	"/>
	<path d="M109.3,242.9l2.9-6.9l-8-9.5l0,0l-13.4-35.8l-22.4-21l-0.2-0.4l-10.6,4.8l-2.1-4.8c3.2-4.2,3.3-11.9-0.1-19.3
		c-4.3-9.4-12.4-14.8-18.3-12.1c-5.8,2.7-7.1,12.4-2.9,21.7c3.5,7.6,9.5,12.6,14.8,12.8l0,0l2.2,4.6l-11.5,5.2l28.5,55.1l22.3-10.1
		l-14.9-38.7l8.5,8.9l15.8,31.2l-0.6,6.7l3,0.3l1.2-3.7L109.3,242.9z"/>
	<polygon points="131.3,322 126.8,324.1 141,329.9 147.8,321.6 	"/>
	<polygon points="103.2,341.8 114.1,342.1 116.9,328.6 111.6,331 	"/>
</g>
<path d="M231.2,195.9l2.6-43.9l-0.1,2.2l4.1,11.8l1.4,35.2h0l-3.3,5.8l2.6,1.6l2.7-2.9l0.7,12.5l5.6-5.2l-3.4-11.9l2.6-38.5
	L234.9,134l0-0.4h-11.6v-5.3l-0.2,0c4.7-2.4,8.1-9.5,8.1-17.8c0-10.3-5.2-18.7-11.7-18.7c-3,0-5.7,1.8-7.8,4.7l-0.8,1.7l-3.7-0.2
	l-26.1,18.7l22.8,26.6l2.7,52.6l0.7,103.9l-12.2,6.5l9.9,4.8l8.2-11.3l5.7-103.9l5.2,103.9l10.6,11.3l9.7-4.7l-15.2-6.6L231.2,195.9
	z M207.2,104.7l1.2-0.1c-0.4,1.9-0.6,3.9-0.6,5.9c0,8.4,3.5,15.6,8.3,17.9l0,0v5.2h-9.3l-13.9-17.3L207.2,104.7z"/>
<g>
	<polygon points="267.4,200.6 267.3,200.6 262.8,212.1 267.8,217.8 269.7,205.5 272.1,208.6 274.9,207.3 272.2,201.2 272.2,201.2 
		277.1,166.5 282.3,155.3 283.3,134.9 268.6,162.3 	"/>
	<path d="M323.2,167.8l-8.8-29.6l0-0.2l-10.2-1c0-0.2,0.2-2.8,0.3-2.9c4.8-1.5,9.5-7.1,11.6-14.5c2.9-9.9,0.2-19.3-6-21.1
		c-6.2-1.8-13.5,4.8-16.3,14.6c-2.3,7.8-1.1,15.3,2.6,19l-0.2-0.2c-0.1,1.4-0.4,4.1-0.4,4.1l0.2,0l0,0l-12.7-1.3l-3,61.9l-9.6,102.8
		l-12.7,5.1l9.3,5.8l9.2-10.4L292.4,198l-5.1,103.2l9.4,12.2l10-3.7l-14.4-8l12.3-102.5L312,153l-0.8,5.2l2.9,12l-2.1,35l0,0
		l-3.9,5.5l2.5,1.7l2.9-2.5l-0.5,12.4l6-4.6l-2.2-12.1L323.2,167.8z"/>
</g>
<g>
	<polygon points="308.9,319.6 320.9,327.3 331.3,320.7 326.2,318.3 	"/>
	<polygon points="333.2,333.4 345.3,339.1 350.6,327.5 345.4,325.5 	"/>
	<path d="M378.1,231.1l21.5-29.7l-3.4-31.3l-0.2,0.7l-10.1-2l1.6-7.6c2.7-1.8,5.2-4.6,7.1-8c4.5-8.2,4-17.1-1.3-20
		c-5.2-2.9-13.1,1.4-17.6,9.6c-4.5,8.2-4,17.1,1.3,20c0.3,0.1,0.5,0.2,0.8,0.4l-0.3,4l-12.5-2.4l-0.3,1.6l-14.9,25.9
		c0,0,3.4,17.3,4.5,25.2l-0.6,2.8c0.4,0.2,0.9,0.5,1.4,0.7l-0.1,0.6l-0.7-0.4L326.1,318l5.2,1.9l33.4-92.9h0.4l0,0l0,0h0.6
		c0,0,0.1,0.2,0.2,0.5l-0.8-0.4l-19.8,98.1l5.3,2c0,0,18.4-63.3,25.8-88.6v0c0.5-1.7,1-3.3,1.4-4.7l0,0l0,0l0.1-2.6l-0.4-0.2l0-0.2
		L378.1,231.1z M356.9,194.3l3.1-5.7l-2.8,13.7L356.9,194.3z M390.5,199.1l-5.3,9.5c1.5-5.4,3.2-11.3,4.8-16.7L390.5,199.1z"/>
</g>
<g>
	<polygon points="146.7,317.9 160.9,318.7 166.8,307.9 161.2,308.3 	"/>
	<polygon points="174.6,318 188,317.1 186.9,304.4 181.4,305.2 	"/>
	<path d="M163.7,206.9l4.2-36.4l-18.3-25.6l0.2,0.7l-9.8,3.2l-2.4-7.4c1.4-2.9,2.3-6.5,2.3-10.5c-0.1-9.3-4.9-16.9-10.9-16.8
		c-6,0-10.8,7.6-10.7,17c0.1,9.3,4.9,16.9,10.9,16.8c0.3,0,0.6,0,0.9-0.1l1.7,3.7l-12.1,4l0.5,1.5l-0.3,29.9
		c0,0,11.5,13.4,16.3,19.8l0.9,2.7c0.5,0,1,0,1.6-0.1l0.2,0.6l-0.8,0l22.9,98.2l5.5-0.9L150,209.8l0.3-0.2l0,0l0,0l0.5-0.3
		c0,0,0.2,0.1,0.4,0.3l-1,0l30.8,95.2l5.6-0.9c0,0-15-64.2-20.9-89.9l0,0c-0.4-1.8-0.8-3.4-1.1-4.7h0l0,0l-1.2-2.3l-0.5,0l-0.1-0.2
		L163.7,206.9z M127.2,185.2l0-6.5l4.3,13.3L127.2,185.2z M158.8,172.9l0,10.8c-1.3-5.5-2.7-11.4-4-16.9L158.8,172.9z"/>
</g>
</svg>
