<?xml version="1.0" encoding="utf-8"?>
<!-- Generator: Adobe Illustrator 19.2.1, SVG Export Plug-In . SVG Version: 6.00 Build 0)  -->
<svg version="1.0" id="Layer_1" xmlns="http://www.w3.org/2000/svg" xmlns:xlink="http://www.w3.org/1999/xlink" x="0px" y="0px"
	 width="432px" height="432px" viewBox="0 0 432 432" enable-background="new 0 0 432 432" xml:space="preserve">
<ellipse transform="matrix(0.9103 -0.4139 0.4139 0.9103 -80.4382 184.9598)" fill="none" stroke="#000000" stroke-width="2" stroke-miterlimit="10" cx="386.6" cy="278.1" rx="11.6" ry="18.6"/>
<polyline fill="none" stroke="#000000" stroke-width="2" stroke-miterlimit="10" points="376,263.7 373.8,258.8 380.2,255.9 
	382.4,260.5 "/>
<polygon fill="none" stroke="#000000" stroke-width="2" stroke-miterlimit="10" points="363.2,263.6 391.7,250.7 363.2,195.6 
	340.9,205.7 "/>
<polyline fill="none" stroke="#000000" stroke-width="2" stroke-miterlimit="10" points="391.7,250.7 390.6,219.5 372.4,185.7 
	368,187.7 381.2,220.2 382.3,232.5 "/>
<polyline fill="none" stroke="#000000" stroke-width="2" stroke-miterlimit="10" points="368.1,187.8 362.6,183.8 364.3,181.3 
	368,182.8 363.4,171.2 370.6,173.6 372.4,185.8 "/>
<line fill="none" stroke="#000000" stroke-width="2" stroke-miterlimit="10" x1="381.2" y1="220.2" x2="390.6" y2="219.5"/>
<polyline fill="none" stroke="#000000" stroke-width="2" stroke-miterlimit="10" points="363.4,263.5 340.6,242.2 327.2,206.3 
	331.5,204.3 347.3,235.5 355.9,244.5 "/>
<polyline fill="none" stroke="#000000" stroke-width="2" stroke-miterlimit="10" points="331.5,204.4 332.1,197.6 329.1,197.3 
	327.9,201 322.1,190 319.2,196.9 327.2,206.4 "/>
<line fill="none" stroke="#000000" stroke-width="2" stroke-miterlimit="10" x1="346.8" y1="236" x2="340.3" y2="242.9"/>
<polyline fill="none" stroke="#000000" stroke-width="2" stroke-miterlimit="10" points="340.9,205.7 300.1,110.9 304.6,108.8 
	352.1,200.7 314.5,104.3 319.8,101.9 363.2,195.6 "/>
<polyline fill="none" stroke="#000000" stroke-width="2" stroke-miterlimit="10" points="300.1,110.9 283.6,111.3 290.4,103 
	304.6,108.8 "/>
<polyline fill="none" stroke="#000000" stroke-width="2" stroke-miterlimit="10" points="314.5,104.3 317.3,90.8 328.2,91.1 
	319.8,101.9 "/>
<path fill="none" stroke="#000000" stroke-width="2" stroke-miterlimit="10" d="M222.5,330.3c0.7-2.4,1.1-5.1,1.1-7.9
	c0-10.3-5.2-18.7-11.7-18.7c-6.5,0-11.7,8.4-11.7,18.7c0,10.3,5.2,18.7,11.7,18.7c3,0,5.7-1.8,7.8-4.7"/>
<polyline fill="none" stroke="#000000" stroke-width="2" stroke-miterlimit="10" points="208.1,304.6 208.1,299.3 215.3,299.3 
	215.3,304.5 "/>
<polygon fill="none" stroke="#000000" stroke-width="2" stroke-miterlimit="10" points="196.5,299.3 228,299.3 224.8,237 200.2,237 
	"/>
<polyline fill="none" stroke="#000000" stroke-width="2" stroke-miterlimit="10" points="223.6,299.3 239.1,318.6 224.8,330.2 
	213.2,331.4 212.3,336.2 224.8,336.9 250.9,318.2 227.6,291 "/>
<line fill="none" stroke="#000000" stroke-width="2" stroke-miterlimit="10" x1="250.9" y1="318.2" x2="239.1" y2="318.6"/>
<polyline fill="none" stroke="#000000" stroke-width="2" stroke-miterlimit="10" points="196.7,299.3 184.7,270.3 187.3,231.7 
	192.2,231.7 193.6,266.9 197.7,278.7 "/>
<polyline fill="none" stroke="#000000" stroke-width="2" stroke-miterlimit="10" points="192.1,231.8 195.5,225.9 192.9,224.3 
	190.2,227.2 189.5,214.7 183.9,219.9 187.3,231.8 "/>
<line fill="none" stroke="#000000" stroke-width="2" stroke-miterlimit="10" x1="193.6" y1="266.9" x2="184.7" y2="270.3"/>
<polyline fill="none" stroke="#000000" stroke-width="2" stroke-miterlimit="10" points="200.2,237 202.2,133.1 207.3,133.1 
	212.5,237 218.2,133.1 224.1,133.1 224.8,237 "/>
<polyline fill="none" stroke="#000000" stroke-width="2" stroke-miterlimit="10" points="202.2,133.1 187,126.5 196.7,121.8 
	207.3,133.1 "/>
<polyline fill="none" stroke="#000000" stroke-width="2" stroke-miterlimit="10" points="218.2,133.1 226.4,121.8 236.3,126.6 
	224.1,133.1 "/>
<ellipse transform="matrix(0.9642 -0.265 0.265 0.9642 -69.7077 91.7814)" fill="none" stroke="#000000" stroke-width="2" stroke-miterlimit="10" cx="305.3" cy="304.2" rx="10.8" ry="16.9"/>
<line fill="none" stroke="#000000" stroke-width="2" stroke-miterlimit="10" x1="295.7" y1="292.3" x2="294.7" y2="289"/>
<path fill="none" stroke="#000000" stroke-width="2" stroke-miterlimit="10" d="M277.9,232.1c5.9-1.5,16-3.8,22.2-3.5l14.9,54.7
	l-30.5,8.6c0,0-4.3-22.4-7.5-39.4"/>
<polyline fill="none" stroke="#000000" stroke-width="2" stroke-miterlimit="10" points="284.5,292.4 267.3,266 273.1,229.8 
	277.9,230 276.5,264 280.4,270.5 "/>
<path fill="none" stroke="#000000" stroke-width="2" stroke-miterlimit="10" d="M314.8,282l1.7-30.5c0,0-12-15.3-16-21.5"/>
<polyline fill="none" stroke="#000000" stroke-width="2" stroke-miterlimit="10" points="308.9,260.5 309.1,252.9 304.3,244.3 "/>
<line fill="none" stroke="#000000" stroke-width="2" stroke-miterlimit="10" x1="309.1" y1="252.9" x2="316.5" y2="252.3"/>
<path fill="none" stroke="#000000" stroke-width="2" stroke-miterlimit="10" d="M299,227.8l-18.5-99.1l-5.5,0.6l12.3,100.6l-27.1-99
	l-5.6,0.6c0,0,13.7,74,17.7,95.6"/>
<polyline fill="none" stroke="#000000" stroke-width="2" stroke-miterlimit="10" points="278,229.8 279.6,228.1 277.7,227.2 
	272.3,227.3 273.3,229.6 "/>
<line fill="none" stroke="#000000" stroke-width="2" stroke-miterlimit="10" x1="276.5" y1="264" x2="267.3" y2="266"/>
<polyline fill="none" stroke="#000000" stroke-width="2" stroke-miterlimit="10" points="280.3,128.6 295.2,119.7 281,118.1 
	274.7,128.7 "/>
<polyline fill="none" stroke="#000000" stroke-width="2" stroke-miterlimit="10" points="260,130.7 267.3,118.2 253.9,118.6 
	254.4,131.3 "/>
<ellipse transform="matrix(0.2787 -0.9604 0.9604 0.2787 -212.7862 349.7111)" fill="none" stroke="#000000" stroke-width="2" stroke-miterlimit="10" cx="126.4" cy="316.5" rx="18.6" ry="11.6"/>
<path fill="none" stroke="#000000" stroke-width="2" stroke-miterlimit="10" d="M128.5,296.1l7.1,0.7c0,0-0.3,2.7-0.4,4.1"/>
<polygon fill="none" stroke="#000000" stroke-width="2" stroke-miterlimit="10" points="117,294.9 148.1,298 151.1,236.1 
	126.8,233.7 "/>
<polyline fill="none" stroke="#000000" stroke-width="2" stroke-miterlimit="10" points="148.1,298 162.8,270.6 164,232.2 
	159.2,231.7 154.3,266.4 149.1,277.6 "/>
<polyline fill="none" stroke="#000000" stroke-width="2" stroke-miterlimit="10" points="159.3,231.8 156.5,225.6 159.3,224.3 
	161.7,227.4 163.6,215.1 168.6,220.8 164.1,232.3 "/>
<line fill="none" stroke="#000000" stroke-width="2" stroke-miterlimit="10" x1="154.3" y1="266.4" x2="162.8" y2="270.6"/>
<polyline fill="none" stroke="#000000" stroke-width="2" stroke-miterlimit="10" points="117.1,294.9 108.2,265.1 114.6,227.2 
	119.4,227.7 117.3,262.7 120.2,274.7 "/>
<polyline fill="none" stroke="#000000" stroke-width="2" stroke-miterlimit="10" points="119.3,227.8 123.3,222.2 120.8,220.5 
	117.9,223 118.4,210.6 112.4,215.2 114.6,227.3 "/>
<line fill="none" stroke="#000000" stroke-width="2" stroke-miterlimit="10" x1="117.3" y1="262.7" x2="108.2" y2="265.1"/>
<polyline fill="none" stroke="#000000" stroke-width="2" stroke-miterlimit="10" points="126.8,233.7 139.1,131.2 144.1,131.7 
	139,234.9 154.9,132.8 160.7,133.3 151.1,236.1 "/>
<polyline fill="none" stroke="#000000" stroke-width="2" stroke-miterlimit="10" points="139.1,131.2 124.7,123.2 134.7,119.5 
	144.1,131.7 "/>
<polyline fill="none" stroke="#000000" stroke-width="2" stroke-miterlimit="10" points="154.9,132.8 164.1,122.4 173.4,128.2 
	160.7,133.3 "/>
<ellipse transform="matrix(0.4845 -0.8748 0.8748 0.4845 -225.3511 187.4094)" fill="none" stroke="#000000" stroke-width="2" stroke-miterlimit="10" cx="46.3" cy="284.9" rx="16.9" ry="10.8"/>
<path fill="none" stroke="#000000" stroke-width="2" stroke-miterlimit="10" d="M56.4,205.9c5.9,1.3,16,3.8,21.4,6.8l-11.3,55.5
	l-31.1-6.1c0,0,6.2-21.9,11-38.6"/>
<polyline fill="none" stroke="#000000" stroke-width="2" stroke-miterlimit="10" points="35.2,262.8 31.8,231.5 53.3,201.8 
	57.4,204.1 40.9,233.8 41.4,241.4 "/>
<path fill="none" stroke="#000000" stroke-width="2" stroke-miterlimit="10" d="M67,267.2l15.2-26.5c0,0-3.8-19.1-4.6-26.4"/>
<polyline fill="none" stroke="#000000" stroke-width="2" stroke-miterlimit="10" points="71.3,245.3 75,238.6 74.6,228.8 "/>
<line fill="none" stroke="#000000" stroke-width="2" stroke-miterlimit="10" x1="75" y1="238.6" x2="81.9" y2="241.4"/>
<path fill="none" stroke="#000000" stroke-width="2" stroke-miterlimit="10" d="M77.2,211.7l28.1-96.8l-5.2-1.9l-34.3,95.4
	l20.3-100.6l-5.3-2c0,0-21,72.3-27.2,93.3"/>
<polyline fill="none" stroke="#000000" stroke-width="2" stroke-miterlimit="10" points="57.6,204 59.8,203.2 58.5,201.5 
	53.6,199.1 53.5,201.7 "/>
<line fill="none" stroke="#000000" stroke-width="2" stroke-miterlimit="10" x1="40.9" y1="233.8" x2="31.8" y2="231.5"/>
<polyline fill="none" stroke="#000000" stroke-width="2" stroke-miterlimit="10" points="105.2,114.6 122.5,113.3 110.5,105.6 
	100.1,112.2 "/>
<polyline fill="none" stroke="#000000" stroke-width="2" stroke-miterlimit="10" points="86,107.4 98.2,99.5 86.1,93.8 80.8,105.4 
	"/>
<line fill="none" stroke="#000000" stroke-width="2" stroke-miterlimit="10" x1="53.1" y1="269.5" x2="54.5" y2="265.9"/>
<path fill="none" stroke="#000000" stroke-width="2" stroke-miterlimit="10" d="M44.3,271.5c0.3-0.2,1.2-6.9,1.2-6.9"/>
<path fill="none" stroke="#000000" stroke-width="2" stroke-miterlimit="10" d="M126.9,298.8c0.1,0,0.3-2.9,0.3-2.9"/>
</svg>
