<?xml version="1.0" encoding="utf-8"?>
<!-- Generator: Adobe Illustrator 19.2.1, SVG Export Plug-In . SVG Version: 6.00 Build 0)  -->
<svg version="1.0" xmlns="http://www.w3.org/2000/svg" xmlns:xlink="http://www.w3.org/1999/xlink" x="0px" y="0px" width="432px"
	 height="432px" viewBox="0 0 432 432" enable-background="new 0 0 432 432" xml:space="preserve">
<g id="Layer_2">
	<path fill="#27AAE1" d="M220.7,52.6c0,0,14.4,37.6-1.8,51.5l6.1,2.4c0,0,10.3-9.9,9.8-24.6S228.4,53.9,220.7,52.6z"/>
	<path fill="#27AAE1" d="M218.9,120.5l5.6,92.8c0,0-16.2,5.1-15.9,5s29.5-2.6,29.5-2.6l-4.3-33.9l-4-59.9L218.9,120.5z"/>
	<polygon fill="#27AAE1" points="208.6,218.3 210.5,358.8 187.9,375.4 199.2,383 215.9,359.5 215.9,218.3 	"/>
	<polygon fill="#27AAE1" points="233.8,216.1 239.5,356.9 265.2,372.5 248.5,383 234.1,358 218.5,218.3 	"/>
	<polygon fill="#27AAE1" points="230.9,132.1 248,133.4 256.9,141.6 243.5,142 231.1,140 	"/>
</g>
<g id="Layer_1">
	<path fill="none" stroke="#000000" stroke-width="2" stroke-miterlimit="10" d="M215.6,112.1c-1.7,0.4-3.4,0.6-5.1,0.4
		c-11.9-1-20.3-15.6-18.8-32.4c1.5-16.9,12.3-29.7,24.2-28.7c11.9,1,20.3,15.6,18.8,32.4c-0.8,9.4-4.5,17.5-9.7,22.7"/>
	<path fill="none" stroke="#000000" stroke-width="2" stroke-miterlimit="10" d="M180.6,124.5c0,0,24-5.8,49.3-3.4
		c0,0,3.3,71.2,8.2,94.6c0,0-27.1,4.1-41.9,2.1C196.2,217.8,183.3,180.7,180.6,124.5z"/>
	<polyline fill="none" stroke="#000000" stroke-width="2" stroke-miterlimit="10" points="202.8,109.7 202.7,120.5 217.9,120.5 
		216.9,112.2 	"/>
	<polyline fill="none" stroke="#000000" stroke-width="2" stroke-miterlimit="10" points="180.6,124.5 159.6,163.6 190.7,198.3 	"/>
	<path fill="none" stroke="#000000" stroke-width="2" stroke-miterlimit="10" d="M167,171.8c0,0,11.5-15.9,15.1-18.4"/>
	<line fill="none" stroke="#000000" stroke-width="2" stroke-miterlimit="10" x1="175.5" y1="160.6" x2="186.6" y2="178.2"/>
	<polyline fill="none" stroke="#000000" stroke-width="2" stroke-miterlimit="10" points="190.1,197.6 173.6,202.4 186.2,213.3 
		192.5,205 	"/>
	<polygon fill="none" stroke="#000000" stroke-width="2" stroke-miterlimit="10" points="229.9,113.5 237.3,104.5 233.6,101.1 
		228.4,107.3 209.9,101.1 208.6,109.2 227.1,115.9 	"/>
	<path fill="none" stroke="#000000" stroke-width="2" stroke-miterlimit="10" d="M207.7,358.5c-0.6,0.5-28.2,11.4-28.2,11.4
		s17,11.5,18.4,10.9c1.4-0.6,18.2-21.3,18.2-21.3L207.7,358.5z"/>
	<polygon fill="none" stroke="#000000" stroke-width="2" stroke-miterlimit="10" points="234.1,358 249.1,380.8 267.1,369.7 
		241.6,356.9 	"/>
	<path fill="none" stroke="#000000" stroke-width="2" stroke-miterlimit="10" d="M196.2,217.8c0,0,10.1,140.6,11.5,140.7
		c1.4,0.2,8.3,0.9,8.3,0.9V218.3l2.5-0.5L234.1,358l7.6-1.1l-3.5-141.2"/>
	<path fill="none" stroke="#000000" stroke-width="2" stroke-miterlimit="10" d="M205,52.6c0,0,16.5,3.4,22.9,3"/>
	<path fill="none" stroke="#000000" stroke-width="2" stroke-miterlimit="10" d="M202.2,54.1c0,0,12.9,7.2,27.7,4.1"/>
	<path fill="none" stroke="#000000" stroke-width="2" stroke-miterlimit="10" d="M199.1,56.6c0,0,18,8.8,33.1,5.4"/>
	<path fill="none" stroke="#000000" stroke-width="2" stroke-miterlimit="10" d="M233,109.7c0,0,21.5,9.6,39,28.8
		c0,0-17.3,6.7-41.1,1.5"/>
	<line fill="none" stroke="#000000" stroke-width="2" stroke-miterlimit="10" x1="228.8" y1="114.7" x2="257.4" y2="141.6"/>
	<line fill="none" stroke="#000000" stroke-width="2" stroke-miterlimit="10" x1="229.9" y1="121.9" x2="238.1" y2="123.1"/>
</g>
<g id="Layer_3">
	<path fill="none" d="M218.2,54.2c3.6-0.9,7.4-0.7,10.9,0.5c-3.6,1.8-7.2,3.7-10.9,5.5c5.1,0.2,10.2,0.4,15.3,0.6
		c-5.5,2.2-10.9,4.4-16.4,6.5c5.9,0.5,11.8,1,17.6,1.5c-7.1,2.1-14.1,4.2-21.2,6.3c6.2,0.4,12.4,0.9,18.6,1.3
		c-5.7,2-11.4,4.1-17.1,6.1c7.8,0.2,15.6,0.4,23.4,0.6c-9.2,2.5-18.2,5.5-26.9,9.2c8,0.9,16.1,1.2,24.2,0.8
		c-7.2,1.2-14.3,3-21.2,5.5c6.5,0.1,13.1,0.3,19.6,0.4c-8.9,3.7-17.6,7.9-26,12.7c12.2-0.3,24.5-0.6,36.7-0.9
		c-13.3,3.7-26.6,7.4-40,11.1c12.5,0.2,25,0.4,37.5,0.6c-12,2.8-24,5.5-36.1,8.3c18.6-0.8,37.2-1.7,55.8-2.5
		c-19.1,3.5-38.1,6.9-57.2,10.4c16-0.2,32.1-0.4,48.1-0.5c-16.4,0.8-32.6,4.6-47.6,11.1c12,4,25-5.8,37.4-3.3c-9.2,5-19,9.2-29,12.3
		c8.1-0.6,16.2-1.1,24.3-1.7c-12.1,4.7-24.1,9.3-36.2,14c11.9-0.5,23.9-1.1,35.8-1.6c-10.2,2.6-20.3,5.1-30.5,7.7
		c11.3,0,22.7,0,34,0c-10.2,3.5-20.3,6.9-30.5,10.4c8.9-0.2,17.8-0.3,26.6-0.5c-9.7,3.8-19.4,7.6-29.2,11.4
		c12.3-0.1,24.7-0.2,37-0.3c-11.1,4.6-22.1,9.1-33.2,13.7c14.9-0.1,29.8-0.2,44.7-0.4c-15.3,2.1-30.6,4.1-45.9,6.2
		c-4.9,0.7-10.2,1.5-13.9,4.8c19.2,0.4,38.5,0.4,57.7,0.2c-19,5-37.8,11-56.2,17.9c19.2-0.5,38.3-1,57.5-1.6
		c-18.3,3.6-36.3,8.2-54,13.9c17.3-2.6,34.9-3.3,52.4-2.2c-20.5,2.5-41,5-61.5,7.6c16.8-0.4,33.7,0.3,50.4,2.1
		c-12.3,3.5-24.7,7-37,10.5c-0.2-1.2-0.4-2.4-0.7-3.6c-1.5,2.8-3,5.5-4.5,8.3c12.9,0.7,25.8,1.4,38.7,2.1c-18.2,2-36.3,3.9-54.5,5.9
		c0.3,2.4,3.4,3.1,5.8,3.2c15.8,0.7,31.5,1.5,47.3,2.2c-16.8,11.4-39.7,5.8-59.3,11.2c20.1,0,40.2-0.1,60.2-0.1
		c-4.5-0.3-8.9-0.7-13.4-1c5.5,1.5,10.8,3.7,15.7,6.6c-16.5,7.1-34.1,11.6-51.9,13.3c20.4,0.8,40.8,1.7,61.2,2.5
		c-20.4,3.2-40.6,7.3-60.6,12.3c20.1,0.1,40.2,0.1,60.4,0.2c-19.6,3.9-39.3,7.9-58.9,11.8c19.5-0.2,39.1,1,58.4,3.7
		c-22.2,9.9-49.7,6.2-69.3,20.5c29-2.9,58.2-4.4,87.3-4.4c-26.3,6-52.7,12.1-79,18.1c32.1-3,64.4-2.9,96.6-2.7
		c-27.7,1.9-55.6,2.6-83.4,2.1c17.7-5.6,35.5-11.1,53.2-16.7c-15.9,1.6-31.9,1.5-47.7-0.2c19.5-1.3,39-3.4,58.3-6.3"/>
</g>
</svg>
