<?xml version="1.0" encoding="utf-8"?>
<!-- Generator: Adobe Illustrator 19.2.1, SVG Export Plug-In . SVG Version: 6.00 Build 0)  -->
<svg version="1.0" id="Layer_2" xmlns="http://www.w3.org/2000/svg" xmlns:xlink="http://www.w3.org/1999/xlink" x="0px" y="0px"
	 width="432px" height="432px" viewBox="0 0 432 432" enable-background="new 0 0 432 432" xml:space="preserve">
<path fill="none" stroke="#000000" stroke-width="2" stroke-miterlimit="10" d="M220,308.3c0,0,14.3,0.7,19.6-3.7l1.3,15
	c0,0,34.3,3,34.7-3.3c0.3-6.3-19-11.7-19-11.7l2.3-11c0,0,23.7-25.3,15.7-67.3c0,0,36.7-2.7,35.7-18.7s-27-25-27-25
	s12-69.4-8.7-67.7s-6.1,57.8-6.1,57.8S255,114,231.3,126.3s25,65.3,25,65.3s-7,4.3-7,17.3c0,0-71.7-28.3-107.3,61.3
	c0,0-22.4,2.7-12.5,22.7c9.9,20,23.7,5.3,23.7,5.3l4.1,1.7c0,0-9,10.8,0,20.9h70.3c0,0,13.4-14-47.3-22.1"/>
</svg>
