<?xml version="1.0" encoding="utf-8"?>
<!-- Generator: Adobe Illustrator 21.0.0, SVG Export Plug-In . SVG Version: 6.00 Build 0)  -->
<!DOCTYPE svg PUBLIC "-//W3C//DTD SVG 1.0//EN" "http://www.w3.org/TR/2001/REC-SVG-20010904/DTD/svg10.dtd">
<svg version="1.0" id="Layer_2" xmlns="http://www.w3.org/2000/svg" xmlns:xlink="http://www.w3.org/1999/xlink" x="0px" y="0px"
	 width="311px" height="272px" viewBox="0 0 311 272" enable-background="new 0 0 311 272" xml:space="preserve">
<path fill="#FFFFFF" stroke="#000000" stroke-width="4" stroke-miterlimit="10" d="M149.4,21.9l-7.1-1.2L129.8,15l-9.3-2.1h-16.3
	H89.7l-10.3,5.8l-16.3,6.1l-4.6,3.6l-9.6,5.1c0,0-8.9,5.4-12,10.2c-3.2,4.8-1.2,4.5-4.4,10.6c-3.2,5.9-2.6,7.1-5,13.7
	c-2.4,6.6-5.3,14.4-5.3,14.4L19,102.2c0,0,0,10.6-1.1,25.9c-1.1,15.5-0.7,6.1-2.1,13.9c-1.4,7.8-1.1,9.7-2.8,12.1s0,25.9,0,25.9
	l3.8,13.7c0,0,2.1,13.9,3.2,21c1.1,7.1,8.8,11.6,8.8,11.6l6.1,6.3c0,0,11.4,2.6,13.8,2.6s26.1-2.6,26.1-2.6s7.2-0.2,15.4,3.6
	c8.2,3.8,18.8,8.7,18.8,8.7s4.3,1.2,10.6,3.3c6.4,2.3,3.8,0,13.1-0.5c9.3-0.7,15.7-2.8,15.7-2.8s5.3,0,10.3,0c5,0,5.3,1.7,8.5,4.5
	c3.2,2.6,2.4,2.1,13.1,5.4c10.6,3.3,8.5,0,12.5,0s8.9-5,12.2-6.6s10.1-11.1,10.1-11.1l8.2-4.8l7.8-2.3l6.4-6.6
	c0,0,5.3-13.5,6.4-21.8c1.1-8.3,1.7-10.7,2.4-14.5c0.7-3.8,1.5-9.4,1.8-13.2c0.4-3.8,1.8-11.1,2.9-16.5s-1.1-12.1-2.1-28.1
	c-1.1-16,0-4.5,0-4.5l-2.9-18.7l-2.1-8.7L241.9,87c0,0-1.4-7.8-1.4-12.9s-2.4-10.2-2.4-10.2l-3.9-8.7l-12-12.9c0,0,0,0-6.1-5.4
	S203.6,33,203.6,33l-7.1-2.1l-7.8-5.4l-5.6-5.3l-10.6-1.3l-13.5,2.8L149.4,21.9z"/>
<path fill="#FFFFFF" stroke="#000000" stroke-width="4" stroke-miterlimit="10" d="M283.8,90c-2.2,0.3-1.4,1.7-3.2,3.5
	c-1.8,1.8-0.6,1.6-1.8,4.8c-1.2,3.2,1.8,2,2.8,3.2s1.5,1.6,3,3.2s4.5,1.8,4.5,1.8h5.8c0,0,1.6-0.5,4.4-2.2c2.8-1.7,0-0.1,1-1.5
	s0-4.2,0-4.2l-2.2-5.2l-3.5-3.2h-5.5C289.1,90.2,286,89.7,283.8,90z"/>
<path fill="#FFFFFF" stroke="#000000" stroke-width="4" stroke-miterlimit="10" d="M259.9,106.1c-1.5,0.3-2,1.5-3,2.5s0,4.5,0,6.5
	s0,2.2,0,3s4.5,6,4.5,6h5l7.2-1c0,0,0,0,2-2.2s0-6,0-6l-1.5-4.2l-2-4.5h-5.8C266.3,106.2,261.4,105.8,259.9,106.1z"/>
</svg>
