<?xml version="1.0" encoding="utf-8"?>
<!-- Generator: Adobe Illustrator 21.0.0, SVG Export Plug-In . SVG Version: 6.00 Build 0)  -->
<!DOCTYPE svg PUBLIC "-//W3C//DTD SVG 1.0//EN" "http://www.w3.org/TR/2001/REC-SVG-20010904/DTD/svg10.dtd">
<svg version="1.0" id="Layer_1" xmlns="http://www.w3.org/2000/svg" xmlns:xlink="http://www.w3.org/1999/xlink" x="0px" y="0px"
	 width="432px" height="432px" viewBox="0 0 432 432" enable-background="new 0 0 432 432" xml:space="preserve">
<path fill="none" stroke="#000000" stroke-width="4" stroke-miterlimit="10" d="M256.4,209.3c0,0-18.9-41.3-67.9-30.3
	c0,0-45.2,11-43.8,44.8c0,0-4,0.2-5,4.8s7,21.2,63.5,10.8s64.9-24.8,62.2-29.4C265.5,209.9,263.4,205.3,256.4,209.3z"/>
<path fill="none" stroke="#000000" stroke-width="4" stroke-miterlimit="10" d="M144.8,223.8"/>
<path fill="none" stroke="#000000" stroke-width="4" stroke-miterlimit="10" d="M144.8,223.8c0,0,58.6,18.2,111.7-14.5"/>
<path fill="none" stroke="#000000" stroke-width="4" stroke-miterlimit="10" d="M265.9,209.6c0,0,17.2-15.8,37.3-7.9
	c0,0,9.3,30-46.2,34.5l-1.9,12.8c0,0,11.9,1.6,14.8,9.2h-30.2l1-16.7c0,0-30.3,12.7-64.8,8.2"/>
<path fill="none" stroke="#000000" stroke-width="4" stroke-miterlimit="10" d="M157.4,241.5l-7.2,14.8c0,0,13.8,8.4,34.6,5
	c0,0-2.5-11.2-12.8-13.1"/>
<path fill="none" stroke="#000000" stroke-width="4" stroke-miterlimit="10" d="M142.8,235.2c0,0-23.5,0.7-22.4,2.8
	s13.4,11.1,34.6,3"/>
</svg>
