<?xml version="1.0" encoding="utf-8"?>
<!-- Generator: Adobe Illustrator 21.0.0, SVG Export Plug-In . SVG Version: 6.00 Build 0)  -->
<!DOCTYPE svg PUBLIC "-//W3C//DTD SVG 1.0//EN" "http://www.w3.org/TR/2001/REC-SVG-20010904/DTD/svg10.dtd">
<svg version="1.0" id="Lines" xmlns="http://www.w3.org/2000/svg" xmlns:xlink="http://www.w3.org/1999/xlink" x="0px" y="0px"
	 width="678.1px" height="1854.2px" viewBox="0 0 678.1 1854.2" enable-background="new 0 0 678.1 1854.2" xml:space="preserve">
<line fill="none" stroke="#27AAE1" stroke-width="4" stroke-miterlimit="10" x1="572" y1="828.7" x2="480.5" y2="793"/>
<ellipse transform="matrix(0.1309 -0.9914 0.9914 0.1309 -268.9303 1002.511)" fill="none" stroke="#010101" stroke-width="3" stroke-miterlimit="10" cx="437.3" cy="654.6" rx="23" ry="16.5"/>
<polyline fill="none" stroke="#010101" stroke-width="3" stroke-miterlimit="10" points="429.8,676.2 429.8,682.9 437.6,683.9 
	438.9,678.1 "/>
<path fill="none" stroke="#010101" stroke-width="3" stroke-miterlimit="10" d="M413.3,760.1h26.3l12.3-72.8
	c-16.1-5.2-40-4.2-40-4.2L413.3,760.1z"/>
<path fill="none" stroke="#010101" stroke-width="3" stroke-miterlimit="10" d="M411.6,683.4c0,0-17.1,17-24.1,51.9"/>
<path fill="none" stroke="#010101" stroke-width="3" stroke-miterlimit="10" d="M387.5,735.3c-0.3,4.3-2.7,22.3-2.8,27l6.3,1.5
	c0,0,4.2-17,6.3-25.6"/>
<path fill="none" stroke="#010101" stroke-width="3" stroke-miterlimit="10" d="M397.3,738c3.3-10.3,8-21.3,14.3-27"/>
<line fill="none" stroke="#010101" stroke-width="3" stroke-miterlimit="10" x1="402" y1="725.7" x2="393.3" y2="714.7"/>
<path fill="none" stroke="#010101" stroke-width="3" stroke-miterlimit="10" d="M384.6,762.1l-6.3,9.5c0,0,2.8,8.8,3.2,8.8
	c0.3,0,15,0,15,0l2.3-11l-8.2-6"/>
<path fill="none" stroke="#010101" stroke-width="3" stroke-miterlimit="10" d="M450.7,692.5c0,0,2.8,33.5,32.3,44.8l-2.5,6.3
	c0,0-22.3,0.2-34.5-25.3"/>
<polyline fill="none" stroke="#010101" stroke-width="3" stroke-miterlimit="10" points="482.9,737.7 488.9,733.8 499.3,736.8 
	495.2,752.8 482.2,749.8 480.5,744.6 "/>
<path fill="none" stroke="#010101" stroke-width="3" stroke-miterlimit="10" d="M413.3,760.1c9.2,60.8-9.3,122.5-9.3,122.5l10.5,1
	c20.6-41.5,25-123.7,25-123.7"/>
<path fill="none" stroke="#010101" stroke-width="3" stroke-miterlimit="10" d="M439.7,757.8c15.6,47.4,24.8,127.2,24.8,127.2l-10,1
	c0,0-13-66.6-20.3-77.2"/>
<polyline fill="none" stroke="#010101" stroke-width="3" stroke-miterlimit="10" points="414.4,883.8 436.4,889.5 423.3,897.5 
	400.8,888 404,882.8 "/>
<polyline fill="none" stroke="#010101" stroke-width="3" stroke-miterlimit="10" points="454.6,886.2 454.6,894.8 482.5,899.1 
	492.2,886.2 464.6,885 "/>
<line fill="none" stroke="#27AAE1" stroke-width="4" stroke-miterlimit="10" x1="572" y1="1031.4" x2="480.5" y2="1064.5"/>
<ellipse transform="matrix(0.2321 -0.9727 0.9727 0.2321 -592.9194 1172.2999)" fill="none" stroke="#010101" stroke-width="3" stroke-miterlimit="10" cx="446" cy="961.7" rx="24.8" ry="17.1"/>
<polyline fill="none" stroke="#010101" stroke-width="3" stroke-miterlimit="10" points="436.6,984.2 435.1,991.7 443.6,993.4 
	445.4,985.9 "/>
<path fill="none" stroke="#010101" stroke-width="3" stroke-miterlimit="10" d="M413.1,1060.6c1.7-16,7.5-68.9,7.5-68.9
	s22.6-0.5,32.6,6.3l-15,70.6c0,0-16.3-2.2-23-3"/>
<polyline fill="none" stroke="#010101" stroke-width="3" stroke-miterlimit="10" points="420.6,991.7 391.8,1013.8 400.5,1054.3 
	407.4,1052.6 404.3,1017 "/>
<line fill="none" stroke="#010101" stroke-width="3" stroke-miterlimit="10" x1="418.9" y1="1008.2" x2="393.6" y2="1023.8"/>
<polyline fill="none" stroke="#010101" stroke-width="3" stroke-miterlimit="10" points="400.5,1054.3 398.6,1064.8 405.3,1072 
	417.3,1066.3 407.4,1052.6 "/>
<polyline fill="none" stroke="#010101" stroke-width="3" stroke-miterlimit="10" points="451.7,1004.9 462.7,1027.7 486,1020.7 
	487.7,1027 460.2,1040.7 447.9,1025.7 "/>
<path fill="none" stroke="#010101" stroke-width="3" stroke-miterlimit="10" d="M486,1020.7v-5.3l10.7-6.7l4.5,6c0,0,4.3,7.7,4.5,8"
	/>
<path fill="none" stroke="#010101" stroke-width="3" stroke-miterlimit="10" d="M505.7,1022.8c-1.7,1.2-9.7,7.8-9.7,7.8l-8.3-3.5"/>
<path fill="none" stroke="#010101" stroke-width="3" stroke-miterlimit="10" d="M435.1,1068.5c0,0-5.7,75.6-48.1,115.5l-5.5-3.3
	c0,0,31.6-71.4,31.1-111.9"/>
<path fill="none" stroke="#010101" stroke-width="3" stroke-miterlimit="10" d="M438.2,1068.5c0,0,26,58.8,30.8,113.4l-7,2.2
	c0,0-26-83.9-30.3-92.7"/>
<path fill="none" stroke="#010101" stroke-width="3" stroke-miterlimit="10" d="M381,1180.5l-8,7.7c0,0,14.7,13.3,15.3,13.3
	s23.6-0.8,23.6-0.8l-25-16.8"/>
<path fill="none" stroke="#010101" stroke-width="3" stroke-miterlimit="10" d="M462.1,1184.2v10.3c0,0,13.3-1.7,23.3-2.7l11.3-0.7
	l-1-11c-10.3,0.8-26.6,2-26.6,2"/>
<line fill="none" stroke="#27AAE1" stroke-width="4" stroke-miterlimit="10" x1="402" y1="670" x2="315.5" y2="515"/>
<ellipse transform="matrix(0.1309 -0.9914 0.9914 0.1309 -127.4617 568.5552)" fill="none" stroke="#010101" stroke-width="3" stroke-miterlimit="10" cx="260.5" cy="357" rx="23" ry="16.5"/>
<polyline fill="none" stroke="#010101" stroke-width="3" stroke-miterlimit="10" points="253,378.7 253,385.3 260.8,386.3 
	262.2,380.5 "/>
<path fill="none" stroke="#010101" stroke-width="3" stroke-miterlimit="10" d="M236.5,462.6h26.3l12.3-72.8
	c-16.1-5.2-40-4.2-40-4.2L236.5,462.6z"/>
<path fill="none" stroke="#010101" stroke-width="3" stroke-miterlimit="10" d="M234.9,385.8c0,0-17.1,17-24.1,51.9"/>
<path fill="none" stroke="#010101" stroke-width="3" stroke-miterlimit="10" d="M210.7,437.8c-0.3,4.3-2.7,22.3-2.8,27l6.3,1.5
	c0,0,4.2-17,6.3-25.6"/>
<path fill="none" stroke="#010101" stroke-width="3" stroke-miterlimit="10" d="M220.6,440.4c3.3-10.3,8-21.3,14.3-27"/>
<line fill="none" stroke="#010101" stroke-width="3" stroke-miterlimit="10" x1="225.2" y1="428.1" x2="216.6" y2="417.1"/>
<path fill="none" stroke="#010101" stroke-width="3" stroke-miterlimit="10" d="M207.9,464.6l-6.3,9.5c0,0,2.8,8.8,3.2,8.8
	c0.3,0,15,0,15,0l2.3-11l-8.2-6"/>
<path fill="none" stroke="#010101" stroke-width="3" stroke-miterlimit="10" d="M274,395c0,0,2.8,33.5,32.3,44.8l-2.5,6.3
	c0,0-22.3,0.2-34.5-25.3"/>
<polyline fill="none" stroke="#010101" stroke-width="3" stroke-miterlimit="10" points="306.1,440.1 312.1,436.3 322.6,439.3 
	318.5,455.3 305.5,452.3 303.8,447.1 "/>
<path fill="none" stroke="#010101" stroke-width="3" stroke-miterlimit="10" d="M236.5,462.6c9.2,60.8-9.3,122.5-9.3,122.5l10.5,1
	c20.6-41.5,25-123.7,25-123.7"/>
<path fill="none" stroke="#010101" stroke-width="3" stroke-miterlimit="10" d="M263,460.2c15.6,47.4,24.8,127.2,24.8,127.2l-10,1
	c0,0-13-66.6-20.3-77.2"/>
<polyline fill="none" stroke="#010101" stroke-width="3" stroke-miterlimit="10" points="237.7,586.3 259.7,591.9 246.5,599.9 
	224.1,590.4 227.2,585.3 "/>
<polyline fill="none" stroke="#010101" stroke-width="3" stroke-miterlimit="10" points="277.8,588.6 277.8,597.3 305.8,601.6 
	315.5,588.6 287.8,587.4 "/>
<path fill="none" stroke="#27AAE1" stroke-width="4" stroke-miterlimit="10" d="M391,810.9c-5-0.9-80,30.1-80,30.1"/>
<ellipse transform="matrix(0.2321 -0.9727 0.9727 0.2321 -439.2737 771.9663)" fill="none" stroke="#010101" stroke-width="3" stroke-miterlimit="10" cx="269.3" cy="664.2" rx="24.8" ry="17.1"/>
<polyline fill="none" stroke="#010101" stroke-width="3" stroke-miterlimit="10" points="259.9,686.7 258.4,694.2 266.8,695.8 
	268.7,688.3 "/>
<path fill="none" stroke="#010101" stroke-width="3" stroke-miterlimit="10" d="M236.4,763.1c1.7-16,7.5-68.9,7.5-68.9
	s22.6-0.5,32.6,6.3l-15,70.6c0,0-16.3-2.2-23-3"/>
<polyline fill="none" stroke="#010101" stroke-width="3" stroke-miterlimit="10" points="243.9,694.2 215.1,716.3 223.7,756.8 
	230.7,755.1 227.6,719.5 "/>
<line fill="none" stroke="#010101" stroke-width="3" stroke-miterlimit="10" x1="242.2" y1="710.6" x2="216.9" y2="726.3"/>
<polyline fill="none" stroke="#010101" stroke-width="3" stroke-miterlimit="10" points="223.7,756.8 221.9,767.2 228.6,774.4 
	240.5,768.7 230.7,755.1 "/>
<polyline fill="none" stroke="#010101" stroke-width="3" stroke-miterlimit="10" points="275,707.3 286,730.1 309.3,723.1 
	311,729.4 283.5,743.1 271.2,728.1 "/>
<path fill="none" stroke="#010101" stroke-width="3" stroke-miterlimit="10" d="M309.3,723.1v-5.3l10.7-6.7l4.5,6c0,0,4.3,7.7,4.5,8
	"/>
<path fill="none" stroke="#010101" stroke-width="3" stroke-miterlimit="10" d="M328.9,725.3c-1.7,1.2-9.7,7.8-9.7,7.8l-8.3-3.5"/>
<path fill="none" stroke="#010101" stroke-width="3" stroke-miterlimit="10" d="M258.4,770.9c0,0-5.7,75.6-48.1,115.5l-5.5-3.3
	c0,0,31.6-71.4,31.1-111.9"/>
<path fill="none" stroke="#010101" stroke-width="3" stroke-miterlimit="10" d="M261.5,770.9c0,0,26,58.8,30.8,113.4l-7,2.2
	c0,0-26-83.9-30.3-92.7"/>
<path fill="none" stroke="#010101" stroke-width="3" stroke-miterlimit="10" d="M204.2,882.9l-8,7.7c0,0,14.7,13.3,15.3,13.3
	c0.7,0,23.6-0.8,23.6-0.8l-25-16.8"/>
<path fill="none" stroke="#010101" stroke-width="3" stroke-miterlimit="10" d="M285.3,886.6v10.3c0,0,13.3-1.7,23.3-2.7l11.3-0.7
	l-1-11c-10.3,0.8-26.6,2-26.6,2"/>
<line fill="none" stroke="#27AAE1" stroke-width="4" stroke-miterlimit="10" x1="384.7" y1="1118.8" x2="306.3" y2="1082"/>
<ellipse transform="matrix(0.1309 -0.9914 0.9914 0.1309 -717.4504 1085.7498)" fill="none" stroke="#010101" stroke-width="3" stroke-miterlimit="10" cx="260.5" cy="952.1" rx="23" ry="16.5"/>
<polyline fill="none" stroke="#010101" stroke-width="3" stroke-miterlimit="10" points="253,973.8 253,980.4 260.8,981.4 
	262.2,975.6 "/>
<path fill="none" stroke="#010101" stroke-width="3" stroke-miterlimit="10" d="M236.5,1057.7h26.3l12.3-72.8
	c-16.1-5.2-40-4.2-40-4.2L236.5,1057.7z"/>
<path fill="none" stroke="#010101" stroke-width="3" stroke-miterlimit="10" d="M234.9,980.9c0,0-17.1,17-24.1,51.9"/>
<path fill="none" stroke="#010101" stroke-width="3" stroke-miterlimit="10" d="M210.7,1032.9c-0.3,4.3-2.7,22.3-2.8,27l6.3,1.5
	c0,0,4.2-17,6.3-25.6"/>
<path fill="none" stroke="#010101" stroke-width="3" stroke-miterlimit="10" d="M220.6,1035.5c3.3-10.3,8-21.3,14.3-27"/>
<line fill="none" stroke="#010101" stroke-width="3" stroke-miterlimit="10" x1="225.2" y1="1023.2" x2="216.6" y2="1012.2"/>
<path fill="none" stroke="#010101" stroke-width="3" stroke-miterlimit="10" d="M207.9,1059.7l-6.3,9.5c0,0,2.8,8.8,3.2,8.8
	c0.3,0,15,0,15,0l2.3-11l-8.2-6"/>
<path fill="none" stroke="#010101" stroke-width="3" stroke-miterlimit="10" d="M274,990.1c0,0,2.8,33.5,32.3,44.8l-2.5,6.3
	c0,0-22.3,0.2-34.5-25.3"/>
<polyline fill="none" stroke="#010101" stroke-width="3" stroke-miterlimit="10" points="306.1,1035.2 312.1,1031.4 322.6,1034.4 
	318.5,1050.4 305.5,1047.4 303.8,1042.2 "/>
<path fill="none" stroke="#010101" stroke-width="3" stroke-miterlimit="10" d="M236.5,1057.7c9.2,60.8-9.3,122.5-9.3,122.5l10.5,1
	c20.6-41.5,25-123.7,25-123.7"/>
<path fill="none" stroke="#010101" stroke-width="3" stroke-miterlimit="10" d="M263,1055.4c15.6,47.4,24.8,127.2,24.8,127.2l-10,1
	c0,0-13-66.6-20.3-77.2"/>
<polyline fill="none" stroke="#010101" stroke-width="3" stroke-miterlimit="10" points="237.7,1181.4 259.7,1187 246.5,1195 
	224.1,1185.5 227.2,1180.4 "/>
<polyline fill="none" stroke="#010101" stroke-width="3" stroke-miterlimit="10" points="277.8,1183.7 277.8,1192.4 305.8,1196.7 
	315.5,1183.7 287.8,1182.5 "/>
<line fill="none" stroke="#27AAE1" stroke-width="4" stroke-miterlimit="10" x1="365" y1="1201.5" x2="296.6" y2="1295.1"/>
<ellipse transform="matrix(0.2321 -0.9727 0.9727 0.2321 -1018.1299 1228.9435)" fill="none" stroke="#010101" stroke-width="3" stroke-miterlimit="10" cx="269.3" cy="1259.3" rx="24.8" ry="17.1"/>
<polyline fill="none" stroke="#010101" stroke-width="3" stroke-miterlimit="10" points="259.9,1281.8 258.4,1289.3 266.8,1290.9 
	268.7,1283.4 "/>
<path fill="none" stroke="#010101" stroke-width="3" stroke-miterlimit="10" d="M236.4,1358.2c1.7-16,7.5-68.9,7.5-68.9
	s22.6-0.5,32.6,6.3l-15,70.6c0,0-16.3-2.2-23-3"/>
<polyline fill="none" stroke="#010101" stroke-width="3" stroke-miterlimit="10" points="243.9,1289.3 215.1,1311.4 223.7,1351.9 
	230.7,1350.2 227.6,1314.6 "/>
<line fill="none" stroke="#010101" stroke-width="3" stroke-miterlimit="10" x1="242.2" y1="1305.7" x2="216.9" y2="1321.4"/>
<polyline fill="none" stroke="#010101" stroke-width="3" stroke-miterlimit="10" points="223.7,1351.9 221.9,1362.3 228.6,1369.5 
	240.5,1363.8 230.7,1350.2 "/>
<polyline fill="none" stroke="#010101" stroke-width="3" stroke-miterlimit="10" points="275,1302.4 286,1325.2 309.3,1318.2 
	311,1324.6 283.5,1338.2 271.2,1323.2 "/>
<path fill="none" stroke="#010101" stroke-width="3" stroke-miterlimit="10" d="M309.3,1318.2v-5.3l10.7-6.7l4.5,6
	c0,0,4.3,7.7,4.5,8"/>
<path fill="none" stroke="#010101" stroke-width="3" stroke-miterlimit="10" d="M328.9,1320.4c-1.7,1.2-9.7,7.8-9.7,7.8l-8.3-3.5"/>
<path fill="none" stroke="#010101" stroke-width="3" stroke-miterlimit="10" d="M258.4,1366c0,0-5.7,75.6-48.1,115.5l-5.5-3.3
	c0,0,31.6-71.4,31.1-111.9"/>
<path fill="none" stroke="#010101" stroke-width="3" stroke-miterlimit="10" d="M261.5,1366c0,0,26,58.8,30.8,113.4l-7,2.2
	c0,0-26-83.9-30.3-92.7"/>
<path fill="none" stroke="#010101" stroke-width="3" stroke-miterlimit="10" d="M204.2,1478.1l-8,7.7c0,0,14.7,13.3,15.3,13.3
	c0.7,0,23.6-0.8,23.6-0.8l-25-16.8"/>
<path fill="none" stroke="#010101" stroke-width="3" stroke-miterlimit="10" d="M285.3,1481.7v10.3c0,0,13.3-1.7,23.3-2.7l11.3-0.7
	l-1-11c-10.3,0.8-26.6,2-26.6,2"/>
<line fill="none" stroke="#27AAE1" stroke-width="4" stroke-miterlimit="10" x1="225.2" y1="369" x2="134.2" y2="224"/>
<ellipse transform="matrix(0.1309 -0.9914 0.9914 0.1309 21.4551 128.3358)" fill="none" stroke="#010101" stroke-width="3" stroke-miterlimit="10" cx="83.9" cy="51.9" rx="23" ry="16.5"/>
<polyline fill="none" stroke="#010101" stroke-width="3" stroke-miterlimit="10" points="76.3,73.6 76.3,80.3 84.1,81.3 85.4,75.5 
	"/>
<path fill="none" stroke="#010101" stroke-width="3" stroke-miterlimit="10" d="M59.8,157.5h26.3l12.3-72.8c-16.1-5.2-40-4.2-40-4.2
	L59.8,157.5z"/>
<path fill="none" stroke="#010101" stroke-width="3" stroke-miterlimit="10" d="M58.1,80.8c0,0-17.1,17-24.1,51.9"/>
<path fill="none" stroke="#010101" stroke-width="3" stroke-miterlimit="10" d="M34,132.7c-0.3,4.3-2.7,22.3-2.8,27l6.3,1.5
	c0,0,4.2-17,6.3-25.6"/>
<path fill="none" stroke="#010101" stroke-width="3" stroke-miterlimit="10" d="M43.8,135.4c3.3-10.3,8-21.3,14.3-27"/>
<line fill="none" stroke="#010101" stroke-width="3" stroke-miterlimit="10" x1="48.5" y1="123.1" x2="39.8" y2="112.1"/>
<path fill="none" stroke="#010101" stroke-width="3" stroke-miterlimit="10" d="M31.2,159.5l-6.3,9.5c0,0,2.8,8.8,3.2,8.8
	c0.3,0,15,0,15,0l2.3-11l-8.2-6"/>
<path fill="none" stroke="#010101" stroke-width="3" stroke-miterlimit="10" d="M97.3,89.9c0,0,2.8,33.5,32.3,44.8l-2.5,6.3
	c0,0-22.3,0.2-34.5-25.3"/>
<polyline fill="none" stroke="#010101" stroke-width="3" stroke-miterlimit="10" points="129.4,135.1 135.4,131.2 145.9,134.2 
	141.7,150.2 128.7,147.2 127.1,142.1 "/>
<path fill="none" stroke="#010101" stroke-width="3" stroke-miterlimit="10" d="M59.8,157.5C69,218.3,50.5,280,50.5,280l10.5,1
	c20.6-41.5,25-123.7,25-123.7"/>
<path fill="none" stroke="#010101" stroke-width="3" stroke-miterlimit="10" d="M86.3,155.2c15.6,47.4,24.8,127.2,24.8,127.2l-10,1
	c0,0-13-66.6-20.3-77.2"/>
<polyline fill="none" stroke="#010101" stroke-width="3" stroke-miterlimit="10" points="61,281.2 83,286.9 69.8,294.9 47.3,285.4 
	50.5,280.2 "/>
<polyline fill="none" stroke="#010101" stroke-width="3" stroke-miterlimit="10" points="101.1,283.6 101.1,292.2 129.1,296.5 
	138.7,283.6 111.1,282.4 "/>
<line fill="none" stroke="#27AAE1" stroke-width="4" stroke-miterlimit="10" x1="214.2" y1="508" x2="143.2" y2="541"/>
<ellipse transform="matrix(0.2321 -0.9727 0.9727 0.2321 -278.3009 365.7248)" fill="none" stroke="#010101" stroke-width="3" stroke-miterlimit="10" cx="92.5" cy="359.1" rx="24.8" ry="17.1"/>
<polyline fill="none" stroke="#010101" stroke-width="3" stroke-miterlimit="10" points="83.1,381.6 81.6,389.1 90.1,390.8 
	91.9,383.3 "/>
<path fill="none" stroke="#010101" stroke-width="3" stroke-miterlimit="10" d="M59.6,458c1.7-16,7.5-68.9,7.5-68.9
	s22.6-0.5,32.6,6.3l-15,70.6c0,0-16.3-2.2-23-3"/>
<polyline fill="none" stroke="#010101" stroke-width="3" stroke-miterlimit="10" points="67.1,389.1 38.3,411.3 47,451.7 54,450 
	50.8,414.4 "/>
<line fill="none" stroke="#010101" stroke-width="3" stroke-miterlimit="10" x1="65.5" y1="405.6" x2="40.2" y2="421.2"/>
<polyline fill="none" stroke="#010101" stroke-width="3" stroke-miterlimit="10" points="47,451.7 45.2,462.2 51.8,469.4 
	63.8,463.7 54,450 "/>
<polyline fill="none" stroke="#010101" stroke-width="3" stroke-miterlimit="10" points="98.3,402.3 109.3,425.1 132.6,418.1 
	134.2,424.4 106.8,438.1 94.4,423.1 "/>
<path fill="none" stroke="#010101" stroke-width="3" stroke-miterlimit="10" d="M132.6,418.1v-5.3l10.7-6.7l4.5,6c0,0,4.3,7.7,4.5,8
	"/>
<path fill="none" stroke="#010101" stroke-width="3" stroke-miterlimit="10" d="M152.2,420.2c-1.7,1.2-9.7,7.8-9.7,7.8l-8.3-3.5"/>
<path fill="none" stroke="#010101" stroke-width="3" stroke-miterlimit="10" d="M81.6,465.9c0,0-5.7,75.6-48.1,115.5l-5.5-3.3
	c0,0,31.6-71.4,31.1-111.9"/>
<path fill="none" stroke="#010101" stroke-width="3" stroke-miterlimit="10" d="M84.8,465.9c0,0,26,58.8,30.8,113.4l-7,2.2
	c0,0-26-83.9-30.3-92.7"/>
<path fill="none" stroke="#010101" stroke-width="3" stroke-miterlimit="10" d="M27.5,577.9l-8,7.7c0,0,14.7,13.3,15.3,13.3
	s23.6-0.8,23.6-0.8l-25-16.8"/>
<path fill="none" stroke="#010101" stroke-width="3" stroke-miterlimit="10" d="M108.6,581.6v10.3c0,0,13.3-1.7,23.3-2.7l11.3-0.7
	l-1-11c-10.3,0.8-26.6,2-26.6,2"/>
<line fill="none" stroke="#27AAE1" stroke-width="4" stroke-miterlimit="10" x1="210.8" y1="793" x2="134.2" y2="793"/>
<ellipse transform="matrix(0.1309 -0.9914 0.9914 0.1309 -568.5334 645.5302)" fill="none" stroke="#010101" stroke-width="3" stroke-miterlimit="10" cx="83.9" cy="647" rx="23" ry="16.5"/>
<polyline fill="none" stroke="#010101" stroke-width="3" stroke-miterlimit="10" points="76.3,668.7 76.3,675.4 84.1,676.4 
	85.4,670.6 "/>
<path fill="none" stroke="#010101" stroke-width="3" stroke-miterlimit="10" d="M59.8,752.6h26.3l12.3-72.8c-16.1-5.2-40-4.2-40-4.2
	L59.8,752.6z"/>
<path fill="none" stroke="#010101" stroke-width="3" stroke-miterlimit="10" d="M58.1,675.9c0,0-17.1,17-24.1,51.9"/>
<path fill="none" stroke="#010101" stroke-width="3" stroke-miterlimit="10" d="M34,727.8c-0.3,4.3-2.7,22.3-2.8,27l6.3,1.5
	c0,0,4.2-17,6.3-25.6"/>
<path fill="none" stroke="#010101" stroke-width="3" stroke-miterlimit="10" d="M43.8,730.5c3.3-10.3,8-21.3,14.3-27"/>
<line fill="none" stroke="#010101" stroke-width="3" stroke-miterlimit="10" x1="48.5" y1="718.2" x2="39.8" y2="707.2"/>
<path fill="none" stroke="#010101" stroke-width="3" stroke-miterlimit="10" d="M31.2,754.6l-6.3,9.5c0,0,2.8,8.8,3.2,8.8
	c0.3,0,15,0,15,0l2.3-11l-8.2-6"/>
<path fill="none" stroke="#010101" stroke-width="3" stroke-miterlimit="10" d="M97.3,685c0,0,2.8,33.5,32.3,44.8l-2.5,6.3
	c0,0-22.3,0.2-34.5-25.3"/>
<polyline fill="none" stroke="#010101" stroke-width="3" stroke-miterlimit="10" points="129.4,730.2 135.4,726.3 145.9,729.3 
	141.7,745.3 128.7,742.3 127.1,737.2 "/>
<path fill="none" stroke="#010101" stroke-width="3" stroke-miterlimit="10" d="M59.8,752.6c9.2,60.8-9.3,122.5-9.3,122.5l10.5,1
	c20.6-41.5,25-123.7,25-123.7"/>
<path fill="none" stroke="#010101" stroke-width="3" stroke-miterlimit="10" d="M86.3,750.3c15.6,47.4,24.8,127.2,24.8,127.2l-10,1
	c0,0-13-66.6-20.3-77.2"/>
<polyline fill="none" stroke="#010101" stroke-width="3" stroke-miterlimit="10" points="61,876.3 83,882 69.8,890 47.3,880.5 
	50.5,875.3 "/>
<polyline fill="none" stroke="#010101" stroke-width="3" stroke-miterlimit="10" points="101.1,878.7 101.1,887.3 129.1,891.7 
	138.7,878.7 111.1,877.5 "/>
<line fill="none" stroke="#27AAE1" stroke-width="4" stroke-miterlimit="10" x1="215.6" y1="1100.4" x2="136.5" y2="1100.4"/>
<ellipse transform="matrix(0.2321 -0.9727 0.9727 0.2321 -857.1571 822.7018)" fill="none" stroke="#010101" stroke-width="3" stroke-miterlimit="10" cx="92.5" cy="954.2" rx="24.8" ry="17.1"/>
<polyline fill="none" stroke="#010101" stroke-width="3" stroke-miterlimit="10" points="83.1,976.7 81.6,984.2 90.1,985.9 
	91.9,978.4 "/>
<path fill="none" stroke="#010101" stroke-width="3" stroke-miterlimit="10" d="M59.6,1053.1c1.7-16,7.5-68.9,7.5-68.9
	s22.6-0.5,32.6,6.3l-15,70.6c0,0-16.3-2.2-23-3"/>
<polyline fill="none" stroke="#010101" stroke-width="3" stroke-miterlimit="10" points="67.1,984.2 38.3,1006.4 47,1046.8 
	54,1045.2 50.8,1009.5 "/>
<line fill="none" stroke="#010101" stroke-width="3" stroke-miterlimit="10" x1="65.5" y1="1000.7" x2="40.2" y2="1016.4"/>
<polyline fill="none" stroke="#010101" stroke-width="3" stroke-miterlimit="10" points="47,1046.8 45.2,1057.3 51.8,1064.5 
	63.8,1058.8 54,1045.2 "/>
<polyline fill="none" stroke="#010101" stroke-width="3" stroke-miterlimit="10" points="98.3,997.4 109.3,1020.2 132.6,1013.2 
	134.2,1019.5 106.8,1033.2 94.4,1018.2 "/>
<path fill="none" stroke="#010101" stroke-width="3" stroke-miterlimit="10" d="M132.6,1013.2v-5.3l10.7-6.7l4.5,6
	c0,0,4.3,7.7,4.5,8"/>
<path fill="none" stroke="#010101" stroke-width="3" stroke-miterlimit="10" d="M152.2,1015.4c-1.7,1.2-9.7,7.8-9.7,7.8l-8.3-3.5"/>
<path fill="none" stroke="#010101" stroke-width="3" stroke-miterlimit="10" d="M81.6,1061c0,0-5.7,75.6-48.1,115.5l-5.5-3.3
	c0,0,31.6-71.4,31.1-111.9"/>
<path fill="none" stroke="#010101" stroke-width="3" stroke-miterlimit="10" d="M84.8,1061c0,0,26,58.8,30.8,113.4l-7,2.2
	c0,0-26-83.9-30.3-92.7"/>
<path fill="none" stroke="#010101" stroke-width="3" stroke-miterlimit="10" d="M27.5,1173l-8,7.7c0,0,14.7,13.3,15.3,13.3
	s23.6-0.8,23.6-0.8l-25-16.8"/>
<path fill="none" stroke="#010101" stroke-width="3" stroke-miterlimit="10" d="M108.6,1176.7v10.3c0,0,13.3-1.7,23.3-2.7l11.3-0.7
	l-1-11c-10.3,0.8-26.6,2-26.6,2"/>
<path fill="none" stroke="#27AAE1" stroke-width="4" stroke-miterlimit="10" d="M201.6,1406c-2.6-2-79.6-28-79.6-28"/>
<ellipse transform="matrix(0.1309 -0.9914 0.9914 0.1309 -1177.837 1170.7791)" fill="none" stroke="#010101" stroke-width="3" stroke-miterlimit="10" cx="78.8" cy="1257.2" rx="23" ry="16.5"/>
<polyline fill="none" stroke="#010101" stroke-width="3" stroke-miterlimit="10" points="71.2,1278.8 71.2,1285.5 79,1286.5 
	80.4,1280.6 "/>
<path fill="none" stroke="#010101" stroke-width="3" stroke-miterlimit="10" d="M54.7,1362.7H81l12.3-72.8c-16.1-5.2-40-4.2-40-4.2
	L54.7,1362.7z"/>
<path fill="none" stroke="#010101" stroke-width="3" stroke-miterlimit="10" d="M53.1,1286c0,0-17.1,17-24.1,51.9"/>
<path fill="none" stroke="#010101" stroke-width="3" stroke-miterlimit="10" d="M28.9,1337.9c-0.3,4.3-2.7,22.3-2.8,27l6.3,1.5
	c0,0,4.2-17,6.3-25.6"/>
<path fill="none" stroke="#010101" stroke-width="3" stroke-miterlimit="10" d="M38.8,1340.6c3.3-10.3,8-21.3,14.3-27"/>
<line fill="none" stroke="#010101" stroke-width="3" stroke-miterlimit="10" x1="43.4" y1="1328.3" x2="34.8" y2="1317.3"/>
<path fill="none" stroke="#010101" stroke-width="3" stroke-miterlimit="10" d="M26.1,1364.7l-6.3,9.5c0,0,2.8,8.8,3.2,8.8
	c0.3,0,15,0,15,0l2.3-11l-8.2-6"/>
<path fill="none" stroke="#010101" stroke-width="3" stroke-miterlimit="10" d="M92.2,1295.1c0,0,2.8,33.5,32.3,44.8l-2.5,6.3
	c0,0-22.3,0.2-34.5-25.3"/>
<polyline fill="none" stroke="#010101" stroke-width="3" stroke-miterlimit="10" points="124.3,1340.2 130.3,1336.4 140.8,1339.4 
	136.6,1355.4 123.7,1352.4 122,1347.2 "/>
<path fill="none" stroke="#010101" stroke-width="3" stroke-miterlimit="10" d="M54.7,1362.7c9.2,60.8-9.3,122.5-9.3,122.5l10.5,1
	c20.6-41.5,25-123.7,25-123.7"/>
<path fill="none" stroke="#010101" stroke-width="3" stroke-miterlimit="10" d="M81.2,1360.4c15.6,47.4,24.8,127.2,24.8,127.2l-10,1
	c0,0-13-66.6-20.3-77.2"/>
<polyline fill="none" stroke="#010101" stroke-width="3" stroke-miterlimit="10" points="55.9,1486.4 77.9,1492.1 64.7,1500.1 
	42.2,1490.6 45.4,1485.4 "/>
<polyline fill="none" stroke="#010101" stroke-width="3" stroke-miterlimit="10" points="96,1488.8 96,1497.4 124,1501.7 
	133.6,1488.8 106,1487.6 "/>
<line fill="none" stroke="#27AAE1" stroke-width="4" stroke-miterlimit="10" x1="196.2" y1="1508" x2="122" y2="1591.4"/>
<ellipse transform="matrix(0.2321 -0.9727 0.9727 0.2321 -1454.5389 1286.2959)" fill="none" stroke="#010101" stroke-width="3" stroke-miterlimit="10" cx="87.4" cy="1564.4" rx="24.8" ry="17.1"/>
<polyline fill="none" stroke="#010101" stroke-width="3" stroke-miterlimit="10" points="78,1586.8 76.5,1594.3 85,1596 
	86.9,1588.5 "/>
<path fill="none" stroke="#010101" stroke-width="3" stroke-miterlimit="10" d="M54.6,1663.2c1.7-16,7.5-68.9,7.5-68.9
	s22.6-0.5,32.6,6.3l-15,70.6c0,0-16.3-2.2-23-3"/>
<polyline fill="none" stroke="#010101" stroke-width="3" stroke-miterlimit="10" points="62.1,1594.3 33.3,1616.4 41.9,1656.9 
	48.9,1655.2 45.7,1619.6 "/>
<line fill="none" stroke="#010101" stroke-width="3" stroke-miterlimit="10" x1="60.4" y1="1610.8" x2="35.1" y2="1626.4"/>
<polyline fill="none" stroke="#010101" stroke-width="3" stroke-miterlimit="10" points="41.9,1656.9 40.1,1667.4 46.7,1674.5 
	58.7,1668.9 48.9,1655.2 "/>
<polyline fill="none" stroke="#010101" stroke-width="3" stroke-miterlimit="10" points="93.2,1607.5 104.2,1630.3 127.5,1623.3 
	129.2,1629.6 101.7,1643.2 89.4,1628.3 "/>
<path fill="none" stroke="#010101" stroke-width="3" stroke-miterlimit="10" d="M127.5,1623.3v-5.3l10.7-6.7l4.5,6
	c0,0,4.3,7.7,4.5,8"/>
<path fill="none" stroke="#010101" stroke-width="3" stroke-miterlimit="10" d="M147.1,1625.4c-1.7,1.2-9.7,7.8-9.7,7.8l-8.3-3.5"/>
<path fill="none" stroke="#010101" stroke-width="3" stroke-miterlimit="10" d="M76.5,1671.1c0,0-5.7,75.6-48.1,115.5l-5.5-3.3
	c0,0,31.6-71.4,31.1-111.9"/>
<path fill="none" stroke="#010101" stroke-width="3" stroke-miterlimit="10" d="M79.7,1671.1c0,0,26,58.8,30.8,113.4l-7,2.2
	c0,0-26-83.9-30.3-92.7"/>
<path fill="none" stroke="#010101" stroke-width="3" stroke-miterlimit="10" d="M22.4,1783.1l-8,7.7c0,0,14.7,13.3,15.3,13.3
	c0.7,0,23.6-0.8,23.6-0.8l-25-16.8"/>
<path fill="none" stroke="#010101" stroke-width="3" stroke-miterlimit="10" d="M103.5,1786.8v10.3c0,0,13.3-1.7,23.3-2.7l11.3-0.7
	l-1-11c-10.3,0.8-26.6,2-26.6,2"/>
</svg>
