<?xml version="1.0" encoding="utf-8"?>
<!-- Generator: Adobe Illustrator 21.0.0, SVG Export Plug-In . SVG Version: 6.00 Build 0)  -->
<!DOCTYPE svg PUBLIC "-//W3C//DTD SVG 1.0//EN" "http://www.w3.org/TR/2001/REC-SVG-20010904/DTD/svg10.dtd">
<svg version="1.0" id="Layer_1" xmlns="http://www.w3.org/2000/svg" xmlns:xlink="http://www.w3.org/1999/xlink" x="0px" y="0px"
	 width="288px" height="288px" viewBox="0 0 288 288" enable-background="new 0 0 288 288" xml:space="preserve">
<path fill="none" stroke="#000000" stroke-width="2" stroke-miterlimit="10" d="M34.6,104.3h37.9c0,0,1.1-13.3-4.9-12.7
	c0,0-0.5-12.4-14-11.9S38.7,93.9,38.7,93.9S30.2,94.6,34.6,104.3z"/>
<path fill="none" stroke="#000000" stroke-width="2" stroke-miterlimit="10" d="M165.8,209.8h71c0,0,0.8-18.8-12.1-18
	c0,0-6.4-13.5-20.1-14c-13.7-0.6-21.4,16-21.4,16S164.7,188.8,165.8,209.8z"/>
<path fill="none" stroke="#000000" stroke-width="2" stroke-miterlimit="10" d="M60.2,203.1h44.6c0,0,1.9-12.4-6.6-12.6
	c0,0-3.4-14.6-15.6-14.9c-12.2-0.3-13.5,15.7-13.5,15.7S57.2,191.3,60.2,203.1z"/>
<path fill="none" stroke="#000000" stroke-width="2" stroke-miterlimit="10" d="M206,104.3h37.9c0,0,1.1-13.3-4.9-12.7
	c0,0-0.5-12.4-14-11.9s-14.9,14.2-14.9,14.2S201.6,94.6,206,104.3z"/>
<line fill="none" stroke="#000000" stroke-width="2" stroke-miterlimit="10" x1="127.4" y1="11.9" x2="72.6" y2="131.9"/>
<line fill="none" stroke="#000000" stroke-width="2" stroke-miterlimit="10" x1="124" y1="38.8" x2="92.8" y2="120.1"/>
<line fill="none" stroke="#000000" stroke-width="2" stroke-miterlimit="10" x1="134.1" y1="30.7" x2="125" y2="83.7"/>
<line fill="none" stroke="#000000" stroke-width="2" stroke-miterlimit="10" x1="155.7" y1="11.9" x2="210.6" y2="131.9"/>
<line fill="none" stroke="#000000" stroke-width="2" stroke-miterlimit="10" x1="159.1" y1="38.8" x2="190.3" y2="120.1"/>
<line fill="none" stroke="#000000" stroke-width="2" stroke-miterlimit="10" x1="149" y1="30.7" x2="158.1" y2="83.7"/>
<line fill="none" stroke="#000000" stroke-width="2" stroke-miterlimit="10" x1="141.2" y1="20.2" x2="141.2" y2="83.7"/>
</svg>
