<?xml version="1.0" encoding="utf-8"?>
<!-- Generator: Adobe Illustrator 19.2.1, SVG Export Plug-In . SVG Version: 6.00 Build 0)  -->
<svg version="1.0" id="Layer_1" xmlns="http://www.w3.org/2000/svg" xmlns:xlink="http://www.w3.org/1999/xlink" x="0px" y="0px"
	 width="288px" height="288px" viewBox="0 0 288 288" enable-background="new 0 0 288 288" xml:space="preserve">
<ellipse fill="none" stroke="#000000" stroke-width="2" stroke-miterlimit="10" cx="102.9" cy="51.9" rx="12.8" ry="19.1"/>
<line fill="none" stroke="#000000" stroke-width="2" stroke-miterlimit="10" x1="100.1" y1="69.6" x2="100.1" y2="75.3"/>
<line fill="none" stroke="#000000" stroke-width="2" stroke-miterlimit="10" x1="107.9" y1="69.6" x2="107.9" y2="74.7"/>
<path fill="none" stroke="#000000" stroke-width="2" stroke-miterlimit="10" d="M89.7,75.3c2.5,0,28.2,0,28.2,0l2.3,69.1
	c0,0-23.8,3.2-32,1.9L89.7,75.3z"/>
<path fill="none" stroke="#000000" stroke-width="2" stroke-miterlimit="10" d="M89.6,76.8l-7.2,61c0,0-3,3-3,3.7s2.5,11.6,2.5,11.6
	l6.2-1.6"/>
<path fill="none" stroke="#000000" stroke-width="2" stroke-miterlimit="10" d="M82.4,137.8c0,0,5.5,0.8,5.7,0.8"/>
<path fill="none" stroke="#000000" stroke-width="2" stroke-miterlimit="10" d="M117.8,75.3l11.8,33.2l-2,30.2l2,4.3l-3.2,10.2
	c0,0-6.2-0.5-6.3-1.9s2.2-6.9,2.2-6.9s-2.1-2.3-2.2-2.6c-0.1-0.3,3.6-3.6,3.6-3.6l-1.4-28.1l-3.7-11.5"/>
<line fill="none" stroke="#000000" stroke-width="2" stroke-miterlimit="10" x1="129.7" y1="108.5" x2="122.3" y2="110.2"/>
<path fill="none" stroke="#000000" stroke-width="2" stroke-miterlimit="10" d="M88.2,146.3c-0.5,1.5,6,89,6,89h6.3l3.2-88.7"/>
<polyline fill="none" stroke="#000000" stroke-width="2" stroke-miterlimit="10" points="105.9,146.3 111.7,234.3 118.7,234.3 
	120.2,144.4 "/>
<path fill="none" stroke="#000000" stroke-width="2" stroke-miterlimit="10" d="M94.2,235.3l-21,8.8c0,0,17.9,5.7,18.2,4.9
	s9.1-13.8,9.1-13.8"/>
<polyline fill="none" stroke="#000000" stroke-width="2" stroke-miterlimit="10" points="111.7,234.3 100.9,250.8 115.7,250.8 
	118.7,234.3 "/>
<ellipse transform="matrix(0.1346 -0.9909 0.9909 0.1346 105.5272 237.7761)" fill="none" stroke="#000000" stroke-width="2" stroke-miterlimit="10" cx="188.9" cy="58.5" rx="19.1" ry="12.9"/>
<path fill="none" stroke="#000000" stroke-width="2" stroke-miterlimit="10" d="M181.5,82c-9.2-1.1-13-8.5-13-8.5
	c1-44,22.5-40.7,22.5-40.7s15.8-3.5,17.2,35.2v11.7l-14,2.4"/>
<polyline fill="none" stroke="#000000" stroke-width="2" stroke-miterlimit="10" points="186.3,77.4 186.3,81.4 191.5,82 
	192.9,75.8 "/>
<path fill="none" stroke="#000000" stroke-width="2" stroke-miterlimit="10" d="M205.7,139.3c-11.5,2.5-31.5,0.8-31.5,0.8l5.8-23.6
	L176.9,82h24.2C201.4,83.6,205.7,139.3,205.7,139.3z"/>
<polyline fill="none" stroke="#000000" stroke-width="2" stroke-miterlimit="10" points="177.3,86.5 170.3,141.9 175.2,143.3 "/>
<polyline fill="none" stroke="#000000" stroke-width="2" stroke-miterlimit="10" points="170.3,141.9 167.3,148.2 168.8,156.2 
	174.1,156.9 "/>
<path fill="none" stroke="#000000" stroke-width="2" stroke-miterlimit="10" d="M201.1,82c0.2,2.1,14.3,27,14.3,27l1.2,34.4l-2,14.3
	c0,0-6.3,0.2-5.8-1.2c0.5-1.4,1.5-8.3,1.5-8.3l-6,1l1.2-4.8l5.2-2.8l-2-27.3l-6.1-11.6"/>
<line fill="none" stroke="#000000" stroke-width="2" stroke-miterlimit="10" x1="208.9" y1="114.3" x2="215.4" y2="109"/>
<path fill="none" stroke="#000000" stroke-width="2" stroke-miterlimit="10" d="M175.4,140.2l-6.3,79.3c0,0,29.4,3.7,45.7,0
	c0,0-5.6-49-8-70.4"/>
<path fill="none" stroke="#000000" stroke-width="2" stroke-miterlimit="10" d="M206.3,144.5c-0.4-3.3-0.6-5.2-0.6-5.2"/>
<polyline fill="none" stroke="#000000" stroke-width="2" stroke-miterlimit="10" points="178.9,221.1 180.9,240.2 185.2,240.2 
	186.7,220.8 "/>
<polyline fill="none" stroke="#000000" stroke-width="2" stroke-miterlimit="10" points="197.9,221.1 199.9,240.2 204.2,240.2 
	205.7,220.8 "/>
<polyline fill="none" stroke="#000000" stroke-width="2" stroke-miterlimit="10" points="180.9,240.2 162.7,247.8 176.9,253.2 
	185.2,240.2 "/>
<polyline fill="none" stroke="#000000" stroke-width="2" stroke-miterlimit="10" points="199.9,240.2 183.7,250.8 197.9,256.2 
	204.2,240.2 "/>
</svg>
