<?xml version="1.0" encoding="utf-8"?>
<!-- Generator: Adobe Illustrator 21.0.0, SVG Export Plug-In . SVG Version: 6.00 Build 0)  -->
<!DOCTYPE svg PUBLIC "-//W3C//DTD SVG 1.0//EN" "http://www.w3.org/TR/2001/REC-SVG-20010904/DTD/svg10.dtd">
<svg version="1.0" id="Layer_1" xmlns="http://www.w3.org/2000/svg" xmlns:xlink="http://www.w3.org/1999/xlink" x="0px" y="0px"
	 width="288px" height="288px" viewBox="0 0 288 288" enable-background="new 0 0 288 288" xml:space="preserve">
<g id="Layer_2" display="none">
	<polygon display="inline" fill="#27AAE1" points="151.5,139.2 122.9,172.7 122.4,184 158.5,141.1 	"/>
</g>
<g id="Layer_1_1_">
	<path fill="none" stroke="#000000" stroke-width="2" stroke-miterlimit="10" d="M139.5,131.5L139.5,131.5c-6.7,0-12.1-5.4-12.1-12
		v-8.9c0-6.6,5.4-12,12-12h0.1c6.6,0,12,5.4,12,12v8.9C151.5,126.1,146.1,131.5,139.5,131.5z"/>
	<path fill="none" stroke="#000000" stroke-width="2" stroke-miterlimit="10" d="M127.4,114.5c0,0,4.8,2.2,7.5,1.3
		c2.8-1,5.6-1.4,9.8,0c4.1,1.4,6.8-1.6,6.8-1.6"/>
	<path fill="none" stroke="#000000" stroke-width="2" stroke-miterlimit="10" d="M127.4,111.9c0,0-5.6,2.2,0,6.5"/>
	<path fill="none" stroke="#000000" stroke-width="2" stroke-miterlimit="10" d="M152,112c0,0,5.6,2.2,0,6.5"/>
	<path fill="none" stroke="#000000" stroke-width="2" stroke-miterlimit="10" d="M159.1,139.9c1.8-0.5,3.6-1.1,3.6-1.1
		c-6.7-6.5-4.4-36.2-7.3-42.8s-15.8-4-15.8-4s-14.6-2.8-16.4,6.7c-1.6,8.2-1.2,30.2-3.4,37.6l5.3,1.5"/>
	<path fill="none" stroke="#000000" stroke-width="2" stroke-miterlimit="10" d="M136,131.9c-0.5-0.4,0,5.4,0,5.4l8.4,0.2v-5.6
		C144.3,131.9,138,133.4,136,131.9z"/>
	
		<line fill="none" stroke="#27AAE1" stroke-width="6" stroke-linecap="round" stroke-linejoin="round" stroke-miterlimit="10" x1="124.9" y1="176.7" x2="155.7" y2="142.3"/>
	<path fill="none" stroke="#000000" stroke-width="2" stroke-miterlimit="10" d="M124,138c0,0,22.8-2.5,34.9,2.2
		c0,0-7.4,74.7,9.1,114.2c0,0-36.9,11.7-58-8.9c0,0,12.9-61.1,12.9-68.8S124,138,124,138z"/>
	<polyline fill="none" stroke="#000000" stroke-width="2" stroke-miterlimit="10" points="124,138 76.7,143.9 82.7,165.1 
		123.6,148.3 	"/>
	<polyline fill="none" stroke="#000000" stroke-width="2" stroke-miterlimit="10" points="76.7,143.9 68.4,141.7 68.4,144.4 
		70.2,146.4 58.1,151 59.3,158.7 80.1,156.9 	"/>
	<polyline fill="none" stroke="#000000" stroke-width="2" stroke-miterlimit="10" points="157.3,139.7 204.6,145.6 198.5,166.7 
		157.6,150 	"/>
	<polyline fill="none" stroke="#000000" stroke-width="2" stroke-miterlimit="10" points="204.6,145.6 212.8,143.3 212.8,146.1 
		211,148 223.1,152.7 221.9,160.4 201.1,158.6 	"/>
	<polygon fill="none" stroke="#000000" stroke-width="2" stroke-miterlimit="10" points="147.9,138.3 122.8,169.5 122.4,181.6 
		158.5,141.1 	"/>
	<polyline fill="none" stroke="#000000" stroke-width="2" stroke-miterlimit="10" points="128.5,256.4 130.9,266.9 132.2,266.9 
		134.6,257.2 	"/>
	<polyline fill="none" stroke="#000000" stroke-width="2" stroke-miterlimit="10" points="152.2,258 149.8,268.6 148.5,268.6 
		145.9,257.7 	"/>
	<polygon fill="none" stroke="#000000" stroke-width="2" stroke-miterlimit="10" points="130.8,266.9 112.5,269.3 119.6,276.7 
		133.2,269.3 	"/>
	<polygon fill="none" stroke="#000000" stroke-width="2" stroke-miterlimit="10" points="149.9,268.6 168.2,270.9 161.1,278.4 
		147.5,270.9 	"/>
	<path fill="none" stroke="#000000" stroke-width="2" stroke-miterlimit="10" d="M34.6,104.3h37.9c0,0,1.1-13.3-4.9-12.7
		c0,0-0.5-12.4-14-11.9S38.7,93.9,38.7,93.9S30.2,94.6,34.6,104.3z"/>
	<path fill="none" stroke="#000000" stroke-width="2" stroke-miterlimit="10" d="M165.8,209.8h71c0,0,0.8-18.8-12.1-18
		c0,0-6.4-13.5-20.1-14c-13.7-0.6-21.4,16-21.4,16S164.7,188.8,165.8,209.8z"/>
	<path fill="none" stroke="#000000" stroke-width="2" stroke-miterlimit="10" d="M60.2,203.1h44.6c0,0,1.9-12.4-6.6-12.6
		c0,0-3.4-14.6-15.6-14.9c-12.2-0.3-13.5,15.7-13.5,15.7S57.2,191.3,60.2,203.1z"/>
	<path fill="none" stroke="#000000" stroke-width="2" stroke-miterlimit="10" d="M206,104.3h37.9c0,0,1.1-13.3-4.9-12.7
		c0,0-0.5-12.4-14-11.9s-14.9,14.2-14.9,14.2S201.6,94.6,206,104.3z"/>
	<line fill="none" stroke="#000000" stroke-width="2" stroke-miterlimit="10" x1="127.4" y1="11.9" x2="72.6" y2="131.9"/>
	<line fill="none" stroke="#000000" stroke-width="2" stroke-miterlimit="10" x1="124" y1="38.8" x2="92.8" y2="120.1"/>
	<line fill="none" stroke="#000000" stroke-width="2" stroke-miterlimit="10" x1="134.1" y1="30.7" x2="125" y2="83.7"/>
	<line fill="none" stroke="#000000" stroke-width="2" stroke-miterlimit="10" x1="155.7" y1="11.9" x2="210.6" y2="131.9"/>
	<line fill="none" stroke="#000000" stroke-width="2" stroke-miterlimit="10" x1="159.1" y1="38.8" x2="190.3" y2="120.1"/>
	<line fill="none" stroke="#000000" stroke-width="2" stroke-miterlimit="10" x1="149" y1="30.7" x2="158.1" y2="83.7"/>
	<line fill="none" stroke="#000000" stroke-width="2" stroke-miterlimit="10" x1="141.2" y1="20.2" x2="141.2" y2="83.7"/>
</g>
</svg>
