<?xml version="1.0" encoding="utf-8"?>
<!-- Generator: Adobe Illustrator 19.2.1, SVG Export Plug-In . SVG Version: 6.00 Build 0)  -->
<svg version="1.0" xmlns="http://www.w3.org/2000/svg" xmlns:xlink="http://www.w3.org/1999/xlink" x="0px" y="0px" width="288px"
	 height="288px" viewBox="0 0 288 288" enable-background="new 0 0 288 288" xml:space="preserve">
<g id="Layer_2">
	<path fill="#27AAE1" d="M136,90.2c-0.8,1.6-33.9,39.3-33.9,39.3l-1.2,13.9l43.8-46.6v-4.9L136,90.2z"/>
</g>
<g id="Layer_1">
	<path fill="none" stroke="#000000" stroke-width="2" stroke-miterlimit="10" d="M126.3,80.2h-5.2c-6.6,0-12-5.4-12-12V52.3
		c0-6.6,5.4-12,12-12h5.2c6.6,0,12,5.4,12,12v15.9C138.3,74.8,132.9,80.2,126.3,80.2z"/>
	<path fill="none" stroke="#000000" stroke-width="2" stroke-miterlimit="10" d="M109.1,59.6c0,0,8.9,2.5,12.3,1.4
		c3.3-1.2,6.8-1.7,11.8,0s5.1-1.8,5.1-1.8"/>
	<path fill="none" stroke="#000000" stroke-width="2" stroke-miterlimit="10" d="M109.1,56.5c0,0-6.8,2.6,0,7.9"/>
	<path fill="none" stroke="#000000" stroke-width="2" stroke-miterlimit="10" d="M119.4,80.6c-0.6-0.5,0,6.5,0,6.5l10.1,0.3v-6.8
		C129.5,80.6,121.8,82.5,119.4,80.6z"/>
	<path fill="none" stroke="#000000" stroke-width="2" stroke-miterlimit="10" d="M147.4,90.4c2.2-0.6,4.3-1.3,4.3-1.3
		c-8.2-7.8-5.3-43.8-8.8-51.8s-19.1-4.8-19.1-4.8s-17.7-3.3-19.9,8.2c-1.9,10-1.4,36.5-4.2,45.6l6.4,1.8"/>
	<path fill="none" stroke="#000000" stroke-width="2" stroke-miterlimit="10" d="M102.9,88.1c0,0,27.7-3,42.3,2.7
		c0,0-9,90.5,11,138.3c0,0-44.7,14.2-70.3-10.8c0,0,15.7-74,15.7-83.3C101.5,125.6,102.9,88.1,102.9,88.1z"/>
	<path fill="none" stroke="#000000" stroke-width="2" stroke-miterlimit="10" d="M102.1,88.4c0,0-25.1,56-25.1,56l17.2,9.2
		c0,0,7.5-39,7.8-41.9"/>
	<polyline fill="none" stroke="#000000" stroke-width="2" stroke-miterlimit="10" points="89.4,151.8 85.9,160.2 77.8,165.2 
		74.3,163.8 82.4,147.6 	"/>
	<polyline fill="none" stroke="#000000" stroke-width="2" stroke-miterlimit="10" points="89.5,151.1 92,157.2 91.2,160.7 89.9,161 
		87,156.6 	"/>
	<polyline fill="none" stroke="#000000" stroke-width="2" stroke-miterlimit="10" points="145.2,90.8 193.8,90.2 193.8,129.4 
		143.9,107.5 	"/>
	<polyline fill="none" stroke="#000000" stroke-width="2" stroke-miterlimit="10" points="193.8,90.2 212.2,90.2 209.2,94.8 
		203,95.8 200.9,104 193.8,104 	"/>
	<polygon fill="none" stroke="#000000" stroke-width="2" stroke-miterlimit="10" points="131.9,88.4 101.5,126.2 100.9,140.9 
		144.7,91.9 	"/>
	<polyline fill="none" stroke="#000000" stroke-width="2" stroke-miterlimit="10" points="108.4,231.5 111.2,244.3 112.9,244.3 
		115.7,232.5 	"/>
	<polyline fill="none" stroke="#000000" stroke-width="2" stroke-miterlimit="10" points="137,233.5 134.2,246.3 132.5,246.3 
		129.4,233.1 	"/>
	<polygon fill="none" stroke="#000000" stroke-width="2" stroke-miterlimit="10" points="111.1,244.3 88.9,247.1 97.6,256.1 
		114.1,247.1 	"/>
	<polygon fill="none" stroke="#000000" stroke-width="2" stroke-miterlimit="10" points="134.3,246.3 156.5,249.2 147.8,258.2 
		131.3,249.2 	"/>
</g>
<g id="Layer_3">
	<path opacity="0" fill="none" stroke="#000000" stroke-width="10" stroke-miterlimit="10" d="M122.4,90.3c7.4,0.2,14.7,1,21.9,2.5
		c-6.6,0.8-13.3,1.6-19.9,2.4c7.8,1.1,15.7,1.7,23.6,2c-11.3,0.3-22.6,1-33.8,2.1c10.1,1.1,20.2,2.1,30.3,2.9
		c-10.7,3.5-21.9,5.2-33.1,4.9c8.4,0.2,16.8,0.6,25.2,1.3c-9.4,5.6-20.8,6.4-31.8,7c5.8,1.9,11.7,3.2,17.8,3.9
		c-9,0.2-18.1,0.4-26.6,3.1c7,2.2,14.1,3.9,21.3,5.1c-8.3,0.5-16.7,0.9-25,1.4c7.3,3.4,15.3,5.3,23.4,5.5c-9.8,1.3-20.1-2.4-29.3,1
		c10,1.1,19.9,2.4,29.8,3.9c-0.8,1.7-3,2.1-4.9,2.2c-10,0.5-20.1,0.3-30.1-0.4"/>
</g>
</svg>
