<?xml version="1.0" encoding="utf-8"?>
<!-- Generator: Adobe Illustrator 21.0.0, SVG Export Plug-In . SVG Version: 6.00 Build 0)  -->
<!DOCTYPE svg PUBLIC "-//W3C//DTD SVG 1.0//EN" "http://www.w3.org/TR/2001/REC-SVG-20010904/DTD/svg10.dtd">
<svg version="1.0" xmlns="http://www.w3.org/2000/svg" xmlns:xlink="http://www.w3.org/1999/xlink" x="0px" y="0px" width="500px"
	 height="500px" viewBox="0 0 500 500" enable-background="new 0 0 500 500" xml:space="preserve">
<g id="Color">
	<path fill="#A0CC3A" d="M53,285c0,0-131,0-191-54s9-120,9-120S-29,66-5,66s89-1,104,6s71,16,88,30s40,32,40,32s58-12,66-20
		s47-26,75-31s81-9,107-3s67,23,89,31s56,28,57,35s5,49,0,66s-47,53-47,53s-74,26-89,28s-71,6-71,6s-81,74-97,77s-138,21-161,0
		s-78-56-81-61S53,285,53,285z"/>
</g>
<g id="Stroke">
	
		<path opacity="0" fill="none" stroke="#231F20" stroke-width="72" stroke-linecap="round" stroke-linejoin="round" stroke-miterlimit="10" d="
		M-219.6,183.4C-157.1,119-86.4,56.7,0.5,34.4c-29.6,39.3-71.8,66.8-109.8,98s-74,70-82.9,118.4c61-35.4,118.1-77.6,169.9-125.5
		C8.6,96.7,38.9,65.3,78.2,50.5C43,144.7-86.1,179.8-115.6,275.9c63.3-8.8,109-62.4,156-105.8c51-47.3,109.4-85.7,167.6-123.8
		c-19.2,35.2-50.7,61.6-80.1,88.8c-49.5,45.9-94.7,96.1-139.8,146.3c-11.3,12.6-23.1,26.2-25.3,42.9c25.3-5.7,49.4-16.3,70.7-31
		c60.6-41.8,94.2-112.4,146.6-164.2c26.1-25.8,56.9-46.7,90.5-61.6c-17.3,17.4-34.6,34.9-51.9,52.3C155,184,91.1,248.3,36.2,320.1
		c-13.1,17.1-25.9,35-32.4,55.5c11.7,3.1,23.5-4,33.2-11.3c42.9-32.1,78.3-72.9,113.4-113.4c39.5-45.6,79-91.2,118.5-136.7
		c16-18.5,32.5-37.4,54.1-49c-78.9,117.7-189.6,216-242.8,347.4c13.1-2.3,24.1-11,34.1-19.8c115.2-100.8,194-240.8,320-327.6
		c-65,87-132.2,172.2-201.7,255.6c-27.2,32.7-55.1,65.5-73.8,103.7c57-2,90.8-47.2,129.1-89.5s75.2-91.9,110-137
		c31.3-40.6,55.7-77.6,91.9-113.9c-12.1,60.5-34.9,119.3-74.3,166.8c-32.9,39.8-64.1,81.1-93.3,123.6c-8.8,12.9-17.8,26.6-19.2,42.2
		c86-67.7,156-155.7,202.6-254.7c9.9-21,18.8-42.7,32.2-61.7s32-35.4,54.5-40.9c-11.7,48-43.1,88.3-70.7,129.3
		c-27.6,41-52.9,87.4-49.7,136.7c24-9.2,39.4-32.3,53.3-54c28-44,56.1-88.1,84.1-132.1c9.2-14.5,23.6-31,40-26
		c-21.1,54.7-42.2,109.4-63.3,164.1"/>
</g>
</svg>
