<?xml version="1.0" encoding="utf-8"?>
<!-- Generator: Adobe Illustrator 19.2.1, SVG Export Plug-In . SVG Version: 6.00 Build 0)  -->
<svg version="1.0" xmlns="http://www.w3.org/2000/svg" xmlns:xlink="http://www.w3.org/1999/xlink" x="0px" y="0px" width="288px"
	 height="288px" viewBox="0 0 288 288" enable-background="new 0 0 288 288" xml:space="preserve">
<g id="Layer_2">
	<path fill="#27AAE1" d="M141.4,88.4l-33.9,40c0,0-1.5,13.7-0.5,12.5s43.8-49.1,43.8-49.1L141.4,88.4z"/>
</g>
<g id="Layer_1">
	<path fill="none" stroke="#000000" stroke-width="2" stroke-miterlimit="10" d="M127.2,80.2h5.2c6.6,0,12-5.4,12-12V52.3
		c0-6.6-5.4-12-12-12h-5.2c-6.6,0-12,5.4-12,12v15.9C115.2,74.8,120.6,80.2,127.2,80.2z"/>
	<path fill="none" stroke="#000000" stroke-width="2" stroke-miterlimit="10" d="M144.4,59.6c0,0-8.9,2.5-12.3,1.4
		c-3.3-1.2-6.8-1.7-11.8,0s-5.1-1.8-5.1-1.8"/>
	<path fill="none" stroke="#000000" stroke-width="2" stroke-miterlimit="10" d="M144.4,56.5c0,0,6.8,2.6,0,7.9"/>
	<path fill="none" stroke="#000000" stroke-width="2" stroke-miterlimit="10" d="M106.1,90.4c-2.2-0.6-4.3-1.3-4.3-1.3
		c8.2-7.8,5.3-43.8,8.8-51.8s19.1-4.8,19.1-4.8s17.7-3.3,19.9,8.2c1.9,10,1.4,36.5,4.2,45.6l-10.7,3.5"/>
	<path fill="none" stroke="#000000" stroke-width="2" stroke-miterlimit="10" d="M125.6,80.6c-0.6-0.5,0,6.5,0,6.5l10.1,0.3v-6.8
		C135.6,80.6,127.9,82.5,125.6,80.6z"/>
	<path fill="none" stroke="#000000" stroke-width="2" stroke-miterlimit="10" d="M109,88.1c0,0,27.7-3,42.3,2.7c0,0-9,90.5,11,138.3
		c0,0-44.7,14.2-70.3-10.8c0,0,15.7-74,15.7-83.3S109,88.1,109,88.1z"/>
	<path fill="none" stroke="#000000" stroke-width="2" stroke-miterlimit="10" d="M108.2,88.4c0,0-25.1,56-25.1,56l17.2,9.2
		c0,0,7.5-39,7.8-41.9"/>
	<polyline fill="none" stroke="#000000" stroke-width="2" stroke-miterlimit="10" points="95.5,151.8 92,160.2 83.9,165.2 
		80.4,163.8 88.5,147.6 	"/>
	<polyline fill="none" stroke="#000000" stroke-width="2" stroke-miterlimit="10" points="95.6,151.1 98.1,157.2 97.3,160.7 96,161 
		93.1,156.6 	"/>
	<polyline fill="none" stroke="#000000" stroke-width="2" stroke-miterlimit="10" points="151.3,90.8 199.9,90.2 199.9,129.4 
		150,107.5 	"/>
	<path fill="none" stroke="#000000" stroke-width="2" stroke-miterlimit="10" d="M197.2,90.2h4.2l2-20.3l4.8,4.5l0.3,23.5
		c0,0-4.4,0-7.7,0"/>
	<polygon fill="none" stroke="#000000" stroke-width="2" stroke-miterlimit="10" points="138,88.4 107.6,126.2 107,140.9 
		150.8,91.9 	"/>
	<polyline fill="none" stroke="#000000" stroke-width="2" stroke-miterlimit="10" points="114.5,231.5 117.3,244.3 119,244.3 
		121.8,232.5 	"/>
	<polyline fill="none" stroke="#000000" stroke-width="2" stroke-miterlimit="10" points="143.1,233.5 140.3,246.3 138.6,246.3 
		135.5,233.1 	"/>
	<polygon fill="none" stroke="#000000" stroke-width="2" stroke-miterlimit="10" points="117.2,244.3 95,247.1 103.7,256.1 
		120.2,247.1 	"/>
	<polygon fill="none" stroke="#000000" stroke-width="2" stroke-miterlimit="10" points="140.4,246.3 162.6,249.2 153.9,258.2 
		137.4,249.2 	"/>
</g>
<g id="Layer_3">
	<path opacity="0" fill="none" stroke="#6CBE45" stroke-width="15" stroke-miterlimit="10" d="M135.4,89c5.3-0.6,10.8,0,15.9,1.8
		c-7.1,1.1-14.2,1.6-21.4,1.6c6.6-0.3,13.2,0.1,19.7,1.1c-8.8,1.8-17.6,3.2-26.6,4.1c6.9-0.6,13.9-0.3,20.7,0.9
		c-8.6,0.9-17.2,1.7-25.8,2.3c7.3,0.4,14.7,0.9,22,1.3c-8.1,3-16.8,4.8-25.4,5.1c9.1,0.2,18.3,0.3,27.4,0.5
		c-9.1,4.1-18.9,6.6-28.9,7.4c7.7,0.7,15.4,1.8,23.1,3.1c-11.9,0.8-23.7,2.7-35.2,5.6c6.5,0.5,12.9,1.1,19.4,1.8
		c-0.5,1.2-2,1.6-3.3,1.8c-6.2,1-12.4,1.9-18.5,2.9c8.4-0.7,16.9,0.1,25.1,2.2c-9.9,0.2-19.7,0.7-29.5,1.6c10.9,1.7,21.8,3,32.8,3.9
		"/>
</g>
</svg>
