<?xml version="1.0" encoding="utf-8"?>
<!-- Generator: Adobe Illustrator 19.2.1, SVG Export Plug-In . SVG Version: 6.00 Build 0)  -->
<svg version="1.0" xmlns="http://www.w3.org/2000/svg" xmlns:xlink="http://www.w3.org/1999/xlink" x="0px" y="0px" width="288px"
	 height="288px" viewBox="0 0 288 288" enable-background="new 0 0 288 288" xml:space="preserve">
<g id="Layer_2">
	<path fill="#27AAE1" d="M90.6,76.4c0,0-3.6,42.4,17.9,46.5c0,0-19.6,3.2-25.6-20.5C78.2,83.5,90.6,76.4,90.6,76.4z"/>
	<path fill="#27AAE1" d="M88.3,131.5l26.1,87.5c0,0-6.9,2-7.5,0c-0.6-2-25.4-85.8-25.4-85.8L88.3,131.5z"/>
	<path fill="#27AAE1" d="M187.6,124.1c-1.1,1.1-18.9,26.6-18.9,26.6l1.4,4.3l7.5,0.4l20-30.2L187.6,124.1z"/>
	<path fill="#27AAE1" d="M151.7,173.2c-0.7,1.8-6.4,6.5-5.5,7.7c0.9,1.1,4,12.1,4,12.1l7.2-10.3L151.7,173.2z"/>
</g>
<g id="Layer_1">
	<path fill="none" stroke="#000000" stroke-width="2" stroke-miterlimit="10" d="M180.8,117l-5.5-0.8c-6.5-0.9-11.1-7-10.2-13.6
		l2.6-18.2c0.9-6.5,7-11.1,13.6-10.2l5.5,0.8c6.5,0.9,11.1,7,10.2,13.6l-2.6,18.2C193.5,113.4,187.3,118,180.8,117z"/>
	<path fill="none" stroke="#000000" stroke-width="2" stroke-miterlimit="10" d="M166.1,96.3c0,0,5.3,1,8.1,0c2.8-1,7.2-1.4,9.9,1.2
		c2.7,2.7,10.9,1.7,10.9,1.7"/>
	<path fill="none" stroke="#000000" stroke-width="2" stroke-miterlimit="10" d="M196.2,94.1c0,0,7.1,5.9-1.3,8.9"/>
	<path fill="none" stroke="#000000" stroke-width="2" stroke-miterlimit="10" d="M167.6,122.2c-8.8-2.1-14.6-7.5-14.6-7.5
		s5.5-23.2,9.7-38.3s22.6-8.6,22.6-8.6s13.3-3.3,16.5,2.8c3.1,6.1,5.3,49.9,5.3,49.9s-10.8,3.6-15.7,3.7"/>
	<polyline fill="none" stroke="#000000" stroke-width="2" stroke-miterlimit="10" points="173.4,116 172.6,122.4 181.7,123.1 
		182.7,117.3 	"/>
	<path fill="none" stroke="#000000" stroke-width="2" stroke-miterlimit="10" d="M150.6,125.5l1.6-3.9c0,0,34.3,0.8,46.8,3.9
		c0,0,9.7,26.1,12.7,44.8c0,0-15.6,15.5-45.6,25.1c0,0-12.5-17.4-16.4-26.2l1.9-6.9"/>
	<path fill="none" stroke="#000000" stroke-width="2" stroke-miterlimit="10" d="M156.4,154.3l-5.9-1.8V141c0,0-9.6-1.2-19.2,1.3
		l-2,16.2c0,0,9.9,7.9,20.4,2.9l10.8,2.4"/>
	<line fill="none" stroke="#000000" stroke-width="2" stroke-miterlimit="10" x1="130.8" y1="145.9" x2="141.7" y2="146.2"/>
	<line fill="none" stroke="#000000" stroke-width="2" stroke-miterlimit="10" x1="130.2" y1="150.7" x2="141.1" y2="151.5"/>
	<line fill="none" stroke="#000000" stroke-width="2" stroke-miterlimit="10" x1="129.8" y1="154.6" x2="139.8" y2="156.2"/>
	<polyline fill="none" stroke="#000000" stroke-width="2" stroke-miterlimit="10" points="170.1,155 191.8,158.5 191.8,138.4 	"/>
	<line fill="none" stroke="#000000" stroke-width="2" stroke-miterlimit="10" x1="196.7" y1="181.4" x2="195.4" y2="214.2"/>
	<path fill="none" stroke="#000000" stroke-width="2" stroke-miterlimit="10" d="M121.5,74.6l-5.1-8.2l6-24.2h2.2v13.8
		c0,0,4.2,4.5,4.7,4.2c0.5-0.4,3.1-1.8,3.1-1.8l1.6,4l-7.3,12.2l3.8,14.4l-5.4,7l-6.8-3.6L121.5,74.6z"/>
	<polyline fill="none" stroke="#000000" stroke-width="2" stroke-miterlimit="10" points="118.4,58.4 126.4,62.1 127.5,66.8 	"/>
	<polyline fill="none" stroke="#000000" stroke-width="2" stroke-miterlimit="10" points="117.3,62.9 122.4,65.7 123.3,69.7 	"/>
	<polyline fill="none" stroke="#000000" stroke-width="2" stroke-miterlimit="10" points="152.6,121.9 140.4,117.5 137.7,85.7 
		128.8,82.4 	"/>
	<path fill="none" stroke="#000000" stroke-width="2" stroke-miterlimit="10" d="M119.8,85.1c0,0-2.8,2.1-5,4.3"/>
	<path fill="none" stroke="#000000" stroke-width="2" stroke-miterlimit="10" d="M197.7,125.2c0,0-10.5,15-21.6,30.8"/>
	<path fill="none" stroke="#000000" stroke-width="2" stroke-miterlimit="10" d="M157.5,182.6c-4.3,6.2-7.2,10.3-7.2,10.3"/>
	<path fill="none" stroke="#000000" stroke-width="2" stroke-miterlimit="10" d="M183.9,123.3c0,0-8.5,11.5-17.5,23.7"/>
	<path fill="none" stroke="#000000" stroke-width="2" stroke-miterlimit="10" d="M150.3,168.8c-3.1,4.1-5,6.8-5,6.8"/>
	
		<ellipse transform="matrix(0.935 -0.3547 0.3547 0.935 -28.7166 42.1894)" fill="none" stroke="#000000" stroke-width="2" stroke-miterlimit="10" cx="100.7" cy="99.4" rx="17.7" ry="24.9"/>
	<path fill="none" stroke="#000000" stroke-width="2" stroke-miterlimit="10" d="M82.2,84c0,0,14.6-5.1,18.5-9.2"/>
	<path fill="none" stroke="#000000" stroke-width="2" stroke-miterlimit="10" d="M104.7,74.8c0,0-12.5,11.3-24.2,14.6"/>
	<path fill="none" stroke="#000000" stroke-width="2" stroke-miterlimit="10" d="M107.7,76.5c0,0-12.2,14.7-29.4,19"/>
	<path fill="none" stroke="#000000" stroke-width="2" stroke-miterlimit="10" d="M100.7,122.9c-0.1,0,1.7,5,1.7,5"/>
	<line fill="none" stroke="#000000" stroke-width="2" stroke-miterlimit="10" x1="114.3" y1="119.5" x2="116.4" y2="124.1"/>
	<polyline fill="none" stroke="#000000" stroke-width="2" stroke-miterlimit="10" points="106.8,219.1 89.8,163.8 81.4,133.3 
		127.5,121.6 134.1,141.7 	"/>
	<path fill="none" stroke="#000000" stroke-width="2" stroke-miterlimit="10" d="M99,141.4c2.3,5.1,15.3,31.2,15.3,31.2l20.4-11.2"
		/>
	<path fill="none" stroke="#000000" stroke-width="2" stroke-miterlimit="10" d="M89.8,153.3c0,0,8.7,25.7,20.6,35.7
		c0,0,19.3-7.2,29.4-26.7"/>
	<line fill="none" stroke="#000000" stroke-width="2" stroke-miterlimit="10" x1="114.3" y1="172.6" x2="110.4" y2="189.1"/>
	<polyline fill="none" stroke="#000000" stroke-width="2" stroke-miterlimit="10" points="135.3,141.4 137.1,127.5 141.5,125.8 
		153,125.2 155.6,129.1 155.6,136.8 148.6,141 	"/>
	<path fill="none" stroke="#000000" stroke-width="2" stroke-miterlimit="10" d="M142.2,126.7c0,0,6.4,1.8,10.7,9.2"/>
	<path fill="none" stroke="#000000" stroke-width="2" stroke-miterlimit="10" d="M106.8,219.1c1-0.1,47.6-11.6,47.6-11.6"/>
	<path fill="none" stroke="#000000" stroke-width="2" stroke-miterlimit="10" d="M151.7,153.3c0.3-0.6,1.7-5.5,2.5-5.5
		s14.1-0.8,14.4,0c0.3,0.8,3.1,17.1,3.1,17.1l-10.1,1.9l-6.1-14.3"/>
	<path fill="none" stroke="#000000" stroke-width="2" stroke-miterlimit="10" d="M164.2,166.3c0.1,0-2.6-9.2-2.6-9.2"/>
	<line fill="none" stroke="#000000" stroke-width="2" stroke-miterlimit="10" x1="164.8" y1="156.2" x2="167.3" y2="165.6"/>
	<line fill="none" stroke="#000000" stroke-width="2" stroke-miterlimit="10" x1="169.6" y1="165.2" x2="167.8" y2="156.2"/>
	<path fill="none" stroke="#000000" stroke-width="2" stroke-miterlimit="10" d="M167.2,165.8c-0.3,0.9-1.2,29.6-1.2,29.6"/>
	<line fill="none" stroke="#000000" stroke-width="2" stroke-miterlimit="10" x1="141.7" y1="163" x2="157.8" y2="219.1"/>
	<path fill="none" stroke="#000000" stroke-width="2" stroke-miterlimit="10" d="M102.6,205.4c0,0-16.1,3.5-25.1,8.4
		c0,0,58.6,17.2,137.4-4.2c0,0-7.2-4.6-19.1-6.1"/>
	<path fill="none" stroke="#000000" stroke-width="2" stroke-miterlimit="10" d="M85.4,206.4c0,0-11,4.2-17.4,10.7
		c0,0,40.7,29,144.8,0"/>
	<path fill="none" stroke="#000000" stroke-width="2" stroke-miterlimit="10" d="M196,197.8c0,0,17.2,2.5,23.7,8.5"/>
	<path fill="none" stroke="#000000" stroke-width="2" stroke-miterlimit="10" d="M71,226.6c0,0,19,9.2,49.4,10.1"/>
	<path fill="none" stroke="#000000" stroke-width="2" stroke-miterlimit="10" d="M125.7,233.7c0,0,48.2,10.6,94-14.6"/>
</g>
<g id="Layer_3">
	<path opacity="0" fill="none" stroke="#000000" stroke-width="25" stroke-miterlimit="10" d="M80,73.5c8.3,0,16.6,0.1,25,0.1
		c-9,3.1-18,6.2-27,9.2c9.7-1.7,19.5-2.4,29.3-2.1c-9.7,4.8-19.6,9.1-29.8,12.8c9.6-1.4,19.4-2.2,29.1-2.2
		c-10.8,4.1-21.7,8.2-32.5,12.3c-2.1,0.8-4.3,1.7-5.3,3.7c14.4-1.4,28.8-2.7,43.2-4.1c-12.1,6.1-24.8,10.9-37.9,14.3
		c22.3-2,44.6-3,67-3.1c-13.6,6-28.1,9.8-42.8,11.3c-7.2,0.7-15.5,1.6-19.2,7.7c25.3-0.2,50.5-0.4,75.8-0.6
		c15.1-0.1,30.2-0.2,45.2-2.2c-12.9,6.3-27.5,7.8-41.8,8.9c-18.5,1.4-37,2.3-55.5,3.2c-12.4,0.6-24.9,1.2-37.3,1.8
		c45.2-0.4,90.4-0.7,135.6-1.1c-21.8,5-44.1,7-66.3,9c-19.5,1.7-39.1,3.4-58.6,5.2c40.6,2.3,81.2,4.7,121.7,7
		c-11.6,4.1-24.3,3.3-36.6,3.2c-23.7-0.2-47.4,2.2-70.6,7.2c-3.2,0.7-6.8,1.6-8.7,4.3c29.6,0.1,59.3,0.1,88.9,0.2
		c-27.2,8.9-55.7,13.1-84,17.2c25.3-1.1,50.7-2.1,76-3.2c-23.5,9.2-48.8,13.7-74,12.9c28.1,1.4,56.3,1,84.3-1.4
		c-13.9,4.7-28.7,6-43.3,7.3c-10.5,0.9-21.1,1.9-31.6,2.8c0.9,0.4,1.8,0.8,2.8,1.2"/>
</g>
</svg>
