<?xml version="1.0" encoding="utf-8"?>
<!-- Generator: Adobe Illustrator 19.2.1, SVG Export Plug-In . SVG Version: 6.00 Build 0)  -->
<svg version="1.0" id="Layer_1" xmlns="http://www.w3.org/2000/svg" xmlns:xlink="http://www.w3.org/1999/xlink" x="0px" y="0px"
	 width="288px" height="288px" viewBox="0 0 288 288" enable-background="new 0 0 288 288" xml:space="preserve">
<path fill="none" stroke="#000000" stroke-width="2" stroke-miterlimit="10" d="M67.3,182.3c-5-18.1-12-43.9-12-43.9
	c-1.7-6.4,2-13,8.4-14.7l23.1-6.3c6.4-1.7,13,2,14.7,8.4l16.8,61.2c1.7,6.4-2,13-8.4,14.7l-23.1,6.3c-3.5,1-7,0.3-9.8-1.6"/>
<path fill="none" stroke="#000000" stroke-width="2" stroke-miterlimit="10" d="M72,179.4c-4-14.5-10.1-36.7-10.1-36.7
	c-1.7-6.4,2-13,8.4-14.7l13.1-3.6c6.4-1.7,13,2,14.7,8.4l13.4,49c1.7,6.4-3.6,7.2-10,9l-13.1,3.6c-1.3,0.4-2.6,0.7-3.7,1"/>
<polyline fill="none" stroke="#000000" stroke-width="2" stroke-miterlimit="10" points="59.6,154.2 43.9,176.6 72.4,220.3 "/>
<polyline fill="none" stroke="#000000" stroke-width="2" stroke-miterlimit="10" points="62.4,184.8 85.9,172.8 93.3,182.8 
	74.6,209.8 "/>
<polygon fill="none" stroke="#000000" stroke-width="2" stroke-miterlimit="10" points="84.4,177.1 77.9,181.1 83.6,187.2 
	88.6,182.2 "/>
<ellipse transform="matrix(0.9644 -0.2646 0.2646 0.9644 -49.1831 32.7005)" fill="none" stroke="#000000" stroke-width="2" stroke-miterlimit="10" cx="96.8" cy="198.9" rx="3.8" ry="3.8"/>
<polygon fill="none" stroke="#000000" stroke-width="2" stroke-miterlimit="10" points="135.4,81.9 136.6,130.2 207.4,133.6 
	216.2,84.6 "/>
<polygon fill="none" stroke="#000000" stroke-width="2" stroke-miterlimit="10" points="142.7,89.7 143.6,124.6 201.4,127.7 
	207.2,91.2 "/>
<line fill="none" stroke="#000000" stroke-width="2" stroke-miterlimit="10" x1="166.9" y1="131.7" x2="166.9" y2="138.6"/>
<line fill="none" stroke="#000000" stroke-width="2" stroke-miterlimit="10" x1="175.8" y1="139.3" x2="176.8" y2="132.1"/>
<polygon fill="none" stroke="#000000" stroke-width="2" stroke-miterlimit="10" points="155.6,137.7 190.6,140.4 190.6,146.4 
	156.2,143.6 "/>
<line fill="none" stroke="#000000" stroke-width="2" stroke-miterlimit="10" x1="130.7" y1="101.7" x2="100.2" y2="74.4"/>
<line fill="none" stroke="#000000" stroke-width="2" stroke-miterlimit="10" x1="131.9" y1="89.7" x2="120.6" y2="76.6"/>
<line fill="none" stroke="#000000" stroke-width="2" stroke-miterlimit="10" x1="128.2" y1="51.6" x2="140.6" y2="76.6"/>
<line fill="none" stroke="#000000" stroke-width="2" stroke-miterlimit="10" x1="210.1" y1="78.6" x2="219.7" y2="58.6"/>
<line fill="none" stroke="#000000" stroke-width="2" stroke-miterlimit="10" x1="218.7" y1="80.9" x2="231.2" y2="69.4"/>
<line fill="none" stroke="#000000" stroke-width="2" stroke-miterlimit="10" x1="219.7" y1="90.4" x2="245.2" y2="79.7"/>
<polygon fill="none" stroke="#000000" stroke-width="2" stroke-miterlimit="10" points="155.6,202.9 151.1,163.9 227.4,163.9 
	223.4,205.6 239.4,234.9 145.4,234.9 "/>
<line fill="none" stroke="#000000" stroke-width="2" stroke-miterlimit="10" x1="155.6" y1="202.9" x2="223.4" y2="205.6"/>
<path fill="none" stroke="#000000" stroke-width="2" stroke-miterlimit="10" d="M153,211.1c0.9-0.1,74.2,1.2,74.2,1.2"/>
<line fill="none" stroke="#000000" stroke-width="2" stroke-miterlimit="10" x1="230" y1="217.6" x2="150.5" y2="218.8"/>
<line fill="none" stroke="#000000" stroke-width="2" stroke-miterlimit="10" x1="148.4" y1="225.4" x2="233.4" y2="225.4"/>
<line fill="none" stroke="#000000" stroke-width="2" stroke-miterlimit="10" x1="164.7" y1="203.3" x2="158.9" y2="234.9"/>
<line fill="none" stroke="#000000" stroke-width="2" stroke-miterlimit="10" x1="174.2" y1="203.6" x2="174.2" y2="234.9"/>
<line fill="none" stroke="#000000" stroke-width="2" stroke-miterlimit="10" x1="185.1" y1="204.2" x2="187.1" y2="234.9"/>
<line fill="none" stroke="#000000" stroke-width="2" stroke-miterlimit="10" x1="196.4" y1="204.5" x2="202.7" y2="234.9"/>
<line fill="none" stroke="#000000" stroke-width="2" stroke-miterlimit="10" x1="205.1" y1="204.8" x2="215.4" y2="234.9"/>
<line fill="none" stroke="#000000" stroke-width="2" stroke-miterlimit="10" x1="215.4" y1="205.3" x2="225.6" y2="234.9"/>
<polygon fill="none" stroke="#000000" stroke-width="2" stroke-miterlimit="10" points="156.2,170 222.9,171.4 219.7,202.2 
	159.9,200.2 "/>
<circle fill="none" stroke="#000000" stroke-width="2" stroke-miterlimit="10" cx="188.7" cy="167.3" r="0.7"/>
<polyline fill="none" stroke="#000000" stroke-width="2" stroke-miterlimit="10" points="163,180.9 166.1,191.4 168.5,183.6 
	173.1,192.6 176.3,179.9 "/>
<polyline fill="none" stroke="#000000" stroke-width="2" stroke-miterlimit="10" points="182.9,180.9 186,191.4 189.4,183.4 
	193,192.7 196.2,179.9 "/>
<polyline fill="none" stroke="#000000" stroke-width="2" stroke-miterlimit="10" points="201.8,181.3 204.9,191.8 208.2,183.8 
	211.8,193.1 215.1,180.3 "/>
<circle fill="none" stroke="#000000" stroke-width="2" stroke-miterlimit="10" cx="215.7" cy="193.2" r="0.6"/>
</svg>
