<?xml version="1.0" encoding="utf-8"?>
<!-- Generator: Adobe Illustrator 19.2.1, SVG Export Plug-In . SVG Version: 6.00 Build 0)  -->
<svg version="1.0" xmlns="http://www.w3.org/2000/svg" xmlns:xlink="http://www.w3.org/1999/xlink" x="0px" y="0px" width="288px"
	 height="288px" viewBox="0 0 288 288" enable-background="new 0 0 288 288" xml:space="preserve">
<g id="Layer_2">
	<path fill="#27AAE1" d="M134.7,89.8L100.3,144l-2.4,22c0,0,5.4-5.2,7.3-7.5c1.9-2.3,26.6-38.3,26.6-38.3l10.6-18l-0.1-12.6
		L134.7,89.8z"/>
</g>
<g id="Layer_1">
	<path fill="none" stroke="#000000" stroke-width="2" stroke-miterlimit="10" d="M124,82.5h-2.7c-6.6,0-12-5.4-12-12V55
		c0-6.6,5.4-12,12-12h2.7c6.6,0,12,5.4,12,12v15.5C136,77.1,130.6,82.5,124,82.5z"/>
	<path fill="none" stroke="#000000" stroke-width="2" stroke-miterlimit="10" d="M109.3,64.7c0,0,7.5,1.4,13.3,0
		c5.8-1.4,10.2,0,13.3,1.8"/>
	<path fill="none" stroke="#000000" stroke-width="2" stroke-miterlimit="10" d="M109.3,58.7c0,0-6,3.1,0,7.2"/>
	<path fill="none" stroke="#000000" stroke-width="2" stroke-miterlimit="10" d="M102,88.3c-4.6-2.1-7.3-4.7-7.3-4.7
		c2.4-2.1,1.7-9.2,4.9-30.7c3.1-21.5,25.1-14.4,25.1-14.4s10.3-2.5,13.2,5.3c3.1,8.3,1.2,39.4,2.4,40.8c0,0-3.6,2.4-6.2,4.2"/>
	<polyline fill="none" stroke="#000000" stroke-width="2" stroke-miterlimit="10" points="117.2,82.5 117.7,88.2 127.7,88.3 
		127.7,82.5 	"/>
	<path fill="none" stroke="#000000" stroke-width="2" stroke-miterlimit="10" d="M105.6,89.6c0,0,26.9-2,36.7,0
		c0,0,1.2,97.6,9.9,120.3c0,0-21.9,15.4-59.6,5.1L105.6,89.6z"/>
	<path fill="none" stroke="#000000" stroke-width="2" stroke-miterlimit="10" d="M105.6,89.6c0,0-14.5-14.4-27.7,59.4
		c0,0,8.9,8.4,21,8.3"/>
	<polyline fill="none" stroke="#000000" stroke-width="2" stroke-miterlimit="10" points="83.4,153.7 82.3,162.9 87.6,173.3 
		93,169.7 93.6,157.3 	"/>
	<polyline fill="none" stroke="#000000" stroke-width="2" stroke-miterlimit="10" points="93.6,163.5 96.3,162.9 97.9,157.3 	"/>
	<path fill="none" stroke="#000000" stroke-width="2" stroke-miterlimit="10" d="M129.9,88.6c-7,12.2-22.9,39.9-29.6,51.4"/>
	<path fill="none" stroke="#000000" stroke-width="2" stroke-miterlimit="10" d="M142.4,102.2c0,0-27.4,49.4-44.8,64"/>
	<path fill="none" stroke="#000000" stroke-width="2" stroke-miterlimit="10" d="M142.5,89.8l43.9,14.6c0,0-10.3,29.9-10.7,30.5
		l-32.9-24.4"/>
	<path fill="none" stroke="#000000" stroke-width="2" stroke-miterlimit="10" d="M185.8,106.9c1.2,0.4,2.1,0.8,2.1,0.8l16.1,1.3
		l4.7,3.7l-16,2.1l-1.5,7.3l-3.4,1.3l-1.9-10.5c0,0-0.7-0.2-1.6-0.5"/>
	<path fill="none" stroke="#000000" stroke-width="2" stroke-miterlimit="10" d="M106.7,217.8c0.6,1.2,4.7,23.9,4.7,23.9h4.4
		l3.4-22.8"/>
	<polyline fill="none" stroke="#000000" stroke-width="2" stroke-miterlimit="10" points="127.6,218.6 130.3,240.2 134.5,240.2 
		138.2,215.9 	"/>
	<polygon fill="none" stroke="#000000" stroke-width="2" stroke-miterlimit="10" points="112,241.7 94.6,246.1 106,255.2 
		115.7,242.7 	"/>
	<polygon fill="none" stroke="#000000" stroke-width="2" stroke-miterlimit="10" points="129.8,241 134.4,254.2 150.2,246.6 
		134.5,240.2 	"/>
	
		<ellipse transform="matrix(0.9958 -9.131563e-02 9.131563e-02 0.9958 -10.0476 18.7185)" fill="none" stroke="#000000" stroke-width="2" stroke-miterlimit="10" cx="199.5" cy="119.2" rx="1.2" ry="1.2"/>
	
		<ellipse transform="matrix(0.9958 -9.131563e-02 9.131563e-02 0.9958 -10.815 18.5092)" fill="none" stroke="#000000" stroke-width="2" stroke-miterlimit="10" cx="196.9" cy="127.4" rx="1.7" ry="2"/>
	
		<ellipse transform="matrix(0.9958 -9.131563e-02 9.131563e-02 0.9958 -10.1895 19.2559)" fill="none" stroke="#000000" stroke-width="2" stroke-miterlimit="10" cx="205.3" cy="121" rx="1.4" ry="1.4"/>
	
		<ellipse transform="matrix(0.9958 -9.131563e-02 9.131563e-02 0.9958 -11.3485 18.5961)" fill="none" stroke="#000000" stroke-width="2" stroke-miterlimit="10" cx="197.5" cy="133.3" rx="0.8" ry="0.8"/>
	
		<ellipse transform="matrix(0.9958 -9.131563e-02 9.131563e-02 0.9958 -10.896 19.2274)" fill="none" stroke="#000000" stroke-width="2" stroke-miterlimit="10" cx="204.7" cy="128.7" rx="1.8" ry="2.1"/>
	
		<ellipse transform="matrix(0.9958 -9.131563e-02 9.131563e-02 0.9958 -11.7688 19.1519)" fill="none" stroke="#000000" stroke-width="2" stroke-miterlimit="10" cx="203.4" cy="138.2" rx="2.1" ry="2.1"/>
</g>
<g id="Layer_3">
	<path opacity="0" fill="none" stroke="#27AAE1" stroke-width="15" stroke-miterlimit="10" d="M126.3,89.5c7.9,0,15.8,0,23.6,0
		c-10.5,1.2-21,2.9-31.4,5.1c10.2,0.6,20.4,1.2,30.6,1.8c-10.4,2.2-20.7,4.4-31.1,6.5c8,0.7,16.1,1.4,24.1,2.1
		c-9.7,1.3-19.5,2.4-29.2,3.4c8.4,2.2,16.9,3.7,25.6,4.5c-10.1,1.6-20.1,4.2-29.7,7.7c8.6,1,17.2,1.9,25.8,2.9
		c-10.5,3.8-21.8,4.9-33,5.9c8.8,1.9,17.7,3.7,26.5,5.6c-10.9,1.9-21.9,2.8-32.9,3.3c8,1.7,16,3.1,24,4.3
		c-8.6,0.5-17.2,1.4-25.7,2.9c6.7,1,13.4,2,20.1,3c-9.6-0.2-19.3,0.8-28.7,2.9c10.6,0.9,21.3,1.7,31.9,2.6
		c-10.7,1.7-22.5,0.2-31.8,5.8c9.6,2.6,19.3,4.5,29.2,5.7"/>
</g>
</svg>
