<?xml version="1.0" encoding="utf-8"?>
<!-- Generator: Adobe Illustrator 19.2.1, SVG Export Plug-In . SVG Version: 6.00 Build 0)  -->
<svg version="1.0" id="Layer_1" xmlns="http://www.w3.org/2000/svg" xmlns:xlink="http://www.w3.org/1999/xlink" x="0px" y="0px"
	 width="288px" height="288px" viewBox="0 0 288 288" enable-background="new 0 0 288 288" xml:space="preserve">
<polygon fill="none" stroke="#000000" stroke-width="2" stroke-miterlimit="10" points="139.2,72.8 141.7,104.3 151.5,104.3 
	154.2,72.8 "/>
<path fill="none" stroke="#000000" stroke-width="2" stroke-miterlimit="10" d="M140.9,91.5c-16.3,0.1-34.7,1.8-53.5,6.8v-4.3
	c0,0,22.1-8.4,53-9.1"/>
<path fill="none" stroke="#000000" stroke-width="2" stroke-miterlimit="10" d="M153,85c14.5,0.7,30.3,3.2,46.3,9v4.3
	c0,0-18.9-5.4-46.4-6.6"/>
<line fill="none" stroke="#000000" stroke-width="2" stroke-miterlimit="10" x1="143.4" y1="104.3" x2="142" y2="202.6"/>
<line fill="none" stroke="#000000" stroke-width="2" stroke-miterlimit="10" x1="148.2" y1="104.3" x2="151.7" y2="201.9"/>
<path fill="none" stroke="#000000" stroke-width="2" stroke-miterlimit="10" d="M115.5,204.3c1,0,65.5-4.2,65.5-4.2l-4.2,14l-59.8-2
	L115.5,204.3z"/>
<line fill="none" stroke="#000000" stroke-width="2" stroke-miterlimit="10" x1="88.2" y1="97.4" x2="72.6" y2="148.4"/>
<line fill="none" stroke="#000000" stroke-width="2" stroke-miterlimit="10" x1="91.5" y1="97.2" x2="115.1" y2="149.2"/>
<ellipse fill="none" stroke="#000000" stroke-width="2" stroke-miterlimit="10" cx="93.6" cy="150.7" rx="21.9" ry="8.4"/>
<polyline fill="none" stroke="#000000" stroke-width="2" stroke-miterlimit="10" points="71.8,151.5 80.5,166.3 104.5,166.3 
	113.5,154.2 "/>
<line fill="none" stroke="#000000" stroke-width="2" stroke-miterlimit="10" x1="175.6" y1="152.7" x2="195.8" y2="97.4"/>
<line fill="none" stroke="#000000" stroke-width="2" stroke-miterlimit="10" x1="215.3" y1="152.7" x2="199.4" y2="98.3"/>
<ellipse fill="none" stroke="#000000" stroke-width="2" stroke-miterlimit="10" cx="195.5" cy="154.4" rx="20.5" ry="6.9"/>
<path fill="none" stroke="#000000" stroke-width="2" stroke-miterlimit="10" d="M175.6,156.1c0.8,0.7,7.6,12.9,7.6,12.9l25.2,1.3
	l7.5-15.9"/>
</svg>
