<?xml version="1.0" encoding="utf-8"?>
<!-- Generator: Adobe Illustrator 19.2.1, SVG Export Plug-In . SVG Version: 6.00 Build 0)  -->
<svg version="1.0" xmlns="http://www.w3.org/2000/svg" xmlns:xlink="http://www.w3.org/1999/xlink" x="0px" y="0px" width="288px"
	 height="288px" viewBox="0 0 288 288" enable-background="new 0 0 288 288" xml:space="preserve">
<g id="Layer_2">
	<path fill="#27AAE1" d="M136.9,112.5c0,0-1.9,7.9-13,10.8c0,0,3.7,1.4,5.2,2c1.5,0.6,30.8,0,30.8,0l14.9-6.5c0,0-12-7.4-18.6-8.1
		C149.5,110.1,136.9,112.5,136.9,112.5z"/>
</g>
<g id="Layer_1">
	<polygon fill="none" stroke="#000000" stroke-width="2" stroke-miterlimit="10" points="94.2,126.2 202.2,126.2 192.7,157 
		106.2,155.7 	"/>
	<polyline fill="none" stroke="#000000" stroke-width="2" stroke-miterlimit="10" points="118.5,155.9 107,189.5 122.7,189.5 
		129.7,156.1 	"/>
	<polyline fill="none" stroke="#000000" stroke-width="2" stroke-miterlimit="10" points="173,156.7 180.2,188.2 196,188.2 
		184.5,157 	"/>
	<polyline fill="none" stroke="#000000" stroke-width="2" stroke-miterlimit="10" points="131.5,126.2 105.2,116.2 115.2,126.2 	"/>
	<polyline fill="none" stroke="#000000" stroke-width="2" stroke-miterlimit="10" points="109,120 88,114 99.5,126.2 	"/>
	<polyline fill="none" stroke="#000000" stroke-width="2" stroke-miterlimit="10" points="157.5,126.2 179.7,117.5 173,126.2 	"/>
	<polyline fill="none" stroke="#000000" stroke-width="2" stroke-miterlimit="10" points="174.7,126.2 199.6,116.2 190.2,126.2 	"/>
	<line fill="none" stroke="#000000" stroke-width="2" stroke-miterlimit="10" x1="109" y1="132.7" x2="190.4" y2="136.5"/>
	<line fill="none" stroke="#000000" stroke-width="2" stroke-miterlimit="10" x1="178" y1="141" x2="147.4" y2="141"/>
	<path fill="none" stroke="#000000" stroke-width="2" stroke-miterlimit="10" d="M114.7,145.2c0.4,0,46.3,1.5,46.3,1.5"/>
	<line fill="none" stroke="#000000" stroke-width="2" stroke-miterlimit="10" x1="123.9" y1="150.6" x2="150.5" y2="150.6"/>
	<line fill="none" stroke="#000000" stroke-width="2" stroke-miterlimit="10" x1="112.9" y1="189.5" x2="121.1" y2="162"/>
	<line fill="none" stroke="#000000" stroke-width="2" stroke-miterlimit="10" x1="180.5" y1="165.6" x2="184.5" y2="183.1"/>
	
		<ellipse transform="matrix(0.2597 -0.9657 0.9657 0.2597 -15.2822 201.6846)" fill="none" stroke="#000000" stroke-width="2" stroke-miterlimit="10" cx="123.9" cy="110.8" rx="12" ry="13.2"/>
	<path fill="none" stroke="#000000" stroke-width="2" stroke-miterlimit="10" d="M136.9,112.5c0,0,16.5-8.7,38.4,6.7"/>
</g>
<g id="Layer_3">
	<path opacity="0" fill="none" stroke="#27AAE1" stroke-width="15" stroke-miterlimit="10" d="M133,109.8c11.8-0.5,23.6,0,35.3,1.7
		c-11.6,1.9-23.5,2.1-35.3,2.3c14,0.9,28,1.8,42,2.7c-16.6,0-33.3,0-49.9-0.1c14.9,3.8,30.5,4.2,45.9,4.3c-16.2,0-32.3,0-48.5,0
		c-0.8,0-1.7,0-2.3,0.6c-0.9,0.9-0.4,2.5,0.6,3.2c1,0.7,2.3,0.7,3.6,0.8c18.6,0.3,37.2,0.5,55.7,0.8"/>
</g>
</svg>
