<?xml version="1.0" encoding="utf-8"?>
<!-- Generator: Adobe Illustrator 19.2.1, SVG Export Plug-In . SVG Version: 6.00 Build 0)  -->
<svg version="1.0" id="Layer_1" xmlns="http://www.w3.org/2000/svg" xmlns:xlink="http://www.w3.org/1999/xlink" x="0px" y="0px"
	 width="288px" height="288px" viewBox="0 0 288 288" enable-background="new 0 0 288 288" xml:space="preserve">
<path fill="none" stroke="#000000" stroke-width="2" stroke-miterlimit="10" d="M5.2,200.2l3.5-26l13-12.2l13.5,5
	c0,0,9.3,9.8,10.3,9.8s26-0.2,26.5,0.8s5.5,24.1,5.5,24.1"/>
<path fill="none" stroke="#000000" stroke-width="2" stroke-miterlimit="10" d="M109.5,201.8l3.3-23.5c0,0,7.6-3.6,12.5-5.9"/>
<path fill="none" stroke="#000000" stroke-width="2" stroke-miterlimit="10" d="M162.8,172.9c3.7,2.2,8.7,5.6,8.7,5.6l5.2,23.1"/>
<path fill="none" stroke="#000000" stroke-width="2" stroke-miterlimit="10" d="M282.5,200.2l-3.5-26L266,162l-13.5,5
	c0,0-9.3,9.8-10.3,9.8s-26-0.2-26.5,0.8s-5.5,24.1-5.5,24.1"/>
<line fill="none" stroke="#000000" stroke-width="2" stroke-miterlimit="10" x1="55.8" y1="188.4" x2="54" y2="193.2"/>
<line fill="none" stroke="#000000" stroke-width="2" stroke-miterlimit="10" x1="55.8" y1="195" x2="59.2" y2="189.8"/>
<line fill="none" stroke="#000000" stroke-width="2" stroke-miterlimit="10" x1="127.3" y1="177" x2="123.8" y2="180.2"/>
<line fill="none" stroke="#000000" stroke-width="2" stroke-miterlimit="10" x1="131" y1="178.6" x2="126.3" y2="183.5"/>
<line fill="none" stroke="#000000" stroke-width="2" stroke-miterlimit="10" x1="135.3" y1="190.5" x2="141.3" y2="190.5"/>
<line fill="none" stroke="#000000" stroke-width="2" stroke-miterlimit="10" x1="135.3" y1="194" x2="143.2" y2="194"/>
<line fill="none" stroke="#000000" stroke-width="2" stroke-miterlimit="10" x1="158.2" y1="188.4" x2="159.8" y2="192.4"/>
<line fill="none" stroke="#000000" stroke-width="2" stroke-miterlimit="10" x1="160.5" y1="185.2" x2="163.3" y2="191.5"/>
<line fill="none" stroke="#000000" stroke-width="2" stroke-miterlimit="10" x1="232" y1="188.4" x2="233.7" y2="193.2"/>
<line fill="none" stroke="#000000" stroke-width="2" stroke-miterlimit="10" x1="232" y1="195" x2="228.5" y2="189.8"/>
<line fill="none" stroke="#000000" stroke-width="2" stroke-miterlimit="10" x1="273" y1="185.2" x2="267.7" y2="181.8"/>
<line fill="none" stroke="#000000" stroke-width="2" stroke-miterlimit="10" x1="271.5" y1="188.4" x2="265.7" y2="185.2"/>
<path fill="none" stroke="#000000" stroke-width="2" stroke-miterlimit="10" d="M46.9,111.3c-1.6-3-2.4-7.1-1.8-11.5
	c1.1-8.3,6.4-14.4,11.9-13.7s9.1,8,8,16.3c-0.6,4.5-2.4,8.4-4.8,10.8"/>
<path fill="none" stroke="#000000" stroke-width="2" stroke-miterlimit="10" d="M77.1,199.6l19.4-4.6L95,155c0,0-28.8-3-29.8-3
	s5-34.8,5-34.8c-14.2-7.2-33-5.8-35-5.9L23,162.5"/>
<path fill="none" stroke="#000000" stroke-width="2" stroke-miterlimit="10" d="M66.7,138.7c-0.1,0.5,2.4,13.6,2.4,13.6"/>
<path fill="none" stroke="#000000" stroke-width="2" stroke-miterlimit="10" d="M70.2,117.2c1.1,1.2,9.7,36.2,9.7,36.2"/>
<line fill="none" stroke="#000000" stroke-width="2" stroke-miterlimit="10" x1="77.8" y1="146.3" x2="88.2" y2="154.3"/>
<polyline fill="none" stroke="#000000" stroke-width="2" stroke-miterlimit="10" points="84.3,197.9 84.3,201.6 104.3,201.6 
	98.5,197.9 88.2,197 "/>
<path fill="none" stroke="#000000" stroke-width="2" stroke-miterlimit="10" d="M65.3,115.5c0,0-23.9,8.7-35.3,17.6"/>
<path fill="none" stroke="#000000" stroke-width="2" stroke-miterlimit="10" d="M27.4,143.9c0,0,27.4-16.8,41.2-17.3"/>
<path fill="none" stroke="#000000" stroke-width="2" stroke-miterlimit="10" d="M240.9,111.3c1.6-3,2.4-7.1,1.8-11.5
	c-1.1-8.3-6.4-14.4-11.9-13.7c-5.5,0.7-9.1,8-8,16.3c0.6,4.5,2.4,8.4,4.8,10.8"/>
<path fill="none" stroke="#000000" stroke-width="2" stroke-miterlimit="10" d="M210.7,199.6l-19.4-4.6l1.5-40c0,0,28.8-3,29.8-3
	s-5-34.8-5-34.8c14.2-7.2,33-5.8,35-5.9l12.2,51.2"/>
<path fill="none" stroke="#000000" stroke-width="2" stroke-miterlimit="10" d="M217.5,117.2c-1.1,1.2-9.7,36.2-9.7,36.2"/>
<path fill="none" stroke="#000000" stroke-width="2" stroke-miterlimit="10" d="M221,138.7c0.1,0.5-2.4,13.6-2.4,13.6"/>
<line fill="none" stroke="#000000" stroke-width="2" stroke-miterlimit="10" x1="210" y1="146.3" x2="199.6" y2="154.3"/>
<path fill="none" stroke="#000000" stroke-width="2" stroke-miterlimit="10" d="M222.4,115.5c0,0,23.9,8.7,35.3,17.6"/>
<path fill="none" stroke="#000000" stroke-width="2" stroke-miterlimit="10" d="M260.3,143.9c0,0-27.4-16.8-41.2-17.3"/>
<polyline fill="none" stroke="#000000" stroke-width="2" stroke-miterlimit="10" points="203.5,197.9 203.5,201.6 183.4,201.6 
	189.2,197.9 199.6,197 "/>
<path fill="none" stroke="#000000" stroke-width="2" stroke-miterlimit="10" d="M139.9,110.6c-2.3-2.5-3.7-6.3-3.7-10.5
	c0-7.4,4.4-13.4,9.8-13.4s9.8,6,9.8,13.4c0,4.2-1.4,8-3.7,10.5"/>
<path fill="none" stroke="#000000" stroke-width="2" stroke-miterlimit="10" d="M162.7,113.5c-17-7-35.7,0-35.7,0l-5.2,58.2
	c0,0,33.5,4.5,45.2,0L162.7,113.5z"/>
<path fill="none" stroke="#000000" stroke-width="2" stroke-miterlimit="10" d="M163.3,121.7c0,0-23.4,35.1-40.9,43.5"/>
<path fill="none" stroke="#000000" stroke-width="2" stroke-miterlimit="10" d="M154,111.1c0,0-18.9,26.3-30.2,38.4"/>
<path fill="none" stroke="#000000" stroke-width="2" stroke-miterlimit="10" d="M126.9,114.7c0,0-9.4,24.6-10.2,30
	c0,0,3.6,7.2,6.7,8.8"/>
<path fill="none" stroke="#000000" stroke-width="2" stroke-miterlimit="10" d="M162.7,113.5c0,0,10.7,25.7,10.5,30.4l-7.7,7.6"/>
</svg>
