<?xml version="1.0" encoding="utf-8"?>
<!-- Generator: Adobe Illustrator 21.0.0, SVG Export Plug-In . SVG Version: 6.00 Build 0)  -->
<!DOCTYPE svg PUBLIC "-//W3C//DTD SVG 1.0//EN" "http://www.w3.org/TR/2001/REC-SVG-20010904/DTD/svg10.dtd">
<svg version="1.0" xmlns="http://www.w3.org/2000/svg" xmlns:xlink="http://www.w3.org/1999/xlink" x="0px" y="0px" width="288px"
	 height="288px" viewBox="0 0 288 288" enable-background="new 0 0 288 288" xml:space="preserve">
<g id="Color">
	<g>
		<path fill="#FFFFFF" d="M162.8,172.9c0,0,0,0-0.1-0.1c1.6-0.3,3.1-0.7,4.3-1.1l-1.5-20.2l7.7-7.6c0.2-4.7-10.5-30.4-10.5-30.4
			c-4.1-1.7-8.2-2.5-12.2-2.9h1.6c2.3-2.5,3.7-6.3,3.7-10.5c0-7.4-4.4-13.4-9.8-13.4s-9.8,6-9.8,13.4c0,4.2,1.4,8,3.7,10.5h1.1
			c-8.2,0.7-14,2.9-14,2.9l-0.1,1.2c-0.2,0.5-9.4,24.6-10.2,30c0,0,3.6,7.2,6.7,8.8l2.7-30.4l-4.3,48.6c0,0,1,0.1,2.6,0.3l-7.7,4.4
			c-2.2,1.1-3.9,1.8-3.9,1.8l-3.3,23.5l67.2-0.2l-5.2-23.1C171.5,178.5,166.5,175.1,162.8,172.9z"/>
		<path fill="#FFFFFF" d="M282.5,200.2l-3.5-26L266,162l-1.2,0.4l-12.2-51.1c-1.1,0.1-7.5-0.4-15.5,0.5l3.8-0.5
			c1.6-3,2.4-7.1,1.8-11.5c-1.1-8.3-6.4-14.4-11.9-13.7c-5.5,0.7-9.1,8-8,16.3c0.6,4.5,2.4,8.4,4.8,10.8l5-0.7
			c-5,0.9-10.2,2.3-15,4.7c0,0,0,0,0,0.1l-0.1-0.1l-8.7,36.1h0l1.9-7.8l-1,0.8l7.8-29.1c-0.8,0.9-5.4,19-8,29.3l-9.8,7.8
			c-4,0.4-7,0.7-7,0.7l-1.5,40l19.4,4.6c-0.3,1.3-0.5,2.1-0.5,2.1L282.5,200.2z M221,138.7l0.1-0.2c1.1,7.2,1.9,13.5,1.5,13.5
			c-0.2,0-1.8,0.1-4.1,0.4L221,138.7z"/>
		<path fill="#FFFFFF" d="M77.1,199.6l19.4-4.6L95,155c0,0-2.8-0.3-6.8-0.7h0l-9.6-6.6l-0.2-0.1c-2.5-10-7.4-29.5-8.3-30.4l8.1,30.3
			l0,0l-8.1-30.3c-4.7-2.4-10-3.9-15-4.7l5,0.7c2.4-2.4,4.2-6.3,4.8-10.8c1.1-8.3-2.5-15.6-8-16.3c-5.5-0.7-10.8,5.4-11.9,13.7
			c-0.6,4.4,0.2,8.5,1.8,11.5l3.8,0.5c-7.9-0.9-14.3-0.5-15.5-0.5L30,133.1c0,0,0,0,0,0l0,0l-2.6,10.8c0,0,0,0,0,0l0,0L23,162.5
			l-1.3-0.5l-13,12.2l-3.5,26l72.3,1.5C77.5,201.7,77.3,200.9,77.1,199.6L77.1,199.6z M66.5,140.1l2.6,12.2l0,0.1
			c-2.2-0.2-3.7-0.4-3.9-0.4C64.8,152,65.5,146.6,66.5,140.1z"/>
		<polygon fill="#FFFFFF" points="88.2,197 84.3,197.9 84.3,201.6 104.3,201.6 98.5,197.9 		"/>
		<path fill="#FFFFFF" d="M221,138.7l-2.4,13.6C218.6,152.3,221.1,139.2,221,138.7z"/>
		<polygon fill="#FFFFFF" points="189.2,197.9 183.4,201.6 203.5,201.6 203.5,197.9 199.6,197 		"/>
	</g>
</g>
<g id="Lines">
	<path fill="none" stroke="#000000" stroke-width="2" stroke-miterlimit="10" d="M5.2,200.2l3.5-26l13-12.2l13.5,5
		c0,0,9.3,9.8,10.3,9.8s26-0.2,26.5,0.8s5.5,24.1,5.5,24.1"/>
	<path fill="none" stroke="#000000" stroke-width="2" stroke-miterlimit="10" d="M109.5,201.8l3.3-23.5c0,0,7.6-3.6,12.5-5.9"/>
	<path fill="none" stroke="#000000" stroke-width="2" stroke-miterlimit="10" d="M162.8,172.9c3.7,2.2,8.7,5.6,8.7,5.6l5.2,23.1"/>
	<path fill="none" stroke="#000000" stroke-width="2" stroke-miterlimit="10" d="M282.5,200.2l-3.5-26L266,162l-13.5,5
		c0,0-9.3,9.8-10.3,9.8s-26-0.2-26.5,0.8s-5.5,24.1-5.5,24.1"/>
	<line fill="none" stroke="#000000" stroke-width="2" stroke-miterlimit="10" x1="55.8" y1="188.4" x2="54" y2="193.2"/>
	<line fill="none" stroke="#000000" stroke-width="2" stroke-miterlimit="10" x1="55.8" y1="195" x2="59.2" y2="189.8"/>
	<line fill="none" stroke="#000000" stroke-width="2" stroke-miterlimit="10" x1="127.3" y1="177" x2="123.8" y2="180.2"/>
	<line fill="none" stroke="#000000" stroke-width="2" stroke-miterlimit="10" x1="131" y1="178.6" x2="126.3" y2="183.5"/>
	<line fill="none" stroke="#000000" stroke-width="2" stroke-miterlimit="10" x1="135.3" y1="190.5" x2="141.3" y2="190.5"/>
	<line fill="none" stroke="#000000" stroke-width="2" stroke-miterlimit="10" x1="135.3" y1="194" x2="143.2" y2="194"/>
	<line fill="none" stroke="#000000" stroke-width="2" stroke-miterlimit="10" x1="158.2" y1="188.4" x2="159.8" y2="192.4"/>
	<line fill="none" stroke="#000000" stroke-width="2" stroke-miterlimit="10" x1="160.5" y1="185.2" x2="163.3" y2="191.5"/>
	<line fill="none" stroke="#000000" stroke-width="2" stroke-miterlimit="10" x1="232" y1="188.4" x2="233.7" y2="193.2"/>
	<line fill="none" stroke="#000000" stroke-width="2" stroke-miterlimit="10" x1="232" y1="195" x2="228.5" y2="189.8"/>
	<line fill="none" stroke="#000000" stroke-width="2" stroke-miterlimit="10" x1="273" y1="185.2" x2="267.7" y2="181.8"/>
	<line fill="none" stroke="#000000" stroke-width="2" stroke-miterlimit="10" x1="271.5" y1="188.4" x2="265.7" y2="185.2"/>
	<path fill="none" stroke="#000000" stroke-width="2" stroke-miterlimit="10" d="M46.9,111.3c-1.6-3-2.4-7.1-1.8-11.5
		c1.1-8.3,6.4-14.4,11.9-13.7s9.1,8,8,16.3c-0.6,4.5-2.4,8.4-4.8,10.8"/>
	<path fill="none" stroke="#000000" stroke-width="2" stroke-miterlimit="10" d="M77.1,199.6l19.4-4.6L95,155c0,0-28.8-3-29.8-3
		s5-34.8,5-34.8c-14.2-7.2-33-5.8-35-5.9L23,162.5"/>
	<path fill="none" stroke="#000000" stroke-width="2" stroke-miterlimit="10" d="M66.7,138.7c-0.1,0.5,2.4,13.6,2.4,13.6"/>
	<path fill="none" stroke="#000000" stroke-width="2" stroke-miterlimit="10" d="M70.2,117.2c1.1,1.2,9.7,36.2,9.7,36.2"/>
	<line fill="none" stroke="#000000" stroke-width="2" stroke-miterlimit="10" x1="77.8" y1="146.3" x2="88.2" y2="154.3"/>
	<polyline fill="none" stroke="#000000" stroke-width="2" stroke-miterlimit="10" points="84.3,197.9 84.3,201.6 104.3,201.6 
		98.5,197.9 88.2,197 	"/>
	<path fill="none" stroke="#000000" stroke-width="2" stroke-miterlimit="10" d="M65.3,115.5c0,0-23.9,8.7-35.3,17.6"/>
	<path fill="none" stroke="#000000" stroke-width="2" stroke-miterlimit="10" d="M27.4,143.9c0,0,27.4-16.8,41.2-17.3"/>
	<path fill="none" stroke="#000000" stroke-width="2" stroke-miterlimit="10" d="M240.9,111.3c1.6-3,2.4-7.1,1.8-11.5
		c-1.1-8.3-6.4-14.4-11.9-13.7c-5.5,0.7-9.1,8-8,16.3c0.6,4.5,2.4,8.4,4.8,10.8"/>
	<path fill="none" stroke="#000000" stroke-width="2" stroke-miterlimit="10" d="M210.7,199.6l-19.4-4.6l1.5-40c0,0,28.8-3,29.8-3
		s-5-34.8-5-34.8c14.2-7.2,33-5.8,35-5.9l12.2,51.2"/>
	<path fill="none" stroke="#000000" stroke-width="2" stroke-miterlimit="10" d="M217.5,117.2c-1.1,1.2-9.7,36.2-9.7,36.2"/>
	<path fill="none" stroke="#000000" stroke-width="2" stroke-miterlimit="10" d="M221,138.7c0.1,0.5-2.4,13.6-2.4,13.6"/>
	<line fill="none" stroke="#000000" stroke-width="2" stroke-miterlimit="10" x1="210" y1="146.3" x2="199.6" y2="154.3"/>
	<path fill="none" stroke="#000000" stroke-width="2" stroke-miterlimit="10" d="M222.4,115.5c0,0,23.9,8.7,35.3,17.6"/>
	<path fill="none" stroke="#000000" stroke-width="2" stroke-miterlimit="10" d="M260.3,143.9c0,0-27.4-16.8-41.2-17.3"/>
	<polyline fill="none" stroke="#000000" stroke-width="2" stroke-miterlimit="10" points="203.5,197.9 203.5,201.6 183.4,201.6 
		189.2,197.9 199.6,197 	"/>
	<path fill="none" stroke="#000000" stroke-width="2" stroke-miterlimit="10" d="M139.9,110.6c-2.3-2.5-3.7-6.3-3.7-10.5
		c0-7.4,4.4-13.4,9.8-13.4s9.8,6,9.8,13.4c0,4.2-1.4,8-3.7,10.5"/>
	<path fill="none" stroke="#000000" stroke-width="2" stroke-miterlimit="10" d="M162.7,113.5c-17-7-35.7,0-35.7,0l-5.2,58.2
		c0,0,33.5,4.5,45.2,0L162.7,113.5z"/>
	<path fill="none" stroke="#000000" stroke-width="2" stroke-miterlimit="10" d="M163.3,121.7c0,0-23.4,35.1-40.9,43.5"/>
	<path fill="none" stroke="#000000" stroke-width="2" stroke-miterlimit="10" d="M154,111.1c0,0-18.9,26.3-30.2,38.4"/>
	<path fill="none" stroke="#000000" stroke-width="2" stroke-miterlimit="10" d="M126.9,114.7c0,0-9.4,24.6-10.2,30
		c0,0,3.6,7.2,6.7,8.8"/>
	<path fill="none" stroke="#000000" stroke-width="2" stroke-miterlimit="10" d="M162.7,113.5c0,0,10.7,25.7,10.5,30.4l-7.7,7.6"/>
</g>
<g id="Stroke">
	
		<path opacity="0" fill="none" stroke="#231F20" stroke-width="31" stroke-linecap="round" stroke-linejoin="round" stroke-miterlimit="10" d="
		M37,79.3c72.2-0.5,144.5,1.3,216.6,5.5c-6.3,3.3-13.8,3.5-20.9,3.6c-63.7,0.9-127.7-0.5-191.1,5.9c21,1.3,42,2.6,62.9,3.9
		c33.4,2.1,66.9,4.1,100.3,2.3c21.1-1.2,42.3-4,63.3-1.6c-19.5,7-40.1,10.8-60.5,14.3c-17.2,2.9-34.5,5.7-51.9,5.1
		c-17.1-0.6-33.9-4.3-50.9-6c-29.8-2.9-59.9,0.6-89.6,4c51.2,11.2,104.5,2.1,156.7,5.5c19.6,1.3,39.2,4.3,58.9,3.5
		c11.7-0.5,24.3-2.1,34.2,4.1c-13.9,2.2-28,3.9-42,5.1c-71.2,5.9-143.1-2.1-214.3,4.6c2.4,4.4,7.4,6.6,12.1,8.2
		c31.3,10.8,65.2,9.7,98.2,8.5c52.9-2,105.8-3.9,158.7-5.9c1.2,2.3,1.8,5,1.7,7.6c-21.4,11.8-47.5,7.2-71.9,6.4
		c-17.7-0.5-35.4,1.2-53.1,2.4c-32.5,2.3-65.1,3-97.7,3.1c-18.8,0.1-39,0.4-54.4,11.1c31.2,8.9,64.1,7.9,96.5,7.3
		c60.4-1.2,120.9-0.8,181.3,1c3.4,0.1,7.4,0.6,8.9,3.6c-13.9,5.6-29.3,5.4-44.2,5.1c-35.4-0.6-70.9-1.2-106.3-1.8
		c-25.6-0.4-51.3-0.9-76.9,1.2c-19.8,1.6-39.8,4.7-59.4,1.4"/>
</g>
</svg>
