<?xml version="1.0" encoding="utf-8"?>
<!-- Generator: Adobe Illustrator 20.1.0, SVG Export Plug-In . SVG Version: 6.00 Build 0)  -->
<!DOCTYPE svg PUBLIC "-//W3C//DTD SVG 1.0//EN" "http://www.w3.org/TR/2001/REC-SVG-20010904/DTD/svg10.dtd">
<svg version="1.0" id="Layer_1" xmlns="http://www.w3.org/2000/svg" xmlns:xlink="http://www.w3.org/1999/xlink" x="0px" y="0px"
	 width="288px" height="288px" viewBox="0 0 288 288" enable-background="new 0 0 288 288" xml:space="preserve">
<path fill="none" stroke="#000000" stroke-width="5" stroke-linecap="round" stroke-miterlimit="10" d="M77.3,114.7
	c-6.1-5.9-10.8-10.4-10.8-10.4"/>
<path fill="none" stroke="#000000" stroke-width="5" stroke-linecap="round" stroke-miterlimit="10" d="M107.7,144
	c0,0-13.6-13.1-25.1-24.2"/>
<path fill="none" stroke="#000000" stroke-width="5" stroke-linecap="round" stroke-miterlimit="10" d="M65.3,147.6
	c-12.5-4.8-23-8.9-23-8.9"/>
<path fill="none" stroke="#000000" stroke-width="5" stroke-linecap="round" stroke-miterlimit="10" d="M106.5,163.5
	c0,0-10.2-3.9-22.4-8.7"/>
<path fill="none" stroke="#000000" stroke-width="5" stroke-linecap="round" stroke-miterlimit="10" d="M58.7,179.6
	c-5.7-0.5-9.5-0.9-9.5-0.9"/>
<path fill="none" stroke="#000000" stroke-width="5" stroke-linecap="round" stroke-miterlimit="10" d="M80.6,181.6
	c-5.5-0.5-11.2-1-16.3-1.5"/>
<path fill="none" stroke="#000000" stroke-width="5" stroke-linecap="round" stroke-miterlimit="10" d="M103,183.7
	c0,0-5.4-0.5-12.7-1.2"/>
<path fill="none" stroke="#000000" stroke-width="5" stroke-linecap="round" stroke-miterlimit="10" d="M179.7,144
	c0,0,13.6-13.1,25.1-24.2"/>
<path fill="none" stroke="#000000" stroke-width="5" stroke-linecap="round" stroke-miterlimit="10" d="M210.1,114.7
	c6.1-5.9,10.8-10.4,10.8-10.4"/>
<path fill="none" stroke="#000000" stroke-width="5" stroke-linecap="round" stroke-miterlimit="10" d="M181,163.5
	c0,0,10.2-3.9,22.4-8.7"/>
<path fill="none" stroke="#000000" stroke-width="5" stroke-linecap="round" stroke-miterlimit="10" d="M222.1,147.6
	c12.5-4.8,23-8.9,23-8.9"/>
<path fill="none" stroke="#000000" stroke-width="5" stroke-linecap="round" stroke-miterlimit="10" d="M184.4,183.7
	c0,0,5.4-0.5,12.7-1.2"/>
<path fill="none" stroke="#000000" stroke-width="5" stroke-linecap="round" stroke-miterlimit="10" d="M206.8,181.6
	c5.5-0.5,11.2-1,16.3-1.5"/>
<path fill="none" stroke="#000000" stroke-width="5" stroke-linecap="round" stroke-miterlimit="10" d="M228.7,179.6
	c5.7-0.5,9.5-0.9,9.5-0.9"/>
</svg>
