<?xml version="1.0" encoding="utf-8"?>
<!-- Generator: Adobe Illustrator 20.1.0, SVG Export Plug-In . SVG Version: 6.00 Build 0)  -->
<!DOCTYPE svg PUBLIC "-//W3C//DTD SVG 1.0//EN" "http://www.w3.org/TR/2001/REC-SVG-20010904/DTD/svg10.dtd">
<svg version="1.0" xmlns="http://www.w3.org/2000/svg" xmlns:xlink="http://www.w3.org/1999/xlink" x="0px" y="0px" width="288px"
	 height="288px" viewBox="0 0 288 288" enable-background="new 0 0 288 288" xml:space="preserve">
<g id="Fill">
	<g>
		<path fill="#FFFFFF" d="M138.8,137.4l-9.7,2.5c0,0,0.3,2.8,0.5,5.3l13.7-1.8L138.8,137.4z"/>
		<path fill="#FFFFFF" d="M218.1,215.8c0,0-1.5,4.5-1.4,5.6l0,0l-26.7,3.7l9.4-10.7c0.1,0,0.2-0.1,0.2-0.1
			c0-35.7-12.8-54.3-12.8-54.3l-0.3,0.4c0,0,0,0,0,0c1.2-1.7,2.2-3.6,2.9-5.8c2.5-7.9-0.1-15.7-5.6-17.5
			c-5.6-1.7-12.1,3.3-14.6,11.2c-2.1,6.6-0.6,13.1,3.1,16.1l-1,0.2c0,0.2,0.1,0.5,0.1,0.7c-10.4,2.7-23.4-11-23.5-11.2l-1.5,1.4
			c0,0,0,0,0.1,0.1l-0.7-0.4c-0.9,0.6-2,0.2-3,0c-0.6,0.3-1.4,0.6-2.2,0.6c-0.2,0.2-0.3,0.5-0.3,0.8c0,0.5,0.4,0.8,0.7,1.2l0.2,0.2
			l-1.2-0.7c3.7,7.4,15,26.8,33.1,27c0,0,0,0,0,0c-1.5,18.3-8.6,30.1-8.6,30.1c0.7,0.3,1.4,0.6,2.1,0.9c-0.3,0.3-0.6,0.7-0.8,1.1
			l0-0.4l-13.5,15.3c0,0,5.2,5,15,4.1l0-0.2c0,0,0.1,0,0.1,0l-3,5.2c0,0,32.5,1.4,53.5-14.8l4.9,3.1l14-3.1L218.1,215.8z"/>
	</g>
	<g>
		<path d="M142.2,143.7l1.6-1.2l-4.9-6.5l-11.2,2.9l0.1,0.9c0,0,0.3,2.8,0.5,5.3l2-0.2c-0.1-1.6-0.3-3.4-0.4-4.5l8.2-2.1
			L142.2,143.7z"/>
		<path d="M239.5,225.7l-22.3-11.6l-0.4,1.1c-0.3,0.9-1.1,3.5-1.4,5.1l-23.2,3.2l7.5-8.5l0.6-0.2V214c0-32.8-10.5-51-12.6-54.3
			c1-1.5,1.8-3.2,2.3-5.1c1.3-4,1.3-8.2,0.2-11.7c-1.2-3.6-3.5-6.1-6.5-7.1c-6.1-1.9-13.2,3.4-15.8,11.8c-2.1,6.8-0.7,13.6,3.2,17
			c0,0.1,0,0.2,0.1,0.3c-10.4,2.7-23.4-11-23.5-11.2l-1.1,1c-0.1-0.1-0.1-0.2-0.2-0.3l-1.7,1.1c9.3,13.7,20.7,16.9,29.4,16.9
			c7.7,0,13.2-2.5,13.3-2.5l-0.8-1.8c-0.4,0.2-5.7,2.5-12.8,2.5c-0.1-1.5-0.3-3-0.5-4.6c0.3,0.1,0.6,0.2,0.9,0.3
			c0.8,0.3,1.7,0.4,2.6,0.4c3.4,0,7-2,9.7-5.3c2.7,4.5,11.8,22.2,11.9,51.9c-3.3,1.2-18.8,6.3-32.6,0.2c1.7-3.1,6.7-13.6,8.1-28.7
			c3-0.1,6.2-0.6,9.5-1.9l-0.7-1.9c-23.4,8.5-38-16.8-42-24.7l-1.8,0.9c3.4,6.9,14.7,26.5,32.9,27.5c-1.6,17.2-8.3,28.5-8.4,28.6
			l-0.6,0.9l1,0.5c0.2,0.1,0.5,0.2,0.7,0.3L150.7,231l0.7,0.7c0.2,0.2,4.8,4.5,13.3,4.5c0.2,0,0.4,0,0.6,0l-2.8,4.9l1.6,0.1
			c0,0,0.7,0,1.9,0c7.2,0,33.6-1,51.8-14.6l4.6,2.9L239.5,225.7z M148.5,157.5c3.9,3.5,11.9,9.9,19.8,9.9c1.1,0,2.1-0.1,3.2-0.4
			c0.2,1.2,0.3,2.4,0.4,3.6C164.7,170.1,156.1,167,148.5,157.5z M174.8,164.5c-5.1-1.6-7.3-8.9-5-16.2c2-6.4,6.8-10.8,11.3-10.8
			c0.7,0,1.4,0.1,2,0.3c2.4,0.7,4.2,2.8,5.2,5.8c1,3.1,0.9,6.8-0.2,10.4C185.8,161.4,179.8,166.1,174.8,164.5z M218.4,216.9l15.3,8
			l-10.9,2.4l-3.3-2.1l0.2-0.2v-5.4l-2.1,0.3C217.7,219.1,218,218,218.4,216.9z M153.5,230.8l12.8-14.5l-0.6-0.5
			c3.3,1.3,6.6,2.1,9.9,2.5l-9.1,15.8C159.7,234.5,155.2,232,153.5,230.8z M165.9,239.1l11.9-20.7c0.9,0.1,1.9,0.1,2.8,0.1
			c6.3,0,11.8-1.3,15.3-2.3l-8.8,10l30.5-4.2v2.2c-17.7,14-44.4,15-51.6,15C166,239.1,166,239.1,165.9,239.1z"/>
	</g>
</g>
<g id="Stroke">
	
		<path opacity="0" fill="none" stroke="#231F20" stroke-width="15" stroke-linecap="round" stroke-linejoin="round" stroke-miterlimit="10" d="
		M113.3,126.1c26.1-0.6,52.4-1.2,78.3,2.5c1.7,0.2,3.7,0.8,4,2.5c-24.7,1-50.2-1.8-73.4,6.8c-1.6,0.6-3.2,1.3-4.2,2.6
		c8.5,2.8,17.8,1.7,26.8,1.1c16.3-1.2,32.8-1,49.1,0.7c-3.1,3.4-8.3,4-12.9,4.1c-16.2,0.6-32.5-0.2-48.5,2.7
		c-2.4,0.4-5.1,1.2-6.2,3.4c1.7,1.3,3.9,1.6,6,1.9c24,2.8,48.5-1.5,72.2,3.4c-18.4,7.1-40.8-0.1-57.8,9.8c-1.3,0.7-2.6,1.9-2.4,3.3
		c16.7,1.6,33.4,2.1,50.2,1.5c4.7-0.2,9.7-0.3,13.5,2.3c-1,3.2-4.6,4.7-7.8,5.6c-8.9,2.4-18.3,2.2-27.5,3.1
		c-9.2,0.8-18.7,2.9-25.8,8.8c14.5,0.9,29,1.1,43.5,0.7c6.5-0.2,13.8-0.2,18.3,4.4c-2.6,2.6-6.6,3.2-10.3,3.5
		c-7.1,0.7-14.2,1.5-21.2,2.2c-9.9,1-20.1,2.1-29.2,6.4c19.5,1.7,39.1,1.7,58.5-0.1c1.3-0.1,2.8-0.1,3.6,0.9
		c1.2,1.8-1.1,3.8-3.1,4.5c-10.4,3.7-21.9,2.5-32.9,3.7c-7,0.8-14,2.6-20.5,5.3c-2.6,1.1-5.6,3.3-4.8,6c6.8,0.2,13.6-0.1,20.4-0.3
		c21-0.8,42.3-6.1,62.6-11.4c6.4-1.7,12.8,0.7,19.3,0.9c0.1,2.9-2.7,5-5.3,6.1c-12.8,5.7-27.5,3.9-41.4,6
		c-16.2,2.4-31.8,10.3-48.1,8.9"/>
</g>
</svg>
