<?xml version="1.0" encoding="utf-8"?>
<!-- Generator: Adobe Illustrator 19.2.1, SVG Export Plug-In . SVG Version: 6.00 Build 0)  -->
<svg version="1.0" xmlns="http://www.w3.org/2000/svg" xmlns:xlink="http://www.w3.org/1999/xlink" x="0px" y="0px" width="288px"
	 height="288px" viewBox="0 0 288 288" enable-background="new 0 0 288 288" xml:space="preserve">
<g id="Layer_2">
	<path fill="#27AAE1" d="M115.1,142.7c-2-1.8-4.1-4.4-5.3-6.9c-5.3,6.6-10.7,12-15.2,14.2l-2.7,17.6l24.6-23.9
		C116.1,143.4,115.6,143.1,115.1,142.7z"/>
	<path fill="#27AAE1" d="M135,98c0,0-5.5,9.9-13,21.1c0.7,0.1,1.3,0.4,1.9,1c2,2.1,3.8,4,6.7,4.4l5.8-7.9L137,98L135,98z"/>
</g>
<g id="Layer_1">
	<path fill="none" stroke="#000000" stroke-width="2" stroke-miterlimit="10" d="M125.2,87.3l-4-0.2c-6.6-0.4-11.7-6-11.3-12.6
		l0.9-15.8c0.4-6.6,6-11.7,12.6-11.3l4,0.2c6.6,0.4,11.7,6,11.3,12.6L137.8,76C137.4,82.6,131.8,87.7,125.2,87.3z"/>
	<path fill="none" stroke="#000000" stroke-width="2" stroke-miterlimit="10" d="M110.2,68.7c0,0,6.3,1.6,10.3,0.5
		c4-1.2,9.6-0.5,10.3,1c0.7,1.6,7.3,1.9,7.3,1.9"/>
	<path fill="none" stroke="#000000" stroke-width="2" stroke-miterlimit="10" d="M110.5,63.2c0,0-4.3-0.5-4.7,3.3s3.5,5.8,3.5,5.8"
		/>
	<path fill="none" stroke="#000000" stroke-width="2" stroke-miterlimit="10" d="M126.9,94.4c6.3-0.2,12.9-1.5,19-4.5
		c0,0-4.6-12.6-3.4-24.7c1.2-12.2,0.1-26.9-15.5-27c0,0-24.3-5.8-31,27.8c0,0-4.1,19.2-5.4,20.4c0,0,13.5,5.1,23.1,7.4"/>
	<polyline fill="none" stroke="#000000" stroke-width="2" stroke-miterlimit="10" points="117,87.1 115.5,93.3 126.9,94.4 
		126.4,87.9 	"/>
	<path fill="none" stroke="#000000" stroke-width="2" stroke-miterlimit="10" d="M135.4,154c-0.4,28.7,0,59.3,3.1,67.5
		c0,0-28.2,6.6-54.2-4.2l18.9-123.1c0,0,18.9-1.6,33.9,3.9c0,0-0.6,13.1-1.1,30.8"/>
	<path fill="none" stroke="#000000" stroke-width="2" stroke-miterlimit="10" d="M109,98.9c0,0,14.8,35.5,45.8,34.2v26.5
		c0,0-49.7-6.7-51.9-42.7"/>
	<polyline fill="none" stroke="#000000" stroke-width="2" stroke-miterlimit="10" points="154.9,137.6 164.5,134 177.1,137.6 
		177.1,146.6 163.6,146.6 154.9,145.2 	"/>
	<path fill="none" stroke="#000000" stroke-width="2" stroke-miterlimit="10" d="M132.3,96.9c0,0-5,8.3-12.3,18.8"/>
	<path fill="none" stroke="#000000" stroke-width="2" stroke-miterlimit="10" d="M107.6,132.4c-4.1,5.1-8.3,10-12.5,14.2"/>
	<path fill="none" stroke="#000000" stroke-width="2" stroke-miterlimit="10" d="M91.9,167.6c0,0,13.1-11.3,25.3-24.7"/>
	<path fill="none" stroke="#000000" stroke-width="2" stroke-miterlimit="10" d="M131.2,125.4c2.3-3.5,4.2-7,5.3-10.1"/>
	<polyline fill="none" stroke="#000000" stroke-width="2" stroke-miterlimit="10" points="101.2,222 102.5,238.3 108.1,238.3 
		111.4,223.2 	"/>
	<polyline fill="none" stroke="#000000" stroke-width="2" stroke-miterlimit="10" points="121.2,223.4 122.7,237.6 128.5,237.6 
		129.7,222.8 	"/>
	<polyline fill="none" stroke="#000000" stroke-width="2" stroke-miterlimit="10" points="108.1,238.3 121.8,252.6 106.3,253.8 
		102.5,238.3 	"/>
	<polyline fill="none" stroke="#000000" stroke-width="2" stroke-miterlimit="10" points="122.7,237.6 129.7,250.4 143.9,245.1 
		128.5,237.6 	"/>
	
		<ellipse transform="matrix(0.241 -0.9705 0.9705 0.241 55.46 223.4387)" fill="none" stroke="#000000" stroke-width="2" stroke-miterlimit="10" cx="170.6" cy="76.3" rx="18.6" ry="13.1"/>
	<line fill="none" stroke="#000000" stroke-width="2" stroke-miterlimit="10" x1="164.7" y1="93" x2="164.5" y2="98"/>
	<line fill="none" stroke="#000000" stroke-width="2" stroke-miterlimit="10" x1="174.5" y1="92.5" x2="175.4" y2="97.5"/>
	<path fill="none" stroke="#000000" stroke-width="2" stroke-miterlimit="10" d="M152.6,133.3c0-15.7,0-32.1,0-32.1s3.1-2,8.4-3.3
		h20.6"/>
	<path fill="none" stroke="#000000" stroke-width="2" stroke-miterlimit="10" d="M137,98c0.9-0.3,25,0,25,0"/>
	<line fill="none" stroke="#000000" stroke-width="2" stroke-miterlimit="10" x1="136.5" y1="110.1" x2="146.3" y2="115.3"/>
	<path fill="none" stroke="#000000" stroke-width="2" stroke-miterlimit="10" d="M180.2,98l4.6,11.4c0,0,5.7,0.7,6.1,0.7
		c0.4,0,1.8-12.1,1.8-12.1s-7.8-1-8.5-1.1L180.2,98z"/>
	<line fill="none" stroke="#000000" stroke-width="2" stroke-miterlimit="10" x1="185.6" y1="109.4" x2="185.6" y2="102.6"/>
	<line fill="none" stroke="#000000" stroke-width="2" stroke-miterlimit="10" x1="189" y1="110.2" x2="189" y2="102.6"/>
	<path fill="none" stroke="#000000" stroke-width="2" stroke-miterlimit="10" d="M189,110.2c0,17.1,2.9,57.4,2.9,57.4
		s-28.6,3.4-40.8,0c0,0,1.5-6.5,1.5-8.2"/>
	<path fill="none" stroke="#000000" stroke-width="2" stroke-miterlimit="10" d="M191.5,107.6c3.4,11.1,8.8,34,7.6,56.4l-5,1.1
		c0,0-1.4-15.8-4.4-32.6"/>
	<polyline fill="none" stroke="#000000" stroke-width="2" stroke-miterlimit="10" points="194.2,165 192,172.6 194.2,174.9 
		194.2,185 201.8,180.1 199.1,163.9 	"/>
	<path fill="none" stroke="#000000" stroke-width="2" stroke-miterlimit="10" d="M155.2,168.3c1.1,17.3,4.4,68,4.4,68h6.4
		c0,0,3.3-49.6,4.5-67.3"/>
	<path fill="none" stroke="#000000" stroke-width="2" stroke-miterlimit="10" d="M172.6,169.1c2.1,17.5,8.2,67.3,8.2,67.3h5.4
		c0,0,1.9-49.1,2.6-68"/>
	<polyline fill="none" stroke="#000000" stroke-width="2" stroke-miterlimit="10" points="159.6,236.4 143.9,249.4 162.9,252.6 
		166,236.4 	"/>
	<polyline fill="none" stroke="#000000" stroke-width="2" stroke-miterlimit="10" points="180.8,236.4 184.4,253.8 201.8,248.8 
		186.2,236.4 	"/>
	<path fill="none" stroke="#000000" stroke-width="2" stroke-miterlimit="10" d="M152.6,129.3c-0.5,1.1-1,2.3-1.5,3.5"/>
	<path fill="none" stroke="#000000" stroke-width="2" stroke-miterlimit="10" d="M143.5,131.9c1.6-10.1,3.9-18.7,5.6-24.3
		c0,0,1.8-5.4,3.6-6.3"/>
	<polyline fill="none" stroke="#000000" stroke-width="2" stroke-miterlimit="10" points="141.4,156.4 141.4,163.2 146.3,164.4 
		147.5,158.1 	"/>
	<polyline fill="none" stroke="#000000" stroke-width="2" stroke-miterlimit="10" points="146.4,165 148.7,172.6 146.4,174.9 
		146.4,185 138.8,180.1 141.5,163.9 	"/>
</g>
<g id="Layer_3">
	<path opacity="0" fill="none" stroke="#000000" stroke-width="15" stroke-miterlimit="10" d="M125.2,96.8c5.3,1,10.6,2,15.9,3
		c-6.1,1.1-12.3,1.8-18.5,2.1c5.8,1.5,11.7,2.5,17.7,3.1c-6.6,1.2-13.3,2-20,2.5c6.6,0.9,13.3,1.9,19.9,2.8c-8,1.4-16,2.1-24.1,2
		c9.1,1.3,18,3.2,26.8,5.8c-9.5,1.2-19.1,2-28.7,2.3c5.9,3.5,12.5,6,19.3,7.4c-10.6,1.2-21.2,2.5-31.9,3.7c6,4.2,13.1,6.3,20,8.4
		c-8.6,2-17.4,2.7-26.2,2.2c8.9,3.1,18.1,5.5,27.3,7.2c-10.7,1.3-21.4,1.9-32.2,1.6c6.2,1.6,12.2,3.9,17.8,6.9
		c-6,2.1-12.4,3.1-18.8,3.1"/>
</g>
</svg>
