<?xml version="1.0" encoding="utf-8"?>
<!-- Generator: Adobe Illustrator 19.2.1, SVG Export Plug-In . SVG Version: 6.00 Build 0)  -->
<svg version="1.0" xmlns="http://www.w3.org/2000/svg" xmlns:xlink="http://www.w3.org/1999/xlink" x="0px" y="0px" width="288px"
	 height="288px" viewBox="0 0 288 288" enable-background="new 0 0 288 288" xml:space="preserve">
<g id="Layer_2">
	<polygon fill="#27AAE1" points="156.8,88.5 123.4,128.7 122.1,144 167.3,93.1 164,89.7 	"/>
</g>
<g id="Layer_1">
	<path fill="none" stroke="#000000" stroke-width="2" stroke-miterlimit="10" d="M146,79.5h-5.2c-6.6,0-12-5.4-12-12V51.6
		c0-6.6,5.4-12,12-12h5.2c6.6,0,12,5.4,12,12v15.9C158,74.1,152.6,79.5,146,79.5z"/>
	<path fill="none" stroke="#000000" stroke-width="2" stroke-miterlimit="10" d="M128.8,58.9c0,0,5.8,2.7,9.1,1.5
		c3.3-1.2,6.8-1.7,11.8,0s8.2-1.9,8.2-1.9"/>
	<path fill="none" stroke="#000000" stroke-width="2" stroke-miterlimit="10" d="M128.8,55.7c0,0-6.8,2.6,0,7.9"/>
	<path fill="none" stroke="#000000" stroke-width="2" stroke-miterlimit="10" d="M158.6,55.8c0,0,6.8,2.6,0,7.9"/>
	<path fill="none" stroke="#000000" stroke-width="2" stroke-miterlimit="10" d="M139.2,79.9c-0.6-0.5,0,6.5,0,6.5l10.1,0.3v-6.8
		C149.3,79.9,141.6,81.8,139.2,79.9z"/>
	<path fill="none" stroke="#000000" stroke-width="2" stroke-miterlimit="10" d="M167.2,89.7c2.2-0.6,4.3-1.3,4.3-1.3
		c-8.2-7.8-5.3-43.8-8.8-51.8s-19.1-4.8-19.1-4.8s-17.7-3.3-19.9,8.2c-1.9,10-1.4,36.5-4.2,45.6l6.4,1.8"/>
	<path fill="none" stroke="#000000" stroke-width="2" stroke-miterlimit="10" d="M124.6,87.4c0,0,27.7-3,42.3,2.7
		c0,0-9,90.5,11,138.3c0,0-44.7,14.2-70.3-10.8c0,0,15.7-74,15.7-83.3C123.3,124.9,124.6,87.4,124.6,87.4z"/>
	<path fill="none" stroke="#000000" stroke-width="2" stroke-miterlimit="10" d="M123.9,87.6c0,0-25.1,56-25.1,56l17.2,9.2
		c0,0,7.5-39,7.8-41.9"/>
	<polyline fill="none" stroke="#000000" stroke-width="2" stroke-miterlimit="10" points="111.2,151.1 107.7,159.4 99.6,164.5 
		96.1,163 104.1,146.9 	"/>
	<polyline fill="none" stroke="#000000" stroke-width="2" stroke-miterlimit="10" points="111.3,150.4 113.8,156.5 112.9,160 
		111.6,160.2 108.8,155.9 	"/>
	<path fill="none" stroke="#000000" stroke-width="2" stroke-miterlimit="10" d="M166.5,91.1c0,0,22.2,55.3,22.2,55.3l-17.2,9.2
		l-5.8-47.1c0,0,0.6-13.4,0.8-16.6"/>
	<polyline fill="none" stroke="#000000" stroke-width="2" stroke-miterlimit="10" points="177.1,153.5 180.6,161.9 188.6,166.9 
		192.2,165.5 184.1,149.3 	"/>
	<polyline fill="none" stroke="#000000" stroke-width="2" stroke-miterlimit="10" points="177,152.8 174.5,159 175.3,162.4 
		176.6,162.7 179.4,158.3 	"/>
	<polyline fill="none" stroke="#000000" stroke-width="2" stroke-miterlimit="10" points="130.1,230.8 133,243.6 134.6,243.6 
		137.5,231.8 	"/>
	<polyline fill="none" stroke="#000000" stroke-width="2" stroke-miterlimit="10" points="158.8,232.8 156,245.6 154.3,245.6 
		151.1,232.4 	"/>
	<polygon fill="none" stroke="#000000" stroke-width="2" stroke-miterlimit="10" points="132.9,243.6 110.7,246.4 119.4,255.4 
		135.9,246.4 	"/>
	<polygon fill="none" stroke="#000000" stroke-width="2" stroke-miterlimit="10" points="156.1,245.6 178.3,248.4 169.6,257.4 
		153.1,248.4 	"/>
	<polygon fill="none" stroke="#000000" stroke-width="2" stroke-miterlimit="10" points="153.6,87.6 123.3,125.5 122.7,140.2 
		166.5,91.1 	"/>
</g>
<g id="Layer_3">
	<path opacity="0" fill="none" stroke="#27AAE1" stroke-width="24" stroke-miterlimit="10" d="M147,87.9c9.5-0.3,19,0.6,28.3,2.7
		c-11.5,3.8-24.7-2.8-36,1.6c10.5,1.3,21,2.5,31.5,3.8c-11.5-1.2-23.2-0.7-34.6,1.5c9.3,0.3,18.6,0.6,27.8,1c0.1,1.5-1.9,2-3.4,2
		c-8,0-16.4-1.2-23.9,1.6c6.4,1.7,12.9,2.9,19.5,3.5c-7.2,3.8-15.6,5.1-23.6,3.6c7.8,0.1,15.6,1.4,23.1,3.8
		c-11.2,1.2-22.3,2.3-33.5,3.5c7.6,1.9,15.2,3.8,22.8,5.7c-7.7,0.7-15.3,1.4-23,2.1c6.2,1,12.5,2.1,18.7,3.1c-9.5,1-19,2-28.4,3.1
		c11.2,0.5,22.4,0.9,33.6,1.4c-9,3.8-19,4.8-28.8,4.3c-2.8-0.2-6-0.3-8.1,1.5c10.2,1,20.3,2.1,30.5,3.3"/>
</g>
</svg>
