<?xml version="1.0" encoding="utf-8"?>
<!-- Generator: Adobe Illustrator 19.2.1, SVG Export Plug-In . SVG Version: 6.00 Build 0)  -->
<svg version="1.0" xmlns="http://www.w3.org/2000/svg" xmlns:xlink="http://www.w3.org/1999/xlink" x="0px" y="0px" width="288px"
	 height="288px" viewBox="0 0 288 288" enable-background="new 0 0 288 288" xml:space="preserve">
<g id="Layer_2">
	<path fill="#27AAE1" d="M94,120.5c0.7,1.1,1.7,2.3,2.6,3.5c0.9,0.3,1.9,2.6,3,2.7c0.9,0.1,1.9-1.9,2.8-2c0.2-0.2,0.4-0.4,0.6-0.6
		l4.9-14.6c0,0-6.6,4.4-15.8,9.5C92.7,119.2,93.4,119.7,94,120.5z"/>
	<path fill="#27AAE1" d="M83,136l-0.7-0.8c-0.5-0.5-0.8-1.2-0.9-1.8c-1.4-2.4-2.6-4.7-3-7.6c-5.8,2.6-11.8,4.8-17.4,6.1l-7,12.5
		c0,0,14.5-2,29.2-8.2C83.2,136.1,83.1,136.1,83,136z"/>
</g>
<g id="Layer_1">
	<path fill="none" stroke="#000000" stroke-width="2" stroke-miterlimit="10" d="M101.3,92l-3.9-1c-6.4-1.7-10.2-8.3-8.4-14.7
		L93.2,61c1.7-6.4,8.3-10.2,14.7-8.4l3.9,1c6.4,1.7,10.2,8.3,8.4,14.7l-4.1,15.3C114.3,89.9,107.7,93.7,101.3,92z"/>
	<path fill="none" stroke="#000000" stroke-width="2" stroke-miterlimit="10" d="M90.6,70.6c0,0,5.8,2.9,10,2.6
		c4.2-0.3,9.5,1.5,9.8,3.2c0.3,1.7,6.7,3.4,6.7,3.4"/>
	<path fill="none" stroke="#000000" stroke-width="2" stroke-miterlimit="10" d="M92,65.4c0,0-4.1-1.4-5.3,2.3
		c-1.2,3.7,2.2,6.4,2.2,6.4"/>
	<path fill="none" stroke="#000000" stroke-width="2" stroke-miterlimit="10" d="M101.5,99.4c6.2,1.1,12.9,1.2,19.6-0.4
		c0,0-1.9-13.2,1.9-24.9s5.8-26.2-9.5-29.6c0,0-22.5-10.8-36.1,20.7c0,0-8,17.9-9.5,18.8c0,0,5.8,4.7,14.7,9.1"/>
	<polyline fill="none" stroke="#000000" stroke-width="2" stroke-miterlimit="10" points="93.5,89.1 90.6,94.6 100.7,100 
		102.4,92.2 	"/>
	<path fill="none" stroke="#000000" stroke-width="2" stroke-miterlimit="10" d="M94.4,150.1c-1.4,4.4-2.4,7.2-2.4,7.2
		s21.5,21.1,23,60.2c0,0-32.5,10.2-57.2,0c0,0,0.8-46.7-8.8-64.2l34.6-61.6c0,0,18.6,7,25.2,14.8c0,0-3.7,11.2-7.7,23.1"/>
	<path fill="none" stroke="#000000" stroke-width="2" stroke-miterlimit="10" d="M83.8,102.7c0,0,16,38,40.9,41.4l-3.1,21.3
		c0,0-41-12-44.9-48"/>
	<polyline fill="none" stroke="#000000" stroke-width="2" stroke-miterlimit="10" points="123.7,154 132.7,154 136.2,157.6 
		146.9,154.5 145.8,143.1 124.2,144.4 	"/>
	<line fill="none" stroke="#000000" stroke-width="2" stroke-miterlimit="10" x1="127.1" y1="154" x2="121.9" y2="163.5"/>
	<path fill="none" stroke="#000000" stroke-width="2" stroke-miterlimit="10" d="M107.8,109.5c0,0,1.8,31,21,32.2"/>
	<path fill="none" stroke="#000000" stroke-width="2" stroke-miterlimit="10" d="M106.7,105.2c0,0-6.6,5-15.3,10.3"/>
	<path fill="none" stroke="#000000" stroke-width="2" stroke-miterlimit="10" d="M78,122.8c-5.1,2.4-10.2,4.2-14.5,4.7"/>
	<path fill="none" stroke="#000000" stroke-width="2" stroke-miterlimit="10" d="M103,124.2c0,0-1.7,1.3-4.6,3.3"/>
	<path fill="none" stroke="#000000" stroke-width="2" stroke-miterlimit="10" d="M83.4,136c-8.3,3.9-18.5,7.5-29.4,8.4"/>
	<polyline fill="none" stroke="#000000" stroke-width="2" stroke-miterlimit="10" points="68,221.1 69.5,237.2 74.1,237.2 76.1,222 
			"/>
	<polyline fill="none" stroke="#000000" stroke-width="2" stroke-miterlimit="10" points="96.1,221.3 99.6,237.2 104.6,237.2 
		106.3,219.6 	"/>
	<path fill="none" stroke="#000000" stroke-width="2" stroke-miterlimit="10" d="M69.5,237.2c-0.2,2,19.3,14.7,19.3,14.7l7.5-10.3
		l-22.2-4.3"/>
	<polyline fill="none" stroke="#000000" stroke-width="2" stroke-miterlimit="10" points="99.6,237.2 115.8,249.2 126.3,240.8 
		103.7,237.2 	"/>
	
		<ellipse transform="matrix(0.2981 -0.9545 0.9545 0.2981 -18.6383 276.9454)" fill="none" stroke="#000000" stroke-width="2" stroke-miterlimit="10" cx="179" cy="151.1" rx="15" ry="10.6"/>
	<path fill="none" stroke="#000000" stroke-width="2" stroke-miterlimit="10" d="M186.5,159.7c0,0,12.8,18.6,12.8,54.3
		c0,0-18.8,7.8-35,0c0,0,7.1-11.8,8.6-30.1"/>
	<path fill="none" stroke="#000000" stroke-width="2" stroke-miterlimit="10" d="M172.9,171.9c-0.2-2.5-0.4-5.1-0.9-7.8"/>
	<path fill="none" stroke="#000000" stroke-width="2" stroke-miterlimit="10" d="M187,169.1c0,0-24.3,11.3-41.5-14"/>
	<path fill="none" stroke="#000000" stroke-width="2" stroke-miterlimit="10" d="M139.8,156.9c4.3,8.7,19.2,33.9,43.2,25.2"/>
	<path fill="none" stroke="#000000" stroke-width="2" stroke-miterlimit="10" d="M143,143.1l-4.5-6l-9.7,2.5c0,0,0.3,2.8,0.5,5.3"/>
	<path fill="none" stroke="#000000" stroke-width="2" stroke-miterlimit="10" d="M146.9,154.5c0,0,14.1,15.2,25.4,11.2"/>
	<path fill="none" stroke="#000000" stroke-width="2" stroke-miterlimit="10" d="M177.2,217.5l-13,22.6c0,0,33.5,1.5,54.5-15.5v-3.8
		l-29,4l9.5-10.8"/>
	<path fill="none" stroke="#000000" stroke-width="2" stroke-miterlimit="10" d="M165.6,215.6l-13.5,15.3c0,0,5.2,5,15,4.1"/>
	<path fill="none" stroke="#000000" stroke-width="2" stroke-miterlimit="10" d="M216.4,221.1c-0.1-1.1,1.4-5.6,1.4-5.6l18.8,9.8
		l-14,3.1l-4.9-3.1"/>
</g>
<g id="Layer_3">
	<path opacity="0" fill="none" stroke="#000000" stroke-width="8" stroke-miterlimit="10" d="M94.1,110.5c5.8-0.3,11.6,0.6,17,2.6
		c-13.7,3.3-28.3-0.2-42.2,2.1c13,1.5,25.9,3,38.9,4.4c-12.2-0.1-24.4-0.1-36.6-0.2c-3.9,0-8,0-11.4,1.8c15.4,1,30.7,1.9,46.1,2.9
		c-16.5,0.6-33,1.3-49.5,3c14.3,2.2,28.7,3.5,43.2,3.9c-15,1.6-30,2.3-45.1,2.2c11.4,3.1,23.1,5.1,34.9,5.9
		c-14.9-0.1-29.7-0.2-44.6-0.2c8.5,2.4,17.1,4.4,25.8,5.8"/>
</g>
</svg>
