<?xml version="1.0" encoding="utf-8"?>
<!-- Generator: Adobe Illustrator 20.1.0, SVG Export Plug-In . SVG Version: 6.00 Build 0)  -->
<!DOCTYPE svg PUBLIC "-//W3C//DTD SVG 1.0//EN" "http://www.w3.org/TR/2001/REC-SVG-20010904/DTD/svg10.dtd">
<svg version="1.0" xmlns="http://www.w3.org/2000/svg" xmlns:xlink="http://www.w3.org/1999/xlink" x="0px" y="0px" width="288px"
	 height="288px" viewBox="0 0 288 288" enable-background="new 0 0 288 288" xml:space="preserve">
<g id="Color">
	<path fill="#27AAE1" d="M94,120.5c0.7,1.1,1.7,2.3,2.6,3.5c0.9,0.3,1.9,2.6,3,2.7c0.9,0.1,1.9-1.9,2.8-2c0.2-0.2,0.4-0.4,0.6-0.6
		l4.9-14.6c0,0-6.6,4.4-15.8,9.5C92.7,119.2,93.4,119.7,94,120.5z"/>
	<path fill="#27AAE1" d="M83,136l-0.7-0.8c-0.5-0.5-0.8-1.2-0.9-1.8c-1.4-2.4-2.6-4.7-3-7.6c-5.8,2.6-11.8,4.8-17.4,6.1l-7,12.5
		c0,0,14.5-2,29.2-8.2C83.2,136.1,83.1,136.1,83,136z"/>
	<path d="M138.5,137.1l-9.7,2.5c0,0,0.3,2.8,0.5,5.3l13.7-1.8L138.5,137.1z"/>
	<path d="M217.8,215.5c0,0-1.5,4.5-1.4,5.6l0,0l-26.7,3.7l9.4-10.7c0.1,0,0.2-0.1,0.2-0.1c0-35.7-12.8-54.3-12.8-54.3l-0.3,0.4l0,0
		c1.2-1.7,2.2-3.6,2.9-5.8c2.5-7.9-0.1-15.7-5.6-17.5c-5.6-1.7-12.1,3.3-14.6,11.2c-2.1,6.6-0.6,13.1,3.1,16.1l-1,0.2
		c0,0.2,0.1,0.5,0.1,0.7c-10.4,2.7-23.4-11-23.5-11.2l-1.5,1.4c0,0,0,0,0.1,0.1l-0.7-0.4c-0.9,0.6-2,0.2-3,0
		c-0.6,0.3-1.4,0.6-2.2,0.6c-0.2,0.2-0.3,0.5-0.3,0.8c0,0.5,0.4,0.8,0.7,1.2l0.2,0.2l-1.2-0.7c3.7,7.4,15,26.8,33.1,27l0,0
		c-1.5,18.3-8.6,30.1-8.6,30.1c0.7,0.3,1.4,0.6,2.1,0.9c-0.3,0.3-0.6,0.7-0.8,1.1v-0.4L152,231c0,0,5.2,5,15,4.1v-0.2h0.1l-3,5.2
		c0,0,32.5,1.4,53.5-14.8l4.9,3.1l14-3.1L217.8,215.5z"/>
</g>
<g id="Stroke">
	
		<path opacity="0" fill="none" stroke="#231F20" stroke-width="19" stroke-linecap="round" stroke-linejoin="round" stroke-miterlimit="10" d="
		M45.8,123.1c9.1-3.1,18.3-6.1,27.4-9.2c11.2-3.7,23.1-7.5,34.5-4.7c0.4,2.1-1.7,3.7-3.6,4.8c-16.6,9.4-33.2,18.7-49.8,28.1
		c43-11.5,88.5-19.2,131.9-9.2c1.3,0.3,3,1.3,2.5,2.5c-11.9,3.3-24.5,2.7-36.9,2.9c-12.4,0.2-25.2,1.5-35.8,7.8
		c20,12.5,40.9,2.3,61.4,2.6c9.5,0.1,20.1,0.5,27,7c-5.2,6-14.5,5.1-22.5,4.9c-14.5-0.4-29.1,3-41.9,9.7c11.1,2.3,22.5,0.7,33.8,0.2
		s23.3,0.4,32.6,6.8c-10,8.4-24.5,7.5-37.5,8.6c-9.9,0.8-19.7,3.1-29,6.6c22.8,2.8,46.1-3.9,68.7,0.3c1.4,0.2,2.9,0.7,3.3,2.1
		c0.2,0.9-0.1,1.8-0.6,2.6c-4.6,8.1-15.5,8.1-24.7,9.6c-13,2.1-25.6,7.8-36.7,14.9c27.4-3.5,54.9-7.1,82.3-10.6
		c-0.7,3.9-2,9.2-5.3,11.4c-12.6,8.6-29.6,10.5-44.6,13.2c-9,1.6-19.4-0.6-27.2,4"/>
</g>
<g id="Lines">
	<g id="Layer_1_1_">
		<path fill="none" stroke="#000000" stroke-width="2" stroke-miterlimit="10" d="M101.3,92l-3.9-1C91,89.3,87.2,82.7,89,76.3
			L93.2,61c1.7-6.4,8.3-10.2,14.7-8.4l3.9,1c6.4,1.7,10.2,8.3,8.4,14.7l-4.1,15.3C114.3,89.9,107.7,93.7,101.3,92z"/>
		<path fill="none" stroke="#000000" stroke-width="2" stroke-miterlimit="10" d="M90.6,70.6c0,0,5.8,2.9,10,2.6s9.5,1.5,9.8,3.2
			s6.7,3.4,6.7,3.4"/>
		<path fill="none" stroke="#000000" stroke-width="2" stroke-miterlimit="10" d="M92,65.4c0,0-4.1-1.4-5.3,2.3
			c-1.2,3.7,2.2,6.4,2.2,6.4"/>
		<path fill="none" stroke="#000000" stroke-width="2" stroke-miterlimit="10" d="M101.5,99.4c6.2,1.1,12.9,1.2,19.6-0.4
			c0,0-1.9-13.2,1.9-24.9s5.8-26.2-9.5-29.6c0,0-22.5-10.8-36.1,20.7c0,0-8,17.9-9.5,18.8c0,0,5.8,4.7,14.7,9.1"/>
		<polyline fill="none" stroke="#000000" stroke-width="2" stroke-miterlimit="10" points="93.5,89.1 90.6,94.6 100.7,100 
			102.4,92.2 		"/>
		<path fill="none" stroke="#000000" stroke-width="2" stroke-miterlimit="10" d="M94.4,150.1c-1.4,4.4-2.4,7.2-2.4,7.2
			s21.5,21.1,23,60.2c0,0-32.5,10.2-57.2,0c0,0,0.8-46.7-8.8-64.2l34.6-61.6c0,0,18.6,7,25.2,14.8c0,0-3.7,11.2-7.7,23.1"/>
		<path fill="none" stroke="#000000" stroke-width="2" stroke-miterlimit="10" d="M83.8,102.7c0,0,16,38,40.9,41.4l-3.1,21.3
			c0,0-41-12-44.9-48"/>
		<polyline fill="none" stroke="#000000" stroke-width="2" stroke-miterlimit="10" points="123.7,154 132.7,154 136.2,157.6 
			146.9,154.5 145.8,143.1 124.2,144.4 		"/>
		<line fill="none" stroke="#000000" stroke-width="2" stroke-miterlimit="10" x1="127.1" y1="154" x2="121.9" y2="163.5"/>
		<path fill="none" stroke="#000000" stroke-width="2" stroke-miterlimit="10" d="M107.8,109.5c0,0,1.8,31,21,32.2"/>
		<path fill="none" stroke="#000000" stroke-width="2" stroke-miterlimit="10" d="M106.7,105.2c0,0-6.6,5-15.3,10.3"/>
		<path fill="none" stroke="#000000" stroke-width="2" stroke-miterlimit="10" d="M78,122.8c-5.1,2.4-10.2,4.2-14.5,4.7"/>
		<path fill="none" stroke="#000000" stroke-width="2" stroke-miterlimit="10" d="M103,124.2c0,0-1.7,1.3-4.6,3.3"/>
		<path fill="none" stroke="#000000" stroke-width="2" stroke-miterlimit="10" d="M83.4,136c-8.3,3.9-18.5,7.5-29.4,8.4"/>
		<polyline fill="none" stroke="#000000" stroke-width="2" stroke-miterlimit="10" points="68,221.1 69.5,237.2 74.1,237.2 
			76.1,222 		"/>
		<polyline fill="none" stroke="#000000" stroke-width="2" stroke-miterlimit="10" points="96.1,221.3 99.6,237.2 104.6,237.2 
			106.3,219.6 		"/>
		<path fill="none" stroke="#000000" stroke-width="2" stroke-miterlimit="10" d="M69.5,237.2c-0.2,2,19.3,14.7,19.3,14.7l7.5-10.3
			l-22.2-4.3"/>
		<polyline fill="none" stroke="#000000" stroke-width="2" stroke-miterlimit="10" points="99.6,237.2 115.8,249.2 126.3,240.8 
			103.7,237.2 		"/>
	</g>
</g>
</svg>
