<?xml version="1.0" encoding="utf-8"?>
<!-- Generator: Adobe Illustrator 19.2.1, SVG Export Plug-In . SVG Version: 6.00 Build 0)  -->
<svg version="1.0" id="Layer_1" xmlns="http://www.w3.org/2000/svg" xmlns:xlink="http://www.w3.org/1999/xlink" x="0px" y="0px"
	 width="576px" height="576px" viewBox="0 0 576 576" enable-background="new 0 0 576 576" xml:space="preserve">
<path fill="none" stroke="#000000" stroke-width="2.6809" stroke-miterlimit="10" d="M233.8,304c0,0,14.2,16,42.8,16.2
	s53.2-8.1,53.2-8.1s21-14.6,22.2-25.4s2.2-15,0-19.5s-13.8-20-13.8-22s1.2-10.3,1.2-10.3l44.2-2.2c0,0-0.2-4.5-4.2-6.8
	s-36.2-18.2-36.2-18.2l-1.5-2.5c0,0-9.5-14-21.5-14s-21.8,4.2-21.8,4.2s-4.5,12.2-3,17.5s5.2,13.5,5.8,14.2s5.5,15.5-4.8,17.5
	s-21.5-1.5-24.8-2.5s-28-4-39.8,1.5S202.2,267,202.2,267l-10,5.8c0,0,17.2,11.5,54,2.5"/>
<path fill="none" stroke="#000000" stroke-width="2.6809" stroke-miterlimit="10" d="M343.2,207.8c0,0,0.8,6.2,0,8.2
	s-11.5,13.4-3.8,19"/>
<path fill="none" stroke="#000000" stroke-width="2.6809" stroke-miterlimit="10" d="M199.2,275.8c0,0,8.6,12.5,9.6,12.5
	s27.2,3,28,3S251,288,251,288"/>
<path fill="none" stroke="#000000" stroke-width="2.6809" stroke-miterlimit="10" d="M217.5,289.2L227,301c0,0,5.5,3.5,6.8,3
	s12-1,12-1"/>
<polyline fill="none" stroke="#000000" stroke-width="2.6809" stroke-miterlimit="10" points="298.8,318.8 311,363 331.8,377 
	348.2,367.5 316.3,360.6 304.2,318.1 "/>
<path fill="none" stroke="#000000" stroke-width="2.6809" stroke-miterlimit="10" d="M261.3,318.5c-0.1,1.2-10.3,40.7-10.3,40.7
	l25.2,18l-28.2,8l-2.2-25.8l9.9-42.6"/>
</svg>
