<?xml version="1.0" encoding="utf-8"?>
<!-- Generator: Adobe Illustrator 21.1.0, SVG Export Plug-In . SVG Version: 6.00 Build 0)  -->
<!DOCTYPE svg PUBLIC "-//W3C//DTD SVG 1.0//EN" "http://www.w3.org/TR/2001/REC-SVG-20010904/DTD/svg10.dtd">
<svg version="1.0" id="Layer_1" xmlns="http://www.w3.org/2000/svg" xmlns:xlink="http://www.w3.org/1999/xlink" x="0px" y="0px"
	 width="432px" height="432px" viewBox="0 0 432 432" enable-background="new 0 0 432 432" xml:space="preserve">
<g id="Layer_1_1_">
	<ellipse fill="none" stroke="#000000" stroke-width="2" stroke-miterlimit="10" cx="180.9" cy="96.9" rx="15.4" ry="24.5"/>
	<polyline fill="none" stroke="#000000" stroke-width="2" stroke-miterlimit="10" points="185.8,120.1 185.8,127.2 176.4,127.2 
		176.4,120.4 	"/>
	<polygon fill="none" stroke="#000000" stroke-width="2" stroke-miterlimit="10" points="201.1,127.2 159.8,127.2 163.9,209 
		196.3,209 	"/>
	<polyline fill="none" stroke="#000000" stroke-width="2" stroke-miterlimit="10" points="159.8,127.2 144,165.2 147.5,215.9 
		153.9,215.9 155.8,169.6 161.1,154.1 	"/>
	<polyline fill="none" stroke="#000000" stroke-width="2" stroke-miterlimit="10" points="153.8,215.8 158.3,223.6 154.8,225.6 
		151.2,221.8 150.3,238.3 143.1,231.4 147.5,215.8 	"/>
	<line fill="none" stroke="#000000" stroke-width="2" stroke-miterlimit="10" x1="155.8" y1="169.6" x2="144" y2="165.2"/>
	<polyline fill="none" stroke="#000000" stroke-width="2" stroke-miterlimit="10" points="196.3,209 193.6,345.4 186.9,345.4 
		180.1,209 172.6,345.4 164.9,345.4 163.9,209 	"/>
	<polyline fill="none" stroke="#000000" stroke-width="2" stroke-miterlimit="10" points="193.6,345.4 213.7,354 200.9,360.2 
		186.9,345.4 	"/>
	<polyline fill="none" stroke="#000000" stroke-width="2" stroke-miterlimit="10" points="172.6,345.4 161.9,360.2 148.9,353.9 
		164.9,345.4 	"/>
	<ellipse fill="none" stroke="#000000" stroke-width="2" stroke-miterlimit="10" cx="247.4" cy="107.8" rx="14.1" ry="23.4"/>
	<path fill="none" stroke="#000000" stroke-width="2" stroke-miterlimit="10" d="M253,128.9c0.1,0.9,0.4,5,0.4,5"/>
	<line fill="none" stroke="#000000" stroke-width="2" stroke-miterlimit="10" x1="243.9" y1="130.5" x2="243.9" y2="133.9"/>
	<path fill="none" stroke="#000000" stroke-width="2" stroke-miterlimit="10" d="M256.4,133.4c-11.5,0.4-28,1.1-28,1.1l8.7,79.3
		h30.2V133"/>
	<polyline fill="none" stroke="#000000" stroke-width="2" stroke-miterlimit="10" points="267.3,133 282.8,172.2 281,218.7 
		275,217.9 273.3,173.4 267.3,160.7 	"/>
	<polyline fill="none" stroke="#000000" stroke-width="2" stroke-miterlimit="10" points="275,218.2 270.3,227.5 273.7,230.1 
		276.9,225.2 277.9,226.6 276.9,238 283.4,235.2 281,219 	"/>
	<line fill="none" stroke="#000000" stroke-width="2" stroke-miterlimit="10" x1="282.2" y1="172.1" x2="273.3" y2="173.4"/>
	<polyline fill="none" stroke="#000000" stroke-width="2" stroke-miterlimit="10" points="228.4,134.5 222.4,213.8 227.1,214.7 
		232.8,174.6 	"/>
	<polyline fill="none" stroke="#000000" stroke-width="2" stroke-miterlimit="10" points="227.1,214.7 229.4,222.6 226.2,224.8 
		224.4,221.6 220.7,232.5 213.5,231.5 222.4,213.8 	"/>
	<polyline fill="none" stroke="#000000" stroke-width="2" stroke-miterlimit="10" points="267.3,213.8 266.3,342.6 260,342.6 
		252.7,214.6 250.6,214.6 238,342.6 230.8,342.6 237.1,213.8 	"/>
	<polyline fill="none" stroke="#000000" stroke-width="2" stroke-miterlimit="10" points="266.3,342.6 286.3,353.2 269.9,357.5 
		260,342.6 	"/>
	<polyline fill="none" stroke="#000000" stroke-width="2" stroke-miterlimit="10" points="238,342.6 234.6,359.9 218.3,357.5 
		230.8,342.6 	"/>
	<path fill="none" stroke="#000000" stroke-width="2" stroke-miterlimit="10" d="M263,130.5"/>
	<path fill="none" stroke="#000000" stroke-width="2" stroke-miterlimit="10" d="M201.1,127.2"/>
	<path fill="none" stroke="#000000" stroke-width="2" stroke-miterlimit="10" d="M228.1,139"/>
	<path fill="none" stroke="#000000" stroke-width="2" stroke-miterlimit="10" d="M201.1,140.5"/>
	<path fill="none" stroke="#000000" stroke-width="2" stroke-miterlimit="10" d="M259.4,129.5"/>
	<path fill="none" stroke="#000000" stroke-width="2" stroke-miterlimit="10" d="M201.1,127.2c0,0,20.4,0.1,38.2,0.2"/>
	<path fill="none" stroke="#000000" stroke-width="2" stroke-miterlimit="10" d="M254.9,127.5c6.1,0,10.3,0.1,10.3,0.1l1.3,5.6
		l-1.4,9.4l-7.8,0.7l-1.2-12.6"/>
	<path fill="none" stroke="#000000" stroke-width="2" stroke-miterlimit="10" d="M201.1,139c0,0,13.7-1.4,27.5-2.8"/>
	<line fill="none" stroke="#000000" stroke-width="2" stroke-miterlimit="10" x1="263.1" y1="142.6" x2="262.8" y2="135.6"/>
	<line fill="none" stroke="#000000" stroke-width="2" stroke-miterlimit="10" x1="260.2" y1="142.6" x2="259.7" y2="135.7"/>
</g>
</svg>
