<?xml version="1.0" encoding="utf-8"?>
<!-- Generator: Adobe Illustrator 21.1.0, SVG Export Plug-In . SVG Version: 6.00 Build 0)  -->
<!DOCTYPE svg PUBLIC "-//W3C//DTD SVG 1.0//EN" "http://www.w3.org/TR/2001/REC-SVG-20010904/DTD/svg10.dtd">
<svg version="1.0" id="Layer_1" xmlns="http://www.w3.org/2000/svg" xmlns:xlink="http://www.w3.org/1999/xlink" x="0px" y="0px"
	 width="576px" height="576px" viewBox="0 0 576 576" enable-background="new 0 0 576 576" xml:space="preserve">
<path fill="none" stroke="#000000" stroke-width="2.6809" stroke-miterlimit="10" d="M366.7,302.4c0,0,14.2,16,42.8,16.2
	s53.2-8.1,53.2-8.1s21-14.6,22.2-25.4s2.2-15,0-19.5s-13.8-20-13.8-22s1.2-10.3,1.2-10.3l44.2-2.2c0,0-0.2-4.5-4.2-6.8
	c-4-2.3-36.2-18.2-36.2-18.2l-1.5-2.5c0,0-9.5-14-21.5-14s-21.8,4.2-21.8,4.2s-4.5,12.2-3,17.5s5.2,13.5,5.8,14.2s5.5,15.5-4.8,17.5
	s-21.5-1.5-24.8-2.5s-28-4-39.8,1.5c-11.8,5.5-29.6,23.4-29.6,23.4l-10,5.8c0,0,17.2,11.5,54,2.5"/>
<path fill="none" stroke="#000000" stroke-width="2.6809" stroke-miterlimit="10" d="M476.1,206.2c0,0,0.8,6.2,0,8.2
	s-11.5,13.4-3.8,19"/>
<path fill="none" stroke="#000000" stroke-width="2.6809" stroke-miterlimit="10" d="M332.1,274.2c0,0,8.6,12.5,9.6,12.5
	s27.2,3,28,3c0.8,0,14.2-3.3,14.2-3.3"/>
<path fill="none" stroke="#000000" stroke-width="2.6809" stroke-miterlimit="10" d="M350.4,287.6l9.5,11.8c0,0,5.5,3.5,6.8,3
	c1.3-0.5,12-1,12-1"/>
<polyline fill="none" stroke="#000000" stroke-width="2.6809" stroke-miterlimit="10" points="431.7,317.2 443.9,361.4 464.7,375.4 
	481.1,365.9 449.2,359 437.1,316.5 "/>
<path fill="none" stroke="#000000" stroke-width="2.6809" stroke-miterlimit="10" d="M394.2,316.9c-0.1,1.2-10.3,40.7-10.3,40.7
	l25.2,18l-28.2,8l-2.2-25.8l9.9-42.6"/>
<path fill="none" stroke="#000000" stroke-width="2.6809" stroke-miterlimit="10" d="M334.4,331.9l-2-6.2c0,0-6.7-5.5-9.3-5.4
	c-2.7,0.1-8.2,3.1-8.7,3.3c-0.5,0.2-1.7,6.1-1.2,7.6s1.9,8-0.1,8s-10.2-2.8-15-1.8s-13,6.7-13.7,9.3l-4.2,4.2l3,1.1l0.3,4.2
	c0,0,6.8,8.7,28,7.2s27-10.2,25-15.2s-3.8-9.3-3.8-9.3l14.3-1.2l0.8-2.7L334.4,331.9z"/>
<path fill="none" stroke="#000000" stroke-width="2.6809" stroke-miterlimit="10" d="M288.6,346.8c0,0,6.2,1.8,7.3,1.7
	c1.2-0.2,6.8-1,7.9-1.7"/>
<path fill="none" stroke="#000000" stroke-width="2.6809" stroke-miterlimit="10" d="M282.4,351.7c0,0,8.7,2,13.4,1.7
	c4.7-0.3,11.8-2.5,11.8-2.5"/>
<path fill="none" stroke="#000000" stroke-width="2.6809" stroke-miterlimit="10" d="M287.7,359.4c0.5,0.3,10-0.8,10.5-1
	c0.5-0.2,7.7-2.8,7.7-2.8"/>
<polyline fill="none" stroke="#000000" stroke-width="2.6809" stroke-miterlimit="10" points="300.1,375.8 300.8,383.6 307.6,379.8 
	300.1,375.8 301.1,363.6 "/>
<polyline fill="none" stroke="#000000" stroke-width="2.6809" stroke-miterlimit="10" points="322.4,375.8 325.3,381.8 333.4,378.8 
	322.4,375.8 317.2,362.8 "/>
<path fill="none" stroke="#000000" stroke-width="2.6809" stroke-miterlimit="10" d="M205.4,356.4l2.1,4l2.7,1.1l2.5,3.7
	c0,0,9.8,2.8,14.3,3.3s25.8-4.6,27.5-8.1c1.7-3.5,1.8-8.2,1.5-9c-0.3-0.8-3.7-5.5-3.7-6s0.3-5.2,0.3-5.2l14.2-0.7v-2.3l-10.8-3.5
	l-1.8-6.4l-5-4.4c0,0-5.5-0.8-7.7,0c-2.2,0.8-6.2,4.4-6.2,4.4s-2.2,7.7,0,9.4c2.2,1.7,0.8,5,0.8,5s-16.2,0.5-20.7,2.8
	c-4.5,2.3-14.8,10.8-14.8,10.8s10.2,2.2,11,2.5s11.7-2.5,11.7-2.5"/>
<path fill="none" stroke="#000000" stroke-width="2.6809" stroke-miterlimit="10" d="M210.6,351.5c0.7,0,6.2,0,6.2,0l5.3-1.8"/>
<polyline fill="none" stroke="#000000" stroke-width="2.6809" stroke-miterlimit="10" points="219.1,379.2 226.8,385.8 219.1,388.6 
	219.1,379.2 224.8,368.5 "/>
<polyline fill="none" stroke="#000000" stroke-width="2.6809" stroke-miterlimit="10" points="245.8,381.6 250.6,388.6 258.9,383.3 
	245.8,381.6 240,366.4 "/>
<path fill="none" stroke="#000000" stroke-width="2.6809" stroke-miterlimit="10" d="M171,342.4h13v-2.7l-9.3-3.3
	c0,0-3.3-9.3-10.5-9.8s-10.7,3.7-10.7,3.7s0,3.5,0,4.2c0,0.8,0.7,3.9,0.8,4.4s2.3,4,2.3,4l-2,2c0,0-9.7-1-15.5,0s-13.2,9.9-13.2,9.9
	l-4,4.6l9.1,2.8l3.7,3.2c0,0,13.3,1.5,18.2,2c4.8,0.5,9-1.6,11.2-2s7.6-3.8,8.4-4.1c0.8-0.3,4.6-6.3,4.6-7.9c0-1.7-2.8-5.9-2.8-5.9
	L171,342.4z"/>
<path fill="none" stroke="#000000" stroke-width="2.6809" stroke-miterlimit="10" d="M132.1,353.9c0,0,6.7-0.3,7,0s6.3-2.5,6.3-2.5"
	/>
<path fill="none" stroke="#000000" stroke-width="2.6809" stroke-miterlimit="10" d="M128.2,361.3c0,0,10.2-0.6,10.9-0.8
	c0.7-0.2,11.5-4.5,11.5-4.5"/>
<polyline fill="none" stroke="#000000" stroke-width="2.6809" stroke-miterlimit="10" points="142.8,379.7 143.6,388 152.3,384 
	142.8,379.7 142.8,366.6 "/>
<polyline fill="none" stroke="#000000" stroke-width="2.6809" stroke-miterlimit="10" points="164.8,380.2 167.4,386.2 176,382.4 
	164.8,380.2 158.8,366.9 "/>
<path fill="none" stroke="#000000" stroke-width="2.6809" stroke-miterlimit="10" d="M45.3,361l-3.4,2.1l4.5,2.1l-2.2,2
	c0,0,10.4,4.1,18.8,4.7s21.8-2,22.2-2s9.6-3.9,8.9-7.9s-3.4-9.1-3.4-9.1s-3.4-7.8,0.5-8.1c3.9-0.3,14-1.2,14-1.2v-2.1l-13.1-5.9
	l-1.5-4.6l-3.4-3.3c0,0-7.5-0.4-9.8,0s-5.1,2.1-5.2,4.9s-0.8,5.1,0,7.9s1,5.9,1,5.9s-11.1-2-15.2,0.5s-8.8,6.6-8.8,6.6l-7.9,5.5
	c0,0,7.8,2.9,9.4,3s13.2-2.2,13.9-2.4"/>
<path fill="none" stroke="#000000" stroke-width="2.6809" stroke-miterlimit="10" d="M52,357c0,0,7.2-0.7,7.6-0.7s4.6-1.6,4.6-1.6"
	/>
<path fill="none" stroke="#000000" stroke-width="2.6809" stroke-miterlimit="10" d="M53.3,365.7c0,0,8.1,0.5,8.6,0.5"/>
<polyline fill="none" stroke="#000000" stroke-width="2.6809" stroke-miterlimit="10" points="57.4,382.6 57.4,391.4 64.3,389.4 
	57.4,382.6 62.9,371.8 "/>
<polyline fill="none" stroke="#000000" stroke-width="2.6809" stroke-miterlimit="10" points="83.4,385 87.6,391.4 95.4,387 
	83.4,385 78.9,371.3 "/>
</svg>
