<?xml version="1.0" encoding="utf-8"?>
<!-- Generator: Adobe Illustrator 21.1.0, SVG Export Plug-In . SVG Version: 6.00 Build 0)  -->
<!DOCTYPE svg PUBLIC "-//W3C//DTD SVG 1.0//EN" "http://www.w3.org/TR/2001/REC-SVG-20010904/DTD/svg10.dtd">
<svg version="1.0" id="Layer_2" xmlns="http://www.w3.org/2000/svg" xmlns:xlink="http://www.w3.org/1999/xlink" x="0px" y="0px"
	 width="1920px" height="1080px" viewBox="0 0 1920 1080" enable-background="new 0 0 1920 1080" xml:space="preserve">
<path fill="none" stroke="#35ABDF" stroke-width="5" stroke-miterlimit="10" d="M1225.1,426.9c-169,21-100,179-100,179"/>
<polyline fill="none" stroke="#35ABDF" stroke-width="5" stroke-miterlimit="10" points="1199,410.9 1227,426.9 1199,444.9 "/>
<path fill="none" stroke="#35ABDF" stroke-width="5" stroke-miterlimit="10" d="M995.1,639.9c0,0,1-50,42-50s57,31,57,31"/>
<polyline fill="none" stroke="#35ABDF" stroke-width="5" stroke-miterlimit="10" points="1091.3,589.8 1094.1,622 1063.3,609.2 "/>
<path fill="none" stroke="#35ABDF" stroke-width="5" stroke-miterlimit="10" d="M859.1,621.9c0,0-2-44,54-41s54,52.6,54,52.6"/>
<polyline fill="none" stroke="#35ABDF" stroke-width="5" stroke-miterlimit="10" points="976.6,603.2 967.2,634 943.4,610.7 "/>
<path fill="none" stroke="#35ABDF" stroke-width="5" stroke-miterlimit="10" d="M730.1,639.9c0,0-5-48,50-50s63,50,63,50"/>
<polyline fill="none" stroke="#35ABDF" stroke-width="5" stroke-miterlimit="10" points="853,610.4 843.6,641.2 819.9,617.9 "/>
</svg>
