<?xml version="1.0" encoding="utf-8"?>
<!-- Generator: Adobe Illustrator 19.2.1, SVG Export Plug-In . SVG Version: 6.00 Build 0)  -->
<svg version="1.0" xmlns="http://www.w3.org/2000/svg" xmlns:xlink="http://www.w3.org/1999/xlink" x="0px" y="0px" width="576px"
	 height="576px" viewBox="0 0 576 576" enable-background="new 0 0 576 576" xml:space="preserve">
<g id="Layer_2">
	<path fill="#27AAE1" d="M267.6,107.4c0,0-27.3,37.6,5.6,68c0,0-19.6,0.1-23.2-29.9C246.5,115.4,264.4,107.5,267.6,107.4z"/>
	<polygon fill="#27AAE1" points="261.1,184.7 271.7,285.7 301.2,292.6 273.1,294 271.1,483.5 258.5,502.1 244.9,495.4 266.8,483.4 
		261.3,294.8 259.4,281.7 244.7,187.2 	"/>
	<polygon fill="#27AAE1" points="246.7,199.9 227,232.1 257.3,282.8 259.4,281.7 257.5,270.8 236.7,234 248.9,214.1 	"/>
	<polygon fill="#27AAE1" points="301.2,292.6 314.3,483.5 340.8,497.7 327.6,504.2 308.4,483.4 287.9,294 	"/>
</g>
<g id="Layer_1">
	
		<ellipse transform="matrix(0.9982 -5.924696e-02 5.924696e-02 0.9982 -7.8935 16.3093)" fill="none" stroke="#000000" stroke-width="2.785" stroke-miterlimit="10" cx="271.1" cy="141.3" rx="21.4" ry="34.2"/>
	<path fill="none" stroke="#000000" stroke-width="2.785" stroke-miterlimit="10" d="M283.3,109.3c0,0-16.8,4.2-26.1,1.5"/>
	<path fill="none" stroke="#000000" stroke-width="2.785" stroke-miterlimit="10" d="M286.2,113.7c-1.5,1-17.6,5.8-32.1,2.6"/>
	<path fill="none" stroke="#000000" stroke-width="2.785" stroke-miterlimit="10" d="M288.2,118.6c0,0-17.1,8.5-35.4,3.1"/>
	<line fill="none" stroke="#000000" stroke-width="2.785" stroke-miterlimit="10" x1="267" y1="174" x2="268" y2="183.7"/>
	<line fill="none" stroke="#000000" stroke-width="2.785" stroke-miterlimit="10" x1="280.6" y1="172.7" x2="280.6" y2="181.2"/>
	<polygon fill="none" stroke="#000000" stroke-width="2.785" stroke-miterlimit="10" points="244.7,187.2 309,177.7 311,292.2 
		261.3,294 	"/>
	<polyline fill="none" stroke="#000000" stroke-width="2.785" stroke-miterlimit="10" points="244.7,187.2 214,230.2 253,285 
		259.4,281.7 	"/>
	<polyline fill="none" stroke="#000000" stroke-width="2.785" stroke-miterlimit="10" points="249.5,213 236.7,234 258.5,275.7 	"/>
	<line fill="none" stroke="#000000" stroke-width="2.785" stroke-miterlimit="10" x1="236.7" y1="234" x2="214" y2="230.2"/>
	<polyline fill="none" stroke="#000000" stroke-width="2.785" stroke-miterlimit="10" points="253,285 232,285 236.7,299.8 
		261.3,291 	"/>
	<polyline fill="none" stroke="#000000" stroke-width="2.785" stroke-miterlimit="10" points="309,177.7 342,171.2 336,127.5 
		326.5,120.7 324,92.2 329.8,92.2 332.2,105.5 345.2,105.5 348,120.7 337,122.5 334,112.2 	"/>
	<polyline fill="none" stroke="#000000" stroke-width="2.785" stroke-miterlimit="10" points="344.1,122.1 362,183.7 309,199.5 	"/>
	<line fill="none" stroke="#000000" stroke-width="2.785" stroke-miterlimit="10" x1="340.6" y1="171.5" x2="362" y2="183.7"/>
	<polyline fill="none" stroke="#000000" stroke-width="2.785" stroke-miterlimit="10" points="310.4,293.5 317.7,483.4 308.4,483.4 
		287.9,293.5 277.4,483.4 266.8,483.4 261.3,294.8 	"/>
	<polyline fill="none" stroke="#000000" stroke-width="2.785" stroke-miterlimit="10" points="317.4,483.5 345.3,495.5 327.6,504.2 
		308.1,483.5 	"/>
	<polyline fill="none" stroke="#000000" stroke-width="2.785" stroke-miterlimit="10" points="277.4,483.4 263,504.3 244.9,495.4 
		267.3,483.7 	"/>
	<line fill="none" stroke="#000000" stroke-width="2.785" stroke-miterlimit="10" x1="244.8" y1="111.7" x2="227" y2="98.7"/>
	<line fill="none" stroke="#000000" stroke-width="2.785" stroke-miterlimit="10" x1="252.8" y1="103.3" x2="236.7" y2="78.7"/>
	<line fill="none" stroke="#000000" stroke-width="2.785" stroke-miterlimit="10" x1="270.3" y1="98.7" x2="273.1" y2="71"/>
	<line fill="none" stroke="#000000" stroke-width="2.785" stroke-miterlimit="10" x1="286.2" y1="101.3" x2="297" y2="78.7"/>
	<line fill="none" stroke="#000000" stroke-width="2.785" stroke-miterlimit="10" x1="294.7" y1="110.5" x2="307.7" y2="98.7"/>
</g>
<g id="Layer_3">
	<path opacity="0" fill="none" stroke="#594A42" stroke-width="30" stroke-miterlimit="10" d="M245.6,108.9
		c10.1-5.9,22.1-8.5,33.8-7.4c-11.5,7.2-23,14.5-34.5,21.7c10.1-2.6,20.1-5.1,30.2-7.7c-16.3,6.9-32.6,13.7-48.9,20.6
		c15-2.4,29.9-4.8,44.9-7.1c-7.4,2.6-14.7,5.2-22.1,7.7c9.4-2.7,18.9-5.3,28.3-8c-17.5,5.9-35.3,11.1-53.2,15.8
		c18.9-2.8,37.8-5.5,56.6-8.3c-14.7,6.6-29.4,13.1-44.1,19.7c14.6-1.4,29.1-2.7,43.7-4.1c-14.3,6.7-29.1,12.3-44.3,16.5
		c15.1-3.2,30.3-6.5,45.4-9.7c-16.1,5.4-32.2,10.8-48.3,16.2c15.2-2.5,30.5-5,45.7-7.4c-22.1,6.8-44.2,13.6-66.3,20.5
		c16.3-2.5,32.5-5,48.8-7.5c-15.1,6.2-29.9,13.3-44.2,21.3c28.1-5,56.1-10.7,83.9-17.1c-20.7,7-41,15.5-60.5,25.5
		c13.4-2,26.6-5.6,39.1-10.8C254,205.9,229,215,205,226.4c27-8.2,53.9-17,80.5-26.5c-25,11-50.1,21.5-75.5,31.5
		c18-4.8,35.7-10.7,53-17.7c-18.7,8.4-37.4,16.8-56.1,25.2c18.8-7.1,37.8-13.6,57-19.5c-20.1,9.3-39.6,19.9-58.3,31.6
		c22.8-2.7,45.4-7.3,67.3-14c-27.3,10.3-55,19.5-82.9,27.7c26.3-3.4,52.4-8.2,78.2-14.4c-16.6,8.9-33.2,17.8-49.7,26.7
		c28.5-4.6,56.9-9.2,85.4-13.8c-20.5,8.2-41,16.3-61.5,24.5c19.1-2.4,38-5.7,56.8-10c-19,7.4-38,14.8-57,22.2
		c19.4-2.8,38.8-5.5,58.2-8.3c-24,9.5-48,19.1-72,28.6c30.1-4.6,60.2-9.3,90.2-13.9c-24.7,3.3-49.2,8.2-73.3,14.4
		c21.2-1.4,42.3-4.7,62.9-9.8c-24.5,5.7-49.5,11.6-71.1,24.6c29.2,0.7,58.4-2,86.9-8.1c-19,5.2-38.1,10.3-57.1,15.5
		c20-1.6,39.8-5.4,58.9-11.3c-25,7.3-49.8,15.5-74.2,24.6c15.9-1.1,31.7-3.2,47.3-6.4c-15.9,4.5-31.3,10.5-46.1,17.7
		c23.3-1.5,46.5-5.5,68.9-12.1c-21.4,5-42.3,11.8-62.5,20.5c19.4-2.2,38.8-4.5,58.1-6.7c-28.4,7.6-56.8,15.2-85.2,22.8
		c25.4-2.3,50.8-4.6,76.1-6.9c-19.4,5.8-38.2,13.5-56,23.2c22.2-0.3,44.4-3.4,65.9-9.2c-23,4.8-45.3,13-65.9,24.2
		c14.3-2.7,28.6-6.1,42.6-9.9c-12.9,4.7-25.4,10.7-37.1,17.8c22.1,0.6,44.3,0.4,66.4-0.4c-17.7,5.1-35.4,10.3-53.1,15.4
		c18-3.6,36.1-7.3,54.1-10.9c-22.1,9.5-44.9,17.3-68.3,23.1c21-4.6,42.5-6.8,64-6.5c-23.5,7.6-48.1,12-72.8,12.9
		c24.9-5.4,50-10,75.2-14c-20.1,8.1-40.5,15.6-61,22.4c23.9-5.3,48.3-9,72.7-11.1c-25,5.7-50.2,10.4-75.5,14
		c15.6-3.8,31.2-7.7,46.7-11.5c-22,6.6-43.3,15.3-63.7,26c19.8,0,39.6-2.5,58.8-7.5c-16.5,4.4-32.7,9.7-48.5,15.9
		c33.5-8.6,67-17.3,100.4-25.9c-24.3,9.2-49,17-74.2,23.3c27.6-7.9,55.9-13.1,84.5-15.6c-22.3,7.3-45.5,11.7-68.9,13
		c19.2-2.6,38.5-5.2,57.7-7.7c-25.3,9.1-51.8,14.9-78.6,17.1c15.9,1.8,31.9,3,47.9,3.6c-1.5,0.2-2.9,0.3-4.4,0.5
		c2.5-0.4,4.9-0.9,7.4-1.3"/>
</g>
</svg>
