<?xml version="1.0" encoding="utf-8"?>
<!-- Generator: Adobe Illustrator 19.2.1, SVG Export Plug-In . SVG Version: 6.00 Build 0)  -->
<svg version="1.0" id="Layer_1" xmlns="http://www.w3.org/2000/svg" xmlns:xlink="http://www.w3.org/1999/xlink" x="0px" y="0px"
	 width="576px" height="576px" viewBox="0 0 576 576" enable-background="new 0 0 576 576" xml:space="preserve">
<path fill="none" stroke="#000000" stroke-width="2.6809" stroke-miterlimit="10" d="M322.7,195.6l-2-6.2c0,0-6.7-5.5-9.3-5.4
	c-2.7,0.1-8.2,3.1-8.7,3.3c-0.5,0.2-1.7,6.1-1.2,7.6s1.9,8-0.1,8c-2,0-10.2-2.8-15-1.8c-4.8,1-13,6.7-13.7,9.3l-4.2,4.2l3,1.1
	l0.3,4.2c0,0,6.8,8.7,28,7.2c21.2-1.5,27-10.2,25-15.2s-3.8-9.3-3.8-9.3l14.3-1.2l0.8-2.7L322.7,195.6z"/>
<path fill="none" stroke="#000000" stroke-width="2.6809" stroke-miterlimit="10" d="M276.9,210.5c0,0,6.2,1.8,7.3,1.7
	c1.2-0.2,6.8-1,7.9-1.7"/>
<path fill="none" stroke="#000000" stroke-width="2.6809" stroke-miterlimit="10" d="M270.7,215.4c0,0,8.7,2,13.4,1.7
	c4.7-0.3,11.8-2.5,11.8-2.5"/>
<path fill="none" stroke="#000000" stroke-width="2.6809" stroke-miterlimit="10" d="M276,223.1c0.5,0.3,10-0.8,10.5-1
	c0.5-0.2,7.7-2.8,7.7-2.8"/>
<polyline fill="none" stroke="#000000" stroke-width="2.6809" stroke-miterlimit="10" points="288.4,239.5 289.1,247.3 295.9,243.5 
	288.4,239.5 289.4,227.3 "/>
<polyline fill="none" stroke="#000000" stroke-width="2.6809" stroke-miterlimit="10" points="310.7,239.5 313.6,245.5 321.7,242.5 
	310.7,239.5 305.5,226.5 "/>
</svg>
