<?xml version="1.0" encoding="utf-8"?>
<!-- Generator: Adobe Illustrator 19.2.1, SVG Export Plug-In . SVG Version: 6.00 Build 0)  -->
<svg version="1.0" id="Layer_1" xmlns="http://www.w3.org/2000/svg" xmlns:xlink="http://www.w3.org/1999/xlink" x="0px" y="0px"
	 width="576px" height="576px" viewBox="0 0 576 576" enable-background="new 0 0 576 576" xml:space="preserve">
<path fill="none" stroke="#000000" stroke-width="2.6809" stroke-miterlimit="10" d="M260.9,289.4l-3.4,2.1l4.5,2.1l-2.2,2
	c0,0,10.4,4.1,18.8,4.7c8.4,0.6,21.8-2,22.2-2s9.6-3.9,8.9-7.9s-3.4-9.1-3.4-9.1s-3.4-7.8,0.5-8.1c3.9-0.3,14-1.2,14-1.2v-2.1
	l-13.1-5.9l-1.5-4.6l-3.4-3.3c0,0-7.5-0.4-9.8,0s-5.1,2.1-5.2,4.9s-0.8,5.1,0,7.9s1,5.9,1,5.9s-11.1-2-15.2,0.5s-8.8,6.6-8.8,6.6
	l-7.9,5.5c0,0,7.8,2.9,9.4,3s13.2-2.2,13.9-2.4"/>
<path fill="none" stroke="#000000" stroke-width="2.6809" stroke-miterlimit="10" d="M267.6,285.4c0,0,7.2-0.7,7.6-0.7
	s4.6-1.6,4.6-1.6"/>
<path fill="none" stroke="#000000" stroke-width="2.6809" stroke-miterlimit="10" d="M268.9,294.1c0,0,8.1,0.5,8.6,0.5"/>
<polyline fill="none" stroke="#000000" stroke-width="2.6809" stroke-miterlimit="10" points="273,311 273,319.8 279.9,317.8 
	273,311 278.5,300.2 "/>
<polyline fill="none" stroke="#000000" stroke-width="2.6809" stroke-miterlimit="10" points="299,313.4 303.2,319.8 311,315.4 
	299,313.4 294.5,299.7 "/>
</svg>
