<?xml version="1.0" encoding="utf-8"?>
<!-- Generator: Adobe Illustrator 19.2.1, SVG Export Plug-In . SVG Version: 6.00 Build 0)  -->
<svg version="1.0" id="Layer_1" xmlns="http://www.w3.org/2000/svg" xmlns:xlink="http://www.w3.org/1999/xlink" x="0px" y="0px"
	 width="576px" height="576px" viewBox="0 0 576 576" enable-background="new 0 0 576 576" xml:space="preserve">
<path fill="none" stroke="#000000" stroke-width="2.6809" stroke-miterlimit="10" d="M305.7,273.2h13v-2.7l-9.3-3.3
	c0,0-3.3-9.3-10.5-9.8c-7.2-0.5-10.7,3.7-10.7,3.7s0,3.5,0,4.2c0,0.8,0.7,3.9,0.8,4.4s2.3,4,2.3,4l-2,2c0,0-9.7-1-15.5,0
	c-5.8,1-13.2,9.9-13.2,9.9l-4,4.6l9.1,2.8l3.7,3.2c0,0,13.3,1.5,18.2,2c4.8,0.5,9-1.6,11.2-2c2.2-0.4,7.6-3.8,8.4-4.1
	c0.8-0.3,4.6-6.3,4.6-7.9c0-1.7-2.8-5.9-2.8-5.9L305.7,273.2z"/>
<path fill="none" stroke="#000000" stroke-width="2.6809" stroke-miterlimit="10" d="M266.8,284.7c0,0,6.7-0.3,7,0
	c0.3,0.3,6.3-2.5,6.3-2.5"/>
<path fill="none" stroke="#000000" stroke-width="2.6809" stroke-miterlimit="10" d="M262.9,292.1c0,0,10.2-0.6,10.9-0.8
	c0.7-0.2,11.5-4.5,11.5-4.5"/>
<polyline fill="none" stroke="#000000" stroke-width="2.6809" stroke-miterlimit="10" points="277.5,310.5 278.3,318.8 287,314.8 
	277.5,310.5 277.5,297.4 "/>
<polyline fill="none" stroke="#000000" stroke-width="2.6809" stroke-miterlimit="10" points="299.5,311 302.1,317 310.7,313.2 
	299.5,311 293.5,297.7 "/>
</svg>
