<?xml version="1.0" encoding="utf-8"?>
<!-- Generator: Adobe Illustrator 19.2.1, SVG Export Plug-In . SVG Version: 6.00 Build 0)  -->
<svg version="1.0" id="Layer_1" xmlns="http://www.w3.org/2000/svg" xmlns:xlink="http://www.w3.org/1999/xlink" x="0px" y="0px"
	 width="576px" height="576px" viewBox="0 0 576 576" enable-background="new 0 0 576 576" xml:space="preserve">
<path fill="none" stroke="#000000" stroke-width="2.6809" stroke-miterlimit="10" d="M259.8,289.1l2.1,4l2.7,1.1l2.5,3.7
	c0,0,9.8,2.8,14.3,3.3s25.8-4.6,27.5-8.1c1.7-3.5,1.8-8.2,1.5-9c-0.3-0.8-3.7-5.5-3.7-6s0.3-5.2,0.3-5.2l14.2-0.7v-2.3l-10.8-3.5
	l-1.8-6.4l-5-4.4c0,0-5.5-0.8-7.7,0c-2.2,0.8-6.2,4.4-6.2,4.4s-2.2,7.7,0,9.4c2.2,1.7,0.8,5,0.8,5s-16.2,0.5-20.7,2.8
	C265.3,279.5,255,288,255,288s10.2,2.2,11,2.5c0.8,0.3,11.7-2.5,11.7-2.5"/>
<path fill="none" stroke="#000000" stroke-width="2.6809" stroke-miterlimit="10" d="M265,284.2c0.7,0,6.2,0,6.2,0l5.3-1.8"/>
<polyline fill="none" stroke="#000000" stroke-width="2.6809" stroke-miterlimit="10" points="273.5,311.9 281.2,318.5 273.5,321.3 
	273.5,311.9 279.2,301.2 "/>
<polyline fill="none" stroke="#000000" stroke-width="2.6809" stroke-miterlimit="10" points="300.2,314.3 305,321.3 313.3,316 
	300.2,314.3 294.4,299.1 "/>
</svg>
