<?xml version="1.0" encoding="utf-8"?>
<!-- Generator: Adobe Illustrator 19.2.1, SVG Export Plug-In . SVG Version: 6.00 Build 0)  -->
<svg version="1.0" id="Layer_1" xmlns="http://www.w3.org/2000/svg" xmlns:xlink="http://www.w3.org/1999/xlink" x="0px" y="0px"
	 width="576px" height="576px" viewBox="0 0 576 576" enable-background="new 0 0 576 576" xml:space="preserve">
<ellipse transform="matrix(0.995 -9.970308e-02 9.970308e-02 0.995 -12.2169 26.2118)" fill="none" stroke="#000000" stroke-width="2.6809" stroke-miterlimit="10" cx="256.1" cy="135.3" rx="26.2" ry="39.7"/>
<path fill="none" stroke="#000000" stroke-width="2.6809" stroke-miterlimit="10" d="M239.4,102.7c0,0,14.1,0,22-5.3"/>
<path fill="none" stroke="#000000" stroke-width="2.6809" stroke-miterlimit="10" d="M233.7,112c0,0,22.1-2.5,33.1-11.3"/>
<path fill="none" stroke="#000000" stroke-width="2.6809" stroke-miterlimit="10" d="M231.4,118.7c0,0,16.9,1.1,40-13.6"/>
<path fill="none" stroke="#000000" stroke-width="2.6809" stroke-miterlimit="10" d="M281.9,146.5c0,0-28-7.1-47.4,8.7"/>
<line fill="none" stroke="#000000" stroke-width="2.6809" stroke-miterlimit="10" x1="254.1" y1="174.4" x2="254.1" y2="186.2"/>
<line fill="none" stroke="#000000" stroke-width="2.6809" stroke-miterlimit="10" x1="266.8" y1="172.8" x2="269.3" y2="183.7"/>
<path fill="none" stroke="#000000" stroke-width="2.6809" stroke-miterlimit="10" d="M228.7,186.7l68-4l-6.3,125.9
	c0,0-51,0.7-50.7,0C240,308,228.7,186.7,228.7,186.7z"/>
<polyline fill="none" stroke="#000000" stroke-width="2.6809" stroke-miterlimit="10" points="250.4,185.5 263.6,201 274.2,184.1 
	"/>
<polyline fill="none" stroke="#000000" stroke-width="2.6809" stroke-miterlimit="10" points="228.7,186.7 188,245.5 210,305.5 
	209,332 219.5,337.7 219,310.5 226.4,314.3 229.6,307.3 217.3,299 210,249.9 231.4,217.3 "/>
<line fill="none" stroke="#000000" stroke-width="2.6809" stroke-miterlimit="10" x1="188" y1="245.5" x2="210" y2="249.9"/>
<path fill="none" stroke="#000000" stroke-width="2.6809" stroke-miterlimit="10" d="M296.9,182.2l37.5,27l27-43.2l-4-9.2l18.2-32.5
	l5,1.5l-5.5,17.3c0,0,13.2,6.4,13.2,7.2s-3.8,12.5-3.8,12.5l-15.8-5.8l3.5-8.5"/>
<polyline fill="none" stroke="#000000" stroke-width="2.6809" stroke-miterlimit="10" points="383.5,162.3 373.2,170.7 338.2,236 
	295.4,203.7 "/>
<line fill="none" stroke="#000000" stroke-width="2.6809" stroke-miterlimit="10" x1="334.4" y1="209.2" x2="338.2" y2="237.2"/>
<polyline fill="none" stroke="#000000" stroke-width="2.6809" stroke-miterlimit="10" points="239.7,307.8 244.7,455 254.3,455 
	264.4,307.8 "/>
<polyline fill="none" stroke="#000000" stroke-width="2.6809" stroke-miterlimit="10" points="266,307.8 284.4,455 294.7,455 
	290.3,307.8 "/>
<polyline fill="none" stroke="#000000" stroke-width="2.6809" stroke-miterlimit="10" points="244.7,455 220,472 247.7,476.8 
	254.3,455 "/>
<polyline fill="none" stroke="#000000" stroke-width="2.6809" stroke-miterlimit="10" points="284.4,455 296.1,480.2 317.4,473.4 
	294.3,455.2 "/>
</svg>
