<?xml version="1.0" encoding="utf-8"?>
<!-- Generator: Adobe Illustrator 19.2.1, SVG Export Plug-In . SVG Version: 6.00 Build 0)  -->
<svg version="1.0" id="Layer_1" xmlns="http://www.w3.org/2000/svg" xmlns:xlink="http://www.w3.org/1999/xlink" x="0px" y="0px"
	 width="576px" height="576px" viewBox="0 0 576 576" enable-background="new 0 0 576 576" xml:space="preserve">
<path fill="none" stroke="#000000" stroke-width="2.6809" stroke-miterlimit="10" d="M253.8,127.3c0,0,43.9,4.4,65.7-19"/>
<path fill="none" stroke="#000000" stroke-width="2.6809" stroke-miterlimit="10" d="M305.4,119.3c5.9,6.5,9.7,16.1,9.7,26.9
	c0,19.5-12.2,35.3-27.3,35.3s-27.3-15.8-27.3-35.3c0-6.9,1.5-13.3,4.1-18.7"/>
<path fill="none" stroke="#000000" stroke-width="2.6809" stroke-miterlimit="10" d="M273,176c0,0-12.7,1-15,0c-2.3-1-7.3-1.3-9-5
	s5.3-15.3,5.3-15.3c-2.7-6.3-7.7-33.3-7.3-48s27.3-23.7,46.7-24.3c19.3-0.7,30,8.7,36.3,25.7s-8,39-8,39s12.7,15,7.7,19.3
	c-5,4.3-24.2,5.8-24.2,5.8"/>
<path fill="none" stroke="#000000" stroke-width="2.6809" stroke-miterlimit="10" d="M262.1,109.4c0,0,22.4,2.2,43.7-11.1"/>
<path fill="none" stroke="#000000" stroke-width="2.6809" stroke-miterlimit="10" d="M256.7,119c0,0,32.3,3.3,54.7-14.3"/>
<path fill="none" stroke="#000000" stroke-width="2.6809" stroke-miterlimit="10" d="M260.4,146.2c0,0,5,6.8,12.6,4.4
	c7.7-2.3,14-7.2,19.3-4.4c5.3,2.8,10.8,3.2,22.7,0"/>
<line fill="none" stroke="#000000" stroke-width="2.6809" stroke-miterlimit="10" x1="278.3" y1="179.4" x2="279.5" y2="190.7"/>
<line fill="none" stroke="#000000" stroke-width="2.6809" stroke-miterlimit="10" x1="295.7" y1="180" x2="295.2" y2="190.7"/>
<path fill="none" stroke="#000000" stroke-width="2.6809" stroke-miterlimit="10" d="M321.5,189.7l-67.7,3.5l-18.3,247.3
	c0,0,49.5,22.5,118.5-2.5L321.5,189.7z"/>
<path fill="none" stroke="#000000" stroke-width="2.6809" stroke-miterlimit="10" d="M305.9,190.5c0,0-29.2,53.5-58.1,83.8"/>
<path fill="none" stroke="#000000" stroke-width="2.6809" stroke-miterlimit="10" d="M322.1,194.6c0,0-29.6,80.9-77,116.2"/>
<path fill="none" stroke="#000000" stroke-width="2.6809" stroke-miterlimit="10" d="M253.8,193.2c0,0-43.5-22.8-82.2-71.8L145,207
	c0,0,56.7,29,107.6,2.8"/>
<path fill="none" stroke="#000000" stroke-width="2.6809" stroke-miterlimit="10" d="M171.7,121.3l-10.4-13l-3-10
	c0,0-5.5-2.1-5.8-2.9s-2-12.2-2-12.2s-5.5-1.2-5.5,0s-1,10-1,10s-4.5-0.5-4.5-1.8s-7.2-17.2-7.2-17.2l-11.2,6l3.8,28.1l23.8,9.7
	l17.8,20.4"/>
<path fill="none" stroke="#000000" stroke-width="2.6809" stroke-miterlimit="10" d="M139.5,100.8c0.8,0,5.2-0.5,6.8,0
	c1.7,0.5,7.2,7.6,7.2,7.6"/>
<path fill="none" stroke="#000000" stroke-width="2.6809" stroke-miterlimit="10" d="M322.4,190.2c0,0,43.5-22.8,82.2-71.8
	l26.7,85.7c0,0-56.7,29-107.6,2.8"/>
<path fill="none" stroke="#000000" stroke-width="2.6809" stroke-miterlimit="10" d="M404.6,118.3l10.4-13l3-10c0,0,5.5-2.1,5.8-2.9
	s2-12.2,2-12.2s5.5-1.2,5.5,0s1,10,1,10s4.5-0.5,4.5-1.8s7.2-17.2,7.2-17.2l11.2,6l-3.8,28.1l-23.7,9.7l-17.8,20.4"/>
<path fill="none" stroke="#000000" stroke-width="2.6809" stroke-miterlimit="10" d="M436.7,97.7c-0.8,0-5.2-0.5-6.8,0
	c-1.7,0.5-7.2,7.6-7.2,7.6"/>
<polyline fill="none" stroke="#000000" stroke-width="2.6809" stroke-miterlimit="10" points="264.6,447.2 270.3,477 279.7,477 
	283.3,449.8 "/>
<polyline fill="none" stroke="#000000" stroke-width="2.6809" stroke-miterlimit="10" points="305.3,449.8 308.7,477 319,477 
	322.4,447.5 "/>
<polyline fill="none" stroke="#000000" stroke-width="2.6809" stroke-miterlimit="10" points="270.3,477 238,494.3 270.3,505.3 
	279.7,477 "/>
<polyline fill="none" stroke="#000000" stroke-width="2.6809" stroke-miterlimit="10" points="308.7,477 316.3,505.3 346.3,495.6 
	319,477 "/>
</svg>
