<?xml version="1.0" encoding="utf-8"?>
<!-- Generator: Adobe Illustrator 19.2.1, SVG Export Plug-In . SVG Version: 6.00 Build 0)  -->
<svg version="1.0" id="Layer_1" xmlns="http://www.w3.org/2000/svg" xmlns:xlink="http://www.w3.org/1999/xlink" x="0px" y="0px"
	 width="576px" height="576px" viewBox="0 0 576 576" enable-background="new 0 0 576 576" xml:space="preserve">
<ellipse fill="none" stroke="#000000" stroke-width="2.785" stroke-miterlimit="10" cx="273.2" cy="165.1" rx="23.8" ry="35.4"/>
<line fill="none" stroke="#000000" stroke-width="2.785" stroke-miterlimit="10" x1="266.8" y1="199.2" x2="265.5" y2="208.8"/>
<line fill="none" stroke="#000000" stroke-width="2.785" stroke-miterlimit="10" x1="279.7" y1="199.2" x2="281.5" y2="208.8"/>
<path fill="none" stroke="#000000" stroke-width="2.785" stroke-miterlimit="10" d="M240.7,234.3c-1-14.8-1.7-25.6-1.7-25.6h67
	c0,0-0.5,12.8-1.1,29.6"/>
<path fill="none" stroke="#000000" stroke-width="2.785" stroke-miterlimit="10" d="M231.3,229.7c4.2-11.6,7.7-20.9,7.7-20.9"/>
<path fill="none" stroke="#000000" stroke-width="2.785" stroke-miterlimit="10" d="M306,208.7c0,0,20-18.2,20.5-37.7
	s-1.2-47.8-1.2-47.8l-10.2-7l1.3-37h5.5l1.2,17.2l10.2-1l4,13.2l-12.8,2.5l-1.5-9"/>
<path fill="none" stroke="#000000" stroke-width="2.785" stroke-miterlimit="10" d="M337.2,108.8l-2.1,12.5c0,0,25,47.8-11.1,110"/>
<line fill="none" stroke="#000000" stroke-width="2.785" stroke-miterlimit="10" x1="326.5" y1="171" x2="342.8" y2="177"/>
<polyline fill="none" stroke="#000000" stroke-width="2.785" stroke-miterlimit="10" points="297,286.8 308.2,274.2 311.2,278.5 
	308,285 322.2,280.5 322.2,294 298,297.5 "/>
<path fill="none" stroke="#000000" stroke-width="2.785" stroke-miterlimit="10" d="M268.4,281.9V247l-46.9-22.5l16,46.2
	c24.8,13.2,59.5,16,59.5,16l1,10.8c-58.8,9.2-82.2-25.2-82.2-25.2s5.9-16,11.5-31.3"/>
<polyline fill="none" stroke="#000000" stroke-width="2.785" stroke-miterlimit="10" points="320.3,281.1 326.5,228.8 283.5,247 
	283.5,285 "/>
<line fill="none" stroke="#000000" stroke-width="2.785" stroke-miterlimit="10" x1="268.4" y1="247" x2="283.5" y2="247"/>
<path fill="none" stroke="#000000" stroke-width="2.785" stroke-miterlimit="10" d="M302.7,297.7c-0.4,11.3-0.7,19.1-0.7,19.1h-55.8
	c0,0-0.6-9.6-1.5-23"/>
<polyline fill="none" stroke="#000000" stroke-width="2.785" stroke-miterlimit="10" points="246.3,316.7 255.8,471.5 266.2,471.5 
	276.5,316.7 "/>
<polyline fill="none" stroke="#000000" stroke-width="2.785" stroke-miterlimit="10" points="279,316.7 298,471.5 309.6,471.5 
	302,316.7 "/>
<polyline fill="none" stroke="#000000" stroke-width="2.785" stroke-miterlimit="10" points="255.8,471.5 233,489.5 261.4,493 
	266.2,471.5 "/>
<polyline fill="none" stroke="#000000" stroke-width="2.785" stroke-miterlimit="10" points="298,471.5 303.5,496 330.8,488 
	309.6,471.5 "/>
<line fill="none" stroke="#000000" stroke-width="2.785" stroke-miterlimit="10" x1="306" y1="247" x2="305" y2="272.2"/>
<line fill="none" stroke="#000000" stroke-width="2.785" stroke-miterlimit="10" x1="299.8" y1="254.8" x2="311" y2="253.5"/>
</svg>
