<?xml version="1.0" encoding="utf-8"?>
<!-- Generator: Adobe Illustrator 19.2.1, SVG Export Plug-In . SVG Version: 6.00 Build 0)  -->
<svg version="1.0" id="Layer_1" xmlns="http://www.w3.org/2000/svg" xmlns:xlink="http://www.w3.org/1999/xlink" x="0px" y="0px"
	 width="576px" height="576px" viewBox="0 0 576 576" enable-background="new 0 0 576 576" xml:space="preserve">
<ellipse fill="none" stroke="#000000" stroke-width="2.5316" stroke-miterlimit="10" cx="255.3" cy="140.8" rx="25.6" ry="41"/>
<path fill="none" stroke="#000000" stroke-width="2.6809" stroke-miterlimit="10" d="M237.3,111.9c0,0,16,5,32.9-4.4"/>
<path fill="none" stroke="#000000" stroke-width="2.6809" stroke-miterlimit="10" d="M233.3,119.5c0,0,22.8,2.8,41-6.2"/>
<path fill="none" stroke="#000000" stroke-width="2.6809" stroke-miterlimit="10" d="M230.5,128.4c0,0,26.2,6.3,46.7-9"/>
<polygon fill="none" stroke="#000000" stroke-width="2.785" stroke-miterlimit="10" points="227,136 228.3,149.7 251.3,149.7 
	251.3,136 "/>
<path fill="none" stroke="#000000" stroke-width="2.785" stroke-miterlimit="10" d="M252,143c0,0,4.9-1.8,9.1,0"/>
<path fill="none" stroke="#000000" stroke-width="2.785" stroke-miterlimit="10" d="M261.1,136v13.8c0,0,21.1,0.8,21.1,0
	s1-13.8,1-13.8H261.1z"/>
<line fill="none" stroke="#000000" stroke-width="2.6809" stroke-miterlimit="10" x1="247.7" y1="180" x2="247.7" y2="188.8"/>
<line fill="none" stroke="#000000" stroke-width="2.6809" stroke-miterlimit="10" x1="261.1" y1="180.7" x2="261.8" y2="188.8"/>
<polygon fill="none" stroke="#000000" stroke-width="2.6809" stroke-miterlimit="10" points="220.2,189.2 290.5,189.2 282.2,303.7 
	228.5,303.7 "/>
<path fill="none" stroke="#000000" stroke-width="2.6809" stroke-miterlimit="10" d="M220.2,189.2L193,250.9l11,68.8l1,27l11.3,4
	l-1.7-25.7c0,0,5.5,4.7,5.6,3.7s2.8-7,2.8-7l-9.3-6l-2.3-62.3l11.5-28.1"/>
<line fill="none" stroke="#000000" stroke-width="2.6809" stroke-miterlimit="10" x1="193" y1="250.9" x2="211.3" y2="253.3"/>
<path fill="none" stroke="#000000" stroke-width="2.6809" stroke-miterlimit="10" d="M290.5,189.2l37.5,27l27-43.2l-4-9.2l18.2-32.5
	l5,1.5l-5.5,17.3c0,0,13.2,6.4,13.2,7.2s-3.8,12.5-3.8,12.5l-15.8-5.8l3.5-8.5"/>
<polyline fill="none" stroke="#000000" stroke-width="2.6809" stroke-miterlimit="10" points="377.1,169.3 366.8,177.8 331.8,243 
	289,210.7 "/>
<line fill="none" stroke="#000000" stroke-width="2.6809" stroke-miterlimit="10" x1="328" y1="216.2" x2="331.8" y2="244.2"/>
<polyline fill="none" stroke="#000000" stroke-width="2.6809" stroke-miterlimit="10" points="230.7,303.7 235.7,451 245.2,451 
	255.4,303.7 "/>
<polyline fill="none" stroke="#000000" stroke-width="2.6809" stroke-miterlimit="10" points="258,303.7 276.3,451 286.7,451 
	282.2,303.7 "/>
<polyline fill="none" stroke="#000000" stroke-width="2.6809" stroke-miterlimit="10" points="235.7,451 211,468 238.7,472.8 
	245.2,451 "/>
<polyline fill="none" stroke="#000000" stroke-width="2.6809" stroke-miterlimit="10" points="276.3,451 288.1,476.2 309.4,469.4 
	286.2,451.2 "/>
<path fill="none" stroke="#000000" stroke-width="2.6809" stroke-miterlimit="10" d="M252,188.8l-4.3,3.8v8.8c0,0,2.3,2.5,4.3,2.5
	s6.2,0,6.2,0l2.9-4l-0.6-7.5l-3.9-3"/>
<polyline fill="none" stroke="#000000" stroke-width="2.6809" stroke-miterlimit="10" points="252,203.8 245.2,235.2 256.6,270 
	267.5,234.2 258.2,203.8 "/>
</svg>
