<?xml version="1.0" encoding="utf-8"?>
<!-- Generator: Adobe Illustrator 21.1.0, SVG Export Plug-In . SVG Version: 6.00 Build 0)  -->
<!DOCTYPE svg PUBLIC "-//W3C//DTD SVG 1.0//EN" "http://www.w3.org/TR/2001/REC-SVG-20010904/DTD/svg10.dtd">
<svg version="1.0" id="Layer_2" xmlns="http://www.w3.org/2000/svg" xmlns:xlink="http://www.w3.org/1999/xlink" x="0px" y="0px"
	 width="1920px" height="1080px" viewBox="0 0 1920 1080" enable-background="new 0 0 1920 1080" xml:space="preserve">
<g>
	<path fill="#76FF00" d="M1116.9,484.7c-2.1-9.6-4.7-19.2-7.7-28.6c-2.1-6.6-4.7-12.9-9.6-17.9c-5.4-5.7-12.5-8.4-19.7-11
		c-20.2-7.3-41.9-14-63.6-11.7c-11.2,1.2-21.5,4.2-32.3,7c-2,0.5-3.9,1-5.9,1.4c-0.6,0.1-1.3,0.2-1.9,0.4c0,0,0,0,0,0
		c-1.6,0-3.3,0.1-4.9,0.1c-1.1-0.4-4.1-1-4.6-1.1c-6.3-1.8-13-3.6-19.7-3.2c-8.3,0.5-15.4,3.3-22.8,6.9c-11,5.3-22,10.8-33,16.2
		c-10.2,5-14.6,19.1-10.7,29.6c-9.9,9.9-14,25.7-13,39.7c1.7,22.6,10.3,44.6,30.4,56.9c4.3,2.6,8.7,4.6,13.4,6
		c6,6.1,14.7,8.6,23.9,6.7c8.7-1.8,17.4-3.7,26.1-5.5c4.4-0.9,8.1-3.3,11-6.4c1.5,0,3.2,0.1,3.6,0.5c-0.9-0.1-1.8-0.2-2.7-0.3
		c0.9,0.1,1.8,0.3,2.8,0.5c3.4,0.6,6.7,1.3,10.1,1.8c10.4,1.5,19.3,1.5,29.6-0.3c6.7-1.2,13.2-3.3,19.9-4.8c2.6-0.6,6.3-1.9,9-1.7
		c-3.2,0.4-3.8,0.5-2,0.3c0.9-0.1,1.8-0.2,2.7-0.3c1.8-0.2,3.7-0.3,5.5-0.4c6.4-0.3,12.8-0.2,19.2,0.4c1,0.1,2,0.1,3.1,0.3
		c0.8,0.2,1.7,0.4,2.2,0.5c3.6,0.7,7.2,1.5,10.7,2.4c13.2,3.5,26-4.4,30.1-17.1C1123.3,529.8,1121.6,506.7,1116.9,484.7z
		 M1051.9,492.1c-0.6,0.1-1.2,0.3-1.7,0.5c0.1-0.1,0.1-0.1,0.2-0.1c-0.1,0-0.1,0.1-0.2,0.1c-2,0.8-1.8,0.3,0.3-0.2
		c1.7-1.5,0.9-0.5,0.1,0C1050.9,492.2,1051.3,492.1,1051.9,492.1z"/>
	<path fill="#76FF00" d="M1050.3,492.4c0.1,0,0.1-0.1,0.2-0.1c0,0-0.1,0-0.1,0C1050.4,492.4,1050.3,492.4,1050.3,492.4z"/>
</g>
</svg>
