<?xml version="1.0" encoding="utf-8"?>
<!-- Generator: Adobe Illustrator 19.2.1, SVG Export Plug-In . SVG Version: 6.00 Build 0)  -->
<svg version="1.0" id="Layer_1" xmlns="http://www.w3.org/2000/svg" xmlns:xlink="http://www.w3.org/1999/xlink" x="0px" y="0px"
	 width="576px" height="576px" viewBox="0 0 576 576" enable-background="new 0 0 576 576" xml:space="preserve">
<ellipse transform="matrix(0.994 -0.109 0.109 0.994 -13.1437 29.8083)" fill="none" stroke="#000000" stroke-width="2.5316" stroke-miterlimit="10" cx="266.1" cy="135.1" rx="25.6" ry="41"/>
<polygon fill="none" stroke="#000000" stroke-width="2.785" stroke-miterlimit="10" points="245.1,130.8 247.9,144.4 270.7,141.9 
	269.2,128.2 "/>
<path fill="none" stroke="#000000" stroke-width="2.785" stroke-miterlimit="10" d="M270.7,135.1c0,0,4.7-2.4,9.1-1"/>
<path fill="none" stroke="#000000" stroke-width="2.785" stroke-miterlimit="10" d="M279.1,127.1l1.5,13.7c0,0,21.1-1.6,21-2.3
	c-0.1-0.7-0.5-13.8-0.5-13.8L279.1,127.1z"/>
<path fill="none" stroke="#000000" stroke-width="2.6809" stroke-miterlimit="10" d="M245.1,108.4c0,0,16.5,3.2,32.3-8"/>
<path fill="none" stroke="#000000" stroke-width="2.6809" stroke-miterlimit="10" d="M242,116.3c0,0,22.9,0.3,40-10.6"/>
<path fill="none" stroke="#000000" stroke-width="2.6809" stroke-miterlimit="10" d="M240.1,125.6c0,0,26.7,3.4,45.4-14"/>
<line fill="none" stroke="#000000" stroke-width="2.6809" stroke-miterlimit="10" x1="262.9" y1="174.9" x2="264.2" y2="187.4"/>
<line fill="none" stroke="#000000" stroke-width="2.6809" stroke-miterlimit="10" x1="276.3" y1="174.2" x2="278.5" y2="186"/>
<polygon fill="none" stroke="#000000" stroke-width="2.785" stroke-miterlimit="10" points="236.3,190 303,183.7 291.7,308 
	245.1,308 "/>
<polyline fill="none" stroke="#000000" stroke-width="2.6809" stroke-miterlimit="10" points="236.3,190 197.3,245.8 195.7,316.5 
	204.3,317 214.3,251.1 238.5,219 "/>
<line fill="none" stroke="#000000" stroke-width="2.6809" stroke-miterlimit="10" x1="197.3" y1="245.8" x2="214.3" y2="251.1"/>
<polyline fill="none" stroke="#000000" stroke-width="2.6809" stroke-miterlimit="10" points="204.3,317 212,330.8 205.8,335.3 
	201.3,328.8 197.3,350 188.7,352.7 195.7,316.5 "/>
<polyline fill="none" stroke="#000000" stroke-width="2.6809" stroke-miterlimit="10" points="303,183.7 326.7,245.2 367,284 
	360.3,290.3 313.7,255.2 300,222.3 "/>
<line fill="none" stroke="#000000" stroke-width="2.6809" stroke-miterlimit="10" x1="326.7" y1="245.2" x2="313.7" y2="255.2"/>
<path fill="none" stroke="#000000" stroke-width="2.6809" stroke-miterlimit="10" d="M367,284l10,8.3l9,24.1l-6,0.5l-13-16.5
	l-2.7,7.5c0,0-5.7-1.2-5.7-2.8s1.7-14.9,1.7-14.9"/>
<polyline fill="none" stroke="#000000" stroke-width="2.785" stroke-miterlimit="10" points="291.5,309 344.5,451 335.8,456.7 
	245.1,308 "/>
<path fill="none" stroke="#000000" stroke-width="2.785" stroke-miterlimit="10" d="M270.6,349.7c-6.3,34.4-10.3,60-39.8,103
	l-11.6-1.4c0,0,29.9-98.5,30.5-135.8"/>
<polyline fill="none" stroke="#000000" stroke-width="2.785" stroke-miterlimit="10" points="219.2,451.3 231.2,481 254.7,469.7 
	230.8,452.7 "/>
<polyline fill="none" stroke="#000000" stroke-width="2.785" stroke-miterlimit="10" points="335.8,456.7 364.5,481 385.8,462 
	344.5,451 "/>
<path fill="none" stroke="#000000" stroke-width="2.6809" stroke-miterlimit="10" d="M268.9,186.3l-4,4l0.6,8.7c0,0,2.4,2.3,4.4,2.2
	c2-0.1,6.2-0.4,6.2-0.4l2.6-4.2l-1.2-7.4l-4.2-2.7"/>
<polyline fill="none" stroke="#000000" stroke-width="2.6809" stroke-miterlimit="10" points="270,201.3 265.5,233.2 279.3,267 
	287.6,230.6 276.2,200.9 "/>
</svg>
