<?xml version="1.0" encoding="utf-8"?>
<!-- Generator: Adobe Illustrator 19.2.1, SVG Export Plug-In . SVG Version: 6.00 Build 0)  -->
<svg version="1.0" id="Layer_1" xmlns="http://www.w3.org/2000/svg" xmlns:xlink="http://www.w3.org/1999/xlink" x="0px" y="0px"
	 width="576px" height="576px" viewBox="0 0 576 576" enable-background="new 0 0 576 576" xml:space="preserve">
<ellipse transform="matrix(0.9947 -0.103 0.103 0.9947 -12.0109 28.6493)" fill="none" stroke="#000000" stroke-width="2.785" stroke-miterlimit="10" cx="271.4" cy="130.6" rx="23.8" ry="35.4"/>
<line fill="none" stroke="#000000" stroke-width="2.785" stroke-miterlimit="10" x1="265.7" y1="164.1" x2="267" y2="179"/>
<line fill="none" stroke="#000000" stroke-width="2.785" stroke-miterlimit="10" x1="281.8" y1="163.6" x2="281.8" y2="177.2"/>
<polyline fill="none" stroke="#000000" stroke-width="2.785" stroke-miterlimit="10" points="269.8,309 300,309 302.2,177.2 
	241.8,180.2 205.8,238.5 237.2,303.2 251,298.5 231,241.5 244.5,217.8 243.2,253.2 "/>
<line fill="none" stroke="#000000" stroke-width="2.785" stroke-miterlimit="10" x1="231" y1="241.5" x2="207.3" y2="238.8"/>
<path fill="none" stroke="#000000" stroke-width="2.785" stroke-miterlimit="10" d="M251,298.5l5.5,10.5l13.4-2.4l-2.3,6.4l-18,9.8
	c0,0-10.4-7-10.6-7.8s-1.8-11.8-1.8-11.8"/>
<path fill="none" stroke="#000000" stroke-width="2.785" stroke-miterlimit="10" d="M235.6,254.9c23.3-3.6,49.1-7.6,49.1-7.6
	l5.5,56.5c0,0-16,2.2-33.8,4.7"/>
<path fill="none" stroke="#000000" stroke-width="2.785" stroke-miterlimit="10" d="M238.3,311c-15.5,2.2-28.5,4-28.5,4L199,260.5
	c0.2,0,6.3-0.9,15.1-2.3"/>
<polyline fill="none" stroke="#000000" stroke-width="2.785" stroke-miterlimit="10" points="302.2,177.2 328.5,235.2 340,295.5 
	331.5,297.2 313.8,243.1 301.6,217 "/>
<line fill="none" stroke="#000000" stroke-width="2.785" stroke-miterlimit="10" x1="313.8" y1="243.1" x2="328.5" y2="235.2"/>
<path fill="none" stroke="#000000" stroke-width="2.785" stroke-miterlimit="10" d="M331.5,297.2l-3,17.8c0,0,4.8,4,5.2,3
	s3.4-9,3.4-9l2.8,6.7V331l7.8-3l3.2-15l-11-17.5"/>
<polyline fill="none" stroke="#000000" stroke-width="2.785" stroke-miterlimit="10" points="280,309 333,451 324.3,456.7 
	243.2,318.3 "/>
<path fill="none" stroke="#000000" stroke-width="2.785" stroke-miterlimit="10" d="M297.3,309c0,0-2.7,9.1-8.5,23.6"/>
<path fill="none" stroke="#000000" stroke-width="2.785" stroke-miterlimit="10" d="M272.8,369.1c-12.6,25.6-30.2,55.9-53.5,83.6
	l-11.6-1.4c0,0,37.6-91.3,38.2-128.6"/>
<polyline fill="none" stroke="#000000" stroke-width="2.785" stroke-miterlimit="10" points="207.7,451.3 219.7,481 243.2,469.7 
	219.3,452.7 "/>
<polyline fill="none" stroke="#000000" stroke-width="2.785" stroke-miterlimit="10" points="324.3,456.7 353,481 374.3,462 
	333,451 "/>
<line fill="none" stroke="#000000" stroke-width="2.785" stroke-miterlimit="10" x1="274.8" y1="277.8" x2="249.6" y2="280.4"/>
<line fill="none" stroke="#000000" stroke-width="2.785" stroke-miterlimit="10" x1="266.2" y1="272.7" x2="269.1" y2="283.7"/>
</svg>
