<?xml version="1.0" encoding="utf-8"?>
<!-- Generator: Adobe Illustrator 19.2.1, SVG Export Plug-In . SVG Version: 6.00 Build 0)  -->
<svg version="1.0" id="Layer_1" xmlns="http://www.w3.org/2000/svg" xmlns:xlink="http://www.w3.org/1999/xlink" x="0px" y="0px"
	 width="576px" height="576px" viewBox="0 0 576 576" enable-background="new 0 0 576 576" xml:space="preserve">
<ellipse transform="matrix(0.9886 -0.1504 0.1504 0.9886 -17.4608 40.7137)" fill="none" stroke="#000000" stroke-width="2.6809" stroke-miterlimit="10" cx="260.4" cy="135.8" rx="26.2" ry="39.7"/>
<path fill="none" stroke="#000000" stroke-width="2.6809" stroke-miterlimit="10" d="M242.1,104.1c0,0,14.1-0.7,21.7-6.5"/>
<path fill="none" stroke="#000000" stroke-width="2.6809" stroke-miterlimit="10" d="M236.7,113.6c0,0,22-3.6,32.5-13"/>
<path fill="none" stroke="#000000" stroke-width="2.6809" stroke-miterlimit="10" d="M234.8,120.4c0,0,16.9,0.2,39.3-15.6"/>
<path fill="none" stroke="#000000" stroke-width="2.6809" stroke-miterlimit="10" d="M286.7,145.6c0,0-28.4-5.6-46.9,11.1"/>
<line fill="none" stroke="#000000" stroke-width="2.6809" stroke-miterlimit="10" x1="258.1" y1="174.3" x2="259.4" y2="185.4"/>
<line fill="none" stroke="#000000" stroke-width="2.6809" stroke-miterlimit="10" x1="271.4" y1="172.2" x2="273.6" y2="184"/>
<polygon fill="none" stroke="#000000" stroke-width="2.785" stroke-miterlimit="10" points="231.4,188 298.1,181.7 286.8,306 
	240.2,306 "/>
<path fill="none" stroke="#000000" stroke-width="2.6809" stroke-miterlimit="10" d="M255.2,185.8c1-0.1,12.1,15.2,12.1,15.2
	l11.7-17.5"/>
<polyline fill="none" stroke="#000000" stroke-width="2.6809" stroke-miterlimit="10" points="231.4,188 183.8,218.7 201,288.3 
	209.7,287 205,228 233.2,211.3 "/>
<line fill="none" stroke="#000000" stroke-width="2.6809" stroke-miterlimit="10" x1="183.8" y1="218.7" x2="205" y2="228"/>
<polyline fill="none" stroke="#000000" stroke-width="2.6809" stroke-miterlimit="10" points="298.1,181.7 325.6,221.7 360.8,228 
	360.8,235 320,238.2 295.4,211.5 "/>
<line fill="none" stroke="#000000" stroke-width="2.6809" stroke-miterlimit="10" x1="325.6" y1="221.7" x2="320" y2="238.2"/>
<path fill="none" stroke="#000000" stroke-width="2.6809" stroke-miterlimit="10" d="M360.8,228l9.8-6.3l17-1.4l4.8,11.7
	c0,0-4.5,4.1-5.2,4.1s-13,0-13,0l-5.5-6.1"/>
<polyline fill="none" stroke="#000000" stroke-width="2.6809" stroke-miterlimit="10" points="360.8,235 369,242.5 382.5,240.5 
	382.5,236 "/>
<polyline fill="none" stroke="#000000" stroke-width="2.6809" stroke-miterlimit="10" points="209.7,287 218.7,296 217,306 
	211.3,306 212.3,309.7 199,317 194.4,302 201,288.3 "/>
<polyline fill="none" stroke="#000000" stroke-width="2.785" stroke-miterlimit="10" points="286.6,307 339.6,449 330.9,454.7 
	240.2,306 "/>
<path fill="none" stroke="#000000" stroke-width="2.785" stroke-miterlimit="10" d="M265.7,347.7c-6.3,34.4-10.3,60-39.8,103
	l-11.6-1.4c0,0,29.9-98.5,30.5-135.8"/>
<polyline fill="none" stroke="#000000" stroke-width="2.785" stroke-miterlimit="10" points="214.3,449.3 226.3,479 249.9,467.7 
	225.9,450.7 "/>
<polyline fill="none" stroke="#000000" stroke-width="2.785" stroke-miterlimit="10" points="330.9,454.7 359.6,479 380.9,460 
	339.6,449 "/>
</svg>
