<?xml version="1.0" encoding="utf-8"?>
<!-- Generator: Adobe Illustrator 19.2.1, SVG Export Plug-In . SVG Version: 6.00 Build 0)  -->
<svg version="1.0" xmlns="http://www.w3.org/2000/svg" xmlns:xlink="http://www.w3.org/1999/xlink" x="0px" y="0px" width="288px"
	 height="288px" viewBox="0 0 288 288" enable-background="new 0 0 288 288" xml:space="preserve">
<g id="Layer_2">
	<path fill="#27AAE1" d="M132.5,63.8c0,0-21.9,17.3-7.6,39.2c0,0-13.8-5.5-9-22.3S132.5,63.8,132.5,63.8z"/>
	<path fill="#27AAE1" d="M116.9,105.5c0,0-12.2,55.4-10.4,66.2l4.3,13.1l-4.3,0.2l-7.2-17.4l-1.3-0.9l14.7-63.5L116.9,105.5z"/>
	<path fill="#27AAE1" d="M39.8,206.8c0.2-1.3,11.5-16.5,11.5-16.5l80,2.3l2.4,9.3c0,0-80.1-9.2-80.3-8.2c-0.2,1.1-2.9,13.1-2.9,13.1
		H39.8z"/>
	<path fill="#27AAE1" d="M168.4,197.6c0,0-14.1,1.2-14.5,3.1c-0.4,1.9,0.8,5.7,1.3,5.8c0.4,0.2,5.6,2.2,5.6,2.2s-6.6,5.6-6.2,6
		c0.4,0.3,5.6,11.8,16.7,11.2c11.1-0.6,19.7-2.2,19.7-2.2l0.9-4c0,0-2.1-4.4-2.3-4.6s-5-4.7-5-4.7l8.9-3.5c0,0,4.5-5.1,4-5.1
		c-0.5-0.1-10.2-4.3-10.2-4.3l1.2-1.4l-4.6-1.3c0,0-3.1-5-3.3-4.6s-16.6,2-16.6,2L168.4,197.6z"/>
	<ellipse fill="#27AAE1" cx="117.8" cy="222.6" rx="24.3" ry="2.3"/>
</g>
<g id="Layer_1">
	
		<ellipse transform="matrix(0.2097 -0.9778 0.9778 0.2097 20.4456 192.1602)" fill="none" stroke="#000000" stroke-width="2" stroke-miterlimit="10" cx="129.1" cy="83.4" rx="20" ry="13.4"/>
	<path fill="none" stroke="#000000" stroke-width="2" stroke-miterlimit="10" d="M143.9,69.2c0,0-9.8,0.5-19.7-5.7"/>
	<path fill="none" stroke="#000000" stroke-width="2" stroke-miterlimit="10" d="M145.2,73c0,0-17.6,1.5-23.1-7.8"/>
	<path fill="none" stroke="#000000" stroke-width="2" stroke-miterlimit="10" d="M145.2,77c0,0-19.2,1.8-25.2-9.5"/>
	<polyline fill="none" stroke="#000000" stroke-width="2" stroke-miterlimit="10" points="122.1,101.8 120.5,105.5 127.3,108 
		129.1,102.9 	"/>
	<path fill="none" stroke="#000000" stroke-width="2" stroke-miterlimit="10" d="M131.8,150.7c-1.4,13.9-2.7,26.2-2.7,26.2
		s-17.4,0.3-31-10.2l14.7-63.5c0,0,16.3,4.3,23,9c0,0-1.2,11.6-2.6,25.1"/>
	<path fill="none" stroke="#000000" stroke-width="2" stroke-miterlimit="10" d="M122.1,118.5c0,0,13,31.9,34.5,37.6l-1.9,4.9
		c0,0-31-6.2-37-29.8"/>
	<path fill="none" stroke="#000000" stroke-width="2" stroke-miterlimit="10" d="M156.6,156.1c0.8-0.4,5.3-1.8,5.3-1.8l8.7,6.6
		l-4.3,6.4l-12.3-5.7"/>
	<path fill="none" stroke="#000000" stroke-width="2" stroke-miterlimit="10" d="M163,155.2c-0.1-0.1,4.1-10.2,4.1-10.2l9.3,8.5
		l-7.5,7.3"/>
	<polyline fill="none" stroke="#000000" stroke-width="2" stroke-miterlimit="10" points="158,164 150.7,171.6 163,176.9 
		164.4,166.5 	"/>
	<polyline fill="none" stroke="#000000" stroke-width="2" stroke-miterlimit="10" points="127.2,176.9 133.7,201.9 53.2,192.4 
		53.2,187 114.4,184.8 	"/>
	<line fill="none" stroke="#000000" stroke-width="2" stroke-miterlimit="10" x1="99.2" y1="167.4" x2="106.5" y2="185"/>
	<polyline fill="none" stroke="#000000" stroke-width="2" stroke-miterlimit="10" points="54.6,186.5 53.7,185.6 48.1,184.9 
		33.6,204.4 51.1,204.4 53.6,193.1 	"/>
	<polygon fill="none" stroke="#000000" stroke-width="2" stroke-miterlimit="10" points="242.1,64.5 235.8,146.6 242.1,146.6 
		253.8,64.5 	"/>
	<polygon fill="none" stroke="#000000" stroke-width="2" stroke-miterlimit="10" points="244.8,146.6 187.3,145 188.3,158.8 
		244.8,156 	"/>
	<polyline fill="none" stroke="#000000" stroke-width="2" stroke-miterlimit="10" points="193.8,158.5 197.8,206.8 201.6,206.8 
		201.6,158.8 	"/>
	<polyline fill="none" stroke="#000000" stroke-width="2" stroke-miterlimit="10" points="242.1,156.1 242.1,206 235.8,206 
		233.3,156.6 	"/>
	<line fill="none" stroke="#000000" stroke-width="2" stroke-miterlimit="10" x1="201.6" y1="178.8" x2="234.4" y2="178.8"/>
	<line fill="none" stroke="#000000" stroke-width="2" stroke-miterlimit="10" x1="201.6" y1="184.8" x2="234.7" y2="183.7"/>
	
		<ellipse transform="matrix(0.9778 -0.2097 0.2097 0.9778 -8.8746 45.7099)" fill="none" stroke="#000000" stroke-width="2" stroke-miterlimit="10" cx="211.1" cy="64.7" rx="13.4" ry="20"/>
	<line fill="none" stroke="#000000" stroke-width="2" stroke-miterlimit="10" x1="215.3" y1="84.2" x2="216.1" y2="86.9"/>
	<line fill="none" stroke="#000000" stroke-width="2" stroke-miterlimit="10" x1="220.6" y1="81" x2="222" y2="84.2"/>
	<path fill="none" stroke="#000000" stroke-width="2" stroke-miterlimit="10" d="M217,135.4c-2.9,0.3-4.9,0.6-4.9,0.6
		s9.6-14.7-0.9-44.9c0,0,15.9-10.2,16.7-10s12.1,19.1,9,52c0,0-6.8,0.8-13.3,1.5"/>
	<line fill="none" stroke="#000000" stroke-width="2" stroke-miterlimit="10" x1="220.3" y1="146.6" x2="230.6" y2="103.2"/>
	<path fill="none" stroke="#000000" stroke-width="2" stroke-miterlimit="10" d="M224.2,92l-8.2,49.2l-12.8,1.3c0,0-0.3,1.2-0.7,2.6
		"/>
	<polyline fill="none" stroke="#000000" stroke-width="2" stroke-miterlimit="10" points="212.1,135.9 179.2,136.6 186.1,193.7 
		190.6,193.7 191.6,158.8 	"/>
	<path fill="none" stroke="#000000" stroke-width="2" stroke-miterlimit="10" d="M186.1,193.7c-2,0.3-19.8,7.8-19.8,7.8l13,5.2
		l11.3-13.1"/>
	<polyline fill="none" stroke="#000000" stroke-width="2" stroke-miterlimit="10" points="185.7,190.3 163.5,191.8 171,199.5 	"/>
	<path fill="none" stroke="#000000" stroke-width="2" stroke-miterlimit="10" d="M167.8,196.2c0,0-13.6,1.6-15.1,2s-2.5,5.8-1.8,6.4
		c0.7,0.7,10.5,4.3,10.5,4.3s-8.8,6.2-8.8,7.3c0,1.2,7.8,13.7,19.7,13.2c11.8-0.5,17.2-2.2,18.3-3.3s2.3-6.7,0-9.7s-6.5-6.3-6.5-6.3
		s8-2,9.7-3.3c1.8-1.3,3.8-3,3.7-3.8s-10.2-5.5-10.2-5.5"/>
	<ellipse fill="none" stroke="#000000" stroke-width="2" stroke-miterlimit="10" cx="117.7" cy="221.6" rx="26.5" ry="3.3"/>
	<path fill="none" stroke="#000000" stroke-width="2" stroke-miterlimit="10" d="M91.2,221.6c0,0,5.2,15.7,10.8,18.3
		c5.7,2.7,11.7,2.8,11.7,2.8s7.7-0.5,8.2,0s13.3-3.3,13.3-3.3s7.7-5.8,9-17.8"/>
</g>
<g id="Layer_3">
	<path opacity="0" fill="none" stroke="#27AAE1" stroke-width="25" stroke-miterlimit="10" d="M116.5,65.2c8.4-1.1,17-0.9,25.4,0.5
		c-11.2,4.9-22.7,9-34.4,12.4c9.8,1.5,19.6,3,29.4,4.5c-11.5,3.6-23.1,7.3-34.6,10.9c11.1,1.4,22.2,2.8,33.3,4.2
		c-13.1,7.3-27.1,12.8-41.7,16.4c13.3-0.3,26.7,0.9,39.8,3.5c-13.5,3.2-26.9,7.1-40,11.8c10.8-0.8,21.7-0.5,32.4,1
		c-9,1.3-17.9,2.6-26.8,4.1c-7.4,1.2-15.1,2.7-20.7,7.7c11.9,1.4,23.9,2.9,35.8,4.3c-14.9,8.5-34.7,5.5-48.8,15.2
		c13.4,1.3,26.8,2.7,40.2,4c-11.9,3.3-23.7,6.6-35.6,9.8c9.7,0.2,19.4,0.3,29.1,0.5c4.4,0.1,9,0.2,12.7,2.5
		c-26.2-1.3-52.5-0.2-78.4,3.2c-0.9,1.3,1.2,2.5,2.8,2.6c31.3,2.4,62.7,4.9,94.2,4.8c-31.8,0.7-63.6,3.3-95.1,7.9
		c10.6,3.6,22.1,3.8,33.4,3c14.9-1.1,29.6-4,44.4-6c24.6-3.3,49.5-4,74.3-2.2c-28.1,6.4-57.1,9.1-85.9,8.2c28,0.8,56.1,1.6,84.1,2.4
		c5.7,0.2,11.7,0.4,16.6,3.2c-20.3,0.4-40.7,0.9-61,1.3c16.8,2.1,33.4,5.8,49.6,10.9c-16.5-0.6-33-0.2-49.5,1.3
		c-2.8,0.3-5.6,0.6-8.4,0.4c-3.4-0.2-6.7-1-10-1.8c-10-2.3-21.9-3.6-29.3,3.5c16.6,0.7,33.2,1.3,49.8,2c-21-0.2-42-0.4-63.1-0.5
		c40.6,1.2,81.4,2.3,121.8-1.3"/>
</g>
</svg>
