<?xml version="1.0" encoding="utf-8"?>
<!-- Generator: Adobe Illustrator 19.2.1, SVG Export Plug-In . SVG Version: 6.00 Build 0)  -->
<svg version="1.0" xmlns="http://www.w3.org/2000/svg" xmlns:xlink="http://www.w3.org/1999/xlink" x="0px" y="0px" width="288px"
	 height="288px" viewBox="0 0 288 288" enable-background="new 0 0 288 288" xml:space="preserve">
<g id="Layer_2">
	<path fill="#27AAE1" d="M124.2,50.6c0,0-21.1,10.8-11.4,39.2c0,0-11.4-10.4-4.5-26.4C115.2,47.5,124.2,50.6,124.2,50.6z"/>
	<path fill="#27AAE1" d="M103.8,89.8l-14.3,51c0,0,12.3,8.9,23.3,10.3c0,0-11.5,0.5-18.1-2.3c0,0,11.1,41.7-8.9,66.7
		c0,0,22.8,8.9,22.7,9.4s-8.8,9.2-9.2,8.5s-23.2-10.8-23.2-10.8s10.3-13.2,11.5-15.5c1.2-2.3,8.9-23.9,3.5-36.7L88,157.4L82.4,142
		l17.7-53.4L103.8,89.8z"/>
	<path fill="#27AAE1" d="M108.5,151.2c0,0,25.5,51.5,26.8,67.6c0,0,22.6,4,22.5,4.8c-0.2,0.7-5,8.2-5,8.2l-23.8-5l1.9-10l-12.6-30
		l-9.8-20.5l-1.5-1.6l-1.6-12.8L108.5,151.2z"/>
</g>
<g id="Layer_1">
	
		<ellipse transform="matrix(0.2074 -0.9783 0.9783 0.2074 25.8126 173.4348)" fill="none" stroke="#000000" stroke-width="2" stroke-miterlimit="10" cx="119.9" cy="70.8" rx="20.6" ry="13.3"/>
	<path fill="none" stroke="#000000" stroke-width="2" stroke-miterlimit="10" d="M112.4,51.2c0,0,11.2,6.2,20.2,4.5"/>
	<path fill="none" stroke="#000000" stroke-width="2" stroke-miterlimit="10" d="M110.7,53.6c0,0,9.2,8.1,23.2,5.3"/>
	<path fill="none" stroke="#000000" stroke-width="2" stroke-miterlimit="10" d="M108.4,56.5c0,0,12,10.1,24.2,5.9"/>
	<polyline fill="none" stroke="#000000" stroke-width="2" stroke-miterlimit="10" points="109.8,86.9 107.5,91.3 117,95.2 
		118.1,91.1 	"/>
	<path fill="none" stroke="#000000" stroke-width="2" stroke-miterlimit="10" d="M120.4,125.8c2-13.6,4.1-27.6,4.1-27.6l-23.5-9.5
		l-18.8,54.1c0,0,15,10.9,34.5,8c0,0,0.9-5.8,2-13.6"/>
	<path fill="none" stroke="#000000" stroke-width="2" stroke-miterlimit="10" d="M105.4,101.2c0.5,1,11,33.2,35.8,35.5v6.1
		c0,0-26.8,2.4-43.5-26.3"/>
	<path fill="none" stroke="#000000" stroke-width="2" stroke-miterlimit="10" d="M141.2,136.7c1.1-0.5,6.5-2,6.5-2h10.5l2.6,7.9
		l-13.9,2.6l-5.6-2.5"/>
	<path fill="none" stroke="#000000" stroke-width="2" stroke-miterlimit="10" d="M123.7,103.2c0,0,3,28.9,19,30"/>
	<path fill="none" stroke="#000000" stroke-width="2" stroke-miterlimit="10" d="M82.2,142.7c0,0,23,44.1,0,72.8h5.1
		c0,0,27.1-13.7,18.1-63.7"/>
	<path fill="none" stroke="#000000" stroke-width="2" stroke-miterlimit="10" d="M116.7,150.7c0,0,19.1,37.5,21.1,66.1l-6.8,0.1
		c0,0-14.1-35.8-24.1-53.5"/>
	<polyline fill="none" stroke="#000000" stroke-width="2" stroke-miterlimit="10" points="82.2,215.6 77.5,221.4 100,229.7 
		108.5,222.6 87.3,215.6 	"/>
	<polyline fill="none" stroke="#000000" stroke-width="2" stroke-miterlimit="10" points="130.8,217.3 129.1,225.5 152.9,228.6 
		157.8,220.8 137.8,216.8 	"/>
	
		<ellipse transform="matrix(0.2981 -0.9545 0.9545 0.2981 -9.742632e-03 279.2219)" fill="none" stroke="#000000" stroke-width="2" stroke-miterlimit="10" cx="189.9" cy="139.6" rx="15" ry="10.6"/>
	<path fill="none" stroke="#000000" stroke-width="2" stroke-miterlimit="10" d="M197.3,148.2c0,0,12.8,18.6,12.8,54.3
		c0,0-18.8,7.8-35,0c0,0,7.1-11.8,8.6-30.1"/>
	<path fill="none" stroke="#000000" stroke-width="2" stroke-miterlimit="10" d="M197.8,157.5c0,0-24.3,11.3-41.5-14"/>
	<path fill="none" stroke="#000000" stroke-width="2" stroke-miterlimit="10" d="M150.6,145.3c4.3,8.7,19.2,33.9,43.2,25.2"/>
	<path fill="none" stroke="#000000" stroke-width="2" stroke-miterlimit="10" d="M157.7,142.9c0,0,14.1,15.2,25.4,11.2"/>
	<path fill="none" stroke="#000000" stroke-width="2" stroke-miterlimit="10" d="M156.8,134.5l-4.5-6l-9.7,2.5c0,0,0.3,2.8,0.5,5.3"
		/>
	<path fill="none" stroke="#000000" stroke-width="2" stroke-miterlimit="10" d="M183.8,160.4c-0.2-2.5-0.4-5.1-0.9-7.8"/>
	<path fill="none" stroke="#000000" stroke-width="2" stroke-miterlimit="10" d="M176.5,204L163,219.4c0,0,5.2,5,15,4.1"/>
	<path fill="none" stroke="#000000" stroke-width="2" stroke-miterlimit="10" d="M188.1,206l-13,22.6c0,0,33.5,1.5,54.5-15.5v-3.8
		l-29,4l9.5-10.8"/>
	<path fill="none" stroke="#000000" stroke-width="2" stroke-miterlimit="10" d="M227.2,209.6c-0.1-1.1,1.4-5.6,1.4-5.6l18.8,9.8
		l-14,3.1l-4.9-3.1"/>
</g>
<g id="Layer_3">
	<path opacity="0" fill="none" stroke="#27AAE1" stroke-width="25" stroke-miterlimit="10" d="M110.5,51.8c4.1-0.7,8.2-0.9,12.4-0.7
		c-6.5,3.1-13.3,5.7-20.3,7.8c7.5,0.2,15.1,1,22.4,2.4c-7.7,1.7-15.2,4.1-22.4,7.1c3.9,1.3,7.9,2.7,11.8,4c-6.2,1.5-12.2,3.7-18,6.4
		c5.6,1.4,11.2,2.8,16.8,4.2c-3.5,0.8-7,1.7-10.6,2.5c3.2,1.1,6.5,2,9.8,2.6c-7.5,0.5-14.8,2-21.9,4.4c5.3,2.1,10.7,3.8,16.3,4.9
		c-9.7,3.4-19.4,7.2-28.9,11.2c7.7,1,15.3,2,23,3c-10,2.6-19.6,6.5-28.5,11.6c11.6,0.2,23.3,0.3,34.9,0.5
		c-7.4,2.3-14.8,4.6-22.2,6.9c-3.5,1.1-7.4,2.5-8.8,5.9c10.5,1,21,1.4,31.6,1.3c-10.4,1.7-20.5,5.6-29.4,11.3
		c10.5,0.5,20.9,1,31.4,1.5c-9,0.5-17.9,2.8-26,6.7c10.1,0.3,20.1,1.1,30.1,2.6c-12.6,3.2-24.9,7-37.1,11.6
		c17.6,0.5,35.2,0.4,52.8,0.2c-18.4,5.6-37.4,9-56.3,12.4c23.5-0.7,47-0.8,70.5-0.2c-18.3,7.1-39.4,3.3-57.8,10.1c15,1,30,2,45,3
		c-13.7,1.9-27.3,4.2-40.9,6.9c-1.7,0.3-3.6,0.9-4.3,2.4c16.9-1.4,33.9-1.5,50.8-0.3c-19.2,5.5-40.7,3.4-58,13.4
		c21,1,42.1,0.7,63.1-0.8c-18.7,2.3-37.4,4.6-56.1,6.9c-1.6,0.2-3.5,0.6-4,2.2c27.4,1.5,54.8,0.7,82.1-2.2"/>
</g>
</svg>
