<?xml version="1.0" encoding="utf-8"?>
<!-- Generator: Adobe Illustrator 19.2.1, SVG Export Plug-In . SVG Version: 6.00 Build 0)  -->
<svg version="1.0" xmlns="http://www.w3.org/2000/svg" xmlns:xlink="http://www.w3.org/1999/xlink" x="0px" y="0px" width="288px"
	 height="288px" viewBox="0 0 288 288" enable-background="new 0 0 288 288" xml:space="preserve">
<g id="Layer_2">
	<path fill="#27AAE1" d="M134.8,8.8c0,0-28.2,22.3-12.3,53c0,0-17.3-11-10.1-31.4S131.8,8.3,134.8,8.8z"/>
	<polygon fill="#27AAE1" points="110.7,66.6 91.4,144 80.4,256 86.8,283.2 64.8,283.2 76.5,256 84.7,140.6 97.6,88.6 80.2,94.3 
		73.1,130.3 69,131.1 76.5,86.8 100,76.5 102.5,66.6 	"/>
	<polygon fill="#27AAE1" points="108.4,148.1 122.4,250.6 126.2,250.6 119.3,148.7 	"/>
</g>
<g id="Layer_1">
	
		<ellipse transform="matrix(0.2788 -0.9603 0.9603 0.2788 59.7667 150.6348)" fill="none" stroke="#000000" stroke-width="2" stroke-miterlimit="10" cx="130.2" cy="35.5" rx="27.4" ry="18.4"/>
	<path fill="none" stroke="#000000" stroke-width="2" stroke-miterlimit="10" d="M121.5,8.8c0,0,11.4,6.9,27.6,5.9"/>
	<path fill="none" stroke="#000000" stroke-width="2" stroke-miterlimit="10" d="M117.6,12.5c0,0,20.3,13.3,32.9,5.6"/>
	<path fill="none" stroke="#000000" stroke-width="2" stroke-miterlimit="10" d="M115,17.3c0,0,22.1,14.6,36.6,4.9"/>
	<polyline fill="none" stroke="#000000" stroke-width="2" stroke-miterlimit="10" points="119.3,60.3 117.5,67.5 127.7,69.8 
		130.2,61.7 	"/>
	<path fill="none" stroke="#000000" stroke-width="2" stroke-miterlimit="10" d="M103.2,66.2c0,0,18.2-0.3,36,7.9l-12.7,74
		c0,0-26,3.8-41.8-7.5L103.2,66.2z"/>
	<polyline fill="none" stroke="#000000" stroke-width="2" stroke-miterlimit="10" points="103.2,66.2 69.3,84.7 64.8,130.3 
		73.1,130.3 80.2,94.3 	"/>
	<line fill="none" stroke="#000000" stroke-width="2" stroke-miterlimit="10" x1="97.6" y1="88.6" x2="68" y2="98.2"/>
	<path fill="none" stroke="#000000" stroke-width="2" stroke-miterlimit="10" d="M64.8,130.3l-5.1,12c0,0,8.8,19.5,9.1,18.8
		c0.3-0.7,5.8-5.5,5.8-5.5l-2.4-14.8l4.7,2.8l3.5-4.6l-7.4-8.9"/>
	<path fill="none" stroke="#000000" stroke-width="2" stroke-miterlimit="10" d="M139.2,75.3c0,0,2.2,35.8,37.4,48.1l-2.9,6.9
		c0,0-30.6,1.3-38.8-30.6"/>
	<path fill="none" stroke="#000000" stroke-width="2" stroke-miterlimit="10" d="M180.7,132.2c-4.3-1.2-7.5-2.1-7.5-2.1"/>
	<polyline fill="none" stroke="#000000" stroke-width="2" stroke-miterlimit="10" points="177.1,123.8 187.6,121.4 188.9,126 
		181.3,127.4 	"/>
	<path fill="none" stroke="#000000" stroke-width="2" stroke-miterlimit="10" d="M183,122.4c0.2-0.9,5.9-14.4,5.9-14.4l13,5.7
		L188,146.7l-12.3-4.6l6.6-15.5"/>
	<polyline fill="none" stroke="#000000" stroke-width="2" stroke-miterlimit="10" points="200.7,116.5 203.8,118.3 190.9,151.9 
		177.1,146.7 178.8,143.2 	"/>
	<path fill="none" stroke="#000000" stroke-width="2" stroke-miterlimit="10" d="M200.7,126.4h5.7l-4.5,11.6c0,0-1.8-0.5-4.6-1.3"/>
	<polyline fill="none" stroke="#000000" stroke-width="2" stroke-miterlimit="10" points="84.7,140.6 76.5,256 84,256 106.3,148.7 	
		"/>
	<polyline fill="none" stroke="#000000" stroke-width="2" stroke-miterlimit="10" points="126.5,148.1 130.2,250.6 122.4,250.6 
		108.4,148.1 	"/>
	<polyline fill="none" stroke="#000000" stroke-width="2" stroke-miterlimit="10" points="76.5,256 63.8,280.1 89.2,281.1 84,256 	
		"/>
	<polyline fill="none" stroke="#000000" stroke-width="2" stroke-miterlimit="10" points="122.4,250.6 135.4,264.8 150.7,256.9 
		130.2,250.6 	"/>
	
		<ellipse transform="matrix(0.1456 -0.9893 0.9893 0.1456 40.8051 379.856)" fill="none" stroke="#000000" stroke-width="2" stroke-miterlimit="10" cx="240.3" cy="166.3" rx="22" ry="16.1"/>
	<path fill="none" stroke="#000000" stroke-width="2" stroke-miterlimit="10" d="M209,182.8c0.7-1.4,5-9.9,14.9-14.1"/>
	<path fill="none" stroke="#000000" stroke-width="2" stroke-miterlimit="10" d="M255.7,172.4c7.3,5,11.4,11.6,12.4,13.4"/>
	<path fill="none" stroke="#000000" stroke-width="2" stroke-miterlimit="10" d="M209.8,181.3c0,0-18.2,37.8,23.6,38.9V213
		c0,0-19-2.6-20.7-18"/>
	<path fill="none" stroke="#000000" stroke-width="2" stroke-miterlimit="10" d="M268,185.8c0,0,16.4,39.1-23.5,34.5l-1.8-8.2
		c0,0,15.1-0.5,23.3-12.7"/>
	<path fill="none" stroke="#000000" stroke-width="2" stroke-miterlimit="10" d="M233.3,213c0,0,3.1-2.5,9.4-0.9"/>
	<path fill="none" stroke="#000000" stroke-width="2" stroke-miterlimit="10" d="M233.3,220.3c0,0,3.5,3.7,10.6,0"/>
	<path fill="none" stroke="#000000" stroke-width="2" stroke-miterlimit="10" d="M260.2,219.1c-3.5,14.6-6.7,28.4-6.7,28.4H229
		c0,0-4.5-14.5-9.3-29.7"/>
	<path fill="none" stroke="#000000" stroke-width="2" stroke-miterlimit="10" d="M212.8,214.4c0,0,0.5,30.7,14.9,31.9"/>
	<path fill="none" stroke="#000000" stroke-width="2" stroke-miterlimit="10" d="M229.8,247.5l-19,12c0,0,22.4,3.2,22.5,3s7-15,7-15
		l-1.2-25"/>
	<path fill="none" stroke="#000000" stroke-width="2" stroke-miterlimit="10" d="M264.4,217.9c0,0-1,24.6-10.8,28.9"/>
	<polyline fill="none" stroke="#000000" stroke-width="2" stroke-miterlimit="10" points="240.3,248.3 250.2,264.1 268,255.6 
		253.4,247.5 	"/>
</g>
<g id="Layer_3">
	<path opacity="0" fill="none" stroke="#000000" stroke-width="25" stroke-miterlimit="10" d="M116,9.7c9-0.8,18.1-1,27.1-0.5
		c-13.4,9-31.9,6.2-46.3,13.7c19.9,1.1,39.7,3.2,59.4,6.3c-19.6,4.3-39.1,9-58.6,14c17.3-0.7,34.7,0.4,51.8,3.2
		c-23.4,5.3-49.2,2.7-70.1,14.5c23.9,0.4,47.8,0.9,71.7,1.6c-20.2,7.5-41.3,12.4-62.7,14.7c-9.4,1-19.7,1.8-26.7,8.2
		c24.9,0.3,49.8,0.7,74.8,1c-26,7.1-52,14.2-77.3,23.5c21.6-0.3,43.2,0.6,64.7,2.7c-21.7,5.3-43.2,11.3-64.4,18
		c26.3,0.5,52.6,0.9,78.9,1.4c-24.3,4.2-49,8.5-71.1,19.2c23.8,0.6,47.7,1.1,71.5,1.7c-24.8,1.3-49.5,5.5-73.3,12.6
		c19.2,2,38.3,4.1,57.5,6.1c-22.2,0.8-44.4,4.4-65.8,10.6c-4.3,1.3-8.9,2.8-11.7,6.4c32.6-1.2,65.2-2.5,97.8-3.7
		c-19.7,4.7-39.3,9.4-59,14c22.8,0,45.6-0.1,68.5-0.1c-31.5,8.9-64.7,8.9-96.8,15c-3.2,0.6-6.8,1.5-8.6,4.2
		c31.3-3.7,63-4.9,94.5-3.5c-29.2,6-57.8,15.3-85,27.6c32.3-3.1,64.7-6.2,97-4.9c-28.2,8.8-57.7,12.9-87,16.8
		c14.3,1.5,28.7,3,43,4.5c-21,1.2-42.1,2.4-63.1,3.6c18.8,0.3,37.8,0.6,56,5.4c-17.3,2.5-34.7,4.9-52,7.4
		c20.6,3.9,41.7,4.6,62.5,2.2"/>
</g>
</svg>
