<?xml version="1.0" encoding="utf-8"?>
<!-- Generator: Adobe Illustrator 19.2.1, SVG Export Plug-In . SVG Version: 6.00 Build 0)  -->
<svg version="1.0" xmlns="http://www.w3.org/2000/svg" xmlns:xlink="http://www.w3.org/1999/xlink" x="0px" y="0px" width="288px"
	 height="288px" viewBox="0 0 288 288" enable-background="new 0 0 288 288" xml:space="preserve">
<g id="Layer_2">
	<path fill="#27AAE1" d="M168.8,93.2l-49,54.9l-1,20.2l32.4-34.9c-0.1-1,0.1-2,0.6-2.9c0.7-1.2,1.9-2,3.1-2.7
		c0.6-0.4,1.3-0.5,1.9-0.5l2.9-3.2c-0.3-0.2-0.5-0.5-0.7-0.9c-1.1-2.3-2-4.8-2.6-7.2c-0.4-1.6-0.8-3.4-0.7-5
		c-0.5-1.7,0.2-3.7,2.5-4.3c0.3-0.1,0.5-0.1,0.8-0.2c3.4-1.5,8.3-0.2,11.3,2.2L168.8,93.2z"/>
</g>
<g id="Layer_1">
	<path fill="none" stroke="#000000" stroke-width="2" stroke-miterlimit="10" d="M152.9,79.8h-13.3c-6.6,0-12-5.4-12-12V37.3
		c0-6.6,5.4-12,12-12h13.3c6.6,0,12,5.4,12,12v30.4C164.9,74.4,159.5,79.8,152.9,79.8z"/>
	<path fill="none" stroke="#000000" stroke-width="2" stroke-miterlimit="10" d="M127.6,56.2c0,0,10.2,0.8,14.8-0.7s5-0.8,9.7,0.7
		c4.7,1.6,12.8,0.2,12.8,0.2"/>
	<path fill="none" stroke="#000000" stroke-width="2" stroke-miterlimit="10" d="M127.6,48.2c0,0-9,4.7,0,11"/>
	<path fill="none" stroke="#000000" stroke-width="2" stroke-miterlimit="10" d="M164.9,48.2c0,0,8.7,7.2,0,11"/>
	<path fill="none" stroke="#000000" stroke-width="2" stroke-miterlimit="10" d="M130.1,90.2c-11.4-0.7-25.2-7.3-25.2-7.3
		c3.5-7.8,6.7-33.3,6.7-33.3c1.7-44.5,34.1-35,34.1-35s32.4-9.7,27.9,33.6c0,0,3.5,30.1,12.8,35.6c0,0-18.8,7.4-26.5,5.7"/>
	<polyline fill="none" stroke="#000000" stroke-width="2" stroke-miterlimit="10" points="141.7,79.8 140.9,87.9 152.2,87.9 
		151.1,79.8 	"/>
	<path fill="none" stroke="#000000" stroke-width="2" stroke-miterlimit="10" d="M170.3,108.7c-0.9-10.3-1.5-16.8-1.5-16.8
		c-19.1-7.5-46.9,0-46.9,0s-2.3,117.5-11.3,143.1c0,0,36.7,25.3,71.3,0c0,0-3.6-39.1-7-76.4"/>
	<path fill="none" stroke="#000000" stroke-width="2" stroke-miterlimit="10" d="M121.9,91.9c0,0-32.6,12.8-48.3,11.4l6.7,44.7
		l41-35.6"/>
	<polyline fill="none" stroke="#000000" stroke-width="2" stroke-miterlimit="10" points="73.7,104.9 65.2,103.4 61.7,112.4 
		65.2,113.9 70.2,108.6 	"/>
	<path fill="none" stroke="#000000" stroke-width="2" stroke-miterlimit="10" d="M58.7,119.7c1.1,2.8,1.6,5.8,3.6,8.9l-5.8,9
		l19.6-1.9l-8.3-8.9c0,0,2.6-9.9,1.5-16.8"/>
	<path fill="none" stroke="#000000" stroke-width="2" stroke-miterlimit="10" d="M69.7,103.9c0.5-2.1,3-15.3-9.6-24.1
		c0,0-9.7,8.2-6.4,25.8"/>
	<path fill="none" stroke="#000000" stroke-width="2" stroke-miterlimit="10" d="M64.5,104.9c0,0-13.1-0.3-13.1,0
		c0,0.3,2.8,14.8,3.8,15c1,0.2,13.2-3,13.2-3l-0.9-5.8"/>
	<line fill="none" stroke="#000000" stroke-width="2" stroke-miterlimit="10" x1="68.5" y1="120" x2="76.1" y2="120"/>
	<line fill="none" stroke="#000000" stroke-width="2" stroke-miterlimit="10" x1="164.9" y1="90.7" x2="119.8" y2="145.1"/>
	<path fill="none" stroke="#000000" stroke-width="2" stroke-miterlimit="10" d="M151.5,133.1c-15,16.1-33.2,35.7-33.2,35.7"/>
	<path fill="none" stroke="#000000" stroke-width="2" stroke-miterlimit="10" d="M131.1,244.3c0.6,7.2,1.2,15,1.2,15h4.8
		c0,0,1.2-7.4,2.2-13.9"/>
	<path fill="none" stroke="#000000" stroke-width="2" stroke-miterlimit="10" d="M153.4,246.1c0.7,6.4,1.4,13.3,1.4,13.3h6
		c0,0,0.4-8,0.8-15"/>
	<polyline fill="none" stroke="#000000" stroke-width="2" stroke-miterlimit="10" points="132.3,259.3 108.8,271.6 132.3,274.8 
		137.1,259.3 	"/>
	<polyline fill="none" stroke="#000000" stroke-width="2" stroke-miterlimit="10" points="154.8,259.3 155.8,276.3 177.6,271.6 
		160.8,259.3 	"/>
	<path fill="none" stroke="#000000" stroke-width="2" stroke-miterlimit="10" d="M168.8,91.9c0,0,11.7,6.3,24.5,18.3"/>
	<path fill="none" stroke="#000000" stroke-width="2" stroke-miterlimit="10" d="M180.9,120.1c0.2,0,0.4,0,0.6-0.1
		c3-0.3,5.8-0.6,8.6-0.7"/>
	<path fill="none" stroke="#000000" stroke-width="2" stroke-miterlimit="10" d="M210.3,121.6c2.2,0.9,3.5,2.1,3.7,3.5
		c0.6,4.8-13.1,10.4-30.4,12.4s-31.9-0.2-32.5-5.1c-0.3-2.4,2.9-5,8.4-7.2"/>
	<path fill="none" stroke="#000000" stroke-width="2" stroke-miterlimit="10" d="M151,132.5c0,0,3.3,30.8,35.4,27.3
		c7.9-0.9,13.5-3.4,17.6-6.7"/>
	<path fill="none" stroke="#000000" stroke-width="2" stroke-miterlimit="10" d="M166,138.1c0,0-17-28.4-7.1-32.3
		c9.9-3.9,20.1,11.6,29,23.6"/>
	<path fill="none" stroke="#000000" stroke-width="2" stroke-miterlimit="10" d="M186.4,137.2c0,0,6.4-41.3,17.4-41.4
		s4.6,35.3,4.6,35.3"/>
	<path fill="none" stroke="#000000" stroke-width="2" stroke-miterlimit="10" d="M159.9,116.7c0.2-0.2,3.7-5.1,8.9-5.5"/>
	<path fill="none" stroke="#000000" stroke-width="2" stroke-miterlimit="10" d="M166.7,130.9c0,0,4.4-6,10.7-6.2"/>
	<path fill="none" stroke="#000000" stroke-width="2" stroke-miterlimit="10" d="M196.4,108.1c0,0,5.8-0.9,11.4,2.2"/>
	<path fill="none" stroke="#000000" stroke-width="2" stroke-miterlimit="10" d="M192.5,123.6c0,0,7.1-0.7,13.1,2.4"/>
	<path fill="none" stroke="#000000" stroke-width="2" stroke-miterlimit="10" d="M212,141.6c3.1-8.4,1.9-16.5,1.9-16.5"/>
	<polygon fill="none" stroke="#000000" stroke-width="2" stroke-miterlimit="10" points="213.7,141.7 201.5,139.1 199.3,150.7 
		209.1,156.7 	"/>
	<line fill="none" stroke="#000000" stroke-width="2" stroke-miterlimit="10" x1="201" y1="141.9" x2="207.9" y2="144.4"/>
	<line fill="none" stroke="#000000" stroke-width="2" stroke-miterlimit="10" x1="200.6" y1="146.8" x2="207" y2="149.4"/>
</g>
<g id="Layer_3">
	<path opacity="0" fill="none" stroke="#27AAE1" stroke-width="25" stroke-miterlimit="10" d="M118.7,91.9c25-0.4,50.1-0.8,75.1-1.2
		c-23.4,6.4-47,12.9-71.2,14.7c-11.6,0.9-23.4,0.7-34.8,3.1c31.5,3.3,63.3,1.3,94.7,5.5c-27.2,1.9-54.3,5.2-81.2,9.8
		c32.3-0.6,64.5-1.2,96.8-1.9c-20,2.3-40,4.6-59.9,6.9c-8.6,1-17.3,2-25.9,3.5c-4.1,0.7-8.3,1.6-11.7,3.9c25.1,1,50.1,3.7,75,6.4
		c-26.6,1.7-53.1,4.4-79.4,8.2c23,6.1,46.5,10.4,70.2,12.8c-12.7,0.3-25.3-1.7-37.9-1.9c-7.1-0.1-14.3,0.3-21.3,1.4"/>
</g>
</svg>
