<?xml version="1.0" encoding="utf-8"?>
<!-- Generator: Adobe Illustrator 19.2.1, SVG Export Plug-In . SVG Version: 6.00 Build 0)  -->
<svg version="1.0" xmlns="http://www.w3.org/2000/svg" xmlns:xlink="http://www.w3.org/1999/xlink" x="0px" y="0px" width="288px"
	 height="288px" viewBox="0 0 288 288" enable-background="new 0 0 288 288" xml:space="preserve">
<g id="Layer_2">
	<path fill="#27AAE1" d="M208.3,45.9c0,0,17.8,19.6,11.9,37.4c0,0,10.1-10.1,4.7-23.4C219.5,46.5,208.3,45.9,208.3,45.9z"/>
	<path fill="#27AAE1" d="M191.9,194.4l1-34.9h-3.4l-0.2-13.8l14.3,0.4c0.4-1,1.2-1.8,2.3-1.9c1.1-0.2,2.3-0.3,3.4-0.4
		c0.6-0.7,1.5-1.2,2.7-1.2c0.5,0,1.1,0,1.6,0c1.1-0.1,3.4-0.6,4.1-2.1c0,0-1.5,0-1.5,0l-30.7,3.7l1.9,50.3l-20.1,0.6l1.4,2.7
		l-12.6,3.2c0,0-0.2,3.9,0,3.9s8.7,4.2,8.7,4.2l-6.8,9.9c0,0,3.4,11.7,13.5,11.1c10.1-0.6,17.2-2.6,17.2-2.6s4.6-4.6,4.6-5.2
		c0-0.6-1.2-4.8-2.7-6.3s-4.2-4.8-4.2-4.8l8.8-3.7l3.7-3.8l-10.2-5.5L191.9,194.4z"/>
	<path fill="#27AAE1" d="M237.1,103.9c-4.6-15.7-8-22.2-8-22.2l-3.2,1.6l0.5,0.9c0,0,9.7,28.1,4.4,54.5l-6.7,0.8
		c-0.4,1.8-1,3.5-1.8,5.1c-0.4,0.8-0.8,1.4-1.3,2l16.2,0.4C237.1,147,241.7,119.6,237.1,103.9z"/>
	<ellipse fill="#27AAE1" cx="119.1" cy="223" rx="24.9" ry="1.9"/>
	<path fill="#27AAE1" d="M112.7,147c-0.2-0.2-0.3-0.4-0.4-0.7c-4,3.8-8.6,7.4-13.7,10.5l0.1,12.8c0,0,9-4.3,18.8-14.2
		C115.1,153.4,114.5,149.3,112.7,147z"/>
	<path fill="#27AAE1" d="M134.6,114.4c0,0-2.9,7.2-9,16.2c0.9,0.4,1.7,1.2,2.3,2.5c1,2,1.5,3.2,3.2,4.6c2.3-4,4.4-8.5,6.1-13.3
		l0.8-3.5v-5.1L134.6,114.4z"/>
</g>
<g id="Layer_1">
	<path fill="none" stroke="#000000" stroke-width="2" stroke-miterlimit="10" d="M130.7,102.2l-3.9-1c-6.4-1.7-10.2-8.3-8.4-14.7
		l4.1-15.3c1.7-6.4,8.3-10.2,14.7-8.4l3.9,1c6.4,1.7,10.2,8.3,8.4,14.7l-4.1,15.3C143.7,100.1,137.1,103.9,130.7,102.2z"/>
	<path fill="none" stroke="#000000" stroke-width="2" stroke-miterlimit="10" d="M119.9,80.8c0,0,5.8,2.9,10,2.6
		c4.2-0.3,9.5,1.5,9.8,3.2c0.3,1.7,6.7,3.4,6.7,3.4"/>
	<path fill="none" stroke="#000000" stroke-width="2" stroke-miterlimit="10" d="M121.3,75.5c0,0-4.1-1.4-5.3,2.3
		c-1.2,3.7,2.2,6.4,2.2,6.4"/>
	<path fill="none" stroke="#000000" stroke-width="2" stroke-miterlimit="10" d="M129.2,110c6.2,1.1,14.6,0.7,21.2-0.9
		c0,0-1.9-13.2,1.9-24.9s5.8-26.2-9.5-29.6c0,0-22.5-10.8-36.1,20.7c0,0-8,17.9-9.5,18.8c0,0,5.8,4.7,14.7,9.1"/>
	<polyline fill="none" stroke="#000000" stroke-width="2" stroke-miterlimit="10" points="121.3,97.8 118.6,105.5 129.2,110 
		131.9,102.4 	"/>
	<path fill="none" stroke="#000000" stroke-width="2" stroke-miterlimit="10" d="M138,175.6c0,18.5,0,34,0,34H42.2l14.7-37.4
		l42.3,8.4c0,0-4.7-34,8-78.7c0,0,22.8,6,30.8,13.7c0,0,0,13.4,0,30.1"/>
	<path fill="none" stroke="#000000" stroke-width="2" stroke-miterlimit="10" d="M117.8,116.9c0,0,21.3,40.4,42.6,42.9l-7.6,26.8
		c0,0-46.8-26.8-44.1-59.1"/>
	<polyline fill="none" stroke="#000000" stroke-width="2" stroke-miterlimit="10" points="158.6,166.2 165.1,165.1 173.6,173.8 
		167.6,180.1 161.4,175.3 156.1,175.2 	"/>
	<path fill="none" stroke="#000000" stroke-width="2" stroke-miterlimit="10" d="M167.3,167.4c1.6-2.3,6.3-7.9,6.3-7.9l7,9.3
		l-8.1,3.8"/>
	<path fill="none" stroke="#000000" stroke-width="2" stroke-miterlimit="10" d="M161.4,175.3c-0.7,1-6.4,6.2-6.4,6.2l9.8,8.2
		l2.7-9.5"/>
	<path fill="none" stroke="#000000" stroke-width="2" stroke-miterlimit="10" d="M133.2,112.1c0,0-3.2,7-8.5,15.3"/>
	<path fill="none" stroke="#000000" stroke-width="2" stroke-miterlimit="10" d="M111.9,144.1c-4.1,4.2-8.6,7.7-13.3,9.7"/>
	<path fill="none" stroke="#000000" stroke-width="2" stroke-miterlimit="10" d="M138,121.8c0,0-2.1,6.9-6.9,15.7"/>
	<path fill="none" stroke="#000000" stroke-width="2" stroke-miterlimit="10" d="M118,155.7c-5.3,5.6-11.7,10.6-19.4,13.9"/>
	<path fill="none" stroke="#000000" stroke-width="2" stroke-miterlimit="10" d="M53.7,180.3c0,0-5.6-3.1-6.1-1.6
		s-15.5,23.5-15.5,23.5h13"/>
	<polygon fill="none" stroke="#000000" stroke-width="2" stroke-miterlimit="10" points="243.4,65.2 237.1,147.2 243.4,147.2 
		255.1,65.2 	"/>
	<polygon fill="none" stroke="#000000" stroke-width="2" stroke-miterlimit="10" points="246.1,147.2 188.6,145.7 189.6,159.4 
		246.1,156.7 	"/>
	<polyline fill="none" stroke="#000000" stroke-width="2" stroke-miterlimit="10" points="195.1,159.2 199.1,207.4 202.9,207.4 
		202.9,159.4 	"/>
	<polyline fill="none" stroke="#000000" stroke-width="2" stroke-miterlimit="10" points="243.4,156.8 243.4,206.7 237.1,206.7 
		234.7,157.2 	"/>
	<line fill="none" stroke="#000000" stroke-width="2" stroke-miterlimit="10" x1="202.9" y1="179.4" x2="235.8" y2="179.4"/>
	<line fill="none" stroke="#000000" stroke-width="2" stroke-miterlimit="10" x1="202.9" y1="185.4" x2="236" y2="184.4"/>
	
		<ellipse transform="matrix(0.9778 -0.2097 0.2097 0.9778 -8.9886 46.0046)" fill="none" stroke="#000000" stroke-width="2" stroke-miterlimit="10" cx="212.5" cy="65.4" rx="13.4" ry="20"/>
	<path fill="none" stroke="#000000" stroke-width="2" stroke-miterlimit="10" d="M197.6,51.2c0,0,9.8,0.5,19.8-5.8"/>
	<path fill="none" stroke="#000000" stroke-width="2" stroke-miterlimit="10" d="M196.4,54.9c0,0,17.6,1.5,23.1-7.8"/>
	<path fill="none" stroke="#000000" stroke-width="2" stroke-miterlimit="10" d="M196.4,58.9c0,0,19.2,1.8,25.2-9.5"/>
	<line fill="none" stroke="#000000" stroke-width="2" stroke-miterlimit="10" x1="216.6" y1="84.9" x2="217.4" y2="87.6"/>
	<line fill="none" stroke="#000000" stroke-width="2" stroke-miterlimit="10" x1="222" y1="81.7" x2="223.3" y2="84.9"/>
	<path fill="none" stroke="#000000" stroke-width="2" stroke-miterlimit="10" d="M218.3,136c-2.9,0.3-4.9,0.6-4.9,0.6
		s9.6-14.7-0.9-44.9c0,0,15.9-10.2,16.7-10c0.8,0.2,12.1,19.1,9,52c0,0-6.8,0.8-13.3,1.5"/>
	<path fill="none" stroke="#000000" stroke-width="2" stroke-miterlimit="10" d="M225.6,92.7l-8.2,49.2l-12.8,1.3
		c0,0-0.3,1.2-0.7,2.6"/>
	<line fill="none" stroke="#000000" stroke-width="2" stroke-miterlimit="10" x1="221.6" y1="147.2" x2="231.9" y2="103.9"/>
	<polyline fill="none" stroke="#000000" stroke-width="2" stroke-miterlimit="10" points="213.4,136.6 180.6,137.3 187.4,194.4 
		191.9,194.4 192.9,159.4 	"/>
	<path fill="none" stroke="#000000" stroke-width="2" stroke-miterlimit="10" d="M187.4,194.4c-2,0.3-19.8,7.8-19.8,7.8l13,5.2
		l11.3-13.1"/>
	<polyline fill="none" stroke="#000000" stroke-width="2" stroke-miterlimit="10" points="187,190.9 164.8,192.4 172.4,200.2 	"/>
	<path fill="none" stroke="#000000" stroke-width="2" stroke-miterlimit="10" d="M169.1,196.9c0,0-13.6,1.6-15.1,2
		c-1.5,0.4-2.5,5.8-1.8,6.4c0.7,0.7,10.5,4.3,10.5,4.3s-8.8,6.2-8.8,7.3s7.8,13.7,19.7,13.2c11.8-0.5,17.2-2.2,18.3-3.3
		c1.2-1.2,2.3-6.7,0-9.7s-6.5-6.3-6.5-6.3s8-2,9.7-3.3c1.8-1.3,3.8-3,3.7-3.8s-10.2-5.5-10.2-5.5"/>
	<ellipse fill="none" stroke="#000000" stroke-width="2" stroke-miterlimit="10" cx="119.1" cy="222.3" rx="26.5" ry="3.3"/>
	<path fill="none" stroke="#000000" stroke-width="2" stroke-miterlimit="10" d="M92.6,222.3c0,0,5.2,15.7,10.8,18.3
		c5.7,2.7,11.7,2.8,11.7,2.8s7.7-0.5,8.2,0s13.3-3.3,13.3-3.3s7.7-5.8,9-17.8"/>
</g>
<g id="Layer_3">
	<path opacity="0" fill="none" stroke="#27AAE1" stroke-width="25" stroke-miterlimit="10" d="M194.7,44.3
		c13.7,0.4,27.4,2.8,40.6,6.9c-18.2,6.6-37.6,9.3-56.8,12c21,2.2,42.1,4.3,63.1,6.5c-19.2,10-43.1,6.5-62.9,15.1
		c29.1,2.2,58.2,4.3,87.2,6.5c-39.1,4.5-78.3,9-117.4,13.6c25.4,3.6,50.7,7.6,76,11.5c8.1,1.3,16.2,2.5,23.8,5.5
		c-28.9,1.5-57.9,3.1-86.8,4.6c-2.2,0.1-5.1,0.8-5.3,3c24.3,2.9,48.5,6.7,72.5,11.4c-20.4,5-40.8,9.9-61.2,14.9
		c18.7,1,37.4,4,55.5,8.9c-19.5,3.9-39,7.8-58.4,11.7c-7.2,1.4-14.4,2.9-21.4,5.3c18.5,0.4,37,4.3,54.1,11.4
		c-18.6,0.9-37.2,3.6-55.3,8c-3.9,0.9-8,2.1-10.8,5c20,2.7,39.8,6.8,59.2,12.5c-6.9,3.7-15.2,3.2-23,2.7
		c-27.6-1.6-55.3-1.9-82.9-0.9c14.4-7.7,28.7-15.5,43.1-23.2c2.4-1.3,5-2.9,5.4-5.6c0.5-3.3-2.7-5.8-5.5-7.4
		c-14.3-8.4-30-14.1-46.3-17c12.9-2.7,25.9-5.3,38.8-8c-8.8,0.1-17.5-0.8-26.1-2.4c15.9-3.3,31.8-6.6,47.6-9.9
		c4.3-0.9,9.6-3.2,9.1-7.5c-13.7-1.5-27.4-3-41.1-4.5c10.7-2.6,21.2-6,31.4-10.1c1.9-0.8,4.2-2.9,2.8-4.5c-0.5-0.5-1.3-0.7-2-0.8
		c-6.4-1.1-12.9-1.7-19.3-1.8"/>
</g>
</svg>
