<?xml version="1.0" encoding="utf-8"?>
<!-- Generator: Adobe Illustrator 19.2.1, SVG Export Plug-In . SVG Version: 6.00 Build 0)  -->
<svg version="1.0" xmlns="http://www.w3.org/2000/svg" xmlns:xlink="http://www.w3.org/1999/xlink" x="0px" y="0px" width="288px"
	 height="288px" viewBox="0 0 288 288" enable-background="new 0 0 288 288" xml:space="preserve">
<g id="Layer_2">
	<path fill="#27AAE1" d="M82.1,134.2c-0.8-1-1.7-2-2.4-3.1c-1.2-1.8-1.8-3.7-2.1-5.7c-5.2,2.3-10.7,4.4-16.3,5.9l-7.6,13.5
		c0,0,14.3-2.5,28.9-8.6C82.2,135.6,82.1,134.9,82.1,134.2z"/>
	<path fill="#27AAE1" d="M91.2,118.4c1.4,1,2.7,2.2,3.5,3.7c1.6,1.6,3.2,3.4,3.9,5.4c1.5-1,2.9-2.1,4.2-3.3l4.9-16.4
		C107.7,107.8,101.1,112.8,91.2,118.4z"/>
</g>
<g id="Layer_1">
	<path fill="none" stroke="#000000" stroke-width="2" stroke-miterlimit="10" d="M101.2,92l-3.9-1c-6.4-1.7-10.2-8.3-8.4-14.7L93,61
		c1.7-6.4,8.3-10.2,14.7-8.4l3.9,1c6.4,1.7,10.2,8.3,8.4,14.7l-4.1,15.3C114.2,90,107.6,93.8,101.2,92z"/>
	<path fill="none" stroke="#000000" stroke-width="2" stroke-miterlimit="10" d="M90.4,70.7c0,0,5.8,2.9,10,2.6
		c4.2-0.3,9.5,1.5,9.8,3.2c0.3,1.7,6.7,3.4,6.7,3.4"/>
	<path fill="none" stroke="#000000" stroke-width="2" stroke-miterlimit="10" d="M91.8,65.4c0,0-4.1-1.4-5.3,2.3
		c-1.2,3.7,2.2,6.4,2.2,6.4"/>
	<path fill="none" stroke="#000000" stroke-width="2" stroke-miterlimit="10" d="M101.4,99.4c6.2,1.1,12.9,1.2,19.6-0.4
		c0,0-1.9-13.2,1.9-24.9s5.8-26.2-9.5-29.6c0,0-22.5-10.8-36.1,20.7c0,0-8,17.9-9.5,18.8c0,0,5.8,4.7,14.7,9.1"/>
	<polyline fill="none" stroke="#000000" stroke-width="2" stroke-miterlimit="10" points="93.4,89.1 90.4,94.7 100.6,100 
		102.2,92.3 	"/>
	<path fill="none" stroke="#000000" stroke-width="2" stroke-miterlimit="10" d="M94.2,150.1c-1.4,4.4-2.4,7.2-2.4,7.2
		s21.5,21.1,23,60.2c0,0-32.5,10.2-57.3,0c0,0,0.8-46.7-8.8-64.2l34.6-61.6c0,0,18.6,7,25.2,14.8c0,0-3.7,11.2-7.7,23.1"/>
	<path fill="none" stroke="#000000" stroke-width="2" stroke-miterlimit="10" d="M83.7,102.7c0,0,16,38,40.9,41.4l-3.1,21.3
		c0,0-41-12-44.9-48"/>
	<polyline fill="none" stroke="#000000" stroke-width="2" stroke-miterlimit="10" points="123.6,154.1 132.6,154.1 136.1,157.6 
		146.7,154.5 145.7,143.2 124.1,144.4 	"/>
	<path fill="none" stroke="#000000" stroke-width="2" stroke-miterlimit="10" d="M107.7,109.6c0,0,1.8,31,21,32.2"/>
	<line fill="none" stroke="#000000" stroke-width="2" stroke-miterlimit="10" x1="126.9" y1="154.1" x2="121.7" y2="163.5"/>
	<path fill="none" stroke="#000000" stroke-width="2" stroke-miterlimit="10" d="M106.6,105.2c0,0-6.6,5-15.3,10.3"/>
	<path fill="none" stroke="#000000" stroke-width="2" stroke-miterlimit="10" d="M77.8,122.9c-5.1,2.4-10.2,4.2-14.5,4.7"/>
	<path fill="none" stroke="#000000" stroke-width="2" stroke-miterlimit="10" d="M102.8,124.2c0,0-1.7,1.3-4.6,3.3"/>
	<path fill="none" stroke="#000000" stroke-width="2" stroke-miterlimit="10" d="M83.2,136c-8.3,3.9-18.5,7.5-29.4,8.4"/>
	<polyline fill="none" stroke="#000000" stroke-width="2" stroke-miterlimit="10" points="67.9,221.2 69.3,237.3 74,237.3 76,222.1 
			"/>
	<polyline fill="none" stroke="#000000" stroke-width="2" stroke-miterlimit="10" points="96,221.3 99.5,237.3 104.5,237.3 
		106.1,219.7 	"/>
	<path fill="none" stroke="#000000" stroke-width="2" stroke-miterlimit="10" d="M69.3,237.3c-0.2,2,19.3,14.7,19.3,14.7l7.5-10.3
		L74,237.3"/>
	<polyline fill="none" stroke="#000000" stroke-width="2" stroke-miterlimit="10" points="99.5,237.3 115.6,249.3 126.2,240.8 
		103.5,237.3 	"/>
	
		<ellipse transform="matrix(0.2981 -0.9545 0.9545 0.2981 -18.7778 276.8268)" fill="none" stroke="#000000" stroke-width="2" stroke-miterlimit="10" cx="178.9" cy="151.2" rx="15" ry="10.6"/>
	<path fill="none" stroke="#000000" stroke-width="2" stroke-miterlimit="10" d="M186.3,159.8c0,0,12.8,18.6,12.8,54.3
		c0,0-18.8,7.8-35,0c0,0,7.1-11.8,8.6-30.1"/>
	<path fill="none" stroke="#000000" stroke-width="2" stroke-miterlimit="10" d="M186.8,169.1c0,0-24.3,11.3-41.5-14"/>
	<path fill="none" stroke="#000000" stroke-width="2" stroke-miterlimit="10" d="M139.6,156.9c4.3,8.7,19.2,33.9,43.2,25.2"/>
	<path fill="none" stroke="#000000" stroke-width="2" stroke-miterlimit="10" d="M146.7,154.5c0,0,14.1,15.2,25.4,11.2"/>
	<path fill="none" stroke="#000000" stroke-width="2" stroke-miterlimit="10" d="M142.8,143.1l-4.5-6l-9.7,2.5c0,0,0.3,2.8,0.5,5.3"
		/>
	<path fill="none" stroke="#000000" stroke-width="2" stroke-miterlimit="10" d="M172.8,172c-0.2-2.5-0.4-5.1-0.9-7.8"/>
	<path fill="none" stroke="#000000" stroke-width="2" stroke-miterlimit="10" d="M165.5,215.6L152,230.9c0,0,5.2,5,15,4.1"/>
	<path fill="none" stroke="#000000" stroke-width="2" stroke-miterlimit="10" d="M177.1,217.5l-13,22.6c0,0,33.5,1.5,54.5-15.5v-3.8
		l-29,4l9.5-10.8"/>
	<path fill="none" stroke="#000000" stroke-width="2" stroke-miterlimit="10" d="M216.2,221.2c-0.1-1.1,1.4-5.6,1.4-5.6l18.8,9.8
		l-14,3.1l-4.9-3.1"/>
</g>
<g id="Layer_3">
	<path opacity="0" fill="none" stroke="#27AAE1" stroke-width="25" stroke-miterlimit="10" d="M93.3,107.9
		c7.6,0.1,15.2,1.4,22.5,3.8c-9.8,1.3-19.6,2-29.5,2.1c-5.6,0-11.5-0.1-16.6,2.5c11.9,1,23.8,2.1,35.8,3.1
		c-17.3,0.9-34.6,1.8-51.9,2.7c-0.7,0-1.4,0.1-2,0.5s-0.9,1.2-0.4,1.8c0.3,0.4,0.9,0.4,1.3,0.5c20.6,1.5,41.2,2.4,61.8,3.3
		c-20.8,2.2-41.5,4.6-62.3,7.2c10.7,2.3,21.5,4.7,32.4,5.8c-11.7-0.2-23.6-0.4-34.8,3"/>
</g>
</svg>
