<?xml version="1.0" encoding="utf-8"?>
<!-- Generator: Adobe Illustrator 19.2.1, SVG Export Plug-In . SVG Version: 6.00 Build 0)  -->
<svg version="1.0" xmlns="http://www.w3.org/2000/svg" xmlns:xlink="http://www.w3.org/1999/xlink" x="0px" y="0px" width="288px"
	 height="288px" viewBox="0 0 288 288" enable-background="new 0 0 288 288" xml:space="preserve">
<g id="Layer_2">
	<path fill="#26A9E0" d="M157.4,94.8l-49,56.5c0,0-2,23.1-1.5,21.5s52.5-57.5,52.5-57.5L157.4,94.8z"/>
</g>
<g id="Layer_1">
	<path fill="none" stroke="#000000" stroke-width="2" stroke-miterlimit="10" d="M141.5,82.6h-13.3c-6.6,0-12-5.4-12-12V40.2
		c0-6.6,5.4-12,12-12h13.3c6.6,0,12,5.4,12,12v30.4C153.5,77.2,148.1,82.6,141.5,82.6z"/>
	<path fill="none" stroke="#000000" stroke-width="2" stroke-miterlimit="10" d="M116.2,59c0,0,10.2,0.8,14.8-0.7
		c4.7-1.5,5-0.8,9.7,0.7c4.7,1.6,12.8,0.2,12.8,0.2"/>
	<path fill="none" stroke="#000000" stroke-width="2" stroke-miterlimit="10" d="M116.2,51.1c0,0-9,4.7,0,11"/>
	<path fill="none" stroke="#000000" stroke-width="2" stroke-miterlimit="10" d="M153.5,51.1c0,0,8.7,7.2,0,11"/>
	<path fill="none" stroke="#000000" stroke-width="2" stroke-miterlimit="10" d="M118.7,93.1c-11.4-0.7-25.2-7.3-25.2-7.3
		c3.5-7.8,6.7-33.3,6.7-33.3c1.7-44.5,34.1-35,34.1-35s32.4-9.7,27.9,33.6c0,0,3.5,30.1,12.8,35.6c0,0-18.8,7.4-26.5,5.7"/>
	<polyline fill="none" stroke="#000000" stroke-width="2" stroke-miterlimit="10" points="130.4,82.6 129.5,90.8 140.9,90.8 
		139.7,82.6 	"/>
	<path fill="none" stroke="#000000" stroke-width="2" stroke-miterlimit="10" d="M157.4,94.8c-19.1-7.5-46.9,0-46.9,0
		s-2.3,117.5-11.3,143.1c0,0,36.7,25.3,71.3,0L157.4,94.8z"/>
	<path fill="none" stroke="#000000" stroke-width="2" stroke-miterlimit="10" d="M110.5,94.8c0,0-24.6,41.4-40.6,57.4l7.5,36.2
		c0,0,28.8-45.8,31.9-59.8"/>
	<polyline fill="none" stroke="#000000" stroke-width="2" stroke-miterlimit="10" points="69.9,156 57.5,163.1 48.9,178.9 
		62.4,177.8 72.6,164.9 	"/>
	<polyline fill="none" stroke="#000000" stroke-width="2" stroke-miterlimit="10" points="68.9,169.5 69.9,176.1 72.6,176.1 
		73.5,169.5 	"/>
	<path fill="none" stroke="#000000" stroke-width="2" stroke-miterlimit="10" d="M157.4,96.2c0,0,15.6,35.3,28.6,29.8
		s24.5-10.6,24.5-10.6V156c0,0-41.1,3.7-50.2-32"/>
	<polyline fill="none" stroke="#000000" stroke-width="2" stroke-miterlimit="10" points="210.4,117.4 218.7,109.4 221.2,111.8 
		219.4,117.4 238.7,117.4 233,123.1 210.4,125.1 	"/>
	<line fill="none" stroke="#000000" stroke-width="2" stroke-miterlimit="10" x1="153.5" y1="93.5" x2="108.4" y2="147.9"/>
	<line fill="none" stroke="#000000" stroke-width="2" stroke-miterlimit="10" x1="159.4" y1="115.3" x2="106.9" y2="171.7"/>
	<path fill="none" stroke="#000000" stroke-width="2" stroke-miterlimit="10" d="M119.7,247.2c0.6,7.2,1.2,15,1.2,15h4.8
		c0,0,1.2-7.4,2.2-13.9"/>
	<path fill="none" stroke="#000000" stroke-width="2" stroke-miterlimit="10" d="M142,248.9c0.7,6.4,1.4,13.3,1.4,13.3h6
		c0,0,0.4-8,0.8-15"/>
	<polyline fill="none" stroke="#000000" stroke-width="2" stroke-miterlimit="10" points="121.7,262.5 98.2,274.7 121.7,278 
		126.5,262.5 	"/>
	<polyline fill="none" stroke="#000000" stroke-width="2" stroke-miterlimit="10" points="143.4,262.2 144.4,279.2 166.2,274.4 
		149.4,262.2 	"/>
	<line fill="none" stroke="#000000" stroke-width="2" stroke-miterlimit="10" x1="173.7" y1="57.4" x2="195" y2="51.1"/>
	<line fill="none" stroke="#000000" stroke-width="2" stroke-miterlimit="10" x1="175" y1="62" x2="197" y2="62"/>
	<line fill="none" stroke="#000000" stroke-width="2" stroke-miterlimit="10" x1="175" y1="67.4" x2="197" y2="73.7"/>
</g>
<g id="Layer_3">
	<path opacity="0" fill="none" stroke="#26A9E0" stroke-width="35" stroke-miterlimit="10" d="M140,95.7c8-0.5,16,0,23.9,1.4
		c-16,5.4-32.4,9.6-49,12.3c1.5,1.2,3.5,1.3,5.4,1.4c14.4,0.8,28.8,1.6,43.1,2.3c-16.8,2-33.5,5.3-49.8,9.9
		c-1.2,0.3-2.6,0.9-2.8,2.1c16.7,2,33.5,3.4,50.3,4.4c-24.6,4.4-50.7,1.7-73.6,11.5c15,0.8,30.1,0.9,45.1,0.4
		c-10.2,7.1-22.8,9.5-34.6,13.5c-0.6,0.2-1.3,0.5-1.7,1c-0.8,1.2,0.5,2.7,1.7,3.5c2.8,1.7,6.1,2.3,9.4,2.7
		c12.6,1.8,25.4,2.3,38.1,1.4"/>
</g>
</svg>
