<?xml version="1.0" encoding="utf-8"?>
<!-- Generator: Adobe Illustrator 19.2.1, SVG Export Plug-In . SVG Version: 6.00 Build 0)  -->
<svg version="1.0" id="Layer_1" xmlns="http://www.w3.org/2000/svg" xmlns:xlink="http://www.w3.org/1999/xlink" x="0px" y="0px"
	 width="288px" height="288px" viewBox="0 0 288 288" enable-background="new 0 0 288 288" xml:space="preserve">
<path fill="none" stroke="#000000" stroke-width="2" stroke-miterlimit="10" d="M211.8,41c0,0-20-5.8-22.5-6.5s-40.5-6.7-50.5-6.7
	s-44.5,6.6-44.5,6.6l-18,8.4c0,0-34.2,12.2-36.8,15.5s-9.6,12.2-9.6,12.2s-7.4,59,5.1,77.8s22,41,36.8,41.8s42.8,3.5,42.8,3.5
	s40.8,11.3,53,8.8c12.2-2.5,31.5-7.3,31.5-7.3s35.2-6.2,42-15.8s24-37.2,19.8-52.8S253.3,103,252,92s-3-37.5-10.2-41.7
	S211.8,41,211.8,41z"/>
<path fill="none" stroke="#000000" stroke-width="2" stroke-miterlimit="10" d="M194.2,204.3l-6.8,3.5l0.5,6l4.4,5.5h6.5
	c0,0,5.3-5,4.8-5.8s-2.2-3.3-2.5-3.9c-0.3-0.6,0-3.9,0-3.9L194.2,204.3z"/>
<path fill="none" stroke="#000000" stroke-width="2" stroke-miterlimit="10" d="M184.5,223.5l-5.8,1.9v7.2c0,0,2.3,4.8,3.4,4.8
	c1.1,0,5.6-1.8,5.6-1.8l4.5-3.8c0,0-1.2-3.2-1.2-3.8S184.5,223.5,184.5,223.5z"/>
<polygon fill="none" stroke="#000000" stroke-width="2" stroke-miterlimit="10" points="173.5,238.6 165.2,240.3 165.2,244.8 
	167.6,248.8 171.2,248.8 177.5,246.1 "/>
<path fill="none" stroke="#000000" stroke-width="2" stroke-miterlimit="10" d="M155.2,248.8H152l-1.6,5c0,0,2.8,5.1,3.3,4.9
	s3.9-1.9,3.9-1.9l2.4-3.1V251l-1-2.2H155.2z"/>
</svg>
