<?xml version="1.0" encoding="utf-8"?>
<!-- Generator: Adobe Illustrator 19.2.1, SVG Export Plug-In . SVG Version: 6.00 Build 0)  -->
<svg version="1.0" id="Layer_1" xmlns="http://www.w3.org/2000/svg" xmlns:xlink="http://www.w3.org/1999/xlink" x="0px" y="0px"
	 width="288px" height="288px" viewBox="0 0 288 288" enable-background="new 0 0 288 288" xml:space="preserve">
<path fill="none" stroke="#000000" stroke-width="2" stroke-miterlimit="10" d="M79.9,113.3l4.3-3.6l4,2.7l7.3-2.7l5.8,2.7l7.4-1.3
	c0,0,4.4,1.9,5.3,1.3s6.2,0,6.7,0c0.5,0,7.8-1.3,7.8-1.3l4.9,1.4l13.6-2.2l8.9,3.4l13.5-5.5l16.1,5.5l8.3-1.3l14.6,1.3
	c0,0,0.3,66.2-64.2,64.7C81.6,177.1,79.9,113.3,79.9,113.3z"/>
<polyline fill="none" stroke="#000000" stroke-width="2" stroke-miterlimit="10" points="105.6,111.6 106.4,117.9 111.7,126.6 
	117.9,128.6 125.8,130.3 132.8,134.5 136.6,143.1 145.9,147 145.9,155 145,163.5 152.3,170.4 157.9,170.4 164,164.9 170.6,157.9 
	171.7,149.6 174.9,141 173.2,133.3 167,131.9 161.1,129 159.1,119.3 152.7,119.6 145.1,121.6 143.3,127.4 143.1,131.5 138.9,131.9 
	133.4,125.4 127.2,126.3 123.1,118.9 122.5,112.4 "/>
<polyline fill="none" stroke="#000000" stroke-width="2" stroke-miterlimit="10" points="192.2,112.4 191.6,120.2 193.6,127.4 
	196.9,131 197.9,139.1 202.3,142.4 "/>
</svg>
