<?xml version="1.0" encoding="utf-8"?>
<!-- Generator: Adobe Illustrator 21.0.0, SVG Export Plug-In . SVG Version: 6.00 Build 0)  -->
<!DOCTYPE svg PUBLIC "-//W3C//DTD SVG 1.0//EN" "http://www.w3.org/TR/2001/REC-SVG-20010904/DTD/svg10.dtd">
<svg version="1.0" id="Layer_1" xmlns="http://www.w3.org/2000/svg" xmlns:xlink="http://www.w3.org/1999/xlink" x="0px" y="0px"
	 width="288px" height="288px" viewBox="0 0 288 288" enable-background="new 0 0 288 288" xml:space="preserve">
<g id="Color">
	<path d="M130.7,180.8l0.4,2l-9.8,8.6l9.8,4l5.3-12.6V181C134.5,181,132.6,180.9,130.7,180.8z"/>
	<path d="M122.5,181.2l0.5,5.1h2.7l0.4-5.5C124.9,180.9,123.7,181.1,122.5,181.2z"/>
	<path d="M155.3,181.4c-2.4,0.1-4.7,0.1-7.1,0l0.1,1.5l4,12.6l9.3-3.1l-6.4-9.5L155.3,181.4z"/>
	<path d="M162.4,181l0.8,5.4h3l0.1-5.7C165,180.8,163.7,180.9,162.4,181z"/>
</g>
<g id="Stroke">
	
		<path fill="none" stroke="#1DE300" stroke-width="16" stroke-linecap="round" stroke-linejoin="round" stroke-miterlimit="10" stroke-opacity="0" d="
		M128.6,176.4c-2.6,1-5.1,2.4-7.1,4.3c19.1,0.1,38.3,0.2,57.2,3.7c-18.6,6.6-38.7,2.2-57.8,6.2c10.6,2.3,21.3,4.2,32.1,5.5"/>
</g>
</svg>
