<?xml version="1.0" encoding="utf-8"?>
<!-- Generator: Adobe Illustrator 21.0.0, SVG Export Plug-In . SVG Version: 6.00 Build 0)  -->
<!DOCTYPE svg PUBLIC "-//W3C//DTD SVG 1.0//EN" "http://www.w3.org/TR/2001/REC-SVG-20010904/DTD/svg10.dtd">
<svg version="1.0" id="Layer_1" xmlns="http://www.w3.org/2000/svg" xmlns:xlink="http://www.w3.org/1999/xlink" x="0px" y="0px"
	 width="288px" height="288px" viewBox="0 0 288 288" enable-background="new 0 0 288 288" xml:space="preserve">
<ellipse fill="none" stroke="#000000" stroke-width="2" stroke-miterlimit="10" cx="143" cy="96.1" rx="8.9" ry="13.6"/>
<polyline fill="none" stroke="#000000" stroke-width="2" stroke-miterlimit="10" points="140,109.8 139,113.1 147.1,113.2 
	145.6,109.2 "/>
<path fill="none" stroke="#000000" stroke-width="2" stroke-miterlimit="10" d="M129.4,114.1c0,0,13.6-2.2,26.1,0
	c0,0,10,10,9.1,35.5c0,0-25.5,6.3-44.5,0C120.1,149.7,120.8,128.1,129.4,114.1z"/>
<path fill="none" stroke="#000000" stroke-width="2" stroke-miterlimit="10" d="M129.4,114.1l-5.1,1.2c0,0-8,12.1-9.6,18.9"/>
<path fill="none" stroke="#000000" stroke-width="2" stroke-miterlimit="10" d="M121.6,135.1l-11.1-1.8v12.2c0,0,4.8,0.9,5.1,0.6
	s5.1-5.8,5.1-5.8L121.6,135.1z"/>
<path fill="none" stroke="#000000" stroke-width="2" stroke-miterlimit="10" d="M155.5,114.1l6.2,1.3c0,0,8,12.1,9.6,18.9"/>
<path fill="none" stroke="#000000" stroke-width="2" stroke-miterlimit="10" d="M164.4,135.1l11.1-1.8v12.2c0,0-4.8,0.9-5.1,0.6
	s-5.1-5.8-5.1-5.8L164.4,135.1z"/>
<path fill="none" stroke="#000000" stroke-width="2" stroke-miterlimit="10" d="M112,145.9c0.1,0,1.1-6.1,1.1-6.1"/>
<line fill="none" stroke="#000000" stroke-width="2" stroke-miterlimit="10" x1="115.6" y1="146.3" x2="116.9" y2="140.5"/>
<line fill="none" stroke="#000000" stroke-width="2" stroke-miterlimit="10" x1="171.4" y1="145.9" x2="168.8" y2="139.8"/>
<line fill="none" stroke="#000000" stroke-width="2" stroke-miterlimit="10" x1="173.9" y1="145.3" x2="172.7" y2="139.3"/>
<polyline fill="none" stroke="#000000" stroke-width="2" stroke-miterlimit="10" points="125.9,151.8 131.4,182.8 136.7,182.8 
	136.7,155.9 140.7,152.5 "/>
<polyline fill="none" stroke="#000000" stroke-width="2" stroke-miterlimit="10" points="144.5,152.5 147,156 148.6,182.8 
	155.5,182.8 158.3,150.9 "/>
<polyline fill="none" stroke="#000000" stroke-width="2" stroke-miterlimit="10" points="131.4,182.8 121.6,191.4 131.4,195.4 
	136.7,182.8 "/>
<polyline fill="none" stroke="#000000" stroke-width="2" stroke-miterlimit="10" points="148.6,182.8 152.6,195.4 161.9,192.3 
	155.5,182.8 "/>
<path fill="none" stroke="#000000" stroke-width="2" stroke-miterlimit="10" d="M124.2,114.6l-0.8-5.9c0,0,7.2-0.3,15.2-0.6"/>
<path fill="none" stroke="#000000" stroke-width="2" stroke-miterlimit="10" d="M147.4,107.8c6.6-0.3,12.1-0.5,12.1-0.5v7.7"/>
<polygon fill="none" stroke="#000000" stroke-width="2" stroke-miterlimit="10" points="109.6,146.9 109.6,151.4 119,151.3 
	119.7,146.9 "/>
<polygon fill="none" stroke="#000000" stroke-width="2" stroke-miterlimit="10" points="167.9,150.9 167.3,146.3 178,146.9 
	177.7,150.9 "/>
<path fill="none" stroke="#000000" stroke-width="2" stroke-miterlimit="10" d="M127,158.3c-4.1,0.1-6.9,0.2-6.9,0.2l-1.2-8.2
	c0,0,1-0.1,2.7-0.1"/>
<path fill="none" stroke="#000000" stroke-width="2" stroke-miterlimit="10" d="M147.2,157.9c-3.5,0.1-7.2,0.2-10.6,0.3"/>
<path fill="none" stroke="#000000" stroke-width="2" stroke-miterlimit="10" d="M164.7,147.8c1.5-0.1,2.4-0.1,2.4-0.1v9.8
	c0,0-4,0.1-9.7,0.2"/>
<polyline fill="none" stroke="#000000" stroke-width="2" stroke-miterlimit="10" points="120.7,158.5 123.2,186.3 125.9,186.3 
	127.7,162.4 "/>
<polyline fill="none" stroke="#000000" stroke-width="2" stroke-miterlimit="10" points="159.5,158.5 163.5,186.3 166.5,186.3 
	167.1,157.4 "/>
</svg>
