<?xml version="1.0" encoding="utf-8"?>
<!-- Generator: Adobe Illustrator 21.0.0, SVG Export Plug-In . SVG Version: 6.00 Build 0)  -->
<!DOCTYPE svg PUBLIC "-//W3C//DTD SVG 1.0//EN" "http://www.w3.org/TR/2001/REC-SVG-20010904/DTD/svg10.dtd">
<svg version="1.0" id="Layer_1" xmlns="http://www.w3.org/2000/svg" xmlns:xlink="http://www.w3.org/1999/xlink" x="0px" y="0px"
	 width="288px" height="288px" viewBox="0 0 288 288" enable-background="new 0 0 288 288" xml:space="preserve">
<g id="Color">
	<path d="M128.9,170.5l2.2,12.3l-9.8,8.6l9.8,4l5.3-12.6v-12.3C133.9,170.5,131.4,170.5,128.9,170.5z"/>
	<path d="M125.7,186.3l1.1-15.2c-1.7,0.6-3.4,0.9-5.1,1.1l1.3,14H125.7z"/>
	<path d="M156.4,169.7c-2.9,0.1-5.9,0.3-8.8,0.5l0.8,12.7l4,12.6l9.3-3.1l-6.4-9.5L156.4,169.7z"/>
	<path d="M160.8,169.5l2.4,16.9h3l0.4-17C164.6,169.4,162.7,169.5,160.8,169.5z"/>
</g>
<g id="Stroke">
	
		<path fill="none" stroke="#1DE300" stroke-width="16" stroke-linecap="round" stroke-linejoin="round" stroke-miterlimit="10" stroke-opacity="0" d="
		M119.8,166.6c20.3,2.2,40.8,2.4,61.3,2.6c-10.9,1.1-21.8,2.2-32.7,3.6c-8.7,1.2-20.2,1.4-26.9,7.9c19.1,0.1,38.4,0.2,57.2,3.7
		c-18.6,6.6-38.8,2.2-57.8,6.2c10.6,2.3,21.3,4.2,32.1,5.5"/>
</g>
</svg>
