<?xml version="1.0" encoding="utf-8"?>
<!-- Generator: Adobe Illustrator 19.2.1, SVG Export Plug-In . SVG Version: 6.00 Build 0)  -->
<svg version="1.0" xmlns="http://www.w3.org/2000/svg" xmlns:xlink="http://www.w3.org/1999/xlink" x="0px" y="0px" width="288px"
	 height="288px" viewBox="0 0 288 288" enable-background="new 0 0 288 288" xml:space="preserve">
<g id="Layer_2">
	<path fill="#27AAE1" d="M142.4,83c0,0-10.6,12.8,0,26.7c0,0-11.3-4-8.3-16S142.4,83,142.4,83z"/>
	<path fill="#27AAE1" d="M132.1,114.1c-0.7,1-6.5,22.8-6.2,36l-6.5-1c0,0,6.3-33.7,10-35C133.1,112.8,132.1,114.1,132.1,114.1z"/>
	<polygon fill="#27AAE1" points="127,114.9 117.7,134.5 121.6,135.1 129.4,114.1 	"/>
	<path fill="#27AAE1" d="M132.2,152.5c0,0.4,1.9,30.3,1.9,30.3L122,194c0,0,10.2,2.7,10.2,2c0-0.7,4.5-11.5,4.5-13.2s0-27.8,0-27.8
		l4-2.5H132.2z"/>
	<polygon fill="#27AAE1" points="143.1,152.5 147,156 148.6,183.8 153.4,196.6 161.9,195 153.4,182.8 152.5,152.5 	"/>
</g>
<g id="Layer_1">
	<ellipse fill="none" stroke="#000000" stroke-width="2" stroke-miterlimit="10" cx="143" cy="96.1" rx="8.9" ry="13.6"/>
	<path fill="none" stroke="#000000" stroke-width="2" stroke-miterlimit="10" d="M136.4,84.3c0,0,6.7,2,12.7,0"/>
	<path fill="none" stroke="#000000" stroke-width="2" stroke-miterlimit="10" d="M134.1,86.4c0,0,9.5,2.5,17,0"/>
	<path fill="none" stroke="#000000" stroke-width="2" stroke-miterlimit="10" d="M133.2,88.8c0,0,10.5,3.2,18.8,0.7"/>
	<polyline fill="none" stroke="#000000" stroke-width="2" stroke-miterlimit="10" points="140,109.8 139,113.1 147.1,113.2 
		145.6,109.2 	"/>
	<path fill="none" stroke="#000000" stroke-width="2" stroke-miterlimit="10" d="M129.4,114.1c0,0,13.6-2.2,26.1,0
		c0,0,10,10,9.1,35.5c0,0-25.5,6.3-44.5,0C120.1,149.7,120.8,128.1,129.4,114.1z"/>
	<path fill="none" stroke="#000000" stroke-width="2" stroke-miterlimit="10" d="M129.4,114.1l-5.1,1.2c0,0-8,12.1-9.6,18.9"/>
	<path fill="none" stroke="#000000" stroke-width="2" stroke-miterlimit="10" d="M121.6,135.1l-11.1-1.8v12.2c0,0,4.8,0.9,5.1,0.6
		s5.1-5.8,5.1-5.8L121.6,135.1z"/>
	<path fill="none" stroke="#000000" stroke-width="2" stroke-miterlimit="10" d="M155.5,114.1l6.2,1.3c0,0,8,12.1,9.6,18.9"/>
	<path fill="none" stroke="#000000" stroke-width="2" stroke-miterlimit="10" d="M164.4,135.1l11.1-1.8v12.2c0,0-4.8,0.9-5.1,0.6
		s-5.1-5.8-5.1-5.8L164.4,135.1z"/>
	<path fill="none" stroke="#000000" stroke-width="2" stroke-miterlimit="10" d="M112,145.9c0.1,0,1.1-6.1,1.1-6.1"/>
	<line fill="none" stroke="#000000" stroke-width="2" stroke-miterlimit="10" x1="115.6" y1="146.3" x2="116.9" y2="140.5"/>
	<line fill="none" stroke="#000000" stroke-width="2" stroke-miterlimit="10" x1="171.4" y1="145.9" x2="168.8" y2="139.8"/>
	<line fill="none" stroke="#000000" stroke-width="2" stroke-miterlimit="10" x1="173.9" y1="145.3" x2="172.7" y2="139.3"/>
	<polyline fill="none" stroke="#000000" stroke-width="2" stroke-miterlimit="10" points="125.9,151.8 131.4,182.8 136.7,182.8 
		136.7,155.9 140.7,152.5 	"/>
	<polyline fill="none" stroke="#000000" stroke-width="2" stroke-miterlimit="10" points="144.5,152.5 147,156 148.6,182.8 
		155.5,182.8 158.3,150.9 	"/>
	<polyline fill="none" stroke="#000000" stroke-width="2" stroke-miterlimit="10" points="131.4,182.8 121.6,191.4 131.4,195.4 
		136.7,182.8 	"/>
	<polyline fill="none" stroke="#000000" stroke-width="2" stroke-miterlimit="10" points="148.6,182.8 152.6,195.4 161.9,192.3 
		155.5,182.8 	"/>
	<path fill="none" stroke="#000000" stroke-width="2" stroke-miterlimit="10" d="M124.2,114.6l-0.8-5.9c0,0,7.2-0.3,15.2-0.6"/>
	<path fill="none" stroke="#000000" stroke-width="2" stroke-miterlimit="10" d="M147.4,107.8c6.6-0.3,12.1-0.5,12.1-0.5v7.7"/>
	<polygon fill="none" stroke="#000000" stroke-width="2" stroke-miterlimit="10" points="109.6,146.9 109.6,151.4 119,151.3 
		119.7,146.9 	"/>
	<polygon fill="none" stroke="#000000" stroke-width="2" stroke-miterlimit="10" points="167.9,150.9 167.3,146.3 178,146.9 
		177.7,150.9 	"/>
	<path fill="none" stroke="#000000" stroke-width="2" stroke-miterlimit="10" d="M127,158.3c-4.1,0.1-6.9,0.2-6.9,0.2l-1.2-8.2
		c0,0,1-0.1,2.7-0.1"/>
	<path fill="none" stroke="#000000" stroke-width="2" stroke-miterlimit="10" d="M147.2,157.9c-3.5,0.1-7.2,0.2-10.6,0.3"/>
	<path fill="none" stroke="#000000" stroke-width="2" stroke-miterlimit="10" d="M164.7,147.8c1.5-0.1,2.4-0.1,2.4-0.1v9.8
		c0,0-4,0.1-9.7,0.2"/>
	<polyline fill="none" stroke="#000000" stroke-width="2" stroke-miterlimit="10" points="120.7,158.5 123.2,186.3 125.9,186.3 
		127.7,162.4 	"/>
	<polyline fill="none" stroke="#000000" stroke-width="2" stroke-miterlimit="10" points="159.5,158.5 163.5,186.3 166.5,186.3 
		167.1,157.4 	"/>
</g>
<g id="Layer_3">
	<path opacity="0" fill="none" stroke="#27AAE1" stroke-width="20" stroke-miterlimit="10" d="M130,81.6c6.9-0.8,14,0.1,20.5,2.6
		c-7.2,3.7-14.9,6.4-22.8,8.2c6.1,0.5,12.2,0.9,18.3,1.2c-7.8,1.9-15.6,4.1-23.2,6.7c8.6,0.6,17.1,1.3,25.7,1.9
		c-6.5,4.1-15.5,1.5-22.2,5.2c7.2,1,14.5,1.7,21.7,2c-9.7,3.8-19.7,7-29.7,9.8c5.5,1.5,11.2,2.2,16.9,2.2c-9.7,1.7-19.2,4-28.6,6.9
		c8.7,1.6,17.6,2.6,26.5,2.7c-7.5,4.9-15.8,8.6-24.5,11c8.6,0.7,17.3,1.1,26,1c-5.7,3.4-11.5,6.5-17.6,9.1c16.5,0,32.9,0.2,49.3,0.6
		c-9.2,2.8-18.7,4.5-28.4,5c-4.1,0.2-8.4,0.3-11.8,2.5c10.1,1.5,20.3,2.8,30.4,4.1c0.1,0.6-0.6,0.9-1.2,1.1
		c-9.6,2.6-19.3,5.1-28.9,7.7c10.4,0.6,20.8,1.2,31.3,1.8c-12.2,1.5-24.1,4.6-35.6,9.1c14.3,0.3,28.7,0.6,43,0.9
		c-8.4,2.1-17,3.2-25.6,4.3c-7.8,1-15.7,2-23.5,3c3.3,2.7,7.9,3.2,12.2,3.5c12,0.6,24.1-0.3,36-2.2"/>
</g>
</svg>
