<?xml version="1.0" encoding="utf-8"?>
<!-- Generator: Adobe Illustrator 19.2.1, SVG Export Plug-In . SVG Version: 6.00 Build 0)  -->
<svg version="1.0" xmlns="http://www.w3.org/2000/svg" xmlns:xlink="http://www.w3.org/1999/xlink" x="0px" y="0px" width="288px"
	 height="288px" viewBox="0 0 288 288" enable-background="new 0 0 288 288" xml:space="preserve">
<g id="Layer_2">
	<path fill="#27AAE1" d="M133.1,24.5c0,0-14.8,28.7,3.1,41.5c0,0-15.1-2.4-14.1-21.9S133.1,24.5,133.1,24.5z"/>
	<path fill="#27AAE1" d="M119.8,71c0.5,1.8,0,63.3,0,63.3l21.3,5.5h-19L114.3,246l-6.2,18.3l-13.2-3.5l16.3-14.8l1.3-107.8l-1.3-1.5
		l3-65.9L119.8,71z"/>
	<polygon fill="#27AAE1" points="140.1,139.9 141.1,246 162.1,255.3 150.3,266.1 138.4,247.5 132.9,139.8 	"/>
	<path fill="#27AAE1" d="M113.9,80.6c0,0-20.6,25-16.9,59.3h2.1c0,0,2.1-39.4,14.2-46.9L113.9,80.6z"/>
</g>
<g id="Layer_1">
	<ellipse fill="none" stroke="#000000" stroke-width="2" stroke-miterlimit="10" cx="137.1" cy="45.2" rx="14.1" ry="20.8"/>
	<path fill="none" stroke="#000000" stroke-width="2" stroke-miterlimit="10" d="M125.3,28.4c0,0,14.3,1.6,21.5-2.1"/>
	<path fill="none" stroke="#000000" stroke-width="2" stroke-miterlimit="10" d="M123,32.5c0,0,17.5,3.5,27-1.8"/>
	<path fill="none" stroke="#000000" stroke-width="2" stroke-miterlimit="10" d="M120.7,36c0,0,16.9,4.8,30.5,0"/>
	<line fill="none" stroke="#000000" stroke-width="2" stroke-miterlimit="10" x1="129.4" y1="62.2" x2="128.4" y2="71.3"/>
	<line fill="none" stroke="#000000" stroke-width="2" stroke-miterlimit="10" x1="139.4" y1="65.7" x2="139.4" y2="71.3"/>
	<path fill="none" stroke="#000000" stroke-width="2" stroke-miterlimit="10" d="M115.1,70.9c0,0,27.2,0.5,33.9,1.9v66.7
		c0,0-25.6,1.6-36.9-1.6L115.1,70.9z"/>
	<path fill="none" stroke="#000000" stroke-width="2" stroke-miterlimit="10" d="M115.1,70.9c0,0-26.6,14-20.5,69h5.3
		c0,0,2.8-38.5,14.3-48.6"/>
	<polygon fill="none" stroke="#000000" stroke-width="2" stroke-miterlimit="10" points="93.7,140.7 101.1,139.9 107.5,146.2 
		104.4,149.5 107.5,157.8 92.3,155.2 	"/>
	<line fill="none" stroke="#000000" stroke-width="2" stroke-miterlimit="10" x1="95.8" y1="103.3" x2="104.4" y2="109.7"/>
	<path fill="none" stroke="#000000" stroke-width="2" stroke-miterlimit="10" d="M149.1,80.6c0,0,5,19.4,25.3,17.5"/>
	<path fill="none" stroke="#000000" stroke-width="2" stroke-miterlimit="10" d="M149.1,100.5c0,0,11.7,10.9,30.6,5.8"/>
	<path fill="none" stroke="#000000" stroke-width="2" stroke-miterlimit="10" d="M175.9,93.1c-0.5,0.5-1.6,6.1-1.6,6.1l8.1,2.1
		l1.7-4.1L175.9,93.1z"/>
	<path fill="none" stroke="#000000" stroke-width="2" stroke-miterlimit="10" d="M180.4,101.2v5.3c0,0,13.5,4.4,13.5,3.2
		s0-14.2,0-14.2l-11.3,0.9"/>
	<line fill="none" stroke="#000000" stroke-width="2" stroke-miterlimit="10" x1="166.4" y1="98.2" x2="163.5" y2="107.3"/>
	<polyline fill="none" stroke="#000000" stroke-width="2" stroke-miterlimit="10" points="180.9,95.5 179.3,81.6 193.9,80.6 
		192,95.5 	"/>
	<polyline fill="none" stroke="#000000" stroke-width="2" stroke-miterlimit="10" points="181.6,107.3 174.3,120.4 190.5,122.2 
		190.5,109.7 	"/>
	<polyline fill="none" stroke="#000000" stroke-width="2" stroke-miterlimit="10" points="189.8,90.2 190.6,87.9 189.7,85 
		186.5,85.6 187,90.3 184.3,91.6 183.8,89.7 183.4,85.7 	"/>
	<line fill="none" stroke="#000000" stroke-width="2" stroke-miterlimit="10" x1="191.8" y1="87.3" x2="181.5" y2="88.9"/>
	<polyline fill="none" stroke="#000000" stroke-width="2" stroke-miterlimit="10" points="186.5,118.5 187.8,116.4 187.7,113.4 
		184.5,113.2 183.7,117.9 180.8,118.3 180.8,116.4 181.4,112.4 	"/>
	<line fill="none" stroke="#000000" stroke-width="2" stroke-miterlimit="10" x1="189.2" y1="116.2" x2="178.8" y2="115"/>
	<polyline fill="none" stroke="#000000" stroke-width="2" stroke-miterlimit="10" points="113.5,138.3 112.1,246 117.8,246 
		132,139.9 133.8,139.9 139.3,246 145,246 148,139.6 	"/>
	<polyline fill="none" stroke="#000000" stroke-width="2" stroke-miterlimit="10" points="112.1,246 97.8,258.1 112.1,262.6 
		117.8,246 	"/>
	<polyline fill="none" stroke="#000000" stroke-width="2" stroke-miterlimit="10" points="139.3,246 151.8,262.6 164.9,252.7 
		145,246 	"/>
</g>
<g id="Layer_3">
	<path opacity="0" fill="none" stroke="#000000" stroke-width="30" stroke-miterlimit="10" d="M118,27.5c5.1,0,10.2,0,15.2,0
		c-3.9,3.7-8.3,6.8-12.9,9.5c5,0.8,10.1,1.5,15.1,2.3c-7.5,1.7-14.9,4.2-22,7.2c6,0.6,12.1,1.2,18.1,1.7c-6.1,2.4-12.2,4.8-18.3,7.2
		c6.8,1.9,13.6,3.4,20.5,4.8c-5.4,1-10.8,1.9-16.2,2.9c4.7,1.1,9.4,2.2,14.1,3.4c-9.7,2.6-19.1,6-28.2,10.2c6.6,1,13.1,2,19.7,3.1
		c-7.6,2.8-15.2,5.7-22.7,8.5c10.4,0.3,20.9,0.7,31.3,1c-13,4.2-26,8.4-39.1,12.6c9,1.1,18,2.2,27,3.2c-9.8,4.1-19.6,8.3-29.4,12.4
		c12.8,0.2,25.6,0.4,38.5,0.6c-13.2,3.7-26.4,7.4-39.6,11.1c12.8,1,25.6,2,38.4,3c-10,3.1-20,6.2-30,9.3c19.9,0.6,39.9,1.2,59.5,4.8
		c-18.6,7.5-39.6,8-57.6,16.9c16.3,3.1,32.8,5,49.3,5.6c-16.9,6.7-34.8,10.8-52.9,12c17,0.3,34,2.3,50.6,5.9
		c-19.4,5.2-38.8,10.4-58.2,15.6c21.1,0.8,42.1,2.9,62.9,6.4c-15.8-1.2-30,14-45.6,11.3c15.4,7.8,32.1,13,49.3,15.2
		c-0.1-1.3-2-1.6-3.3-1.4c-21.4,3-40.1,19.9-61.6,18c14.4,2.9,29.1,3.8,43.7,2.8c4.1-0.3,8.1-0.7,12.2-0.7c5.7,0,11.4,0.7,17,2.2"/>
</g>
</svg>
