<?xml version="1.0" encoding="utf-8"?>
<!-- Generator: Adobe Illustrator 21.0.0, SVG Export Plug-In . SVG Version: 6.00 Build 0)  -->
<!DOCTYPE svg PUBLIC "-//W3C//DTD SVG 1.0//EN" "http://www.w3.org/TR/2001/REC-SVG-20010904/DTD/svg10.dtd">
<svg version="1.0" id="Layer_1" xmlns="http://www.w3.org/2000/svg" xmlns:xlink="http://www.w3.org/1999/xlink" x="0px" y="0px"
	 width="288px" height="288px" viewBox="0 0 288 288" enable-background="new 0 0 288 288" xml:space="preserve">
<g id="Layer_2">
	<polyline fill="#FFFFFF" points="162.1,95.1 157.3,83.1 152.7,84.9 159,99.7 162.1,100.2 	"/>
	<path fill="#27AAE1" d="M210.8,67c0,0,8.1,25.7-2,31.6c0,0,10.1-2.1,9.8-12.6S215,69.1,210.8,67z"/>
	<path fill="#27AAE1" d="M216.2,102.5l10.2,43.4c0,0-8.9,4.9-11.7,5.3l17.9-2.6L220,102.4h-4.9"/>
	<polygon fill="#27AAE1" points="222.1,109.9 234.7,116 229.5,135.3 228.2,130.2 230.8,117.3 223.6,115.5 	"/>
	<path fill="#27AAE1" d="M221.7,150.8l6.7-0.9l12.4,43c-11.8-13.9-18.7-41.3-18.7-41.3s9.3,24.8,12.1,31.4
		c2.8,6.7,16.2,21.7,16.2,21.7l15,8c0,0-4.5,7.8-4.7,8.8s-11.8-15-11.8-15c-21.5-17.3-33.2-54.9-33.2-54.9"/>
	<polygon fill="#27AAE1" points="242.1,205 242.7,209 227.9,218.7 237.1,222.9 246.1,211.4 244.9,206.5 	"/>
</g>
<g id="Layer_1_1_">
	<ellipse fill="none" stroke="#000000" stroke-width="2" stroke-miterlimit="10" cx="208.9" cy="82.8" rx="9.8" ry="15.8"/>
	<path fill="none" stroke="#000000" stroke-width="2" stroke-miterlimit="10" d="M200.1,69.5c0,0,10.1,2.6,15,0"/>
	<path fill="none" stroke="#000000" stroke-width="2" stroke-miterlimit="10" d="M199.3,72.6c0,0,8.1,3.6,18.8,0.9"/>
	<path fill="none" stroke="#000000" stroke-width="2" stroke-miterlimit="10" d="M198.2,76.1c0,0,8,4.6,19.9,1.2"/>
	<polyline fill="none" stroke="#000000" stroke-width="2" stroke-miterlimit="10" points="205.5,97.7 205.5,103 213.2,102.4 
		212.2,97.7 	"/>
	<path fill="none" stroke="#000000" stroke-width="2" stroke-miterlimit="10" d="M196.6,103.3l23.4-1l12.7,46.8
		c0,0-17.6,3.4-26.3,2.2L196.6,103.3z"/>
	<polyline fill="none" stroke="#000000" stroke-width="2" stroke-miterlimit="10" points="196.6,103.3 162.1,95.1 162.1,100.2 
		198.8,114.4 	"/>
	<polyline fill="none" stroke="#000000" stroke-width="2" stroke-miterlimit="10" points="162.1,95.1 157.3,83.1 152.7,84.9 
		159,99.7 162.1,100.2 	"/>
	<polyline fill="none" stroke="#000000" stroke-width="2" stroke-miterlimit="10" points="232.7,133.9 242.1,133.1 239,140 
		231.3,140 242.1,111.3 220,102.4 	"/>
	<line fill="none" stroke="#000000" stroke-width="2" stroke-miterlimit="10" x1="223.3" y1="114.4" x2="238.7" y2="120.3"/>
	<line fill="none" stroke="#000000" stroke-width="2" stroke-miterlimit="10" x1="231" y1="118.1" x2="227.9" y2="131.4"/>
	<path fill="none" stroke="#000000" stroke-width="2" stroke-miterlimit="10" d="M208.9,151.6c0,0,12.8,47.3,40,56.2l1.9-2.8
		c0,0-23.5-23.6-29.1-54.2"/>
	<path fill="none" stroke="#000000" stroke-width="2" stroke-miterlimit="10" d="M231,149.9c0,0,6.5,26.4,10.9,44.6"/>
	<path fill="none" stroke="#000000" stroke-width="2" stroke-miterlimit="10" d="M244.9,206.5c0.7,3.1,1.2,4.9,1.2,4.9"/>
	<polyline fill="none" stroke="#000000" stroke-width="2" stroke-miterlimit="10" points="248.9,207.8 259.2,221.5 265.3,212.7 
		250.7,205 	"/>
	<polyline fill="none" stroke="#000000" stroke-width="2" stroke-miterlimit="10" points="241.6,208.4 228.2,216 236.8,221.9 
		246.1,211.4 241.1,207.8 238.6,202.4 	"/>
</g>
<g id="Layer_3">
	<path fill="none" stroke="#000000" stroke-width="15" stroke-miterlimit="10" stroke-opacity="0" d="M209.2,66.5
		c2.6,0.7,5.2,1.3,7.8,2c-3.4,2.6-7.3,4.7-11.3,6.2c5.7,0.2,11.4,0.3,17.1,0.5c-5.4,3.1-10.9,6.2-16.3,9.2
		c5.5-0.3,11.1,0.1,16.4,1.4c-13.4,7.3-24.7,10.6-39.7,5.6c-8.1-2.7-15.9-6.4-24.3-7.4c-1.9-0.2-3.9-0.3-5.5,0.5
		c-1.7,0.8-3,2.8-2.4,4.6c3.6,0.7,7.4,0.2,10.6-1.4c1.6,1.2,0.2,3.8-1.5,4.7c-1.7,1-4,1.5-4.8,3.3c2.8,0.6,5.8,0.3,8.3-1
		c-1.6,2.4-3.6,4.5-5.8,6.3c4.2,1.2,8.9,0.9,13-0.9c2.4-1.1,4.7-2.7,7.2-3.6c2.6-0.9,5.4-1.1,8.1-1.2c13.2-0.7,26.6-2.4,39.7-1.7
		c-6.6,2.9-13,6.3-19.1,10c8.3,0.7,16.6,1.7,24.9,3.2c-5.1,3.3-10.3,6.3-15.8,8.9c7,0.4,13.9,0.8,20.9,1.2
		c-6.3,2.6-12.5,5.2-18.8,7.9c5.6-0.3,11.2,0,16.7,0.8c-6.4,4.3-13.2,8.2-20.1,11.5c7.9-0.1,15.8,0.3,23.7,1.1
		c-4.6,2.1-9.3,4.1-13.9,6.2c-4.7,2.1-9.5,4.3-13.6,7.5c7.6,0.2,15.3,0.5,22.9,0.7c-7.1,3.5-14.2,6.9-21.4,10.4
		c7.7,0.9,15.4,2,23.1,3.5c-6.5,3.7-13,7.4-19.4,11.1c8,1.5,16.2,2.4,24.3,2.8c-5.4,2.7-10.7,5.3-16.1,8c8.3,0.1,16.7,0.2,25,0.4
		c-7,5.1-14,10.2-20.9,15.3c10.8,0.6,21.7,1.3,32.5,1.9c-11.5,4-23.1,8-34.6,12c9.4,1,18.9,0.8,28.3-0.5c4.4-0.7,9.4-1.5,13,1.2"/>
</g>
</svg>
