<?xml version="1.0" encoding="utf-8"?>
<!-- Generator: Adobe Illustrator 19.2.1, SVG Export Plug-In . SVG Version: 6.00 Build 0)  -->
<svg version="1.0" xmlns="http://www.w3.org/2000/svg" xmlns:xlink="http://www.w3.org/1999/xlink" x="0px" y="0px" width="288px"
	 height="288px" viewBox="0 0 288 288" enable-background="new 0 0 288 288" xml:space="preserve">
<g id="Layer_2">
	<path fill="#27AAE1" d="M113,24.5c0,0-14.8,28.7,3.1,41.5c0,0-15.1-2.4-14.1-21.9S113,24.5,113,24.5z"/>
	<path fill="#27AAE1" d="M99.7,71c0.5,1.8,0,63.3,0,63.3l21.3,5.5h-19L94.2,246L88,264.3l-13.2-3.5L91.2,246l1.3-107.8l-1.3-1.5
		l3-65.9L99.7,71z"/>
	<polygon fill="#27AAE1" points="120,139.9 121,246 142,255.3 130.2,266.1 118.3,247.5 112.8,139.8 	"/>
	<path fill="#27AAE1" d="M93.7,80.6c0,0-20.6,25-16.9,59.3H79c0,0,2.1-39.4,14.2-46.9L93.7,80.6z"/>
</g>
<g id="Layer_1">
	<ellipse fill="none" stroke="#000000" stroke-width="2" stroke-miterlimit="10" cx="116.1" cy="45.2" rx="14.1" ry="20.8"/>
	<path fill="none" stroke="#000000" stroke-width="2" stroke-miterlimit="10" d="M104.4,28.4c0,0,14.3,1.6,21.5-2.1"/>
	<path fill="none" stroke="#000000" stroke-width="2" stroke-miterlimit="10" d="M102,32.5c0,0,17.5,3.5,27-1.8"/>
	<path fill="none" stroke="#000000" stroke-width="2" stroke-miterlimit="10" d="M99.7,36c0,0,16.9,4.8,30.5,0"/>
	<line fill="none" stroke="#000000" stroke-width="2" stroke-miterlimit="10" x1="108.5" y1="62.2" x2="107.5" y2="71.3"/>
	<line fill="none" stroke="#000000" stroke-width="2" stroke-miterlimit="10" x1="118.5" y1="65.7" x2="118.5" y2="71.3"/>
	<path fill="none" stroke="#000000" stroke-width="2" stroke-miterlimit="10" d="M94.2,70.9c0,0,27.2,0.5,33.9,1.9v66.7
		c0,0-25.6,1.6-36.9-1.6L94.2,70.9z"/>
	<path fill="none" stroke="#000000" stroke-width="2" stroke-miterlimit="10" d="M94.2,70.9c0,0-26.6,14-20.5,69H79
		c0,0,2.8-38.5,14.3-48.6"/>
	<polygon fill="none" stroke="#000000" stroke-width="2" stroke-miterlimit="10" points="72.8,140.7 80.2,139.9 86.6,146.2 
		83.5,149.5 86.6,157.8 71.3,155.2 	"/>
	<line fill="none" stroke="#000000" stroke-width="2" stroke-miterlimit="10" x1="74.8" y1="103.3" x2="83.5" y2="109.7"/>
	<path fill="none" stroke="#000000" stroke-width="2" stroke-miterlimit="10" d="M128.1,72.8c1.4-0.2,41.9,2.8,58.4,5.3v5.5
		l-58.4,2.8"/>
	<path fill="none" stroke="#000000" stroke-width="2" stroke-miterlimit="10" d="M186.5,83.6l3.5,7c0,0,4.5-0.5,4.5-1.1s0-5.9,0-5.9
		l15-1.5v-6.2l-23,2.2"/>
	<polyline fill="none" stroke="#000000" stroke-width="2" stroke-miterlimit="10" points="92.5,138.3 91.2,246 96.8,246 
		111.1,139.9 112.8,139.9 118.3,246 124.1,246 127.1,139.6 	"/>
	<polyline fill="none" stroke="#000000" stroke-width="2" stroke-miterlimit="10" points="91.2,246 76.8,258.1 91.2,262.6 96.8,246 
			"/>
	<polyline fill="none" stroke="#000000" stroke-width="2" stroke-miterlimit="10" points="118.3,246 130.8,262.6 144,252.7 
		124.1,246 	"/>
	<polygon fill="none" stroke="#000000" stroke-width="2" stroke-miterlimit="10" points="185.2,111.6 210,94.2 219.2,106.4 
		193.3,124.9 	"/>
	<polyline fill="none" stroke="#000000" stroke-width="2" stroke-miterlimit="10" points="195.7,110.5 193.2,110.5 190.7,112.2 
		192.3,115 196.6,113.2 198.6,115.5 197,116.5 193.2,118 	"/>
	<polyline fill="none" stroke="#000000" stroke-width="2" stroke-miterlimit="10" points="210.2,100.2 207.7,100.5 205.4,102.4 
		207.3,105.1 211.4,102.7 213.6,104.8 212.1,105.9 208.6,108 	"/>
	<line fill="none" stroke="#000000" stroke-width="2" stroke-miterlimit="10" x1="192.4" y1="109.5" x2="196.8" y2="118.9"/>
	<line fill="none" stroke="#000000" stroke-width="2" stroke-miterlimit="10" x1="206.7" y1="99.5" x2="212.3" y2="108.4"/>
</g>
<g id="Layer_3">
	<path opacity="0" fill="none" stroke="#27AAE1" stroke-width="25" stroke-miterlimit="10" d="M100.6,27.8c4.5-0.1,8.9-0.2,13.4-0.4
		c-4.3,4.1-9.3,7.5-14.7,10.1c3.6,0.5,7.3,0.9,10.9,1.4c-5.9,4-12,7.6-18.4,10.7c4.1-1,8.3-1.2,12.5-0.6c-3.1,2.9-6.5,5.4-10.3,7.5
		c6.8,0.2,13.6,1.4,20.1,3.6c-10.1,3-20.1,6-30.2,9c8.1,1,16.1,2,24.2,3c-10.1,2-19.8,6.1-28.3,12c8.6,0.1,17.1,0.6,25.6,1.3
		c-10.2,4.8-19.8,10.9-28.5,18.1c8.9-0.1,17.8,0.2,26.6,1.1c-7.8,4.8-16.3,8.4-25.2,10.8c6-0.3,12.1,0.3,17.9,1.6
		c-12,4.3-24,8.6-36,13c20.8,0.4,41.5,0.9,62.3,1.3c-12.9,5.4-26.9,7.5-40.8,9.5c13.2,3.5,26.6,6.2,40,8.2
		c-10.3,2.8-20.7,5.2-31.1,7.1c12.1,0.8,24.2,1.9,36.2,3.4c-14.5,5.3-29.5,9.5-44.7,12.5c16.4,1.9,32.7,3.8,49.1,5.7
		c-13.2,6.3-27.4,10.5-42,12.2c13.3,2.6,26.6,5.2,39.5,9.3c-15,1.9-30,3.8-45,5.7c12.6,2.1,25.3,4.3,37.9,6.4
		c-13.7,1.7-27.5,3.5-41.2,5.2c-2.4,0.3-5.5,1.4-5.3,3.9c16.5,1.3,33,2.5,49.4,3.8c-11.8,9-30.4,4-41.8,13.5
		c17.1,0.3,34.2,0.6,51.3,1c-16,4.7-32.2,8.9-48.6,12.4c19.1-1.2,38.3-1.2,57.4,0.3c-16.5,6.1-35.7,1.2-52.1,7.7
		c17.8-0.5,35.6-1,53.4-1.5"/>
</g>
</svg>
