<?xml version="1.0" encoding="utf-8"?>
<!-- Generator: Adobe Illustrator 21.0.0, SVG Export Plug-In . SVG Version: 6.00 Build 0)  -->
<!DOCTYPE svg PUBLIC "-//W3C//DTD SVG 1.0//EN" "http://www.w3.org/TR/2001/REC-SVG-20010904/DTD/svg10.dtd">
<svg version="1.0" id="Layer_1" xmlns="http://www.w3.org/2000/svg" xmlns:xlink="http://www.w3.org/1999/xlink" x="0px" y="0px"
	 width="288px" height="288px" viewBox="0 0 288 288" enable-background="new 0 0 288 288" xml:space="preserve">
<path fill="#FFFFFF" stroke="#000000" stroke-width="2" stroke-miterlimit="10" d="M200.9,148.9c0,0-0.7-5.5-3.2-13.4
	c-6.1-19.4-22.7-52.9-65.3-51.9c-59.8,1.4-61.3,65.3-61.3,65.3c0.5,0,9.6,2.3,9.6,2.3l12.8-2.3h8.4l7.6,1.1l3.3-1.1h10.5h12l8.8,1.1
	l17.5-5.7l15.3,5.8l8.7-1.2h14.6L200.9,148.9L200.9,148.9z"/>
<path fill="none" stroke="#000000" stroke-width="2" stroke-miterlimit="10" d="M87.7,103.7l4.7-0.9c0,0,4.2,0.5,4.8,0.9
	c0.6,0.4,5.3-1.6,5.3-1.6l5.8,0.8l6.7-0.8l6.6-3.3h6.8l4.3,5.5c0,0-0.5,0.9-1.1,4s-0.6,3-0.6,3l-0.1,4.3l6.2-1.9l7-5.4l7.4-0.4
	l0.8,3l-2.3,3.8l5,5.8l2.3,8.1l-12,1.1l-1.2,7.6l-4.4,1.4l-6,3l0.8,7.2"/>
<polyline fill="none" stroke="#000000" stroke-width="2" stroke-miterlimit="10" points="80.7,113 84.7,119.4 83.9,123.2 
	77.2,125.5 77.2,135.5 81.9,142.6 86.4,141.3 86.4,137.8 91.1,137.8 91.1,141.9 94.3,148.9 "/>
<polyline fill="none" stroke="#000000" stroke-width="2" stroke-miterlimit="10" points="168.9,93.6 167.9,100.4 169.6,107.4 
	179.4,110.6 184.2,108.5 "/>
<polyline fill="none" stroke="#000000" stroke-width="2" stroke-miterlimit="10" points="197.7,135.5 191.9,137.4 183.9,148.9 "/>
</svg>
