<?xml version="1.0" encoding="utf-8"?>
<!-- Generator: Adobe Illustrator 21.0.0, SVG Export Plug-In . SVG Version: 6.00 Build 0)  -->
<!DOCTYPE svg PUBLIC "-//W3C//DTD SVG 1.0//EN" "http://www.w3.org/TR/2001/REC-SVG-20010904/DTD/svg10.dtd">
<svg version="1.0" id="Layer_1" xmlns="http://www.w3.org/2000/svg" xmlns:xlink="http://www.w3.org/1999/xlink" x="0px" y="0px"
	 width="288px" height="288px" viewBox="0 0 288 288" enable-background="new 0 0 288 288" xml:space="preserve">
<g id="Layer_1_1_">
	<path fill="none" stroke="#000000" stroke-width="2" stroke-miterlimit="10" d="M154.5,89.1c8.8,10.6,14.7,30.5,14.7,41.9
		c0,36.4-28.7,65.9-64.1,65.9S40.9,167.4,40.9,131S69.6,65.1,105,65.1C124.9,65.1,142.7,74.4,154.5,89.1"/>
	<path fill="none" stroke="#000000" stroke-width="2" stroke-miterlimit="10" d="M59.3,85.7l3.3-0.9c0,0,1.8,0.8,2.7,0.9
		c0.9,0.2,4.4,0.2,5-0.5c0.6-0.6,2-1.7,2.7-1.7c0.8,0,2.4-0.3,3.3,0s3.2-0.4,4.4-0.1c1.2,0.3,5.9,0.6,7.1-0.1s4.9-2.4,4.9-2.4h2.7
		c0,0,3.8,1.9,4.6,2.4c0.8,0.5,2.3,2.9,2,3.7c-0.3,0.8-1.2,4-1.2,4l-0.2,5l1.4,0.9l4.8-1.7l4.7-2.7l3.8-2.3l5.3-0.5l1.1,1.1v2.6
		l-2.7,3.5l0.8,2.4l3.5,3.5l1.1,2.4l2,3.2v2.3h-2.3H121h-3.8h-2.4c0,0-0.8,3.2-0.9,3.8c-0.1,0.5-0.3,3.1-0.3,3.9"/>
	<path fill="none" stroke="#000000" stroke-width="2" stroke-miterlimit="10" d="M68.1,131.3C68,131.1,68,131,68,131h-2.3
		c0,0-2.6-0.2-2.7-0.6c-0.2-0.5-1.1-2.7-1.1-2.7l-2.6-5.3v-2.6c0,0-4,0-4,0.5s2,3.2,0,3.6c-2,0.5-3,2.3-3.8,1.4s-3.3-4.7-3.3-4.7
		s-2.1-3.6-2.1-4.4s1.2-9.9,1.7-10s4.9-2.3,4.9-2.3s2.1-2.7,1.5-3s-3.6-4.5-3.6-4.5"/>
	<path fill="none" stroke="#000000" stroke-width="2" stroke-miterlimit="10" d="M137.6,75c0,0,1.2,7.9,1.2,8.5s-0.3,4.7,0.9,6.1
		s3.8,2.1,4.4,2.1c0.6,0,1.4,0.2,2.6,0c1.2-0.2,1.8,0.3,2.7,0.1c0.9-0.2,3.3-0.5,4.1-0.5s2.7,0.1,2.7,0.1"/>
	<path fill="none" stroke="#000000" stroke-width="2" stroke-miterlimit="10" d="M137.3,142.2l-57,6.8c-6,0.7-11.5-3.6-12.2-9.6
		l-0.6-4.7c-0.7-6,3.6-11.5,9.6-12.2l57-6.8c6-0.7,11.5,3.6,12.2,9.6l0.6,4.7C147.6,135.9,143.3,141.4,137.3,142.2z"/>
	<path fill="none" stroke="#000000" stroke-width="2" stroke-miterlimit="10" d="M120.7,144.4c0.4,1.1,1,2.1,1.1,2.3
		c0.3,0.5,3.2,3,3.8,3s4.6,1.4,4.6,1.4l4.4,1.2l1.5,2.6v4.7L135,162l-1.7,4.3l-1.8,4.1c0,0,0.2,3-0.2,4.4c-0.3,1.4,1.7,0.5-0.6,3
		c-2.3,2.6-3.8,4.1-4.3,5s-3.2,4.3-3.2,4.3l-3,1.5l-4.9,0.9l-3.2-0.8l-3-3.2c0,0-2.6-2.6-2.3-4.9c0.3-2.3,0.5-2.7,0.6-3.6
		c0.2-0.9,0.3-2.3,0.2-4.9s-0.5-4.4-0.5-4.4l-0.6-2.1l-3.5-1.7l-0.9-0.5l-3.6-2.6l-0.2-2.3l-0.7-2.4l-1.1-2.6l-4.1-3l-4.9-2
		c0,0-2.2-0.2-3.8-0.3"/>
	<path fill="none" stroke="#000000" stroke-width="2" stroke-miterlimit="10" d="M96.2,147.1c1.6,1.7,4.5,4.1,4.8,4.1
		c0.5,0,3.3-0.6,3.3-1.4s-0.8-2-0.2-3.8v-0.1"/>
	<path fill="none" stroke="#000000" stroke-width="2" stroke-miterlimit="10" d="M168.1,117.3c0,0-4.8,1.4-5.3,1.8s-2.6,4.4-2.6,4.4
		l-4.1,5.6c0,0-2.6,2.6-2.6,3.5s0,5.3,0,5.3v5.3l2,4.1c0,0,1.8,1.4,2.3,2.4c0.5,1.1,0.8,3.8,0.8,3.8s-0.2,3,0,3.5s3.6,3.8,3.6,3.8"
		/>
	<path fill="none" stroke="#000000" stroke-width="2" stroke-miterlimit="10" d="M40.9,128.5l11,4.9c0,0,11.3-0.8,16.1-1.1"/>
	<path fill="none" stroke="#000000" stroke-width="2" stroke-miterlimit="10" d="M145.5,134.6c0.9,0.4,1.4,0.7,1.4,0.7l14.4-5.3
		l7.7-2.2"/>
	<line fill="none" stroke="#000000" stroke-width="2" stroke-miterlimit="10" x1="92.7" y1="120.6" x2="95.9" y2="147.1"/>
	<line fill="none" stroke="#000000" stroke-width="2" stroke-miterlimit="10" x1="120" y1="144.2" x2="120" y2="117.3"/>
	
		<ellipse transform="matrix(0.9929 -0.119 0.119 0.9929 -15.4258 9.8543)" fill="none" stroke="#000000" stroke-width="2" stroke-miterlimit="10" cx="74.8" cy="134.1" rx="2.1" ry="2.1"/>
	
		<ellipse transform="matrix(0.9929 -0.119 0.119 0.9929 -16.1794 11.0336)" fill="none" stroke="#000000" stroke-width="2" stroke-miterlimit="10" cx="84.3" cy="141" rx="2" ry="2"/>
	
		<ellipse transform="matrix(0.9929 -0.119 0.119 0.9929 -14.9541 11.1639)" fill="none" stroke="#000000" stroke-width="2" stroke-miterlimit="10" cx="86" cy="130.8" rx="2.9" ry="2.9"/>
	
		<ellipse transform="matrix(0.9929 -0.119 0.119 0.9929 -13.8751 16.0318)" fill="none" stroke="#000000" stroke-width="2" stroke-miterlimit="10" cx="127.3" cy="124.2" rx="2.1" ry="2.1"/>
	
		<ellipse transform="matrix(0.9929 -0.119 0.119 0.9929 -15.3395 16.321)" fill="none" stroke="#000000" stroke-width="2" stroke-miterlimit="10" cx="129" cy="136.6" rx="2.4" ry="2.4"/>
	
		<ellipse transform="matrix(0.9929 -0.119 0.119 0.9929 -14.3417 17.4205)" fill="none" stroke="#000000" stroke-width="2" stroke-miterlimit="10" cx="138.7" cy="128.8" rx="2.4" ry="2.4"/>
</g>
</svg>
