<?xml version="1.0" encoding="utf-8"?>
<!-- Generator: Adobe Illustrator 21.0.0, SVG Export Plug-In . SVG Version: 6.00 Build 0)  -->
<!DOCTYPE svg PUBLIC "-//W3C//DTD SVG 1.0//EN" "http://www.w3.org/TR/2001/REC-SVG-20010904/DTD/svg10.dtd">
<svg version="1.0" id="Layer_1" xmlns="http://www.w3.org/2000/svg" xmlns:xlink="http://www.w3.org/1999/xlink" x="0px" y="0px"
	 width="432px" height="432px" viewBox="0 0 432 432" enable-background="new 0 0 432 432" xml:space="preserve">
<polygon fill="none" stroke="#000000" stroke-width="6" stroke-miterlimit="10" points="156.7,58 270.4,22.8 305.3,52.6 
	279.3,121.3 321.3,132.6 279.3,231.3 312.2,235.1 181.6,409.5 156.7,384 177.4,291.4 137.7,312.3 110.7,287.3 148.7,216 
	112.1,190.3 "/>
<polyline fill="none" stroke="#000000" stroke-width="6" stroke-miterlimit="10" points="305.3,52.6 196.7,89.8 148.7,216 
	202.7,190.3 137.9,310.9 "/>
<polyline fill="none" stroke="#000000" stroke-width="6" stroke-miterlimit="10" points="176.1,292.1 211.8,273.6 181.6,409.5 "/>
<polyline fill="none" stroke="#000000" stroke-width="6" stroke-miterlimit="10" points="279.3,121.3 265.9,154.7 321.3,132.6 "/>
<line fill="none" stroke="#000000" stroke-width="6" stroke-miterlimit="10" x1="156.7" y1="58" x2="196.7" y2="89.8"/>
<polyline fill="none" stroke="#000000" stroke-width="6" stroke-miterlimit="10" points="279.3,231.3 269.9,252.1 312.2,235.1 "/>
</svg>
