<?xml version="1.0" encoding="utf-8"?>
<!-- Generator: Adobe Illustrator 21.0.0, SVG Export Plug-In . SVG Version: 6.00 Build 0)  -->
<!DOCTYPE svg PUBLIC "-//W3C//DTD SVG 1.0//EN" "http://www.w3.org/TR/2001/REC-SVG-20010904/DTD/svg10.dtd">
<svg version="1.0" id="Layer_1" xmlns="http://www.w3.org/2000/svg" xmlns:xlink="http://www.w3.org/1999/xlink" x="0px" y="0px"
	 width="288px" height="288px" viewBox="0 0 288 288" enable-background="new 0 0 288 288" xml:space="preserve">
<ellipse transform="matrix(0.2981 -0.9545 0.9545 0.2981 -12.8308 218.4151)" fill="none" stroke="#000000" stroke-width="2" stroke-miterlimit="10" cx="142.1" cy="117.9" rx="15" ry="10.6"/>
<path fill="none" stroke="#000000" stroke-width="2" stroke-miterlimit="10" d="M149.7,126.5c3.6,5.5,5.9,11.9,7.8,18.1
	c2.1,7.2,3.5,14.5,4.3,22c0.4,3.6,1.9,9.9,0.7,13.3c-1.1,3.3-6,4.6-8.8,6.6c-0.4,0.3-0.8,0.6-1.3,0.6c-1,0-1.4-1.3-1.6-2.2
	c-0.4,1.2-1.7,2.1-2.9,2c-0.4,0-0.9-0.2-1.3-0.1c-1.6,0.1-2.3,2.2-3.9,2.6c-1-1.3-1.9-2.7-2.9-4c-0.2-0.3-0.4-0.5-0.7-0.6
	c-0.3,0-0.6,0.2-0.9,0.4c-1.4,1.2-2.7,2.5-4.1,3.7c-0.6-0.4-0.7-1.2-0.9-2c-0.2-0.7-0.7-1.5-1.5-1.4c-0.7,0.1-0.9,1.1-1.4,1.7
	c-0.5,0.7-1.6,0.9-2.4,0.6c0.9-3.1-0.5-5.3,0-7.8c0.3-1.8,1.9-4,2.6-5.7c3-7.5,4.8-15.4,5.5-23.5"/>
<path fill="none" stroke="#000000" stroke-width="2" stroke-miterlimit="10" d="M136.1,138.7c-0.2-2.5-0.4-5.1-0.9-7.8"/>
<path fill="none" stroke="#000000" stroke-width="2" stroke-miterlimit="10" d="M150.2,135.9c0,0-24.3,11.3-41.5-14"/>
<path fill="none" stroke="#000000" stroke-width="2" stroke-miterlimit="10" d="M135.5,132.5c-11.3,4-25.4-11.2-25.4-11.2l1.8-11.9
	l-3.2-3.9v9.3l-2.5-4.9l-4.5-6l-9.7,2.5c0,0,0.3,2.8,0.5,5.3l3,6.8l7.5,5.2c4.3,8.7,19.2,33.9,43.2,25.2"/>
<path fill="none" stroke="#000000" stroke-width="2" stroke-miterlimit="10" d="M140.4,184.3l-13,22.6c0,0,33.5,1.5,54.5-15.5v-3.8
	l-29,4l9.5-10.8"/>
<path fill="none" stroke="#000000" stroke-width="2" stroke-miterlimit="10" d="M128.8,182.4l-13.5,15.3c0,0,5.2,5,15,4.1"/>
<path fill="none" stroke="#000000" stroke-width="2" stroke-miterlimit="10" d="M179.6,187.9c-0.1-1.1,1.4-5.6,1.4-5.6l18.8,9.8
	l-14,3.1l-4.9-3.1"/>
<polyline fill="none" stroke="#000000" stroke-width="2" stroke-miterlimit="10" points="120.3,145.3 120.3,140.1 124.8,140.1 
	124.8,135.9 127.9,132.7 "/>
</svg>
