<?xml version="1.0" encoding="utf-8"?>
<!-- Generator: Adobe Illustrator 21.0.0, SVG Export Plug-In . SVG Version: 6.00 Build 0)  -->
<!DOCTYPE svg PUBLIC "-//W3C//DTD SVG 1.0//EN" "http://www.w3.org/TR/2001/REC-SVG-20010904/DTD/svg10.dtd">
<svg version="1.0" id="Layer_1" xmlns="http://www.w3.org/2000/svg" xmlns:xlink="http://www.w3.org/1999/xlink" x="0px" y="0px"
	 width="288px" height="288px" viewBox="0 0 288 288" enable-background="new 0 0 288 288" xml:space="preserve">
<path fill="none" stroke="#000000" stroke-width="2" stroke-miterlimit="10" d="M125,50.7c0,11.4,6.2,20.6,13.8,20.6
	c1.3,0,2.6-0.3,3.8-0.8c5.8-2.5,10-10.4,10-19.8c0-11.4-6.2-20.6-13.8-20.6S125,39.3,125,50.7z"/>
<line fill="none" stroke="#000000" stroke-width="2" stroke-miterlimit="10" x1="142.8" y1="77.9" x2="142.6" y2="70.5"/>
<line fill="none" stroke="#000000" stroke-width="2" stroke-miterlimit="10" x1="135" y1="70.5" x2="135" y2="77.8"/>
<path fill="none" stroke="#000000" stroke-width="2" stroke-miterlimit="10" d="M157.2,79.2c0,0-20.2-3-36.7,0l4.5,62.5l27.7-1.5
	L157.2,79.2z"/>
<path fill="none" stroke="#000000" stroke-width="2" stroke-miterlimit="10" d="M112.7,64c0,0-15,8.7-21,17c0,0,6.7,13,29.7,11.8"/>
<path fill="none" stroke="#000000" stroke-width="2" stroke-miterlimit="10" d="M109.3,77.1c0,0,6,2.8,11.1,2.1"/>
<path fill="none" stroke="#000000" stroke-width="2" stroke-miterlimit="10" d="M120.5,64c-1.2,0.7-21.8,23.8-21.8,23.8"/>
<polygon fill="none" stroke="#000000" stroke-width="2" stroke-miterlimit="10" points="114.8,42.6 119.1,42.6 119.7,53.9 
	122.5,51.1 125,52.5 120.5,64 112.7,64 109.7,52 "/>
<path fill="none" stroke="#000000" stroke-width="2" stroke-miterlimit="10" d="M157.2,79.2c0,0,7,47.2,22.8,55.7l-2.8,5.5
	c0,0-15.6-5.5-22.6-27.3"/>
<line fill="none" stroke="#000000" stroke-width="2" stroke-miterlimit="10" x1="166.4" y1="114.9" x2="160.2" y2="123.2"/>
<path fill="none" stroke="#000000" stroke-width="2" stroke-miterlimit="10" d="M181,134.9l11,5.5l4.2,12.2c0,0-4.3,2.5-4.8,2.5
	s-8.5-10.8-8.5-10.8l-1.8,5.2l-3.5-0.7l-0.2-8.3"/>
<polyline fill="none" stroke="#000000" stroke-width="2" stroke-miterlimit="10" points="152.6,140.2 149,241.2 142.2,241.2 
	138.8,141.7 133.7,242.9 127,242.6 125,141.7 "/>
<polyline fill="none" stroke="#000000" stroke-width="2" stroke-miterlimit="10" points="133.7,242.9 128.2,258.2 113.5,254.7 
	127,242.6 "/>
<polyline fill="none" stroke="#000000" stroke-width="2" stroke-miterlimit="10" points="149,241.2 166.4,247.7 150.5,253.5 
	142.2,241.2 "/>
</svg>
