<?xml version="1.0" encoding="utf-8"?>
<!-- Generator: Adobe Illustrator 21.0.0, SVG Export Plug-In . SVG Version: 6.00 Build 0)  -->
<!DOCTYPE svg PUBLIC "-//W3C//DTD SVG 1.0//EN" "http://www.w3.org/TR/2001/REC-SVG-20010904/DTD/svg10.dtd">
<svg version="1.0" id="Layer_1" xmlns="http://www.w3.org/2000/svg" xmlns:xlink="http://www.w3.org/1999/xlink" x="0px" y="0px"
	 width="288px" height="288px" viewBox="0 0 288 288" enable-background="new 0 0 288 288" xml:space="preserve">
<path fill="none" stroke="#000000" stroke-width="2" stroke-miterlimit="10" d="M128.4,49.6c0,11.4,6.2,20.6,13.8,20.6
	c1.3,0,2.6-0.3,3.8-0.8c5.8-2.5,10-10.4,10-19.8c0-11.4-6.2-20.6-13.8-20.6S128.4,38.3,128.4,49.6z"/>
<line fill="none" stroke="#000000" stroke-width="2" stroke-miterlimit="10" x1="146.2" y1="76.9" x2="146" y2="69.5"/>
<line fill="none" stroke="#000000" stroke-width="2" stroke-miterlimit="10" x1="138.4" y1="69.5" x2="138.4" y2="76.8"/>
<path fill="none" stroke="#000000" stroke-width="2" stroke-miterlimit="10" d="M160.6,78.1c0,0-20.2-3-36.7,0l4.5,62.5l27.7-1.5
	L160.6,78.1z"/>
<path fill="none" stroke="#000000" stroke-width="2" stroke-miterlimit="10" d="M123.9,78.1c0,0-15.7,29-15.5,71.5h6.7
	c0,0,1.6-26.8,10.8-43.3"/>
<polyline fill="none" stroke="#000000" stroke-width="2" stroke-miterlimit="10" points="115.1,149.7 118.2,156.9 115.1,159.1 
	113.1,156.6 110.5,166.9 106,170.1 107.7,149.7 "/>
<line fill="none" stroke="#000000" stroke-width="2" stroke-miterlimit="10" x1="120.6" y1="119" x2="113.1" y2="108.8"/>
<path fill="none" stroke="#000000" stroke-width="2" stroke-miterlimit="10" d="M160.6,78.1c0,0,7,47.2,22.8,55.7l-2.8,5.5
	c0,0-15.6-5.5-22.6-27.3"/>
<path fill="none" stroke="#000000" stroke-width="2" stroke-miterlimit="10" d="M184.4,133.9l11,5.5l4.2,12.2c0,0-4.3,2.5-4.8,2.5
	s-8.5-10.8-8.5-10.8l-1.8,5.2l-3.5-0.7l-0.2-8.3"/>
<line fill="none" stroke="#000000" stroke-width="2" stroke-miterlimit="10" x1="169.8" y1="113.9" x2="163.6" y2="122.2"/>
<polyline fill="none" stroke="#000000" stroke-width="2" stroke-miterlimit="10" points="156,139.2 152.4,240.2 145.6,240.2 
	142.2,140.7 137.1,241.9 130.4,241.6 128.4,140.7 "/>
<polyline fill="none" stroke="#000000" stroke-width="2" stroke-miterlimit="10" points="137.1,241.9 131.6,257.2 116.9,253.7 
	130.4,241.6 "/>
<polyline fill="none" stroke="#000000" stroke-width="2" stroke-miterlimit="10" points="152.4,240.2 169.8,246.7 153.9,252.4 
	145.6,240.2 "/>
<line fill="none" stroke="#000000" stroke-width="2" stroke-miterlimit="10" x1="162.4" y1="52.8" x2="177.1" y2="47.3"/>
<line fill="none" stroke="#000000" stroke-width="2" stroke-miterlimit="10" x1="163.6" y1="57.2" x2="180.3" y2="55.5"/>
<line fill="none" stroke="#000000" stroke-width="2" stroke-miterlimit="10" x1="162.4" y1="61.4" x2="174.4" y2="67.5"/>
</svg>
