<?xml version="1.0" encoding="utf-8"?>
<!-- Generator: Adobe Illustrator 19.2.1, SVG Export Plug-In . SVG Version: 6.00 Build 0)  -->
<svg version="1.0" id="Layer_1" xmlns="http://www.w3.org/2000/svg" xmlns:xlink="http://www.w3.org/1999/xlink" x="0px" y="0px"
	 width="432px" height="432px" viewBox="0 0 432 432" enable-background="new 0 0 432 432" xml:space="preserve">
<ellipse fill="none" stroke="#000000" stroke-width="2" stroke-miterlimit="10" cx="216.1" cy="97.2" rx="15.4" ry="24.5"/>
<polyline fill="none" stroke="#000000" stroke-width="2" stroke-miterlimit="10" points="221.1,120.4 221.1,127.4 211.7,127.4 
	211.7,120.6 "/>
<polygon fill="none" stroke="#000000" stroke-width="2" stroke-miterlimit="10" points="236.4,127.4 195,127.4 199.2,209.2 
	231.5,209.2 "/>
<polyline fill="none" stroke="#000000" stroke-width="2" stroke-miterlimit="10" points="195,127.4 179.3,165.5 182.8,216.1 
	189.1,216.1 191,169.9 196.4,154.4 "/>
<polyline fill="none" stroke="#000000" stroke-width="2" stroke-miterlimit="10" points="189,216 193.5,223.8 190,225.8 
	186.5,222.1 185.5,238.5 178.3,231.7 182.7,216 "/>
<line fill="none" stroke="#000000" stroke-width="2" stroke-miterlimit="10" x1="191" y1="169.9" x2="179.3" y2="165.5"/>
<polyline fill="none" stroke="#000000" stroke-width="2" stroke-miterlimit="10" points="236.1,127.4 251.9,165.5 248.4,216.1 
	242,216.1 240.1,169.9 234.8,154.4 "/>
<polyline fill="none" stroke="#000000" stroke-width="2" stroke-miterlimit="10" points="242.2,216 237.7,223.8 241.1,225.8 
	244.7,222.1 245.6,238.5 252.9,231.7 248.5,216 "/>
<line fill="none" stroke="#000000" stroke-width="2" stroke-miterlimit="10" x1="240.1" y1="169.9" x2="251.9" y2="165.5"/>
<polyline fill="none" stroke="#000000" stroke-width="2" stroke-miterlimit="10" points="231.5,209.2 228.9,345.7 222.2,345.7 
	215.4,209.2 207.9,345.7 200.2,345.7 199.2,209.2 "/>
<polyline fill="none" stroke="#000000" stroke-width="2" stroke-miterlimit="10" points="228.9,345.7 248.9,354.2 236.1,360.5 
	222.2,345.7 "/>
<polyline fill="none" stroke="#000000" stroke-width="2" stroke-miterlimit="10" points="207.9,345.7 197.1,360.5 184.1,354.1 
	200.2,345.7 "/>
</svg>
