<?xml version="1.0" encoding="utf-8"?>
<!-- Generator: Adobe Illustrator 19.2.1, SVG Export Plug-In . SVG Version: 6.00 Build 0)  -->
<svg version="1.0" id="Layer_1" xmlns="http://www.w3.org/2000/svg" xmlns:xlink="http://www.w3.org/1999/xlink" x="0px" y="0px"
	 width="432px" height="432px" viewBox="0 0 432 432" enable-background="new 0 0 432 432" xml:space="preserve">
<path fill="none" stroke="#000000" stroke-width="2" stroke-miterlimit="10" d="M50.1,103.7c0,0-18.9,5.2-21.8,18.5
	c-2.8,13.3-8,23.7-8,23.7S8.4,168.1,8.9,181.3c0.5,13.3,9.5,38.7,9.5,38.7s18.5,32.5,31.7,38.5c13.3,6,18.5,3.1,27,5.3
	s36.4,0,36.4,0s38.8,16.4,55.4,15.9s69.5-0.9,77.1,0s32.2,0,32.2,0s63.9-12.3,85.2-22.5c21.3-10.2,48.8-36.9,48.8-37.2
	c0-0.4,8.5-34.9,8.5-34.9s-5.2-36.8-10.9-45.6c-5.7-8.8-11.9-13.6-11.9-13.6l-15.5-19.4c0,0-27.9-30.3-51.1-32.7
	c-23.2-2.4-37.4-2.8-37.4-2.8h-37.4c0,0-32.1,2.4-32.9,2.8c-0.7,0.5-66.8-12.8-82.8-2.8s-26.4,11.4-26.4,11.4s-40.7,7.4-42.1,10.1
	C70.9,95.2,50.1,103.7,50.1,103.7z"/>
<path fill="none" stroke="#000000" stroke-width="2" stroke-miterlimit="10" d="M116.6,292.4c0,0,2.6-6.2,8.3-6.9
	c5.7-0.7,10.4-0.9,10.6,0s7.1,6.2,4.3,11.4c-2.8,5.2-6.9,8-6.9,8l-16.3-1.7V292.4z"/>
<path fill="none" stroke="#000000" stroke-width="2" stroke-miterlimit="10" d="M108.1,320.5c0,0-10.6-1.9-12.1,3.3
	c-1.4,5.2-1.9,11.6-1.7,12.3s8.3,5.2,11.6,4.7s8.5-3.5,8.5-3.5l2.1-6.8C116.6,330.5,115.6,320.5,108.1,320.5z"/>
<path fill="none" stroke="#000000" stroke-width="2" stroke-miterlimit="10" d="M85.1,354.6c0,0-11.1-1.9-12.5,5.7
	c-1.4,7.6,2.4,16.3,9,16.3s10.6-4.7,11.1-5.4c0.5-0.7,1.8-8.3,1.6-9.5C94.1,360.5,89.1,354.8,85.1,354.6z"/>
<ellipse fill="none" stroke="#000000" stroke-width="2" stroke-miterlimit="10" cx="86.7" cy="149" rx="11" ry="16.3"/>
<line fill="none" stroke="#000000" stroke-width="2" stroke-miterlimit="10" x1="82.6" y1="164.1" x2="82.6" y2="170.8"/>
<line fill="none" stroke="#000000" stroke-width="2" stroke-miterlimit="10" x1="90.3" y1="164.4" x2="90.3" y2="170.2"/>
<polyline fill="none" stroke="#000000" stroke-width="2" stroke-miterlimit="10" points="100.6,215.1 101.2,170.2 73.2,170.8 
	74.2,215.1 "/>
<polyline fill="none" stroke="#000000" stroke-width="2" stroke-miterlimit="10" points="101.2,170.2 113.5,197.9 114.8,215.1 "/>
<polyline fill="none" stroke="#000000" stroke-width="2" stroke-miterlimit="10" points="100.9,190.5 105.5,200.1 106.6,215.7 "/>
<line fill="none" stroke="#000000" stroke-width="2" stroke-miterlimit="10" x1="105.8" y1="200" x2="113.1" y2="197.9"/>
<polyline fill="none" stroke="#000000" stroke-width="2" stroke-miterlimit="10" points="72.9,170.2 60.6,197.9 59.3,215.1 "/>
<polyline fill="none" stroke="#000000" stroke-width="2" stroke-miterlimit="10" points="73.6,190.5 68.6,200.1 67.5,215.7 "/>
<line fill="none" stroke="#000000" stroke-width="2" stroke-miterlimit="10" x1="68.3" y1="200" x2="61" y2="197.9"/>
<ellipse fill="none" stroke="#000000" stroke-width="2" stroke-miterlimit="10" cx="151.3" cy="108.8" rx="11" ry="16.3"/>
<path fill="none" stroke="#000000" stroke-width="2" stroke-miterlimit="10" d="M139.9,130.7l-10.5-2.3l2.1-15.4
	c3.9-28.8,18.9-24.1,18.9-24.1l1.1,0.3l1.3-0.3c0,0,15-4.7,18.9,24.1l2.1,15.4l-10.5,1.7"/>
<line fill="none" stroke="#000000" stroke-width="2" stroke-miterlimit="10" x1="147.2" y1="124" x2="147.2" y2="130.7"/>
<line fill="none" stroke="#000000" stroke-width="2" stroke-miterlimit="10" x1="154.9" y1="124.3" x2="154.9" y2="130.1"/>
<polyline fill="none" stroke="#000000" stroke-width="2" stroke-miterlimit="10" points="166.4,176.7 163.4,159.9 165.8,130.1 
	137.8,130.7 141.2,159.9 137.5,176.7 "/>
<polyline fill="none" stroke="#000000" stroke-width="2" stroke-miterlimit="10" points="165.8,130.1 178.1,157.8 179.4,174.9 "/>
<polyline fill="none" stroke="#000000" stroke-width="2" stroke-miterlimit="10" points="164.2,148.3 170.1,160 171.2,175.6 "/>
<line fill="none" stroke="#000000" stroke-width="2" stroke-miterlimit="10" x1="170.4" y1="159.9" x2="177.7" y2="157.8"/>
<polyline fill="none" stroke="#000000" stroke-width="2" stroke-miterlimit="10" points="137.5,130.1 125.2,157.8 123.9,174.9 "/>
<polyline fill="none" stroke="#000000" stroke-width="2" stroke-miterlimit="10" points="139.9,147.7 133.2,160 132.1,175.6 "/>
<line fill="none" stroke="#000000" stroke-width="2" stroke-miterlimit="10" x1="132.9" y1="159.9" x2="125.6" y2="157.8"/>
<ellipse fill="none" stroke="#000000" stroke-width="2" stroke-miterlimit="10" cx="208.8" cy="178.4" rx="11" ry="16.3"/>
<line fill="none" stroke="#000000" stroke-width="2" stroke-miterlimit="10" x1="204.7" y1="193.6" x2="204.7" y2="200.3"/>
<line fill="none" stroke="#000000" stroke-width="2" stroke-miterlimit="10" x1="212.3" y1="193.9" x2="212.3" y2="199.7"/>
<polyline fill="none" stroke="#000000" stroke-width="2" stroke-miterlimit="10" points="222.6,244.5 223.3,199.7 195.2,200.3 
	196.3,244.5 "/>
<polyline fill="none" stroke="#000000" stroke-width="2" stroke-miterlimit="10" points="223.3,199.7 235.6,227.4 236.8,244.5 "/>
<polyline fill="none" stroke="#000000" stroke-width="2" stroke-miterlimit="10" points="223,220 227.5,229.6 228.6,245.2 "/>
<line fill="none" stroke="#000000" stroke-width="2" stroke-miterlimit="10" x1="227.8" y1="229.4" x2="235.2" y2="227.4"/>
<polyline fill="none" stroke="#000000" stroke-width="2" stroke-miterlimit="10" points="194.9,199.7 182.6,227.4 181.4,244.5 "/>
<polyline fill="none" stroke="#000000" stroke-width="2" stroke-miterlimit="10" points="195.7,220 190.7,229.6 189.6,245.2 "/>
<line fill="none" stroke="#000000" stroke-width="2" stroke-miterlimit="10" x1="190.4" y1="229.4" x2="183.1" y2="227.4"/>
<ellipse fill="none" stroke="#000000" stroke-width="2" stroke-miterlimit="10" cx="265" cy="110.5" rx="11" ry="16.3"/>
<path fill="none" stroke="#000000" stroke-width="2" stroke-miterlimit="10" d="M253.5,132.3L243,130l2.1-15.4
	c3.9-28.8,18.9-24.1,18.9-24.1l1.1,0.3l1.3-0.3c0,0,15-4.7,18.9,24.1l2.1,15.4l-10.5,1.7"/>
<line fill="none" stroke="#000000" stroke-width="2" stroke-miterlimit="10" x1="260.9" y1="125.7" x2="260.9" y2="132.3"/>
<line fill="none" stroke="#000000" stroke-width="2" stroke-miterlimit="10" x1="268.5" y1="125.9" x2="268.5" y2="131.7"/>
<polyline fill="none" stroke="#000000" stroke-width="2" stroke-miterlimit="10" points="280,178.4 277.1,161.5 279.5,131.7 
	251.4,132.3 254.8,161.5 251.1,178.4 "/>
<polyline fill="none" stroke="#000000" stroke-width="2" stroke-miterlimit="10" points="279.5,131.7 291.8,159.4 293,176.6 "/>
<polyline fill="none" stroke="#000000" stroke-width="2" stroke-miterlimit="10" points="277.9,150 283.7,161.6 284.8,177.2 "/>
<line fill="none" stroke="#000000" stroke-width="2" stroke-miterlimit="10" x1="284" y1="161.5" x2="291.3" y2="159.4"/>
<polyline fill="none" stroke="#000000" stroke-width="2" stroke-miterlimit="10" points="251.1,131.7 238.8,159.4 237.6,176.6 "/>
<polyline fill="none" stroke="#000000" stroke-width="2" stroke-miterlimit="10" points="253.5,149.3 246.9,161.6 245.8,177.2 "/>
<line fill="none" stroke="#000000" stroke-width="2" stroke-miterlimit="10" x1="246.6" y1="161.5" x2="239.2" y2="159.4"/>
<ellipse fill="none" stroke="#000000" stroke-width="2" stroke-miterlimit="10" cx="323.9" cy="149" rx="11" ry="16.3"/>
<line fill="none" stroke="#000000" stroke-width="2" stroke-miterlimit="10" x1="319.8" y1="164.1" x2="319.8" y2="170.8"/>
<line fill="none" stroke="#000000" stroke-width="2" stroke-miterlimit="10" x1="327.4" y1="164.4" x2="327.4" y2="170.2"/>
<polyline fill="none" stroke="#000000" stroke-width="2" stroke-miterlimit="10" points="337.7,215.1 338.4,170.2 310.3,170.8 
	311.4,215.1 "/>
<polyline fill="none" stroke="#000000" stroke-width="2" stroke-miterlimit="10" points="338.4,170.2 350.7,197.9 351.9,215.1 "/>
<polyline fill="none" stroke="#000000" stroke-width="2" stroke-miterlimit="10" points="338.1,190.5 342.6,200.1 343.7,215.7 "/>
<line fill="none" stroke="#000000" stroke-width="2" stroke-miterlimit="10" x1="342.9" y1="200" x2="350.2" y2="197.9"/>
<polyline fill="none" stroke="#000000" stroke-width="2" stroke-miterlimit="10" points="310,170.2 297.7,197.9 296.5,215.1 "/>
<polyline fill="none" stroke="#000000" stroke-width="2" stroke-miterlimit="10" points="310.8,190.5 305.8,200.1 304.7,215.7 "/>
<line fill="none" stroke="#000000" stroke-width="2" stroke-miterlimit="10" x1="305.5" y1="200" x2="298.1" y2="197.9"/>
</svg>
