<?xml version="1.0" encoding="utf-8"?>
<!-- Generator: Adobe Illustrator 21.0.0, SVG Export Plug-In . SVG Version: 6.00 Build 0)  -->
<!DOCTYPE svg PUBLIC "-//W3C//DTD SVG 1.0//EN" "http://www.w3.org/TR/2001/REC-SVG-20010904/DTD/svg10.dtd">
<svg version="1.0" id="Layer_1" xmlns="http://www.w3.org/2000/svg" xmlns:xlink="http://www.w3.org/1999/xlink" x="0px" y="0px"
	 width="648px" height="432px" viewBox="0 0 648 432" enable-background="new 0 0 648 432" xml:space="preserve">
<polyline fill="none" stroke="#000000" stroke-width="2" stroke-miterlimit="10" points="431.3,185 399.3,162.8 360.3,154.3 
	332.3,143.7 289.9,133.3 260.8,133.3 257.3,141.7 267.8,151.3 300.8,167.8 344.3,185 378.3,185 411.3,199.8 "/>
<polyline fill="none" stroke="#000000" stroke-width="2" stroke-miterlimit="10" points="257.3,141.7 271.8,185 271.8,194.5 
	257.3,216.8 259.8,238.8 239.8,251.8 218.3,298.8 "/>
<polyline fill="none" stroke="#000000" stroke-width="2" stroke-miterlimit="10" points="280.6,157.7 280.6,186.6 295.1,220.3 
	286.5,242.3 274,248.6 269.3,296.6 "/>
<polyline fill="none" stroke="#000000" stroke-width="2" stroke-miterlimit="10" points="315.6,291.6 312.6,257.6 327.3,242.3 
	320.3,207 329.7,196.8 329.7,179.2 "/>
<path fill="none" stroke="#000000" stroke-width="2" stroke-miterlimit="10" d="M359.2,211.1v22.5c0,0-12.5,2.8-12.5,4
	s-9.5,26.5-9.5,26.5"/>
</svg>
