<?xml version="1.0" encoding="utf-8"?>
<!-- Generator: Adobe Illustrator 21.0.0, SVG Export Plug-In . SVG Version: 6.00 Build 0)  -->
<!DOCTYPE svg PUBLIC "-//W3C//DTD SVG 1.0//EN" "http://www.w3.org/TR/2001/REC-SVG-20010904/DTD/svg10.dtd">
<svg version="1.0" id="Layer_2_1_" xmlns="http://www.w3.org/2000/svg" xmlns:xlink="http://www.w3.org/1999/xlink" x="0px" y="0px"
	 width="249.7px" height="133.3px" viewBox="0 0 249.7 133.3" enable-background="new 0 0 249.7 133.3" xml:space="preserve">
<line fill="none" stroke="#000000" stroke-width="2" stroke-miterlimit="10" x1="11.6" y1="50.6" x2="241.6" y2="50.6"/>
<g>
	<polygon fill="none" stroke="#000000" stroke-width="2" stroke-miterlimit="10" points="32.2,15.3 40,42.8 24.3,42.8 	"/>
	<line fill="none" stroke="#000000" stroke-width="2" stroke-miterlimit="10" x1="32.2" y1="42.8" x2="32.2" y2="51"/>
</g>
<g>
	<polygon fill="none" stroke="#000000" stroke-width="2" stroke-miterlimit="10" points="124,25.4 129.7,45.1 118.4,45.1 	"/>
	<line fill="none" stroke="#000000" stroke-width="2" stroke-miterlimit="10" x1="124" y1="45.1" x2="124" y2="51"/>
</g>
<g>
	<polygon fill="none" stroke="#000000" stroke-width="2" stroke-miterlimit="10" points="153.6,14.6 161.5,41.9 145.7,41.9 	"/>
	<line fill="none" stroke="#000000" stroke-width="2" stroke-miterlimit="10" x1="153.6" y1="41.9" x2="153.6" y2="50.1"/>
</g>
<g>
	<polygon fill="none" stroke="#000000" stroke-width="2" stroke-miterlimit="10" points="88.7,74.7 100.2,114.9 77.1,114.9 	"/>
	<line fill="none" stroke="#000000" stroke-width="2" stroke-miterlimit="10" x1="88.7" y1="114.9" x2="88.7" y2="126.9"/>
</g>
<g>
	<polygon fill="none" stroke="#000000" stroke-width="2" stroke-miterlimit="10" points="135.6,57.5 149,104 122.2,104 	"/>
	<line fill="none" stroke="#000000" stroke-width="2" stroke-miterlimit="10" x1="135.6" y1="104" x2="135.6" y2="117.9"/>
</g>
<g>
	<polygon fill="none" stroke="#000000" stroke-width="2" stroke-miterlimit="10" points="176.8,59.6 186.1,92.2 167.4,92.2 	"/>
	<line fill="none" stroke="#000000" stroke-width="2" stroke-miterlimit="10" x1="176.8" y1="92.2" x2="176.8" y2="101.9"/>
</g>
<g>
	<polygon fill="none" stroke="#000000" stroke-width="2" stroke-miterlimit="10" points="203.4,59.2 210.8,84.9 196,84.9 	"/>
	<line fill="none" stroke="#000000" stroke-width="2" stroke-miterlimit="10" x1="203.4" y1="84.9" x2="203.4" y2="92.6"/>
</g>
<g>
	<polygon fill="none" stroke="#000000" stroke-width="2" stroke-miterlimit="10" points="61.7,53.8 70.9,85.9 52.4,85.9 	"/>
	<line fill="none" stroke="#000000" stroke-width="2" stroke-miterlimit="10" x1="61.7" y1="85.9" x2="61.7" y2="95.6"/>
</g>
<g>
	<polygon fill="none" stroke="#000000" stroke-width="2" stroke-miterlimit="10" points="81.2,25.8 87.6,48 74.8,48 	"/>
	<line fill="none" stroke="#000000" stroke-width="2" stroke-miterlimit="10" x1="81.2" y1="48" x2="81.2" y2="54.6"/>
</g>
<g>
	<polygon fill="none" stroke="#000000" stroke-width="2" stroke-miterlimit="10" points="215.8,26.9 220.8,44.4 210.8,44.4 	"/>
	<line fill="none" stroke="#000000" stroke-width="2" stroke-miterlimit="10" x1="215.8" y1="44.4" x2="215.8" y2="49.6"/>
</g>
<g>
	<polygon fill="none" stroke="#000000" stroke-width="2" stroke-miterlimit="10" points="189.4,33.2 193.3,46.9 185.5,46.9 	"/>
	<line fill="none" stroke="#000000" stroke-width="2" stroke-miterlimit="10" x1="189.4" y1="46.9" x2="189.4" y2="50.9"/>
</g>
</svg>
