<?xml version="1.0" encoding="utf-8"?>
<!-- Generator: Adobe Illustrator 21.0.2, SVG Export Plug-In . SVG Version: 6.00 Build 0)  -->
<!DOCTYPE svg PUBLIC "-//W3C//DTD SVG 1.0//EN" "http://www.w3.org/TR/2001/REC-SVG-20010904/DTD/svg10.dtd">
<svg version="1.0" id="Layer_2" xmlns="http://www.w3.org/2000/svg" xmlns:xlink="http://www.w3.org/1999/xlink" x="0px" y="0px"
	 width="648px" height="432px" viewBox="0 0 648 432" enable-background="new 0 0 648 432" xml:space="preserve">
<line fill="none" stroke="#000000" stroke-width="2" stroke-miterlimit="10" x1="194.6" y1="233.7" x2="194.6" y2="224.5"/>
<line fill="none" stroke="#000000" stroke-width="2" stroke-miterlimit="10" x1="194.4" y1="220" x2="194.4" y2="210.6"/>
<line fill="none" stroke="#000000" stroke-width="2" stroke-miterlimit="10" x1="194.4" y1="206.2" x2="194.4" y2="196.8"/>
<line fill="none" stroke="#000000" stroke-width="2" stroke-miterlimit="10" x1="194.6" y1="192.4" x2="194.6" y2="183.1"/>
<line fill="none" stroke="#000000" stroke-width="2" stroke-miterlimit="10" x1="194.6" y1="178.6" x2="194.6" y2="169.3"/>
<line fill="none" stroke="#000000" stroke-width="2" stroke-miterlimit="10" x1="194.4" y1="164.9" x2="194.4" y2="155.5"/>
<line fill="none" stroke="#000000" stroke-width="2" stroke-miterlimit="10" x1="198.3" y1="164.9" x2="198.3" y2="155.5"/>
<line fill="none" stroke="#000000" stroke-width="2" stroke-miterlimit="10" x1="198.3" y1="206.2" x2="198.3" y2="196.8"/>
<line fill="none" stroke="#000000" stroke-width="2" stroke-miterlimit="10" x1="198.3" y1="220" x2="198.3" y2="210.6"/>
<line fill="none" stroke="#000000" stroke-width="2" stroke-miterlimit="10" x1="198.3" y1="233.8" x2="198.3" y2="224.4"/>
<line fill="none" stroke="#000000" stroke-width="2" stroke-miterlimit="10" x1="198.3" y1="192.4" x2="198.3" y2="183.1"/>
<line fill="none" stroke="#000000" stroke-width="2" stroke-miterlimit="10" x1="198.3" y1="178.6" x2="198.3" y2="169.3"/>
<line fill="none" stroke="#000000" stroke-width="2" stroke-miterlimit="10" x1="193.4" y1="155.5" x2="199.3" y2="155.5"/>
<line fill="none" stroke="#000000" stroke-width="2" stroke-miterlimit="10" x1="203.4" y1="224.4" x2="203.4" y2="216.5"/>
<line fill="none" stroke="#000000" stroke-width="2" stroke-miterlimit="10" x1="203.2" y1="212.6" x2="203.2" y2="204.5"/>
<line fill="none" stroke="#000000" stroke-width="2" stroke-miterlimit="10" x1="203.2" y1="200.7" x2="203.2" y2="192.6"/>
<line fill="none" stroke="#000000" stroke-width="2" stroke-miterlimit="10" x1="203.4" y1="188.8" x2="203.4" y2="180.7"/>
<line fill="none" stroke="#000000" stroke-width="2" stroke-miterlimit="10" x1="203.4" y1="176.9" x2="203.4" y2="168.8"/>
<line fill="none" stroke="#000000" stroke-width="2" stroke-miterlimit="10" x1="203.2" y1="165" x2="203.2" y2="156.9"/>
<line fill="none" stroke="#000000" stroke-width="2" stroke-miterlimit="10" x1="207.1" y1="165" x2="207.1" y2="156.9"/>
<line fill="none" stroke="#000000" stroke-width="2" stroke-miterlimit="10" x1="207.1" y1="200.7" x2="207.1" y2="192.6"/>
<line fill="none" stroke="#000000" stroke-width="2" stroke-miterlimit="10" x1="207.1" y1="212.6" x2="207.1" y2="204.5"/>
<line fill="none" stroke="#000000" stroke-width="2" stroke-miterlimit="10" x1="207.1" y1="224.5" x2="207.1" y2="216.4"/>
<line fill="none" stroke="#000000" stroke-width="2" stroke-miterlimit="10" x1="207.1" y1="188.8" x2="207.1" y2="180.7"/>
<line fill="none" stroke="#000000" stroke-width="2" stroke-miterlimit="10" x1="207.1" y1="176.9" x2="207.1" y2="168.8"/>
<line fill="none" stroke="#000000" stroke-width="2" stroke-miterlimit="10" x1="202.2" y1="157.9" x2="208.1" y2="157.9"/>
<line fill="none" stroke="#000000" stroke-width="2" stroke-miterlimit="10" x1="457.7" y1="232" x2="457.7" y2="223"/>
<line fill="none" stroke="#000000" stroke-width="2" stroke-miterlimit="10" x1="457.9" y1="218.6" x2="457.9" y2="209.5"/>
<line fill="none" stroke="#000000" stroke-width="2" stroke-miterlimit="10" x1="457.9" y1="205.2" x2="457.9" y2="196.1"/>
<line fill="none" stroke="#000000" stroke-width="2" stroke-miterlimit="10" x1="457.7" y1="191.8" x2="457.7" y2="182.7"/>
<line fill="none" stroke="#000000" stroke-width="2" stroke-miterlimit="10" x1="457.7" y1="178.3" x2="457.7" y2="169.2"/>
<line fill="none" stroke="#000000" stroke-width="2" stroke-miterlimit="10" x1="457.9" y1="164.9" x2="457.9" y2="155.8"/>
<line fill="none" stroke="#000000" stroke-width="2" stroke-miterlimit="10" x1="454" y1="164.9" x2="454" y2="155.8"/>
<line fill="none" stroke="#000000" stroke-width="2" stroke-miterlimit="10" x1="454" y1="205.2" x2="454" y2="196.1"/>
<line fill="none" stroke="#000000" stroke-width="2" stroke-miterlimit="10" x1="454" y1="218.7" x2="454" y2="209.6"/>
<line fill="none" stroke="#000000" stroke-width="2" stroke-miterlimit="10" x1="454" y1="232.1" x2="454" y2="223"/>
<line fill="none" stroke="#000000" stroke-width="2" stroke-miterlimit="10" x1="454" y1="191.8" x2="454" y2="182.7"/>
<line fill="none" stroke="#000000" stroke-width="2" stroke-miterlimit="10" x1="454" y1="178.3" x2="454" y2="169.2"/>
<line fill="none" stroke="#000000" stroke-width="2" stroke-miterlimit="10" x1="458.9" y1="155.8" x2="453" y2="155.8"/>
<line fill="none" stroke="#000000" stroke-width="2" stroke-miterlimit="10" x1="448.9" y1="225.2" x2="448.9" y2="217.3"/>
<line fill="none" stroke="#000000" stroke-width="2" stroke-miterlimit="10" x1="449.1" y1="213.4" x2="449.1" y2="205.3"/>
<line fill="none" stroke="#000000" stroke-width="2" stroke-miterlimit="10" x1="449.1" y1="201.5" x2="449.1" y2="193.4"/>
<line fill="none" stroke="#000000" stroke-width="2" stroke-miterlimit="10" x1="448.9" y1="189.6" x2="448.9" y2="181.5"/>
<line fill="none" stroke="#000000" stroke-width="2" stroke-miterlimit="10" x1="448.9" y1="177.7" x2="448.9" y2="169.6"/>
<line fill="none" stroke="#000000" stroke-width="2" stroke-miterlimit="10" x1="449.1" y1="165.8" x2="449.1" y2="157.7"/>
<line fill="none" stroke="#000000" stroke-width="2" stroke-miterlimit="10" x1="445.2" y1="165.8" x2="445.2" y2="157.7"/>
<line fill="none" stroke="#000000" stroke-width="2" stroke-miterlimit="10" x1="445.2" y1="201.5" x2="445.2" y2="193.4"/>
<line fill="none" stroke="#000000" stroke-width="2" stroke-miterlimit="10" x1="445.2" y1="213.4" x2="445.2" y2="205.3"/>
<line fill="none" stroke="#000000" stroke-width="2" stroke-miterlimit="10" x1="445.2" y1="225.3" x2="445.2" y2="217.2"/>
<line fill="none" stroke="#000000" stroke-width="2" stroke-miterlimit="10" x1="445.2" y1="189.6" x2="445.2" y2="181.5"/>
<line fill="none" stroke="#000000" stroke-width="2" stroke-miterlimit="10" x1="445.2" y1="177.7" x2="445.2" y2="169.6"/>
<line fill="none" stroke="#000000" stroke-width="2" stroke-miterlimit="10" x1="450.1" y1="157.7" x2="444.2" y2="157.7"/>
<line fill="none" stroke="#000000" stroke-width="2" stroke-miterlimit="10" x1="193.6" y1="233" x2="202.2" y2="233.1"/>
<line fill="none" stroke="#000000" stroke-width="2" stroke-miterlimit="10" x1="204.7" y1="233" x2="213.3" y2="233.1"/>
<line fill="none" stroke="#000000" stroke-width="2" stroke-miterlimit="10" x1="215.8" y1="233" x2="224.5" y2="233.1"/>
<line fill="none" stroke="#000000" stroke-width="2" stroke-miterlimit="10" x1="227" y1="233" x2="235.6" y2="233.1"/>
<line fill="none" stroke="#000000" stroke-width="2" stroke-miterlimit="10" x1="238.1" y1="233" x2="246.7" y2="233.1"/>
<line fill="none" stroke="#000000" stroke-width="2" stroke-miterlimit="10" x1="249.3" y1="233" x2="257.9" y2="233.1"/>
<line fill="none" stroke="#000000" stroke-width="2" stroke-miterlimit="10" x1="260.4" y1="233" x2="269" y2="233.1"/>
<line fill="none" stroke="#000000" stroke-width="2" stroke-miterlimit="10" x1="271.5" y1="233" x2="280.1" y2="233.1"/>
<line fill="none" stroke="#000000" stroke-width="2" stroke-miterlimit="10" x1="282.6" y1="232.5" x2="291.2" y2="232.6"/>
<line fill="none" stroke="#000000" stroke-width="2" stroke-miterlimit="10" x1="293.8" y1="232.5" x2="302.4" y2="232.6"/>
<line fill="none" stroke="#000000" stroke-width="2" stroke-miterlimit="10" x1="304.9" y1="232.5" x2="313.5" y2="232.6"/>
<line fill="none" stroke="#000000" stroke-width="2" stroke-miterlimit="10" x1="316" y1="232.5" x2="324.6" y2="232.6"/>
<line fill="none" stroke="#000000" stroke-width="2" stroke-miterlimit="10" x1="327.2" y1="232.5" x2="335.8" y2="232.6"/>
<line fill="none" stroke="#000000" stroke-width="2" stroke-miterlimit="10" x1="338.3" y1="232" x2="346.9" y2="232.1"/>
<line fill="none" stroke="#000000" stroke-width="2" stroke-miterlimit="10" x1="349.4" y1="232" x2="358" y2="232.1"/>
<line fill="none" stroke="#000000" stroke-width="2" stroke-miterlimit="10" x1="360.6" y1="231.6" x2="369.2" y2="231.6"/>
<line fill="none" stroke="#000000" stroke-width="2" stroke-miterlimit="10" x1="371.6" y1="231.6" x2="380.3" y2="231.6"/>
<line fill="none" stroke="#000000" stroke-width="2" stroke-miterlimit="10" x1="382.8" y1="231.6" x2="391.4" y2="231.6"/>
<line fill="none" stroke="#000000" stroke-width="2" stroke-miterlimit="10" x1="393.9" y1="231.6" x2="402.5" y2="231.6"/>
<line fill="none" stroke="#000000" stroke-width="2" stroke-miterlimit="10" x1="405.1" y1="231.6" x2="413.7" y2="231.6"/>
<line fill="none" stroke="#000000" stroke-width="2" stroke-miterlimit="10" x1="416.2" y1="231.1" x2="424.8" y2="231.1"/>
<line fill="none" stroke="#000000" stroke-width="2" stroke-miterlimit="10" x1="427.3" y1="231.1" x2="435.9" y2="231.1"/>
<line fill="none" stroke="#000000" stroke-width="2" stroke-miterlimit="10" x1="438.5" y1="231.1" x2="447.1" y2="231.1"/>
<line fill="none" stroke="#000000" stroke-width="2" stroke-miterlimit="10" x1="449.6" y1="231" x2="458.2" y2="231.1"/>
<line fill="none" stroke="#000000" stroke-width="2" stroke-miterlimit="10" x1="201.1" y1="224.5" x2="209.7" y2="224.5"/>
<line fill="none" stroke="#000000" stroke-width="2" stroke-miterlimit="10" x1="212.4" y1="224.5" x2="221" y2="224.5"/>
<line fill="none" stroke="#000000" stroke-width="2" stroke-miterlimit="10" x1="223.6" y1="224.5" x2="232.3" y2="224.5"/>
<line fill="none" stroke="#000000" stroke-width="2" stroke-miterlimit="10" x1="235" y1="224.5" x2="243.6" y2="224.5"/>
<line fill="none" stroke="#000000" stroke-width="2" stroke-miterlimit="10" x1="246.2" y1="224.5" x2="254.8" y2="224.5"/>
<line fill="none" stroke="#000000" stroke-width="2" stroke-miterlimit="10" x1="257.5" y1="224.5" x2="266.1" y2="224.5"/>
<line fill="none" stroke="#000000" stroke-width="2" stroke-miterlimit="10" x1="268.8" y1="224.5" x2="277.4" y2="224.5"/>
<line fill="none" stroke="#000000" stroke-width="2" stroke-miterlimit="10" x1="280.1" y1="224.5" x2="288.7" y2="224.5"/>
<line fill="none" stroke="#000000" stroke-width="2" stroke-miterlimit="10" x1="291.4" y1="224.5" x2="300" y2="224.5"/>
<line fill="none" stroke="#000000" stroke-width="2" stroke-miterlimit="10" x1="302.7" y1="224.5" x2="311.3" y2="224.5"/>
<line fill="none" stroke="#000000" stroke-width="2" stroke-miterlimit="10" x1="314" y1="224.5" x2="322.6" y2="224.5"/>
<line fill="none" stroke="#000000" stroke-width="2" stroke-miterlimit="10" x1="325.2" y1="224.5" x2="333.8" y2="224.5"/>
<line fill="none" stroke="#000000" stroke-width="2" stroke-miterlimit="10" x1="336.5" y1="224.5" x2="345.1" y2="224.5"/>
<line fill="none" stroke="#000000" stroke-width="2" stroke-miterlimit="10" x1="347.8" y1="224.5" x2="356.4" y2="224.5"/>
<line fill="none" stroke="#000000" stroke-width="2" stroke-miterlimit="10" x1="359.1" y1="224.5" x2="367.7" y2="224.5"/>
<line fill="none" stroke="#000000" stroke-width="2" stroke-miterlimit="10" x1="370.4" y1="224.5" x2="379" y2="224.5"/>
<line fill="none" stroke="#000000" stroke-width="2" stroke-miterlimit="10" x1="381.6" y1="224.5" x2="390.3" y2="224.5"/>
<line fill="none" stroke="#000000" stroke-width="2" stroke-miterlimit="10" x1="393" y1="224.5" x2="401.6" y2="224.5"/>
<line fill="none" stroke="#000000" stroke-width="2" stroke-miterlimit="10" x1="404.2" y1="224.5" x2="412.8" y2="224.5"/>
<line fill="none" stroke="#000000" stroke-width="2" stroke-miterlimit="10" x1="415.5" y1="224.5" x2="424.1" y2="224.5"/>
<line fill="none" stroke="#000000" stroke-width="2" stroke-miterlimit="10" x1="426.8" y1="224.5" x2="435.5" y2="224.5"/>
<line fill="none" stroke="#000000" stroke-width="2" stroke-miterlimit="10" x1="438.1" y1="224.5" x2="446.7" y2="224.5"/>
<line fill="none" stroke="#000000" stroke-width="2" stroke-miterlimit="10" x1="447.6" y1="224.5" x2="454.7" y2="224.5"/>
</svg>
