<?xml version="1.0" encoding="utf-8"?>
<!-- Generator: Adobe Illustrator 19.2.1, SVG Export Plug-In . SVG Version: 6.00 Build 0)  -->
<svg version="1.0" id="Layer_1" xmlns="http://www.w3.org/2000/svg" xmlns:xlink="http://www.w3.org/1999/xlink" x="0px" y="0px"
	 width="432px" height="432px" viewBox="0 0 432 432" enable-background="new 0 0 432 432" xml:space="preserve">
<path fill="#27AAE1" d="M318.4,151.7c-53-54.8-102.2,16.8-102.6,17.4c-0.4-0.6-49.6-72.2-102.6-17.4c-52.9,54.7,101,182.7,102.6,184
	v0c0,0,0,0,0,0c0,0,0,0,0,0v0C217.4,334.4,371.3,206.4,318.4,151.7z"/>
<path fill="none" stroke="#FFFFFF" stroke-width="2" stroke-miterlimit="10" d="M144,241.1c0,0,8.8-17.9,33.5-5.5
	c24.7,12.4,53.4,40.6,95.3-9.8h18.7l-10.1-6.8c0,0-2-9.8-10.1-9.6c-8.1,0.3-9.6,9.3-9.6,9.3s-9.8-1.1-25.7-19.6s-50.4-16.1-60.8-1.5
	"/>
<path fill="none" stroke="#FFFFFF" stroke-width="2" stroke-miterlimit="10" d="M247.4,220.3c0,0-25.2-24.9-45.1-22.7
	s-27.7,24.4-58.2,19.1"/>
<path fill="none" stroke="#FFFFFF" stroke-width="2" stroke-miterlimit="10" d="M242.6,226.9c0,0-16.1-20.1-39.6-17
	c-23.4,3-18.9,11.3-39.6,11.8"/>
</svg>
