<?xml version="1.0" encoding="utf-8"?>
<!-- Generator: Adobe Illustrator 21.0.0, SVG Export Plug-In . SVG Version: 6.00 Build 0)  -->
<!DOCTYPE svg PUBLIC "-//W3C//DTD SVG 1.0//EN" "http://www.w3.org/TR/2001/REC-SVG-20010904/DTD/svg10.dtd">
<svg version="1.0" xmlns="http://www.w3.org/2000/svg" xmlns:xlink="http://www.w3.org/1999/xlink" x="0px" y="0px" width="432px"
	 height="432px" viewBox="0 0 432 432" enable-background="new 0 0 432 432" xml:space="preserve">
<g id="Color">
	<path fill="#27AAE1" d="M318.4,151.7c-53-54.8-102.2,16.8-102.6,17.4c-0.4-0.6-49.6-72.2-102.6-17.4
		c-52.9,54.7,101,182.7,102.6,184C217.4,334.4,371.3,206.4,318.4,151.7z M144.4,214.7c17.6,3.1,27.3-3.4,36.6-9.7
		c6.5-4.4,12.7-8.5,21-9.4c20.6-2.3,45.7,22.2,46.7,23.3l-2.8,2.8c-0.2-0.2-24.7-24.2-43.5-22.1c-7.4,0.8-13.2,4.7-19.3,8.8
		c-9.5,6.4-20.3,13.6-39.5,10.3L144.4,214.7z M244.2,225.7l-1.6,1.2l-1.6,1.3c-0.2-0.2-15.7-19.2-37.8-16.3
		c-11.1,1.4-15.5,4-19.8,6.4c-4.6,2.6-8.9,5.1-20,5.4l-0.1-4c10.1-0.2,13.8-2.4,18.1-4.9c4.4-2.5,9.4-5.4,21.3-6.9
		C227.1,204.7,243.5,224.8,244.2,225.7z M273.7,227.8c-18.4,21.8-34.5,28.9-48.7,28.9c-14.4,0-27-7.2-38.2-13.7
		c-3.5-2-6.9-4-10.2-5.6c-8.2-4.1-15.4-5.2-21.3-3.2c-6.7,2.3-9.5,7.7-9.5,7.8l-3.6-1.8c0.1-0.3,3.5-7,11.8-9.8
		c7-2.3,15.2-1.2,24.4,3.4c3.4,1.7,6.8,3.7,10.4,5.7c22.2,12.8,47.3,27.3,82.5-15l0.6-0.7h13.1l-5.3-3.6l-0.2-0.8
		c-0.1-0.3-1.8-8.2-8.1-8c-6.3,0.2-7.6,7.3-7.7,7.6l-0.3,1.9l-1.9-0.2c-0.4,0-10.8-1.4-27-20.3c-7.2-8.4-19.4-13-32.7-12.4
		c-11,0.5-20.6,4.6-25,10.8l-3.3-2.3c5.2-7.2,15.6-11.9,28-12.4c14.5-0.7,27.9,4.5,35.9,13.8c11.3,13.2,19.4,17.2,22.8,18.4
		c1.3-3.7,4.6-8.6,10.9-8.8c7.2-0.2,10.8,6.3,11.9,10.4l14.9,10H273.7z"/>
</g>
<g id="Stroke">
	
		<path opacity="0" fill="none" stroke="#000000" stroke-width="32" stroke-linecap="round" stroke-linejoin="round" stroke-miterlimit="10" d="
		M100.4,165.9c33.8-15.1,58.3-46.3,91.6-62.4c-15.7,36.9-71.1,61.7-99,90.5c27.4-25.9,71-56.8,105.7-71.6c2.3,3.9-0.4,8.6-3.1,12.2
		c-33.5,44.3-85.5,71-122.4,112.5c48.5-41.4,97-82.8,145.5-124.2c-24.5,51.2-67.8,90.4-110,128.3c29.4-38,61.4-73.9,95.8-107.4
		c10.1-9.9,20.9-19.9,34.3-24.6c-24.1,56.1-73,98.4-98.5,153.8c30.1-33.9,55.8-71.7,76.2-112.1C203.6,200,183,236,165.8,273.4
		c-17.2,37.4-31.3,77.6-29.6,118.7c35.1-75.3,61.1-154.8,77.3-236.3c-17.3,57.7-32.7,116.7-33.6,177
		c23.3-75.3,35.5-154.1,35.8-232.9C203,184.3,199.7,270,205.7,355c10.1-68.1,17.5-136.7,22.2-205.4c-6.3,70-7.6,140.5-4,210.7
		c6.8-75.7-2.1-151.8-11.3-227.2c1.5,77.9,24,155.3,64.4,221.9c3.9-26.6,1.2-54.2-7.9-79.6c-10-28.2-27.7-53.8-32.7-83.2
		c14,38.7,29.8,76.8,47.4,114c-3-67.9-29.4-132.2-55.4-195c24.5,81.3,49.2,163,85,240.1c-14.9-41.6-38.1-80.2-67.8-112.9
		c-3-3.3-6.1-6.6-7.5-10.8c-1.2-3.4-1.1-7.1-1.1-10.7c0.2-15.4,0.4-30.9,0.7-46.3c0.1-9.8,1.1-21.2,9.2-26.6
		c18.9,50.9,40.4,100.9,64.3,149.6c-3.5-69.8-60.1-127.5-67.6-197c3.8,18.8,12.2,36.3,20.7,53.5c14.8,30.3,29.5,60.5,44.3,90.8
		c7.2-21,6.9-44,2.6-65.7c-4.3-21.8-12.3-42.6-20.4-63.3c0.7,34,9,67.8,24.1,98.2c-8.2-46.3-42.1-84.7-81.7-110
		c22,48.9,54.2,93.2,93.9,129.1c15.6-29.2,8.7-68.6-16-90.7"/>
</g>
</svg>
