<?xml version="1.0" encoding="utf-8"?>
<!-- Generator: Adobe Illustrator 21.0.0, SVG Export Plug-In . SVG Version: 6.00 Build 0)  -->
<!DOCTYPE svg PUBLIC "-//W3C//DTD SVG 1.0//EN" "http://www.w3.org/TR/2001/REC-SVG-20010904/DTD/svg10.dtd">
<svg version="1.0" id="Layer_1" xmlns="http://www.w3.org/2000/svg" xmlns:xlink="http://www.w3.org/1999/xlink" x="0px" y="0px"
	 width="288px" height="288px" viewBox="0 0 288 288" enable-background="new 0 0 288 288" xml:space="preserve">
<g id="Layer_2">
	<path fill="#26A9E0" d="M147.2,20.1c0,0-18.4,24.3-3.2,45.3c0,0-16-5.8-12.8-22.6C134.5,25.9,140.6,20.5,147.2,20.1z"/>
	<polygon fill="#26A9E0" points="124,85.6 113.9,93.3 115.7,98.8 124,93.3 	"/>
	<path fill="#26A9E0" d="M125,119.9c0.5,1.1,1,2,2.2,2.3c0.3,0.1,0.6,0.2,0.9,0.2c0.3-0.2,0.5-0.4,0.8-0.5c0.7-0.4,1.6-0.5,2.4-0.4
		l1.6-50l-8.4,3.3l-0.5,43.4C124.4,118.8,124.8,119.3,125,119.9z"/>
	<path fill="#26A9E0" d="M130.8,138.2l0.2-7.6c-0.7,0.1-1.5,0-2.3-0.4c-1.6-0.9-3.3-0.9-4.9-1.4l-0.2,12.5c11,5.7,24.8,4,24.8,4
		C140.6,144.2,130.8,138.2,130.8,138.2z"/>
	<path fill="#26A9E0" d="M134.4,257.6c0.9-0.5,2-0.7,3.1-0.5l-6.3-113l-6.5-2.3l9.1,101.3L134.4,257.6z"/>
</g>
<g id="Layer_1_1_">
	
		<ellipse transform="matrix(0.1057 -0.9944 0.9944 0.1057 89.3954 185.0954)" fill="none" stroke="#000000" stroke-width="2" stroke-miterlimit="10" cx="147.6" cy="42.8" rx="22.9" ry="16.3"/>
	<path fill="none" stroke="#000000" stroke-width="2" stroke-miterlimit="10" d="M138.5,20.1c0,0,7.8,4.3,22.1,3.4"/>
	<path fill="none" stroke="#000000" stroke-width="2" stroke-miterlimit="10" d="M135.6,23.2c0,0,13.2,7.1,27.9,3.7"/>
	<path fill="none" stroke="#000000" stroke-width="2" stroke-miterlimit="10" d="M133.6,26.7c0,0,16.3,10.2,31.1,3.6"/>
	<polyline fill="none" stroke="#000000" stroke-width="2" stroke-miterlimit="10" points="141.1,64.4 140.3,70.6 150.5,71.6 
		151.9,64.4 	"/>
	<path fill="none" stroke="#000000" stroke-width="2" stroke-miterlimit="10" d="M160.5,121c0.3-16.5,0.9-37.8,1.7-47.4
		c0,0-26.2-7.3-37.7,1.3c0,0-0.3,23.4-0.5,42.3"/>
	<path fill="none" stroke="#000000" stroke-width="2" stroke-miterlimit="10" d="M124.6,75l-20.3,18.7c0,0,0.5,23.8,21.5,35.3
		l1.1-7.3c0,0-9.6-13.1-14.8-35.1"/>
	<line fill="none" stroke="#000000" stroke-width="2" stroke-miterlimit="10" x1="115.2" y1="98.8" x2="123.7" y2="93.3"/>
	<polygon fill="none" stroke="#000000" stroke-width="2" stroke-miterlimit="10" points="126.4,129.9 138.4,134.1 144.5,128.9 
		132.8,124 135.8,121 134.8,119 127.5,122 	"/>
	<path fill="none" stroke="#000000" stroke-width="2" stroke-miterlimit="10" d="M164,127.5c0,0,20.2-27.6-1.8-51.3"/>
	<line fill="none" stroke="#000000" stroke-width="2" stroke-miterlimit="10" x1="161.1" y1="97.8" x2="172.3" y2="99.6"/>
	<polygon fill="none" stroke="#000000" stroke-width="2" stroke-miterlimit="10" points="151.3,117.4 151.3,120 155,122.4 
		146,124.3 149.9,131.1 164,127.5 164,122.1 	"/>
	<path fill="none" stroke="#000000" stroke-width="2" stroke-miterlimit="10" d="M123.9,128.4c-0.1,7.6-0.2,12.8-0.2,12.8
		s14.3,8,36.4,2c0,0,0.1-5.9,0.2-14.4"/>
	<path fill="none" stroke="#000000" stroke-width="2" stroke-miterlimit="10" d="M124.8,141.8l10,114.9h5.7c0,0,9.2-74.2,5.5-110.8"
		/>
	<path fill="none" stroke="#000000" stroke-width="2" stroke-miterlimit="10" d="M160.1,140.2c0,0,0.1,93.3-10.7,115.8h-4.9
		c0,0,2.3-73.2,2.1-74.4"/>
</g>
<g id="Layer_3">
	<path fill="none" stroke="#26A9E0" stroke-width="25" stroke-miterlimit="10" stroke-opacity="0" d="M137,20.4
		c4.5-0.3,9,0.4,13.2,2c-8.8,3.3-17.7,6.7-26.5,10c7.3-0.3,14.5-0.1,21.7,0.9c-8.1,3.3-16.2,6.5-24.3,9.8c8.7-1.9,17.9-1.6,26.5,0.9
		c-8.2,2.2-16.4,4.1-24.7,5.6c6.9,0.8,13.8,1.6,20.7,2.3c-6.5,0.9-13,1.8-19.4,2.8c7.5,1.1,15.1,2.2,22.6,3.3
		c-10.1,1.3-20.3,2.7-30.4,4c4.6,2,9.2,4.1,13.9,6.1c-9.3,2.5-18.5,5.1-27.8,7.6c11.6,0.5,23.2,1,34.8,1.5c-8.2,2-16.2,5-23.7,8.9
		c9.8,0.5,19.6,1,29.4,1.5c-8.1,1.6-16.1,3.1-24.2,4.7c-2.1,0.4-4.6,1.1-5.4,3.2c10.4,0.8,20.9,0.9,31.3,0.3
		c-11.5,2.9-22.8,6.6-33.8,11.3c7.4,0.5,14.8,0.4,22.2-0.3c-7.5,2.3-14.6,6-20.8,10.9c8.3,1,16.8,1.3,25.2,0.9
		c-8.1,2.8-16,6.4-23.4,10.9c5.7,0.1,11.4,0.2,17.1,0.4c-8.7,2.1-17.8,4.3-24.7,10.1c10.8,0.8,21.6,0.9,32.4,0.1
		c-8.4,3.4-16,8.7-22,15.4c5,0.6,10,0.6,15-0.2c-6.3,2.3-12.2,5.9-17.1,10.6c6,1.3,12.2,1.6,18.2,0.9c-4,2.4-7.6,5.5-10.5,9.1
		c-0.8,1-1.5,2.2-1.1,3.4c0.5,1.1,1.9,1.4,3.1,1.6c3,0.4,5.9,0.9,8.9,1.3c-5.5,2.1-10.5,5.5-14.5,9.9c4.3,1.9,9,2.7,13.6,2.4
		c-4.1,2.8-7.8,6.1-11,9.9c-0.8,1-1.7,2.2-1.2,3.4c0.4,1.1,1.6,1.6,2.8,1.9c4.1,1.2,8.3,2,12.5,2.3c-2.9,3.1-5.2,6.6-6.9,10.5
		c3.1-0.1,6.3,0.4,9.2,1.5c-3.4,2.9-6.7,5.8-10.1,8.8c5.2,0.9,10.6,1.2,15.9,0.9c-5.7,2.2-10.5,6.5-13.5,11.8c2.3,0.3,4.7,0.7,7,1
		c-3.7,2.2-6.8,5.3-9.2,8.9c-0.6,0.8-1.1,2-0.5,2.8c0.5,0.7,1.4,0.8,2.3,0.9c3.9,0.2,7.8,0.5,11.8,0.7c-3-0.4-5.6,2.9-5.1,5.9
		s3.4,5.2,6.3,5.5s6-0.8,8.5-2.4"/>
</g>
</svg>
