<?xml version="1.0" encoding="utf-8"?>
<!-- Generator: Adobe Illustrator 21.0.0, SVG Export Plug-In . SVG Version: 6.00 Build 0)  -->
<!DOCTYPE svg PUBLIC "-//W3C//DTD SVG 1.0//EN" "http://www.w3.org/TR/2001/REC-SVG-20010904/DTD/svg10.dtd">
<svg version="1.0" id="Layer_1" xmlns="http://www.w3.org/2000/svg" xmlns:xlink="http://www.w3.org/1999/xlink" x="0px" y="0px"
	 width="432px" height="432px" viewBox="0 0 432 432" enable-background="new 0 0 432 432" xml:space="preserve">
<path fill="none" stroke="#000000" stroke-width="2" stroke-miterlimit="10" d="M226.4,144.5c0,0,21.2-18.3,26.7-6.7
	c5.5,11.6-7.7,17.9-7.7,17.9s28.9-8.4,32.5,4.1S260.4,175,260.4,175s31.7-2.2,32.9,8.5c1.2,10.8-21.2,15.6-21.2,15.6
	s36.3,11.8,30,23.4c-6.3,11.6-25.1,7.6-25.1,7.6s27.6,22.4,16.3,31.4c-11.4,9-24.3,3-24.3,3s17,25.2,0.9,27.4
	c-16.1,2.2-33.1-7.2-33.1-7.2s-3.4,6.6-11.3,9.7l-6.2,1.5c-17.5,3.1-23.9-11.2-23.9-11.2s-17,9.4-33.1,7.2
	c-16.1-2.2,0.9-27.4,0.9-27.4s-13,5.9-24.3-3c-11.3-8.9,16.1-31.4,16.1-31.4s-18.8,4-25.1-7.6s30-23.4,30-23.4s-22.4-4.8-21.2-15.6
	c1.2-10.8,32.9-8.5,32.9-8.5s-21.1-2.7-17.5-15.2c3.6-12.5,32.5-4.1,32.5-4.1s-13.2-6.3-7.7-17.9s26.7,6.7,26.7,6.7
	s-3.6-35.7,10.4-6.8C216,137.7,235.7,108.5,226.4,144.5z"/>
<polyline fill="none" stroke="#000000" stroke-width="2" stroke-miterlimit="10" points="204.4,294 206.5,305.5 221.8,305.5 
	224.7,294 "/>
<polyline fill="none" stroke="#000000" stroke-width="2" stroke-miterlimit="10" points="209.2,295.8 213.6,302.4 216.8,296.3 "/>
<ellipse fill="#27AAE1" stroke="#000000" stroke-width="2" stroke-miterlimit="10" cx="180.6" cy="217.7" rx="15.6" ry="16.2"/>
<path fill="none" stroke="#000000" stroke-width="2" stroke-miterlimit="10" d="M181.8,201.5c0,0-6.4-8.5-1.3-9.1
	c5.3-0.7,3.1,9.4,3.1,9.4l0.9,0.2c0,0,6.3-10.3,9.2-7.8c5.6,4.7-7.4,9-7.4,9"/>
<ellipse transform="matrix(0.8906 -0.4547 0.4547 0.8906 -94.8212 127.664)" fill="#27AAE1" stroke="#000000" stroke-width="2" stroke-miterlimit="10" cx="218" cy="261" rx="15.6" ry="16.2"/>
<path fill="none" stroke="#000000" stroke-width="2" stroke-miterlimit="10" d="M211.8,245.9c0,0-9.6-4.6-5.3-7.6c4.4-3,7,7,7,7
	l0.9-0.2c0,0,0.9-12,4.6-11.2c7.1,1.7-2.5,11.3-2.5,11.3"/>
<ellipse transform="matrix(0.4547 -0.8906 0.8906 0.4547 -59.6179 338.3108)" fill="#27AAE1" stroke="#000000" stroke-width="2" stroke-miterlimit="10" cx="246.5" cy="217.8" rx="16.2" ry="15.6"/>
<path fill="none" stroke="#000000" stroke-width="2" stroke-miterlimit="10" d="M252.7,202.8c0,0,9.6-4.6,5.3-7.6c-4.4-3-7,7-7,7
	l-0.9-0.2c0,0-0.9-12-4.6-11.2c-7.1,1.7,2.5,11.3,2.5,11.3"/>
<ellipse transform="matrix(0.8906 -0.4547 0.4547 0.8906 -59.7682 118.3228)" fill="#27AAE1" stroke="#000000" stroke-width="2" stroke-miterlimit="10" cx="216.1" cy="183.4" rx="15.6" ry="16.2"/>
<path fill="none" stroke="#000000" stroke-width="2" stroke-miterlimit="10" d="M209.8,168.4c0,0-9.6-4.6-5.3-7.6c4.4-3,7,7,7,7
	l0.9-0.2c0,0,0.9-12,4.6-11.2c7.1,1.7-2.5,11.3-2.5,11.3"/>
</svg>
