<?xml version="1.0" encoding="utf-8"?>
<!-- Generator: Adobe Illustrator 19.2.1, SVG Export Plug-In . SVG Version: 6.00 Build 0)  -->
<svg version="1.0" id="Layer_1" xmlns="http://www.w3.org/2000/svg" xmlns:xlink="http://www.w3.org/1999/xlink" x="0px" y="0px"
	 width="432px" height="432px" viewBox="0 0 432 432" enable-background="new 0 0 432 432" xml:space="preserve">
<line fill="none" stroke="#000000" stroke-width="2" stroke-miterlimit="10" x1="14.5" y1="299.4" x2="415.6" y2="299.4"/>
<line fill="none" stroke="#000000" stroke-width="2" stroke-miterlimit="10" x1="324.5" y1="316.1" x2="331.6" y2="313.9"/>
<line fill="none" stroke="#000000" stroke-width="2" stroke-miterlimit="10" x1="328" y1="318.7" x2="336" y2="318.7"/>
<path fill="none" stroke="#000000" stroke-width="2" stroke-miterlimit="10" d="M246.2,315c0,0,8-2.1,7.7,1.1s-3.8,6.4-3.8,6.4"/>
<path fill="none" stroke="#000000" stroke-width="2" stroke-miterlimit="10" d="M207,313.9c0,0-5.5,0.3-6.1,4.8
	c-0.6,4.5,6.1,3.9,6.1,3.9"/>
<line fill="none" stroke="#000000" stroke-width="2" stroke-miterlimit="10" x1="231.7" y1="327.3" x2="231.7" y2="334.1"/>
<line fill="none" stroke="#000000" stroke-width="2" stroke-miterlimit="10" x1="236.2" y1="325.4" x2="236.2" y2="334.1"/>
<line fill="none" stroke="#000000" stroke-width="2" stroke-miterlimit="10" x1="146" y1="316.1" x2="153.1" y2="316.1"/>
<line fill="none" stroke="#000000" stroke-width="2" stroke-miterlimit="10" x1="146" y1="320.9" x2="151.8" y2="322.6"/>
<line fill="none" stroke="#000000" stroke-width="2" stroke-miterlimit="10" x1="86.4" y1="327.3" x2="90.2" y2="320.9"/>
<line fill="none" stroke="#000000" stroke-width="2" stroke-miterlimit="10" x1="88.3" y1="331.1" x2="96" y2="325.4"/>
<path fill="none" stroke="#000000" stroke-width="2" stroke-miterlimit="10" d="M52,315c0,0-3.2-0.1-3.9,3.2
	c-0.6,3.4,5.1,3.5,5.1,3.5"/>
<path fill="none" stroke="#000000" stroke-width="2" stroke-miterlimit="10" d="M135.8,138.4c0,0,21.2-18.3,26.7-6.7
	c5.5,11.6-7.7,17.9-7.7,17.9s28.9-8.4,32.5,4.1c3.6,12.5-17.5,15.2-17.5,15.2s31.7-2.2,32.9,8.5c1.2,10.8-21.2,15.6-21.2,15.6
	s36.3,11.8,30,23.4s-25.1,7.6-25.1,7.6s27.6,22.4,16.3,31.4c-11.4,9-24.3,3-24.3,3s17,25.2,0.9,27.4c-16.1,2.2-33.1-7.2-33.1-7.2
	s-3.4,6.6-11.3,9.7l-6.2,1.5c-17.5,3.1-23.9-11.2-23.9-11.2s-17,9.4-33.1,7.2c-16.1-2.2,0.9-27.4,0.9-27.4s-13,5.9-24.3-3
	S64.4,224,64.4,224s-18.8,4-25.1-7.6c-6.3-11.6,30-23.4,30-23.4s-22.4-4.8-21.2-15.6c1.2-10.8,32.9-8.5,32.9-8.5
	s-21.1-2.7-17.5-15.2c3.6-12.5,32.5-4.1,32.5-4.1s-13.2-6.3-7.7-17.9c5.5-11.6,26.7,6.7,26.7,6.7s-3.6-35.7,10.4-6.8
	C125.4,131.6,145.1,102.4,135.8,138.4z"/>
<path fill="none" stroke="#000000" stroke-width="2" stroke-miterlimit="10" d="M314.4,138.4c0,0,21.7-18.2,27.3-6.7
	s-7.9,17.8-7.9,17.8s29.6-8.4,33.2,4.1c3.7,12.4-17.9,15.1-17.9,15.1s32.4-2.2,33.6,8.5c1.2,10.7-21.7,15.5-21.7,15.5
	s37.1,11.7,30.7,23.3c-6.4,11.6-25.6,7.6-25.6,7.6s28.2,22.3,16.6,31.2c-11.6,8.9-24.9,3-24.9,3s17.4,25.1,0.9,27.3
	s-33.9-7.1-33.9-7.1s-3.5,6.6-11.5,9.7l-6.4,1.5c-17.9,3.1-24.4-11.2-24.4-11.2s-17.4,9.4-33.9,7.1s0.9-27.3,0.9-27.3
	s-13.3,5.9-24.9-3c-11.6-8.9,16.6-31.2,16.6-31.2s-19.2,4-25.6-7.6c-6.4-11.6,30.7-23.3,30.7-23.3s-22.9-4.8-21.7-15.5
	c1.2-10.7,33.6-8.5,33.6-8.5s-21.5-2.7-17.9-15.1s33.2-4.1,33.2-4.1s-13.5-6.2-7.9-17.8c5.6-11.6,27.3,6.7,27.3,6.7
	s-3.6-35.6,10.6-6.8C303.8,131.6,323.9,102.4,314.4,138.4z"/>
<polyline fill="none" stroke="#000000" stroke-width="2" stroke-miterlimit="10" points="113.8,287.9 115.9,299.4 131.2,299.4 
	134.1,287.9 "/>
<polyline fill="none" stroke="#000000" stroke-width="2" stroke-miterlimit="10" points="118.6,289.7 123,296.3 126.2,290.2 "/>
<polyline fill="none" stroke="#000000" stroke-width="2" stroke-miterlimit="10" points="294.2,287.9 296.3,299.4 311.5,299.4 
	314.5,287.9 "/>
<polyline fill="none" stroke="#000000" stroke-width="2" stroke-miterlimit="10" points="298.9,289.7 303.3,296.3 306.6,290.2 "/>
<ellipse fill="none" stroke="#000000" stroke-width="2" stroke-miterlimit="10" cx="90" cy="211.6" rx="15.6" ry="16.2"/>
<path fill="none" stroke="#000000" stroke-width="2" stroke-miterlimit="10" d="M91.2,195.4c0,0-6.4-8.5-1.3-9.1
	c5.3-0.7,3.1,9.4,3.1,9.4l0.9,0.2c0,0,6.3-10.3,9.2-7.8c5.6,4.7-7.4,9-7.4,9"/>
<ellipse transform="matrix(0.8906 -0.4547 0.4547 0.8906 -101.9287 85.8151)" fill="none" stroke="#000000" stroke-width="2" stroke-miterlimit="10" cx="127.4" cy="254.8" rx="15.6" ry="16.2"/>
<path fill="none" stroke="#000000" stroke-width="2" stroke-miterlimit="10" d="M121.2,239.8c0,0-9.6-4.6-5.3-7.6c4.4-3,7,7,7,7
	l0.9-0.2c0,0,0.9-12,4.6-11.2c7.1,1.7-2.5,11.3-2.5,11.3"/>
<ellipse transform="matrix(0.4547 -0.8906 0.8906 0.4547 -103.547 254.2828)" fill="none" stroke="#000000" stroke-width="2" stroke-miterlimit="10" cx="155.9" cy="211.7" rx="16.2" ry="15.6"/>
<path fill="none" stroke="#000000" stroke-width="2" stroke-miterlimit="10" d="M162.1,196.7c0,0,9.6-4.6,5.3-7.6c-4.4-3-7,7-7,7
	l-0.9-0.2c0,0-0.9-12-4.6-11.2c-7.1,1.7,2.5,11.3,2.5,11.3"/>
<ellipse transform="matrix(0.8906 -0.4547 0.4547 0.8906 -66.8903 76.4301)" fill="none" stroke="#000000" stroke-width="2" stroke-miterlimit="10" cx="125.5" cy="177.3" rx="15.6" ry="16.2"/>
<path fill="none" stroke="#000000" stroke-width="2" stroke-miterlimit="10" d="M119.2,162.3c0,0-9.6-4.6-5.3-7.6c4.4-3,7,7,7,7
	l0.9-0.2c0,0,0.9-12,4.6-11.2c7.1,1.7-2.5,11.3-2.5,11.3"/>
<ellipse fill="none" stroke="#000000" stroke-width="2" stroke-miterlimit="10" cx="267.6" cy="211.3" rx="15.9" ry="16.2"/>
<path fill="none" stroke="#000000" stroke-width="2" stroke-miterlimit="10" d="M268.9,195.1c0,0-6.6-8.4-1.3-9.1
	c5.4-0.7,3.2,9.4,3.2,9.4l0.9,0.2c0,0,6.4-10.3,9.4-7.8c5.7,4.7-7.5,8.9-7.5,8.9"/>
<path fill="none" stroke="#000000" stroke-width="2" stroke-miterlimit="10" d="M320.1,247.3c4.2,8,1.2,17.6-6.6,21.5
	s-17.6,0.6-21.7-7.4c-4.2-8-1.2-17.6,6.6-21.5C306.2,236.1,315.9,239.3,320.1,247.3z"/>
<path fill="none" stroke="#000000" stroke-width="2" stroke-miterlimit="10" d="M299.5,239.4c0,0-9.8-4.6-5.4-7.5
	c4.5-3,7.2,6.9,7.2,6.9l0.9-0.2c0,0,0.9-12,4.7-11.1c7.3,1.7-2.6,11.3-2.6,11.3"/>
<path fill="none" stroke="#000000" stroke-width="2" stroke-miterlimit="10" d="M320.8,204.3c-4.2,8-1.2,17.6,6.6,21.5
	c7.8,3.9,17.6,0.6,21.7-7.4s1.2-17.6-6.6-21.5S325,196.4,320.8,204.3z"/>
<path fill="none" stroke="#000000" stroke-width="2" stroke-miterlimit="10" d="M341.4,196.5c0,0,9.8-4.6,5.4-7.5
	c-4.5-3-7.2,6.9-7.2,6.9l-0.9-0.2c0,0-0.9-12-4.7-11.1c-7.3,1.7,2.6,11.3,2.6,11.3"/>
<path fill="none" stroke="#000000" stroke-width="2" stroke-miterlimit="10" d="M318,170c4.2,8,1.2,17.6-6.6,21.5
	c-7.8,3.9-17.6,0.6-21.7-7.4s-1.2-17.6,6.6-21.5C304.2,158.8,313.9,162.1,318,170z"/>
<path fill="none" stroke="#000000" stroke-width="2" stroke-miterlimit="10" d="M297.5,162.2c0,0-9.8-4.6-5.4-7.5
	c4.5-3,7.2,6.9,7.2,6.9l0.9-0.2c0,0,0.9-12,4.7-11.1c7.3,1.7-2.6,11.3-2.6,11.3"/>
</svg>
