<?xml version="1.0" encoding="utf-8"?>
<!-- Generator: Adobe Illustrator 21.0.0, SVG Export Plug-In . SVG Version: 6.00 Build 0)  -->
<!DOCTYPE svg PUBLIC "-//W3C//DTD SVG 1.0//EN" "http://www.w3.org/TR/2001/REC-SVG-20010904/DTD/svg10.dtd">
<svg version="1.0" id="Layer_1" xmlns="http://www.w3.org/2000/svg" xmlns:xlink="http://www.w3.org/1999/xlink" x="0px" y="0px"
	 width="432px" height="432px" viewBox="0 0 432 432" enable-background="new 0 0 432 432" xml:space="preserve">
<g id="Layer_2">
	<path fill="#27AAE1" d="M223.4,71.3c0,0,25.5,25.1,0,49.1c0,0,13.4-1.8,15.2-20.8S229.6,71.6,223.4,71.3z"/>
	<polygon fill="#27AAE1" points="233.5,125.3 231.1,203.1 208,207.4 231.1,207.9 233.5,344.4 247.4,359.3 259.2,354.8 236.1,344.4 
		238.8,201.1 243.6,126.1 	"/>
	<polygon fill="#27AAE1" points="215.1,207.9 210.9,344.4 191.4,356.2 206.4,362.8 215.1,344.4 222.6,207.9 	"/>
</g>
<g id="Layer_1_1_">
	<path fill="none" stroke="#000000" stroke-width="2" stroke-miterlimit="10" d="M209.5,85.5c-0.9,3.2-1.4,6.7-1.4,10.4
		c0,13.5,6.9,24.5,15.4,24.5s15.4-11,15.4-24.5s-6.9-24.5-15.4-24.5c-3.9,0-7.5,2.3-10.2,6.2"/>
	<path fill="none" stroke="#000000" stroke-width="2" stroke-miterlimit="10" d="M233.5,73.5c0,0-12.2,2.3-18.8,0"/>
	<path fill="none" stroke="#000000" stroke-width="2" stroke-miterlimit="10" d="M235.4,76.7c-0.8,0.4-6.5,1.9-13.4,1.8"/>
	<path fill="none" stroke="#000000" stroke-width="2" stroke-miterlimit="10" d="M237,80.2c0,0-6.9,3.2-15.1,2.7"/>
	<polyline fill="none" stroke="#000000" stroke-width="2" stroke-miterlimit="10" points="228.3,119.1 228.3,126.1 218.9,126.1 
		218.9,119.3 	"/>
	<polygon fill="none" stroke="#000000" stroke-width="2" stroke-miterlimit="10" points="243.6,126.1 202.3,126.1 206.4,207.9 
		238.8,207.9 	"/>
	<polyline fill="none" stroke="#000000" stroke-width="2" stroke-miterlimit="10" points="208,126.1 187.7,100.8 206.4,85.6 
		221.8,83.9 222.9,77.6 206.4,76.7 172.2,101.3 202.8,137.1 	"/>
	<line fill="none" stroke="#000000" stroke-width="2" stroke-miterlimit="10" x1="172.2" y1="101.3" x2="187.7" y2="100.8"/>
	<polyline fill="none" stroke="#000000" stroke-width="2" stroke-miterlimit="10" points="243.4,126.1 259.2,164.2 255.7,214.8 
		249.3,214.8 247.4,168.6 242,153.1 	"/>
	<polyline fill="none" stroke="#000000" stroke-width="2" stroke-miterlimit="10" points="249.4,214.7 244.9,222.5 248.4,224.5 
		251.9,220.7 252.9,237.2 260.1,230.4 255.7,214.7 	"/>
	<line fill="none" stroke="#000000" stroke-width="2" stroke-miterlimit="10" x1="247.4" y1="168.6" x2="259.2" y2="164.2"/>
	<polyline fill="none" stroke="#000000" stroke-width="2" stroke-miterlimit="10" points="238.8,207.9 236.1,344.4 229.4,344.4 
		222.6,207.9 215.1,344.4 207.4,344.4 206.4,207.9 	"/>
	<polyline fill="none" stroke="#000000" stroke-width="2" stroke-miterlimit="10" points="236.1,344.4 256.2,352.9 243.4,359.2 
		229.4,344.4 	"/>
	<polyline fill="none" stroke="#000000" stroke-width="2" stroke-miterlimit="10" points="215.1,344.4 204.4,359.2 191.4,352.8 
		207.4,344.4 	"/>
</g>
<g id="Layer_2_1_">
	
		<path opacity="0" fill="none" stroke="#000000" stroke-width="29" stroke-linecap="round" stroke-linejoin="round" stroke-miterlimit="10" d="
		M224.5,72.3c5.4,0,10.7,1.1,15.7,3.2c-6.3,2.1-13.2,2.6-19.8,1.6c7.2,1,14.3,2,21.5,3.1c-3.2,2.6-7.3,4-11.4,3.9
		c6.1,1.3,11.9,3.6,17.2,6.8c-8.5,1.3-17.1,1.9-25.7,1.7c6.8,2.4,13.5,4.7,20.3,7.1c-4.5,1.5-9.3,2.5-14,2.9
		c4.3,1.7,8.5,3.5,12.8,5.2c-6.4,1.3-12.8,2.6-19.2,3.8c6.6,2,13.3,4,19.9,6c-12,0.5-24,1-36,1.4c21.6,7.4,44.4,11.3,67.2,11.7
		c-19.5-0.7-39,0.3-58.3,2.9c16,3.6,32.1,7.2,48.1,10.8c-12.2,1.3-24.4,2.7-36.6,4c-5.4,0.6-11.2,1.3-15.4,4.8
		c12.8,2.2,25.5,4.5,38.3,6.7c-12.8,1.1-25.5,3.4-37.8,7.1c18.4,3.6,36.9,6.7,55.5,9.1c-21.3,0-43.2,0.1-62.8,8.3
		c12.6,4.2,25.7,7,38.9,8.4c-13.7,1.4-27.3,2.7-41,4.1c-4.7,0.5-9.6,1-13.4,3.7c23.7,3,47.6,4.4,71.5,4.1c-18.4-1.5-36.9-2.9-55.4-4
		c-5.9-0.3-12.2-0.6-17.3,2.5c28.7,2.9,57.4,5.7,86.1,8.6c-27.3-0.8-54.6-1.6-81.8-1.9c-5.4-0.1-11.4,0.2-15.1,4
		c24.9,7.1,50.8,10,76.5,12.7c-18.2-1.5-36.7-0.7-54.7,2.3c17.9,4.3,36.2,7.4,54.5,9.2c-20.4-0.4-40.8-0.7-61.2-1.1
		c0.5,3.4,4.6,4.8,7.9,5.6c14.9,3.3,29.9,6.6,44.8,9.9c-11.7,0-23.4,0.4-35,1.3c-3.6,0.3-7.8,1-9.6,4.2c16.8,8.8,35.9,12,54.6,15.1
		c-14.3-1.5-28.8-2-43.2-1.5c9.5,4.1,19.5,7.3,29.6,9.4c-12.6-0.1-25.2,0.6-37.7,2.3c-4.6,0.6-10,2.1-11.2,6.5
		c14.6,8,31.2,11.3,47.5,14.5c-14.3-1.7-28.9-0.8-42.9,2.8c22.3,8.6,46.5,10.5,70.3,12.3c-19.1-0.6-38.2-0.2-57.3,1.3
		c14.8,4.9,30.2,8,45.8,9.1c-21.3-0.1-42.6-0.2-63.8,0.4c-6.6,0.2-13.4,0.5-19.3,3.5c0.6,2.3,3.3,3.3,5.7,3.8
		c12.5,2.8,24.9,5.5,37.4,8.3c-12.1-0.5-24.4,2.3-35.1,8c35.5,6.3,71.8,5.8,107.9,5.3c-25.1-3.3-50.6-4-75.9-2.1
		c18,0.7,36.2-0.5,53.9-3.8c-33.5-4.8-67.2-8.5-101-11c10.3,2.2,20.8,3.1,31.3,2.7"/>
</g>
</svg>
