<?xml version="1.0" encoding="utf-8"?>
<!-- Generator: Adobe Illustrator 19.2.1, SVG Export Plug-In . SVG Version: 6.00 Build 0)  -->
<svg version="1.0" xmlns="http://www.w3.org/2000/svg" xmlns:xlink="http://www.w3.org/1999/xlink" x="0px" y="0px" width="648px"
	 height="432px" viewBox="0 0 648 432" enable-background="new 0 0 648 432" xml:space="preserve">
<g id="Layer_2">
	<path fill="#27AAE1" d="M157.5,43.3c0,0-11.6,20.2,6,36.1c0,0-14.1,0.1-14.5-19.6C148.7,43.1,157.5,43.3,157.5,43.3z"/>
	<path fill="#27AAE1" d="M169,230.9c-0.3,0-5.8-59.5-9.8-102.8c-2.1-1.5-2.5-4.2-2.4-6.9c-0.2-0.5-0.3-1-0.3-1.6
		c0-1.8,0.2-3.5,0.6-5.2c0.1-0.6,0.4-1.1,0.7-1.5c-1.6-17-2.6-28.9-2.6-28.9l-4.8,0.3l5.9,60.3l0.7,2.1l9.2,88.1l13.2,7.1l4.8-7.1
		C184.2,234.7,169.5,230.9,169,230.9z"/>
</g>
<g id="Layer_1">
	
		<ellipse transform="matrix(0.9939 -0.1104 0.1104 0.9939 -5.7635 18.2039)" fill="none" stroke="#000000" stroke-width="2" stroke-miterlimit="10" cx="161.5" cy="61.1" rx="12.4" ry="18.4"/>
	<path fill="none" stroke="#000000" stroke-width="2" stroke-miterlimit="10" d="M147.5,49.2c0,0,13.7-2.1,20.1-6"/>
	<path fill="none" stroke="#000000" stroke-width="2" stroke-miterlimit="10" d="M146.6,52.8c0,0,14.2-1.4,23.7-7.1"/>
	<path fill="none" stroke="#000000" stroke-width="2" stroke-miterlimit="10" d="M146.3,56.6c0,0,16.6-1.1,25.4-7.6"/>
	<path fill="none" stroke="#000000" stroke-width="2" stroke-miterlimit="10" d="M160.2,79.1c0,0,0.2,2.1,0.4,3.8"/>
	<path fill="none" stroke="#000000" stroke-width="2" stroke-miterlimit="10" d="M168,82.8c-0.2-2.1-0.5-4.9-0.5-4.9"/>
	<path fill="none" stroke="#000000" stroke-width="2" stroke-miterlimit="10" d="M163,146.6c-3.4,0-6,0-6,0l-6.7-62.3l28-2
		l-1.7,64.3c0,0-4.6,0-8.8,0"/>
	<polyline fill="none" stroke="#000000" stroke-width="2" stroke-miterlimit="10" points="159,91.6 156.2,119.6 164.3,152.3 
		168,151.6 165.2,120.3 169,91.6 	"/>
	<polyline fill="none" stroke="#000000" stroke-width="2" stroke-miterlimit="10" points="168,151.6 170.8,156.9 169,158.7 
		167.5,157.2 168.5,165 163.6,163.1 164.3,152.3 	"/>
	<line fill="none" stroke="#000000" stroke-width="2" stroke-miterlimit="10" x1="156.2" y1="119.6" x2="165.2" y2="120.3"/>
	<polyline fill="none" stroke="#000000" stroke-width="2" stroke-miterlimit="10" points="158,146.6 166.2,230.5 170,230.5 
		173.8,146.6 	"/>
	<polyline fill="none" stroke="#000000" stroke-width="2" stroke-miterlimit="10" points="176.7,146.6 173.5,228.8 170.8,228.8 	"/>
	<polygon fill="none" stroke="#000000" stroke-width="2" stroke-miterlimit="10" points="166.2,230.5 186,233.1 179.5,239 
		166.2,233.5 	"/>
	<polyline fill="none" stroke="#000000" stroke-width="2" stroke-miterlimit="10" points="173.5,228.8 185.3,228.8 182.8,232.7 	"/>
	<path fill="none" stroke="#000000" stroke-width="2" stroke-miterlimit="10" d="M34.7,276l32-22.2l39-8.5l28-10.6
		c0,0,19.3-4.7,31.8-7.8"/>
	<path fill="none" stroke="#000000" stroke-width="2" stroke-miterlimit="10" d="M174.3,224.7c1.1-0.3,1.7-0.4,1.7-0.4h29.1l3.5,8.4
		l-10.5,9.6l-33,16.5L121.7,276h-34l-33,14.8"/>
	<polyline fill="none" stroke="#000000" stroke-width="2" stroke-miterlimit="10" points="208.7,232.7 194.2,276 194.2,285.5 
		208.7,307.8 206.2,329.8 226.2,342.8 247.7,389.8 	"/>
	<polyline fill="none" stroke="#000000" stroke-width="2" stroke-miterlimit="10" points="185.3,248.7 185.3,277.6 170.8,311.3 
		179.4,333.3 192,339.6 196.7,387.6 	"/>
	<polyline fill="none" stroke="#000000" stroke-width="2" stroke-miterlimit="10" points="145.7,298 138.7,333.3 153.3,348.6 
		150.3,382.6 	"/>
	<polyline fill="none" stroke="#000000" stroke-width="2" stroke-miterlimit="10" points="612.3,276 580.3,253.8 541.3,245.3 
		513.3,234.7 470.9,224.3 441.8,224.3 438.3,232.7 448.8,242.3 481.8,258.8 525.3,276 559.3,276 592.3,290.8 	"/>
	<polyline fill="none" stroke="#000000" stroke-width="2" stroke-miterlimit="10" points="438.3,232.7 452.8,276 452.8,285.5 
		438.3,307.8 440.8,329.8 420.8,342.8 399.3,389.8 	"/>
	<polyline fill="none" stroke="#000000" stroke-width="2" stroke-miterlimit="10" points="461.6,248.7 461.6,277.6 476.1,311.3 
		467.5,333.3 455,339.6 450.3,387.6 	"/>
	<polyline fill="none" stroke="#000000" stroke-width="2" stroke-miterlimit="10" points="496.6,382.6 493.6,348.6 508.3,333.3 
		501.3,298 510.7,287.8 510.7,270.2 	"/>
	<path fill="none" stroke="#000000" stroke-width="2" stroke-miterlimit="10" d="M540.2,302.1v22.5c0,0-12.5,2.8-12.5,4
		s-9.5,26.5-9.5,26.5"/>
</g>
<g id="Layer_3">
	<path fill="none" d="M151.7,44.1c2.9-1.1,6.2-1.2,9.2-0.4c-4.3,1.8-8.8,2.9-13.4,3.5c4,0.1,8.1,0.2,12.1,0.3
		c-4.8,2.3-9.6,4.6-14.5,7c4,0,8-0.1,12-0.1c-3.6,3.5-8,6.2-12.8,7.6c4.8-0.3,9.6-0.6,14.3-0.9c-4.2,2.8-8.5,5.6-12.7,8.4
		c5.4-1.2,11-1.7,16.5-1.5c-5.4,1.7-10.7,3.7-15.8,6.1c5.4,0.1,10.7,0.2,16.1,0.3c-4.5,1.9-9.3,3.1-14.1,3.7
		c5.3-0.2,10.7-0.4,16-0.5c-6.6,2.1-13,4.8-19.1,8.1c4.4,0.3,8.8,0.3,13.3,0c-5.9,2.4-11.8,4.9-17.7,7.3c5.6-0.8,11.3-1.2,17-1.2
		c-4.1,2.2-8.2,4.4-12.3,6.5c6.9-1.6,14-2.3,21-2.1c-7.3,2.8-14.5,5.5-21.8,8.3c4.1-0.2,8.2-0.4,12.4-0.6
		c-5.1,2.3-10.2,4.5-15.3,6.8c6.8-1.2,13.7-1.8,20.7-1.8c-3.7,1.1-7.1,2.8-10.2,5.1c2.5-0.2,4.9-0.3,7.4-0.5
		c-5.4,2.4-10.6,5.1-15.7,8.2c3.8,0.1,7.7,0.3,11.5,0.4c-1.9,0.9-3.7,2.1-5.1,3.6c4.2-2,8.9-3.1,13.5-3.3c-4.9,2.4-9.7,5.1-14.4,8
		c7-2.2,14.2-3.3,21.5-3.4c-5.7,2-11.1,5-15.8,8.8c2.7-1,5.6-1.6,8.5-1.7c-5.8,1.4-11.2,4.4-15.5,8.4c6.2-0.3,12.5-0.6,18.7-1
		c-5.2,1.7-10,4.5-14.1,8.2c2.6-0.9,5.3-1.8,7.9-2.7c-4.1,2.6-7.6,6.2-10.2,10.4c5.7-0.3,11.4-0.6,17-0.9c-6.7,3.1-13.4,6.2-20,9.4
		c4.2-0.3,8.4-0.6,12.6-0.9c-4.1,1.9-7.8,4.8-10.7,8.3c6.1-0.2,12.3-0.3,18.4-0.5c-5.3,2-10.4,4.6-15.2,7.6
		c4.7-0.2,9.4-0.3,14.2-0.5c-3.9,2-7.5,4.5-10.7,7.5c3.3,0.6,6.6,0.7,9.9,0.4c-3.9,2.4-7.3,5.4-10.1,9c4.4,0.2,8.7,0.2,13.1,0.1
		c-4.2,2.7-8.2,5.6-12,8.9c3.4-0.4,6.8-0.8,10.2-1.2c-2.8,2.4-5.5,4.7-8.3,7.1c3.8-0.1,7.6-0.3,11.4-0.4c-4.4,2.5-8.6,5.2-12.7,8.1
		c2.3,0.1,4.5,0.2,6.8,0.3c-1.3,2.5-2.6,5.1-3.9,7.6c3.2-0.1,6.3-0.2,9.5-0.3c-2.8,1.3-5.4,3.2-7.6,5.4c3.9-0.3,7.8-1.1,11.5-2.4
		c-2.6,1.6-4.9,3.6-6.9,5.8c6.2-2.2,12.5-4.4,18.7-6.5c-4.7,2.3-9.2,5.3-13.1,8.8c2.8-1.1,5.6-2.2,8.3-3.3c-2.6,1.4-5,3.2-7,5.4
		c3.7-0.2,7.4-1,10.9-2.4"/>
</g>
</svg>
