<?xml version="1.0" encoding="utf-8"?>
<!-- Generator: Adobe Illustrator 19.2.1, SVG Export Plug-In . SVG Version: 6.00 Build 0)  -->
<svg version="1.0" xmlns="http://www.w3.org/2000/svg" xmlns:xlink="http://www.w3.org/1999/xlink" x="0px" y="0px" width="432px"
	 height="432px" viewBox="0 0 432 432" enable-background="new 0 0 432 432" xml:space="preserve">
<g id="Layer_2">
	<path fill="#27AAE1" d="M179.8,72.4c0,0-21.2,25.8,1.1,49c0,0-14.1-0.8-15.3-22.4S177.5,72.4,179.8,72.4z"/>
	<polygon fill="#27AAE1" points="168.2,127.2 172.5,204 193,209 175.5,209.7 170.8,345.4 159.7,359.2 149.9,354.4 164.8,345.2 
		163.9,209 159.8,127.2 	"/>
	<polygon fill="#27AAE1" points="180.1,209 186.9,345.4 202.2,362 212.8,357.5 192.2,345.4 185.3,209.3 	"/>
	<path fill="#27AAE1" d="M160.6,143.2l-9.9,24.9l1,47.8c0,0,2.3,0.1,2.2,0s1.8-46.3,1.8-46.3l6-13.7L160.6,143.2z"/>
</g>
<g id="Layer_1">
	<ellipse fill="none" stroke="#000000" stroke-width="2" stroke-miterlimit="10" cx="180.9" cy="96.9" rx="15.4" ry="24.5"/>
	<path fill="none" stroke="#000000" stroke-width="2" stroke-miterlimit="10" d="M191,74.5c0,0-12.2,2.3-18.8,0"/>
	<path fill="none" stroke="#000000" stroke-width="2" stroke-miterlimit="10" d="M192.9,77.7c-1.1,0.6-12.9,3.4-23.1,0.5"/>
	<path fill="none" stroke="#000000" stroke-width="2" stroke-miterlimit="10" d="M194.2,81.4c0,0-12.7,5.4-25.5,0.7"/>
	<polyline fill="none" stroke="#000000" stroke-width="2" stroke-miterlimit="10" points="185.8,120.1 185.8,127.2 176.4,127.2 
		176.4,120.4 	"/>
	<polygon fill="none" stroke="#000000" stroke-width="2" stroke-miterlimit="10" points="201.1,127.2 159.8,127.2 163.9,209 
		196.3,209 	"/>
	<polyline fill="none" stroke="#000000" stroke-width="2" stroke-miterlimit="10" points="159.8,127.2 144,165.2 147.5,215.9 
		153.9,215.9 155.8,169.6 161.1,154.1 	"/>
	<polyline fill="none" stroke="#000000" stroke-width="2" stroke-miterlimit="10" points="153.8,215.8 158.3,223.6 154.8,225.6 
		151.2,221.8 150.3,238.3 143.1,231.4 147.5,215.8 	"/>
	<line fill="none" stroke="#000000" stroke-width="2" stroke-miterlimit="10" x1="155.8" y1="169.6" x2="144" y2="165.2"/>
	<polyline fill="none" stroke="#000000" stroke-width="2" stroke-miterlimit="10" points="196.3,209 193.6,345.4 186.9,345.4 
		180.1,209 172.6,345.4 164.9,345.4 163.9,209 	"/>
	<polyline fill="none" stroke="#000000" stroke-width="2" stroke-miterlimit="10" points="193.6,345.4 213.7,354 200.9,360.2 
		186.9,345.4 	"/>
	<polyline fill="none" stroke="#000000" stroke-width="2" stroke-miterlimit="10" points="172.6,345.4 161.9,360.2 148.9,353.9 
		164.9,345.4 	"/>
	<ellipse fill="none" stroke="#000000" stroke-width="2" stroke-miterlimit="10" cx="247.4" cy="107.8" rx="14.1" ry="23.4"/>
	<path fill="none" stroke="#000000" stroke-width="2" stroke-miterlimit="10" d="M253,128.9c0.1,0.9,0.4,5,0.4,5"/>
	<line fill="none" stroke="#000000" stroke-width="2" stroke-miterlimit="10" x1="243.9" y1="130.5" x2="243.9" y2="133.9"/>
	<path fill="none" stroke="#000000" stroke-width="2" stroke-miterlimit="10" d="M256.4,133.4c-11.5,0.4-28,1.1-28,1.1l8.7,79.3
		h30.2V133"/>
	<polyline fill="none" stroke="#000000" stroke-width="2" stroke-miterlimit="10" points="267.3,133 282.8,172.2 281,218.7 
		275,217.9 273.3,173.4 267.3,160.7 	"/>
	<polyline fill="none" stroke="#000000" stroke-width="2" stroke-miterlimit="10" points="275,218.2 270.3,227.5 273.7,230.1 
		276.9,225.2 277.9,226.6 276.9,238 283.4,235.2 281,219 	"/>
	<line fill="none" stroke="#000000" stroke-width="2" stroke-miterlimit="10" x1="282.2" y1="172.1" x2="273.3" y2="173.4"/>
	<polyline fill="none" stroke="#000000" stroke-width="2" stroke-miterlimit="10" points="228.4,134.5 222.4,213.8 227.1,214.7 
		232.8,174.6 	"/>
	<polyline fill="none" stroke="#000000" stroke-width="2" stroke-miterlimit="10" points="227.1,214.7 229.4,222.6 226.2,224.8 
		224.4,221.6 220.7,232.5 213.5,231.5 222.4,213.8 	"/>
	<polyline fill="none" stroke="#000000" stroke-width="2" stroke-miterlimit="10" points="267.3,213.8 266.3,342.6 260,342.6 
		252.7,214.6 250.6,214.6 238,342.6 230.8,342.6 237.1,213.8 	"/>
	<polyline fill="none" stroke="#000000" stroke-width="2" stroke-miterlimit="10" points="266.3,342.6 286.3,353.2 269.9,357.5 
		260,342.6 	"/>
	<polyline fill="none" stroke="#000000" stroke-width="2" stroke-miterlimit="10" points="238,342.6 234.6,359.9 218.3,357.5 
		230.8,342.6 	"/>
	<path fill="none" stroke="#000000" stroke-width="2" stroke-miterlimit="10" d="M263,130.5"/>
	<path fill="none" stroke="#000000" stroke-width="2" stroke-miterlimit="10" d="M201.1,127.2"/>
	<path fill="none" stroke="#000000" stroke-width="2" stroke-miterlimit="10" d="M228.1,139"/>
	<path fill="none" stroke="#000000" stroke-width="2" stroke-miterlimit="10" d="M201.1,140.5"/>
	<path fill="none" stroke="#000000" stroke-width="2" stroke-miterlimit="10" d="M259.4,129.5"/>
	<path fill="none" stroke="#000000" stroke-width="2" stroke-miterlimit="10" d="M201.1,127.2c0,0,20.4,0.1,38.2,0.2"/>
	<path fill="none" stroke="#000000" stroke-width="2" stroke-miterlimit="10" d="M254.9,127.5c6.1,0,10.3,0.1,10.3,0.1l1.3,5.6
		l-1.4,9.4l-7.8,0.7l-1.2-12.6"/>
	<path fill="none" stroke="#000000" stroke-width="2" stroke-miterlimit="10" d="M201.1,139c0,0,13.7-1.4,27.5-2.8"/>
	<line fill="none" stroke="#000000" stroke-width="2" stroke-miterlimit="10" x1="263.1" y1="142.6" x2="262.8" y2="135.6"/>
	<line fill="none" stroke="#000000" stroke-width="2" stroke-miterlimit="10" x1="260.2" y1="142.6" x2="259.7" y2="135.7"/>
</g>
<g id="Layer_3">
	<path fill="none" d="M172.5,72.1c5.2,1.3,10.5,2,15.9,2.2c-7.2,0.5-14.4,2.1-21.1,4.9c6.2,0.1,12.4,0.2,18.6,0.4
		c-8.2,2.5-16.4,5.1-24.5,7.6c7.5,0.4,14.9,0.8,22.4,1.2c-7,3.3-14,6.5-21,9.8c5.2,0.2,10.5,0.3,15.7,0.5c-4.6,2.5-9.6,4.4-14.8,5.5
		c6,0.8,12,1.7,18.1,2.5c-7.3,1.8-14.6,3.7-21.9,5.5c7.9,0.3,15.7,0.6,23.6,0.8c-8.8,1.9-17.6,3.9-26.4,5.8c8.2,1,16.5,2,24.7,3
		c-11.2,2.9-22.4,5.9-33.6,8.8c10.9,1.2,21.9,1.5,32.9,0.9c-13.4,4.2-26.8,8.4-40.2,12.6c12.8-0.8,25.7-1.7,38.5-2.5
		c-9.5,7-19.9,12.6-31,16.6c10.2-0.2,20.5,0.2,30.7,1.2c-11.7,5.2-24,8.9-36.6,11.2c12.3,0.4,24.7,0.8,37,1.2
		c-12.7,3.9-25.4,7.8-38.2,11.7c13.9,2.2,28.1,2.8,42.2,1.9c-13.5,2.6-26.9,5.1-40.4,7.7c12.2-0.4,24.4,0,36.5,1.3
		c-13,3.3-26.1,6.7-39.1,10c20.7,0.3,41.5,0.6,62.2,1c-18.9,0-37.9,0-56.8,0c-2.3,0-5.1,0.3-6,2.5c17.7-0.4,35.3,4.3,52.9,6.8
		c-8,1.2-15.4,0.6-22.9,3.6c-7.6,3-15.2,6.1-22.8,9.1c19.8,1.1,39.6,1.6,59.4,1.6c-17.4,1.7-34.8,3.3-52.2,5
		c10,0.9,19.9,1.8,29.9,2.6c-11.4,7.1-24.3,11.9-37.7,13.9c11.8,0.5,23.6,0.8,35.5,0.9c-10.9,3.1-21.9,6.2-32.8,9.4
		c18,0.4,36,1.3,53.9,2.8c-16.5,2.7-33.2,4.6-49.9,5.5c10-0.7,30.4,6,40.2,8.1c-9.6,2-30.2-1.5-36.7,5.9c16,2,31.9,4,47.9,6.1
		c-19.7,1.5-39.4,3.1-59.1,4.6c13.6,2.1,27.1,4.1,40.7,6.2c-10.3,2.8-20.6,5.6-31,8.3c11.8,1.8,23.8,2.5,35.8,2.2
		c-9.7,2.7-19.3,5.5-29,8.2c8.4,3.3,29.8,2,38.7,0.6c-7.3,1.8-26.8,5.9-34.1,7.7c11.8,1.3,23.5,3.5,35,6.6
		c-10.9,2.6-21.9,5.1-32.8,7.7c7.9,0.7,15.9,0.7,23.9,0.1c-10.9-1.5-31.2,8-40.5,13.9c13.5,1.5,35.8-4.9,49.4-5.3
		c-9.5,0-18.9,1.5-27.9,4.4c-2,0.6-4.4,1.8-4.4,3.9c16.5,1.6,33.3,0.7,49.5-2.7c1.9-0.4,4.4-1.8,3.8-3.6"/>
</g>
</svg>
