<?xml version="1.0" encoding="utf-8"?>
<!-- Generator: Adobe Illustrator 21.0.0, SVG Export Plug-In . SVG Version: 6.00 Build 0)  -->
<!DOCTYPE svg PUBLIC "-//W3C//DTD SVG 1.0//EN" "http://www.w3.org/TR/2001/REC-SVG-20010904/DTD/svg10.dtd">
<svg version="1.0" id="Layer_1" xmlns="http://www.w3.org/2000/svg" xmlns:xlink="http://www.w3.org/1999/xlink" x="0px" y="0px"
	 width="432px" height="432px" viewBox="0 0 432 432" enable-background="new 0 0 432 432" xml:space="preserve">
<g id="Color">
	<path fill="#27AAE1" d="M201.6,79.9c0,0,25,21.1,7.2,43.9c0,0,13.1,0.2,10.6-23C216.8,78.6,201.6,79.9,201.6,79.9z"/>
	<polygon fill="#27AAE1" points="221.9,122.4 228.1,195.8 210.6,201.3 231,199.8 235.1,172.7 230.7,120.9 	"/>
	<polygon fill="#27AAE1" points="230.7,129.1 243.3,157.7 233.9,202.7 230.5,202.7 237.6,158.3 229.4,145.6 	"/>
	<polygon fill="#27AAE1" points="229,206.7 243.3,334.4 230.7,353.3 246.4,354.8 247.4,334.4 237.5,207.2 	"/>
	<polygon fill="#27AAE1" points="210.6,201.3 216.7,334.4 195.2,348.2 212.4,351.2 220.4,334.4 218.4,201.8 	"/>
</g>
<g id="Lines">
	
		<ellipse transform="matrix(0.9868 -0.1619 0.1619 0.9868 -13.774 34.5648)" fill="none" stroke="#000000" stroke-width="2" stroke-miterlimit="10" cx="205.2" cy="101.8" rx="14.2" ry="22.2"/>
	<path fill="none" stroke="#000000" stroke-width="2" stroke-miterlimit="10" d="M192,85.1c0,0,7.8,0.1,17.1-4.6"/>
	<path fill="none" stroke="#000000" stroke-width="2" stroke-miterlimit="10" d="M190.7,89c0,0,12.2,1.4,21.1-6.2"/>
	<path fill="none" stroke="#000000" stroke-width="2" stroke-miterlimit="10" d="M189.7,93.3c0,0,17.5,1.7,24.5-7.4"/>
	<line fill="none" stroke="#000000" stroke-width="2" stroke-miterlimit="10" x1="216" y1="118.7" x2="216.8" y2="123.1"/>
	<path fill="none" stroke="#000000" stroke-width="2" stroke-miterlimit="10" d="M231,199.8c-7.9,1.2-21.4,2.8-29.5,1.6l-11.8-73.5
		l41-7c0,0,2.5,29.8,4.4,52.5"/>
	<polyline fill="none" stroke="#000000" stroke-width="2" stroke-miterlimit="10" points="230.7,120.1 249.4,157 236.8,203.5 
		230.7,202.6 237.2,158.3 233,149.3 	"/>
	<path fill="none" stroke="#000000" stroke-width="2" stroke-miterlimit="10" d="M189.7,129.5l-6.4,39.6c0,0,13.5,21.7,17.9,30.3"/>
	<polyline fill="none" stroke="#000000" stroke-width="2" stroke-miterlimit="10" points="194.4,158.4 193,168.3 198.1,180.2 	"/>
	<line fill="none" stroke="#000000" stroke-width="2" stroke-miterlimit="10" x1="193" y1="168.3" x2="183.3" y2="168"/>
	<path fill="none" stroke="#000000" stroke-width="2" stroke-miterlimit="10" d="M202.8,202.4l10.4,132h7.2l-2.1-133l21.7,133h7.4
		c0,0-7.7-98.5-9.9-127.2"/>
	<polyline fill="none" stroke="#000000" stroke-width="2" stroke-miterlimit="10" points="230.5,202.7 228.1,204.8 230.5,206.2 
		237.6,206.9 236.6,203.6 	"/>
	<line fill="none" stroke="#000000" stroke-width="2" stroke-miterlimit="10" x1="237.2" y1="158.3" x2="249.4" y2="157"/>
	<polyline fill="none" stroke="#000000" stroke-width="2" stroke-miterlimit="10" points="213.4,334.6 192.8,344.2 211,348.2 
		220.8,335.2 	"/>
	<polyline fill="none" stroke="#000000" stroke-width="2" stroke-miterlimit="10" points="240.3,334.6 229,350 246.5,351.3 
		247.7,334.6 	"/>
</g>
<g id="Stroke">
	
		<path opacity="0" fill="none" stroke="#000000" stroke-width="21" stroke-linecap="round" stroke-linejoin="round" stroke-miterlimit="10" d="
		M223,79.3c-18.3-0.8-38.6-1-52.6,10.9c23.1,1.2,46.2,2.5,69.3,3.7c-18.6,16.3-51,1.3-70.8,16c30.1,1.4,60.2,1.6,90.3,0.6
		c-16.1,6.1-33.3,8.6-50.3,11.1c-15.2,2.2-30.4,4.5-45.6,6.7c34.5,2.9,69.2,4.6,103.9,5.2c-35.1,6.5-70.2,13-105.2,19.5
		c30.1,0.5,60.2,0.9,90.3,1.4c-25.7,12.9-53,22.6-81.1,28.8c24.6-2.7,49.4-4.5,74.2-5.4c-13,15.1-39.2,10.4-53.8,24.1
		c19.2,1.2,38.5,2.4,57.7,3.5c-22.4,9-45.6,16.3-69.2,21.8c26.7,0.4,53.4,0.8,80.1,1.2c-18.7,3.8-37.5,7.6-56.2,11.5
		c-6.6,1.3-13.6,2.9-18,7.9c25.3,0.1,50.6,0.3,75.8,0.4c-24.5,5.4-49.1,10.9-73.6,16.3c21.2,2,42.3,4,63.5,5.9
		c-20.2,5.7-40.5,11.4-60.7,17c24,1.3,47.9,2.5,71.9,3.8c-21.5,8.1-44.5,12.2-67.5,11.9c17.3,4.8,34.7,9.5,52,14.3
		c-19.2,3.5-38.3,7.1-57.5,10.6c20,0,40.1,2.7,59.4,8c-15.4,3.4-31.4,4-47,1.8c18,5.4,36,10.8,54.1,16.2
		c-23.7-4.5-47.7-7.9-71.7-10.2c3.5-0.3,7-0.6,10.5-0.9"/>
</g>
</svg>
