<?xml version="1.0" encoding="utf-8"?>
<!-- Generator: Adobe Illustrator 19.2.1, SVG Export Plug-In . SVG Version: 6.00 Build 0)  -->
<svg version="1.0" xmlns="http://www.w3.org/2000/svg" xmlns:xlink="http://www.w3.org/1999/xlink" x="0px" y="0px" width="432px"
	 height="432px" viewBox="0 0 432 432" enable-background="new 0 0 432 432" xml:space="preserve">
<g id="Layer_2">
	<path fill="#27AAE1" d="M215.4,71.7c0,0-17.2,27.4,0.8,49c0,0-14.9-1.1-15.4-23.1C200.4,75.6,215.4,71.7,215.4,71.7z"/>
	<polygon fill="#27AAE1" points="202.7,126.4 206.7,204.1 228.9,208.2 208.5,208.2 203.9,344.7 196.1,362.3 181.4,355.6 
		200.7,344.7 199.3,208.2 195.1,126.4 	"/>
	<polygon fill="#27AAE1" points="222.3,208.2 225.9,344.7 247.9,356.1 235.1,362.3 222.3,344.7 215.4,208.2 	"/>
	<polygon fill="#27AAE1" points="195.6,135.6 185.2,166.7 186,215 189.1,215 191.1,168.9 196.5,153.4 	"/>
</g>
<g id="Layer_3">
	<path fill="none" d="M203.9,73.1c5.2,0,10.5,0,15.7,0.1c-7.6,0.2-15.2,1.9-22.2,5.1c6.6,0.1,13.3,0.6,19.9,1.4
		c-7.8,2.7-15.5,5.4-23.3,8.1c5.5,0.1,11.1,0.3,16.6,0.4c-5.6,2.3-11.2,4.7-16.9,7c5.6-0.1,11.3-0.3,16.9-0.4
		c-7.3,2-14.3,4.8-21,8.2c9.2,0.3,18.4,0.6,27.7,0.9c-7.5,3.5-15.5,6-23.7,7.5c6.4,0.3,12.7,0.5,19.1,0.8
		c-7.1,1.9-14.3,3.7-21.4,5.6c9.5-1.2,19.1-1.4,28.6-0.4c-11.7,2.2-23.1,6-33.8,11.3c9,0.7,18,1.5,26.9,2.2c-11,1.8-21.7,5-31.9,9.5
		c10.6,0.5,21.2,1,31.8,1.5c-10.6,1.9-21.2,3.8-31.9,5.7c-2.2,0.4-4.7,1-5.6,3c13.2,0.6,26.4,0.7,39.5,0.4
		c-12.9,2.2-25.6,5.3-38,9.2c15.7,0.1,31.5,0.1,47.2,0.2c-16.8-0.3-33.6,3.3-48.7,10.4c15.8,0.1,31.7,0.2,47.5,0.4
		c-18.8,2.1-37.4,6.1-55.4,12.1c15.9-0.1,31.8-0.2,47.7-0.2c-18.1,2.9-35.9,7.7-53,14.4c19-0.5,37.9-1,56.9-1.6
		c-15,5.4-30.4,9.7-46,12.9c18.3-1.4,36.8-1.7,55.1-0.8c-15.3,3.1-30.7,6.1-46,9.2c-7.2,1.4-14.7,3-20.5,7.6
		c26.4-1.6,52.9-3.3,79.3-4.9c-19.4,7.6-39.4,13.9-59.6,18.8c15.2,0.1,30.4,0.2,45.6,0.3c-16.6,3.2-33.3,6.4-49.9,9.5
		c18.2,0.6,36.3,1.2,54.5,1.8c-14.5,1.4-28.9,3.9-43.1,7.3c17.7,0.1,35.5,0.2,53.1,2.6c-18.3,1.7-36.4,4.2-54.5,7.5
		c13.7,2,27.5,3,41.3,2.9c-18.4,2.5-36.8,5-55.1,7.5c21.2-0.1,42.3-0.3,63.5-0.4c-15.2,6.5-30.4,12.9-45.6,19.4
		c14.7-0.2,29.5-0.4,44.2-0.6c-12.2,3.1-24.4,6.1-36.6,9.2c10.9,0.3,21.8,0.6,32.8,0.8c-14.8,2.7-29.8,4.7-44.8,6
		c19.3-0.2,38.7,0.6,57.9,2.4c-14.6,2.6-29.3,5.1-44,7.2c10.3,0.2,20.6,0.3,30.9,0.5c-13.6,1.2-27,5.3-39,11.8
		c18.8,0.1,37.7,0.2,56.5,0.3c-17.1-0.6-34.3,0.1-51.3,2.2c12.3-0.5,24.6-0.9,36.9-1.4c-14.1,0.3-28.3,2.3-41.9,5.9
		c-3.6,1-8,3.2-7.6,6.9c23.5,1,47,0.2,70.4-2.4c-20.6,6.9-43,4.2-64.6,5.5c-4.4,0.3-9.8,1.5-11,5.7c22.6,4.3,46.2,3.6,68.5-1.9
		c1.3-1.6,2.7-3.2,4-4.8c-6.9-1.6-14-2.1-21.1-1.7"/>
</g>
<g id="Layer_1">
	<ellipse fill="none" stroke="#000000" stroke-width="2" stroke-miterlimit="10" cx="216.2" cy="96.2" rx="15.4" ry="24.5"/>
	<path fill="none" stroke="#000000" stroke-width="2" stroke-miterlimit="10" d="M226.4,73.8c0,0-12.2,2.3-18.8,0"/>
	<path fill="none" stroke="#000000" stroke-width="2" stroke-miterlimit="10" d="M228.2,77c-1.1,0.6-12.9,3.4-23.1,0.5"/>
	<path fill="none" stroke="#000000" stroke-width="2" stroke-miterlimit="10" d="M229.5,80.6c0,0-12.7,5.4-25.5,0.7"/>
	<polyline fill="none" stroke="#000000" stroke-width="2" stroke-miterlimit="10" points="221.2,119.4 221.2,126.4 211.8,126.4 
		211.8,119.6 	"/>
	<polygon fill="none" stroke="#000000" stroke-width="2" stroke-miterlimit="10" points="236.4,126.4 195.1,126.4 199.3,208.2 
		231.6,208.2 	"/>
	<polyline fill="none" stroke="#000000" stroke-width="2" stroke-miterlimit="10" points="195.1,126.4 179.4,164.5 182.9,215.1 
		189.2,215.1 191.1,168.9 196.5,153.4 	"/>
	<polyline fill="none" stroke="#000000" stroke-width="2" stroke-miterlimit="10" points="189.1,215 193.6,222.8 190.1,224.8 
		186.6,221.1 185.6,237.5 178.4,230.7 182.8,215 	"/>
	<line fill="none" stroke="#000000" stroke-width="2" stroke-miterlimit="10" x1="191.1" y1="168.9" x2="179.4" y2="164.5"/>
	<polyline fill="none" stroke="#000000" stroke-width="2" stroke-miterlimit="10" points="236.2,126.4 252,164.5 248.5,215.1 
		242.1,215.1 240.2,168.9 234.9,153.4 	"/>
	<polyline fill="none" stroke="#000000" stroke-width="2" stroke-miterlimit="10" points="242.3,215 237.8,222.8 241.2,224.8 
		244.8,221.1 245.7,237.5 252.9,230.7 248.5,215 	"/>
	<line fill="none" stroke="#000000" stroke-width="2" stroke-miterlimit="10" x1="240.2" y1="168.9" x2="252" y2="164.5"/>
	<polyline fill="none" stroke="#000000" stroke-width="2" stroke-miterlimit="10" points="231.6,208.2 228.9,344.7 222.3,344.7 
		215.4,208.2 207.9,344.7 200.3,344.7 199.3,208.2 	"/>
	<polyline fill="none" stroke="#000000" stroke-width="2" stroke-miterlimit="10" points="228.9,344.7 249,353.2 236.2,359.5 
		222.3,344.7 	"/>
	<polyline fill="none" stroke="#000000" stroke-width="2" stroke-miterlimit="10" points="207.9,344.7 197.2,359.5 184.2,353.1 
		200.3,344.7 	"/>
</g>
</svg>
