<?xml version="1.0" encoding="utf-8"?>
<!-- Generator: Adobe Illustrator 19.2.1, SVG Export Plug-In . SVG Version: 6.00 Build 0)  -->
<svg version="1.0" id="Layer_1" xmlns="http://www.w3.org/2000/svg" xmlns:xlink="http://www.w3.org/1999/xlink" x="0px" y="0px"
	 width="432px" height="432px" viewBox="0 0 432 432" enable-background="new 0 0 432 432" xml:space="preserve">
<line fill="none" stroke="#000000" stroke-width="2" stroke-miterlimit="10" x1="160.2" y1="261" x2="160.2" y2="234"/>
<line fill="none" stroke="#000000" stroke-width="2" stroke-miterlimit="10" x1="202.2" y1="261" x2="202.2" y2="234"/>
<line fill="none" stroke="#000000" stroke-width="2" stroke-miterlimit="10" x1="232.2" y1="261" x2="232.2" y2="234"/>
<line fill="none" stroke="#000000" stroke-width="2" stroke-miterlimit="10" x1="274.2" y1="261" x2="274.2" y2="234"/>
<polyline fill="none" stroke="#000000" stroke-width="2" stroke-miterlimit="10" points="154.1,238 180.6,220.1 208.3,238 "/>
<polyline fill="none" stroke="#000000" stroke-width="2" stroke-miterlimit="10" points="226,238 252.5,220.1 280.2,238 "/>
<line fill="none" stroke="#000000" stroke-width="2" stroke-miterlimit="10" x1="203.2" y1="207.3" x2="203.2" y2="226"/>
<line fill="none" stroke="#000000" stroke-width="2" stroke-miterlimit="10" x1="230.2" y1="207.3" x2="230.2" y2="226"/>
<line fill="none" stroke="#000000" stroke-width="2" stroke-miterlimit="10" x1="157.1" y1="207.3" x2="157.1" y2="226"/>
<line fill="none" stroke="#000000" stroke-width="2" stroke-miterlimit="10" x1="184.1" y1="207.3" x2="184.1" y2="222.7"/>
<line fill="none" stroke="#000000" stroke-width="2" stroke-miterlimit="10" x1="249.2" y1="207.3" x2="249.2" y2="222.6"/>
<line fill="none" stroke="#000000" stroke-width="2" stroke-miterlimit="10" x1="276.2" y1="207.3" x2="276.2" y2="226"/>
<polyline fill="none" stroke="#000000" stroke-width="2" stroke-miterlimit="10" points="198.7,209.3 217.2,200.2 234.8,209.3 "/>
<polyline fill="none" stroke="#000000" stroke-width="2" stroke-miterlimit="10" points="152.5,209.3 171.1,200.2 188.6,209.3 "/>
<polyline fill="none" stroke="#000000" stroke-width="2" stroke-miterlimit="10" points="244.6,209.3 263.2,200.2 280.7,209.3 "/>
<line fill="none" stroke="#000000" stroke-width="2" stroke-miterlimit="10" x1="183.5" y1="187.7" x2="183.5" y2="201"/>
<line fill="none" stroke="#000000" stroke-width="2" stroke-miterlimit="10" x1="202.6" y1="187.7" x2="202.6" y2="201"/>
<line fill="none" stroke="#000000" stroke-width="2" stroke-miterlimit="10" x1="228.8" y1="187.7" x2="228.8" y2="201"/>
<line fill="none" stroke="#000000" stroke-width="2" stroke-miterlimit="10" x1="248" y1="187.7" x2="248" y2="201"/>
<line fill="none" stroke="#000000" stroke-width="2" stroke-miterlimit="10" x1="141" y1="187.7" x2="141" y2="201"/>
<line fill="none" stroke="#000000" stroke-width="2" stroke-miterlimit="10" x1="160.2" y1="187.7" x2="160.2" y2="201"/>
<line fill="none" stroke="#000000" stroke-width="2" stroke-miterlimit="10" x1="271.7" y1="187.7" x2="271.7" y2="201"/>
<line fill="none" stroke="#000000" stroke-width="2" stroke-miterlimit="10" x1="290.9" y1="187.7" x2="290.9" y2="201"/>
<polyline fill="none" stroke="#000000" stroke-width="2" stroke-miterlimit="10" points="180.2,189.1 193.4,182.7 205.8,189.1 "/>
<polyline fill="none" stroke="#000000" stroke-width="2" stroke-miterlimit="10" points="225.6,189.1 238.8,182.7 251.2,189.1 "/>
<polyline fill="none" stroke="#000000" stroke-width="2" stroke-miterlimit="10" points="137.8,189.1 150.9,182.7 163.4,189.1 "/>
<polyline fill="none" stroke="#000000" stroke-width="2" stroke-miterlimit="10" points="268.5,189.1 281.7,182.7 294.1,189.1 "/>
<line fill="none" stroke="#000000" stroke-width="2" stroke-miterlimit="10" x1="253.7" y1="177.3" x2="253.7" y2="185.7"/>
<line fill="none" stroke="#000000" stroke-width="2" stroke-miterlimit="10" x1="265.9" y1="177.3" x2="265.9" y2="185.7"/>
<line fill="none" stroke="#000000" stroke-width="2" stroke-miterlimit="10" x1="210.8" y1="177.3" x2="210.8" y2="185.7"/>
<line fill="none" stroke="#000000" stroke-width="2" stroke-miterlimit="10" x1="223" y1="177.3" x2="223" y2="185.7"/>
<line fill="none" stroke="#000000" stroke-width="2" stroke-miterlimit="10" x1="164.8" y1="177.3" x2="164.8" y2="185.7"/>
<line fill="none" stroke="#000000" stroke-width="2" stroke-miterlimit="10" x1="177" y1="177.3" x2="177" y2="185.7"/>
<polyline fill="none" stroke="#000000" stroke-width="2" stroke-miterlimit="10" points="251.6,178.2 260,174.1 268,178.2 "/>
<polyline fill="none" stroke="#000000" stroke-width="2" stroke-miterlimit="10" points="208.7,178.2 217.1,174.1 225.1,178.2 "/>
<polyline fill="none" stroke="#000000" stroke-width="2" stroke-miterlimit="10" points="162.7,178.2 171.1,174.1 179.1,178.2 "/>
</svg>
