<?xml version="1.0" encoding="utf-8"?>
<!-- Generator: Adobe Illustrator 21.0.0, SVG Export Plug-In . SVG Version: 6.00 Build 0)  -->
<!DOCTYPE svg PUBLIC "-//W3C//DTD SVG 1.0//EN" "http://www.w3.org/TR/2001/REC-SVG-20010904/DTD/svg10.dtd">
<svg version="1.0" xmlns="http://www.w3.org/2000/svg" xmlns:xlink="http://www.w3.org/1999/xlink" x="0px" y="0px" width="360px"
	 height="288px" viewBox="0 0 360 288" enable-background="new 0 0 360 288" xml:space="preserve">
<g id="Color">
	<path fill="#27AAE1" d="M227.9,97.5c0,0-7-1-7,5.4s2.4,14.2,5,14s14.9-7.9,9.5-17.4"/>
	<path fill="#27AAE1" d="M284.4,101.2c0,0,7-1,7,5.4s-2.4,14.2-5,14s-14.9-7.9-9.5-17.4"/>
</g>
<g id="Lines">
	<line fill="none" stroke="#000000" stroke-width="2" stroke-miterlimit="10" x1="27.8" y1="179.1" x2="340.2" y2="179.1"/>
	<line fill="none" stroke="#000000" stroke-width="2" stroke-miterlimit="10" x1="269.2" y1="192.1" x2="274.8" y2="190.4"/>
	<line fill="none" stroke="#000000" stroke-width="2" stroke-miterlimit="10" x1="272" y1="194.1" x2="278.2" y2="194.1"/>
	<path fill="none" stroke="#000000" stroke-width="2" stroke-miterlimit="10" d="M208.2,191.3c0,0,6.2-1.6,6,0.9s-3,5-3,5"/>
	<path fill="none" stroke="#000000" stroke-width="2" stroke-miterlimit="10" d="M177.8,190.4c0,0-4.2,0.2-4.8,3.8s4.8,3,4.8,3"/>
	<line fill="none" stroke="#000000" stroke-width="2" stroke-miterlimit="10" x1="197" y1="200.9" x2="197" y2="206.1"/>
	<line fill="none" stroke="#000000" stroke-width="2" stroke-miterlimit="10" x1="200.5" y1="199.4" x2="200.5" y2="206.1"/>
	<line fill="none" stroke="#000000" stroke-width="2" stroke-miterlimit="10" x1="130.2" y1="192.1" x2="135.8" y2="192.1"/>
	<line fill="none" stroke="#000000" stroke-width="2" stroke-miterlimit="10" x1="130.2" y1="195.9" x2="134.8" y2="197.2"/>
	<line fill="none" stroke="#000000" stroke-width="2" stroke-miterlimit="10" x1="83.8" y1="200.9" x2="86.8" y2="195.9"/>
	<line fill="none" stroke="#000000" stroke-width="2" stroke-miterlimit="10" x1="85.2" y1="203.8" x2="91.2" y2="199.4"/>
	<path fill="none" stroke="#000000" stroke-width="2" stroke-miterlimit="10" d="M57,191.3c0,0-2.5-0.1-3,2.5s4,2.8,4,2.8"/>
	<line fill="none" stroke="#000000" stroke-width="2" stroke-miterlimit="10" x1="82.2" y1="147.1" x2="82.2" y2="179.1"/>
	<path fill="none" stroke="#000000" stroke-width="2" stroke-miterlimit="10" d="M82.2,147.5c0,0-6.9-10.1-10-6.2
		S77.8,148.8,82.2,147.5z"/>
	<path fill="none" stroke="#000000" stroke-width="2" stroke-miterlimit="10" d="M81.6,147.5c0,0,6.9-10.1,10-6.2
		S86.1,148.8,81.6,147.5z"/>
	<line fill="none" stroke="#000000" stroke-width="2" stroke-miterlimit="10" x1="151.1" y1="179.1" x2="151.1" y2="111.3"/>
	<path fill="none" stroke="#000000" stroke-width="2" stroke-miterlimit="10" d="M151.3,111.4c0,0-8.9-17-12.9-10.5
		C134.4,107.4,145.5,113.5,151.3,111.4z"/>
	<path fill="none" stroke="#000000" stroke-width="2" stroke-miterlimit="10" d="M150.4,111.4c0,0,8.9-17,12.9-10.5
		C167.3,107.4,156.2,113.5,150.4,111.4z"/>
	<path fill="none" stroke="#000000" stroke-width="2" stroke-miterlimit="10" d="M151,148c0,0-13.9-17-20.2-10.5
		C124.4,144.1,141.9,150.1,151,148z"/>
	<path fill="none" stroke="#000000" stroke-width="2" stroke-miterlimit="10" d="M151.4,148c0,0,13.9-17,20.2-10.5
		S160.5,150.1,151.4,148z"/>
	<polyline fill="none" stroke="#000000" stroke-width="2" stroke-miterlimit="10" points="260,179.1 260,111.3 260,96 	"/>
	<path fill="none" stroke="#000000" stroke-width="2" stroke-miterlimit="10" d="M260.2,130.4c0,0-8.9-17-12.9-10.5
		C243.3,126.4,254.4,132.5,260.2,130.4z"/>
	<path fill="none" stroke="#000000" stroke-width="2" stroke-miterlimit="10" d="M259.4,130.4c0,0,8.9-17,12.9-10.5
		C276.3,126.4,265.2,132.5,259.4,130.4z"/>
	<path fill="none" stroke="#000000" stroke-width="2" stroke-miterlimit="10" d="M260,158c0,0-13.9-17-20.2-10.5
		C233.4,154.1,250.8,160.1,260,158z"/>
	<path fill="none" stroke="#000000" stroke-width="2" stroke-miterlimit="10" d="M260.4,158c0,0,13.9-17,20.2-10.5
		S269.5,160.1,260.4,158z"/>
	<path fill="none" stroke="#000000" stroke-width="2" stroke-miterlimit="10" d="M260.4,96.5c0,0-5.1-5.6-6.1-2.9
		S255.7,97.8,260.4,96.5z"/>
	<path fill="none" stroke="#000000" stroke-width="2" stroke-miterlimit="10" d="M260,96.5c0,0,5.1-5.6,6.1-2.9S264.6,97.8,260,96.5
		z"/>
	<path fill="none" stroke="#000000" stroke-width="2" stroke-miterlimit="10" d="M260,96c0,0-3.4-12.5-14.8-9.5S230.6,96,230.6,96"
		/>
	<path fill="none" stroke="#000000" stroke-width="2" stroke-miterlimit="10" d="M260,94.9c0,0,8.3-13.3,15.7-4.9
		c4.1,4.7,5.6,8.8,6.1,11.5"/>
	<path fill="none" stroke="#000000" stroke-width="2" stroke-miterlimit="10" d="M230.4,97.6c0,0-3.6-6.7-5.3-4.3
		C223.5,95.8,225.6,97.9,230.4,97.6z"/>
	<path fill="none" stroke="#000000" stroke-width="2" stroke-miterlimit="10" d="M230.1,97.6c0,0,6.3-4.2,6.6-1.3
		C237,99.2,234.2,100,230.1,97.6z"/>
	<path fill="none" stroke="#000000" stroke-width="2" stroke-miterlimit="10" d="M227.9,97.5c0,0-7-1-7,5.4s2.4,14.2,5,14
		s14.9-7.9,9.5-17.4"/>
	<path fill="none" stroke="#000000" stroke-width="2" stroke-miterlimit="10" d="M281.8,101.4c0,0,3.6-6.7,5.3-4.3
		C288.7,99.5,286.7,101.6,281.8,101.4z"/>
	<path fill="none" stroke="#000000" stroke-width="2" stroke-miterlimit="10" d="M282.2,101.3c0,0-6.3-4.2-6.6-1.3
		C275.2,102.9,278,103.7,282.2,101.3z"/>
	<path fill="none" stroke="#000000" stroke-width="2" stroke-miterlimit="10" d="M284.4,101.2c0,0,7-1,7,5.4s-2.4,14.2-5,14
		s-14.9-7.9-9.5-17.4"/>
</g>
<g id="Stroke">
	
		<path opacity="0" fill="none" stroke="#000000" stroke-width="7" stroke-linecap="round" stroke-linejoin="round" stroke-miterlimit="10" d="
		M218.2,96.9c7.3,0.8,14.5,1.5,21.8,2.3c-7.8,1.4-15.8,1.6-23.8,1.8c7.4,0.5,14.9,1,22.3,1.5c-6.8,1.7-13.7,2.8-20.6,3.3
		c6.4,1,12.9,1.6,19.4,1.7c-5.1,0.4-10.1,0.8-15.2,1.3c-1.2,0.1-2.6,0.3-3.3,1.3c5.3,1,10.7,1.8,16.1,2.3c-2.6,1-5.3,1.6-8.1,1.6
		c-1.2,0-2.8,0.3-2.8,1.5c10.4,0.7,20.8-1,30.6-4.5c2.8-1,5.6-2.1,8-3.8c1.2-0.8,2.3-1.7,3.6-2.2c1.4-0.6,3-0.8,4.6-1
		c8.5-1,17-2,25.6-2.9c-9.6,2.1-19.2,4.8-28.5,7.9c8.5-0.2,17.1-0.4,25.6-0.5c-4.4,2.3-9.1,3.9-13.9,5c5,0.1,10,0.1,15,0.2
		c-0.9,1-2.3,1.4-3.6,1.8c-3.8,1.2-7.6,2.3-11.5,3.5c2.5-0.1,5.1,0.1,7.6,0.6"/>
</g>
</svg>
