<?xml version="1.0" encoding="utf-8"?>
<!-- Generator: Adobe Illustrator 19.2.1, SVG Export Plug-In . SVG Version: 6.00 Build 0)  -->
<svg version="1.0" id="Layer_1" xmlns="http://www.w3.org/2000/svg" xmlns:xlink="http://www.w3.org/1999/xlink" x="0px" y="0px"
	 width="432px" height="432px" viewBox="0 0 432 432" enable-background="new 0 0 432 432" xml:space="preserve">
<ellipse fill="none" stroke="#000000" stroke-width="2" stroke-miterlimit="10" cx="217.4" cy="95.6" rx="11.2" ry="17.3"/>
<polyline fill="none" stroke="#000000" stroke-width="2" stroke-miterlimit="10" points="214.3,112.2 213.8,120.1 222.7,120.1 
	221.7,111.6 "/>
<path fill="none" stroke="#000000" stroke-width="2" stroke-miterlimit="10" d="M199,120.1h36.8L245.9,258c0,0-37.5,6.3-52.5,0.9
	L199,120.1z"/>
<path fill="none" stroke="#000000" stroke-width="2" stroke-miterlimit="10" d="M229.5,120.1c0,0-22,31.3-32,37.3"/>
<path fill="none" stroke="#000000" stroke-width="2" stroke-miterlimit="10" d="M236.7,132.6c0,0-28.5,37.6-39.8,41.3"/>
<polyline fill="none" stroke="#000000" stroke-width="2" stroke-miterlimit="10" points="169.8,97.5 158.1,108.7 181,138.3 
	198.2,134 199.6,121.7 188.4,117.6 186.9,97.5 179.3,94.7 "/>
<path fill="none" stroke="#000000" stroke-width="2" stroke-miterlimit="10" d="M178.7,91.2c0.8,3.1,1.7,12.3,1.7,12.3l-4.9,6.4
	l-6.3-3.3c0,0,0.8-10.9,1.4-14.2l0.4-3.1c-1-0.9-4.1-4-4.1-4l2.3-15.7l2.9-3l4.9,1.6l2,11.7l3.4-3.4l1.4,4.4l-3.1,5.1
	c0,0-1.5,0.9-2.5,1.4L178.7,91.2z"/>
<polyline fill="none" stroke="#000000" stroke-width="2" stroke-miterlimit="10" points="235.7,120.1 258.8,174.9 240.3,182.3 "/>
<polyline fill="none" stroke="#000000" stroke-width="2" stroke-miterlimit="10" points="246.8,180.1 244.9,189 247.6,190.1 
	249.8,186.5 252.3,199.7 258.3,191.2 253.8,177.3 "/>
<polyline fill="none" stroke="#000000" stroke-width="2" stroke-miterlimit="10" points="210.4,260.5 211.4,271.2 214.9,271.2 
	215.8,260.7 "/>
<polyline fill="none" stroke="#000000" stroke-width="2" stroke-miterlimit="10" points="223.3,260.5 224.7,271.2 228.2,271.2 
	229.2,259.9 "/>
<polyline fill="none" stroke="#000000" stroke-width="2" stroke-miterlimit="10" points="211.4,271.2 193.4,277.9 205.7,283.2 
	214.9,271.2 "/>
<polyline fill="none" stroke="#000000" stroke-width="2" stroke-miterlimit="10" points="224.7,271.2 234,283.2 245.8,278.8 
	228.2,271.2 "/>
<path fill="none" stroke="#000000" stroke-width="2" stroke-miterlimit="10" d="M204.1,268.6c0,0-14.8-10.8-23.4-3.1
	c0,0-10.7-10.4-17.3-4.5c0,0-14.3-7.9-22-1.8c-7.7,6-8.7,12-8.7,12s-15.3-5.2-21.3,1.4s-7.7,13-8,19.3c0,0-8.7,1.3-10.7,12.3
	s9.3,23,21.3,18c0,0,3.3,10.3,16,7.3c0,0,3.7,17.7,32.7,12.3c0,0,29.1,24.3,52.2-3.7c0,0,21.1,18.7,43.4,1.7c0,0,13,6.3,19.7-9
	c0,0,24.3,15,36-14.7c0,0,23,3.7,25.3-20.3c2.3-24-27.7-22.3-27.7-22.3s-0.3-16-11.7-16.7c-11.3-0.7-17,8.6-17,8.6
	s-10-13.3-24.4-8.7c-13,4.1-12.2,10.6-12.2,10.6"/>
<path fill="none" stroke="#000000" stroke-width="2" stroke-miterlimit="10" d="M137,303.1c0,0,17.8-13.8,26.5,3
	c0,0,8.8-14.2,21.2-8.3c12.3,5.8,12.5,17.3,12.5,17.3"/>
<path fill="none" stroke="#000000" stroke-width="2" stroke-miterlimit="10" d="M247.5,316.6c0,0-4.8-14.1,6.7-16.4
	c11.5-2.3,20.5,2.2,20.5,2.2s-2.5-11.8,6.2-12.8c8.7-1,14.3,3.3,14.3,3.3s2.7-11.2,10.5-8.2c7.8,3,10.2,11.6,10.2,11.6"/>
</svg>
