<?xml version="1.0" encoding="utf-8"?>
<!-- Generator: Adobe Illustrator 19.2.1, SVG Export Plug-In . SVG Version: 6.00 Build 0)  -->
<svg version="1.0" id="Layer_1" xmlns="http://www.w3.org/2000/svg" xmlns:xlink="http://www.w3.org/1999/xlink" x="0px" y="0px"
	 width="432px" height="432px" viewBox="0 0 432 432" enable-background="new 0 0 432 432" xml:space="preserve">
<ellipse transform="matrix(0.9993 -3.766758e-02 3.766758e-02 0.9993 -3.8301 8.1045)" fill="none" stroke="#000000" stroke-width="2" stroke-miterlimit="10" cx="213.2" cy="105.7" rx="15.7" ry="23.1"/>
<line fill="none" stroke="#000000" stroke-width="2" stroke-miterlimit="10" x1="209.1" y1="127.8" x2="209.1" y2="135"/>
<line fill="none" stroke="#000000" stroke-width="2" stroke-miterlimit="10" x1="219.4" y1="127.4" x2="219.4" y2="135.3"/>
<polygon fill="none" stroke="#000000" stroke-width="2" stroke-miterlimit="10" points="194,135.5 234.7,134.2 234.7,212 203,213.5 
	"/>
<polyline fill="none" stroke="#000000" stroke-width="2" stroke-miterlimit="10" points="205.2,135.5 205.2,143.7 214.5,139 
	224.4,143.7 222,134.6 "/>
<path fill="none" stroke="#000000" stroke-width="2" stroke-miterlimit="10" d="M215.8,146.3l-2.4,0.1c-1.2,0-2.2-0.9-2.3-2.1
	l-0.1-1.9c0-1.2,0.9-2.2,2.1-2.3l2.4-0.1c1.2,0,2.2,0.9,2.3,2.1l0.1,1.9C218,145.2,217.1,146.2,215.8,146.3z"/>
<polyline fill="none" stroke="#000000" stroke-width="2" stroke-miterlimit="10" points="213.6,146.3 211,177.9 216.9,199.6 
	222,176.9 216.2,146.3 "/>
<polyline fill="none" stroke="#000000" stroke-width="2" stroke-miterlimit="10" points="194,135.5 165.7,167.3 155.4,205.3 
	160.9,206.8 174.7,172.6 196.1,153.5 "/>
<polyline fill="none" stroke="#000000" stroke-width="2" stroke-miterlimit="10" points="155.4,205.3 147.8,216.1 147.8,225.1 
	159,214.3 163.7,216.7 164.9,211.8 160.9,206.8 "/>
<line fill="none" stroke="#000000" stroke-width="2" stroke-miterlimit="10" x1="165.7" y1="167.3" x2="174.7" y2="172.6"/>
<path fill="none" stroke="#000000" stroke-width="2" stroke-miterlimit="10" d="M234.6,134.6l28.3,31.8c0,0,5.3,19.5,8.2,30.5"/>
<path fill="none" stroke="#000000" stroke-width="2" stroke-miterlimit="10" d="M272.6,202.1c0.4,1.5,0.6,2.3,0.6,2.3l-5.5,1.5
	c0,0-0.2-0.6-0.6-1.6"/>
<path fill="none" stroke="#000000" stroke-width="2" stroke-miterlimit="10" d="M265.3,200c-3.9-9.8-11.4-28.3-11.4-28.3l-19.2-17.6
	"/>
<ellipse transform="matrix(0.468 -0.8837 0.8837 0.468 -31.5659 346.8798)" fill="none" stroke="#000000" stroke-width="2" stroke-miterlimit="10" cx="272.3" cy="199.7" rx="2.6" ry="2.6"/>
<polyline fill="none" stroke="#000000" stroke-width="2" stroke-miterlimit="10" points="270,198.4 263.7,201 265.1,204.4 
	271.7,202.2 "/>
<polyline fill="none" stroke="#000000" stroke-width="2" stroke-miterlimit="10" points="273.2,204.4 280.8,215.1 280.8,224.1 
	269.6,213.4 265,215.8 263.7,210.9 267.7,205.9 "/>
<line fill="none" stroke="#000000" stroke-width="2" stroke-miterlimit="10" x1="263" y1="166.4" x2="253.9" y2="171.6"/>
<polyline fill="none" stroke="#000000" stroke-width="2" stroke-miterlimit="10" points="203,213.5 201.9,331.8 208.8,331.8 
	220.2,224.1 247.4,331.8 253.9,330.8 234.7,212 "/>
<polyline fill="none" stroke="#000000" stroke-width="2" stroke-miterlimit="10" points="201.9,331.8 178,339.8 197.5,348 
	208.8,332.5 "/>
<polyline fill="none" stroke="#000000" stroke-width="2" stroke-miterlimit="10" points="247.4,331.8 263.7,349.6 278.7,336.3 
	253.9,330.8 "/>
<polyline fill="none" stroke="#000000" stroke-width="2" stroke-miterlimit="10" points="180,303.6 165.7,299 163.7,271.9 
	168.7,260.3 185,243.3 170.2,243.3 160.7,252.6 152,264 147.8,251.6 150.7,243.3 140.7,248.3 137,268.3 127.3,277.6 125.3,297.3 
	106.7,273.5 119,246.6 106.7,208 101.7,236 86,246.6 79,289.3 111.3,330.8 "/>
<path fill="none" stroke="#000000" stroke-width="2" stroke-miterlimit="10" d="M129.2,212l-7.5-13.5l6.2-13.3c0,0-8.7-5.8-8.7-6.5
	s3.2-12.9,3.2-12.9l1.8,8.9l7.8-3l-5.2-17.6l14.2,12.3l2.3,15.1v11.7l5.5,2.5"/>
<polyline fill="none" stroke="#000000" stroke-width="2" stroke-miterlimit="10" points="267.1,313.8 255.2,291.3 263,255.8 
	270.1,280.6 277.4,287.1 287.7,277.1 278.7,265.6 282.4,251.8 265.3,234.6 293.2,237.3 305.7,261.1 303.7,287.1 313.4,290.3 
	316.7,275.3 311.7,253.1 333.2,221.6 327.9,245.1 328.9,257.3 339.2,253.1 333.9,263.6 337.9,279.6 352.7,287.8 320.9,335.1 "/>
<polyline fill="none" stroke="#000000" stroke-width="2" stroke-miterlimit="10" points="281.9,198.4 277.4,187.8 285.9,178.8 
	279.4,173.8 284.4,156.8 287.2,166.4 296.4,169 300.9,152.6 286.9,135.5 318.9,153.1 300.4,184.8 301.7,204.4 "/>
</svg>
