<?xml version="1.0" encoding="utf-8"?>
<!-- Generator: Adobe Illustrator 19.2.1, SVG Export Plug-In . SVG Version: 6.00 Build 0)  -->
<svg version="1.0" id="Layer_1" xmlns="http://www.w3.org/2000/svg" xmlns:xlink="http://www.w3.org/1999/xlink" x="0px" y="0px"
	 width="432px" height="432px" viewBox="0 0 432 432" enable-background="new 0 0 432 432" xml:space="preserve">
<rect x="11.5" y="198.8" fill="none" stroke="#000000" stroke-width="2" stroke-miterlimit="10" width="409.1" height="53.1"/>
<line fill="none" stroke="#000000" stroke-width="2" stroke-miterlimit="10" x1="30.8" y1="198.8" x2="30.8" y2="210.6"/>
<line fill="none" stroke="#000000" stroke-width="2" stroke-miterlimit="10" x1="36.4" y1="198.8" x2="36.4" y2="220.4"/>
<line fill="none" stroke="#000000" stroke-width="2" stroke-miterlimit="10" x1="42.8" y1="198.8" x2="42.8" y2="210.6"/>
<line fill="none" stroke="#000000" stroke-width="2" stroke-miterlimit="10" x1="79.5" y1="198.8" x2="79.5" y2="210.6"/>
<line fill="none" stroke="#000000" stroke-width="2" stroke-miterlimit="10" x1="85.1" y1="198.8" x2="85.1" y2="220.4"/>
<line fill="none" stroke="#000000" stroke-width="2" stroke-miterlimit="10" x1="91.5" y1="198.8" x2="91.5" y2="210.6"/>
<line fill="none" stroke="#000000" stroke-width="2" stroke-miterlimit="10" x1="131.1" y1="198.8" x2="131.1" y2="210.6"/>
<line fill="none" stroke="#000000" stroke-width="2" stroke-miterlimit="10" x1="136.7" y1="198.8" x2="136.7" y2="220.4"/>
<line fill="none" stroke="#000000" stroke-width="2" stroke-miterlimit="10" x1="143.1" y1="198.8" x2="143.1" y2="210.6"/>
<line fill="none" stroke="#000000" stroke-width="2" stroke-miterlimit="10" x1="179.7" y1="198.8" x2="179.7" y2="210.6"/>
<line fill="none" stroke="#000000" stroke-width="2" stroke-miterlimit="10" x1="185.4" y1="198.8" x2="185.4" y2="220.4"/>
<line fill="none" stroke="#000000" stroke-width="2" stroke-miterlimit="10" x1="191.7" y1="198.8" x2="191.7" y2="210.6"/>
<line fill="none" stroke="#000000" stroke-width="2" stroke-miterlimit="10" x1="235" y1="198.8" x2="235" y2="210.6"/>
<line fill="none" stroke="#000000" stroke-width="2" stroke-miterlimit="10" x1="240.6" y1="198.8" x2="240.6" y2="220.4"/>
<line fill="none" stroke="#000000" stroke-width="2" stroke-miterlimit="10" x1="247" y1="198.8" x2="247" y2="210.6"/>
<line fill="none" stroke="#000000" stroke-width="2" stroke-miterlimit="10" x1="283.6" y1="198.8" x2="283.6" y2="210.6"/>
<line fill="none" stroke="#000000" stroke-width="2" stroke-miterlimit="10" x1="289.3" y1="198.8" x2="289.3" y2="220.4"/>
<line fill="none" stroke="#000000" stroke-width="2" stroke-miterlimit="10" x1="295.6" y1="198.8" x2="295.6" y2="210.6"/>
<line fill="none" stroke="#000000" stroke-width="2" stroke-miterlimit="10" x1="332.4" y1="198.8" x2="332.4" y2="210.6"/>
<line fill="none" stroke="#000000" stroke-width="2" stroke-miterlimit="10" x1="338" y1="198.8" x2="338" y2="220.4"/>
<line fill="none" stroke="#000000" stroke-width="2" stroke-miterlimit="10" x1="344.4" y1="198.8" x2="344.4" y2="210.6"/>
<line fill="none" stroke="#000000" stroke-width="2" stroke-miterlimit="10" x1="381.1" y1="198.8" x2="381.1" y2="210.6"/>
<line fill="none" stroke="#000000" stroke-width="2" stroke-miterlimit="10" x1="386.7" y1="198.8" x2="386.7" y2="220.4"/>
<line fill="none" stroke="#000000" stroke-width="2" stroke-miterlimit="10" x1="393.1" y1="198.8" x2="393.1" y2="210.6"/>
</svg>
