<?xml version="1.0" encoding="utf-8"?>
<!-- Generator: Adobe Illustrator 19.2.1, SVG Export Plug-In . SVG Version: 6.00 Build 0)  -->
<svg version="1.0" xmlns="http://www.w3.org/2000/svg" xmlns:xlink="http://www.w3.org/1999/xlink" x="0px" y="0px" width="432px"
	 height="432px" viewBox="0 0 432 432" enable-background="new 0 0 432 432" xml:space="preserve">
<g id="Layer_2">
	<path fill="#27AAE1" d="M159,69.4c0,0-19.3,21.1-3.9,46.3c0,0-15.1-6.4-12.8-23.2S153,70,159,69.4z"/>
	<path fill="#27AAE1" d="M146.5,121.2l-9.8,84.9l17.2,6.2h-12c0,0-12,115.8-21.8,131.5l23.7,14.2l-15.2,6.5l-13-20.8
		c0,0,11.8-72.2,12.3-101s2-34.5,2-34.5l9.2-88.2L146.5,121.2z"/>
	<path fill="#27AAE1" d="M152.1,212.9c0,0,11.6,89.3,10.8,129.3l21.3,13.5l-13.1,5.5l-11.6-19c0,0-4.4-51.3-4.8-55.1
		c-0.4-3.9-6.1-44.6-6.1-44.6l-2.4-5.5l1.7-17.8v-6.4L152.1,212.9z"/>
</g>
<g id="Layer_1">
	
		<ellipse transform="matrix(7.653460e-02 -0.9971 0.9971 7.653460e-02 54.3602 244.1073)" fill="none" stroke="#000000" stroke-width="2" stroke-miterlimit="10" cx="159" cy="92.7" rx="23.4" ry="16.7"/>
	<path fill="none" stroke="#000000" stroke-width="2" stroke-miterlimit="10" d="M149.9,69.9c0,0,12.7,4.7,21.3,2.7"/>
	<path fill="none" stroke="#000000" stroke-width="2" stroke-miterlimit="10" d="M147.4,73.1c0,0,13.5,6.8,25.7,3.3"/>
	<path fill="none" stroke="#000000" stroke-width="2" stroke-miterlimit="10" d="M143.9,76.3c0,0,14.8,9,31.5,4.2"/>
	<polyline fill="none" stroke="#000000" stroke-width="2" stroke-miterlimit="10" points="151,113.8 149.9,121.4 159.6,122.4 
		160.2,115.9 	"/>
	<path fill="none" stroke="#000000" stroke-width="2" stroke-miterlimit="10" d="M165.4,168.5c-2.9,21.9-5.8,43.9-5.8,43.9
		s-21.9,1.5-29.7-4l9.2-88.2l32,4.8c0,0-1.8,13.6-4,30"/>
	<path fill="none" stroke="#000000" stroke-width="2" stroke-miterlimit="10" d="M130,208.4c0,0-5.7,119.5-13.5,135.5h6.8
		c0,0,27.2-102.9,24.5-131.3"/>
	<path fill="none" stroke="#000000" stroke-width="2" stroke-miterlimit="10" d="M159.6,212.4c0,0,10.1,107.8,6.8,129.8h-6.8
		c0,0-6.6-92.9-13.1-107.3"/>
	<path fill="none" stroke="#000000" stroke-width="2" stroke-miterlimit="10" d="M115.7,343.9c0.3,0.8,13.8,18.1,13.8,18.1l14.7-6.3
		l-21-11.8"/>
	<polyline fill="none" stroke="#000000" stroke-width="2" stroke-miterlimit="10" points="159.6,342.1 172.9,359.6 186.9,352.9 
		166.4,342.1 	"/>
	<path fill="none" stroke="#000000" stroke-width="2" stroke-miterlimit="10" d="M152.1,133.4l20.7,30l39.4,4.9c0,0,0.9,0.3,2.2,0.6
		"/>
	<path fill="none" stroke="#000000" stroke-width="2" stroke-miterlimit="10" d="M218.3,170c3.2,0.9,6.5,1.8,6.5,1.8l-4,10.7
		l-10-5.3c0,0-41-2.7-41.8-3.8s-25-30-25-30"/>
	<line fill="none" stroke="#000000" stroke-width="2" stroke-miterlimit="10" x1="172.8" y1="163.4" x2="168.9" y2="173.3"/>
	
		<ellipse transform="matrix(0.9971 -7.653461e-02 7.653461e-02 0.9971 -6.3212 21.0857)" fill="none" stroke="#000000" stroke-width="2" stroke-miterlimit="10" cx="271.9" cy="93" rx="16.7" ry="23.4"/>
	<polyline fill="none" stroke="#000000" stroke-width="2" stroke-miterlimit="10" points="279.9,114.1 281,121.8 271.3,122.8 
		270.7,116.2 	"/>
	<path fill="none" stroke="#000000" stroke-width="2" stroke-miterlimit="10" d="M265.6,169.5c2.9,21.7,5.7,43.1,5.7,43.1
		s21.9,1.5,29.7-4l-9.2-88.3l-32,4.8c0,0,1.8,13.8,4,30.4"/>
	<path fill="none" stroke="#000000" stroke-width="2" stroke-miterlimit="10" d="M300.9,208.7c0,0,5.8,119.5,13.5,135.5h-6.8
		c0,0-27.2-102.9-24.5-131.3"/>
	<path fill="none" stroke="#000000" stroke-width="2" stroke-miterlimit="10" d="M271.3,212.7c0,0-10.1,107.8-6.8,129.8h6.8
		c0,0,6.6-92.9,13.1-107.3"/>
	<path fill="none" stroke="#000000" stroke-width="2" stroke-miterlimit="10" d="M315.2,344.2c-0.3,0.8-13.8,18.1-13.8,18.1
		l-14.7-6.3l21-11.8"/>
	<polyline fill="none" stroke="#000000" stroke-width="2" stroke-miterlimit="10" points="271.3,342.4 258,359.9 244,353.2 
		264.5,342.4 	"/>
	<path fill="none" stroke="#000000" stroke-width="2" stroke-miterlimit="10" d="M278.8,133.7l-20.7,30c0,0-34.2,2.6-36.7,2.9"/>
	<path fill="none" stroke="#000000" stroke-width="2" stroke-miterlimit="10" d="M223.1,177.4c4.9-0.3,38.2-2.7,38.9-3.8
		c0.8-1.2,25-30,25-30"/>
	<line fill="none" stroke="#000000" stroke-width="2" stroke-miterlimit="10" x1="258.1" y1="163.7" x2="262" y2="173.6"/>
	<path fill="none" stroke="#000000" stroke-width="2" stroke-miterlimit="10" d="M222.6,167.6l-3-3.4c0,0-7.5,6.1-7.1,6.4
		s3.1,2,3.1,2l4.2-4"/>
</g>
<g id="Layer_3">
	<path fill="none" d="M146.4,72.1c4.9,0,9.8,0,14.6,0c-6.1,0.5-12.1,1.8-17.8,3.8c5,0.8,9.9,1.6,14.9,2.4
		c-7.6-0.3-15.3,0.7-22.6,2.9c6.1,1.3,12.3,2.4,18.6,3.3c-5.6,0.5-11.2,2.1-16.2,4.7c5.9,1.8,12.1,2.7,18.3,2.7
		c-6.7,0.1-13.3,1.1-19.8,2.8c6.1,0.8,12.2,1.5,18.3,2.3c-6.3,0.6-12.7,1.3-19,1.9c8.2,0.9,16.5,1.8,24.7,2.7
		c-8,0.7-15.8,2.6-23.3,5.4c6.2,1,12.5,1.9,18.7,2.9c-12.4,1.9-24.6,4.7-36.6,8.3c11.5,1.9,23.1,2.8,34.7,2.8
		c-7.4,0.5-14.7,2.2-21.6,5c6.7-0.2,13.4,0.8,19.8,2.9c-11.3,1.3-22.5,3.3-33.5,6.2c8.9,0.4,17.9,0.7,26.8,1.1
		c-7.5,1.6-14.8,4.2-21.7,7.5c9.8,0.7,19.6,1,29.3,0.9c-9.8,2.2-19.6,4.4-29.4,6.5c11.5,0.7,23.1,1.4,34.6,2.2
		c-12.5,2.1-24.9,5.5-36.7,10.1c8.4,0.2,16.9,0.3,25.3,0.5c-9.5,2.9-18.7,6.6-27.6,11c11.3,0,22.6,1,33.6,3.1
		c-10.1,2.2-20.1,4.4-30.2,6.6c9.6,0.2,19.2,0.4,28.8,0.7c-10.7,3.2-21.4,6.5-32.1,9.7c12.4,0.6,24.8,1.2,37.2,1.8
		c-12.1,0.8-24.2,1.6-36.4,2.5c-4.3,0.3-8.7,0.6-12.3,3c18.5,0.6,37,1.1,55.5,1.7c-15.6,1.5-31.3,3.1-46.9,4.6
		c16.5,1.2,33,2.4,49.6,3.6c-17.5,3.5-35,6.9-52.5,10.4c15.9,2,31.9,4,47.8,6c-18.1,2.1-36.2,4.1-54.3,6.2
		c20.6,0.3,41.3,0.5,61.7,3.8c-18.4,1.4-36.7,3.9-54.7,7.5c17.6,0,35.3,0,52.7,2.9c-16.9,1.2-33.7,3.9-50.1,8.2
		c18.7,0.7,37.5,1.3,56.2,2c-17.1,0.3-34.4,0.6-50.7,5.4c16.4,0.1,32.8,0.7,49.2,2.1c-11.8,2.9-23.7,5.2-35.7,7
		c1.5-1.3,2.9-2.6,4.4-3.8c-9.2-2.7-19.3-2.5-28.3,0.8c16.7,4.8,33.9,7.7,51.2,8.5c-16,1.5-31.9,3-47.9,4.4
		c16.6,4.2,33.8,5.5,50.9,4c-18.2,0.9-36.4,4.2-53.7,9.9c17.3-0.4,34.6-0.2,51.9,0.5c-16.7,7.3-36.2,2.8-53.8,7.6
		c-2.2,0.6-4.7,1.8-5.1,4c23.8-0.1,47.6-0.3,71.5-0.4c-19.8,6.5-40,11.6-60.5,15.2c18.7,0.2,37.4,0.4,56.2,0.6
		c-21.2,3.1-42.4,6.1-63.6,9.2c22.6-2.7,45.3-3.9,68.1-3.5c-19.8,1.8-39.7,3.7-59.5,5.5c-5.2,0.5-11.3,1.6-13.4,6.4
		c27.8,1.1,55.6,0.8,83.4-0.9c-28.3,5.4-58.4-3.8-85.8,4.8c29.8-0.7,59.7-1.5,89.5-2.2c-21.7,3.5-43.6,6.5-65.4,9
		c21.9,1,43.8,0.1,65.5-2.7c-28.9-0.4-57.8,1-86.5,4.3c18.6,7.4,39.8,8,58.8,1.8c8.7-2.8,17.9-7.1,26.5-4.1"/>
</g>
</svg>
