<?xml version="1.0" encoding="utf-8"?>
<!-- Generator: Adobe Illustrator 19.2.1, SVG Export Plug-In . SVG Version: 6.00 Build 0)  -->
<svg version="1.0" xmlns="http://www.w3.org/2000/svg" xmlns:xlink="http://www.w3.org/1999/xlink" x="0px" y="0px" width="288px"
	 height="288px" viewBox="0 0 288 288" enable-background="new 0 0 288 288" xml:space="preserve">
<g id="Layer_2">
	<path fill="#27AAE1" d="M125.9,29.1c0,0-9.8,25.6,2.8,41.5c0,0-13-2.7-13.4-21C115,31.4,125.9,29.1,125.9,29.1z"/>
	<polygon fill="#27AAE1" points="120.7,75.2 123.6,139.1 139.2,145.5 120.7,146.1 123.6,240.7 113,258.9 100.7,253.9 121,240.4 
		113,145 112,143.9 112,75.2 	"/>
	<polygon fill="#27AAE1" points="133.4,146.1 143.6,242.2 149.5,259.9 134.7,260.9 140.8,242.4 128.3,147.2 	"/>
	<path fill="#27AAE1" d="M119.1,90c0,0,26.8,11.9,55.3,2.4v3c0,0-39,13.1-58.4-2.3L119.1,90z"/>
</g>
<g id="Layer_1">
	<ellipse fill="none" stroke="#000000" stroke-width="2" stroke-miterlimit="10" cx="128.7" cy="49.6" rx="13.4" ry="21"/>
	<path fill="none" stroke="#000000" stroke-width="2" stroke-miterlimit="10" d="M119.1,32c0,0,14,0.7,18.7-1.2"/>
	<path fill="none" stroke="#000000" stroke-width="2" stroke-miterlimit="10" d="M116.1,35.7c0,0,18.1,1.8,24.4-1.5"/>
	<path fill="none" stroke="#000000" stroke-width="2" stroke-miterlimit="10" d="M115.3,38.9c0,0,20.7,2.3,26.8-1.5"/>
	<polyline fill="none" stroke="#000000" stroke-width="2" stroke-miterlimit="10" points="123.6,69.1 123.6,75.2 133.4,75.2 
		132.4,69.9 	"/>
	<path fill="none" stroke="#000000" stroke-width="2" stroke-miterlimit="10" d="M142.3,100.6c1.4,19.8,3.2,44,3.2,44
		s-17.5,3.2-33.5,0V75.2h28.5c0,0,0.4,6,1,14.6"/>
	<path fill="none" stroke="#000000" stroke-width="2" stroke-miterlimit="10" d="M117.5,81.4c0,0,27.7,16,57,7.2v6.8
		c0,0-33.1,12.5-55.3,0"/>
	<polyline fill="none" stroke="#000000" stroke-width="2" stroke-miterlimit="10" points="174.5,88.7 177.1,76.5 180.1,76.5 
		180.1,97.3 174.5,96 	"/>
	<path fill="none" stroke="#000000" stroke-width="2" stroke-miterlimit="10" d="M140.8,78.9c0,0,14.3,5.4,34.9,5"/>
	<path fill="none" stroke="#000000" stroke-width="2" stroke-miterlimit="10" d="M180,83.7c1.4-0.1,2.8-0.2,4.2-0.3"/>
	<line fill="none" stroke="#000000" stroke-width="2" stroke-miterlimit="10" x1="184.3" y1="90" x2="180.6" y2="90.3"/>
	<polygon fill="none" stroke="#000000" stroke-width="2" stroke-miterlimit="10" points="184.3,82.7 186.9,70.5 189.9,69.5 
		189.9,90.3 184.3,90 	"/>
	<line fill="none" stroke="#000000" stroke-width="2" stroke-miterlimit="10" x1="146.9" y1="90.7" x2="144.5" y2="101"/>
	<line fill="none" stroke="#000000" stroke-width="2" stroke-miterlimit="10" x1="158.1" y1="82.9" x2="154.5" y2="90.7"/>
	<polyline fill="none" stroke="#000000" stroke-width="2" stroke-miterlimit="10" points="143.5,145 145.5,242.2 140.5,242.2 
		128.3,146.1 	"/>
	<polyline fill="none" stroke="#000000" stroke-width="2" stroke-miterlimit="10" points="113,145 121,240.7 126.2,240.7 
		128.3,147.2 	"/>
	<polyline fill="none" stroke="#000000" stroke-width="2" stroke-miterlimit="10" points="121,240.7 102.2,252.3 118,256.9 
		126.2,240.7 	"/>
	<polyline fill="none" stroke="#000000" stroke-width="2" stroke-miterlimit="10" points="140.5,242.2 134.7,258.9 152.5,258.9 
		145.5,242.2 	"/>
</g>
<g id="Layer_3">
	<path opacity="0" fill="none" stroke="#27AAE1" stroke-width="25" stroke-miterlimit="10" d="M118.6,30.4c3.8,0.3,7.6,0.7,11.4,1
		c-6.7,4-13.3,7.9-20,11.9c8.4,0.2,16.7,0.3,25.1,0.5c-8.6,3-16.9,7.1-24.6,12c7.1,0.4,14.3,0.9,21.4,1.3c-9,3.7-17.9,7.4-26.9,11.2
		c13.1,1.9,26.4,2.9,39.6,2.9c-7.3,1.6-14.6,2.7-22.1,3.3c-7.4,0.6-16.1,1.5-19.8,7.8c11,0.1,22,0.2,33.1,0.2
		c-7.1,4.1-14.6,7.7-22.4,10.6c22.9,1,45.8,1.5,68.7,1.4c-25.7,0.9-51.2,5.4-75.6,13.4c8.4,0.2,16.7,1.6,24.7,4.2
		c-7.3,2.7-14.6,5.3-21.9,8c-1.9,0.7-4.3,2.3-3.4,4.2c11.2,1,22.4,2,33.6,3c-11,2.8-21.6,7.1-31.5,12.5c14.1,1.6,28.1,3.8,42,6.8
		c-16.7-0.1-33.6-0.1-49.7,4.2c12.1,6.2,29.1,0.7,38.9,10.3c-10,0.8-19.8,4.4-28,10.3c12,1.5,24.1,3,36.1,4.6
		c-10.1,5-20.2,10-30.3,15c11.9,0.8,23.9,1.5,35.6,4c-9.7,2.3-19.2,5.2-28.5,8.7c-2.7,1-5.6,2.5-6.2,5.3c12.5,0.9,24.8,3.5,36.6,7.7
		c-12.6,3-25.4,6.1-36.8,12.5c11.6,1.7,23.2,3.4,34.8,5.1c-4.7,0.7-9.4,1.3-14.2,2c-9.9,1.4-20.1,2.9-28.6,8
		c13.3,1.6,26.7,2.3,40.1,2c-10.4,1-20.8,2.7-31,5.2c-3.8,0.9-8.4,3-8.4,6.9c15.2,2,31.9,3.6,44.6-4.9"/>
</g>
</svg>
