<?xml version="1.0" encoding="utf-8"?>
<!-- Generator: Adobe Illustrator 19.2.1, SVG Export Plug-In . SVG Version: 6.00 Build 0)  -->
<svg version="1.0" xmlns="http://www.w3.org/2000/svg" xmlns:xlink="http://www.w3.org/1999/xlink" x="0px" y="0px" width="288px"
	 height="288px" viewBox="0 0 288 288" enable-background="new 0 0 288 288" xml:space="preserve">
<g id="Layer_2">
	<path fill="#27AAE1" d="M148.9,53.6c0,0,6.4,23.2-11.9,31.9c0,0,13.5,1.4,16.4-13.1s-4.6-19.8-4.6-19.8"/>
	<path fill="#27AAE1" d="M150.2,88.7l2,48.6c0,0-17.6,7-16.8,7c0.8-0.1,14-1.5,18.4-2.8c0,0-1.4,64.9,2.2,76.9
		c0.4,1.2,6.6,14.9,6.6,14.9l8.3-5l-12.7-9.9c0,0,2.7-45.6,2.7-51.5c0-5.8-1.4-27.3-1.4-27.3L156,87.8L150.2,88.7z"/>
	<path fill="#27AAE1" d="M139.3,144.2l-0.8,74.2l-11,12.3c0,0,10.8,6.2,11,5.8c0.2-0.3,2.6-18.3,2.6-18.3l3.3-74.1H139.3z"/>
	<polygon fill="#27AAE1" points="156.7,93.7 168.6,104.7 158.6,126.7 158.5,119.4 164.3,104.1 157,99.4 	"/>
</g>
<g id="Layer_1">
	
		<ellipse transform="matrix(0.2801 -0.96 0.96 0.2801 35.8853 185.7871)" fill="none" stroke="#000000" stroke-width="2" stroke-miterlimit="10" cx="141.8" cy="69" rx="17.2" ry="12.1"/>
	<path fill="none" stroke="#000000" stroke-width="2" stroke-miterlimit="10" d="M138.3,51.6c0,0,6.2,4.9,15.6,5.8"/>
	<path fill="none" stroke="#000000" stroke-width="2" stroke-miterlimit="10" d="M135.4,53.8c0,0,8.9,6.6,19.2,7.1"/>
	<path fill="none" stroke="#000000" stroke-width="2" stroke-miterlimit="10" d="M132.9,56.8c0,0,14,8.2,21.7,7.2"/>
	<polyline fill="none" stroke="#000000" stroke-width="2" stroke-miterlimit="10" points="137,85.4 139.1,90 144.6,89.2 144.6,83.8 
			"/>
	<path fill="none" stroke="#000000" stroke-width="2" stroke-miterlimit="10" d="M126.8,92.3l29.2-4.5l3.5,51.7
		c0,0-18.2,7.8-29.8,3.2L126.8,92.3z"/>
	<path fill="none" stroke="#000000" stroke-width="2" stroke-miterlimit="10" d="M126.8,92.3c0,0-9.1,11.8-13.9,18.5l15.5,23.2
		l-6.1,4.6l2.1,1.9l4.9-1"/>
	<line fill="none" stroke="#000000" stroke-width="2" stroke-miterlimit="10" x1="127.5" y1="104.7" x2="116.7" y2="116.4"/>
	<path fill="none" stroke="#000000" stroke-width="2" stroke-miterlimit="10" d="M122.8,109.8c-0.3,0.3,5.8,14,5.8,14"/>
	<path fill="none" stroke="#000000" stroke-width="2" stroke-miterlimit="10" d="M156,87.8c0,0,13.4,9,18.5,16.8l-15.1,25.7l7.6,3.9
		l-2.3,3l-5.5-1"/>
	<path fill="none" stroke="#000000" stroke-width="2" stroke-miterlimit="10" d="M156.7,98.6c0,0.1,10.2,6.3,14.2,12.1"/>
	<path fill="none" stroke="#000000" stroke-width="2" stroke-miterlimit="10" d="M164.6,104.7c0,0.8-6.4,15.8-6.4,15.8"/>
	<path fill="none" stroke="#000000" stroke-width="2" stroke-miterlimit="10" d="M132.7,143.6c0,0,1,59,4.1,74.6h4.3l3.3-74.1"/>
	<path fill="none" stroke="#000000" stroke-width="2" stroke-miterlimit="10" d="M146.7,143.3l7.6,74.9h4.2c0,0,4.7-60,0.9-78.7"/>
	<polyline fill="none" stroke="#000000" stroke-width="2" stroke-miterlimit="10" points="140.6,218.4 137.5,233.4 127.1,227.9 
		138,218.4 	"/>
	<polyline fill="none" stroke="#000000" stroke-width="2" stroke-miterlimit="10" points="158.1,218.3 168.6,225.6 159.6,231.2 
		154.3,218.3 	"/>
</g>
<g id="Layer_3">
	<path opacity="0" fill="none" stroke="#27AAE1" stroke-width="25" stroke-miterlimit="10" d="M132.7,54.1
		c9.1-0.2,18.3,0.3,27.4,1.5c-8.9,1.8-17.6,4.3-26.1,7.3c8.6,0.6,17.2,1.3,25.9,1.9c-9.6,3.2-19.2,6.3-28.8,9.5
		c9.1-0.1,18.3,0.2,27.4,0.9c-9,2.9-18,5.8-27,8.7c-1.7,0.5-3.8,1.9-3.2,3.6c0.5,1.2,2,1.4,3.3,1.4c9.1,0.3,18.2,0.5,27.3,0.8
		c-5.2,1.8-10.3,3.7-15.5,5.5c-2.6,0.9-5.4,1.9-7.3,3.9c12.3,0,24.7,0.5,37,1.5c-12.3,1.2-24.4,4.3-35.9,8.9
		c10.6,1.7,21.4,2.1,32.1,1.3c-11.8,2.5-23.6,5-35.4,7.5c11,1.1,22,2.3,33,3.4c-13,4.4-25.6,10.1-37.6,17c11-1.3,22.2-1.7,33.3-1.2
		c-12.7,2.7-25.7,5.6-37,12.1c13.1-0.3,26.2-1.4,39.2-3.5c-11.7,3.9-23.4,8.2-34.8,12.9c11.6-0.6,23.1-1.2,34.7-1.8
		c-10.2,3.3-20.1,7.7-29.4,13.1c9.4,0.4,18.8,0.8,28.1-0.3c-10.1,3.5-19.8,7.7-29.2,12.7c10.4-0.4,20.8-0.7,31.2-1.1
		c-11.5,3.5-22.7,7.5-33.8,12c10.1-0.3,20.2-0.7,30.3-1c-11.2,2.1-22.2,5.9-32.3,11.2c10.8,0.5,21.7,0.9,32.5,1.4
		c-6.6,2.2-13.2,4.4-19.9,6.6c-3.6,1.2-7.3,2.4-9.9,5.1c14.6,0.1,29.2,0.1,43.7,0.2c-15.1,4.1-30.7,6-46.2,7.9
		c12.8,2,25.8,2.7,38.7,1.9c-9.1,2.6-18.5,4.1-28,4.6c-6.1,0.3-12.7,0.3-17.5,4.1c17,1,34.2-0.7,50.7-5.2"/>
</g>
</svg>
