<?xml version="1.0" encoding="utf-8"?>
<!-- Generator: Adobe Illustrator 19.2.1, SVG Export Plug-In . SVG Version: 6.00 Build 0)  -->
<svg version="1.0" xmlns="http://www.w3.org/2000/svg" xmlns:xlink="http://www.w3.org/1999/xlink" x="0px" y="0px" width="288px"
	 height="288px" viewBox="0 0 288 288" enable-background="new 0 0 288 288" xml:space="preserve">
<g id="Layer_2">
	<path fill="#27AAE1" d="M123.9,30.7c0,0-9.1,24.2,4.6,39.5c0,0-11.9-3.3-13.5-19.1S123.9,30.7,123.9,30.7z"/>
	<path fill="#27AAE1" d="M117.9,77.2l2.6,59.7c0,0,12.5,4.8,24.5,4.2l-11.8,2.6h-10.6l-1.6,94l-1.2,21.2l-16.5-3.2l15.3-18.8
		c0,0-3.5-67.4-4.4-94.9c-0.9-27.5-1.2-36.2-1.2-36.2L102.4,147l4.5,7.6l-1.7,0.8l-5.9-7.3c0,0,6.6-46.9,12.8-56.1V77.2H117.9z"/>
	<polygon fill="#27AAE1" points="137.2,143.6 145,237.7 162.5,258.9 145,261.9 141,237.7 131.1,144.4 	"/>
</g>
<g id="Layer_1">
	
		<ellipse transform="matrix(0.9972 -7.429257e-02 7.429257e-02 0.9972 -3.3603 9.6864)" fill="none" stroke="#000000" stroke-width="2" stroke-miterlimit="10" cx="128.5" cy="50" rx="13.5" ry="20.2"/>
	<path fill="none" stroke="#000000" stroke-width="2" stroke-miterlimit="10" d="M117.9,32.8c0,0,13.9,0.4,17.3-1.3"/>
	<path fill="none" stroke="#000000" stroke-width="2" stroke-miterlimit="10" d="M115.7,35.1c0,0,11,3.9,21.4-1.6"/>
	<path fill="none" stroke="#000000" stroke-width="2" stroke-miterlimit="10" d="M114.8,38.4c0,0,14.7,4.1,24.6-1.8"/>
	<polyline fill="none" stroke="#000000" stroke-width="2" stroke-miterlimit="10" points="125.7,69.5 126.5,75.9 134.4,75.2 
		135.2,68.2 	"/>
	<path fill="none" stroke="#000000" stroke-width="2" stroke-miterlimit="10" d="M112,77.2l34.1-3v66.9c0,0-11,5.1-32,0.9L112,77.2z
		"/>
	<path fill="none" stroke="#000000" stroke-width="2" stroke-miterlimit="10" d="M112,77.2c0,0-13.2,34-14.6,69.9h5
		c0,0,6-27.5,10.5-41.2"/>
	<polyline fill="none" stroke="#000000" stroke-width="2" stroke-miterlimit="10" points="102.4,147 106.8,154.7 104.6,156.9 
		101,154.7 101,168.2 95,164.2 97.4,147 	"/>
	<line fill="none" stroke="#000000" stroke-width="2" stroke-miterlimit="10" x1="103.2" y1="106.5" x2="110.5" y2="113.7"/>
	<path fill="none" stroke="#000000" stroke-width="2" stroke-miterlimit="10" d="M146,74.1c0,0,13.8-29.8,19.5-42.2"/>
	<path fill="none" stroke="#000000" stroke-width="2" stroke-miterlimit="10" d="M172.2,35.5C165.7,50.8,146,96.7,146,96.7"/>
	<path fill="none" stroke="#000000" stroke-width="2" stroke-miterlimit="10" d="M165.4,32.2l11.3,5.1l3.5-0.8l-2.2-4.3
		c0,0,12.8-1.3,13.5-1.5s1-4,1-4H168L165.4,32.2z"/>
	<path fill="none" stroke="#000000" stroke-width="2" stroke-miterlimit="10" d="M114,143c0,0,0.7,71.3,4.2,94.7h5.5l7.4-94"/>
	<path fill="none" stroke="#000000" stroke-width="2" stroke-miterlimit="10" d="M131.1,144.4l9.9,93.2h6.7c0,0,2.7-75.2-1.7-96.6"
		/>
	<polyline fill="none" stroke="#000000" stroke-width="2" stroke-miterlimit="10" points="118.2,237.7 105.1,252.6 122.6,257.7 
		123.7,237.7 	"/>
	<polyline fill="none" stroke="#000000" stroke-width="2" stroke-miterlimit="10" points="141,237.7 144,258.9 162.5,255.7 
		147.7,237.7 	"/>
</g>
<g id="Layer_3">
	<path opacity="0" fill="none" stroke="#27AAE1" stroke-width="25" stroke-miterlimit="10" d="M112.5,31.5
		c5.1-0.3,10.3-0.5,15.4-0.8c-5.9,2.6-11.8,5.1-17.7,7.7c6.2,0,12.4,0,18.6,0.1c-6.3,2.9-12.7,5.5-19.3,7.7
		c5.7,0.1,11.4,0.2,17.1,0.3c-6,2.2-12,4.3-17.9,6.5c5,0.1,10,0.3,14.9,0.4c-5.4,1.8-10.6,4.1-15.6,6.8c7.5,0.8,15,1.5,22.6,2.3
		c-8.6,2.6-16.9,5.9-24.9,9.9c7.9,0.9,15.7,1.8,23.6,2.7c-9.5,2.5-18.8,5.6-27.8,9.4c6.1,2.3,12.6,3.2,19.1,2.6
		c-5.1,2.3-10.3,4.7-15.4,7c4.6,0.3,9.3,0.5,13.9,0.8c-6.6,2.1-13.2,4.5-19.5,7.3c8,0.9,16.1,1.8,24.1,2.7
		c-10,1.9-19.7,4.6-29.2,8.1c9.7,0.3,19.4,0.6,29.1,0.8c-10.1,2.3-20.1,5.1-29.9,8.6c9.9,0.7,19.8,1.4,29.6,2
		c-8.3,4.9-16.9,9.3-25.8,13c9.9-0.2,19.8-0.4,29.7-0.6c-11.1,2-21.9,5.5-32.1,10.3c6.4,1.4,13.1,0.5,19.6-0.5
		c9.1-1.4,18.2-2.7,27.3-4.1c-16.8,2.6-33,8.5-47.6,17.1c21.3-2.2,42.9-4.4,64.2-2c-18.2,4.6-36.5,9.3-53,18.2
		c11.1-0.1,22.3-0.2,33.4-0.3c-10.2,3.1-20.4,6.3-30.6,9.4c-3.5,1.1-7.4,2.4-9.2,5.7c18.6,1.4,37.3,1.7,56,1.9
		c-16.9,2.6-33.8,5.3-50.7,7.9c15.5,2.1,30.9,4.3,46.4,6.4c-17,3.7-34.3,7.5-49.9,15.3c18.6,0.6,37.1,1.1,55.7,1.7
		c-17.4,4.2-34.9,8.5-52.3,12.7c17.1,3.2,34.5,4.8,51.9,6.3c-15.6,1.1-31.4,2.3-45.9,8.2c15.1,5.8,31.9,7.3,47.8,4.1
		c2-0.4,3.9-0.8,5.8-1.3"/>
</g>
</svg>
