<?xml version="1.0" encoding="utf-8"?>
<!-- Generator: Adobe Illustrator 19.2.1, SVG Export Plug-In . SVG Version: 6.00 Build 0)  -->
<svg version="1.0" xmlns="http://www.w3.org/2000/svg" xmlns:xlink="http://www.w3.org/1999/xlink" x="0px" y="0px" width="288px"
	 height="288px" viewBox="0 0 288 288" enable-background="new 0 0 288 288" xml:space="preserve">
<g id="Layer_2">
	<path fill="#27AAE1" d="M98.9,70.1c0,0-11.8,4.8-9,25.3c0,0,4.3,16.3,15.2,15.3C105.1,110.8,85.1,100.5,98.9,70.1z"/>
	<path fill="#27AAE1" d="M89.4,122.2c0,0-14.3,22.5-3.9,49.7l1.5-0.3c0,0-3.4-19.4-1.6-25.5c1.8-6.1,5.1-12.7,5.1-12.7l2.7,45.1
		l4.2,61.3l-14,8.2l11.6,6l7.4-14.2l-5-62.5l-1.2-52.2l-3.4,1.7L89.4,122.2z"/>
	<polygon fill="#27AAE1" points="112,177.1 114.2,239.8 130.2,250.5 117.3,253.2 110.7,240.6 107.9,177.3 	"/>
	<polygon fill="#27AAE1" points="172.2,90.8 144,138.8 142.5,151 150.9,137.7 177,96.4 177,91.5 	"/>
</g>
<g id="Layer_1">
	
		<ellipse transform="matrix(0.9945 -0.1043 0.1043 0.9945 -8.8483 11.2306)" fill="none" stroke="#000000" stroke-width="2" stroke-miterlimit="10" cx="103" cy="90.2" rx="13.8" ry="20.6"/>
	<path fill="none" stroke="#000000" stroke-width="2" stroke-miterlimit="10" d="M163.7,84.8h-4.3c-6.6,0-12-5.4-12-12V56.1
		c0-6.6,5.4-12,12-12h4.3c6.6,0,12,5.4,12,12v16.7C175.7,79.4,170.3,84.8,163.7,84.8z"/>
	<path fill="none" stroke="#000000" stroke-width="2" stroke-miterlimit="10" d="M147.4,66.3c0,0,3.3,1,7.2,0c3.8-1,5.8-2.8,10.7-1
		c4.8,1.8,10.5,0.3,10.5,0.3"/>
	<path fill="none" stroke="#000000" stroke-width="2" stroke-miterlimit="10" d="M175.7,60.1c0,0,5.8,4.2,0,7"/>
	<path fill="none" stroke="#000000" stroke-width="2" stroke-miterlimit="10" d="M170.3,90.6c4.9-0.4,16.6-6.8,16.6-6.8
		c-1.8-3.8-5.4-39.7-8.7-44.2s-16.8-0.6-16.8-0.6s-17.2-3.5-19.1,6.5s-4.8,32.6-7.4,36.2c0,0,2.3,7.1,11.8,9"/>
	<path fill="none" stroke="#000000" stroke-width="2" stroke-miterlimit="10" d="M91.9,74.4c0,0,9.8-0.2,15.3-3.5"/>
	<path fill="none" stroke="#000000" stroke-width="2" stroke-miterlimit="10" d="M89.4,76.8c0,0,9.8,2.3,22.8-4.2"/>
	<path fill="none" stroke="#000000" stroke-width="2" stroke-miterlimit="10" d="M88.2,80c0,0,14,1.7,26.5-3.7"/>
	<polyline fill="none" stroke="#000000" stroke-width="2" stroke-miterlimit="10" points="99.6,109.7 100.9,115.8 108.7,114.9 
		108.7,109.6 	"/>
	<polyline fill="none" stroke="#000000" stroke-width="2" stroke-miterlimit="10" points="157.6,84.8 158.2,90.3 166.3,90.6 
		166.3,84.5 	"/>
	<path fill="none" stroke="#000000" stroke-width="2" stroke-miterlimit="10" d="M98,116.1c6.3-0.8,15-1.6,20-1l2,61.5
		c0,0-19,1.5-27.2,0c0,0-1.6-37.3-2.2-52.8"/>
	<path fill="none" stroke="#000000" stroke-width="2" stroke-miterlimit="10" d="M87,119.3c0,0-16.1,25.2-3.8,53.2l3.8-0.8
		c0,0-6.8-26.4,3.9-39.2"/>
	<line fill="none" stroke="#000000" stroke-width="2" stroke-miterlimit="10" x1="80.2" y1="136.7" x2="85.9" y2="143.2"/>
	<polygon fill="none" stroke="#000000" stroke-width="2" stroke-miterlimit="10" points="83.2,172.5 82.3,179.9 85.9,187.1 
		90.9,185.5 87.9,172 	"/>
	<path fill="none" stroke="#000000" stroke-width="2" stroke-miterlimit="10" d="M118.1,120.1c0,0,13.1,8.8,25.4,8"/>
	<path fill="none" stroke="#000000" stroke-width="2" stroke-miterlimit="10" d="M118.5,131.6c0,0,13.2,6,25,2.5"/>
	<line fill="none" stroke="#000000" stroke-width="2" stroke-miterlimit="10" x1="128.3" y1="134.5" x2="135.9" y2="127.6"/>
	<path fill="none" stroke="#000000" stroke-width="2" stroke-miterlimit="10" d="M146,90.8c0,0,21.3-1.5,31,0.7
		c0,0,11.5,86.9,10.7,117.2c0,0-22.3,11.2-54.3,0C133.5,208.6,148.2,124,146,90.8z"/>
	<line fill="none" stroke="#000000" stroke-width="2" stroke-miterlimit="10" x1="146" y1="90.8" x2="113.2" y2="105.3"/>
	<line fill="none" stroke="#000000" stroke-width="2" stroke-miterlimit="10" x1="146" y1="104.7" x2="122.8" y2="122.8"/>
	<polyline fill="none" stroke="#000000" stroke-width="2" stroke-miterlimit="10" points="97.4,108.2 91.4,108.5 85.8,117.8 
		93.1,126.8 99.6,123.2 97.6,112.7 	"/>
	<line fill="none" stroke="#000000" stroke-width="2" stroke-miterlimit="10" x1="95" y1="125.7" x2="91.3" y2="118.8"/>
	<line fill="none" stroke="#000000" stroke-width="2" stroke-miterlimit="10" x1="95" y1="117" x2="97.4" y2="124.1"/>
	<path fill="none" stroke="#000000" stroke-width="2" stroke-miterlimit="10" d="M169,90.6c0,0-21.2,34.6-25.2,44.9l-1.9,16.5
		l35.7-56.4l-0.5-4.1C177,91.5,171.8,90.6,169,90.6z"/>
	<path fill="none" stroke="#000000" stroke-width="2" stroke-miterlimit="10" d="M177,91.5c0,0,20.5,26.3,32.2,45.3l-10,21.2
		l-19.5-44.6"/>
	<polyline fill="none" stroke="#000000" stroke-width="2" stroke-miterlimit="10" points="206.2,143.1 214.9,149.5 216.1,160.3 
		203.4,149 	"/>
	<polyline fill="none" stroke="#000000" stroke-width="2" stroke-miterlimit="10" points="201.8,152.5 204.9,158 207.6,157.3 
		206.7,151.9 	"/>
	<polyline fill="none" stroke="#000000" stroke-width="2" stroke-miterlimit="10" points="92.7,176.6 97.9,239.8 102.4,239.8 
		105.1,177.3 	"/>
	<polyline fill="none" stroke="#000000" stroke-width="2" stroke-miterlimit="10" points="107.9,177.3 112.1,239.8 115.6,239.8 
		118.5,177.3 	"/>
	<polyline fill="none" stroke="#000000" stroke-width="2" stroke-miterlimit="10" points="166.7,213.5 169.4,238.8 174.9,238.8 
		177,212 	"/>
	<polyline fill="none" stroke="#000000" stroke-width="2" stroke-miterlimit="10" points="145.9,212 149.2,238.8 155.4,238.8 
		156.7,213.6 	"/>
	<polygon fill="none" stroke="#000000" stroke-width="2" stroke-miterlimit="10" points="97.9,240.6 83.4,244.8 94.2,249.8 
		102.4,240.6 	"/>
	<polygon fill="none" stroke="#000000" stroke-width="2" stroke-miterlimit="10" points="110.7,240.6 117.1,239.8 131.2,248.5 
		118.5,250.5 	"/>
	<polygon fill="none" stroke="#000000" stroke-width="2" stroke-miterlimit="10" points="155.4,238.8 133.5,241.3 141.9,251.6 
		155.4,241.5 	"/>
	<polyline fill="none" stroke="#000000" stroke-width="2" stroke-miterlimit="10" points="169.4,238.8 167.7,243.3 189.5,251.6 
		194.7,240.3 174.9,238.8 	"/>
</g>
<g id="Layer_3">
	<path opacity="0" fill="none" stroke="#27AAE1" stroke-width="25" stroke-miterlimit="10" d="M90.3,69.6c7.2-0.5,14.5-1.1,21.7-1.6
		c-11.3,1.1-22.3,4.6-32.1,10.3c10.7-0.7,21.5-1.3,32.2-2c-9.7,2.2-19.2,5.8-28,10.5c6.9-0.6,13.7-1.2,20.6-1.9
		c-6.7,1.4-13.3,3.6-19.5,6.6c31.7-1.7,63.6-1.9,95.3-0.8c-8.1,2.8-16.8,2.7-25.4,2.6c-20.6-0.1-41.2,0.4-61.8,1.4
		c-2.5,0.1-5.2,0.3-7.3,1.8c33.3,0.4,66.7,0.7,100,1.1c-33.8,1.5-67.6,3.5-101.3,5.9c33.9,1.3,68.1-3.3,101.9,0.3
		c-31,13.1-67.5,1-99.8,10.6c28.5,0.3,57.1,0.5,85.6,0.8c-32.5,4.7-65.4,5-98.2,5.4c13.1,2.7,26.6,3,40,3.3
		c18.7,0.4,37.4,0.9,56.1,1.3c-32.1,0.6-64.2,1.3-96.3,1.9c4.5,3.7,10.6,4.5,16.4,5c18.4,1.6,36.9,1.4,55.4,1.2
		c7.7-0.1,15.4-0.1,23.2-0.2c-11.6,4.7-24.5,4.7-37,4.6c-13.6-0.1-27.2-0.2-40.8-0.3c-5.2,0-11,0.2-14.5,4c11.4,3,23.3,3.5,35.1,4
		c13.7,0.5,27.5,1,41.2,1.6c-27.2,2-54.4,3.9-81.6,5.9c28.1,4,56.7,4.5,85.1,5.1c-28.4,0.7-57.1,1.8-84.5,9.1
		c14.7,5.8,30.4,9.3,46.2,10.2c-9.4,6.9-22.9,5-33,10.9c11.4,0.1,22.7,0.8,34,2.1c-10.9,3-21.9,6-31.8,11.5
		c10.2,1.2,20.4,2.4,30.6,3.5c-9.4,4.1-19.3,6.9-29.5,8.6c9.5,1.8,19,3.6,28.5,5.4c-7.7,3.3-15.6,6.3-23.5,8.9
		c6.9,1.8,14,2.9,21.1,3.5c-8.3,2.1-16.7,4.2-25,6.3c11.8,0.7,23.7,1.4,35.5,2.1c-15,1-30.3,2-43.9,8.3c17.5,8.4,38.2,4.4,57.1,0.1"
		/>
</g>
</svg>
