<?xml version="1.0" encoding="utf-8"?>
<!-- Generator: Adobe Illustrator 21.0.0, SVG Export Plug-In . SVG Version: 6.00 Build 0)  -->
<!DOCTYPE svg PUBLIC "-//W3C//DTD SVG 1.0//EN" "http://www.w3.org/TR/2001/REC-SVG-20010904/DTD/svg10.dtd">
<svg version="1.0" xmlns="http://www.w3.org/2000/svg" xmlns:xlink="http://www.w3.org/1999/xlink" x="0px" y="0px" width="288px"
	 height="288px" viewBox="0 0 288 288" enable-background="new 0 0 288 288" xml:space="preserve">
<g id="Color_1_">
	<path id="Color" fill="#27AAE1" d="M90.1,128.9l-11.4,9.8l-14.8-11.1c0,0,14.2,20.4,14.3,19.6s12.7-11.7,12.7-11.7L90.1,128.9z"/>
</g>
<g id="Lines">
	<g>
		<path fill="none" stroke="#000000" stroke-width="2" stroke-miterlimit="10" d="M88.9,117.6c-1,1.2-9.5,18.3-9.5,18.3l-12-14.3
			v-11.5h-4.2v6.8H56l1,10.7h7l14.5,19.3L89,136.1"/>
		<line fill="none" stroke="#000000" stroke-width="2" stroke-miterlimit="10" x1="79.4" y1="136" x2="78.4" y2="147"/>
	</g>
</g>
<g id="Layer_3">
	
		<path opacity="0" fill="none" stroke="#000000" stroke-width="8" stroke-linecap="round" stroke-linejoin="round" stroke-miterlimit="10" d="
		M64.4,131.8c2.2-0.3,4.3-1,6.3-2.1c0.4,2.4-0.8,4.8-1.9,6.9c1.8-1.3,3.5-2.6,5.3-3.8c-0.7,3.3-1.4,6.5-2,9.8
		c1.7-2.1,2.9-4.6,3.7-7.2c0,2.9,0.1,5.9,0.1,8.8c0.7-0.3,1.2,1.2,1.9,1.1c0.4-0.1,0.6-0.5,0.7-0.9c0.9-3.2,1.3-6.5,1.1-9.8
		c0.4,2.8,0.8,5.5,1.3,8.3c0.1,0.6,0.5,1.5,1.1,1.3c0.3-0.1,0.4-0.4,0.5-0.6c1.5-3.5,2.2-7.4,2.1-11.2c0,3.1,1.1,6.2,3.1,8.6
		c0.2,0.2,0.5,0.5,0.8,0.5c0.3-0.1,0.4-0.4,0.6-0.7c0.8-2.1,1.1-4.4,1.5-6.7c0.3-1.9,0.5-3.8,0.8-5.7"/>
</g>
</svg>
