<?xml version="1.0" encoding="utf-8"?>
<!-- Generator: Adobe Illustrator 21.0.0, SVG Export Plug-In . SVG Version: 6.00 Build 0)  -->
<!DOCTYPE svg PUBLIC "-//W3C//DTD SVG 1.0//EN" "http://www.w3.org/TR/2001/REC-SVG-20010904/DTD/svg10.dtd">
<svg version="1.0" id="Layer_1" xmlns="http://www.w3.org/2000/svg" xmlns:xlink="http://www.w3.org/1999/xlink" x="0px" y="0px"
	 width="288px" height="288px" viewBox="0 0 288 288" enable-background="new 0 0 288 288" xml:space="preserve">
<g id="Layer_2">
	<path fill="#27AAE1" d="M87,171.6c0,0-3.4-19.4-1.6-25.5c1.3-4.6,3.5-9.4,4.5-11.6c0.1-3.3,0.3-6.8,1.1-10.2l-1.6-2.2
		c0,0-14.3,22.5-3.9,49.7L87,171.6z"/>
</g>
<g id="Layer_1_1_">
	<path fill="none" stroke="#000000" stroke-width="2" stroke-miterlimit="10" d="M87,119.3c0,0-16.1,25.2-3.8,53.2l3.8-0.8
		c0,0-6.8-26.4,3.9-39.2"/>
	<line fill="none" stroke="#000000" stroke-width="2" stroke-miterlimit="10" x1="80.2" y1="136.7" x2="85.9" y2="143.2"/>
	<polygon fill="none" stroke="#000000" stroke-width="2" stroke-miterlimit="10" points="83.2,172.5 82.3,179.9 85.9,187.1 
		90.9,185.5 87.9,172 	"/>
</g>
<g id="Layer_2_1_">
	
		<path opacity="0" fill="none" stroke="#231F20" stroke-width="9" stroke-linecap="round" stroke-linejoin="round" stroke-miterlimit="10" d="
		M94.7,122.3c-4.7-1.2-9.6-1.6-14.5-1.1c3.5,4.9,8,9.1,13.1,12.2c1.2,0.8,2.7,1.7,2.7,3.2c-5.9,0.4-11.9,0.1-17.7-1.1
		c-0.9-0.2-1.9-0.4-2.7-0.1c-0.9,0.3-1.6,1.3-1.1,2.2c0.3,0.5,0.8,0.8,1.4,1c3.7,1.5,7.3,3,11,4.5c1,0.4,2.2,1.1,2.2,2.2
		c0,0.8-0.7,1.3-1.3,1.8c-1.4,0.9-2.9,1.6-4.5,2c-0.9,0.2-2,0.5-2.1,1.4c-0.1,0.6,0.5,1.2,1,1.6c2.1,1.6,4.5,2.9,7.1,3.7
		c0.4,0.8-0.4,1.6-1.2,2c-3,1.9-6,3.7-9,5.6c3.8,0.6,7.6,1,11.4,1c-3.1,1.8-6.3,3.4-9.6,4.9c3,1.8,6.3,2.9,9.8,3.1"/>
</g>
</svg>
