<?xml version="1.0" encoding="utf-8"?>
<!-- Generator: Adobe Illustrator 21.0.0, SVG Export Plug-In . SVG Version: 6.00 Build 0)  -->
<!DOCTYPE svg PUBLIC "-//W3C//DTD SVG 1.0//EN" "http://www.w3.org/TR/2001/REC-SVG-20010904/DTD/svg10.dtd">
<svg version="1.0" id="Layer_2" xmlns="http://www.w3.org/2000/svg" xmlns:xlink="http://www.w3.org/1999/xlink" x="0px" y="0px"
	 width="1859.9px" height="1102.4px" viewBox="0 0 1859.9 1102.4" enable-background="new 0 0 1859.9 1102.4" xml:space="preserve">
<g id="Layer_1_1_">
	
		<ellipse transform="matrix(0.192 -0.9814 0.9814 0.192 269.8796 592.6728)" fill="none" stroke="#000000" stroke-width="4" stroke-miterlimit="10" cx="494.9" cy="132.4" rx="31.2" ry="21.4"/>
	
		<ellipse transform="matrix(0.1346 -0.9909 0.9909 0.1346 439.0302 767.3818)" fill="none" stroke="#000000" stroke-width="4" stroke-miterlimit="10" cx="658.8" cy="132.3" rx="31.5" ry="21.3"/>
	<path fill="none" stroke="#000000" stroke-width="4" stroke-miterlimit="10" d="M663.2,100.9c0,0,27.6,2.9,27.6,31.2
		s2.8,34.9,5.4,39.9c0,0-8.7,2.5-18.8,2.2"/>
	<path fill="none" stroke="#000000" stroke-width="4" stroke-miterlimit="10" d="M679.6,120.5c0,0,3.6,16.3,5.6,26.5
		s4.5,22.5,5.6,26.1"/>
	<path fill="none" stroke="#000000" stroke-width="4" stroke-miterlimit="10" d="M678.5,143c0,0,1.1,24.7,5.1,31.1"/>
	<path fill="none" stroke="#000000" stroke-width="4" stroke-miterlimit="10" d="M670.2,157c0,0,1.1,13.4,3.6,16.1"/>
	<polyline fill="none" stroke="#000000" stroke-width="4" stroke-miterlimit="10" points="483.2,160.5 481.7,168.9 491.1,170.8 
		494.9,163 	"/>
	<polyline fill="none" stroke="#000000" stroke-width="4" stroke-miterlimit="10" points="654.6,163.3 654.6,170.2 663.2,171.1 
		665.5,160.9 	"/>
	<path fill="none" stroke="#000000" stroke-width="4" stroke-miterlimit="10" d="M461.6,166.9c0,0,29.5,0.3,46.6,10.4
		c0,0-19.4,79.5-26.7,90.5l-34.6-4.8L461.6,166.9z"/>
	<path fill="none" stroke="#000000" stroke-width="4" stroke-miterlimit="10" d="M461.6,166.9l-48.1,29c0,0,2.5,36.3,14.3,66.6h5.4
		c0,0-2-44.4-0.6-57.8"/>
	<line fill="none" stroke="#000000" stroke-width="4" stroke-miterlimit="10" x1="458.2" y1="189.3" x2="415.5" y2="214.4"/>
	<polygon fill="none" stroke="#000000" stroke-width="4" stroke-miterlimit="10" points="433.2,262.7 439.4,273.4 436.3,276.1 
		433.2,276.1 435.3,293.6 423.9,286.6 427.8,262.7 	"/>
	<polyline fill="none" stroke="#000000" stroke-width="4" stroke-miterlimit="10" points="508.2,177.5 528.7,210.8 557.6,185.1 
		561.6,187.4 528.7,234 502,201.5 	"/>
	<polyline fill="none" stroke="#000000" stroke-width="4" stroke-miterlimit="10" points="557.6,185.1 557.6,177.5 584.3,171.9 
		584.3,187.4 561.6,187.4 	"/>
	<line fill="none" stroke="#000000" stroke-width="4" stroke-miterlimit="10" x1="528.7" y1="210.8" x2="528.7" y2="234"/>
	<path fill="none" stroke="#000000" stroke-width="4" stroke-miterlimit="10" d="M677.5,174.2c-16-5.4-42.9-5.1-42.9-5.1L598,204.2
		l1.2,60.9c0,0,5.1,1.7,5.9,0.6c0.8-1.1,6.2-54.8,6.2-54.8l21.3-18.5c0,0-9.8,34.6-5,63.7c0,0,25.3,5.4,36.5,3.1l17.5-56.8
		L677.5,174.2z"/>
	<polyline fill="none" stroke="#000000" stroke-width="4" stroke-miterlimit="10" points="605.3,265.8 610.4,281.8 599,299.3 
		591,295.8 599.2,265.2 	"/>
	<path fill="none" stroke="#000000" stroke-width="4" stroke-miterlimit="10" d="M679.6,208.8c0,0,13.5,22.2,32.1,32.4l-2,5.9
		c0,0-19.9-3.1-36-19.1"/>
	<path fill="none" stroke="#000000" stroke-width="4" stroke-miterlimit="10" d="M709.7,247.2l25.3,12.6l5-10.6l-18.2-11.6
		c0,0-9.5,2.3-9.9,3.7"/>
	<path fill="none" stroke="#000000" stroke-width="4" stroke-miterlimit="10" d="M446.9,263c0,0,75,127,82,151.1l6.5-1.9
		c0,0-18.2-87.6-53.9-144.4"/>
	<path fill="none" stroke="#000000" stroke-width="4" stroke-miterlimit="10" d="M452.8,273.4c0,0,6.8,75.9-37.3,132l8.4,1.6
		c0,0,46.6-41.5,50.8-95.8"/>
	<path fill="none" stroke="#000000" stroke-width="4" stroke-miterlimit="10" d="M627.8,256.2c0,0-24.4,71.9-29.8,107.3
		c0,0,67.4,26.2,113.8-10.6l-47.7-93.6"/>
	<path fill="none" stroke="#000000" stroke-width="4" stroke-miterlimit="10" d="M621.7,369.8l-9,51.9h4.5c0,0,26.5-38.3,27-49.2"/>
	<polyline fill="none" stroke="#000000" stroke-width="4" stroke-miterlimit="10" points="665.5,372.5 683.8,421.7 692.8,418.9 
		691,365 	"/>
	<polygon fill="none" stroke="#000000" stroke-width="4" stroke-miterlimit="10" points="413.7,406 408.2,420.4 440.7,431.8 
		456.7,422.5 423.9,407.1 	"/>
	<polygon fill="none" stroke="#000000" stroke-width="4" stroke-miterlimit="10" points="528.7,414.2 530.9,432.1 563.8,439.1 
		574.5,425.9 536.6,413 	"/>
	<polyline fill="none" stroke="#000000" stroke-width="4" stroke-miterlimit="10" points="612.6,421.7 611,427.1 635.4,442.3 
		649.8,429 617.1,421.7 	"/>
	<polyline fill="none" stroke="#000000" stroke-width="4" stroke-miterlimit="10" points="683.8,421.7 684.7,429.1 720.8,442.3 
		727.4,426 692.8,418.9 	"/>
</g>
<g id="Layer_1_2_">
	
		<ellipse transform="matrix(0.192 -0.9814 0.9814 0.192 850.0366 1316.2135)" fill="none" stroke="#000000" stroke-width="4" stroke-miterlimit="10" cx="1224.4" cy="141.9" rx="31.2" ry="21.4"/>
	
		<ellipse transform="matrix(0.1346 -0.9909 0.9909 0.1346 1061.1619 1498.074)" fill="none" stroke="#000000" stroke-width="4" stroke-miterlimit="10" cx="1388.2" cy="141.5" rx="31.5" ry="21.3"/>
	<path fill="none" stroke="#000000" stroke-width="4" stroke-miterlimit="10" d="M1392.6,110.3c0,0,27.6,2.9,27.6,31.2
		s2.8,34.9,5.4,39.9c0,0-8.7,2.5-18.8,2.2"/>
	<path fill="none" stroke="#000000" stroke-width="4" stroke-miterlimit="10" d="M1409,129.9c0,0,3.6,16.3,5.6,26.5
		s4.5,22.5,5.6,26.1"/>
	<path fill="none" stroke="#000000" stroke-width="4" stroke-miterlimit="10" d="M1408,152.4c0,0,1.1,24.7,5.1,31.1"/>
	<path fill="none" stroke="#000000" stroke-width="4" stroke-miterlimit="10" d="M1399.6,166.4c0,0,1.1,13.4,3.6,16.1"/>
	<polyline fill="none" stroke="#000000" stroke-width="4" stroke-miterlimit="10" points="1212.6,169.9 1211.1,178.3 1220.6,180.2 
		1224.3,172.4 	"/>
	<polyline fill="none" stroke="#000000" stroke-width="4" stroke-miterlimit="10" points="1384,172.7 1384,179.6 1392.6,180.5 
		1394.9,170.3 	"/>
	<path fill="none" stroke="#000000" stroke-width="4" stroke-miterlimit="10" d="M1191.1,176.3c0,0,29.5,0.3,46.6,10.4
		c0,0-19.4,79.5-26.7,90.5l-34.6-4.8L1191.1,176.3z"/>
	<path fill="none" stroke="#000000" stroke-width="4" stroke-miterlimit="10" d="M1191.1,176.3l-48.1,29c0,0,2.5,36.3,14.3,66.6h5.4
		c0,0-2-44.4-0.6-57.8"/>
	<line fill="none" stroke="#000000" stroke-width="4" stroke-miterlimit="10" x1="1187.6" y1="198.7" x2="1145" y2="223.8"/>
	<polygon fill="none" stroke="#000000" stroke-width="4" stroke-miterlimit="10" points="1162.7,272.1 1168.9,282.8 1165.8,285.5 
		1162.7,285.5 1164.7,303 1153.3,296 1157.2,272.1 	"/>
	<polyline fill="none" stroke="#000000" stroke-width="4" stroke-miterlimit="10" points="1237.6,186.9 1258.1,220.2 1287,194.5 
		1291,196.8 1258.1,243.4 1231.4,210.9 	"/>
	<polyline fill="none" stroke="#000000" stroke-width="4" stroke-miterlimit="10" points="1287,194.5 1287,186.9 1313.7,181.3 
		1313.7,196.8 1291,196.8 	"/>
	<line fill="none" stroke="#000000" stroke-width="4" stroke-miterlimit="10" x1="1258.1" y1="220.2" x2="1258.1" y2="243.4"/>
	<path fill="none" stroke="#000000" stroke-width="4" stroke-miterlimit="10" d="M1406.9,183.6c-16-5.4-42.9-5.1-42.9-5.1
		l-36.6,35.1l1.2,60.9c0,0,5.1,1.7,5.9,0.6s6.2-54.8,6.2-54.8l21.3-18.5c0,0-9.8,34.6-5,63.7c0,0,25.3,5.4,36.5,3.1l17.5-56.8
		L1406.9,183.6z"/>
	<polyline fill="none" stroke="#000000" stroke-width="4" stroke-miterlimit="10" points="1334.7,275.2 1339.8,291.2 1328.5,308.7 
		1320.4,305.2 1328.6,274.6 	"/>
	<path fill="none" stroke="#000000" stroke-width="4" stroke-miterlimit="10" d="M1409,218.2c0,0,13.5,22.2,32.1,32.4l-2,5.9
		c0,0-19.9-3.1-36-19.1"/>
	<path fill="none" stroke="#000000" stroke-width="4" stroke-miterlimit="10" d="M1439.2,256.6l25.3,12.6l5-10.6l-18.2-11.6
		c0,0-9.5,2.3-9.9,3.7"/>
	<path fill="none" stroke="#000000" stroke-width="4" stroke-miterlimit="10" d="M1176.3,272.4c0,0,75,127,82,151.1l6.5-1.9
		c0,0-18.2-87.6-53.9-144.4"/>
	<path fill="none" stroke="#000000" stroke-width="4" stroke-miterlimit="10" d="M1182.2,282.8c0,0,6.8,75.9-37.3,132l8.4,1.6
		c0,0,46.6-41.5,50.8-95.8"/>
	<path fill="none" stroke="#000000" stroke-width="4" stroke-miterlimit="10" d="M1357.2,265.6c0,0-24.4,71.9-29.8,107.3
		c0,0,67.4,26.2,113.8-10.6l-47.7-93.6"/>
	<path fill="none" stroke="#000000" stroke-width="4" stroke-miterlimit="10" d="M1351.1,379.2l-9,51.9h4.5c0,0,26.5-38.3,27-49.2"
		/>
	<polyline fill="none" stroke="#000000" stroke-width="4" stroke-miterlimit="10" points="1394.9,381.9 1413.2,431.1 1422.2,428.3 
		1420.4,374.4 	"/>
	<polygon fill="none" stroke="#000000" stroke-width="4" stroke-miterlimit="10" points="1143.1,415.4 1137.7,429.8 1170.1,441.2 
		1186.1,431.9 1153.3,416.5 	"/>
	<polygon fill="none" stroke="#000000" stroke-width="4" stroke-miterlimit="10" points="1258.1,423.6 1260.3,441.5 1293.2,448.5 
		1303.9,435.3 1266.1,422.4 	"/>
	<polyline fill="none" stroke="#000000" stroke-width="4" stroke-miterlimit="10" points="1342,431.1 1340.4,436.5 1364.8,451.7 
		1379.2,438.4 1346.5,431.1 	"/>
	<polyline fill="none" stroke="#000000" stroke-width="4" stroke-miterlimit="10" points="1413.2,431.1 1414.2,438.5 1450.2,451.7 
		1456.9,435.4 1422.2,428.3 	"/>
</g>
<line fill="none" stroke="#27AAE1" stroke-width="5" stroke-miterlimit="10" x1="524.8" y1="446.7" x2="477.8" y2="521.6"/>
<g id="Layer_1_3_">
	
		<ellipse transform="matrix(0.192 -0.9814 0.9814 0.192 -221.1495 691.765)" fill="none" stroke="#000000" stroke-width="4" stroke-miterlimit="10" cx="309.5" cy="480.2" rx="23.6" ry="16.2"/>
	
		<ellipse transform="matrix(0.1346 -0.9909 0.9909 0.1346 -100.6434 844.816)" fill="none" stroke="#000000" stroke-width="4" stroke-miterlimit="10" cx="433.3" cy="480" rx="23.8" ry="16.1"/>
	<path fill="none" stroke="#000000" stroke-width="4" stroke-miterlimit="10" d="M436.7,456.4c0,0,20.9,2.2,20.9,23.6
		s2.1,26.4,4.1,30.2c0,0-6.6,1.9-14.2,1.6"/>
	<path fill="none" stroke="#000000" stroke-width="4" stroke-miterlimit="10" d="M449.1,471.2c0,0,2.7,12.3,4.2,20.1
		c1.5,7.7,3.4,17,4.2,19.7"/>
	<path fill="none" stroke="#000000" stroke-width="4" stroke-miterlimit="10" d="M448.3,488.2c0,0,0.8,18.7,3.9,23.5"/>
	<path fill="none" stroke="#000000" stroke-width="4" stroke-miterlimit="10" d="M441.9,498.7c0,0,0.8,10.1,2.7,12.2"/>
	<polyline fill="none" stroke="#000000" stroke-width="4" stroke-miterlimit="10" points="300.7,501.4 299.5,507.8 306.7,509.2 
		309.5,503.3 	"/>
	<polyline fill="none" stroke="#000000" stroke-width="4" stroke-miterlimit="10" points="430.2,503.6 430.2,508.7 436.7,509.4 
		438.4,501.7 	"/>
	<path fill="none" stroke="#000000" stroke-width="4" stroke-miterlimit="10" d="M284.4,506.3c0,0,22.3,0.2,35.2,7.9
		c0,0-14.7,60.1-20.2,68.4l-26.2-3.6L284.4,506.3z"/>
	<path fill="none" stroke="#000000" stroke-width="4" stroke-miterlimit="10" d="M284.4,506.3L248,528.2c0,0,1.9,27.5,10.8,50.3h4.1
		c0,0-1.5-33.6-0.5-43.6"/>
	<line fill="none" stroke="#000000" stroke-width="4" stroke-miterlimit="10" x1="281.8" y1="523.1" x2="249.5" y2="542.2"/>
	<polygon fill="none" stroke="#000000" stroke-width="4" stroke-miterlimit="10" points="262.9,578.6 267.6,586.7 265.2,588.7 
		262.9,588.7 264.4,602 255.9,596.7 258.8,578.6 	"/>
	<polyline fill="none" stroke="#000000" stroke-width="4" stroke-miterlimit="10" points="319.6,514.2 335.1,539.5 356.9,520 
		359.9,521.7 335.1,556.9 314.9,532.4 	"/>
	<polyline fill="none" stroke="#000000" stroke-width="4" stroke-miterlimit="10" points="356.9,520 356.9,514.2 377.1,510 
		377.1,521.7 359.9,521.7 	"/>
	<line fill="none" stroke="#000000" stroke-width="4" stroke-miterlimit="10" x1="335.1" y1="539.5" x2="335.1" y2="556.9"/>
	<path fill="none" stroke="#000000" stroke-width="4" stroke-miterlimit="10" d="M447.5,511.8c-12.1-4.1-32.4-3.9-32.4-3.9
		l-27.7,26.5l0.9,46c0,0,3.9,1.3,4.5,0.5s4.7-41.4,4.7-41.4l16.1-14c0,0-7.4,26.2-3.8,48.1c0,0,19.1,4.1,27.6,2.3l13.3-42.9
		L447.5,511.8z"/>
	<polyline fill="none" stroke="#000000" stroke-width="4" stroke-miterlimit="10" points="392.9,581 396.8,593.1 388.2,606.3 
		382.1,603.6 388.3,580.5 	"/>
	<path fill="none" stroke="#000000" stroke-width="4" stroke-miterlimit="10" d="M449.1,537.9c0,0,10.2,16.8,24.3,24.5l-1.5,4.5
		c0,0-15-2.3-27.2-14.4"/>
	<path fill="none" stroke="#000000" stroke-width="4" stroke-miterlimit="10" d="M471.9,566.9l19.1,9.5l3.8-8l-13.7-8.8
		c0,0-7.2,1.8-7.5,2.8"/>
	<path fill="none" stroke="#000000" stroke-width="4" stroke-miterlimit="10" d="M273.2,578.9c0,0,56.7,96,62,114.2l4.9-1.4
		c0,0-13.7-66.2-40.7-109.1"/>
	<path fill="none" stroke="#000000" stroke-width="4" stroke-miterlimit="10" d="M277.7,586.7c0,0,5.2,57.4-28.2,99.7l6.3,1.2
		c0,0,35.2-31.3,38.4-72.4"/>
	<path fill="none" stroke="#000000" stroke-width="4" stroke-miterlimit="10" d="M409.9,573.7c0,0-18.4,54.3-22.5,81.1
		c0,0,50.9,19.8,86-8l-36-70.8"/>
	<path fill="none" stroke="#000000" stroke-width="4" stroke-miterlimit="10" d="M405.3,659.6l-6.8,39.2h3.4c0,0,20.1-29,20.4-37.2"
		/>
	<polyline fill="none" stroke="#000000" stroke-width="4" stroke-miterlimit="10" points="438.4,661.6 452.3,698.8 459.1,696.7 
		457.7,656 	"/>
	<polygon fill="none" stroke="#000000" stroke-width="4" stroke-miterlimit="10" points="248.1,686.9 244,697.9 268.5,706.4 
		280.6,699.4 255.9,687.8 	"/>
	<polygon fill="none" stroke="#000000" stroke-width="4" stroke-miterlimit="10" points="335.1,693.2 336.7,706.7 361.6,711.9 
		369.7,702 341,692.2 	"/>
	<polyline fill="none" stroke="#000000" stroke-width="4" stroke-miterlimit="10" points="398.4,698.8 397.2,702.9 415.7,714.4 
		426.6,704.3 401.8,698.8 	"/>
	<polyline fill="none" stroke="#000000" stroke-width="4" stroke-miterlimit="10" points="452.3,698.8 453,704.4 480.2,714.4 
		485.2,702.1 459.1,696.7 	"/>
</g>
<line fill="none" stroke="#27AAE1" stroke-width="5" stroke-miterlimit="10" x1="604.3" y1="442.1" x2="644.3" y2="521"/>
<g id="Layer_1_4_">
	
		<ellipse transform="matrix(0.192 -0.9814 0.9814 0.192 104.6573 1087.3176)" fill="none" stroke="#000000" stroke-width="4" stroke-miterlimit="10" cx="712.7" cy="480.1" rx="23.6" ry="16.2"/>
	
		<ellipse transform="matrix(0.1346 -0.9909 0.9909 0.1346 248.1969 1244.4137)" fill="none" stroke="#000000" stroke-width="4" stroke-miterlimit="10" cx="836.5" cy="480.1" rx="23.8" ry="16.1"/>
	<path fill="none" stroke="#000000" stroke-width="4" stroke-miterlimit="10" d="M839.8,456.4c0,0,20.9,2.2,20.9,23.6
		s2.1,26.4,4.1,30.2c0,0-6.6,1.9-14.2,1.6"/>
	<path fill="none" stroke="#000000" stroke-width="4" stroke-miterlimit="10" d="M852.2,471.2c0,0,2.7,12.3,4.2,20.1
		c1.5,7.7,3.4,17,4.2,19.7"/>
	<path fill="none" stroke="#000000" stroke-width="4" stroke-miterlimit="10" d="M851.4,488.2c0,0,0.8,18.7,3.9,23.5"/>
	<path fill="none" stroke="#000000" stroke-width="4" stroke-miterlimit="10" d="M845.1,498.7c0,0,0.8,10.1,2.7,12.2"/>
	<polyline fill="none" stroke="#000000" stroke-width="4" stroke-miterlimit="10" points="703.8,501.4 702.6,507.8 709.8,509.2 
		712.6,503.3 	"/>
	<polyline fill="none" stroke="#000000" stroke-width="4" stroke-miterlimit="10" points="833.4,503.6 833.4,508.7 839.8,509.4 
		841.6,501.7 	"/>
	<path fill="none" stroke="#000000" stroke-width="4" stroke-miterlimit="10" d="M687.5,506.3c0,0,22.3,0.2,35.2,7.9
		c0,0-14.7,60.1-20.2,68.4l-26.2-3.6L687.5,506.3z"/>
	<path fill="none" stroke="#000000" stroke-width="4" stroke-miterlimit="10" d="M687.5,506.3l-36.4,21.9c0,0,1.9,27.5,10.8,50.3
		h4.1c0,0-1.5-33.6-0.5-43.6"/>
	<line fill="none" stroke="#000000" stroke-width="4" stroke-miterlimit="10" x1="684.9" y1="523.1" x2="652.7" y2="542.2"/>
	<polygon fill="none" stroke="#000000" stroke-width="4" stroke-miterlimit="10" points="666,578.6 670.7,586.7 668.4,588.7 
		666,588.7 667.6,602 659,596.7 661.9,578.6 	"/>
	<polyline fill="none" stroke="#000000" stroke-width="4" stroke-miterlimit="10" points="722.7,514.2 738.2,539.5 760,520 
		763.1,521.7 738.2,556.9 718,532.4 	"/>
	<polyline fill="none" stroke="#000000" stroke-width="4" stroke-miterlimit="10" points="760,520 760,514.2 780.2,510 780.2,521.7 
		763.1,521.7 	"/>
	<line fill="none" stroke="#000000" stroke-width="4" stroke-miterlimit="10" x1="738.2" y1="539.5" x2="738.2" y2="556.9"/>
	<path fill="none" stroke="#000000" stroke-width="4" stroke-miterlimit="10" d="M850.6,511.8c-12.1-4.1-32.4-3.9-32.4-3.9
		l-27.7,26.5l0.9,46c0,0,3.9,1.3,4.5,0.5s4.7-41.4,4.7-41.4l16.1-14c0,0-7.4,26.2-3.8,48.1c0,0,19.1,4.1,27.6,2.3l13.3-42.9
		L850.6,511.8z"/>
	<polyline fill="none" stroke="#000000" stroke-width="4" stroke-miterlimit="10" points="796,581 799.9,593.1 791.4,606.3 
		785.3,603.6 791.5,580.5 	"/>
	<path fill="none" stroke="#000000" stroke-width="4" stroke-miterlimit="10" d="M852.2,537.9c0,0,10.2,16.8,24.3,24.5l-1.5,4.5
		c0,0-15-2.3-27.2-14.4"/>
	<path fill="none" stroke="#000000" stroke-width="4" stroke-miterlimit="10" d="M875,566.9l19.1,9.5l3.8-8l-13.7-8.8
		c0,0-7.2,1.8-7.5,2.8"/>
	<path fill="none" stroke="#000000" stroke-width="4" stroke-miterlimit="10" d="M676.4,578.9c0,0,56.7,96,62,114.2l4.9-1.4
		c0,0-13.7-66.2-40.7-109.1"/>
	<path fill="none" stroke="#000000" stroke-width="4" stroke-miterlimit="10" d="M680.8,586.7c0,0,5.2,57.4-28.2,99.7l6.3,1.2
		c0,0,35.2-31.3,38.4-72.4"/>
	<path fill="none" stroke="#000000" stroke-width="4" stroke-miterlimit="10" d="M813.1,573.7c0,0-18.4,54.3-22.5,81.1
		c0,0,50.9,19.8,86-8l-36-70.8"/>
	<path fill="none" stroke="#000000" stroke-width="4" stroke-miterlimit="10" d="M808.5,659.6l-6.8,39.2h3.4c0,0,20.1-29,20.4-37.2"
		/>
	<polyline fill="none" stroke="#000000" stroke-width="4" stroke-miterlimit="10" points="841.6,661.6 855.4,698.8 862.2,696.7 
		860.8,656 	"/>
	<polygon fill="none" stroke="#000000" stroke-width="4" stroke-miterlimit="10" points="651.3,686.9 647.2,697.9 671.7,706.4 
		683.8,699.4 659,687.8 	"/>
	<polygon fill="none" stroke="#000000" stroke-width="4" stroke-miterlimit="10" points="738.2,693.2 739.8,706.7 764.7,711.9 
		772.8,702 744.2,692.2 	"/>
	<polyline fill="none" stroke="#000000" stroke-width="4" stroke-miterlimit="10" points="801.6,698.8 800.4,702.9 818.8,714.4 
		829.7,704.3 805,698.8 	"/>
	<polyline fill="none" stroke="#000000" stroke-width="4" stroke-miterlimit="10" points="855.4,698.8 856.1,704.4 883.3,714.4 
		888.4,702.1 862.2,696.7 	"/>
</g>
<line fill="none" stroke="#27AAE1" stroke-width="5" stroke-miterlimit="10" x1="1264.1" y1="455.9" x2="1217.1" y2="530.8"/>
<g id="Layer_1_6_">
	
		<ellipse transform="matrix(0.192 -0.9814 0.9814 0.192 377.764 1421.8182)" fill="none" stroke="#000000" stroke-width="4" stroke-miterlimit="10" cx="1052.3" cy="481.5" rx="23.6" ry="16.2"/>
	
		<ellipse transform="matrix(0.1346 -0.9909 0.9909 0.1346 540.9069 1581.9421)" fill="none" stroke="#000000" stroke-width="4" stroke-miterlimit="10" cx="1176.1" cy="481.3" rx="23.8" ry="16.1"/>
	<path fill="none" stroke="#000000" stroke-width="4" stroke-miterlimit="10" d="M1179.4,457.7c0,0,20.9,2.2,20.9,23.6
		s2.1,26.4,4.1,30.2c0,0-6.6,1.9-14.2,1.6"/>
	<path fill="none" stroke="#000000" stroke-width="4" stroke-miterlimit="10" d="M1191.9,472.5c0,0,2.7,12.3,4.2,20.1
		c1.5,7.7,3.4,17,4.2,19.7"/>
	<path fill="none" stroke="#000000" stroke-width="4" stroke-miterlimit="10" d="M1191,489.5c0,0,0.8,18.7,3.9,23.5"/>
	<path fill="none" stroke="#000000" stroke-width="4" stroke-miterlimit="10" d="M1184.7,500.1c0,0,0.8,10.1,2.7,12.2"/>
	<polyline fill="none" stroke="#000000" stroke-width="4" stroke-miterlimit="10" points="1043.4,502.8 1042.3,509.1 1049.4,510.5 
		1052.2,504.7 	"/>
	<polyline fill="none" stroke="#000000" stroke-width="4" stroke-miterlimit="10" points="1173,504.9 1173,510 1179.4,510.8 
		1181.2,503 	"/>
	<path fill="none" stroke="#000000" stroke-width="4" stroke-miterlimit="10" d="M1027.1,507.6c0,0,22.3,0.2,35.2,7.9
		c0,0-14.7,60.1-20.2,68.4l-26.2-3.6L1027.1,507.6z"/>
	<path fill="none" stroke="#000000" stroke-width="4" stroke-miterlimit="10" d="M1027.1,507.6l-36.4,21.9c0,0,1.9,27.5,10.8,50.3
		h4.1c0,0-1.5-33.6-0.5-43.6"/>
	<line fill="none" stroke="#000000" stroke-width="4" stroke-miterlimit="10" x1="1024.6" y1="524.5" x2="992.3" y2="543.5"/>
	<polygon fill="none" stroke="#000000" stroke-width="4" stroke-miterlimit="10" points="1005.7,580 1010.4,588.1 1008,590.1 
		1005.7,590.1 1007.2,603.3 998.6,598 1001.6,580 	"/>
	<polyline fill="none" stroke="#000000" stroke-width="4" stroke-miterlimit="10" points="1062.3,515.6 1077.8,540.8 1099.6,521.3 
		1102.7,523.1 1077.8,558.3 1057.6,533.7 	"/>
	<polyline fill="none" stroke="#000000" stroke-width="4" stroke-miterlimit="10" points="1099.6,521.3 1099.6,515.6 1119.8,511.3 
		1119.8,523.1 1102.7,523.1 	"/>
	<line fill="none" stroke="#000000" stroke-width="4" stroke-miterlimit="10" x1="1077.8" y1="540.8" x2="1077.8" y2="558.3"/>
	<path fill="none" stroke="#000000" stroke-width="4" stroke-miterlimit="10" d="M1190.2,513.1c-12.1-4.1-32.4-3.9-32.4-3.9
		l-27.7,26.5l0.9,46c0,0,3.9,1.3,4.5,0.5s4.7-41.4,4.7-41.4l16.1-14c0,0-7.4,26.2-3.8,48.1c0,0,19.1,4.1,27.6,2.3l13.3-42.9
		L1190.2,513.1z"/>
	<polyline fill="none" stroke="#000000" stroke-width="4" stroke-miterlimit="10" points="1135.7,582.3 1139.5,594.4 1131,607.7 
		1124.9,605 1131.1,581.9 	"/>
	<path fill="none" stroke="#000000" stroke-width="4" stroke-miterlimit="10" d="M1191.9,539.3c0,0,10.2,16.8,24.3,24.5l-1.5,4.5
		c0,0-15-2.3-27.2-14.4"/>
	<path fill="none" stroke="#000000" stroke-width="4" stroke-miterlimit="10" d="M1214.6,568.2l19.1,9.5l3.8-8l-13.7-8.8
		c0,0-7.2,1.8-7.5,2.8"/>
	<path fill="none" stroke="#000000" stroke-width="4" stroke-miterlimit="10" d="M1016,580.2c0,0,56.7,96,62,114.2l4.9-1.4
		c0,0-13.7-66.2-40.7-109.1"/>
	<path fill="none" stroke="#000000" stroke-width="4" stroke-miterlimit="10" d="M1020.4,588.1c0,0,5.2,57.4-28.2,99.7l6.3,1.2
		c0,0,35.2-31.3,38.4-72.4"/>
	<path fill="none" stroke="#000000" stroke-width="4" stroke-miterlimit="10" d="M1152.7,575c0,0-18.4,54.3-22.5,81.1
		c0,0,50.9,19.8,86-8l-36-70.8"/>
	<path fill="none" stroke="#000000" stroke-width="4" stroke-miterlimit="10" d="M1148.1,660.9l-6.8,39.2h3.4c0,0,20.1-29,20.4-37.2
		"/>
	<polyline fill="none" stroke="#000000" stroke-width="4" stroke-miterlimit="10" points="1181.2,662.9 1195,700.1 1201.8,698 
		1200.4,657.3 	"/>
	<polygon fill="none" stroke="#000000" stroke-width="4" stroke-miterlimit="10" points="990.9,688.3 986.8,699.2 1011.3,707.8 
		1023.4,700.7 998.6,689.1 	"/>
	<polygon fill="none" stroke="#000000" stroke-width="4" stroke-miterlimit="10" points="1077.8,694.5 1079.5,708 1104.3,713.3 
		1112.4,703.3 1083.8,693.6 	"/>
	<polyline fill="none" stroke="#000000" stroke-width="4" stroke-miterlimit="10" points="1141.2,700.1 1140,704.2 1158.4,715.7 
		1169.3,705.6 1144.6,700.1 	"/>
	<polyline fill="none" stroke="#000000" stroke-width="4" stroke-miterlimit="10" points="1195,700.1 1195.7,705.8 1223,715.7 
		1228,703.4 1201.8,698 	"/>
</g>
<line fill="none" stroke="#27AAE1" stroke-width="5" stroke-miterlimit="10" x1="1343.7" y1="451.4" x2="1383.6" y2="530.3"/>
<g id="Layer_1_5_">
	
		<ellipse transform="matrix(0.192 -0.9814 0.9814 0.192 703.3593 1817.3754)" fill="none" stroke="#000000" stroke-width="4" stroke-miterlimit="10" cx="1455.4" cy="481.5" rx="23.6" ry="16.2"/>
	
		<ellipse transform="matrix(0.1346 -0.9909 0.9909 0.1346 889.7471 1981.54)" fill="none" stroke="#000000" stroke-width="4" stroke-miterlimit="10" cx="1579.3" cy="481.4" rx="23.8" ry="16.1"/>
	<path fill="none" stroke="#000000" stroke-width="4" stroke-miterlimit="10" d="M1582.6,457.7c0,0,20.9,2.2,20.9,23.6
		s2.1,26.4,4.1,30.2c0,0-6.6,1.9-14.2,1.6"/>
	<path fill="none" stroke="#000000" stroke-width="4" stroke-miterlimit="10" d="M1595,472.5c0,0,2.7,12.3,4.2,20.1
		c1.5,7.7,3.4,17,4.2,19.7"/>
	<path fill="none" stroke="#000000" stroke-width="4" stroke-miterlimit="10" d="M1594.2,489.5c0,0,0.8,18.7,3.9,23.5"/>
	<path fill="none" stroke="#000000" stroke-width="4" stroke-miterlimit="10" d="M1587.9,500.1c0,0,0.8,10.1,2.7,12.2"/>
	<polyline fill="none" stroke="#000000" stroke-width="4" stroke-miterlimit="10" points="1446.6,502.8 1445.4,509.1 1452.6,510.5 
		1455.4,504.7 	"/>
	<polyline fill="none" stroke="#000000" stroke-width="4" stroke-miterlimit="10" points="1576.1,504.9 1576.1,510 1582.6,510.8 
		1584.3,503 	"/>
	<path fill="none" stroke="#000000" stroke-width="4" stroke-miterlimit="10" d="M1430.3,507.6c0,0,22.3,0.2,35.2,7.9
		c0,0-14.7,60.1-20.2,68.4l-26.2-3.6L1430.3,507.6z"/>
	<path fill="none" stroke="#000000" stroke-width="4" stroke-miterlimit="10" d="M1430.3,507.6l-36.4,21.9c0,0,1.9,27.5,10.8,50.3
		h4.1c0,0-1.5-33.6-0.5-43.6"/>
	<line fill="none" stroke="#000000" stroke-width="4" stroke-miterlimit="10" x1="1427.7" y1="524.5" x2="1395.4" y2="543.5"/>
	<polygon fill="none" stroke="#000000" stroke-width="4" stroke-miterlimit="10" points="1408.8,580 1413.5,588.1 1411.2,590.1 
		1408.8,590.1 1410.3,603.3 1401.8,598 1404.7,580 	"/>
	<polyline fill="none" stroke="#000000" stroke-width="4" stroke-miterlimit="10" points="1465.5,515.6 1481,540.8 1502.8,521.3 
		1505.8,523.1 1481,558.3 1460.8,533.7 	"/>
	<polyline fill="none" stroke="#000000" stroke-width="4" stroke-miterlimit="10" points="1502.8,521.3 1502.8,515.6 1523,511.3 
		1523,523.1 1505.8,523.1 	"/>
	<line fill="none" stroke="#000000" stroke-width="4" stroke-miterlimit="10" x1="1481" y1="540.8" x2="1481" y2="558.3"/>
	<path fill="none" stroke="#000000" stroke-width="4" stroke-miterlimit="10" d="M1593.4,513.1c-12.1-4.1-32.4-3.9-32.4-3.9
		l-27.7,26.5l0.9,46c0,0,3.9,1.3,4.5,0.5s4.7-41.4,4.7-41.4l16.1-14c0,0-7.4,26.2-3.8,48.1c0,0,19.1,4.1,27.6,2.3l13.3-42.9
		L1593.4,513.1z"/>
	<polyline fill="none" stroke="#000000" stroke-width="4" stroke-miterlimit="10" points="1538.8,582.3 1542.7,594.4 1534.1,607.7 
		1528,605 1534.2,581.9 	"/>
	<path fill="none" stroke="#000000" stroke-width="4" stroke-miterlimit="10" d="M1595,539.3c0,0,10.2,16.8,24.3,24.5l-1.5,4.5
		c0,0-15-2.3-27.2-14.4"/>
	<path fill="none" stroke="#000000" stroke-width="4" stroke-miterlimit="10" d="M1617.8,568.2l19.1,9.5l3.8-8l-13.7-8.8
		c0,0-7.2,1.8-7.5,2.8"/>
	<path fill="none" stroke="#000000" stroke-width="4" stroke-miterlimit="10" d="M1419.1,580.2c0,0,56.7,96,62,114.2l4.9-1.4
		c0,0-13.7-66.2-40.7-109.1"/>
	<path fill="none" stroke="#000000" stroke-width="4" stroke-miterlimit="10" d="M1423.6,588.1c0,0,5.2,57.4-28.2,99.7l6.3,1.2
		c0,0,35.2-31.3,38.4-72.4"/>
	<path fill="none" stroke="#000000" stroke-width="4" stroke-miterlimit="10" d="M1555.8,575c0,0-18.4,54.3-22.5,81.1
		c0,0,50.9,19.8,86-8l-36-70.8"/>
	<path fill="none" stroke="#000000" stroke-width="4" stroke-miterlimit="10" d="M1551.3,660.9l-6.8,39.2h3.4c0,0,20.1-29,20.4-37.2
		"/>
	<polyline fill="none" stroke="#000000" stroke-width="4" stroke-miterlimit="10" points="1584.3,662.9 1598.2,700.1 1605,698 
		1603.6,657.3 	"/>
	<polygon fill="none" stroke="#000000" stroke-width="4" stroke-miterlimit="10" points="1394,688.3 1389.9,699.2 1414.4,707.8 
		1426.5,700.7 1401.8,689.1 	"/>
	<polygon fill="none" stroke="#000000" stroke-width="4" stroke-miterlimit="10" points="1481,694.5 1482.6,708 1507.5,713.3 
		1515.6,703.3 1487,693.6 	"/>
	<polyline fill="none" stroke="#000000" stroke-width="4" stroke-miterlimit="10" points="1544.3,700.1 1543.2,704.2 1561.6,715.7 
		1572.5,705.6 1547.7,700.1 	"/>
	<polyline fill="none" stroke="#000000" stroke-width="4" stroke-miterlimit="10" points="1598.2,700.1 1598.9,705.8 1626.1,715.7 
		1631.2,703.4 1605,698 	"/>
</g>
<line fill="none" stroke="#27AAE1" stroke-width="5" stroke-miterlimit="10" x1="336.4" y1="722.7" x2="309.9" y2="763"/>
<g id="Layer_1_10_">
	
		<ellipse transform="matrix(0.192 -0.9814 0.9814 0.192 -563.5359 819.5755)" fill="none" stroke="#000000" stroke-width="4" stroke-miterlimit="10" cx="216" cy="752" rx="12.5" ry="8.6"/>
	
		<ellipse transform="matrix(0.1346 -0.9909 0.9909 0.1346 -501.2759 930.0576)" fill="none" stroke="#000000" stroke-width="4" stroke-miterlimit="10" cx="281.8" cy="752" rx="12.7" ry="8.5"/>
	<path fill="none" stroke="#000000" stroke-width="4" stroke-miterlimit="10" d="M283.6,739.4c0,0,11.1,1.2,11.1,12.5s1.1,14,2.2,16
		c0,0-3.5,1-7.5,0.9"/>
	<path fill="none" stroke="#000000" stroke-width="4" stroke-miterlimit="10" d="M290.2,747.2c0,0,1.4,6.5,2.2,10.7
		c0.8,4.1,1.8,9,2.2,10.5"/>
	<path fill="none" stroke="#000000" stroke-width="4" stroke-miterlimit="10" d="M289.8,756.3c0,0,0.4,9.9,2.1,12.5"/>
	<path fill="none" stroke="#000000" stroke-width="4" stroke-miterlimit="10" d="M286.4,761.9c0,0,0.4,5.4,1.4,6.5"/>
	<polyline fill="none" stroke="#000000" stroke-width="4" stroke-miterlimit="10" points="211.3,763.3 210.7,766.7 214.5,767.4 
		216,764.3 	"/>
	<polyline fill="none" stroke="#000000" stroke-width="4" stroke-miterlimit="10" points="280.2,764.4 280.2,767.2 283.6,767.6 
		284.5,763.4 	"/>
	<path fill="none" stroke="#000000" stroke-width="4" stroke-miterlimit="10" d="M202.7,765.9c0,0,11.8,0.1,18.7,4.2
		c0,0-7.8,31.9-10.7,36.3l-13.9-1.9L202.7,765.9z"/>
	<path fill="none" stroke="#000000" stroke-width="4" stroke-miterlimit="10" d="M202.7,765.9l-19.3,11.7c0,0,1,14.6,5.7,26.7h2.2
		c0,0-0.8-17.8-0.2-23.2"/>
	<line fill="none" stroke="#000000" stroke-width="4" stroke-miterlimit="10" x1="201.3" y1="774.8" x2="184.1" y2="784.9"/>
	<polygon fill="none" stroke="#000000" stroke-width="4" stroke-miterlimit="10" points="191.2,804.3 193.7,808.6 192.5,809.7 
		191.2,809.7 192.1,816.7 187.5,813.9 189.1,804.3 	"/>
	<polyline fill="none" stroke="#000000" stroke-width="4" stroke-miterlimit="10" points="221.4,770.1 229.6,783.5 241.2,773.2 
		242.8,774.1 229.6,792.8 218.9,779.8 	"/>
	<polyline fill="none" stroke="#000000" stroke-width="4" stroke-miterlimit="10" points="241.2,773.2 241.2,770.1 251.9,767.9 
		251.9,774.1 242.8,774.1 	"/>
	<line fill="none" stroke="#000000" stroke-width="4" stroke-miterlimit="10" x1="229.6" y1="783.5" x2="229.6" y2="792.8"/>
	<path fill="none" stroke="#000000" stroke-width="4" stroke-miterlimit="10" d="M289.3,768.8c-6.4-2.2-17.2-2.1-17.2-2.1
		l-14.7,14.1l0.5,24.4c0,0,2.1,0.7,2.4,0.2c0.3-0.4,2.5-22,2.5-22l8.5-7.4c0,0-3.9,13.9-2,25.6c0,0,10.2,2.2,14.7,1.2l7-22.8
		L289.3,768.8z"/>
	<polyline fill="none" stroke="#000000" stroke-width="4" stroke-miterlimit="10" points="260.3,805.6 262.4,812 257.8,819 
		254.6,817.6 257.9,805.3 	"/>
	<path fill="none" stroke="#000000" stroke-width="4" stroke-miterlimit="10" d="M290.2,782.7c0,0,5.4,8.9,12.9,13l-0.8,2.4
		c0,0-8-1.2-14.5-7.7"/>
	<path fill="none" stroke="#000000" stroke-width="4" stroke-miterlimit="10" d="M302.3,798.1l10.2,5l2-4.2l-7.3-4.7
		c0,0-3.8,0.9-4,1.5"/>
	<path fill="none" stroke="#000000" stroke-width="4" stroke-miterlimit="10" d="M196.7,804.5c0,0,30.1,51,32.9,60.7l2.6-0.7
		c0,0-7.3-35.2-21.6-58"/>
	<path fill="none" stroke="#000000" stroke-width="4" stroke-miterlimit="10" d="M199.1,808.6c0,0,2.7,30.5-15,53l3.4,0.6
		c0,0,18.7-16.6,20.4-38.5"/>
	<path fill="none" stroke="#000000" stroke-width="4" stroke-miterlimit="10" d="M269.4,801.7c0,0-9.8,28.9-12,43.1
		c0,0,27.1,10.5,45.7-4.2L284,803"/>
	<path fill="none" stroke="#000000" stroke-width="4" stroke-miterlimit="10" d="M266.9,847.4l-3.6,20.8h1.8
		c0,0,10.7-15.4,10.8-19.8"/>
	<polyline fill="none" stroke="#000000" stroke-width="4" stroke-miterlimit="10" points="284.5,848.4 291.9,868.2 295.5,867.1 
		294.7,845.4 	"/>
	<polygon fill="none" stroke="#000000" stroke-width="4" stroke-miterlimit="10" points="183.4,861.9 181.2,867.7 194.2,872.2 
		200.7,868.5 187.5,862.3 	"/>
	<polygon fill="none" stroke="#000000" stroke-width="4" stroke-miterlimit="10" points="229.6,865.2 230.5,872.4 243.7,875.2 
		248,869.9 232.8,864.7 	"/>
	<polyline fill="none" stroke="#000000" stroke-width="4" stroke-miterlimit="10" points="263.3,868.2 262.6,870.4 272.4,876.5 
		278.2,871.1 265.1,868.2 	"/>
	<polyline fill="none" stroke="#000000" stroke-width="4" stroke-miterlimit="10" points="291.9,868.2 292.3,871.2 306.7,876.5 
		309.4,869.9 295.5,867.1 	"/>
</g>
<line fill="none" stroke="#27AAE1" stroke-width="5" stroke-miterlimit="10" x1="381.4" y1="721.6" x2="403.9" y2="764.1"/>
<g id="Layer_1_9_">
	
		<ellipse transform="matrix(0.192 -0.9814 0.9814 0.192 -390.439 1029.8881)" fill="none" stroke="#000000" stroke-width="4" stroke-miterlimit="10" cx="430.2" cy="752.1" rx="12.5" ry="8.6"/>
	
		<ellipse transform="matrix(0.1346 -0.9909 0.9909 0.1346 -315.8834 1142.2238)" fill="none" stroke="#000000" stroke-width="4" stroke-miterlimit="10" cx="496" cy="752" rx="12.7" ry="8.5"/>
	<path fill="none" stroke="#000000" stroke-width="4" stroke-miterlimit="10" d="M497.8,739.4c0,0,11.1,1.2,11.1,12.5s1.1,14,2.2,16
		c0,0-3.5,1-7.5,0.9"/>
	<path fill="none" stroke="#000000" stroke-width="4" stroke-miterlimit="10" d="M504.4,747.2c0,0,1.4,6.5,2.2,10.7
		c0.8,4.1,1.8,9,2.2,10.5"/>
	<path fill="none" stroke="#000000" stroke-width="4" stroke-miterlimit="10" d="M504,756.3c0,0,0.4,9.9,2.1,12.5"/>
	<path fill="none" stroke="#000000" stroke-width="4" stroke-miterlimit="10" d="M500.6,761.9c0,0,0.4,5.4,1.4,6.5"/>
	<polyline fill="none" stroke="#000000" stroke-width="4" stroke-miterlimit="10" points="425.5,763.3 424.9,766.7 428.7,767.4 
		430.2,764.3 	"/>
	<polyline fill="none" stroke="#000000" stroke-width="4" stroke-miterlimit="10" points="494.4,764.4 494.4,767.2 497.8,767.6 
		498.7,763.4 	"/>
	<path fill="none" stroke="#000000" stroke-width="4" stroke-miterlimit="10" d="M416.9,765.9c0,0,11.8,0.1,18.7,4.2
		c0,0-7.8,31.9-10.7,36.3l-13.9-1.9L416.9,765.9z"/>
	<path fill="none" stroke="#000000" stroke-width="4" stroke-miterlimit="10" d="M416.9,765.9l-19.3,11.7c0,0,1,14.6,5.7,26.7h2.2
		c0,0-0.8-17.8-0.2-23.2"/>
	<line fill="none" stroke="#000000" stroke-width="4" stroke-miterlimit="10" x1="415.5" y1="774.8" x2="398.4" y2="784.9"/>
	<polygon fill="none" stroke="#000000" stroke-width="4" stroke-miterlimit="10" points="405.5,804.3 408,808.6 406.7,809.7 
		405.5,809.7 406.3,816.7 401.7,813.9 403.3,804.3 	"/>
	<polyline fill="none" stroke="#000000" stroke-width="4" stroke-miterlimit="10" points="435.6,770.1 443.8,783.5 455.4,773.2 
		457,774.1 443.8,792.8 433.1,779.8 	"/>
	<polyline fill="none" stroke="#000000" stroke-width="4" stroke-miterlimit="10" points="455.4,773.2 455.4,770.1 466.1,767.9 
		466.1,774.1 457,774.1 	"/>
	<line fill="none" stroke="#000000" stroke-width="4" stroke-miterlimit="10" x1="443.8" y1="783.5" x2="443.8" y2="792.8"/>
	<path fill="none" stroke="#000000" stroke-width="4" stroke-miterlimit="10" d="M503.5,768.8c-6.4-2.2-17.2-2.1-17.2-2.1
		l-14.7,14.1l0.5,24.4c0,0,2.1,0.7,2.4,0.2c0.3-0.4,2.5-22,2.5-22l8.5-7.4c0,0-3.9,13.9-2,25.6c0,0,10.2,2.2,14.7,1.2l7-22.8
		L503.5,768.8z"/>
	<polyline fill="none" stroke="#000000" stroke-width="4" stroke-miterlimit="10" points="474.5,805.6 476.6,812 472.1,819 
		468.8,817.6 472.1,805.3 	"/>
	<path fill="none" stroke="#000000" stroke-width="4" stroke-miterlimit="10" d="M504.4,782.7c0,0,5.4,8.9,12.9,13l-0.8,2.4
		c0,0-8-1.2-14.5-7.7"/>
	<path fill="none" stroke="#000000" stroke-width="4" stroke-miterlimit="10" d="M516.5,798.1l10.2,5l2-4.2l-7.3-4.7
		c0,0-3.8,0.9-4,1.5"/>
	<path fill="none" stroke="#000000" stroke-width="4" stroke-miterlimit="10" d="M411,804.5c0,0,30.1,51,32.9,60.7l2.6-0.7
		c0,0-7.3-35.2-21.6-58"/>
	<path fill="none" stroke="#000000" stroke-width="4" stroke-miterlimit="10" d="M413.3,808.6c0,0,2.7,30.5-15,53l3.4,0.6
		c0,0,18.7-16.6,20.4-38.5"/>
	<path fill="none" stroke="#000000" stroke-width="4" stroke-miterlimit="10" d="M483.6,801.7c0,0-9.8,28.9-12,43.1
		c0,0,27.1,10.5,45.7-4.2L498.2,803"/>
	<path fill="none" stroke="#000000" stroke-width="4" stroke-miterlimit="10" d="M481.2,847.4l-3.6,20.8h1.8
		c0,0,10.7-15.4,10.8-19.8"/>
	<polyline fill="none" stroke="#000000" stroke-width="4" stroke-miterlimit="10" points="498.7,848.4 506.1,868.2 509.7,867.1 
		509,845.4 	"/>
	<polygon fill="none" stroke="#000000" stroke-width="4" stroke-miterlimit="10" points="397.6,861.9 395.4,867.7 408.5,872.2 
		414.9,868.5 401.7,862.3 	"/>
	<polygon fill="none" stroke="#000000" stroke-width="4" stroke-miterlimit="10" points="443.8,865.2 444.7,872.4 457.9,875.2 
		462.2,869.9 447,864.7 	"/>
	<polyline fill="none" stroke="#000000" stroke-width="4" stroke-miterlimit="10" points="477.5,868.2 476.9,870.4 486.6,876.5 
		492.4,871.1 479.3,868.2 	"/>
	<polyline fill="none" stroke="#000000" stroke-width="4" stroke-miterlimit="10" points="506.1,868.2 506.5,871.2 520.9,876.5 
		523.6,869.9 509.7,867.1 	"/>
</g>
<line fill="none" stroke="#27AAE1" stroke-width="5" stroke-miterlimit="10" x1="735" y1="722.7" x2="708.5" y2="763"/>
<g id="Layer_1_8_">
	
		<ellipse transform="matrix(0.192 -0.9814 0.9814 0.192 -245.2377 1207.5056)" fill="none" stroke="#000000" stroke-width="4" stroke-miterlimit="10" cx="610.7" cy="752.7" rx="12.5" ry="8.6"/>
	
		<ellipse transform="matrix(0.1346 -0.9909 0.9909 0.1346 -160.3262 1321.7681)" fill="none" stroke="#000000" stroke-width="4" stroke-miterlimit="10" cx="676.6" cy="752.7" rx="12.7" ry="8.5"/>
	<path fill="none" stroke="#000000" stroke-width="4" stroke-miterlimit="10" d="M678.3,740.1c0,0,11.1,1.2,11.1,12.5s1.1,14,2.2,16
		c0,0-3.5,1-7.5,0.9"/>
	<path fill="none" stroke="#000000" stroke-width="4" stroke-miterlimit="10" d="M684.9,747.9c0,0,1.4,6.5,2.2,10.7s1.8,9,2.2,10.5"
		/>
	<path fill="none" stroke="#000000" stroke-width="4" stroke-miterlimit="10" d="M684.4,757c0,0,0.4,9.9,2.1,12.5"/>
	<path fill="none" stroke="#000000" stroke-width="4" stroke-miterlimit="10" d="M681.1,762.6c0,0,0.4,5.4,1.4,6.5"/>
	<polyline fill="none" stroke="#000000" stroke-width="4" stroke-miterlimit="10" points="606,764 605.4,767.4 609.2,768.1 
		610.7,765 	"/>
	<polyline fill="none" stroke="#000000" stroke-width="4" stroke-miterlimit="10" points="674.8,765.1 674.8,767.9 678.3,768.3 
		679.2,764.1 	"/>
	<path fill="none" stroke="#000000" stroke-width="4" stroke-miterlimit="10" d="M597.3,766.6c0,0,11.8,0.1,18.7,4.2
		c0,0-7.8,31.9-10.7,36.3l-13.9-1.9L597.3,766.6z"/>
	<path fill="none" stroke="#000000" stroke-width="4" stroke-miterlimit="10" d="M597.3,766.6L578,778.2c0,0,1,14.6,5.7,26.7h2.2
		c0,0-0.8-17.8-0.2-23.2"/>
	<line fill="none" stroke="#000000" stroke-width="4" stroke-miterlimit="10" x1="596" y1="775.6" x2="578.8" y2="785.7"/>
	<polygon fill="none" stroke="#000000" stroke-width="4" stroke-miterlimit="10" points="585.9,805 588.4,809.3 587.2,810.4 
		585.9,810.4 586.7,817.4 582.2,814.6 583.7,805 	"/>
	<polyline fill="none" stroke="#000000" stroke-width="4" stroke-miterlimit="10" points="616,770.8 624.3,784.2 635.9,773.9 
		637.5,774.8 624.3,793.5 613.5,780.5 	"/>
	<polyline fill="none" stroke="#000000" stroke-width="4" stroke-miterlimit="10" points="635.9,773.9 635.9,770.8 646.6,768.6 
		646.6,774.8 637.5,774.8 	"/>
	<line fill="none" stroke="#000000" stroke-width="4" stroke-miterlimit="10" x1="624.3" y1="784.2" x2="624.3" y2="793.5"/>
	<path fill="none" stroke="#000000" stroke-width="4" stroke-miterlimit="10" d="M684,769.5c-6.4-2.2-17.2-2.1-17.2-2.1l-14.7,14.1
		l0.5,24.4c0,0,2.1,0.7,2.4,0.2c0.3-0.4,2.5-22,2.5-22l8.5-7.4c0,0-3.9,13.9-2,25.6c0,0,10.2,2.2,14.7,1.2l7-22.8L684,769.5z"/>
	<polyline fill="none" stroke="#000000" stroke-width="4" stroke-miterlimit="10" points="655,806.3 657.1,812.7 652.5,819.8 
		649.3,818.3 652.6,806 	"/>
	<path fill="none" stroke="#000000" stroke-width="4" stroke-miterlimit="10" d="M684.9,783.4c0,0,5.4,8.9,12.9,13l-0.8,2.4
		c0,0-8-1.2-14.5-7.7"/>
	<path fill="none" stroke="#000000" stroke-width="4" stroke-miterlimit="10" d="M697,798.8l10.2,5l2-4.2l-7.3-4.7
		c0,0-3.8,0.9-4,1.5"/>
	<path fill="none" stroke="#000000" stroke-width="4" stroke-miterlimit="10" d="M591.4,805.2c0,0,30.1,51,32.9,60.7l2.6-0.7
		c0,0-7.3-35.2-21.6-58"/>
	<path fill="none" stroke="#000000" stroke-width="4" stroke-miterlimit="10" d="M593.8,809.3c0,0,2.7,30.5-15,53l3.4,0.6
		c0,0,18.7-16.6,20.4-38.5"/>
	<path fill="none" stroke="#000000" stroke-width="4" stroke-miterlimit="10" d="M664,802.4c0,0-9.8,28.9-12,43.1
		c0,0,27.1,10.5,45.7-4.2l-19.1-37.6"/>
	<path fill="none" stroke="#000000" stroke-width="4" stroke-miterlimit="10" d="M661.6,848.1l-3.6,20.8h1.8
		c0,0,10.7-15.4,10.8-19.8"/>
	<polyline fill="none" stroke="#000000" stroke-width="4" stroke-miterlimit="10" points="679.2,849.1 686.6,868.9 690.2,867.8 
		689.4,846.1 	"/>
	<polygon fill="none" stroke="#000000" stroke-width="4" stroke-miterlimit="10" points="578.1,862.6 575.9,868.4 588.9,872.9 
		595.3,869.2 582.2,863 	"/>
	<polygon fill="none" stroke="#000000" stroke-width="4" stroke-miterlimit="10" points="624.3,865.9 625.1,873.1 638.4,875.9 
		642.7,870.6 627.5,865.4 	"/>
	<polyline fill="none" stroke="#000000" stroke-width="4" stroke-miterlimit="10" points="657.9,868.9 657.3,871.1 667.1,877.2 
		672.9,871.8 659.7,868.9 	"/>
	<polyline fill="none" stroke="#000000" stroke-width="4" stroke-miterlimit="10" points="686.6,868.9 686.9,871.9 701.4,877.2 
		704.1,870.6 690.2,867.8 	"/>
</g>
<line fill="none" stroke="#27AAE1" stroke-width="5" stroke-miterlimit="10" x1="780" y1="721.6" x2="802.5" y2="764.1"/>
<g id="Layer_1_7_">
	
		<ellipse transform="matrix(0.192 -0.9814 0.9814 0.192 -72.2012 1417.7062)" fill="none" stroke="#000000" stroke-width="4" stroke-miterlimit="10" cx="824.9" cy="752.7" rx="12.5" ry="8.6"/>
	
		<ellipse transform="matrix(0.1346 -0.9909 0.9909 0.1346 24.9938 1534.0055)" fill="none" stroke="#000000" stroke-width="4" stroke-miterlimit="10" cx="890.7" cy="752.7" rx="12.7" ry="8.5"/>
	<path fill="none" stroke="#000000" stroke-width="4" stroke-miterlimit="10" d="M892.5,740.1c0,0,11.1,1.2,11.1,12.5s1.1,14,2.2,16
		c0,0-3.5,1-7.5,0.9"/>
	<path fill="none" stroke="#000000" stroke-width="4" stroke-miterlimit="10" d="M899.1,747.9c0,0,1.4,6.5,2.2,10.7s1.8,9,2.2,10.5"
		/>
	<path fill="none" stroke="#000000" stroke-width="4" stroke-miterlimit="10" d="M898.7,757c0,0,0.4,9.9,2.1,12.5"/>
	<path fill="none" stroke="#000000" stroke-width="4" stroke-miterlimit="10" d="M895.3,762.6c0,0,0.4,5.4,1.4,6.5"/>
	<polyline fill="none" stroke="#000000" stroke-width="4" stroke-miterlimit="10" points="820.2,764 819.6,767.4 823.4,768.1 
		824.9,765 	"/>
	<polyline fill="none" stroke="#000000" stroke-width="4" stroke-miterlimit="10" points="889,765.1 889,767.9 892.5,768.3 
		893.4,764.1 	"/>
	<path fill="none" stroke="#000000" stroke-width="4" stroke-miterlimit="10" d="M811.6,766.6c0,0,11.8,0.1,18.7,4.2
		c0,0-7.8,31.9-10.7,36.3l-13.9-1.9L811.6,766.6z"/>
	<path fill="none" stroke="#000000" stroke-width="4" stroke-miterlimit="10" d="M811.6,766.6l-19.3,11.7c0,0,1,14.6,5.7,26.7h2.2
		c0,0-0.8-17.8-0.2-23.2"/>
	<line fill="none" stroke="#000000" stroke-width="4" stroke-miterlimit="10" x1="810.2" y1="775.6" x2="793" y2="785.7"/>
	<polygon fill="none" stroke="#000000" stroke-width="4" stroke-miterlimit="10" points="800.1,805 802.6,809.3 801.4,810.4 
		800.1,810.4 801,817.4 796.4,814.6 798,805 	"/>
	<polyline fill="none" stroke="#000000" stroke-width="4" stroke-miterlimit="10" points="830.3,770.8 838.5,784.2 850.1,773.9 
		851.7,774.8 838.5,793.5 827.8,780.5 	"/>
	<polyline fill="none" stroke="#000000" stroke-width="4" stroke-miterlimit="10" points="850.1,773.9 850.1,770.8 860.8,768.6 
		860.8,774.8 851.7,774.8 	"/>
	<line fill="none" stroke="#000000" stroke-width="4" stroke-miterlimit="10" x1="838.5" y1="784.2" x2="838.5" y2="793.5"/>
	<path fill="none" stroke="#000000" stroke-width="4" stroke-miterlimit="10" d="M898.2,769.5c-6.4-2.2-17.2-2.1-17.2-2.1
		l-14.7,14.1l0.5,24.4c0,0,2.1,0.7,2.4,0.2c0.3-0.4,2.5-22,2.5-22l8.5-7.4c0,0-3.9,13.9-2,25.6c0,0,10.2,2.2,14.7,1.2l7-22.8
		L898.2,769.5z"/>
	<polyline fill="none" stroke="#000000" stroke-width="4" stroke-miterlimit="10" points="869.2,806.3 871.3,812.7 866.7,819.8 
		863.5,818.3 866.8,806 	"/>
	<path fill="none" stroke="#000000" stroke-width="4" stroke-miterlimit="10" d="M899.1,783.4c0,0,5.4,8.9,12.9,13l-0.8,2.4
		c0,0-8-1.2-14.5-7.7"/>
	<path fill="none" stroke="#000000" stroke-width="4" stroke-miterlimit="10" d="M911.2,798.8l10.2,5l2-4.2l-7.3-4.7
		c0,0-3.8,0.9-4,1.5"/>
	<path fill="none" stroke="#000000" stroke-width="4" stroke-miterlimit="10" d="M805.6,805.2c0,0,30.1,51,32.9,60.7l2.6-0.7
		c0,0-7.3-35.2-21.6-58"/>
	<path fill="none" stroke="#000000" stroke-width="4" stroke-miterlimit="10" d="M808,809.3c0,0,2.7,30.5-15,53l3.4,0.6
		c0,0,18.7-16.6,20.4-38.5"/>
	<path fill="none" stroke="#000000" stroke-width="4" stroke-miterlimit="10" d="M878.3,802.4c0,0-9.8,28.9-12,43.1
		c0,0,27.1,10.5,45.7-4.2l-19.1-37.6"/>
	<path fill="none" stroke="#000000" stroke-width="4" stroke-miterlimit="10" d="M875.8,848.1l-3.6,20.8h1.8
		c0,0,10.7-15.4,10.8-19.8"/>
	<polyline fill="none" stroke="#000000" stroke-width="4" stroke-miterlimit="10" points="893.4,849.1 900.8,868.9 904.4,867.8 
		903.6,846.1 	"/>
	<polygon fill="none" stroke="#000000" stroke-width="4" stroke-miterlimit="10" points="792.3,862.6 790.1,868.4 803.1,872.9 
		809.6,869.2 796.4,863 	"/>
	<polygon fill="none" stroke="#000000" stroke-width="4" stroke-miterlimit="10" points="838.5,865.9 839.4,873.1 852.6,875.9 
		856.9,870.6 841.7,865.4 	"/>
	<polyline fill="none" stroke="#000000" stroke-width="4" stroke-miterlimit="10" points="872.2,868.9 871.5,871.1 881.3,877.2 
		887.1,871.8 874,868.9 	"/>
	<polyline fill="none" stroke="#000000" stroke-width="4" stroke-miterlimit="10" points="900.8,868.9 901.1,871.9 915.6,877.2 
		918.3,870.6 904.4,867.8 	"/>
</g>
<line fill="none" stroke="#27AAE1" stroke-width="5" stroke-miterlimit="10" x1="1122.9" y1="725.8" x2="1096.4" y2="766.2"/>
<g id="Layer_1_14_">
	
		<ellipse transform="matrix(0.192 -0.9814 0.9814 0.192 73.9693 1591.5388)" fill="none" stroke="#000000" stroke-width="4" stroke-miterlimit="10" cx="1003.5" cy="750.8" rx="12.5" ry="8.6"/>
	
		<ellipse transform="matrix(0.1346 -0.9909 0.9909 0.1346 181.4307 1709.2476)" fill="none" stroke="#000000" stroke-width="4" stroke-miterlimit="10" cx="1069.3" cy="750.8" rx="12.7" ry="8.5"/>
	<path fill="none" stroke="#000000" stroke-width="4" stroke-miterlimit="10" d="M1071.1,738.2c0,0,11.1,1.2,11.1,12.5
		s1.1,14,2.2,16c0,0-3.5,1-7.5,0.9"/>
	<path fill="none" stroke="#000000" stroke-width="4" stroke-miterlimit="10" d="M1077.7,746c0,0,1.4,6.5,2.2,10.7s1.8,9,2.2,10.5"
		/>
	<path fill="none" stroke="#000000" stroke-width="4" stroke-miterlimit="10" d="M1077.3,755.1c0,0,0.4,9.9,2.1,12.5"/>
	<path fill="none" stroke="#000000" stroke-width="4" stroke-miterlimit="10" d="M1073.9,760.7c0,0,0.4,5.4,1.4,6.5"/>
	<polyline fill="none" stroke="#000000" stroke-width="4" stroke-miterlimit="10" points="998.8,762.1 998.2,765.5 1002,766.2 
		1003.5,763.1 	"/>
	<polyline fill="none" stroke="#000000" stroke-width="4" stroke-miterlimit="10" points="1067.7,763.2 1067.7,766 1071.1,766.4 
		1072,762.2 	"/>
	<path fill="none" stroke="#000000" stroke-width="4" stroke-miterlimit="10" d="M990.2,764.7c0,0,11.8,0.1,18.7,4.2
		c0,0-7.8,31.9-10.7,36.3l-13.9-1.9L990.2,764.7z"/>
	<path fill="none" stroke="#000000" stroke-width="4" stroke-miterlimit="10" d="M990.2,764.7l-19.3,11.7c0,0,1,14.6,5.7,26.7h2.2
		c0,0-0.8-17.8-0.2-23.2"/>
	<line fill="none" stroke="#000000" stroke-width="4" stroke-miterlimit="10" x1="988.8" y1="773.7" x2="971.7" y2="783.8"/>
	<polygon fill="none" stroke="#000000" stroke-width="4" stroke-miterlimit="10" points="978.8,803.1 981.3,807.4 980,808.5 
		978.8,808.5 979.6,815.5 975,812.7 976.6,803.1 	"/>
	<polyline fill="none" stroke="#000000" stroke-width="4" stroke-miterlimit="10" points="1008.9,768.9 1017.1,782.3 1028.7,772 
		1030.3,772.9 1017.1,791.6 1006.4,778.6 	"/>
	<polyline fill="none" stroke="#000000" stroke-width="4" stroke-miterlimit="10" points="1028.7,772 1028.7,768.9 1039.4,766.7 
		1039.4,772.9 1030.3,772.9 	"/>
	<line fill="none" stroke="#000000" stroke-width="4" stroke-miterlimit="10" x1="1017.1" y1="782.3" x2="1017.1" y2="791.6"/>
	<path fill="none" stroke="#000000" stroke-width="4" stroke-miterlimit="10" d="M1076.8,767.6c-6.4-2.2-17.2-2.1-17.2-2.1
		l-14.7,14.1l0.5,24.4c0,0,2.1,0.7,2.4,0.2s2.5-22,2.5-22l8.5-7.4c0,0-3.9,13.9-2,25.6c0,0,10.2,2.2,14.7,1.2l7-22.8L1076.8,767.6z"
		/>
	<polyline fill="none" stroke="#000000" stroke-width="4" stroke-miterlimit="10" points="1047.9,804.4 1049.9,810.8 1045.4,817.9 
		1042.1,816.4 1045.4,804.1 	"/>
	<path fill="none" stroke="#000000" stroke-width="4" stroke-miterlimit="10" d="M1077.7,781.5c0,0,5.4,8.9,12.9,13l-0.8,2.4
		c0,0-8-1.2-14.5-7.7"/>
	<path fill="none" stroke="#000000" stroke-width="4" stroke-miterlimit="10" d="M1089.8,796.9l10.2,5l2-4.2l-7.3-4.7
		c0,0-3.8,0.9-4,1.5"/>
	<path fill="none" stroke="#000000" stroke-width="4" stroke-miterlimit="10" d="M984.3,803.3c0,0,30.1,51,32.9,60.7l2.6-0.7
		c0,0-7.3-35.2-21.6-58"/>
	<path fill="none" stroke="#000000" stroke-width="4" stroke-miterlimit="10" d="M986.6,807.4c0,0,2.7,30.5-15,53l3.4,0.6
		c0,0,18.7-16.6,20.4-38.5"/>
	<path fill="none" stroke="#000000" stroke-width="4" stroke-miterlimit="10" d="M1056.9,800.5c0,0-9.8,28.9-12,43.1
		c0,0,27.1,10.5,45.7-4.2l-19.1-37.6"/>
	<path fill="none" stroke="#000000" stroke-width="4" stroke-miterlimit="10" d="M1054.5,846.2l-3.6,20.8h1.8
		c0,0,10.7-15.4,10.8-19.8"/>
	<polyline fill="none" stroke="#000000" stroke-width="4" stroke-miterlimit="10" points="1072,847.2 1079.4,867 1083,865.9 
		1082.3,844.2 	"/>
	<polygon fill="none" stroke="#000000" stroke-width="4" stroke-miterlimit="10" points="970.9,860.7 968.7,866.5 981.8,871 
		988.2,867.3 975,861.1 	"/>
	<polygon fill="none" stroke="#000000" stroke-width="4" stroke-miterlimit="10" points="1017.1,864 1018,871.2 1031.2,874 
		1035.5,868.7 1020.3,863.5 	"/>
	<polyline fill="none" stroke="#000000" stroke-width="4" stroke-miterlimit="10" points="1050.8,867 1050.2,869.2 1059.9,875.3 
		1065.7,869.9 1052.6,867 	"/>
	<polyline fill="none" stroke="#000000" stroke-width="4" stroke-miterlimit="10" points="1079.4,867 1079.8,870 1094.2,875.3 
		1096.9,868.7 1083,865.9 	"/>
</g>
<line fill="none" stroke="#27AAE1" stroke-width="5" stroke-miterlimit="10" x1="1167.9" y1="724.8" x2="1190.4" y2="767.2"/>
<g id="Layer_1_13_">
	
		<ellipse transform="matrix(0.192 -0.9814 0.9814 0.192 247.2079 1801.7123)" fill="none" stroke="#000000" stroke-width="4" stroke-miterlimit="10" cx="1217.8" cy="750.7" rx="12.5" ry="8.6"/>
	
		<ellipse transform="matrix(0.1346 -0.9909 0.9909 0.1346 366.8231 1921.5946)" fill="none" stroke="#000000" stroke-width="4" stroke-miterlimit="10" cx="1283.5" cy="750.8" rx="12.7" ry="8.5"/>
	<path fill="none" stroke="#000000" stroke-width="4" stroke-miterlimit="10" d="M1285.3,738.2c0,0,11.1,1.2,11.1,12.5
		s1.1,14,2.2,16c0,0-3.5,1-7.5,0.9"/>
	<path fill="none" stroke="#000000" stroke-width="4" stroke-miterlimit="10" d="M1291.9,746c0,0,1.4,6.5,2.2,10.7
		c0.8,4.1,1.8,9,2.2,10.5"/>
	<path fill="none" stroke="#000000" stroke-width="4" stroke-miterlimit="10" d="M1291.5,755.1c0,0,0.4,9.9,2.1,12.5"/>
	<path fill="none" stroke="#000000" stroke-width="4" stroke-miterlimit="10" d="M1288.1,760.7c0,0,0.4,5.4,1.4,6.5"/>
	<polyline fill="none" stroke="#000000" stroke-width="4" stroke-miterlimit="10" points="1213.1,762.1 1212.4,765.5 1216.2,766.2 
		1217.7,763.1 	"/>
	<polyline fill="none" stroke="#000000" stroke-width="4" stroke-miterlimit="10" points="1281.9,763.2 1281.9,766 1285.3,766.4 
		1286.3,762.2 	"/>
	<path fill="none" stroke="#000000" stroke-width="4" stroke-miterlimit="10" d="M1204.4,764.7c0,0,11.8,0.1,18.7,4.2
		c0,0-7.8,31.9-10.7,36.3l-13.9-1.9L1204.4,764.7z"/>
	<path fill="none" stroke="#000000" stroke-width="4" stroke-miterlimit="10" d="M1204.4,764.7l-19.3,11.7c0,0,1,14.6,5.7,26.7h2.2
		c0,0-0.8-17.8-0.2-23.2"/>
	<line fill="none" stroke="#000000" stroke-width="4" stroke-miterlimit="10" x1="1203" y1="773.7" x2="1185.9" y2="783.8"/>
	<polygon fill="none" stroke="#000000" stroke-width="4" stroke-miterlimit="10" points="1193,803.1 1195.5,807.4 1194.2,808.5 
		1193,808.5 1193.8,815.5 1189.2,812.7 1190.8,803.1 	"/>
	<polyline fill="none" stroke="#000000" stroke-width="4" stroke-miterlimit="10" points="1223.1,768.9 1231.3,782.3 1242.9,772 
		1244.5,772.9 1231.3,791.6 1220.6,778.6 	"/>
	<polyline fill="none" stroke="#000000" stroke-width="4" stroke-miterlimit="10" points="1242.9,772 1242.9,768.9 1253.7,766.7 
		1253.7,772.9 1244.5,772.9 	"/>
	<line fill="none" stroke="#000000" stroke-width="4" stroke-miterlimit="10" x1="1231.3" y1="782.3" x2="1231.3" y2="791.6"/>
	<path fill="none" stroke="#000000" stroke-width="4" stroke-miterlimit="10" d="M1291.1,767.6c-6.4-2.2-17.2-2.1-17.2-2.1
		l-14.7,14.1l0.5,24.4c0,0,2.1,0.7,2.4,0.2c0.3-0.4,2.5-22,2.5-22l8.5-7.4c0,0-3.9,13.9-2,25.6c0,0,10.2,2.2,14.7,1.2l7-22.8
		L1291.1,767.6z"/>
	<polyline fill="none" stroke="#000000" stroke-width="4" stroke-miterlimit="10" points="1262.1,804.4 1264.1,810.8 1259.6,817.9 
		1256.3,816.4 1259.6,804.1 	"/>
	<path fill="none" stroke="#000000" stroke-width="4" stroke-miterlimit="10" d="M1291.9,781.5c0,0,5.4,8.9,12.9,13l-0.8,2.4
		c0,0-8-1.2-14.5-7.7"/>
	<path fill="none" stroke="#000000" stroke-width="4" stroke-miterlimit="10" d="M1304,796.9l10.2,5l2-4.2l-7.3-4.7
		c0,0-3.8,0.9-4,1.5"/>
	<path fill="none" stroke="#000000" stroke-width="4" stroke-miterlimit="10" d="M1198.5,803.3c0,0,30.1,51,32.9,60.7l2.6-0.7
		c0,0-7.3-35.2-21.6-58"/>
	<path fill="none" stroke="#000000" stroke-width="4" stroke-miterlimit="10" d="M1200.8,807.4c0,0,2.7,30.5-15,53l3.4,0.6
		c0,0,18.7-16.6,20.4-38.5"/>
	<path fill="none" stroke="#000000" stroke-width="4" stroke-miterlimit="10" d="M1271.1,800.5c0,0-9.8,28.9-12,43.1
		c0,0,27.1,10.5,45.7-4.2l-19.1-37.6"/>
	<path fill="none" stroke="#000000" stroke-width="4" stroke-miterlimit="10" d="M1268.7,846.2l-3.6,20.8h1.8
		c0,0,10.7-15.4,10.8-19.8"/>
	<polyline fill="none" stroke="#000000" stroke-width="4" stroke-miterlimit="10" points="1286.3,847.2 1293.6,867 1297.2,865.9 
		1296.5,844.2 	"/>
	<polygon fill="none" stroke="#000000" stroke-width="4" stroke-miterlimit="10" points="1185.1,860.7 1183,866.5 1196,871 
		1202.4,867.3 1189.2,861.1 	"/>
	<polygon fill="none" stroke="#000000" stroke-width="4" stroke-miterlimit="10" points="1231.3,864 1232.2,871.2 1245.4,874 
		1249.7,868.7 1234.5,863.5 	"/>
	<polyline fill="none" stroke="#000000" stroke-width="4" stroke-miterlimit="10" points="1265,867 1264.4,869.2 1274.2,875.3 
		1280,869.9 1266.8,867 	"/>
	<polyline fill="none" stroke="#000000" stroke-width="4" stroke-miterlimit="10" points="1293.6,867 1294,870 1308.5,875.3 
		1311.1,868.7 1297.2,865.9 	"/>
</g>
<line fill="none" stroke="#27AAE1" stroke-width="5" stroke-miterlimit="10" x1="1514.9" y1="725.8" x2="1488.3" y2="766.2"/>
<g id="Layer_1_12_">
	
		<ellipse transform="matrix(0.192 -0.9814 0.9814 0.192 392.207 1979.3571)" fill="none" stroke="#000000" stroke-width="4" stroke-miterlimit="10" cx="1398.2" cy="751.5" rx="12.5" ry="8.6"/>
	
		<ellipse transform="matrix(0.1346 -0.9909 0.9909 0.1346 522.3789 2101.1016)" fill="none" stroke="#000000" stroke-width="4" stroke-miterlimit="10" cx="1464.1" cy="751.5" rx="12.7" ry="8.5"/>
	<path fill="none" stroke="#000000" stroke-width="4" stroke-miterlimit="10" d="M1465.8,738.9c0,0,11.1,1.2,11.1,12.5
		s1.1,14,2.2,16c0,0-3.5,1-7.5,0.9"/>
	<path fill="none" stroke="#000000" stroke-width="4" stroke-miterlimit="10" d="M1472.4,746.7c0,0,1.4,6.5,2.2,10.7
		c0.8,4.1,1.8,9,2.2,10.5"/>
	<path fill="none" stroke="#000000" stroke-width="4" stroke-miterlimit="10" d="M1472,755.8c0,0,0.4,9.9,2.1,12.5"/>
	<path fill="none" stroke="#000000" stroke-width="4" stroke-miterlimit="10" d="M1468.6,761.4c0,0,0.4,5.4,1.4,6.5"/>
	<polyline fill="none" stroke="#000000" stroke-width="4" stroke-miterlimit="10" points="1393.5,762.8 1392.9,766.2 1396.7,766.9 
		1398.2,763.8 	"/>
	<polyline fill="none" stroke="#000000" stroke-width="4" stroke-miterlimit="10" points="1462.4,763.9 1462.4,766.7 1465.8,767.1 
		1466.7,762.9 	"/>
	<path fill="none" stroke="#000000" stroke-width="4" stroke-miterlimit="10" d="M1384.9,765.4c0,0,11.8,0.1,18.7,4.2
		c0,0-7.8,31.9-10.7,36.3L1379,804L1384.9,765.4z"/>
	<path fill="none" stroke="#000000" stroke-width="4" stroke-miterlimit="10" d="M1384.9,765.4l-19.3,11.7c0,0,1,14.6,5.7,26.7h2.2
		c0,0-0.8-17.8-0.2-23.2"/>
	<line fill="none" stroke="#000000" stroke-width="4" stroke-miterlimit="10" x1="1383.5" y1="774.4" x2="1366.3" y2="784.5"/>
	<polygon fill="none" stroke="#000000" stroke-width="4" stroke-miterlimit="10" points="1373.4,803.8 1375.9,808.2 1374.7,809.2 
		1373.4,809.2 1374.3,816.3 1369.7,813.4 1371.3,803.8 	"/>
	<polyline fill="none" stroke="#000000" stroke-width="4" stroke-miterlimit="10" points="1403.6,769.6 1411.8,783 1423.4,772.7 
		1425,773.6 1411.8,792.3 1401.1,779.3 	"/>
	<polyline fill="none" stroke="#000000" stroke-width="4" stroke-miterlimit="10" points="1423.4,772.7 1423.4,769.6 1434.1,767.4 
		1434.1,773.6 1425,773.6 	"/>
	<line fill="none" stroke="#000000" stroke-width="4" stroke-miterlimit="10" x1="1411.8" y1="783" x2="1411.8" y2="792.3"/>
	<path fill="none" stroke="#000000" stroke-width="4" stroke-miterlimit="10" d="M1471.5,768.3c-6.4-2.2-17.2-2.1-17.2-2.1
		l-14.7,14.1l0.5,24.4c0,0,2.1,0.7,2.4,0.2c0.3-0.4,2.5-22,2.5-22l8.5-7.4c0,0-3.9,13.9-2,25.6c0,0,10.2,2.2,14.7,1.2l7-22.8
		L1471.5,768.3z"/>
	<polyline fill="none" stroke="#000000" stroke-width="4" stroke-miterlimit="10" points="1442.5,805.1 1444.6,811.5 1440,818.6 
		1436.8,817.1 1440.1,804.8 	"/>
	<path fill="none" stroke="#000000" stroke-width="4" stroke-miterlimit="10" d="M1472.4,782.2c0,0,5.4,8.9,12.9,13l-0.8,2.4
		c0,0-8-1.2-14.5-7.7"/>
	<path fill="none" stroke="#000000" stroke-width="4" stroke-miterlimit="10" d="M1484.5,797.6l10.2,5l2-4.2l-7.3-4.7
		c0,0-3.8,0.9-4,1.5"/>
	<path fill="none" stroke="#000000" stroke-width="4" stroke-miterlimit="10" d="M1378.9,804c0,0,30.1,51,32.9,60.7l2.6-0.7
		c0,0-7.3-35.2-21.6-58"/>
	<path fill="none" stroke="#000000" stroke-width="4" stroke-miterlimit="10" d="M1381.3,808.2c0,0,2.7,30.5-15,53l3.4,0.6
		c0,0,18.7-16.6,20.4-38.5"/>
	<path fill="none" stroke="#000000" stroke-width="4" stroke-miterlimit="10" d="M1451.6,801.2c0,0-9.8,28.9-12,43.1
		c0,0,27.1,10.5,45.7-4.2l-19.1-37.6"/>
	<path fill="none" stroke="#000000" stroke-width="4" stroke-miterlimit="10" d="M1449.1,846.9l-3.6,20.8h1.8
		c0,0,10.7-15.4,10.8-19.8"/>
	<polyline fill="none" stroke="#000000" stroke-width="4" stroke-miterlimit="10" points="1466.7,847.9 1474.1,867.7 1477.7,866.6 
		1476.9,844.9 	"/>
	<polygon fill="none" stroke="#000000" stroke-width="4" stroke-miterlimit="10" points="1365.6,861.4 1363.4,867.2 1376.4,871.7 
		1382.9,868 1369.7,861.8 	"/>
	<polygon fill="none" stroke="#000000" stroke-width="4" stroke-miterlimit="10" points="1411.8,864.7 1412.7,871.9 1425.9,874.7 
		1430.2,869.4 1415,864.2 	"/>
	<polyline fill="none" stroke="#000000" stroke-width="4" stroke-miterlimit="10" points="1445.5,867.7 1444.8,869.9 1454.6,876 
		1460.4,870.6 1447.3,867.7 	"/>
	<polyline fill="none" stroke="#000000" stroke-width="4" stroke-miterlimit="10" points="1474.1,867.7 1474.4,870.7 1488.9,876 
		1491.6,869.4 1477.7,866.6 	"/>
</g>
<line fill="none" stroke="#27AAE1" stroke-width="5" stroke-miterlimit="10" x1="1559.8" y1="724.8" x2="1582.4" y2="767.2"/>
<g id="Layer_1_11_">
	
		<ellipse transform="matrix(0.192 -0.9814 0.9814 0.192 565.2434 2189.5571)" fill="none" stroke="#000000" stroke-width="4" stroke-miterlimit="10" cx="1612.3" cy="751.5" rx="12.5" ry="8.6"/>
	
		<ellipse transform="matrix(0.1346 -0.9909 0.9909 0.1346 707.7719 2313.2676)" fill="none" stroke="#000000" stroke-width="4" stroke-miterlimit="10" cx="1678.3" cy="751.4" rx="12.7" ry="8.5"/>
	<path fill="none" stroke="#000000" stroke-width="4" stroke-miterlimit="10" d="M1680,738.9c0,0,11.1,1.2,11.1,12.5s1.1,14,2.2,16
		c0,0-3.5,1-7.5,0.9"/>
	<path fill="none" stroke="#000000" stroke-width="4" stroke-miterlimit="10" d="M1686.6,746.7c0,0,1.4,6.5,2.2,10.7
		c0.8,4.1,1.8,9,2.2,10.5"/>
	<path fill="none" stroke="#000000" stroke-width="4" stroke-miterlimit="10" d="M1686.2,755.8c0,0,0.4,9.9,2.1,12.5"/>
	<path fill="none" stroke="#000000" stroke-width="4" stroke-miterlimit="10" d="M1682.8,761.4c0,0,0.4,5.4,1.4,6.5"/>
	<polyline fill="none" stroke="#000000" stroke-width="4" stroke-miterlimit="10" points="1607.7,762.8 1607.1,766.2 1610.9,766.9 
		1612.4,763.8 	"/>
	<polyline fill="none" stroke="#000000" stroke-width="4" stroke-miterlimit="10" points="1676.6,763.9 1676.6,766.7 1680,767.1 
		1680.9,762.9 	"/>
	<path fill="none" stroke="#000000" stroke-width="4" stroke-miterlimit="10" d="M1599.1,765.4c0,0,11.8,0.1,18.7,4.2
		c0,0-7.8,31.9-10.7,36.3l-13.9-1.9L1599.1,765.4z"/>
	<path fill="none" stroke="#000000" stroke-width="4" stroke-miterlimit="10" d="M1599.1,765.4l-19.3,11.7c0,0,1,14.6,5.7,26.7h2.2
		c0,0-0.8-17.8-0.2-23.2"/>
	<line fill="none" stroke="#000000" stroke-width="4" stroke-miterlimit="10" x1="1597.7" y1="774.4" x2="1580.6" y2="784.5"/>
	<polygon fill="none" stroke="#000000" stroke-width="4" stroke-miterlimit="10" points="1587.7,803.8 1590.2,808.2 1588.9,809.2 
		1587.7,809.2 1588.5,816.3 1583.9,813.4 1585.5,803.8 	"/>
	<polyline fill="none" stroke="#000000" stroke-width="4" stroke-miterlimit="10" points="1617.8,769.6 1626,783 1637.6,772.7 
		1639.2,773.6 1626,792.3 1615.3,779.3 	"/>
	<polyline fill="none" stroke="#000000" stroke-width="4" stroke-miterlimit="10" points="1637.6,772.7 1637.6,769.6 1648.3,767.4 
		1648.3,773.6 1639.2,773.6 	"/>
	<line fill="none" stroke="#000000" stroke-width="4" stroke-miterlimit="10" x1="1626" y1="783" x2="1626" y2="792.3"/>
	<path fill="none" stroke="#000000" stroke-width="4" stroke-miterlimit="10" d="M1685.7,768.3c-6.4-2.2-17.2-2.1-17.2-2.1
		l-14.7,14.1l0.5,24.4c0,0,2.1,0.7,2.4,0.2c0.3-0.4,2.5-22,2.5-22l8.5-7.4c0,0-3.9,13.9-2,25.6c0,0,10.2,2.2,14.7,1.2l7-22.8
		L1685.7,768.3z"/>
	<polyline fill="none" stroke="#000000" stroke-width="4" stroke-miterlimit="10" points="1656.7,805.1 1658.8,811.5 1654.3,818.6 
		1651,817.1 1654.3,804.8 	"/>
	<path fill="none" stroke="#000000" stroke-width="4" stroke-miterlimit="10" d="M1686.6,782.2c0,0,5.4,8.9,12.9,13l-0.8,2.4
		c0,0-8-1.2-14.5-7.7"/>
	<path fill="none" stroke="#000000" stroke-width="4" stroke-miterlimit="10" d="M1698.7,797.6l10.2,5l2-4.2l-7.3-4.7
		c0,0-3.8,0.9-4,1.5"/>
	<path fill="none" stroke="#000000" stroke-width="4" stroke-miterlimit="10" d="M1593.2,804c0,0,30.1,51,32.9,60.7l2.6-0.7
		c0,0-7.3-35.2-21.6-58"/>
	<path fill="none" stroke="#000000" stroke-width="4" stroke-miterlimit="10" d="M1595.5,808.2c0,0,2.7,30.5-15,53l3.4,0.6
		c0,0,18.7-16.6,20.4-38.5"/>
	<path fill="none" stroke="#000000" stroke-width="4" stroke-miterlimit="10" d="M1665.8,801.2c0,0-9.8,28.9-12,43.1
		c0,0,27.1,10.5,45.7-4.2l-19.1-37.6"/>
	<path fill="none" stroke="#000000" stroke-width="4" stroke-miterlimit="10" d="M1663.4,846.9l-3.6,20.8h1.8
		c0,0,10.7-15.4,10.8-19.8"/>
	<polyline fill="none" stroke="#000000" stroke-width="4" stroke-miterlimit="10" points="1680.9,847.9 1688.3,867.7 1691.9,866.6 
		1691.2,844.9 	"/>
	<polygon fill="none" stroke="#000000" stroke-width="4" stroke-miterlimit="10" points="1579.8,861.4 1577.6,867.2 1590.7,871.7 
		1597.1,868 1583.9,861.8 	"/>
	<polygon fill="none" stroke="#000000" stroke-width="4" stroke-miterlimit="10" points="1626,864.7 1626.9,871.9 1640.1,874.7 
		1644.4,869.4 1629.2,864.2 	"/>
	<polyline fill="none" stroke="#000000" stroke-width="4" stroke-miterlimit="10" points="1659.7,867.7 1659.1,869.9 1668.8,876 
		1674.6,870.6 1661.5,867.7 	"/>
	<polyline fill="none" stroke="#000000" stroke-width="4" stroke-miterlimit="10" points="1688.3,867.7 1688.7,870.7 1703.1,876 
		1705.8,869.4 1691.9,866.6 	"/>
</g>
<g id="Layer_3">
	<path fill="none" stroke="#000000" stroke-width="4" stroke-miterlimit="10" d="M243,390c41.5-51.9,70.7-96.1,97.5-136.5
		c66.8-100.9,64.3-113.6,94.5-141c53-48,115.3-58.6,172.5-67.5c148.2-23.2,205.5,27.2,369,25.5c81.6-0.8,60.4-14.3,198-27
		c261.3-24.1,308,19.5,322.5,36c18.9,21.6,10.8,28.7,51,123c28.9,67.8,44,101.4,63,130.5c58.7,90.1,102.4,84.7,142.5,166.5
		c24,49.1,29.2,93.5,31.5,115.5c6.6,62.3-4.2,110.8-16.5,163.5c-14.7,63-22,94.5-37.5,117c-74.3,108-265.8,90-280.5,88.5
		c-96.1-10.2-92.7-44.4-216-63c-79.4-12-145.7-7.6-214.5-3c-15,1-77.5,5.4-184.5,24c-134.7,23.4-135.5,33.9-228,49.5
		C504.6,1008.8,369.7,1030,228,978c-45.4-16.7-79.8-29.8-108-64.5C61.1,841,79,736.2,91.5,663c6.3-37.1,16.7-94.4,54-156
		C172,463.3,183.8,464,243,390z"/>
	<path fill="none" stroke="#000000" stroke-width="4" stroke-miterlimit="10" d="M184.1,558.3c0,0-55.1,56.6-44.6,148.2"/>
	<path fill="none" stroke="#000000" stroke-width="4" stroke-miterlimit="10" d="M201.3,590.3c0,0-36.3,52-27.3,87.1"/>
	<path fill="none" stroke="#000000" stroke-width="4" stroke-miterlimit="10" d="M1365.5,60c0,0,112.6-5.2,120.5,72.4"/>
	<path fill="none" stroke="#000000" stroke-width="4" stroke-miterlimit="10" d="M1385.6,78.4c0,0,36.4-7.6,53.3,23.3"/>
	<path fill="none" stroke="#000000" stroke-width="4" stroke-miterlimit="10" d="M740,96.2c0,0,41.1-43,120.8-8.1"/>
	<path fill="none" stroke="#000000" stroke-width="4" stroke-miterlimit="10" d="M772.8,110.3c0,0,26.2-24.4,52.7-14.1"/>
	<path fill="none" stroke="#000000" stroke-width="4" stroke-miterlimit="10" d="M1693.4,505.8c0,0,53.6,9.2,28.1,90.8"/>
	<path fill="none" stroke="#000000" stroke-width="4" stroke-miterlimit="10" d="M1264.4,670.5c0,0,64.7,38.1,105.3-14.5"/>
	<path fill="none" stroke="#000000" stroke-width="4" stroke-miterlimit="10" d="M1453.4,925.9c0,0,98.3,37.4,160-14.2"/>
	<path fill="none" stroke="#000000" stroke-width="4" stroke-miterlimit="10" d="M1289.6,638.5c0,0,32.8,14.6,52.6,0"/>
	<path fill="none" stroke="#000000" stroke-width="4" stroke-miterlimit="10" d="M281.8,939c0,0,117.8,64.5,220.2,13.5"/>
</g>
</svg>
