<?xml version="1.0" encoding="utf-8"?>
<!-- Generator: Adobe Illustrator 23.1.1, SVG Export Plug-In . SVG Version: 6.00 Build 0)  -->
<svg version="1.1" id="Layer_1" xmlns="http://www.w3.org/2000/svg" xmlns:xlink="http://www.w3.org/1999/xlink" x="0px" y="0px"
	 viewBox="0 0 753.21 203" style="enable-background:new 0 0 753.21 203;" xml:space="preserve">
<style type="text/css">
	.st0{fill:#22346A;}
	.st1{fill:none;}
	.st2{font-family:'Roboto-Thin';}
	.st3{font-size:200px;}
	.st4{letter-spacing:-19.01;}
</style>
<g>
	<g>
		<polygon class="st0" points="187.39,9.36 174.72,9.36 162.85,33.46 175.44,33.46 		"/>
		<path class="st0" d="M185.64,168.29c0,3.05-2.14,5.09-5.35,5.09h-26.77c-3.21,0-5.35-2.04-5.35-5.09V46.19h-16.06v122.09
			c0,11.19,9.64,20.35,21.42,20.35h26.77c11.78,0,21.42-9.16,21.42-20.35V46.19h-16.06V168.29z"/>
		<polygon class="st0" points="268,136.14 242.51,46.19 220.88,46.19 220.88,188.64 236.94,188.64 236.94,80.38 264.57,178.46 
			271.42,178.46 299.7,80.38 299.7,188.64 315.76,188.64 315.76,46.19 294.13,46.19 		"/>
		<polygon class="st0" points="334.99,188.64 393.89,188.64 393.89,173.38 351.05,173.38 351.05,120.87 383.18,120.87 
			383.18,105.61 351.05,105.61 351.05,61.45 393.89,61.45 393.89,46.19 334.99,46.19 		"/>
	</g>
	<polygon class="st0" points="117.53,46.19 33.48,46.19 60.13,103.11 68.77,84.61 57.49,60.5 93.23,60.5 33.27,188.64 
		117.37,188.64 90.73,131.59 82.1,150.07 93.31,174.12 57.72,174.12 	"/>
</g>
<rect x="405.29" y="39.67" class="st1" width="432" height="155.5"/>
<text transform="matrix(0.6312 0 0 1 405.2921 189.666)" class="st0 st2 st3 st4">VISION</text>
</svg>
