<?xml version="1.0" encoding="utf-8"?>
<!-- Generator: Adobe Illustrator 19.2.1, SVG Export Plug-In . SVG Version: 6.00 Build 0)  -->
<svg version="1.0" id="Layer_1" xmlns="http://www.w3.org/2000/svg" xmlns:xlink="http://www.w3.org/1999/xlink" x="0px" y="0px"
	 width="432px" height="432px" viewBox="0 0 432 432" enable-background="new 0 0 432 432" xml:space="preserve">
<ellipse transform="matrix(0.209 -0.9779 0.9779 0.209 39.2965 223.7039)" fill="none" stroke="#000000" stroke-width="2" stroke-miterlimit="10" cx="157.9" cy="87.6" rx="29.5" ry="18.3"/>
<line fill="none" stroke="#000000" stroke-width="2" stroke-miterlimit="10" x1="144.9" y1="112.3" x2="141.3" y2="120.2"/>
<path fill="none" stroke="#000000" stroke-width="2" stroke-miterlimit="10" d="M153.8,116.7c0,0.8-0.8,6.3-0.8,6.3"/>
<path fill="none" stroke="#000000" stroke-width="2" stroke-miterlimit="10" d="M155.4,174.9c-2.6,23.4-5.1,46.5-5.1,46.5
	c-21.7,10-44,0-44,0c-0.3-66.3,24.5-104,24.5-104s23.2,4,29.9,9.2c0,0-1.3,10-2.7,23"/>
<path fill="none" stroke="#000000" stroke-width="2" stroke-miterlimit="10" d="M137.8,140.8c0,0,10.2,28.3,25.5,44l47.5-2.3
	l2.5-6.7l-42-3.3c0,0-17.5-28.5-20-37.3"/>
<line fill="none" stroke="#000000" stroke-width="2" stroke-miterlimit="10" x1="171.3" y1="172.5" x2="163.3" y2="184.8"/>
<path fill="none" stroke="#000000" stroke-width="2" stroke-miterlimit="10" d="M213.3,175.8h5.5l11.8,7.8l1.2,5.2h-5
	c0,0-2.5-2.5-3.3-2.8s-12.7-3.5-12.7-3.5"/>
<path fill="none" stroke="#000000" stroke-width="2" stroke-miterlimit="10" d="M159.6,136.5c0,0,11,30.4,22.4,36.9"/>
<polyline fill="none" stroke="#000000" stroke-width="2" stroke-miterlimit="10" points="206.2,182.7 208.8,185.9 217,186.9 
	220.1,188.8 222.8,185.8 "/>
<path fill="none" stroke="#000000" stroke-width="2" stroke-miterlimit="10" d="M97,244.2l-5.5-126.9l14.8-1.1c0,0,1,49.4,1.6,75.9"
	/>
<polygon fill="none" stroke="#000000" stroke-width="2" stroke-miterlimit="10" points="93,244.2 96.5,262.8 202.5,260.5 
	202.5,246.8 "/>
<path fill="none" stroke="#000000" stroke-width="2" stroke-miterlimit="10" d="M107.9,222c0,0-2.2,13.8,2.3,22.7"/>
<path fill="none" stroke="#000000" stroke-width="2" stroke-miterlimit="10" d="M150.5,220.2c0,0,51.7,9.5,72.4,24
	c0,0-5.9,74.2-13.9,106.2l-8,0.5"/>
<polyline fill="none" stroke="#000000" stroke-width="2" stroke-miterlimit="10" points="184.2,260.9 170.8,343.8 177.5,343.8 
	189.9,310.5 "/>
<polyline fill="none" stroke="#000000" stroke-width="2" stroke-miterlimit="10" points="170.8,343.8 168.8,352.2 192.6,354.7 "/>
<line fill="none" stroke="#000000" stroke-width="2" stroke-miterlimit="10" x1="177.5" y1="343.8" x2="191.9" y2="346.2"/>
<polyline fill="none" stroke="#000000" stroke-width="2" stroke-miterlimit="10" points="99.7,262.8 106.3,369.3 114,369.3 
	112.7,262.4 "/>
<polyline fill="none" stroke="#000000" stroke-width="2" stroke-miterlimit="10" points="186.8,260.9 193.5,369.3 201.2,369.3 
	199.8,260.9 "/>
<polygon fill="none" stroke="#000000" stroke-width="2" stroke-miterlimit="10" points="209.8,190.2 210.8,197.3 268.5,197.3 
	268.5,190 "/>
<polyline fill="none" stroke="#000000" stroke-width="2" stroke-miterlimit="10" points="298.5,139.2 266.4,187.7 270.2,190 
	304.3,143.8 298.5,139.2 283.7,140.2 258.8,183.7 230.7,183.7 "/>
<line fill="none" stroke="#000000" stroke-width="2" stroke-miterlimit="10" x1="258.8" y1="183.7" x2="267.5" y2="188.3"/>
<line fill="none" stroke="#000000" stroke-width="2" stroke-miterlimit="10" x1="209.5" y1="190" x2="214.2" y2="186.4"/>
<rect x="194" y="197.3" fill="none" stroke="#000000" stroke-width="2" stroke-miterlimit="10" width="146" height="12"/>
<polyline fill="none" stroke="#000000" stroke-width="2" stroke-miterlimit="10" points="227.3,209.3 228.7,374.3 334,373 
	334,209.3 "/>
<line fill="none" stroke="#000000" stroke-width="2" stroke-miterlimit="10" x1="201.2" y1="357.8" x2="228.6" y2="361.2"/>
<line fill="none" stroke="#000000" stroke-width="2" stroke-miterlimit="10" x1="208.9" y1="350.5" x2="228.5" y2="351"/>
</svg>
