<?xml version="1.0" encoding="utf-8"?>
<!-- Generator: Adobe Illustrator 21.0.0, SVG Export Plug-In . SVG Version: 6.00 Build 0)  -->
<!DOCTYPE svg PUBLIC "-//W3C//DTD SVG 1.0//EN" "http://www.w3.org/TR/2001/REC-SVG-20010904/DTD/svg10.dtd">
<svg version="1.0" xmlns="http://www.w3.org/2000/svg" xmlns:xlink="http://www.w3.org/1999/xlink" x="0px" y="0px" width="500px"
	 height="500px" viewBox="0 0 500 500" enable-background="new 0 0 500 500" xml:space="preserve">
<g id="Color">
	<path fill="#3B57A7" d="M-562.3,698c2-5,4-325,0-333s-7.7-41-7.7-48s119,2,129-3s-59-96-59-96s29-31,40-28s70,86,70,86l95-88
		c0,0-15-118,20-142S-175-6-161,9S-43,40-20,29s55-49,123-50s151,6,161-14s-24-93-26-120s2-102,72-105s91-31,142-11s103,47,124,60
		s77,17,95,31s45,56,45,56s16,153,25,161s115,40,129,44s72,28,69,56s-47,125-72,118s-67-27-67-27s1-9,1-13s-10-20-22-27
		s-55-15-67-18s-89-12-106-12s-49-2-54-2s-46,3-46,3s-82,24-90,29s-23.5,12-23.5,12L382,215c0,0-7,15-7,22s8,73,8,73s-12,31-12,44
		s-2,25,10,27s24-49,56,40c29,121-5,288-5,288l-605,54l-315-19L-562.3,698z"/>
</g>
<g id="Stroke">
	
		<path opacity="0" fill="none" stroke="#000000" stroke-width="124" stroke-linecap="round" stroke-linejoin="round" stroke-miterlimit="10" d="
		M-544,733c6.4-53-10.3-141.9-16-195c-18.4-170.3,81.5-238.3,39.7-356.3c-8.5-24,16-49.4,33.5-67.9c17.5-18.6,46-29,69.2-18.4
		c-3,17.7-7.8,35.5-5.9,53.2c2.2,20.7,7,41,9.5,61.6c2.4,19.9,1.9,40.1,1.4,60.1c-0.9,35.3-1.8,70.5-2.7,105.8
		c-0.5,18.6-13,37.3-15.8,55.7c-3.9,25.6-8.9,50.3-15.5,75.3c-16.8,63.7-13.3,130.4-6.3,195.9c2.8,26.2,10.9,56.5,35.4,66.2
		c3.2,1.3,6.8,2.1,10.2,1.3c5.7-1.4,9.2-6.8,11.8-12c23.6-46.7,18-102,17.2-154.3c-1.1-76.6,9.9-153.2,32.2-226.5
		c10.9-35.7,27.5-69,36.4-105c9.8-40.1,19.7-80.3,29.5-120.4c7.7-31.3,15.3-62.6,23-93.9c6.9-28,25.6-63.6,53.3-55.6
		c4.9,62.2-13.2,123.7-28.4,184.2c-19.5,77.6-34.4,156.4-44.6,235.8c-10,77.2-9.1,155.8-19.1,232.4c-3.1,23.6-0.1,49.5-0.1,73.4
		c0.1,24.9,0.1,49.7,0.2,74.6c13-10.3,16.7-28.1,19.7-44.5c17.9-98.9,38.8-197.2,62.7-294.7c8-32.5,16.3-65,21.6-98
		c8.8-54.9,9.3-110.8,13.7-166.3c4.2-52.8,11.9-105.3,23.2-157.1c2-9.1,5.8-19.9,15-21.4c7-1.1,13.7,4.4,16.2,11s1.9,14,1,21
		c-9.3,71.3-40.7,138.1-51.8,209.1c-5.7,36.1-6,72.8-8.7,109.2c-9.8,135.2-46.4,268.5,1.6,400.9c1.3,3.7,2.9,7.6,6.3,9.5
		c2.5,1.4,5.5,1.4,8.4,1c16.8-2.8,26.3-20.7,31.2-37c15.2-50.5,10.5-104.4,8.3-157.1c-1.7-41.3-1.7-82.6-1-124
		c0.4-20.7,1-41.3,1.6-62c0.6-18.3-1-38.7,3.5-56.4c19.9-77.5,30.9-158.4,45.3-237.3c2.1-11.5,4.2-22.9,6.3-34.4
		c4.3-23.4,17.9-53.5,41.1-48.3C-9.8,31.2-7,59.2-9.3,80.2c-24.6,229.7-98.1,463.9-37.2,686.7C10.7,732.4,22.4,656,28.2,589.6
		c17-193.6,34.1-387.3,51.1-580.9c2-22.4,17.1-53,37.2-42.9c8.2,4.1,11.7,13.7,14.1,22.6c21.6,81.2,2.4,166.8-11.8,249.6
		c-23.6,137.3-33.1,277-28.4,416.2c1.6,47.8,12.1,102.9,67,115.8c5.5,1.3,11.3,2,16.8,0.7c12.2-3,19.8-15.1,24.1-26.8
		c5-13.6,7.4-28,9-42.4c3.5-30.8,3.9-61.9,4.3-92.9c1.7-161.8-2-323.5,4.6-484.9c2.7-66.5,5.9-133.1,11.9-199.4
		c7.7-84.7,21.1-171.6,64.5-244.8c0.4-0.6,19.6,38.9,20.8,43.7c1.6,6.8,1.7,14.3,4.6,20.7c3.2,6.9,8.8,11.8,11.4,19.3
		c7,20.4,14.1,41.9,10.2,63.1c-3.5,18.5-15,34.3-22.9,51.4c-6.6,14.5-10.7,30.1-12,45.9c-10.4,129.2-17.4,259-19.7,388.9
		c-1.2,68.6,1.8,137.2,3.1,205.8c1.1,63.8-7.9,131.3,13.8,192c2.8,7.9,6.2,15.9,12.4,21.5c9.5,8.5,23.2,9.4,35.6,12.5
		c9.7,2.5,19.5,6.6,29.4,4.9c11.6-1.9,20.6-11.7,25.1-22.5c4.4-10.9,5-22.9,5.4-34.6c1.6-44.5,1.9-89,1.4-133.4
		c-0.3-33.2-1.1-66.5-6.7-99.3c-2.7-15.7-10.3-31.9-11.6-47.5c-1.3-15.1,1-32.1,1-47.4c0-41.5,0.1-82.9,0.8-124.4
		c1.2-82.9,4.2-165.7,10.7-248.4c2.6-33.4,9.6-66.4,12.4-99.6c2.4-29.3,7.4-56.2-6.7-84c-5.6-11-13.4-21.6-14-33.9
		c-0.1-2.5,0.1-5.1,1.3-7.4c1.2-2.2,3.2-3.7,5.2-5.1c11.3-7.2,26.6-7.4,38-0.5c3.7,2.2,7,5.1,10.9,6.9c20.3,9.3,53.8-19.5,53.2,16.3
		c-1,62.4-25.5,121.9-36.6,183.3c-9.6,53-9.2,107.2-8.8,161.1c0.1,11.1,0.2,22.2,2.7,33c2.9,12,8.8,23.2,17.1,32.3
		c8.4,9.2,21.4,16.5,33,12c11.1-4.3,15.9-17.2,18.9-28.8c27.3-107.3,9.5-224,48-327.8c4.7-12.8,10.6-25.7,20.7-34.8
		c10.2-9.1,25.6-13.5,37.8-7.4c0.9,65.1-24.2,127.3-42.6,189.8c-18.4,62.5-29.9,131.8-3,191.1c1.1,2.4,2.5,5.1,5,6
		c3.2,1.1,6.5-1,9.1-3.2c29.9-25.3,34-68.9,38.8-107.8C654,15,672-54.4,714.4-108.5c4.5-5.7,10.1-11.7,17.4-12.1
		c9.1,44.2-7.7,89.4-26.7,130.4s-41,82.3-43.2,127.4c-0.5,11,0.3,22.6,5.9,32.1c2.7,4.6,7.7,9,12.9,7.5c2-0.6,3.6-1.9,5.1-3.3
		c57.6-51.6,50.1-151.2,108.6-201.9c2.4-2,4.9-4,7.9-4.8c6.5-1.6,13.2,3.1,15.9,9.2s2.4,13,1.7,19.7
		c-9.2,79.9-73.8,147.3-74.4,227.7c22.5,1.3,44.5-8.7,61.7-23.3c17.1-14.7,29.9-33.7,41.5-53c11.4-18.9,21.9-38.6,27.6-59.9
		c4.5-16.6,6-34.3,14-49.5c1.7-3.2,3.9-6.5,7.3-7.6c3.7-1.3,7.8,0.3,11.1,2.5c13,8.5,18.9,25.1,18.5,40.6s-5.9,30.4-11.4,44.9
		c-11.8,31.2-23.5,62.5-35.3,93.7c-6.7,17.8-13.4,37.7-6.2,55.3c5.8,14,19.6,23.4,34.1,27.7c14.5,4.2,30,4,45.1,3.8"/>
</g>
</svg>
