<?xml version="1.0" encoding="utf-8"?>
<!-- Generator: Adobe Illustrator 19.2.1, SVG Export Plug-In . SVG Version: 6.00 Build 0)  -->
<svg version="1.0" id="Layer_1" xmlns="http://www.w3.org/2000/svg" xmlns:xlink="http://www.w3.org/1999/xlink" x="0px" y="0px"
	 width="432px" height="432px" viewBox="0 0 432 432" enable-background="new 0 0 432 432" xml:space="preserve">
<path fill="none" stroke="#000000" stroke-width="2" stroke-miterlimit="10" d="M37.8,144.5c0,0-3-42.5,40-43
	c17.1-0.2,28.3,5.3,35.6,12.1"/>
<path fill="none" stroke="#000000" stroke-width="2" stroke-miterlimit="10" d="M107.4,109c0,0,0.3-15.2,14.2-17.5
	c12.9-2.1,19.2,10.5,19.2,10.5"/>
<path fill="none" stroke="#000000" stroke-width="2" stroke-miterlimit="10" d="M139,108.6c2-11.1,9.1-24.8,32.3-25.8
	c39.5-1.8,40.8,32,40.8,32"/>
<path fill="none" stroke="#000000" stroke-width="2" stroke-miterlimit="10" d="M176.5,54.5c0,0,12.1-23.2,46.1-20s36,40.2,36,40.2"
	/>
<path fill="none" stroke="#000000" stroke-width="2" stroke-miterlimit="10" d="M258,70.3c0,0,3.2-18,23.2-15.9s18.2,25.4,18.2,25.4
	"/>
<path fill="none" stroke="#000000" stroke-width="2" stroke-miterlimit="10" d="M70.5,255.5c0,0,47.5,25,88.5-3s27.5-78.6,27.5-78.6
	"/>
<path fill="none" stroke="#000000" stroke-width="2" stroke-miterlimit="10" d="M180.9,227.7c0,0,42.6,10.3,70.6-19.7
	s17.5-65.5,17.5-65.5"/>
<path fill="none" stroke="#000000" stroke-width="2" stroke-miterlimit="10" d="M266.5,182.5c12.4-2.3,26.1-7.8,37.5-20
	c28-30,17.5-65.5,17.5-65.5"/>
<path fill="none" stroke="#000000" stroke-width="2" stroke-miterlimit="10" d="M389,337l-45-21.7L309,351l36.3,48l50.7-54.3
	l-31.3-38.1c23-22,27.8-45,27.8-45l-17.5-5L349.6,282l-22.1,2l-76-76"/>
<polyline fill="none" stroke="#000000" stroke-width="2" stroke-miterlimit="10" points="328.5,376.8 297.3,353.7 293,325 
	175.8,236.3 "/>
<line fill="none" stroke="#000000" stroke-width="2" stroke-miterlimit="10" x1="317.8" y1="342.1" x2="357.4" y2="386"/>
<line fill="none" stroke="#000000" stroke-width="2" stroke-miterlimit="10" x1="327.3" y1="332.3" x2="371.9" y2="370.5"/>
<line fill="none" stroke="#000000" stroke-width="2" stroke-miterlimit="10" x1="336.4" y1="323.1" x2="385.4" y2="356"/>
</svg>
