<?xml version="1.0" encoding="utf-8"?>
<!-- Generator: Adobe Illustrator 21.0.0, SVG Export Plug-In . SVG Version: 6.00 Build 0)  -->
<!DOCTYPE svg PUBLIC "-//W3C//DTD SVG 1.0//EN" "http://www.w3.org/TR/2001/REC-SVG-20010904/DTD/svg10.dtd">
<svg version="1.0" xmlns="http://www.w3.org/2000/svg" xmlns:xlink="http://www.w3.org/1999/xlink" x="0px" y="0px" width="432px"
	 height="432px" viewBox="0 0 432 432" enable-background="new 0 0 432 432" xml:space="preserve">
<g id="Color">
	<polygon fill="#27AAE1" points="313.5,346.5 351.3,392.6 345.3,399 309.5,350.5 	"/>
	<polygon fill="#27AAE1" points="318.8,343.2 357.4,386 366,376.8 320.2,339.5 	"/>
	<polygon fill="#27AAE1" points="327.3,332.3 330.4,329.2 379.1,362.8 371.9,370.5 	"/>
	<polygon fill="#27AAE1" points="336.4,323.1 339.4,320 391.2,349.8 385.4,356 	"/>
	<polygon fill="#27AAE1" points="375,256.6 354.7,286.3 337.6,290 327.3,283.8 349.7,282 	"/>
	<path fill="#27AAE1" d="M313.3,361l-11-15.3L299,319l-94.7-77.3c17.2-1.6,40.5-7.5,54.2-26.7l-6.9-6.9c0,0-20.7,28.4-70.6,19.7
		l-5.1,8.6l6.5,4.9l0.1,0.5c0,0,0.3,0,0.7,0.1l110,82.6l4.3,29.4l30,21.5L313.3,361z"/>
</g>
<g id="Lines">
	<path fill="none" stroke="#000000" stroke-width="2" stroke-miterlimit="10" d="M37.8,144.5c0,0-3-42.5,40-43
		c17.1-0.2,28.3,5.3,35.6,12.1"/>
	<path fill="none" stroke="#000000" stroke-width="2" stroke-miterlimit="10" d="M107.4,109c0,0,0.3-15.2,14.2-17.5
		c12.9-2.1,19.2,10.5,19.2,10.5"/>
	<path fill="none" stroke="#000000" stroke-width="2" stroke-miterlimit="10" d="M139,108.6c2-11.1,9.1-24.8,32.3-25.8
		c39.5-1.8,40.8,32,40.8,32"/>
	<path fill="none" stroke="#000000" stroke-width="2" stroke-miterlimit="10" d="M176.5,54.5c0,0,12.1-23.2,46.1-20s36,40.2,36,40.2
		"/>
	<path fill="none" stroke="#000000" stroke-width="2" stroke-miterlimit="10" d="M258,70.3c0,0,3.2-18,23.2-15.9
		s18.2,25.4,18.2,25.4"/>
	<path fill="none" stroke="#000000" stroke-width="2" stroke-miterlimit="10" d="M70.5,255.5c0,0,47.5,25,88.5-3
		s27.5-78.6,27.5-78.6"/>
	<path fill="none" stroke="#000000" stroke-width="2" stroke-miterlimit="10" d="M180.9,227.7c0,0,42.6,10.3,70.6-19.7
		s17.5-65.5,17.5-65.5"/>
	<path fill="none" stroke="#000000" stroke-width="2" stroke-miterlimit="10" d="M266.5,182.5c12.4-2.3,26.1-7.8,37.5-20
		c28-30,17.5-65.5,17.5-65.5"/>
	<path fill="none" stroke="#000000" stroke-width="2" stroke-miterlimit="10" d="M389,337l-45-21.7L309,351l36.3,48l50.7-54.3
		l-31.3-38.1c23-22,27.8-45,27.8-45l-17.5-5L349.6,282l-22.1,2l-76-76"/>
	<polyline fill="none" stroke="#000000" stroke-width="2" stroke-miterlimit="10" points="328.5,376.8 297.3,353.7 293,325 
		175.8,236.3 	"/>
	<line fill="none" stroke="#000000" stroke-width="2" stroke-miterlimit="10" x1="317.8" y1="342.1" x2="357.4" y2="386"/>
	<line fill="none" stroke="#000000" stroke-width="2" stroke-miterlimit="10" x1="327.3" y1="332.3" x2="371.9" y2="370.5"/>
	<line fill="none" stroke="#000000" stroke-width="2" stroke-miterlimit="10" x1="336.4" y1="323.1" x2="385.4" y2="356"/>
</g>
<g id="Stroke">
	
		<path opacity="0" fill="none" stroke="#000102" stroke-width="22" stroke-linecap="round" stroke-linejoin="round" stroke-miterlimit="10" d="
		M245.1,202.4c7.9,5,14,12.9,16.9,21.8c-8.3-2.3-16-6.3-22.7-11.7c-0.7,3.4,2.6,6.1,5.3,8.2c2.7,2.1,5.5,5.7,3.7,8.7
		c-1.8,2.9-6.2,2.1-9.4,0.7c-6.1-2.7-11.9-6.2-17.1-10.4c-3.3,7.3,11.1,12.7,9.5,20.5c-10.5-4.7-20.5-10.3-30-16.7
		c-1.3,4.2,2.6,8.2,6.4,10.4c3.8,2.2,8.3,4.3,9.6,8.5c-11.3-2.9-22.7-5.8-34-8.6c-3.8-1-9-1.3-10.5,2.3c11.9,7.1,28.1,1.6,40.4,8
		c-8.9,2.3-17.7,5.4-26.1,9.1c11.8,2.8,25.2-7.3,35.5-1c-8.7,2.3-16.8,7.3-22.6,14.3c11.4-2.3,22.7-4.7,34.1-7
		c-5.1,4.9-9.7,10.3-13.8,16.1c8.3,1.2,16.9-0.3,24.3-4.2c-3.5,5.3-6.2,11.1-8.2,17.1c8.8-1.4,17.6-3.5,26.1-6.2
		c-3.5,6.6-6.5,13.4-9.2,20.3c6.9-1.6,13.5-4.4,19.4-8.4c-1.7,5-3.3,10.1-5,15.1c5.7-0.5,11.3-2.4,16.3-5.3
		c-1.1,6-3.8,11.8-7.7,16.5c8-3.6,15.5-8,23-12.5c18.8-11.2,37.8-22.5,53.3-37.9c6.7-6.6,14.6-14.6,23.8-12.8
		c-13.5,10.9-27,21.8-38.3,34.9c-7.6,8.7-14.1,18.4-22.4,26.5c-6,5.9-12.9,10.9-19,16.7c-7.2,6.9-13.3,14.9-17.9,23.7
		c18.4-6.4,37.1-13,52.9-24.4c25.3-18.1,41.4-47.1,67.4-64.2c-7.6,24.1-27.3,42-46.7,58.2c-19.4,16.1-40,32.5-50.5,55.4
		c27.2-21.7,55.2-42.4,83.9-62c1.4-1,3.6-1.9,4.7-0.5c-13.5,27.7-42.9,44-60.7,69.1c32.8-9.4,51-47.5,83.8-57.1
		c-2.9,9.8-9.6,17.9-16.3,25.6c-11.5,13-23.9,25.4-36.9,36.9c-5.4,4.8-11.2,9.6-18,12"/>
</g>
</svg>
