<?xml version="1.0" encoding="utf-8"?>
<!-- Generator: Adobe Illustrator 21.0.0, SVG Export Plug-In . SVG Version: 6.00 Build 0)  -->
<!DOCTYPE svg PUBLIC "-//W3C//DTD SVG 1.0//EN" "http://www.w3.org/TR/2001/REC-SVG-20010904/DTD/svg10.dtd">
<svg version="1.0" xmlns="http://www.w3.org/2000/svg" xmlns:xlink="http://www.w3.org/1999/xlink" x="0px" y="0px" width="432px"
	 height="432px" viewBox="0 0 432 432" enable-background="new 0 0 432 432" xml:space="preserve">
<g id="Fill">
	<path fill="#27AAE1" d="M164.9,58.5c0,0-24.7,14.6-17.1,56.2c0,0-17.6-14.8-4.6-40.3C143.1,74.5,150.7,57,164.9,58.5z"/>
	<path fill="#27AAE1" d="M147.8,114.7l-1,5.5l-13.3,4.5c0,0-24.1,67.4-17.9,99.6c0,0-4.2,14.4,11.5,14.1c15.7-0.3,80.6,4.4,80.6,4.4
		l-1.4,107.6c0,0-5.1,2.1-5.2,0.4s-1.2-90-1.2-90l2.5-0.9l0.2-13.9l-92.3-1.4c0,0-4.6-12.2-2.3-22.7h-3c0,0,3.3-73.7,25.9-104.6
		l10.5,2.8l3.7-7.9L147.8,114.7z"/>
	<path fill="#27AAE1" d="M137.8,140.8h5.3c0,0,19.8,40.3,22.8,40.1c3-0.2,46,0.8,46,0.8l-48.6,3.1
		C163.3,184.8,140.8,160.2,137.8,140.8z"/>
	<polygon fill="#27AAE1" points="188.3,285.5 172.7,352.6 168.8,352.2 184.7,260.9 187.8,260.8 	"/>
</g>
<g id="Outline">
	
		<ellipse transform="matrix(0.209 -0.9779 0.9779 0.209 39.2799 223.7659)" fill="none" stroke="#000000" stroke-width="2" stroke-miterlimit="10" cx="158" cy="87.6" rx="29.5" ry="18.3"/>
	<line fill="none" stroke="#000000" stroke-width="2" stroke-miterlimit="10" x1="144.9" y1="112.3" x2="141.3" y2="120.2"/>
	<path fill="none" stroke="#000000" stroke-width="2" stroke-miterlimit="10" d="M153.8,116.7c0,0.8-0.8,6.3-0.8,6.3"/>
	<path fill="none" stroke="#000000" stroke-width="2" stroke-miterlimit="10" d="M155.4,174.9c-2.6,23.4-5.1,46.5-5.1,46.5
		c-21.7,10-44,0-44,0c-0.3-66.3,24.5-104,24.5-104s23.2,4,29.9,9.2c0,0-1.3,10-2.7,23"/>
	<path fill="none" stroke="#000000" stroke-width="2" stroke-miterlimit="10" d="M137.8,140.8c0,0,10.2,28.3,25.5,44l47.5-2.3
		l2.5-6.7l-42-3.3c0,0-17.5-28.5-20-37.3"/>
	<line fill="none" stroke="#000000" stroke-width="2" stroke-miterlimit="10" x1="171.3" y1="172.5" x2="163.3" y2="184.8"/>
	<path fill="none" stroke="#000000" stroke-width="2" stroke-miterlimit="10" d="M213.3,175.8h5.5l11.8,7.8l1.2,5.2h-5
		c0,0-2.5-2.5-3.3-2.8s-12.7-3.5-12.7-3.5"/>
	<path fill="none" stroke="#000000" stroke-width="2" stroke-miterlimit="10" d="M159.6,136.5c0,0,11,30.4,22.4,36.9"/>
	<polyline fill="none" stroke="#000000" stroke-width="2" stroke-miterlimit="10" points="206.2,182.7 208.8,185.9 217,186.9 
		220.1,188.8 222.8,185.8 	"/>
	<path fill="none" stroke="#000000" stroke-width="2" stroke-miterlimit="10" d="M97,244.2l-5.5-126.9l14.8-1.1c0,0,1,49.4,1.6,75.9
		"/>
	<polygon fill="none" stroke="#000000" stroke-width="2" stroke-miterlimit="10" points="93,244.2 96.5,262.8 202.5,260.5 
		202.5,246.8 	"/>
	<path fill="none" stroke="#000000" stroke-width="2" stroke-miterlimit="10" d="M107.9,222c0,0-2.2,13.8,2.3,22.7"/>
	<path fill="none" stroke="#000000" stroke-width="2" stroke-miterlimit="10" d="M150.5,220.2c0,0,51.7,9.5,72.4,24
		c0,0-5.9,74.2-13.9,106.2l-8,0.5"/>
	<polyline fill="none" stroke="#000000" stroke-width="2" stroke-miterlimit="10" points="184.2,260.9 170.8,343.8 177.5,343.8 
		189.9,310.5 	"/>
	<polyline fill="none" stroke="#000000" stroke-width="2" stroke-miterlimit="10" points="170.8,343.8 168.8,352.2 192.6,354.7 	"/>
	<line fill="none" stroke="#000000" stroke-width="2" stroke-miterlimit="10" x1="177.5" y1="343.8" x2="191.9" y2="346.2"/>
	<polyline fill="none" stroke="#000000" stroke-width="2" stroke-miterlimit="10" points="99.7,262.8 106.3,369.3 114,369.3 
		112.7,262.4 	"/>
	<polyline fill="none" stroke="#000000" stroke-width="2" stroke-miterlimit="10" points="186.8,260.9 193.5,369.3 201.2,369.3 
		199.8,260.9 	"/>
	<polygon fill="none" stroke="#000000" stroke-width="2" stroke-miterlimit="10" points="209.8,190.2 210.8,197.3 268.5,197.3 
		268.5,190 	"/>
	<polyline fill="none" stroke="#000000" stroke-width="2" stroke-miterlimit="10" points="298.5,139.2 266.4,187.7 270.2,190 
		304.3,143.8 298.5,139.2 283.7,140.2 258.8,183.7 230.7,183.7 	"/>
	<line fill="none" stroke="#000000" stroke-width="2" stroke-miterlimit="10" x1="258.8" y1="183.7" x2="267.5" y2="188.3"/>
	<line fill="none" stroke="#000000" stroke-width="2" stroke-miterlimit="10" x1="209.5" y1="190" x2="214.2" y2="186.4"/>
	<rect x="194" y="197.3" fill="none" stroke="#000000" stroke-width="2" stroke-miterlimit="10" width="146" height="12"/>
	<polyline fill="none" stroke="#000000" stroke-width="2" stroke-miterlimit="10" points="227.3,209.3 228.7,374.3 334,373 
		334,209.3 	"/>
	<line fill="none" stroke="#000000" stroke-width="2" stroke-miterlimit="10" x1="201.2" y1="357.8" x2="228.6" y2="361.2"/>
	<line fill="none" stroke="#000000" stroke-width="2" stroke-miterlimit="10" x1="208.9" y1="350.5" x2="228.5" y2="351"/>
	<path fill="none" stroke="#000000" stroke-width="2" stroke-miterlimit="10" d="M154.5,60.4c2,1.4,11,10.5,22.8,3.5"/>
	<path fill="none" stroke="#000000" stroke-width="2" stroke-miterlimit="10" d="M150.1,63.5c0,0,9.2,12,29.5,6.3"/>
	<path fill="none" stroke="#000000" stroke-width="2" stroke-miterlimit="10" d="M146.8,68.8c0,0,15,13.4,35,5.9"/>
</g>
<g id="Stroke">
	
		<path opacity="0" fill="none" stroke="#000000" stroke-width="21" stroke-linecap="round" stroke-linejoin="round" stroke-miterlimit="10" d="
		M142.4,52c13.6,1.7,27,4.6,40.1,8.7c-13.1,1.7-26.3,2.6-39.5,2.8c3.7,3.7,8.5,6.1,13.7,6.9c-4.5,5.1-11.6,7.7-18.3,6.7
		c4.3,3,9.3,5,14.5,5.9c-8.5,1.9-17,4-25.4,6.3c7,4.6,15.3,7.3,23.7,7.6c-6.9,2.3-13.7,4.6-20.6,6.9c10.4,2.8,20.7,5.6,31.1,8.4
		c-8.4,5.6-19.5,6.9-29,3.4c2.2,2,4.7,3.6,7.4,4.7c-7.9-0.8-15.9-0.3-23.6,1.6c20.6,7.7,42.8,11.4,64.8,10.8
		c-21.1,1.4-42.1,2.8-63.1,4.7c-7.5,0.7-15.6,1.7-21.2,6.7c30.1,2.9,60.4,3.9,90.6,3c-29.5,7.6-61.9,4.4-89.3,17.8
		c31.4,1.6,62.9,1.5,94.4-0.4c-4.4,0.9-8.8,1.9-13.2,3c-4,1.1-7.7,0.8-11.8,1c-8.8,0.6-17.4,2.8-25.8,5.6c-11,3.6-21.8,8.1-33,11
		c-7.5,1.9-15.6,3.3-21.1,8.7c-0.3,0.3-0.6,0.7-0.7,1.1c-0.1,1.1,1.4,1.4,2.5,1.4c11-0.6,21.9-1.2,32.9-1.7
		c4.5-0.2,9.1-0.5,13.5-1.6c2.7-0.7,5.4-1.7,8.1-2.6c11.4-3.7,23.9-5,35.7-6.3c13.6-1.5,27.2-3.1,40.8-4.9c-1.8,4-6.1,6.2-10.1,7.9
		c-41.1,16.7-89.6,10.1-129.1,30.3c13.3,2.2,26.9,1.7,40.3,1.1c29.4-1.3,58.8-2.6,88.3-3.9c-24.4,10.1-50.2,16.9-76.4,20.2
		c-11.1,1.4-22.6,2.2-32.6,7.2c45.2-0.1,90.4-0.2,135.6-0.4c-27.5,6.1-55.2,12.4-80.9,23.8c23.8,1.6,47.5,3.3,71.3,4.9
		c-26.4,1.5-52.8,3.1-79.2,4.6c26.8,7.7,54.9,10.5,82.8,10.4c-25.6,3-50.7,9.5-74.6,19c20.7,1.2,41.6,2.4,61.7,7.7
		c-16.7,1.1-33.3,4.2-49.2,9.2c25.3,3.1,50.4,7.7,75.2,13.7c-31.9,8-65-4.1-97.7-7.1c27.3,5.8,54.9,11.6,80.4,23
		c-22.3-3.3-44.7-6.6-67.2-6.2c5.6,6.1,14.5,9.1,22.6,7.5"/>
</g>
</svg>
