<?xml version="1.0" encoding="utf-8"?>
<!-- Generator: Adobe Illustrator 19.2.1, SVG Export Plug-In . SVG Version: 6.00 Build 0)  -->
<svg version="1.0" id="Layer_1" xmlns="http://www.w3.org/2000/svg" xmlns:xlink="http://www.w3.org/1999/xlink" x="0px" y="0px"
	 width="432px" height="432px" viewBox="0 0 432 432" enable-background="new 0 0 432 432" xml:space="preserve">
<path fill="none" stroke="#000000" stroke-width="2" stroke-miterlimit="10" d="M178.7,57.2c0,0,20.1,10.1,42.3,0V23.5l-10.2,9.2
	L199.9,7.1L188,33.8l-11.5-11.1L178.7,57.2z"/>
<path fill="none" stroke="#000000" stroke-width="2" stroke-miterlimit="10" d="M215.2,59.2c4.9,6.5,8,16.2,8,27.1
	c0,19.6-10,35.4-22.4,35.4c-12.4,0-22.4-15.9-22.4-35.4c0-10.3,2.8-19.6,7.3-26.1"/>
<path fill="none" stroke="#000000" stroke-width="2" stroke-miterlimit="10" d="M178.7,57.2c0,0-10.6,8.6-10.9,24.8
	s-3.2,33.6-3.2,33.6s8.5,5.1,15.7,5.5"/>
<path fill="none" stroke="#000000" stroke-width="2" stroke-miterlimit="10" d="M220.5,57.3c0,0,10.6,8.6,10.9,24.8
	c0.2,16.1,3.2,33.6,3.2,33.6s-5.4,3.2-11.2,4.7"/>
<path fill="none" stroke="#000000" stroke-width="2" stroke-miterlimit="10" d="M178.7,92.7c0,0,7.3,2.6,12.8,1
	c5.6-1.6,7.2-3.3,9.8-3.3c2.6,0,5.2,2.8,9.2,3.8C214.7,95.2,223,91,223,91"/>
<path fill="none" stroke="#000000" stroke-width="2" stroke-miterlimit="10" d="M152.4,139.7c0,0,47.9,56.4,97.5,5.3l-34.6-31.8"/>
<path fill="none" stroke="#000000" stroke-width="2" stroke-miterlimit="10" d="M178.2,159.6l-1.2,75.1c0,0,29,11.2,53.3-0.7
	l-4.7-71.7"/>
<path fill="none" stroke="#000000" stroke-width="2" stroke-miterlimit="10" d="M188.2,115.6l-48.4,32.7c0,0,19.6,54.5,37.5,73.3"/>
<path fill="none" stroke="#000000" stroke-width="2" stroke-miterlimit="10" d="M168.3,153.6c-0.8,0.4-21.7,12.8-21.7,12.8"/>
<path fill="none" stroke="#000000" stroke-width="2" stroke-miterlimit="10" d="M160.2,158.3c0,0,12.7,37,17.3,42.3"/>
<polyline fill="none" stroke="#000000" stroke-width="2" stroke-miterlimit="10" points="169.5,212.5 162.4,219.8 177,225.9 "/>
<polyline fill="none" stroke="#000000" stroke-width="2" stroke-miterlimit="10" points="225.6,162.3 246,188.8 285.3,169.5 
	281.5,161.1 251.5,172.4 240.2,153.6 "/>
<line fill="none" stroke="#000000" stroke-width="2" stroke-miterlimit="10" x1="251.5" y1="172.4" x2="246" y2="188.8"/>
<polyline fill="none" stroke="#000000" stroke-width="2" stroke-miterlimit="10" points="304.5,150.1 290.4,157.5 291,169.1 
	305.5,171.2 305.5,149.5 283.1,148.9 281.5,161.1 "/>
<line fill="none" stroke="#000000" stroke-width="2" stroke-miterlimit="10" x1="285.3" y1="169.5" x2="291" y2="169.1"/>
<line fill="none" stroke="#000000" stroke-width="2" stroke-miterlimit="10" x1="290.6" y1="160" x2="304.8" y2="157.1"/>
<line fill="none" stroke="#000000" stroke-width="2" stroke-miterlimit="10" x1="291" y1="163.4" x2="305.5" y2="162.9"/>
<line fill="none" stroke="#000000" stroke-width="2" stroke-miterlimit="10" x1="291" y1="166.4" x2="304.8" y2="167.4"/>
<circle fill="none" stroke="#000000" stroke-width="2" stroke-miterlimit="10" cx="295.6" cy="115.6" r="6.1"/>
<path fill="none" stroke="#000000" stroke-width="2" stroke-miterlimit="10" d="M293.5,121.7c0,0,0,12.2,0,27.3"/>
<path fill="none" stroke="#000000" stroke-width="2" stroke-miterlimit="10" d="M293.5,169.2c0,18.8,0,36.1,0,36.1h6.2
	c0,0-0.4-16.7-0.8-35.2"/>
<path fill="none" stroke="#000000" stroke-width="2" stroke-miterlimit="10" d="M298.3,149.3c-0.4-15.2-0.7-27.6-0.7-27.6"/>
<path fill="none" stroke="#000000" stroke-width="2" stroke-miterlimit="10" d="M254.6,171.1c-2.9-15.9-4.8-26.1-4.8-26.1"/>
<polyline fill="none" stroke="#000000" stroke-width="2" stroke-miterlimit="10" points="177,234.7 172.7,404.3 181.3,404.3 
	203.7,239.4 "/>
<polyline fill="none" stroke="#000000" stroke-width="2" stroke-miterlimit="10" points="206.3,239.4 229.3,404.3 238.2,403.5 
	230.3,234 "/>
<polyline fill="none" stroke="#000000" stroke-width="2" stroke-miterlimit="10" points="172.7,404.3 134.2,416 156,426.2 
	181.4,410.1 181.3,404.3 "/>
<polyline fill="none" stroke="#000000" stroke-width="2" stroke-miterlimit="10" points="238.2,403.5 276.6,416 254.9,426.3 
	229.5,410.1 229.6,404.3 "/>
<path fill="none" stroke="#000000" stroke-width="2" stroke-miterlimit="10" d="M143.1,157.1l-16.6,192.4c0,0,18,15.7,47,24.5"/>
<path fill="none" stroke="#000000" stroke-width="2" stroke-miterlimit="10" d="M237.8,376.8c15.9-3.4,32.8-10.2,50.3-21.8
	c0,0-20.2-110.6-31.2-171.3"/>
<path fill="none" stroke="#000000" stroke-width="2" stroke-miterlimit="10" d="M185.2,377c12.1,2.5,25.8,3.6,40.4,1.9"/>
</svg>
