<?xml version="1.0" encoding="utf-8"?>
<!-- Generator: Adobe Illustrator 19.2.1, SVG Export Plug-In . SVG Version: 6.00 Build 0)  -->
<svg version="1.0" id="Layer_1" xmlns="http://www.w3.org/2000/svg" xmlns:xlink="http://www.w3.org/1999/xlink" x="0px" y="0px"
	 width="432px" height="432px" viewBox="0 0 432 432" enable-background="new 0 0 432 432" xml:space="preserve">
<path fill="none" stroke="#000000" stroke-width="2" stroke-miterlimit="10" d="M169,267.5c-4.7,29-29.9,51.2-60.3,51.2
	c-33.7,0-61.1-27.3-61.1-61.1s27.3-61.1,61.1-61.1c16.1,0,30.7,6.2,41.6,16.4"/>
<path fill="none" stroke="#000000" stroke-width="2" stroke-miterlimit="10" d="M154.8,217.7c0.6,0.7,1.2,1.4,1.7,2.1l3.6,5.1
	c6,9.5,9.6,20.7,9.6,32.8c0,1.5-0.1,3-0.2,4.5"/>
<path fill="none" stroke="#000000" stroke-width="2" stroke-miterlimit="10" d="M298.1,202.4c7.9-3.7,16.7-5.8,25.9-5.8
	c33.7,0,61.1,27.3,61.1,61.1s-27.3,61.1-61.1,61.1S263,291.4,263,257.7c0-22.5,12.2-42.1,30.3-52.7"/>
<path fill="none" stroke="#000000" stroke-width="2" stroke-miterlimit="10" d="M224,274.4c-3.5,4.3-8.9,7.1-15,7.1
	c-10.7,0-19.3-8.6-19.3-19.3c0-10.7,8.6-19.3,19.3-19.3s19.3,8.6,19.3,19.3c0,2.9-0.7,5.7-1.8,8.2"/>
<path fill="none" stroke="#000000" stroke-width="2" stroke-miterlimit="10" d="M322.5,249.6c0.5-0.1,1-0.1,1.6-0.1
	c4.5,0,8.2,3.7,8.2,8.2c0,4.5-3.7,8.2-8.2,8.2c-4.5,0-8.2-3.7-8.2-8.2c0-1.3,0.3-2.6,0.9-3.7"/>
<path fill="none" stroke="#000000" stroke-width="2" stroke-miterlimit="10" d="M167.5,163.8c0,0-1.8-15.8-18.9-17.3
	c-17.1-1.4-32.1-1.6-32.1-1.6l1,18.9H167.5z"/>
<polygon fill="none" stroke="#000000" stroke-width="2" stroke-miterlimit="10" points="229.7,288.4 253.3,271.7 255.2,278.4 
	236.1,292 "/>
<polyline fill="none" stroke="#000000" stroke-width="2" stroke-miterlimit="10" points="244.8,277.7 209,264.3 209,267.9 
	241.2,280.3 "/>
<line fill="none" stroke="#000000" stroke-width="2" stroke-miterlimit="10" x1="136" y1="163.8" x2="204.9" y2="243.3"/>
<line fill="none" stroke="#000000" stroke-width="2" stroke-miterlimit="10" x1="143.8" y1="163.8" x2="211.6" y2="243.1"/>
<path fill="none" stroke="#000000" stroke-width="2" stroke-miterlimit="10" d="M166,198.3l-69.5,63.9c0,0-2.8,4.9,0,4.9
	s93.3,0,93.3,0"/>
<polyline fill="none" stroke="#000000" stroke-width="2" stroke-miterlimit="10" points="169,203.4 107,262.2 189.7,262.2 "/>
<path fill="none" stroke="#000000" stroke-width="2" stroke-miterlimit="10" d="M328.6,257.2l-21.2-25.4l-29-85.1l6-30.8l-6.6-1.7
	l-3.4,27.5l-31.1-6.7l-1.1,7.5l30.6,5.2l3.5,9.4l26.9,77.7l18.9,26.5C322.2,261.4,326,263.2,328.6,257.2z"/>
<line fill="none" stroke="#000000" stroke-width="2" stroke-miterlimit="10" x1="279.9" y1="167.4" x2="164.6" y2="188.1"/>
<line fill="none" stroke="#000000" stroke-width="2" stroke-miterlimit="10" x1="161" y1="183.9" x2="278.3" y2="162.8"/>
<path fill="none" stroke="#000000" stroke-width="2" stroke-miterlimit="10" d="M281.4,171.7c-1.4,0.9-62.2,74.1-62.2,74.1"/>
<path fill="none" stroke="#000000" stroke-width="2" stroke-miterlimit="10" d="M278.3,167.8c-0.3,0.1-63.4,76-63.4,76"/>
</svg>
