<?xml version="1.0" encoding="utf-8"?>
<!-- Generator: Adobe Illustrator 21.0.0, SVG Export Plug-In . SVG Version: 6.00 Build 0)  -->
<!DOCTYPE svg PUBLIC "-//W3C//DTD SVG 1.0//EN" "http://www.w3.org/TR/2001/REC-SVG-20010904/DTD/svg10.dtd">
<svg version="1.0" id="Layer_1" xmlns="http://www.w3.org/2000/svg" xmlns:xlink="http://www.w3.org/1999/xlink" x="0px" y="0px"
	 width="432px" height="432px" viewBox="0 0 432 432" enable-background="new 0 0 432 432" xml:space="preserve">
<path fill="none" stroke="#000000" stroke-width="6" stroke-miterlimit="10" d="M297.9,215.2L297.9,215.2c2.8-8.6,4.4-17.7,4.4-27.2
	c0-47.6-38.6-86.2-86.2-86.2s-86.2,38.6-86.2,86.2c0,9.5,1.6,18.7,4.4,27.2l0,0l0.1,0.3c1.2,3.4,2.5,6.8,4.1,10l43.2,106.2H216h34.5
	l43.2-106.2c1.6-3.2,2.9-6.6,4.1-10L297.9,215.2z"/>
<polyline fill="none" stroke="#000000" stroke-width="6" stroke-miterlimit="10" points="181.5,331.8 175,337.2 181.5,341.8 
	252,341.8 258,336.8 250.5,331.8 "/>
<polyline fill="none" stroke="#000000" stroke-width="6" stroke-miterlimit="10" points="181,341.8 174.5,347.2 181,351.8 
	251.5,351.8 257.5,346.8 250,341.8 "/>
<polyline fill="none" stroke="#000000" stroke-width="6" stroke-miterlimit="10" points="181,351.8 174.5,357.2 181,361.8 
	251.5,361.8 257.5,356.8 250,351.8 "/>
<polyline fill="none" stroke="#000000" stroke-width="6" stroke-miterlimit="10" points="181,361.8 174.5,367.2 181,371.8 
	251.5,371.8 257.5,366.8 250,361.8 "/>
<polyline fill="none" stroke="#000000" stroke-width="6" stroke-miterlimit="10" points="181,371.8 174.5,377.2 181,381.8 
	251.5,381.8 257.5,376.8 250,371.8 "/>
<polyline fill="none" stroke="#000000" stroke-width="6" stroke-miterlimit="10" points="181,382.2 174.5,387.8 181,392.2 
	251.5,392.2 257.5,387.2 250,382.2 "/>
<polyline fill="none" stroke="#000000" stroke-width="6" stroke-miterlimit="10" points="251.5,392.2 245,410.2 188.5,410.2 
	181,392.2 "/>
<line fill="none" stroke="#000000" stroke-width="6" stroke-miterlimit="10" x1="154" y1="297.2" x2="93.5" y2="307.2"/>
<line fill="none" stroke="#000000" stroke-width="6" stroke-miterlimit="10" x1="138" y1="256.2" x2="65" y2="260.8"/>
<path fill="none" stroke="#000000" stroke-width="6" stroke-miterlimit="10" d="M123.8,213.8c-5.2-1.5-81.8-4.5-81.8-4.5"/>
<path fill="none" stroke="#000000" stroke-width="6" stroke-miterlimit="10" d="M116,173.8c-2.5-1.5-74-32-74-32"/>
<path fill="none" stroke="#000000" stroke-width="6" stroke-miterlimit="10" d="M133.5,128.8c-1-2-66-39-66-39"/>
<line fill="none" stroke="#000000" stroke-width="6" stroke-miterlimit="10" x1="170" y1="104.8" x2="129.8" y2="52.2"/>
<line fill="none" stroke="#000000" stroke-width="6" stroke-miterlimit="10" x1="202" y1="81.8" x2="192" y2="26.8"/>
<line fill="none" stroke="#000000" stroke-width="6" stroke-miterlimit="10" x1="244" y1="89.8" x2="262.5" y2="31.2"/>
<line fill="none" stroke="#000000" stroke-width="6" stroke-miterlimit="10" x1="287.5" y1="116.2" x2="333" y2="64.8"/>
<line fill="none" stroke="#000000" stroke-width="6" stroke-miterlimit="10" x1="302.2" y1="146.2" x2="368.5" y2="119.8"/>
<line fill="none" stroke="#000000" stroke-width="6" stroke-miterlimit="10" x1="313" y1="184.2" x2="381" y2="178.8"/>
<line fill="none" stroke="#000000" stroke-width="6" stroke-miterlimit="10" x1="307.5" y1="221.2" x2="383.5" y2="239.2"/>
<line fill="none" stroke="#000000" stroke-width="6" stroke-miterlimit="10" x1="297.5" y1="260.8" x2="368.5" y2="278.8"/>
<line fill="none" stroke="#000000" stroke-width="6" stroke-miterlimit="10" x1="279" y1="307.2" x2="329" y2="320.2"/>
</svg>
