<?xml version="1.0" encoding="utf-8"?>
<!-- Generator: Adobe Illustrator 19.2.1, SVG Export Plug-In . SVG Version: 6.00 Build 0)  -->
<svg version="1.0" id="Layer_1" xmlns="http://www.w3.org/2000/svg" xmlns:xlink="http://www.w3.org/1999/xlink" x="0px" y="0px"
	 width="432px" height="432px" viewBox="0 0 432 432" enable-background="new 0 0 432 432" xml:space="preserve">
<path fill="none" stroke="#000000" stroke-width="2" stroke-miterlimit="10" d="M317.5,270.1H114.9c-6.5,0-11.9-5.3-11.9-11.9v-39.9
	c0-6.5,5.3-11.9,11.9-11.9h202.6c6.5,0,11.9,5.3,11.9,11.9v39.9C329.3,264.8,324,270.1,317.5,270.1z"/>
<path fill="none" stroke="#000000" stroke-width="2" stroke-miterlimit="10" d="M320.3,207l-33.2-28.6c0,0-15-49-16.3-49
	c-1.3,0-108.7,0-108.7,0l-11.2,49L110.2,207"/>
<path fill="none" stroke="#000000" stroke-width="2" stroke-miterlimit="10" d="M152.4,172.1c-1.9-0.2-24.4-1.7-24.4-1.7
	s-4,14.2-3.2,14.2s15.5,1.3,15.5,1.3"/>
<path fill="none" stroke="#000000" stroke-width="2" stroke-miterlimit="10" d="M284.6,170.4l18.8-2.2c0,0,5,12.7,4.2,12.7
	s-17.7,0-17.7,0"/>
<polygon fill="none" stroke="#000000" stroke-width="2" stroke-miterlimit="10" points="172.5,137.9 159.7,178.2 272.2,178.2 
	263.2,139.4 "/>
<g>
	<circle fill="none" stroke="#000000" stroke-width="2" stroke-miterlimit="10" cx="128.5" cy="240.6" r="17.1"/>
	<circle fill="none" stroke="#000000" stroke-width="2" stroke-miterlimit="10" cx="303.8" cy="240.6" r="17.1"/>
</g>
<path fill="none" stroke="#000000" stroke-width="2" stroke-miterlimit="10" d="M142.8,231.1c0,0,19.6,0,44.5,0"/>
<path fill="none" stroke="#000000" stroke-width="2" stroke-miterlimit="10" d="M245.8,231.1c24.5,0,43.7,0,43.7,0"/>
<path fill="none" stroke="#000000" stroke-width="2" stroke-miterlimit="10" d="M145.6,239.4c0,0,18.1,0,41.3,0"/>
<path fill="none" stroke="#000000" stroke-width="2" stroke-miterlimit="10" d="M245.2,239.4c23.3,0,41.5,0,41.5,0"/>
<path fill="none" stroke="#000000" stroke-width="2" stroke-miterlimit="10" d="M144.1,248.4c0,0,19.1,0,43.4,0"/>
<path fill="none" stroke="#000000" stroke-width="2" stroke-miterlimit="10" d="M246.2,248.4c23.7,0,42.1,0,42.1,0"/>
<path fill="none" stroke="#000000" stroke-width="2" stroke-miterlimit="10" d="M136.8,255.7c0,0,22.4,0,50.4,0"/>
<path fill="none" stroke="#000000" stroke-width="2" stroke-miterlimit="10" d="M245,255.7c28.1,0,50.6,0,50.6,0"/>
<rect x="187.2" y="228.7" fill="none" stroke="#000000" stroke-width="2" stroke-miterlimit="10" width="58" height="29.1"/>
<path fill="none" stroke="#000000" stroke-width="2" stroke-miterlimit="10" d="M151,269.9c0,6.6,0,22.7,0,22.7c0,5.5-4.5,10-10,10
	h-12.2c-5.5,0-10-4.5-10-10c0,0,0-16.1,0-22.7"/>
<path fill="none" stroke="#000000" stroke-width="2" stroke-miterlimit="10" d="M316.4,269.9c0,6.6,0,22.7,0,22.7
	c0,5.5-4.5,10-10,10h-12.2c-5.5,0-10-4.5-10-10c0,0,0-16.1,0-22.7"/>
</svg>
