<?xml version="1.0" encoding="utf-8"?>
<!-- Generator: Adobe Illustrator 21.0.0, SVG Export Plug-In . SVG Version: 6.00 Build 0)  -->
<!DOCTYPE svg PUBLIC "-//W3C//DTD SVG 1.0//EN" "http://www.w3.org/TR/2001/REC-SVG-20010904/DTD/svg10.dtd">
<svg version="1.0" id="Layer_1" xmlns="http://www.w3.org/2000/svg" xmlns:xlink="http://www.w3.org/1999/xlink" x="0px" y="0px"
	 width="432px" height="432px" viewBox="0 0 432 432" enable-background="new 0 0 432 432" xml:space="preserve">
<g id="Layer_1_1_">
	<path fill="none" stroke="#000000" stroke-width="2" stroke-miterlimit="10" d="M216.2,306.8c-4.4,27-27.8,47.6-56.1,47.6
		c-31.4,0-56.8-25.4-56.8-56.8s25.4-56.8,56.8-56.8c15,0,28.6,5.8,38.7,15.2"/>
	<path fill="none" stroke="#000000" stroke-width="2" stroke-miterlimit="10" d="M203,260.4c0.6,0.6,1.1,1.3,1.6,2l3.4,4.7
		c5.6,8.8,8.9,19.3,8.9,30.5c0,1.4-0.1,2.8-0.1,4.2"/>
	<path fill="none" stroke="#000000" stroke-width="2" stroke-miterlimit="10" d="M336.3,246.2c7.3-3.4,15.5-5.4,24.1-5.4
		c31.4,0,56.8,25.4,56.8,56.8s-25.4,56.8-56.8,56.8s-56.8-25.4-56.8-56.8c0-20.9,11.3-39.2,28.2-49.1"/>
	<path fill="none" stroke="#000000" stroke-width="2" stroke-miterlimit="10" d="M267.4,313.2c-3.3,4-8.3,6.6-13.9,6.6
		c-9.9,0-17.9-8-17.9-17.9s8-17.9,17.9-17.9s17.9,8,17.9,17.9c0,2.7-0.6,5.3-1.7,7.7"/>
	<path fill="none" stroke="#000000" stroke-width="2" stroke-miterlimit="10" d="M359,290.1c0.5-0.1,0.9-0.1,1.4-0.1
		c4.2,0,7.7,3.4,7.7,7.7c0,4.2-3.4,7.7-7.7,7.7c-4.2,0-7.7-3.4-7.7-7.7c0-1.2,0.3-2.4,0.8-3.4"/>
	<path fill="none" stroke="#000000" stroke-width="2" stroke-miterlimit="10" d="M184.5,193.3c-9.7-0.5-17.1-0.6-17.1-0.6l0.9,17.6
		c0,0,32,0,42.9,0"/>
	<polygon fill="none" stroke="#000000" stroke-width="2" stroke-miterlimit="10" points="272.7,326.3 294.6,310.8 296.4,317 
		278.6,329.6 	"/>
	<path fill="none" stroke="#000000" stroke-width="2" stroke-miterlimit="10" d="M279,313.4c-9.8-3.7-25.5-9.6-25.5-9.6v3.4
		c0,0,18.2,7,26.2,10.1"/>
	<line fill="none" stroke="#000000" stroke-width="2" stroke-miterlimit="10" x1="185.5" y1="210.3" x2="249.6" y2="284.3"/>
	<line fill="none" stroke="#000000" stroke-width="2" stroke-miterlimit="10" x1="192.7" y1="210.3" x2="255.9" y2="284.1"/>
	<path fill="none" stroke="#000000" stroke-width="2" stroke-miterlimit="10" d="M213.4,242.4l-64.6,59.4c0,0-2.6,4.5,0,4.5
		s86.8,0,86.8,0"/>
	<polyline fill="none" stroke="#000000" stroke-width="2" stroke-miterlimit="10" points="216.2,247.2 158.5,301.9 235.5,301.9 	"/>
	<path fill="none" stroke="#000000" stroke-width="2" stroke-miterlimit="10" d="M292.9,185.2c-4.3-0.9-7.5-1.6-7.5-1.6l-1,7
		c0,0,2.9,0.5,6.8,1.1"/>
	<path fill="none" stroke="#000000" stroke-width="2" stroke-miterlimit="10" d="M304.2,193.9c4.5,0.8,8.6,1.5,8.6,1.5l3.3,8.8
		l25.1,72.3l17.6,24.7c0,0,3.6,1.7,6-3.9L345,273.6l-27-79.2c0,0,1.9-10.1,3.5-18.3"/>
	<path fill="none" stroke="#000000" stroke-width="2" stroke-miterlimit="10" d="M323,168.4c0.3-1.6,0.5-2.7,0.5-2.7l-6.1-1.5
		c0,0-0.1,0.6-0.2,1.6"/>
	<path fill="none" stroke="#000000" stroke-width="2" stroke-miterlimit="10" d="M316.2,174c-0.9,7.1-2,15.8-2,15.8
		s-4.1-0.9-8.4-1.8"/>
	<path fill="none" stroke="#000000" stroke-width="2" stroke-miterlimit="10" d="M319.4,213.7c0,0-26.5,4.8-53.2,9.5"/>
	<path fill="none" stroke="#000000" stroke-width="2" stroke-miterlimit="10" d="M239.2,228c-15.5,2.8-27.1,4.9-27.1,4.9"/>
	<path fill="none" stroke="#000000" stroke-width="2" stroke-miterlimit="10" d="M208.7,229c0,0,10.2-1.8,24.3-4.4"/>
	<path fill="none" stroke="#000000" stroke-width="2" stroke-miterlimit="10" d="M261.3,219.5c27.9-5,56.6-10.2,56.6-10.2"/>
	<path fill="none" stroke="#000000" stroke-width="2" stroke-miterlimit="10" d="M320.8,217.7c-0.8,0.5-18.9,22.2-34.7,41.1"/>
	<path fill="none" stroke="#000000" stroke-width="2" stroke-miterlimit="10" d="M274.5,272.7c-6.8,8.2-11.6,14-11.6,14"/>
	<path fill="none" stroke="#000000" stroke-width="2" stroke-miterlimit="10" d="M317.9,214c-0.2,0-16.2,19.3-31.5,37.6"/>
	<path fill="none" stroke="#000000" stroke-width="2" stroke-miterlimit="10" d="M273.7,266.9c-8.5,10.2-14.8,17.8-14.8,17.8"/>
	
		<ellipse transform="matrix(0.2154 -0.9765 0.9765 0.2154 97.0134 308.1335)" fill="none" stroke="#000000" stroke-width="2" stroke-miterlimit="10" cx="240.3" cy="93.7" rx="23.7" ry="15"/>
	<path fill="none" stroke="#000000" stroke-width="2" stroke-miterlimit="10" d="M230.2,114.1c0,0-1.7,3.4-2.7,5.4"/>
	<path fill="none" stroke="#000000" stroke-width="2" stroke-miterlimit="10" d="M234.7,122.6c1.1-2,2.9-5.6,2.9-5.6"/>
	<path fill="none" stroke="#000000" stroke-width="2" stroke-miterlimit="10" d="M226.5,160.1c-8.1,13.8-15.1,25.8-15.1,25.8
		l-24.5-7.8l29.3-63.3c1.4,0.5,29.2,13,29.2,13s-5.1,8.7-11.3,19.3"/>
	<polyline fill="none" stroke="#000000" stroke-width="2" stroke-miterlimit="10" points="186.9,178.2 181.4,191.3 271.4,248.8 
		280.3,320.2 284.6,317.9 286.7,237 211.4,185.9 	"/>
	<path fill="none" stroke="#000000" stroke-width="2" stroke-miterlimit="10" d="M220,131.1c0,0,32.8,39.1,33.5,39.3
		c0.5,0.2,24.2,6.9,36,10.2"/>
	<path fill="none" stroke="#000000" stroke-width="2" stroke-miterlimit="10" d="M289.3,184.4c-0.1,0,0-3.8,0-3.8h14.8l1.5,10.1
		l-3.6,6c0,0-12.2-0.8-12.1-1.6s1.9-10.1,1.9-10.1"/>
	<path fill="none" stroke="#000000" stroke-width="2" stroke-miterlimit="10" d="M211.3,144.4c6.7,5.9,32.9,35.4,32.9,35.4l40.2,8.3
		"/>
	<path fill="none" stroke="#000000" stroke-width="2" stroke-miterlimit="10" d="M248.5,178.7"/>
	<path fill="none" stroke="#000000" stroke-width="2" stroke-miterlimit="10" d="M253.2,171"/>
	<path fill="none" stroke="#000000" stroke-width="2" stroke-miterlimit="10" d="M284.7,311.8c0.4-0.3,14.9-17.1,14.9-17.1l1.3,11.6
		l-16.3,11.6L284.7,311.8z"/>
	<path fill="none" stroke="#000000" stroke-width="2" stroke-miterlimit="10" d="M241.7,134.7c9.7,8.6,25.1,22.2,25.1,22.2
		l44.7,11.3l4.2-2.4c0,0,8.9,2.9,8.9,3.6c0,0.7-3,6.8-3,6.8l-5.4-1.2"/>
	<polyline fill="none" stroke="#000000" stroke-width="2" stroke-miterlimit="10" points="315.5,179.8 310.5,173.5 262.9,168.6 
		235.5,149.5 	"/>
	<line fill="none" stroke="#000000" stroke-width="2" stroke-miterlimit="10" x1="266.8" y1="156.8" x2="262.9" y2="168.6"/>
	<line fill="none" stroke="#000000" stroke-width="2" stroke-miterlimit="10" x1="253.2" y1="171" x2="244.1" y2="179.8"/>
	
		<ellipse transform="matrix(0.4004 -0.9163 0.9163 0.4004 -10.5894 171.5855)" fill="none" stroke="#000000" stroke-width="2" stroke-miterlimit="10" cx="125.8" cy="93.9" rx="23.7" ry="15"/>
	<path fill="none" stroke="#000000" stroke-width="2" stroke-miterlimit="10" d="M112,112c0,0-2.3,3-3.6,4.8"/>
	<path fill="none" stroke="#000000" stroke-width="2" stroke-miterlimit="10" d="M114.8,121.2c1.4-1.8,3.9-4.9,3.9-4.9"/>
	<path fill="none" stroke="#000000" stroke-width="2" stroke-miterlimit="10" d="M99.5,156.4c-10.6,12-31.1,37.9-31.1,37.9
		l-24.6-16.1L98.1,110c1.3,0.7,26.2,18.4,26.2,18.4s-6.7,7.5-14.8,16.8"/>
	<path fill="none" stroke="#000000" stroke-width="2" stroke-miterlimit="10" d="M87.6,138c5.4,7.1,25.4,41.1,25.4,41.1l39,27.7
		l10.2,10.8l14.9-7.4h-8.8l-8.6-6.2l7.7-2.6c0,0,1.1-4.3,0-4.7s-10,0-10,0c-10.9-5.6-32.9-24.7-33.4-24.9
		c-0.6-0.4-25.3-45.1-25.3-45.1"/>
	<line fill="none" stroke="#000000" stroke-width="2" stroke-miterlimit="10" x1="123.5" y1="172.3" x2="113" y2="179.2"/>
	<path fill="none" stroke="#000000" stroke-width="2" stroke-miterlimit="10" d="M68.3,193.3l26,143.7h-7.6L57.2,208.9L21.4,337.1
		c0,0-9,1.1-8.1-0.9c0.9-1.9,30.4-158,30.4-158"/>
	<path fill="none" stroke="#000000" stroke-width="2" stroke-miterlimit="10" d="M94.3,337.1l23,2.6l-1.6,9.3c0,0-29.2-6-29-5.9
		c0.2,0.1,0-5.9,0-5.9"/>
	<polyline fill="none" stroke="#000000" stroke-width="2" stroke-miterlimit="10" points="13.3,336.2 9.6,344.6 42.8,348.9 
		44.9,339.3 21.4,337.1 	"/>
	<path fill="none" stroke="#000000" stroke-width="2" stroke-miterlimit="10" d="M142.6,86"/>
	<path fill="none" stroke="#000000" stroke-width="2" stroke-miterlimit="10" d="M116.8,77.3"/>
</g>
</svg>
