<?xml version="1.0" encoding="utf-8"?>
<!-- Generator: Adobe Illustrator 19.2.1, SVG Export Plug-In . SVG Version: 6.00 Build 0)  -->
<svg version="1.0" id="Layer_1" xmlns="http://www.w3.org/2000/svg" xmlns:xlink="http://www.w3.org/1999/xlink" x="0px" y="0px"
	 width="432px" height="432px" viewBox="0 0 432 432" enable-background="new 0 0 432 432" xml:space="preserve">
<path fill="none" stroke="#000000" stroke-width="2" stroke-miterlimit="10" d="M184.6,297.4c-2.9,18-18.6,31.8-37.4,31.8
	c-20.9,0-37.9-17-37.9-37.9c0-20.9,17-37.9,37.9-37.9c10,0,19,3.9,25.8,10.2"/>
<path fill="none" stroke="#000000" stroke-width="2" stroke-miterlimit="10" d="M175.8,266.4c0.4,0.4,0.7,0.9,1.1,1.3l2.2,3.2
	c3.8,5.9,5.9,12.9,5.9,20.4c0,0.9,0,1.9-0.1,2.8"/>
<path fill="none" stroke="#000000" stroke-width="2" stroke-miterlimit="10" d="M264.7,256.9c4.9-2.3,10.3-3.6,16.1-3.6
	c20.9,0,37.9,17,37.9,37.9c0,19.4,5.8,26.4-13,28.6c0,0-7-2.5-14.4,1.8c-7.3,4.3-17.1,7.1-19.4,6.5c-16.5-4.5-29-19-29-36.9
	c0-14,7.5-26.2,18.8-32.7"/>
<path fill="none" stroke="#000000" stroke-width="2" stroke-miterlimit="10" d="M218.7,301.6c-2.2,2.7-5.5,4.4-9.3,4.4
	c-6.6,0-12-5.4-12-12c0-6.6,5.4-12,12-12c6.6,0,12,5.4,12,12c0,1.8-0.4,3.6-1.1,5.1"/>
<path fill="none" stroke="#000000" stroke-width="2" stroke-miterlimit="10" d="M279.9,286.2c0.3-0.1,0.6-0.1,1-0.1
	c2.8,0,5.1,2.3,5.1,5.1c0,2.8-2.3,5.1-5.1,5.1c-2.8,0-5.1-2.3-5.1-5.1c0-0.8,0.2-1.6,0.5-2.3"/>
<path fill="none" stroke="#000000" stroke-width="2" stroke-miterlimit="10" d="M163.5,221.7c-6.5-0.4-11.4-0.4-11.4-0.4l0.6,11.7
	c0,0,21.4,0,28.6,0"/>
<polygon fill="none" stroke="#000000" stroke-width="2" stroke-miterlimit="10" points="222.3,310.3 236.9,300 238.1,304.1 
	226.2,312.6 "/>
<path fill="none" stroke="#000000" stroke-width="2" stroke-miterlimit="10" d="M226.5,301.8c-6.6-2.5-17-6.4-17-6.4v2.2
	c0,0,12.1,4.7,17.5,6.8"/>
<line fill="none" stroke="#000000" stroke-width="2" stroke-miterlimit="10" x1="164.1" y1="233" x2="206.9" y2="282.3"/>
<line fill="none" stroke="#000000" stroke-width="2" stroke-miterlimit="10" x1="169" y1="233" x2="211.1" y2="282.2"/>
<path fill="none" stroke="#000000" stroke-width="2" stroke-miterlimit="10" d="M182.7,254.4L139.6,294c0,0-1.7,3,0,3s57.9,0,57.9,0
	"/>
<polyline fill="none" stroke="#000000" stroke-width="2" stroke-miterlimit="10" points="184.6,257.6 146.1,294 197.5,294 "/>
<path fill="none" stroke="#000000" stroke-width="2" stroke-miterlimit="10" d="M254.9,210.2c-1.1,5.5-2.4,12.2-2.4,12.2l18,52.8
	l13.2,15.8c-1.6,3.7-4,2.6-4,2.6l-11.7-16.5l-16.7-48.2L249,223c0,0-2.7-0.5-5.7-1l-8.7-1.5c-2.6-0.4-4.5-0.8-4.5-0.8l0.7-4.7
	c0,0,2.2,0.5,5,1.1l8.6,1.9c2.9,0.6,5.6,1.2,5.6,1.2s0.7-5.8,1.3-10.5l0.7-5.5c0.1-0.7,0.1-1,0.1-1l4.1,1c0,0-0.1,0.7-0.3,1.8
	L254.9,210.2z"/>
<path fill="none" stroke="#000000" stroke-width="2" stroke-miterlimit="10" d="M253.4,235.2c0,0-17.7,3.2-35.5,6.4"/>
<path fill="none" stroke="#000000" stroke-width="2" stroke-miterlimit="10" d="M199.9,244.8c-10.4,1.9-18.1,3.2-18.1,3.2"/>
<path fill="none" stroke="#000000" stroke-width="2" stroke-miterlimit="10" d="M179.6,245.5c0,0,6.8-1.2,16.2-2.9"/>
<path fill="none" stroke="#000000" stroke-width="2" stroke-miterlimit="10" d="M214.7,239.1c18.6-3.4,37.7-6.8,37.7-6.8"/>
<path fill="none" stroke="#000000" stroke-width="2" stroke-miterlimit="10" d="M254.4,237.9c-0.5,0.3-12.6,14.8-23.1,27.4"/>
<path fill="none" stroke="#000000" stroke-width="2" stroke-miterlimit="10" d="M223.5,274.6c-4.5,5.5-7.7,9.3-7.7,9.3"/>
<path fill="none" stroke="#000000" stroke-width="2" stroke-miterlimit="10" d="M252.4,235.5c-0.1,0-10.8,12.8-21,25.1"/>
<path fill="none" stroke="#000000" stroke-width="2" stroke-miterlimit="10" d="M223,270.8c-5.7,6.8-9.9,11.9-9.9,11.9"/>
<ellipse transform="matrix(0.9806 -0.1959 0.1959 0.9806 -25.0885 35.0187)" fill="none" stroke="#000000" stroke-width="2" stroke-miterlimit="10" cx="164.5" cy="144.3" rx="10" ry="15.8"/>
<path fill="none" stroke="#000000" stroke-width="2" stroke-miterlimit="10" d="M164.4,159.8c0,0,0.2,2.5,0.4,4"/>
<path fill="none" stroke="#000000" stroke-width="2" stroke-miterlimit="10" d="M170,163.1c-0.1-1.5-0.3-4.2-0.3-4.2"/>
<polyline fill="none" stroke="#000000" stroke-width="2" stroke-miterlimit="10" points="165.1,211.5 161.4,220.3 221.4,258.6 
	227.4,306.3 230.2,304.7 231.7,250.8 183,215.6 "/>
<path fill="none" stroke="#000000" stroke-width="2" stroke-miterlimit="10" d="M209.3,206.8"/>
<path fill="none" stroke="#000000" stroke-width="2" stroke-miterlimit="10" d="M230.3,300.7c0.3-0.2,9.9-11.4,9.9-11.4l0.9,7.7
	l-10.9,7.7L230.3,300.7z"/>
<polygon fill="none" stroke="#000000" stroke-width="2" stroke-miterlimit="10" points="153.2,165.4 179.6,161.4 183,215.6 
	162.9,210.3 "/>
<polyline fill="none" stroke="#000000" stroke-width="2" stroke-miterlimit="10" points="157.7,164.7 141,148.1 134.9,125.4 
	130.1,126.4 135.2,152.4 154.1,171.8 "/>
<polyline fill="none" stroke="#000000" stroke-width="2" stroke-miterlimit="10" points="134.9,125.4 137.7,117.6 134.9,115.8 
	133.5,117.6 130.1,107.8 123.2,110.5 129.5,126.5 "/>
<line fill="none" stroke="#000000" stroke-width="2" stroke-miterlimit="10" x1="140.8" y1="147.5" x2="135.2" y2="152.4"/>
<polyline fill="none" stroke="#000000" stroke-width="2" stroke-miterlimit="10" points="175.6,162 186.9,144.1 187.7,120.6 
	192.6,120.5 193.4,146.9 180.1,168.9 "/>
<polyline fill="none" stroke="#000000" stroke-width="2" stroke-miterlimit="10" points="187.7,120.6 183.2,113.7 185.5,111.2 
	187.3,112.7 188.4,102.3 195.7,103.4 193.2,120.4 "/>
<line fill="none" stroke="#000000" stroke-width="2" stroke-miterlimit="10" x1="186.9" y1="143.5" x2="193.4" y2="146.9"/>
<polyline fill="none" stroke="#000000" stroke-width="2" stroke-miterlimit="10" points="182.3,211.6 217.5,193.3 272.7,189 
	272.7,194 220.9,204 191.5,221.4 "/>
<path fill="none" stroke="#000000" stroke-width="2" stroke-miterlimit="10" d="M272.7,194c0-1,0-23,0-23l6.6,1l-3.3,22.7L272.7,194
	z"/>
</svg>
