<?xml version="1.0" encoding="utf-8"?>
<!-- Generator: Adobe Illustrator 19.2.1, SVG Export Plug-In . SVG Version: 6.00 Build 0)  -->
<svg version="1.0" id="Layer_1" xmlns="http://www.w3.org/2000/svg" xmlns:xlink="http://www.w3.org/1999/xlink" x="0px" y="0px"
	 width="432px" height="432px" viewBox="0 0 432 432" enable-background="new 0 0 432 432" xml:space="preserve">
<ellipse transform="matrix(0.192 -0.9814 0.9814 0.192 59.762 326.4151)" fill="none" stroke="#000000" stroke-width="2" stroke-miterlimit="10" cx="228.1" cy="126.9" rx="20.1" ry="13.8"/>
<path fill="none" stroke="#000000" stroke-width="2" stroke-miterlimit="10" d="M206.7,149.2c0,0,19,0.2,30,6.7
	c0,0-12.5,51.2-17.2,58.3l-22.3-3.2L206.7,149.2z"/>
<path fill="none" stroke="#000000" stroke-width="2" stroke-miterlimit="10" d="M197.2,211.1c0,0,48.2,81.8,52.8,97.3l4.2-1.2
	c0,0-11.7-56.4-34.7-93"/>
<path fill="none" stroke="#000000" stroke-width="2" stroke-miterlimit="10" d="M201.1,217.7c0,0,4.4,48.9-24,85l5.4,1
	c0,0,30-26.7,32.7-61.7"/>
<polygon fill="none" stroke="#000000" stroke-width="2" stroke-miterlimit="10" points="249.9,308.4 251.3,319.9 272.5,324.4 
	279.4,315.9 255,307.7 "/>
<polygon fill="none" stroke="#000000" stroke-width="2" stroke-miterlimit="10" points="175.8,303.2 172.3,312.4 193.2,319.8 
	203.5,313.8 182.4,303.8 "/>
<polyline fill="none" stroke="#000000" stroke-width="2" stroke-miterlimit="10" points="236.7,155.9 249.9,177.5 268.5,160.8 
	271.1,162.4 249.9,192.3 232.7,171.5 "/>
<line fill="none" stroke="#000000" stroke-width="2" stroke-miterlimit="10" x1="249.9" y1="177.5" x2="249.9" y2="192.3"/>
<polyline fill="none" stroke="#000000" stroke-width="2" stroke-miterlimit="10" points="220.6,145.1 219.6,150.4 225.7,151.7 
	228.1,146.6 "/>
<polyline fill="none" stroke="#000000" stroke-width="2" stroke-miterlimit="10" points="206.7,149.2 179.7,145.1 162.7,171.5 
	167.4,174.1 184.7,155.9 203.5,162.4 "/>
<path fill="none" stroke="#000000" stroke-width="2" stroke-miterlimit="10" d="M268.5,160.8l-4.1-5.7l4.8-6.7c0,0,9.2,6.1,9.2,6.2
	s-2.5,7-2.5,7l-4.7,0.8"/>
<polyline fill="none" stroke="#000000" stroke-width="2" stroke-miterlimit="10" points="162.7,171.5 156.5,171.5 152.2,177.5 
	163.5,184.9 167.9,180.8 167.4,174.1 "/>
</svg>
