<?xml version="1.0" encoding="utf-8"?>
<!-- Generator: Adobe Illustrator 19.2.1, SVG Export Plug-In . SVG Version: 6.00 Build 0)  -->
<svg version="1.0" id="Layer_1" xmlns="http://www.w3.org/2000/svg" xmlns:xlink="http://www.w3.org/1999/xlink" x="0px" y="0px"
	 width="432px" height="432px" viewBox="0 0 432 432" enable-background="new 0 0 432 432" xml:space="preserve">
<ellipse transform="matrix(0.9945 -0.1043 0.1043 0.9945 -12.2998 24.0418)" fill="none" stroke="#000000" stroke-width="2" stroke-miterlimit="10" cx="223.8" cy="129.7" rx="13.8" ry="20.6"/>
<path fill="none" stroke="#000000" stroke-width="2" stroke-miterlimit="10" d="M211.3,163.2c0.7,15.5,2.2,52.8,2.2,52.8
	c8.2,1.5,27.2,0,27.2,0l-2-61.5c-5-0.6-13.6,0.2-20,1l-7.5,0.8V163.2z"/>
<polyline fill="none" stroke="#000000" stroke-width="2" stroke-miterlimit="10" points="220.4,149.1 221.7,155.2 229.5,154.3 
	229.5,149 "/>
<polyline fill="none" stroke="#000000" stroke-width="2" stroke-miterlimit="10" points="213.5,216 218.7,312.6 223.2,312.6 
	225.9,217.1 "/>
<polyline fill="none" stroke="#000000" stroke-width="2" stroke-miterlimit="10" points="228.7,217.1 232.9,312.6 236.4,312.6 
	239.3,217.1 "/>
<path fill="none" stroke="#000000" stroke-width="2" stroke-miterlimit="10" d="M211.3,157.6c-1,1.2-9.5,18.3-9.5,18.3l-12-14.3
	v-11.5h-4.2v6.8h-7.2l1,10.7h7l14.5,19.3l10.5-10.8"/>
<line fill="none" stroke="#000000" stroke-width="2" stroke-miterlimit="10" x1="201.8" y1="175.9" x2="200.8" y2="186.9"/>
<polyline fill="none" stroke="#000000" stroke-width="2" stroke-miterlimit="10" points="238.8,154.5 250.8,179.6 249.9,209.8 
	245.5,209.8 243.6,182.2 239.5,175.9 "/>
<line fill="none" stroke="#000000" stroke-width="2" stroke-miterlimit="10" x1="243.6" y1="182.2" x2="250.8" y2="179.6"/>
<polyline fill="none" stroke="#000000" stroke-width="2" stroke-miterlimit="10" points="245.5,210.5 243.6,216 245.5,217.2 
	248.3,215.2 249.9,226.3 254.3,221.2 249.9,209.8 "/>
<polygon fill="none" stroke="#000000" stroke-width="2" stroke-miterlimit="10" points="218.7,313.5 204.2,317.7 215,322.7 
	223.2,313.5 "/>
<polygon fill="none" stroke="#000000" stroke-width="2" stroke-miterlimit="10" points="231.5,313.5 237.9,312.7 252,321.4 
	239.3,323.4 "/>
</svg>
