<?xml version="1.0" encoding="utf-8"?>
<!-- Generator: Adobe Illustrator 21.0.0, SVG Export Plug-In . SVG Version: 6.00 Build 0)  -->
<!DOCTYPE svg PUBLIC "-//W3C//DTD SVG 1.0//EN" "http://www.w3.org/TR/2001/REC-SVG-20010904/DTD/svg10.dtd">
<svg version="1.0" id="Layer_1" xmlns="http://www.w3.org/2000/svg" xmlns:xlink="http://www.w3.org/1999/xlink" x="0px" y="0px"
	 width="288px" height="288px" viewBox="0 0 288 288" enable-background="new 0 0 288 288" xml:space="preserve">
<ellipse fill="none" stroke="#000000" stroke-width="2" stroke-miterlimit="10" cx="128.7" cy="49.6" rx="13.4" ry="21"/>
<polyline fill="none" stroke="#000000" stroke-width="2" stroke-miterlimit="10" points="123.6,69.1 123.6,75.2 133.4,75.2 
	132.4,69.9 "/>
<path fill="none" stroke="#000000" stroke-width="2" stroke-miterlimit="10" d="M142.3,100.6c1.4,19.8,3.2,44,3.2,44
	s-17.5,3.2-33.5,0V75.2h28.5c0,0,0.4,6,1,14.6"/>
<path fill="none" stroke="#000000" stroke-width="2" stroke-miterlimit="10" d="M117.5,81.4c0,0,27.7,16,57,7.2v6.8
	c0,0-33.1,12.5-55.3,0"/>
<polyline fill="none" stroke="#000000" stroke-width="2" stroke-miterlimit="10" points="174.5,88.7 177.1,76.5 180.1,76.5 
	180.1,97.3 174.5,96 "/>
<path fill="none" stroke="#000000" stroke-width="2" stroke-miterlimit="10" d="M140.8,78.9c0,0,14.3,5.4,34.9,5"/>
<path fill="none" stroke="#000000" stroke-width="2" stroke-miterlimit="10" d="M180,83.7c1.4-0.1,2.8-0.2,4.2-0.3"/>
<line fill="none" stroke="#000000" stroke-width="2" stroke-miterlimit="10" x1="184.3" y1="90" x2="180.6" y2="90.3"/>
<polygon fill="none" stroke="#000000" stroke-width="2" stroke-miterlimit="10" points="184.3,82.7 186.9,70.5 189.9,69.5 
	189.9,90.3 184.3,90 "/>
<line fill="none" stroke="#000000" stroke-width="2" stroke-miterlimit="10" x1="146.9" y1="90.7" x2="144.5" y2="101"/>
<line fill="none" stroke="#000000" stroke-width="2" stroke-miterlimit="10" x1="158.1" y1="82.9" x2="154.5" y2="90.7"/>
<polyline fill="none" stroke="#000000" stroke-width="2" stroke-miterlimit="10" points="143.5,145 145.5,242.2 140.5,242.2 
	128.3,146.1 "/>
<polyline fill="none" stroke="#000000" stroke-width="2" stroke-miterlimit="10" points="113,145 121,240.7 126.2,240.7 
	128.3,147.2 "/>
<polyline fill="none" stroke="#000000" stroke-width="2" stroke-miterlimit="10" points="121,240.7 102.2,252.3 118,256.9 
	126.2,240.7 "/>
<polyline fill="none" stroke="#000000" stroke-width="2" stroke-miterlimit="10" points="140.5,242.2 134.7,258.9 152.5,258.9 
	145.5,242.2 "/>
</svg>
