<?xml version="1.0" encoding="utf-8"?>
<!-- Generator: Adobe Illustrator 21.0.0, SVG Export Plug-In . SVG Version: 6.00 Build 0)  -->
<!DOCTYPE svg PUBLIC "-//W3C//DTD SVG 1.0//EN" "http://www.w3.org/TR/2001/REC-SVG-20010904/DTD/svg10.dtd">
<svg version="1.0" id="Layer_1" xmlns="http://www.w3.org/2000/svg" xmlns:xlink="http://www.w3.org/1999/xlink" x="0px" y="0px"
	 width="432px" height="432px" viewBox="0 0 432 432" enable-background="new 0 0 432 432" xml:space="preserve">
<path fill="none" stroke="#000000" stroke-width="2" stroke-miterlimit="10" d="M169,317.8c-4.7,29-29.9,51.2-60.3,51.2
	c-33.7,0-61-27.3-61-61s27.3-61.1,61.1-61.1c16.1,0,30.7,6.2,41.6,16.4"/>
<path fill="none" stroke="#000000" stroke-width="2" stroke-miterlimit="10" d="M169.6,312.5"/>
<path fill="none" stroke="#000000" stroke-width="2" stroke-miterlimit="10" d="M154.9,268c0.6,0.7,1.2,1.4,1.7,2.1l3.6,5.1"/>
<path fill="none" stroke="#000000" stroke-width="2" stroke-miterlimit="10" d="M298.2,252.7c7.9-3.7,16.7-5.8,25.9-5.8
	c33.7,0,61.1,27.3,61.1,61.1s-27.4,61-61.1,61S263,341.7,263,308c0-22.5,12.2-42.1,30.3-52.7"/>
<path fill="none" stroke="#000000" stroke-width="2" stroke-miterlimit="10" d="M224.1,324.7c-3.5,4.3-8.9,7.1-15,7.1
	c-10.7,0-19.3-8.6-19.3-19.3c0-10.7,8.6-19.3,19.3-19.3s19.3,8.6,19.3,19.3c0,2.9-0.7,5.7-1.8,8.2"/>
<path fill="none" stroke="#000000" stroke-width="2" stroke-miterlimit="10" d="M322.6,299.9c0.5-0.1,1-0.1,1.6-0.1
	c4.5,0,8.2,3.7,8.2,8.2s-3.7,8.2-8.2,8.2s-8.2-3.7-8.2-8.2c0-1.3,0.3-2.6,0.9-3.7"/>
<path fill="none" stroke="#000000" stroke-width="2" stroke-miterlimit="10" d="M131.6,193.7c-10.4-0.6-15,1.4-15,1.4l1,18.9
	c0,0,6.8,0.1,18.5,0.1"/>
<polygon fill="none" stroke="#000000" stroke-width="2" stroke-miterlimit="10" points="235.9,343.8 237.1,314.9 243.6,317.5 
	242.7,340.9 "/>
<path fill="none" stroke="#000000" stroke-width="2" stroke-miterlimit="10" d="M236.5,324.9c-10.6-4-27.4-10.3-27.4-10.3v3.6
	c0,0,19.5,7.6,28.2,10.9"/>
<line fill="none" stroke="#000000" stroke-width="2" stroke-miterlimit="10" x1="178.9" y1="263.4" x2="205" y2="293.6"/>
<line fill="none" stroke="#000000" stroke-width="2" stroke-miterlimit="10" x1="176.7" y1="252.4" x2="211.7" y2="293.4"/>
<path fill="none" stroke="#000000" stroke-width="2" stroke-miterlimit="10" d="M182.3,317.4c1.4,0,6.1,0,7.5,0"/>
<path fill="none" stroke="#000000" stroke-width="2" stroke-miterlimit="10" d="M154.1,259.5C141,274,125,284,112,299c-1,1-3,2-5,3
	c-5,4-11,8-12,15c23,0,50.6,0.4,74,0.8"/>
<path fill="none" stroke="#000000" stroke-width="2" stroke-miterlimit="10" d="M182.3,312.5c2.5,0,5,0,7.5,0"/>
<path fill="none" stroke="#000000" stroke-width="2" stroke-miterlimit="10" d="M154.9,268c-15.9,15-32.9,29-47.8,44.5
	c14.5,0,2-1.8,0,0c19.9,1.5,40.9-0.5,61.1,0"/>
<path fill="none" stroke="#000000" stroke-width="2" stroke-miterlimit="10" d="M251.5,187.1c-4.6-1-8.1-1.7-8.1-1.7l-1.1,7.5
	c0,0,3.1,0.5,7.3,1.2"/>
<path fill="none" stroke="#000000" stroke-width="2" stroke-miterlimit="10" d="M263.6,196.5c4.8,0.8,9.2,1.6,9.2,1.6l3.5,9.4
	l26.9,77.7l18.9,26.5c0,0,3.9,1.9,6.5-4.2l-21.2-25.4l-29-85.1c0,0,2.1-10.9,3.8-19.7"/>
<path fill="none" stroke="#000000" stroke-width="2" stroke-miterlimit="10" d="M283.9,169c0.3-1.8,0.6-2.9,0.6-2.9l-6.6-1.7
	c0,0-0.1,0.6-0.2,1.7"/>
<path fill="none" stroke="#000000" stroke-width="2" stroke-miterlimit="10" d="M276.6,175.1c-1,7.7-2.1,16.9-2.1,16.9
	s-4.4-0.9-9.1-1.9"/>
<path fill="none" stroke="#000000" stroke-width="2" stroke-miterlimit="10" d="M280,217.7c0,0-57.5,10.3-86.2,15.5"/>
<path fill="none" stroke="#000000" stroke-width="2" stroke-miterlimit="10" d="M193.8,233.2c-16.7,3-19.9,5.2-19.9,5.2"/>
<path fill="none" stroke="#000000" stroke-width="2" stroke-miterlimit="10" d="M173.2,232c0,0-1.2,0.2,14-2.5"/>
<path fill="none" stroke="#000000" stroke-width="2" stroke-miterlimit="10" d="M187.2,229.5c30-5.4,91.2-16.4,91.2-16.4"/>
<path fill="none" stroke="#000000" stroke-width="2" stroke-miterlimit="10" d="M281.5,222c-0.8,0.5-20.3,23.8-37.3,44.2"/>
<path fill="none" stroke="#000000" stroke-width="2" stroke-miterlimit="10" d="M244.2,266.2c-7.3,8.8-24.9,29.9-24.9,29.9"/>
<path fill="none" stroke="#000000" stroke-width="2" stroke-miterlimit="10" d="M278.4,218.1c-0.2,0-17.4,20.7-33.8,40.5"/>
<path fill="none" stroke="#000000" stroke-width="2" stroke-miterlimit="10" d="M244.6,258.6c-9.1,11-29.6,35.5-29.6,35.5"/>
<ellipse transform="matrix(0.2154 -0.9765 0.9765 0.2154 66.2684 259.8437)" fill="none" stroke="#000000" stroke-width="2" stroke-miterlimit="10" cx="194.8" cy="88.7" rx="25.5" ry="16.2"/>
<path fill="none" stroke="#000000" stroke-width="2" stroke-miterlimit="10" d="M184.1,110.7c0,0-1.8,3.6-2.9,5.8"/>
<path fill="none" stroke="#000000" stroke-width="2" stroke-miterlimit="10" d="M189,119.9c1.2-2.2,3.1-6,3.1-6"/>
<path fill="none" stroke="#000000" stroke-width="2" stroke-miterlimit="10" d="M180.2,160.1c-8.7,14.8-16.3,27.8-16.3,27.8
	l-26.3-8.3l31.5-68c1.5,0.5,31.4,14,31.4,14s-5.5,9.3-12.2,20.8"/>
<polyline fill="none" stroke="#000000" stroke-width="2" stroke-miterlimit="10" points="137.6,179.5 131.6,193.7 165.9,294 
	174.5,372.7 182.4,373 182.4,281.3 163.9,187.9 "/>
<path fill="none" stroke="#000000" stroke-width="2" stroke-miterlimit="10" d="M173.2,129c0,0,35.3,42,36,42.3
	c0.6,0.2,26,7.4,38.7,11"/>
<path fill="none" stroke="#000000" stroke-width="2" stroke-miterlimit="10" d="M247.6,186.3c-0.1,0,0-4.1,0-4.1h16l1.6,10.8
	l-3.9,6.5c0,0-13.1-0.9-13-1.8s2.1-10.9,2.1-10.9"/>
<path fill="none" stroke="#000000" stroke-width="2" stroke-miterlimit="10" d="M163.8,143.3c7.2,6.3,35.3,38.1,35.3,38.1l43.2,8.9"
	/>
<path fill="none" stroke="#000000" stroke-width="2" stroke-miterlimit="10" d="M203.8,180.1"/>
<path fill="none" stroke="#000000" stroke-width="2" stroke-miterlimit="10" d="M208.8,171.9"/>
<path fill="none" stroke="#000000" stroke-width="2" stroke-miterlimit="10" d="M174.5,372.7c0.5,0.2,24.4,0.8,24.4,0.8l-8.8,9
	l-20.8-5.8L174.5,372.7z"/>
<path fill="none" stroke="#000000" stroke-width="2" stroke-miterlimit="10" d="M196.5,132.8c10.4,9.2,26.9,23.8,26.9,23.8l48,12.1
	l4.5-2.6c0,0,9.6,3.1,9.5,3.8s-3.2,7.3-3.2,7.3l-5.8-1.2"/>
<polyline fill="none" stroke="#000000" stroke-width="2" stroke-miterlimit="10" points="275.8,181.3 270.4,174.5 219.3,169.2 
	189.8,148.7 "/>
<line fill="none" stroke="#000000" stroke-width="2" stroke-miterlimit="10" x1="223.4" y1="156.6" x2="219.3" y2="169.2"/>
<line fill="none" stroke="#000000" stroke-width="2" stroke-miterlimit="10" x1="208.8" y1="171.9" x2="199.1" y2="181.3"/>
</svg>
