<?xml version="1.0" encoding="utf-8"?>
<!-- Generator: Adobe Illustrator 21.0.0, SVG Export Plug-In . SVG Version: 6.00 Build 0)  -->
<!DOCTYPE svg PUBLIC "-//W3C//DTD SVG 1.0//EN" "http://www.w3.org/TR/2001/REC-SVG-20010904/DTD/svg10.dtd">
<svg version="1.0" id="Layer_1" xmlns="http://www.w3.org/2000/svg" xmlns:xlink="http://www.w3.org/1999/xlink" x="0px" y="0px"
	 width="432px" height="432px" viewBox="0 0 432 432" enable-background="new 0 0 432 432" xml:space="preserve">
<ellipse fill="none" stroke="#000000" stroke-width="2" stroke-miterlimit="10" cx="156.5" cy="155.9" rx="17.5" ry="22.9"/>
<polyline fill="none" stroke="#000000" stroke-width="2" stroke-miterlimit="10" points="148.5,176.4 148.5,181.2 160.1,181.9 
	160.1,178.4 "/>
<path fill="none" stroke="#000000" stroke-width="2" stroke-miterlimit="10" d="M146.5,238.6c-3-0.5-6.1-1.3-9.1-2.7l6.8-54H163
	l3.2,56c0,0-6.2,1.6-14.1,1.3"/>
<path fill="none" stroke="#000000" stroke-width="2" stroke-miterlimit="10" d="M149.3,193.7l-2.2,38.3c0,0,7.8,0.3,8,0
	s5-36.5,5-36.5"/>
<polyline fill="none" stroke="#000000" stroke-width="2" stroke-miterlimit="10" points="153.6,232.8 156.3,236.9 153.6,239.2 
	151.9,237.7 153.6,247.3 147.1,247.3 147.1,232.1 "/>
<polyline fill="none" stroke="#000000" stroke-width="2" stroke-miterlimit="10" points="142.7,237.8 149.7,292.5 156.8,292.5 
	162.3,239.2 "/>
<polygon fill="none" stroke="#000000" stroke-width="2" stroke-miterlimit="10" points="149.7,292.5 169.7,292.5 167.7,299.2 
	149.7,296.7 "/>
</svg>
