<?xml version="1.0" encoding="utf-8"?>
<!-- Generator: Adobe Illustrator 19.2.1, SVG Export Plug-In . SVG Version: 6.00 Build 0)  -->
<svg version="1.0" xmlns="http://www.w3.org/2000/svg" xmlns:xlink="http://www.w3.org/1999/xlink" x="0px" y="0px" width="432px"
	 height="432px" viewBox="0 0 432 432" enable-background="new 0 0 432 432" xml:space="preserve">
<g id="Layer_2">
	<path fill="#27AAE1" d="M251,79.3c0,0-23.2,22.2-10.1,45.7c0,0-15.3-6.2-9.3-26.5S251,79.3,251,79.3z"/>
	<polygon fill="#27AAE1" points="228.3,125.6 205,189.1 284.8,248.7 289.4,318.5 305,304.8 305,312.1 285.4,325.3 276,254.8 
		188,198.3 222.3,123 	"/>
	<path fill="#27AAE1" d="M221.3,144.6c0,0,32.1,38.8,33,38.1c0.8-0.8,35.1,8,35.1,8v4.5l-39.6-8.2L215,149.8L221.3,144.6z"/>
</g>
<g id="Layer_1">
	<path fill="none" stroke="#000000" stroke-width="2" stroke-miterlimit="10" d="M222.3,312.1c-4.3,26.6-27.4,46.9-55.2,46.9
		c-30.9,0-56-25.1-56-56s25.1-56,56-56c14.7,0,28.1,5.7,38.1,15"/>
	<path fill="none" stroke="#000000" stroke-width="2" stroke-miterlimit="10" d="M209.3,266.4c0.5,0.6,1.1,1.3,1.6,1.9l3.3,4.7
		c5.5,8.7,8.8,19,8.8,30.1c0,1.4,0,2.7-0.1,4.1"/>
	<path fill="none" stroke="#000000" stroke-width="2" stroke-miterlimit="10" d="M340.7,252.4c7.2-3.4,15.3-5.3,23.8-5.3
		c30.9,0,56,25.1,56,56s-25.1,56-56,56s-56-25.1-56-56c0-20.6,11.1-38.6,27.7-48.3"/>
	<path fill="none" stroke="#000000" stroke-width="2" stroke-miterlimit="10" d="M272.7,318.4c-3.2,4-8.2,6.5-13.7,6.5
		c-9.8,0-17.7-7.9-17.7-17.7c0-9.8,7.9-17.7,17.7-17.7s17.7,7.9,17.7,17.7c0,2.7-0.6,5.3-1.7,7.5"/>
	<path fill="none" stroke="#000000" stroke-width="2" stroke-miterlimit="10" d="M363,295.7c0.5-0.1,0.9-0.1,1.4-0.1
		c4.2,0,7.5,3.4,7.5,7.5s-3.4,7.5-7.5,7.5s-7.5-3.4-7.5-7.5c0-1.2,0.3-2.4,0.8-3.4"/>
	<path fill="none" stroke="#000000" stroke-width="2" stroke-miterlimit="10" d="M191.1,200.3c-9.5-0.5-16.9-0.6-16.9-0.6l0.9,17.3
		c0,0,31.6,0,42.3,0"/>
	<polygon fill="none" stroke="#000000" stroke-width="2" stroke-miterlimit="10" points="277.9,331.3 299.6,316 301.4,322.1 
		283.8,334.6 	"/>
	<path fill="none" stroke="#000000" stroke-width="2" stroke-miterlimit="10" d="M284.1,318.6c-9.7-3.7-25.1-9.5-25.1-9.5v3.3
		c0,0,17.9,6.9,25.8,10"/>
	<line fill="none" stroke="#000000" stroke-width="2" stroke-miterlimit="10" x1="192.1" y1="217" x2="255.2" y2="290"/>
	<line fill="none" stroke="#000000" stroke-width="2" stroke-miterlimit="10" x1="199.2" y1="217" x2="261.4" y2="289.7"/>
	<path fill="none" stroke="#000000" stroke-width="2" stroke-miterlimit="10" d="M219.5,248.7l-63.7,58.5c0,0-2.5,4.5,0,4.5
		c2.5,0,85.5,0,85.5,0"/>
	<polyline fill="none" stroke="#000000" stroke-width="2" stroke-miterlimit="10" points="222.3,253.4 165.5,307.2 241.3,307.2 	"/>
	<path fill="none" stroke="#000000" stroke-width="2" stroke-miterlimit="10" d="M297.8,192.3c-4.2-0.9-7.4-1.6-7.4-1.6l-1,6.9
		c0,0,2.8,0.5,6.7,1.1"/>
	<path fill="none" stroke="#000000" stroke-width="2" stroke-miterlimit="10" d="M309,200.9c4.4,0.7,8.5,1.4,8.5,1.4l3.2,8.6
		l24.7,71.2l17.3,24.3c0,0,3.5,1.7,5.9-3.8l-19.4-23.3l-26.6-78c0,0,1.9-9.9,3.5-18"/>
	<path fill="none" stroke="#000000" stroke-width="2" stroke-miterlimit="10" d="M327.6,175.7c0.3-1.6,0.5-2.6,0.5-2.6l-6-1.5
		c0,0-0.1,0.6-0.2,1.5"/>
	<path fill="none" stroke="#000000" stroke-width="2" stroke-miterlimit="10" d="M320.9,181.3c-0.9,7-1.9,15.5-1.9,15.5
		s-4-0.9-8.3-1.8"/>
	<path fill="none" stroke="#000000" stroke-width="2" stroke-miterlimit="10" d="M324,220.4c0,0-26.1,4.7-52.4,9.4"/>
	<path fill="none" stroke="#000000" stroke-width="2" stroke-miterlimit="10" d="M244.9,234.5c-15.3,2.7-26.7,4.8-26.7,4.8"/>
	<path fill="none" stroke="#000000" stroke-width="2" stroke-miterlimit="10" d="M215,235.5c0,0,10-1.8,23.9-4.3"/>
	<path fill="none" stroke="#000000" stroke-width="2" stroke-miterlimit="10" d="M266.8,226.1c27.5-5,55.7-10,55.7-10"/>
	<path fill="none" stroke="#000000" stroke-width="2" stroke-miterlimit="10" d="M325.3,224.3c-0.7,0.5-18.6,21.9-34.2,40.5"/>
	<path fill="none" stroke="#000000" stroke-width="2" stroke-miterlimit="10" d="M279.8,278.5c-6.7,8.1-11.4,13.8-11.4,13.8"/>
	<path fill="none" stroke="#000000" stroke-width="2" stroke-miterlimit="10" d="M322.5,220.7c-0.1,0-15.9,19-31,37.1"/>
	<path fill="none" stroke="#000000" stroke-width="2" stroke-miterlimit="10" d="M279,272.8c-8.4,10.1-14.6,17.6-14.6,17.6"/>
	
		<ellipse transform="matrix(0.2154 -0.9765 0.9765 0.2154 93.2509 320.3345)" fill="none" stroke="#000000" stroke-width="2" stroke-miterlimit="10" cx="246" cy="102.1" rx="23.4" ry="14.8"/>
	<path fill="none" stroke="#000000" stroke-width="2" stroke-miterlimit="10" d="M236.1,122.3c0,0-1.6,3.3-2.6,5.3"/>
	<path fill="none" stroke="#000000" stroke-width="2" stroke-miterlimit="10" d="M240.6,130.7c1.1-2,2.8-5.5,2.8-5.5"/>
	<path fill="none" stroke="#000000" stroke-width="2" stroke-miterlimit="10" d="M232.5,167.6c-8,13.6-14.9,25.5-14.9,25.5
		l-24.2-7.6l28.8-62.4c1.4,0.5,28.8,12.8,28.8,12.8s-5,8.5-11.1,19"/>
	<polyline fill="none" stroke="#000000" stroke-width="2" stroke-miterlimit="10" points="193.4,185.4 188,198.3 276.7,254.9 
		285.4,325.3 289.7,323 291.8,243.3 217.6,193 	"/>
	<path fill="none" stroke="#000000" stroke-width="2" stroke-miterlimit="10" d="M226.1,139c0,0,32.3,38.5,33,38.7
		c0.5,0.2,23.9,6.8,35.5,10.1"/>
	<path fill="none" stroke="#000000" stroke-width="2" stroke-miterlimit="10" d="M294.3,191.5c-0.1,0,0-3.8,0-3.8h14.6l1.5,9.9
		l-3.6,6c0,0-12-0.8-11.9-1.6s1.9-10,1.9-10"/>
	<path fill="none" stroke="#000000" stroke-width="2" stroke-miterlimit="10" d="M217.5,152.1c6.6,5.8,32.4,34.9,32.4,34.9l39.6,8.2
		"/>
	<path fill="none" stroke="#000000" stroke-width="2" stroke-miterlimit="10" d="M254.2,185.9"/>
	<path fill="none" stroke="#000000" stroke-width="2" stroke-miterlimit="10" d="M258.7,178.3"/>
	<path fill="none" stroke="#000000" stroke-width="2" stroke-miterlimit="10" d="M289.8,317c0.4-0.3,14.7-16.9,14.7-16.9l1.3,11.4
		L289.7,323L289.8,317z"/>
	<path fill="none" stroke="#000000" stroke-width="2" stroke-miterlimit="10" d="M247.5,142.5c9.5,8.4,24.7,21.8,24.7,21.8l44,11.1
		l4.1-2.4c0,0,8.8,2.8,8.7,3.5s-2.9,6.7-2.9,6.7l-5.4-1.1"/>
	<polyline fill="none" stroke="#000000" stroke-width="2" stroke-miterlimit="10" points="320.1,187 315.2,180.8 268.3,175.9 
		241.3,157.1 	"/>
	<line fill="none" stroke="#000000" stroke-width="2" stroke-miterlimit="10" x1="272.1" y1="164.4" x2="268.3" y2="175.9"/>
	<line fill="none" stroke="#000000" stroke-width="2" stroke-miterlimit="10" x1="258.7" y1="178.3" x2="249.8" y2="187"/>
	
		<ellipse transform="matrix(0.4004 -0.9163 0.9163 0.4004 -13.8932 183.4681)" fill="none" stroke="#000000" stroke-width="2" stroke-miterlimit="10" cx="133.2" cy="102.3" rx="23.4" ry="14.8"/>
	<path fill="none" stroke="#000000" stroke-width="2" stroke-miterlimit="10" d="M119.6,120.2c0,0-2.3,3-3.6,4.7"/>
	<path fill="none" stroke="#000000" stroke-width="2" stroke-miterlimit="10" d="M122.4,129.3c1.4-1.7,3.8-4.8,3.8-4.8"/>
	<path fill="none" stroke="#000000" stroke-width="2" stroke-miterlimit="10" d="M107.3,163.9c-10.4,11.8-30.7,37.3-30.7,37.3
		l-24.3-15.9l53.5-67.1c1.3,0.7,25.8,18.1,25.8,18.1s-6.6,7.4-14.6,16.5"/>
	<path fill="none" stroke="#000000" stroke-width="2" stroke-miterlimit="10" d="M95.6,145.9c5.3,7,25,40.5,25,40.5l38.4,27.3
		l10.1,10.6l14.7-7.3h-8.7l-8.5-6.1l7.5-2.6c0,0,1.1-4.3,0-4.7c-1.1-0.4-9.9,0-9.9,0c-10.8-5.5-32.4-24.3-32.9-24.6
		c-0.6-0.4-24.9-44.4-24.9-44.4"/>
	<line fill="none" stroke="#000000" stroke-width="2" stroke-miterlimit="10" x1="131" y1="179.6" x2="120.6" y2="186.4"/>
	<path fill="none" stroke="#000000" stroke-width="2" stroke-miterlimit="10" d="M76.6,200.3l25.6,141.6h-7.5l-29-126.3L30.4,341.9
		c0,0-8.9,1.1-7.9-0.8c0.9-1.9,29.9-155.7,29.9-155.7"/>
	<path fill="none" stroke="#000000" stroke-width="2" stroke-miterlimit="10" d="M102.2,341.9l22.7,2.5l-1.6,9.1
		c0,0-28.8-5.9-28.6-5.8c0.2,0.1,0-5.8,0-5.8"/>
	<polyline fill="none" stroke="#000000" stroke-width="2" stroke-miterlimit="10" points="22.5,341.1 18.8,349.3 51.5,353.6 
		53.5,344.1 30.4,341.9 	"/>
	<path fill="none" stroke="#000000" stroke-width="2" stroke-miterlimit="10" d="M241.6,79.5c0,0,11.3,4.2,18.5,4.4"/>
	<path fill="none" stroke="#000000" stroke-width="2" stroke-miterlimit="10" d="M237.7,82c0.1,0.7,13.3,8.3,22.9,5.7"/>
	<path fill="none" stroke="#000000" stroke-width="2" stroke-miterlimit="10" d="M235,86.7c0,0,15.4,9.5,26.2,5.4"/>
</g>
<g id="Layer_3">
	<path opacity="0" fill="none" stroke="#27AAE1" stroke-width="15" stroke-miterlimit="10" d="M236.1,80c8.6-1,17.3-1.1,25.9-0.5
		c-12.1,2.5-24.1,5-36.2,7.4c8.5,0.7,17,1.4,25.5,2c-9.7,2.6-19.5,5-29.3,7.1c8.1,1,16.3,1.9,24.4,2.9c-10.7,2.2-21.3,5.2-31.6,9
		c10.1,0.2,20.1,1.1,30.1,2.7c-11.5,0.6-22.8,3.4-33.2,8.3c12.1,0.8,24.2,1.7,36.3,2.5c-12.1,4.5-25,6.8-37.9,6.7
		c11.6,1,23.2,1.9,34.8,2.9c-14,2.6-27.9,6-41.5,10.1c11.4,0.6,22.9,1.3,34.3,1.9c-13.7,4.5-30-0.9-42.4,6.6
		c14.9-0.3,29.7,0,44.6,0.9c-16.4,2.1-32.7,5.1-48.8,8.9c19.2,1.7,38.4,2.1,57.7,1.4c-19.7,6.1-40.2,9.5-60.9,10.1
		c21.8-0.1,43.6-0.2,65.5-0.2c-21.3,5.9-43.2,9.8-65.3,11.5c27.8,1.4,55.6,2.1,83.4,2.2c-30.8,3.6-62.9-3.6-92.7,5
		c41.1,7.5,83.5-6,125-0.8c-40.6,5.6-82.7-0.2-122.4,10.3c30.4,0.6,60.7-1.6,91-3.8c9.6-0.7,19.1-1.4,28.7-2.1
		c-35.7,8.7-73.4,9.2-108,21.8c19.4-1.3,38.8-1.8,58.3-1.6c-12.6,4.1-25.1,8.3-37.7,12.4c21.4-2.1,42.9-3.2,64.4-3.3
		c-16.2,3-32.1,7.6-47.4,13.7c19.1-1.2,38.2-2.8,57.3-4.8c-17,4.8-34.4,8.5-51.9,11c20.8,1.1,41.6,1.4,62.4,1
		c-14.1,4.7-28.3,9.4-42.4,14.1c15.4-0.6,30.9-1.1,46.3-1.7c-12.6,3.8-24.8,8.7-36.4,14.8c12.4-0.2,24.9-0.3,37.3-0.5
		c-10.9,3.2-21.7,7.1-32.2,11.6c10.9-1.4,22-1.5,33-0.6c-10.5,3.9-20.9,8.3-30.9,13.3c9.7-1.3,19.5-1.8,29.2-1.5
		c-10.5,3.4-20.7,7.4-30.7,12.1c12.6,0.1,25.1,0.2,37.7,0.3c-10,1.2-19.8,3.6-29.2,7.3c9,0.1,17.9,0.2,26.9,0.4
		c-9.8,3.6-19.5,7.5-29.2,11.5c12.4,3.5,26.1,2.4,37.8-3"/>
</g>
</svg>
