<?xml version="1.0" encoding="utf-8"?>
<!-- Generator: Adobe Illustrator 21.0.0, SVG Export Plug-In . SVG Version: 6.00 Build 0)  -->
<!DOCTYPE svg PUBLIC "-//W3C//DTD SVG 1.0//EN" "http://www.w3.org/TR/2001/REC-SVG-20010904/DTD/svg10.dtd">
<svg version="1.0" id="Layer_3" xmlns="http://www.w3.org/2000/svg" xmlns:xlink="http://www.w3.org/1999/xlink" x="0px" y="0px"
	 width="1451px" height="1091px" viewBox="0 0 1451 1091" enable-background="new 0 0 1451 1091" xml:space="preserve">
<path fill="none" stroke="#35ABDF" stroke-width="6" stroke-miterlimit="10" d="M848.2,55.3c0,0,334.2,8,445.8,433.4"/>
<polyline fill="none" stroke="#35ABDF" stroke-width="6" stroke-miterlimit="10" points="1305.6,457.6 1296.1,493.7 1262.7,470.9 
	"/>
<path fill="none" stroke="#35ABDF" stroke-width="6" stroke-miterlimit="10" d="M1311.6,597.3c0,0-8,334.2-433.4,445.8"/>
<polyline fill="none" stroke="#35ABDF" stroke-width="6" stroke-miterlimit="10" points="909.2,1054.7 873.1,1045.2 896,1011.7 "/>
<path fill="none" stroke="#35ABDF" stroke-width="6" stroke-miterlimit="10" d="M562.7,1049.9c0,0-334.2-8-445.8-433.4"/>
<polyline fill="none" stroke="#35ABDF" stroke-width="6" stroke-miterlimit="10" points="105.3,647.6 114.8,611.5 148.3,634.3 "/>
<path fill="none" stroke="#35ABDF" stroke-width="6" stroke-miterlimit="10" d="M124.2,507c0,0,8-334.2,433.4-445.8"/>
<polyline fill="none" stroke="#35ABDF" stroke-width="6" stroke-miterlimit="10" points="526.6,49.6 562.7,59.2 539.9,92.6 "/>
</svg>
