<?xml version="1.0" encoding="utf-8"?>
<!-- Generator: Adobe Illustrator 21.0.0, SVG Export Plug-In . SVG Version: 6.00 Build 0)  -->
<!DOCTYPE svg PUBLIC "-//W3C//DTD SVG 1.0//EN" "http://www.w3.org/TR/2001/REC-SVG-20010904/DTD/svg10.dtd">
<svg version="1.0" id="Layer_1" xmlns="http://www.w3.org/2000/svg" xmlns:xlink="http://www.w3.org/1999/xlink" x="0px" y="0px"
	 width="288px" height="288px" viewBox="0 0 288 288" enable-background="new 0 0 288 288" xml:space="preserve">
<ellipse fill="none" stroke="#000000" stroke-width="0.7" stroke-miterlimit="10" cx="143.9" cy="144.1" rx="52.8" ry="54.2"/>
<path fill="none" stroke="#000000" stroke-width="0.7" stroke-miterlimit="10" d="M106.3,106.9l2.8-0.8c0,0,1.5,0.6,2.2,0.8
	s3.6,0.1,4.1-0.4s1.6-1.4,2.2-1.4s2-0.2,2.8,0s2.6-0.3,3.6-0.1c1,0.2,4.9,0.5,5.9-0.1s4-2,4-2h2.2c0,0,3.1,1.6,3.8,2
	c0.6,0.4,1.9,2.4,1.6,3s-1,3.2-1,3.2l-0.1,4.1l1.2,0.8l4-1.4l3.9-2.2l3.1-1.9l4.4-0.4l0.9,0.9v2.1l-2.2,2.9l0.6,2l2.9,2.9l0.9,2
	l1.6,2.6v1.9h-1.9h-2.6h-3.1h-2c0,0-0.6,2.6-0.8,3.1s-0.2,3.4-0.2,3.4s-0.8,2-1.8,2.2s-2.9,0-2.9,0l-3.2,0.9c0,0-1.4,1.6-1.4,2.2
	s0.5,1.4,1,2.5s1.9,2.9,1.2,3.4s-1.6,1.8-2.9,1.5s-3.1-0.1-4.6-1.4s-4-2.8-4-2.8s-1.5-1.1-3.6-1c-2.1,0.1-2-0.2-2.9,0.5
	s-0.9,2-0.9,2l0.8,3.5c0,0,1.4,3.1,1.8,3.8c0.4,0.7,2.9,4.6,4.5,4.9s3.5-1.1,3.9,0s4.4,4.5,4.8,4.5s2.8-0.5,2.8-1.1
	s-0.6-1.6-0.1-3.1s0.8-3.2,1.6-3.8s0.1-0.6,1.9-1.1s3.8-1.1,3.8-1.1s1.6-0.2,2.8-0.2s2.6,0.2,2.6,0.6s0.4,1.1,0.4,2.2s1.2,3.6,1.5,4
	s2.6,2.5,3.1,2.5s3.8,1.1,3.8,1.1l3.6,1l1.2,2.1v3.9l-0.9,2l-1.4,3.5l-1.5,3.4c0,0,0.1,2.5-0.1,3.6s1.4,0.4-0.5,2.5
	s-3.1,3.4-3.5,4.1s-2.6,3.5-2.6,3.5l-2.5,1.2l-4,0.8l-2.6-0.6l-2.5-2.6c0,0-2.1-2.1-1.9-4s0.4-2.2,0.5-3s0.2-1.9,0.1-4
	s-0.4-3.6-0.4-3.6l-0.5-1.8l-2.9-1.4l-0.8-0.4l-3-2.1l-0.1-1.9l-0.6-2l-0.9-2.1l-3.4-2.5l-4-1.6l-4.3-0.4l-6.1-1.4
	c0,0,0.4,1.5-1.5-1s-2.6-3.6-2.6-3.6s-0.9-4.5-0.9-5.2s-0.8-3-0.8-3h-1.9c0,0-2.1-0.2-2.2-0.5s-0.9-2.2-0.9-2.2l-2.1-4.4v-2.1
	c0,0-3.2,0-3.2,0.4s1.6,2.6,0,3s-2.5,1.9-3.1,1.1s-2.8-3.9-2.8-3.9s-1.8-3-1.8-3.6s1-8.1,1.4-8.2s4-1.9,4-1.9s1.8-2.2,1.2-2.5
	s-3-3.7-3-3.7"/>
<path fill="none" stroke="#000000" stroke-width="0.7" stroke-miterlimit="10" d="M196.6,132.6c0,0-4.8,1.4-5.2,1.8
	s-2.1,3.6-2.1,3.6l-3.4,4.6c0,0-2.1,2.1-2.1,2.9s0,4.4,0,4.4v4.4l1.6,3.4c0,0,1.5,1.1,1.9,2s0.6,3.1,0.6,3.1s-0.1,2.5,0,2.9
	s3,3.1,3,3.1"/>
<path fill="none" stroke="#000000" stroke-width="0.7" stroke-miterlimit="10" d="M170.7,98.1c0,0,1,6.5,1,7s-0.2,3.9,0.8,5
	s3.1,1.8,3.6,1.8s1.1,0.1,2.1,0s1.5,0.2,2.2,0.1s2.8-0.4,3.4-0.4s2.2,0,2.2,0"/>
<line fill="#FFFFFF" stroke="#27AAE1" stroke-miterlimit="10" x1="137.5" y1="134.6" x2="139" y2="132.6"/>
<line fill="#FFFFFF" stroke="#27AAE1" stroke-miterlimit="10" x1="140" y1="130.8" x2="141.6" y2="129"/>
<line fill="#FFFFFF" stroke="#27AAE1" stroke-miterlimit="10" x1="142.9" y1="127.4" x2="144.9" y2="125.9"/>
<line fill="#FFFFFF" stroke="#27AAE1" stroke-miterlimit="10" x1="146.8" y1="124.4" x2="149.2" y2="123.2"/>
<polyline fill="none" stroke="#27AAE1" stroke-miterlimit="10" points="146.5,121.9 150,123.1 148.9,126.2 "/>
<line fill="#FFFFFF" stroke="#27AAE1" stroke-miterlimit="10" x1="135.2" y1="135.2" x2="132.8" y2="133.6"/>
<line fill="#FFFFFF" stroke="#27AAE1" stroke-miterlimit="10" x1="130.6" y1="132.6" x2="128" y2="130.8"/>
<line fill="#FFFFFF" stroke="#27AAE1" stroke-miterlimit="10" x1="126.5" y1="129.9" x2="123.9" y2="128.2"/>
<polyline fill="none" stroke="#27AAE1" stroke-miterlimit="10" points="125.2,132.2 123.4,127.6 128,128.1 "/>
</svg>
