<?xml version="1.0" encoding="utf-8"?>
<!-- Generator: Adobe Illustrator 21.0.0, SVG Export Plug-In . SVG Version: 6.00 Build 0)  -->
<!DOCTYPE svg PUBLIC "-//W3C//DTD SVG 1.0//EN" "http://www.w3.org/TR/2001/REC-SVG-20010904/DTD/svg10.dtd">
<svg version="1.0" id="Layer_1" xmlns="http://www.w3.org/2000/svg" xmlns:xlink="http://www.w3.org/1999/xlink" x="0px" y="0px"
	 width="288px" height="288px" viewBox="0 0 288 288" enable-background="new 0 0 288 288" xml:space="preserve">
<path fill="none" stroke="#27AAE1" stroke-miterlimit="10" d="M95.5,122.5c-10.7-8.2-4-12.7,2.8-9.7c6.6,3,38.4,23.6,38.4,23.6
	c0.9-1.8,6.4-15.7,29.1-18.5s39.6-9.4,33.8-18s-31.9-4.2-31.9-4.2"/>
<path fill="none" stroke="#27AAE1" stroke-miterlimit="10" d="M183.1,180.5c0,0,12.1,3.7,13.5,9.9S133,177.8,86.8,149.2
	s4.3-7.5,4.3-7.5"/>
<path fill="none" stroke="#27AAE1" stroke-miterlimit="10" d="M94,161.9c0,0-18.9,26.3-5.4,23.9s113.6-45,115-61.4
	c0.6-7.4-13.4-6.3-13.4-6.3"/>
<path fill="none" stroke="#27AAE1" stroke-miterlimit="10" d="M147.2,198.3c0,0,4.8,12.6,11.2,12.6c12.8,0,6.2-72.4,6.2-72.4"/>
<polyline fill="none" stroke="#27AAE1" stroke-miterlimit="10" points="163,142.6 164.8,138 167.9,141.5 "/>
<path fill="none" stroke="#27AAE1" stroke-miterlimit="10" d="M134,90.8c0,0-8.3-10.2-19.4-7.5c-9.8,2.4-1.9,9.1-1.9,9.1"/>
<polyline fill="none" stroke="#27AAE1" stroke-miterlimit="10" points="113.4,89.3 113.2,93 109.9,92.9 "/>
</svg>
