<?xml version="1.0" encoding="utf-8"?>
<!-- Generator: Adobe Illustrator 21.0.0, SVG Export Plug-In . SVG Version: 6.00 Build 0)  -->
<!DOCTYPE svg PUBLIC "-//W3C//DTD SVG 1.0//EN" "http://www.w3.org/TR/2001/REC-SVG-20010904/DTD/svg10.dtd">
<svg version="1.0" id="Layer_1" xmlns="http://www.w3.org/2000/svg" xmlns:xlink="http://www.w3.org/1999/xlink" x="0px" y="0px"
	 width="432px" height="432px" viewBox="0 0 432 432" enable-background="new 0 0 432 432" xml:space="preserve">
<g id="Layer_2">
	<path fill="#27AAE1" d="M194.9,61.7c0,0-22.9,24.5-13.2,49c0,0-14.9-11.1-7.9-30.8S194.9,61.7,194.9,61.7z"/>
	<path fill="#27AAE1" d="M170.7,114.4L137,185.8l15.7,2.9l15,11l11.6,113.1l20.6-9.4c0,0-1.8,12.1-3.5,13.3
		c-1,0.8-14.8,5.4-19.5,5.4c-3,0,0.1-9.4,0.1-9.4l-13.5-91.1l-6.2-23.6l-31.2-6.5l37.4-82.2l6.7,2.9"/>
</g>
<g id="Layer_1_1_">
	<path fill="none" stroke="#000000" stroke-width="2" stroke-miterlimit="10" d="M163.5,315.7c-4.7,29-29.9,51.2-60.3,51.2
		c-33.7,0-61.1-27.3-61.1-61.1s27.3-61.1,61.1-61.1c16.1,0,30.7,6.2,41.6,16.4"/>
	<path fill="none" stroke="#000000" stroke-width="2" stroke-miterlimit="10" d="M149.4,265.9c0.6,0.7,1.2,1.4,1.7,2.1l3.6,5.1
		c6,9.5,9.6,20.7,9.6,32.8c0,1.5-0.1,3-0.2,4.5"/>
	<path fill="none" stroke="#000000" stroke-width="2" stroke-miterlimit="10" d="M292.7,250.6c7.9-3.7,16.7-5.8,25.9-5.8
		c33.7,0,61.1,27.3,61.1,61.1S352.4,367,318.6,367s-61.1-27.3-61.1-61.1c0-22.5,12.2-42.1,30.3-52.7"/>
	<path fill="none" stroke="#000000" stroke-width="2" stroke-miterlimit="10" d="M184.4,312.3c-1.5-15.3,15.5-26.3,28.8-18.7
		c12.7,7.3,12.8,26,0.3,33.4c-6.6,3.9-15.6,3-21.7-1.6"/>
	<path fill="none" stroke="#000000" stroke-width="2" stroke-miterlimit="10" d="M317.1,297.8c0.5-0.1,1-0.1,1.6-0.1
		c4.5,0,8.2,3.7,8.2,8.2s-3.7,8.2-8.2,8.2s-8.2-3.7-8.2-8.2c0-1.3,0.3-2.6,0.9-3.7"/>
	<path fill="none" stroke="#000000" stroke-width="2" stroke-miterlimit="10" d="M129.5,192.2c-10.4-0.6-18.4,0.8-18.4,0.8l1,18.9
		c0,0,30,0,43.5,0c1,0,0.5-14.5,1.2-14.5"/>
	<polygon fill="none" stroke="#000000" stroke-width="2" stroke-miterlimit="10" points="170.2,322.7 198.4,316.6 197.6,323.4 
		174.7,328.5 	"/>
	<path fill="none" stroke="#000000" stroke-width="2" stroke-miterlimit="10" d="M197.6,323.4c1.8-4.6,6-14,7.8-18.6
		c-2.5,0-3-0.6-4.1,1.2c-1.7,2.6-2.5,6.2-3.7,9.1"/>
	<path fill="none" stroke="#000000" stroke-width="2" stroke-miterlimit="10" d="M179.3,268.6c1,1.2,19.2,21.7,20.2,22.9"/>
	<path fill="none" stroke="#000000" stroke-width="2" stroke-miterlimit="10" d="M130.6,212c7.4,10,16.4,19,24.4,29
		c8,9,7.3,8.2,14.2,16.8"/>
	<path fill="none" stroke="#000000" stroke-width="2" stroke-miterlimit="10" d="M179.3,259.8c2.6,3,24.3,28.5,26.9,31.5"/>
	<path fill="none" stroke="#000000" stroke-width="2" stroke-miterlimit="10" d="M138.4,212c9.4,11,17.8,22,27.2,33
		c4.2,4.9-3.7-4.9,0.5,0"/>
	<path fill="none" stroke="#000000" stroke-width="2" stroke-miterlimit="10" d="M160.5,246.5L91,310.4c0,0-2.8,4.9,0,4.9
		s85.9-0.5,85.9-0.5"/>
	<polyline fill="none" stroke="#000000" stroke-width="2" stroke-miterlimit="10" points="163.5,251.6 101.6,310.4 175.7,310.4 	"/>
	<path fill="none" stroke="#000000" stroke-width="2" stroke-miterlimit="10" d="M246,185c-4.6-1-8.1-1.7-8.1-1.7l-1.1,7.5
		c0,0,3.1,0.5,7.3,1.2"/>
	<path fill="none" stroke="#000000" stroke-width="2" stroke-miterlimit="10" d="M258.1,194.4c4.8,0.8,9.2,1.6,9.2,1.6l3.5,9.4
		l26.9,77.7l18.9,26.5c0,0,3.9,1.9,6.5-4.2L302,280l-29-85.1c0,0,2.1-10.9,3.8-19.7"/>
	<path fill="none" stroke="#000000" stroke-width="2" stroke-miterlimit="10" d="M278.4,166.9c0.3-1.8,0.6-2.9,0.6-2.9l-6.6-1.7
		c0,0-0.1,0.6-0.2,1.7"/>
	<path fill="none" stroke="#000000" stroke-width="2" stroke-miterlimit="10" d="M271.1,173c-1,7.7-2.1,16.9-2.1,16.9
		s-4.4-0.9-9.1-1.9"/>
	<path fill="none" stroke="#000000" stroke-width="2" stroke-miterlimit="10" d="M274.5,215.6c0,0-68.6,10.9-97.3,16.1"/>
	<path fill="none" stroke="#000000" stroke-width="2" stroke-miterlimit="10" d="M166.9,234.9c-16.7,3-7.7,1.4-7.7,1.4"/>
	<path fill="none" stroke="#000000" stroke-width="2" stroke-miterlimit="10" d="M155.6,232.1c0,0-6.1,1.1,9.1-1.6"/>
	<path fill="none" stroke="#000000" stroke-width="2" stroke-miterlimit="10" d="M177.2,226.5c30-5.4,95.7-15.5,95.7-15.5"/>
	<path fill="none" stroke="#000000" stroke-width="2" stroke-miterlimit="10" d="M276,219.9c-0.8,0.5-25.4,29.8-42.4,50.2"/>
	<path fill="none" stroke="#000000" stroke-width="2" stroke-miterlimit="10" d="M233.6,270.1c-7.3,8.8-19.8,23.9-19.8,23.9"/>
	<path fill="none" stroke="#000000" stroke-width="2" stroke-miterlimit="10" d="M272.9,216c-0.2,0-22.7,27-39.1,46.8"/>
	<path fill="none" stroke="#000000" stroke-width="2" stroke-miterlimit="10" d="M233.8,262.8c-9.1,11-24.3,29.2-24.3,29.2"/>
	
		<ellipse transform="matrix(0.2154 -0.9765 0.9765 0.2154 63.9602 252.8909)" fill="none" stroke="#000000" stroke-width="2" stroke-miterlimit="10" cx="189.4" cy="86.6" rx="25.5" ry="16.2"/>
	<path fill="none" stroke="#000000" stroke-width="2" stroke-miterlimit="10" d="M185.9,62.3c0,0,14.1,5.5,19.2,4.2"/>
	<path fill="none" stroke="#000000" stroke-width="2" stroke-miterlimit="10" d="M180.8,64.1c0,0,17.1,8.8,25,6.3"/>
	<path fill="none" stroke="#000000" stroke-width="2" stroke-miterlimit="10" d="M178.3,67c0,0,19.4,10.4,29,6.7"/>
	<path fill="none" stroke="#000000" stroke-width="2" stroke-miterlimit="10" d="M178.6,108.7c0,0-1.8,3.6-2.9,5.8"/>
	<path fill="none" stroke="#000000" stroke-width="2" stroke-miterlimit="10" d="M183.5,117.8c1.2-2.2,3.1-6,3.1-6"/>
	<path fill="none" stroke="#000000" stroke-width="2" stroke-miterlimit="10" d="M174.7,158c-8.7,14.8-16.3,27.8-16.3,27.8
		l-26.3-8.3l31.5-68c1.5,0.5,31.4,14,31.4,14s-5.5,9.3-12.2,20.8"/>
	<polyline fill="none" stroke="#000000" stroke-width="2" stroke-miterlimit="10" points="132.1,177.5 126.1,191.6 156.8,197.8 
		163.5,221.8 177,312.9 181.6,310.4 175.2,195.3 158.4,185.8 	"/>
	<path fill="none" stroke="#000000" stroke-width="2" stroke-miterlimit="10" d="M167.7,126.9c0,0,35.3,42,36,42.2
		c0.6,0.2,26,7.4,38.7,11"/>
	<path fill="none" stroke="#000000" stroke-width="2" stroke-miterlimit="10" d="M242.1,184.2c-0.1,0,0-4.1,0-4.1h16l1.6,10.8
		l-3.9,6.5c0,0-13.1-0.9-13-1.8s2.1-10.9,2.1-10.9"/>
	<path fill="none" stroke="#000000" stroke-width="2" stroke-miterlimit="10" d="M158.3,141.2c7.2,6.3,35.3,38.1,35.3,38.1l43.2,8.9
		"/>
	<path fill="none" stroke="#000000" stroke-width="2" stroke-miterlimit="10" d="M198.3,178"/>
	<path fill="none" stroke="#000000" stroke-width="2" stroke-miterlimit="10" d="M203.3,169.8"/>
	<path fill="none" stroke="#000000" stroke-width="2" stroke-miterlimit="10" d="M176.9,314.8c0.5-0.2,23-11.3,23-11.3l-3.5,13.3
		l-21.2,5.4L176.9,314.8z"/>
	<path fill="none" stroke="#000000" stroke-width="2" stroke-miterlimit="10" d="M191,130.7c10.4,9.2,26.9,23.8,26.9,23.8l48,12.1
		l4.5-2.6c0,0,9.6,3.1,9.5,3.8s-3.2,7.3-3.2,7.3L271,174"/>
	<polyline fill="none" stroke="#000000" stroke-width="2" stroke-miterlimit="10" points="270.3,179.2 265,172.4 213.8,167.2 
		184.3,146.6 	"/>
	<line fill="none" stroke="#000000" stroke-width="2" stroke-miterlimit="10" x1="218" y1="154.5" x2="213.8" y2="167.2"/>
	<line fill="none" stroke="#000000" stroke-width="2" stroke-miterlimit="10" x1="203.3" y1="169.8" x2="193.6" y2="179.2"/>
</g>
</svg>
