<?xml version="1.0" encoding="utf-8"?>
<!-- Generator: Adobe Illustrator 19.2.1, SVG Export Plug-In . SVG Version: 6.00 Build 0)  -->
<svg version="1.0" xmlns="http://www.w3.org/2000/svg" xmlns:xlink="http://www.w3.org/1999/xlink" x="0px" y="0px" width="432px"
	 height="432px" viewBox="0 0 432 432" enable-background="new 0 0 432 432" xml:space="preserve">
<g id="Layer_2">
	<path fill="#27AAE1" d="M178.9,111.2c0,0-6.3,29.9,13,38.2c0,0-14.1,0.9-17.5-12.4S172.8,113.6,178.9,111.2z"/>
	<path fill="#27AAE1" d="M183.6,157.4l11.8,54.3l17.5,1.2l-17.5,3.7c0,0,3.6,89.3,2.8,89.3c-0.8,0-11.7,15.8-11.7,15.8l-9.2-5.5
		l17.8-10.3l-6.7-89.1l-9.6-39.2l-4.5,9.8l7,36.6h-3.1l-9.6-39l8-16.3l-2.3-9.3L183.6,157.4z"/>
	<path fill="#27AAE1" d="M203.6,215.6l12.5,89.6c0,0,12.1,18.4,12.7,18c0.6-0.3,12.6-9.3,12.6-9.3l-22.3-9c0,0-2.1-76.7-10.3-91
		L203.6,215.6z"/>
</g>
<g id="Layer_1">
	
		<ellipse transform="matrix(0.9639 -0.2662 0.2662 0.9639 -27.8885 54.3601)" fill="none" stroke="#000000" stroke-width="2" stroke-miterlimit="10" cx="186.6" cy="130.1" rx="13.8" ry="20.1"/>
	<path fill="none" stroke="#000000" stroke-width="2" stroke-miterlimit="10" d="M170.9,118c0,0,15.3-2.9,19-8.1"/>
	<path fill="none" stroke="#000000" stroke-width="2" stroke-miterlimit="10" d="M169.9,121.3c0,0,16.7-2.8,24.5-10.1"/>
	<path fill="none" stroke="#000000" stroke-width="2" stroke-miterlimit="10" d="M195.4,113.9c0,0-13.3,11.2-25.5,11.7"/>
	<path fill="none" stroke="#000000" stroke-width="2" stroke-miterlimit="10" d="M174.4,159.4l34-7.4c0,0,8.7,28.4,4.5,60.9
		l-24.2,5.2L174.4,159.4z"/>
	<polyline fill="none" stroke="#000000" stroke-width="2" stroke-miterlimit="10" points="174.4,159.4 162.9,191.1 178.4,224.1 
		180.7,223.1 174.3,186.6 	"/>
	<line fill="none" stroke="#000000" stroke-width="2" stroke-miterlimit="10" x1="178.9" y1="177.7" x2="167.1" y2="200.4"/>
	<polygon fill="none" stroke="#000000" stroke-width="2" stroke-miterlimit="10" points="181.5,224.1 186.5,231.8 182.9,241.1 
		176.4,239.4 178.4,230.8 178.6,225.4 	"/>
	<path fill="none" stroke="#000000" stroke-width="2" stroke-miterlimit="10" d="M188.8,218.1l6.4,87.8h5l3.4-91l12.6,91l3.2-1.1
		c0,0,8.2-61.8-6.5-91.9"/>
	<polygon fill="none" stroke="#000000" stroke-width="2" stroke-miterlimit="10" points="195.2,305.9 177.4,314.6 191.3,321.7 
		200.2,305.9 	"/>
	<polygon fill="none" stroke="#000000" stroke-width="2" stroke-miterlimit="10" points="216.2,305.9 227.1,321.7 241.3,310.8 
		220.1,304.5 	"/>
	<polyline fill="none" stroke="#000000" stroke-width="2" stroke-miterlimit="10" points="187.5,149.6 189.9,156.1 195.4,154.6 
		195.1,147.9 	"/>
	<path fill="none" stroke="#000000" stroke-width="2" stroke-miterlimit="10" d="M208.4,152c2.9-0.3,53.6-2.3,53.6-2.3l4-15l3,2.2
		l-1.5,19.1l-56.7,6.3"/>
	<line fill="none" stroke="#000000" stroke-width="2" stroke-miterlimit="10" x1="235.5" y1="150.8" x2="237.3" y2="159.4"/>
</g>
<g id="Layer_3">
	<path opacity="0" fill="none" stroke="#27AAE1" stroke-width="30" stroke-miterlimit="10" d="M165.5,112.9c8.2,0.5,16.4,1,24.7,1.5
		c-9.9,1.6-19.5,5.5-27.7,11.2c10.1,0.3,20.3,0.6,30.4,0.9c-13.1,2.9-26.1,6.4-38.8,10.6c13.6,0.3,27.2,0.6,40.8,0.9
		c-14.5,4.1-29,8.2-43.5,12.3c13.2-0.1,26.4-0.1,39.7-0.2c-14.7,5.3-29.4,10.5-44.1,15.8c18.7,0.7,37.5,0.7,56.3-0.1
		c-18.4,5.6-36.5,12.5-53.9,20.6c18.1-0.5,36.3-1,54.4-1.5c-11.9,4.7-23.8,9.4-35.7,14.1c16.2-1.4,32.7-2.9,48.8-0.3
		c-15.4,3.2-30.9,6.4-46.3,9.6c-3.9,0.8-8.4,2.3-9.4,6.1c16.1,1.7,32.2,2.4,48.4,2.1c-12.5,3.5-25,7.1-37.6,10.6
		c-1.9,0.5-4.2,1.7-3.9,3.6c17.2,0.5,34.4-0.2,51.5-2.1c-15,4-29.2,10.8-41.7,20c1.9,1.8,4.8,1.9,7.5,1.9c9.9,0,19.7,0,29.6,0.1
		c-7.5,1.8-14.9,3.8-22.3,6.1c-8.2,2.6-16.7,5.8-22.1,12.5c5.2,2,11,2.2,16.6,2.4c17,0.5,34,0.7,51,0.6
		c-19.9,0.9-39.6,6.2-57.2,15.5c15.1-1.5,30.2-2.2,45.3-2.3c-17.7,1.9-35.2,6.3-51.7,13c-3.1,1.2-6.7,3.4-6.6,6.7
		c20.7,0.9,41.4,1,62.1,0.1c-17.3,0.9-34.5,3.4-51.3,7.6c-2.1,0.5-4.6,1.3-5.4,3.4c20.2,1.7,40.5,1.3,60.6-1.3
		c6.2-0.8,12.9-2.1,17-6.7"/>
</g>
</svg>
