<?xml version="1.0" encoding="utf-8"?>
<!-- Generator: Adobe Illustrator 21.0.0, SVG Export Plug-In . SVG Version: 6.00 Build 0)  -->
<!DOCTYPE svg PUBLIC "-//W3C//DTD SVG 1.0//EN" "http://www.w3.org/TR/2001/REC-SVG-20010904/DTD/svg10.dtd">
<svg version="1.0" id="Layer_1" xmlns="http://www.w3.org/2000/svg" xmlns:xlink="http://www.w3.org/1999/xlink" x="0px" y="0px"
	 width="432px" height="432px" viewBox="0 0 432 432" enable-background="new 0 0 432 432" xml:space="preserve">
<g id="Layer_2">
	<path fill="#27AAE1" d="M194.9,61.7c0,0-22.9,24.5-13.2,49c0,0-14.9-11.1-7.9-30.8S194.9,61.7,194.9,61.7z"/>
	<path fill="#27AAE1" d="M170.7,114.4l-31.5,71.7l19.2,4.7l22.4-7.5l3.4,88.3l19.3-8.3c0,0-1.8,12.1-3.5,13.3
		c-1,0.8-15.5,5.8-20.6,4.4c-2.9-0.8,2.2-8.3,2.2-8.3L171,197.4l-12.7,0.7l-32.2-6.5l37.4-82.2l6.7,2.9"/>
</g>
<g id="Layer_1_1_">
	<path fill="none" stroke="#000000" stroke-width="2" stroke-miterlimit="10" d="M163.5,315.7c-4.7,29-29.9,51.2-60.3,51.2
		c-33.7,0-61.1-27.3-61.1-61.1s27.3-61.1,61.1-61.1c16.1,0,30.7,6.2,41.6,16.4"/>
	<path fill="none" stroke="#000000" stroke-width="2" stroke-miterlimit="10" d="M149.4,265.9c0.6,0.7,1.2,1.4,1.7,2.1l3.6,5.1
		c6,9.5,9.6,20.7,9.6,32.8c0,1.5-0.1,3-0.2,4.5"/>
	<path fill="none" stroke="#000000" stroke-width="2" stroke-miterlimit="10" d="M292.7,250.6c7.9-3.7,16.7-5.8,25.9-5.8
		c33.7,0,61.1,27.3,61.1,61.1S352.4,367,318.6,367s-61.1-27.3-61.1-61.1c0-22.5,12.2-42.1,30.3-52.7"/>
	<path fill="none" stroke="#000000" stroke-width="2" stroke-miterlimit="10" d="M198.4,291.8c5.3-1.5,11.4-0.6,16.3,2.9
		c8.7,6.2,10.7,18.2,4.5,26.9c-6.2,8.7-18.2,10.7-26.9,4.5s-10.7-18.2-4.5-26.9c1.7-2.4,3.9-4.2,6.2-5.6"/>
	<path fill="none" stroke="#000000" stroke-width="2" stroke-miterlimit="10" d="M317.1,297.8c0.5-0.1,1-0.1,1.6-0.1
		c4.5,0,8.2,3.7,8.2,8.2s-3.7,8.2-8.2,8.2s-8.2-3.7-8.2-8.2c0-1.3,0.3-2.6,0.9-3.7"/>
	<path fill="none" stroke="#000000" stroke-width="2" stroke-miterlimit="10" d="M129.5,192.2c-10.4-0.6-18.4,0.8-18.4,0.8l1,18.9
		c0,0,30,0,43.5,0c1,0,0.5-14.5,1.2-14.5"/>
	<polygon fill="none" stroke="#000000" stroke-width="2" stroke-miterlimit="10" points="175.2,284.1 203.4,278 202.6,284.8 
		179.7,289.9 	"/>
	<path fill="none" stroke="#000000" stroke-width="2" stroke-miterlimit="10" d="M192.3,287.1c3.9,10.6,10.9,29.5,10.9,29.5l2.7-2.4
		c0,0-7-19.7-10.2-28.5"/>
	<path fill="none" stroke="#000000" stroke-width="2" stroke-miterlimit="10" d="M196.4,287.9c1,1.2,2.1,2.4,3.1,3.6"/>
	<path fill="none" stroke="#000000" stroke-width="2" stroke-miterlimit="10" d="M130.6,212c7.4,10,16.4,19,24.4,29
		c8,9,18.9,20.5,25.8,29.1"/>
	<path fill="none" stroke="#000000" stroke-width="2" stroke-miterlimit="10" d="M201.1,285.3c2.6,3,2.6,3,5.1,6"/>
	<path fill="none" stroke="#000000" stroke-width="2" stroke-miterlimit="10" d="M138.4,212c9.4,11,18.8,22,28.2,33
		c4.2,4.9,8.4,9.9,12.6,14.8"/>
	<path fill="none" stroke="#000000" stroke-width="2" stroke-miterlimit="10" d="M160.5,246.5L91,310.4c0,0-2.8,4.9,0,4.9
		s93.3,0,93.3,0"/>
	<polyline fill="none" stroke="#000000" stroke-width="2" stroke-miterlimit="10" points="163.5,251.6 101.6,310.4 184.3,310.4 	"/>
	<path fill="none" stroke="#000000" stroke-width="2" stroke-miterlimit="10" d="M246,185c-4.6-1-8.1-1.7-8.1-1.7l-1.1,7.5
		c0,0,3.1,0.5,7.3,1.2"/>
	<path fill="none" stroke="#000000" stroke-width="2" stroke-miterlimit="10" d="M258.1,194.4c4.8,0.8,9.2,1.6,9.2,1.6l3.5,9.4
		l26.9,77.7l18.9,26.5c0,0,3.9,1.9,6.5-4.2L302,280l-29-85.1c0,0,2.1-10.9,3.8-19.7"/>
	<path fill="none" stroke="#000000" stroke-width="2" stroke-miterlimit="10" d="M278.4,166.9c0.3-1.8,0.6-2.9,0.6-2.9l-6.6-1.7
		c0,0-0.1,0.6-0.2,1.7"/>
	<path fill="none" stroke="#000000" stroke-width="2" stroke-miterlimit="10" d="M271.1,173c-1,7.7-2.1,16.9-2.1,16.9
		s-4.4-0.9-9.1-1.9"/>
	<path fill="none" stroke="#000000" stroke-width="2" stroke-miterlimit="10" d="M274.5,215.6c0,0-60.1,9.5-88.8,14.7"/>
	<path fill="none" stroke="#000000" stroke-width="2" stroke-miterlimit="10" d="M175.7,233.4c-16.7,3-16.5,2.9-16.5,2.9"/>
	<path fill="none" stroke="#000000" stroke-width="2" stroke-miterlimit="10" d="M155.6,232.1c0,0,4.4-0.8,19.6-3.5"/>
	<path fill="none" stroke="#000000" stroke-width="2" stroke-miterlimit="10" d="M185.1,225.2c30-5.4,87.8-14.2,87.8-14.2"/>
	<path fill="none" stroke="#000000" stroke-width="2" stroke-miterlimit="10" d="M276,219.9c-0.8,0.5-25.4,29.8-42.4,50.2"/>
	<path fill="none" stroke="#000000" stroke-width="2" stroke-miterlimit="10" d="M233.6,270.1c-7.3,8.8-19.8,23.9-19.8,23.9"/>
	<path fill="none" stroke="#000000" stroke-width="2" stroke-miterlimit="10" d="M272.9,216c-0.2,0-22.7,27-39.1,46.8"/>
	<path fill="none" stroke="#000000" stroke-width="2" stroke-miterlimit="10" d="M233.8,262.8c-9.1,11-24.3,29.2-24.3,29.2"/>
	
		<ellipse transform="matrix(0.2154 -0.9765 0.9765 0.2154 63.9783 252.8198)" fill="none" stroke="#000000" stroke-width="2" stroke-miterlimit="10" cx="189.3" cy="86.6" rx="25.5" ry="16.2"/>
	<path fill="none" stroke="#000000" stroke-width="2" stroke-miterlimit="10" d="M185.9,62.3c0,0,14.1,5.5,19.2,4.2"/>
	<path fill="none" stroke="#000000" stroke-width="2" stroke-miterlimit="10" d="M180.8,64.1c0,0,17.1,8.8,25,6.3"/>
	<path fill="none" stroke="#000000" stroke-width="2" stroke-miterlimit="10" d="M178.3,67c0,0,19.4,10.4,29,6.7"/>
	<path fill="none" stroke="#000000" stroke-width="2" stroke-miterlimit="10" d="M178.6,108.7c0,0-1.8,3.6-2.9,5.8"/>
	<path fill="none" stroke="#000000" stroke-width="2" stroke-miterlimit="10" d="M183.5,117.8c1.2-2.2,3.1-6,3.1-6"/>
	<path fill="none" stroke="#000000" stroke-width="2" stroke-miterlimit="10" d="M174.7,158c-8.7,14.8-16.3,27.8-16.3,27.8
		l-26.3-8.3l31.5-68c1.5,0.5,31.4,14,31.4,14s-5.5,9.3-12.2,20.8"/>
	<polyline fill="none" stroke="#000000" stroke-width="2" stroke-miterlimit="10" points="132.1,177.5 126.1,191.6 156.8,197.8 
		171,197.4 181.5,272.7 186.1,270.2 185.1,173 158.4,185.8 	"/>
	<path fill="none" stroke="#000000" stroke-width="2" stroke-miterlimit="10" d="M167.7,126.9c0,0,35.3,42,36,42.2
		c0.6,0.2,26,7.4,38.7,11"/>
	<path fill="none" stroke="#000000" stroke-width="2" stroke-miterlimit="10" d="M242.1,184.2c-0.1,0,0-4.1,0-4.1h16l1.6,10.8
		l-3.9,6.5c0,0-13.1-0.9-13-1.8s2.1-10.9,2.1-10.9"/>
	<path fill="none" stroke="#000000" stroke-width="2" stroke-miterlimit="10" d="M158.3,141.2c7.2,6.3,35.3,38.1,35.3,38.1l43.2,8.9
		"/>
	<path fill="none" stroke="#000000" stroke-width="2" stroke-miterlimit="10" d="M198.3,178"/>
	<path fill="none" stroke="#000000" stroke-width="2" stroke-miterlimit="10" d="M203.3,169.8"/>
	<path fill="none" stroke="#000000" stroke-width="2" stroke-miterlimit="10" d="M180.4,274.6c0.5-0.2,23-11.3,23-11.3l-3.5,13.3
		l-21.2,5.4L180.4,274.6z"/>
	<path fill="none" stroke="#000000" stroke-width="2" stroke-miterlimit="10" d="M191,130.7c10.4,9.2,26.9,23.8,26.9,23.8l48,12.1
		l4.5-2.6c0,0,9.6,3.1,9.5,3.8s-3.2,7.3-3.2,7.3L271,174"/>
	<polyline fill="none" stroke="#000000" stroke-width="2" stroke-miterlimit="10" points="270.3,179.2 265,172.4 213.8,167.2 
		184.3,146.6 	"/>
	<line fill="none" stroke="#000000" stroke-width="2" stroke-miterlimit="10" x1="218" y1="154.5" x2="213.8" y2="167.2"/>
	<line fill="none" stroke="#000000" stroke-width="2" stroke-miterlimit="10" x1="203.3" y1="169.8" x2="193.6" y2="179.2"/>
</g>
</svg>
