<?xml version="1.0" encoding="utf-8"?>
<!-- Generator: Adobe Illustrator 19.2.1, SVG Export Plug-In . SVG Version: 6.00 Build 0)  -->
<svg version="1.0" xmlns="http://www.w3.org/2000/svg" xmlns:xlink="http://www.w3.org/1999/xlink" x="0px" y="0px" width="432px"
	 height="432px" viewBox="0 0 432 432" enable-background="new 0 0 432 432" xml:space="preserve">
<g id="Layer_2">
	<path fill="#27AAE1" d="M194.9,61.7c0,0-22.9,24.5-13.2,49c0,0-14.9-11.1-7.9-30.8S194.9,61.7,194.9,61.7z"/>
	<path fill="#27AAE1" d="M170.7,114.4l-30,65.7l88.4,63.1l8.2,77.9l16.4-15.2c0,0,2.7,8.1,1,9.3c-1.6,1.2-22.2,15-22.2,15L222,253
		l-95.9-61.4l37.4-82.2l6.7,2.9"/>
</g>
<g id="Layer_1">
	<path fill="none" stroke="#000000" stroke-width="2" stroke-miterlimit="10" d="M163.5,315.7c-4.7,29-29.9,51.2-60.3,51.2
		c-33.7,0-61.1-27.3-61.1-61.1s27.3-61.1,61.1-61.1c16.1,0,30.7,6.2,41.6,16.4"/>
	<path fill="none" stroke="#000000" stroke-width="2" stroke-miterlimit="10" d="M149.4,265.9c0.6,0.7,1.2,1.4,1.7,2.1l3.6,5.1
		c6,9.5,9.6,20.7,9.6,32.8c0,1.5-0.1,3-0.2,4.5"/>
	<path fill="none" stroke="#000000" stroke-width="2" stroke-miterlimit="10" d="M292.7,250.6c7.9-3.7,16.7-5.8,25.9-5.8
		c33.7,0,61.1,27.3,61.1,61.1s-27.3,61.1-61.1,61.1s-61.1-27.3-61.1-61.1c0-22.5,12.2-42.1,30.3-52.7"/>
	<path fill="none" stroke="#000000" stroke-width="2" stroke-miterlimit="10" d="M218.6,322.6c-3.5,4.3-8.9,7.1-15,7.1
		c-10.7,0-19.3-8.6-19.3-19.3c0-10.7,8.6-19.3,19.3-19.3s19.3,8.6,19.3,19.3c0,2.9-0.7,5.7-1.8,8.2"/>
	<path fill="none" stroke="#000000" stroke-width="2" stroke-miterlimit="10" d="M317.1,297.8c0.5-0.1,1-0.1,1.6-0.1
		c4.5,0,8.2,3.7,8.2,8.2c0,4.5-3.7,8.2-8.2,8.2c-4.5,0-8.2-3.7-8.2-8.2c0-1.3,0.3-2.6,0.9-3.7"/>
	<path fill="none" stroke="#000000" stroke-width="2" stroke-miterlimit="10" d="M129.5,193.7c-10.4-0.6-18.4-0.7-18.4-0.7l1,18.9
		c0,0,34.4,0,46.1,0"/>
	<polygon fill="none" stroke="#000000" stroke-width="2" stroke-miterlimit="10" points="224.3,336.6 247.9,320 249.8,326.6 
		230.7,340.2 	"/>
	<path fill="none" stroke="#000000" stroke-width="2" stroke-miterlimit="10" d="M231,322.8c-10.6-4-27.4-10.3-27.4-10.3v3.6
		c0,0,19.5,7.6,28.2,10.9"/>
	<line fill="none" stroke="#000000" stroke-width="2" stroke-miterlimit="10" x1="130.6" y1="212" x2="199.5" y2="291.5"/>
	<line fill="none" stroke="#000000" stroke-width="2" stroke-miterlimit="10" x1="138.4" y1="212" x2="206.2" y2="291.3"/>
	<path fill="none" stroke="#000000" stroke-width="2" stroke-miterlimit="10" d="M160.5,246.5l-69.5,63.9c0,0-2.8,4.9,0,4.9
		s93.3,0,93.3,0"/>
	<polyline fill="none" stroke="#000000" stroke-width="2" stroke-miterlimit="10" points="163.5,251.6 101.6,310.4 184.3,310.4 	"/>
	<path fill="none" stroke="#000000" stroke-width="2" stroke-miterlimit="10" d="M246,185c-4.6-1-8.1-1.7-8.1-1.7l-1.1,7.5
		c0,0,3.1,0.5,7.3,1.2"/>
	<path fill="none" stroke="#000000" stroke-width="2" stroke-miterlimit="10" d="M258.1,194.4c4.8,0.8,9.2,1.6,9.2,1.6l3.5,9.4
		l26.9,77.7l18.9,26.5c0,0,3.9,1.9,6.5-4.2L302,280l-29-85.1c0,0,2.1-10.9,3.8-19.7"/>
	<path fill="none" stroke="#000000" stroke-width="2" stroke-miterlimit="10" d="M278.4,166.9c0.3-1.8,0.6-2.9,0.6-2.9l-6.6-1.7
		c0,0-0.1,0.6-0.2,1.7"/>
	<path fill="none" stroke="#000000" stroke-width="2" stroke-miterlimit="10" d="M271.1,173c-1,7.7-2.1,16.9-2.1,16.9
		s-4.4-0.9-9.1-1.9"/>
	<path fill="none" stroke="#000000" stroke-width="2" stroke-miterlimit="10" d="M274.5,215.6c0,0-28.5,5.1-57.2,10.3"/>
	<path fill="none" stroke="#000000" stroke-width="2" stroke-miterlimit="10" d="M188.3,231.1c-16.7,3-29.1,5.2-29.1,5.2"/>
	<path fill="none" stroke="#000000" stroke-width="2" stroke-miterlimit="10" d="M155.6,232.1c0,0,10.9-2,26.1-4.7"/>
	<path fill="none" stroke="#000000" stroke-width="2" stroke-miterlimit="10" d="M212.1,221.9c30-5.4,60.8-10.9,60.8-10.9"/>
	<path fill="none" stroke="#000000" stroke-width="2" stroke-miterlimit="10" d="M276,219.9c-0.8,0.5-20.3,23.8-37.3,44.2"/>
	<path fill="none" stroke="#000000" stroke-width="2" stroke-miterlimit="10" d="M226.3,279c-7.3,8.8-12.5,15-12.5,15"/>
	<path fill="none" stroke="#000000" stroke-width="2" stroke-miterlimit="10" d="M272.9,216c-0.2,0-17.4,20.7-33.8,40.5"/>
	<path fill="none" stroke="#000000" stroke-width="2" stroke-miterlimit="10" d="M225.4,272.8c-9.1,11-15.9,19.2-15.9,19.2"/>
	
		<ellipse transform="matrix(0.2154 -0.9765 0.9765 0.2154 63.9954 252.9377)" fill="none" stroke="#000000" stroke-width="2" stroke-miterlimit="10" cx="189.4" cy="86.6" rx="25.5" ry="16.2"/>
	<path fill="none" stroke="#000000" stroke-width="2" stroke-miterlimit="10" d="M185.9,62.3c0,0,14.1,5.5,19.2,4.2"/>
	<path fill="none" stroke="#000000" stroke-width="2" stroke-miterlimit="10" d="M180.8,64.1c0,0,17.1,8.8,25,6.3"/>
	<path fill="none" stroke="#000000" stroke-width="2" stroke-miterlimit="10" d="M178.3,67c0,0,19.4,10.4,29,6.7"/>
	<path fill="none" stroke="#000000" stroke-width="2" stroke-miterlimit="10" d="M178.6,108.7c0,0-1.8,3.6-2.9,5.8"/>
	<path fill="none" stroke="#000000" stroke-width="2" stroke-miterlimit="10" d="M183.5,117.8c1.2-2.2,3.1-6,3.1-6"/>
	<path fill="none" stroke="#000000" stroke-width="2" stroke-miterlimit="10" d="M174.7,158c-8.7,14.8-16.3,27.8-16.3,27.8
		l-26.3-8.3l31.5-68c1.5,0.5,31.4,14,31.4,14s-5.5,9.3-12.2,20.8"/>
	<polyline fill="none" stroke="#000000" stroke-width="2" stroke-miterlimit="10" points="132.1,177.5 126.1,191.6 222.9,253.3 
		232.5,330.1 237.1,327.6 239.4,240.7 158.4,185.8 	"/>
	<path fill="none" stroke="#000000" stroke-width="2" stroke-miterlimit="10" d="M167.7,126.9c0,0,35.3,42,36,42.2
		c0.6,0.2,26,7.4,38.7,11"/>
	<path fill="none" stroke="#000000" stroke-width="2" stroke-miterlimit="10" d="M242.1,184.2c-0.1,0,0-4.1,0-4.1h16l1.6,10.8
		l-3.9,6.5c0,0-13.1-0.9-13-1.8s2.1-10.9,2.1-10.9"/>
	<path fill="none" stroke="#000000" stroke-width="2" stroke-miterlimit="10" d="M158.3,141.2c7.2,6.3,35.3,38.1,35.3,38.1l43.2,8.9
		"/>
	<path fill="none" stroke="#000000" stroke-width="2" stroke-miterlimit="10" d="M198.3,178"/>
	<path fill="none" stroke="#000000" stroke-width="2" stroke-miterlimit="10" d="M203.3,169.8"/>
	<path fill="none" stroke="#000000" stroke-width="2" stroke-miterlimit="10" d="M237.2,321.1c0.5-0.3,16-18.4,16-18.4l1.4,12.5
		l-17.6,12.5L237.2,321.1z"/>
	<path fill="none" stroke="#000000" stroke-width="2" stroke-miterlimit="10" d="M191,130.7c10.4,9.2,26.9,23.8,26.9,23.8l48,12.1
		l4.5-2.6c0,0,9.6,3.1,9.5,3.8s-3.2,7.3-3.2,7.3L271,174"/>
	<polyline fill="none" stroke="#000000" stroke-width="2" stroke-miterlimit="10" points="270.3,179.2 265,172.4 213.8,167.2 
		184.3,146.6 	"/>
	<line fill="none" stroke="#000000" stroke-width="2" stroke-miterlimit="10" x1="218" y1="154.5" x2="213.8" y2="167.2"/>
	<line fill="none" stroke="#000000" stroke-width="2" stroke-miterlimit="10" x1="203.3" y1="169.8" x2="193.6" y2="179.2"/>
</g>
<g id="Layer_3">
	<path opacity="0" fill="none" stroke="#27AAE1" stroke-width="30" stroke-miterlimit="10" d="M177.9,62.1c6.6,0,13.3,0.1,19.9,0.1
		c-12,5.4-24.7,9.5-37.6,12c10.9,0.2,21.9,0.3,32.8,0.5c-11.6,3.2-23.2,6.4-34.8,9.5c9.7-0.9,19.4-1.3,29.1-1.1
		c-11.9,4.3-24,7.8-36.3,10.5c16.7-0.3,33.3-0.7,50-1c-19.3,4.1-38.7,8.2-58,12.4c17.9-2.5,36.2-1.5,53.7,2.8
		c-15,8-30.9,14.4-47.3,18.8c10.5-1.9,21.3-2.7,32-2.5c-14.6,2.2-29,6.1-42.7,11.7c15.2-1.2,30.6-1,45.8,0.6
		c-17.9,5.8-36.4,9.7-55.2,11.6c13.3-0.2,26.7-0.4,40-0.6c-14,6-28.1,11.9-42.1,17.9c10.6-0.3,21.2-1.5,31.6-3.6
		c-15.8,6.5-31.6,13-47.4,19.5c23.7-1.2,47.4-2.3,71.2-3.5c-18.8,5.5-37.3,12.4-55.1,20.7c19.3-2.5,38.7-4,58.2-4.4
		c-11.4,4.9-22.8,9.7-34.1,14.6c24.1-1,48.1-2,72.2-3c-17.8,7.2-36.3,12.5-55.1,16c20.4-3.5,41.2-4.5,61.9-2.9
		c-13.6,2.5-27.2,5-40.9,7.5c17.1,0.8,34.1,1.7,51.2,2.5c-10.7,3.9-21.5,7.9-32.2,11.8c-6.1,2.2-12.3,4.5-17.3,8.6
		c17.7,0.1,35.4-0.3,53.1-1.4c-9.9,2.8-19.9,5.7-29.8,8.5c7.1,1,14.1,1.9,21.2,2.9c-15.2,7.2-30.1,15.2-44.5,23.9
		c21.2,1,42.4,0.4,63.6-0.2c-12.7,5.5-25.5,11-38.2,16.4c12.7-0.2,25.5-0.3,38.2-0.5c-17,3.8-34,7.6-51,11.3
		c19.4-0.6,38.7-1.2,58.1-1.9c-12.6,3.2-24.8,8.3-35.9,15.2c13.9,1.2,28,0.8,41.7-1.4c-8,2.7-15.9,5.5-23.7,8.6
		c2.3,1.4,5.6,0.8,7.3-1.3"/>
</g>
</svg>
