<?xml version="1.0" encoding="utf-8"?>
<!-- Generator: Adobe Illustrator 21.0.0, SVG Export Plug-In . SVG Version: 6.00 Build 0)  -->
<!DOCTYPE svg PUBLIC "-//W3C//DTD SVG 1.0//EN" "http://www.w3.org/TR/2001/REC-SVG-20010904/DTD/svg10.dtd">
<svg version="1.0" xmlns="http://www.w3.org/2000/svg" xmlns:xlink="http://www.w3.org/1999/xlink" x="0px" y="0px" width="432px"
	 height="432px" viewBox="0 0 432 432" enable-background="new 0 0 432 432" xml:space="preserve">
<g id="Color">
	<path fill="#27AAE1" d="M153.6,133c0,0-19.7,26.5,0.7,46.1l-1.8,8.1l-0.7,9.3l-2.1,35.5l0,15.2l2.8,45.2l16.2,3.4l-2.5,4.1l-16-1.8
		l-7.5-60.4l-5.3-1.5l7.6-54.4l4-0.4l-0.5-5.1c0,0-8.8-5.2-9.5-20.5S153.6,133,153.6,133z"/>
	<polygon fill="#27AAE1" points="162.3,243.2 162.3,239.2 152.1,239.2 154.3,245.5 	"/>
</g>
<g id="Lines">
	<ellipse fill="none" stroke="#000000" stroke-width="2" stroke-miterlimit="10" cx="156.5" cy="155.9" rx="17.5" ry="22.9"/>
	<polyline fill="none" stroke="#000000" stroke-width="2" stroke-miterlimit="10" points="148.5,176.4 148.5,181.2 160.1,181.9 
		160.1,178.4 	"/>
	<path fill="none" stroke="#000000" stroke-width="2" stroke-miterlimit="10" d="M146.5,238.6c-3-0.5-6.1-1.3-9.1-2.7l6.8-54H163
		l3.2,56c0,0-6.2,1.6-14.1,1.3"/>
	<path fill="none" stroke="#000000" stroke-width="2" stroke-miterlimit="10" d="M149.3,193.7l-2.2,38.3c0,0,7.8,0.3,8,0
		s5-36.5,5-36.5"/>
	<polyline fill="none" stroke="#000000" stroke-width="2" stroke-miterlimit="10" points="153.6,232.8 156.3,236.9 153.6,239.2 
		151.9,237.7 153.6,247.3 147.1,247.3 147.1,232.1 	"/>
	<polyline fill="none" stroke="#000000" stroke-width="2" stroke-miterlimit="10" points="142.7,237.8 149.7,292.5 156.8,292.5 
		162.3,239.2 	"/>
	<polygon fill="none" stroke="#000000" stroke-width="2" stroke-miterlimit="10" points="149.7,292.5 169.7,292.5 167.7,299.2 
		149.7,296.7 	"/>
	<line fill="none" stroke="#000000" stroke-width="2" stroke-miterlimit="10" x1="181.5" y1="150.2" x2="187.5" y2="150.2"/>
	<line fill="none" stroke="#000000" stroke-width="2" stroke-miterlimit="10" x1="193.5" y1="150.2" x2="199.5" y2="150.2"/>
	<line fill="none" stroke="#000000" stroke-width="2" stroke-miterlimit="10" x1="205.4" y1="150.2" x2="211.4" y2="150.2"/>
	<line fill="none" stroke="#000000" stroke-width="2" stroke-miterlimit="10" x1="217.4" y1="150.2" x2="223.4" y2="150.2"/>
	<line fill="none" stroke="#000000" stroke-width="2" stroke-miterlimit="10" x1="229.4" y1="150.2" x2="235.4" y2="150.2"/>
	<line fill="none" stroke="#000000" stroke-width="2" stroke-miterlimit="10" x1="241.3" y1="150.2" x2="247.3" y2="150.2"/>
	<line fill="none" stroke="#000000" stroke-width="2" stroke-miterlimit="10" x1="253.3" y1="150.2" x2="259.3" y2="150.2"/>
	<line fill="none" stroke="#000000" stroke-width="2" stroke-miterlimit="10" x1="265.3" y1="150.2" x2="271.3" y2="150.2"/>
	<line fill="none" stroke="#000000" stroke-width="2" stroke-miterlimit="10" x1="277.2" y1="150.2" x2="283.2" y2="150.2"/>
	<line fill="none" stroke="#000000" stroke-width="2" stroke-miterlimit="10" x1="289.2" y1="150.2" x2="295.2" y2="150.2"/>
</g>
<g id="Stroke">
	
		<path opacity="0" fill="none" stroke="#000000" stroke-width="11" stroke-linecap="round" stroke-linejoin="round" stroke-miterlimit="10" d="
		M154.6,135.8c-7.5-1.5-16.2-2.7-22,2.2c6.8,1.6,13.7,3.1,20.5,4.7c-1.2,4-5.9,5.6-10,6.1c-4.1,0.5-8.7,0.8-11.5,3.8
		c5.8,3,12.5,4.3,19.1,3.7c-2.1,4.5-6.8,7.7-11.8,8.1c-1.2,1.2-0.8,3.3,0.4,4.5c1.2,1.2,3,1.6,4.6,1.9c5,1.1,10.1,2.1,15.1,3.2
		c-7.2,6.2-18.9,0.6-27.4,4.6c4.8,3.9,10.9,6.1,17,6.3c3,0.1,6.9,0.4,7.4,3.4c-7,1.4-13.9,2.8-20.9,4.2c-0.6,1,0.9,2,2,2.3
		c6.2,1.8,12.5,3.5,18.7,5.3c-6.7,2.7-13.5,5.4-20.2,8.1c6.1,1.4,12.3,2.7,18.4,4.1c-6.4,3.4-13.3,6.1-20.3,8
		c4.9,1.6,10.1,2.4,15.2,2.3c-1.9,6.4-12.2,6.5-15,12.6c7.4,0.2,14.8,0.4,22.2,0.7c-4.4,2.7-8.9,5.4-13.3,8.1
		c7.7,1.1,15.7,0.9,23.3-0.8c-8.5,4-17.1,7.9-25.6,11.9c3.1,1.5,6.6,2.3,10.1,2.1c-2.1,3.8-4.8,7.3-8.1,10.2
		c4.4,0.4,8.8,0.9,13.2,1.3c-2.6,3.6-5.6,6.9-8.8,9.9c2.8,0.8,5.7,1.7,8.5,2.5c-3.3,3.6-5.7,8-7.1,12.7c3.9,0.6,7.9,0.2,11.5-1.2
		c-1.3,2.4-2.7,4.8-4,7.3c4.4-0.6,8.5-2.8,11.4-6.2c0,2.2,0,4.3,0,6.5c1.8-0.3,3.5-0.5,5.3-0.8"/>
</g>
</svg>
