<?xml version="1.0" encoding="utf-8"?>
<!-- Generator: Adobe Illustrator 19.2.1, SVG Export Plug-In . SVG Version: 6.00 Build 0)  -->
<svg version="1.0" xmlns="http://www.w3.org/2000/svg" xmlns:xlink="http://www.w3.org/1999/xlink" x="0px" y="0px" width="432px"
	 height="432px" viewBox="0 0 432 432" enable-background="new 0 0 432 432" xml:space="preserve">
<g id="Layer_2">
	<path fill="#27AAE1" d="M218.8,109.2c0,0-9.7,31.3,5.2,40.2c0,0-13.5-4.9-13.5-16.5C210.6,121.3,212,109.6,218.8,109.2z"/>
	<polygon fill="#27AAE1" points="217.4,155 220.5,211.2 238,215.1 222.4,216.1 221.3,311.9 213.8,323.3 203.8,317.4 218.5,312.8 
		213.6,215.3 210.6,155 	"/>
	<path fill="#27AAE1" d="M212.9,167.8l-11.4,9.8l-14.8-11.1c0,0,14.2,20.4,14.3,19.6c0.1-0.8,12.7-11.7,12.7-11.7L212.9,167.8z"/>
	<polygon fill="#27AAE1" points="234.1,215.9 235,311.9 249.1,320.7 239.4,322.6 233,312.8 233,309.5 228.8,216.3 	"/>
</g>
<g id="Layer_1">
	
		<ellipse transform="matrix(0.9945 -0.1043 0.1043 0.9945 -12.2195 24.0493)" fill="none" stroke="#000000" stroke-width="2" stroke-miterlimit="10" cx="223.9" cy="128.9" rx="13.8" ry="20.6"/>
	<path fill="none" stroke="#000000" stroke-width="2" stroke-miterlimit="10" d="M211.4,162.4c0.7,15.5,2.2,52.8,2.2,52.8
		c8.2,1.5,27.2,0,27.2,0l-2-61.5c-5-0.6-13.6,0.2-20,1l-7.5,0.8V162.4z"/>
	<polyline fill="none" stroke="#000000" stroke-width="2" stroke-miterlimit="10" points="220.5,148.3 221.8,154.4 229.6,153.6 
		229.6,148.3 	"/>
	<path fill="none" stroke="#000000" stroke-width="2" stroke-miterlimit="10" d="M212.9,113c0,0,9.8-0.2,15.3-3.5"/>
	<path fill="none" stroke="#000000" stroke-width="2" stroke-miterlimit="10" d="M210.3,115.4c0,0,9.8,2.3,22.8-4.2"/>
	<path fill="none" stroke="#000000" stroke-width="2" stroke-miterlimit="10" d="M209.1,118.6c0,0,14,1.7,26.5-3.7"/>
	<polyline fill="none" stroke="#000000" stroke-width="2" stroke-miterlimit="10" points="213.6,215.3 218.8,311.9 223.3,311.9 
		226,216.3 	"/>
	<polyline fill="none" stroke="#000000" stroke-width="2" stroke-miterlimit="10" points="228.8,216.3 233,311.9 236.5,311.9 
		239.4,216.3 	"/>
	<path fill="none" stroke="#000000" stroke-width="2" stroke-miterlimit="10" d="M211.4,156.8c-1,1.2-9.5,18.3-9.5,18.3l-12-14.3
		v-11.5h-4.2v6.8h-7.2l1,10.7h7l14.5,19.3l10.5-10.8"/>
	<line fill="none" stroke="#000000" stroke-width="2" stroke-miterlimit="10" x1="201.9" y1="175.2" x2="200.9" y2="186.2"/>
	<polyline fill="none" stroke="#000000" stroke-width="2" stroke-miterlimit="10" points="238.9,153.8 250.9,178.8 250,209.1 
		245.6,209.1 243.7,181.4 239.6,175.2 	"/>
	<line fill="none" stroke="#000000" stroke-width="2" stroke-miterlimit="10" x1="243.7" y1="181.4" x2="250.9" y2="178.8"/>
	<polyline fill="none" stroke="#000000" stroke-width="2" stroke-miterlimit="10" points="245.6,209.7 243.7,215.3 245.6,216.5 
		248.4,214.5 250,225.6 254.4,220.5 250,209.1 	"/>
	<polygon fill="none" stroke="#000000" stroke-width="2" stroke-miterlimit="10" points="218.8,312.8 204.3,316.9 215.1,321.9 
		223.3,312.8 	"/>
	<polygon fill="none" stroke="#000000" stroke-width="2" stroke-miterlimit="10" points="231.6,312.8 238,311.9 252.1,320.6 
		239.4,322.6 	"/>
</g>
<g id="Layer_3">
	<path opacity="1.000000e-02" fill="none" stroke="#27AAE1" stroke-width="15" stroke-miterlimit="10" d="M202.7,110.2
		c8.7-1.4,17.5-1.9,26.2-1.5c-11.8,5-24.3,8.1-37.1,9.3c13.4,0.2,26.8,0.4,40.2,0.6c-14.6,5.2-29.5,9.5-44.6,12.7
		c11.3-0.1,22.7-0.1,34-0.2c-12.3,3.5-24.5,6.9-36.8,10.4c16.5,0.1,32.9,0.2,49.4,0.4c-19.6,4.1-39.2,8.2-57.9,15.2
		c19.4-0.9,38.8-1.7,58.1-2.6c-21.5,4.8-43.1,9.7-63.2,18.6c21.3-2.4,42.7-3.5,64.1-3.1c-14.2,5-28.4,10-42.5,15.1
		c14.6-0.6,29.1-1.2,43.7-1.8c-16.7,4.7-33.4,9.5-50,14.2c2.3,2.3,5.8,2.7,9.1,2.9c16.8,1.1,33.7,1.8,50.5,2.1
		c-14.9,3.7-29.9,7.5-44.8,11.2c15.5-0.3,31,0.3,46.4,1.7c-13.1,1.1-26.1,3-39,5.6c10.1-0.7,20.2-1.4,30.3-2.1
		c-12.5,8-27.2,12.1-41.6,16c17.9-0.6,35.8,0.1,53.6,2.1c-15.8,5-31.8,9.4-47.9,13.3c15.2,0.2,30.3,1.6,45.2,4.3
		c-12.7,5-25.4,9.9-38,14.9c11.1,0.4,22.2,0.9,33.4,1.3c-14.9,4.5-29.7,9.5-44.3,14.9c11.5-0.1,23.1,0.8,34.5,2.9
		c-11.2,5.4-23.3,9.1-35.7,11c14.5,0.3,29,0.6,43.5,0.9c-16.4,2.3-32.8,4.6-49.2,6.9c18.4,0.8,36.9,1.6,55.3,2.4
		c-12.1,3.3-24.2,6.6-36.4,9.9c16.6,2,33.3,2.4,50,1.2"/>
</g>
</svg>
