<?xml version="1.0" encoding="utf-8"?>
<!-- Generator: Adobe Illustrator 21.0.0, SVG Export Plug-In . SVG Version: 6.00 Build 0)  -->
<!DOCTYPE svg PUBLIC "-//W3C//DTD SVG 1.0//EN" "http://www.w3.org/TR/2001/REC-SVG-20010904/DTD/svg10.dtd">
<svg version="1.0" id="Layer_1" xmlns="http://www.w3.org/2000/svg" xmlns:xlink="http://www.w3.org/1999/xlink" x="0px" y="0px"
	 width="432px" height="432px" viewBox="0 0 432 432" enable-background="new 0 0 432 432" xml:space="preserve">
<g id="Layer_2">
	<path fill="#27AAE1" d="M168.6,78c0,0-20.3,25.6,2.3,45.3c0,0-13.5-2.5-14.7-18.7C155,88.2,163.5,79.2,168.6,78z"/>
	<path fill="#27AAE1" d="M158.6,130c0,0,0.1,76.8,1.1,77.8s18.5,5.8,18.5,5.8s-7.3,1.4-14.8,0.8l-13.7,108.9l19.7,9.7l-10.2,12.1
		l-13.8-21.9l6.9-113.3l1.9-81C154.4,129,160.5,130.5,158.6,130z"/>
	<polygon fill="#27AAE1" points="172.8,215.1 178.2,323.2 202.5,330.3 192.5,340 174.8,323.2 166.9,231.8 168.6,215.1 	"/>
</g>
<g id="Layer_1_1_">
	<ellipse fill="none" stroke="#000000" stroke-width="2" stroke-miterlimit="10" cx="170.9" cy="100.6" rx="14.9" ry="22.7"/>
	<path fill="none" stroke="#000000" stroke-width="2" stroke-miterlimit="10" d="M161.5,80.1c0.5,0,9.8,2,18.4-0.8"/>
	<path fill="none" stroke="#000000" stroke-width="2" stroke-miterlimit="10" d="M158.6,83.3c0,0,14.1,2.2,23.6-0.6"/>
	<path fill="none" stroke="#000000" stroke-width="2" stroke-miterlimit="10" d="M156,86.2c2.1,0.8,19.5,3.9,27.9-1.1"/>
	<polyline fill="none" stroke="#000000" stroke-width="2" stroke-miterlimit="10" points="166.4,122.2 166.4,129 173.9,129 
		173.9,122.8 	"/>
	<path fill="none" stroke="#000000" stroke-width="2" stroke-miterlimit="10" d="M182.5,163.8c1.2-18.2,2.3-34.8,2.3-34.8h-30.4
		c0,0-1.6,67-1.9,81c0,0,12.1,8.4,26.7,3.6c0,0,1.2-17.8,2.5-37.1"/>
	<path fill="none" stroke="#000000" stroke-width="2" stroke-miterlimit="10" d="M152.4,210l-6.9,113.3h6.9
		c0,0,16.3-95.4,16.2-108.2"/>
	<polyline fill="none" stroke="#000000" stroke-width="2" stroke-miterlimit="10" points="167.6,226.3 174.8,323.2 182.8,323.2 
		179.2,213.6 	"/>
	<polyline fill="none" stroke="#000000" stroke-width="2" stroke-miterlimit="10" points="164.7,141 185.8,168 213,168 218,162 
		219.7,163.3 218.3,168 231,168 226,173.7 181.6,177.1 161.5,154.7 	"/>
	<path fill="none" stroke="#000000" stroke-width="2" stroke-miterlimit="10" d="M183.5,147.8l10.8,11.7l24.4-3l1.5-4.6h3.4v4.2
		l9.9,0.6l-1.4,5.2c0,0-5.6,0.8-12.8,1.9"/>
	<path fill="none" stroke="#000000" stroke-width="2" stroke-miterlimit="10" d="M216,164.4c-11.5,1.7-25,3.6-25,3.6l-8.2-9.5"/>
	<polyline fill="none" stroke="#000000" stroke-width="2" stroke-miterlimit="10" points="145.5,323.2 161,342.7 170.8,331.3 
		152.4,323.2 	"/>
	<path fill="none" stroke="#000000" stroke-width="2" stroke-miterlimit="10" d="M174.8,323.2l16.6,14.1c0,0,11.7-9.8,11.2-9.8
		s-19.8-4.2-19.8-4.2"/>
</g>
<g id="Layer_3">
	<path fill="none" stroke="#27AAE1" stroke-width="30" stroke-miterlimit="10" stroke-opacity="0" d="M154.7,80.8
		c6.1,0.1,12.3,0.1,18.4,0.2c-8.6,2.9-17.2,5.9-25.8,8.8c6.6,0,13.1,0.3,19.7,1c-9,3.4-18.1,6.8-27.1,10.2c8.6,0,17.3,0,25.9,0.1
		c-7.7,4.1-15.9,7.1-24.4,9c10.3-0.3,20.6,0,30.9,0.7c-10.1,4-20.4,7.3-31,9.7c6.2-0.2,12.4-0.3,18.7-0.5c-7.8,6-16.4,11-25.4,15
		c10.2,0.1,20.4,0.3,30.7,0.4c-8.4,2.9-16.9,5.5-25.5,7.8c9.2,0.1,18.4,0.2,27.6,0.2c-9.5,2.8-19,5.6-28.5,8.3
		c11.5-0.7,23,0,34.3,1.9c-11.4,3.2-22.8,6.4-34.2,9.5c7.4-0.1,14.8-0.2,22.2-0.4c-5.8,2.9-11.6,5.8-17.4,8.7
		c10.5,0.5,21.1,0.7,31.6,0.7c-12.6,3.7-25.3,7-38.1,9.8c9,0.3,18,0.5,27,0.8c-6.6,2-13.1,4.6-19.3,7.7c10.5-0.3,21.1,0,31.6,0.8
		c-14.5,4-29.1,8-43.6,12c18-0.7,36-1.3,53.9-2c-15.5,4.3-31.1,8.6-46.6,12.9c10.5-0.3,20.9,0,31.3,0.7
		c-13.7,4.8-27.5,9.3-41.5,13.3c16.6-0.9,33.2-1.3,49.8-1.2c-12.9,2.9-25.6,7-37.8,12c13.9-1,27.8-1.3,41.6-1
		c-18.2,5.9-36.8,10.7-55.6,14.4c17.5,0.8,35,0.8,52.5,0.2c-14.3,4.1-28.9,7.6-43.5,10.5c16.2-0.6,32.4-1.1,48.6-1.7
		c-16.3,5-32.6,9.9-48.8,14.9c17.5-0.3,35.1-0.5,52.6-0.8c-13.4,3.4-26.7,6.7-40.1,10.1c16.8,0,33.5,0,50.3,0
		c-18.2,2.8-36.5,5.6-54.7,8.4c17.1-0.5,34.2-1,51.2-1.5c-17.4,6.9-38.4,5.2-53.3,16.5c12.9-0.3,25.8-0.5,38.7-0.8
		c-18.3,3.2-36.5,7-54.6,11.6c4.6,2,9.9,1.5,15,0.9c17.9-2.1,35.7-4.2,53.6-6.2c-15.6,4.4-31.2,8.7-46.7,13.1
		c18.7-2.7,37.6-5.4,56.5-4c-17.2,4.3-34.5,8.3-51.9,11.8c15-0.3,30-0.7,44.9-1c-10.5,0.8-21.1,1.7-31.6,2.5
		c-7.5,0.6-15,1.2-22.2,3.6c15.1,1,30.3,0.8,45.4-0.8c3.8-0.4,8.6-2.1,8.4-5.8"/>
</g>
</svg>
