<?xml version="1.0" encoding="utf-8"?>
<!-- Generator: Adobe Illustrator 19.2.1, SVG Export Plug-In . SVG Version: 6.00 Build 0)  -->
<svg version="1.0" xmlns="http://www.w3.org/2000/svg" xmlns:xlink="http://www.w3.org/1999/xlink" x="0px" y="0px" width="432px"
	 height="432px" viewBox="0 0 432 432" enable-background="new 0 0 432 432" xml:space="preserve">
<g id="Layer_2">
	<path fill="#27AAE1" d="M188.4,114.3c0,0-26.9,28.4-4.4,56.1c0,0-14.7-5.5-15-21.7C168.8,132.5,175.8,114.9,188.4,114.3z"/>
	<path fill="#27AAE1" d="M186.2,280.9h22.5l-22.5-6.6C186.7,276.5,186.7,278.8,186.2,280.9z"/>
	<path fill="#27AAE1" d="M175.9,279.8c0-0.1,0-0.2,0-0.3c0,0,0-0.1,0-0.3c-0.1-0.7-0.2-1.4-0.3-2c-0.1-0.9-0.1-1.8-0.1-2.7
		c0.1-1.1,0.3-2.1,0.8-3.1l-3.1-0.9v-92.8l-5-0.2l-2.5,103.3h10.5C176.1,280.5,176,280.2,175.9,279.8z"/>
</g>
<g id="Layer_1">
	
		<ellipse transform="matrix(0.1264 -0.992 0.992 0.1264 22.5986 310.5219)" fill="none" stroke="#000000" stroke-width="2" stroke-miterlimit="10" cx="187.6" cy="142.4" rx="28.3" ry="18.5"/>
	<path fill="none" stroke="#000000" stroke-width="2" stroke-miterlimit="10" d="M171.5,122.1c0,0,21.7,6.1,33.7,0.2"/>
	<path fill="none" stroke="#000000" stroke-width="2" stroke-miterlimit="10" d="M171,126.6c0,0,23.2,7.7,35.9,0.8"/>
	<polyline fill="none" stroke="#000000" stroke-width="2" stroke-miterlimit="10" points="178.6,168.8 177.8,177.6 191,177.6 
		191.7,168.8 	"/>
	<path fill="none" stroke="#000000" stroke-width="2" stroke-miterlimit="10" d="M176.4,280.9c-5.3,0-10.7,0-10.7,0l2.5-103.3
		l33.5,1.1l7,102.2c0,0-11.9,0-22.6,0"/>
	<path fill="none" stroke="#000000" stroke-width="2" stroke-miterlimit="10" d="M202.4,188.3c9.7,4.4,19.6,10.7,19.6,10.7
		l31.8-10.2l16-5.7l-0.7,8.7l-12.2,1.8l5,3.3l-3.3,2.7l-7.5-3c0,0-23.6,8.6-30.5,11.1c0,0-8.1-2.1-17.2-4.5"/>
	<line fill="none" stroke="#000000" stroke-width="2" stroke-miterlimit="10" x1="222" y1="198.9" x2="220.6" y2="207.6"/>
	<polyline fill="none" stroke="#000000" stroke-width="2" stroke-miterlimit="10" points="173.8,188.8 176.6,288.5 185.4,287.6 
		189.6,190.8 	"/>
	<polyline fill="none" stroke="#000000" stroke-width="2" stroke-miterlimit="10" points="185.4,287.6 189.9,296.5 186.2,299.1 
		182.6,295.2 182.6,317.1 173.5,309.9 177.6,287.6 	"/>
</g>
<g id="Layer_3">
	<path opacity="0" fill="none" stroke="#27AAE1" stroke-width="25" stroke-miterlimit="10" d="M168.2,115c7.9-0.8,15.9-0.4,23.7,1.2
		c-9.3,2.9-18.6,5.8-27.9,8.7c6.6,0,13.2,0.9,19.5,2.7c-7.8,3.1-15.8,5.9-23.8,8.5c6.8,0.2,13.6,0.9,20.3,1.9
		c-8,2.8-16.1,5.7-24.1,8.5c9.5,0.2,19.1,0.3,28.6,0.5c-8,4.5-16.4,8.2-25.1,11.2c9.4,0.9,18.8,1.7,28.2,2.6
		c-9.9,3.2-19.8,6.4-29.8,9.6c10.1,0.6,20.1,1.2,30.2,1.7c-8.2,3.5-16.4,7-24.6,10.5c-2.3,1-4.8,2.1-6.3,4.1
		c9.5,1.3,19.1,2.5,28.6,3.8c-11.4,4-22.9,7.7-34.6,11c9.5,0.6,19,1.1,28.6,1.7c-7.2,2.3-14.3,4.6-21.5,7c9.5,0.2,19,0.4,28.5,0.5
		c-7.3,3.9-14.7,7.8-22,11.7c6.8-0.7,13.8-0.2,20.4,1.5c-5.1,2-10.1,4-15.2,6c6.1-0.7,12.3-0.1,18.1,1.5
		c-11.6,1.6-23.1,3.9-34.4,6.9c10.4,1.4,20.9,2.9,31.3,4.3c-8.8,1.7-17.4,4.5-25.6,8.1c6.5,0.4,12.9,0.7,19.4,1.1
		c-9.3,1.9-18.4,4.9-26.9,9c13.5,0,27.1,1.1,40.5,3.2c-8.3,0.3-16.5,1.8-24.3,4.6c10.1,1.2,20.2,1.7,30.4,1.4
		c-6.7,2-13.9,1.7-20.8,2.7c-6.9,1-14.2,3.7-17.9,9.7c10,0.9,20,1.8,30,2.6c4.8,0.4,9.7,0.8,14.3-0.6s8.9-5,9.5-9.8"/>
</g>
</svg>
