<?xml version="1.0" encoding="utf-8"?>
<!-- Generator: Adobe Illustrator 19.2.1, SVG Export Plug-In . SVG Version: 6.00 Build 0)  -->
<svg version="1.0" xmlns="http://www.w3.org/2000/svg" xmlns:xlink="http://www.w3.org/1999/xlink" x="0px" y="0px" width="432px"
	 height="432px" viewBox="0 0 432 432" enable-background="new 0 0 432 432" xml:space="preserve">
<g id="Layer_2">
	<path fill="#27AAE1" d="M231.4,107.1c0,0-20.1,17.4-8.7,39c0,0-10.8-6-7.7-21.8S231.4,107.1,231.4,107.1z"/>
	<path fill="#27AAE1" d="M165.4,172.7l18.3-21.1l22.4,4.2l1-6.7c0,0,5.7-0.6,5.8,0.3c0.1,1-6.6,62.8-6.6,62.8s43.7,76.2,46,95.3
		c0,0,25.4,9.5,25.7,10.4c0.3,0.9-4.9,7.9-4.9,7.9l-21.5-6.1l-1.4-11.5c0,0-7-16.1-10.2-21.6c-3.2-5.5-24.6-44.7-24.6-44.7l-1,7.7
		c0,0-6.3,22-13.3,31.8c-7,9.8-17.4,22.2-17.4,22.2l17.5,13.2l-9.5,4.3l-15.7-9.9l3.2-8.3c0,0,14.1-25.7,19.4-34.3
		c5.7-9.1,5.5-46.2,5.5-46.2l-6.7-11.5l6.9-48l-20-7.2c0,0-15.7,18.2-16.2,18.2S165.4,172.7,165.4,172.7z"/>
</g>
<g id="Layer_1">
	
		<ellipse transform="matrix(0.192 -0.9814 0.9814 0.192 60.0899 326.8133)" fill="none" stroke="#000000" stroke-width="2" stroke-miterlimit="10" cx="228.5" cy="126.9" rx="20.1" ry="13.8"/>
	<path fill="none" stroke="#000000" stroke-width="2" stroke-miterlimit="10" d="M216.4,111.5c0,0,16.2,4.9,26.4,1.9"/>
	<path fill="none" stroke="#000000" stroke-width="2" stroke-miterlimit="10" d="M243.6,116.4c0,0-16.9,4.1-28-0.9"/>
	<path fill="none" stroke="#000000" stroke-width="2" stroke-miterlimit="10" d="M207.1,149.2c0,0,19,0.2,30,6.7
		c0,0-12.5,51.2-17.2,58.3l-22.3-3.2L207.1,149.2z"/>
	<path fill="none" stroke="#000000" stroke-width="2" stroke-miterlimit="10" d="M197.6,211.1c0,0,48.3,81.8,52.8,97.3l4.2-1.2
		c0,0-11.7-56.4-34.7-93"/>
	<path fill="none" stroke="#000000" stroke-width="2" stroke-miterlimit="10" d="M201.5,217.7c0,0,4.4,48.9-24,85l5.4,1
		c0,0,30-26.7,32.7-61.7"/>
	<polygon fill="none" stroke="#000000" stroke-width="2" stroke-miterlimit="10" points="250.3,308.4 251.7,319.9 272.9,324.4 
		279.8,315.9 255.4,307.7 	"/>
	<polygon fill="none" stroke="#000000" stroke-width="2" stroke-miterlimit="10" points="176.2,303.2 172.7,312.4 193.6,319.8 
		203.9,313.8 182.8,303.8 	"/>
	<polyline fill="none" stroke="#000000" stroke-width="2" stroke-miterlimit="10" points="237.1,155.9 250.3,177.5 268.9,160.8 
		271.6,162.4 250.3,192.3 233.1,171.5 	"/>
	<line fill="none" stroke="#000000" stroke-width="2" stroke-miterlimit="10" x1="250.3" y1="177.5" x2="250.3" y2="192.3"/>
	<polyline fill="none" stroke="#000000" stroke-width="2" stroke-miterlimit="10" points="221,145.1 220,150.4 226.1,151.7 
		228.5,146.6 	"/>
	<path fill="none" stroke="#000000" stroke-width="2" stroke-miterlimit="10" d="M221.8,107.9c0,0,8,3.3,19.2,2"/>
	<polyline fill="none" stroke="#000000" stroke-width="2" stroke-miterlimit="10" points="207.1,149.2 180.1,145.1 163.1,171.5 
		167.8,174.1 185.1,155.9 203.9,162.4 	"/>
	<path fill="none" stroke="#000000" stroke-width="2" stroke-miterlimit="10" d="M268.9,160.8l-4.1-5.7l4.8-6.7c0,0,9.2,6.1,9.2,6.2
		s-2.5,7-2.5,7l-4.7,0.8"/>
	<polyline fill="none" stroke="#000000" stroke-width="2" stroke-miterlimit="10" points="163.1,171.5 157,171.5 152.6,177.5 
		164,184.9 168.3,180.8 167.8,174.1 	"/>
</g>
<g id="Layer_3">
	<path opacity="0" fill="none" stroke="#27AAE1" stroke-width="15" stroke-miterlimit="10" d="M212.5,105.5
		c6.8,0.3,13.5,1.2,20.1,2.6c-9.9,4.8-20.6,7.9-31.5,9.2c10.1,0.1,20.2,0.3,30.2,0.4c-11.5,3.7-23.1,7.3-34.6,11
		c11.9-0.3,23.9,0,35.8,0.8c-14.3,1.9-28.6,3.9-42.9,5.8c16.6,0.1,33.2,0.2,49.8,0.3c-23.3,4.6-46.7,9.2-70,13.8c23-1,46-2,69-2.9
		c-27.4,10-58.2,7.6-85.1,18.8c24,0,48,0.1,71.9,0.1c-26.7,5.4-53.4,10.9-80.1,16.3c25.7,0.2,51.5,0.4,77.2,0.7
		c-20.7,6.5-41.4,13.1-62.2,19.6c19.5-0.3,38.9-0.5,58.4-0.8c-17,5.3-34,10.5-51,15.8c20.4-0.3,40.8-0.6,61.2-0.9
		c-16.3,6.6-32.6,13.2-49,19.8c16.6,0.1,33.2,0.2,49.9,0.4c6.2,0.1,12.7,0.2,18.2,3c-8.9,3.4-18.3,4.8-27.7,6.2
		c-10.9,1.6-21.7,3.3-32.6,4.9c21.4,0.3,42.8,0.7,64.2,1c-24.5,1-49,3.3-73.4,6.7c-3.4,0.5-7.2,1.3-8.8,4.2
		c35.4,1.3,70.8,1.9,106.2,1.9c-39.3,5.5-78.7,11-118,16.5c35,0.7,69.9,1.4,104.9,2.2c-42.5,4.7-84.9,9.4-127.2,15.5
		c39.1-2.1,78.2-2.2,117.3-0.4c-39.8,11.3-81.8,10.9-123.1,10.3c54.3-1,108.5-2,162.8-3.1c-35.1,8.7-71.1,12.9-107.1,17.2
		c32-0.9,63.9-3.1,95.6-6.7"/>
</g>
</svg>
