<?xml version="1.0" encoding="utf-8"?>
<!-- Generator: Adobe Illustrator 19.2.1, SVG Export Plug-In . SVG Version: 6.00 Build 0)  -->
<svg version="1.0" xmlns="http://www.w3.org/2000/svg" xmlns:xlink="http://www.w3.org/1999/xlink" x="0px" y="0px" width="432px"
	 height="432px" viewBox="0 0 432 432" enable-background="new 0 0 432 432" xml:space="preserve">
<g id="Layer_2">
	<path fill="#27AAE1" d="M160.5,129.4c0,0-5.2,23.8,7.2,30.8c0,0-11.1-1.7-12.2-10.8C154.3,140.2,153,132.1,160.5,129.4z"/>
	<path fill="#27AAE1" d="M157.8,165l11.9,47.3l55.4,42.3l3.7,47l10.8-10.2l1.5,6.7l-14.2,9.2l-5.5-48.1c0,0-60.4-37.8-60.1-38.6
		c0.3-0.8,3.7-8.8,3.7-8.8l-2.2-1.8l-9.6-44.3l-15.5-15.2l-5-24.4l2.2-0.5l6.6,23.2L157.8,165z"/>
</g>
<g id="Layer_1">
	<path fill="none" stroke="#000000" stroke-width="2" stroke-miterlimit="10" d="M184.7,297.6c-2.9,18-18.6,31.8-37.4,31.8
		c-20.9,0-37.9-17-37.9-37.9c0-20.9,17-37.9,37.9-37.9c10,0,19,3.9,25.8,10.2"/>
	<path fill="none" stroke="#000000" stroke-width="2" stroke-miterlimit="10" d="M175.9,266.7c0.4,0.4,0.7,0.9,1.1,1.3l2.2,3.2
		c3.8,5.9,5.9,12.9,5.9,20.4c0,0.9,0,1.9-0.1,2.8"/>
	<path fill="none" stroke="#000000" stroke-width="2" stroke-miterlimit="10" d="M264.8,257.2c4.9-2.3,10.3-3.6,16.1-3.6
		c20.9,0,37.9,17,37.9,37.9c0,19.4,5.8,26.4-13,28.6c0,0-7-2.5-14.4,1.8c-7.3,4.3-17.1,7.1-19.4,6.5c-16.5-4.5-29-19-29-36.9
		c0-14,7.5-26.2,18.8-32.7"/>
	<path fill="none" stroke="#000000" stroke-width="2" stroke-miterlimit="10" d="M218.8,301.9c-2.2,2.7-5.5,4.4-9.3,4.4
		c-6.6,0-12-5.4-12-12c0-6.6,5.4-12,12-12s12,5.4,12,12c0,1.8-0.4,3.6-1.1,5.1"/>
	<path fill="none" stroke="#000000" stroke-width="2" stroke-miterlimit="10" d="M280,286.5c0.3-0.1,0.6-0.1,1-0.1
		c2.8,0,5.1,2.3,5.1,5.1c0,2.8-2.3,5.1-5.1,5.1c-2.8,0-5.1-2.3-5.1-5.1c0-0.8,0.2-1.6,0.5-2.3"/>
	<path fill="none" stroke="#000000" stroke-width="2" stroke-miterlimit="10" d="M163.6,221.9c-6.5-0.4-11.4-0.4-11.4-0.4l0.6,11.7
		c0,0,21.4,0,28.6,0"/>
	<polygon fill="none" stroke="#000000" stroke-width="2" stroke-miterlimit="10" points="222.4,310.6 237,300.3 238.2,304.4 
		226.3,312.8 	"/>
	<path fill="none" stroke="#000000" stroke-width="2" stroke-miterlimit="10" d="M226.6,302c-6.6-2.5-17-6.4-17-6.4v2.2
		c0,0,12.1,4.7,17.5,6.8"/>
	<line fill="none" stroke="#000000" stroke-width="2" stroke-miterlimit="10" x1="164.2" y1="233.2" x2="207" y2="282.6"/>
	<line fill="none" stroke="#000000" stroke-width="2" stroke-miterlimit="10" x1="169.1" y1="233.2" x2="211.2" y2="282.5"/>
	<path fill="none" stroke="#000000" stroke-width="2" stroke-miterlimit="10" d="M182.8,254.7l-43.1,39.6c0,0-1.7,3,0,3
		s57.9,0,57.9,0"/>
	<polyline fill="none" stroke="#000000" stroke-width="2" stroke-miterlimit="10" points="184.7,257.9 146.2,294.3 197.6,294.3 	"/>
	<path fill="none" stroke="#000000" stroke-width="2" stroke-miterlimit="10" d="M255,210.5c-1.1,5.5-2.4,12.2-2.4,12.2l18,52.8
		l13.2,15.8c-1.6,3.7-4,2.6-4,2.6L268,277.4l-16.7-48.2l-2.2-5.8c0,0-2.7-0.5-5.7-1l-8.7-1.5c-2.6-0.4-4.5-0.8-4.5-0.8l0.7-4.7
		c0,0,2.2,0.5,5,1.1l8.6,1.9c2.9,0.6,5.6,1.2,5.6,1.2s0.7-5.8,1.3-10.5l0.7-5.5c0.1-0.7,0.1-1,0.1-1l4.1,1c0,0-0.1,0.7-0.3,1.8
		L255,210.5z"/>
	<path fill="none" stroke="#000000" stroke-width="2" stroke-miterlimit="10" d="M253.5,235.5c0,0-17.7,3.2-35.5,6.4"/>
	<path fill="none" stroke="#000000" stroke-width="2" stroke-miterlimit="10" d="M200,245.1c-10.4,1.9-18.1,3.2-18.1,3.2"/>
	<path fill="none" stroke="#000000" stroke-width="2" stroke-miterlimit="10" d="M179.7,245.7c0,0,6.8-1.2,16.2-2.9"/>
	<path fill="none" stroke="#000000" stroke-width="2" stroke-miterlimit="10" d="M214.8,239.4c18.6-3.4,37.7-6.8,37.7-6.8"/>
	<path fill="none" stroke="#000000" stroke-width="2" stroke-miterlimit="10" d="M254.5,238.2c-0.5,0.3-12.6,14.8-23.1,27.4"/>
	<path fill="none" stroke="#000000" stroke-width="2" stroke-miterlimit="10" d="M223.6,274.9c-4.5,5.5-7.7,9.3-7.7,9.3"/>
	<path fill="none" stroke="#000000" stroke-width="2" stroke-miterlimit="10" d="M252.5,235.7c-0.1,0-10.8,12.8-21,25.1"/>
	<path fill="none" stroke="#000000" stroke-width="2" stroke-miterlimit="10" d="M223.1,271c-5.7,6.8-9.9,11.9-9.9,11.9"/>
	
		<ellipse transform="matrix(0.9806 -0.1959 0.1959 0.9806 -25.14 35.0431)" fill="none" stroke="#000000" stroke-width="2" stroke-miterlimit="10" cx="164.6" cy="144.6" rx="10" ry="15.8"/>
	<path fill="none" stroke="#000000" stroke-width="2" stroke-miterlimit="10" d="M164.5,160.1c0,0,0.2,2.5,0.4,4"/>
	<path fill="none" stroke="#000000" stroke-width="2" stroke-miterlimit="10" d="M170.1,163.3c-0.1-1.5-0.3-4.2-0.3-4.2"/>
	<polyline fill="none" stroke="#000000" stroke-width="2" stroke-miterlimit="10" points="165.2,211.8 161.5,220.6 221.5,258.9 
		227.5,306.6 230.3,305 231.8,251 183.1,215.9 	"/>
	<path fill="none" stroke="#000000" stroke-width="2" stroke-miterlimit="10" d="M209.4,207.1"/>
	<path fill="none" stroke="#000000" stroke-width="2" stroke-miterlimit="10" d="M230.4,301c0.3-0.2,9.9-11.4,9.9-11.4l0.9,7.7
		l-10.9,7.7L230.4,301z"/>
	<path fill="none" stroke="#000000" stroke-width="2" stroke-miterlimit="10" d="M155.7,131.1c0,0,6,2.3,13-1.2"/>
	<path fill="none" stroke="#000000" stroke-width="2" stroke-miterlimit="10" d="M154.2,134c0,0,6.2,3.5,15.8-1.2"/>
	<path fill="none" stroke="#000000" stroke-width="2" stroke-miterlimit="10" d="M152.5,138.2c0.6-0.2,12.1,2.1,20.1-3"/>
	<polygon fill="none" stroke="#000000" stroke-width="2" stroke-miterlimit="10" points="153.3,165.7 179.7,161.6 183.1,215.9 
		163,210.6 	"/>
	<polyline fill="none" stroke="#000000" stroke-width="2" stroke-miterlimit="10" points="157.8,165 141.1,148.4 135,125.7 
		130.2,126.7 135.3,152.7 154.2,172 	"/>
	<polyline fill="none" stroke="#000000" stroke-width="2" stroke-miterlimit="10" points="135,125.7 137.8,117.9 135,116 
		133.6,117.9 130.2,108 123.3,110.8 129.6,126.8 	"/>
	<line fill="none" stroke="#000000" stroke-width="2" stroke-miterlimit="10" x1="140.9" y1="147.8" x2="135.3" y2="152.7"/>
	<polyline fill="none" stroke="#000000" stroke-width="2" stroke-miterlimit="10" points="175.7,162.3 187,144.4 187.8,120.8 
		192.7,120.7 193.5,147.2 180.2,169.2 	"/>
	<polyline fill="none" stroke="#000000" stroke-width="2" stroke-miterlimit="10" points="187.8,120.8 183.3,113.9 185.6,111.4 
		187.4,113 188.5,102.6 195.8,103.7 193.3,120.7 	"/>
	<line fill="none" stroke="#000000" stroke-width="2" stroke-miterlimit="10" x1="187" y1="143.8" x2="193.5" y2="147.2"/>
	<polyline fill="none" stroke="#000000" stroke-width="2" stroke-miterlimit="10" points="182.9,212.6 218,194.2 273.2,190 
		273.2,195 221.5,205 192.1,222.4 	"/>
	<path fill="none" stroke="#000000" stroke-width="2" stroke-miterlimit="10" d="M273.2,195c0-1,0-23,0-23l6.6,1l-3.3,22.7
		L273.2,195z"/>
</g>
<g id="Layer_3">
	<path opacity="0" fill="none" stroke="#27AAE1" stroke-width="15" stroke-miterlimit="10" d="M127.9,123.1
		c15.8,0,31.6,0.1,47.3,0.1c-16.2,3.6-32.6,6.2-49.2,7.6c16.2-1.2,32.5-1.5,48.7-1c-14.9,1.1-29.6,3.7-44,7.7
		c15.4-0.9,30.8-1.7,46.3-2.6c-14.1,3.5-28.1,7.4-42,11.5c15.1-0.6,30.2-1.1,45.3-1.7c-19.7,5-39.4,10-59.1,15.1
		c16.6-1,33.2-2.1,49.8-3.1c-11.9,2.2-23.7,4.5-35.6,6.7c10.5-0.4,21.1-0.7,31.6-1.1c-8.6,3.4-17.1,6.8-25.7,10.2
		c14.1,0,28.3,0.1,42.4,0.1c-9.4,4.1-19.7,6.4-29.9,6.7c4.3,0,8.6,0,12.9,0c-7.4,3.2-14.9,6.3-22.3,9.5c10.1,0.5,20.2,0.2,30.2-1
		c-7.9,2.9-15.9,5.7-23.8,8.6c5.5-0.2,10.9-0.5,16.4-0.7c-6.7,2.3-12.9,6-18.2,10.8c9.7-1.2,19.6-1.7,29.4-1.6
		c-5.1,2.8-10.6,4.8-16.3,6.1c5.7-0.1,11.4-0.1,17.2-0.2c-6,2.3-11.5,5.6-16.3,9.7c11.2,0.3,22.4,0.1,33.6-0.4
		c-7.1,2.1-14.2,4.2-21.3,6.3c6.6,0.1,13.2-0.5,19.7-1.6c-5.6,3.2-11.1,6.5-16.7,9.7c12.2-0.5,24.3-1,36.5-1.6
		c-3.9,2.6-8.1,4.8-12.5,6.4c3.2-0.5,6.3-1.1,9.5-1.6c-3.9,2.6-7.9,5.2-11.8,7.8c6.9,0,13.9-0.6,20.7-1.6c-4.6,2.7-9.2,5.4-13.8,8.1
		c7-0.1,14-0.1,21-0.2c-6.9,2.5-13.5,6-19.4,10.3c9-1.7,18.2-2.5,27.3-2.2c-8.2,4.4-16.3,8.9-24.5,13.3c3.7-1.8,7.6-3,11.6-3.6
		c-6.6,4.7-12.6,10.1-18,16.1c11.6-3.1,23.2-6.2,34.9-9.3c-9.4,5.4-18.8,10.8-28.2,16.1c5.5-1.3,10.9-2.5,16.4-3.8
		c-4.2,2.7-8,6.1-11.2,10c8.3-0.1,16.5-1,24.7-2.6c-4.9,2.4-9.5,5.3-13.7,8.7c6.9,0.1,13.9-1.3,20.2-4.1c3.7-0.7,7.4,3.2,6.5,6.9
		c-0.8,3.6-5.9,5.5-8.9,3.3c-3-2.2-2.8-7.6,0.4-9.5"/>
</g>
</svg>
