<?xml version="1.0" encoding="utf-8"?>
<!-- Generator: Adobe Illustrator 21.0.0, SVG Export Plug-In . SVG Version: 6.00 Build 0)  -->
<!DOCTYPE svg PUBLIC "-//W3C//DTD SVG 1.0//EN" "http://www.w3.org/TR/2001/REC-SVG-20010904/DTD/svg10.dtd">
<svg version="1.0" id="Layer_2" xmlns="http://www.w3.org/2000/svg" xmlns:xlink="http://www.w3.org/1999/xlink" x="0px" y="0px"
	 width="960px" height="523px" viewBox="0 0 960 523" enable-background="new 0 0 960 523" xml:space="preserve">
<path fill="#FFFFFF" stroke="#000000" stroke-width="3" stroke-miterlimit="10" d="M378.5,39l-50.8-4.9l-40,2.3l-21.2,9.2l-29.2,9.5
	l-26.8,3.7c0,0-24-2.9-46.8,6.6S141,74.9,141,74.9L95.8,97.3L81,112.5c0,0-9.2,8.9-9.2,17.8c0,8.9-5.2,22.4-5.2,22.4l-8,18.1
	l-8,15.2l-10.8,32.5c0,0,4-20.1,0,7.8s-12,39.4-8,48.8s9.2,22.1,10.8,28.7c1.2,6.6,4,16.4,6.8,23c2.8,6.6,5.2,10.9,9.2,25.3
	c4,14.4,24,37.9,24,37.9l24,11.5l29.2,4l30.8,8.3c0,0,25.6,16.4,38,19.2c12.4,2.9,31.2,11.5,46,11.5s6.8,5.7,46.8,0
	s37.2-4.9,49.2-9.5c12-4.9,13.2-7.8,32-7.8s38.8,0,38.8,0s24,3.7,58.8,4.9c34.8,0.9,25.2,4.9,49.2,0.9c24-3.7,40-5.7,40-5.7
	s40-8.6,70.8-15.2s58-6.3,58-6.3s88.8,4.6,98,4.6c9.2,0,52-4.6,52-4.6l22.8-10.9c0,0,29.2-7.8,33.2-20.1s12-36.5,12-36.5l14.4-23.8
	c0,0,6.4-41.1,0-45.1s-5.2-7.5-10.4-21c-5.2-13.5-4,2.9-8-24.1c-4-26.7-4-45.1-4-45.1l-12-34.5c0,0-10.8-13.5-20-25
	c-9.2-11.5-6.8-13.5-18.8-23.8c-12-10.6-4.4-10.1-16.4-18.4c-11.6-8.3-45.2-17.8-45.2-17.8l-36-8.9l-17.2-6.3l-61.2-10.6l-38.8-10.1
	h-54.8h-61.2l-34.8,3.7l-46.8,10.1l-26.8,2L378.5,39z"/>
<path fill="#FFFFFF" stroke="#000000" stroke-width="3" stroke-miterlimit="10" d="M513.9,442.6h-5.5l-3.5,3.2l-2.2,5.2
	c0,0-1,2.8,0,4.2s-1.8-0.2,1,1.5c2.8,1.7,4.4,2.2,4.4,2.2h5.8c0,0,3-0.2,4.5-1.8s2-2,3-3.2s4,0,2.8-3.2s0-3-1.8-4.8
	c-1.8-1.8-1-3.2-3.2-3.5S513.9,442.6,513.9,442.6z"/>
<path fill="#FFFFFF" stroke="#000000" stroke-width="3" stroke-miterlimit="10" d="M490.1,463.8h-4.5h-2.2l-5,4.2c0,0,0.5,1.2,0,3.2
	s-1,3.2,0,5s3.2,3.5,3.2,3.5h2.3h4.9l8-1.2c0,0-0.2-1,0-3.2c0.2-2.2-0.5-3.8,0-5.5s0.1-5,0.1-5l-2.8-1H490.1z"/>
<path fill="#FFFFFF" stroke="#000000" stroke-width="3" stroke-miterlimit="10" d="M454.3,477.4h-5.8l-2,4.5l-1.5,4.2c0,0-2,3.8,0,6
	s2,2.2,2,2.2l7.2,1h5c0,0,4.5-5.2,4.5-6s0-1,0-3s1-5.5,0-6.5s-1.5-2.2-3-2.5S454.3,477.4,454.3,477.4z"/>
</svg>
