<?xml version="1.0" encoding="utf-8"?>
<!-- Generator: Adobe Illustrator 21.0.0, SVG Export Plug-In . SVG Version: 6.00 Build 0)  -->
<!DOCTYPE svg PUBLIC "-//W3C//DTD SVG 1.0//EN" "http://www.w3.org/TR/2001/REC-SVG-20010904/DTD/svg10.dtd">
<svg version="1.0" id="Layer_2" xmlns="http://www.w3.org/2000/svg" xmlns:xlink="http://www.w3.org/1999/xlink" x="0px" y="0px"
	 width="960px" height="523px" viewBox="0 0 960 523" enable-background="new 0 0 960 523" xml:space="preserve">
<path fill="#FFFFFF" stroke="#000000" stroke-width="3" stroke-miterlimit="10" d="M378.5,39l-50.8-4.9l-40,2.3l-21.2,9.2l-29.2,9.5
	l-26.8,3.7c0,0-24-2.9-46.8,6.6S141,74.9,141,74.9L95.8,97.3L81,112.5c0,0-9.2,8.9-9.2,17.8s-5.2,22.4-5.2,22.4l-8,18.1l-8,15.2
	l-10.8,32.5c0,0,4-20.1,0,7.8s-12,39.4-8,48.8s9.2,22.1,10.8,28.7c1.2,6.6,4,16.4,6.8,23s5.2,10.9,9.2,25.3s24,37.9,24,37.9l24,11.5
	l29.2,4l30.8,8.3c0,0,25.6,16.4,38,19.2c12.4,2.9,31.2,11.5,46,11.5c14.8,0,6.8,5.7,46.8,0s37.2-4.9,49.2-9.5
	c12-4.9,13.2-7.8,32-7.8s38.8,0,38.8,0s24,3.7,58.8,4.9c34.8,0.9,25.2,4.9,49.2,0.9c24-3.7,40-5.7,40-5.7s40-8.6,70.8-15.2
	s58-6.3,58-6.3s88.8,4.6,98,4.6s52-4.6,52-4.6l22.8-10.9c0,0,29.2-7.8,33.2-20.1s12-36.5,12-36.5l14.4-23.8c0,0,6.4-41.1,0-45.1
	s-5.2-7.5-10.4-21s-4,2.9-8-24.1c-4-26.7-4-45.1-4-45.1l-12-34.5c0,0-10.8-13.5-20-25s-6.8-13.5-18.8-23.8
	c-12-10.6-4.4-10.1-16.4-18.4c-11.6-8.3-45.2-17.8-45.2-17.8l-36-8.9l-17.2-6.3l-61.2-10.6l-38.8-10.1h-54.8h-61.2l-34.8,3.7
	L441,37.6l-26.8,2L378.5,39z"/>
<g>
	<defs>
		<path id="SVGID_1_" d="M378.5,39l-50.8-4.9l-40,2.3l-21.2,9.2l-29.2,9.5l-26.8,3.7c0,0-24-2.9-46.8,6.6S141,74.9,141,74.9
			L95.8,97.3L81,112.5c0,0-9.2,8.9-9.2,17.8s-5.2,22.4-5.2,22.4l-8,18.1l-8,15.2l-10.8,32.5c0,0,4-20.1,0,7.8s-12,39.4-8,48.8
			s9.2,22.1,10.8,28.7c1.2,6.6,4,16.4,6.8,23s5.2,10.9,9.2,25.3s24,37.9,24,37.9l24,11.5l29.2,4l30.8,8.3c0,0,25.6,16.4,38,19.2
			c12.4,2.9,31.2,11.5,46,11.5c14.8,0,6.8,5.7,46.8,0s37.2-4.9,49.2-9.5c12-4.9,13.2-7.8,32-7.8s38.8,0,38.8,0s24,3.7,58.8,4.9
			c34.8,0.9,25.2,4.9,49.2,0.9c24-3.7,40-5.7,40-5.7s40-8.6,70.8-15.2s58-6.3,58-6.3s88.8,4.6,98,4.6s52-4.6,52-4.6l22.8-10.9
			c0,0,29.2-7.8,33.2-20.1s12-36.5,12-36.5l14.4-23.8c0,0,6.4-41.1,0-45.1s-5.2-7.5-10.4-21s-4,2.9-8-24.1c-4-26.7-4-45.1-4-45.1
			l-12-34.5c0,0-10.8-13.5-20-25s-6.8-13.5-18.8-23.8c-12-10.6-4.4-10.1-16.4-18.4c-11.6-8.3-45.2-17.8-45.2-17.8l-36-8.9l-17.2-6.3
			l-61.2-10.6l-38.8-10.1h-54.8h-61.2l-34.8,3.7L441,37.6l-26.8,2L378.5,39z"/>
	</defs>
	<clipPath id="SVGID_2_">
		<use xlink:href="#SVGID_1_"  overflow="visible"/>
	</clipPath>
	<g clip-path="url(#SVGID_2_)">
		<g>
			<path fill="none" stroke="#000000" stroke-width="2" stroke-miterlimit="10" d="M715.6,176.1c6.4-6,15.1-9.7,24.6-9.7
				c20,0,36.1,16.2,36.1,36.1s-16.2,36.1-36.1,36.1c-18,0-32.9-13.1-35.7-30.3"/>
			<path fill="none" stroke="#000000" stroke-width="2" stroke-miterlimit="10" d="M704.3,205.2c-0.1-0.9-0.1-1.8-0.1-2.7
				c0-7.2,2.1-13.8,5.7-19.4l2.1-3c0.3-0.4,0.7-0.8,1-1.2"/>
			<path fill="none" stroke="#000000" stroke-width="2" stroke-miterlimit="10" d="M631.1,171.4c10.7,6.3,17.9,17.9,17.9,31.2
				c0,19.9-16.2,36.1-36.1,36.1c-19.9,0-36.1-16.1-36.1-36.1s16.2-36.1,36.1-36.1c5.4,0,10.6,1.2,15.3,3.4"/>
			<path fill="none" stroke="#000000" stroke-width="2" stroke-miterlimit="10" d="M670.5,210c-0.7-1.5-1.1-3.1-1.1-4.9
				c0-6.3,5.1-11.4,11.4-11.4c6.3,0,11.4,5.1,11.4,11.4c0,6.3-5.1,11.4-11.4,11.4c-3.6,0-6.8-1.7-8.9-4.2"/>
			<path fill="none" stroke="#000000" stroke-width="2" stroke-miterlimit="10" d="M617.1,200.3c0.4,0.7,0.5,1.4,0.5,2.2
				c0,2.7-2.2,4.9-4.9,4.9s-4.9-2.2-4.9-4.9c0-2.7,2.2-4.9,4.9-4.9c0.4,0,0.7,0,0.9,0.1"/>
			<path fill="none" stroke="#000000" stroke-width="2" stroke-miterlimit="10" d="M707.8,146.9c6.9,0,27.3,0,27.3,0l0.6-11.2
				c0,0-4.7,0.1-10.9,0.4"/>
			<polygon fill="none" stroke="#000000" stroke-width="2" stroke-miterlimit="10" points="664.9,222.8 653.6,214.8 654.7,210.8 
				668.6,220.7 			"/>
			<path fill="none" stroke="#000000" stroke-width="2" stroke-miterlimit="10" d="M664.2,215c5.1-2,16.7-6.4,16.7-6.4v-2.1
				c0,0-9.9,3.7-16.2,6.1"/>
			<line fill="none" stroke="#000000" stroke-width="2" stroke-miterlimit="10" x1="683.3" y1="194" x2="724.1" y2="147"/>
			<line fill="none" stroke="#000000" stroke-width="2" stroke-miterlimit="10" x1="679.4" y1="193.9" x2="719.5" y2="147"/>
			<path fill="none" stroke="#000000" stroke-width="2" stroke-miterlimit="10" d="M692.3,208.1c0,0,53.5,0,55.2,0s0-2.9,0-2.9
				l-41.1-37.8"/>
			<polyline fill="none" stroke="#000000" stroke-width="2" stroke-miterlimit="10" points="692.3,205.2 741.2,205.2 704.6,170.4 
							"/>
			<path fill="none" stroke="#000000" stroke-width="2" stroke-miterlimit="10" d="M656.9,135.1c2.5-0.4,4.3-0.7,4.3-0.7l-0.7-4.4
				c0,0-2.1,0.4-4.8,1"/>
			<path fill="none" stroke="#000000" stroke-width="2" stroke-miterlimit="10" d="M637.6,125.2c1,5.2,2.2,11.7,2.2,11.7l-17.2,50.3
				l-12.5,15c1.5,3.6,3.8,2.5,3.8,2.5l11.2-15.7l15.9-46l2.1-5.6c0,0,2.6-0.5,5.4-0.9"/>
			<path fill="none" stroke="#000000" stroke-width="2" stroke-miterlimit="10" d="M640.3,118.6c-0.1-0.7-0.1-1-0.1-1l-3.9,1
				c0,0,0.2,0.7,0.4,1.7"/>
			<path fill="none" stroke="#000000" stroke-width="2" stroke-miterlimit="10" d="M647.6,132.8c-2.8,0.6-5.4,1.1-5.4,1.1
				s-0.7-5.4-1.2-10"/>
			<path fill="none" stroke="#000000" stroke-width="2" stroke-miterlimit="10" d="M672.8,155.2c-17-3.1-33.8-6.1-33.8-6.1"/>
			<path fill="none" stroke="#000000" stroke-width="2" stroke-miterlimit="10" d="M707.2,161.4c0,0-7.3-1.3-17.2-3.1"/>
			<path fill="none" stroke="#000000" stroke-width="2" stroke-miterlimit="10" d="M693.8,156.1c9,1.6,15.4,2.8,15.4,2.8"/>
			<path fill="none" stroke="#000000" stroke-width="2" stroke-miterlimit="10" d="M639.9,146.4c0,0,18.2,3.3,36,6.4"/>
			<path fill="none" stroke="#000000" stroke-width="2" stroke-miterlimit="10" d="M660.1,177.8c-10.1-12.1-21.6-25.9-22.1-26.1"/>
			<path fill="none" stroke="#000000" stroke-width="2" stroke-miterlimit="10" d="M674.9,195.5c0,0-3.1-3.7-7.4-8.9"/>
			<path fill="none" stroke="#000000" stroke-width="2" stroke-miterlimit="10" d="M659.9,173.3c-9.7-11.7-19.9-24-20-24"/>
			<path fill="none" stroke="#000000" stroke-width="2" stroke-miterlimit="10" d="M677.4,194.3c0,0-4-4.9-9.4-11.4"/>
			
				<ellipse transform="matrix(0.9765 -0.2154 0.2154 0.9765 0.4995 150.1918)" fill="none" stroke="#000000" stroke-width="2" stroke-miterlimit="10" cx="689.3" cy="72.8" rx="9.6" ry="15.1"/>
			<path fill="none" stroke="#000000" stroke-width="2" stroke-miterlimit="10" d="M697.4,89.2c-0.7-1.3-1.7-3.4-1.7-3.4"/>
			<path fill="none" stroke="#000000" stroke-width="2" stroke-miterlimit="10" d="M690.9,87.7c0,0,1.1,2.2,1.8,3.5"/>
			<path fill="none" stroke="#000000" stroke-width="2" stroke-miterlimit="10" d="M693.2,106.9c-4-6.8-7.2-12.3-7.2-12.3
				s17.7-8,18.6-8.3l18.6,40.2l-15.6,4.9c0,0-4.5-7.7-9.6-16.4"/>
			<polyline fill="none" stroke="#000000" stroke-width="2" stroke-miterlimit="10" points="707.6,131.5 659.7,163.9 661.1,215.4 
				663.9,216.8 669.5,171.4 726.7,134.9 723.2,126.5 			"/>
			<path fill="none" stroke="#000000" stroke-width="2" stroke-miterlimit="10" d="M657.9,128.2c7.5-2.1,22.5-6.4,22.9-6.5
				c0.4-0.2,21.3-25,21.3-25"/>
			<path fill="none" stroke="#000000" stroke-width="2" stroke-miterlimit="10" d="M656.5,130.8c0,0,1.2,5.9,1.2,6.4
				c0.1,0.5-7.7,1.1-7.7,1.1l-2.3-3.8l0.9-6.4h9.5c0,0,0.1,2.4,0,2.4"/>
			<path fill="none" stroke="#000000" stroke-width="2" stroke-miterlimit="10" d="M661.2,132.9l25.6-5.3c0,0,16.6-18.8,20.9-22.5"
				/>
			<path fill="none" stroke="#000000" stroke-width="2" stroke-miterlimit="10" d="M684,126.9"/>
			<path fill="none" stroke="#000000" stroke-width="2" stroke-miterlimit="10" d="M681.1,122"/>
			<path fill="none" stroke="#000000" stroke-width="2" stroke-miterlimit="10" d="M661.1,215.4l-10.4-7.4l0.8-7.4
				c0,0,9.2,10.7,9.5,10.9L661.1,215.4z"/>
			<path fill="none" stroke="#000000" stroke-width="2" stroke-miterlimit="10" d="M641.1,124.4l-3.4,0.7c0,0-1.8-3.9-1.9-4.3
				c-0.1-0.4,5.6-2.2,5.6-2.2l2.7,1.5l28.4-7.2c0,0,9.8-8.6,15.9-14.1"/>
			<polyline fill="none" stroke="#000000" stroke-width="2" stroke-miterlimit="10" points="692.3,108.3 674.9,120.4 644.6,123.5 
				641.4,127.6 			"/>
			<line fill="none" stroke="#000000" stroke-width="2" stroke-miterlimit="10" x1="674.9" y1="120.4" x2="672.4" y2="113"/>
			<line fill="none" stroke="#000000" stroke-width="2" stroke-miterlimit="10" x1="686.8" y1="127.6" x2="681.1" y2="122"/>
		</g>
		<g>
			<g id="Layer_2_2_">
				<path fill="#27AAE1" d="M260.3,82.4c6.7,18.7-7.5,29.3-7.5,29.3c9.2-23.3-12.6-46.6-12.6-46.6S253.7,63.7,260.3,82.4z"/>
				<path fill="#27AAE1" d="M263.8,113.3l6.4-2.8l35.6,78.2l-91.3,58.4l-10,73.5c0,0-19.6-13.1-21.1-14.3c-1.6-1.1,1-8.8,1-8.8
					l15.6,14.5l7.8-74.1l84.1-60l-28.5-62.5"/>
			</g>
			<g id="Layer_1_2_">
				<path fill="none" stroke="#000000" stroke-width="2" stroke-miterlimit="10" d="M287.9,254.8c10.4-9.7,24.3-15.6,39.6-15.6
					c32.2,0,58.1,26,58.1,58.1s-26.1,58.1-58.1,58.1c-28.9,0-52.9-21.1-57.4-48.7"/>
				<path fill="none" stroke="#000000" stroke-width="2" stroke-miterlimit="10" d="M269.6,301.8c-0.1-1.4-0.2-2.9-0.2-4.3
					c0-11.5,3.4-22.2,9.1-31.2l3.4-4.9c0.5-0.7,1-1.3,1.6-2"/>
				<path fill="none" stroke="#000000" stroke-width="2" stroke-miterlimit="10" d="M151.9,247.3c17.2,10.1,28.8,28.7,28.8,50.1
					c0,32.2-26,58.1-58.1,58.1s-58.1-26-58.1-58.1s26.1-58.1,58.1-58.1c8.8,0,17.1,2,24.6,5.5"/>
				<path fill="none" stroke="#000000" stroke-width="2" stroke-miterlimit="10" d="M215.3,309.6c-1-2.4-1.7-5-1.7-7.8
					c0-10.2,8.2-18.4,18.4-18.4c10.2,0,18.4,8.2,18.4,18.4s-8.2,18.4-18.4,18.4c-5.8,0-10.9-2.7-14.3-6.8"/>
				<path fill="none" stroke="#000000" stroke-width="2" stroke-miterlimit="10" d="M129.4,294c0.6,1,0.9,2.3,0.9,3.5
					c0,4.3-3.5,7.8-7.8,7.8c-4.3,0-7.8-3.5-7.8-7.8s3.5-7.8,7.8-7.8c0.6,0,1,0,1.5,0.1"/>
				<path fill="none" stroke="#000000" stroke-width="2" stroke-miterlimit="10" d="M275.2,208c11.1,0,43.9,0,43.9,0l1-18
					c0,0-7.6,0.1-17.5,0.7"/>
				<polygon fill="none" stroke="#000000" stroke-width="2" stroke-miterlimit="10" points="206.2,330.1 188,317.2 189.8,310.9 
					212.3,326.7 				"/>
				<path fill="none" stroke="#000000" stroke-width="2" stroke-miterlimit="10" d="M205.1,317.6c8.3-3.1,26.8-10.4,26.8-10.4v-3.4
					c0,0-16,6-26.1,9.8"/>
				<line fill="none" stroke="#000000" stroke-width="2" stroke-miterlimit="10" x1="235.9" y1="283.8" x2="301.4" y2="208.1"/>
				<line fill="none" stroke="#000000" stroke-width="2" stroke-miterlimit="10" x1="229.5" y1="283.6" x2="294" y2="208.1"/>
				<path fill="none" stroke="#000000" stroke-width="2" stroke-miterlimit="10" d="M250.3,306.4c0,0,86.1,0,88.8,0
					c2.7,0,0-4.7,0-4.7L273,241"/>
				<polyline fill="none" stroke="#000000" stroke-width="2" stroke-miterlimit="10" points="250.3,301.8 329,301.8 270.1,245.8 
									"/>
				<path fill="none" stroke="#000000" stroke-width="2" stroke-miterlimit="10" d="M193.4,189.1c4-0.7,6.9-1.1,6.9-1.1l-1-7.1
					c0,0-3.3,0.7-7.7,1.6"/>
				<path fill="none" stroke="#000000" stroke-width="2" stroke-miterlimit="10" d="M162.3,173.1c1.6,8.4,3.6,18.7,3.6,18.7
					l-27.6,81L118.3,297c2.5,5.8,6.2,4,6.2,4l18-25.2l25.6-73.9l3.3-8.9c0,0,4.2-0.8,8.8-1.5"/>
				<path fill="none" stroke="#000000" stroke-width="2" stroke-miterlimit="10" d="M166.7,162.4c-0.1-1-0.2-1.6-0.2-1.6l-6.3,1.6
					c0,0,0.3,1,0.6,2.8"/>
				<path fill="none" stroke="#000000" stroke-width="2" stroke-miterlimit="10" d="M178.4,185.3c-4.5,1-8.7,1.8-8.7,1.8
					s-1-8.8-2-16.1"/>
				<path fill="none" stroke="#000000" stroke-width="2" stroke-miterlimit="10" d="M218.9,221.3c-27.3-4.9-54.4-9.8-54.4-9.8"/>
				<path fill="none" stroke="#000000" stroke-width="2" stroke-miterlimit="10" d="M274.2,231.2c0,0-11.8-2.1-27.7-4.9"/>
				<path fill="none" stroke="#000000" stroke-width="2" stroke-miterlimit="10" d="M252.8,222.8c14.5,2.6,24.8,4.5,24.8,4.5"/>
				<path fill="none" stroke="#000000" stroke-width="2" stroke-miterlimit="10" d="M166,207.2c0,0,29.3,5.2,57.9,10.4"/>
				<path fill="none" stroke="#000000" stroke-width="2" stroke-miterlimit="10" d="M198.6,257.7c-16.2-19.4-34.7-41.6-35.5-42.1"/>
				<path fill="none" stroke="#000000" stroke-width="2" stroke-miterlimit="10" d="M222.3,286.2c0,0-4.9-5.9-11.9-14.3"/>
				<path fill="none" stroke="#000000" stroke-width="2" stroke-miterlimit="10" d="M198.2,250.5c-15.6-18.8-32-38.5-32.2-38.5"/>
				<path fill="none" stroke="#000000" stroke-width="2" stroke-miterlimit="10" d="M226.4,284.2c0,0-6.5-7.8-15.1-18.3"/>
				
					<ellipse transform="matrix(0.9765 -0.2154 0.2154 0.9765 -13.3716 54.9742)" fill="none" stroke="#000000" stroke-width="2" stroke-miterlimit="10" cx="245.5" cy="88.8" rx="15.4" ry="24.3"/>
				<path fill="none" stroke="#000000" stroke-width="2" stroke-miterlimit="10" d="M230.6,69.7c4.9,1.2,18.3-4,18.3-4"/>
				<path fill="none" stroke="#000000" stroke-width="2" stroke-miterlimit="10" d="M229.9,73.4c7.5,2.4,23.8-6,23.8-6"/>
				<path fill="none" stroke="#000000" stroke-width="2" stroke-miterlimit="10" d="M228.5,76.5c9.1,3.5,27.6-6.4,27.6-6.4"/>
				<path fill="none" stroke="#000000" stroke-width="2" stroke-miterlimit="10" d="M258.5,115.3c-1-2.1-2.8-5.5-2.8-5.5"/>
				<path fill="none" stroke="#000000" stroke-width="2" stroke-miterlimit="10" d="M248.2,112.8c0,0,1.8,3.6,2.9,5.7"/>
				<path fill="none" stroke="#000000" stroke-width="2" stroke-miterlimit="10" d="M251.8,143.7c-6.4-10.9-11.6-19.8-11.6-19.8
					s28.5-12.8,29.9-13.3l30,64.7l-25,7.9c0,0-7.2-12.4-15.5-26.5"/>
				<polyline fill="none" stroke="#000000" stroke-width="2" stroke-miterlimit="10" points="275,183.2 197.9,235.4 200.1,318.1 
					204.5,320.5 213.6,247.4 305.7,188.7 300,175.3 				"/>
				<path fill="none" stroke="#000000" stroke-width="2" stroke-miterlimit="10" d="M195.1,177.8c12.1-3.4,36.3-10.3,36.8-10.5
					c0.7-0.2,34.3-40.2,34.3-40.2"/>
				<path fill="none" stroke="#000000" stroke-width="2" stroke-miterlimit="10" d="M192.7,182.1c0,0,1.9,9.5,2,10.4
					s-12.4,1.7-12.4,1.7l-3.7-6.2l1.5-10.3h15.2c0,0,0.1,3.9,0,3.9"/>
				<path fill="none" stroke="#000000" stroke-width="2" stroke-miterlimit="10" d="M200.4,185.5l41.1-8.5c0,0,26.7-30.3,33.6-36.3"
					/>
				<path fill="none" stroke="#000000" stroke-width="2" stroke-miterlimit="10" d="M237,175.8"/>
				<path fill="none" stroke="#000000" stroke-width="2" stroke-miterlimit="10" d="M232.3,168"/>
				<path fill="none" stroke="#000000" stroke-width="2" stroke-miterlimit="10" d="M200.2,318.2l-16.7-11.9l1.3-11.9
					c0,0,14.7,17.2,15.2,17.5L200.2,318.2z"/>
				<path fill="none" stroke="#000000" stroke-width="2" stroke-miterlimit="10" d="M167.8,172l-5.4,1c0,0-2.9-6.3-3-6.9
					c-0.1-0.7,9-3.6,9-3.6l4.3,2.5l45.7-11.5c0,0,15.7-13.9,25.6-22.6"/>
				<polyline fill="none" stroke="#000000" stroke-width="2" stroke-miterlimit="10" points="250.3,145.9 222.3,165.5 173.6,170.4 
					168.5,176.9 				"/>
				<line fill="none" stroke="#000000" stroke-width="2" stroke-miterlimit="10" x1="222.3" y1="165.5" x2="218.3" y2="153.4"/>
				<line fill="none" stroke="#000000" stroke-width="2" stroke-miterlimit="10" x1="241.5" y1="176.9" x2="232.3" y2="168"/>
			</g>
		</g>
		<g>
			<path fill="none" stroke="#000000" stroke-width="2" stroke-miterlimit="10" d="M565.1,295.1c10.9-10.2,25.5-16.4,41.6-16.4
				c33.8,0,61.1,27.4,61.1,61.1s-27.3,61-61,61c-30.4,0-55.6-22.2-60.3-51.2"/>
			<path fill="none" stroke="#000000" stroke-width="2" stroke-miterlimit="10" d="M545.9,344.3c-0.1-1.5-0.2-3-0.2-4.5
				c0-12.1,3.6-23.3,9.6-32.8l3.6-5.1c0.5-0.7,1.1-1.4,1.7-2.1"/>
			<path fill="none" stroke="#000000" stroke-width="2" stroke-miterlimit="10" d="M422.2,287.1c18.1,10.6,30.3,30.2,30.3,52.7
				c0,33.7-27.4,61-61.1,61s-61.1-27.2-61.1-61s27.4-61.1,61.1-61.1c9.2,0,18,2.1,25.9,5.8"/>
			<path fill="none" stroke="#000000" stroke-width="2" stroke-miterlimit="10" d="M488.9,352.5c-1.1-2.5-1.8-5.3-1.8-8.2
				c0-10.7,8.6-19.3,19.3-19.3s19.3,8.6,19.3,19.3c0,10.7-8.6,19.3-19.3,19.3c-6.1,0-11.5-2.8-15-7.1"/>
			<path fill="none" stroke="#000000" stroke-width="2" stroke-miterlimit="10" d="M398.6,336.1c0.6,1.1,0.9,2.4,0.9,3.7
				c0,4.5-3.7,8.2-8.2,8.2s-8.2-3.7-8.2-8.2s3.7-8.2,8.2-8.2c0.6,0,1.1,0,1.6,0.1"/>
			<path fill="#FFFFFF" stroke="#000000" stroke-width="2" stroke-miterlimit="10" d="M551.8,245.8c11.7,0,46.1,0,46.1,0l1-18.9
				c0,0-8,0.1-18.4,0.7"/>
			<polygon fill="none" stroke="#000000" stroke-width="2" stroke-miterlimit="10" points="479.3,374.1 460.2,360.5 462.1,353.8 
				485.7,370.5 			"/>
			<path fill="none" stroke="#000000" stroke-width="2" stroke-miterlimit="10" d="M478.2,360.9c8.7-3.3,28.2-10.9,28.2-10.9v-3.6
				c0,0-16.8,6.3-27.4,10.3"/>
			<line fill="none" stroke="#000000" stroke-width="2" stroke-miterlimit="10" x1="510.5" y1="325.4" x2="579.4" y2="245.9"/>
			<line fill="none" stroke="#000000" stroke-width="2" stroke-miterlimit="10" x1="503.8" y1="325.2" x2="571.6" y2="245.9"/>
			<path fill="none" stroke="#000000" stroke-width="2" stroke-miterlimit="10" d="M525.7,349.2c0,0,90.5,0,93.3,0s0-4.9,0-4.9
				l-69.5-63.9"/>
			<polyline fill="none" stroke="#000000" stroke-width="2" stroke-miterlimit="10" points="525.7,344.3 608.4,344.3 546.5,285.5 
							"/>
			<path fill="none" stroke="#000000" stroke-width="2" stroke-miterlimit="10" d="M465.9,225.9c4.2-0.7,7.3-1.2,7.3-1.2l-1.1-7.5
				c0,0-3.5,0.7-8.1,1.7"/>
			<path fill="none" stroke="#000000" stroke-width="2" stroke-miterlimit="10" d="M433.3,209.1c1.7,8.8,3.8,19.7,3.8,19.7l-29,85.1
				l-21.2,25.4c2.6,6.1,6.5,4.2,6.5,4.2l18.9-26.5l26.9-77.7l3.5-9.4c0,0,4.4-0.8,9.2-1.6"/>
			<path fill="none" stroke="#000000" stroke-width="2" stroke-miterlimit="10" d="M437.8,197.9c-0.1-1.1-0.2-1.7-0.2-1.7l-6.6,1.7
				c0,0,0.3,1.1,0.6,2.9"/>
			<path fill="none" stroke="#000000" stroke-width="2" stroke-miterlimit="10" d="M450.1,221.9c-4.7,1-9.1,1.9-9.1,1.9
				s-1.1-9.2-2.1-16.9"/>
			<path fill="none" stroke="#000000" stroke-width="2" stroke-miterlimit="10" d="M492.7,259.8c-28.7-5.2-57.2-10.3-57.2-10.3"/>
			<path fill="none" stroke="#000000" stroke-width="2" stroke-miterlimit="10" d="M550.8,270.2c0,0-12.4-2.2-29.1-5.2"/>
			<path fill="none" stroke="#000000" stroke-width="2" stroke-miterlimit="10" d="M528.2,261.3c15.2,2.7,26.1,4.7,26.1,4.7"/>
			<path fill="none" stroke="#000000" stroke-width="2" stroke-miterlimit="10" d="M437.1,244.9c0,0,30.8,5.5,60.8,10.9"/>
			<path fill="none" stroke="#000000" stroke-width="2" stroke-miterlimit="10" d="M471.3,298c-17-20.4-36.5-43.7-37.3-44.2"/>
			<path fill="none" stroke="#000000" stroke-width="2" stroke-miterlimit="10" d="M496.2,327.9c0,0-5.2-6.2-12.5-15"/>
			<path fill="none" stroke="#000000" stroke-width="2" stroke-miterlimit="10" d="M470.9,290.4c-16.4-19.8-33.6-40.5-33.8-40.5"/>
			<path fill="none" stroke="#000000" stroke-width="2" stroke-miterlimit="10" d="M500.5,325.9c0,0-6.8-8.2-15.9-19.2"/>
			
				<ellipse transform="matrix(0.9765 -0.2154 0.2154 0.9765 -13.7347 114.9673)" fill="none" stroke="#000000" stroke-width="2" stroke-miterlimit="10" cx="520.6" cy="120.5" rx="16.2" ry="25.5"/>
			<path fill="none" stroke="#000000" stroke-width="2" stroke-miterlimit="10" d="M534.2,148.3c-1.1-2.2-2.9-5.8-2.9-5.8"/>
			<path fill="none" stroke="#000000" stroke-width="2" stroke-miterlimit="10" d="M523.4,145.7c0,0,1.9,3.8,3.1,6"/>
			<path fill="none" stroke="#000000" stroke-width="2" stroke-miterlimit="10" d="M527.2,178.2c-6.7-11.5-12.2-20.8-12.2-20.8
				s29.9-13.5,31.4-14l31.5,68l-26.3,8.3c0,0-7.6-13-16.3-27.8"/>
			<polyline fill="none" stroke="#000000" stroke-width="2" stroke-miterlimit="10" points="551.6,219.7 470.6,274.5 473,361.5 
				477.6,364 487.1,287.2 583.9,225.5 577.9,211.3 			"/>
			<path fill="none" stroke="#000000" stroke-width="2" stroke-miterlimit="10" d="M467.6,214.1c12.7-3.6,38.1-10.8,38.7-11
				c0.7-0.3,36-42.3,36-42.3"/>
			<path fill="none" stroke="#000000" stroke-width="2" stroke-miterlimit="10" d="M465,218.6c0,0,2,10,2.1,10.9s-13,1.8-13,1.8
				l-3.9-6.5l1.6-10.8h16c0,0,0.1,4.1,0,4.1"/>
			<path fill="none" stroke="#000000" stroke-width="2" stroke-miterlimit="10" d="M473.2,222.1l43.2-8.9c0,0,28.1-31.8,35.3-38.1"
				/>
			<path fill="none" stroke="#000000" stroke-width="2" stroke-miterlimit="10" d="M511.7,211.9"/>
			<path fill="none" stroke="#000000" stroke-width="2" stroke-miterlimit="10" d="M506.7,203.7"/>
			<path fill="none" stroke="#000000" stroke-width="2" stroke-miterlimit="10" d="M473,361.6l-17.6-12.5l1.4-12.5
				c0,0,15.5,18.1,16,18.4L473,361.6z"/>
			<path fill="none" stroke="#000000" stroke-width="2" stroke-miterlimit="10" d="M439.1,207.8l-5.8,1.2c0,0-3.1-6.6-3.2-7.3
				s9.5-3.8,9.5-3.8l4.5,2.6l48-12.1c0,0,16.5-14.6,26.9-23.8"/>
			<polyline fill="none" stroke="#000000" stroke-width="2" stroke-miterlimit="10" points="525.7,180.5 496.2,201 445.1,206.3 
				439.7,213.1 			"/>
			<line fill="none" stroke="#000000" stroke-width="2" stroke-miterlimit="10" x1="496.2" y1="201" x2="492.1" y2="188.4"/>
			<line fill="none" stroke="#000000" stroke-width="2" stroke-miterlimit="10" x1="516.4" y1="213.1" x2="506.7" y2="203.7"/>
		</g>
		<g>
			<path fill="none" stroke="#000000" stroke-width="2" stroke-miterlimit="10" d="M891.2,416.9c18.1-16.9,42.2-27.2,68.9-27.2
				c56,0,101.2,45.4,101.2,101.2s-45.2,101-101,101c-50.4,0-92.1-36.8-99.9-84.8"/>
			<path fill="none" stroke="#000000" stroke-width="2" stroke-miterlimit="10" d="M859.4,498.3c-0.2-2.5-0.3-5-0.3-7.5
				c0-20,6-38.6,15.9-54.3l6-8.4c0.8-1.2,1.8-2.3,2.8-3.5"/>
			<path fill="none" stroke="#000000" stroke-width="2" stroke-miterlimit="10" d="M654.5,403.6c30,17.6,50.2,50,50.2,87.3
				c0,55.8-45.4,101-101.2,101s-101.2-45.1-101.2-101s45.4-101.2,101.2-101.2c15.2,0,29.8,3.5,42.9,9.6"/>
			<path fill="none" stroke="#000000" stroke-width="2" stroke-miterlimit="10" d="M765,511.9c-1.8-4.1-3-8.8-3-13.6
				c0-17.7,14.2-32,32-32c17.7,0,32,14.2,32,32c0,17.7-14.2,32-32,32c-10.1,0-19-4.6-24.8-11.8"/>
			<path fill="none" stroke="#000000" stroke-width="2" stroke-miterlimit="10" d="M615.4,484.8c1,1.8,1.5,4,1.5,6.1
				c0,7.5-6.1,13.6-13.6,13.6c-7.5,0-13.6-6.1-13.6-13.6s6.1-13.6,13.6-13.6c1,0,1.8,0,2.7,0.2"/>
			<path fill="none" stroke="#000000" stroke-width="2" stroke-miterlimit="10" d="M869.2,335.2c19.4,0,76.4,0,76.4,0l1.7-31.3
				c0,0-13.3,0.2-30.5,1.2"/>
			<polygon fill="none" stroke="#000000" stroke-width="2" stroke-miterlimit="10" points="749.1,547.7 717.5,525.2 720.6,514.1 
				759.7,541.7 			"/>
			<path fill="none" stroke="#000000" stroke-width="2" stroke-miterlimit="10" d="M747.3,525.8c14.4-5.5,46.7-18.1,46.7-18.1v-6
				c0,0-27.8,10.4-45.4,17.1"/>
			<line fill="none" stroke="#000000" stroke-width="2" stroke-miterlimit="10" x1="800.8" y1="467" x2="914.9" y2="335.4"/>
			<line fill="none" stroke="#000000" stroke-width="2" stroke-miterlimit="10" x1="789.7" y1="466.7" x2="902" y2="335.4"/>
			<path fill="none" stroke="#000000" stroke-width="2" stroke-miterlimit="10" d="M825.9,506.5c0,0,149.9,0,154.5,0
				c4.6,0,0-8.1,0-8.1L865.4,392.5"/>
			<polyline fill="none" stroke="#000000" stroke-width="2" stroke-miterlimit="10" points="825.9,498.3 962.9,498.3 860.4,401 			
				"/>
			<path fill="none" stroke="#000000" stroke-width="2" stroke-miterlimit="10" d="M726.9,302.2c7-1.2,12.1-2,12.1-2l-1.8-12.4
				c0,0-5.8,1.2-13.4,2.8"/>
			<path fill="#FFFFFF" stroke="#000000" stroke-width="2" stroke-miterlimit="10" d="M672.9,274.4c2.8,14.6,6.3,32.6,6.3,32.6
				l-48,140.9L596,490.1c4.3,10.1,10.8,7,10.8,7l31.3-43.9l44.6-128.7l5.8-15.6c0,0,7.3-1.3,15.2-2.7"/>
			<path fill="none" stroke="#000000" stroke-width="2" stroke-miterlimit="10" d="M680.4,255.9c-0.2-1.8-0.3-2.8-0.3-2.8l-10.9,2.8
				c0,0,0.5,1.8,1,4.8"/>
			<path fill="none" stroke="#000000" stroke-width="2" stroke-miterlimit="10" d="M700.7,295.6c-7.8,1.7-15.1,3.1-15.1,3.1
				s-1.8-15.2-3.5-28"/>
			<path fill="none" stroke="#000000" stroke-width="2" stroke-miterlimit="10" d="M771.3,358.4c-47.5-8.6-94.7-17.1-94.7-17.1"/>
			<path fill="none" stroke="#000000" stroke-width="2" stroke-miterlimit="10" d="M867.5,375.6c0,0-20.5-3.6-48.2-8.6"/>
			<path fill="none" stroke="#000000" stroke-width="2" stroke-miterlimit="10" d="M830.2,360.9c25.2,4.5,43.2,7.8,43.2,7.8"/>
			<path fill="none" stroke="#000000" stroke-width="2" stroke-miterlimit="10" d="M679.2,333.7c0,0,51,9.1,100.7,18.1"/>
			<path fill="none" stroke="#000000" stroke-width="2" stroke-miterlimit="10" d="M735.8,421.7c-28.2-33.8-60.5-72.4-61.8-73.2"/>
			<path fill="none" stroke="#000000" stroke-width="2" stroke-miterlimit="10" d="M777.1,471.2c0,0-8.6-10.3-20.7-24.8"/>
			<path fill="none" stroke="#000000" stroke-width="2" stroke-miterlimit="10" d="M735.2,409.1c-27.2-32.8-55.7-67.1-56-67.1"/>
			<path fill="none" stroke="#000000" stroke-width="2" stroke-miterlimit="10" d="M784.2,467.9c0,0-11.3-13.6-26.3-31.8"/>
			
				<ellipse transform="matrix(0.9765 -0.2154 0.2154 0.9765 -8.3172 179.1053)" fill="none" stroke="#000000" stroke-width="2" stroke-miterlimit="10" cx="817.6" cy="127.7" rx="26.8" ry="42.2"/>
			<path fill="none" stroke="#000000" stroke-width="2" stroke-miterlimit="10" d="M840.2,173.7c-1.8-3.6-4.8-9.6-4.8-9.6"/>
			<path fill="none" stroke="#000000" stroke-width="2" stroke-miterlimit="10" d="M822.1,169.4c0,0,3.1,6.3,5.1,9.9"/>
			<path fill="none" stroke="#000000" stroke-width="2" stroke-miterlimit="10" d="M828.4,223.2c-11.1-19-20.2-34.5-20.2-34.5
				s49.5-22.4,52-23.2l52.2,112.6L868.8,292c0,0-12.6-21.5-27-46"/>
			<polyline fill="none" stroke="#000000" stroke-width="2" stroke-miterlimit="10" points="868.8,292 734.7,382.7 738.7,526.8 
				746.3,531 762,403.8 922.3,301.6 912.4,278.1 			"/>
			<path fill="none" stroke="#000000" stroke-width="2" stroke-miterlimit="10" d="M729.7,282.7c21-6,63.1-17.9,64.1-18.2
				c1.2-0.5,59.6-70.1,59.6-70.1"/>
			<path fill="none" stroke="#000000" stroke-width="2" stroke-miterlimit="10" d="M725.6,290.1c0,0,3.3,16.6,3.5,18.1
				c0.2,1.5-21.5,3-21.5,3l-6.5-10.8l2.7-17.9h26.5c0,0,0.2,6.8,0,6.8"/>
			<path fill="none" stroke="#000000" stroke-width="2" stroke-miterlimit="10" d="M739,295.9l71.6-14.7c0,0,46.5-52.7,58.5-63.1"/>
			<path fill="none" stroke="#000000" stroke-width="2" stroke-miterlimit="10" d="M802.7,279.1"/>
			<path fill="none" stroke="#000000" stroke-width="2" stroke-miterlimit="10" d="M794.5,265.5"/>
			<path fill="none" stroke="#000000" stroke-width="2" stroke-miterlimit="10" d="M738.7,527l-29.2-20.7l2.3-20.7
				c0,0,25.7,30,26.5,30.5L738.7,527z"/>
			<path fill="none" stroke="#000000" stroke-width="2" stroke-miterlimit="10" d="M682.5,272.3l-9.6,2c0,0-5.1-10.9-5.3-12.1
				c-0.2-1.2,15.7-6.3,15.7-6.3l7.5,4.3l79.5-20c0,0,27.3-24.2,44.6-39.4"/>
			<polyline fill="none" stroke="#000000" stroke-width="2" stroke-miterlimit="10" points="825.9,227 777.1,261 692.4,269.8 
				683.5,281 			"/>
			<line fill="none" stroke="#000000" stroke-width="2" stroke-miterlimit="10" x1="777.1" y1="261" x2="770.3" y2="240.1"/>
			<line fill="none" stroke="#000000" stroke-width="2" stroke-miterlimit="10" x1="810.5" y1="281" x2="794.5" y2="265.5"/>
		</g>
	</g>
</g>
</svg>
