<?xml version="1.0" encoding="utf-8"?>
<!-- Generator: Adobe Illustrator 19.2.1, SVG Export Plug-In . SVG Version: 6.00 Build 0)  -->
<svg version="1.0" id="Layer_1" xmlns="http://www.w3.org/2000/svg" xmlns:xlink="http://www.w3.org/1999/xlink" x="0px" y="0px"
	 width="432px" height="432px" viewBox="0 0 432 432" enable-background="new 0 0 432 432" xml:space="preserve">
<path fill="none" stroke="#000000" stroke-width="2" stroke-miterlimit="10" d="M208,105.9c0,0-14.2-7.8-18.5-6.8s-14,3.3-14,3.3
	s-17.5-0.4-18.8,0c-1.2,0.4-10.2,2.2-11,3.4s-10.2,8-10.2,8l-9.5,11.2c0,0,1,12.8,0,13.8s-13.6,16-13.2,18.2s2.7,12.8,2.7,12.8
	s6.8,12,6.5,13s-1.8,9.8-1.8,11.2s-1.2,16,3.8,22.8s13.8,14,13.8,14l12.5,11.5c0,0,13.5,1,16,1.5s17.5,7.2,17.5,7.2s25.8,4.2,35,2.8
	s22.2-4.8,22.2-4.8s11-4.8,12-5s17-8,19-8.8s13.8-2.2,13.8-2.2l11.5-6.2l6.5-9.8l3.2-14c0,0,9.5-11.2,10-13s2.2-16,2.2-17
	s0.2-3,0-7.5s0.5-8.5-1-13.2s-3.5-5.8-5-11s-1.8-10.8-1.8-10.8l-6.2-12.8l-8.8-7.7l-8.5-4.2l-12.2-1.2h-14c0,0,2-3.8-13-3.8
	s-4,0.5-15,0s-9.5-0.5-9.5-0.5L208,105.9z"/>
<path fill="none" stroke="#000000" stroke-width="2" stroke-miterlimit="10" d="M219.7,273c0,0-3.9-1.2-5.4,1s-2.1,4.1-2.2,5
	s0.9,5.2,0.9,5.2s2.6,2,5.6,1.8s8-3.2,8-3.2s0.2-1.8,0-4.8S219.7,273,219.7,273z"/>
<path fill="none" stroke="#000000" stroke-width="2" stroke-miterlimit="10" d="M205.7,296c-0.6,0-4.5-2-6.1,0.6s-2.1,4.1-2.2,4.8
	s-3.6,4.4,0,6s7.8,2.1,7.8,2.1l4.5-1.2l1.2-4.6v-4L205.7,296z"/>
<path fill="none" stroke="#000000" stroke-width="2" stroke-miterlimit="10" d="M183.3,320.7c0,0-4.8,0.5-5.1,1s-2.6,3.9-2.6,4.8
	s0,2.6,0,2.6l5.1,3h7.4l2.1-3.6V323l-2-2.4H183.3z"/>
</svg>
