<?xml version="1.0" encoding="utf-8"?>
<!-- Generator: Adobe Illustrator 21.0.0, SVG Export Plug-In . SVG Version: 6.00 Build 0)  -->
<!DOCTYPE svg PUBLIC "-//W3C//DTD SVG 1.0//EN" "http://www.w3.org/TR/2001/REC-SVG-20010904/DTD/svg10.dtd">
<svg version="1.0" id="Layer_2" xmlns="http://www.w3.org/2000/svg" xmlns:xlink="http://www.w3.org/1999/xlink" x="0px" y="0px"
	 width="960px" height="523px" viewBox="0 0 960 523" enable-background="new 0 0 960 523" xml:space="preserve">
<path fill="#FFFFFF" stroke="#000000" stroke-width="3" stroke-miterlimit="10" d="M509.6,235.3h-5.5l-3.5,3.2l-2.2,5.2
	c0,0-1,2.8,0,4.2s-1.8-0.2,1,1.5c2.8,1.7,4.4,2.2,4.4,2.2h5.8c0,0,3-0.2,4.5-1.8s2-2,3-3.2s4,0,2.8-3.2c-1.2-3.2,0-3-1.8-4.8
	c-1.8-1.8-1-3.2-3.2-3.5C512.7,234.8,509.6,235.3,509.6,235.3z"/>
<path fill="#FFFFFF" stroke="#000000" stroke-width="3" stroke-miterlimit="10" d="M485.8,256.5h-4.5h-2.2l-5,4.2c0,0,0.5,1.2,0,3.2
	s-1,3.2,0,5s3.2,3.5,3.2,3.5h2.3h4.9l8-1.2c0,0-0.2-1,0-3.2c0.2-2.2-0.5-3.8,0-5.5s0.1-5,0.1-5l-2.8-1H485.8z"/>
<path fill="#FFFFFF" stroke="#000000" stroke-width="3" stroke-miterlimit="10" d="M450,270.1h-5.8l-2,4.5l-1.5,4.2c0,0-2,3.8,0,6
	s2,2.2,2,2.2l7.2,1h5c0,0,4.5-5.2,4.5-6s0-1,0-3s1-5.5,0-6.5s-1.5-2.2-3-2.5S450,270.1,450,270.1z"/>
</svg>
