<?xml version="1.0" encoding="utf-8"?>
<!-- Generator: Adobe Illustrator 19.2.1, SVG Export Plug-In . SVG Version: 6.00 Build 0)  -->
<svg version="1.0" id="Layer_1" xmlns="http://www.w3.org/2000/svg" xmlns:xlink="http://www.w3.org/1999/xlink" x="0px" y="0px"
	 width="432px" height="432px" viewBox="0 0 432 432" enable-background="new 0 0 432 432" xml:space="preserve">
<path fill="none" stroke="#000000" stroke-width="2" stroke-miterlimit="10" d="M281,250.4v-77.5l31-13v111.5L281,250.4l-23,21
	l-38-18l-32,18l-28-21l-34.5,21l-5-109l39.9,4.8c0,0,0,52.7,0,84"/>
<polyline fill="none" stroke="#000000" stroke-width="2" stroke-miterlimit="10" points="258,271.4 258,163.2 220,171.2 "/>
<polyline fill="none" stroke="#000000" stroke-width="2" stroke-miterlimit="10" points="188,271.4 188,159.9 160.4,167.2 "/>
<polyline fill="none" stroke="#000000" stroke-width="2" stroke-miterlimit="10" points="220,253.4 220,171.2 188,159.9 "/>
<line fill="none" stroke="#000000" stroke-width="2" stroke-miterlimit="10" x1="258" y1="163.2" x2="281" y2="172.9"/>
<path fill="none" stroke="#27AAE1" stroke-width="2" stroke-miterlimit="10" d="M272.8,169.4c0,0-40.1,18.9-34.4,92.7"/>
<path fill="none" stroke="#27AAE1" stroke-width="2" stroke-miterlimit="10" d="M121.3,180.2c0,0,61.7,74,190.7,39"/>
<path fill="none" stroke="#27AAE1" stroke-width="2" stroke-miterlimit="10" d="M202.7,263.1c0,0,9.1-94.7-81.4-88.7"/>
</svg>
