<?xml version="1.0" encoding="utf-8"?>
<!-- Generator: Adobe Illustrator 19.2.1, SVG Export Plug-In . SVG Version: 6.00 Build 0)  -->
<svg version="1.0" id="Layer_1" xmlns="http://www.w3.org/2000/svg" xmlns:xlink="http://www.w3.org/1999/xlink" x="0px" y="0px"
	 width="432px" height="432px" viewBox="0 0 432 432" enable-background="new 0 0 432 432" xml:space="preserve">
<path fill="none" stroke="#000000" stroke-width="2" stroke-miterlimit="10" stroke-dasharray="5" d="M219.1,147.9
	c0,0-9.6-4.5-9.9-19c-0.3-14.5,7.2-20,11.7-20.6c4.5-0.6,15.2,3.3,16,23.9c0,0-0.1,10.6-8.1,15.9v5.3l9.2,0.2l13.7,23.9v32.7l4,9.8
	c0,0-5.2,6.3-5.5,5.4c-0.3-0.9-2.7-11.1-2.7-11.1l-2.8,3.5l-1.8-2.7l1.9-6.2l-0.9-27.1l-5.2-6.8L238.7,311l14.8,6.4l-13.5,6.7
	l-8.8-13.8l-2.2-94.1h-6l0.3,94.6l-9.2,12.3l-12.3-5.5l15.9-8l-8.6-132.8l-9.6,10.2l-14-20.1l-8-0.4v-11.5h7.2l-0.6-8.2l6.7-0.2
	l-1,13.3c0,0,10,13,10.3,12.5s10.3-18.2,10.3-18.2l10.2-0.7L219.1,147.9z"/>
</svg>
