<?xml version="1.0" encoding="utf-8"?>
<!-- Generator: Adobe Illustrator 21.0.0, SVG Export Plug-In . SVG Version: 6.00 Build 0)  -->
<!DOCTYPE svg PUBLIC "-//W3C//DTD SVG 1.0//EN" "http://www.w3.org/TR/2001/REC-SVG-20010904/DTD/svg10.dtd">
<svg version="1.0" id="Layer_1" xmlns="http://www.w3.org/2000/svg" xmlns:xlink="http://www.w3.org/1999/xlink" x="0px" y="0px"
	 width="432px" height="432px" viewBox="0 0 432 432" enable-background="new 0 0 432 432" xml:space="preserve">
<g>
	<path d="M239.6,325.4l-3-4.7l1.7-1.1l2.5,3.9l-0.5,0.4l0.5,0.9L239.6,325.4z M210.8,322.7l-4.6-2l0.8-1.8l4.6,2L210.8,322.7z
		 M245.2,322.6l-0.9-1.8l4.5-2.2l0.9,1.8L245.2,322.6z M216,322.3l-1.6-1.2l3-4l1.6,1.2L216,322.3z M201.6,318.6l-2.2-1l6.1-3.1
		l0.9,1.8l-4.2,2.1l-0.3-0.6L201.6,318.6z M252.9,318.2l-4.6-2l0.8-1.8l4.6,2L252.9,318.2z M234,316.5l-2.7-4.2l1.7-1.1l2.7,4.2
		L234,316.5z M222,314.3l-1.6-1.2l1.9-2.6l0-1.1l2,0l0,1.8L222,314.3z M243.7,314.2l-4.6-2l0.8-1.8l4.6,2L243.7,314.2z M210.9,314.1
		l-0.9-1.8l4.5-2.2l0.9,1.8L210.9,314.1z M216.6,307.7l-0.3-5l2-0.1l0.3,5L216.6,307.7z M230.1,307l-0.1-5l2,0l0.1,5L230.1,307z
		 M239.7,306.8h-2v-5h2V306.8z M222.3,304.4l0-5l2,0l0,5L222.3,304.4z M215.9,297.8l-0.3-5l2-0.1l0.3,5L215.9,297.8z M229.9,297
		l-0.1-5l2,0l0.1,5L229.9,297z M239.7,296.8h-2v-5h2V296.8z M222.2,294.4l0-5l2,0l0,5L222.2,294.4z M215.3,287.8l-0.3-5l2-0.1l0.3,5
		L215.3,287.8z M229.7,287l-0.1-5l2,0l0.1,5L229.7,287z M239.7,286.8h-2v-5h2V286.8z M222.2,284.4l0-5l2,0l0,5L222.2,284.4z
		 M214.6,277.8l-0.3-5l2-0.1l0.3,5L214.6,277.8z M229.4,277l-0.1-5l2,0l0.1,5L229.4,277z M239.7,276.8h-2v-5h2V276.8z M222.2,274.4
		l0-5l2,0l0,5L222.2,274.4z M214,267.8l-0.3-5l2-0.1l0.3,5L214,267.8z M229.2,267l-0.1-5l2,0l0.1,5L229.2,267z M239.7,266.8h-2v-5h2
		V266.8z M222.2,264.4l0-5l2,0l0,5L222.2,264.4z M213.3,257.8l-0.3-5l2-0.1l0.3,5L213.3,257.8z M229,257l-0.1-5l2,0l0.1,5L229,257z
		 M239.7,256.8h-2v-5h2V256.8z M222.1,254.4l0-5l2,0l0,5L222.1,254.4z M212.7,247.9l-0.3-5l2-0.1l0.3,5L212.7,247.9z M228.7,247.1
		l-0.1-5l2,0l0.1,5L228.7,247.1z M239.7,246.8h-2v-5h2V246.8z M222.1,244.4l0-5l2,0l0,5L222.1,244.4z M212.1,237.9l-0.3-5l2-0.1
		l0.3,5L212.1,237.9z M228.5,237.1l-0.1-5l2,0l0.1,5L228.5,237.1z M239.7,236.8h-2v-5h2V236.8z M222.1,234.4l0-5l2,0l0,5
		L222.1,234.4z M211.4,227.9l-0.3-5l2-0.1l0.3,5L211.4,227.9z M228.3,227.1l-0.1-5l2,0l0.1,5L228.3,227.1z M239.7,226.8h-2v-5h2
		V226.8z M250.3,226.5c-0.5,0-0.9-0.3-1.1-0.8c-0.1-0.2-0.2-0.7-0.8-3.1l1.9-0.5c0.2,0.8,0.3,1.3,0.4,1.8c0,0,0.1-0.1,0.2-0.1
		l1.4,1.4C251.4,226.1,250.9,226.5,250.3,226.5z M251.1,225.1C251.1,225.1,251.1,225.1,251.1,225.1
		C251.1,225.1,251.1,225.1,251.1,225.1z M250.1,224.5L250.1,224.5L250.1,224.5z M222,224.4l0-5l2,0l0,5L222,224.4z M255.8,221.4
		l-1.5-1.3c0.1-0.1,0.2-0.2,0.3-0.3l-1.3-3.2l1.9-0.8l1.7,4.3l-0.4,0.5C256.5,220.6,256.2,220.9,255.8,221.4z M210.8,217.9l-0.3-5
		l2-0.1l0.3,5L210.8,217.9z M247.3,217.7l-0.4-1.7l-1.2-1l2.4-3l1.2,5.2L247.3,217.7z M229,217.2h-4.2v-2h5.1l0,1.8l-1,0V217.2z
		 M239.7,216.8h-2v-5h2V216.8z M242.6,216.5l-0.8-1.2l1.3-4.3l1.9,0.6l-1,3.4l0.3,0.4L242.6,216.5z M251.4,212l-0.7-1.6v-3.6h2v3.2
		l0.5,1.3L251.4,212z M210.1,207.9l-0.3-5l2-0.1l0.3,5L210.1,207.9z M239.7,206.8h-2v-5h2V206.8z M243.7,206.4l-0.2-5l2-0.1l0.2,5
		L243.7,206.4z M252.7,201.8h-2v-5h2V201.8z M209.5,198l-0.3-5l2-0.1l0.3,5L209.5,198z M239.7,196.8h-2v-5h2V196.8z M243.4,196.4
		l-0.2-5l2-0.1l0.2,5L243.4,196.4z M252.7,191.8h-2v-5h2V191.8z M208.8,188l-0.3-5l2-0.1l0.3,5L208.8,188z M200.3,187.6l-1.5-1.4
		l3.4-3.6l1.5,1.4L200.3,187.6z M239.7,186.8h-2v-5h2V186.8z M243.1,186.4l-0.1-4.3l-0.1-0.1l0.1,0l0-0.2l0.3,0l1.3-1l0.4,0.6
		l0.2,4.9L243.1,186.4z M195.9,183.6l-2.9-4.1l1.6-1.1l2.9,4.1L195.9,183.6z M252.7,181.8h-2v-4l-0.2-0.4l1.7-1l0.5,0.9V181.8z
		 M207.2,180.3l-1.5-1.4l4.2-4.5l0.2,3.4l-0.8,0L207.2,180.3z M239.8,178.1l-1-1.3h-1.2V172l3.7,4.8L239.8,178.1z M190.2,175.4
		l-2.9-4.1l1.6-1.1l2.9,4.1L190.2,175.4z M200.1,173.4c-0.5,0-0.9-0.3-1.3-0.8l0.6-0.6l-0.2-0.1c0.1-0.1,0.9-1.6,2.1-3.7l1.7,1
		c-1.2,2.1-2,3.6-2.1,3.7l-0.3,0.5L200.1,173.4C200.1,173.4,200.1,173.4,200.1,173.4z M248,173l-2.5-4.3l1.7-1l2.5,4.3L248,173z
		 M195.5,168.7c-1-1.3-2.1-2.7-3.1-3.9l1.6-1.2c1,1.3,2.1,2.6,3.1,3.9L195.5,168.7z M185.1,167.9l-5-0.2l0.1-2l5,0.2L185.1,167.9z
		 M205.5,164.9l-1.7-1l2.5-4.4l1.7,1L205.5,164.9z M243,164.4l-2.5-4.3l1.7-1l2.5,4.3L243,164.4z M178.5,164.2h-2v-5h2V164.2z
		 M189.2,160.8l-0.5-0.6l0.4-5l2,0.2l-0.3,4.6l-0.4,0L189.2,160.8z M210.5,156.1l-1.7-1l0.1-0.2c0.2-0.3,0.3-0.5,0.4-0.7l-0.5-0.9
		l5-0.3l0.1,2l-2.8,0.2c-0.1,0.2-0.3,0.5-0.4,0.8L210.5,156.1z M183.3,156h-5v-2h5V156z M238,155.7l-0.6-1.1l-2.6-0.1l0-2l3.7,0.1
		l1.2,2.1L238,155.7z M218.8,154.6l-0.1-2l0.6,0l-0.5-1.9l1.9-0.5l1.1,4.2L218.8,154.6z M229.8,154.4l-2,0v-4.9h2v3l0.1,0
		L229.8,154.4z M183.4,151.4l-0.4-5.6l1.5,0l0,1l0.6,0l0.3,4.6L183.4,151.4z M191.5,150.4l-2-0.1l0.2-2.6l-0.2,0l-0.1-2l2.4-0.1
		L191.5,150.4z M218.7,148.8c-0.1,0-2-1-4.2-3.3l1.4-1.4c1.9,2,3.6,2.8,3.6,2.8L218.7,148.8z M232.3,146.4l-1.5-1.4
		c1-1.1,1.9-2.4,2.7-3.9l1.8,0.9C234.5,143.7,233.5,145.2,232.3,146.4z M211.3,141.3c-0.8-1.5-1.5-3.1-2-4.8l1.9-0.6
		c0.5,1.6,1.1,3,1.8,4.4L211.3,141.3z M237.2,137.2l-1.9-0.5c0.7-2.6,0.7-4.5,0.7-4.5l0-0.1l2-0.1l0,0.2
		C237.9,132.3,237.9,134.4,237.2,137.2z M208.3,131.4c-0.1-0.8-0.1-1.7-0.1-2.5c0-0.3,0-0.6,0-0.9c0-0.6,0-1.2,0-1.8l2,0.1
		c0,0.5,0,1.1,0,1.7c0,0.3,0,0.5,0,0.8c0,0.8,0.1,1.6,0.1,2.3L208.3,131.4z M235.5,127.2c-0.2-1.7-0.6-3.3-1-4.8l1.9-0.5
		c0.4,1.6,0.8,3.2,1,5L235.5,127.2z M210.8,121.6l-2-0.4c0.4-1.8,0.9-3.4,1.6-5l1.8,0.8C211.7,118.4,211.2,119.9,210.8,121.6z
		 M232.9,117.9c-0.7-1.5-1.6-2.9-2.5-4l1.5-1.3c1.1,1.3,2,2.8,2.8,4.4L232.9,117.9z M214.8,113.1l-1.5-1.3c1.2-1.4,2.6-2.6,4.2-3.4
		l0.9,1.8C217.1,110.9,215.8,111.8,214.8,113.1z M226.9,110.8c-1.7-1.1-3.3-1.4-4.3-1.5l0.2-2c1.2,0.1,3,0.5,5.1,1.8L226.9,110.8z"
		/>
</g>
</svg>
