<?xml version="1.0" encoding="utf-8"?>
<!-- Generator: Adobe Illustrator 21.0.0, SVG Export Plug-In . SVG Version: 6.00 Build 0)  -->
<!DOCTYPE svg PUBLIC "-//W3C//DTD SVG 1.0//EN" "http://www.w3.org/TR/2001/REC-SVG-20010904/DTD/svg10.dtd">
<svg version="1.0" xmlns="http://www.w3.org/2000/svg" xmlns:xlink="http://www.w3.org/1999/xlink" x="0px" y="0px" width="432px"
	 height="432px" viewBox="0 0 432 432" enable-background="new 0 0 432 432" xml:space="preserve">
<g id="Color">
	<circle cx="181.8" cy="215.8" r="9.8"/>
</g>
<g id="Lines_1_">
	
		<polyline fill="none" stroke="#000000" stroke-width="2" stroke-linecap="round" stroke-linejoin="round" stroke-miterlimit="10" points="
		181.8,215.8 257.8,215.8 250,207.8 257.8,215.8 248.3,224.8 	"/>
</g>
<g id="Stroke">
	
		<path opacity="0" fill="none" stroke="#2781A0" stroke-width="5" stroke-linecap="round" stroke-linejoin="round" stroke-miterlimit="10" d="
		M181.7,216.5c-0.7-0.5-1-1.4-1-2.2c0.7-0.2,1.4-0.4,2.1-0.3c0.7,0.1,1.4,0.6,1.5,1.3c0.1,1.2-1.4,1.9-2.6,2.1
		c-0.6,0.1-1.3,0.3-1.9,0.4c-0.4,0.1-0.7,0.1-1.1,0.1c-1.2-0.2-1.6-1.8-1.7-3.1c0-0.8,0-1.7,0.6-2.2c0.4-0.3,1-0.4,1.6-0.4
		c1.9-0.1,3.9-0.3,5.6,0.5s3,2.8,2.4,4.6c-0.7,1.8-2.8,2.5-4.7,2.8c-2.3,0.4-5.2,0.6-6.7-1.2c-1-1.1-1.1-2.7-0.8-4.2
		c0.4-1.4,1.2-2.7,2.1-3.8c0.3-0.4,0.7-0.8,1.1-1.1c0.6-0.4,1.2-0.5,1.9-0.6c1.9-0.2,3.9,0.2,5.5,1.3c1.7,1.1,3,2.8,3.5,4.7
		c0.5,1.9,0.1,4.1-1.1,5.7c-1,1.4-2.6,2.3-4.3,2.9c-4.3,1.3-9.5-0.5-11.7-4.4c-1.2-2.2-1.4-4.9-0.6-7.2c0.5-1.5,1.5-2.9,2.9-3.7
		c1.6-0.9,3.4-1,5.2-1c2.8,0,5.6,0.3,8.4,0.9c0.6,0.1,1.3,0.3,1.7,0.7c0.4,0.4,0.6,0.9,0.7,1.5c0.6,2.5,0.6,5.1,0.5,7.7
		c0,1.5-0.1,3-0.9,4.3c-1.2,1.9-3.7,2.5-5.9,2.8c-1.6,0.2-3.2,0.3-4.8,0.4c-1.5,0-3.2-0.1-4-1.3"/>
</g>
</svg>
