<?xml version="1.0" encoding="utf-8"?>
<!-- Generator: Adobe Illustrator 19.2.1, SVG Export Plug-In . SVG Version: 6.00 Build 0)  -->
<svg version="1.0" id="Layer_1" xmlns="http://www.w3.org/2000/svg" xmlns:xlink="http://www.w3.org/1999/xlink" x="0px" y="0px"
	 width="432px" height="432px" viewBox="0 0 432 432" enable-background="new 0 0 432 432" xml:space="preserve">
<polygon fill="none" stroke="#000000" stroke-width="2" stroke-miterlimit="10" points="123.2,153.9 125.7,277.9 304.2,277.9 
	308.2,153.9 "/>
<line fill="none" stroke="#000000" stroke-width="2" stroke-miterlimit="10" x1="123.2" y1="172.4" x2="307.6" y2="172.4"/>
<line fill="none" stroke="#000000" stroke-width="2" stroke-miterlimit="10" x1="123.2" y1="190.4" x2="307.6" y2="190.4"/>
<line fill="none" stroke="#000000" stroke-width="2" stroke-miterlimit="10" x1="123.2" y1="208.4" x2="307.6" y2="208.4"/>
<line fill="none" stroke="#000000" stroke-width="2" stroke-miterlimit="10" x1="124.3" y1="226.4" x2="305.5" y2="226.4"/>
<line fill="none" stroke="#000000" stroke-width="2" stroke-miterlimit="10" x1="124.3" y1="244.4" x2="305.5" y2="244.4"/>
<line fill="none" stroke="#000000" stroke-width="2" stroke-miterlimit="10" x1="124.3" y1="262.4" x2="304.7" y2="262.4"/>
<line fill="none" stroke="#000000" stroke-width="2" stroke-miterlimit="10" x1="148.4" y1="153.9" x2="148.4" y2="172.4"/>
<line fill="none" stroke="#000000" stroke-width="2" stroke-miterlimit="10" x1="199.2" y1="153.9" x2="198.3" y2="172.4"/>
<line fill="none" stroke="#000000" stroke-width="2" stroke-miterlimit="10" x1="242.8" y1="153.9" x2="244.4" y2="172.4"/>
<line fill="none" stroke="#000000" stroke-width="2" stroke-miterlimit="10" x1="284.2" y1="153.9" x2="284.2" y2="172.4"/>
<line fill="none" stroke="#000000" stroke-width="2" stroke-miterlimit="10" x1="266.2" y1="172.4" x2="265.2" y2="190.4"/>
<line fill="none" stroke="#000000" stroke-width="2" stroke-miterlimit="10" x1="220.2" y1="172.4" x2="220.2" y2="190.4"/>
<line fill="none" stroke="#000000" stroke-width="2" stroke-miterlimit="10" x1="171.2" y1="172.4" x2="171.2" y2="190.4"/>
<line fill="none" stroke="#000000" stroke-width="2" stroke-miterlimit="10" x1="147.4" y1="190.4" x2="148.4" y2="208.4"/>
<line fill="none" stroke="#000000" stroke-width="2" stroke-miterlimit="10" x1="194.4" y1="190.4" x2="194.4" y2="208.4"/>
<line fill="none" stroke="#000000" stroke-width="2" stroke-miterlimit="10" x1="240.2" y1="190.4" x2="241.4" y2="208.4"/>
<line fill="none" stroke="#000000" stroke-width="2" stroke-miterlimit="10" x1="282.3" y1="190.4" x2="281.5" y2="208.4"/>
<line fill="none" stroke="#000000" stroke-width="2" stroke-miterlimit="10" x1="266.2" y1="208.4" x2="265.2" y2="226.4"/>
<line fill="none" stroke="#000000" stroke-width="2" stroke-miterlimit="10" x1="220.2" y1="208.4" x2="220.2" y2="226.4"/>
<line fill="none" stroke="#000000" stroke-width="2" stroke-miterlimit="10" x1="171.2" y1="208.4" x2="171.2" y2="226.4"/>
<line fill="none" stroke="#000000" stroke-width="2" stroke-miterlimit="10" x1="147.4" y1="226.4" x2="148.4" y2="244.4"/>
<line fill="none" stroke="#000000" stroke-width="2" stroke-miterlimit="10" x1="194.4" y1="226.4" x2="194.4" y2="244.4"/>
<line fill="none" stroke="#000000" stroke-width="2" stroke-miterlimit="10" x1="240.2" y1="226.4" x2="241.4" y2="244.4"/>
<line fill="none" stroke="#000000" stroke-width="2" stroke-miterlimit="10" x1="282.3" y1="226.4" x2="281.5" y2="244.4"/>
<line fill="none" stroke="#000000" stroke-width="2" stroke-miterlimit="10" x1="266.2" y1="244.4" x2="265.2" y2="262.4"/>
<line fill="none" stroke="#000000" stroke-width="2" stroke-miterlimit="10" x1="220.2" y1="244.4" x2="220.2" y2="262.4"/>
<line fill="none" stroke="#000000" stroke-width="2" stroke-miterlimit="10" x1="171.2" y1="244.4" x2="171.2" y2="262.4"/>
<line fill="none" stroke="#000000" stroke-width="2" stroke-miterlimit="10" x1="147.4" y1="262.4" x2="148.4" y2="278.4"/>
<line fill="none" stroke="#000000" stroke-width="2" stroke-miterlimit="10" x1="194.4" y1="262.4" x2="194.4" y2="278.4"/>
<line fill="none" stroke="#000000" stroke-width="2" stroke-miterlimit="10" x1="240.2" y1="262.4" x2="241.4" y2="278.4"/>
<line fill="none" stroke="#000000" stroke-width="2" stroke-miterlimit="10" x1="282.3" y1="262.4" x2="281.5" y2="278.4"/>
</svg>
