<?xml version="1.0" encoding="utf-8"?>
<!-- Generator: Adobe Illustrator 21.0.0, SVG Export Plug-In . SVG Version: 6.00 Build 0)  -->
<!DOCTYPE svg PUBLIC "-//W3C//DTD SVG 1.0//EN" "http://www.w3.org/TR/2001/REC-SVG-20010904/DTD/svg10.dtd">
<svg version="1.0" xmlns="http://www.w3.org/2000/svg" xmlns:xlink="http://www.w3.org/1999/xlink" x="0px" y="0px" width="568.8px"
	 height="432px" viewBox="0 0 568.8 432" enable-background="new 0 0 568.8 432" xml:space="preserve">
<g id="Color">
	<circle cx="96.9" cy="216.5" r="9.8"/>
	<circle cx="189.9" cy="216.5" r="9.8"/>
	<circle cx="282.9" cy="216.5" r="9.8"/>
	<circle cx="376.7" cy="216.5" r="9.8"/>
	<circle cx="471.2" cy="216.5" r="9.8"/>
</g>
<g id="Lines">
	<line fill="none" stroke="#000000" stroke-width="2" stroke-miterlimit="10" x1="27.3" y1="216.5" x2="540.8" y2="216.5"/>
</g>
<g id="Stroke">
	<path opacity="0" fill="none" stroke="#1C91BA" stroke-width="7" stroke-miterlimit="10" d="M96.3,217.3c-1.1,1.1-3.2-0.6-2.6-2
		c0.6-1.4,2.8-1.6,3.9-0.5c1.6,1.7,0,5.1-2.3,4.9c-0.6,0-1.1-0.2-1.6-0.5c-0.8-0.5-1.3-1.3-1.5-2.2c-0.5-1.6,0.1-3.5,1.4-4.6
		c1.3-1.1,3.2-1.4,4.7-0.7c2.8,1.2,3.7,5.5,1.5,7.7c-0.4,0.4-0.9,0.7-1.4,1c-2.3,1.2-5.3,0.8-7.2-1c-1.9-1.8-2.3-4.9-1-7.1
		c1.1-1.9,3.3-2.9,5.4-3.2s4.3,0.2,6.4,0.7c0.7,3.3,1.3,7.1-0.6,9.9c-2,2.9-6.4,3.6-9.4,1.9s-4.8-5.4-4.7-8.9c0.1-1.7,0.6-3.5,2-4.4
		c0.8-0.5,1.9-0.6,2.9-0.7c2.2-0.2,4.4-0.4,6.6,0c2.2,0.4,4.3,1.5,5.4,3.4c0.7,1.1,0.9,2.4,1.1,3.7c0.5,2.8,0.7,5.9-1.2,8
		c-1.4,1.5-3.6,1.9-5.7,2.2c-2.6,0.3-5.7,0.2-7.4-1.8c-1.3-1.6-1.3-3.8-1.6-5.8c-0.2-1.6-0.7-3.2-0.4-4.8c0.6-3.2,3.8-5.1,6.8-6.2
		c5-1.8,10.3-2.5,15.6-1.9c3,0.3,5.9,1,8.9,1.4c4.7,0.7,9.5,0.8,14.2,0.8c10.1,0.1,20.1,0,30.2-0.2c9.6-0.2,19.5-1.4,29,0.9
		c1.3,0.3,2.7,0.7,3.5,1.7c0.9,1,1.1,2.4,1.3,3.7c0.6,3.3,0.9,7.3-1.7,9.5c-1,0.8-2.2,1.2-3.4,1.6c-2.4,0.7-5.2,1.4-7.4,0.1
		c-2.6-1.5-3.3-4.8-3.3-7.8c0-1,0-2,0.4-3c0.7-1.9,2.6-3.1,4.6-3.6c2-0.4,4-0.2,6.1,0c0.6,0.1,1.2,0.1,1.6,0.5
		c0.4,0.4,0.5,0.9,0.7,1.4c0.7,2.6,1.3,5.4,0.1,7.8c-0.5,1-1.3,1.9-2.3,2.6c-1.6,1.2-3.5,2.1-5.5,1.8c-2.5-0.3-4.6-2.5-4.8-5
		s1.5-5,4-5.7c1.7-0.5,3.7,0,4.8,1.3s1.1,3.6-0.2,4.8c-1.4,1.1-3.9,0.1-4.1-1.7c-0.3-2,1.7-3.5,3.5-4.5c9-4.7,19.1-7.1,29.2-6.8
		c17.8,0.4,34.4,0,52.3,0.1c4.1,0,8.3,0.1,12,1.9c3.7,1.8,6.6,5.9,5.6,9.8c-0.8,3.6-5.1,6-8.6,5c-3.6-1.1-5.7-5.4-4.4-8.9
		c1.3-3.5,5.8-5.3,9.2-3.8c1.2,0.6,2.3,1.6,2.6,2.9c0.1,0.7,0,1.5-0.2,2.2c-1.1,4.1-5.3,7.5-9.5,6.5c-3.8-1-6-5.6-4.7-9.3
		c1.3-3.7,5.7-5.8,9.5-5c3.8,0.8,6.9,4.2,7.6,8.1c0.7,3.8-0.9,8.2-4.4,10c-3.4,1.8-8.4,0.3-9.7-3.4c-1.3-3.7,2.4-8.2,6.2-7.2
		c0.3,1.9,0.1,4.5-1.8,4.7c0.4-5.1,6.7-7,11.7-7.6c25.6-3.1,51.4-6.1,77.1-3.8c3.1,0.3,6.2,0.7,8.8,2.3c2.6,1.6,4.5,4.8,3.7,7.8
		c-0.9,3.1-4.4,4.8-7.6,5.2c-1.9,0.2-4,0.2-5.5-1c-2.7-2-2.4-6.4-0.2-8.9c2.2-2.5,5.7-3.4,9.1-3.7c1.9-0.2,4.1-0.1,5.2,1.4
		c0.7,0.9,0.8,2.1,0.8,3.2c0,4.6-2.5,9.6-6.9,10.9c-4.4,1.3-10-3-8.5-7.4c0.4-1.3,1.3-2.4,2.4-3.2c1.5-1.1,3.5-1.8,5.3-1.3
		c1.8,0.5,3.2,2.6,2.6,4.4c-0.6,1.8-3.4,2.5-4.5,0.9c-3.7-1.2-4-7.5-0.4-9c1.7-0.8,3.7-0.4,5.6-0.2c26.1,3.7,52.6-5.7,78.7-2.5
		c6.8,0.8,14.4,3.3,17.1,9.6c0.6,1.3,0.8,2.9,0.2,4.2c-0.3,0.7-0.9,1.2-1.6,1.7c-4.8,3.3-12.5-1.6-11.6-7.4
		c0.8-5.7,9.3-8.4,13.3-4.2c4,4.2,1.1,12.5-4.6,13.4c-2,0.3-4.2-0.2-5.4-1.9c-2.3-3.3,1.5-7.7,5.5-8.4c0.6-0.1,1.3-0.2,1.8,0
		c1.8,0.6,1.7,3.4,0.4,4.6s-3.4,1.5-5.2,1.6c-1.4-4.2,1.4-8.9,5.3-11c3.9-2.2,8.5-2.4,12.9-2.6"/>
</g>
</svg>
