<?xml version="1.0" encoding="utf-8"?>
<!-- Generator: Adobe Illustrator 21.0.0, SVG Export Plug-In . SVG Version: 6.00 Build 0)  -->
<!DOCTYPE svg PUBLIC "-//W3C//DTD SVG 1.0//EN" "http://www.w3.org/TR/2001/REC-SVG-20010904/DTD/svg10.dtd">
<svg version="1.0" id="Lines" xmlns="http://www.w3.org/2000/svg" xmlns:xlink="http://www.w3.org/1999/xlink" x="0px" y="0px"
	 width="568.8px" height="432px" viewBox="0 0 568.8 432" enable-background="new 0 0 568.8 432" xml:space="preserve">
<line fill="none" stroke="#000000" stroke-width="2" stroke-miterlimit="10" x1="27.3" y1="216.3" x2="540.8" y2="216.3"/>
<line fill="none" stroke="#000000" stroke-width="2" stroke-miterlimit="10" x1="27.3" y1="202.2" x2="27.3" y2="229.8"/>
<line fill="none" stroke="#000000" stroke-width="2" stroke-miterlimit="10" x1="46.3" y1="208" x2="46.3" y2="224.6"/>
<line fill="none" stroke="#000000" stroke-width="2" stroke-miterlimit="10" x1="65.3" y1="208" x2="65.3" y2="224.6"/>
<line fill="none" stroke="#000000" stroke-width="2" stroke-miterlimit="10" x1="84.4" y1="208" x2="84.4" y2="224.6"/>
<line fill="none" stroke="#000000" stroke-width="2" stroke-miterlimit="10" x1="103.4" y1="208" x2="103.4" y2="224.6"/>
<line fill="none" stroke="#000000" stroke-width="2" stroke-miterlimit="10" x1="122.4" y1="208" x2="122.4" y2="224.6"/>
<line fill="none" stroke="#000000" stroke-width="2" stroke-miterlimit="10" x1="141.4" y1="208" x2="141.4" y2="224.6"/>
<line fill="none" stroke="#000000" stroke-width="2" stroke-miterlimit="10" x1="160.4" y1="208" x2="160.4" y2="224.6"/>
<line fill="none" stroke="#000000" stroke-width="2" stroke-miterlimit="10" x1="179.4" y1="208" x2="179.4" y2="224.6"/>
<line fill="none" stroke="#000000" stroke-width="2" stroke-miterlimit="10" x1="198.5" y1="202.2" x2="198.5" y2="229.8"/>
<line fill="none" stroke="#000000" stroke-width="2" stroke-miterlimit="10" x1="217.5" y1="208" x2="217.5" y2="224.6"/>
<line fill="none" stroke="#000000" stroke-width="2" stroke-miterlimit="10" x1="236.5" y1="208" x2="236.5" y2="224.6"/>
<line fill="none" stroke="#000000" stroke-width="2" stroke-miterlimit="10" x1="255.5" y1="208" x2="255.5" y2="224.6"/>
<line fill="none" stroke="#000000" stroke-width="2" stroke-miterlimit="10" x1="274.5" y1="208" x2="274.5" y2="224.6"/>
<line fill="none" stroke="#000000" stroke-width="2" stroke-miterlimit="10" x1="293.6" y1="208" x2="293.6" y2="224.6"/>
<line fill="none" stroke="#000000" stroke-width="2" stroke-miterlimit="10" x1="312.6" y1="208" x2="312.6" y2="224.6"/>
<line fill="none" stroke="#000000" stroke-width="2" stroke-miterlimit="10" x1="331.6" y1="208" x2="331.6" y2="224.6"/>
<line fill="none" stroke="#000000" stroke-width="2" stroke-miterlimit="10" x1="350.6" y1="208" x2="350.6" y2="224.6"/>
<line fill="none" stroke="#000000" stroke-width="2" stroke-miterlimit="10" x1="369.6" y1="202.2" x2="369.6" y2="229.8"/>
<line fill="none" stroke="#000000" stroke-width="2" stroke-miterlimit="10" x1="388.7" y1="208" x2="388.7" y2="224.6"/>
<line fill="none" stroke="#000000" stroke-width="2" stroke-miterlimit="10" x1="407.7" y1="208" x2="407.7" y2="224.6"/>
<line fill="none" stroke="#000000" stroke-width="2" stroke-miterlimit="10" x1="426.7" y1="208" x2="426.7" y2="224.6"/>
<line fill="none" stroke="#000000" stroke-width="2" stroke-miterlimit="10" x1="445.7" y1="208" x2="445.7" y2="224.6"/>
<line fill="none" stroke="#000000" stroke-width="2" stroke-miterlimit="10" x1="464.7" y1="208" x2="464.7" y2="224.6"/>
<line fill="none" stroke="#000000" stroke-width="2" stroke-miterlimit="10" x1="483.7" y1="208" x2="483.7" y2="224.6"/>
<line fill="none" stroke="#000000" stroke-width="2" stroke-miterlimit="10" x1="502.8" y1="208" x2="502.8" y2="224.6"/>
<line fill="none" stroke="#000000" stroke-width="2" stroke-miterlimit="10" x1="521.8" y1="208" x2="521.8" y2="224.6"/>
<line fill="none" stroke="#000000" stroke-width="2" stroke-miterlimit="10" x1="540.8" y1="202.2" x2="540.8" y2="229.8"/>
</svg>
