<?xml version="1.0" encoding="utf-8"?>
<!-- Generator: Adobe Illustrator 19.2.1, SVG Export Plug-In . SVG Version: 6.00 Build 0)  -->
<svg version="1.0" id="Layer_1" xmlns="http://www.w3.org/2000/svg" xmlns:xlink="http://www.w3.org/1999/xlink" x="0px" y="0px"
	 width="432px" height="432px" viewBox="0 0 432 432" enable-background="new 0 0 432 432" xml:space="preserve">
<path fill="none" stroke="#000000" stroke-width="2" stroke-miterlimit="10" d="M237.4,158.5h-9.7c0.2-0.9,0.3-1.8,0.3-2.8
	c0-6.8-5.5-12.2-12.2-12.2s-12.2,5.5-12.2,12.2c0,0.9,0.1,1.9,0.3,2.8h-9.7c-4,0-7.2,3.2-7.2,7.2v7.3h57.8v-7.3
	C244.6,161.7,241.4,158.5,237.4,158.5z"/>
<circle fill="none" stroke="#000000" stroke-width="2" stroke-miterlimit="10" cx="215.7" cy="155.2" r="5.2"/>
<path fill="none" stroke="#000000" stroke-width="2" stroke-miterlimit="10" d="M243.9,163c9.3,0,17.7,0,17.7,0v125.9h-91.8V163
	c0,0,8.5,0,17.9,0"/>
<path fill="none" stroke="#000000" stroke-width="2" stroke-miterlimit="10" d="M245.1,169c7.1,0,11.8,0,11.8,0v114.7h-82.4V169
	c0,0,5,0,12.6,0"/>
<rect x="179.9" y="180.5" fill="none" stroke="#000000" stroke-width="2" stroke-miterlimit="10" width="12.7" height="12.7"/>
<rect x="179.9" y="197.8" fill="none" stroke="#000000" stroke-width="2" stroke-miterlimit="10" width="12.7" height="12.7"/>
<rect x="179.9" y="214.1" fill="none" stroke="#000000" stroke-width="2" stroke-miterlimit="10" width="12.7" height="12.7"/>
<rect x="179.9" y="231.4" fill="none" stroke="#000000" stroke-width="2" stroke-miterlimit="10" width="12.7" height="12.7"/>
<rect x="179.9" y="248.6" fill="none" stroke="#000000" stroke-width="2" stroke-miterlimit="10" width="12.7" height="12.7"/>
<rect x="179.9" y="265" fill="none" stroke="#000000" stroke-width="2" stroke-miterlimit="10" width="12.7" height="12.7"/>
</svg>
