<?xml version="1.0" encoding="utf-8"?>
<!-- Generator: Adobe Illustrator 19.2.1, SVG Export Plug-In . SVG Version: 6.00 Build 0)  -->
<svg version="1.0" xmlns="http://www.w3.org/2000/svg" xmlns:xlink="http://www.w3.org/1999/xlink" x="0px" y="0px" width="432px"
	 height="432px" viewBox="0 0 432 432" enable-background="new 0 0 432 432" xml:space="preserve">
<g id="Layer_2">
	<path fill="#27AAE1" d="M199,103.6c0,0-15.6,25.3,6.1,40.8c0,0-13.6,0-15.2-14.8c-1.7-14.9,2.3-23.9,9.2-26.7"/>
	<polygon fill="#27AAE1" points="195.1,151.8 204.2,207.2 227.3,207.2 199.7,211.6 188.3,153.3 	"/>
	<polygon fill="#27AAE1" points="203.3,211.2 202.2,309.9 186.4,326.9 203.3,329.8 207.7,309.9 212.5,210.4 	"/>
	<polygon fill="#27AAE1" points="221.1,209.1 239,307.3 258.2,319.3 239.6,327.7 235.4,308.3 215.9,209.7 	"/>
	<polygon fill="#27AAE1" points="189.4,161.4 176.4,181.2 198,204.7 199,208 187.4,210.4 190,214.1 199.7,210.4 197.4,200.1 
		181.5,180.3 191.2,168.5 	"/>
</g>
<g id="Layer_1">
	
		<ellipse transform="matrix(0.9951 -9.902810e-02 9.902810e-02 0.9951 -11.2587 20.71)" fill="none" stroke="#000000" stroke-width="2" stroke-miterlimit="10" cx="203" cy="123.8" rx="14" ry="20.7"/>
	<path fill="none" stroke="#000000" stroke-width="2" stroke-miterlimit="10" d="M211.1,104.6c0,0-13.7,4.2-22.8,4.3"/>
	<path fill="none" stroke="#000000" stroke-width="2" stroke-miterlimit="10" d="M213.1,107.2c0,0-11.5,6-24.8,5.4"/>
	<path fill="none" stroke="#000000" stroke-width="2" stroke-miterlimit="10" d="M214.8,108.9c0,0-12.2,10.2-28.5,7.5"/>
	<path fill="none" stroke="#000000" stroke-width="2" stroke-miterlimit="10" d="M188.3,153.3c0,0,28-6.3,36.8-6.1l2.2,61.1
		l-27.7,3.3L188.3,153.3z"/>
	<polygon fill="none" stroke="#000000" stroke-width="2" stroke-miterlimit="10" points="236.4,308.2 242.3,324.7 261.1,318.3 
		242.6,307.3 	"/>
	<polyline fill="none" stroke="#000000" stroke-width="2" stroke-miterlimit="10" points="202.3,144.2 203.7,150.1 211.1,148.8 
		210.1,142.4 	"/>
	<polyline fill="none" stroke="#000000" stroke-width="2" stroke-miterlimit="10" points="188.3,153.3 168.9,181.8 195.3,206.8 
		184.9,206.8 190,214.1 199,210.9 	"/>
	<path fill="none" stroke="#000000" stroke-width="2" stroke-miterlimit="10" d="M197.1,199.6c-2.2-2.7-15.8-19.5-15.8-19.5
		l9.8-12.3"/>
	<line fill="none" stroke="#000000" stroke-width="2" stroke-miterlimit="10" x1="169.4" y1="181.2" x2="181.3" y2="180.1"/>
	<polyline fill="none" stroke="#000000" stroke-width="2" stroke-miterlimit="10" points="225.1,147.2 246.6,169.3 230.6,202.7 
		239.6,204.4 235.9,209.9 227.4,208.3 	"/>
	<polyline fill="none" stroke="#000000" stroke-width="2" stroke-miterlimit="10" points="225.7,163.8 234.8,172.3 226.9,195.5 	"/>
	<line fill="none" stroke="#000000" stroke-width="2" stroke-miterlimit="10" x1="234.8" y1="172.3" x2="246.6" y2="169.3"/>
	<polyline fill="none" stroke="#000000" stroke-width="2" stroke-miterlimit="10" points="199.7,211.6 200.5,308.9 207.7,309.9 
		212.5,210.4 215.9,209.7 235.4,308.3 242.6,307.3 227.3,205.9 	"/>
	<polyline fill="none" stroke="#000000" stroke-width="2" stroke-miterlimit="10" points="200.5,308.9 186.4,323.7 203.7,326.9 
		207.7,309.9 	"/>
	<line fill="none" stroke="#000000" stroke-width="2" stroke-miterlimit="10" x1="235.9" y1="150.1" x2="273.6" y2="110"/>
	<line fill="none" stroke="#000000" stroke-width="2" stroke-miterlimit="10" x1="242.6" y1="155.4" x2="305.4" y2="112.7"/>
	<line fill="none" stroke="#000000" stroke-width="2" stroke-miterlimit="10" x1="249.1" y1="161.4" x2="295.4" y2="135.9"/>
	<line fill="none" stroke="#000000" stroke-width="2" stroke-miterlimit="10" x1="251.6" y1="167.8" x2="295.4" y2="155.4"/>
	<line fill="none" stroke="#000000" stroke-width="2" stroke-miterlimit="10" x1="185.4" y1="150.1" x2="145.1" y2="108.9"/>
	<path fill="none" stroke="#000000" stroke-width="2" stroke-miterlimit="10" d="M139.9,125.4c1.8,1,38.5,27.9,38.5,27.9"/>
	<path fill="none" stroke="#000000" stroke-width="2" stroke-miterlimit="10" d="M126.6,137.2c0.8,0.2,48.7,20.5,48.7,20.5"/>
	<line fill="none" stroke="#000000" stroke-width="2" stroke-miterlimit="10" x1="172.6" y1="163.8" x2="126.6" y2="153.3"/>
	<line fill="none" stroke="#000000" stroke-width="2" stroke-miterlimit="10" x1="182.6" y1="216.7" x2="128.1" y2="263.2"/>
	<line fill="none" stroke="#000000" stroke-width="2" stroke-miterlimit="10" x1="176.4" y1="212.9" x2="138.4" y2="234.9"/>
	<line fill="none" stroke="#000000" stroke-width="2" stroke-miterlimit="10" x1="184" y1="226.7" x2="149.6" y2="263.2"/>
	<path fill="none" stroke="#000000" stroke-width="2" stroke-miterlimit="10" d="M188.3,232.2c-0.7,1.2-24.9,49.2-24.9,49.2"/>
	<line fill="none" stroke="#000000" stroke-width="2" stroke-miterlimit="10" x1="237.4" y1="226.7" x2="272.2" y2="266.4"/>
	<line fill="none" stroke="#000000" stroke-width="2" stroke-miterlimit="10" x1="240.7" y1="218.7" x2="299.4" y2="266.4"/>
	<line fill="none" stroke="#000000" stroke-width="2" stroke-miterlimit="10" x1="245.6" y1="214.1" x2="300.9" y2="239.9"/>
	<line fill="none" stroke="#000000" stroke-width="2" stroke-miterlimit="10" x1="246.6" y1="205.9" x2="291.4" y2="216.7"/>
</g>
<g id="Layer_3">
	<path opacity="0" fill="none" stroke="#27AAE1" stroke-width="20" stroke-miterlimit="10" d="M189,104.7c4.8-0.3,9.6-0.3,14.4-0.1
		c-5.7,1.9-11.5,3.2-17.5,3.8c5,0.3,10.1,0.6,15.1,1c-4.8,2.7-10,4.8-15.3,6.2c3.8,0,7.6,0.1,11.4,0.1c-4.6,3.7-9.5,7.1-14.5,10.1
		c5,0.2,10.1,0.4,15.1,0.6c-4.2,1.9-8.4,3.7-12.6,5.6c5.5-0.1,11.1,0.2,16.6,0.7c-5.8,2-11.4,4.4-16.9,7.2
		c7.3,0.1,14.6,0.1,21.9,0.2c-5.8,1.4-11.4,3.6-16.6,6.4c6.7,0,13.3-0.5,19.9-1.5c-10.4,3.1-20.6,6.7-30.5,10.9
		c5.5-0.5,11-1,16.5-1.4c-5.7,4.4-12.3,7.6-19.3,9.2c8.6-0.6,17.2-2,25.6-4c-9.9,4.5-19.8,9-29.7,13.5c8.8-1.6,17.7-3.1,26.5-4.7
		c-10.8,5.8-22,10.7-33.6,14.6c11.7-1.6,23.4-3.1,35.1-4.7c-9.3,5-18.9,9.3-28.8,13c8-2.6,16.5-3.5,24.8-2.6
		c-6.4,2.6-12.7,5.2-19.1,7.8c10.2-2.6,20.8-3.8,31.3-3.5c-9.2,3.6-18.4,7.1-27.7,10.7c10.1-3.7,20.7-6.5,31.5-6.4
		c-11.1,3.7-21.9,8.3-32.2,13.8c17.4-2.4,34.8-4.8,52.3-7.2c-14.4,2.8-28.9,5.5-43.3,8.3c-1.9,0.4-4.3,1.4-3.9,3.3
		c16.4-1.7,32.8-3.4,49.2-5.3c-14,3.7-28.2,7.4-41.2,13.8c12.9-2.4,26-3.6,39-3.6c-11.4,4.5-22.9,8.9-34.3,13.4
		c10.3-1.9,20.7-3.8,31-5.7c-11.4,5.9-22.9,11.9-34.3,17.8c13.7-1.8,27.4-3.7,41.1-5.5c-15.2,7-31,12.6-47.3,16.6
		c15.5-2.1,30.9-4.1,46.4-6.2c-13.6,5.6-27.2,11.2-40.8,16.8c14.5-4.1,29.4-7.2,44.4-9c-15.2,5.3-30.3,10.8-45.3,16.6
		c16.2-0.7,32.1-4.4,47.8-8c-17.9,7.2-36.4,12.7-55.3,16.4c17.4-0.9,34.7-3.2,52-5.5c-17.9,5.4-35.8,10.8-53.7,16.2
		c21.3,2.3,42.6-3,63.3-8.4c-16.9,11.2-36.5,18.2-56.7,20.4c18.3-1.3,36.6-2.7,54.9-4c-23.2,7-48.6,5.5-71.1,14.5
		c30.4-1.3,60.8-4,91-8c-24.9,3.5-49.8,7.1-74.7,10.6c-5,0.7-10.1,1.4-14.8,3.5c27.5-0.9,55-2.9,82.3-5.9
		c-22.3,1.4-44.4,4.6-66.2,9.5c-2.4,0.5-5,1.2-6.3,3.3c24.2,1.7,48.8-1.2,71.9-8.5"/>
</g>
</svg>
