<?xml version="1.0" encoding="utf-8"?>
<!-- Generator: Adobe Illustrator 19.2.1, SVG Export Plug-In . SVG Version: 6.00 Build 0)  -->
<svg version="1.0" xmlns="http://www.w3.org/2000/svg" xmlns:xlink="http://www.w3.org/1999/xlink" x="0px" y="0px" width="432px"
	 height="432px" viewBox="0 0 432 432" enable-background="new 0 0 432 432" xml:space="preserve">
<g id="Layer_2">
	<path fill="#27AAE1" d="M249.4,212.8c0.3,0.3,1.2,18.1-14.7,13.8c0,0,4.8,7.8,13.9,1.4c0,0,4.7-5.5,3.1-10.8
		C250,211.8,249.4,212.8,249.4,212.8z"/>
</g>
<g id="Layer_1">
	<circle fill="none" stroke="#000000" stroke-width="2" stroke-miterlimit="10" cx="215.5" cy="216.1" r="72.3"/>
	
		<ellipse transform="matrix(0.1307 -0.9914 0.9914 0.1307 -11.6228 367.0601)" fill="none" stroke="#000000" stroke-width="2" stroke-miterlimit="10" cx="203.5" cy="190.2" rx="18.3" ry="12.5"/>
	<path fill="none" stroke="#000000" stroke-width="2" stroke-miterlimit="10" d="M185.8,207.2l-12.5-10.4l5.1-11.5
		c13.2-27,29.8-21.5,29.8-21.5s14.8,0.1,15.9,21.5s0,24.9,0,24.9l-14.1,2.2"/>
	<path fill="none" stroke="#000000" stroke-width="2" stroke-miterlimit="10" d="M196.1,205.9l-1.1,4.9l3.8,8.5l4.2-6.4l1-4l6.5,3.7
		c0,0,5.3,9.9,7.5,13.9"/>
	<polyline fill="none" stroke="#000000" stroke-width="2" stroke-miterlimit="10" points="195,208.4 185.2,207.2 172.8,228.5 
		185.8,233.3 189.8,222.8 	"/>
	<path fill="none" stroke="#000000" stroke-width="2" stroke-miterlimit="10" d="M176.7,229.9l-2.4,4.6l24.2,23.3c0,0,7.5-3,12.5-5"
		/>
	<path fill="none" stroke="#000000" stroke-width="2" stroke-miterlimit="10" d="M185.8,233.3c0,0,8.5,8.1,11.5,11"/>
	
		<ellipse transform="matrix(0.2113 -0.9774 0.9774 0.2113 -23.9968 410.7619)" fill="none" stroke="#000000" stroke-width="2" stroke-miterlimit="10" cx="242.5" cy="220.2" rx="10.5" ry="9.4"/>
	<path fill="none" stroke="#000000" stroke-width="2" stroke-miterlimit="10" d="M233.5,246.6c0.4-0.4,7.9-8.8,7.9-8.8l-10.1-6.2
		l-3.2,6.1L233.5,246.6z"/>
	<line fill="none" stroke="#000000" stroke-width="2" stroke-miterlimit="10" x1="230.3" y1="233.3" x2="234.4" y2="236.9"/>
	<line fill="none" stroke="#000000" stroke-width="2" stroke-miterlimit="10" x1="229.2" y1="235.5" x2="232.4" y2="239.1"/>
	<path fill="none" stroke="#000000" stroke-width="2" stroke-miterlimit="10" d="M245.7,229.9c0,0-2.2,3-5.8,6.7"/>
	<path fill="none" stroke="#000000" stroke-width="2" stroke-miterlimit="10" d="M232.4,243.5c-9.3,7.5-22,13.6-33.4,4.8
		c0,0-10.1-10.9,22.5-23.6c0,0,9.5-3.9,11.6-4.5"/>
	<polyline fill="none" stroke="#000000" stroke-width="2" stroke-miterlimit="10" points="185.6,245.3 185.6,252.7 173.4,274.8 	"/>
	<line fill="none" stroke="#000000" stroke-width="2" stroke-miterlimit="10" x1="213.7" y1="252.5" x2="225.7" y2="287.6"/>
	<path fill="none" stroke="#000000" stroke-width="2" stroke-miterlimit="10" d="M185.6,252.7c0,0,5.9,2,10.7,3"/>
</g>
<g id="Layer_3">
	<path opacity="0" fill="none" stroke="#000000" stroke-width="9" stroke-miterlimit="10" d="M244,214.3c3.7,0,7.3,0,11,0
		c-4.3,0.5-8.7,1.1-12.7,2.9c5,0.6,10,0.7,15,0.3c-5.1,0.5-10.3,0.9-15.4,1.4c0.6,0.7,1.6,0.7,2.5,0.7c3.3,0,6.6,0,10,0.1
		c-5.5,0-10.9,0.4-16.3,1.1c5.7,1.3,11.5,2.1,17.3,2.2c-5.7,0-11.5,0-17.2,0c-0.3,0-0.7,0-0.9,0.2c-0.3,0.2-0.4,0.6-0.1,0.8
		c6.2,0.3,12.5,0.5,18.7,0.3c-7.7,0.5-15.4,1-23,1.6c-0.6,0-1.5,0.7-1,1.1c9.4,0.1,18.8,0.1,28.2,0c-7.9,0.9-15.7,1.8-23.6,2.8"/>
</g>
</svg>
