<?xml version="1.0" encoding="utf-8"?>
<!-- Generator: Adobe Illustrator 19.2.1, SVG Export Plug-In . SVG Version: 6.00 Build 0)  -->
<svg version="1.0" xmlns="http://www.w3.org/2000/svg" xmlns:xlink="http://www.w3.org/1999/xlink" x="0px" y="0px" width="432px"
	 height="432px" viewBox="0 0 432 432" enable-background="new 0 0 432 432" xml:space="preserve">
<g id="Layer_2">
	<path fill="#27AAE1" d="M216.2,159.7c0,0-21.6,29-7.5,46.5c0,0-11-7.1-10.3-18.8s6.3-20.2,6.3-20.2S210.2,160.2,216.2,159.7z"/>
	<g>
		<path fill="#27AAE1" d="M164,267c1.9,2,5.7,4.3,7.2,7.2c1-21.7,21.2-68.2,21.2-68.2l-4.1-1.8l-11.2,19.8c0,0-8.8,25.6-13.4,42.9
			C163.9,266.9,164,266.9,164,267z"/>
	</g>
</g>
<g id="Layer_1">
	<circle fill="none" stroke="#000000" stroke-width="2" stroke-miterlimit="10" cx="215.7" cy="215.8" r="72.3"/>
	
		<ellipse transform="matrix(0.1834 -0.983 0.983 0.1834 -4.3517 359.9947)" fill="none" stroke="#000000" stroke-width="2" stroke-miterlimit="10" cx="214.5" cy="182.6" rx="24" ry="15.6"/>
	<path fill="none" stroke="#000000" stroke-width="2" stroke-miterlimit="10" d="M229.7,164.6c0,0-18.2-0.3-22.9-3.7"/>
	<path fill="none" stroke="#000000" stroke-width="2" stroke-miterlimit="10" d="M231.6,167.9c0,0-17.4,3.1-26.9-3.4"/>
	<path fill="none" stroke="#000000" stroke-width="2" stroke-miterlimit="10" d="M232.4,171.9c0,0-22.3,3.4-30.4-4"/>
	<path fill="none" stroke="#000000" stroke-width="2" stroke-miterlimit="10" d="M206.8,259.3c-2.2,11.6-4.3,22.3-5.2,26.9"/>
	<path fill="none" stroke="#000000" stroke-width="2" stroke-miterlimit="10" d="M164.2,265.9c3.1-15.5,10.2-42.8,23.6-62
		c0,0,18.8,7.1,26.8,15.4c0,0-2.1,11-4.7,24.2"/>
	<polyline fill="none" stroke="#000000" stroke-width="2" stroke-miterlimit="10" points="202.5,202.4 199.3,209 207.3,213.6 
		210.1,206.3 	"/>
	<path fill="none" stroke="#000000" stroke-width="2" stroke-miterlimit="10" d="M202,219.2c0,0,5.9,22.5,10.5,28
		c0,0,12.4-3.4,21.9-16.8l5.1,2.8c0,0-6.9,29.4-37.5,27c0,0-12.9-15.4-13.7-32"/>
	<line fill="none" stroke="#000000" stroke-width="2" stroke-miterlimit="10" x1="212.4" y1="247.2" x2="202" y2="260.2"/>
	<path fill="none" stroke="#000000" stroke-width="2" stroke-miterlimit="10" d="M234.3,230.4l-1-11.3l2.8-1.6l3.9-12l4.1,1.4
		c0,0,1.8,8.9,1.4,13.5s-6.1,12.2-6.1,12.2"/>
	<path fill="none" stroke="#000000" stroke-width="2" stroke-miterlimit="10" d="M239.5,205.5h-3.7l-4,9.6H229v13.2
		c0,0-7.6,11.5-17.5,10.8"/>
	<line fill="none" stroke="#000000" stroke-width="2" stroke-miterlimit="10" x1="229.9" y1="228.8" x2="233.3" y2="230.8"/>
</g>
<g id="Layer_3">
	<path opacity="0" fill="none" stroke="#27AAE1" stroke-width="10" stroke-miterlimit="10" d="M206,158.2c5.9-0.7,11.9-0.3,17.6,1.2
		c-8.2,0.6-16.3,1.2-24.5,1.8c6.2,0,12.4,0.2,18.5,0.6c-6.4,1-12.8,2-19.2,3c6.2,0.1,12.5,0.2,18.7,0.4c-6.6,1.4-13.1,2.8-19.7,4.2
		c5.9,0.1,11.9,0.2,17.8,0.4c-8.9,1.1-17.7,2.6-26.4,4.4c7.4-0.1,14.8-0.2,22.2-0.2c-6,1.4-11.9,2.8-17.9,4.1
		c5.8,0.2,11.6,0.3,17.4,0.5c-6.9,1.5-13.9,2.6-20.9,3.4c6.2,0.3,12.5,0.5,18.4,2.2c-7.8,0.8-15.7,1.6-23.5,2.4
		c8.3,1.5,16.6,2.9,24.8,4.4c-7.2,0.5-14.4,1-21.7,1.5c6.9,3.9,16,1.9,22.8,5.9c-6.5,0.5-13.1,0.5-19.6,0.1c6.5,2.7,13,5.3,19.5,8
		c-11.8-1.2-23.5-2.3-35.3-3.5c5.9,2.5,11.7,4.9,17.6,7.4c-6.4,0.2-12.8,0.4-19.3,0.5c5.8,1.7,11.7,3.4,17.5,5
		c-5,0.2-10.1,0.3-15.1,0.5c-1.3,0-2.9,0.2-3.7,1.3c5.8,0.4,11.6,0.9,17.3,1.3c-6.3,0.6-12.8,1.3-18.7,3.9
		c8.1-0.6,16.2-0.5,24.3,0.3c-3.2,0.3-6.4,0.6-9.6,0.9c-7,0.7-14,1.4-20.8,3.2c5.5-0.1,11-0.1,16.6-0.2c-6.8,0.9-13.8,1.9-19.8,5.2
		c10.3-0.2,20.6-0.2,30.9,0.1c-10.2,2.6-20.5,5.1-30.7,7.7c6.6-0.5,13.3-1,19.9-1.5c-6.4,0.6-12.7,3.1-17.8,7.1
		c9.3-0.3,18.5-1.4,27.7-3c-8.8,3.9-19.8,2.2-27.3,8.2c10.2-1.1,20.4-2.1,30.6-3.2c-8.8,1.9-17.5,3.9-26.3,5.8
		c-2.8,0.6-6,1.6-6.9,4.2c8.3-2.1,16.8-3.5,25.4-4.1c-9.4,2.4-18.9,4.8-26.9,10.2c7.9-0.6,15.6-2.8,23.3-5
		c-8.2,1.8-16.2,4.7-23.8,8.4c8.4,0,16.9-0.1,25.3-0.1c-7.3,1.9-14.6,4-21.8,6.3c-2,0.7-4.2,1.4-5.5,3.1c7.4-1.5,14.7-3.1,22-4.8"/>
</g>
</svg>
