<?xml version="1.0" encoding="utf-8"?>
<!-- Generator: Adobe Illustrator 19.2.1, SVG Export Plug-In . SVG Version: 6.00 Build 0)  -->
<svg version="1.0" xmlns="http://www.w3.org/2000/svg" xmlns:xlink="http://www.w3.org/1999/xlink" x="0px" y="0px" width="432px"
	 height="432px" viewBox="0 0 432 432" enable-background="new 0 0 432 432" xml:space="preserve">
<g id="Layer_2">
	<path fill="#27AAE1" d="M191.6,120.1c0,0-23.5,15.8-13.1,35.8c0,0-12-6.7-4.8-21.3S189.2,119.4,191.6,120.1z"/>
	<polygon fill="#27AAE1" points="175.3,154.6 173.4,160.2 169.5,158.1 173.8,151.2 	"/>
	<path fill="#27AAE1" d="M163,165.7c-0.5,2-6.1,21.6-6.1,21.6l-2.1-1.5c0,0-1.3-8.3-0.8-8.3s5.8-11.3,5.8-11.3L163,165.7z"/>
	<polygon fill="#27AAE1" points="149.7,198.9 147.8,208.5 161.7,214.1 140.9,210.7 146.7,196.8 	"/>
	<polygon fill="#27AAE1" points="153.9,213.1 145.9,298 160.4,307 149.7,313.7 139.1,298.8 140.9,210.7 	"/>
	<path fill="#27AAE1" d="M164,215.3l18.2,83.9l17.9,8.4c0,0-10.9,6.9-11,6.1c-0.2-0.8-11.7-14.8-11.7-14.8l-21.5-85.7L164,215.3z"/>
</g>
<g id="Layer_1">
	
		<ellipse transform="matrix(0.4031 -0.9152 0.9152 0.4031 -15.3805 252.9983)" fill="none" stroke="#000000" stroke-width="2" stroke-miterlimit="10" cx="186.3" cy="138.3" rx="19.2" ry="13"/>
	<path fill="none" stroke="#000000" stroke-width="2" stroke-miterlimit="10" d="M182.8,120.1c0,0,9.7,5.5,17.7,5"/>
	<path fill="none" stroke="#000000" stroke-width="2" stroke-miterlimit="10" d="M179.9,122.4c0,0,10.8,8.4,21.6,6.8"/>
	<path fill="none" stroke="#000000" stroke-width="2" stroke-miterlimit="10" d="M177.3,125c0,0,16.5,11.1,25.5,8.8"/>
	<polyline fill="none" stroke="#000000" stroke-width="2" stroke-miterlimit="10" points="165.5,155.1 144.8,163.8 146.9,183.9 
		143.9,186.1 143.9,194.3 152.2,199.8 156.2,192.5 158.7,193.7 160.2,189.6 154.7,185.8 153.9,168.2 165.6,164.9 	"/>
	<path fill="none" stroke="#000000" stroke-width="2" stroke-miterlimit="10" d="M164,155.9c0.4-0.9,0.6-1.4,0.6-1.4
		c1.8,0.8,18.1,11.9,18.1,11.9s-6.4,22.2-10.5,36.7"/>
	<path fill="none" stroke="#000000" stroke-width="2" stroke-miterlimit="10" d="M170.7,208.2c-1.2,4.3-2,7.1-2,7.1l-27.8-4.6
		c0,0,2.5-5.9,5.8-13.9"/>
	<path fill="none" stroke="#000000" stroke-width="2" stroke-miterlimit="10" d="M154.4,178.6c1.9-4.4,3.7-8.7,5.2-12.4"/>
	<path fill="none" stroke="#000000" stroke-width="2" stroke-miterlimit="10" d="M173.8,151.2c-0.3,0.8-3.3,6.9-3.3,6.9"/>
	<line fill="none" stroke="#000000" stroke-width="2" stroke-miterlimit="10" x1="180.5" y1="156.4" x2="178.1" y2="163.1"/>
	<line fill="none" stroke="#000000" stroke-width="2" stroke-miterlimit="10" x1="180" y1="175.9" x2="187.8" y2="210.7"/>
	<polygon fill="none" stroke="#000000" stroke-width="2" stroke-miterlimit="10" points="191.1,212.7 185.4,209.3 180.5,218.9 
		189.9,224.3 	"/>
	<path fill="none" stroke="#000000" stroke-width="2" stroke-miterlimit="10" d="M190.9,216.1c28.3,19.7,56.7,39.4,56.7,39.4
		l-3.7,2.3c0,0-26.3-18-53.4-36.4"/>
	<path fill="none" stroke="#000000" stroke-width="2" stroke-miterlimit="10" d="M182.2,215.7c-10.2-6.9-20-13.7-28.3-19.3"/>
	<path fill="none" stroke="#000000" stroke-width="2" stroke-miterlimit="10" d="M144,189.6c-7.2-4.9-11.7-8-11.7-8l2-5
		c0,0,4.5,3.1,11.6,8.1"/>
	<path fill="none" stroke="#000000" stroke-width="2" stroke-miterlimit="10" d="M158.7,193.7c7.7,5.4,16.7,11.6,25.8,18"/>
	<path fill="none" stroke="#000000" stroke-width="2" stroke-miterlimit="10" d="M176.1,189.4c-0.3,1,3.9,19.1,3.9,19.1"/>
	<polygon fill="none" stroke="#000000" stroke-width="2" stroke-miterlimit="10" points="265.9,247.4 227.1,267.3 230.7,275.6 
		233.4,274.3 231.4,268.2 239.5,264.3 242.9,271.2 245.4,270.2 242.7,262.3 249.1,259 253.7,267 256.2,265.6 252.7,257.8 
		259.9,254.2 264.5,262.3 265.9,261.5 262.7,252.4 269.1,249.2 273.9,256.7 276,255.2 271.5,244.5 	"/>
	<polyline fill="none" stroke="#000000" stroke-width="2" stroke-miterlimit="10" points="140.9,210.7 139.1,297.7 145.4,297.7 
		153.9,212.8 	"/>
	<polyline fill="none" stroke="#000000" stroke-width="2" stroke-miterlimit="10" points="155.2,213.1 177.3,297.7 183.9,297.7 
		168.7,215.3 	"/>
	<polyline fill="none" stroke="#000000" stroke-width="2" stroke-miterlimit="10" points="139.1,297.7 150.1,310.3 160.4,305.2 
		145.4,297.7 	"/>
	<polyline fill="none" stroke="#000000" stroke-width="2" stroke-miterlimit="10" points="177.3,297.7 192.9,311.3 204.4,305.4 
		184.5,297.7 	"/>
	<line fill="none" stroke="#000000" stroke-width="2" stroke-miterlimit="10" x1="144.8" y1="163.8" x2="153.9" y2="168.2"/>
	<path fill="none" stroke="#000000" stroke-width="2" stroke-miterlimit="10" d="M217.1,290.7c0.2-0.5,1.5-3.2,2-3.5s1.2,0.3,2.7,0
		s1.8-1.2,3.3-0.1s2.5,1.5,2.5,1.5s6.5-2.6,7.1-2.9s4.1-0.9,4.1-0.9l1.4,1c0,0,4,2,4.3,1.9s0.2,0.6,1,0s3.4-1.9,3.4-1.9
		s0.3-0.8,1.9-1s3.3-0.6,3.3-0.6s1.2-0.4,2.8,0c1.5,0.4,2.6,0.6,2.6,0.6s2.2,2.8,3.1,2.5c0.9-0.3,4.4-2.2,4.4-2.2s1.4,0.2,2.5-0.1
		s1.5-1.5,1.9-1.6s1.8-0.8,2.5-0.8s2.2-0.1,3.7,0c1.5,0.1,3.4,0,4.3,0.8s2.6,1.8,2.6,1.8s0.2,0.2,1.6,0.7c1.3,0.5-0.3,0.4,2.1,0.8
		s2.6-0.5,3.5,0s3.3,0.7,3.3,0.7l3.2,0.8l2,1.8"/>
	<line fill="none" stroke="#000000" stroke-width="2" stroke-miterlimit="10" x1="226.3" y1="292.5" x2="229.9" y2="291.9"/>
	<path fill="none" stroke="#000000" stroke-width="2" stroke-miterlimit="10" d="M229.9,295.8c0.4-0.1,2.2-1.8,2.6-1.8"/>
	<path fill="none" stroke="#000000" stroke-width="2" stroke-miterlimit="10" d="M250.9,289.9c0,0,2.3,0.9,3.1,2.6"/>
	<path fill="none" stroke="#000000" stroke-width="2" stroke-miterlimit="10" d="M267.7,293.1c0,0,2.9,1.2,4.3-0.9"/>
	<line fill="none" stroke="#000000" stroke-width="2" stroke-miterlimit="10" x1="278.1" y1="286.6" x2="281.1" y2="288.3"/>
	<line fill="none" stroke="#000000" stroke-width="2" stroke-miterlimit="10" x1="286" y1="290.7" x2="288.4" y2="290.7"/>
</g>
<g id="Layer_3">
	<path opacity="0" fill="none" stroke="#27AAE1" stroke-width="20" stroke-miterlimit="10" d="M183.8,118.5c2.5,0.5,5.1,1.1,7.6,1.6
		c-3.7-0.1-7.4-0.1-11.1-0.2c3.4,1.2,6.9,2.4,10.3,3.7c-5.7,0.3-11.5,0.6-17.2,1c3.3,1.9,6.9,3.1,10.6,3.7
		c-4.5-0.2-9.1,0.3-13.5,1.5c4.2,0.7,8.3,1.4,12.5,2c-4.8,0.4-9.5,1.2-14.1,2.5c3.4,0.7,6.8,1.4,10.2,2.1c-3.9,0.9-7.7,2-11.4,3.5
		c4.1,0.8,8.2,1.6,12.3,2.5c-4.5,0.1-9,0.3-13.5,0.4c4.9,1,9.7,2.3,14.4,4.1c-5.1,0.2-10.1,0.5-15.2,0.7c4.8,2.1,9.7,4.1,14.5,6.2
		c-4.9-1.5-10.1-2.3-15.2-2.4c3.6,2.7,7.8,4.6,12.2,5.5c-2.7-0.2-5.5-0.3-8.2-0.5c1.9,1.4,3.9,2.7,5.8,4.1
		c-5.6,1.2-11.3,2.3-16.9,3.5c3.1,0.4,6.3,0.7,9.4,1.1c-5.1,0.3-10.1,1.1-15,2.4c3.8,0.4,7.5,0.9,11.3,1.3c-4.8,1.7-9.5,3.8-14,6.2
		c5.5,0.1,11.1-0.3,16.5-1.1c-7.7,1-15.1,3.4-21.9,7c6.3,0.7,12.7,0.7,19.1-0.1c-8.2,2.1-16.1,5.5-23.2,10
		c5.9-0.8,11.9-1.6,17.8-2.4c-5.1,2.7-10.2,5.5-15.3,8.2c5.5-1.5,10.9-3,16.4-4.4c-8.8,4.7-17.4,9.7-25.8,15.1
		c8.6-1.5,17.2-2.9,25.8-4.4c-8.6,2.7-17.1,5.4-25.7,8.1c11.6-0.3,23.3-0.6,34.9-1c-11.5,2.7-23.3,4.4-35.1,5
		c14.5-1.4,29-1.9,43.6-1.3c-13.9,2.4-28.1,3.8-42.2,3.9c15.8,1.2,31.6,2.3,47.4,3.5c-7.8,0.5-15.7,1-23.5,1.5
		c-10.3,0.7-20.7,1.3-30.6,4.1c12.7-0.7,25.4-1.3,38.1-2c-14.2,0.4-28.3,1.6-42.3,3.5c14.7,2.4,29.5,3.7,44.4,4.1
		c-16.5,3.6-34.4-0.8-50.3,4.8c19.4,1.1,38.9,0.8,58.3-0.8c-14.9,0.9-29.7,2.9-44.2,5.9c15.8,1.4,31.7,1.5,47.6,0.4
		c-17.2,0.7-34.3,2-51.4,3.8c14.8,1.4,29.6,1.6,44.4,0.6c-12.1,0.5-24.1,2.4-35.7,5.5c16.9-0.2,33.8-0.4,50.7-0.6
		c-20.8,1.8-41.5,3.7-62.3,5.5c17.2,2.5,34.8,0.6,52-1.4c-13.5,3.4-26.9,7.4-40,11.9c15.9,0.3,31.9-1.1,47.6-3.9
		c-23.3,0-46.5,2.7-69.2,7.9c21.8,0.3,43.5-2,65.1-4.3c-12.9,1.1-25.7,3.8-37.9,7.9c11.6,0.1,23.3-0.7,34.7-2.5
		c-17.5,2-34.9,4.9-52.1,8.7c-1.2,0.3-2.7,1.2-2.1,2.3c20.2,3.3,41.2,2.1,60.9-3.6c-15.4,1.7-30.8,3.5-46.2,5.2
		c19.1-0.6,38.3-1.2,57.4-1.8c-21.2,1.9-42.4,4-63.6,6.2c17.9,1.2,35.9,1.1,53.8-0.4c-19.3,0.9-38.5,3.5-57.3,7.8
		c24.7-0.8,49.5-1.6,74.2-2.4c-14.7,1.4-29.5,2.7-44.2,4.1c-6.1,0.6-12.5,1.2-17.6,4.5c15.2-0.8,30.3-1.5,45.5-2.3
		c-18.3,0.3-36.7,0.6-54.6,3.9c25.1,0.6,50.3,0.1,75.4-1.4c-17.1,1.8-34.3,3.4-51.4,4.9c15.7-1.7,31.4-2.7,47.2-3
		c-10.8,1.7-21.6,3.4-32.4,5.1c12.7,0.4,25.4-0.7,37.7-3.3c-12.3,2-24.8,2.7-37.3,3.1c0.8,0.1,1.5,0.3,2.3,0.4
		c-9.1,0.3-18.3,0.7-27.4,1c16.7,4.3,34.5,4.6,51.3,0.7"/>
</g>
</svg>
