<?xml version="1.0" encoding="utf-8"?>
<!-- Generator: Adobe Illustrator 19.2.1, SVG Export Plug-In . SVG Version: 6.00 Build 0)  -->
<svg version="1.0" xmlns="http://www.w3.org/2000/svg" xmlns:xlink="http://www.w3.org/1999/xlink" x="0px" y="0px" width="432px"
	 height="432px" viewBox="0 0 432 432" enable-background="new 0 0 432 432" xml:space="preserve">
<g id="Layer_2">
	<path fill="#27AAE1" d="M187.2,189.9c0,0-1.8,23.3,7.5,26.2c0,0-11.1,0.6-12.3-7.7C181.3,200.1,182.1,193,187.2,189.9z"/>
	<path fill="#27AAE1" d="M199.6,243.5c0.5-0.1,8.1,18.8,8.8,18.3s8.7-6.1,9-5c0.2,1.1,1.6,4.8,1.1,5.1s-10.8,5.2-10.8,5.2
		l-11.1-21.8l-11.9-0.3v-8.2l-0.4-3.5h-2.9l2.3-13.6l4.4-0.5l-2.9,13.3l0.4,5.1l10.7,4.4l2.1,1.6L199.6,243.5z"/>
</g>
<g id="Layer_1">
	<circle fill="none" stroke="#000000" stroke-width="2" stroke-miterlimit="10" cx="215.8" cy="216.1" r="72.3"/>
	
		<ellipse transform="matrix(0.9953 -9.668133e-02 9.668133e-02 0.9953 -18.6913 19.4889)" fill="none" stroke="#000000" stroke-width="2" stroke-miterlimit="10" cx="191.8" cy="202.6" rx="10.5" ry="13.8"/>
	<line fill="none" stroke="#000000" stroke-width="2" stroke-miterlimit="10" x1="189.4" y1="215.9" x2="189.4" y2="219.3"/>
	<path fill="none" stroke="#000000" stroke-width="2" stroke-miterlimit="10" d="M196.8,215.6c0,0.4,0,3.1,0,3.1"/>
	<path fill="none" stroke="#000000" stroke-width="2" stroke-miterlimit="10" d="M182.8,192.5c0,0,8.2,0.7,13.7-3.3"/>
	<path fill="none" stroke="#000000" stroke-width="2" stroke-miterlimit="10" d="M181.3,194.3c0,0,7.3,4.3,17-3.5"/>
	<polyline fill="none" stroke="#000000" stroke-width="2" stroke-miterlimit="10" points="203.7,242.8 200.2,218.1 183.6,219.8 
		181.8,232.6 	"/>
	<path fill="none" stroke="#000000" stroke-width="2" stroke-miterlimit="10" d="M174.8,275.9c1.2-6.5,5.7-30.5,5.7-30.5h16.8"/>
	<line fill="none" stroke="#000000" stroke-width="2" stroke-miterlimit="10" x1="199.5" y1="286.4" x2="199.5" y2="256.7"/>
	<path fill="none" stroke="#000000" stroke-width="2" stroke-miterlimit="10" d="M199.5,265.8c0,0,3.5,0,7.8,0"/>
	<path fill="none" stroke="#000000" stroke-width="2" stroke-miterlimit="10" d="M210.5,265.8c5.9,0,12,0,12,0"/>
	<path fill="none" stroke="#000000" stroke-width="2" stroke-miterlimit="10" d="M248.4,280.6c0.1-0.1-5.5-29.7-6.4-34.4"/>
	<path fill="none" stroke="#000000" stroke-width="2" stroke-miterlimit="10" d="M227.9,245.3c-2.5,0-4.3,0-4.3,0l-3.5,8.3"/>
	<line fill="none" stroke="#000000" stroke-width="2" stroke-miterlimit="10" x1="222.8" y1="288.4" x2="222.8" y2="256.7"/>
	<ellipse fill="none" stroke="#000000" stroke-width="2" stroke-miterlimit="10" cx="216.3" cy="169.9" rx="14.3" ry="19.9"/>
	<line fill="none" stroke="#000000" stroke-width="2" stroke-miterlimit="10" x1="211" y1="188.8" x2="210.2" y2="192.8"/>
	<line fill="none" stroke="#000000" stroke-width="2" stroke-miterlimit="10" x1="222.5" y1="187.9" x2="223.7" y2="192.2"/>
	<polygon fill="none" stroke="#000000" stroke-width="2" stroke-miterlimit="10" points="209.5,192.2 216.3,195.8 225.6,190.8 
		227,195.8 223.7,204 216.3,197.4 210.6,204 207.6,195 	"/>
	<polyline fill="none" stroke="#000000" stroke-width="2" stroke-miterlimit="10" points="214,200.1 215.4,203.4 218.2,203.4 
		219.3,200.1 	"/>
	<path fill="none" stroke="#000000" stroke-width="2" stroke-miterlimit="10" d="M215.5,203.6l-4.8,25.7c0,0,5.6,18.2,5.7,17.3
		c0-0.4,7.6-17.3,7.6-17.3l-5.7-26"/>
	<line fill="none" stroke="#000000" stroke-width="2" stroke-miterlimit="10" x1="208.4" y1="193.9" x2="200.6" y2="195.6"/>
	<polyline fill="none" stroke="#000000" stroke-width="2" stroke-miterlimit="10" points="181.3,200.1 178.1,201.7 167.8,235.4 
		170.5,238.6 	"/>
	<path fill="none" stroke="#000000" stroke-width="2" stroke-miterlimit="10" d="M184.2,245.3v-12l-12.6-0.8c0,0-2,9.9-2,11l10.6,3"
		/>
	<path fill="none" stroke="#000000" stroke-width="2" stroke-miterlimit="10" d="M176.9,237.2c0.3,0.1,6.7,1.3,6.7,1.3"/>
	<line fill="none" stroke="#000000" stroke-width="2" stroke-miterlimit="10" x1="176.2" y1="241.5" x2="183.6" y2="242.8"/>
	<path fill="none" stroke="#000000" stroke-width="2" stroke-miterlimit="10" d="M184.6,242.8c0,0,7.6,0.4,11.4-0.3"/>
	<polyline fill="none" stroke="#000000" stroke-width="2" stroke-miterlimit="10" points="203.1,239.6 211.9,259.9 217.3,256.8 
		218.4,261.9 207.6,267.1 196.5,245.3 	"/>
	<polyline fill="none" stroke="#000000" stroke-width="2" stroke-miterlimit="10" points="203.7,240.2 208.4,238.6 214,255 
		219.9,252 220.9,258 218.4,259.5 	"/>
	<polyline fill="none" stroke="#000000" stroke-width="2" stroke-miterlimit="10" points="191.5,224.5 189.4,234.2 198.7,237.9 
		196.3,242.2 184.2,237.2 	"/>
	<line fill="none" stroke="#000000" stroke-width="2" stroke-miterlimit="10" x1="184.2" y1="237.2" x2="186.8" y2="224"/>
	<polyline fill="none" stroke="#000000" stroke-width="2" stroke-miterlimit="10" points="198.7,237.9 202.9,237.9 202.9,242.8 
		196.8,244.1 196.3,242.2 	"/>
	<polyline fill="none" stroke="#000000" stroke-width="2" stroke-miterlimit="10" points="226.2,192.8 245.5,198.5 252.8,231.5 
		242.6,242.8 	"/>
	<polygon fill="none" stroke="#000000" stroke-width="2" stroke-miterlimit="10" points="241.2,250.5 243.2,239.6 227,239.6 
		228.5,250.5 	"/>
	<path fill="none" stroke="#000000" stroke-width="2" stroke-miterlimit="10" d="M230.7,239.6c0.5-1.1,8.8-11.1,8.8-11.1l-4.4-21.7"
		/>
	<line fill="none" stroke="#000000" stroke-width="2" stroke-miterlimit="10" x1="232" y1="250.5" x2="231.4" y2="244.1"/>
	<line fill="none" stroke="#000000" stroke-width="2" stroke-miterlimit="10" x1="235.1" y1="250.5" x2="235.1" y2="243.8"/>
	<line fill="none" stroke="#000000" stroke-width="2" stroke-miterlimit="10" x1="237.9" y1="250.5" x2="238.8" y2="243.8"/>
</g>
<g id="Layer_3">
	<path opacity="0" fill="none" stroke="#27AAE1" stroke-width="8" stroke-miterlimit="10" d="M181.9,190.4c2.9-0.3,5.9-0.4,8.8-0.2
		c-3.8,2.7-8,4.8-12.5,6.2c3.9-0.5,7.9-0.8,11.9-0.8c-4,2.3-8.2,4.3-12.6,5.8c4.9-0.5,9.9-0.8,14.8-0.7c-5,2.1-10.1,4.1-15.1,6.2
		c4.8-0.2,9.6-0.4,14.4-0.6c-4.4,1.2-8.7,2.8-12.8,4.7c5,0,9.9-0.2,14.9-0.6c-4,1.1-7.8,2.7-11.4,4.8c4.1-0.3,8.1-0.6,12.2-0.9
		c-6.1,2.4-12.3,4.7-17.6,8.6c4.5-0.7,8.9-1.6,13.4-2.7c-4.5,2.2-9,4.5-12.8,7.8c5.5-1.2,11-2.5,16.5-3.7
		c-6.4,1.8-12.4,5.1-17.5,9.4c7-1.8,14.1-3.5,21.3-4.2c-7,3.6-14,7.2-20.4,11.7c7.3-1.2,14.6-2.4,21.8-3.6
		c-6.8,2.9-13.7,5.8-20.2,9.2c0.9,0.4,2,0.2,3-0.1c5.9-1.4,11.7-2.9,17.6-4.3c-4.2,2.8-8.4,5.6-12.6,8.4c7-1.7,14.1-3.4,21.1-5.1
		c-5.7,2.8-10.8,6.5-15.9,10.2c5.8-1.6,11.7-3,17.7-4.1c-4.9,3.3-9.8,6.7-14.7,10c5-1.5,10.1-3,15.1-4.4c-4.6,2.5-8.9,5.6-12.9,9.1
		c6.3-2.2,12.5-4.3,18.8-6.5c-4,2.1-7.9,4.5-11.5,7.2c5-2.5,10.1-4.6,15.3-6.4c-0.4,0.5-0.5,1.2-0.2,1.8c0.7-0.4,1.4-0.7,2.1-1.1"/>
</g>
</svg>
