<?xml version="1.0" encoding="utf-8"?>
<!-- Generator: Adobe Illustrator 19.2.1, SVG Export Plug-In . SVG Version: 6.00 Build 0)  -->
<svg version="1.0" xmlns="http://www.w3.org/2000/svg" xmlns:xlink="http://www.w3.org/1999/xlink" x="0px" y="0px" width="432px"
	 height="432px" viewBox="0 0 432 432" enable-background="new 0 0 432 432" xml:space="preserve">
<g id="Layer_2">
	<path fill="#27AAE1" d="M190.3,162.6c0,0-12.5,23.2,2.5,38.3c0,0-12.3-2.5-12.5-19.2S190.3,162.6,190.3,162.6z"/>
	<path fill="#27AAE1" d="M170.7,231.5c-1-0.4-1.7-1.3-1.4-2.4c0.3-0.9,1.4-1.7,2.4-1.4c0.4,0.2,0.8,0.3,1.2,0.5l3.2-5.2l-1.4-6.8
		L164.1,233l3.7,3.5l3.1-5C170.8,231.6,170.8,231.5,170.7,231.5z"/>
	<path fill="#27AAE1" d="M182.2,229.1c0.3,0,0.5,0,0.8,0l-1.6-22.3l-6.6,0.9l1.6,21.6C178.3,229.2,180.3,229.2,182.2,229.1z"/>
	<path fill="#27AAE1" d="M182.5,280.8c0.3,0.3,0.7,0.5,1.1,0.7c0.1,0,0.1,0.1,0.2,0.1c0.3,0.1,0.5,0.2,0.8,0.3
		c0.2,0.1,0.4,0.2,0.6,0.2c1,0.3,1.6,0.9,2.1,1.6v-13.4l16.6-0.4l-18.4-4.3l-0.5-7c-1.1,0.3-2.4,0.4-3.6,0.5c-1.1,0-2.1-0.1-2.9-0.3
		l1.4,21.5C180.7,280.1,181.6,280.3,182.5,280.8z"/>
	<path fill="#27AAE1" d="M200.2,287.3c0.9,0.1,1.8,0.2,2.6,0.3c0.2,0,0.4,0,0.6,0.1l-1.1-17.4h-5.1l1.6,16.8
		C199.2,287.2,199.7,287.2,200.2,287.3z"/>
</g>
<g id="Layer_1">
	<circle fill="none" stroke="#000000" stroke-width="2" stroke-miterlimit="10" cx="215.6" cy="216.4" r="72.3"/>
	<ellipse fill="none" stroke="#000000" stroke-width="2" stroke-miterlimit="10" cx="192.8" cy="181.8" rx="12.5" ry="19.2"/>
	<path fill="none" stroke="#000000" stroke-width="2" stroke-miterlimit="10" d="M183.9,165.1c0,0,7.5,1.8,16-0.7"/>
	<path fill="none" stroke="#000000" stroke-width="2" stroke-miterlimit="10" d="M181.8,168.4c0,0,8.2,2.5,21-0.8"/>
	<path fill="none" stroke="#000000" stroke-width="2" stroke-miterlimit="10" d="M180.3,172.1c0,0,17.8,2.3,24.2-2"/>
	<path fill="none" stroke="#000000" stroke-width="2" stroke-miterlimit="10" d="M209.4,226.4c0-10.8,0-19.5,0-19.5
		c-12.8-2.2-34.7,0.8-34.7,0.8s0.8,9.4,1.9,20.7"/>
	<path fill="none" stroke="#000000" stroke-width="2" stroke-miterlimit="10" d="M179.4,258.5c0.6,6.1,0.9,10.3,0.9,10.3
		s17.7,3.5,29.2,0c0,0,0-5.1,0-12.4"/>
	<polyline fill="none" stroke="#000000" stroke-width="2" stroke-miterlimit="10" points="188.8,199.9 188.8,206.4 197.6,206.1 
		196.8,199.9 	"/>
	<polygon fill="none" stroke="#000000" stroke-width="2" stroke-miterlimit="10" points="191.9,234.4 202.8,232.8 205.3,258.1 
		197.6,259.3 	"/>
	<path fill="none" stroke="#000000" stroke-width="2" stroke-miterlimit="10" d="M203,232.5l-3.1-2.7l21.5-8.2c0,0,0.7,8.2,1.4,16.3
		"/>
	<path fill="none" stroke="#000000" stroke-width="2" stroke-miterlimit="10" d="M223.8,248.4c0.3,3.6,0.5,6.1,0.5,6.1l-19,2.9"/>
	<path fill="none" stroke="#000000" stroke-width="2" stroke-miterlimit="10" d="M191.7,234l1.5-3.4l-23.6-3c0,0,1.6,6.9,3.2,14.1"
		/>
	<path fill="none" stroke="#000000" stroke-width="2" stroke-miterlimit="10" d="M175.8,254.4c0.5,2.3,0.9,3.7,0.9,3.7l20.5,0.3"/>
	<path fill="none" stroke="#000000" stroke-width="2" stroke-miterlimit="10" d="M174.8,207.8"/>
	<polygon fill="none" stroke="#000000" stroke-width="2" stroke-miterlimit="10" points="170.8,241.8 172.6,254.4 183.9,252.3 
		183.4,244.3 	"/>
	<path fill="none" stroke="#000000" stroke-width="2" stroke-miterlimit="10" d="M174.8,207.8c0,0-14,18.8-18.3,32.1
		c0,0,7.7,8.4,15.9,12.8"/>
	<line fill="none" stroke="#000000" stroke-width="2" stroke-miterlimit="10" x1="172" y1="242" x2="161.6" y2="228.4"/>
	<path fill="none" stroke="#000000" stroke-width="2" stroke-miterlimit="10" d="M176,221.6c0,0-1.9,2.7-3.9,6.1"/>
	<path fill="none" stroke="#000000" stroke-width="2" stroke-miterlimit="10" d="M170.2,231.3c-0.9,1.8-1.8,3.7-2.3,5.3"/>
	<polygon fill="none" stroke="#000000" stroke-width="2" stroke-miterlimit="10" points="229,249 225.8,236.6 214.8,240 
		216.2,247.9 	"/>
	<path fill="none" stroke="#000000" stroke-width="2" stroke-miterlimit="10" d="M209,206.9c0,0,17.3,13.1,22.4,24.1l-3,15.8"/>
	<line fill="none" stroke="#000000" stroke-width="2" stroke-miterlimit="10" x1="231.4" y1="230.9" x2="222.8" y2="231.4"/>
	<ellipse fill="none" stroke="#000000" stroke-width="2" stroke-miterlimit="10" cx="257.9" cy="183.4" rx="9.4" ry="14.3"/>
	<path fill="none" stroke="#000000" stroke-width="2" stroke-miterlimit="10" d="M266.4,227.4c-0.3,9.9-0.6,19-0.6,19
		s-15.3,1.4-23.2-1.7c0,0,0.7-9.1,1.4-18.9"/>
	<path fill="none" stroke="#000000" stroke-width="2" stroke-miterlimit="10" d="M244.9,213.3c0.5-6.3,0.8-11,0.8-11
		s14.5-2.3,21.6,0.9c0,0-0.2,5.6-0.4,12.8"/>
	<path fill="none" stroke="#000000" stroke-width="2" stroke-miterlimit="10" d="M267.2,203.2c0,0,9,13.5,9.4,20.9
		c0,0-6.9,5.9-17,1.6"/>
	<polyline fill="none" stroke="#000000" stroke-width="2" stroke-miterlimit="10" points="260.3,219.3 252.4,216.3 250.4,220.3 	"/>
	<path fill="none" stroke="#000000" stroke-width="2" stroke-miterlimit="10" d="M243.7,218.2c2.9,1.1,11.2,3.6,18.1,0.3l4.8,3.3
		c-13.9,11.9-32.5-0.9-32.5-0.9c1-8.5,11.5-17.7,11.5-17.7"/>
	<polyline fill="none" stroke="#000000" stroke-width="2" stroke-miterlimit="10" points="261.8,218.5 264,215 267.2,215.7 
		268.2,220.3 266.6,221.7 	"/>
	<line fill="none" stroke="#000000" stroke-width="2" stroke-miterlimit="10" x1="254.5" y1="196.7" x2="253.9" y2="201.6"/>
	<line fill="none" stroke="#000000" stroke-width="2" stroke-miterlimit="10" x1="260.3" y1="197.2" x2="260.3" y2="201.7"/>
	<polygon fill="none" stroke="#000000" stroke-width="2" stroke-miterlimit="10" points="252.2,215.7 248.5,212.8 242.6,213.7 
		243.1,218 250.4,219.9 	"/>
	<line fill="none" stroke="#000000" stroke-width="2" stroke-miterlimit="10" x1="243.1" y1="218" x2="234.7" y2="220.3"/>
	<line fill="none" stroke="#000000" stroke-width="2" stroke-miterlimit="10" x1="268.2" y1="220.3" x2="276.3" y2="223.9"/>
	<path fill="none" stroke="#000000" stroke-width="2" stroke-miterlimit="10" d="M242.6,244.7c0,0,1.1,19.5,2.1,37.8"/>
	<path fill="none" stroke="#000000" stroke-width="2" stroke-miterlimit="10" d="M251.8,279c1.1-16.4,2.1-32.3,2.1-32.3"/>
	<path fill="none" stroke="#000000" stroke-width="2" stroke-miterlimit="10" d="M180.3,268.8c0,0,0.2,4.1,0.6,10.6"/>
	<path fill="none" stroke="#000000" stroke-width="2" stroke-miterlimit="10" d="M193.4,284.8c0.6-8.7,1-14.6,1-14.6"/>
	<path fill="none" stroke="#000000" stroke-width="2" stroke-miterlimit="10" d="M197.1,270.3c0,0,0.7,6.8,1.6,16.5"/>
	<path fill="none" stroke="#000000" stroke-width="2" stroke-miterlimit="10" d="M209.4,288.2c0-11.3,0-19.4,0-19.4"/>
	<path fill="none" stroke="#000000" stroke-width="2" stroke-miterlimit="10" d="M255.3,246.7c0,0,1.3,13.4,2.7,28.2"/>
	<path fill="none" stroke="#000000" stroke-width="2" stroke-miterlimit="10" d="M265.5,269.2c0.2-12.5,0.3-22.8,0.3-22.8"/>
	<line fill="none" stroke="#000000" stroke-width="2" stroke-miterlimit="10" x1="214" y1="245" x2="212.2" y2="231.8"/>
	<line fill="none" stroke="#000000" stroke-width="2" stroke-miterlimit="10" x1="209.4" y1="235.2" x2="216" y2="233.9"/>
</g>
<g id="Layer_3">
	<path opacity="0" fill="none" stroke="#27AAE1" stroke-width="18" stroke-miterlimit="10" d="M181.6,165.1c3.5-1,7.1-1.4,10.6-1.4
		c-4.6,1.6-9.2,3.1-13.8,4.7c3.5,0,7,0,10.5-0.1c-3.6,1.5-7.1,3.1-10.5,4.9c3.2,0.1,6.5,0.2,9.7,0.3c-3.7,1.8-7.5,3.6-11.2,5.3
		c3.4-0.2,6.8-0.5,10.2-0.7c-4.3,2.9-8.8,5.2-13.6,7.1c4-0.2,8.1-0.3,12.1-0.5c-4.8,2.7-9.5,5.4-14.3,8.2c5.5-0.4,10.9-0.7,16.4-1.1
		c-3.8,2.1-7.9,3.9-12,5.2c5.3-0.7,10.6-1.4,15.8-2c-5.7,2.7-11.4,5.4-17.2,8.1c3.9-1.2,7.9-1.9,12-2.1c-5.1,3.6-10.7,6.5-16.5,8.7
		c4.4-0.5,8.8-0.7,13.2-0.7c-5.4,2.7-11,5.1-16.6,7.3c5.3-1.5,10.9-2.2,16.4-1.9c-5.5,2.1-10.9,4.8-15.9,7.9c6,0.3,11.9,0,17.8-0.8
		c-9.9,1.9-19.3,6.1-27.3,12.2c8.1-2.7,16.4-4.5,24.8-5.5c-6.4,3.7-12.4,8.2-17.8,13.2c9.6-0.9,19.3-1.7,28.9-2.6
		c-7.9,3.5-16.3,7.2-21.2,14.3c5.4-0.9,10.8-1.9,16.2-2.8c-8.9,2.9-17.2,7.7-24.1,14.1c10.1,0.1,20.2,0,30.3-0.3
		c-6.9,0.3-13.8,1.4-20.5,3.1c11.1,0,22.3-0.1,33.4-0.1c-9.8,4.8-20.9,6.3-31.7,7.7c9.1,0.3,18.2,0.5,27.3,0.8
		c-9.4-0.5-18.8,0.3-28,2.3c1,1.1,2.6,1.3,4.1,1.5c8.4,0.7,16.9,1.5,25.3,2.2c-5.4,1.1-10.8,2.2-16.2,3.3c6.7,1.9,13.5,3.1,20.5,3.5
		"/>
</g>
</svg>
