<?xml version="1.0" encoding="utf-8"?>
<!-- Generator: Adobe Illustrator 21.0.0, SVG Export Plug-In . SVG Version: 6.00 Build 0)  -->
<!DOCTYPE svg PUBLIC "-//W3C//DTD SVG 1.0//EN" "http://www.w3.org/TR/2001/REC-SVG-20010904/DTD/svg10.dtd">
<svg version="1.0" xmlns="http://www.w3.org/2000/svg" xmlns:xlink="http://www.w3.org/1999/xlink" x="0px" y="0px" width="792px"
	 height="612px" viewBox="0 0 792 612" enable-background="new 0 0 792 612" xml:space="preserve">
<g id="Color">
	<polygon fill="#FFFFFF" points="153.3,252.7 213.3,386.3 587,386.3 646,252.7 	"/>
</g>
<g id="Stroke">
	
		<path opacity="0" fill="none" stroke="#00A6FF" stroke-width="47" stroke-linecap="round" stroke-linejoin="round" stroke-miterlimit="10" d="
		M150,257.1c9.8-2.4,19.6-4.7,29.3-7.1c-10,3.9-19.2,10-26.9,17.6c20.6-4,40.7-10.9,59.4-20.5c-20,14.5-40.1,29-60.1,43.4
		c35.2-14.9,69.4-32.2,102.3-51.6c-27.5,26.2-56.8,50.5-87.6,72.7c48.6-22.3,95.7-47.9,140.9-76.6
		c-51.1,36.8-100.4,76.2-147.5,118.1c58.6-43.2,117.3-86.5,181.1-121.6c-52.7,48.5-105.5,97.1-152.3,151.2
		c46.3-35.2,92.7-70.6,142.6-100.3c29.7-17.7,61.3-33.9,84.2-59.7c-46.1,47.6-96.7,90.8-150.9,128.9c-22.3,15.7-45.5,30.7-63.5,51.1
		c42.5-16.1,85.3-32.9,122.4-59.3c22.3-15.9,42.1-35,64.6-50.4c29.1-19.9,63.4-34.3,84.7-62.4c-69.4,46.1-134.4,98.7-194,157
		c72.9-42.2,144-87.6,212.9-136.1c-17.2,27.7-44.6,47.3-70,67.7c-41.3,33.1-79.3,70.1-117.1,107c51-47.9,117.7-75.1,174.7-115.6
		c29.8-21.1,57.1-46,88.9-63.8C508.8,308.4,432.6,354.5,385,425.6c38.2-35.2,82-63.7,123.2-95.3c38.5-29.5,74.9-61.9,108.8-96.7
		c-4,9.8-11.6,17.8-19,25.5C547.4,312,496.7,364.8,446,417.6c75.7-56.5,149.7-115.3,221.8-176.4c-48.4,59.5-117.6,102-154.6,169.1
		c40.1-16.4,76.1-41.3,111.8-66.1c-20.3,18.6-38.2,39.8-53,63"/>
</g>
</svg>
