<?xml version="1.0" encoding="utf-8"?>
<!-- Generator: Adobe Illustrator 19.2.1, SVG Export Plug-In . SVG Version: 6.00 Build 0)  -->
<svg version="1.0" id="Layer_1" xmlns="http://www.w3.org/2000/svg" xmlns:xlink="http://www.w3.org/1999/xlink" x="0px" y="0px"
	 width="432px" height="432px" viewBox="0 0 432 432" enable-background="new 0 0 432 432" xml:space="preserve">
<circle fill="none" stroke="#000000" stroke-width="2" stroke-miterlimit="10" cx="215.8" cy="216.4" r="72.3"/>
<path fill="none" stroke="#000000" stroke-width="2" stroke-miterlimit="10" d="M180.7,237.2c1.7-15.9,7.1-51.4,7.1-51.4
	s6.9-11.4,29.7-12.1s30.8,16,30.8,16l-4,61.2"/>
<path fill="none" stroke="#000000" stroke-width="2" stroke-miterlimit="10" d="M224,174c0,0,16.5,2,25.8,7.5s7.5,12,7.5,12
	s-2.3,29.2-3.6,46"/>
<path fill="none" stroke="#000000" stroke-width="2" stroke-miterlimit="10" d="M195.6,202.1h5.5c0,0,3.6,1.1,4,1.1s0.5-0.8,2.2-0.6
	s2.9,0,2.9,0l3,0.6h1.5c0,0,2.5,0.4,4,0s-1.2-0.4,1.5-0.4s0.5,0,2.8,0s-0.2-0.6,2.2,0s2.5,0.6,2.5,0.6h1.5c0,0-0.8-0.4,1.6,0
	s2.4,0.4,2.4,0.4h2"/>
<path fill="none" stroke="#000000" stroke-width="2" stroke-miterlimit="10" d="M195.6,212.4l1.6,0.2l1.5,0.6h1.9
	c0,0,2.4-0.4,3.1-0.4c0.8,0,1.2-0.2,1.2-0.2h1.8l2.4,0.6h2.9h1.8l5.1-0.4h2.4l1.4,0.4h1.4l3.4,0.8h1.4c0,0,2,0.1,2.5,0
	s-0.4,0,0.5-0.1s1.6-0.6,1.6-0.6"/>
<path fill="none" stroke="#000000" stroke-width="2" stroke-miterlimit="10" d="M193.9,224.2h2.2h1.8h2h1h2.1h2.2h2l2.2,0.8h2h3.9
	l2.2-0.4c0,0,1.2,0,1.8,0s1,0.5,1.6,0.4s1.4,0,1.4,0h1.6c0,0,1.9-0.4,2.9,0s-0.1,0.4,1,0.4s1.1,0,1.1,0h2.2h2.1"/>
<path fill="none" stroke="#000000" stroke-width="2" stroke-miterlimit="10" d="M265,252.2l-0.6-9l-8,8.6l2.4-17.4
	c-7,4.2-17.4,20.5-17.4,20.5l-5.5-7.1l-5.4,6.5c0,0-1.5-7.9-1.8-8.8s-7.2,8.4-7.6,8.8s-1.8-5.5-1.8-5.5l-7.6,4.8l-0.8-19.8
	l-9.5,19.1l-2.9-6.6c0,0-1.9,6.9-2.2,7.2s-7.8-22.1-7.8-22.1V251c0,0-6.8-16-15.6-19.5c0,0,3.2,12.4,3.2,16l-7.7-5.8
	c0,0,2.1,7.6,2.1,9.2s-6.9-4.1-6.9-4.1L162,252"/>
</svg>
