<?xml version="1.0" encoding="utf-8"?>
<!-- Generator: Adobe Illustrator 19.2.1, SVG Export Plug-In . SVG Version: 6.00 Build 0)  -->
<svg version="1.0" xmlns="http://www.w3.org/2000/svg" xmlns:xlink="http://www.w3.org/1999/xlink" x="0px" y="0px" width="432px"
	 height="432px" viewBox="0 0 432 432" enable-background="new 0 0 432 432" xml:space="preserve">
<g id="Layer_2">
	<path fill="#27AAE1" d="M194.6,120.1c0,0-23.5,15.8-13.1,35.8c0,0-12-6.7-4.8-21.3S192.3,119.4,194.6,120.1z"/>
	<polygon fill="#27AAE1" points="178.4,154.6 176.4,160.2 172.6,158.1 176.8,151.2 	"/>
	<polygon fill="#27AAE1" points="156.9,213.1 149,298 163.4,307 152.8,313.7 142.1,298.8 143.9,210.7 	"/>
	<path fill="#27AAE1" d="M167.1,215.3l18.2,83.9l17.9,8.4c0,0-10.9,6.9-11,6.1s-11.7-14.8-11.7-14.8l-21.5-85.7L167.1,215.3z"/>
	<polygon fill="#27AAE1" points="160.9,171.9 150.2,208 160.9,213.2 143.9,210.7 155.1,176.5 	"/>
</g>
<g id="Layer_1">
	
		<ellipse transform="matrix(0.4031 -0.9152 0.9152 0.4031 -13.7833 255.447)" fill="none" stroke="#000000" stroke-width="2" stroke-miterlimit="10" cx="188.9" cy="138.3" rx="19.2" ry="13"/>
	<path fill="none" stroke="#000000" stroke-width="2" stroke-miterlimit="10" d="M185.4,120.1c0,0,9.7,5.5,17.7,5"/>
	<path fill="none" stroke="#000000" stroke-width="2" stroke-miterlimit="10" d="M182.6,122.4c0,0,10.8,8.4,21.6,6.8"/>
	<path fill="none" stroke="#000000" stroke-width="2" stroke-miterlimit="10" d="M180,125c0,0,16.5,11.1,25.5,8.8"/>
	<path fill="none" stroke="#000000" stroke-width="2" stroke-miterlimit="10" d="M168.3,164.9"/>
	<path fill="none" stroke="#000000" stroke-width="2" stroke-miterlimit="10" d="M156.6,168.2"/>
	<path fill="none" stroke="#000000" stroke-width="2" stroke-miterlimit="10" d="M144.4,186.7"/>
	<path fill="none" stroke="#000000" stroke-width="2" stroke-miterlimit="10" d="M167.3,154.4c1.8,0.8,18.1,11.9,18.1,11.9
		s-6.4,22.2-10.5,36.7l-1.5,5.2c-1.2,4.3-2,7.1-2,7.1l-27.8-4.6c0,0,8.5-27.1,11.9-35.1"/>
	<path fill="none" stroke="#000000" stroke-width="2" stroke-miterlimit="10" d="M176.4,151.2c-0.3,0.8-3.3,6.9-3.3,6.9"/>
	<line fill="none" stroke="#000000" stroke-width="2" stroke-miterlimit="10" x1="183.2" y1="156.4" x2="180.7" y2="163.1"/>
	<polyline fill="none" stroke="#000000" stroke-width="2" stroke-miterlimit="10" points="143.6,210.7 141.8,297.7 148,297.7 
		156.6,212.8 	"/>
	<polyline fill="none" stroke="#000000" stroke-width="2" stroke-miterlimit="10" points="157.9,213.1 180,297.7 186.6,297.7 
		171.4,215.3 	"/>
	<polyline fill="none" stroke="#000000" stroke-width="2" stroke-miterlimit="10" points="141.8,297.7 152.8,310.3 163,305.2 
		148,297.7 	"/>
	<polyline fill="none" stroke="#000000" stroke-width="2" stroke-miterlimit="10" points="180,297.7 195.5,311.3 207,305.4 
		187.2,297.7 	"/>
	<path fill="none" stroke="#000000" stroke-width="2" stroke-miterlimit="10" d="M156.6,168.2"/>
	<path fill="none" stroke="#000000" stroke-width="2" stroke-miterlimit="10" d="M164.6,169.4l-13.8,9.3l-13.2,27.3l3.2,4.6l-2,2.4
		l-3.5-2.4c0,0,0,8-0.2,9s-6.2,0-6.2,0v-12.5l3.5-5.2l12-29.6l22.1-17.3l0.8-0.6l2.2,1.3"/>
	<line fill="none" stroke="#000000" stroke-width="2" stroke-miterlimit="10" x1="144.4" y1="172.4" x2="150.9" y2="178.7"/>
	<path fill="none" stroke="#000000" stroke-width="2" stroke-miterlimit="10" d="M185.4,166.3l7.3,20.4c0,0,13.3,0,19.7,0"/>
	<path fill="none" stroke="#000000" stroke-width="2" stroke-miterlimit="10" d="M182,178.4l6.2,15.6c0,0,10.9-0.4,18.3-0.6"/>
	<line fill="none" stroke="#000000" stroke-width="2" stroke-miterlimit="10" x1="192.7" y1="187.3" x2="188.1" y2="194"/>
	<path fill="none" stroke="#000000" stroke-width="2" stroke-miterlimit="10" d="M225,182.5l-17.4,22c0,0,6,7.6,16.2,8l8-26.6
		L225,182.5z"/>
	<path fill="none" stroke="#000000" stroke-width="2" stroke-miterlimit="10" d="M224.7,182.9c0,0,1.2,6.2,7,3.4"/>
	<line fill="none" stroke="#000000" stroke-width="2" stroke-miterlimit="10" x1="231.9" y1="185.8" x2="240.4" y2="188.3"/>
	<path fill="none" stroke="#000000" stroke-width="2" stroke-miterlimit="10" d="M230.4,190.7c0.1-0.2,8.6,0.5,8.6,0.5"/>
	<polygon fill="none" stroke="#000000" stroke-width="2" stroke-miterlimit="10" points="244.6,185.2 240.4,186.3 238,193.2 
		240.9,196.3 	"/>
	<path fill="none" stroke="#000000" stroke-width="2" stroke-miterlimit="10" d="M221.8,186.5c-0.4,0-3.9-5.7-3.9-5.7l-13.4,14.3
		l7.2,3.5"/>
	<path fill="none" stroke="#000000" stroke-width="2" stroke-miterlimit="10" d="M214.3,196l-4.5-2.2c0,0,1-1.2,2.3-2.7"/>
	<path fill="none" stroke="#000000" stroke-width="2" stroke-miterlimit="10" d="M216.3,186.2c0.4-0.4,0.6-0.7,0.6-0.7l2.6,3.5
		c0,0-4.6-4.9-4.8-4.9s-4.2,6.5-4.2,6.5l5.9,2.9"/>
	<path fill="none" stroke="#000000" stroke-width="2" stroke-miterlimit="10" d="M219.8,290.7c0.2-0.5,1.5-3.2,2-3.5
		c0.5-0.3,1.2,0.3,2.7,0c1.5-0.3,1.8-1.2,3.3-0.1c1.5,1.1,2.5,1.5,2.5,1.5s6.5-2.6,7.1-2.9s4.1-0.9,4.1-0.9l1.4,1c0,0,4,2,4.3,1.9
		c0.3-0.1,0.2,0.6,1,0s3.4-1.9,3.4-1.9s0.3-0.8,1.9-1c1.6-0.2,3.3-0.6,3.3-0.6s1.2-0.4,2.8,0s2.6,0.6,2.6,0.6s2.2,2.8,3.1,2.5
		s4.4-2.2,4.4-2.2s1.4,0.2,2.5-0.1s1.5-1.5,1.9-1.6s1.8-0.8,2.5-0.8s2.2-0.1,3.7,0s3.4,0,4.3,0.8s2.6,1.8,2.6,1.8s0.2,0.2,1.6,0.7
		c1.3,0.5-0.3,0.4,2.1,0.8c2.4,0.4,2.6-0.5,3.5,0c0.9,0.5,3.3,0.7,3.3,0.7l3.2,0.8l2,1.8"/>
	<line fill="none" stroke="#000000" stroke-width="2" stroke-miterlimit="10" x1="229" y1="292.5" x2="232.5" y2="291.9"/>
	<path fill="none" stroke="#000000" stroke-width="2" stroke-miterlimit="10" d="M232.5,295.8c0.4-0.1,2.2-1.8,2.6-1.8"/>
	<path fill="none" stroke="#000000" stroke-width="2" stroke-miterlimit="10" d="M253.5,289.9c0,0,2.3,0.9,3.1,2.6"/>
	<path fill="none" stroke="#000000" stroke-width="2" stroke-miterlimit="10" d="M270.4,293.1c0,0,2.9,1.2,4.3-0.9"/>
	<line fill="none" stroke="#000000" stroke-width="2" stroke-miterlimit="10" x1="280.8" y1="286.6" x2="283.8" y2="288.3"/>
	<line fill="none" stroke="#000000" stroke-width="2" stroke-miterlimit="10" x1="288.7" y1="290.7" x2="291" y2="290.7"/>
	<g>
		<g>
			<path fill="none" stroke="#000000" stroke-width="2" stroke-miterlimit="10" d="M245.1,199c0,0,0.9,2,2.3,5.5"/>
			<path fill="none" stroke="#000000" stroke-width="2" stroke-miterlimit="10" stroke-dasharray="13.359,13.359" d="M252,217.1
				c3.9,12,8.2,28.7,8.9,45.8"/>
			<path fill="none" stroke="#000000" stroke-width="2" stroke-miterlimit="10" d="M261.1,269.5c0,2-0.1,4-0.3,6"/>
		</g>
	</g>
	<g>
		<g>
			<path fill="none" stroke="#000000" stroke-width="2" stroke-miterlimit="10" d="M246.4,193.2c0,0,1.5,1.5,3.7,4.7"/>
			<path fill="none" stroke="#000000" stroke-width="2" stroke-miterlimit="10" stroke-dasharray="10.2251,10.2251" d="M255.2,206.7
				c5.5,10.9,11.7,28.6,12.6,54.4"/>
			<path fill="none" stroke="#000000" stroke-width="2" stroke-miterlimit="10" d="M267.9,266.2c0,2,0,4-0.1,6"/>
		</g>
	</g>
	<g>
		<g>
			<path fill="none" stroke="#000000" stroke-width="2" stroke-miterlimit="10" d="M249.4,190.3c0,0,1.8,1.3,4.3,4.1"/>
			<path fill="none" stroke="#000000" stroke-width="2" stroke-miterlimit="10" stroke-dasharray="10.5107,10.5107" d="M260,202.8
				c6.5,10.3,13.9,27.8,15.4,55.1"/>
			<path fill="none" stroke="#000000" stroke-width="2" stroke-miterlimit="10" d="M275.6,263.2c0,2,0.1,4,0.1,6"/>
		</g>
	</g>
</g>
<g id="Layer_3">
	<path opacity="0" fill="none" stroke="#27AAE1" stroke-width="20" stroke-miterlimit="10" d="M183,118.3c4.3,0.2,8.6,0.5,12.9,0.7
		c-6.4,1.1-12.9,1.8-19.4,2.3c6.6,1.4,13.4,2,20.1,1.8c-8.3,0.3-16.6,1.7-24.6,4.1c5.2,0.1,10.3,0.3,15.5,0.4c-6,1.9-12,3.7-18,5.6
		c5.8,0.6,11.5,1.1,17.3,1.7c-6.5,2.9-13.4,5-20.4,6.3c4.7,0.8,9.4,1.7,14,2.5c-5.8,1.2-11.6,2.5-17.4,3.7c6.2,3,12.9,4.9,19.8,5.6
		c-5.7,0.1-11.4,0.2-17.1,0.3c4,2.1,8.2,3.7,12.6,4.9c-12.2-0.4-24.5,0.6-36.6,2.9c-0.4,1.3,1.4,2.1,2.7,2.3
		c6.4,0.8,12.8,1.1,19.3,0.9c-5.8,2.3-11.6,4.7-17.4,7c5.9-0.3,11.8,0,17.7,1c-5.7,1.9-11.1,4.8-15.8,8.6c5.9,0.6,11.9,0.7,17.8,0.1
		c-10.4,4.2-20.1,10-28.6,17.3c8.6-0.3,17.2-1,25.7-2.2c-9.4,4.3-18.7,8.6-28.1,12.8c12.4-0.4,24.7-0.9,37.1-1.3
		c-13.1,3.4-25.8,8.4-37.8,14.7c15.8,0.4,31.6-0.8,47.3-2c-16.9,4.2-34.3,8.6-48.6,18.5c13.5,0.1,26.9-0.8,40.2-2.7
		c-10.9,3-21.6,6.6-32.1,10.8c-3.3,1.3-6.9,3-8.6,6.2c13.2-1.2,26.4-2.3,39.6-3.5c-12.6,5.1-25.2,10.3-37.8,15.4
		c17.8-1.4,35.5-2.8,53.3-4.1c-14.4,4.8-28.7,9.6-43.1,14.4c16.4-1.2,32.8-2.4,49.1-3.5c-16.8,1.7-33.3,5.6-49,11.7
		c23.7-3,47.3-6.1,71-9.1c-23.7,5.5-47.5,11-70.5,19.1c17.9-2.8,35.9-4.9,53.9-6.3c-20.3,2-40.5,6.7-58.9,15.3
		c23.1-3.4,46.2-6,69.5-7.7c-23,5.1-45.7,11.4-68,19c18.8-3.9,37.7-7.8,56.8-10.1c-11.1,4.1-22.3,8.3-33.4,12.4
		c9.6-3,19.3-5.3,29.2-6.8"/>
</g>
</svg>
