<?xml version="1.0" encoding="utf-8"?>
<!-- Generator: Adobe Illustrator 19.2.1, SVG Export Plug-In . SVG Version: 6.00 Build 0)  -->
<svg version="1.0" id="Layer_1" xmlns="http://www.w3.org/2000/svg" xmlns:xlink="http://www.w3.org/1999/xlink" x="0px" y="0px"
	 width="288px" height="288px" viewBox="0 0 288 288" enable-background="new 0 0 288 288" xml:space="preserve">
<polygon fill="none" stroke="#000000" stroke-width="2" stroke-miterlimit="10" points="200.6,167.7 157.4,134.3 146.7,83.8 
	146.3,83.8 141.7,83.8 141.3,83.8 130.6,134.3 87.5,167.7 92.3,170 144,137.1 195.7,170 "/>
<polyline fill="none" stroke="#000000" stroke-width="2" stroke-miterlimit="10" points="107.3,160.4 117.3,229.1 165.8,229.1 
	172.4,155.2 "/>
<path fill="none" stroke="#000000" stroke-width="2" stroke-miterlimit="10" d="M133.6,181.3c0,0-6.1-22.5,6.8-22.8
	s7.2,21.5,7.2,21.5L133.6,181.3z"/>
<path fill="none" stroke="#000000" stroke-width="2" stroke-miterlimit="10" d="M118.6,203.6c0,0-2.8-19.2,2.4-19.5
	s6.5,7.1,6.6,18.7L118.6,203.6z"/>
<path fill="none" stroke="#000000" stroke-width="2" stroke-miterlimit="10" d="M162.8,203.6c0,0,2.8-19.2-2.4-19.5
	c-5.1-0.2-6.5,7.1-6.6,18.7L162.8,203.6z"/>
<path fill="none" stroke="#000000" stroke-width="2" stroke-miterlimit="10" d="M133.3,229.1c0,0-5.4-39.7,6.6-39.7
	c15.4,0,7.9,39.7,7.9,39.7"/>
<line fill="none" stroke="#000000" stroke-width="2" stroke-miterlimit="10" x1="139.9" y1="189.3" x2="140.9" y2="229.1"/>
<line fill="none" stroke="#000000" stroke-width="2" stroke-miterlimit="10" x1="143.6" y1="83.8" x2="143.6" y2="58.2"/>
<line fill="none" stroke="#000000" stroke-width="2" stroke-miterlimit="10" x1="138.3" y1="65" x2="148.9" y2="65"/>
</svg>
