<?xml version="1.0" encoding="utf-8"?>
<!-- Generator: Adobe Illustrator 21.0.0, SVG Export Plug-In . SVG Version: 6.00 Build 0)  -->
<!DOCTYPE svg PUBLIC "-//W3C//DTD SVG 1.0//EN" "http://www.w3.org/TR/2001/REC-SVG-20010904/DTD/svg10.dtd">
<svg version="1.0" xmlns="http://www.w3.org/2000/svg" xmlns:xlink="http://www.w3.org/1999/xlink" x="0px" y="0px" width="288px"
	 height="288px" viewBox="0 0 288 288" enable-background="new 0 0 288 288" xml:space="preserve">
<g id="Color_2_">
	<g>
		<path fill="#27AAE1" d="M214.5,151.4l-0.5,57.2c3.1-1.3,7.1-3,10.2-4.5L214.5,151.4z"/>
		<path fill="#27AAE1" d="M75.1,146.3l-2.2,70c0.5,0.7,0.8,1.1,0.8,1.1s3.6-0.6,8.2-1.4L75.1,146.3z"/>
		<path fill="#27AAE1" d="M166,144.2l-4.6,64.8c3.3-0.6,7.3-1.2,11.1-1.7l-5.5-63.1h10.8l-22.1-0.7L166,144.2z"/>
		<path fill="#27AAE1" d="M202.8,148.5C202.9,148.5,202.9,148.5,202.8,148.5l-0.3-3.5c0,0,2.2-17,2.2-32.6c0,0-0.1,0-0.1,0
			c-6.7,6.9-3.9,30.4-3.4,33.5h0.1l1.6,2.3L202.8,148.5z"/>
		<path fill="#27AAE1" d="M266.7,107c-0.9-2.5-2.4-5-3.5-7.4c-4.2-9.9,0.8-21.5-1-32.1c-1.5-8.4-7.5-15.9-15.4-19.1
			c-8.4-3.3-18.4-2.2-25.9-7.1c-2.3-1.5-4.3-3.6-6.9-4.7c-2.3-1-4.8-1.1-7.3-1.2c-7.8-0.4-15.7-0.7-23.5-1.1
			c-5.4-0.3-11.1-0.6-15.9-3.1c-4.8-2.5-8.6-8-7.3-13.3c-14.8-2.5-29.2,4.8-43.9,8c-9.8,2.2-20,2.5-30,2.1
			c-14.3-0.6-30.8-2.1-40.5,8.4c-9.3,10-7.4,26-13.2,38.4c-4.3,9.1-12.6,16-16.1,25.5c-2.2,6-2.2,12.5-1.8,18.8
			c0.8,13.2,3.3,26.2,5.7,39.1c1.2,6.2,2.3,12.3,3.5,18.5c0.3,1.7,0.7,3.5,1.5,5.1c2.4,4.3,8.1,6.2,9.9,10.7
			c2.1,5.3-1.3,13.3,3.8,15.9c2.5,1.3,5.5,0.1,8.1-0.7c4-1.2,21.9-4,22.4,3.6c0-0.1-4.2-64.9-4.2-64.9h0.1l-0.7-5.5
			c-0.2,0-0.4,0-0.6,0l0,0.3l-8.5,3l-2-6.7l10.2,0.7l0,0.1c0,0,0.1,0,0.1,0c0.2,0,0.3,0,0.5,0l-0.4-2.8c0,0,0,0-0.1-0.1l0.1,0.4
			l-16.3-11.6l-5.4-3.8c2-10.1,16.1-27,16.1-27c0.5,0,4.8-0.5,9.8-1.2c0,0,0,0,0-0.1c-0.1-0.2-0.1-0.4-0.1-0.5l-0.2,0
			c0,0-0.7-3.1-1.2-5.4c-5.1-1.2-9.7-7.2-10.8-15c-0.7-4.4-0.1-8.6,1.3-11.8c-0.1-0.1-0.2-0.1-0.2-0.1h0.3c0.4-0.9,0.9-1.7,1.4-2.5
			c-0.1,0-0.2-0.1-0.2-0.1l0.3-0.1c0.7-0.9,1.4-1.7,2.2-2.3c-0.4-0.1-0.7-0.3-0.7-0.3l1.2-0.1c1-0.6,2-1,3.2-1.2
			c2.5-0.4,4.8,0.4,7,2c1.2,0.9,2.2,2,3.1,3.3c1.9,2.6,3.3,6,3.8,9.8c1.2,7.6-1.3,14.5-5.7,17.3c0.3,1.5,0.1,3.3,0,5
			c0,0.8,0,1.4,0,1.4l-0.1,0c0,0.1,0,0.1,0,0.2c5.8-0.8,11.2-1.5,11.2-1.5l15.3,18.6l8.2-13.3c0.5-3.4,0.9-5.7,0.9-5.7l-0.9,5.7
			l1-1.7c-0.1-2.2-0.2-3.5-0.2-3.5s4.9-0.1,10.9,0.3c0,0,0-0.1,0-0.1h-0.1V85c-3.8-2.6-6.4-8.9-6-16.2c0.5-9.3,5.5-16.6,11.2-16.3
			c5.7,0.3,10,8,9.5,17.4c-0.4,7.8-4,14.2-8.5,15.8l-0.7,4.3c0.1,0.2,0.1,0.5,0.1,0.8c4.1,0.5,8.2,1.2,11,2.5v-0.1l7.1,29l-1.3,20.2
			l-4.8-1.3l-0.9-17.6l-2.5-7l-2.6,24.3l4.4,73.1c9.2-1.4,18.7-2.7,20.1-3.4c0.3-0.2,0.9-0.3,1.8-0.6c-1-33.2-1.9-65.3-1.9-66.5
			l-1.2-0.1c0,0,0.4-10.8,0.8-22.5c-6.9-1.1-10.1-4.6-10.1-4.6s1.3-2.7,3-6.4l8-17.5c0,0,4.3-0.1,9.9,0.2c0-0.1,0-0.1,0.1-0.2
			l-0.3,0v-6.4c-4-2.2-7.1-8.5-7.2-15.8c-0.1-9.3,4.3-17,10.1-17.1c5.7-0.1,10.5,7.3,10.6,16.6c0.1,7.4-2.7,13.8-6.8,16.1l-1.1,6.4
			c0.1,0.2,0.1,0.4,0.1,0.7c2.9,0.3,5.8,0.6,8.5,1.2c0.1,0,0.3,0.1,0.4,0.1c0,0,0,0.3,0,0.7c1.6,3.3,7.2,15.7,7.9,26.4l-8.8-0.7
			c-0.4,12-0.8,23.6-0.8,23.6v62.6c3.7-0.3,6.7-0.4,8.2,0c4.5,1.1,19.6,3.3,22.6,3.7l-4.2-45.5h-2.6l-4.3-6.6l-0.6-10.1l0.5-0.2
			c-9.1-31.3,1.6-49.7,4.5-53.9c0-0.1,0-0.2,0-0.4c0-0.6,0.3-1,0.7-1.2c0,0,0-0.1,0-0.1l6.9-0.8c-0.1-0.3-0.1-0.6,0-0.8l-0.9-4.1
			c-4-2-7-7.4-7.5-14c-0.6-8.5,3.4-15.8,8.9-16.1c5.5-0.4,10.5,6.2,11.1,14.8c0.5,7.2-2.2,13.3-6.3,15.4l0.2,4.3l-0.4,0
			c0,0,0,0,0,0.1l7.6-0.9c0,0,0,0.1,0,0.3c0,0,0,0,0,0l0-0.3c0,0,13.5,11.5,18.3,20L225.7,132c0,0.1,0,0.2,0,0.2c0.1,0,0.1,0,0.2,0
			l9.8-3l4.7,5c0,0-9,5-9.1,5.1c-0.2,0.1-5.7-2-5.7-2v-0.1c-0.1,0-0.2,0-0.3,0c-0.2,2.5-0.4,4.8-0.8,6.9l-0.1,0
			c0,0.1,2.2,15.8,4.1,37c0.2-0.1,0.4-0.2,0.6-0.2c4.8-1.6,17.2-0.1,20-3.5c1.1-1.3,1.7-3.1,2.7-4.5c2-2.6,5.5-3.7,8.2-5.6
			c5.4-4,6.9-11.6,5.9-18.2c-1-6.6-3.9-12.8-5.8-19.2c-0.9-3-1.5-6.4-0.1-9.2c1.6-3.1,5.5-4.7,6.8-8
			C267.6,110.8,267.3,108.9,266.7,107z M138.4,159.1l-3.8-9.5l1.8-8.2l4.8,1.3l2,12.4L138.4,159.1z"/>
		<path fill="#27AAE1" d="M120,147.8l-3.3,65.8h-5.8v-57.4h-2.5l-3.1-6.1l0.8-9.8l2.3-0.3l2.5-0.8l0.1,0.1c-0.1-1-0.6-10.6-1.2-21
			l-0.1,21.3l-3.4,1.2l-2.7-19.5c0,0,0.9-6.1,2-13.2l3.4-6.9l-8.7,17.6l-16-15.8l1.2,42.1v70.3c5.9-1,12.3-2.1,14.4-2.4
			c2.3-0.3,5.5,1.6,9,3.2l2.1-2h6.4l-1.2,3.6c0.6-0.1,1.3-0.2,1.9-0.5c2.1-0.9,6.8-1.8,12.1-2.7L120,147.8z"/>
	</g>
	<path fill="#27AAE1" d="M62.5,128.3c-0.3-0.7-13.2-10.2-12.5-10.4s11.2-14.5,11.2-14.5L62.5,128.3z"/>
	<polygon fill="#27AAE1" points="221.8,97 224.2,123.8 232.5,109.7 	"/>
</g>
<g id="Stroke">
	
		<path opacity="0" fill="none" stroke="#000000" stroke-width="32" stroke-linecap="round" stroke-linejoin="round" stroke-miterlimit="10" d="
		M10.2,28c16.8-6.4,35.1-6.9,53.1-7.2c30.6-0.6,61.3-0.7,91.9-0.8c36.9-0.2,74.2-0.3,110.4,6.7c-28.1,11.3-59.2,11.7-89.5,11.9
		C100.4,39.2,24.2,40-50.5,52.4c-0.2,2.6,2.9,4.1,5.5,4.8c14.6,3.8,29.7,5.7,44.7,7.3C51,70,102.8,71.9,154.5,70.2
		c60.4-2.1,121.2-9.1,180.9-0.2c-12.8,9.1-28.8,12.5-44.4,14.8c-29.2,4.3-58.8,5.5-88.3,6.6c-48.8,1.9-97.6,3.8-146.3,1.1
		c-40.3-2.3-82-7.5-119.9,6.2c20.3,5.7,41.4,7.7,62.4,9.1c97.3,6.4,194.9,0.1,292.4,2.2c8.9,0.2,18.7,0.8,25,7.1
		c-108.2,28.2-226-1.2-332.7,32.2c25.8,5.9,52.4,6,78.9,6.1c51.1,0.1,102.2,0.2,153.1-4.7c33.9-3.3,69.9-8.5,100.6,6.1
		c-22.6,11.9-49.5,12-75,11.8c-72.5-0.6-145-1.3-217.4-1.9c-5.8-0.1-13.6,1.6-13.9,7.4c5.5,7,15.5,8.1,24.4,8.6
		c56.6,3,113.4,3.6,170,1.8c21.4-0.7,44.3-1.3,62.3,10.1c-10.2,4.4-21.6,5.4-32.8,5.8c-41.9,1.5-83.9-4.7-125.7-1.8
		c-24.9,1.7-49.4,6.5-73.8,11.3c64.4,5.6,129.8-4.1,193.5,6.6c-8.3,9.4-22.6,9.5-35.2,9.7c-28.2,0.4-56.3,5.1-83.1,13.8"/>
</g>
</svg>
