<?xml version="1.0" encoding="utf-8"?>
<!-- Generator: Adobe Illustrator 21.0.0, SVG Export Plug-In . SVG Version: 6.00 Build 0)  -->
<!DOCTYPE svg PUBLIC "-//W3C//DTD SVG 1.0//EN" "http://www.w3.org/TR/2001/REC-SVG-20010904/DTD/svg10.dtd">
<svg version="1.0" xmlns="http://www.w3.org/2000/svg" xmlns:xlink="http://www.w3.org/1999/xlink" x="0px" y="0px" width="288px"
	 height="288px" viewBox="0 0 288 288" enable-background="new 0 0 288 288" xml:space="preserve">
<g id="Color">
	<g id="Color_2_">
		<g>
			<path fill="#27AAE1" d="M214.5,151.4l-0.5,57.2c3.1-1.3,7.1-3,10.2-4.5L214.5,151.4z"/>
			<path fill="#27AAE1" d="M75.1,146.3l-2.2,70c0.5,0.7,0.8,1.1,0.8,1.1s3.6-0.6,8.2-1.4L75.1,146.3z"/>
			<path fill="#27AAE1" d="M166,144.2l-4.6,64.8c3.3-0.6,7.3-1.2,11.1-1.7l-5.5-63.1h10.8l-22.1-0.7L166,144.2z"/>
			<path fill="#27AAE1" d="M202.8,148.5C202.9,148.5,202.9,148.5,202.8,148.5l-0.3-3.5c0,0,2.2-17,2.2-32.6h-0.1
				c-6.7,6.9-3.9,30.4-3.4,33.5h0.1l1.6,2.3L202.8,148.5z"/>
			<path fill="#27AAE1" d="M279,103.1c0,0-39.9-37.5-41.8-40.6c-1.9-3.1-31.1-36.2-31.1-36.2L156.9,22c0,0-45.8,12.5-58.3,12.5
				s-44.9,1.9-44.9,1.9L23.1,62.6L8.7,100l14.4,37.5l11.2,16.9l11.9,33.1c0,0,9.4,5.6,11.2,7.5c1.2,1.2,7.5,10.1,11.9,16.3
				l-4.2-64.9h0.1l-0.7-5.5c-0.2,0-0.4,0-0.6,0v0.3l-8.5,3l-2-6.7l10.2,0.7v0.1h0.1c0.2,0,0.3,0,0.5,0l-0.4-2.8c0,0,0,0-0.1-0.1
				l0.1,0.4l-16.3-11.6l-5.4-3.8c2-10.1,16.1-27,16.1-27c0.5,0,4.8-0.5,9.8-1.2c0,0,0,0,0-0.1c-0.1-0.2-0.1-0.4-0.1-0.5h-0.2
				c0,0-0.7-3.1-1.2-5.4c-5.1-1.2-9.7-7.2-10.8-15c-0.7-4.4-0.1-8.6,1.3-11.8c-0.1-0.1-0.2-0.1-0.2-0.1h0.3c0.4-0.9,0.9-1.7,1.4-2.5
				c-0.1,0-0.2-0.1-0.2-0.1l0.3-0.1c0.7-0.9,1.4-1.7,2.2-2.3c-0.4-0.1-0.7-0.3-0.7-0.3l1.2-0.1c1-0.6,2-1,3.2-1.2
				c2.5-0.4,4.8,0.4,7,2c1.2,0.9,2.2,2,3.1,3.3c1.9,2.6,3.3,6,3.8,9.8c1.2,7.6-1.3,14.5-5.7,17.3c0.3,1.5,0.1,3.3,0,5
				c0,0.8,0,1.4,0,1.4h-0.1c0,0.1,0,0.1,0,0.2c5.8-0.8,11.2-1.5,11.2-1.5l15.3,18.6l8.2-13.3c0.5-3.4,0.9-5.7,0.9-5.7l-0.9,5.7
				l1-1.7c-0.1-2.2-0.2-3.5-0.2-3.5s4.9-0.1,10.9,0.3v-0.1h-0.1V85c-3.8-2.6-6.4-8.9-6-16.2c0.5-9.3,5.5-16.6,11.2-16.3
				c5.7,0.3,10,8,9.5,17.4c-0.4,7.8-4,14.2-8.5,15.8l-0.7,4.3c0.1,0.2,0.1,0.5,0.1,0.8l0,0c4.1,0.5,8.2,1.2,11,2.5v-0.1l7.1,29
				l-1.3,20.2l-4.8-1.3l-0.9-17.6l-2.5-7l-2.6,24.3l4.4,73.1c9.2-1.4,18.7-2.7,20.1-3.4c0.3-0.2,0.9-0.3,1.8-0.6
				c-1-33.2-1.9-65.3-1.9-66.5l-1.2-0.1c0,0,0.4-10.8,0.8-22.5c-6.9-1.1-10.1-4.6-10.1-4.6s1.3-2.7,3-6.4l8-17.5
				c0,0,4.3-0.1,9.9,0.2c0-0.1,0-0.1,0.1-0.2h-0.3v-6.4c-4-2.2-7.1-8.5-7.2-15.8c-0.1-9.3,4.3-17,10.1-17.1
				c5.7-0.1,10.5,7.3,10.6,16.6c0.1,7.4-2.7,13.8-6.8,16.1l-1.1,6.4c0.1,0.2,0.1,0.4,0.1,0.7c2.9,0.3,5.8,0.6,8.5,1.2
				c0.1,0,0.3,0.1,0.4,0.1c0,0,0,0.3,0,0.7c1.6,3.3,7.2,15.7,7.9,26.4l-8.8-0.7c-0.4,12-0.8,23.6-0.8,23.6v62.6
				c3.7-0.3,6.7-0.4,8.2,0c4.5,1.1,19.6,3.3,22.6,3.7l-4.2-45.5H202l-4.3-6.6l-0.6-10.1l0.5-0.2c-9.1-31.3,1.6-49.7,4.5-53.9
				c0-0.1,0-0.2,0-0.4c0-0.6,0.3-1,0.7-1.2v-0.1l6.9-0.8c-0.1-0.3-0.1-0.6,0-0.8l-0.9-4.1c-4-2-7-7.4-7.5-14
				c-0.6-8.5,3.4-15.8,8.9-16.1c5.5-0.4,10.5,6.2,11.1,14.8c0.5,7.2-2.2,13.3-6.3,15.4l0.2,4.3h-0.4c0,0,0,0,0,0.1l7.6-0.9
				c0,0,0,0.1,0,0.3l0,0v-0.3c0,0,13.5,11.5,18.3,20l-15,21.7c0,0.1,0,0.2,0,0.2c0.1,0,0.1,0,0.2,0l0,0l0,0l0,0l9.8-3l4.7,5
				c0,0-9,5-9.1,5.1c-0.2,0.1-5.7-2-5.7-2v-0.1c-0.1,0-0.2,0-0.3,0c-0.2,2.5-0.4,4.8-0.8,6.9h-0.1c0,0.1,2.2,15.8,4.1,37
				c0.2-0.1,0.4-0.2,0.6-0.2c6.9-2.2,39.9-4.7,37.5-12.2c-2.5-7.5,11.2-38.7,12.5-41.2C280.2,125,279,103.1,279,103.1z M138.4,159.1
				l-3.8-9.5l1.8-8.2l4.8,1.3l2,12.4L138.4,159.1z"/>
			<path fill="#27AAE1" d="M120,147.8l-3.3,65.8h-5.8v-57.4h-2.5l-3.1-6.1l0.8-9.8l2.3-0.3l2.5-0.8l0.1,0.1c-0.1-1-0.6-10.6-1.2-21
				l-0.1,21.3l-3.4,1.2l-2.7-19.5c0,0,0.9-6.1,2-13.2l3.4-6.9l-8.7,17.6l-16-15.8l1.2,42.1v70.3c5.9-1,12.3-2.1,14.4-2.4
				c2.3-0.3,5.5,1.6,9,3.2l2.1-2h6.4l-1.2,3.6c0.6-0.1,1.3-0.2,1.9-0.5c2.1-0.9,6.8-1.8,12.1-2.7L120,147.8z"/>
		</g>
		<path fill="#27AAE1" d="M62.5,128.3c-0.3-0.7-13.2-10.2-12.5-10.4s11.2-14.5,11.2-14.5L62.5,128.3z"/>
		<polygon fill="#27AAE1" points="221.8,97 224.2,123.8 232.5,109.7 		"/>
	</g>
</g>
<g id="Stroke">
	
		<path opacity="0" fill="none" stroke="#000000" stroke-width="29" stroke-linecap="round" stroke-linejoin="round" stroke-miterlimit="10" d="
		M28.9,51.6c7.3-6.5,17.3-9.9,27-9.2C43.9,48.2,31.8,54,19.7,59.8C31.9,56.5,44,53.2,56.2,50c-11,12.7-31.4,12.3-43.9,23.5
		c19.7-5,39-12,57.3-20.9C47.4,68.3,18.2,70.5-5.2,84.2C20.3,86.4,44.3,72.5,69.6,68c-9.4,5.9-20.4,8.2-31,11.6
		c-10.5,3.4-21.3,8.3-27.4,17.5c15.3-3.8,30-9.9,43.6-17.8C50.2,87.9,41.1,93.2,32,96.8c-9.1,3.7-18.7,6.3-27,11.6
		c24.2-5.7,47.6-15.1,69-27.8c-16.7,16.4-38.1,26.9-59.2,37.2c19.8-3.5,39-10.7,56.3-21c-18.5,12.6-36.9,25.3-55.4,37.9
		c14.7-8,29.4-16,44.1-24c-11.5,11.5-24.1,21.9-37.5,31c12.9-5.2,24.7-12.8,34.8-22.2c-13.5,11-26.9,22-40.4,33
		c22.2-10.2,44.7-19.6,67.5-28.2c-14.4,8.8-28.3,18.4-41.6,28.7c12.1-7.2,25.5-12.2,39.4-14.7c-16.5,7.3-31.7,17.4-44.8,29.7
		c8.1-2.9,16.1-5.8,24.2-8.7c-10.1,6.4-19.5,14-27.9,22.5c8.9,0.6,18.1-2.8,24.5-9c-5.5,2.2-10.4,5.7-14.4,10
		c10.5,0.6,21.2-0.2,31.5-2.4c-14.1-1.7-28.7,1.2-41.2,8.1c9.2,0.5,18.4,1,27.7,1.5c-4.6,2.5-8.9,5.6-12.7,9.3
		c15,2.5,30.4,2.5,45.4-0.1c-8.3-0.1-16.5,2.4-23.4,6.9c-0.5-0.1,0.3-0.8,0.5-0.4c0.3,0.4-0.1,0.9-0.4,1.3c-2.6,2.8-5.2,5.5-7.8,8.3
		c6.4-0.3,12.7-0.5,19.1-0.8c-1.7-0.1-3.4,0.4-4.8,1.4c11.4,0.7,22.8,0.4,34.1-1c-14.3-3.2-28.7-6.5-43-9.7c14.5,0.3,29-1,43.1-4.1
		c-9.9-1.5-19.8-3-29.6-4.5c16.4,0.1,32.8-0.7,49.1-2.3c-10.4-2-20.8-4-31.3-6c12.4-1,25,0.1,37,3.3c-21.2,7.8-44,11.3-66.5,10.4
		c20.1,1,40,4.4,59.3,10.1c-18-0.2-36.1-1.3-54-3.1c17.6,1.6,35.2,3.3,52.8,4.9c-16,1.1-32,0.4-47.9-1.9
		c16.2-0.7,32.3-5.7,46.1-14.3c-15.1-3.3-30.4-5.5-45.8-6.7c13.9-1.3,27.8-3.2,41.6-5.5c-16.3-0.6-32.5-1.9-48.7-3.8
		c19.3-1.3,38.6-2.6,57.9-4c-15.9-2-31.7-4-47.6-6c12.4-2.4,24.8-4.7,37.2-7.1c-20.4-3.3-40.8-6.6-61.2-9.9
		c23.3-1.3,46.5-2.3,69.8-2.9c-10.5-2.1-21-4.2-31.4-6.4c10.8-1,21.5-1.9,32.3-2.9c-12-1.3-24-2.6-36-3.9c6-0.6,11.9-1.2,17.9-1.8
		c-14.3,0.1-28.6,0.9-42.8,2.4c9.4-0.9,18.8-1.8,28.2-2.7c-6.5-2-13-3.9-19.5-5.9c15.2-4.6,30.5-8.6,46-12
		c-17.1-2.6-34.2-5.2-51.3-7.8c16-1.6,32-3.2,48-4.7c-14.7-1-29.4-3.2-43.7-6.6c11.2-1.9,22.5-3.8,33.7-5.7
		c-12.9-0.7-25.7-1.4-38.6-2.1c19.6-1.9,39.4-3.2,59.1-3.8c-21.6-0.4-43.2-2.7-64.5-6.7c17.5-4.1,35-8.1,52.4-12.2
		c-13.9,0.4-27.9,0.8-41.8,1.2c12.2-1.7,24.4-3.5,36.6-5.2c-14.1,0.3-28.2-1-42-3.8c12.1-2.2,24.2-4.5,36.4-6.7
		c-17.7-0.4-35.4-1.5-53-3.2c17.6-1.9,35.2-4.4,52.6-7.6c-15.9-0.6-31.8-1.1-47.7-1.7C70.8,41.4,81,41,91.2,40.7
		C84.1,40.5,77,40.2,69.9,40c11.3-7,24.2-11.4,37.5-12.6c-5.2,3.1-10.7,5.5-16.5,7.2c21.9-4.6,43.9-9.2,65.8-13.8
		c-19.3,5.3-38.1,12.3-56.2,20.8c21.1-3.6,42.2-7.2,63.3-10.8c-19.8,6.2-39.5,12.5-59.3,18.7c25.1-2.9,50.2-5.7,75.3-8.6
		c-19.2,8.4-39.1,15.3-59.4,20.6c9.9-0.2,19.9-0.4,29.8-0.6c-8.6,5.6-18.6,9-28.8,9.8c11.5,0.1,23,0.2,34.5,0.3
		c-12,4.2-24.4,7.5-36.9,10c9.4,0.1,18.8,0.3,28.2,0.4c-5.6,3.4-11.9,5.6-18.3,6.5c13.9-0.2,27.7-0.3,41.6-0.5
		c-11.7,2.9-23.5,5-35.4,6.4c9.1-0.1,18.1-0.2,27.2-0.2c-11.4,3.9-23,7-34.8,9.2c14.9,0.6,29.8,1.2,44.6,1.9
		c-12.2,4.5-25,7.3-38,8.3c9,1.8,18.1,3.6,27.1,5.4c-10.8,3.9-21.9,7-33.3,9.2c7.5,0.6,14.9,2.3,21.9,5
		c-11.4,3.4-22.8,6.8-34.2,10.1c20.2,2.2,40.3,5.2,60.3,9c-20.8,1.8-41.8,2.8-62.7,3c19,1.4,37.8,4.3,56.4,8.7
		c-17.5,1-35.1,1.3-52.7,1c21.4,1.5,42.6,4.6,63.5,9.5c-17.5,0.9-35,1.9-52.5,2.8c12.8,3.3,25.5,6.7,38.3,10
		c-11.3,2.1-22.7,4.3-34,6.4c20.8,3.6,41.7,6.7,62.6,9.2c-26.7-1.1-53.4-2.2-80.1-3.3c1.4,1.1,2.9,2.2,4.3,3.3
		c-3.4,3.1-7.6,5.5-12.1,6.7c37,3.8,74.6,7.7,111,0.1c3-0.6,6.9-2.8,5.7-5.7c-16.4-1.6-32.8-3.7-49.1-6.3
		c21.2-2.5,42.4-4.5,63.7-6.2c-23.2-0.9-46.5-1.8-69.7-2.7c9.8-1.9,19.7-2.9,29.6-3c-17.7-0.1-35.3-1.6-52.7-4.4
		c33.8-0.9,67.6-1.7,101.4-2.6c-19.5-1.2-39-3.4-58.3-6.6c8-1.6,16.2-2.4,24.3-2.4c-8.2-0.4-16.3-1.3-24.4-2.5
		c18.5-1.5,36.9-3.1,55.4-4.6c-30.6,1.1-61.3,0.8-92-0.9c24.9-1.9,50-2.5,75-1.6c-27.1-2.5-54-6.5-80.6-12.1
		c27.2-3.4,54.5-5.7,81.9-6.8c-15.2-1.4-30.3-2.9-45.5-4.3c16.1-1.2,32.2-2.3,48.3-3.5c-15.3-1-30.6-3-45.7-5.9
		c10.9-1.9,21.7-3.8,32.6-5.7c-34.2-2.3-68.4-4.6-102.6-6.8c42.1-0.5,84.1-1.1,126.2-1.6c-27.8-0.4-55.6-0.8-83.5-1.2
		c25.1-1.2,50.2-4.1,75-8.5c-17.2-2.1-34.4-3.6-51.6-4.7c11.6-1.7,23.2-3.3,34.8-5c-25.3,0.4-50.7-1.7-75.6-6.4
		c27.5-4,55-7,82.7-9.1c-24.8-0.6-49.8-1.1-74.3-5.7c18.9-2.2,37.6-5.2,56.2-9c-20.6-0.1-41.3-1.3-61.8-3.7
		c25.6-3.4,51.3-6.8,76.9-10.2c-15.8-2.3-31.6-4.7-47.4-7c19.4-5.1,39.3-8.5,59.2-10.3c-19.7,0.9-39.5,0.7-59.2-0.5
		c14.7-1.6,29.3-3.2,44-4.8c-35.8,5.5-72,8.8-108.2,10.1c28.8-3.6,57.6-7.2,86.4-10.8c-0.8,10.7-4.5,21.2-10.7,29.9
		c18.1-0.9,36-4.8,52.9-11.5c-15.3,9.2-29.8,19.5-43.5,30.9c15.9-5.4,31.5-11.4,46.8-18.1c-15.3,12.5-30.5,25-45.8,37.5
		c22.9-8.6,45.4-18.3,67.3-29.2c-15.4,13.7-30.5,27.8-45.3,42.3c17.1-8.6,34.2-17.2,51.4-25.8c-20.1,17.3-40.1,34.6-60.2,51.9
		c21.9-10.9,43.4-22.7,64.3-35.5c-12.1,11.1-23.3,23.2-33.3,36.3c20.3-12.5,40.3-25.4,60-38.9c-17.5,18.2-35.1,36.4-52.6,54.6
		c4.6-3.9,9.2-7.9,13.7-11.8c-20.3,13.9-40.1,28.6-59.4,43.9c21.5-11.3,42.4-24,62.3-37.9c-18,17.6-35.6,35.6-52.8,54
		c15-11.5,30-23,45.1-34.5c-4.5,6.7-9,13.4-13.6,20c14.3-7.5,27.5-17.1,39-28.4c-4.7,3.9-8.7,8.6-11.7,13.9"/>
</g>
</svg>
