<?xml version="1.0" encoding="utf-8"?>
<!-- Generator: Adobe Illustrator 21.0.0, SVG Export Plug-In . SVG Version: 6.00 Build 0)  -->
<!DOCTYPE svg PUBLIC "-//W3C//DTD SVG 1.0//EN" "http://www.w3.org/TR/2001/REC-SVG-20010904/DTD/svg10.dtd">
<svg version="1.0" id="Color" xmlns="http://www.w3.org/2000/svg" xmlns:xlink="http://www.w3.org/1999/xlink" x="0px" y="0px"
	 width="366.5px" height="255.2px" viewBox="0 0 366.5 255.2" enable-background="new 0 0 366.5 255.2" xml:space="preserve">
<path fill="#27AAE1" d="M294,103l-0.5-12.8l59.8-6.2L185,11.4L2.5,96.7l50.8-1.8l2.5,147.5l57-0.4h5.2c0,0,2-0.3,5-0.8l6.8-1.2
	c5.9-1,12.3-2.1,14.4-2.4c2.3-0.3,5.5,1.6,9,3.2l7.3,1.6c0.5-0.1,1-0.2,1.5-0.4l12.5-2.8l4.8-0.7c9.2-1.4,18.7-2.7,20.1-3.4
	c0.3-0.2,0.9-0.3,1.8-0.6c0,0,0,0,0-0.1l4.5-0.8l16.7-2.3l30.8,3.7l5.1-2.1l0,0.3c3.1-1.3,7.1-3,10.2-4.5l8.3,4.9
	c1.2,1.8,23.2,2,23.2,2l-1.5-40.3L294,103z"/>
</svg>
