<?xml version="1.0" encoding="utf-8"?>
<!-- Generator: Adobe Illustrator 21.0.0, SVG Export Plug-In . SVG Version: 6.00 Build 0)  -->
<!DOCTYPE svg PUBLIC "-//W3C//DTD SVG 1.0//EN" "http://www.w3.org/TR/2001/REC-SVG-20010904/DTD/svg10.dtd">
<svg version="1.0" xmlns="http://www.w3.org/2000/svg" xmlns:xlink="http://www.w3.org/1999/xlink" x="0px" y="0px" width="366.5px"
	 height="255.2px" viewBox="0 0 366.5 255.2" enable-background="new 0 0 366.5 255.2" xml:space="preserve">
<g id="Color">
	<path fill="#27AAE1" d="M258.2,233.3c3.1-1.3,7.1-3,10.2-4.5l-9.7-52.7L258.2,233.3z"/>
	<path fill="#27AAE1" d="M117.2,241c0.5,0.7,0.8,1.1,0.8,1.1s3.6-0.6,8.2-1.4l-6.8-69.7L117.2,241z"/>
	<path fill="#27AAE1" d="M200,168.2l10.3,0.7l-4.6,64.8c3.3-0.6,7.3-1.2,11.1-1.7l-5.5-63.1H222L200,168.2z"/>
	<path fill="#27AAE1" d="M248.8,137.1c-6.7,6.9-3.9,30.4-3.4,33.5h0.1l1.5,2.1l-0.3-3c0,0,2.2-17,2.2-32.6H248.8z"/>
	<polygon fill="#27AAE1" points="247.2,172.9 247,172.7 247,173.2 	"/>
	<path fill="#27AAE1" d="M294,103l-0.5-12.8l59.8-6.2L185,11.4L2.5,96.7l50.8-1.8l2.5,147.5l57-0.4l0.9-6.1c0-0.1-4.2-64.9-4.2-64.9
		h0.1l-0.7-5.5c-0.2,0-0.4,0-0.6,0v0.3l-8.5,3l-2-6.7l10.2,0.7v0.1h0.1c0.2,0,0.3,0,0.5,0l-0.4-2.8c0,0,0,0-0.1-0.1l0.1,0.4
		l-16.3-11.6l-5.4-3.8c2-10.1,16.1-27,16.1-27c0.5,0,4.8-0.5,9.8-1.2c0,0,0,0,0-0.1c-0.1-0.2-0.1-0.4-0.1-0.5h-0.2
		c0,0-0.7-3.1-1.2-5.4c-5.1-1.2-9.7-7.2-10.8-15c-0.7-4.4-0.1-8.6,1.3-11.8c-0.1-0.1-0.2-0.1-0.2-0.1h0.3c0.4-0.9,0.9-1.7,1.4-2.5
		c-0.1,0-0.2-0.1-0.2-0.1l0.3-0.1c0.7-0.9,1.4-1.7,2.2-2.3c-0.4-0.1-0.7-0.3-0.7-0.3l1.2-0.1c1-0.6,2-1,3.2-1.2c2.5-0.4,4.8,0.4,7,2
		c1.2,0.9,2.2,2,3.1,3.3c1.9,2.6,3.3,6,3.8,9.8c1.2,7.6-1.3,14.5-5.7,17.3c0.3,1.5,0.1,3.3,0,5c0,0.8,0,1.4,0,1.4H117
		c0,0.1,0,0.1,0,0.2c5.8-0.8,11.2-1.5,11.2-1.5l15.3,18.6l8.2-13.3l1-1.7c-0.1-1.9-0.2-3.1-0.2-3.4l0-0.1c0.2,0,5-0.1,10.9,0.3v-0.1
		h-0.1v-5.5c-3.8-2.6-6.4-8.9-6-16.2c0.5-9.3,5.5-16.6,11.2-16.3s10,8,9.5,17.4c-0.4,7.8-4,14.2-8.5,15.8l-0.7,4.3
		c0.1,0.2,0.1,0.5,0.1,0.8c4.1,0.5,8.2,1.2,11,2.5v-0.1l7.1,29l-1.3,20.2l-4.8-1.3l-0.9-17.6l-2.5-7l-2.6,24.3l4.4,73.1
		c9.2-1.4,18.7-2.7,20.1-3.4c0.3-0.2,0.9-0.3,1.8-0.6c-1-33.2-1.9-65.3-1.9-66.5l-1.2-0.1c0,0,0.4-10.8,0.8-22.5
		c-6.9-1.1-10.1-4.6-10.1-4.6s1.3-2.7,3-6.4l8-17.5c0,0,4.3-0.1,9.9,0.2c0-0.1,0-0.1,0.1-0.2h-0.3v-6.4c-4-2.2-7.1-8.5-7.2-15.8
		c-0.1-9.3,4.3-17,10.1-17.1c5.7-0.1,10.5,7.3,10.6,16.6c0.1,7.4-2.7,13.8-6.8,16.1l-1.1,6.4c0.1,0.2,0.1,0.4,0.1,0.7
		c2.9,0.3,5.8,0.6,8.5,1.2c0.1,0,0.3,0.1,0.4,0.1c0,0,0,0.3,0,0.7c1.6,3.3,7.2,15.7,7.9,26.4l-8.8-0.7c-0.4,12-0.8,23.6-0.8,23.6
		v62.6c3.7-0.3,6.7-0.4,8.2,0c4.5,1.1,19.6,3.3,22.6,3.7l-4.2-45.5h-2.6l-4.3-6.6l-0.6-10.1l0.5-0.2c-9.1-31.3,1.6-49.7,4.5-53.9
		c0-0.1,0-0.2,0-0.4c0-0.6,0.3-1,0.7-1.2v-0.1l6.9-0.8c-0.1-0.3-0.1-0.6,0-0.8l-0.9-4.1c-4-2-7-7.4-7.5-14
		c-0.6-8.5,3.4-15.8,8.9-16.1c5.5-0.4,10.5,6.2,11.1,14.8c0.5,7.2-2.2,13.3-6.3,15.4l0.2,4.3h-0.4c0,0,0,0,0,0.1l7.6-0.9
		c0,0,13.5,11.5,18.3,20L270,156.7c0,0.1,0,0.2,0,0.2c0.1,0,0.1,0,0.2,0l9.8-3l4.7,5c0,0-9,5-9.1,5.1c-0.2,0.1-5.7-2-5.7-2v-0.1
		c-0.1,0-0.2,0-0.3,0c-0.2,2.5-0.4,4.8-0.8,6.9h-0.1c0,0.1,2.2,15.8,4.1,37c0,0,2.8,26.2,4,27.9s23.2,2,23.2,2l-1.5-40.3L294,103z
		 M182.7,184.9l-3.8-9.5l1.8-8.2l4.8,1.3l2,12.4L182.7,184.9z"/>
	<polygon fill="#27AAE1" points="154,164.3 154,164.3 152.7,164.7 150.5,165 150.5,165.5 	"/>
	<path fill="#27AAE1" d="M155.2,164c-0.1-1-0.6-10.6-1.2-21l-0.1,21.3L155.2,164L155.2,164z"/>
	<path fill="#27AAE1" d="M161,238.3h-5.8v-57.4h-2.5l-3.1-6.1l0.8-9.8l0.1,0l-2.6-19c0,0,0.9-6.1,2-13.2l3.4-6.9l-8.7,17.6l-16-15.8
		l1.2,42.1v70.3c5.9-1,12.3-2.1,14.4-2.4c2.3-0.3,5.5,1.6,9,3.2l2.1-2h6.4l-1.2,3.6c0.6-0.1,1.3-0.2,1.9-0.5
		c2.1-0.9,6.8-1.8,12.1-2.7l-10.2-66.8L161,238.3z"/>
	<path fill="#27AAE1" d="M94.2,142.6c-0.7,0.2,12.2,9.7,12.5,10.4l-1.3-24.9C105.5,128.1,95,142.4,94.2,142.6z"/>
	<polygon fill="#27AAE1" points="266,121.7 268.5,148.5 276.8,134.4 	"/>
</g>
<g id="Stroke">
	
		<path opacity="0" fill="none" stroke="#000000" stroke-width="25" stroke-linecap="round" stroke-linejoin="round" stroke-miterlimit="10" d="
		M162.3,9.2c10.2,1.1,20.4,2.3,30.6,3.4c-13,0.8-26.1,1.7-38.5,5.5c22.8,0.6,45.6,0.2,68.4-1c-27.6,6.2-56.2,5.1-84.4,4.1
		c8.9,5,19.6,5.2,29.8,5.3c24.8,0.2,49.6,0.3,74.3,0.5c-37.3,11.6-78,1.6-116.3,9c41.2,0.2,82.4,0.3,123.6,0.5
		c-4.1,4-10.5,4.4-16.3,4.6c-43.3,1.2-86.6,2.3-129.9,3.5c17.1,1.1,34.3,2.3,51.4,3.4c-24.7,8.8-54.1-2.3-77.3,9.9
		c21.5,1.1,42.9,2.1,64.4,3.2c-29.6,10.5-63.2-1.6-93.4,7c16.2,2.7,32.5,5.4,48.7,8.1c-25.5,7.3-53.9-3.7-79.1,5
		c14,3.5,28.6,4.5,43,3C44.9,94.8,21.6,87,4.8,96.9c31.7,4.2,63.6-3.1,94.7-10.4c11.6-2.7,23.2-5.4,34.9-8.1
		C106.7,86,78.7,92.4,50.6,97.7c31.5,8.2,64.5-8.1,97-5.5c-30.1,8.4-61.2,13.3-92.4,14.6c-10,0.4-21.6,1.3-27.2,9.6
		c12.6,1.3,25.3,0.2,37.9-0.9c26.1-2.3,52.2-4.7,78.3-7c-19.5,4-39.1,8-58.6,12c-6.8,1.4-13.8,2.9-19.5,6.8
		c-6.9,4.8-13.7,13.4-21.6,10.5c34.6-4.2,69.4-6.1,104.2-5.6c-25.7,11.1-53.3,17.7-81.2,19.4c-13.1,0.8-26.7,0.6-38.8,5.9
		c41.5,7.2,84.1,8.3,126,3.5c-41.2,11.8-86,7.9-126.3,22.4c40.5,1.4,81,1.4,121.5,0.1c-36.2,6.8-72.5,13.5-108.7,20.3
		c36,3.9,72.4,4.2,108.5,1c-29,22.3-71.9,10.1-105.6,24.5c37.2,9.6,76.4,2.9,114.2-3.8c-26.2,8.8-54,12.6-81.6,11.3
		c44.6,8.3,91,6.9,135-4.2c-5.4-4.4-12.7-5.3-19.6-6c-19.5-2.1-38.9-4.1-58.4-6.2c21.9-5.9,44.5-8.8,67.2-8.6
		c7.7,0.1,17.3-0.6,20.3-7.7c-24.3-1.2-48.6-2.7-72.9-4.7c22.1-9.6,49.3-0.2,70.9-10.8c-21.1-7.5-43.7-9.6-66.1-11.6
		c18.4-0.9,36.8-1.7,55.2-2.6c3.2-0.2,6.7-0.4,9-2.7c-19.7-11.1-45-3.2-66.3-10.7c16.3-2.7,32.5-5.3,48.8-8
		c5.3-0.9,11.5-2.4,13.4-7.4c-18.5-1.8-53,2.2-71.5,0.4c23-1.3,62-8.5,85-9.8c-21.5-15-51.6-5.9-76.6-13.8
		c34-2.7,68.2-3.4,102.3-2.1c-32.7-9.1-67-10.4-100.9-11.6c23.4-8.9,48.9-10.2,73.9-11.4c-32.8,0.4-65.7-0.2-98.5-1.7
		c9-4.5,19.2-5.7,29.2-6.8c14.8-1.7,29.5-3.4,44.3-5.1c-23.8-6.2-48.6-8.5-73.2-6.6c8.3-7.5,20.5-8.3,31.6-8.7
		c16.7-0.5,33.3-0.9,50-1.1c-14.2-4-29-6.3-43.8-6.7c1.2-4.6,6.9-5.9,11.6-6.3c37.5-3.6,75.2-4.6,112.7-3
		c-38,0.4-75.8,11.4-108.2,31.3C215.5,77,249.8,71.8,284,66.6c1.3,3.6-3.3,6.4-7,7.4c-25,7.3-50,14.7-75,22
		c28-4.1,56.2-8.2,84.5-7.3c-24,5.5-48,11-72,16.5c15.7,4.4,32.4,5.3,48.6,2.6c6.1-1,13-2.4,18,1.2c-16.3,15.1-44.3,9.5-61.7,23.4
		c19.3-1.2,38.6-2.5,57.9-3.7c4-0.3,3.7,8.3,5.7,11.7c-23.2,4.3-41.3,0.3-64.5,4.7c-5.8,1.1-13.2,4.3-12.3,10.1
		c35.8,5,72.2,4.6,108.4,4.1c-26,5.1-52,10.2-78,15.2c-10.9,2.1-22,4.3-31.9,9.5c36.1,1,72.3,0.4,108.4-1.8
		c-30.9,13.9-68.1,11-97.2,28.3c21.5,3.9,43,7.8,64.5,11.8c-30.2,6.8-62.1-2.3-92.6,3c42.3,15.5,91.5,10.9,130.3-12
		c-20.8-9.6-44.1-13.6-66.9-11.3c16.6,4.2,32.6,10.6,47.6,18.8c-4.1,6.3-8.3,12.7-12.4,19c14.3-8.5,29.4-17.9,36.2-33
		c1.3-2.9,2.3-6.2,1.6-9.4c-0.6-2.6-2.4-4.8-4.2-6.8c-6.4-7-14-12.9-22.4-17.3c2.5-7,5.7-13.7,9.5-20c-5.6-1.3-11.2-2.6-16.8-3.9
		c8.6-6.6,17.2-13.2,25.9-19.8c-14-2.9-28-5.8-42-8.7c7.4-1.8,14.4-5,20.7-9.3c-7.1-3-14.2-6.1-21.3-9.1c4.3-2.1,8.6-4.2,12.8-6.3
		c-4.7,1-9.4,2-14.1,3c9.5-8,16.9-18.6,21.1-30.3c-2.4,10.1-5.6,20-9.8,29.5C295,83,305.2,66.4,313.8,48.9
		c-7.5,18.7-13.7,37.9-18.6,57.4c9.6-15.6,20.7-30.1,33.2-43.5c-5.1,11.1-10.6,22-16.6,32.7c10.5-11.8,21.9-22.9,33.9-33.2
		c-3.9,8.3-7.8,16.6-11.8,24.8c6.2-4.9,12.4-9.7,18.6-14.6c-0.6,4.8-1.3,9.5-1.9,14.3c5-4.7,9-10.4,11.9-16.6
		c0.8-1.7,1.5-3.7,0.9-5.5c-0.6-1.8-2.5-2.9-4.2-3.8c-25.3-12.1-55.8,0.8-83.2-5.1"/>
</g>
</svg>
