<?xml version="1.0" encoding="utf-8"?>
<!-- Generator: Adobe Illustrator 19.2.1, SVG Export Plug-In . SVG Version: 6.00 Build 0)  -->
<svg version="1.0" id="Layer_1" xmlns="http://www.w3.org/2000/svg" xmlns:xlink="http://www.w3.org/1999/xlink" x="0px" y="0px"
	 width="288px" height="288px" viewBox="0 0 288 288" enable-background="new 0 0 288 288" xml:space="preserve">
<ellipse transform="matrix(0.1834 -0.983 0.983 0.1834 27.8263 236.5878)" fill="none" stroke="#000000" stroke-width="2" stroke-miterlimit="10" cx="156.3" cy="101.5" rx="15.2" ry="9.9"/>
<polyline fill="none" stroke="#000000" stroke-width="2" stroke-miterlimit="10" points="148.7,114.1 146.7,118.2 151.8,121.1 
	153.5,116.5 "/>
<path fill="none" stroke="#000000" stroke-width="2" stroke-miterlimit="10" d="M151.4,150.1c-1.9,9.7-3.6,18.5-3.6,18.5
	s-19.2,0.4-24.7-6.7c0,0,3.8-29,16.2-46.9c0,0,11.9,4.5,16.9,9.8c0,0-1.3,7-3,15.3"/>
<path fill="none" stroke="#000000" stroke-width="2" stroke-miterlimit="10" d="M148.4,124.7c0,0,3.8,14.2,6.6,17.8
	c0,0,7.9-2.1,13.9-10.6l3.2,1.8c0,0-4.4,18.6-23.8,17.1c0,0-8.2-9.8-8.7-20.2"/>
<path fill="none" stroke="#000000" stroke-width="2" stroke-miterlimit="10" d="M168.9,131.8l-0.6-7.1l1.8-1l2.5-7.6l2.6,0.9
	c0,0,1.1,5.6,0.9,8.6s-3.9,7.8-3.9,7.8"/>
<path fill="none" stroke="#000000" stroke-width="2" stroke-miterlimit="10" d="M172.1,116.1h-2.3l-2.6,6.1h-1.8v8.4
	c0,0-4.8,7.3-11.1,6.8"/>
<line fill="none" stroke="#000000" stroke-width="2" stroke-miterlimit="10" x1="166.1" y1="130.8" x2="168.2" y2="132.1"/>
<line fill="none" stroke="#000000" stroke-width="2" stroke-miterlimit="10" x1="155" y1="142.4" x2="148.4" y2="150.7"/>
<path fill="none" stroke="#000000" stroke-width="2" stroke-miterlimit="10" d="M147.8,168.6l10,21.7c0,0-33.2,7.7-53-9.4l2.5-6
	c0,0,21.2,10.4,37.2,2.2"/>
<path fill="none" stroke="#000000" stroke-width="2" stroke-miterlimit="10" d="M123.1,161.9c0,0-3.3,12.1,6.2,18.4"/>
<polyline fill="none" stroke="#000000" stroke-width="2" stroke-miterlimit="10" points="107.4,174.9 103.9,172.7 91,190.5 
	101.1,193 105.7,182.3 "/>
<path fill="none" stroke="#000000" stroke-width="2" stroke-miterlimit="10" d="M106.4,173.3l2.4-2.2c0,0,6.9,5.5,16.6,5.4"/>
<polyline fill="none" stroke="#000000" stroke-width="2" stroke-miterlimit="10" points="102.2,190.5 107.4,188.6 109.1,184 "/>
</svg>
