<?xml version="1.0" encoding="utf-8"?>
<!-- Generator: Adobe Illustrator 21.0.0, SVG Export Plug-In . SVG Version: 6.00 Build 0)  -->
<!DOCTYPE svg PUBLIC "-//W3C//DTD SVG 1.0//EN" "http://www.w3.org/TR/2001/REC-SVG-20010904/DTD/svg10.dtd">
<svg version="1.0" xmlns="http://www.w3.org/2000/svg" xmlns:xlink="http://www.w3.org/1999/xlink" x="0px" y="0px" width="500px"
	 height="500px" viewBox="0 0 500 500" enable-background="new 0 0 500 500" xml:space="preserve">
<g id="People">
	<path d="M485.9,219.8l-10.8,1.2l-1.3,2.9L472,225l-4.8-7.7L454.5,206l-0.4-2.4l7.6-14.9l0.8-6.6l2.2,0.4l1.7,1.8l7.3,1.8l4.4-6.3
		l-3.6-10.9l-7.7-2.3l-4.7,6.5l-0.1,1.1l-1.7,1.5l-5.5-6l-15.2-8.4l-1.4-3.1l4.1-16.4l-0.8-5.8l8.7,2.4l5.9-7.8l-6.3-10.2l-7.5-0.5
		l-3.4,6.9l0.2,1.9l-1.4,1.8l-6.8-4.7l-16.5-4.7l-1.9-2.7l0.2-17.9l-1.6-2.7l-0.4-1.9l2.2-0.4l2.1,0.8l8.9-8.1l-9.6-9.7l-8.2,8.8
		l-0.2,3.8l-3.1-1.7l-21.9-2.2l-2.3-2l-3.3-16.2l-3.5-5.5l2.1-0.9l4.8,0.1l4.8-7.9l-13.6-8.9l-3.9,11.1l0.2,2.9l-1.4,0.3l-9.8-1.1
		l-14.1,2.5l-2.8-1.6L331.6,45l-4.6-4.6l1.8-1.3l4.2-0.8l3.5-8.8l-15.8-5.6l-3,8.6l2.7,3.6l0.1,2.2l-8.1,0.5l-16.2,6.7l-2.8-0.8
		L283,31.1l-5-3.1l8.1-7.3l-2.5-6.7l-13.8-1.6L268.7,24l1.7,1.1l0.8,2.3l-7.3,2.1l-14,9.9l-4.2-0.1l-12.6-10.5l-5.5-1.7l1.2-2.2
		l3-2.2l-1.2-10.3l-3.6-1.6h-6l-5.2,2.9l1.4,11.1l2.6,1.1l1.1,1.8l-7.7,4.8L201.9,45l-2.7,0.5l-14.8-7.5l-6.6-0.8l0.4-2.2l1.8-1.7
		l1.7-7.3l-6.3-4.4l-10.9,3.6l-2.3,7.7l6.5,4.7l1.1,0.1l1.5,1.7l-6,5.5l-8,14.3l-4.4,1.9l-15.5-3.8l-5.8,0.8l2.4-8.7l-8-5.9
		l-9.6,5.6l-0.9,8.3l10,3.6l-0.3,2.3l-4,5.3L116.7,85l-2.7,1.9l-17.9-0.2l-2.8,1.7l-1.8,0.3l-0.5-2l0.9-2.5l-8.3-8.7l-9.5,9.5
		l8.8,8.2l3.8,0.2l-1.7,3.1l-2.2,21.9l-2,2.3l-16.2,3.3l-5.5,3.5l-1-2.1l0.1-4.8l-7.9-4.8l-8.9,13.6l8.8,5.1l3.2-1.7l2.2,0.4
		l0.2,1.3l-1.1,10l2.4,13.9l-1.5,2.8L40.8,168l-4.6,4.6l-1.3-1.8l-0.6-3.5l-10.3-3.6l-5.1,13.4l11.5,3.4l3.6-1.4l-0.1,6.3l7.4,17.9
		l-0.8,2.8l-13.8,10.5l-2.9,5l-1.8-1.8l-0.1-0.5l-6.1-5.9l-7.6,4.8l0,11.9l11.4,0.9l1.3-1.9l2.3-0.7l2,7.3l10,14.1l-0.1,4
		l-10.6,12.7l-1.7,5.5l-2.2-1.2l-2-2.9l-10.4,1.1l-1.7,3.6v6l3.1,5.4l10.8-1.2l1.3-2.9l1.8-1l4.8,7.7l12.7,11.3l0.4,2.4l-7.6,14.9
		l-0.8,6.6l-2.2-0.4l-1.7-1.8l-7.3-1.7l-4.4,6.3L21,335l7.7,2.3l4.7-6.5l0.1-1.1l1.7-1.5l5.5,6l15.3,8.5l1.2,2.8L53,361.6l0.8,6.2
		l-2.3-0.1l-6.2-2.3l-6.1,7.8l6.4,10.3l7.5,0.4l3.2-6.8l-0.2-2.1l1.4-1.6l7,4.8l16.3,4.6l1.9,2.7l-0.2,17.9l1.7,2.8l0.3,1.8l-2,0.5
		l-2.5-0.9l-8.8,8.3l9.5,9.5l8.3-8.8l0.2-3.8l3.1,1.7l22.1,2.2l2.1,2l3.3,16.4l3.4,5.3l-2.1,1l-4.8-0.1l-4.8,7.9l13.6,8.9l4-11.1
		l-0.2-2.9l1.4-0.3l9.8,1.1l14.1-2.5l2.8,1.5l6.7,14.9l4.6,4.6l-1.8,1.3l-5.2,1.3l-2.5,8.3l15.8,5.7l3-8.6l-2.7-3.6l-0.1-2.2
		l8.1-0.5l16.2-6.7l2.8,0.8l10.5,13.8l5,3.1l-1.7,1.6l-0.5,0.1l-5.9,6.1l4.8,7.6l11.9,0l0.9-11.4l-1.9-1.3l-0.8-2.3l7.3-2.1
		l13.9-9.8l4.5,0.1l12.5,10.3l5.5,1.7l-1.2,2.2l-3,2.2l1.2,10.3l3.6,1.6h6l5.2-2.9l-1.4-11.1l-2.6-1.1l-1-1.8l7.7-4.8l11.2-12.5
		l2.5-0.6l15.3,7.8l6.2,0.6l-0.6,2.3l-1.5,1.4l-1.9,7.3l6.2,4.6l11.1-3.6l2.3-7.7l-6.5-4.6l-0.9-0.1l-1.7-1.7l5.9-5.3l8.5-15.3
		l2.9-1.3l16.1,4.1l6.3-0.9l0.1,2.3l-2.4,6.4l7.9,6l10.2-6.3l0.5-7.5l-6.9-3.3l-1.7,0.2l-1.9-1.4l4.7-6.6l4.7-16.7l2.6-1.9l17.9,0.2
		l4.6-2.1l0.5,2.3l-0.8,2.1l8.2,8.9l9.6-9.4l-8.9-8.3l-3.8-0.3l1.7-2.9l2.3-22.1l1.9-2.2l16.8-3.4l5.1-3.3l0.8,2.4l0,4.5l8,4.8
		l8.8-13.5l-11.1-4.1l-3,0.2l-0.3-1.3l1.1-9.8l-2.5-14.1l1.7-2.9l14.4-6.5l5-4.8l1.3,1.6l0.8,4.4l9.2,3.4l5.4-15.5l-10.9-1.8
		l-3.6,1.4l0-6.5l-7.3-17.8l0.7-2.8l13.8-10.5l3.1-5l1.6,1.7l2.3,4.4l8.7,0.7l1.9-16.8l-10,0.1l-1.6,2.3l-2.3,0.8l-2.1-7.3l-9.9-14
		l0.1-4.2l10.5-12.6l1.7-5.5l2.2,1.2l2.2,3l10.3-1.3l1.7-3.6v-6L485.9,219.8z M455.3,188.7l-7.7,16.2l0.6,2.9l13.2,12.1l0.8,1.2
		l-0.9,0.5l-40.9,2l-2.7-2.3l-3.3-14.5l1.3-2.9L455.3,188.7z M419.3,231.2l1.3-1.4l20.6,1.3l-19.9,5.7l-1.6-0.9L419.3,231.2z
		 M424.1,269.6l16.4,4.9l-0.1,0.3l-18.4,1.1l-2.7-3.1L424.1,269.6z M413.5,198.7l-1.7-0.5l-1.5-4.6l0.9-1.6l19.3-3.1l0.5,0.2
		L413.5,198.7z M434.7,144.9l1-0.2l0.1,1.6l-3.5,14.8l1.5,3.3l15.2,8.7l1.2,1.2l-40.7,11.9l-2.6-1.2l-6.9-14.4l0.6-2.5L434.7,144.9z
		 M397.9,162.8l-2.4-0.3l-2.2-3.5l0.7-2.1l18.3-6.9L397.9,162.8z M407.3,104.9l0.1,17.7l1.9,2.6l18.3,5.9l-1.2,1.3l-35.7,19.6
		l-2.5-0.4l-10-12.7l0.1-2.8L407.3,104.9z M374.1,131.8l-2.3,0.2l-2.9-2.9l0.3-2.4l16.3-11.4l0.3,0.2L374.1,131.8z M370.7,72.9
		l4,17.5l2.2,1.8l19.7,1.7l-31.8,28.4l-2.9,0l-12.3-9.9l-0.6-2.6L370.7,72.9z M343.1,107.5l-5.3-3l0.2-1.4l13.8-14.7L343.1,107.5z
		 M327.8,50.5l7.5,15.1l3.4,1.9l16.5-2.6l2.1,0.2l-0.7,1.8l-23.8,33.1l-2.2,0.5l-14.5-7.1l-1.2-2.6L327.8,50.5z M280.6,38.7l0.5-0.9
		l0.9,0.6l10,12.7l3,0.8l18.5-7.1l-16.2,39.3l-3.1,1.5l-14.8-3.5l-1.8-1.8L280.6,38.7z M312.4,69.2l-3.1,20.1L308,90l-1.6-0.6
		l-2.1-5.8L312.4,69.2z M271.6,78.1l-2.6,2.4l-3.5-0.5l-1-1.3l6-19.5L271.6,78.1z M232.7,35.9l1.3,0.6l12.4,10.1l2.7,0.1l16.3-10.8
		l0.2,2l-7,40l-1.9,1.5l-8.1,0l0-0.1l-8.1,0l-2.1-1.6l-6-40.3L232.7,35.9z M226.8,58.4l5.7,19.9l-1.2,1.6l-3.9,0.4l-1.9-1.7
		L226.8,58.4z M184.9,44.2l16,7.9l2.3-0.5l12.4-13.4l1.7,0.1l2.1,40.9l-2.2,2.7l-14.7,3.3l-2.7-1.3l-15.2-39.2L184.9,44.2z
		 M194.5,86.4l-0.5,1.4l-4.8,1.6l-1.5-0.8l-3-19.7L194.5,86.4z M142.1,63.8l15,3.6l2.9-1.2l8.8-15.4l1.2-1.2l0.8,1.4L182,90.9
		l-0.9,1.6l-15.3,7.3l-1.9-0.5l-23.1-33.9l-0.4-1.5L142.1,63.8z M156.9,100l-0.8,5.5l-4.1-1.2l-6.7-16.5l0.4-0.3L156.9,100z
		 M118.5,92.3l2.3-1.8l5.2-17.1l0.8-1.4l1.1,1.1l19.7,35.7l-0.7,2.9l-12.4,9.8l-2.7,0l-31.2-29.2L118.5,92.3z M127.8,127.6l-3.2,3.2
		l-2.1-0.2l-11.5-16.5l0.2-0.3l16.5,11.8L127.8,127.6z M86,125l2.1-2.5l1.6-19.2l1.8,1.2l26.7,30.3l0,2.9l-9.9,12.3l-2.8,0.5
		L68.7,129L86,125z M102.9,157.6l-1.7,2.7l-3.4,0.5l-13.9-12.6l18.4,7.2L102.9,157.6z M46.3,171.5l15.3-7.3l1.7-3l-2.7-17.1l0.2-1.9
		l1.7,0.7l33.3,23.9l0.5,2.2l-7.1,14.5l-2.4,1.2l-40.5-12.7L46.3,171.5z M85.7,192l-1.6,4.4l-1.5,0.7L65,186.8l19.5,3.4L85.7,192z
		 M47.2,207.5l0.6-2.6l-6.6-16.6l-0.2-1.7l1.6,0.2l37.8,15.8l1.1,2.3l-3.6,15.4l-2.1,1.8l-42.1-3.2l-0.3-0.5L47.2,207.5z
		 M75.8,233.8l-1.9,1.3l-19-5.7l0-0.2L74,228l2.2,2.6L75.8,233.8z M76.1,272.5l-1.7,1.7l-20.4-1.3l20.2-5.8l1.5,1.1L76.1,272.5z
		 M31.6,267l0.6-1.3l10.1-12.4l0.1-2.7l-10.2-14.7l-0.6-1.6l1.8-0.2l40,7l1.6,2l0,8.1l-0.1,0l0,8.1l-1.7,2l-40.3,6L31.6,267z
		 M40.3,315.2l7.4-16l-0.5-3l-13.3-12.2l-0.7-1l1.1-0.6l40.2-2l3.4,2.7l3.3,14.1l-1.3,2.7L40.3,315.2z M82,305.2l1.5,0.6l1.5,4.6
		l-0.7,1.6l-19.9,2.8L82,305.2z M60.7,359l-1,0.2l-0.1-1.6l3.5-14.8l-1.5-3.3l-15.2-8.7l-1.3-1.3l40.6-11.7l2.9,1.3l6.7,14.1
		l-0.7,2.8L60.7,359z M98,340.7l1.7,0.3l2.6,4.1l-0.6,1.7l-18.4,7.2L98,340.7z M88.1,399L88,381l-1.7-2.2l-17.1-5.2l-1.5-0.9
		l1.2-1.1l35.7-19.6l2.8,0.7l9.9,12.5l0,2.5L88.1,399z M121.2,372.1l2.3-0.1l2.9,2.9l-0.2,2.3l-16.7,11.3L121.2,372.1z M124.7,431.1
		l-4-17.5l-2.3-2L99.1,410l0.8-1.5l30.7-27.1l2.7,0l12.4,10l0.5,2.7L124.7,431.1z M151,397.8l2.8-0.9l4,2.9l-13.7,15.9l0-0.9
		L151,397.8z M167.9,453l-0.6,0.6l-7.6-16l-2.2-1.2l-19.4,2.6l0.6-1.8l23.8-33.1l2.3-0.5l14.4,7l1.3,2.7L167.9,453z M217.8,425.9
		l-0.1,0l-3,39.3l-0.5,0.9l-0.9-0.6l-10-12.7l-3-0.8l-18,6.9l0.1-1.5l15.8-37.8l2.6-1.2l15.2,3.6l1.8,2.4L217.8,425.9z M183,434.7
		l3-19.9l1.6-0.8l4.4,1.6l0.7,1.8L183,434.7z M224.9,444.6l-1.1-18.5l2.9-2.6l0.4,0.1l3.1,4.6l-4.9,16.5L224.9,444.6z M262.8,468
		l-1.3-0.5l-12.4-10.1l-2.8-0.1L230,468l-0.2-1.9l7-40l2.1-1.5l7.9,0l0,0.1l8.1,0l2.1,1.6l6,40.5L262.8,468z M268.6,444.9l-0.2,0.1
		l-5.4-19.3l1.2-1.8l4.1-0.4l1.6,1.5L268.6,444.9z M310.4,459.7l-15.8-7.8l-2.6,0.6l-12.3,13.3l-1.7-0.1l-2-40.9l2.3-2.7l14.5-3.3
		l2.9,1.3l15.2,39.2L310.4,459.7z M310.5,435.1l-9.6-17.4l0.6-1.6l4.8-1.6l1.5,0.9L311,435L310.5,435.1z M247.7,420.5
		c-93.4,0-169.1-75.7-169.1-169.1S154.3,82.3,247.7,82.3S416.8,158,416.8,251.4S341.1,420.5,247.7,420.5z M413.1,306.9l17.4,9.7
		l-19.9-3l-0.9-1.6l1.6-4.4L413.1,306.9z M372.7,373l12,17.3l-17.1-12.1l-0.2-1.8l3.6-3.6L372.7,373z M342.5,397.7l7.2,18.8
		l-12.9-14.3l0.3-2.4l3.8-2.4L342.5,397.7z M354,440.3l-15.9-3.8l-2.6,1.2l-9.9,16.8l-0.9-1.5l-11.2-39.2l1.1-2.5l14.6-6.9l2.3,0.6
		l23.2,34.1l0.2,1.2L354,440.3z M376.9,411.7l-2.3,1.8l-5.9,18.5l-1.1-1.1l-19.7-35.7l0.7-2.9l12.4-9.8l2.7,0l31.2,29.2L376.9,411.7
		z M409.5,378.9l-2.2,2.5l-1.5,19l-1.4-0.6l-27.2-30.6l0-3l9.8-12.2l2.8-0.7l37,21.6L409.5,378.9z M392.4,346.2l7.2-1.3l11.8,10.8
		l-0.2,0.4l-18-7.6L392.4,346.2z M433.8,339.7l-1.6,2.9l2.7,17.3l-0.4,2l-34.5-24.5l-0.6-2.5l6.9-14.2l2.9-1.4l39.3,12.3l0.7,0.7
		L433.8,339.7z M448.2,296.4l-0.6,2.6l6.6,16.6l0.2,1.7l-1.6-0.2L415,301.3l-1.1-2.3l3.6-15.4l2.1-1.8l42.1,3.2l0.3,0.5L448.2,296.4
		z M463.2,238.2l-10.1,12.4l-0.1,2.7l10.1,14.6l0.7,1.8l-2,0.1l-39.8-7l-1.6-2l0-8.1l0.1,0l0-8.1l1.7-2l40.3-6l1.4,0.3L463.2,238.2z
		"/>
</g>
<g id="Stroke">
	
		<path opacity="0" fill="none" stroke="#28FFFC" stroke-width="63" stroke-linecap="round" stroke-linejoin="round" stroke-miterlimit="10" d="
		M83.2-6.6C219.1,7.5,355.1,20.3,491.2,31.8c-33.5,7.3-68,7.6-102.2,7.6C245.6,39.5,100.5,36-39.3,68c33.2,5.4,66.9,8,100.5,10.5
		c55.7,4.2,111.5,8.3,167.4,8.3c99.1-0.1,200.1-13.4,296.1,11.2c-40.8,11.6-83.7,13.6-126.1,14.4c-130.3,2.7-262.2-3.9-389.5,24
		c-31.7,7-64.3,16.7-88.2,38.7c190.2-2.5,380.3-5,570.5-7.5c28.1-0.4,58-0.3,82,14.4c-111.1,37.7-231.6,29.3-349,30.5
		c-98.4,1.1-196.6,9.2-294.6,17.4c152.9,27.2,308.8,36.9,463.9,28.9c58.9-3,118.2-8.6,176.6-0.8c-34.3,24.8-76.1,37.5-118.1,43
		s-84.5,4.2-126.8,3.3c-110.1-2.3-220.2-1.8-330.3,0.2c-23.5,0.4-51.3,3.4-62.6,23.9c52.1,11.1,106.1,8.4,159.3,6.4
		c148.1-5.6,296.5-5.5,444.6,0.2c1,5.9-5.6,10.1-11.1,12.4C437,383.1,338,374.9,242.6,377c-72.7,1.6-145.3,9.4-216.6,23.5
		c11.9,8,26.5,10.5,40.7,12.4c154.7,21.1,312.7-4.6,467.7,13.8c-42.3,20.6-91.1,22.1-138.1,23.1c-93.7,2-187.5,4.1-281.2,6.1
		c-5.9,0.1-13.6,2-13.8,7.8c-0.2,5.6,6.9,8.2,12.5,8.9c92.8,12,190.7-17,278.7,14.5c-42.8,15.5-89.6,13.3-134.7,19.1
		c-48,6.1-94.7,21.6-136.9,45.2"/>
</g>
</svg>
