<?xml version="1.0" encoding="utf-8"?>
<!-- Generator: Adobe Illustrator 21.0.0, SVG Export Plug-In . SVG Version: 6.00 Build 0)  -->
<!DOCTYPE svg PUBLIC "-//W3C//DTD SVG 1.0//EN" "http://www.w3.org/TR/2001/REC-SVG-20010904/DTD/svg10.dtd">
<svg version="1.0" xmlns="http://www.w3.org/2000/svg" xmlns:xlink="http://www.w3.org/1999/xlink" x="0px" y="0px" width="288px"
	 height="288px" viewBox="0 0 288 288" enable-background="new 0 0 288 288" xml:space="preserve">
<g id="Color">
	<rect x="28.3" y="29" fill="#27AAE1" width="228" height="228"/>
</g>
<g id="Stroke">
	
		<path opacity="0" fill="none" stroke="#000000" stroke-width="44" stroke-linecap="round" stroke-linejoin="round" stroke-miterlimit="10" d="
		M17,8.1c92.6,3.9,185.3,7.8,277.9,11.8c4,0.2,8.7,0.8,10.7,4.3c-22.2,9.6-47.1,10.8-71.3,11.1c-57.5,0.6-115.2-2.9-172.5,2.1
		C22.9,40.7-15.6,48-53,59.1c98.2-3.8,196.4-4.4,294.6-2c17.1,0.4,34.3,0.9,51.1,4.2C191.6,85.2,85.8,71.6-17.7,80.2
		c88,13.4,177.3,18.2,266.3,14.2c16.2-0.7,33.1-1.7,48.2,4.2c-103.5,16-210.3,7.2-312.2,31.2c1.7,4.3,7.2,5.3,11.8,5.7
		c48.6,4.2,97.4,6.4,146.2,6.5c39.6,0.1,79.6-1.1,118.5,6.3c2.5,0.5,5.5,1.3,6.4,3.7c1.6,4.3-4.3,7.3-8.9,7.9
		c-17.8,2.4-35.9,2.7-53.8,3.1c-62.9,1.3-125.7,2.6-188.6,3.9c-17.3,0.4-36,1.1-49.8,11.7c111.6,17.3,229.7-11.7,336.6,24.7
		c-9.6,6.8-22,7.8-33.8,8.5c-86,4.8-172.4,3.6-258.3-3.7c-13.5-1.1-29.4-1.5-38,9c58.7,9.9,117.7,19.9,177.3,20.2
		c48.3,0.3,96.8-5.7,144.8-0.3c1.7,1.8-1.7,4.1-4.2,4.3c-98.1,9-198.9-0.2-293.5,27.2c40.1-3.1,80.2-6.1,120.2-9.2
		c21.2-1.6,42.6-3.2,63.7-0.5c27.7,3.6,54,14.7,81.6,18.5"/>
</g>
</svg>
