<?xml version="1.0" encoding="utf-8"?>
<!-- Generator: Adobe Illustrator 19.2.1, SVG Export Plug-In . SVG Version: 6.00 Build 0)  -->
<svg version="1.0" id="Layer_1" xmlns="http://www.w3.org/2000/svg" xmlns:xlink="http://www.w3.org/1999/xlink" x="0px" y="0px"
	 width="432px" height="432px" viewBox="0 0 432 432" enable-background="new 0 0 432 432" xml:space="preserve">
<polygon fill="none" stroke="#000000" stroke-width="2" stroke-miterlimit="10" points="175,308.5 144.5,292.5 144.5,125 175,141 
	"/>
<polyline fill="none" stroke="#000000" stroke-width="2" stroke-miterlimit="10" points="175,141 288,141 288,308.5 175,308.5 "/>
<polyline fill="none" stroke="#000000" stroke-width="2" stroke-miterlimit="10" points="144.5,125 266.5,125 288,141 "/>
<line fill="none" stroke="#000000" stroke-width="2" stroke-miterlimit="10" x1="151.5" y1="128.7" x2="271" y2="128.7"/>
<line fill="none" stroke="#000000" stroke-width="2" stroke-miterlimit="10" x1="159.8" y1="133" x2="277.2" y2="133"/>
<line fill="none" stroke="#000000" stroke-width="2" stroke-miterlimit="10" x1="168" y1="137.3" x2="281.5" y2="137.3"/>
<rect x="186.5" y="214.9" fill="none" stroke="#000000" stroke-width="2" stroke-miterlimit="10" width="6" height="28.8"/>
<path fill="none" stroke="#000000" stroke-width="2" stroke-miterlimit="10" d="M195.5,215c2-2.5,35.5-24,35.5-24v68.5l-35.5-16V215
	z"/>
<path fill="none" stroke="#000000" stroke-width="2" stroke-miterlimit="10" d="M242.5,207.5c0,0,9.5,20.2,0,35.5"/>
<path fill="none" stroke="#000000" stroke-width="2" stroke-miterlimit="10" d="M254.8,199.3c0,0,9.5,29.7,0,52"/>
<path fill="none" stroke="#000000" stroke-width="2" stroke-miterlimit="10" d="M266.8,187.5c0,0,9.5,43.1,0,75.5"/>
</svg>
