<?xml version="1.0" encoding="utf-8"?>
<!-- Generator: Adobe Illustrator 21.0.0, SVG Export Plug-In . SVG Version: 6.00 Build 0)  -->
<!DOCTYPE svg PUBLIC "-//W3C//DTD SVG 1.0//EN" "http://www.w3.org/TR/2001/REC-SVG-20010904/DTD/svg10.dtd">
<svg version="1.0" id="Layer_1" xmlns="http://www.w3.org/2000/svg" xmlns:xlink="http://www.w3.org/1999/xlink" x="0px" y="0px"
	 width="432px" height="432px" viewBox="0 0 432 432" enable-background="new 0 0 432 432" xml:space="preserve">
<path fill="none" stroke="#000000" stroke-width="1.6" stroke-miterlimit="10" d="M78.1,282c0,0,138.8,45.9,286.2,0V131.1
	c-147.5,45.9-286.2,0-286.2,0L78.1,282L78.1,282z"/>
<line fill="none" stroke="#000000" stroke-width="1.6" stroke-miterlimit="10" x1="81.5" y1="138.3" x2="62.2" y2="113.6"/>
<line fill="none" stroke="#000000" stroke-width="1.6" stroke-miterlimit="10" x1="81.5" y1="277.5" x2="62.2" y2="293.4"/>
<line fill="none" stroke="#000000" stroke-width="1.6" stroke-miterlimit="10" x1="357.6" y1="138.5" x2="377" y2="113.6"/>
<line fill="none" stroke="#000000" stroke-width="1.6" stroke-miterlimit="10" x1="357.6" y1="277.5" x2="377" y2="293.4"/>
<path fill="none" stroke="#000000" stroke-width="1.6" stroke-miterlimit="10" d="M86.3,45.9c0,0,91.3,88.6,265.3,84.6"/>
<path fill="none" stroke="#000000" stroke-width="1.6" stroke-miterlimit="10" d="M351.6,45.9c0,0-91.3,88.6-265.3,84.6"/>
<polygon fill="none" stroke="#000000" stroke-width="1.6" stroke-miterlimit="10" points="225.8,63.4 219.2,72.3 227,74.2 "/>
<polygon fill="none" stroke="#000000" stroke-width="1.6" stroke-miterlimit="10" points="110.6,99 117.9,94.3 120.6,109.2 "/>
<path fill="none" stroke="#000000" stroke-width="1.6" stroke-miterlimit="10" d="M60.7,208.3l7,2.7c0,0-7.9,11-7.9,10.1
	C59.8,220.1,60.7,208.3,60.7,208.3z"/>
<path fill="none" stroke="#000000" stroke-width="1.6" stroke-miterlimit="10" d="M302.7,302.5l7,2.7c0,0-7.9,11-7.9,10.1
	C301.8,314.4,302.7,302.5,302.7,302.5z"/>
<polygon fill="none" stroke="#000000" stroke-width="1.6" stroke-miterlimit="10" points="115.2,301.9 106,315.9 115.2,315.9 "/>
<polygon fill="none" stroke="#000000" stroke-width="1.6" stroke-miterlimit="10" points="173.1,313 183.3,313 180.5,325.1 "/>
<polygon fill="none" stroke="#000000" stroke-width="1.6" stroke-miterlimit="10" points="235.5,330.2 233.7,343.2 246.4,340 "/>
<polygon fill="none" stroke="#000000" stroke-width="1.6" stroke-miterlimit="10" points="167.7,45.9 178.6,45.9 173.1,58.4 "/>
<polygon fill="none" stroke="#000000" stroke-width="1.6" stroke-miterlimit="10" points="223.4,126.3 217.4,138 228.1,138 "/>
<polygon fill="none" stroke="#000000" stroke-width="1.6" stroke-miterlimit="10" points="313.5,96.3 309.7,107.2 328.2,103.6 "/>
<polygon fill="none" stroke="#000000" stroke-width="1.6" stroke-miterlimit="10" points="326.7,323.2 332.2,317.2 339.3,328 "/>
<polygon fill="none" stroke="#000000" stroke-width="1.6" stroke-miterlimit="10" points="374.7,219.8 383.6,204.8 385.3,222.3 "/>
<polygon fill="none" stroke="#000000" stroke-width="1.6" stroke-miterlimit="10" points="161.1,97 159.1,106.5 171.1,104.3 "/>
</svg>
