<?xml version="1.0" encoding="utf-8"?>
<!-- Generator: Adobe Illustrator 19.2.1, SVG Export Plug-In . SVG Version: 6.00 Build 0)  -->
<svg version="1.0" xmlns="http://www.w3.org/2000/svg" xmlns:xlink="http://www.w3.org/1999/xlink" x="0px" y="0px" width="432px"
	 height="432px" viewBox="0 0 432 432" enable-background="new 0 0 432 432" xml:space="preserve">
<g id="Layer_2">
	<path fill="#FFFFFF" d="M294.7,303l18.1-4.3l-15.9-90l7.7,2.1l3.3-6.4l-11-1.1l8.7-27.8l-12.1-19.4l-0.9-0.8h-8.4l-0.7-3.2
		l15.9-1.8c0,0,1.9-19.2-1.4-26.1c-3.3-6.9-4.1-19.8-20.8-18.6c0,0-11,2-14.9,13.9c-3.9,11.9-4.2,20.4-4.2,20.4l0.2,11.5l17.1,1.4
		c0,0,1.1,2.4,0,2.4s-9.1,0-9.1,0l-8.2,29.9l2.7,39.2l-1,7l1.7,6.1l-6,61.2c0,0,10,5.2,21.3,5.2l2,11.8l-13.2,7.3l9.8,4.1l7.7-11.4
		V304l5,0v11.8l7.7,11.4l10.3-4.3l-13.7-7.1L294.7,303z M265.7,196.3c-0.7,0.3-0.8-9.6-0.8-9.6l4.2-11.8l2.2,5.7
		C271.2,180.5,266.3,196,265.7,196.3z M291.3,167.1l6.5,9.6l-5,17.9l-3.3-13.2L291.3,167.1z"/>
	<path fill="#FFFFFF" d="M214.4,94.4c0,0-9.5,1.5-10.9,14.5c-1.4,12.9,2.5,19.5,2.5,19.5s3.8,10.3,9.7,11.2v7.5L204,149l-8.7,36
		l10.9,1.2l1.9,31.3l7.1,73.8l4.3,31.6L203.5,334l15.2,3.8l4.7-14.9v-33.7l1.1-72l2.8-0.4l1.3,6.3l12,60.6l5.5,38.1l10.4,13.8
		l11.1-5.9l-16.1-8l0.1-39c0,0-3.6-37.7-4.1-40.9c-0.5-3.1-5.4-24.3-5.4-24.3l-1.8-4.2l-0.8-31.2l3.7-1.3l9.1-2.6l-5-11.1l1.7-1.3
		l-2-5.2l-2.2,0.8l-7.3-16.2l-12,1.3l-0.8-6.2c0,0,3.8-3.1,5.2-6.2c1.4-3.1,4.7-15.1,3-20C231,109.3,228.4,95.5,214.4,94.4z"/>
	<path fill="#FFFFFF" d="M186.6,319.6l-1.2-23.9c0,0-3.7-33.3-4.1-35.7c-0.4-2.4-6.5-28.3-6.5-28.3l-4.8-11.7l1.2-0.5l9.2,5l5.3-4.5
		l-12-5.3l9.7-36.7l-18-27.3l-10,1.2l-2.9-6.2c0,0,4.1-3.1,5.9-9.8s0.3-18.2-1.3-21.9c-1.7-3.7-6.3-13-13.7-12.5
		c0,0-6.4,1.3-8.2,7.3c-1.8,6-3.4,13.2-2.6,18.9c0.8,5.7,3.4,9,3.4,9l4.4,6.7l4.2,3v7l-11.4,2l-12.8,39.2l22.2,26l-9.4,6.5l6.7,3.2
		l6.2-5.3l6.9,96.8l-14.6,9.4l13.5,4.4l6.7-13.8l1.3-99l1.2,0.7l1.3,5.5c0,0,17.1,72.8,17.7,90.6l9.6,15.3l12.1-5.3L186.6,319.6z
		 M133.3,191.7l4.9-16.8h1.2l3.5,21.4l1.8,17.5L133.3,191.7z M173,178.8l-1.8,10.3l-2.2-14.3L173,178.8z"/>
</g>
<g id="Layer_1">
	
		<ellipse transform="matrix(0.9883 -0.1523 0.1523 0.9883 -15.3527 34.5638)" fill="none" stroke="#000000" stroke-width="2" stroke-miterlimit="10" cx="217.9" cy="117.5" rx="14.7" ry="23.3"/>
	<line fill="none" stroke="#000000" stroke-width="2" stroke-miterlimit="10" x1="215.6" y1="139.6" x2="215.6" y2="147.2"/>
	<line fill="none" stroke="#000000" stroke-width="2" stroke-miterlimit="10" x1="224.5" y1="140.3" x2="225.6" y2="147.2"/>
	<path fill="none" stroke="#000000" stroke-width="2" stroke-miterlimit="10" d="M238.9,180.5c0.8,16.6,1.6,32.8,1.6,32.8
		s-20.2,7.8-32.5,2c0,0-0.8-14-1.8-29.1"/>
	<path fill="none" stroke="#000000" stroke-width="2" stroke-miterlimit="10" d="M206,175.6c-0.8-13.8-2-26.6-2-26.6l33.2-3.8
		c0,0,0.4,8.2,0.9,18.8"/>
	<path fill="none" stroke="#000000" stroke-width="2" stroke-miterlimit="10" d="M204,149l-8.7,36c0,0,22.2,5.8,48.5-4.5"/>
	<path fill="none" stroke="#000000" stroke-width="2" stroke-miterlimit="10" d="M237.2,145.2c0,0,3.7,8.2,7.5,16.4"/>
	<path fill="none" stroke="#000000" stroke-width="2" stroke-miterlimit="10" d="M247.1,167.1c2.8,6.1,5,11.1,5,11.1
		s-11.8,7.7-45.8-3l4.5-6c0,0,18,0.7,31.7,2"/>
	<polyline fill="none" stroke="#000000" stroke-width="2" stroke-miterlimit="10" points="232.7,170.4 236,164.7 246.8,160.5 
		248.2,165.9 240.5,171 	"/>
	<path fill="none" stroke="#000000" stroke-width="2" stroke-miterlimit="10" d="M208,215.3c0,0,7.2,86.2,11.6,107.6h3.8l1.1-105.7"
		/>
	<path fill="none" stroke="#000000" stroke-width="2" stroke-miterlimit="10" d="M227.2,217.5c0,0,16.5,72.3,18.8,104.3h5.2
		c0,0,2.4-74.1-10.8-108.4"/>
	<polyline fill="none" stroke="#000000" stroke-width="2" stroke-miterlimit="10" points="219.6,322.9 204.2,333.5 218.7,337.8 
		223.4,322.9 	"/>
	<polyline fill="none" stroke="#000000" stroke-width="2" stroke-miterlimit="10" points="246,321.8 256.4,335.6 267.5,329.7 
		251.2,321.8 	"/>
	
		<ellipse transform="matrix(0.9929 -0.1187 0.1187 0.9929 -13.714 18.2268)" fill="none" stroke="#000000" stroke-width="2" stroke-miterlimit="10" cx="146.2" cy="124.2" rx="13.2" ry="22.9"/>
	<line fill="none" stroke="#000000" stroke-width="2" stroke-miterlimit="10" x1="144.7" y1="146.4" x2="144.7" y2="153.4"/>
	<path fill="none" stroke="#000000" stroke-width="2" stroke-miterlimit="10" d="M153.1,145.2c0.1,1.2,1.9,6.3,1.9,6.3"/>
	<path fill="none" stroke="#000000" stroke-width="2" stroke-miterlimit="10" d="M133.3,155.3l31.7-5c0,0,9,45.4,6.2,69.2
		c0,0-14.9,6.8-25.1,1.8C146.2,221.2,140.9,170.4,133.3,155.3z"/>
	<path fill="none" stroke="#000000" stroke-width="2" stroke-miterlimit="10" d="M133.3,155.3l-12.8,39.2l22.2,26l-9.4,6.5
		c0,0,5.9,3.5,6.7,3.2c0.5-0.2,4.3-3.5,6.8-5.8"/>
	<polyline fill="none" stroke="#000000" stroke-width="2" stroke-miterlimit="10" points="138.7,172.9 133.3,191.8 145.5,215.3 	"/>
	<polyline fill="none" stroke="#000000" stroke-width="2" stroke-miterlimit="10" points="171.2,219.5 180.5,224.5 185.8,220 
		174.2,215.3 183.5,178 165,150.3 	"/>
	<polyline fill="none" stroke="#000000" stroke-width="2" stroke-miterlimit="10" points="168.7,172.5 173,179.5 170.8,190.2 	"/>
	<polyline fill="none" stroke="#000000" stroke-width="2" stroke-miterlimit="10" points="146.2,221.2 153.1,321.8 158.7,321.8 
		160,222.7 	"/>
	<path fill="none" stroke="#000000" stroke-width="2" stroke-miterlimit="10" d="M170.1,220c0,0,14.6,25.2,16.4,99.6h-6.3
		c-0.7-18-19-96.2-19-96.2"/>
	<polyline fill="none" stroke="#000000" stroke-width="2" stroke-miterlimit="10" points="153.1,321.8 138.5,331.2 152,335.6 
		158.7,321.8 	"/>
	<path fill="none" stroke="#000000" stroke-width="2" stroke-miterlimit="10" d="M180.2,319.5c-0.2,1.1,9.6,15.3,9.6,15.3l12.1-5.3
		l-15.3-9.9"/>
	<ellipse fill="none" stroke="#000000" stroke-width="2" stroke-miterlimit="10" cx="279.5" cy="129.3" rx="13" ry="19.7"/>
	<line fill="none" stroke="#000000" stroke-width="2" stroke-miterlimit="10" x1="275.2" y1="147.9" x2="275.2" y2="155.3"/>
	<line fill="none" stroke="#000000" stroke-width="2" stroke-miterlimit="10" x1="282.9" y1="148.3" x2="284" y2="155.3"/>
	<path fill="none" stroke="#000000" stroke-width="2" stroke-miterlimit="10" d="M284,152.1l15.3-1.8c0,0,4.8-45.2-19.8-44.7
		s-21.3,45.8-21.3,45.8l17.1,1.4"/>
	<path fill="none" stroke="#000000" stroke-width="2" stroke-miterlimit="10" d="M265.7,200c2-8.4,5.3-19.2,5.3-19.2l-4.8-25.5h26.7
		l-3.3,26l7.3,29c0,0-16.5,5.5-30.8,0.1"/>
	<polyline fill="none" stroke="#000000" stroke-width="2" stroke-miterlimit="10" points="266.2,155.3 258,185.2 260.8,224.5 
		259.8,231.5 262.1,240 266.5,238.8 266.5,225.8 265.2,186.6 269.4,172.3 	"/>
	<polyline fill="none" stroke="#000000" stroke-width="2" stroke-miterlimit="10" points="292.8,155.3 305.5,175.6 295.9,206.5 	"/>
	<polyline fill="none" stroke="#000000" stroke-width="2" stroke-miterlimit="10" points="291.5,165.7 297.8,177 293.3,196.3 	"/>
	<polyline fill="none" stroke="#000000" stroke-width="2" stroke-miterlimit="10" points="296.4,208.6 304.5,210.8 307.8,204.4 
		296.8,203.3 	"/>
	<path fill="none" stroke="#000000" stroke-width="2" stroke-miterlimit="10" d="M261.5,237.6c-2.5,26.1-6,61.2-6,61.2
		s20.8,11.8,57.2,0l-15.9-88.4"/>
	<polyline fill="none" stroke="#000000" stroke-width="2" stroke-miterlimit="10" points="276.8,304 278.8,315.8 283.2,315.8 
		283.2,304 	"/>
	<polyline fill="none" stroke="#000000" stroke-width="2" stroke-miterlimit="10" points="278.8,315.8 265.2,322.9 275.5,327.2 
		283.2,315.8 	"/>
	<polyline fill="none" stroke="#000000" stroke-width="2" stroke-miterlimit="10" points="294.7,303 292.5,315.8 288.2,315.8 
		288.2,304 	"/>
	<polyline fill="none" stroke="#000000" stroke-width="2" stroke-miterlimit="10" points="292.5,315.8 306.2,322.9 295.8,327.2 
		288.2,315.8 	"/>
</g>
</svg>
