<?xml version="1.0" encoding="utf-8"?>
<!-- Generator: Adobe Illustrator 19.2.1, SVG Export Plug-In . SVG Version: 6.00 Build 0)  -->
<svg version="1.0" xmlns="http://www.w3.org/2000/svg" xmlns:xlink="http://www.w3.org/1999/xlink" x="0px" y="0px" width="432px"
	 height="432px" viewBox="0 0 432 432" enable-background="new 0 0 432 432" xml:space="preserve">
<g id="Layer_2">
	<path fill="#FFFFFF" d="M148,320.9l-13.1,8.1l10.6,3.5l6.8-12l-0.9-11.7l5-0.4l0.9,11.8l8.5,10.8l9.5-4.8l-13.7-6.4l1.1-11.9
		c11.3-0.8,20.9-6.8,20.9-6.8l-10.4-60.6l1.3-6.2l-1.5-6.9l-0.2-39.3L162.4,159c0,0-8,0.6-9,0.7s-0.2-2.4-0.2-2.4l16.9-2.6
		l-0.7-11.5c0,0-0.9-8.4-5.7-20.1c-4.8-11.6-15.9-12.8-15.9-12.8c-16.7,0.1-16.6,12.9-19.4,20.1c-2.8,7.1,0.5,26.1,0.5,26.1
		l15.9,0.6l-0.4,3.3l-8.4,0.6l-0.8,0.9l-10.7,20.2l10.7,27.1l-10.9,1.9l3.8,6.1l7.5-2.6l-9.3,90.9l18.3,2.9L148,320.9z M159.3,184.5
		l1.7-5.8l5,11.5c0,0,0.5,9.9-0.1,9.7C165.3,199.6,159.3,184.5,159.3,184.5z M141.1,186.7l-2.4,13.4l-6.3-17.4l5.8-10L141.1,186.7z"
		/>
	<path fill="#FFFFFF" d="M209.6,94.5c0,0,9.6,0.8,12,13.6s-1,19.6-1,19.6s-3,10.5-8.8,11.9l0.6,7.5l11.7,1l11.3,35.3l-10.8,2
		l0.4,31.3l-1.6,74.1l-2,31.9l16.9,9.9l-14.9,4.9l-5.8-14.5l-2.5-33.6l-6.4-71.7l-2.8-0.2l-0.8,6.4l-7.5,61.3l-2.7,38.4l-9.4,14.6
		l-11.5-5.1l15.5-9.2l-3-38.9c0,0,0.8-37.9,1.1-41s3.5-24.6,3.5-24.6l1.5-4.3l-1.5-31.2l-3.8-1l-9.3-2l4.2-11.4l-1.8-1.2l1.6-5.4
		l2.3,0.7l6.1-16.7l12.1,0.4l0.4-6.2c0,0-4-2.8-5.6-5.8c-1.6-3-5.8-14.8-4.4-19.7C194.2,110.5,195.7,96.6,209.6,94.5z"/>
	<path fill="#FFFFFF" d="M239.4,328l12.4,4.4l8.4-16c-0.7-17.8,11-91.7,11-91.7l0.9-5.6l1.1-0.8l8.6,98.7l7.7,13.3l13.1-5.4
		l-15.3-8.3l-0.2-97l6.5,4.8l6.4-3.7l-9.9-5.8l20.3-27.6l-15.7-38.1l-11.5-1.1l-0.5-7l4-3.3l3.9-7c0,0,2.3-3.5,2.7-9.2
		c0.4-5.7-1.7-12.8-3.9-18.6c-2.3-5.8-8.7-6.7-8.7-6.7c-7.5,0-11.4,9.6-12.8,13.4c-1.4,3.8-2.1,15.4,0.3,21.9
		c2.3,6.5,6.6,9.3,6.6,9.3l-2.5,6.4l-10.1-0.4l-15.9,28.6l12.3,35.9l-11.5,6.2l5.6,4.1l8.9-5.7l1.2,0.4l-3.9,12
		c0,0-4.1,26.3-4.4,28.7c-0.2,2.4-1.5,35.9-1.5,35.9l0.6,24L239.4,328z M287.9,208.4l0.5-17.6l1.9-21.6l1.2-0.1l6.1,16.4
		L287.9,208.4z M260.8,171.3l-1.1,14.5l-2.6-10.2L260.8,171.3z"/>
</g>
<g id="Layer_1">
	
		<ellipse transform="matrix(7.930816e-02 -0.9969 0.9969 7.930816e-02 73.9419 315.5039)" fill="none" stroke="#000000" stroke-width="2" stroke-miterlimit="10" cx="207.8" cy="117.7" rx="23.3" ry="14.7"/>
	<line fill="none" stroke="#000000" stroke-width="2" stroke-miterlimit="10" x1="211.7" y1="139.6" x2="212.3" y2="147.1"/>
	<line fill="none" stroke="#000000" stroke-width="2" stroke-miterlimit="10" x1="202.9" y1="141" x2="202.3" y2="147.9"/>
	<path fill="none" stroke="#000000" stroke-width="2" stroke-miterlimit="10" d="M191.5,182.1c0.4,16.6,0.8,32.8,0.8,32.8
		s20.7,6.3,32.6-0.4c0,0-0.2-14-0.4-29.2"/>
	<path fill="none" stroke="#000000" stroke-width="2" stroke-miterlimit="10" d="M223.9,174.8c-0.2-13.8,0-26.6,0-26.6l-33.4-1.4
		c0,0,0.2,8.2,0.5,18.9"/>
	<path fill="none" stroke="#000000" stroke-width="2" stroke-miterlimit="10" d="M224,148.1l11.3,35.3c0,0-21.7,7.4-48.7-0.9"/>
	<path fill="none" stroke="#000000" stroke-width="2" stroke-miterlimit="10" d="M190.6,146.7c0,0-3.1,8.5-6.2,16.9"/>
	<path fill="none" stroke="#000000" stroke-width="2" stroke-miterlimit="10" d="M182.3,169.3c-2.3,6.3-4.2,11.4-4.2,11.4
		s12.4,6.8,45.5-6.4l-4.9-5.7c0,0-17.9,2-31.4,4.3"/>
	<polyline fill="none" stroke="#000000" stroke-width="2" stroke-miterlimit="10" points="196.9,171.5 193.2,166.1 182.1,162.8 
		181.2,168.2 189.2,172.7 	"/>
	<path fill="none" stroke="#000000" stroke-width="2" stroke-miterlimit="10" d="M224.9,214.6c0,0-0.8,86.5-3.7,108.1l-3.8,0.3
		l-8.9-105.3"/>
	<path fill="none" stroke="#000000" stroke-width="2" stroke-miterlimit="10" d="M205.8,218.1c0,0-11.1,73.3-11,105.4l-5.2,0.4
		c0,0-7.9-73.7,2.8-108.9"/>
	<polyline fill="none" stroke="#000000" stroke-width="2" stroke-miterlimit="10" points="221.2,322.7 237.4,332.1 223.2,337.4 
		217.4,323 	"/>
	<polyline fill="none" stroke="#000000" stroke-width="2" stroke-miterlimit="10" points="194.8,323.5 185.4,338.1 173.9,333 
		189.5,323.9 	"/>
	
		<ellipse transform="matrix(4.543488e-02 -0.999 0.999 4.543488e-02 148.0428 393.3198)" fill="none" stroke="#000000" stroke-width="2" stroke-miterlimit="10" cx="279.8" cy="119.2" rx="22.9" ry="13.2"/>
	<line fill="none" stroke="#000000" stroke-width="2" stroke-miterlimit="10" x1="282.9" y1="141.2" x2="283.4" y2="148.1"/>
	<path fill="none" stroke="#000000" stroke-width="2" stroke-miterlimit="10" d="M274.4,140.6c0,1.2-1.4,6.5-1.4,6.5"/>
	<path fill="none" stroke="#000000" stroke-width="2" stroke-miterlimit="10" d="M294.9,149.3l-31.9-2.7c0,0-5.6,46-1.2,69.4
		c0,0,15.4,5.6,25.1-0.1C287,215.9,288.5,164.9,294.9,149.3z"/>
	<path fill="none" stroke="#000000" stroke-width="2" stroke-miterlimit="10" d="M294.9,149.3l15.7,38.1l-20.3,27.6l9.9,5.8
		c0,0-5.6,3.9-6.4,3.7c-0.5-0.1-4.5-3.2-7.2-5.3"/>
	<polyline fill="none" stroke="#000000" stroke-width="2" stroke-miterlimit="10" points="290.8,167.2 297.6,185.6 287.2,210 	"/>
	<polyline fill="none" stroke="#000000" stroke-width="2" stroke-miterlimit="10" points="261.8,216 253,221.7 247.3,217.6 
		258.5,212.1 246.5,175.5 263,146.6 	"/>
	<polyline fill="none" stroke="#000000" stroke-width="2" stroke-miterlimit="10" points="260.9,168.9 257.1,176.3 260.1,186.8 	"/>
	<polyline fill="none" stroke="#000000" stroke-width="2" stroke-miterlimit="10" points="287,215.9 287.4,316.7 281.9,317.1 
		273.3,218.4 	"/>
	<path fill="none" stroke="#000000" stroke-width="2" stroke-miterlimit="10" d="M263,216.4c0,0-12.7,26.2-9.1,100.5l6.3-0.5
		c-0.7-18,11.9-97.3,11.9-97.3"/>
	<polyline fill="none" stroke="#000000" stroke-width="2" stroke-miterlimit="10" points="287.4,316.7 302.7,325 289.5,330.4 
		281.9,317.1 	"/>
	<path fill="none" stroke="#000000" stroke-width="2" stroke-miterlimit="10" d="M260.2,316.4c0.3,1.1-8.4,16-8.4,16l-12.4-4.4
		l14.5-11"/>
	
		<ellipse transform="matrix(0.9973 -7.345352e-02 7.345352e-02 0.9973 -9.4473 11.1764)" fill="none" stroke="#000000" stroke-width="2" stroke-miterlimit="10" cx="147.2" cy="134" rx="13" ry="19.7"/>
	<line fill="none" stroke="#000000" stroke-width="2" stroke-miterlimit="10" x1="152.9" y1="152.3" x2="153.4" y2="159.7"/>
	<line fill="none" stroke="#000000" stroke-width="2" stroke-miterlimit="10" x1="145.3" y1="153.3" x2="144.7" y2="160.3"/>
	<path fill="none" stroke="#000000" stroke-width="2" stroke-miterlimit="10" d="M144.4,157.1l-15.4-0.7c0,0-8.1-44.7,16.5-46
		s24.6,44.1,24.6,44.1l-16.9,2.6"/>
	<path fill="none" stroke="#000000" stroke-width="2" stroke-miterlimit="10" d="M166.2,203.5c-2.6-8.2-6.7-18.7-6.7-18.7l2.9-25.8
		l-26.6,2l5.2,25.7l-5.2,29.4c0,0,16.8,4.3,30.7-2.1"/>
	<polyline fill="none" stroke="#000000" stroke-width="2" stroke-miterlimit="10" points="162.4,159 172.8,188.2 172.9,227.6 
		174.4,234.5 172.7,243.1 168.2,242.2 167.3,229.3 165.7,190.2 160.5,176.2 	"/>
	<polyline fill="none" stroke="#000000" stroke-width="2" stroke-miterlimit="10" points="135.8,161 124.7,182.1 136.6,212.2 	"/>
	<polyline fill="none" stroke="#000000" stroke-width="2" stroke-miterlimit="10" points="137.9,171.3 132.4,182.9 138.4,201.8 	"/>
	<polyline fill="none" stroke="#000000" stroke-width="2" stroke-miterlimit="10" points="136.2,214.4 128.3,217.2 124.5,211.1 
		135.4,209.1 	"/>
	<path fill="none" stroke="#000000" stroke-width="2" stroke-miterlimit="10" d="M173.2,240.7c4.5,25.9,10.4,60.6,10.4,60.6
		s-19.8,13.2-57.1,4.2l9.4-89.3"/>
	<polyline fill="none" stroke="#000000" stroke-width="2" stroke-miterlimit="10" points="162.7,308 161.6,319.9 157.3,320.2 
		156.4,308.5 	"/>
	<polyline fill="none" stroke="#000000" stroke-width="2" stroke-miterlimit="10" points="161.6,319.9 175.7,326 165.8,331.1 
		157.3,320.2 	"/>
	<polyline fill="none" stroke="#000000" stroke-width="2" stroke-miterlimit="10" points="144.9,308.4 148,320.9 152.3,320.6 
		151.4,308.9 	"/>
	<polyline fill="none" stroke="#000000" stroke-width="2" stroke-miterlimit="10" points="148,320.9 134.9,329 145.5,332.6 
		152.3,320.6 	"/>
</g>
</svg>
