<?xml version="1.0" encoding="utf-8"?>
<!-- Generator: Adobe Illustrator 21.0.0, SVG Export Plug-In . SVG Version: 6.00 Build 0)  -->
<!DOCTYPE svg PUBLIC "-//W3C//DTD SVG 1.0//EN" "http://www.w3.org/TR/2001/REC-SVG-20010904/DTD/svg10.dtd">
<svg version="1.0" id="Layer_1" xmlns="http://www.w3.org/2000/svg" xmlns:xlink="http://www.w3.org/1999/xlink" x="0px" y="0px"
	 width="504px" height="504px" viewBox="0 0 504 504" enable-background="new 0 0 504 504" xml:space="preserve">
<polygon fill="none" stroke="#000000" stroke-width="4" stroke-miterlimit="10" points="151,415.5 147,410.5 132,380 84.5,266.5 
	84.5,257 106,246.4 219.5,262 272.7,166 294.5,159.5 304.5,159.5 374.5,313 374.5,319.5 192.5,407.5 "/>
<polyline fill="none" stroke="#000000" stroke-width="4" stroke-miterlimit="10" points="94.6,252 70,226 281.5,120.5 288.5,144.5 
	294.5,159.5 "/>
<line fill="none" stroke="#000000" stroke-width="4" stroke-miterlimit="10" x1="84.5" y1="257" x2="74.4" y2="230.7"/>
<polyline fill="none" stroke="#000000" stroke-width="4" stroke-miterlimit="10" points="74.4,223.8 67.5,192.5 137.5,79 264,109 
	272.3,125.1 "/>
<path fill="none" stroke="#000000" stroke-width="4" stroke-miterlimit="10" d="M93.5,229.8c4.6-0.3,9.1-2.8,11.9-6.5
	c1.1-1.4,1.9-3,3.3-4.1c1.3-0.9,2.8-1.3,4.3-1.7c14.6-3.7,28.3-11.1,39.5-21.3c1.8-1.6,3.7-3.4,6.2-3.5c3-0.1,6,2.5,8.9,1.5
	c1.7-0.6,2.8-2.2,4-3.5c4.3-4.5,11.3-5.3,16.6-8.6c4-2.5,7-6.5,11.1-8.9c9-5.2,22.5-1.9,28.9-10.1c2.3-2.9,3.2-6.9,6.3-9
	c2.5-1.7,5.8-1.7,8.8-2.1c5.8-0.8,11.3-3.3,16.6-5.7c4.3-2,8.6-4,12.9-6"/>
<path fill="none" stroke="#000000" stroke-width="4" stroke-miterlimit="10" d="M104.7,234.8c4.9-3,11-3.4,16.6-4.8
	c7-1.8,13.6-5.3,19-10.2c3.9-3.5,7.5-7.9,12.5-9.4c2.4-0.7,5.1-0.7,7.5-1.5c5.9-1.9,9.6-8.1,15.3-10.5c4.5-1.8,9.7-1,14.4-2.4
	c7.4-2.2,12.3-9.4,19.5-12c3.9-1.4,8.2-1.4,11.7-3.6c2.9-1.8,4.8-4.7,7.3-6.9c2.5-2.1,5.5-3.4,8.5-4.7c13.5-5.8,27-11.6,40.4-17.4"
	/>
<path fill="none" stroke="#000000" stroke-width="4" stroke-miterlimit="10" d="M110.6,245.1c5.1,0.9,10.5-0.4,14.8-3.4
	c3.4-2.4,6-5.9,9.8-7.6c2.6-1.1,5.6-1.3,8.4-1.9c3.1-0.7,6-1.9,8.9-3.1c12.6-5.2,25.2-10.5,37.7-15.7c7.6-3.2,15.3-6.4,21.1-12.2
	c5.3-5.3,10-13.1,17.5-12.9c1.6,0,3.3,0.5,4.9,0.1c3.8-0.8,5.2-5.4,8.2-8c3.7-3.2,9.1-2.8,14-2.9c4.9-0.1,10.7-1.8,11.9-6.5"/>
<path fill="none" stroke="#000000" stroke-width="4" stroke-miterlimit="10" d="M133.6,248.7c4,1.7,8.6-0.6,12-3.3
	c3.4-2.7,6.8-6,11.1-6.6c3.1-0.4,6.2,0.5,9.3,0.3c10.5-0.7,16.5-14.4,27-15.3c2.4-0.2,4.9,0.2,7-0.7c3.5-1.5,4.6-5.9,7.3-8.5
	c2.5-2.4,6.1-3.3,9.4-4.3c8.5-2.6,16.4-7,23-12.9c1-0.9,2.1-1.9,3.4-2.1c1.5-0.2,2.9,0.7,4.3,1.1c3.8,1.1,8.1-1.6,8.9-5.4"/>
<path fill="none" stroke="#000000" stroke-width="4" stroke-miterlimit="10" d="M155.8,252.5c9.6-3.8,19.2-7.6,28.8-11.4
	c1.8-0.7,3.6-1.5,5-2.8c1-0.9,1.7-2,2.7-2.9c4.8-3.9,13.2,1,17.8-3.2c2.4-2.2,2.8-6.2,5.6-7.7c1.1-0.6,2.4-0.7,3.6-0.8
	c9.9-1.1,19.4-4.9,27.2-11.1"/>
<path fill="none" stroke="#000000" stroke-width="4" stroke-miterlimit="10" d="M174,254.3c12.8-1.9,25.5-5.2,36.6-11.8
	c3.1-1.9,6.2-4.1,7.8-7.3c6,0.7,12.2-0.7,17.3-3.8"/>
<path fill="none" stroke="#000000" stroke-width="4" stroke-miterlimit="10" d="M200.4,257.8c5-2.6,10.5-4.3,16.2-4.8
	c1.1-0.1,2.3-0.2,3.3-0.6c2.9-1.2,4.5-4.9,7.6-5"/>
</svg>
