<?xml version="1.0" encoding="utf-8"?>
<!-- Generator: Adobe Illustrator 19.2.1, SVG Export Plug-In . SVG Version: 6.00 Build 0)  -->
<svg version="1.0" xmlns="http://www.w3.org/2000/svg" xmlns:xlink="http://www.w3.org/1999/xlink" x="0px" y="0px" width="432px"
	 height="432px" viewBox="0 0 432 432" enable-background="new 0 0 432 432" xml:space="preserve">
<g id="Layer_2">
	<path fill="#27AAE1" d="M179.5,167.3l-6.3,3.7l2.2,92.7l8,4.7h26.3c0,0-1-33.2-2.3-33.3c-1.3-0.1-12.2-0.2-12.2-1s1.8-13,1.8-13
		l10.3,0.7l-5.1-20.4l11.6-14.2l21.8-2l-0.7,19.7l-16.3,0.3l1,16.7l13.3-2.3c0,0,1.2,12.6,0.3,12.7s-11,0.7-11,0.7l2.3,33.7
		l29.7-3.3l5.7-4.7l-2-91c0,0-6.5-3.7-7-3.7C250.5,163.7,179.5,167.3,179.5,167.3z"/>
</g>
<g id="Layer_1">
	<path fill="none" stroke="#000000" stroke-width="2" stroke-miterlimit="10" d="M173.2,171l5.5-3.7l73-3.7l6.3,3.7l2,91l-4.9,4.7
		l-30.4,3.3l-2.3-33.7l11-0.7l-0.3-12.7l-13.3,2.3l-1-16.7l16.3-0.3l0.7-19.7l-21.8,2c0,0-11.8,13.7-11.8,14.7s5.3,20,5.3,20
		L197,221c0,0-2,13.3-1,13.3s11.3,0.7,11.3,0.7l2.3,33.3h-26.3l-8-4.7L173.2,171z"/>
</g>
<g id="Layer_3">
	<path opacity="0" fill="none" stroke="#FFFFFF" stroke-width="15" stroke-miterlimit="10" d="M164.7,166.7
		c27.2-1.8,70.7-2.6,98-2.8c-27.9,2.6-55.8,5.3-83.7,7.9c34.9-3.2,70-4.5,105-3.9c-22.8,2.6-45.7,5.2-68.5,7.8
		c-16.6,1.9-33.3,3.8-50,2.5c31.7-1.1,63.4-1.5,95.1-1.4c-33.5,4.6-66.9,9.2-100.4,13.8c42-9,85.3-9,128.2-8.9
		c-38.2,6.4-76.9,8.9-115.6,11.4c39.8-2.9,79.7-4.7,119.7-5.2c-40.8,5.2-81.9,8.6-123,10.3c-6,0.2-12.3,0.5-17.5,3.7
		c48.3-0.7,96.6-2.6,144.8-5.6c-23.5,6.9-48.4,6.9-72.8,8.4c-23.8,1.4-47.5,4.4-71.2,7.3c48.4-0.3,96.8-0.5,145.2-0.8
		c-44.4,10.1-90.3,10.3-135.8,10.4c-9.5,0-19,0.1-28.5,0.1c48.5,3.1,99.7,10.7,148.3,8.6c-54.6,6.2-111.7,4.7-166.2,11.9
		c9.7,1.9,19.6,1.8,29.4,1.7c47.2-0.4,94.4-0.9,141.6-1.6c-48.9,4.8-97.9,9.6-146.8,14.3c42.1-4,84.5-4.5,126.8-4.5
		c-33.7,3.2-67.4,6.4-101.1,9.6c36.7-1.5,72.9-12.1,109.6-10.3c-29.5,7.9-66.7,18.4-97.2,17c26.7-1,60.6-5.1,87.2-7.3"/>
</g>
</svg>
