<?xml version="1.0" encoding="utf-8"?>
<!-- Generator: Adobe Illustrator 21.0.0, SVG Export Plug-In . SVG Version: 6.00 Build 0)  -->
<!DOCTYPE svg PUBLIC "-//W3C//DTD SVG 1.0//EN" "http://www.w3.org/TR/2001/REC-SVG-20010904/DTD/svg10.dtd">
<svg version="1.0" id="Layer_1" xmlns="http://www.w3.org/2000/svg" xmlns:xlink="http://www.w3.org/1999/xlink" x="0px" y="0px"
	 width="432px" height="432px" viewBox="0 0 432 432" enable-background="new 0 0 432 432" xml:space="preserve">
<ellipse transform="matrix(0.9985 -5.423521e-02 5.423521e-02 0.9985 -5.7789 7.2503)" fill="none" stroke="#000000" stroke-width="2" stroke-miterlimit="10" cx="130.7" cy="110.1" rx="18" ry="25.9"/>
<polyline fill="none" stroke="#000000" stroke-width="2" stroke-miterlimit="10" points="127.1,136.2 127.1,144.8 138.9,143.5 
	136.8,134.8 "/>
<polygon fill="none" stroke="#000000" stroke-width="2" stroke-miterlimit="10" points="113.4,146.9 155.5,141.8 159.2,227.5 
	124.5,229.7 "/>
<path fill="none" stroke="#000000" stroke-width="2" stroke-miterlimit="10" d="M115.7,164l-40.4-33.9c-1-2.7-13.7-39.1-13.7-39.1
	l-5-3.2l-3.1-9.1l20.4-4.5l0.6,11.3l-5.5,6L86.8,125l26.7,21.9"/>
<path fill="none" stroke="#000000" stroke-width="2" stroke-miterlimit="10" d="M74.2,80c-0.7,0-11,2-11,2L63,86.4l3.8-0.1l-1.2,3.2
	"/>
<polyline fill="none" stroke="#000000" stroke-width="2" stroke-miterlimit="10" points="124.5,229.7 127.1,343.2 133,343.2 
	141.9,228.8 "/>
<polyline fill="none" stroke="#000000" stroke-width="2" stroke-miterlimit="10" points="141.9,228.8 156.2,343.2 162,343.2 
	159.2,227.5 "/>
<polyline fill="none" stroke="#000000" stroke-width="2" stroke-miterlimit="10" points="127.1,343.2 109.1,355.7 127.1,358.2 
	133,343.2 "/>
<polyline fill="none" stroke="#000000" stroke-width="2" stroke-miterlimit="10" points="156.2,343.2 164.5,363.5 181,358.2 
	162,343.2 "/>
<path fill="none" stroke="#000000" stroke-width="2" stroke-miterlimit="10" d="M156.3,160.6l33.4-38.8c0.5-2.8,7.2-40.8,7.2-40.8
	l4.5-4l1.6-9.5l-20.8-1.1l1.2,11.3l6.5,5l-12.1,35.9l-22,24.3"/>
<path fill="none" stroke="#000000" stroke-width="2" stroke-miterlimit="10" d="M182.7,72.2c0.7-0.1,11.2,0.2,11.2,0.2l0.9,4.3
	l-3.8,0.5l1.7,2.9"/>
<ellipse transform="matrix(5.423521e-02 -0.9985 0.9985 5.423521e-02 176.258 406.3463)" fill="none" stroke="#000000" stroke-width="2" stroke-miterlimit="10" cx="302.6" cy="110.1" rx="25.9" ry="18"/>
<polyline fill="none" stroke="#000000" stroke-width="2" stroke-miterlimit="10" points="306.3,136.2 306.3,144.8 294.6,143.5 
	296.6,134.8 "/>
<polygon fill="none" stroke="#000000" stroke-width="2" stroke-miterlimit="10" points="320,146.9 277.9,141.8 274.2,227.5 
	308.9,229.7 "/>
<path fill="none" stroke="#000000" stroke-width="2" stroke-miterlimit="10" d="M317.7,164l40.4-33.9c1-2.7,13.7-39.1,13.7-39.1
	l5-3.2l3.1-9.1l-20.4-4.5l-0.6,11.3l5.6,5.9L346.7,125L320,146.9"/>
<path fill="none" stroke="#000000" stroke-width="2" stroke-miterlimit="10" d="M359.2,80c0.7,0,11,2,11,2l0.2,4.4l-3.8-0.1l1.2,3.2
	"/>
<polyline fill="none" stroke="#000000" stroke-width="2" stroke-miterlimit="10" points="308.9,229.7 306.3,343.2 300.4,343.2 
	291.6,228.8 "/>
<polyline fill="none" stroke="#000000" stroke-width="2" stroke-miterlimit="10" points="291.6,228.8 277.2,343.2 271.5,343.2 
	274.2,227.5 "/>
<polyline fill="none" stroke="#000000" stroke-width="2" stroke-miterlimit="10" points="306.3,343.2 324.3,355.7 306.3,358.2 
	300.4,343.2 "/>
<polyline fill="none" stroke="#000000" stroke-width="2" stroke-miterlimit="10" points="277.2,343.2 268.9,363.5 252.4,358.2 
	271.5,343.2 "/>
<path fill="none" stroke="#000000" stroke-width="2" stroke-miterlimit="10" d="M277.1,160.6l-33.4-38.8c-0.5-2.8-7.2-40.8-7.2-40.8
	l-4.5-4l-1.6-9.5l20.8-1.1L250,77.7l-6.5,5l12.1,35.9l22,24.3"/>
<path fill="none" stroke="#000000" stroke-width="2" stroke-miterlimit="10" d="M250.8,72.2c-0.7-0.1-11.2,0.2-11.2,0.2l-0.9,4.3
	l3.8,0.5l-1.7,2.9"/>
<line fill="none" stroke="#000000" stroke-width="2" stroke-miterlimit="10" x1="155.6" y1="100.7" x2="168.7" y2="87.1"/>
<line fill="none" stroke="#000000" stroke-width="2" stroke-miterlimit="10" x1="155.6" y1="109" x2="173" y2="100.7"/>
<line fill="none" stroke="#000000" stroke-width="2" stroke-miterlimit="10" x1="159.2" y1="115" x2="172.3" y2="115"/>
<line fill="none" stroke="#000000" stroke-width="2" stroke-miterlimit="10" x1="267.3" y1="89.4" x2="279.7" y2="100.7"/>
<line fill="none" stroke="#000000" stroke-width="2" stroke-miterlimit="10" x1="263.7" y1="104.8" x2="279.7" y2="109"/>
<line fill="none" stroke="#000000" stroke-width="2" stroke-miterlimit="10" x1="263.7" y1="115" x2="277.8" y2="116.7"/>
</svg>
