<?xml version="1.0" encoding="utf-8"?>
<!-- Generator: Adobe Illustrator 19.2.1, SVG Export Plug-In . SVG Version: 6.00 Build 0)  -->
<svg version="1.0" xmlns="http://www.w3.org/2000/svg" xmlns:xlink="http://www.w3.org/1999/xlink" x="0px" y="0px" width="432px"
	 height="432px" viewBox="0 0 432 432" enable-background="new 0 0 432 432" xml:space="preserve">
<g id="Layer_3">
	<path fill="#FFFFFF" d="M248.3,332.7l-18.6-112.3v-7l6.6,3l3.4-7l-10-1.3l23.2-46.6l-26.9-26.6l-16.7,1.9l-2.1-9
		c0,0,13.7-5.5,11.9-24.7c-1.7-19.2-10.7-27.3-21.6-25.5c0,0-10.5,2.6-13.7,16.3s5.8,34,13.7,34.3v9.6l-13.7,2.1l-19.1,30.4
		l26.3,38.7l-8.4,6.5l6,5.7l5.5-5.4l0.9,6.8l-5.8,111.3l-22.2,11.7l19.4,9l10.2-20.8L213,222.4l26.7,111.3l10.5,21.2l17.1-7.8
		L248.3,332.7z M179.5,171.7l7.4-10.3l0.7,4.9l3.9,30.3L179.5,171.7z M227.1,158.3l9.3,8l-8,22.6L227.1,158.3z"/>
</g>
<g id="Layer_2">
	<path fill="#27AAE1" d="M197.6,77.4c0,0-19.7,31.4,3.6,51c0,0-13.5,2.4-17.9-24.5C183.3,103.9,183,82.6,197.6,77.4z"/>
	<polygon fill="#27AAE1" points="194.2,138.5 203.5,218.1 220.8,220.3 205.2,222.4 194.2,333.8 183.9,353.6 167.1,345.5 189,333.8 
		195.1,222.4 186.8,160.6 183.9,139.7 	"/>
	<polygon fill="#27AAE1" points="185.5,151.8 173.8,170.9 193,207.2 191.4,195.3 179.5,171.4 186.8,160.6 	"/>
	<polygon fill="#27AAE1" points="222.2,221 244,332.7 260.2,350.4 250.2,354.9 239.7,333.8 213.5,221.3 	"/>
</g>
<g id="Layer_1">
	
		<ellipse transform="matrix(0.9985 -5.423368e-02 5.423368e-02 0.9985 -5.2861 11.0669)" fill="none" stroke="#000000" stroke-width="2" stroke-miterlimit="10" cx="201.3" cy="102.9" rx="18" ry="25.9"/>
	<path fill="none" stroke="#000000" stroke-width="2" stroke-miterlimit="10" d="M187.2,80.3c0,0,12.4,3,23.7-1.7"/>
	<path fill="none" stroke="#000000" stroke-width="2" stroke-miterlimit="10" d="M185,84.5c0,0,15.8,3.6,30.1-1.5"/>
	<path fill="none" stroke="#000000" stroke-width="2" stroke-miterlimit="10" d="M182.7,89.2c0,0,23.9,3.8,34.4-1.9"/>
	<polyline fill="none" stroke="#000000" stroke-width="2" stroke-miterlimit="10" points="197.6,129 197.6,137.6 209.4,136.3 
		207.3,127.6 	"/>
	<polygon fill="none" stroke="#000000" stroke-width="2" stroke-miterlimit="10" points="183.9,139.7 226.1,134.6 229.7,220.3 
		195.1,222.4 	"/>
	<polyline fill="none" stroke="#000000" stroke-width="2" stroke-miterlimit="10" points="183.9,139.7 164.9,170.1 191.7,209.7 
		182.7,215.3 188.7,221 194.2,215.6 	"/>
	<polyline fill="none" stroke="#000000" stroke-width="2" stroke-miterlimit="10" points="186.8,160.6 179.7,171.7 191.7,197.2 	"/>
	<line fill="none" stroke="#000000" stroke-width="2" stroke-miterlimit="10" x1="164.9" y1="170.1" x2="179.7" y2="171.7"/>
	<polyline fill="none" stroke="#000000" stroke-width="2" stroke-miterlimit="10" points="226.1,134.6 253.3,160.6 229.7,207.7 
		239.7,209.3 236.3,216.3 229.7,213.3 	"/>
	<polyline fill="none" stroke="#000000" stroke-width="2" stroke-miterlimit="10" points="227.1,158 236.3,166.5 228.4,190.3 	"/>
	<line fill="none" stroke="#000000" stroke-width="2" stroke-miterlimit="10" x1="236.3" y1="166.5" x2="253.3" y2="160.6"/>
	<polyline fill="none" stroke="#000000" stroke-width="2" stroke-miterlimit="10" points="195.1,222.4 189.2,333.8 196.8,333.8 
		213.2,221.3 	"/>
	<polyline fill="none" stroke="#000000" stroke-width="2" stroke-miterlimit="10" points="213.2,221.3 239.7,333.8 248.3,332.3 
		229.7,220.3 	"/>
	<polyline fill="none" stroke="#000000" stroke-width="2" stroke-miterlimit="10" points="189.2,333.8 167.1,345.5 186.5,354.5 
		196.8,333.8 	"/>
	<polyline fill="none" stroke="#000000" stroke-width="2" stroke-miterlimit="10" points="239.6,334.4 250.2,354.9 267.3,347.2 
		248.3,332.3 	"/>
</g>
<g id="Layer_4">
	<path opacity="0" fill="none" stroke="#FFFFFF" stroke-width="20" stroke-miterlimit="10" d="M185,76.8c5.3,0,10.5,0.1,15.8,0.1
		c-7.3,1.4-14.4,3.3-21.4,5.9c9.1-0.1,18.3-0.2,27.4-0.2c-9.4,2.6-18.9,5.3-28.3,7.9c7-1,14.1-1.4,21.1-1.3
		c-9,2.8-18.2,5.3-27.4,7.4c7.8-0.4,15.5-0.7,23.3-1.1c-8,2.5-15.9,5.1-23.9,7.6c9.2-0.1,18.4-0.2,27.6-0.2
		c-9.2,2.3-18.4,4.6-27.6,6.8c7.3,0.1,14.7,0.2,22,0.3c-6,2.3-12.3,3.6-18.6,4.1c8.4-0.6,16.8-0.1,25,1.5
		c-6.7,1.9-13.4,3.8-20.1,5.8c6-0.6,12-0.4,18,0.4c-5.5,1.8-11.1,3.6-16.6,5.4c7-0.9,14-1.2,21-1c-9.8,7-21,12-32.8,14.6
		c8.6-0.7,17.1-1.4,25.7-2c-8.7,4.1-17.5,7.9-26.5,11.2c12.5-2.6,25.3-4,38.1-4.2c-13.2,4.9-26.7,8.9-40.4,12
		c9.9-2.1,19.9-3.4,30-3.9c-9.2,5.3-18.5,10.5-27.7,15.8c11.4-1.7,22.8-3.5,34.2-5.2c-9.8,5.1-19.8,9.7-30.1,13.6
		c11.2-2.5,22.6-4.2,34.1-5.2c-10.7,4.6-21.3,9.2-32,13.8c7.7-2.4,15.6-4,23.7-4.8c-7.9,4-15.8,7.9-23.7,11.9
		c10.7-1.7,21.4-3.4,32.1-5.1c-9,4.9-18.2,9.2-27.7,13.1c7.1-1.7,14.4-2.5,21.7-2.5c-6.3,2.5-12.3,5.7-17.9,9.4
		c4.8-1.9,9.9-3,15.1-3.4c-5,3.8-10.4,7.1-16.1,9.9c13.5-4,27.7-5.7,41.8-5.1c-12.9,3.8-26,6.7-39.2,8.6c10.8-2.8,21.9-4.4,33.1-4.8
		c-12.5,3.6-25,7.3-37.5,10.9c15.2-2.6,30.7-3.7,46.2-3.2c-16,5.1-32.7,8.2-49.5,9.4c19.7-4.4,40.1-6.3,60.3-5.6
		c-14,2.6-27.9,5.3-41.9,7.9c10.6-0.8,21.1-1.5,31.7-2.3c-13.7,3.9-28,5.9-42.2,5.9c13.5-1.9,27.2-2.6,40.8-2
		c-16.1,3.6-32.4,5.9-48.8,7c20.5-1.9,41.1-2.7,61.6-2.4c-13.7,3.9-27.9,6.1-42.1,6.4c14.9,0.1,29.9,0.2,44.8,0.3
		c-19.1,2.7-38.3,5.5-56.8,10.9c24.7-0.6,49.3,0.4,73.9,2.9c-23.9,6-49.5,2.1-73.2,8.7c16.4-0.8,32.9-1.1,49.4-0.9
		c-16.9,0.7-33.7,2-50.4,4c23,0,45.9,0.1,68.9,0.1c-22.4,2.3-44.8,4.6-67.2,7c15.3,0.3,30.7,0.6,46,0.8c-20.3,3.6-41.1,4.7-61.7,3.1
		c25.7,0.5,51.4,1,77.1,1.5c-15.7,2.8-31.6,5.1-47.4,6.7c17.3-1,34.7-1.2,52-0.7c-24.6,1.4-49.3,2.8-73.9,4.2
		c17.8-1.1,35.8-0.7,53.6,1c-10.8,3.7-22.4,5.4-33.8,4.8c19.6-1.4,39.3-1.2,58.8,0.7c-19,1.4-37.9,2.9-56.9,4.3
		c-8.5,0.6-17.1,1.3-25.3,3.4c24.4,0.7,48.8,1.4,73.2,2c-22.5,3.5-45.4,3-68.1,2.5c19.7,0.2,39.5,0.3,59.2,0.5
		c-20.8,3.1-41.9,4.7-63,4.8c26.9-1.2,53.9-2.5,80.6,1.4c-25.7,3-51.4,6-77,9.1c31.1,2.6,62.3,3.4,93.5,2.6
		c-29.9,4.9-60.3,7-90.5,6.4c25.3-1.9,50.6-2.8,75.9-2.6c-30.6,0-61.5,0.1-91.6,5.8c27.9,1.3,55.8,2.6,83.7,3.9
		c-27,1.2-53.9,2.3-80.9,3.5c43.5,0.4,86.9,2,130.3,5c-35.1,3.8-70.5-1.6-105.4-6.9c25-5.4,50.7-7.8,76.3-7.1
		c-13.9,1.2-27.9,1.7-41.9,1.5c7.4-0.3,14.7-0.7,22.1-1c-31,0-62.1,0-93.1,0c29.9,5.2,60.5,4.5,90.8,3.8"/>
</g>
</svg>
