<?xml version="1.0" encoding="utf-8"?>
<!-- Generator: Adobe Illustrator 19.2.1, SVG Export Plug-In . SVG Version: 6.00 Build 0)  -->
<svg version="1.0" xmlns="http://www.w3.org/2000/svg" xmlns:xlink="http://www.w3.org/1999/xlink" x="0px" y="0px" width="432px"
	 height="432px" viewBox="0 0 432 432" enable-background="new 0 0 432 432" xml:space="preserve">
<g id="Layer_2">
	<path fill="#27AAE1" d="M173.8,108.7c0,0-36.4,37.4-9.1,77.3c0,0-20.5-4.6-16.8-43C147.9,143.1,152.5,113.1,173.8,108.7z"/>
	<polygon fill="#27AAE1" points="144.1,192.1 125.5,318 104.9,318 133.8,190.2 	"/>
</g>
<g id="Layer_1">
	
		<ellipse transform="matrix(0.1726 -0.985 0.985 0.1726 -1.6226 293.2637)" fill="none" stroke="#000000" stroke-width="2" stroke-miterlimit="10" cx="173.8" cy="147.6" rx="39.6" ry="26.3"/>
	<path fill="none" stroke="#000000" stroke-width="2" stroke-miterlimit="10" d="M160.8,111.5c0,0,20.8,5,33,1.2"/>
	<path fill="none" stroke="#000000" stroke-width="2" stroke-miterlimit="10" d="M157.8,115.5c0,0,22.8,10,39.8,2.2"/>
	<path fill="none" stroke="#000000" stroke-width="2" stroke-miterlimit="10" d="M154.2,119.5c0,0,21,13.5,45.5,4.2"/>
	<line fill="none" stroke="#000000" stroke-width="2" stroke-miterlimit="10" x1="157" y1="181.4" x2="154.2" y2="193.2"/>
	<line fill="none" stroke="#000000" stroke-width="2" stroke-miterlimit="10" x1="171.5" y1="186.8" x2="170.2" y2="197"/>
	<path fill="none" stroke="#000000" stroke-width="2" stroke-miterlimit="10" d="M104.9,318l28.8-127.8l52.5,9.6
		c0,0-2.8,25.8-5.7,53.1"/>
	<path fill="none" stroke="#000000" stroke-width="2" stroke-miterlimit="10" d="M178,276.8c-2.3,21.9-4.3,39.9-4.3,39.9"/>
	<path fill="none" stroke="#000000" stroke-width="2" stroke-miterlimit="10" d="M140.7,234l42.7,49.3H244l14.3,4h15.3l2.3-6.3
		c0,0-25.7-10.7-26.7-10.7s-57-1.7-57-1.7L157.8,223"/>
	<line fill="none" stroke="#000000" stroke-width="2" stroke-miterlimit="10" x1="192.3" y1="268.7" x2="184" y2="283.3"/>
	<polyline fill="none" stroke="#000000" stroke-width="2" stroke-miterlimit="10" points="183.6,224.4 205.8,248.9 241,255.2 
		261.7,262.7 259.7,268.7 243,265.3 245,269.6 	"/>
	<polyline fill="none" stroke="#000000" stroke-width="2" stroke-miterlimit="10" points="239.2,270.1 235.6,264.9 202.4,264.9 
		181.2,247 	"/>
	<line fill="none" stroke="#000000" stroke-width="2" stroke-miterlimit="10" x1="205.8" y1="248.9" x2="202.4" y2="264.9"/>
	<polyline fill="none" stroke="#000000" stroke-width="2" stroke-miterlimit="10" points="93.5,316.7 104,190.2 148.2,182.8 
		148.2,193.2 	"/>
	<polyline fill="none" stroke="#000000" stroke-width="2" stroke-miterlimit="10" points="148.2,182.8 137.5,178 92.5,182.8 
		76.2,320.2 	"/>
	<line fill="none" stroke="#000000" stroke-width="2" stroke-miterlimit="10" x1="92.5" y1="182.8" x2="104" y2="190.2"/>
	<path fill="none" stroke="#000000" stroke-width="2" stroke-miterlimit="10" d="M245.7,256.9l32-1.7l39.7,40.8l-66,14.3
		c0,0-12-14.3-22.3-26.7"/>
	<path fill="none" stroke="#000000" stroke-width="2" stroke-miterlimit="10" d="M217.1,269.4c-1.9-2.2-3-3.6-3-3.6l-0.7,3.5"/>
	<polyline fill="none" stroke="#000000" stroke-width="2" stroke-miterlimit="10" points="277.7,255.2 294.3,191.9 344.7,234.3 
		317.3,296 	"/>
	<polyline fill="none" stroke="#000000" stroke-width="2" stroke-miterlimit="10" points="294.4,191.1 305.7,190.2 356.7,227.7 
		323.7,304.7 250.3,325.7 213.3,283.3 	"/>
	<line fill="none" stroke="#000000" stroke-width="2" stroke-miterlimit="10" x1="317.3" y1="295" x2="323.7" y2="304.7"/>
	<line fill="none" stroke="#000000" stroke-width="2" stroke-miterlimit="10" x1="344.7" y1="234.3" x2="356.7" y2="227.7"/>
	<line fill="none" stroke="#000000" stroke-width="2" stroke-miterlimit="10" x1="251.3" y1="310.3" x2="250.3" y2="325.7"/>
</g>
<g id="Layer_3">
	<path opacity="0" fill="none" stroke="#3ABFEF" stroke-width="20" stroke-miterlimit="10" d="M154,111c8.1-0.7,16.3-1.1,24.5-1.2
		c-10.9,2.5-22.1,3.6-33.2,3.3c9.4,0.7,18.9,1.4,28.3,2.1c-9.3,0.2-18.5,1.2-27.6,2.9c9-0.7,18-0.2,26.8,1.5
		c-11.6,3.6-23.7,5.9-35.8,7c10.2,0.1,20.4,0.6,30.6,1.5c-9.3,1.4-18.6,2.8-27.9,4.2c7.9-0.7,15.9-0.3,23.8,1
		c-10.1,4.1-20.8,6.4-31.7,6.7c8.1-0.4,16.3,0.3,24.3,2c-6,1.5-12.3,2.2-18.5,2.2c10.2-0.5,20.4,0,30.5,1.6
		c-13.3,1.8-26.5,4.4-39.4,7.8c10.9,0.1,21.7,0.2,32.6,0.3c-6.8,4-14,7.2-21.6,9.5c10.1-0.7,20.2-0.7,30.2,0.1
		c-11.5,3.1-23.2,5.3-35,6.4c10.9,0,21.9,1.1,32.6,3.1c-7.2,1.2-14.4,2.5-21.6,3.7c5.3,1.3,10.7,2.5,16.1,1.9
		c-12.4,4.9-24.8,9.9-37.2,14.8c10.2-0.2,20.5,0.4,30.7,1.8c-11.6,2.2-23.1,4.5-34.7,6.7c12.9,0.7,25.8,1.3,38.7,2
		c-14.6,3.1-29.1,6.1-43.7,9.2c11.2-0.4,22.3-0.8,33.5-1.2c-11.9,3.5-23.6,8.2-34.6,13.9c12.5,0,24.9-0.1,37.4-0.1
		c-14.9,2.8-29.9,5.6-44.8,8.4c12.9-0.4,25.8-0.3,38.7,0.3c-10.7,2.5-21,6.7-30.4,12.3c11.9,0.3,23.8-0.2,35.7-1.5
		c-14.7,3.9-28.8,9.9-41.9,17.7c12-1.4,24-2.7,36-4.1c-13.9,3.3-27.6,7.6-40.9,13c12.8-1.6,25.7-3.1,38.5-4.7
		c-13.1,5.1-26.2,10.2-39.3,15.3c13.5-2.3,27-4.6,40.6-6.8c-14.8,5.6-29.3,12.3-43.3,19.8c9.1-1.7,18.4-3,27.7-3.7
		c-10.7,5.1-21.8,9.4-33.1,13.1c10.9-1.4,21.8-2.1,32.8-2.1c-10.3,4.2-20.6,8.4-30.9,12.6c13.1-1.1,26.3-2.2,39.4-3.3
		c-13.3,1.5-26.4,4.1-39.3,7.8c18.8,0,37.6,0,56.4,0"/>
</g>
</svg>
