<?xml version="1.0" encoding="utf-8"?>
<!-- Generator: Adobe Illustrator 21.0.0, SVG Export Plug-In . SVG Version: 6.00 Build 0)  -->
<!DOCTYPE svg PUBLIC "-//W3C//DTD SVG 1.0//EN" "http://www.w3.org/TR/2001/REC-SVG-20010904/DTD/svg10.dtd">
<svg version="1.0" id="Layer_2" xmlns="http://www.w3.org/2000/svg" xmlns:xlink="http://www.w3.org/1999/xlink" x="0px" y="0px"
	 width="1217px" height="1176px" viewBox="0 0 1217 1176" enable-background="new 0 0 1217 1176" xml:space="preserve">
<path fill="none" stroke="#000000" stroke-width="5" stroke-miterlimit="10" d="M506.9,163.6c-3.3-0.6-6.5-1.1-9.8-1.3
	c-8.6-0.4-17.1,1.8-25.5,4c-19.3,5.1-38.8,8.1-57.9,13.3c-35.3,9.7-67.3,29.2-96.7,50.5c-17.5,12.7-35.2,26.4-56.4,31
	c-7.6,1.6-15.7,2-22.6,5.6c-5.4,2.7-9.8,7.2-13.9,11.7c-12.6,14.1-22.9,29.9-32.9,45.9c-9,14.4-21.9,29.5-28.7,45
	c-13.2,30.4-0.2,66.3-9.7,97.6c-1,3.2-2.2,6.4-4.5,8.7c-3.4,3.5-8.5,4.7-13.2,5.8c-17.5,4.1-36.1,10.9-45.6,26.1
	c-6.5,10.4-4.4,20.6-7.8,31.3C78,551,63,562.1,54.4,571.4c-4.1,4.4-8.3,9-9.9,14.8c-2.3,8.2,1.2,16.9,0.7,25.4
	c-0.9,16-15.4,28.4-18.2,44.2c-2.7,15.5,6.4,30.8,6,46.5c-0.2,9.1-3.6,18.2-1.6,27c1.3,5.6,4.7,10.5,7.2,15.7
	c3.7,7.5,5.7,15.8,8.7,23.6c8.2,20.8,25.7,32.7,36.3,51.1c8.9,15.5,8.5,36.1,26.7,45.7c5.5,2.9,11.9,3.6,18.1,4.1
	c21,1.8,42.2,2.4,63.3,1.9c18.4-0.5,36.2-5.3,54.2-5.5c19.8-0.2,39.6,2.2,58.7,7.2c8.9,2.3,17.8,5.2,26.9,6
	c25.6,2.3,53.4-10.8,76,1.5c4.8,2.6,9.1,6.4,14.2,8.6c15.5,6.8,32.9-2.1,49.6-4.7c25.2-3.9,51.7,6.8,76.1-0.4
	c8.4-2.5,16.6-8,25.6-8.3c9-0.2,12.3,5.5,19.8,7.9c8.7,2.8,21.3,0.6,30.5,1.7c10.9,1.3,21.7,3.2,32.7,3.7
	c48.1,1.9,97.2-11.7,144.7-17.5c12.5-1.5,27.6,1.2,40.5,1.2c16.2,0,32.3,0.6,48.5,1.5c10.8,0.6,21.7,1.5,32.4,3.4
	c8.5,1.6,16.9,3.9,25.4,5.4c17.4,3.2,35.1,3.5,52.8,3.2c16.5-0.2,33-0.8,49.5-1.5c14.6-0.7,34,1.6,47.9-2.6
	c19.1-5.8,45-24.3,48.5-45.6c0.8-4.6,0.7-9.3,0.7-13.9c0.1-17.6,3.4-35.3,2.3-52.7c-1.1-16.9-0.6-35.2,6.1-51.2
	c0,0,17.6-42.7,17.6-42.7s7.8-73.8,0-81c-9.1-8.3-10.7-26.4-12.4-37.8c-2.8-19-8.2-36.9-15.8-54.8c-15.7-37.2-38.6-71.3-67.3-99.7
	c-9.7-9.6-20.1-18.6-31.6-25.9c-16.5-10.4-35-17.2-52.5-25.9c-30.1-15-57.2-35.8-88.3-48.7c-16.1-6.7-33.2-11.3-48.4-19.7
	c-9.4-5.2-18-11.9-26.6-18.5c-19.8-15.3-39.6-30.6-59.4-46c-12.3-9.5-24.6-19-38.6-25.6c-15.3-7.3-32-10.7-48.5-14.2
	c-31.7-12.7-64.7-19.8-98.3-24c-7.8-1-15.6-1.9-23.4-0.8c-14.5,2.1-27.5,11.4-42.1,11.5C515.4,165.1,511.1,164.3,506.9,163.6z"/>
</svg>
