<?xml version="1.0" encoding="utf-8"?>
<!-- Generator: Adobe Illustrator 19.2.1, SVG Export Plug-In . SVG Version: 6.00 Build 0)  -->
<svg version="1.0" id="Layer_1" xmlns="http://www.w3.org/2000/svg" xmlns:xlink="http://www.w3.org/1999/xlink" x="0px" y="0px"
	 width="720px" height="432px" viewBox="0 0 720 432" enable-background="new 0 0 720 432" xml:space="preserve">
<line fill="none" stroke="#000000" stroke-width="2" stroke-miterlimit="10" x1="551.7" y1="169" x2="591.5" y2="287.5"/>
<line fill="none" stroke="#000000" stroke-width="2" stroke-miterlimit="10" x1="508.3" y1="158.7" x2="543" y2="269"/>
<line fill="none" stroke="#000000" stroke-width="2" stroke-miterlimit="10" x1="448.3" y1="169" x2="486" y2="287.5"/>
<line fill="none" stroke="#000000" stroke-width="2" stroke-miterlimit="10" x1="168.6" y1="169" x2="128.8" y2="287.5"/>
<line fill="none" stroke="#000000" stroke-width="2" stroke-miterlimit="10" x1="212" y1="158.7" x2="177.3" y2="269"/>
<line fill="none" stroke="#000000" stroke-width="2" stroke-miterlimit="10" x1="272" y1="169" x2="234.3" y2="287.5"/>
<path fill="none" stroke="#000000" stroke-width="2" stroke-miterlimit="10" d="M619.7,146l-68,23l-43.3-10.3l-60,10.3
	c0,0-46.4,0-92.5,0l8.6,0c-46.1,0-92.5,0-92.5,0l-60-10.3L168.6,169l-68-23L35.8,257l93,30.5l48.5-18.5l57,18.5h111l29.7,0h111
	l57-18.5l48.5,18.5l93-30.5L619.7,146z"/>
</svg>
