<?xml version="1.0" encoding="utf-8"?>
<!-- Generator: Adobe Illustrator 19.2.1, SVG Export Plug-In . SVG Version: 6.00 Build 0)  -->
<svg version="1.0" id="Layer_1" xmlns="http://www.w3.org/2000/svg" xmlns:xlink="http://www.w3.org/1999/xlink" x="0px" y="0px"
	 width="432px" height="432px" viewBox="0 0 432 432" enable-background="new 0 0 432 432" xml:space="preserve">
<path fill="none" stroke="#000000" stroke-width="2" stroke-miterlimit="10" d="M216.1,157.7V287c0,0-61.4-10.7-94.1-4V153.3
	C122,153.3,165.5,140,216.1,157.7z"/>
<path fill="none" stroke="#000000" stroke-width="2" stroke-miterlimit="10" d="M216,157.7V287c0,0,61.4-10.7,94.1-4V153.3
	C310.1,153.3,266.6,140,216,157.7z"/>
<path fill="none" stroke="#000000" stroke-width="2" stroke-miterlimit="10" d="M299.6,287.2c0,0.5,0,0.8,0,0.8h-167c0,0,0-0.7,0-2"
	/>
<path fill="none" stroke="#000000" stroke-width="2" stroke-miterlimit="10" d="M126.7,282.2v4.8c0,0,29.6-4.8,85.6,1"/>
<path fill="none" stroke="#000000" stroke-width="2" stroke-miterlimit="10" d="M305.3,282.2v4.8c0,0-29.6-4.8-85.6,1"/>
<path fill="none" stroke="#000000" stroke-width="2" stroke-miterlimit="10" d="M212.1,156.5c3.1,0,4.2,0,7.3,0"/>
</svg>
