<?xml version="1.0" encoding="utf-8"?>
<!-- Generator: Adobe Illustrator 19.2.1, SVG Export Plug-In . SVG Version: 6.00 Build 0)  -->
<svg version="1.0" id="Layer_1" xmlns="http://www.w3.org/2000/svg" xmlns:xlink="http://www.w3.org/1999/xlink" x="0px" y="0px"
	 width="432px" height="432px" viewBox="0 0 432 432" enable-background="new 0 0 432 432" xml:space="preserve">
<polygon fill="none" stroke="#000000" stroke-width="2" stroke-miterlimit="10" points="157,125.7 161,307.7 269,307.7 276.3,130.3 
	"/>
<line fill="none" stroke="#000000" stroke-width="2" stroke-miterlimit="10" x1="167.5" y1="163.5" x2="214" y2="163.5"/>
<path fill="none" stroke="#000000" stroke-width="2" stroke-miterlimit="10" d="M167.5,175.5c1.5,0,98,0,98,0"/>
<path fill="none" stroke="#000000" stroke-width="2" stroke-miterlimit="10" d="M167.5,194.5c1.5,0,98,0,98,0"/>
<path fill="none" stroke="#000000" stroke-width="2" stroke-miterlimit="10" d="M167.5,211c1.5,0,98,0,98,0"/>
<path fill="none" stroke="#000000" stroke-width="2" stroke-miterlimit="10" d="M167.7,226.5c1.5,0,98,0,98,0"/>
<path fill="none" stroke="#000000" stroke-width="2" stroke-miterlimit="10" d="M167.5,242.5c1.5,0,98,0,98,0"/>
<path fill="none" stroke="#000000" stroke-width="2" stroke-miterlimit="10" d="M167.5,255.5c1.5,0,98,0,98,0"/>
<path fill="none" stroke="#000000" stroke-width="2" stroke-miterlimit="10" d="M167.5,270.1c1.5,0,98,0,98,0"/>
<path fill="none" stroke="#000000" stroke-width="2" stroke-miterlimit="10" d="M167.5,283.5c1.5,0,98,0,98,0"/>
<path fill="none" stroke="#000000" stroke-width="2" stroke-miterlimit="10" d="M167.5,297.7c1.5,0,98,0,98,0"/>
<path fill="none" stroke="#000000" stroke-width="2" stroke-miterlimit="10" d="M225.8,144.5c-1.4-0.1-2.5,0.1-2.5,0.1s0,6.2,0,12.3
	c3.4,0.6,9,0.6,9-5.4C232.3,145.8,228.5,144.6,225.8,144.5z"/>
<line fill="none" stroke="#000000" stroke-width="2" stroke-miterlimit="10" x1="223.3" y1="144.7" x2="223.3" y2="167.8"/>
<path fill="none" stroke="#000000" stroke-width="2" stroke-miterlimit="10" d="M237.7,145.7v21.1c0,0,12.5-2,12.5-10.5
	C250.2,147.8,237.7,145.7,237.7,145.7z"/>
<polyline fill="none" stroke="#000000" stroke-width="2" stroke-miterlimit="10" points="254.5,167.8 253.7,144.5 264.8,144.7 "/>
<line fill="none" stroke="#000000" stroke-width="2" stroke-miterlimit="10" x1="254" y1="155" x2="262.5" y2="155"/>
</svg>
