<?xml version="1.0" encoding="utf-8"?>
<!-- Generator: Adobe Illustrator 21.0.0, SVG Export Plug-In . SVG Version: 6.00 Build 0)  -->
<!DOCTYPE svg PUBLIC "-//W3C//DTD SVG 1.0//EN" "http://www.w3.org/TR/2001/REC-SVG-20010904/DTD/svg10.dtd">
<svg version="1.0" id="Layer_1" xmlns="http://www.w3.org/2000/svg" xmlns:xlink="http://www.w3.org/1999/xlink" x="0px" y="0px"
	 width="504px" height="504px" viewBox="0 0 504 504" enable-background="new 0 0 504 504" xml:space="preserve">
<ellipse fill="none" stroke="#000000" stroke-width="2" stroke-miterlimit="10" cx="253" cy="359" rx="18.3" ry="27.1"/>
<path fill="none" stroke="#000000" stroke-width="2" stroke-miterlimit="10" d="M226.9,394.1c0,0,24.9-16,49.5,0l7.2,71.2
	c0,0-42.3,15.8-63.2,0L226.9,394.1z"/>
<path fill="none" stroke="#000000" stroke-width="2" stroke-miterlimit="10" d="M223.1,467.1l7.3,15.5c0,0,16.2,5.1,40.2,0l7.4-15.5
	"/>
<path fill="none" stroke="#000000" stroke-width="2" stroke-miterlimit="10" d="M226.8,395.3l-22.6,67l-20.4,4.9
	c0,0,2.1,5.8,2.7,5.2c0.6-0.6,18.8-1.9,18.8-1.9l6.1,3.2l4-3l-3.2-6.7l11.3-33.2"/>
<path fill="none" stroke="#000000" stroke-width="2" stroke-miterlimit="10" d="M276.5,394.9l23.2,67.3l20.4,4.9
	c0,0-2.1,5.8-2.7,5.2s-18.8-1.9-18.8-1.9l-6.1,3.2l-4-3l3.2-6.7l-11.4-32.2"/>
<ellipse transform="matrix(0.1877 -0.9822 0.9822 0.1877 -41.8083 611.4958)" fill="none" stroke="#000000" stroke-width="2" stroke-miterlimit="10" cx="348.8" cy="331" rx="23.8" ry="16"/>
<line fill="none" stroke="#000000" stroke-width="2" stroke-miterlimit="10" x1="360.7" y1="344.4" x2="364.3" y2="350.3"/>
<path fill="none" stroke="#000000" stroke-width="2" stroke-miterlimit="10" d="M351.9,413.3l-16,5.8l-8-4l15.2-56.3l27.2-10.7
	c0,0,14,18.5,23.2,75.8c0,0-24.5,9.7-40.7,5.7l-3.2-52.2"/>
<path fill="none" stroke="#000000" stroke-width="2" stroke-miterlimit="10" d="M350.2,387.8c0,0.7-5.3,20.5-12.9,30.8"/>
<path fill="none" stroke="#000000" stroke-width="2" stroke-miterlimit="10" d="M327.9,415.1l-19.7,6.5v15.2c0,0,20,15.8,32.3,16
	s42.5-3.7,45.8-9.7s5.7-18.7,5.7-18.7"/>
<path fill="none" stroke="#000000" stroke-width="2" stroke-miterlimit="10" d="M352.6,427.6c0,0-13.7-5.5-32.4-6.5"/>
<polygon fill="none" stroke="#000000" stroke-width="2" stroke-miterlimit="10" points="467,158.9 459.4,258.8 467,258.8 
	481.3,158.9 "/>
<polygon fill="none" stroke="#000000" stroke-width="2" stroke-miterlimit="10" points="470.3,258.8 400.3,256.9 401.5,273.6 
	470.3,270.3 "/>
<polyline fill="none" stroke="#000000" stroke-width="2" stroke-miterlimit="10" points="408.2,273.3 413.1,332.1 417.7,332.1 
	417.7,273.6 "/>
<polyline fill="none" stroke="#000000" stroke-width="2" stroke-miterlimit="10" points="467,270.5 467,331.2 459.4,331.2 
	456.3,271 "/>
<line fill="none" stroke="#000000" stroke-width="2" stroke-miterlimit="10" x1="417.7" y1="298" x2="457.7" y2="298"/>
<line fill="none" stroke="#000000" stroke-width="2" stroke-miterlimit="10" x1="417.7" y1="305.3" x2="458" y2="304.1"/>
<ellipse transform="matrix(2.972208e-02 -0.9996 0.9996 2.972208e-02 277.7383 592.2635)" fill="none" stroke="#000000" stroke-width="2" stroke-miterlimit="10" cx="443.9" cy="153.1" rx="24.3" ry="16.4"/>
<path fill="none" stroke="#000000" stroke-width="2" stroke-miterlimit="10" d="M436.4,245.2c-3.5,0.4-6,0.7-6,0.7
	s8.5-22.1,7.2-59.7c0,0,19.1-7.5,20-7.2s6.6,23.3,2.9,63.4c0,0-8.3,1-16.2,1.9"/>
<path fill="none" stroke="#000000" stroke-width="2" stroke-miterlimit="10" d="M445.3,192.4l-10,60l-15.5,1.5c0,0-0.4,1.5-0.8,3.2"
	/>
<line fill="none" stroke="#000000" stroke-width="2" stroke-miterlimit="10" x1="440.5" y1="258.8" x2="453" y2="206"/>
<polyline fill="none" stroke="#000000" stroke-width="2" stroke-miterlimit="10" points="430.4,245.8 390.5,246.6 398.8,316.2 
	404.3,316.2 405.5,273.6 "/>
<path fill="none" stroke="#000000" stroke-width="2" stroke-miterlimit="10" d="M398.8,316.2c-2.4,0.4-24.1,9.5-24.1,9.5l15.8,6.4
	l13.8-15.9"/>
<polyline fill="none" stroke="#000000" stroke-width="2" stroke-miterlimit="10" points="398.3,312 371.3,313.8 380.5,323.3 "/>
<line fill="none" stroke="#000000" stroke-width="2" stroke-miterlimit="10" x1="443.2" y1="177.4" x2="443.4" y2="184"/>
<line fill="none" stroke="#000000" stroke-width="2" stroke-miterlimit="10" x1="450.5" y1="175.2" x2="451.6" y2="180.2"/>
<ellipse transform="matrix(0.9822 -0.1877 0.1877 0.9822 -59.4139 34.7536)" fill="none" stroke="#000000" stroke-width="2" stroke-miterlimit="10" cx="153.8" cy="331.1" rx="16" ry="23.8"/>
<line fill="none" stroke="#000000" stroke-width="2" stroke-miterlimit="10" x1="141.9" y1="344.5" x2="138.3" y2="350.4"/>
<path fill="none" stroke="#000000" stroke-width="2" stroke-miterlimit="10" d="M150.6,413.4l16,5.8l8-4l-15.2-56.3l-27.2-10.7
	c0,0-14,18.5-23.2,75.8c0,0,24.5,9.7,40.7,5.7l3.2-52.2"/>
<path fill="none" stroke="#000000" stroke-width="2" stroke-miterlimit="10" d="M152.4,387.9c0,0.7,5.3,20.5,12.9,30.8"/>
<path fill="none" stroke="#000000" stroke-width="2" stroke-miterlimit="10" d="M174.6,415.2l19.7,6.5v15.2c0,0-20,15.8-32.3,16
	s-42.5-3.7-45.8-9.7s-5.7-18.7-5.7-18.7"/>
<path fill="none" stroke="#000000" stroke-width="2" stroke-miterlimit="10" d="M149.9,427.8c0,0,13.7-5.5,32.4-6.5"/>
<ellipse transform="matrix(0.9996 -2.972208e-02 2.972208e-02 0.9996 -4.3134 1.8301)" fill="none" stroke="#000000" stroke-width="2" stroke-miterlimit="10" cx="59.4" cy="146" rx="16.4" ry="24.3"/>
<line fill="none" stroke="#000000" stroke-width="2" stroke-miterlimit="10" x1="52.9" y1="168.1" x2="51.7" y2="173.1"/>
<line fill="none" stroke="#000000" stroke-width="2" stroke-miterlimit="10" x1="60.1" y1="170.3" x2="59.9" y2="176.8"/>
<path fill="none" stroke="#000000" stroke-width="2" stroke-miterlimit="10" d="M66.9,238c3.5,0.4,6,0.7,6,0.7s-8.5-22.1-7.2-59.7
	c0,0-19.1-7.5-20-7.2s-6.6,23.3-2.9,63.4c0,0,8.3,1,16.2,1.9"/>
<path fill="none" stroke="#000000" stroke-width="2" stroke-miterlimit="10" d="M58.1,185.2l10,60l15.5,1.5c0,0,0.4,1.5,0.8,3.2"/>
<line fill="none" stroke="#000000" stroke-width="2" stroke-miterlimit="10" x1="62.8" y1="251.7" x2="50.4" y2="198.9"/>
<polyline fill="none" stroke="#000000" stroke-width="2" stroke-miterlimit="10" points="72.9,238.7 112.9,239.5 104.5,309.1 
	99.1,309.1 97.8,266.5 "/>
<path fill="none" stroke="#000000" stroke-width="2" stroke-miterlimit="10" d="M104.5,309.1c2.4,0.4,24.1,9.5,24.1,9.5l-15.8,6.4
	L99,309.1"/>
<polyline fill="none" stroke="#000000" stroke-width="2" stroke-miterlimit="10" points="105,304.9 132,306.7 122.9,316.2 "/>
<polygon fill="none" stroke="#000000" stroke-width="2" stroke-miterlimit="10" points="36.4,151.8 44,251.7 36.4,251.7 22.1,151.8 
	"/>
<polygon fill="none" stroke="#000000" stroke-width="2" stroke-miterlimit="10" points="33,251.7 103,249.8 101.8,266.5 33,263.2 
	"/>
<polyline fill="none" stroke="#000000" stroke-width="2" stroke-miterlimit="10" points="95.1,266.2 90.2,325 85.7,325 85.7,266.5 
	"/>
<polyline fill="none" stroke="#000000" stroke-width="2" stroke-miterlimit="10" points="36.4,263.3 36.4,324.1 44,324.1 47,263.9 
	"/>
<line fill="none" stroke="#000000" stroke-width="2" stroke-miterlimit="10" x1="85.7" y1="290.9" x2="45.6" y2="290.9"/>
<line fill="none" stroke="#000000" stroke-width="2" stroke-miterlimit="10" x1="85.7" y1="298.2" x2="45.3" y2="297"/>
</svg>
