<?xml version="1.0" encoding="utf-8"?>
<!-- Generator: Adobe Illustrator 19.2.1, SVG Export Plug-In . SVG Version: 6.00 Build 0)  -->
<svg version="1.0" xmlns="http://www.w3.org/2000/svg" xmlns:xlink="http://www.w3.org/1999/xlink" x="0px" y="0px" width="432px"
	 height="432px" viewBox="0 0 432 432" enable-background="new 0 0 432 432" xml:space="preserve">
<g id="Layer_2">
	<polygon fill="#27AAE1" points="220.3,165.3 210.3,180.7 210.3,192 149.5,173 165,194 148.9,198.3 168.3,213.7 159,224 201,234 
		203.3,240.7 173,272.7 233.3,263.7 246.7,244.4 262.3,232.3 266,222.7 266.7,196.7 283.7,183.3 267.7,182.3 275.2,163.7 
		256.8,170.2 245,159.7 	"/>
</g>
<g id="Layer_1">
	<path fill="none" stroke="#000000" stroke-width="2" stroke-miterlimit="10" d="M149.5,173l60.8,19v-11.3l10-15.3l24.7-5.7l12,10.7
		l18.2-6.7L268,182c0,0,16.7,0.3,15.7,1.3s-17,13.3-17,13.3l-0.7,26l-3.7,9.7l-16,12.3l-13,19c0,0-62.7,10-61.3,9s31.3-31,31.3-32
		s-1.3-6-2.3-6.7s-42-9-42-10s9.3-10.3,9.3-10.3l-19.5-15.3L165,194L149.5,173z"/>
</g>
<g id="Layer_3">
	<path opacity="0" fill="none" stroke="#79C143" stroke-width="25" stroke-miterlimit="10" d="M143.8,156.3
		c47.9,0.4,95.8,0.8,143.7,1.2c-35.3,1.2-70.7,2.6-106,4.2c-5.2,0.2-10.5,0.5-15.7,1.6c-8.7,1.9-17.3,6.3-26.1,4.8
		c51.4,0.1,102.7,0.1,154.1,0.2c-50.8,8.5-103.1-0.6-154.3,5.2c57.7,0.9,115.4,0.5,173.1-1.2c-33.2-0.4-66.2,4.5-99.3,7.2
		c-24.3,2-48.8,2.8-73.2,2.5c56.3,1.2,112.6,2.3,168.8,6.1c-59.7,1.9-119.4,3.8-179.1,5.7c55.6,1,111.3,1.2,166.9-0.8
		c-6.2,2.7-13.2,3.2-19.9,3.7c-48.8,3.2-97.5,6.2-146.3,9.2c52,0.5,104.1,1,156.1,1.5c-54.3,4.5-108.9,4.3-163.4,4.1
		c8.5,1.4,17.2,1.7,25.8,2.1c38.4,1.5,76.7,3.1,115.1,4.6c-42.2,5.5-84.8,7.2-127.3,8.9c47.6-0.5,95.2-1.1,142.8-1.6
		c-39,8.2-79.2,8-119.1,7.8c37.8-0.2,75.6,0.5,113.4,2.1c-31.3,5.2-62.9,8.8-94.6,8.9c32.5-2.8,65.1-3.8,97.7-2.8
		c-31.8,4.7-63.7,8.8-95.7,12.4c28.1-0.6,56.1-1.2,84.2-1.8c-31.5,2.3-62.8,7.3-93.6,14.7c22.8,1.2,45.8,0.5,68.5-2
		c-25.9,0-51.7,0-77.6,0c28.5,1.6,57.2,0.4,85.5-3.5"/>
</g>
</svg>
