<?xml version="1.0" encoding="utf-8"?>
<!-- Generator: Adobe Illustrator 19.2.1, SVG Export Plug-In . SVG Version: 6.00 Build 0)  -->
<svg version="1.0" id="Layer_1" xmlns="http://www.w3.org/2000/svg" xmlns:xlink="http://www.w3.org/1999/xlink" x="0px" y="0px"
	 width="432px" height="432px" viewBox="0 0 432 432" enable-background="new 0 0 432 432" xml:space="preserve">
<ellipse transform="matrix(0.9781 -0.2081 0.2081 0.9781 -29.1156 54.548)" fill="none" stroke="#000000" stroke-width="2" stroke-miterlimit="10" cx="244.7" cy="165.7" rx="25.5" ry="38"/>
<path fill="none" stroke="#000000" stroke-width="2" stroke-miterlimit="10" d="M250.1,213.7l-29.6-2.2c0,0-39-89.5,6-100
	c0,0,40-22.1,63.5,29.4s23,55.9,23,55.9l-32,10.5"/>
<path fill="none" stroke="#000000" stroke-width="2" stroke-miterlimit="10" d="M273.6,156.4c0,0-1.1,20.8-16.6,29.4"/>
<ellipse transform="matrix(0.9648 -0.2631 0.2631 0.9648 -40.3975 72.9254)" fill="none" stroke="#000000" stroke-width="2" stroke-miterlimit="10" cx="252.1" cy="187.3" rx="5.1" ry="4.6"/>
<line fill="none" stroke="#000000" stroke-width="2" stroke-miterlimit="10" x1="252.6" y1="202.8" x2="254.4" y2="211.8"/>
<line fill="none" stroke="#000000" stroke-width="2" stroke-miterlimit="10" x1="262.7" y1="196.8" x2="269.2" y2="205.4"/>
<path fill="none" stroke="#000000" stroke-width="2" stroke-miterlimit="10" d="M318.3,297c-8.3-25-40.3-95.3-40.3-95.3L247,215
	l0.5,31c0,0,8.2,10.9,13.6,18.1"/>
<path fill="none" stroke="#000000" stroke-width="2" stroke-miterlimit="10" d="M265.5,279.7c-0.5,12.6-1.3,33.5-1.3,33.5"/>
<polyline fill="none" stroke="#000000" stroke-width="2" stroke-miterlimit="10" points="272.8,238.8 256.2,273.2 215.8,294.2 
	201,294.2 187.5,304.2 197.5,308.2 220.8,302.5 262.7,284.8 281.2,249.2 "/>
<line fill="none" stroke="#000000" stroke-width="2" stroke-miterlimit="10" x1="256.2" y1="273.2" x2="262.7" y2="284.8"/>
<path fill="none" stroke="#000000" stroke-width="2" stroke-miterlimit="10" d="M247.4,237l-19.9,32l-27.2,17.2c0,0-9.2-1.5-10-1.5
	c-0.4,0-4.8,2.4-8.5,4.5"/>
<path fill="none" stroke="#000000" stroke-width="2" stroke-miterlimit="10" d="M182.4,295.6c1.6,0.9,3.1,1.5,3.4,1.4
	c0.8-0.2,11.8-4.2,11.8-4.2l-1.7,5.4"/>
<polyline fill="none" stroke="#000000" stroke-width="2" stroke-miterlimit="10" points="206,294.2 209,290.2 234.4,277.5 
	252.6,252.8 "/>
<line fill="none" stroke="#000000" stroke-width="2" stroke-miterlimit="10" x1="227.5" y1="269" x2="234.4" y2="277.5"/>
<polyline fill="none" stroke="#000000" stroke-width="2" stroke-miterlimit="10" points="174,342.2 172.5,251.5 114,213.7 
	115.8,294.2 174,342.2 243.5,322 243.5,309.8 173.7,326.4 "/>
<polyline fill="none" stroke="#000000" stroke-width="2" stroke-miterlimit="10" points="114,213.7 125.8,209 181,243.8 
	172.5,251.5 "/>
<line fill="none" stroke="#000000" stroke-width="2" stroke-miterlimit="10" x1="181" y1="243.8" x2="182.4" y2="324.3"/>
<path fill="none" stroke="#000000" stroke-width="2" stroke-miterlimit="10" d="M243.5,309.8c0,0-7-4.7-15.7-10.7"/>
<path fill="none" stroke="#000000" stroke-width="2" stroke-miterlimit="10" d="M218.7,293c-2.2-1.5-4.4-3-6.5-4.4"/>
<path fill="none" stroke="#000000" stroke-width="2" stroke-miterlimit="10" d="M204.7,283.4c-6.4-4.3-11-7.4-11-7.4l-11.4,1.5"/>
</svg>
