<?xml version="1.0" encoding="utf-8"?>
<!-- Generator: Adobe Illustrator 21.0.0, SVG Export Plug-In . SVG Version: 6.00 Build 0)  -->
<!DOCTYPE svg PUBLIC "-//W3C//DTD SVG 1.0//EN" "http://www.w3.org/TR/2001/REC-SVG-20010904/DTD/svg10.dtd">
<svg version="1.0" id="Layer_1" xmlns="http://www.w3.org/2000/svg" xmlns:xlink="http://www.w3.org/1999/xlink" x="0px" y="0px"
	 width="288px" height="288px" viewBox="0 0 288 288" enable-background="new 0 0 288 288" xml:space="preserve">
<g id="Layer_2">
	<path fill="#2B2B2B" d="M203.1,124.7c-4.7-11.6-13.5-18.9-19.8-16.3c-1.2,0.5-2.2,1.3-3,2.3h-10.9l0,0c-9-4.3-20.1-6.9-32-6.9
		c-30.4,0-55,16.4-55,36.6s24.6,36.6,55,36.6c26.3,0,48.2-12.3,53.7-28.7c3.2,2.2,6.4,3,9.1,1.9
		C206.5,147.7,207.8,136.3,203.1,124.7z"/>
</g>
<g id="Layer_1_1_">
	<path fill="none" stroke="#000000" stroke-width="2" stroke-miterlimit="10" d="M178.3,120.6c0,3.9,0.7,8.3,2.1,12.7
		c4.2,13.1,13.2,21.9,20.2,19.7c6.9-2.2,9.2-14.6,5-27.7s-13.2-21.9-20.2-19.7c-2.4,0.8-4.2,2.8-5.5,5.6"/>
	<path fill="none" stroke="#000000" stroke-width="2" stroke-miterlimit="10" d="M183.5,111.4l-8.6-0.7c0,0-10.1,0.7-11.2,1.3
		c-1.1,0.6-8.7,6.4-9.3,7.6c-0.7,1.2,1.4,6.9,3.4,8.5c2,1.6,8.8,0.6,8.8,0.6l16.7-11.3L183.5,111.4z"/>
	<path fill="none" stroke="#000000" stroke-width="2" stroke-miterlimit="10" d="M179.6,111.5c-10.4-9.7-26.5-15.9-44.7-15.9
		c-31.3,0-56.6,18.4-56.6,41.1s25.4,41.1,56.6,41.1c25.8,0,47.5-12.5,54.4-29.6"/>
	<polyline fill="none" stroke="#000000" stroke-width="2" stroke-miterlimit="10" points="105.9,172.1 110.6,193.1 115.1,193.1 
		115.1,175.3 	"/>
	<polyline fill="none" stroke="#000000" stroke-width="2" stroke-miterlimit="10" points="148.3,176.7 148.3,193.1 154.1,193.1 
		156.8,174.7 	"/>
</g>
<g id="Layer_3">
	<path fill="none" stroke="#27AAE1" stroke-width="25" stroke-miterlimit="10" stroke-opacity="0" d="M94,97.2
		c32.3-0.4,64.7,0,97,1.1c-32.4,7.7-65.4,12.4-98.3,17.1c50.2,1.7,100.4,3.4,150.6,5.1c-55.5,2.8-111.1,6.1-166.6,10
		c13.7,2.6,27.8,2.9,41.8,3.1c18.3,0.2,36.7,0,55-0.1c24.7-0.2,49.5-0.4,74.2-0.7c-13.7,0.8-28,8.2-41.8,9
		c-48.2,2.8-95.9-1-143.7,5.2c35.3,5.8,91.6,9.5,127.2,13.5c-28.9,1.3-78.8,4.4-107.1,10.2c35.7,3.3,71.6,4.9,107.5,4.8"/>
</g>
</svg>
