<?xml version="1.0" encoding="utf-8"?>
<!-- Generator: Adobe Illustrator 19.2.1, SVG Export Plug-In . SVG Version: 6.00 Build 0)  -->
<svg version="1.0" xmlns="http://www.w3.org/2000/svg" xmlns:xlink="http://www.w3.org/1999/xlink" x="0px" y="0px" width="288px"
	 height="288px" viewBox="0 0 288 288" enable-background="new 0 0 288 288" xml:space="preserve">
<g id="Layer_2">
	<polygon fill="#27AAE1" points="205.1,94.1 156.2,150.8 155.2,169.6 207.1,114.6 	"/>
</g>
<g id="Layer_1">
	<path fill="none" stroke="#000000" stroke-width="2" stroke-miterlimit="10" d="M189.2,81.9h-13.3c-6.6,0-12-5.4-12-12V39.5
		c0-6.6,5.4-12,12-12h13.3c6.6,0,12,5.4,12,12v30.4C201.2,76.5,195.8,81.9,189.2,81.9z"/>
	<path fill="none" stroke="#000000" stroke-width="2" stroke-miterlimit="10" d="M163.9,58.3c0,0,10.2,0.8,14.8-0.7
		c4.7-1.5,5-0.8,9.7,0.7c4.7,1.6,12.8,0.2,12.8,0.2"/>
	<path fill="none" stroke="#000000" stroke-width="2" stroke-miterlimit="10" d="M163.9,50.3c0,0-9,4.7,0,11"/>
	<path fill="none" stroke="#000000" stroke-width="2" stroke-miterlimit="10" d="M201.2,50.3c0,0,8.7,7.2,0,11"/>
	<path fill="none" stroke="#000000" stroke-width="2" stroke-miterlimit="10" d="M166.5,92.4c-11.4-0.7-25.2-7.3-25.2-7.3
		c3.5-7.8,6.7-33.3,6.7-33.3c1.7-44.5,34.1-35,34.1-35s32.4-9.7,27.9,33.6c0,0,3.5,30.1,12.8,35.6c0,0-18.8,7.4-26.5,5.7"/>
	<polyline fill="none" stroke="#000000" stroke-width="2" stroke-miterlimit="10" points="178.1,81.9 177.2,90.1 188.6,90.1 
		187.4,81.9 	"/>
	<path fill="none" stroke="#000000" stroke-width="2" stroke-miterlimit="10" d="M205.1,94.1c-19.1-7.5-46.9,0-46.9,0
		s-2.3,117.5-11.3,143.1c0,0,36.7,25.3,71.3,0L205.1,94.1z"/>
	<path fill="none" stroke="#000000" stroke-width="2" stroke-miterlimit="10" d="M158.3,94.7c0,0-32.6,12.8-48.3,11.4l6.7,44.7
		l41-35.6"/>
	<polyline fill="none" stroke="#000000" stroke-width="2" stroke-miterlimit="10" points="110,107.6 101.5,106.1 98,115.2 
		101.5,116.6 106.5,111.4 	"/>
	<path fill="none" stroke="#000000" stroke-width="2" stroke-miterlimit="10" d="M100.9,107.7c0,0-13.1-0.3-13.1,0
		c0,0.3,2.8,18.2,3.8,18.5c1,0.3,16.2-4.7,16.2-4.7l-0.9-7.1l-3-0.5"/>
	<line fill="none" stroke="#000000" stroke-width="2" stroke-miterlimit="10" x1="107" y1="120.8" x2="112.5" y2="120.8"/>
	<path fill="none" stroke="#000000" stroke-width="2" stroke-miterlimit="10" d="M104.4,106.3c-4.6-29.2-8-50.5-8-50.5
		s-3-5.9-4.3-7.3c-1.3-1.3-7.3-6-9-6.7c-1.7-0.7-14-3-14-3s-15.3,3.5-16.3,22.4s10.7,21.8,20.4,22.5c9.7,0.6,9.8,10.9,9.8,10.9
		l6.1,1.9c0,0,0.3-16.2-10.2-17.5c-10.5-1.3-11.8-4.9-11.8-4.9s-6.7-2.3-8-7.3c-1.3-5-1.3-10.9,0.3-12.8c1.7-1.9,9.3-6.9,9.3-6.9
		s18-0.7,21.7,9.5c1.1,3.1,4.8,24.5,9.5,52.8"/>
	<path fill="none" stroke="#000000" stroke-width="2" stroke-miterlimit="10" d="M102.1,123.1C112.7,188,126.4,277,126.4,277
		l4.7-2.4c0,0-14.1-88.8-24.3-153.2"/>
	<line fill="none" stroke="#000000" stroke-width="2" stroke-miterlimit="10" x1="201.2" y1="92.8" x2="156.1" y2="147.2"/>
	<line fill="none" stroke="#000000" stroke-width="2" stroke-miterlimit="10" x1="207.1" y1="114.6" x2="154.6" y2="171"/>
	<path fill="none" stroke="#000000" stroke-width="2" stroke-miterlimit="10" d="M205.1,94.1c0,0,22,26.5,29.6,74.1l-22,9.3"/>
	<polyline fill="none" stroke="#000000" stroke-width="2" stroke-miterlimit="10" points="217.3,175.6 216.2,180.2 219.9,182.6 
		222.6,179.1 227.4,192.9 234.7,192.9 229.6,171 	"/>
	<path fill="none" stroke="#000000" stroke-width="2" stroke-miterlimit="10" d="M167.4,246.5c0.6,7.2,1.2,15,1.2,15h4.8
		c0,0,1.2-7.4,2.2-13.9"/>
	<path fill="none" stroke="#000000" stroke-width="2" stroke-miterlimit="10" d="M189.7,248.2c0.7,6.4,1.4,13.3,1.4,13.3h6
		c0,0,0.4-8,0.8-15"/>
	<polyline fill="none" stroke="#000000" stroke-width="2" stroke-miterlimit="10" points="168.7,261.5 145.2,273.7 168.7,277 
		173.4,261.5 	"/>
	<polyline fill="none" stroke="#000000" stroke-width="2" stroke-miterlimit="10" points="191.2,261.5 192.2,278.5 213.9,273.7 
		197.2,261.5 	"/>
</g>
<g id="Layer_3">
	<path opacity="0" fill="none" stroke="#27AAE1" stroke-width="25" stroke-miterlimit="10" d="M183,95.3c8.6,0.3,17.2,1.2,25.7,2.5
		c-11.1,9.1-24.6,15.3-38.7,18c12.2,0.3,24.3,1.7,36.2,4.1c-16.7,2.8-33.5,4.8-50.4,5.8c11.4,5,25.2,2.1,36.7,7
		c-13.4,3.8-27.1,6.8-40.9,9c14.3,1.1,28.6,2.3,42.6,5c-14.3,2.5-28.5,5-42.8,7.5c-1.6,0.3-3.6,1.4-2.9,2.8c0.3,0.5,0.9,0.8,1.4,1.1
		c8.5,3.6,17.8,5.4,27,5.3"/>
</g>
</svg>
