<?xml version="1.0" encoding="utf-8"?>
<!-- Generator: Adobe Illustrator 19.2.1, SVG Export Plug-In . SVG Version: 6.00 Build 0)  -->
<svg version="1.0" id="Layer_1" xmlns="http://www.w3.org/2000/svg" xmlns:xlink="http://www.w3.org/1999/xlink" x="0px" y="0px"
	 width="288px" height="288px" viewBox="0 0 288 288" enable-background="new 0 0 288 288" xml:space="preserve">
<ellipse fill="none" stroke="#000000" stroke-width="2" stroke-miterlimit="10" cx="1457.7" cy="1107.1" rx="44" ry="46.8"/>
<ellipse transform="matrix(0.1127 -0.9936 0.9936 0.1127 190.8343 2427.9602)" fill="none" stroke="#000000" stroke-width="2" stroke-miterlimit="10" cx="1454.8" cy="1107.1" rx="25" ry="11.6"/>
<path fill="none" stroke="#000000" stroke-width="2" stroke-miterlimit="10" d="M1453.8,1083.1c0,0-20.3,7.2-23.3,12.2s-3,5-3,5
	s0,6,1.5,6.8s7,0.2,8.8-1.2s7.8-10.6,7.8-10.6"/>
<path fill="none" stroke="#000000" stroke-width="2" stroke-miterlimit="10" d="M1462.5,1085.5c0,0,21.2,9.7,18.2,21.7l-4,1.8
	c0,0-5.5-0.8-6.5-1.4s-3.8-10.3-3.8-10.3"/>
<polyline fill="none" stroke="#000000" stroke-width="2" stroke-miterlimit="10" points="1438.1,1149 1440.6,1169.1 1446.2,1169.1 
	1446.2,1152.3 "/>
<polyline fill="none" stroke="#000000" stroke-width="2" stroke-miterlimit="10" points="1460.7,1153.9 1460.7,1169.1 1467,1169.1 
	1469.2,1152.3 "/>
<ellipse transform="matrix(0.1127 -0.9936 0.9936 0.1127 -10.3204 260.711)" fill="none" stroke="#000000" stroke-width="2" stroke-miterlimit="10" cx="140.8" cy="136.1" rx="25" ry="11.6"/>
<path fill="none" stroke="#000000" stroke-width="2" stroke-miterlimit="10" d="M139.8,112.1c0,0-20.3,7.2-23.3,12.2s-3,5-3,5
	s0,6,1.5,6.8s7,0.2,8.8-1.2s7.8-10.6,7.8-10.6"/>
<path fill="none" stroke="#000000" stroke-width="2" stroke-miterlimit="10" d="M148.5,114.5c0,0,21.2,9.7,18.2,21.7l-4,1.8
	c0,0-5.5-0.8-6.5-1.4s-3.8-10.3-3.8-10.3"/>
<ellipse fill="none" stroke="#000000" stroke-width="2" stroke-miterlimit="10" cx="143.7" cy="136.1" rx="44" ry="46.8"/>
<polyline fill="none" stroke="#000000" stroke-width="2" stroke-miterlimit="10" points="124.1,178 126.6,198.1 132.2,198.1 
	132.2,181.3 "/>
<polyline fill="none" stroke="#000000" stroke-width="2" stroke-miterlimit="10" points="146.7,182.9 146.7,198.1 153,198.1 
	155.2,181.3 "/>
</svg>
