<?xml version="1.0" encoding="utf-8"?>
<!-- Generator: Adobe Illustrator 19.2.1, SVG Export Plug-In . SVG Version: 6.00 Build 0)  -->
<svg version="1.0" id="Layer_1" xmlns="http://www.w3.org/2000/svg" xmlns:xlink="http://www.w3.org/1999/xlink" x="0px" y="0px"
	 width="288px" height="288px" viewBox="0 0 288 288" enable-background="new 0 0 288 288" xml:space="preserve">
<path fill="none" stroke="#000000" stroke-width="2" stroke-miterlimit="10" d="M205.4,120.2c0,3.9,0.7,8.3,2.1,12.7
	c4.2,13.1,13.2,21.9,20.2,19.7c6.9-2.2,9.2-14.6,5-27.7s-13.2-21.9-20.2-19.7c-2.4,0.8-4.2,2.8-5.5,5.6"/>
<path fill="none" stroke="#000000" stroke-width="2" stroke-miterlimit="10" d="M210.6,111l-8.6-0.7c0,0-10.1,0.7-11.2,1.3
	c-1.1,0.6-8.7,6.4-9.3,7.6c-0.7,1.2,1.4,6.9,3.4,8.5s8.8,0.6,8.8,0.6l16.7-11.3L210.6,111z"/>
<path fill="none" stroke="#000000" stroke-width="2" stroke-miterlimit="10" d="M206.7,111.1c-10.4-9.7-26.5-15.9-44.7-15.9
	c-31.3,0-56.6,18.4-56.6,41.1s25.4,41.1,56.6,41.1c25.8,0,47.5-12.5,54.4-29.6"/>
<polyline fill="none" stroke="#000000" stroke-width="2" stroke-miterlimit="10" points="133,171.7 137.7,192.8 142.2,192.8 
	142.2,174.9 "/>
<polyline fill="none" stroke="#000000" stroke-width="2" stroke-miterlimit="10" points="175.4,176.3 175.4,192.8 181.2,192.8 
	183.9,174.3 "/>
</svg>
