<?xml version="1.0" encoding="utf-8"?>
<!-- Generator: Adobe Illustrator 19.2.1, SVG Export Plug-In . SVG Version: 6.00 Build 0)  -->
<svg version="1.0" id="Layer_1" xmlns="http://www.w3.org/2000/svg" xmlns:xlink="http://www.w3.org/1999/xlink" x="0px" y="0px"
	 width="288px" height="288px" viewBox="0 0 288 288" enable-background="new 0 0 288 288" xml:space="preserve">
<path fill="none" stroke="#000000" stroke-width="2" stroke-miterlimit="10" d="M174,120.3c3,2.3,6.6,4.4,10.7,6
	c12.8,5,25.3,3.6,28-3.2c2.7-6.8-5.6-16.4-18.4-21.4c-12.8-5-25.3-3.6-28,3.2c-1,2.5-0.5,5.3,1.1,8.1"/>
<path fill="none" stroke="#000000" stroke-width="2" stroke-miterlimit="10" d="M169.6,110l-6,6.2c0,0-5.8,8.2-6,9.5s-0.5,10.7,0,12
	s6.2,3.2,8.8,2.8s6-6.5,6-6.5l1.8-20L169.6,110z"/>
<path fill="none" stroke="#000000" stroke-width="2" stroke-miterlimit="10" d="M166.5,105.2c-9.9-6.1-22.6-9.7-36.6-9.7
	c-31.3,0-56.6,18.4-56.6,41.1s25.4,41.1,56.6,41.1s56.6-18.4,56.6-41.1c0-3.5-0.6-6.9-1.7-10.1"/>
<polyline fill="none" stroke="#000000" stroke-width="2" stroke-miterlimit="10" points="143.3,176.6 143.3,193 149.1,193 
	151.8,174.6 "/>
<polyline fill="none" stroke="#000000" stroke-width="2" stroke-miterlimit="10" points="100.9,171.9 105.6,193 110.1,193 
	110.1,175.1 "/>
</svg>
