<?xml version="1.0" encoding="utf-8"?>
<!-- Generator: Adobe Illustrator 19.2.1, SVG Export Plug-In . SVG Version: 6.00 Build 0)  -->
<svg version="1.0" id="Layer_1" xmlns="http://www.w3.org/2000/svg" xmlns:xlink="http://www.w3.org/1999/xlink" x="0px" y="0px"
	 width="288px" height="288px" viewBox="0 0 288 288" enable-background="new 0 0 288 288" xml:space="preserve">
<path fill="none" stroke="#000000" stroke-width="2" stroke-miterlimit="10" d="M174.6,122.1c0.2-0.5,0.5-1.1,0.8-1.6
	c4.1-6.1,15.7-5.5,25.9,1.4c10.2,6.9,15.1,17.4,10.9,23.5s-15.7,5.5-25.9-1.4c-4.4-3-7.8-6.6-9.9-10.2"/>
<path fill="none" stroke="#000000" stroke-width="2" stroke-miterlimit="10" d="M180.2,130.2c0,0-7.1,7-8.6,8.3
	c-1.5,1.3-9.5,5.3-11,5.7s-5.1-1-6.5-1.7c-1.3-0.7-2-5-2-5s0.3-2.3,4.4-8c4-5.7,20.6-8,20.6-8L180.2,130.2z"/>
<path fill="none" stroke="#000000" stroke-width="2" stroke-miterlimit="10" d="M186.3,144.1c0,0,7.2,18.8,0.6,23.8
	c-6.6,5-99.2,0-99.2,0s-17-48.7,38-49.8c0,0,23.1-1.8,40.4,6"/>
</svg>
