<?xml version="1.0" encoding="utf-8"?>
<!-- Generator: Adobe Illustrator 21.0.0, SVG Export Plug-In . SVG Version: 6.00 Build 0)  -->
<!DOCTYPE svg PUBLIC "-//W3C//DTD SVG 1.0//EN" "http://www.w3.org/TR/2001/REC-SVG-20010904/DTD/svg10.dtd">
<svg version="1.0" id="Layer_2" xmlns="http://www.w3.org/2000/svg" xmlns:xlink="http://www.w3.org/1999/xlink" x="0px" y="0px"
	 width="792px" height="612px" viewBox="0 0 792 612" enable-background="new 0 0 792 612" xml:space="preserve">
<path fill="none" stroke="#000000" stroke-width="4" stroke-miterlimit="10" d="M398.7,249c0,0-4,21,22,26"/>
<path fill="none" stroke="#000000" stroke-width="4" stroke-miterlimit="10" d="M372.2,265.2c0,0,2.8,32.3,27.3,37.1"/>
<path fill="none" stroke="#000000" stroke-width="4" stroke-miterlimit="10" d="M344.5,281c0,0-7,33.5,27.2,47.7"/>
<path fill="none" stroke="#000000" stroke-width="4" stroke-miterlimit="10" d="M307.8,298.1c0,0-7.7,51.7,44.5,60.3"/>
<path fill="none" stroke="#000000" stroke-width="4" stroke-miterlimit="10" d="M311.6,386.5c-3-1-58-21-43-80"/>
<path fill="none" stroke="#000000" stroke-width="4" stroke-miterlimit="10" d="M441.7,262.5c0,0,29-1,33-26"/>
<path fill="none" stroke="#000000" stroke-width="4" stroke-miterlimit="10" d="M441.7,286.5c0,0,43,2,58-33"/>
<path fill="none" stroke="#000000" stroke-width="4" stroke-miterlimit="10" d="M452.7,318.5c0,0,56-3,71-52.5"/>
<path fill="none" stroke="#000000" stroke-width="4" stroke-miterlimit="10" d="M474.7,346.5c0,0,55-11.5,71-54.2"/>
</svg>
