<?xml version="1.0" encoding="utf-8"?>
<!-- Generator: Adobe Illustrator 19.2.1, SVG Export Plug-In . SVG Version: 6.00 Build 0)  -->
<svg version="1.0" id="Layer_1" xmlns="http://www.w3.org/2000/svg" xmlns:xlink="http://www.w3.org/1999/xlink" x="0px" y="0px"
	 width="288px" height="288px" viewBox="0 0 288 288" enable-background="new 0 0 288 288" xml:space="preserve">
<polygon fill="none" stroke="#000000" stroke-width="2" stroke-miterlimit="10" points="54,139.9 91,134.6 84,187.6 72.5,187.6 "/>
<path fill="none" stroke="#000000" stroke-width="2" stroke-miterlimit="10" d="M54.6,141.6c-0.6-1.7-3.3-23-3.3-23l12.6,19.9"/>
<path fill="none" stroke="#000000" stroke-width="2" stroke-miterlimit="10" d="M83,135.7c-0.8,0.1,1.3-24.2,1.3-24.2l6.7,23"/>
<path fill="none" stroke="#000000" stroke-width="2" stroke-miterlimit="10" d="M89.6,144.9c0,0,41.7-29,90-5.6
	c0,0,26-14.7,29.7-54.7c0,0,5.3,15.7,5,20.7c0,0,7.1-30,7.2-38.3c0,0,10.8,22.7,2.1,49.7l13.5-16.3c0,0-2.9,41.3-53.9,48l13.7,67
	l-6.3,7.3h-8.3c0,0,7-6.3,7-7.3s-13.7-35-13.7-35s-11.8,13.7-12.3,14.7c-0.4,1,13.9,9,13.9,9s-5,11.7-6,11.7s-8.8,2-7.9,0
	c0.9-2,5.3-8.3,5.3-8.3s-17.7-8.3-17.7-9.7s12.4-21.7,12.4-21.7s-23.7-2.3-43.4,1.3c0,0-15,31-16.7,31s-16,2.3-16,2.3l1.7,10.7
	c0,0-6,4-6,1.3s0-14.3,0-14.3l16.7-7.3l8-21l-21.9-5.4"/>
<path fill="none" stroke="#000000" stroke-width="2" stroke-miterlimit="10" d="M109.3,198.2c4.2,10.6,8.1,20.7,8.1,20.7l-3.7,3.4
	l5.3,1.7l6-5.1c0,0-5.6-19.8-9.3-33.2"/>
<path fill="none" stroke="#000000" stroke-width="2" stroke-miterlimit="10" d="M101.6,178.5c0.9,2.2,2,5.1,3.2,8.3"/>
</svg>
