<?xml version="1.0" encoding="utf-8"?>
<!-- Generator: Adobe Illustrator 21.0.0, SVG Export Plug-In . SVG Version: 6.00 Build 0)  -->
<!DOCTYPE svg PUBLIC "-//W3C//DTD SVG 1.0//EN" "http://www.w3.org/TR/2001/REC-SVG-20010904/DTD/svg10.dtd">
<svg version="1.0" id="Layer_1" xmlns="http://www.w3.org/2000/svg" xmlns:xlink="http://www.w3.org/1999/xlink" x="0px" y="0px"
	 width="288px" height="288px" viewBox="0 0 288 288" enable-background="new 0 0 288 288" xml:space="preserve">
<g id="Layer_2">
	<path fill="#27AAE1" d="M136.2,30.1c0,0-12.3,25,0.8,41.2c0,0-13.6-8.1-12-21.5C126.5,36.5,136.2,30.1,136.2,30.1z"/>
	<path fill="#27AAE1" d="M121.5,92.8l3.5,48.3l2,99.8c1,0.6,2,1.2,2.9,1.9l0.1-0.3l1-100.9l-4-63.4l-6.5,0.9v8
		c-10.4,0.6-18.5-6.7-18.5-6.7l12.9-15.8l-2.2-0.8C84.1,80.2,94,83.9,94,83.9c1.9,2.3,8.3,5.7,12.6,7.3
		C110.9,92.8,121.5,92.8,121.5,92.8z"/>
	<path fill="#27AAE1" d="M145.5,240.1l-1.5-98.4h-5.2l3.4,99.3C143.3,240.6,144.4,240.3,145.5,240.1z"/>
</g>
<g id="Layer_1_1_">
	<path fill="none" stroke="#000000" stroke-width="2" stroke-miterlimit="10" d="M125,50.7c0,11.4,6.2,20.6,13.8,20.6
		c1.3,0,2.6-0.3,3.8-0.8c5.8-2.5,10-10.4,10-19.8c0-11.4-6.2-20.6-13.8-20.6S125,39.3,125,50.7z"/>
	<path fill="none" stroke="#000000" stroke-width="2" stroke-miterlimit="10" d="M150,33.3c0,0-12.2,2.4-19.5,0"/>
	<path fill="none" stroke="#000000" stroke-width="2" stroke-miterlimit="10" d="M152.6,36.6c0,0-14.4,3.3-23.9,0"/>
	<path fill="none" stroke="#000000" stroke-width="2" stroke-miterlimit="10" d="M152.6,39.5c0,0-7.9,6.6-25.7,0.5"/>
	<line fill="none" stroke="#000000" stroke-width="2" stroke-miterlimit="10" x1="142.8" y1="77.9" x2="142.6" y2="70.5"/>
	<line fill="none" stroke="#000000" stroke-width="2" stroke-miterlimit="10" x1="135" y1="70.5" x2="135" y2="77.8"/>
	<path fill="none" stroke="#000000" stroke-width="2" stroke-miterlimit="10" d="M157.2,79.2c0,0-20.2-3-36.7,0l4.5,62.5l27.7-1.5
		L157.2,79.2z"/>
	<path fill="none" stroke="#000000" stroke-width="2" stroke-miterlimit="10" d="M112.7,64c0,0-15,8.7-21,17c0,0,6.7,13,29.7,11.8"
		/>
	<path fill="none" stroke="#000000" stroke-width="2" stroke-miterlimit="10" d="M109.3,77.1c0,0,6,2.8,11.1,2.1"/>
	<path fill="none" stroke="#000000" stroke-width="2" stroke-miterlimit="10" d="M120.5,64c-1.2,0.7-21.8,23.8-21.8,23.8"/>
	<polygon fill="none" stroke="#000000" stroke-width="2" stroke-miterlimit="10" points="114.8,42.6 119.1,42.6 119.7,53.9 
		122.5,51.1 125,52.5 120.5,64 112.7,64 109.7,52 	"/>
	<path fill="none" stroke="#000000" stroke-width="2" stroke-miterlimit="10" d="M157.2,79.2c0,0,7,47.2,22.8,55.7l-2.8,5.5
		c0,0-15.6-5.5-22.6-27.3"/>
	<line fill="none" stroke="#000000" stroke-width="2" stroke-miterlimit="10" x1="166.4" y1="114.9" x2="160.2" y2="123.2"/>
	<path fill="none" stroke="#000000" stroke-width="2" stroke-miterlimit="10" d="M181,134.9l11,5.5l4.2,12.2c0,0-4.3,2.5-4.8,2.5
		s-8.5-10.8-8.5-10.8l-1.8,5.2l-3.5-0.7l-0.2-8.3"/>
	<polyline fill="none" stroke="#000000" stroke-width="2" stroke-miterlimit="10" points="152.6,140.2 149,241.2 142.2,241.2 
		138.8,141.7 133.7,242.9 127,242.6 125,141.7 	"/>
</g>
<g id="Layer_3">
	<path fill="none" stroke="#27AAE1" stroke-width="25" stroke-miterlimit="10" stroke-opacity="0" d="M118,30
		c11.2-0.7,22.4-0.6,33.6,0.1c-13,9.5-28.9,15-45,15.6c17.8-2.4,35.8-3.3,53.8-2.7c-20.2,10-44.5,9-64.7,19
		c18.4-1.7,36.8-2.5,55.3-2.3c-23.1,4.4-46.3,8.8-68.7,15.7c-2,0.6-4.4,1.8-4.4,3.9c13.8,0,27.7,0,41.5-0.1
		C105.9,81.5,92.6,85.5,80,91c2.7,2.3,6.6,2.4,10.1,2.5c12.5,0.2,25,0,37.5-0.5c-11.4,2.4-22.6,5.5-33.6,9.3
		c18.6,0.4,37.2,0.8,55.8,1.3c-10.1,4.9-20.3,9.8-30.4,14.7c-3.7,1.8-7.5,3.7-9.6,7.2c7.4,3.5,15.6,5.4,23.9,5.4
		c-10.8,0.1-21.6,1.3-32.2,3.4c0,1.9,2.4,2.7,4.3,2.9c17.4,1.8,35,2.8,52.5,3c-13.7,5.1-27.5,10.2-41.2,15.3c-2,0.7-4.4,2.4-3.6,4.4
		c0.5,1.2,1.9,1.6,3.2,1.8c8.5,1.5,17.2,2.2,25.8,1.9c-10.3,3.4-20.8,6.8-29.1,13.7c11.2,2.7,22.7,4.1,34.1,4.1
		c-4.4,2.8-9.8,3.7-14.8,5.4s-10.1,4.6-11.8,9.6c7.3,2.4,15.1,3.6,22.8,3.3c-8.4,0.7-16.6,3-24.2,6.6c-2.4,1.2-5.1,3.1-4.9,5.7
		c0.3,3.6,5.2,4.3,8.8,4.2c10.7-0.4,21.4,0.3,31.9,2.1c-21.5,6.9-42.7,14.9-63.4,23.9c17.5-2,35.1-3,52.7-3
		c-9.9,3.1-19.7,6.2-29.6,9.3c17.8,1.3,35.7,1.9,53.6,1.9c-7.2,4-15.1,6.9-23.2,8.6c7.5-0.6,15-1.3,22.4-2.1"/>
</g>
</svg>
