<?xml version="1.0" encoding="utf-8"?>
<!-- Generator: Adobe Illustrator 19.2.1, SVG Export Plug-In . SVG Version: 6.00 Build 0)  -->
<svg version="1.0" xmlns="http://www.w3.org/2000/svg" xmlns:xlink="http://www.w3.org/1999/xlink" x="0px" y="0px" width="288px"
	 height="288px" viewBox="0 0 288 288" enable-background="new 0 0 288 288" xml:space="preserve">
<g id="Layer_2">
	<path fill="#27AAE1" d="M139.8,29c0,0-12.6,24.5,1,41.1c0,0-13.8-5.7-12.4-22.8C129.8,30.2,139.8,29,139.8,29z"/>
	<path fill="#27AAE1" d="M130.4,77.3l3.5,164.3l-5.6,17.9l-13.8-4.5l15.8-14l-4.4-134.6c0,0-8.4,11.4-10.8,43.3h-3
		c0,0,1.1-40.7,11.8-56.2V78.1L130.4,77.3z"/>
	<polygon fill="#27AAE1" points="146.2,139.2 149.2,240.2 168.4,249.4 152.2,255.8 145.6,240.2 142.2,140.7 	"/>
</g>
<g id="Layer_1">
	<path fill="none" stroke="#000000" stroke-width="2" stroke-miterlimit="10" d="M128.4,49.6c0,11.4,6.2,20.6,13.8,20.6
		c1.3,0,2.6-0.3,3.8-0.8c5.8-2.5,10-10.4,10-19.8c0-11.4-6.2-20.6-13.8-20.6S128.4,38.3,128.4,49.6z"/>
	<path fill="none" stroke="#000000" stroke-width="2" stroke-miterlimit="10" d="M153.4,32.3c0,0-12.2,2.4-19.5,0"/>
	<path fill="none" stroke="#000000" stroke-width="2" stroke-miterlimit="10" d="M156,35.5c0,0-14.4,3.3-23.9,0"/>
	<path fill="none" stroke="#000000" stroke-width="2" stroke-miterlimit="10" d="M156,38.4c0,0-7.9,6.6-25.7,0.5"/>
	<line fill="none" stroke="#000000" stroke-width="2" stroke-miterlimit="10" x1="146.2" y1="76.9" x2="146" y2="69.5"/>
	<line fill="none" stroke="#000000" stroke-width="2" stroke-miterlimit="10" x1="138.4" y1="69.5" x2="138.4" y2="76.8"/>
	<path fill="none" stroke="#000000" stroke-width="2" stroke-miterlimit="10" d="M160.6,78.1c0,0-20.2-3-36.7,0l4.5,62.5l27.7-1.5
		L160.6,78.1z"/>
	<path fill="none" stroke="#000000" stroke-width="2" stroke-miterlimit="10" d="M123.9,78.1c0,0-15.7,29-15.5,71.5h6.7
		c0,0,1.6-26.8,10.8-43.3"/>
	<polyline fill="none" stroke="#000000" stroke-width="2" stroke-miterlimit="10" points="115.1,149.7 118.2,156.9 115.1,159.1 
		113.1,156.6 110.5,166.9 106,170.1 107.7,149.7 	"/>
	<line fill="none" stroke="#000000" stroke-width="2" stroke-miterlimit="10" x1="120.6" y1="119" x2="113.1" y2="108.8"/>
	<path fill="none" stroke="#000000" stroke-width="2" stroke-miterlimit="10" d="M160.6,78.1c0,0,7,47.2,22.8,55.7l-2.8,5.5
		c0,0-15.6-5.5-22.6-27.3"/>
	<path fill="none" stroke="#000000" stroke-width="2" stroke-miterlimit="10" d="M184.4,133.9l11,5.5l4.2,12.2c0,0-4.3,2.5-4.8,2.5
		s-8.5-10.8-8.5-10.8l-1.8,5.2l-3.5-0.7l-0.2-8.3"/>
	<line fill="none" stroke="#000000" stroke-width="2" stroke-miterlimit="10" x1="169.8" y1="113.9" x2="163.6" y2="122.2"/>
	<polyline fill="none" stroke="#000000" stroke-width="2" stroke-miterlimit="10" points="156,139.2 152.4,240.2 145.6,240.2 
		142.2,140.7 137.1,241.9 130.4,241.6 128.4,140.7 	"/>
	<polyline fill="none" stroke="#000000" stroke-width="2" stroke-miterlimit="10" points="137.1,241.9 131.6,257.2 116.9,253.7 
		130.4,241.6 	"/>
	<polyline fill="none" stroke="#000000" stroke-width="2" stroke-miterlimit="10" points="152.4,240.2 169.8,246.7 153.9,252.4 
		145.6,240.2 	"/>
	<line fill="none" stroke="#000000" stroke-width="2" stroke-miterlimit="10" x1="162.4" y1="52.8" x2="177.1" y2="47.3"/>
	<line fill="none" stroke="#000000" stroke-width="2" stroke-miterlimit="10" x1="163.6" y1="57.2" x2="180.3" y2="55.5"/>
	<line fill="none" stroke="#000000" stroke-width="2" stroke-miterlimit="10" x1="162.4" y1="61.4" x2="174.4" y2="67.5"/>
</g>
<g id="Layer_3">
	<path opacity="0" fill="none" stroke="#27AAE1" stroke-width="25" stroke-miterlimit="10" d="M126,32.1c6.4-1.6,13-2.4,19.6-2.3
		c-8.9,7.6-19.7,13.1-31.1,15.9c8.8,1.9,17.7,3,26.7,3.3c-9,3.7-18.3,6.8-27.7,9.4c7.6,1.2,15.2,2.5,22.8,3.7
		c-10.9,5.6-22.3,10.3-34,14c11.3,6.5,26.3,1.5,38.1,7c-10.6,3.5-21,7.6-31.1,12.3c11.9,2.2,23.7,4.4,35.6,6.6
		c-12.2,2.6-24.8,5.3-34.9,12.6c10.4,1.7,20.9,3.3,31.3,5c-12.7,2.9-25.4,5.9-38.1,8.8c-2.7,0.6-6.3,2.8-5,5.3
		c15.7,1.1,31.5,1.5,47.3,1.1c-13.4,2.7-26.8,5.4-39.7,9.8c14,0.6,26.7,4.6,40.7,5.2c-12.6,4.7-24,6-36.6,10.8
		c-3.5,1.3-7.4,2.9-9.2,6.3c14.6,4.3,29.7,6.5,44.8,8.6c-12.3,3.3-24.5,7.3-36.3,12c11.9,0.9,23.8,2.4,35.6,4.7
		c-11.1,2.5-22.9,5.2-31.2,13c10,0.9,20,1.8,30.1,2.7c4.5,0.4,9.3,0.9,12.9,3.7c-13.3,4.9-26.8,9.9-38.1,18.4
		c11.2,1.4,22.4,2.8,33.6,4.1c-11.4,1.7-22.4,5.9-32.1,12.2c18,0.1,36,0.1,54,0.2c-13.1,2.1-26.3,4.2-39.4,6.2"/>
</g>
</svg>
