<?xml version="1.0" encoding="utf-8"?>
<!-- Generator: Adobe Illustrator 21.0.0, SVG Export Plug-In . SVG Version: 6.00 Build 0)  -->
<!DOCTYPE svg PUBLIC "-//W3C//DTD SVG 1.0//EN" "http://www.w3.org/TR/2001/REC-SVG-20010904/DTD/svg10.dtd">
<svg version="1.0" xmlns="http://www.w3.org/2000/svg" xmlns:xlink="http://www.w3.org/1999/xlink" x="0px" y="0px" width="576px"
	 height="576px" viewBox="0 0 576 576" enable-background="new 0 0 576 576" xml:space="preserve">
<g id="Color">
	<polygon fill="#27AAE1" points="306,153.5 262.3,199.5 261.1,216.2 312.6,160.3 312.4,154.6 	"/>
	<path fill="#FFFFFF" d="M256.6,224.3c0,0,27.8-10.2,63,0l7,90c0,0-47.5,13.8-77.2,0L256.6,224.3z"/>
</g>
<g id="Lines">
	<path fill="none" stroke="#000000" stroke-width="2" stroke-miterlimit="10" d="M294.6,146h-12.7c-6.6,0-12-5.4-12-12v-30.9
		c0-6.6,5.4-12,12-12h12.7c6.6,0,12,5.4,12,12V134C306.6,140.6,301.2,146,294.6,146z"/>
	<path fill="none" stroke="#000000" stroke-width="2" stroke-miterlimit="10" d="M269.9,123.5c0,0,10.7-0.5,15.3-2.5
		c4.7-2,10.8,2,20.5,2.5"/>
	<path fill="none" stroke="#000000" stroke-width="2" stroke-miterlimit="10" d="M269.9,117c0,0-7.7,3.3,0,9.3"/>
	<path fill="none" stroke="#000000" stroke-width="2" stroke-miterlimit="10" d="M306.6,117.6c0,0,8.5,2.7,0,8.7"/>
	<path fill="none" stroke="#000000" stroke-width="2" stroke-miterlimit="10" d="M273.1,153.5c-11.5-1-23.5-9.9-23.5-9.9
		c1.7-4.7,5.5-27.8,5.5-27.8c8-42.8,32.7-31.7,32.7-31.7s13.2-6.2,21.4,6c8.2,12.2,11.2,50.2,14,53.5c0,0-17.5,8.3-23.1,8.8"/>
	<line fill="none" stroke="#000000" stroke-width="2" stroke-miterlimit="10" x1="283.4" y1="146" x2="282.8" y2="152"/>
	<line fill="none" stroke="#000000" stroke-width="2" stroke-miterlimit="10" x1="294.6" y1="146" x2="296.3" y2="152"/>
	<path fill="none" stroke="#000000" stroke-width="2" stroke-miterlimit="10" d="M315.5,223.2c-1.1-25.2-3.1-68.5-3.1-68.5
		c-16.9-5.8-47.9,0-47.9,0s-2.1,42.9-3.4,68.2"/>
	<path fill="none" stroke="#000000" stroke-width="2" stroke-miterlimit="10" d="M264.5,154.6c0,0-17.2,5.4-29.2,61.2
		c0,0,4.8,8.2,20.6,9.8"/>
	<polyline fill="none" stroke="#000000" stroke-width="2" stroke-miterlimit="10" points="239.9,220.2 220.8,223.2 220.8,227.1 
		248.8,227.1 251.5,224.9 	"/>
	<path fill="none" stroke="#000000" stroke-width="2" stroke-miterlimit="10" d="M312,154.6c0,0,16.2,5.4,28.2,61.2
		c0,0-4.8,8.2-20.6,9.8"/>
	<polyline fill="none" stroke="#000000" stroke-width="2" stroke-miterlimit="10" points="335.7,220.2 354.8,223.2 354.8,227.1 
		326.7,227.1 324.1,224.9 	"/>
	<path fill="none" stroke="#000000" stroke-width="2" stroke-miterlimit="10" d="M302.3,152.7c0,0-34.7,38.4-39.7,43.9"/>
	<path fill="none" stroke="#000000" stroke-width="2" stroke-miterlimit="10" d="M261.5,215.2c5.7-6.1,51.1-54.8,51.1-54.8"/>
	<polyline fill="none" stroke="#000000" stroke-width="2" stroke-miterlimit="10" points="267.8,319.5 269.3,328.5 277.3,328.5 
		280.1,320.4 	"/>
	<polyline fill="none" stroke="#000000" stroke-width="2" stroke-miterlimit="10" points="294.1,320.4 295.3,328.5 303.3,328.5 
		304.5,318.7 	"/>
	<path fill="none" stroke="#000000" stroke-width="2" stroke-miterlimit="10" d="M256.1,224.3c0,0,27.8-10.2,63,0l7,90
		c0,0-47.5,13.8-77.2,0L256.1,224.3z"/>
	<polyline fill="none" stroke="#000000" stroke-width="2" stroke-miterlimit="10" points="269.3,328.5 264,352.9 282.6,359.7 
		277.3,328.5 	"/>
	<polyline fill="none" stroke="#000000" stroke-width="2" stroke-miterlimit="10" points="303.4,328.5 308.8,352.9 290.2,359.7 
		295.4,328.5 	"/>
</g>
<g id="Stroke">
	
		<path opacity="0" fill="none" stroke="#000000" stroke-width="18" stroke-linecap="round" stroke-linejoin="round" stroke-miterlimit="10" d="
		M286,153.8c5.4-1,10.9-0.4,16.4,0.3c10.1,1.3,20.2,2.6,30.3,4c-19.9,2.1-39.6,5.4-59.1,9.8c10.6,0.9,21.1,2.1,31.6,3.7
		c-17.4,7.7-38.1,4.8-55.5,12.5c14.3,1.1,28.6,1.3,42.9,0.7c4.5-0.2,9.4-0.4,13.1,2.1c-17.9,3.3-35.7,6.7-53.6,10
		c-2.3,0.4-4.7,0.9-6.3,2.6c13.7,0.2,27.4,2,40.7,5.4c-12.2,2.4-24.4,4.7-36.5,7.1c-1.5,0.3-3.4,1-3.4,2.5
		c19.2,1.3,38.3,5.1,57.4,6.4c8.3,0.6,17.1,1.3,23.8,6.3c-4.2,2.5-9.3,2.2-14.1,2c-21.8-0.9-43.7,0.2-65.3,3.2
		c0.5,2.6,3.7,3.5,6.4,3.8c26.2,3,52.7,4.1,79.1,3.3c-0.7,3.7-4.9,5.4-8.6,6.2c-26.4,5.9-55.1-2.5-80.4,7.1c25.6,5,52,2.9,78,2.8
		c6.9,0,14.1,0.2,20.4,3.1c-17,6.3-35.6,5.2-53.7,4.5c-18.1-0.6-37.1-0.5-53,8c35.6,3.6,71.9-2.2,107,4.7c-4.9,5-12.5,5.8-19.4,6.3
		c-30,2.4-60.1,4.7-90.1,7.1c-0.3,1.2-0.2,2.5,0.2,3.6c15.9,2.3,32.1,2.4,48,0.4c14.3-1.8,28.3-5.4,42.7-5.4
		c0.3,4.1,1.3,8.2,2.8,12.1c-19.7,3.2-39.6,4.2-59.5,3.1c-16.1-0.9-32.3-3.1-48.2-0.5c-1,2,1.8,3.7,4,4.2
		c39.7,9.2,81.2,4.6,121.9,6.1c-32.7,11.1-68.5,1.8-102.9,4.4"/>
</g>
</svg>
