<?xml version="1.0" encoding="utf-8"?>
<!-- Generator: Adobe Illustrator 19.2.1, SVG Export Plug-In . SVG Version: 6.00 Build 0)  -->
<svg version="1.0" xmlns="http://www.w3.org/2000/svg" xmlns:xlink="http://www.w3.org/1999/xlink" x="0px" y="0px" width="576px"
	 height="576px" viewBox="0 0 576 576" enable-background="new 0 0 576 576" xml:space="preserve">
<g id="Layer_2">
	<polygon fill="#27AAE1" points="306,153.5 262.3,199.5 261.1,216.2 312.6,160.3 312.4,154.6 	"/>
</g>
<g id="Layer_1">
	<path fill="none" stroke="#000000" stroke-width="2" stroke-miterlimit="10" d="M294.6,146h-12.7c-6.6,0-12-5.4-12-12v-30.9
		c0-6.6,5.4-12,12-12h12.7c6.6,0,12,5.4,12,12V134C306.6,140.6,301.2,146,294.6,146z"/>
	<path fill="none" stroke="#000000" stroke-width="2" stroke-miterlimit="10" d="M269.9,123.5c0,0,10.7-0.5,15.3-2.5
		c4.7-2,10.8,2,20.5,2.5"/>
	<path fill="none" stroke="#000000" stroke-width="2" stroke-miterlimit="10" d="M269.9,117c0,0-7.7,3.3,0,9.3"/>
	<path fill="none" stroke="#000000" stroke-width="2" stroke-miterlimit="10" d="M306.6,117.6c0,0,8.5,2.7,0,8.7"/>
	<path fill="none" stroke="#000000" stroke-width="2" stroke-miterlimit="10" d="M273.1,153.5c-11.5-1-23.5-9.9-23.5-9.9
		c1.7-4.7,5.5-27.8,5.5-27.8c8-42.8,32.7-31.7,32.7-31.7s13.2-6.2,21.4,6c8.2,12.2,11.2,50.2,14,53.5c0,0-17.5,8.3-23.1,8.8"/>
	<line fill="none" stroke="#000000" stroke-width="2" stroke-miterlimit="10" x1="283.4" y1="146" x2="282.8" y2="152"/>
	<line fill="none" stroke="#000000" stroke-width="2" stroke-miterlimit="10" x1="294.6" y1="146" x2="296.3" y2="152"/>
	<path fill="none" stroke="#000000" stroke-width="2" stroke-miterlimit="10" d="M315.5,223.2c-1.1-25.2-3.1-68.5-3.1-68.5
		c-16.9-5.8-47.9,0-47.9,0s-2.1,42.9-3.4,68.2"/>
	<path fill="none" stroke="#000000" stroke-width="2" stroke-miterlimit="10" d="M264.5,154.6c0,0-17.2,5.4-29.2,61.2
		c0,0,4.8,8.2,20.6,9.8"/>
	<polyline fill="none" stroke="#000000" stroke-width="2" stroke-miterlimit="10" points="239.9,220.2 220.8,223.2 220.8,227.1 
		248.8,227.1 251.5,224.9 	"/>
	<path fill="none" stroke="#000000" stroke-width="2" stroke-miterlimit="10" d="M312,154.6c0,0,16.2,5.4,28.2,61.2
		c0,0-4.8,8.2-20.6,9.8"/>
	<polyline fill="none" stroke="#000000" stroke-width="2" stroke-miterlimit="10" points="335.7,220.2 354.8,223.2 354.8,227.1 
		326.7,227.1 324.1,224.9 	"/>
	<path fill="none" stroke="#000000" stroke-width="2" stroke-miterlimit="10" d="M302.3,152.7c0,0-34.7,38.4-39.7,43.9"/>
	<path fill="none" stroke="#000000" stroke-width="2" stroke-miterlimit="10" d="M261.5,215.2c5.7-6.1,51.1-54.8,51.1-54.8"/>
	<path fill="none" stroke="#000000" stroke-width="2" stroke-miterlimit="10" d="M138.3,502.5l31.4-275.3c0,0,39.9,0,87,0"/>
	<polyline fill="none" stroke="#000000" stroke-width="2" stroke-miterlimit="10" points="267.8,319.5 269.3,328.5 277.3,328.5 
		280.1,320.4 	"/>
	<polyline fill="none" stroke="#000000" stroke-width="2" stroke-miterlimit="10" points="294.1,320.4 295.3,328.5 303.3,328.5 
		304.5,318.7 	"/>
	<path fill="none" stroke="#000000" stroke-width="2" stroke-miterlimit="10" d="M256.1,224.3c0,0,27.8-10.2,63,0l7,90
		c0,0-47.5,13.8-77.2,0L256.1,224.3z"/>
	<path fill="none" stroke="#000000" stroke-width="2" stroke-miterlimit="10" d="M318.8,227.1c47.6,0,88.1,0,88.1,0l29.3,275.3"/>
	<polyline fill="none" stroke="#000000" stroke-width="2" stroke-miterlimit="10" points="269.3,328.5 264,352.9 282.6,359.7 
		277.3,328.5 	"/>
	<polyline fill="none" stroke="#000000" stroke-width="2" stroke-miterlimit="10" points="303.4,328.5 308.8,352.9 290.2,359.7 
		295.4,328.5 	"/>
	<line fill="none" stroke="#000000" stroke-width="2" stroke-miterlimit="10" x1="174.2" y1="239" x2="181.2" y2="234.5"/>
	<line fill="none" stroke="#000000" stroke-width="2" stroke-miterlimit="10" x1="175.4" y1="243.7" x2="185.4" y2="236.7"/>
	<line fill="none" stroke="#000000" stroke-width="2" stroke-miterlimit="10" x1="361.7" y1="234.5" x2="371.7" y2="239"/>
	<line fill="none" stroke="#000000" stroke-width="2" stroke-miterlimit="10" x1="358.9" y1="240.2" x2="369.4" y2="243.7"/>
	<path fill="none" stroke="#000000" stroke-width="2" stroke-miterlimit="10" d="M237.1,246.9c0,0-4.8-6.6-8.9-6.4"/>
	<path fill="none" stroke="#000000" stroke-width="2" stroke-miterlimit="10" d="M237.3,239.3c0,0-3.7-3.3-8.2-3.5"/>
	<path fill="none" stroke="#000000" stroke-width="2" stroke-miterlimit="10" d="M399.4,242c0,0,1.2,7.5-4.5,12"/>
	<path fill="none" stroke="#000000" stroke-width="2" stroke-miterlimit="10" d="M396.4,238.2c0,0,1.2,7.5-4.5,12"/>
</g>
<g id="Layer_3">
	<path opacity="0" fill="none" stroke="#27AAE1" stroke-width="25" stroke-miterlimit="10" d="M286,153.8c5.4-1,10.9-0.4,16.4,0.3
		c10.1,1.3,20.2,2.6,30.3,4c-19.9,2.1-39.6,5.4-59.1,9.8c10.6,0.9,21.1,2.1,31.6,3.7c-17.4,7.7-38.1,4.8-55.5,12.5
		c14.3,1.1,28.6,1.3,42.9,0.7c4.5-0.2,9.4-0.4,13.1,2.1c-17.9,3.3-35.7,6.7-53.6,10c-2.3,0.4-4.7,0.9-6.3,2.6
		c13.7,0.2,27.4,2,40.7,5.4c-12.2,2.4-24.4,4.7-36.5,7.1c-1.5,0.3-3.4,1-3.4,2.5"/>
</g>
</svg>
