<?xml version="1.0" encoding="utf-8"?>
<!-- Generator: Adobe Illustrator 21.0.0, SVG Export Plug-In . SVG Version: 6.00 Build 0)  -->
<!DOCTYPE svg PUBLIC "-//W3C//DTD SVG 1.0//EN" "http://www.w3.org/TR/2001/REC-SVG-20010904/DTD/svg10.dtd">
<svg version="1.0" id="Layer_1" xmlns="http://www.w3.org/2000/svg" xmlns:xlink="http://www.w3.org/1999/xlink" x="0px" y="0px"
	 width="288px" height="288px" viewBox="0 0 288 288" enable-background="new 0 0 288 288" xml:space="preserve">
<g id="Layer_2">
	<polygon fill="#27AAE1" points="156.5,94.6 110,150.8 108.5,170.1 158.9,116.1 157.8,94.6 	"/>
</g>
<g id="Layer_1_1_">
	<path fill="none" stroke="#000000" stroke-width="2" stroke-miterlimit="10" d="M141.9,82.4h-13.3c-6.6,0-12-5.4-12-12V40
		c0-6.6,5.4-12,12-12h13.3c6.6,0,12,5.4,12,12v30.4C153.9,77,148.5,82.4,141.9,82.4z"/>
	<path fill="none" stroke="#000000" stroke-width="2" stroke-miterlimit="10" d="M116.6,58.8c0,0,10.2,0.8,14.8-0.7
		c4.7-1.5,5-0.8,9.7,0.7c4.7,1.6,12.8,0.2,12.8,0.2"/>
	<path fill="none" stroke="#000000" stroke-width="2" stroke-miterlimit="10" d="M116.6,50.9c0,0-9,4.7,0,11"/>
	<path fill="none" stroke="#000000" stroke-width="2" stroke-miterlimit="10" d="M153.9,50.9c0,0,8.7,7.2,0,11"/>
	<path fill="none" stroke="#000000" stroke-width="2" stroke-miterlimit="10" d="M104,33.4c8.7-22.6,30.7-16.1,30.7-16.1
		s32.4-9.7,27.9,33.6c0,0,3.5,30.1,12.8,35.6c0,0-18.8,7.4-26.5,5.7"/>
	<path fill="none" stroke="#000000" stroke-width="2" stroke-miterlimit="10" d="M119.1,92.9c-6.3-0.4-13.3-2.5-18.3-4.4"/>
	<polyline fill="none" stroke="#000000" stroke-width="2" stroke-miterlimit="10" points="130.7,82.4 129.9,90.6 141.2,90.6 
		140.1,82.4 	"/>
	<path fill="none" stroke="#000000" stroke-width="2" stroke-miterlimit="10" d="M157.8,94.6c-19.1-7.5-46.9,0-46.9,0
		s-2.3,117.5-11.3,143.1c0,0,36.7,25.3,71.3,0L157.8,94.6z"/>
	<path fill="none" stroke="#000000" stroke-width="2" stroke-miterlimit="10" d="M110,120.5c-36.7,22.1-42.8-31.3-42.8-31.3
		l14.1-25.9c0,0,6.3,1.5,8.8,2.4"/>
	<path fill="none" stroke="#000000" stroke-width="2" stroke-miterlimit="10" d="M99.8,69.4c2.4,1,5.3,2.2,5.3,2.2
		s-14.4,32.3,5.8,23.6"/>
	<polyline fill="none" stroke="#000000" stroke-width="2" stroke-miterlimit="10" points="92.1,61.4 83.7,79 87.4,87.9 96.5,83.3 
		100.9,64.1 	"/>
	<path fill="none" stroke="#000000" stroke-width="2" stroke-miterlimit="10" d="M102.4,32.5c0.4,0.1,7.6,2.8,7.6,2.8l-2.7,11.5
		l-2.8,7.6l6.3-3.8l1,6.5c0,0-9.7,7.3-10.2,7.1c-0.5-0.2-9.7-3.6-9.7-3.6s-1.9-11.7-1.8-12c0.1-0.4,8.9-17.5,8.9-17.5L102.4,32.5z"
		/>
	<path fill="none" stroke="#000000" stroke-width="2" stroke-miterlimit="10" d="M158.3,94.6c0,0,24.6,41.4,40.6,57.4l-7.5,36.2
		c0,0-27.5-46.1-30.6-60.1"/>
	<polyline fill="none" stroke="#000000" stroke-width="2" stroke-miterlimit="10" points="198.9,155.8 211.3,162.9 220,178.7 
		206.5,177.6 196.3,164.6 	"/>
	<polyline fill="none" stroke="#000000" stroke-width="2" stroke-miterlimit="10" points="200,169.3 198.9,175.9 196.3,175.9 
		195.3,169.3 	"/>
	<line fill="none" stroke="#000000" stroke-width="2" stroke-miterlimit="10" x1="153.9" y1="93.3" x2="108.8" y2="147.7"/>
	<line fill="none" stroke="#000000" stroke-width="2" stroke-miterlimit="10" x1="159.8" y1="115.1" x2="107.3" y2="171.5"/>
	<path fill="none" stroke="#000000" stroke-width="2" stroke-miterlimit="10" d="M120.1,247c0.6,7.2,1.2,15,1.2,15h4.8
		c0,0,1.2-7.4,2.2-13.9"/>
	<path fill="none" stroke="#000000" stroke-width="2" stroke-miterlimit="10" d="M142.4,248.7c0.7,6.4,1.4,13.3,1.4,13.3h6
		c0,0,0.4-8,0.8-15"/>
</g>
<g id="Layer_3">
	<path fill="none" stroke="#27AAE1" stroke-width="25" stroke-miterlimit="10" stroke-opacity="0" d="M104.3,89.9
		c2.9-1.8,6.6-1.9,10.1-1.9c22.6,0,45.2,0.1,67.8,0.4c-27.6,11.9-58.5,13.1-87.2,22.2c15.3,0,30.6,0,45.9,0.7
		c9.6,0.5,19.4,1.3,28.4,4.8c-18.7,3.9-37.5,7.7-56.5,8.6c-8,0.3-16.4,0.3-23.3,4.2c22.3,0.1,44.5,0.3,66.8,0.4
		c-19.1,10.3-41.6,11.4-62.3,17.5c19.3-1.3,38.6-1.8,57.9-1.5c5.6,0.1,11.2,0.2,16.7,1.4c-17.3,7.3-37,6.1-55,11.4
		c-5.3,1.6-11,3.7-16.2,1.9"/>
</g>
</svg>
