<?xml version="1.0" encoding="utf-8"?>
<!-- Generator: Adobe Illustrator 19.2.1, SVG Export Plug-In . SVG Version: 6.00 Build 0)  -->
<svg version="1.0" id="Layer_1" xmlns="http://www.w3.org/2000/svg" xmlns:xlink="http://www.w3.org/1999/xlink" x="0px" y="0px"
	 width="576px" height="576px" viewBox="0 0 576 576" enable-background="new 0 0 576 576" xml:space="preserve">
<polyline fill="none" stroke="#000000" stroke-width="2" stroke-miterlimit="10" points="127.5,481 186.9,95.5 374.9,95.5 
	447.5,481 "/>
<line fill="none" stroke="#000000" stroke-width="2" stroke-miterlimit="10" x1="194.1" y1="113.1" x2="201.1" y2="108.6"/>
<line fill="none" stroke="#000000" stroke-width="2" stroke-miterlimit="10" x1="195.3" y1="117.8" x2="205.3" y2="110.8"/>
<path fill="none" stroke="#000000" stroke-width="2" stroke-miterlimit="10" d="M365.2,118.6c0,0-4.8-6.6-8.9-6.4"/>
<path fill="none" stroke="#000000" stroke-width="2" stroke-miterlimit="10" d="M365.5,111c0,0-3.7-3.3-8.2-3.5"/>
<path fill="none" stroke="#000000" stroke-width="2" stroke-miterlimit="10" d="M429.3,444.7c0,0,1.2,7.5-4.5,12"/>
<path fill="none" stroke="#000000" stroke-width="2" stroke-miterlimit="10" d="M426.3,441c0,0,1.2,7.5-4.5,12"/>
<line fill="none" stroke="#000000" stroke-width="2" stroke-miterlimit="10" x1="143.3" y1="462.1" x2="143.5" y2="451.1"/>
<line fill="none" stroke="#000000" stroke-width="2" stroke-miterlimit="10" x1="149.7" y1="462.4" x2="148.8" y2="451.3"/>
</svg>
