<?xml version="1.0" encoding="utf-8"?>
<!-- Generator: Adobe Illustrator 21.0.0, SVG Export Plug-In . SVG Version: 6.00 Build 0)  -->
<!DOCTYPE svg PUBLIC "-//W3C//DTD SVG 1.0//EN" "http://www.w3.org/TR/2001/REC-SVG-20010904/DTD/svg10.dtd">
<svg version="1.0" id="Layer_1" xmlns="http://www.w3.org/2000/svg" xmlns:xlink="http://www.w3.org/1999/xlink" x="0px" y="0px"
	 width="792px" height="612px" viewBox="0 0 792 612" enable-background="new 0 0 792 612" xml:space="preserve">
<path fill="none" stroke="#000000" stroke-width="2" stroke-miterlimit="10" d="M147.9,443.6l31.4-275.3c0,0,300.3,0,347.4,0"/>
<line fill="none" stroke="#000000" stroke-width="2" stroke-miterlimit="10" x1="183.8" y1="180.1" x2="190.8" y2="175.6"/>
<line fill="none" stroke="#000000" stroke-width="2" stroke-miterlimit="10" x1="185" y1="184.8" x2="195" y2="177.8"/>
<path fill="none" stroke="#000000" stroke-width="2" stroke-miterlimit="10" d="M246.7,188c0,0-4.8-6.6-8.9-6.4"/>
<path fill="none" stroke="#000000" stroke-width="2" stroke-miterlimit="10" d="M246.9,180.4c0,0-3.7-3.3-8.2-3.5"/>
<path fill="none" stroke="#000000" stroke-width="2" stroke-miterlimit="10" d="M526.7,168.4c47.6,0,88.1,0,88.1,0l29.3,275.3"/>
<line fill="none" stroke="#000000" stroke-width="2" stroke-miterlimit="10" x1="569.6" y1="175.8" x2="579.6" y2="180.3"/>
<line fill="none" stroke="#000000" stroke-width="2" stroke-miterlimit="10" x1="566.8" y1="181.5" x2="577.3" y2="185"/>
<path fill="none" stroke="#000000" stroke-width="2" stroke-miterlimit="10" d="M607.3,183.3c0,0,1.2,7.5-4.5,12"/>
<path fill="none" stroke="#000000" stroke-width="2" stroke-miterlimit="10" d="M604.3,179.5c0,0,1.2,7.5-4.5,12"/>
</svg>
