<?xml version="1.0" encoding="utf-8"?>
<!-- Generator: Adobe Illustrator 19.2.1, SVG Export Plug-In . SVG Version: 6.00 Build 0)  -->
<svg version="1.0" xmlns="http://www.w3.org/2000/svg" xmlns:xlink="http://www.w3.org/1999/xlink" x="0px" y="0px" width="288px"
	 height="288px" viewBox="0 0 288 288" enable-background="new 0 0 288 288" xml:space="preserve">
<g id="Layer_2">
	<path fill="#27AAE1" d="M126.6,85.9c0,0-9.8,28.7,6,43.7c0,0-13.8,0-16.2-18.2l-2.7-1.2l-0.8-4.3l0.8-2.3l-0.8-6.3
		C112.8,97.2,121.4,85.8,126.6,85.9z"/>
	<polygon fill="#27AAE1" points="130.5,133.7 122.7,200.7 106.3,196.7 108.1,174.2 105.2,156.3 112.6,142.9 114,131.6 	"/>
</g>
<g id="Layer_1">
	<path fill="none" stroke="#000000" stroke-width="2" stroke-miterlimit="10" d="M144.9,107.4c0,0.3,0.1,0.6,0.1,0.9
		c0.9,11.1-4.8,20.7-12.7,21.3c-7.8,0.6-14.9-7.7-15.9-18.6"/>
	<path fill="none" stroke="#000000" stroke-width="2" stroke-miterlimit="10" d="M145.5,102.7l-1.8-10.5c0,0-9.4-8.2-17.1-6.4
		s-13.7,11.4-13.7,11.4l1.3,9.6c0,0,8.1,3.7,15,2.3C134.7,108,140.2,107.6,145.5,102.7z"/>
	<path fill="none" stroke="#000000" stroke-width="2" stroke-miterlimit="10" d="M113.8,104.2c0,0-4.1,7.9,9.5,8.7
		c13.7,0.8,30.6-6.5,22.2-12.2"/>
	<path fill="none" stroke="#000000" stroke-width="2" stroke-miterlimit="10" d="M138.8,91.2c0,0,1,7.9-2.8,11.2"/>
	<polyline fill="none" stroke="#000000" stroke-width="2" stroke-miterlimit="10" points="135,129.1 135,134.7 122.8,132 
		124.4,127.2 	"/>
	<path fill="none" stroke="#000000" stroke-width="2" stroke-miterlimit="10" d="M143.5,167.1c0.5,16.7,1.1,34.8,1.1,34.8
		s-28.3,0.9-38.3-6.3l7.7-64c0,0,20-0.5,28.6,7.6c0,0,0.1,3.8,0.3,9.5"/>
	<polyline fill="none" stroke="#000000" stroke-width="2" stroke-miterlimit="10" points="113.7,134.2 102.5,156.4 108.7,176 	"/>
	<path fill="none" stroke="#000000" stroke-width="2" stroke-miterlimit="10" d="M173.7,152.1h2.7l3.4,4.8l-8.5,7.1l-1.9-0.8
		l-17.7,9c0,0-16.4-6.4-21.7-21.9"/>
	<path fill="none" stroke="#000000" stroke-width="2" stroke-miterlimit="10" d="M138.3,140.6c0,0,8.8,16.3,13.9,21.1l16-3.5l0.5-4"
		/>
	<path fill="none" stroke="#000000" stroke-width="2" stroke-miterlimit="10" d="M154.4,147.6c0,0,3.5-7.5,14-9.6l1,1.4l2-1.4
		l-1.2-2.2l2.7-1.6l2.9,5.7l-1.7,2.1l-1.7-1.7l-2,1.6l1,2.2L162,149l-2.1-2.6C159.9,146.4,157.7,146.1,154.4,147.6z"/>
	<path fill="none" stroke="#000000" stroke-width="2" stroke-miterlimit="10" d="M165.5,147.2c0,0,1.9,4.1,4.3,9.1"/>
	<path fill="none" stroke="#000000" stroke-width="2" stroke-miterlimit="10" d="M174.2,152.8c-2.8-4.2-5-7.6-5-7.6"/>
	<path fill="none" stroke="#000000" stroke-width="2" stroke-miterlimit="10" d="M169.4,157c0,0,4.3-4.3,5.9-4.9"/>
	<path fill="none" stroke="#000000" stroke-width="2" stroke-miterlimit="10" d="M172.8,162.7c2.9,6.2,5.6,11.8,5.6,11.8l6.1-6.2
		c0,0-3.3-4.9-6.8-10.3"/>
</g>
<g id="Layer_3">
	<path opacity="0" fill="none" stroke="#27AAE1" stroke-width="25" stroke-miterlimit="10" d="M112.5,86.6
		c6.6-0.1,13.1-0.3,19.7-0.4c-6,5.8-15.9,5-22.9,9.6c8.1,0.2,16.2,0.8,24.2,1.8c-10.5,2.7-20.9,5.4-31.4,8.1
		c12.5,0.8,24.9,1.6,37.4,2.4c-12,2.5-24,5-35.9,7.5c13.1,0.7,26.3,1.4,39.4,2.1c-15.2,3.7-30.3,7.5-45.5,11.2
		c16.1,2.6,32.9,0.2,48.7,4c-12.8,1.5-25.4,4.1-38,6.7c-4.1,0.8-8.3,1.8-11.6,4.4c12.9-0.8,25.7,4.8,38.6,3.2
		c-9.6,1.3-19.1,2.7-28.6,4.3c-3.3,0.6-6.7,1.2-9.6,2.8c3.8,2.4,8.5,3,13,3.5c8.2,1,16.4,1.9,24.5,2.9c-9.8,1.5-19.6,3.2-29.3,5.2
		c9.4,4.4,20.4,4.5,29.5,9.3c-10,1.7-20.1,2.8-30.2,3.4c11.1,1.5,22.1,3.1,33.2,4.6c-11.8-0.4-23.7,0.5-35.3,2.6
		c-5.3,1-10.7,2.3-14.6,5.9c16.8,6,33.9,11.1,51.2,15.5"/>
</g>
</svg>
