<?xml version="1.0" encoding="utf-8"?>
<!-- Generator: Adobe Illustrator 19.2.1, SVG Export Plug-In . SVG Version: 6.00 Build 0)  -->
<svg version="1.0" xmlns="http://www.w3.org/2000/svg" xmlns:xlink="http://www.w3.org/1999/xlink" x="0px" y="0px" width="288px"
	 height="288px" viewBox="0 0 288 288" enable-background="new 0 0 288 288" xml:space="preserve">
<g id="Layer_2">
	<path fill="#27AAE1" d="M141.8,20.3c0,0-8.1,44.5,7.4,49c0,0-10.9-2.2-14.6-14.7v-3.1c0,0-7.9-4.4-6.2-7.7c1.7-3.3,3.6-4.5,3.6-4.9
		s0.3-3.7,0.3-3.7S129.3,23.6,141.8,20.3z"/>
	<path fill="#27AAE1" d="M115.9,37.1c-1.1,3.6-8.3,26.7-8.3,26.7l25.9,13.5l5.1-1.2l-0.4,67.8c0,0-10-1.2-9.9-2.3
		c0.1-1.1,3.9-49.2,3.9-49.2L96.2,66.9l17.7-31.8"/>
	<path fill="#27AAE1" d="M135,144c0,0,3.5,67.4,5,104.3l-7.7,17.9l-18.4-9.5l24.1-8.5l-9.8-105.5L135,144z"/>
	<path fill="#27AAE1" d="M166,248.5l22.9,16.3l-18.5,9.1l-11.1-24l2.5-1.4l-8.9-86.2l-2.9-17.5l8.8-1
		C158.8,143.7,165.5,219.5,166,248.5z"/>
</g>
<g id="Layer_1">
	<path fill="none" stroke="#000000" stroke-width="2" stroke-miterlimit="10" d="M164.8,39.9c1.1,2.9,1.3,5,1.3,8.4
		c0,11.7-7.1,21.1-15.8,21.1c-8.7,0-15.8-9.5-15.8-21.1c0-3,0.2-5.1,1.1-7.7"/>
	<path fill="none" stroke="#000000" stroke-width="2" stroke-miterlimit="10" d="M134.6,47.4c0,0-9-8.5,15-9s18.7,7.7,16.5,8.3"/>
	<path fill="none" stroke="#000000" stroke-width="2" stroke-miterlimit="10" d="M166.1,49.8c0,0,11.8-3.3,5.2-10.2
		s-31.7-8.3-41.2,1c0,0-6,5.7,4.5,11"/>
	<path fill="none" stroke="#000000" stroke-width="2" stroke-miterlimit="10" d="M132,39c-0.1-1.3,0.3-12.9,1.9-14.3
		c1.7-1.3,11.2-6.8,15.7-6.8s17.6,4.3,18.6,7c0.9,2.7,1.7,13.5,1.7,13.5"/>
	<path fill="none" stroke="#000000" stroke-width="2" stroke-miterlimit="10" d="M141.8,23.7c0,0-1.6,5.6-4,8.4"/>
	<path fill="none" stroke="#000000" stroke-width="2" stroke-miterlimit="10" d="M158,23.4c0,0,1.1,7.2,2.8,9.1"/>
	<polyline fill="none" stroke="#000000" stroke-width="2" stroke-miterlimit="10" points="145.8,68.8 145.8,75.6 154.6,75.6 
		154.6,68.8 	"/>
	<path fill="none" stroke="#000000" stroke-width="2" stroke-miterlimit="10" d="M167.6,124.9c0.3,9.6,0.5,16.7,0.5,16.7
		s-24,7.2-39.8,0l5.2-65c0,0,20.9-2.4,32.5,0c0,0,0.1,3.4,0.3,8.8"/>
	<polyline fill="none" stroke="#000000" stroke-width="2" stroke-miterlimit="10" points="114.2,35.3 97.2,67.1 132.3,92.4 	"/>
	<polyline fill="none" stroke="#000000" stroke-width="2" stroke-miterlimit="10" points="117.8,38.4 113.1,62.4 133.6,76.7 	"/>
	<line fill="none" stroke="#000000" stroke-width="2" stroke-miterlimit="10" x1="97.8" y1="66.9" x2="112.7" y2="62.3"/>
	<path fill="none" stroke="#000000" stroke-width="2" stroke-miterlimit="10" d="M123,30.1c1.9,1.1,3.4,1.9,3.4,1.9l4.8,1.2
		l-2.2-4.8l-14.1-8.5l-1,5.2c0,0,2.2,1.2,4.8,2.6"/>
	<line fill="none" stroke="#000000" stroke-width="2" stroke-miterlimit="10" x1="117.5" y1="27.1" x2="119.4" y2="22.6"/>
	<polyline fill="none" stroke="#000000" stroke-width="2" stroke-miterlimit="10" points="126.8,27.1 124.9,19.6 117.5,21.4 	"/>
	<polyline fill="none" stroke="#000000" stroke-width="2" stroke-miterlimit="10" points="115.1,25.8 113.9,35.1 118.4,38.4 
		125.4,32.1 	"/>
	<polyline fill="none" stroke="#000000" stroke-width="2" stroke-miterlimit="10" points="116.1,29.8 121.2,26.3 123.6,27.8 
		120.4,33.4 	"/>
	<path fill="none" stroke="#000000" stroke-width="2" stroke-miterlimit="10" d="M157.9,92.1c0.1-0.2,0.3-2.3,0.3-2.3l3.7-0.3
		c0,0,1.6-5.2,5.2-4.4c3.6,0.8,4.3,2.2,4,5.5l4.1,0.8l-1.3,4.1"/>
	
		<ellipse transform="matrix(0.1201 -0.9928 0.9928 0.1201 57.2387 244.6725)" fill="none" stroke="#000000" stroke-width="2" stroke-miterlimit="10" cx="166.6" cy="90" rx="1.7" ry="1.7"/>
	<path fill="none" stroke="#000000" stroke-width="2" stroke-miterlimit="10" d="M151.4,105.5c0.6-7,1.1-13.3,1.1-13.3l25,3
		c0,0-0.1,0.7-0.2,1.9"/>
	<path fill="none" stroke="#000000" stroke-width="2" stroke-miterlimit="10" d="M166.1,76.7c0,0,12,7.2,17.8,27.6
		c0,0-16.8,11-29.3,12.3v-5l24.1-15.5c0,0,0.7-0.4,1.6-0.9"/>
	<polyline fill="none" stroke="#000000" stroke-width="2" stroke-miterlimit="10" points="150.8,107.6 145.8,109.3 146.6,119.1 
		154.6,116.6 	"/>
	<path fill="none" stroke="#000000" stroke-width="2" stroke-miterlimit="10" d="M154.6,111.6c-0.2-1.2,0-6.2,0-6.2h-3.2l-0.6,4.8"
		/>
	<path fill="none" stroke="#000000" stroke-width="2" stroke-miterlimit="10" d="M175.8,109.2c-1,8.2-2.1,17.1-2.1,17.1l-23.8-2.9
		c0,0,0.2-2.3,0.5-5.7"/>
	<path fill="none" stroke="#000000" stroke-width="2" stroke-miterlimit="10" d="M128.4,141.7l9.4,106.6h4c0,0,1.7-86.2,6.5-103.4"
		/>
	<path fill="none" stroke="#000000" stroke-width="2" stroke-miterlimit="10" d="M150.8,144.9c0,0,10.8,91.3,10.5,103.4h5.3
		c0,0,9.1-81.6,1.5-106.6"/>
	<polygon fill="none" stroke="#000000" stroke-width="2" stroke-miterlimit="10" points="137.8,248.3 113.4,256.9 129.8,263.9 
		143.3,249.1 	"/>
	<polygon fill="none" stroke="#000000" stroke-width="2" stroke-miterlimit="10" points="158.8,249.1 172.6,270.1 189.6,261.9 
		168.4,248.3 	"/>
</g>
<g id="Layer_3">
	<path opacity="0" fill="none" stroke="#27AAE1" stroke-width="20" stroke-miterlimit="10" d="M107,22.3c19.9-1.2,39.9-0.4,59.6,2.5
		c-24.9,4.1-49.5,9.9-73.6,17.3c22.5,0.4,45,0.8,67.5,1.3c-27,4.6-53.7,10.6-80.1,17.8c32.7,0.5,65.4,1.1,98.1,1.6
		c-27.3,5.9-56,4.8-82.5,13.5c22.4,5.6,45.3,9.2,68.3,10.7c-22.7,7.9-45.9,14-69.5,18.4c15.6,2.2,31,5.1,46.4,8.6
		c-15.4,1.8-30.4,6.5-44.1,13.8c26.8,1.9,53.6,3.1,80.4,3.8c-15.3,3.5-30.5,7.2-45.6,11.2c-10,2.6-20.4,5.6-27.7,12.8
		c25.6,1,51.2,2,76.8,3c-25.8,4.9-51.6,9.7-77.4,14.6c-0.5,3.3,3.8,5.1,7.1,5.6c21,3.5,42,7,63,10.4c-20.4,7-41,13.6-61.7,19.7
		c26.2,1.1,52.4,2.3,78.6,3.4c-20.8,8.6-42.4,15.4-64.4,20.3c20,0,40.1,2.3,59.6,6.8c-26.4,4.7-52.9,9.3-79.3,14
		c7.8,5.2,17.9,5.2,27.2,5.2c21.8-0.2,43.6-0.4,65.5-0.7c-16.1,6.8-33.6,10.3-51,10.1"/>
</g>
</svg>
