<?xml version="1.0" encoding="utf-8"?>
<!-- Generator: Adobe Illustrator 21.0.0, SVG Export Plug-In . SVG Version: 6.00 Build 0)  -->
<!DOCTYPE svg PUBLIC "-//W3C//DTD SVG 1.0//EN" "http://www.w3.org/TR/2001/REC-SVG-20010904/DTD/svg10.dtd">
<svg version="1.0" id="Layer_1" xmlns="http://www.w3.org/2000/svg" xmlns:xlink="http://www.w3.org/1999/xlink" x="0px" y="0px"
	 width="288px" height="288px" viewBox="0 0 288 288" enable-background="new 0 0 288 288" xml:space="preserve">
<g id="Color">
	<polygon fill="#FFFFFF" points="81.1,201.5 142.5,79.9 204.2,201.5 	"/>
</g>
<g id="Line">
	<polyline fill="none" stroke="#000000" stroke-width="2" stroke-miterlimit="10" points="142.5,79.9 204.2,201.5 81.1,201.5 
		142.5,79.9 	"/>
</g>
<g id="Stroke">
	
		<path fill="none" stroke="#000000" stroke-width="21" stroke-linecap="round" stroke-linejoin="round" stroke-miterlimit="10" stroke-opacity="0" d="
		M111.7,79.9c28.3,0.7,57.2-2,84.9,3.6c-13.8,11.8-33.2,14.4-51.4,14.4s-36.7-2.1-54.4,2.5c26.5,0.3,53.1,0.8,79.6,1.5
		c6,0.2,13.7,1.6,14.8,7.5c-34.9,8.6-71.9,3.8-107.4,9.7c-2.3,0.4-5.2,1.6-4.9,4c26.1,3,52.5,2.7,78.8,2.4
		c17.8-0.2,35.5-0.4,53.3-0.6c1.1,5.4-5.3,9-10.6,10.3c-44.4,11.5-91.9,0.6-137.1,8.8c3.1,3.5,8.5,3.8,13.2,3.9
		c47.3,0.4,94.6,0.8,141.8,1.2c2.1,2.6,0.7,6.7-2,8.7c-2.7,1.9-6.2,2.2-9.6,2.4c-31.7,1.7-63.5,1.2-95.2-1.7
		c-24.1-2.2-49.1-5.6-71.8,2.8c-1.4,0.5-2.9,1.3-3.2,2.7c-0.4,2.1,2,3.6,4,4.3c10.1,3.4,20.8,4.6,31.5,5.3
		c20.2,1.4,40.4,1.4,60.6,1.4c26.1,0,52.2,0,78.3,0c2.8,3.4,1.1,8.9-2.5,11.5c-3.5,2.6-8.1,3.1-12.5,3.4
		c-48.5,3.2-96.9-6.6-145.4-5.6c-3.3,0.1-7.4,0.7-8.5,3.8c-1.6,4.4,4.1,7.7,8.7,8.7c58.4,12.9,118.7-8.1,178.5-8.8
		c4.3-0.1,9.8,0.9,10.8,5.1c-10.3,6.4-23,7.2-35.1,7c-37.5-0.4-76.4-8.1-111.7,4.9c2.2,4.6,8.3,5.2,13.4,5.1
		c29-0.2,58.1-0.3,87.1-0.5"/>
</g>
</svg>
