<?xml version="1.0" encoding="utf-8"?>
<!-- Generator: Adobe Illustrator 20.1.0, SVG Export Plug-In . SVG Version: 6.00 Build 0)  -->
<!DOCTYPE svg PUBLIC "-//W3C//DTD SVG 1.0//EN" "http://www.w3.org/TR/2001/REC-SVG-20010904/DTD/svg10.dtd">
<svg version="1.0" xmlns="http://www.w3.org/2000/svg" xmlns:xlink="http://www.w3.org/1999/xlink" x="0px" y="0px" width="288px"
	 height="288px" viewBox="0 0 288 288" enable-background="new 0 0 288 288" xml:space="preserve">
<g id="Layer_1">
	<g>
		<path d="M103.9,152.2c-0.7,0.1-4.4,1.8-7.3,3.3l-0.6,0.3l0.4,5.2l2.6,1.2l-8.2,6.4l-5.9-12.9l1.6-12l-6.2-2.4
			c2.2-1.6,5.7-4.6,5.6-7.7c0-1.1-0.9-12.2-2.5-12.8c-0.2-0.1-1.2-0.8-2-1.4c-3.3-2.3-4.1-2.8-4.6-2.9c-0.6-0.1-2.4,0.4-5.2,1.5
			l-0.2,0.1c-0.9,0.7-5.6,4.1-6.2,6.6c-0.5,2.2-0.7,3.5-0.8,4.7c-0.1,0.9,0.4,4.2,0.7,6.2c-1.7-0.3-3.4-0.7-4.1-1
			c0.2-1.3,0.7-4.9,1.2-8.1c0-0.1,1.6-13.6,4.1-18.1c2.1-3.9,4.9-9.2,5.8-11l4.9,0.2l0.3-0.5c0.9-1.4,1.9-2.7,2.4-3.1l1,0.2v-8
			l-5.4-3.7h-9.2l-4.3,11.6l3.4,1.1c-1.9,2.6-6.5,9-8.2,10.5c-2.2,2.1-4.1,8.6-4.3,9.3c-0.2,0.5-3.8,11.1-3,16.1
			c0.6,4.4,1.4,9.4,1.6,10.3l-1.7,16.9l1.6,45.7h35.9l-2.8-15.5v-12.3l7.4,6.1l18.5-20l-0.3-0.6C105.2,152,104.7,152.1,103.9,152.2z
			"/>
		<path d="M236.9,141.7c0.1-0.9,0.9-5.9,1.6-10.3c0.7-5-2.9-15.6-3-16c-0.2-0.7-2-7.2-4.3-9.4c-1.7-1.6-6.3-8-8.2-10.5l3.4-1.1
			l-4.3-11.6h-9.2l-5.4,3.7v8.2l1.1-0.4c0.3,0.2,0.9,0.9,2,2.5c0.4,0.6,0.7,0.9,1.2,0.9c0,0,0,0,0,0l4.4-0.2c0.9,1.7,3.7,7,5.8,11
			c2.5,4.6,4.1,18,4.1,18.2c0.5,3.2,1.1,6.8,1.2,8.1c-0.7,0.3-2.4,0.6-4.1,1c0.3-2,0.8-5.2,0.8-6.1c-0.1-1.2-0.3-2.5-0.8-4.7
			c-0.6-2.6-5.3-6-6.2-6.6l-0.2-0.1c-2.8-1.1-4.6-1.6-5.2-1.5c-0.5,0.1-1.4,0.6-4.6,2.9c-0.8,0.6-1.7,1.2-1.9,1.3
			c-1.7,0.7-2.5,12.7-2.5,12.8c-0.1,3.1,3.4,6.1,5.6,7.7l-6.2,2.4l1.6,12l-6,12.8l-8.2-6.4l2.6-1.2l0.4-5.2l-0.6-0.3
			c-2.9-1.4-6.6-3.2-7.3-3.3c-0.8-0.1-1.4-0.2-5.9,9.9l-0.3,0.6l18.5,20l7.4-6.1v12.3l-2.9,15.5H237l1.6-45.7l0-0.1L236.9,141.7z"/>
		<path d="M169,93.6l-9.6,3.7l-2,5.6l2,6h5.9l7.8,16.9l-10.2,11.3l-6.7-1.3c0.9-1.4,2-3.6,2-6.1c-0.1-3.7-2.5-11.1-2.7-11.4
			l-0.1-0.2c-0.3-0.5-2.8-4.7-6.2-4.2c-2.8,0.4-3.8,0.7-3.9,0.8c-0.2,0.1-5,1.9-5.8,5.7c-0.7,3.4-0.8,8.3-0.8,8.5l0,0.1l1.6,7.1
			l-6,1.2l-11.1-11.7l7.9-16.9h5.8l2.1-6.8l-2-4.7l-9.8-3.7l-15.1,31.7l3,7.4l5.4,8.4c0.3,0.3,6.3,8,11.9,8.8l2.5,51.6h29.4
			l-0.5-51.9l7.4-4l6.3-6.8l6.5-13.4L169,93.6z"/>
	</g>
</g>
<g id="Layer_2_2_">
	<g id="Layer_4">
		<g id="Layer_3">
			<path fill="none" stroke="#000000" stroke-width="20" stroke-miterlimit="10" stroke-opacity="0" d="M48.3,79
				c18.2,2.1,36.6,2.3,55,2.5c48.8,0.6,97.6,1.2,146.4,1.8c-69.2-1.4-138.7-2.7-207.6,4c71.9,6.2,144.1,7.4,216.1,3.7
				c-44,0.9-88,1.9-132,3c-27.1,0.7-54.3,1.5-80.8,7.1c64.2,0.2,128.4,0.5,192.6,0.7c-25.2,2.6-50.6,3.1-75.9,3.5
				c-40.8,0.7-81.7,1.4-122.5,2.2c67,4.8,134.1,6.8,201.3,6.2c-30.1-3.3-60.5-2.1-90.7-0.8c-39.3,1.6-78.5,3.2-117.8,4.8
				c69.6,7.1,141.3,0,209.8,5.4c-18.9,5-38.6,6.1-58.1,6.9c-47.5,2-95.1,2.7-142.6,2.2c27.3,11.3,57.8,11,87.3,10.6
				c34.3-0.5,68.7-0.9,103-1.4c-14.4,3.3-29.3,4.3-44.1,5.1c-48.9,2.5-97.9,1.6-146.9,0.7c66.8,12.2,135.4,1.7,203.2,3.7
				c-67.1,4-134.2,5-201.4,6c67.5,9.3,135.9,6.5,203.9,3.1c-73.8,12.9-149.5,4.6-224.4,5c39,7.4,78.7,12.5,118.4,10.4
				c17.3-0.9,34.6-3.2,51.9-4.9c19.7-1.9,39.5-3.1,59.4-3.6c-1.9,3.5-6.5,4.2-10.4,4.4c-60.3,4-120.8,2.1-181.2,4.6
				c-7.1,0.3-14.6,0.8-20.4,4.9c65.5,2.9,131.2,1.7,196.6-3.6c-19.3,2.1-38.7,1.5-58.1,1.4c-50.4-0.3-100.7,2.3-150.9,6.2
				c46.2,7,92.8,13.7,139.5,10.9c26.2-1.5,52.3-6,78.4-4.2c-59.5,2.6-119.1,3.8-178.7,3.6c-8,0-16.3,0-23.7,3.2
				c41.3,3.6,82.9,4.2,124.3,2c15-0.8,30.1-2,45.1-1.3c13.2,0.6,26.5,2.6,39.6,1.4"/>
		</g>
	</g>
</g>
</svg>
