<?xml version="1.0" encoding="utf-8"?>
<!-- Generator: Adobe Illustrator 19.2.1, SVG Export Plug-In . SVG Version: 6.00 Build 0)  -->
<svg version="1.0" xmlns="http://www.w3.org/2000/svg" xmlns:xlink="http://www.w3.org/1999/xlink" x="0px" y="0px" width="288px"
	 height="288px" viewBox="0 0 288 288" enable-background="new 0 0 288 288" xml:space="preserve">
<g id="Layer_2">
	<path fill="#27AAE1" d="M126.7,148.6c0.4-2.1,0.8-4.3,1.5-6.3c-0.1-0.3-0.3-0.6-0.5-0.9c0,0,0-0.1-0.1-0.1
		c-2.4,1.5-4.8,2.9-7.5,4.1l-1.1,16.7l7.2-5.9C125.5,153.8,126.3,150.8,126.7,148.6z"/>
	<path fill="#27AAE1" d="M159.7,104.3c-1,0.6-5.4,9.9-13.6,20c0.2,0.4,0.3,0.9,0.3,1.4c0,4.3,0.9,8.9,0.5,13.2l1-0.9l12-18.2
		L159.7,104.3z"/>
</g>
<g id="Layer_1">
	<path fill="none" stroke="#000000" stroke-width="2" stroke-miterlimit="10" d="M144,90.9l4,0.3c6.6,0.6,12.4-4.4,13-10.9l1.3-15.8
		c0.6-6.6-4.4-12.4-10.9-13l-4-0.3c-6.6-0.6-12.4,4.4-13,10.9L133,77.9C132.5,84.5,137.4,90.3,144,90.9z"/>
	<path fill="none" stroke="#000000" stroke-width="2" stroke-miterlimit="10" d="M161.4,74.5c0,0-6.5,0.8-10.3-1
		c-3.8-1.7-9.4-1.8-10.3-0.4c-0.9,1.5-7.5,0.9-7.5,0.9"/>
	<path fill="none" stroke="#000000" stroke-width="2" stroke-miterlimit="10" d="M161.9,69c0,0,4.3,0.1,4.2,3.9
		c-0.2,3.8-4.3,5.3-4.3,5.3"/>
	<path fill="none" stroke="#000000" stroke-width="2" stroke-miterlimit="10" d="M141.3,97.7c-6.2-1.1-12.5-3.3-18.2-7.1
		c0,0,6.3-11.8,6.8-24c0.5-12.2,3.6-26.6,19.1-24.6c0,0,24.8-2.4,26.9,31.8c0,0-0.2,19.9,0.9,21.2c0,0-12.9,2.6-22.8,3.6"/>
	<polyline fill="none" stroke="#000000" stroke-width="2" stroke-miterlimit="10" points="152.3,90.8 153.5,99.3 141.8,98.6 
		142.9,90.7 	"/>
	<path fill="none" stroke="#000000" stroke-width="2" stroke-miterlimit="10" d="M129.2,98.2l30.2,2.5l8.3,118.9
		c0,0-32.7,12.2-57.7-2L129.2,98.2z"/>
	<path fill="none" stroke="#000000" stroke-width="2" stroke-miterlimit="10" d="M137.2,103.5c0,0-12.8,47.5-12.5,67.8l25.9-6.2
		c0,0-8.4-37.6-1.6-56.8"/>
	<polyline fill="none" stroke="#000000" stroke-width="2" stroke-miterlimit="10" points="131.4,169.7 131.4,177 137.7,184 
		147.4,180.5 147.7,175.8 150.6,175.8 151.8,171.2 144.3,166.5 	"/>
	<path fill="none" stroke="#000000" stroke-width="2" stroke-miterlimit="10" d="M157.5,100.8c0,0-4.2,7.8-10.4,16.2"/>
	<path fill="none" stroke="#000000" stroke-width="2" stroke-miterlimit="10" d="M129.5,135.7c-2.1,1.7-4.3,3.3-6.5,4.7"/>
	<path fill="none" stroke="#000000" stroke-width="2" stroke-miterlimit="10" d="M160.6,119.9c0,0-4.7,9-13.5,19.2"/>
	<path fill="none" stroke="#000000" stroke-width="2" stroke-miterlimit="10" d="M125.6,158.1c-1.7,1.1-3.5,2.2-5.4,3.1"/>
	<polyline fill="none" stroke="#000000" stroke-width="2" stroke-miterlimit="10" points="129.8,223 126.9,235.8 125.3,235.8 
		122.1,222.6 	"/>
	<path fill="none" stroke="#000000" stroke-width="2" stroke-miterlimit="10" d="M152.6,223.4l-2.4,10.8h-1.7c0,0-1.4-6-2.4-9.9"/>
	<polygon fill="none" stroke="#000000" stroke-width="2" stroke-miterlimit="10" points="127.1,235.8 149.2,238.6 140.6,247.6 
		124.1,238.6 	"/>
	<polygon fill="none" stroke="#000000" stroke-width="2" stroke-miterlimit="10" points="150.3,234.2 172.5,237.1 163.8,246.1 
		147.3,237.1 	"/>
</g>
<g id="Layer_3">
	<path opacity="0" fill="none" stroke="#27AAE1" stroke-width="12" stroke-miterlimit="10" d="M150.5,102.2c5.8-1,11.9-0.1,17.2,2.5
		c-10.8,4.5-22.4,6.5-34,8.5c11.9,0.1,23.9,0.7,35.7,2c-15,4.3-30.3,7.7-45.7,10.3c13.9,0.5,27.7,0.7,41.6,0.5
		c-16.2,2.6-32.5,4.5-48.9,5.6c0.3,1.7,2.4,2.1,4.1,2.3c13.5,0.9,27.1,1.4,40.7,1.4c-17.1,6-35.4,7.9-53.4,9.8
		c12.4-0.3,24.9-0.7,37.3-1c-9.4,2.8-18.9,5.7-28.3,8.5c-2.6,0.8-5.7,2-6.2,4.7c14.3-3,28.8-5.3,43.3-6.8"/>
</g>
</svg>
