<?xml version="1.0" encoding="utf-8"?>
<!-- Generator: Adobe Illustrator 20.1.0, SVG Export Plug-In . SVG Version: 6.00 Build 0)  -->
<!DOCTYPE svg PUBLIC "-//W3C//DTD SVG 1.0//EN" "http://www.w3.org/TR/2001/REC-SVG-20010904/DTD/svg10.dtd">
<svg version="1.0" xmlns="http://www.w3.org/2000/svg" xmlns:xlink="http://www.w3.org/1999/xlink" x="0px" y="0px" width="288px"
	 height="288px" viewBox="0 0 288 288" enable-background="new 0 0 288 288" xml:space="preserve">
<g id="Layer_2_1_">
	<g id="Layer_2">
		<path d="M79.5,93.2V87l-4.7-3.2h-8.2l-3.7,10l3.7,1.2c0,0-6.9,9.7-9.1,11.8c-2.1,2-4,8.9-4,8.9s-3.7,10.8-3,15.6
			c0.7,4.8,1.6,10.4,1.6,10.4l-1.7,17l1.6,44.7h33.7L83.1,189v-14.5l8.3,6.8l17.4-18.8c0,0-4.2-9.4-4.8-9.3c-0.7,0.1-7,3.2-7,3.2
			l0.3,4l3.5,1.7l-10.5,8.2L83.7,156l1.5-11.5l-7.3-2.8c0,0,6.9-4.1,6.8-7.9c0-3.8-1.4-11.7-1.9-11.9c-0.5-0.2-5.6-4.1-6.3-4.2
			s-4.7,1.4-4.7,1.4s-5.3,3.7-5.8,6s-0.7,3.5-0.8,4.6c-0.1,1.1,0.9,7.3,0.9,7.3s-6.4-1-6.4-1.7s1.3-8.7,1.3-8.7s1.6-13.7,4.2-18.5
			c2.6-4.8,6.1-11.5,6.1-11.5l5,0.2C76.3,96.8,78.7,93,79.5,93.2z"/>
		<path d="M208.5,93.3V87l4.7-3.2h8.2l3.7,10l-3.7,1.2c0,0,6.9,9.7,9.1,11.8c2.1,2,4,8.9,4,8.9s3.7,10.8,3,15.6
			c-0.7,4.8-1.6,10.4-1.6,10.4l1.7,17l-1.6,44.7h-33.7L205,189v-14.5l-8.3,6.8l-17.4-18.8c0,0,4.2-9.4,4.8-9.3c0.7,0.1,7,3.2,7,3.2
			l-0.3,4l-3.5,1.7l10.5,8.2l6.7-14.2l-1.5-11.5l7.3-2.8c0,0-6.9-4.1-6.8-7.9s1.4-11.7,1.9-11.9c0.5-0.2,5.6-4.1,6.3-4.2
			s4.7,1.4,4.7,1.4s5.3,3.7,5.8,6s0.7,3.5,0.8,4.6s-1,7.2-1,7.2s6.4-1,6.4-1.7s-1.3-8.7-1.3-8.7s-1.6-13.7-4.2-18.5
			c-2.6-4.8-6.1-11.5-6.1-11.5l-5,0.2C211.7,96.8,209.4,93,208.5,93.3z"/>
		<path d="M130.5,107.7h5.7l1.8-5.7l-1.7-4l-8.5-3.2l-14.5,30.5l2.8,7l5.3,8.2c0,0,6.6,8.5,12.1,8.5l2.5,51.5h27.4l-0.5-51.5
			l7.8-4.2l6.2-6.7l6.1-12.7l-14.5-30.5l-8.3,3.2l-1.7,4.8l1.7,5h5.8l8.3,18.1l-11,12.2l-8.8-1.7c0,0,2.7-3.2,2.7-6.8
			c-0.1-3.6-2.6-11.1-2.6-11.1s-2.4-4.1-5.2-3.7s-3.7,0.7-3.7,0.7s-4.5,1.7-5.2,5s-0.8,8.3-0.8,8.3l1.8,8l-7.5,1.5l-12-12.6
			L130.5,107.7z"/>
	</g>
</g>
<g id="Layer_4">
	<g id="Layer_3">
		<path fill="none" stroke="#000000" stroke-width="20" stroke-miterlimit="10" stroke-opacity="0" d="M48.3,79
			c18.2,2.1,36.6,2.3,55,2.5c48.8,0.6,97.6,1.2,146.4,1.8c-69.2-1.4-138.7-2.7-207.6,4c71.9,6.2,144.1,7.4,216.1,3.7
			c-44,0.9-88,1.9-132,3c-27.1,0.7-54.3,1.5-80.8,7.1c64.2,0.2,128.4,0.5,192.6,0.7c-25.2,2.6-50.6,3.1-75.9,3.5
			c-40.8,0.7-81.7,1.4-122.5,2.2c67,4.8,134.1,6.8,201.3,6.2c-30.1-3.3-60.5-2.1-90.7-0.8c-39.3,1.6-78.5,3.2-117.8,4.8
			c69.6,7.1,141.3,0,209.8,5.4c-18.9,5-38.6,6.1-58.1,6.9c-47.5,2-95.1,2.7-142.6,2.2c27.3,11.3,57.8,11,87.3,10.6
			c34.3-0.5,68.7-0.9,103-1.4c-14.4,3.3-29.3,4.3-44.1,5.1c-48.9,2.5-97.9,1.6-146.9,0.7c66.8,12.2,135.4,1.7,203.2,3.7
			c-67.1,4-134.2,5-201.4,6c67.5,9.3,135.9,6.5,203.9,3.1c-73.8,12.9-149.5,4.6-224.4,5c39,7.4,78.7,12.5,118.4,10.4
			c17.3-0.9,34.6-3.2,51.9-4.9c19.7-1.9,39.5-3.1,59.4-3.6c-1.9,3.5-6.5,4.2-10.4,4.4c-60.3,4-120.8,2.1-181.2,4.6
			c-7.1,0.3-14.6,0.8-20.4,4.9c65.5,2.9,131.2,1.7,196.6-3.6c-19.3,2.1-38.7,1.5-58.1,1.4c-50.4-0.3-100.7,2.3-150.9,6.2
			c46.2,7,92.8,13.7,139.5,10.9c26.2-1.5,52.3-6,78.4-4.2c-59.5,2.6-119.1,3.8-178.7,3.6c-8,0-16.3,0-23.7,3.2
			c41.3,3.6,82.9,4.2,124.3,2c15-0.8,30.1-2,45.1-1.3c13.2,0.6,26.5,2.6,39.6,1.4"/>
	</g>
</g>
</svg>
