<?xml version="1.0" encoding="utf-8"?>
<!-- Generator: Adobe Illustrator 20.1.0, SVG Export Plug-In . SVG Version: 6.00 Build 0)  -->
<!DOCTYPE svg PUBLIC "-//W3C//DTD SVG 1.0//EN" "http://www.w3.org/TR/2001/REC-SVG-20010904/DTD/svg10.dtd">
<svg version="1.0" xmlns="http://www.w3.org/2000/svg" xmlns:xlink="http://www.w3.org/1999/xlink" x="0px" y="0px" width="288px"
	 height="288px" viewBox="0 0 288 288" enable-background="new 0 0 288 288" xml:space="preserve">
<g id="Layer_1">
	<g>
		<path d="M103.6,150.7c-0.4,0.1-1.2,0.2-7.7,3.4l-1.5,0.7l0.5,7.1l1.2,0.6l-4.9,3.8l-5-10.8l1.7-12.7l-4.9-1.9
			c2.2-2,4.2-4.5,4.1-7.2c0-0.1-0.5-12.5-3.3-14.1l0,0c-0.2-0.1-1.3-0.9-1.8-1.3c-3.7-2.6-4.4-3.1-5.3-3.2c-0.6-0.1-1.7-0.1-5.9,1.5
			l-0.6,0.3c-1.6,1.1-5.2,3.8-6.4,6.4c0.7-4.6,2-11.4,3.5-14.2c1.8-3.4,4.1-7.8,5.4-10.1l4.9,0.2l0.8-1.2c0.6-0.9,1.2-1.7,1.6-2.2
			l2,0.5V85.7l-6.4-4.4H64.9l-5.2,14.1l2.9,0.9c-3.3,4.5-5.8,7.7-6.8,8.7c-2.5,2.4-4.3,8.7-4.6,9.9c-0.4,1.2-3.9,11.5-3.1,16.8
			c0.6,4.1,1.3,8.8,1.6,10.1l-1.7,16.7l0,0.1l1.7,47.3h39.1l-3.1-17.1v-9l6,4.9l20.1-21.7l-0.7-1.5
			C106.5,151.2,105.7,150.4,103.6,150.7z M62.4,133.7c0.1-0.7,0.2-1.5,0.4-2.5c0.1,0.6,0.2,1.5,0.3,2.6
			C62.9,133.8,62.6,133.8,62.4,133.7z"/>
		<path d="M238.4,141.8c0.2-1.1,0.9-6,1.6-10.1c0.8-5.3-2.8-15.9-3.1-16.7c-0.5-1.8-2.3-7.7-4.7-10c-1-0.9-3.5-4.1-6.8-8.7l2.9-0.9
			l-5.2-14.1h-10.7l-6.4,4.4v11.1l2.1-0.7c0.3,0.3,0.7,0.8,1.2,1.7c0.5,0.7,1.1,1.6,2.5,1.6c0,0,0,0,0,0l3.4-0.1
			c1.2,2.4,3.5,6.7,5.4,10.1c1.4,2.7,2.7,9.1,3.4,14.1c-1.4-2.5-4.7-5.1-6.3-6.2l-0.6-0.3c-4.3-1.6-5.3-1.6-5.9-1.5
			c-0.9,0.1-1.6,0.6-5.3,3.2l-0.1,0.1c-0.6,0.4-1.5,1.1-1.6,1.2v0c-2.8,1.6-3.3,13.9-3.3,14.1c-0.1,2.8,1.9,5.3,4.1,7.3l-4.9,1.9
			l1.7,12.7l-5.1,10.7l-4.9-3.8l1.2-0.6l0.5-7.1l-1.5-0.7c-6.7-3.3-7.4-3.4-7.7-3.4c-2.1-0.3-2.9,0.5-7.5,10.7l-0.7,1.5l20.1,21.7
			l6-4.9v9l-3.2,17.1h39.1l1.7-47.3L238.4,141.8z M225.4,131.6c0.1,0.8,0.2,1.5,0.3,2.1c-0.2,0-0.4,0.1-0.6,0.1
			C225.2,132.9,225.3,132.2,225.4,131.6z"/>
		<path d="M178.9,139.6l6.9-14.2l-16-33.7l-11.5,4.4l-2.4,6.7l2.6,7.5h6l6.9,15.1l-9,9.9l-3.9-0.8c0.7-1.4,1.2-3.2,1.2-5.1
			c-0.1-4-2.6-11.5-2.7-11.8l-0.2-0.5c-0.5-0.9-3.5-5.5-7.7-4.9c-2.8,0.4-3.9,0.7-4.2,0.8c-0.6,0.2-5.8,2.3-6.8,6.8
			c-0.7,3.4-0.8,8.2-0.9,8.8l0,0.3l1.3,5.8l-3.6,0.7l-9.9-10.4l7.1-15.1h5.9l2.6-8.3l-2.5-5.8l-11.7-4.4l-16,33.6l3.2,8l5.6,8.7
			l0.1,0.1c0.6,0.8,6,7.5,11.7,9.1l2.5,51.8h32.3l-0.5-52.5l6.8-3.7L178.9,139.6z"/>
	</g>
</g>
<g id="Layer_2_2_">
	<g id="Layer_4">
		<g id="Layer_3">
			<path fill="none" stroke="#000000" stroke-width="20" stroke-miterlimit="10" stroke-opacity="0" d="M48.3,79
				c18.2,2.1,36.6,2.3,55,2.5c48.8,0.6,97.6,1.2,146.4,1.8c-69.2-1.4-138.7-2.7-207.6,4c71.9,6.2,144.1,7.4,216.1,3.7
				c-44,0.9-88,1.9-132,3c-27.1,0.7-54.3,1.5-80.8,7.1c64.2,0.2,128.4,0.5,192.6,0.7c-25.2,2.6-50.6,3.1-75.9,3.5
				c-40.8,0.7-81.7,1.4-122.5,2.2c67,4.8,134.1,6.8,201.3,6.2c-30.1-3.3-60.5-2.1-90.7-0.8c-39.3,1.6-78.5,3.2-117.8,4.8
				c69.6,7.1,141.3,0,209.8,5.4c-18.9,5-38.6,6.1-58.1,6.9c-47.5,2-95.1,2.7-142.6,2.2c27.3,11.3,57.8,11,87.3,10.6
				c34.3-0.5,68.7-0.9,103-1.4c-14.4,3.3-29.3,4.3-44.1,5.1c-48.9,2.5-97.9,1.6-146.9,0.7c66.8,12.2,135.4,1.7,203.2,3.7
				c-67.1,4-134.2,5-201.4,6c67.5,9.3,135.9,6.5,203.9,3.1c-73.8,12.9-149.5,4.6-224.4,5c39,7.4,78.7,12.5,118.4,10.4
				c17.3-0.9,34.6-3.2,51.9-4.9c19.7-1.9,39.5-3.1,59.4-3.6c-1.9,3.5-6.5,4.2-10.4,4.4c-60.3,4-120.8,2.1-181.2,4.6
				c-7.1,0.3-14.6,0.8-20.4,4.9c65.5,2.9,131.2,1.7,196.6-3.6c-19.3,2.1-38.7,1.5-58.1,1.4c-50.4-0.3-100.7,2.3-150.9,6.2
				c46.2,7,92.8,13.7,139.5,10.9c26.2-1.5,52.3-6,78.4-4.2c-59.5,2.6-119.1,3.8-178.7,3.6c-8,0-16.3,0-23.7,3.2
				c41.3,3.6,82.9,4.2,124.3,2c15-0.8,30.1-2,45.1-1.3c13.2,0.6,26.5,2.6,39.6,1.4"/>
		</g>
	</g>
</g>
</svg>
