<?xml version="1.0" encoding="utf-8"?>
<!-- Generator: Adobe Illustrator 19.2.1, SVG Export Plug-In . SVG Version: 6.00 Build 0)  -->
<svg version="1.0" id="Layer_1" xmlns="http://www.w3.org/2000/svg" xmlns:xlink="http://www.w3.org/1999/xlink" x="0px" y="0px"
	 width="288px" height="288px" viewBox="0 0 288 288" enable-background="new 0 0 288 288" xml:space="preserve">
<ellipse fill="none" stroke="#000000" stroke-width="2" stroke-miterlimit="10" cx="70.1" cy="58.5" rx="11.2" ry="17.3"/>
<polyline fill="none" stroke="#000000" stroke-width="2" stroke-miterlimit="10" points="73.2,75.1 73.7,83.1 64.8,83.1 65.8,74.5 
	"/>
<path fill="none" stroke="#000000" stroke-width="2" stroke-miterlimit="10" d="M82.7,83.1l-29.3,0c0,0-6.7,119.2-8.9,137.4
	c0,0,33.5,8.2,51.2-1.7L82.7,83.1z"/>
<polyline fill="none" stroke="#000000" stroke-width="2" stroke-miterlimit="10" points="53.4,83.1 31.3,137.8 49.8,145.2 "/>
<polyline fill="none" stroke="#000000" stroke-width="2" stroke-miterlimit="10" points="45.3,143.4 47.2,152.2 44.5,153.3 
	42.3,149.8 39.8,163 33.8,154.5 38.3,140.6 "/>
<polyline fill="none" stroke="#000000" stroke-width="2" stroke-miterlimit="10" points="82.7,83.1 128.7,83.1 128.7,109.7 
	83.5,91.1 "/>
<polyline fill="none" stroke="#000000" stroke-width="2" stroke-miterlimit="10" points="128.7,83.1 133.8,78.2 148.3,78.2 
	148.3,81.6 142.3,83.1 141.7,91.2 128.7,89.9 "/>
<polyline fill="none" stroke="#000000" stroke-width="2" stroke-miterlimit="10" points="64.8,223.4 63.5,234.1 60,234.1 59,222.9 
	"/>
<polyline fill="none" stroke="#000000" stroke-width="2" stroke-miterlimit="10" points="77.8,223.4 76.8,234.1 73.3,234.1 
	72.4,223.6 "/>
<polyline fill="none" stroke="#000000" stroke-width="2" stroke-miterlimit="10" points="63.5,234.1 54.1,246.1 42.3,241.7 
	60,234.1 "/>
<polyline fill="none" stroke="#000000" stroke-width="2" stroke-miterlimit="10" points="76.8,234.1 94.8,240.8 82.5,246.1 
	73.3,234.1 "/>
<ellipse transform="matrix(0.1776 -0.9841 0.9841 0.1776 99.1112 235.674)" fill="none" stroke="#000000" stroke-width="2" stroke-miterlimit="10" cx="190.6" cy="58.5" rx="17.3" ry="11.2"/>
<polyline fill="none" stroke="#000000" stroke-width="2" stroke-miterlimit="10" points="190.7,75.5 189.8,83.4 181,81.8 
	183.5,73.5 "/>
<path fill="none" stroke="#000000" stroke-width="2" stroke-miterlimit="10" d="M171.2,99.2l-4,19.6l26.5,18.1l-16.9,20.5L159,128.7
	l-5.7-9.2l15-39.2c0,0,21.5,1.8,32.2,7c0,0-11.5,36.9-14.1,45.3"/>
<polyline fill="none" stroke="#000000" stroke-width="2" stroke-miterlimit="10" points="190.7,141.4 193.5,144.1 200.5,143.8 
	208,156.8 201.6,161 193.4,154.1 186.8,153.9 183.6,149.3 "/>
<path fill="none" stroke="#000000" stroke-width="2" stroke-miterlimit="10" d="M192.9,143.6c0.4-0.3,5.1-4.2,7.6-4.2
	s12.7,3.9,6.2,15.2"/>
<path fill="none" stroke="#000000" stroke-width="2" stroke-miterlimit="10" d="M188,153.9c0,0-2.2,6.2,0,9.6c2.2,3.4,6.1,3.2,7.2,3
	s6.4-5.5,6.4-5.5"/>
<polyline fill="none" stroke="#000000" stroke-width="2" stroke-miterlimit="10" points="200.5,87.2 236.2,67.2 236.2,99.8 
	196.9,98.8 "/>
<path fill="none" stroke="#000000" stroke-width="2" stroke-miterlimit="10" d="M244.9,68c0,0-4.9,5.1-8.6,9.1"/>
<line fill="none" stroke="#000000" stroke-width="2" stroke-miterlimit="10" x1="238.7" y1="66" x2="236.2" y2="67.2"/>
<polygon fill="none" stroke="#000000" stroke-width="2" stroke-miterlimit="10" points="240.8,53.9 255.4,56.2 251,69.3 238.7,66 
	"/>
<path fill="none" stroke="#000000" stroke-width="2" stroke-miterlimit="10" d="M191.4,166.1c4.2,24,9.1,52.9,9.1,52.9
	s-36.2,4.5-57.2-6c0,0,14.2-63.5,18-80.9"/>
<polyline fill="none" stroke="#000000" stroke-width="2" stroke-miterlimit="10" points="164.4,218.9 162.4,230.6 158.9,230.6 
	157.8,217.8 "/>
<polyline fill="none" stroke="#000000" stroke-width="2" stroke-miterlimit="10" points="185.7,219.8 184.7,230.6 181.2,230.6 
	180.3,220 "/>
<polyline fill="none" stroke="#000000" stroke-width="2" stroke-miterlimit="10" points="162.4,230.6 180.4,237.3 168.1,242.6 
	158.9,230.6 "/>
<polyline fill="none" stroke="#000000" stroke-width="2" stroke-miterlimit="10" points="184.7,230.6 202.7,237.3 190.3,242.6 
	181.2,230.6 "/>
</svg>
