<?xml version="1.0" encoding="utf-8"?>
<!-- Generator: Adobe Illustrator 19.2.1, SVG Export Plug-In . SVG Version: 6.00 Build 0)  -->
<svg version="1.0" xmlns="http://www.w3.org/2000/svg" xmlns:xlink="http://www.w3.org/1999/xlink" x="0px" y="0px" width="288px"
	 height="288px" viewBox="0 0 288 288" enable-background="new 0 0 288 288" xml:space="preserve">
<g id="Layer_2">
	<polyline fill="#27AAE1" points="130.1,124.8 129.6,143.3 146.8,134.2 144.9,128.9 129.3,124.6 	"/>
</g>
<g id="Layer_1">
	<path fill="none" stroke="#000000" stroke-width="2" stroke-miterlimit="10" d="M144.9,98.8L144.9,98.8c-4-0.7-6.6-4.6-5.9-8.6
		l1.3-7.2c0.7-4,4.6-6.6,8.6-5.9l0,0c4,0.7,6.6,4.6,5.9,8.6l-1.3,7.2C152.7,96.9,148.8,99.5,144.9,98.8z"/>
	<path fill="none" stroke="#000000" stroke-width="2" stroke-miterlimit="10" d="M138.4,91c0,0,5.4,0.1,7.5,0
		c2.1-0.1,2.8,1.1,4.1,2.5s2.4,1.2,2.4,1.2"/>
	<path fill="none" stroke="#000000" stroke-width="2" stroke-miterlimit="10" d="M141.2,96.8l-9.2-2.6c0,0,0,0,3.2-11.2
		s14.3-10.2,14.3-10.2s9.4,1.8,9.2,13.8s-0.2,12.1-0.2,12.1l-7.5-1.3"/>
	
		<ellipse transform="matrix(0.1268 -0.9919 0.9919 0.1268 53.2325 213.5693)" fill="none" stroke="#000000" stroke-width="2" stroke-miterlimit="10" cx="147.9" cy="76.6" rx="6.7" ry="13.2"/>
	<path fill="none" stroke="#000000" stroke-width="2" stroke-miterlimit="10" d="M131.9,93.8H98.2L96.4,91l-4-3.4l-1.2,3.1l1.6,2.1
		l-8.6,0.2v6.2l10.4,0.2l3.1-1.3l32.5,3.6l-2.6,22.2l17.9,4.9l6.8-27.1l32.5-3.6l3.1,1.3l10.4-0.2v-6.2l-8.6-0.2l1.6-2.1l-1.2-3.1
		l-4,3.4l-1.9,2.8c0,0-15.1,0-25.1,0"/>
	<polyline fill="none" stroke="#000000" stroke-width="2" stroke-miterlimit="10" points="127.5,124.1 127.5,144.4 146.8,134.2 
		145.4,129 	"/>
	<line fill="none" stroke="#000000" stroke-width="2" stroke-miterlimit="10" x1="129.3" y1="143.4" x2="140.6" y2="180.1"/>
	<polyline fill="none" stroke="#000000" stroke-width="2" stroke-miterlimit="10" points="138.6,138.5 140.6,181.1 143.2,181.1 
		145.5,134.9 	"/>
	<polyline fill="none" stroke="#000000" stroke-width="2" stroke-miterlimit="10" points="140.6,181.1 140.6,196 149.2,194 
		143.2,181.1 	"/>
	<polyline fill="none" stroke="#000000" stroke-width="2" stroke-miterlimit="10" points="140,178.2 136.5,190.1 140,191.9 	"/>
	<line fill="none" stroke="#000000" stroke-width="2" stroke-miterlimit="10" x1="87.9" y1="95.7" x2="89.5" y2="95.7"/>
	<line fill="none" stroke="#000000" stroke-width="2" stroke-miterlimit="10" x1="194.5" y1="95.7" x2="192.9" y2="95.7"/>
	<path fill="none" stroke="#000000" stroke-width="2" stroke-miterlimit="10" d="M137.5,77.9c0-14.6,0-24.9,0-24.9h11.8
		c0,0,0,7.7,0,19.7"/>
	<path fill="none" stroke="#000000" stroke-width="2" stroke-miterlimit="10" d="M87.3,93c0-3.8,0-7.2,0-7.2s22,0,46.5,0"/>
	<path fill="none" stroke="#000000" stroke-width="2" stroke-miterlimit="10" d="M159.3,85.8c20.3,0,37,0,37,0s0,3.6,0,7.5"/>
	<path fill="none" stroke="#000000" stroke-width="2" stroke-miterlimit="10" d="M196.2,99.5c0,2.2,0,3.8,0,3.8s-20.7,0-44.1,0"/>
	<path fill="none" stroke="#000000" stroke-width="2" stroke-miterlimit="10" d="M129.6,103.3c-22.6,0-42.3,0-42.3,0s0-1.7,0-4"/>
	<path fill="none" stroke="#000000" stroke-width="2" stroke-miterlimit="10" d="M149.2,113.8c0,45.1,0,99.5,0,99.5h-11.8
		c0,0,0-8.7,0-22"/>
	<path fill="none" stroke="#000000" stroke-width="2" stroke-miterlimit="10" d="M137.5,187.2c0-5.2,0-10.9,0-17.3"/>
	<polyline fill="none" stroke="#000000" stroke-width="2" stroke-miterlimit="10" points="137.5,201.5 126.7,199.7 118,204.2 
		107.7,205 102.5,209 90.7,210.2 80.2,213.2 77.3,222.2 65.2,224.5 58.2,235 	"/>
	<path fill="none" stroke="#000000" stroke-width="2" stroke-miterlimit="10" d="M149.2,201.5l12.6-1.8l7,4l6.3,6.3
		c0,0,8-2.8,8.5-2.8s14.8,2.8,14.8,2.8l4.2,7.3l6.5,2.5l6.8-3.2l15.2,15.5"/>
	<path fill="none" stroke="#000000" stroke-width="2" stroke-miterlimit="10" d="M56,193.7l21.8-5.1c0,0,7.8,3.7,8.3,3.3
		s14.5,0.4,15.7,0c1.2-0.4,6.6,2.8,6.6,2.8l8.7,2.5l4.5,5.1"/>
	<line fill="none" stroke="#000000" stroke-width="6" stroke-miterlimit="10" x1="86.2" y1="191.9" x2="86.2" y2="118.8"/>
	<line fill="none" stroke="#000000" stroke-width="6" stroke-miterlimit="10" x1="66.4" y1="134.9" x2="106.1" y2="134.9"/>
	
		<ellipse transform="matrix(0.1753 -0.9845 0.9845 0.1753 -59.8449 194.5576)" fill="none" stroke="#000000" stroke-width="7" stroke-miterlimit="10" cx="86.2" cy="133" rx="4" ry="2.8"/>
	<path fill="none" stroke="#000000" stroke-width="7" stroke-miterlimit="10" d="M83.3,135.3c-0.2,0-13.4-0.4-13.4-0.4l-1.6-0.7"/>
	<path fill="none" stroke="#000000" stroke-width="7" stroke-miterlimit="10" d="M88.3,135.3c0.2,0,13.4-0.4,13.4-0.4l1.6-0.7"/>
	<polyline fill="none" stroke="#000000" stroke-width="7" stroke-miterlimit="10" points="84.1,136 83.3,146.7 85.8,152.1 
		84.1,169.1 86.2,170.5 	"/>
	<path fill="none" stroke="#000000" stroke-width="2" stroke-miterlimit="10" d="M231.7,193.7l-21.8-5.1c0,0-7.8,3.7-8.3,3.3
		s-14.5,0.4-15.7,0c-1.2-0.4-6.6,2.8-6.6,2.8l-8.7,2.5l-4.5,5.1"/>
	<line fill="none" stroke="#000000" stroke-width="6" stroke-miterlimit="10" x1="201.5" y1="191.9" x2="201.5" y2="118.8"/>
	<line fill="none" stroke="#000000" stroke-width="6" stroke-miterlimit="10" x1="221.3" y1="134.9" x2="181.6" y2="134.9"/>
	
		<ellipse transform="matrix(0.9845 -0.1753 0.1753 0.9845 -20.1952 37.3837)" fill="none" stroke="#000000" stroke-width="7" stroke-miterlimit="10" cx="201.5" cy="133" rx="2.8" ry="4"/>
	<path fill="none" stroke="#000000" stroke-width="7" stroke-miterlimit="10" d="M204.4,135.3c0.2,0,13.4-0.4,13.4-0.4l1.6-0.7"/>
	<path fill="none" stroke="#000000" stroke-width="7" stroke-miterlimit="10" d="M199.4,135.3c-0.2,0-13.4-0.4-13.4-0.4l-1.6-0.7"/>
	<polyline fill="none" stroke="#000000" stroke-width="7" stroke-miterlimit="10" points="203.6,136 204.4,146.7 202,152.1 
		203.6,169.1 201.5,170.5 	"/>
</g>
<g id="Layer_3">
	<path opacity="0" fill="none" stroke="#27AAE1" stroke-width="12" stroke-miterlimit="10" d="M127.6,126.3
		c6.6-0.5,13.5-0.9,19.7,1.5c-8.1,0.5-16.1,1.1-24.2,1.6c8.8,0,17.7,0.1,26.5,0.1c-9.1,0.7-18.1,1.7-27.1,3.1c9.6,0,19.2,0,28.9,0
		c-9.4,1.4-18.9,2.7-28.3,4.1c8.2-0.2,16.5-0.4,24.7-0.7c-3,2.2-6.7,2.9-10.4,3.4c-5.3,0.7-10.7,1.1-16.1,1.5
		c10.4,0.2,20.8,0.2,31.2,0.1c1.4,0,3-0.1,4.1-1"/>
</g>
</svg>
