<?xml version="1.0" encoding="utf-8"?>
<!-- Generator: Adobe Illustrator 19.2.1, SVG Export Plug-In . SVG Version: 6.00 Build 0)  -->
<svg version="1.0" xmlns="http://www.w3.org/2000/svg" xmlns:xlink="http://www.w3.org/1999/xlink" x="0px" y="0px" width="288px"
	 height="288px" viewBox="0 0 288 288" enable-background="new 0 0 288 288" xml:space="preserve">
<g id="Layer_2">
	<path d="M137.2,53.3v24.9l-2.5,5.7c0,0-2.6,2.1-3.1,2.1c-0.5,0-44.6,0-44.6,0v7.2l-3.2,0.1v6.2l3.2,0v4h42.3l-3,22.8l0.9,17.4h1.8
		l7.8,27.1l0.3,42.7H149v-84.2c0,0,0.7-15.8,0-16.5c-0.7-0.7,1.4-9.3,2.6-9.3c1.2,0,43.5,0,43.5,0h0.8v-3.8c0,0,2,0.5,2-0.2
		c0-0.7,0-6.2,0-6.2l-2.3-0.1l0.3-7.3h-37.5l-1.7-7.1c0,0-1.1-2.3-1.6-2.8s-5.7-2.5-6.2-3.1c-0.5-0.6,0-19.8,0-19.8H137.2z"/>
</g>
<g id="Layer_1">
	<path fill="none" stroke="#000000" stroke-width="2" stroke-miterlimit="10" d="M144.6,99L144.6,99c-4-0.7-6.6-4.6-5.9-8.6l1.3-7.2
		c0.7-4,4.6-6.6,8.6-5.9l0,0c4,0.7,6.6,4.6,5.9,8.6l-1.3,7.2C152.4,97.1,148.6,99.8,144.6,99z"/>
	<path fill="none" stroke="#000000" stroke-width="2" stroke-miterlimit="10" d="M138.2,91.3c0,0,5.4,0.1,7.5,0
		c2.1-0.1,2.8,1.1,4.1,2.5s2.4,1.2,2.4,1.2"/>
	<path fill="none" stroke="#000000" stroke-width="2" stroke-miterlimit="10" d="M140.9,97.1l-9.2-2.6c0,0,0,0,3.2-11.2
		s14.3-10.2,14.3-10.2s9.4,1.8,9.2,13.8S158.3,99,158.3,99l-7.5-1.3"/>
	
		<ellipse transform="matrix(0.1268 -0.9919 0.9919 0.1268 52.727 213.5635)" fill="none" stroke="#000000" stroke-width="2" stroke-miterlimit="10" cx="147.7" cy="76.8" rx="6.7" ry="13.2"/>
	<path fill="none" stroke="#000000" stroke-width="2" stroke-miterlimit="10" d="M131.7,94.1H98l-1.9-2.8l-4-3.4L90.9,91l1.6,2.1
		l-8.6,0.2v6.2l10.4,0.2l3.1-1.3l32.5,3.6l-2.6,22.2l17.9,4.9l6.8-27.1l32.5-3.6l3.1,1.3l10.4-0.2v-6.2l-8.6-0.2L191,91l-1.2-3.1
		l-4,3.4l-1.9,2.8c0,0-15.1,0-25.1,0"/>
	<polyline fill="none" stroke="#000000" stroke-width="2" stroke-miterlimit="10" points="127.2,124.4 127.2,144.7 146.5,134.5 
		145.2,129.3 	"/>
	<line fill="none" stroke="#000000" stroke-width="2" stroke-miterlimit="10" x1="129.1" y1="143.7" x2="140.4" y2="180.4"/>
	<polyline fill="none" stroke="#000000" stroke-width="2" stroke-miterlimit="10" points="138.3,138.8 140.4,181.4 143,181.4 
		145.2,135.2 	"/>
	<polyline fill="none" stroke="#000000" stroke-width="2" stroke-miterlimit="10" points="140.4,181.4 140.4,196.3 149,194.3 
		143,181.4 	"/>
	<polyline fill="none" stroke="#000000" stroke-width="2" stroke-miterlimit="10" points="139.8,178.5 136.2,190.4 139.8,192.2 	"/>
	<path fill="none" stroke="#000000" stroke-width="2" stroke-miterlimit="10" d="M87,93.3c0-3.8,0-7.2,0-7.2s22,0,46.5,0"/>
	<path fill="none" stroke="#000000" stroke-width="2" stroke-miterlimit="10" d="M159,86.1c20.3,0,37,0,37,0s0,3.6,0,7.5"/>
	<path fill="none" stroke="#000000" stroke-width="2" stroke-miterlimit="10" d="M137.2,78.2c0-14.6,0-24.9,0-24.9H149
		c0,0,0,7.7,0,19.7"/>
	<path fill="none" stroke="#000000" stroke-width="2" stroke-miterlimit="10" d="M149,114c0,45.1,0,99.5,0,99.5h-11.8
		c0,0,0-8.7,0-22"/>
	<path fill="none" stroke="#000000" stroke-width="2" stroke-miterlimit="10" d="M137.2,187.5c0-5.2,0-10.9,0-17.3"/>
	<path fill="none" stroke="#000000" stroke-width="2" stroke-miterlimit="10" d="M196,99.8c0,2.2,0,3.8,0,3.8s-20.7,0-44.1,0"/>
	<path fill="none" stroke="#000000" stroke-width="2" stroke-miterlimit="10" d="M129.4,103.6c-22.6,0-42.3,0-42.3,0s0-1.7,0-4"/>
	<line fill="none" stroke="#000000" stroke-width="2" stroke-miterlimit="10" x1="87.6" y1="96" x2="89.2" y2="96"/>
	<line fill="none" stroke="#000000" stroke-width="2" stroke-miterlimit="10" x1="194.2" y1="96" x2="192.6" y2="96"/>
	<polyline fill="none" stroke="#000000" stroke-width="2" stroke-miterlimit="10" points="137.2,201.8 126.4,200 117.7,204.5 
		107.4,205.3 102.2,209.3 90.4,210.5 79.9,213.5 77.1,222.5 64.9,224.8 57.9,235.3 	"/>
	<path fill="none" stroke="#000000" stroke-width="2" stroke-miterlimit="10" d="M149,201.8l12.6-1.8l7,4l6.3,6.3c0,0,8-2.8,8.5-2.8
		s14.8,2.8,14.8,2.8l4.2,7.3l6.5,2.5l6.8-3.2l15.2,15.5"/>
	<path fill="none" stroke="#000000" stroke-width="2" stroke-miterlimit="10" d="M55.7,194l21.8-5.1c0,0,7.8,3.7,8.3,3.3
		s14.5,0.4,15.7,0c1.2-0.4,6.6,2.8,6.6,2.8l8.7,2.5l4.5,5.1"/>
	<line fill="none" stroke="#000000" stroke-width="6" stroke-miterlimit="10" x1="86" y1="192.2" x2="86" y2="119.1"/>
	<line fill="none" stroke="#000000" stroke-width="6" stroke-miterlimit="10" x1="66.2" y1="135.2" x2="105.8" y2="135.2"/>
	
		<ellipse transform="matrix(0.1753 -0.9845 0.9845 0.1753 -60.3358 194.5399)" fill="none" stroke="#000000" stroke-width="7" stroke-miterlimit="10" cx="86" cy="133.3" rx="4" ry="2.8"/>
	<path fill="none" stroke="#000000" stroke-width="7" stroke-miterlimit="10" d="M83.1,135.6c-0.2,0-13.4-0.4-13.4-0.4l-1.6-0.7"/>
	<path fill="none" stroke="#000000" stroke-width="7" stroke-miterlimit="10" d="M88.1,135.6c0.2,0,13.4-0.4,13.4-0.4l1.6-0.7"/>
	<polyline fill="none" stroke="#000000" stroke-width="7" stroke-miterlimit="10" points="83.9,136.3 83.1,147 85.5,152.4 
		83.9,169.4 86,170.8 	"/>
	<path fill="none" stroke="#000000" stroke-width="2" stroke-miterlimit="10" d="M231.5,194l-21.8-5.1c0,0-7.8,3.7-8.3,3.3
		s-14.5,0.4-15.7,0c-1.2-0.4-6.6,2.8-6.6,2.8l-8.7,2.5l-4.5,5.1"/>
	<line fill="none" stroke="#000000" stroke-width="6" stroke-miterlimit="10" x1="201.2" y1="192.2" x2="201.2" y2="119.1"/>
	<line fill="none" stroke="#000000" stroke-width="6" stroke-miterlimit="10" x1="221" y1="135.2" x2="181.4" y2="135.2"/>
	
		<ellipse transform="matrix(0.9845 -0.1753 0.1753 0.9845 -20.2489 37.3432)" fill="none" stroke="#000000" stroke-width="7" stroke-miterlimit="10" cx="201.2" cy="133.3" rx="2.8" ry="4"/>
	<path fill="none" stroke="#000000" stroke-width="7" stroke-miterlimit="10" d="M204.1,135.6c0.2,0,13.4-0.4,13.4-0.4l1.6-0.7"/>
	<path fill="none" stroke="#000000" stroke-width="7" stroke-miterlimit="10" d="M199.1,135.6c-0.2,0-13.4-0.4-13.4-0.4l-1.6-0.7"/>
	<polyline fill="none" stroke="#000000" stroke-width="7" stroke-miterlimit="10" points="203.3,136.3 204.1,147 201.7,152.4 
		203.3,169.4 201.2,170.8 	"/>
</g>
<g id="Layer_3">
	<path opacity="0" fill="none" stroke="#90D4D7" stroke-width="32" stroke-miterlimit="10" d="M134,53.5c7.1-0.3,14.2-0.1,21.2,0.6
		c-10.4,1.9-20.8,3.5-31.3,4.8c11.1,0.6,22.2,1.2,33.3,1.8c-9,3-18.5,4.7-28,5.1c9.8,0.1,19.5,0.8,29.2,2.1
		c-13.1,1.4-26.3,2.8-39.4,4.1c15.9,3.6,32,6.1,48.3,7.4c-23.5-1.1-47-0.7-70.5,1.4c-6.1,0.5-12.3,1.2-17.8,3.9
		c39.4,7.6,80,5.5,120.1,3.5c-6.8,3.6-14.7,4.2-22.3,4.7c-32.7,2.2-65.5,3.2-98.2,3c41.1,3.4,82.4,4.7,123.6,3.7
		c-33,3.1-66.3,3.3-99.4,3.5c-8,0-16,0.1-24.1,0.1c19.5,2.2,39.1,2.9,58.6,2.2c12.1-0.4,24.3-1.4,36.2,0.5
		c-20.5,3.6-41.4,5.4-62.2,5.4c23.7,1.2,47.3,2.4,71,3.6c-22.1,2-44.2,4.1-66.4,6.1c15.6,1.3,31.3,2.6,46.9,3.9
		c-16.4,1.2-32.7,2.4-49.1,3.6c19.6,0.6,39.2,2.4,58.7,5.3c-18.5,9.4-39.9,10.4-60.6,11.3c13.6,0.7,27,3.7,39.6,8.8
		c-13.4,1.6-26.7,4.4-39.7,8.2c16.3,0.1,32.6,1.1,48.7,3.1c-12.2,2.5-24.3,5-36.5,7.5c-1.8,0.4-3.7,0.8-4.7,2.3
		c15.1,1,30.1,3.5,44.6,7.5c-15.3,3.9-30.5,7.8-45.8,11.6c3.1,1.8,6.6,2.7,10.1,3.6c11.3,2.8,22.6,5.7,33.9,8.5
		c-13.9-0.1-27.9-0.3-41.6,2c10.4,4.8,21.4,8.3,32.6,10.7c2.3,0.5,5.7-0.1,5.4-2.4"/>
</g>
</svg>
