<?xml version="1.0" encoding="utf-8"?>
<!-- Generator: Adobe Illustrator 19.2.1, SVG Export Plug-In . SVG Version: 6.00 Build 0)  -->
<svg version="1.0" xmlns="http://www.w3.org/2000/svg" xmlns:xlink="http://www.w3.org/1999/xlink" x="0px" y="0px" width="288px"
	 height="288px" viewBox="0 0 288 288" enable-background="new 0 0 288 288" xml:space="preserve">
<g id="Layer_2">
	<path fill="#27AAE1" d="M91.2,41.1c0,0-18.5,14.4-5.2,36c0,0-12.3-3.2-9.6-19.6C79,41.2,90.5,41.1,90.5,41.1"/>
	<path fill="#27AAE1" d="M74,79.6l-6.5,52.6c0,0,14.8,5,14.6,5.4c-0.3,0.5-20.7-2-20.7-2L70,79.4L74,79.6z"/>
	<path fill="#27AAE1" d="M68,88.5l-21.2,11.9c0,0,1.7,24.6,4.8,34.9h1.8l-1-33.8c0,0,15.6-7.7,15.4-8.4C67.7,92.5,68,88.5,68,88.5z"
		/>
	<path fill="#27AAE1" d="M70,136.8c0,0,26.3,47.6,40.8,86.5l17.2,7.6l-0.8,1.6l-7.6,0.4l-2.7,0.2l-2.1,2.2l-4.3-0.9l-1.5-11.1
		l-12.2-25.1l-19.1-34.4c0,0-2.1,20-8.7,28.3c-6.5,8.4-10.6,18.7-20.4,27.1l18.5,12.7L57,237.5c0,0-19.5-7.6-19.3-8.2
		s4.1-10.6,4.1-10.6l3,0.5c0,0,27.3-25.1,20.2-67.9l0.5-8.5l-4.2-7.2L70,136.8z"/>
</g>
<g id="Layer_1">
	
		<ellipse transform="matrix(0.192 -0.9814 0.9814 0.192 14.2423 135.5841)" fill="none" stroke="#000000" stroke-width="2" stroke-miterlimit="10" cx="89.5" cy="59.1" rx="18.3" ry="12.5"/>
	<path fill="none" stroke="#000000" stroke-width="2" stroke-miterlimit="10" d="M80.6,42.9c0,0,13.7,3.8,18.7,1.1"/>
	<path fill="none" stroke="#000000" stroke-width="2" stroke-miterlimit="10" d="M78.5,45.1c0,0,14.7,4.5,24,1.8"/>
	<path fill="none" stroke="#000000" stroke-width="2" stroke-miterlimit="10" d="M103.2,49.6c0,0-15.4,3.7-25.5-0.8"/>
	<polyline fill="none" stroke="#000000" stroke-width="2" stroke-miterlimit="10" points="83.1,76 82.1,80.6 88,81.8 90.5,76.8 	"/>
	<path fill="none" stroke="#000000" stroke-width="2" stroke-miterlimit="10" d="M70,79.4c0,0,17.3,0.2,27.3,6.1
		c0,0-11.3,46.5-15.6,53l-20.2-2.9L70,79.4z"/>
	<path fill="none" stroke="#000000" stroke-width="2" stroke-miterlimit="10" d="M70,79.4l-28.2,17c0,0,1.4,21.3,8.4,39h3.3
		c0,0-1.2-26-0.4-33.8"/>
	<line fill="none" stroke="#000000" stroke-width="2" stroke-miterlimit="10" x1="68" y1="92.4" x2="43.1" y2="107.2"/>
	<polygon fill="none" stroke="#000000" stroke-width="2" stroke-miterlimit="10" points="53.4,135.3 57,141.7 55.2,143.2 
		53.4,143.2 54.6,153.5 48,149.4 50.2,135.3 	"/>
	<path fill="none" stroke="#000000" stroke-width="2" stroke-miterlimit="10" d="M96.1,90.2c0,0,0.8,26.8,18.3,35.9l-2.3,3.6
		c0,0-11.2-1.3-20.9-20.8"/>
	<polygon fill="none" stroke="#000000" stroke-width="2" stroke-miterlimit="10" points="114.4,126.1 122.3,126.1 133.6,132.6 
		125,135.3 119.3,132 120.8,135.3 116.7,135.3 112.1,129.7 	"/>
	<path fill="none" stroke="#000000" stroke-width="2" stroke-miterlimit="10" d="M61.4,135.6c0,0,43.8,74.3,47.9,88.4l3.9-1
		c0,0-10.6-51.3-31.5-84.5"/>
	<path fill="none" stroke="#000000" stroke-width="2" stroke-miterlimit="10" d="M64.9,141.7c0,0,4,44.4-21.8,77.2l4.9,0.9
		c0,0,27.2-24.3,29.7-56"/>
	<polygon fill="none" stroke="#000000" stroke-width="2" stroke-miterlimit="10" points="41.9,219.2 38.8,227.6 57.7,234.3 
		67.1,228.9 48,219.8 	"/>
	<path fill="none" stroke="#000000" stroke-width="2" stroke-miterlimit="10" d="M129.8,228.7c-6.5-2.2-15.9-5.4-15.9-5.4l-4.7,0.7
		l1.2,10.4c0,0,1.8,0.4,4.3,0.9"/>
	<polyline fill="none" stroke="#000000" stroke-width="2" stroke-miterlimit="10" points="48,203.6 34.1,199.4 32.5,208.6 
		22.7,210.4 25.1,218.5 10.3,219.8 6.7,231.9 	"/>
	<path fill="none" stroke="#000000" stroke-width="2" stroke-miterlimit="10" d="M161.2,238.5l-6.2-5.8l-7.9,1.6
		c0,0-2.3-12.5-2.9-12.7c-0.6-0.2-8.2-2.4-8.2-2.4l-8.9,13.3l-10.3,0.6l-7.6,8.6l-14.2-5.1l-10.3,6.1"/>
	<path fill="none" stroke="#000000" stroke-width="2" stroke-miterlimit="10" d="M275.1,151.1c-0.9,0-37.2-46.3-37.2-46.3l-30.6-1.8
		c0,0,2.4,7.5,3.3,7.4c0.9-0.1,24.8,4.7,24.8,4.7"/>
	<path fill="none" stroke="#000000" stroke-width="2" stroke-miterlimit="10" d="M209.5,108.9l-4.4,4.5c0,0,6.4,27.1,9.4,26.2
		s27.9-7.3,27.9-7.3l-7-17.3c0,0-0.5-0.1-1.4-0.3"/>
	<path fill="none" stroke="#000000" stroke-width="2" stroke-miterlimit="10" d="M234.8,134.3c0.9-0.2,16.9,34.1,16.9,34.1"/>
	<line fill="none" stroke="#000000" stroke-width="2" stroke-miterlimit="10" x1="236.4" y1="118.8" x2="218.1" y2="119.4"/>
	<line fill="none" stroke="#000000" stroke-width="2" stroke-miterlimit="10" x1="238.7" y1="123.2" x2="217.2" y2="127"/>
	<path fill="none" stroke="#000000" stroke-width="2" stroke-miterlimit="10" d="M240.2,127c-0.4,0.4-18.3,5.2-18.3,5.2"/>
	<path fill="none" stroke="#000000" stroke-width="2" stroke-miterlimit="10" d="M213.2,84.7c0,0,1.1,7.7,2.6,18.1"/>
	<path fill="none" stroke="#000000" stroke-width="2" stroke-miterlimit="10" d="M220.7,137.6c1.7,12.2,3.1,21.7,3.1,21.7l14.1-8
		c0,0-1.5-7.2-3.5-17"/>
	<path fill="none" stroke="#000000" stroke-width="2" stroke-miterlimit="10" d="M228.1,103.9c-2.4-11.9-4.4-21.3-4.4-21.3"/>
	<path fill="none" stroke="#000000" stroke-width="2" stroke-miterlimit="10" d="M190.3,59.1c0.3,0.2,7,28.7,7,28.7l45.1-9
		l-5.1-31.6L190.3,59.1z"/>
	<polygon fill="none" stroke="#000000" stroke-width="2" stroke-miterlimit="10" points="145.8,92.4 153.1,117.5 179.7,110.4 
		176.1,80.3 	"/>
	<path fill="none" stroke="#000000" stroke-width="2" stroke-miterlimit="10" d="M174.9,111.6c0,0,6.6,58.2,22.3,71"/>
	<path fill="none" stroke="#000000" stroke-width="2" stroke-miterlimit="10" d="M158.1,116.1c0,0-8.7,45.3,18.5,77.1"/>
	<path fill="none" stroke="#000000" stroke-width="2" stroke-miterlimit="10" d="M176.4,82.8c8-3.6,13.9-6.3,13.9-6.3l1.6,11.4
		c0,0-6.2,1.9-14.4,4.4"/>
	<path fill="none" stroke="#000000" stroke-width="2" stroke-miterlimit="10" d="M148.2,101.3c-6.7,2.1-11.5,3.6-11.5,3.6l-3.1-2.7
		c0,0,5.8-2.6,13.6-6.2"/>
	<path fill="none" stroke="#000000" stroke-width="2" stroke-miterlimit="10" d="M126.9,109.9l-4,0.9c0,0,0.2,3.9,0.8,3.9
		c0.6,0,4.2,0,4.2,0L126.9,109.9z"/>
	<polygon fill="none" stroke="#000000" stroke-width="2" stroke-miterlimit="10" points="121.4,146.8 118.2,149.7 121.4,154.7 
		127.2,151.3 	"/>
	<polygon fill="none" stroke="#000000" stroke-width="2" stroke-miterlimit="10" points="140.9,137.2 137.2,139.6 139,144.4 
		143.5,144.4 	"/>
	<polygon fill="none" stroke="#000000" stroke-width="2" stroke-miterlimit="10" points="142.2,120.7 138.4,121.7 139,127 
		145.8,128.4 145.8,121.9 	"/>
	<polygon fill="none" stroke="#000000" stroke-width="2" stroke-miterlimit="10" points="86.1,201.6 83.1,204.3 84.6,208.2 
		89.2,208.2 	"/>
	<path fill="none" stroke="#000000" stroke-width="2" stroke-miterlimit="10" d="M114.4,182.6l-2.3,1.5c0,0-0.7,1.8,0,2.5
		s3.7,1.4,3.7,1.4L114.4,182.6z"/>
</g>
<g id="Layer_3">
	<path opacity="0" fill="none" stroke="#27AAE1" stroke-width="25" stroke-miterlimit="10" d="M74.7,40.4c7.7-0.1,15.3-0.2,23-0.3
		c-6,6.4-17.5,2.8-24.8,7.8c5.8,0.5,11.6,1.1,17.4,1.6c-8.5,2.7-16.9,5.3-25.4,8c7,2.4,14.7,2.3,22.1,2.1C81,63,74.2,65,67.3,65.2
		c6,2,12.3,2.5,18.6,3.1c-7,1-13.8,2.7-20.4,5c7.3,0.9,14.7,1.7,22,2.6c-0.9,2.8-4.2,4.1-7.1,4.5c-5.7,0.9-11.5,0.2-17.2,0.6
		c-5.7,0.4-11.7,2-15.5,6.4c11.1-0.5,22.3-0.2,33.4,0.8c-6.1,4.4-14.3,4-21.7,5.2c-7,1.2-13.7,4-19.4,8.2c12.6-0.9,25.3-1.3,38-1.3
		c-5.8,3.6-12.4,5.9-19.2,6.7c-5.2,0.6-11,0.5-14.8,4.2c10.7,1.1,21.5,1.9,32.3,2.4c-7,1-13.9,2.1-20.9,3.1
		c-4.6,0.7-9.7,1.7-12.4,5.5c10.9,0.8,21.8,1.6,32.7,2.4c-9.7,3.3-19.5,6.5-29.2,9.8c12,1,24.1,1.9,36.1,2.9c-9.7,2.5-19.4,5-29,7.5
		c10.8,2,21.6,3.9,32.5,5.9c-10.1,2.5-20.2,5-30.3,7.5c12.3,1.3,24.5,2.6,36.8,3.8c-13.1,2.6-26.1,5.2-39.2,7.8
		c14.5,4.1,29.8,4.2,44.9,4.2c-16.9,7.7-37.5,3.9-54.3,11.9c21.8-0.3,43.8-0.6,65.4,3.1c-23.5,2.6-47,5.1-70.5,7.7
		c23,9.4,48.9,7.3,73.6,5C82.8,213,49,206.4,18.3,215c38.3,3.9,76.9-3.4,115.3-1.8c-28.5,3.5-56.6,13.4-85.3,11.5
		c-2.6-0.2-5.3-0.4-7.6,0.7c-2.3,1.1-4,4.1-2.7,6.3c37.4,4.8,75.5-4.8,112.9-0.4"/>
</g>
</svg>
