<?xml version="1.0" encoding="utf-8"?>
<!-- Generator: Adobe Illustrator 19.2.1, SVG Export Plug-In . SVG Version: 6.00 Build 0)  -->
<svg version="1.0" xmlns="http://www.w3.org/2000/svg" xmlns:xlink="http://www.w3.org/1999/xlink" x="0px" y="0px" width="288px"
	 height="288px" viewBox="0 0 288 288" enable-background="new 0 0 288 288" xml:space="preserve">
<g id="Layer_2">
	<path fill="#27AAE1" d="M154.5,39.2c0,0-18,19.7-6.5,38.6c0,0-11.3-8.1-7.5-21.4S151.8,39.1,154.5,39.2z"/>
	<path fill="#27AAE1" d="M136,83.4l-7,54.3l14.8,7.8c0,0-21.1-1.8-21-2.9c0.1-1.1,6.2-57.3,6.2-57.3L136,83.4z"/>
	<polygon fill="#27AAE1" points="128,93.8 108.2,100.9 104.1,128.9 106.4,128.8 112.7,103.5 128.9,99.5 	"/>
	<path fill="#27AAE1" d="M98.9,225.7c0,0,38.2-46,25.6-77l0.1-3.2l13.7,23c0,0-1.5,30.6-36.5,59.3l14.8,13.1l-14.8,3.8l-10.7-14.2
		l6.2-6L98.9,225.7z"/>
	<path fill="#27AAE1" d="M133.2,144c0,0,32.3,53.4,45.5,85.8l22.8,5.9l-9.6,7.8c0,0-21.5-6.4-21.2-6.7c0.2-0.3,3.7-8,3.7-8
		l-40.2-68.3l-11.5-17.8L133.2,144z"/>
</g>
<g id="Layer_1">
	
		<ellipse transform="matrix(0.1802 -0.9836 0.9836 0.1802 68.0486 199.4332)" fill="none" stroke="#000000" stroke-width="2" stroke-miterlimit="10" cx="153.7" cy="58.9" rx="19.9" ry="13.4"/>
	<path fill="none" stroke="#000000" stroke-width="2" stroke-miterlimit="10" d="M143.7,42c0,0,14.9,2.1,22.7,0"/>
	<path fill="none" stroke="#000000" stroke-width="2" stroke-miterlimit="10" d="M141.6,45.4c0,0,15.1,3,26.8,0"/>
	<path fill="none" stroke="#000000" stroke-width="2" stroke-miterlimit="10" d="M140.2,49.3c0,0,17.5,4,28.8,0"/>
	<polyline fill="none" stroke="#000000" stroke-width="2" stroke-miterlimit="10" points="144.6,75.3 142.8,83.2 151,84.7 152.5,78 
			"/>
	<path fill="none" stroke="#000000" stroke-width="2" stroke-miterlimit="10" d="M160.9,88.1c0,0-19.2-9-32-2.8l-6.2,57.3l21,2.9
		L160.9,88.1z"/>
	<polyline fill="none" stroke="#000000" stroke-width="2" stroke-miterlimit="10" points="128.9,85.4 105.2,94.9 101.8,128.8 
		106.4,128.8 112.8,103.1 	"/>
	<line fill="none" stroke="#000000" stroke-width="2" stroke-miterlimit="10" x1="104.1" y1="105.5" x2="127.5" y2="99"/>
	<polyline fill="none" stroke="#000000" stroke-width="2" stroke-miterlimit="10" points="106.4,128.8 109.3,134 109.3,139.9 
		105.9,139.9 104.1,136.9 102.5,150 97.3,143.3 101.8,128.4 	"/>
	<path fill="none" stroke="#000000" stroke-width="2" stroke-miterlimit="10" d="M159.9,91.3c0,0,5.3,29.3,30.7,30v5.7
		c0,0-21.3,2.1-35.6-17.8"/>
	<polyline fill="none" stroke="#000000" stroke-width="2" stroke-miterlimit="10" points="190.7,121.2 198.9,118.5 211.1,125.1 
		204.9,128.4 199.4,127 200.9,129.7 196.6,130.6 190.7,127 	"/>
	<path fill="none" stroke="#000000" stroke-width="2" stroke-miterlimit="10" d="M122.7,142.7c0,0,42.4,66,52.6,87.9h6.9
		c0,0-23.4-61.7-38.5-85.1"/>
	<path fill="none" stroke="#000000" stroke-width="2" stroke-miterlimit="10" d="M124.6,145.5c0,0-0.8,49.7-27.3,79.1l4.5,3.2
		c0,0,34.5-26.5,36.5-60.6"/>
	<polygon fill="none" stroke="#000000" stroke-width="2" stroke-miterlimit="10" points="175.3,230.6 203.2,232 191.3,240.9 
		174.5,235.7 	"/>
	<path fill="none" stroke="#000000" stroke-width="2" stroke-miterlimit="10" d="M97.3,224.6l-6.2,6c0,0,9.6,11.5,10.1,11.5
		c0.5,0,17.9-4,17.9-4l-17.4-10.4"/>
	
		<ellipse transform="matrix(0.2321 -0.9727 0.9727 0.2321 -7.7969 105.2155)" fill="none" stroke="#000000" stroke-width="2" stroke-miterlimit="10" cx="62.7" cy="57.5" rx="18.6" ry="12.9"/>
	<polyline fill="none" stroke="#000000" stroke-width="2" stroke-miterlimit="10" points="55.6,74.4 54.5,80 60.8,81.3 62.2,75.7 	
		"/>
	<path fill="none" stroke="#000000" stroke-width="2" stroke-miterlimit="10" d="M38,131.8c1.3-12,5.6-51.8,5.6-51.8
		s17-0.4,24.5,4.7l-11.2,53c0,0-12.3-1.6-17.2-2.3"/>
	<polyline fill="none" stroke="#000000" stroke-width="2" stroke-miterlimit="10" points="43.6,80 22,96.7 28.5,127 33.7,125.8 
		31.4,99 	"/>
	<line fill="none" stroke="#000000" stroke-width="2" stroke-miterlimit="10" x1="42.3" y1="92.4" x2="23.3" y2="104.2"/>
	<polyline fill="none" stroke="#000000" stroke-width="2" stroke-miterlimit="10" points="28.5,127 27.1,134.9 32.1,140.3 
		41.1,136.1 33.7,125.8 	"/>
	<polyline fill="none" stroke="#000000" stroke-width="2" stroke-miterlimit="10" points="67,89.9 75.3,107.1 92.7,101.8 94,106.6 
		73.4,116.8 64.1,105.5 	"/>
	<path fill="none" stroke="#000000" stroke-width="2" stroke-miterlimit="10" d="M92.7,101.8v-4l8-5l3.4,4.5c0,0,0.7,0.6,0.8,0.9"/>
	<path fill="none" stroke="#000000" stroke-width="2" stroke-miterlimit="10" d="M103.7,106.4c-1.2,0.9-3.5,2.8-3.5,2.8l-6.3-2.6"/>
	<path fill="none" stroke="#000000" stroke-width="2" stroke-miterlimit="10" d="M54.5,137.7c0,0-4.2,56.8-36.1,86.8l-4.1-2.5
		c0,0,23.8-53.7,23.4-84.1"/>
	<path fill="none" stroke="#000000" stroke-width="2" stroke-miterlimit="10" d="M56.9,137.7c0,0,19.5,44.2,23.1,85.2l-5.3,1.6
		c0,0-19.5-63-22.8-69.6"/>
	<path fill="none" stroke="#000000" stroke-width="2" stroke-miterlimit="10" d="M13.8,221.9l-6,5.8c0,0,11,10,11.5,10
		c0.5,0,17.8-0.6,17.8-0.6l-18.7-12.6"/>
	<path fill="none" stroke="#000000" stroke-width="2" stroke-miterlimit="10" d="M74.7,224.6v7.7c0,0,10-1.2,17.5-2"/>
	<path fill="none" stroke="#000000" stroke-width="2" stroke-miterlimit="10" d="M100,221.5c-7.8,0.6-20,1.5-20,1.5"/>
	
		<ellipse transform="matrix(0.1309 -0.9914 0.9914 0.1309 145.4103 282.7604)" fill="none" stroke="#000000" stroke-width="2" stroke-miterlimit="10" cx="234" cy="58.4" rx="17.3" ry="12.4"/>
	<polyline fill="none" stroke="#000000" stroke-width="2" stroke-miterlimit="10" points="228.2,74.7 228.2,79.7 234,80.4 235,76 	
		"/>
	<path fill="none" stroke="#000000" stroke-width="2" stroke-miterlimit="10" d="M215.7,137.7h19.7l9.2-54.6
		c-12.1-3.9-30-3.1-30-3.1L215.7,137.7z"/>
	<path fill="none" stroke="#000000" stroke-width="2" stroke-miterlimit="10" d="M214.5,80c0,0-12.9,12.7-18.1,39"/>
	<path fill="none" stroke="#000000" stroke-width="2" stroke-miterlimit="10" d="M194.9,129.1c-0.3,3.2-0.5,6.6-0.6,10.1l4.8,1.1
		c0,0,0.8-4.9,2.4-11.4"/>
	<path fill="none" stroke="#000000" stroke-width="2" stroke-miterlimit="10" d="M203.8,121.1c2.5-7.8,6-16,10.7-20.2"/>
	<line fill="none" stroke="#000000" stroke-width="2" stroke-miterlimit="10" x1="207.3" y1="111.8" x2="200.8" y2="103.5"/>
	<path fill="none" stroke="#000000" stroke-width="2" stroke-miterlimit="10" d="M194.3,139.2l-4.7,7.1c0,0,2.1,6.6,2.4,6.6
		c0.3,0,11.3,0,11.3,0l1.8-8.2l-6.1-4.5"/>
	<path fill="none" stroke="#000000" stroke-width="2" stroke-miterlimit="10" d="M243.9,86.9c0,0,2.1,25.1,24.3,33.6l-1.9,4.8
		c0,0-16.7,0.1-25.9-19"/>
	<polyline fill="none" stroke="#000000" stroke-width="2" stroke-miterlimit="10" points="268,120.8 272.6,117.9 280.4,120.2 
		277.3,132.2 267.6,129.9 266.3,126 	"/>
	<path fill="none" stroke="#000000" stroke-width="2" stroke-miterlimit="10" d="M215.7,137.7c6.9,45.6-7,92.1-7,92.1l7.9,0.7
		c15.5-31.1,18.8-92.9,18.8-92.9"/>
	<path fill="none" stroke="#000000" stroke-width="2" stroke-miterlimit="10" d="M235.7,135.9c11.7,35.7,18.6,95.5,18.6,95.5
		l-7.5,0.8c0,0-9.7-50-15.3-58"/>
	<polyline fill="none" stroke="#000000" stroke-width="2" stroke-miterlimit="10" points="216.6,230.6 233.2,234.9 223.3,240.9 
		206.4,233.7 208.7,229.8 	"/>
	<polyline fill="none" stroke="#000000" stroke-width="2" stroke-miterlimit="10" points="246.8,232.3 246.8,238.8 267.8,242.1 
		275,232.3 254.3,231.5 	"/>
</g>
<g id="Layer_3">
	<path opacity="0" fill="none" stroke="#27AAE1" stroke-width="25" stroke-miterlimit="10" d="M134.5,41c8,0,16,0,23.9,0.1
		c-10.3,5.3-21,9.9-31.9,13.6c9.2-0.6,18.4-0.3,27.5,0.7c-11.2,1.7-22.1,5.2-32.2,10.5c9.5,0.8,18.9,1.6,28.4,2.5
		c-9.4,2.1-18.8,4.1-28.2,6.2c-6.9,1.5-14,3.1-19.9,7.1c13.9-0.7,27.8-0.1,41.6,1.7c-5.2,6.7-14.1,9.1-22.4,10.5
		c-8.3,1.5-17.2,2.6-23.8,7.9c13.8,0.4,27.7,0.4,41.5,0.2c-14.4,5.7-29.3,10.1-44.5,13.3c15.9,0.5,31.8,1.1,47.7,1.6
		c-9.9,3.9-20.2,6.6-30.8,7.8c-4.1,0.5-8.7,1-11.5,4.1c13,3.8,26.7,5.3,40.3,4.5c-11.2,5.5-23.3,8.9-35.7,10.2
		c15.1-0.3,30.2,1.8,45.1,4c-15.2,3.6-30.4,7.2-45.6,10.7c18.9,3.4,37.7,6.9,56.6,10.3c-19.1,6.9-40.8,0.7-60.2,6.6
		c21.1,6.6,43.5,9.4,65.6,8.3c-20.8,7.5-43.2,8.4-65.3,9.2c23.6,0.9,47.1,1.8,70.7,2.7c-16.9,5.8-35.1,6.5-52.9,6.7
		c-6.8,0.1-13.7,0.1-20.1,2.3c25.5,6.7,52.9-2.9,78.7,2c-26.8,9.6-56.2,6.9-84.4,10.6c30.6,5,62.2-6.2,92.8-0.9
		c-5.4,2.1-11.2,3.3-16.9,4.1c-26.9,3.8-55,0.7-80.5,10c33.5,10,69.3-0.8,104.2-0.4c-16.6,3.1-33.5,4.7-50.4,4.7
		c-8.4,0-17.1-0.3-24.8,3c-4.2,1.8-8.2,4.7-12.8,4.9c33.5,8.7,69.4,8,102.5-1.9"/>
</g>
</svg>
