<?xml version="1.0" encoding="utf-8"?>
<!-- Generator: Adobe Illustrator 20.1.0, SVG Export Plug-In . SVG Version: 6.00 Build 0)  -->
<!DOCTYPE svg PUBLIC "-//W3C//DTD SVG 1.0//EN" "http://www.w3.org/TR/2001/REC-SVG-20010904/DTD/svg10.dtd">
<svg version="1.0" xmlns="http://www.w3.org/2000/svg" xmlns:xlink="http://www.w3.org/1999/xlink" x="0px" y="0px" width="288px"
	 height="288px" viewBox="0 0 288 288" enable-background="new 0 0 288 288" xml:space="preserve">
<g id="Color">
	<g id="Layer_2">
		<polygon fill="#27AAE1" points="159.7,104.5 136.6,141.1 147.7,140 148.9,140 167,111.4 166.2,105.4 		"/>
	</g>
</g>
<g id="Lines">
	<path fill="none" stroke="#000000" stroke-width="2" stroke-miterlimit="10" d="M152.3,95.7h-17c-6.6,0-12-5.4-12-12V48.8
		c0-6.6,5.4-12,12-12h17c6.6,0,12,5.4,12,12v34.9C164.3,90.3,158.9,95.7,152.3,95.7z"/>
	<path fill="none" stroke="#000000" stroke-width="2" stroke-miterlimit="10" d="M123.3,68.9c0,0,4.8,1.4,10.4,0
		c5.6-1.4,8.5-4.1,15.5-1.4s15.2,0.5,15.2,0.5"/>
	<path fill="none" stroke="#000000" stroke-width="2" stroke-miterlimit="10" d="M123.3,62.1c0,0-9.2,5,0,10.2"/>
	<path fill="none" stroke="#000000" stroke-width="2" stroke-miterlimit="10" d="M164.3,61c0,0,8.5,6,0,10.1"/>
	<path fill="none" stroke="#000000" stroke-width="2" stroke-miterlimit="10" d="M156.6,104.1c7.1-0.6,24.1-9.9,24.1-9.9
		c-2.5-5.4-7.8-57.6-12.5-64.1s-24.3-0.9-24.3-0.9s-24.9-5.1-27.6,9.4s-7,47.2-10.7,52.4c0,0,9.1,9.2,22.4,13.1"/>
	<polyline fill="none" stroke="#000000" stroke-width="2" stroke-miterlimit="10" points="138.1,95.7 139,103.7 150.8,104.1 
		150.8,95.3 	"/>
	<path fill="none" stroke="#000000" stroke-width="2" stroke-miterlimit="10" d="M120.1,147.3c1.3-16.6,1.9-31.7,1.1-42.9
		c0,0,30.9-2.2,45,1c0,0,2.2,16.4,4.9,39.4"/>
	<polyline fill="none" stroke="#000000" stroke-width="2" stroke-miterlimit="10" points="121.7,105.4 51.7,130.1 55.7,170.1 
		121.4,126.7 	"/>
	<polyline fill="none" stroke="#000000" stroke-width="2" stroke-miterlimit="10" points="51.9,132.6 37.3,132.6 35.1,136.9 
		41.8,140.6 25.1,147.6 36.3,156.4 53.7,148.4 	"/>
	<polyline fill="none" stroke="#000000" stroke-width="2" stroke-miterlimit="10" points="166.2,105.4 236.3,130.1 232.3,170.1 
		168.9,126.4 	"/>
	<polyline fill="none" stroke="#000000" stroke-width="2" stroke-miterlimit="10" points="236,132.6 250.6,132.6 252.9,136.9 
		246.1,140.6 262.9,147.6 251.6,156.4 234.3,148.4 	"/>
	<path fill="none" stroke="#000000" stroke-width="2" stroke-miterlimit="10" d="M148.9,140c9.9-15.6,18.1-28.6,18.1-28.6l-0.8-6
		c0,0-7.6-1.3-11.5-1.3c0,0-12.2,19.8-22.6,38.3"/>
</g>
<g id="Stroke">
	<g id="Layer_3">
		<path fill="none" stroke="#27AAE1" stroke-width="22" stroke-miterlimit="10" stroke-opacity="0" d="M146.7,104.5
			c13.4-0.3,26.9,0,40.3,0.8c-16.4,0.6-32.7,1.7-49,3.4c11.3,1.6,22.8,2.4,34.2,2.1c-12.8,0-25.7,0.7-38.4,2.3
			c0.9,1.1,2.5,1.3,4,1.4c10,0.6,20,1.2,30,1.8c-9.5,1-19,1.9-28.5,2.9c-1.3,0.1-2.6,0.3-3.6,1.1c9.2,0.5,18.5,1,27.7,1.5
			c-12,0.8-24,1.5-35.8,3.8c10.5,0.7,21,1.3,31.5,1.7c-9.8,1.8-19.6,3.2-29.4,4.4c9.4,1.2,18.9,1.7,28.4,1.6
			c-12.2,1-24.3,3.5-36,7.4c10-1.4,20.2-1.9,30.3-1.5"/>
	</g>
</g>
</svg>
