<?xml version="1.0" encoding="utf-8"?>
<!-- Generator: Adobe Illustrator 19.2.1, SVG Export Plug-In . SVG Version: 6.00 Build 0)  -->
<svg version="1.0" id="Layer_1" xmlns="http://www.w3.org/2000/svg" xmlns:xlink="http://www.w3.org/1999/xlink" x="0px" y="0px"
	 width="288px" height="288px" viewBox="0 0 288 288" enable-background="new 0 0 288 288" xml:space="preserve">
<polygon fill="none" stroke="#000000" stroke-width="2" stroke-miterlimit="10" points="143.4,63.3 86.7,55.3 86.7,74.3 143.4,70.5 
	200.1,74.3 200.1,56.6 "/>
<line fill="none" stroke="#000000" stroke-width="2" stroke-miterlimit="10" x1="93.8" y1="73.8" x2="93.8" y2="215.1"/>
<line fill="none" stroke="#000000" stroke-width="2" stroke-miterlimit="10" x1="189.7" y1="73.6" x2="192.4" y2="216.3"/>
<polygon fill="none" stroke="#000000" stroke-width="2" stroke-miterlimit="10" points="143.4,222.1 86.7,214.1 86.7,233.1 
	143.4,229.3 200.1,233.1 200.1,215.4 "/>
<polyline fill="none" stroke="#000000" stroke-width="2" stroke-miterlimit="10" points="86.7,62.3 74.1,60.5 74.9,68.6 86.7,66.8 
	"/>
<polyline fill="none" stroke="#000000" stroke-width="2" stroke-miterlimit="10" points="200.1,63.1 213.1,60.5 213.1,68.6 
	200.1,67.6 "/>
<polyline fill="none" stroke="#000000" stroke-width="2" stroke-miterlimit="10" points="86.7,221.1 74.1,219.3 74.9,227.5 
	86.7,225.6 "/>
<polyline fill="none" stroke="#000000" stroke-width="2" stroke-miterlimit="10" points="200.1,222 213.1,219.3 213.1,227.5 
	200.1,226.5 "/>
</svg>
