<?xml version="1.0" encoding="utf-8"?>
<!-- Generator: Adobe Illustrator 20.1.0, SVG Export Plug-In . SVG Version: 6.00 Build 0)  -->
<!DOCTYPE svg PUBLIC "-//W3C//DTD SVG 1.0//EN" "http://www.w3.org/TR/2001/REC-SVG-20010904/DTD/svg10.dtd">
<svg version="1.0" xmlns="http://www.w3.org/2000/svg" xmlns:xlink="http://www.w3.org/1999/xlink" x="0px" y="0px" width="288px"
	 height="288px" viewBox="0 0 288 288" enable-background="new 0 0 288 288" xml:space="preserve">
<g id="Color">
	<polygon fill="#FFFFFF" points="192.4,73.8 200.1,74.3 200.1,67.6 213.1,68.6 213.1,60.5 200.1,63.1 200.1,56.6 143.4,63.3 
		86.7,55.3 86.7,62.3 74.1,60.5 74.9,68.6 86.7,66.8 86.7,74.3 93.8,73.8 93.8,215.1 93.8,215.1 86.7,214.1 86.7,221.1 74.1,219.3 
		74.9,227.5 86.7,225.6 86.7,233.1 143.4,229.3 200.1,233.1 200.1,226.5 213.1,227.5 213.1,219.3 200.1,222 200.1,215.4 
		192.4,216.3 	"/>
</g>
<g id="Lines">
	<polygon fill="none" stroke="#000000" stroke-width="2" stroke-miterlimit="10" points="143.4,63.3 86.7,55.3 86.7,74.3 
		143.4,70.5 200.1,74.3 200.1,56.6 	"/>
	<line fill="none" stroke="#000000" stroke-width="2" stroke-miterlimit="10" x1="93.8" y1="73.8" x2="93.8" y2="215.1"/>
	<line fill="none" stroke="#000000" stroke-width="2" stroke-miterlimit="10" x1="189.7" y1="73.6" x2="192.4" y2="216.3"/>
	<polygon fill="none" stroke="#000000" stroke-width="2" stroke-miterlimit="10" points="143.4,222.1 86.7,214.1 86.7,233.1 
		143.4,229.3 200.1,233.1 200.1,215.4 	"/>
	<polyline fill="none" stroke="#000000" stroke-width="2" stroke-miterlimit="10" points="86.7,62.3 74.1,60.5 74.9,68.6 86.7,66.8 
			"/>
	<polyline fill="none" stroke="#000000" stroke-width="2" stroke-miterlimit="10" points="200.1,63.1 213.1,60.5 213.1,68.6 
		200.1,67.6 	"/>
	<polyline fill="none" stroke="#000000" stroke-width="2" stroke-miterlimit="10" points="86.7,221.1 74.1,219.3 74.9,227.5 
		86.7,225.6 	"/>
	<polyline fill="none" stroke="#000000" stroke-width="2" stroke-miterlimit="10" points="200.1,222 213.1,219.3 213.1,227.5 
		200.1,226.5 	"/>
</g>
<g id="Stroke">
	
		<path opacity="0" fill="none" stroke="#231F20" stroke-width="37" stroke-linecap="round" stroke-linejoin="round" stroke-miterlimit="10" d="
		M49,68.6c65-1,138.2-23.8,202-11.2c-28.3,10.4-59.5,9.2-88.9,16.1c-29.3,6.9-56.2,21.6-82.5,36.2c38.8-14,81.2-17.8,121.9-10.9
		C157.3,130.6,97.5,128.1,46.5,147c-4.8,1.8-10.2,4.7-10.8,9.8c56.1,7.9,112-16.9,168.6-15.6c4.9,0.1,10.9,1.1,12.8,5.7
		c-42.1,25.3-97.9,16-141,39.6c-5,2.8-10.4,6.8-10.6,12.6c-0.4,9,11.4,13,20.5,12.9c48.5-0.3,95.7-32.3,142.5-20.1
		c4.8,1.3,10.6,5,9,9.7c-0.9,2.5-3.6,3.8-6,4.8c-51.2,20-109.1,2.7-163.5,10.1c-5,0.7-10.1,1.6-14.2,4.6s-6.8,8.4-5.1,13.1
		c56.6,9,114.4-14.5,171.3-7.2c-13.2,14.4-32.6,23-52.1,23.2"/>
</g>
</svg>
