<?xml version="1.0" encoding="utf-8"?>
<!-- Generator: Adobe Illustrator 21.0.0, SVG Export Plug-In . SVG Version: 6.00 Build 0)  -->
<!DOCTYPE svg PUBLIC "-//W3C//DTD SVG 1.0//EN" "http://www.w3.org/TR/2001/REC-SVG-20010904/DTD/svg10.dtd">
<svg version="1.0" id="Layer_1" xmlns="http://www.w3.org/2000/svg" xmlns:xlink="http://www.w3.org/1999/xlink" x="0px" y="0px"
	 width="288px" height="288px" viewBox="0 0 288 288" enable-background="new 0 0 288 288" xml:space="preserve">
<path fill="#FFFFFF" stroke="#000000" stroke-width="2" stroke-miterlimit="10" d="M138.5,156.1c-4.2-7.4-7.3-13.3-2.9-15.5
	c2-1,7.8,2.8,9.9,5.6l2.8-3.6c-0.1-0.1-1.3-3.2-1.7-3.7c-6.2-7.6-10.7-7.3-17.6-2.3c-8.1,5.9,5.2,21.9,5.2,21.9"/>
<path fill="#FFFFFF" stroke="#000000" stroke-width="2" stroke-miterlimit="10" d="M131.3,160.2l22.7-12.8c0,0,14.4,24.5,4,31.7
	S138.4,174,131.3,160.2z"/>
<path fill="none" stroke="#000000" stroke-width="2" stroke-miterlimit="10" d="M147.6,166.2c-1.9,0.2-3.8-0.7-4.6-2.5
	c-1-2.2,0-4.8,2.2-5.8s4.8,0,5.8,2.2c0.7,1.5,0.4,3.3-0.5,4.5"/>
<polyline fill="none" stroke="#000000" stroke-width="2" stroke-miterlimit="10" points="146.6,166.2 148.8,173.9 156.9,169.4 
	151,163.6 "/>
<path fill="none" stroke="#000000" stroke-width="2" stroke-miterlimit="10" d="M167,134.3c4.1-0.4,7.5,1,7.9,3.3
	c0.4,2.5-2.9,5-7.4,5.7s-8.4-0.8-8.8-3.2c-0.2-1.2,0.5-2.5,1.9-3.5"/>
<ellipse transform="matrix(0.9881 -0.1537 0.1537 0.9881 -18.8863 29.2919)" fill="none" stroke="#000000" stroke-width="2" stroke-miterlimit="10" cx="180" cy="136.8" rx="8.2" ry="4.5"/>
<ellipse transform="matrix(0.9752 -0.2211 0.2211 0.9752 -24.7553 45.8421)" fill="none" stroke="#000000" stroke-width="2" stroke-miterlimit="10" cx="192.4" cy="133.5" rx="8.2" ry="4.5"/>
<path fill="none" stroke="#000000" stroke-width="2" stroke-miterlimit="10" d="M211.7,131.6c-1.3,1.2-3.2,2.2-5.5,2.8
	c-4.4,1-8.4-0.2-9-2.6s2.6-5.2,7-6.2c1.6-0.4,3.1-0.4,4.4-0.3"/>
<path fill="none" stroke="#000000" stroke-width="2" stroke-miterlimit="10" d="M225.2,132.8c3.1,1,5.2,2.9,5,4.8
	c-0.3,2.5-4.1,4.1-8.6,3.7c-4.2-0.4-7.4-2.5-7.6-4.8"/>
<path fill="none" stroke="#000000" stroke-width="2" stroke-miterlimit="10" d="M113.5,128.4c1.7,0.8,2.7,2,2.7,3.3
	c0,2.5-3.6,4.6-8.1,4.7c-4.5,0.1-8.2-1.9-8.2-4.4c0-2.4,3.2-4.4,7.4-4.7"/>
<ellipse transform="matrix(0.9998 -1.873790e-02 1.873790e-02 0.9998 -2.4548 1.8032)" fill="none" stroke="#000000" stroke-width="2" stroke-miterlimit="10" cx="95" cy="131.9" rx="8.2" ry="4.5"/>
<ellipse transform="matrix(3.847883e-02 -0.9993 0.9993 3.847883e-02 -52.6368 208.1624)" fill="none" stroke="#000000" stroke-width="2" stroke-miterlimit="10" cx="81.8" cy="131.4" rx="4.5" ry="8.2"/>
<ellipse transform="matrix(3.847883e-02 -0.9993 0.9993 3.847883e-02 -63.3343 193.4693)" fill="none" stroke="#000000" stroke-width="2" stroke-miterlimit="10" cx="68.9" cy="129.6" rx="4.5" ry="8.2"/>
<path fill="none" stroke="#000000" stroke-width="2" stroke-miterlimit="10" d="M67.2,111.3c3.3,2.9,4.7,6.6,3.1,8.5
	s-5.7,1.1-9.2-1.7c-3.5-2.9-5-6.8-3.4-8.7c0.3-0.4,0.7-0.6,1.2-0.8"/>
<path fill="none" stroke="#000000" stroke-width="2" stroke-miterlimit="10" d="M167.6,104.2c-1.8,1.3-3.7,1.6-5,0.8
	c-2.1-1.4-1.7-5.6,0.8-9.3c2.5-3.8,6.2-5.7,8.3-4.3c1.7,1.1,1.8,4.2,0.3,7.3"/>
<path fill="none" stroke="#000000" stroke-width="2" stroke-miterlimit="10" d="M178.5,80.5c2.1,1.4,1.7,5.6-0.8,9.3
	c-2.5,3.8-6.2,5.7-8.3,4.3c-2.1-1.4-1.7-5.6,0.8-9.3C172.7,81,176.4,79.1,178.5,80.5z"/>
<path fill="none" stroke="#000000" stroke-width="2" stroke-miterlimit="10" d="M182.9,81.8c-2.3,2.4-5.1,3.4-6.7,2.3
	c-2.1-1.4-1.7-5.6,0.8-9.3c1.3-1.9,2.9-3.4,4.4-4.1"/>
<path fill="none" stroke="#000000" stroke-width="2" stroke-miterlimit="10" d="M199.8,89.2c-1.7-0.1-3.7-0.6-5.6-1.8
	c-3.9-2.3-6.1-5.9-4.8-8s5.4-2.1,9.4,0.2c0.1,0.1,0.3,0.2,0.4,0.2"/>
<path fill="none" stroke="#000000" stroke-width="2" stroke-miterlimit="10" d="M124.8,176.4c1.4,2-0.1,5.7-3.5,8.5
	c-3.5,2.9-7.6,3.7-9.2,1.7c-1.6-1.9-0.1-5.8,3.4-8.7c1.6-1.3,3.3-2.2,4.8-2.6"/>
<path fill="none" stroke="#000000" stroke-width="2" stroke-miterlimit="10" d="M115.8,186.7c0.9,2.4-1.8,5.5-6.1,7.1
	c-4.2,1.6-8.4,0.9-9.3-1.4c-0.9-2.4,1.8-5.5,6.1-7.1C110.8,183.7,114.9,184.3,115.8,186.7z"/>
<path fill="none" stroke="#000000" stroke-width="2" stroke-miterlimit="10" d="M104.7,192.7c1.6,1.9,0.1,5.8-3.4,8.7
	s-7.6,3.7-9.2,1.7c-1.6-1.9-0.1-5.8,3.4-8.7S103.1,190.7,104.7,192.7z"/>
<path fill="none" stroke="#000000" stroke-width="2" stroke-miterlimit="10" d="M85.1,202.8c0.2-0.2,0.4-0.3,0.6-0.5
	c3.5-2.9,7.6-3.7,9.2-1.7c1.5,1.8,0.2,5.4-2.8,8.2"/>
<path fill="none" stroke="#000000" stroke-width="2" stroke-miterlimit="10" d="M78.4,198c-4.2-1.1-7.2-3.8-6.6-6.1
	c0.5-2.4,4.6-3.6,9-2.6s7.5,3.8,7,6.2c-0.1,0.5-0.3,0.9-0.7,1.3"/>
</svg>
