<?xml version="1.0" encoding="utf-8"?>
<!-- Generator: Adobe Illustrator 20.1.0, SVG Export Plug-In . SVG Version: 6.00 Build 0)  -->
<!DOCTYPE svg PUBLIC "-//W3C//DTD SVG 1.0//EN" "http://www.w3.org/TR/2001/REC-SVG-20010904/DTD/svg10.dtd">
<svg version="1.0" id="Layer_1" xmlns="http://www.w3.org/2000/svg" xmlns:xlink="http://www.w3.org/1999/xlink" x="0px" y="0px"
	 width="282.3px" height="282.3px" viewBox="0 0 282.3 282.3" enable-background="new 0 0 282.3 282.3" xml:space="preserve">
<ellipse transform="matrix(0.1309 -0.9914 0.9914 0.1309 64.5612 189.9149)" fill="none" stroke="#010101" stroke-width="2" stroke-miterlimit="10" cx="140.6" cy="58.1" rx="17.3" ry="12.4"/>
<polyline fill="none" stroke="#010101" stroke-width="2" stroke-miterlimit="10" points="134.9,74.4 134.9,79.4 140.7,80.1 
	141.7,75.7 "/>
<path fill="none" stroke="#010101" stroke-width="2" stroke-miterlimit="10" d="M122.4,137.4h19.7l9.2-54.6c-12.1-3.9-30-3.1-30-3.1
	L122.4,137.4z"/>
<path fill="none" stroke="#010101" stroke-width="2" stroke-miterlimit="10" d="M121.2,79.7c0,0-12.9,12.7-18.1,39"/>
<path fill="none" stroke="#010101" stroke-width="2" stroke-miterlimit="10" d="M103.1,118.7c-0.3,3.2-2,16.7-2.1,20.2l4.8,1.1
	c0,0,3.1-12.7,4.7-19.2"/>
<path fill="none" stroke="#010101" stroke-width="2" stroke-miterlimit="10" d="M110.5,120.8c2.5-7.8,6-16,10.7-20.2"/>
<line fill="none" stroke="#010101" stroke-width="2" stroke-miterlimit="10" x1="114" y1="111.5" x2="107.5" y2="103.2"/>
<path fill="none" stroke="#010101" stroke-width="2" stroke-miterlimit="10" d="M101,138.9l-4.7,7.1c0,0,2.1,6.6,2.4,6.6
	c0.3,0,11.3,0,11.3,0l1.8-8.2l-6.1-4.5"/>
<path fill="none" stroke="#010101" stroke-width="2" stroke-miterlimit="10" d="M150.6,86.6c0,0,2.1,25.1,24.3,33.6L173,125
	c0,0-16.7,0.1-25.9-19"/>
<polyline fill="none" stroke="#010101" stroke-width="2" stroke-miterlimit="10" points="174.7,120.5 179.3,117.6 187.1,119.9 
	184,131.9 174.3,129.6 173,125.7 "/>
<path fill="none" stroke="#010101" stroke-width="2" stroke-miterlimit="10" d="M122.4,137.4c6.9,45.6-7,92.1-7,92.1l7.9,0.7
	c15.5-31.1,18.8-92.9,18.8-92.9"/>
<path fill="none" stroke="#010101" stroke-width="2" stroke-miterlimit="10" d="M142.4,135.6c11.7,35.7,18.6,95.5,18.6,95.5
	l-7.5,0.8c0,0-9.7-50-15.3-58"/>
<polyline fill="none" stroke="#010101" stroke-width="2" stroke-miterlimit="10" points="123.3,230.3 139.9,234.6 130,240.6 
	113.1,233.4 115.4,229.5 "/>
<polyline fill="none" stroke="#010101" stroke-width="2" stroke-miterlimit="10" points="153.5,232 153.5,238.5 174.5,241.8 
	181.7,232 161,231.2 "/>
</svg>
