<?xml version="1.0" encoding="utf-8"?>
<!-- Generator: Adobe Illustrator 20.1.0, SVG Export Plug-In . SVG Version: 6.00 Build 0)  -->
<!DOCTYPE svg PUBLIC "-//W3C//DTD SVG 1.0//EN" "http://www.w3.org/TR/2001/REC-SVG-20010904/DTD/svg10.dtd">
<svg version="1.0" id="Lines" xmlns="http://www.w3.org/2000/svg" xmlns:xlink="http://www.w3.org/1999/xlink" x="0px" y="0px"
	 width="297.4px" height="297.4px" viewBox="0 0 297.4 297.4" enable-background="new 0 0 297.4 297.4" xml:space="preserve">
<ellipse transform="matrix(0.2321 -0.9727 0.9727 0.2321 52.6332 203.4388)" fill="none" stroke="#010101" stroke-width="2" stroke-miterlimit="10" cx="155.2" cy="68.4" rx="18.6" ry="12.9"/>
<polyline fill="none" stroke="#010101" stroke-width="2" stroke-miterlimit="10" points="148.1,85.2 147,90.8 153.3,92.1 
	154.7,86.5 "/>
<path fill="none" stroke="#010101" stroke-width="2" stroke-miterlimit="10" d="M130.5,142.6c1.3-12,5.6-51.8,5.6-51.8
	s17-0.4,24.5,4.7l-11.2,53c0,0-12.3-1.6-17.2-2.3"/>
<polyline fill="none" stroke="#010101" stroke-width="2" stroke-miterlimit="10" points="136.1,90.8 114.5,107.5 121,137.8 
	126.2,136.6 123.9,109.8 "/>
<line fill="none" stroke="#010101" stroke-width="2" stroke-miterlimit="10" x1="134.8" y1="103.2" x2="115.8" y2="115"/>
<polyline fill="none" stroke="#010101" stroke-width="2" stroke-miterlimit="10" points="121,137.8 119.6,145.7 124.6,151.1 
	133.6,146.9 126.2,136.6 "/>
<polyline fill="none" stroke="#010101" stroke-width="2" stroke-miterlimit="10" points="159.5,100.7 167.8,117.9 185.2,112.6 
	186.5,117.4 165.9,127.6 156.6,116.3 "/>
<path fill="none" stroke="#010101" stroke-width="2" stroke-miterlimit="10" d="M185.2,112.6v-4l8-5l3.4,4.5c0,0,3.3,5.7,3.4,6"/>
<path fill="none" stroke="#010101" stroke-width="2" stroke-miterlimit="10" d="M200,114.2c-1.2,0.9-7.3,5.9-7.3,5.9l-6.3-2.6"/>
<path fill="none" stroke="#010101" stroke-width="2" stroke-miterlimit="10" d="M147,148.5c0,0-4.2,56.8-36.1,86.8l-4.1-2.5
	c0,0,23.8-53.7,23.4-84.1"/>
<path fill="none" stroke="#010101" stroke-width="2" stroke-miterlimit="10" d="M149.4,148.5c0,0,19.5,44.2,23.1,85.2l-5.3,1.6
	c0,0-19.5-63-22.8-69.6"/>
<path fill="none" stroke="#010101" stroke-width="2" stroke-miterlimit="10" d="M106.3,232.7l-6,5.8c0,0,11,10,11.5,10
	s17.8-0.6,17.8-0.6l-18.7-12.6"/>
<path fill="none" stroke="#010101" stroke-width="2" stroke-miterlimit="10" d="M167.2,235.4v7.7c0,0,10-1.2,17.5-2l8.5-0.5
	l-0.7-8.3c-7.8,0.6-20,1.5-20,1.5"/>
</svg>
