<svg id="Layer_1" data-name="Layer 1" xmlns="http://www.w3.org/2000/svg" viewBox="0 0 380.3 433.82"><title>AdamandEve</title><ellipse cx="147.09" cy="153.05" rx="19.33" ry="29.09" fill="none" stroke="#231f20" stroke-miterlimit="10" stroke-width="2.79"/><ellipse cx="333.85" cy="206.16" rx="19.33" ry="29.09" transform="translate(-128.08 -11.53) rotate(-9.77)" fill="none" stroke="#231f20" stroke-miterlimit="10" stroke-width="2.79"/><path d="M279.35,291.1s16.67-13.61,7-33.36-12-46.55-12.66-52.48-3.92-26.68-27.63-27-31.3,18.1-31.51,33.57-38.53,37.49-29.2,67.65" transform="translate(-97.93 -71.2)" fill="none" stroke="#231f20" stroke-miterlimit="10" stroke-width="2.79"/><line x1="137.49" y1="178.29" x2="137.49" y2="194.8" fill="none" stroke="#231f20" stroke-miterlimit="10" stroke-width="2.79"/><line x1="154.56" y1="179.88" x2="154.56" y2="195.88" fill="none" stroke="#231f20" stroke-miterlimit="10" stroke-width="2.79"/><line x1="233.83" y1="162.95" x2="235.93" y2="179.02" fill="none" stroke="#231f20" stroke-miterlimit="10" stroke-width="2.79"/><line x1="247.98" y1="160.02" x2="255.27" y2="174.86" fill="none" stroke="#231f20" stroke-miterlimit="10" stroke-width="2.79"/><polyline points="120.21 208.31 120.21 194.8 158.23 196" fill="none" stroke="#231f20" stroke-miterlimit="10" stroke-width="2.79"/><path d="M339.27,355.25c-1.12-4.37-24.58-100.91-24.58-100.91L372,242s10.24,62.7,13.82,91.42" transform="translate(-97.93 -71.2)" fill="none" stroke="#231f20" stroke-miterlimit="10" stroke-width="2.79"/><line x1="120.21" y1="194.8" x2="113.05" y2="205.24" fill="none" stroke="#231f20" stroke-miterlimit="10" stroke-width="2.79"/><polyline points="167.3 199.77 201.93 249.13 214.76 284.47 221.76 290.8 225.76 311.3 215.37 315.05 211.09 299.13 204.09 298.13 204.76 284.47 190.09 253.13 164.11 227.8 162.09 267.8" fill="none" stroke="#231f20" stroke-miterlimit="10" stroke-width="2.79"/><path d="M315.81,258.73c.15.62-3.52,65.09-5,91.21" transform="translate(-97.93 -71.2)" fill="none" stroke="#231f20" stroke-miterlimit="10" stroke-width="2.79"/><path d="M329.77,316.37l-4.66,39.3" transform="translate(-97.93 -71.2)" fill="none" stroke="#231f20" stroke-miterlimit="10" stroke-width="2.79"/><polyline points="294.09 284.47 314.09 234.15 274.09 170.81" fill="none" stroke="#231f20" stroke-miterlimit="10" stroke-width="2.79"/><path d="M380.24,348.73,395,308.34s-10.45-14.7-16.43-24.92" transform="translate(-97.93 -71.2)" fill="none" stroke="#231f20" stroke-miterlimit="10" stroke-width="2.79"/><path d="M387.64,353.88s-5.29,18.12-5.52,19.79H371.73L368.46,350l19.89-1.27,3.67,6.94" transform="translate(-97.93 -71.2)" fill="none" stroke="#231f20" stroke-miterlimit="10" stroke-width="2.79"/><line x1="190.09" y1="253.14" x2="201.93" y2="249.14" fill="none" stroke="#231f20" stroke-miterlimit="10" stroke-width="2.79"/><line x1="215.06" y1="250.33" x2="230.63" y2="255.46" fill="none" stroke="#231f20" stroke-miterlimit="10" stroke-width="2.79"/><line x1="297.09" y1="237.15" x2="314.09" y2="234.15" fill="none" stroke="#231f20" stroke-miterlimit="10" stroke-width="2.79"/><path d="M229.43,297.56,221,280.75l-28.5-12.25,7.75,21.25s16.08,11.64,17.42,11.25" transform="translate(-97.93 -71.2)" fill="none" stroke="#231f20" stroke-miterlimit="10" stroke-width="2.79"/><path d="M272.83,492.43C271.85,474.89,269,434,269,434l-32.67-45.67L231,335.67H193.35l-2.66-10.34,27-24.33L237,295.33,241.35,278,266,260l-2,27.67-13.67,14.66L260,339l23,16.67h20.33" transform="translate(-97.93 -71.2)" fill="none" stroke="#231f20" stroke-miterlimit="10" stroke-width="2.79"/><path d="M312.35,355.67h58" transform="translate(-97.93 -71.2)" fill="none" stroke="#231f20" stroke-miterlimit="10" stroke-width="2.79"/><path d="M387,355.67h11l11,27L400,428l7.3,48.93" transform="translate(-97.93 -71.2)" fill="none" stroke="#231f20" stroke-miterlimit="10" stroke-width="2.79"/><path d="M293.42,493l-.4-56.33L337.35,442,375,436.67l13.08,46.16" transform="translate(-97.93 -71.2)" fill="none" stroke="#231f20" stroke-miterlimit="10" stroke-width="2.79"/><path d="M365.94,438l10.53,52.36" transform="translate(-97.93 -71.2)" fill="none" stroke="#231f20" stroke-miterlimit="10" stroke-width="2.79"/><line x1="210.59" y1="367.33" x2="205.18" y2="425.99" fill="none" stroke="#231f20" stroke-miterlimit="10" stroke-width="2.79"/><polyline points="301.54 288.03 311.09 289.8 320.09 307.97 307.81 328.01" fill="none" stroke="#231f20" stroke-miterlimit="10" stroke-width="2.79"/><path d="M108,288c.33-1.67,8.33-15.25,8.33-15.25s4.67,15.58,6,15.25,15.42-19.5,15.42-19.5l1.92,23.83,9-7.58s8.67,17.6,9,16.26,6.51-16.22,6.51-16.22l11,17.54,4.2-14,7.23,8.67" transform="translate(-97.93 -71.2)" fill="none" stroke="#231f20" stroke-miterlimit="10" stroke-width="2.79"/><polyline points="33.94 302.22 29.93 284.55 46.27 293.38 44.27 265.88 63.63 286.55 74.94 272.22 79.58 289.78 88.94 281.88 95.94 296.88 101.94 282.55 111.05 297.22" fill="none" stroke="#231f20" stroke-miterlimit="10" stroke-width="2.79"/><polyline points="38.48 381.13 29.48 342.8 56.48 371.8 53.82 317.8 78.98 365.46 88.82 336.8 98.82 367.13 107.15 351.8 113.82 370.8 123.09 354.8 129.82 372.13" fill="none" stroke="#231f20" stroke-miterlimit="10" stroke-width="2.79"/><polyline points="303.57 205.24 308.57 193.45 317.28 204.38 318.04 179.88 330.3 197.3 335.4 182.13 345.07 197.3 352.98 182.13 362.2 201.56" fill="none" stroke="#231f20" stroke-miterlimit="10" stroke-width="2.79"/><polyline points="314.09 278.74 328.75 252.9 332.88 281.3 340.85 267.1 345.57 284.05 353.64 268.47 362.2 284.05" fill="none" stroke="#231f20" stroke-miterlimit="10" stroke-width="2.79"/><polyline points="312.77 370.3 318.04 340.8 324.96 365.47 340.85 322.8 345.57 357.8 353.64 345.47 360 360.8 369.07 346.55 373.57 362.8" fill="none" stroke="#231f20" stroke-miterlimit="10" stroke-width="2.79"/><path d="M99.32,491.33v-13l12,9L113,473l12.34,9.17L131.65,468l8,15.33,5-11,15,14.67V473.67L172.52,484l10.13-16,7,20s12-14,11.67-12.67S209,494.67,209,494.67l9-11.34L231.65,502l10-11,7.67,11L255,489l9.67,13,4.1-13s10.57,9,11.57,9.33S287.74,488,287.74,488l13.41,12L310,488.67S318.32,503,319.32,502s9-14.33,9-14.33L341,500.33,344.77,487l9.55,7.67,3.11-14,18.55,14,1.67-18.18s15.67,9.89,15.67,8.53,2.33-19.35,2.33-19.35L407,478.33l10.67-14.66,3,16.33,12.67-14.33,5,15.66,13-17.66,6,12.82,11-10.82L477,482.86" transform="translate(-97.93 -71.2)" fill="none" stroke="#231f20" stroke-miterlimit="10" stroke-width="2.79"/><path d="M188.57,79.78S167.91,85.11,149.22,98" transform="translate(-97.93 -71.2)" fill="none" stroke="#231f20" stroke-miterlimit="10" stroke-width="2.79"/><path d="M180.13,91.53s-31.52,11.24-42.36,23.09" transform="translate(-97.93 -71.2)" fill="none" stroke="#231f20" stroke-miterlimit="10" stroke-width="2.79"/><path d="M169.72,105.4s-34,16.86-43,28" transform="translate(-97.93 -71.2)" fill="none" stroke="#231f20" stroke-miterlimit="10" stroke-width="2.79"/><path d="M159.17,122.52s-25.9,15.65-35.16,28" transform="translate(-97.93 -71.2)" fill="none" stroke="#231f20" stroke-miterlimit="10" stroke-width="2.79"/><path d="M155.28,134.82S128.65,158,117,171.68" transform="translate(-97.93 -71.2)" fill="none" stroke="#231f20" stroke-miterlimit="10" stroke-width="2.79"/><path d="M152,148.26s-19.53,26.24-28.68,54" transform="translate(-97.93 -71.2)" fill="none" stroke="#231f20" stroke-miterlimit="10" stroke-width="2.79"/><path d="M159.71,148.35s-11.32,32.76-13,45.89" transform="translate(-97.93 -71.2)" fill="none" stroke="#231f20" stroke-miterlimit="10" stroke-width="2.79"/><path d="M168.42,132.09s-6.47,35.76-3.35,49.75" transform="translate(-97.93 -71.2)" fill="none" stroke="#231f20" stroke-miterlimit="10" stroke-width="2.79"/><path d="M175.81,122.08s-.51,37.27.29,43.05" transform="translate(-97.93 -71.2)" fill="none" stroke="#231f20" stroke-miterlimit="10" stroke-width="2.79"/><path d="M185.44,109.26s-1.83,29-.48,38.4" transform="translate(-97.93 -71.2)" fill="none" stroke="#231f20" stroke-miterlimit="10" stroke-width="2.79"/><path d="M191.63,94.47s.21,27.16,1.91,36.28" transform="translate(-97.93 -71.2)" fill="none" stroke="#231f20" stroke-miterlimit="10" stroke-width="2.79"/><path d="M196.55,85.18s2.66,17.65,5.9,28.33" transform="translate(-97.93 -71.2)" fill="none" stroke="#231f20" stroke-miterlimit="10" stroke-width="2.79"/><path d="M257.86,72.33s-20.09,14.33-24.71,22.4" transform="translate(-97.93 -71.2)" fill="none" stroke="#231f20" stroke-miterlimit="10" stroke-width="2.79"/><path d="M252.85,84.42s-15,12.72-19.7,21.6" transform="translate(-97.93 -71.2)" fill="none" stroke="#231f20" stroke-miterlimit="10" stroke-width="2.79"/><path d="M251.62,92.72s-14.72,17.61-20.79,27.62" transform="translate(-97.93 -71.2)" fill="none" stroke="#231f20" stroke-miterlimit="10" stroke-width="2.79"/><path d="M250.92,101.69s-9.85,18.86-12.87,37.6" transform="translate(-97.93 -71.2)" fill="none" stroke="#231f20" stroke-miterlimit="10" stroke-width="2.79"/><path d="M255.85,101s-3.89,22.21-3.63,30.82" transform="translate(-97.93 -71.2)" fill="none" stroke="#231f20" stroke-miterlimit="10" stroke-width="2.79"/><path d="M259.77,89.61s-.46,23.63,3,32.3" transform="translate(-97.93 -71.2)" fill="none" stroke="#231f20" stroke-miterlimit="10" stroke-width="2.79"/><path d="M263.49,82.42s3.52,24,4.62,27.62" transform="translate(-97.93 -71.2)" fill="none" stroke="#231f20" stroke-miterlimit="10" stroke-width="2.79"/><path d="M268.35,73.19S270.17,92,272,97.9" transform="translate(-97.93 -71.2)" fill="none" stroke="#231f20" stroke-miterlimit="10" stroke-width="2.79"/><path d="M309.57,73.19S307.75,92,305.92,97.9" transform="translate(-97.93 -71.2)" fill="none" stroke="#231f20" stroke-miterlimit="10" stroke-width="2.79"/><path d="M314.43,82.42s-3.52,24-4.62,27.62" transform="translate(-97.93 -71.2)" fill="none" stroke="#231f20" stroke-miterlimit="10" stroke-width="2.79"/><path d="M318.15,89.61s.46,23.63-3,32.3" transform="translate(-97.93 -71.2)" fill="none" stroke="#231f20" stroke-miterlimit="10" stroke-width="2.79"/><path d="M322.07,101s3.89,22.21,3.63,30.82" transform="translate(-97.93 -71.2)" fill="none" stroke="#231f20" stroke-miterlimit="10" stroke-width="2.79"/><path d="M327,101.69s9.85,18.86,12.87,37.6" transform="translate(-97.93 -71.2)" fill="none" stroke="#231f20" stroke-miterlimit="10" stroke-width="2.79"/><path d="M326.3,92.72s14.72,17.61,20.79,27.62" transform="translate(-97.93 -71.2)" fill="none" stroke="#231f20" stroke-miterlimit="10" stroke-width="2.79"/><path d="M325.07,84.42s15,12.72,19.7,21.6" transform="translate(-97.93 -71.2)" fill="none" stroke="#231f20" stroke-miterlimit="10" stroke-width="2.79"/><path d="M320.06,72.33s20.09,14.33,24.71,22.4" transform="translate(-97.93 -71.2)" fill="none" stroke="#231f20" stroke-miterlimit="10" stroke-width="2.79"/><path d="M378.37,85.18s-2.67,17.65-5.9,28.33" transform="translate(-97.93 -71.2)" fill="none" stroke="#231f20" stroke-miterlimit="10" stroke-width="2.79"/><path d="M383.29,94.47s-.21,27.16-1.91,36.28" transform="translate(-97.93 -71.2)" fill="none" stroke="#231f20" stroke-miterlimit="10" stroke-width="2.79"/><path d="M389.48,109.26s1.83,29,.47,38.4" transform="translate(-97.93 -71.2)" fill="none" stroke="#231f20" stroke-miterlimit="10" stroke-width="2.79"/><path d="M399.11,122.08s.5,37.27-.3,43.05" transform="translate(-97.93 -71.2)" fill="none" stroke="#231f20" stroke-miterlimit="10" stroke-width="2.79"/><path d="M406.5,132.09s6.46,35.76,3.35,49.75" transform="translate(-97.93 -71.2)" fill="none" stroke="#231f20" stroke-miterlimit="10" stroke-width="2.79"/><path d="M415.21,148.35s11.32,32.76,13,45.89" transform="translate(-97.93 -71.2)" fill="none" stroke="#231f20" stroke-miterlimit="10" stroke-width="2.79"/><path d="M422.89,148.26s19.53,26.24,28.68,54" transform="translate(-97.93 -71.2)" fill="none" stroke="#231f20" stroke-miterlimit="10" stroke-width="2.79"/><path d="M419.64,134.82s26.62,23.15,38.28,36.86" transform="translate(-97.93 -71.2)" fill="none" stroke="#231f20" stroke-miterlimit="10" stroke-width="2.79"/><path d="M415.75,122.52s25.9,15.65,35.15,28" transform="translate(-97.93 -71.2)" fill="none" stroke="#231f20" stroke-miterlimit="10" stroke-width="2.79"/><path d="M405.2,105.4s34,16.86,43,28" transform="translate(-97.93 -71.2)" fill="none" stroke="#231f20" stroke-miterlimit="10" stroke-width="2.79"/><path d="M394.79,91.53s31.52,11.24,42.36,23.09" transform="translate(-97.93 -71.2)" fill="none" stroke="#231f20" stroke-miterlimit="10" stroke-width="2.79"/><path d="M386.35,79.78S407,85.11,425.7,98" transform="translate(-97.93 -71.2)" fill="none" stroke="#231f20" stroke-miterlimit="10" stroke-width="2.79"/><path d="M208.32,197.34a32.12,32.12,0,0,1-4.22-18c1.23-19.41,20-34,41.86-32.66s38.65,18.24,37.43,37.65a31.69,31.69,0,0,1-3.47,12.54" transform="translate(-97.93 -71.2)" fill="none" stroke="#231f20" stroke-miterlimit="10" stroke-width="2.59"/><line x1="106.35" y1="113.96" x2="118.73" y2="113.76" fill="none" stroke="#231f20" stroke-miterlimit="10" stroke-width="2.59"/><line x1="107.87" y1="99.82" x2="120.77" y2="107.25" fill="none" stroke="#231f20" stroke-miterlimit="10" stroke-width="2.59"/><line x1="114.9" y1="88.17" x2="125.05" y2="99.55" fill="none" stroke="#231f20" stroke-miterlimit="10" stroke-width="2.59"/><line x1="124.48" y1="80.69" x2="132.53" y2="95.32" fill="none" stroke="#231f20" stroke-miterlimit="10" stroke-width="2.59"/><line x1="135.85" y1="76.44" x2="139.57" y2="92.04" fill="none" stroke="#231f20" stroke-miterlimit="10" stroke-width="2.59"/><line x1="149.3" y1="92.66" x2="150.36" y2="75.74" fill="none" stroke="#231f20" stroke-miterlimit="10" stroke-width="2.59"/><line x1="158.35" y1="93.23" x2="164.81" y2="79.99" fill="none" stroke="#231f20" stroke-miterlimit="10" stroke-width="2.59"/><line x1="166.12" y1="98.52" x2="176.94" y2="89.23" fill="none" stroke="#231f20" stroke-miterlimit="10" stroke-width="2.59"/><line x1="172.06" y1="108.77" x2="184.39" y2="106.25" fill="none" stroke="#231f20" stroke-miterlimit="10" stroke-width="2.59"/><path d="M299.13,210.06a32.06,32.06,0,0,1-7.4-16.88c-2.31-19.32,13.47-37.09,35.25-39.7s41.31,10.93,43.63,30.24a31.64,31.64,0,0,1-1.14,13" transform="translate(-97.93 -71.2)" fill="none" stroke="#231f20" stroke-miterlimit="10" stroke-width="2.59"/><line x1="195.02" y1="127.62" x2="207.16" y2="125.19" fill="none" stroke="#231f20" stroke-miterlimit="10" stroke-width="2.59"/><line x1="193.95" y1="113.44" x2="207.99" y2="118.41" fill="none" stroke="#231f20" stroke-miterlimit="10" stroke-width="2.59"/><line x1="198.76" y1="100.71" x2="210.8" y2="110.06" fill="none" stroke="#231f20" stroke-miterlimit="10" stroke-width="2.59"/><line x1="206.83" y1="91.62" x2="217.39" y2="104.54" fill="none" stroke="#231f20" stroke-miterlimit="10" stroke-width="2.59"/><line x1="217.23" y1="85.38" x2="223.72" y2="100.05" fill="none" stroke="#231f20" stroke-miterlimit="10" stroke-width="2.59"/><line x1="233.4" y1="98.89" x2="231.38" y2="82.07" fill="none" stroke="#231f20" stroke-miterlimit="10" stroke-width="2.59"/><line x1="242.41" y1="97.81" x2="246.36" y2="83.62" fill="none" stroke="#231f20" stroke-miterlimit="10" stroke-width="2.59"/><line x1="251" y1="101.61" x2="259.96" y2="90.51" fill="none" stroke="#231f20" stroke-miterlimit="10" stroke-width="2.59"/><line x1="258.7" y1="110.61" x2="270.37" y2="105.91" fill="none" stroke="#231f20" stroke-miterlimit="10" stroke-width="2.59"/></svg>