<?xml version="1.0" encoding="utf-8"?>
<!-- Generator: Adobe Illustrator 21.0.0, SVG Export Plug-In . SVG Version: 6.00 Build 0)  -->
<!DOCTYPE svg PUBLIC "-//W3C//DTD SVG 1.0//EN" "http://www.w3.org/TR/2001/REC-SVG-20010904/DTD/svg10.dtd">
<svg version="1.0" id="Layer_1" xmlns="http://www.w3.org/2000/svg" xmlns:xlink="http://www.w3.org/1999/xlink" x="0px" y="0px"
	 width="288px" height="288px" viewBox="0 0 288 288" enable-background="new 0 0 288 288" xml:space="preserve">
<path fill="none" stroke="#000000" stroke-width="5" stroke-miterlimit="10" d="M83.6,159.3c-2.2-3.4-3.5-7.4-3.5-11.6
	c0-12.8,11.7-23.2,26.2-23.2s26.2,10.4,26.2,23.2c0,3-0.6,5.8-1.8,8.4"/>
<line fill="none" stroke="#000000" stroke-width="5" stroke-miterlimit="10" x1="80.4" y1="151.4" x2="88.6" y2="150.8"/>
<line fill="none" stroke="#000000" stroke-width="5" stroke-miterlimit="10" x1="80.9" y1="142" x2="89.7" y2="146.4"/>
<line fill="none" stroke="#000000" stroke-width="5" stroke-miterlimit="10" x1="85" y1="134.1" x2="92.2" y2="141.1"/>
<line fill="none" stroke="#000000" stroke-width="5" stroke-miterlimit="10" x1="91" y1="128.7" x2="96.9" y2="138"/>
<line fill="none" stroke="#000000" stroke-width="5" stroke-miterlimit="10" x1="98.3" y1="125.5" x2="101.4" y2="135.6"/>
<line fill="none" stroke="#000000" stroke-width="5" stroke-miterlimit="10" x1="107.8" y1="135.6" x2="107.8" y2="124.4"/>
<line fill="none" stroke="#000000" stroke-width="5" stroke-miterlimit="10" x1="113.8" y1="135.6" x2="117.5" y2="126.6"/>
<line fill="none" stroke="#000000" stroke-width="5" stroke-miterlimit="10" x1="119.2" y1="138.8" x2="125.9" y2="132.2"/>
<line fill="none" stroke="#000000" stroke-width="5" stroke-miterlimit="10" x1="123.5" y1="145.3" x2="131.5" y2="143.1"/>
<path fill="none" stroke="#000000" stroke-width="5" stroke-miterlimit="10" d="M158.4,163.6c-2.2-3.4-3.5-7.4-3.5-11.6
	c0-12.8,11.7-23.2,26.2-23.2s26.2,10.4,26.2,23.2c0,3-0.6,5.8-1.8,8.4"/>
<line fill="none" stroke="#000000" stroke-width="5" stroke-miterlimit="10" x1="155.2" y1="155.7" x2="163.4" y2="155.1"/>
<line fill="none" stroke="#000000" stroke-width="5" stroke-miterlimit="10" x1="155.7" y1="146.3" x2="164.5" y2="150.7"/>
<line fill="none" stroke="#000000" stroke-width="5" stroke-miterlimit="10" x1="159.8" y1="138.4" x2="167" y2="145.4"/>
<line fill="none" stroke="#000000" stroke-width="5" stroke-miterlimit="10" x1="165.8" y1="133" x2="171.7" y2="142.3"/>
<line fill="none" stroke="#000000" stroke-width="5" stroke-miterlimit="10" x1="173.1" y1="129.8" x2="176.2" y2="139.9"/>
<line fill="none" stroke="#000000" stroke-width="5" stroke-miterlimit="10" x1="182.6" y1="139.9" x2="182.6" y2="128.7"/>
<line fill="none" stroke="#000000" stroke-width="5" stroke-miterlimit="10" x1="188.6" y1="139.9" x2="192.3" y2="130.9"/>
<line fill="none" stroke="#000000" stroke-width="5" stroke-miterlimit="10" x1="194" y1="143.1" x2="200.7" y2="136.5"/>
<line fill="none" stroke="#000000" stroke-width="5" stroke-miterlimit="10" x1="198.3" y1="149.6" x2="206.3" y2="147.4"/>
</svg>
