<?xml version="1.0" encoding="utf-8"?>
<!-- Generator: Adobe Illustrator 22.1.0, SVG Export Plug-In . SVG Version: 6.00 Build 0)  -->
<!DOCTYPE svg PUBLIC "-//W3C//DTD SVG 1.0//EN" "http://www.w3.org/TR/2001/REC-SVG-20010904/DTD/svg10.dtd">
<svg version="1.0" id="Layer_1" xmlns="http://www.w3.org/2000/svg" xmlns:xlink="http://www.w3.org/1999/xlink" x="0px" y="0px"
	 width="380.3px" height="433.8px" viewBox="0 0 380.3 433.8" enable-background="new 0 0 380.3 433.8" xml:space="preserve">
<title>AdamandEve</title>
<ellipse fill="none" stroke="#231F20" stroke-width="2.79" stroke-miterlimit="10" cx="147.1" cy="153.1" rx="19.3" ry="29.1"/>
<ellipse transform="matrix(0.9855 -0.1697 0.1697 0.9855 -19.4851 41.9905)" fill="none" stroke="#231F20" stroke-width="2.79" stroke-miterlimit="10" cx="235.9" cy="135" rx="19.3" ry="29.1"/>
<path fill="none" stroke="#231F20" stroke-width="2.79" stroke-miterlimit="10" d="M181.4,219.9c0,0,16.7-13.6,7-33.4
	s-12-46.6-12.7-52.5s-3.9-26.7-27.6-27s-31.3,18.1-31.5,33.6s-38.5,37.5-29.2,67.6"/>
<line fill="none" stroke="#231F20" stroke-width="2.79" stroke-miterlimit="10" x1="137.5" y1="178.3" x2="137.5" y2="194.8"/>
<line fill="none" stroke="#231F20" stroke-width="2.79" stroke-miterlimit="10" x1="154.6" y1="179.9" x2="154.6" y2="195.9"/>
<line fill="none" stroke="#231F20" stroke-width="2.79" stroke-miterlimit="10" x1="233.8" y1="162.9" x2="235.9" y2="179"/>
<line fill="none" stroke="#231F20" stroke-width="2.79" stroke-miterlimit="10" x1="248" y1="160" x2="255.3" y2="174.9"/>
<polyline fill="none" stroke="#231F20" stroke-width="2.79" stroke-miterlimit="10" points="120.2,208.3 120.2,194.8 158.2,196 "/>
<path fill="none" stroke="#231F20" stroke-width="2.79" stroke-miterlimit="10" d="M241.3,284c-1.1-4.4-24.6-100.9-24.6-100.9
	l57.3-12.3c0,0,10.2,62.7,13.8,91.4"/>
<line fill="none" stroke="#231F20" stroke-width="2.79" stroke-miterlimit="10" x1="120.2" y1="194.8" x2="113.1" y2="205.2"/>
<polyline fill="none" stroke="#231F20" stroke-width="2.79" stroke-miterlimit="10" points="167.3,199.8 201.9,249.1 214.8,284.5 
	221.8,290.8 225.8,311.3 215.4,315 211.1,299.1 204.1,298.1 204.8,284.5 190.1,253.1 164.1,227.8 162.1,267.8 "/>
<path fill="none" stroke="#231F20" stroke-width="2.79" stroke-miterlimit="10" d="M217.9,187.5c0.1,0.6-3.5,65.1-5,91.2"/>
<path fill="none" stroke="#231F20" stroke-width="2.79" stroke-miterlimit="10" d="M231.8,245.2l-4.7,39.3"/>
<polyline fill="none" stroke="#231F20" stroke-width="2.79" stroke-miterlimit="10" points="294.1,284.5 314.1,234.1 274.1,170.8 
	"/>
<path fill="none" stroke="#231F20" stroke-width="2.79" stroke-miterlimit="10" d="M282.3,277.5l14.8-40.4c0,0-10.5-14.7-16.4-24.9"
	/>
<path fill="none" stroke="#231F20" stroke-width="2.79" stroke-miterlimit="10" d="M289.7,282.7c0,0-5.3,18.1-5.5,19.8h-10.4
	l-3.3-23.7l19.9-1.3l3.7,6.9"/>
<line fill="none" stroke="#231F20" stroke-width="2.79" stroke-miterlimit="10" x1="190.1" y1="253.1" x2="201.9" y2="249.1"/>
<line fill="none" stroke="#231F20" stroke-width="2.79" stroke-miterlimit="10" x1="215.1" y1="250.3" x2="230.6" y2="255.5"/>
<line fill="none" stroke="#231F20" stroke-width="2.79" stroke-miterlimit="10" x1="297.1" y1="237.1" x2="314.1" y2="234.1"/>
<path fill="none" stroke="#231F20" stroke-width="2.79" stroke-miterlimit="10" d="M131.5,226.4l-8.4-16.8l-28.5-12.2l7.8,21.2
	c0,0,16.1,11.6,17.4,11.2"/>
<path fill="none" stroke="#231F20" stroke-width="2.79" stroke-miterlimit="10" d="M174.9,421.2c-1-17.5-3.8-58.4-3.8-58.4
	l-32.7-45.7l-5.3-52.7H95.4l-2.7-10.3l27-24.3l19.3-5.7l4.4-17.3l24.6-18l-2,27.7l-13.7,14.7l9.7,36.7l23,16.7h20.3"/>
<path fill="none" stroke="#231F20" stroke-width="2.79" stroke-miterlimit="10" d="M214.4,284.5h58"/>
<path fill="none" stroke="#231F20" stroke-width="2.79" stroke-miterlimit="10" d="M289.1,284.5h11l11,27l-9,45.3l7.3,48.9"/>
<path fill="none" stroke="#231F20" stroke-width="2.79" stroke-miterlimit="10" d="M195.5,421.8l-0.4-56.3l44.3,5.3l37.6-5.3
	l13.1,46.2"/>
<path fill="none" stroke="#231F20" stroke-width="2.79" stroke-miterlimit="10" d="M268,366.8l10.5,52.4"/>
<line fill="none" stroke="#231F20" stroke-width="2.79" stroke-miterlimit="10" x1="210.6" y1="367.3" x2="205.2" y2="426"/>
<polyline fill="none" stroke="#231F20" stroke-width="2.79" stroke-miterlimit="10" points="301.5,288 311.1,289.8 320.1,308 
	307.8,328 "/>
<path fill="none" stroke="#231F20" stroke-width="2.79" stroke-miterlimit="10" d="M10.1,216.8c0.3-1.7,8.3-15.2,8.3-15.2
	s4.7,15.6,6,15.2s15.4-19.5,15.4-19.5l1.9,23.8l9-7.6c0,0,8.7,17.6,9,16.3s6.5-16.2,6.5-16.2l11,17.5l4.2-14l7.2,8.7"/>
<polyline fill="none" stroke="#231F20" stroke-width="2.79" stroke-miterlimit="10" points="33.9,302.2 29.9,284.5 46.3,293.4 
	44.3,265.9 63.6,286.5 74.9,272.2 79.6,289.8 88.9,281.9 95.9,296.9 101.9,282.5 111.1,297.2 "/>
<polyline fill="none" stroke="#231F20" stroke-width="2.79" stroke-miterlimit="10" points="38.5,381.1 29.5,342.8 56.5,371.8 
	53.8,317.8 79,365.5 88.8,336.8 98.8,367.1 107.2,351.8 113.8,370.8 123.1,354.8 129.8,372.1 "/>
<polyline fill="none" stroke="#231F20" stroke-width="2.79" stroke-miterlimit="10" points="303.6,205.2 308.6,193.4 317.3,204.4 
	318,179.9 330.3,197.3 335.4,182.1 345.1,197.3 353,182.1 362.2,201.6 "/>
<polyline fill="none" stroke="#231F20" stroke-width="2.79" stroke-miterlimit="10" points="314.1,278.7 328.8,252.9 332.9,281.3 
	340.9,267.1 345.6,284 353.6,268.5 362.2,284 "/>
<polyline fill="none" stroke="#231F20" stroke-width="2.79" stroke-miterlimit="10" points="312.8,370.3 318,340.8 325,365.5 
	340.9,322.8 345.6,357.8 353.6,345.5 360,360.8 369.1,346.5 373.6,362.8 "/>
<path fill="none" stroke="#231F20" stroke-width="2.79" stroke-miterlimit="10" d="M1.4,420.1v-13l12,9l1.7-14.3l12.3,9.2l6.3-14.2
	l8,15.3l5-11l15,14.7v-13.3l12.9,10.3l10.1-16l7,20c0,0,12-14,11.7-12.7c-0.3,1.3,7.7,19.3,7.7,19.3l9-11.3l13.7,18.7l10-11l7.7,11
	l5.7-13l9.7,13l4.1-13c0,0,10.6,9,11.6,9.3c1,0.3,7.4-10.3,7.4-10.3l13.4,12l8.9-11.3c0,0,8.3,14.3,9.3,13.3s9-14.3,9-14.3
	l12.7,12.7l3.8-13.3l9.5,7.7l3.1-14l18.5,14l1.7-18.2c0,0,15.7,9.9,15.7,8.5c0-1.4,2.3-19.3,2.3-19.3l11.4,12.7l10.7-14.7l3,16.3
	l12.7-14.3l5,15.7l13-17.7l6,12.8l11-10.8l8.7,17.2"/>
<path fill="none" stroke="#231F20" stroke-width="2.79" stroke-miterlimit="10" d="M90.6,8.6c0,0-20.7,5.3-39.4,18.2"/>
<path fill="none" stroke="#231F20" stroke-width="2.79" stroke-miterlimit="10" d="M82.2,20.3c0,0-31.5,11.2-42.4,23.1"/>
<path fill="none" stroke="#231F20" stroke-width="2.79" stroke-miterlimit="10" d="M71.8,34.2c0,0-34,16.9-43,28"/>
<path fill="none" stroke="#231F20" stroke-width="2.79" stroke-miterlimit="10" d="M61.2,51.3c0,0-25.9,15.7-35.2,28"/>
<path fill="none" stroke="#231F20" stroke-width="2.79" stroke-miterlimit="10" d="M57.3,63.6c0,0-26.6,23.2-38.3,36.9"/>
<path fill="none" stroke="#231F20" stroke-width="2.79" stroke-miterlimit="10" d="M54.1,77.1c0,0-19.5,26.2-28.7,54"/>
<path fill="none" stroke="#231F20" stroke-width="2.79" stroke-miterlimit="10" d="M61.8,77.2c0,0-11.3,32.8-13,45.9"/>
<path fill="none" stroke="#231F20" stroke-width="2.79" stroke-miterlimit="10" d="M70.5,60.9c0,0-6.5,35.8-3.4,49.8"/>
<path fill="none" stroke="#231F20" stroke-width="2.79" stroke-miterlimit="10" d="M77.9,50.9c0,0-0.5,37.3,0.3,43.1"/>
<path fill="none" stroke="#231F20" stroke-width="2.79" stroke-miterlimit="10" d="M87.5,38.1c0,0-1.8,29-0.5,38.4"/>
<path fill="none" stroke="#231F20" stroke-width="2.79" stroke-miterlimit="10" d="M93.7,23.3c0,0,0.2,27.2,1.9,36.3"/>
<path fill="none" stroke="#231F20" stroke-width="2.79" stroke-miterlimit="10" d="M98.6,14c0,0,2.7,17.7,5.9,28.3"/>
<path fill="none" stroke="#231F20" stroke-width="2.79" stroke-miterlimit="10" d="M159.9,1.1c0,0-20.1,14.3-24.7,22.4"/>
<path fill="none" stroke="#231F20" stroke-width="2.79" stroke-miterlimit="10" d="M154.9,13.2c0,0-15,12.7-19.7,21.6"/>
<path fill="none" stroke="#231F20" stroke-width="2.79" stroke-miterlimit="10" d="M153.7,21.5c0,0-14.7,17.6-20.8,27.6"/>
<path fill="none" stroke="#231F20" stroke-width="2.79" stroke-miterlimit="10" d="M153,30.5c0,0-9.9,18.9-12.9,37.6"/>
<path fill="none" stroke="#231F20" stroke-width="2.79" stroke-miterlimit="10" d="M157.9,29.8c0,0-3.9,22.2-3.6,30.8"/>
<path fill="none" stroke="#231F20" stroke-width="2.79" stroke-miterlimit="10" d="M161.8,18.4c0,0-0.5,23.6,3,32.3"/>
<path fill="none" stroke="#231F20" stroke-width="2.79" stroke-miterlimit="10" d="M165.6,11.2c0,0,3.5,24,4.6,27.6"/>
<path fill="none" stroke="#231F20" stroke-width="2.79" stroke-miterlimit="10" d="M170.4,2c0,0,1.8,18.8,3.6,24.7"/>
<path fill="none" stroke="#231F20" stroke-width="2.79" stroke-miterlimit="10" d="M211.6,2c0,0-1.8,18.8-3.6,24.7"/>
<path fill="none" stroke="#231F20" stroke-width="2.79" stroke-miterlimit="10" d="M216.5,11.2c0,0-3.5,24-4.6,27.6"/>
<path fill="none" stroke="#231F20" stroke-width="2.79" stroke-miterlimit="10" d="M220.2,18.4c0,0,0.5,23.6-3,32.3"/>
<path fill="none" stroke="#231F20" stroke-width="2.79" stroke-miterlimit="10" d="M224.1,29.8c0,0,3.9,22.2,3.6,30.8"/>
<path fill="none" stroke="#231F20" stroke-width="2.79" stroke-miterlimit="10" d="M229.1,30.5c0,0,9.9,18.9,12.9,37.6"/>
<path fill="none" stroke="#231F20" stroke-width="2.79" stroke-miterlimit="10" d="M228.4,21.5c0,0,14.7,17.6,20.8,27.6"/>
<path fill="none" stroke="#231F20" stroke-width="2.79" stroke-miterlimit="10" d="M227.1,13.2c0,0,15,12.7,19.7,21.6"/>
<path fill="none" stroke="#231F20" stroke-width="2.79" stroke-miterlimit="10" d="M222.1,1.1c0,0,20.1,14.3,24.7,22.4"/>
<path fill="none" stroke="#231F20" stroke-width="2.79" stroke-miterlimit="10" d="M280.4,14c0,0-2.7,17.7-5.9,28.3"/>
<path fill="none" stroke="#231F20" stroke-width="2.79" stroke-miterlimit="10" d="M285.4,23.3c0,0-0.2,27.2-1.9,36.3"/>
<path fill="none" stroke="#231F20" stroke-width="2.79" stroke-miterlimit="10" d="M291.6,38.1c0,0,1.8,29,0.5,38.4"/>
<path fill="none" stroke="#231F20" stroke-width="2.79" stroke-miterlimit="10" d="M301.2,50.9c0,0,0.5,37.3-0.3,43.1"/>
<path fill="none" stroke="#231F20" stroke-width="2.79" stroke-miterlimit="10" d="M308.6,60.9c0,0,6.5,35.8,3.4,49.8"/>
<path fill="none" stroke="#231F20" stroke-width="2.79" stroke-miterlimit="10" d="M317.3,77.2c0,0,11.3,32.8,13,45.9"/>
<path fill="none" stroke="#231F20" stroke-width="2.79" stroke-miterlimit="10" d="M325,77.1c0,0,19.5,26.2,28.7,54"/>
<path fill="none" stroke="#231F20" stroke-width="2.79" stroke-miterlimit="10" d="M321.7,63.6c0,0,26.6,23.1,38.3,36.9"/>
<path fill="none" stroke="#231F20" stroke-width="2.79" stroke-miterlimit="10" d="M317.8,51.3c0,0,25.9,15.7,35.1,28"/>
<path fill="none" stroke="#231F20" stroke-width="2.79" stroke-miterlimit="10" d="M307.3,34.2c0,0,34,16.9,43,28"/>
<path fill="none" stroke="#231F20" stroke-width="2.79" stroke-miterlimit="10" d="M296.9,20.3c0,0,31.5,11.2,42.4,23.1"/>
<path fill="none" stroke="#231F20" stroke-width="2.79" stroke-miterlimit="10" d="M288.4,8.6c0,0,20.6,5.3,39.4,18.2"/>
</svg>
