<?xml version="1.0" encoding="utf-8"?>
<!-- Generator: Adobe Illustrator 22.1.0, SVG Export Plug-In . SVG Version: 6.00 Build 0)  -->
<!DOCTYPE svg PUBLIC "-//W3C//DTD SVG 1.0//EN" "http://www.w3.org/TR/2001/REC-SVG-20010904/DTD/svg10.dtd">
<svg version="1.0" id="Layer_1" xmlns="http://www.w3.org/2000/svg" xmlns:xlink="http://www.w3.org/1999/xlink" x="0px" y="0px"
	 width="288px" height="288px" viewBox="0 0 288 288" enable-background="new 0 0 288 288" xml:space="preserve">
<g id="Layer_2_2_">
	<g id="Layer_2_1_">
		<g>
			<path fill="#FFFFFF" d="M52.7,202.7l-1.6-43.9l1.7-17l0-0.1c0-0.1-0.9-5.6-1.6-10.4c-0.7-4.6,2.9-15.1,3-15.2
				c0.5-1.9,2.2-7.1,3.8-8.6c2.2-2.1,8.9-11.5,9.2-11.9l0.6-0.8l-3.9-1.3l3.2-8.8h7.4l4.2,2.8v5.3c-0.5,0.3-1.4,1.2-2.9,3.4l-5-0.2
				l-0.2,0.4c0,0.1-3.5,6.7-6.1,11.5c-2.6,4.9-4.2,18.2-4.3,18.8c-0.2,1.3-1.3,8.1-1.3,8.8c0,0.6,0,1.3,7,2.4l1,0.2l-0.2-1
				c-0.4-2.4-1-6.4-0.9-7.1c0.1-1.1,0.3-2.3,0.8-4.5c0.3-1.4,3.5-4.1,5.4-5.5c1.7-0.6,3.8-1.3,4.3-1.3c0.4,0.1,2.6,1.7,3.8,2.6
				c1.2,0.9,1.7,1.2,2,1.4c0.5,1.1,1.7,7.9,1.7,11.3c0.1,2.8-4.6,6.2-6.4,7.3l-1.3,0.8l8.2,3.1l-1.5,11.1l7.1,15.4l12.2-9.5l-4.2-2
				l-0.2-3.1c2.5-1.2,5.1-2.4,6-2.8c0.7,1,2.5,4.8,4.1,8.3l-16.6,17.9l-9-7.4v16.2l2.5,13.6H52.7z"/>
			<path d="M74.3,85.3l3.7,2.5v4.5c-0.6,0.5-1.4,1.4-2.5,3l-4.1-0.2l-0.9,0L70,95.9c0,0.1-3.5,6.7-6.1,11.5
				c-2.7,4.9-4.3,18.1-4.4,19c-0.5,3-1.3,8.2-1.3,8.9c0,1.2,0.5,2.1,7.7,3.2l2,0.3l-0.3-2c-0.5-2.8-0.9-6.3-0.9-6.9
				c0.1-1.1,0.3-2.3,0.8-4.4c0.2-1,2.8-3.4,5-5c1.4-0.5,3.1-1.1,3.7-1.2c0.7,0.4,2.5,1.7,3.6,2.4c1,0.7,1.5,1.1,1.9,1.3
				c0.5,1.5,1.5,7.5,1.5,10.9c0.1,2-3.5,5.1-6.1,6.6l-2.7,1.6l2.9,1.1l6.2,2.4l-1.3,10.3l-0.1,0.4l0.2,0.4l6.6,14.3l0.8,1.7l1.5-1.2
				l10.5-8.2l1.9-1.5l-2.2-1.1l-2.7-1.3l-0.2-2.1c1.9-0.9,3.8-1.8,4.9-2.3c0.8,1.4,2.2,4.4,3.5,7.2l-15.8,17l-7.2-5.9l-2.5-2v3.2
				V189v0.1l0,0.1l2.3,12.6H53.4l-1.5-43.2l1.7-16.9l0-0.2l0-0.2c0-0.1-0.9-5.6-1.6-10.4c-0.5-3.6,1.9-12,2.9-14.9l0,0l0,0
				c0.7-2.5,2.3-7,3.6-8.2c2.3-2.2,9-11.6,9.3-12l1.2-1.7l-1.9-0.6l-2.2-0.7l2.8-7.6H74.3 M74.8,83.8h-8.2l-3.7,10l3.7,1.2
				c0,0-6.9,9.7-9.1,11.8c-2.1,2-4,8.9-4,8.9s-3.7,10.8-3,15.6s1.6,10.4,1.6,10.4l-1.7,17l1.6,44.7h33.7L83.1,189v-14.5l8.3,6.8
				l17.4-18.8c0,0-4.2-9.3-4.8-9.3c0,0,0,0,0,0c-0.7,0.1-7,3.2-7,3.2l0.3,4l3.5,1.7l-10.5,8.2L83.7,156l1.5-11.5l-7.3-2.8
				c0,0,6.9-4.1,6.8-7.9c0-3.8-1.4-11.7-1.9-11.9c-0.5-0.2-5.6-4.1-6.3-4.2c0,0,0,0-0.1,0c-0.9,0-4.6,1.4-4.6,1.4s-5.3,3.7-5.8,6
				s-0.7,3.5-0.8,4.6c-0.1,1.1,0.9,7.3,0.9,7.3s-6.4-1-6.4-1.7c0-0.7,1.3-8.7,1.3-8.7s1.6-13.7,4.2-18.5c2.6-4.8,6.1-11.5,6.1-11.5
				l5,0.2c0,0,2.3-3.6,3.1-3.6c0,0,0,0,0.1,0V87L74.8,83.8L74.8,83.8z"/>
		</g>
		<g>
			<path fill="#FFFFFF" d="M203.2,202.7l2.5-13.6v-16.2l-9,7.4l-16.6-17.9c1.6-3.5,3.4-7.3,4.1-8.3c1,0.4,3.6,1.6,6,2.8l-0.2,3.1
				l-4.2,2l12.2,9.5l7.2-15.2l-1.5-11.1l8.2-3.1l-1.3-0.8c-1.8-1.1-6.5-4.5-6.4-7.2c0.1-3.5,1.2-10.2,1.7-11.3
				c0.3-0.2,0.8-0.6,2-1.4c1.2-0.9,3.5-2.5,3.9-2.6c0.4,0,2.5,0.7,4.2,1.3c2,1.4,5.1,4,5.4,5.5c0.5,2.2,0.7,3.4,0.8,4.5
				c0.1,0.7-0.6,4.7-1,7l-0.2,1l1-0.2c7-1.1,7-1.8,7-2.4c0-0.7-1.1-7.5-1.3-8.8c-0.1-0.5-1.6-13.9-4.3-18.7
				c-2.6-4.7-6.1-11.4-6.1-11.5l-0.2-0.4l-5.1,0.2c0-0.1-0.1-0.1-0.1-0.2c-1.2-1.7-2-2.8-2.8-3.2v-5.3l4.2-2.8h7.4l3.2,8.8l-3.9,1.3
				l0.6,0.8c0.3,0.4,7,9.8,9.2,11.9c1.6,1.5,3.3,6.7,3.8,8.6c0,0.2,3.6,10.7,3,15.3c-0.7,4.7-1.6,10.3-1.6,10.4l0,0.1l1.7,17
				l-1.6,43.9H203.2z"/>
			<path d="M220.4,85.3l2.8,7.6l-2.2,0.7l-1.9,0.6l1.2,1.7c0.3,0.4,7,9.8,9.3,12c1.3,1.2,2.9,5.7,3.6,8.2l0,0l0,0
				c1,2.9,3.5,11.3,2.9,14.9c-0.7,4.7-1.6,10.3-1.6,10.4l0,0.2l0,0.2l1.7,16.9l-1.5,43.2h-30.4l2.4-12.6l0-0.1V189v-14.5v-3.2
				l-2.5,2l-7.2,5.9l-15.8-17c1.3-2.8,2.7-5.9,3.5-7.2c1.1,0.5,3,1.4,4.9,2.3l-0.2,2.1l-2.7,1.3l-2.2,1.1l1.9,1.5l10.5,8.2l1.5,1.2
				l0.8-1.7l6.7-14.2l0.2-0.4l-0.1-0.4l-1.3-10.3l6.2-2.4l2.9-1.1l-2.7-1.6c-2-1.2-6.1-4.4-6.1-6.6c0.1-3.4,1.1-9.4,1.5-10.9
				c0.4-0.2,0.9-0.6,1.8-1.3c1-0.7,2.8-2,3.6-2.4c0.7,0.1,2.3,0.7,3.7,1.2c2.3,1.6,4.8,4,5,5c0.5,2.1,0.7,3.3,0.8,4.4
				c0,0.6-0.5,4-1,6.8l-0.4,2.1l2.1-0.3c7.2-1.1,7.7-1.9,7.7-3.2c0-0.7-0.8-5.9-1.3-8.9c-0.1-0.9-1.7-14.1-4.4-19
				c-2.6-4.7-6.1-11.4-6.1-11.5l-0.4-0.8l-0.9,0l-4.2,0.2c-1-1.4-1.8-2.4-2.5-3v-4.5l3.7-2.5H220.4 M221.4,83.8h-8.2l-4.7,3.2v6.3
				c0,0,0.1,0,0.1,0c1,0,3.1,3.5,3.2,3.5l5-0.2c0,0,3.5,6.7,6.1,11.5c2.6,4.8,4.2,18.5,4.2,18.5s1.3,8,1.3,8.7S222,137,222,137
				s1.1-6.1,1-7.2c-0.1-1.1-0.3-2.3-0.8-4.6c-0.5-2.3-5.8-6-5.8-6s-3.7-1.4-4.6-1.4c0,0-0.1,0-0.1,0c-0.7,0.1-5.8,4-6.3,4.2
				c-0.5,0.2-1.8,8.1-1.9,11.9s6.8,7.9,6.8,7.9l-7.3,2.8l1.5,11.5l-6.7,14.2l-10.5-8.2l3.5-1.7l0.3-4c0,0-6.3-3.1-7-3.2c0,0,0,0,0,0
				c-0.6,0-4.8,9.3-4.8,9.3l17.4,18.8l8.3-6.8V189l-2.7,14.4H236l1.6-44.7l-1.7-17c0,0,0.9-5.6,1.6-10.4s-3-15.6-3-15.6
				s-1.9-6.9-4-8.9c-2.2-2.1-9.1-11.8-9.1-11.8l3.7-1.2L221.4,83.8L221.4,83.8z"/>
		</g>
		<g>
			<path fill="#FFFFFF" d="M136.7,199.8l-2.5-51.5h-0.7c-5.1,0-11.4-8.1-11.5-8.2l-5.2-8.1l-2.7-6.6l14.1-29.6l7.6,2.8l1.5,3.4
				l-1.6,4.9H130l-8.9,19l12.6,13.3l8.7-1.7l-1.9-8.7c0-0.7,0.2-5.1,0.8-8.1c0.6-2.9,4.7-4.4,4.7-4.5l0,0c0,0,0.9-0.3,3.5-0.7
				c0.1,0,0.2,0,0.3,0c1.8,0,3.5,2.3,4.1,3.3c0.3,0.8,2.4,7.5,2.5,10.8c0,3.3-2.5,6.3-2.5,6.3l-0.8,1l10.5,2l11.6-12.9l-8.7-19h-5.7
				l-1.4-4.2l1.5-4.2l7.3-2.8l14,29.5l-5.9,12.3l-6,6.5l-8.1,4.4l0.5,51.2H136.7z"/>
			<path d="M128.6,96.7l6.6,2.5l1.2,2.9l-1.3,4.1h-4.6h-1l-0.4,0.9l-8.5,18.1l-0.4,0.9l0.7,0.7l12,12.6l0.6,0.6l0.8-0.2l7.5-1.5
				l1.5-0.3l-0.3-1.5l-1.8-7.8c0-0.9,0.2-5.1,0.8-7.8c0.4-2,3.2-3.5,4.2-3.9c0.2,0,1.1-0.3,3.4-0.6c0.1,0,0.1,0,0.2,0
				c1.3,0,2.8,1.9,3.4,2.9c0.7,2.2,2.4,7.8,2.5,10.5c0,3-2.3,5.8-2.3,5.8l-1.6,2l2.5,0.5l8.8,1.7l0.8,0.2l0.6-0.6l11-12.2l0.7-0.7
				l-0.4-0.9l-8.3-18.1l-0.4-0.9h-1h-4.7l-1.2-3.5l1.3-3.7l6.4-2.5l13.6,28.6l-5.7,11.9l-5.9,6.4l-7.6,4.1l-0.8,0.4l0,0.9l0.5,50
				h-24.5l-2.4-50.1l-0.1-1.4h-1.4c-3.9,0-9.1-5.6-10.9-7.9l-5.2-8l-2.5-6.3L128.6,96.7 M127.8,94.8l-14.5,30.5l2.8,7l5.3,8.2
				c0,0,6.6,8.5,12.1,8.5l2.5,51.5h27.4l-0.5-51.5l7.8-4.2l6.2-6.7l6.1-12.7l-14.5-30.5l-8.3,3.2l-1.7,4.8l1.7,5h5.8l8.3,18.1
				l-11,12.2l-8.8-1.7c0,0,2.7-3.2,2.7-6.8c-0.1-3.6-2.6-11.1-2.6-11.1s-2.2-3.7-4.8-3.7c-0.1,0-0.3,0-0.4,0
				c-2.8,0.4-3.7,0.7-3.7,0.7s-4.5,1.7-5.2,5c-0.7,3.3-0.8,8.3-0.8,8.3l1.8,8l-7.5,1.5l-12-12.6l8.5-18.1h5.7l1.8-5.7l-1.7-4
				L127.8,94.8L127.8,94.8z"/>
		</g>
	</g>
</g>
<g id="Layer_4">
	<g id="Layer_3">
		<path fill="none" stroke="#000000" stroke-width="20" stroke-miterlimit="10" stroke-opacity="0" d="M48.3,79
			c18.2,2.1,36.6,2.3,55,2.5c48.8,0.6,97.6,1.2,146.4,1.8c-69.2-1.4-138.7-2.7-207.6,4c71.9,6.2,144.1,7.4,216.1,3.7
			c-44,0.9-88,1.9-132,3c-27.1,0.7-54.3,1.5-80.8,7.1c64.2,0.2,128.4,0.5,192.6,0.7c-25.2,2.6-50.6,3.1-75.9,3.5
			c-40.8,0.7-81.7,1.4-122.5,2.2c67,4.8,134.1,6.8,201.3,6.2c-30.1-3.3-60.5-2.1-90.7-0.8c-39.3,1.6-78.5,3.2-117.8,4.8
			c69.6,7.1,141.3,0,209.8,5.4c-18.9,5-38.6,6.1-58.1,6.9c-47.5,2-95.1,2.7-142.6,2.2c27.3,11.3,57.8,11,87.3,10.6
			c34.3-0.5,68.7-0.9,103-1.4c-14.4,3.3-29.3,4.3-44.1,5.1c-48.9,2.5-97.9,1.6-146.9,0.7c66.8,12.2,135.4,1.7,203.2,3.7
			c-67.1,4-134.2,5-201.4,6c67.5,9.3,135.9,6.5,203.9,3.1c-73.8,12.9-149.5,4.6-224.4,5c39,7.4,78.7,12.5,118.4,10.4
			c17.3-0.9,34.6-3.2,51.9-4.9c19.7-1.9,39.5-3.1,59.4-3.6c-1.9,3.5-6.5,4.2-10.4,4.4c-60.3,4-120.8,2.1-181.2,4.6
			c-7.1,0.3-14.6,0.8-20.4,4.9c65.5,2.9,131.2,1.7,196.6-3.6c-19.3,2.1-38.7,1.5-58.1,1.4c-50.4-0.3-100.7,2.3-150.9,6.2
			c46.2,7,92.8,13.7,139.5,10.9c26.2-1.5,52.3-6,78.4-4.2c-59.5,2.6-119.1,3.8-178.7,3.6c-8,0-16.3,0-23.7,3.2
			c41.3,3.6,82.9,4.2,124.3,2c15-0.8,30.1-2,45.1-1.3c13.2,0.6,26.5,2.6,39.6,1.4"/>
	</g>
</g>
</svg>
