<svg id="Layer_1" data-name="Layer 1" xmlns="http://www.w3.org/2000/svg" viewBox="0 0 365.17 390.9"><title>BeachGuy</title><ellipse cx="237.49" cy="291.63" rx="15.5" ry="25.13" transform="translate(-202.93 26.62) rotate(-23.68)" fill="none" stroke="#231f20" stroke-miterlimit="10" stroke-width="2.79"/><line x1="135.13" y1="221.85" x2="137.95" y2="230.2" fill="none" stroke="#231f20" stroke-miterlimit="10" stroke-width="2.79"/><line x1="145.82" y1="218.07" x2="149.86" y2="225.05" fill="none" stroke="#231f20" stroke-miterlimit="10" stroke-width="2.79"/><polygon points="126.86 235 159.19 221 172.86 278.12 151.19 294.47 126.86 235" fill="none" stroke="#231f20" stroke-miterlimit="10" stroke-width="2.79"/><polyline points="118.39 206.42 95.53 239.34 135.13 255.23" fill="none" stroke="#231f20" stroke-miterlimit="10" stroke-width="2.79"/><polyline points="126.86 235 111.53 232.67 123.03 213.59" fill="none" stroke="#231f20" stroke-miterlimit="10" stroke-width="2.79"/><line x1="111.53" y1="232.67" x2="95.53" y2="239.34" fill="none" stroke="#231f20" stroke-miterlimit="10" stroke-width="2.79"/><polyline points="159.98 224.3 181.51 250.97 200.38 240.92 207.16 239.34" fill="none" stroke="#231f20" stroke-miterlimit="10" stroke-width="2.79"/><polyline points="166.53 251.67 179.94 265.17 201.94 253.42 204.57 255.23 208.57 255.23" fill="none" stroke="#231f20" stroke-miterlimit="10" stroke-width="2.79"/><polyline points="202.95 244.26 213.28 243.35 213.28 247.35 205.79 248.5 205.03 252.1" fill="none" stroke="#231f20" stroke-miterlimit="10" stroke-width="2.79"/><path d="M313.81,341.3l.94,8.7a9.25,9.25,0,0,0,10.37,0l3.38-32.37H311.25l2.15,19.88" transform="translate(-105.8 -93.33)" fill="none" stroke="#231f20" stroke-miterlimit="10" stroke-width="2.79"/><polyline points="221.02 240.42 224.94 241.29 224.94 250.97 219.56 254.43" fill="none" stroke="#231f20" stroke-miterlimit="10" stroke-width="2.79"/><polygon points="201.13 217.42 217.9 213.82 208.12 207.19 201.13 217.42" fill="none" stroke="#231f20" stroke-miterlimit="10" stroke-width="2.79"/><path d="M315.45,309.43c.41.8,2.58,7.72,2.58,7.72" transform="translate(-105.8 -93.33)" fill="none" stroke="#231f20" stroke-miterlimit="10" stroke-width="2.79"/><polyline points="172.86 287.07 275.53 314.67 297.19 296 303.86 313.04 275.19 326.34 152.53 305.67 151.19 294.47" fill="none" stroke="#231f20" stroke-miterlimit="10" stroke-width="2.79"/><polyline points="172.86 278.12 227.53 276.67 267.19 305.67 286.53 293 290.19 300.67" fill="none" stroke="#231f20" stroke-miterlimit="10" stroke-width="2.79"/><polyline points="202.95 295.16 224.94 291.17 249.75 307.74" fill="none" stroke="#231f20" stroke-miterlimit="10" stroke-width="2.79"/><line x1="200.4" y1="294.47" x2="194.78" y2="312.79" fill="none" stroke="#231f20" stroke-miterlimit="10" stroke-width="2.79"/><line x1="197.59" y1="278.12" x2="196.19" y2="293.34" fill="none" stroke="#231f20" stroke-miterlimit="10" stroke-width="2.79"/><path d="M211.1,336.05l26.39,75.62,172.17,26L405,455.9,225,429.33,183.33,300.52l13.33-5.85L221.51,293" transform="translate(-105.8 -93.33)" fill="none" stroke="#231f20" stroke-miterlimit="10" stroke-width="2.79"/><path d="M196.66,294.67l10.14,29.07" transform="translate(-105.8 -93.33)" fill="none" stroke="#231f20" stroke-miterlimit="10" stroke-width="2.79"/><line x1="303.86" y1="344.34" x2="288.94" y2="319.96" fill="none" stroke="#231f20" stroke-miterlimit="10" stroke-width="2.79"/><line x1="131.69" y1="318.34" x2="119.19" y2="336" fill="none" stroke="#231f20" stroke-miterlimit="10" stroke-width="2.79"/><polyline points="128.54 337.38 133.19 378.84 141.19 378.84 143.28 339.56" fill="none" stroke="#231f20" stroke-miterlimit="10" stroke-width="2.79"/><polyline points="281.53 360.57 283.52 389.5 290.52 389.5 294.54 361.89" fill="none" stroke="#231f20" stroke-miterlimit="10" stroke-width="2.79"/><path d="M194,211.3s-41.5,84.33-53.5,204.26c0,0,12,17.27,34.5,4.11,0,0,5.3-53.23,12.65-106.17" transform="translate(-105.8 -93.33)" fill="none" stroke="#231f20" stroke-miterlimit="10" stroke-width="2.79"/><path d="M189.85,298c5.2-35.26,11.18-68,17-81.92" transform="translate(-105.8 -93.33)" fill="none" stroke="#231f20" stroke-miterlimit="10" stroke-width="2.79"/><path d="M185.87,232.61s3.71,4.6,14.92,4" transform="translate(-105.8 -93.33)" fill="none" stroke="#231f20" stroke-miterlimit="10" stroke-width="2"/><path d="M177.25,252.92s6.25,12.25,19.41,5.76" transform="translate(-105.8 -93.33)" fill="none" stroke="#231f20" stroke-miterlimit="10" stroke-width="2"/><path d="M168.05,280s10.16,9.45,23.72,5.38" transform="translate(-105.8 -93.33)" fill="none" stroke="#231f20" stroke-miterlimit="10" stroke-width="2"/><path d="M160.67,305.63a25.38,25.38,0,0,0,27.26,5.77" transform="translate(-105.8 -93.33)" fill="none" stroke="#231f20" stroke-miterlimit="10" stroke-width="2"/><path d="M153.11,336.68s9.38,11.1,30.88,4.38" transform="translate(-105.8 -93.33)" fill="none" stroke="#231f20" stroke-miterlimit="10" stroke-width="2"/><path d="M147.25,366.42s17.9,11.25,33,3.58" transform="translate(-105.8 -93.33)" fill="none" stroke="#231f20" stroke-miterlimit="10" stroke-width="2"/><path d="M143.17,392.78s18.35,13.89,34.08,2.55" transform="translate(-105.8 -93.33)" fill="none" stroke="#231f20" stroke-miterlimit="10" stroke-width="2"/><path d="M183.78,191a88.87,88.87,0,0,0-27.13-4.23" transform="translate(-105.8 -93.33)" fill="none" stroke="#231f20" stroke-miterlimit="10" stroke-width="2"/><path d="M175.21,194.19s-20.57-5.14-30.44-2.69" transform="translate(-105.8 -93.33)" fill="none" stroke="#231f20" stroke-miterlimit="10" stroke-width="2"/><path d="M164.85,197.85s-23.84-3-32.47-.32" transform="translate(-105.8 -93.33)" fill="none" stroke="#231f20" stroke-miterlimit="10" stroke-width="2"/><path d="M153.28,203.18s-19.15-.85-28.37,2.42" transform="translate(-105.8 -93.33)" fill="none" stroke="#231f20" stroke-miterlimit="10" stroke-width="2"/><path d="M146.91,208.29s-22.17,2.86-33.13,6" transform="translate(-105.8 -93.33)" fill="none" stroke="#231f20" stroke-miterlimit="10" stroke-width="2"/><path d="M140.48,214.24s-19.51,7-34.06,18.37" transform="translate(-105.8 -93.33)" fill="none" stroke="#231f20" stroke-miterlimit="10" stroke-width="2"/><path d="M144.49,217s-17.47,13.3-23,19.63" transform="translate(-105.8 -93.33)" fill="none" stroke="#231f20" stroke-miterlimit="10" stroke-width="2"/><path d="M154.79,211.46s-16,16.59-19.23,25.06" transform="translate(-105.8 -93.33)" fill="none" stroke="#231f20" stroke-miterlimit="10" stroke-width="2"/><path d="M162.2,208.78s-13.35,19.48-14.95,22.8" transform="translate(-105.8 -93.33)" fill="none" stroke="#231f20" stroke-miterlimit="10" stroke-width="2"/><path d="M171.78,205.4s-11.14,14.66-13.73,20.08" transform="translate(-105.8 -93.33)" fill="none" stroke="#231f20" stroke-miterlimit="10" stroke-width="2"/><path d="M180.24,199.78s-9.43,14.4-11.73,19.8" transform="translate(-105.8 -93.33)" fill="none" stroke="#231f20" stroke-miterlimit="10" stroke-width="2"/><path d="M186.09,196.61a163.28,163.28,0,0,0-6.83,17" transform="translate(-105.8 -93.33)" fill="none" stroke="#231f20" stroke-miterlimit="10" stroke-width="2"/><path d="M194.15,173.84a88.82,88.82,0,0,0-8.28-26.18" transform="translate(-105.8 -93.33)" fill="none" stroke="#231f20" stroke-miterlimit="10" stroke-width="2"/><path d="M187.44,167.6s-4.54-20.71-11.13-28.47" transform="translate(-105.8 -93.33)" fill="none" stroke="#231f20" stroke-miterlimit="10" stroke-width="2"/><path d="M179.56,159.94s-7.88-22.7-14.16-29.22" transform="translate(-105.8 -93.33)" fill="none" stroke="#231f20" stroke-miterlimit="10" stroke-width="2"/><path d="M169.64,152s-7.76-17.53-14.79-24.33" transform="translate(-105.8 -93.33)" fill="none" stroke="#231f20" stroke-miterlimit="10" stroke-width="2"/><path d="M162.22,148.52s-12.41-18.58-20.1-27" transform="translate(-105.8 -93.33)" fill="none" stroke="#231f20" stroke-miterlimit="10" stroke-width="2"/><path d="M154,145.41S139.11,131,122.43,123.07" transform="translate(-105.8 -93.33)" fill="none" stroke="#231f20" stroke-miterlimit="10" stroke-width="2"/><path d="M153.37,150.22s-19.68-9.73-27.8-11.85" transform="translate(-105.8 -93.33)" fill="none" stroke="#231f20" stroke-miterlimit="10" stroke-width="2"/><path d="M162.89,157s-21.95-6.91-31-6.07" transform="translate(-105.8 -93.33)" fill="none" stroke="#231f20" stroke-miterlimit="10" stroke-width="2"/><path d="M168.59,162.44s-23.38-3.3-27.07-3.26" transform="translate(-105.8 -93.33)" fill="none" stroke="#231f20" stroke-miterlimit="10" stroke-width="2"/><path d="M175.88,169.51s-18.08-3.46-24.09-3.36" transform="translate(-105.8 -93.33)" fill="none" stroke="#231f20" stroke-miterlimit="10" stroke-width="2"/><path d="M184.68,174.59s-17.09-2-23-1.7" transform="translate(-105.8 -93.33)" fill="none" stroke="#231f20" stroke-miterlimit="10" stroke-width="2"/><path d="M190.12,178.42a163.55,163.55,0,0,0-18.28,1.44" transform="translate(-105.8 -93.33)" fill="none" stroke="#231f20" stroke-miterlimit="10" stroke-width="2"/><path d="M213.9,176.27a88.82,88.82,0,0,0,23-15.05" transform="translate(-105.8 -93.33)" fill="none" stroke="#231f20" stroke-miterlimit="10" stroke-width="2"/><path d="M218.1,168.12s18.7-10,24.39-18.4" transform="translate(-105.8 -93.33)" fill="none" stroke="#231f20" stroke-miterlimit="10" stroke-width="2"/><path d="M223.33,158.46s19.73-13.72,24.32-21.52" transform="translate(-105.8 -93.33)" fill="none" stroke="#231f20" stroke-miterlimit="10" stroke-width="2"/><path d="M228.35,146.76s14.78-12.22,19.43-20.81" transform="translate(-105.8 -93.33)" fill="none" stroke="#231f20" stroke-miterlimit="10" stroke-width="2"/><path d="M229.65,138.69s14.53-17,20.56-26.65" transform="translate(-105.8 -93.33)" fill="none" stroke="#231f20" stroke-miterlimit="10" stroke-width="2"/><path d="M230.43,130s9.8-18.25,13-36.46" transform="translate(-105.8 -93.33)" fill="none" stroke="#231f20" stroke-miterlimit="10" stroke-width="2"/><path d="M225.61,130.63s4.06-21.58,3.9-30" transform="translate(-105.8 -93.33)" fill="none" stroke="#231f20" stroke-miterlimit="10" stroke-width="2"/><path d="M221.67,141.62s.73-23-2.52-31.48" transform="translate(-105.8 -93.33)" fill="none" stroke="#231f20" stroke-miterlimit="10" stroke-width="2"/><path d="M218,148.58s-3.15-23.4-4.19-27" transform="translate(-105.8 -93.33)" fill="none" stroke="#231f20" stroke-miterlimit="10" stroke-width="2"/><path d="M213.12,157.51s-1.55-18.35-3.27-24.11" transform="translate(-105.8 -93.33)" fill="none" stroke="#231f20" stroke-miterlimit="10" stroke-width="2"/><path d="M210.62,167.35s-2.66-17-4.57-22.56" transform="translate(-105.8 -93.33)" fill="none" stroke="#231f20" stroke-miterlimit="10" stroke-width="2"/><path d="M208.4,173.63a163.68,163.68,0,0,0-6.33-17.21" transform="translate(-105.8 -93.33)" fill="none" stroke="#231f20" stroke-miterlimit="10" stroke-width="2"/><path d="M229.22,202.91A88.61,88.61,0,0,1,255,212.33" transform="translate(-105.8 -93.33)" fill="none" stroke="#231f20" stroke-miterlimit="10" stroke-width="2"/><path d="M235.16,209.89s20.49,5.44,28,12.36" transform="translate(-105.8 -93.33)" fill="none" stroke="#231f20" stroke-miterlimit="10" stroke-width="2"/><path d="M242.47,218.1s22.33,8.86,28.58,15.42" transform="translate(-105.8 -93.33)" fill="none" stroke="#231f20" stroke-miterlimit="10" stroke-width="2"/><path d="M250,228.35s17.17,8.53,23.66,15.84" transform="translate(-105.8 -93.33)" fill="none" stroke="#231f20" stroke-miterlimit="10" stroke-width="2"/><path d="M253.12,235.91s18,13.22,26.1,21.27" transform="translate(-105.8 -93.33)" fill="none" stroke="#231f20" stroke-miterlimit="10" stroke-width="2"/><path d="M255.87,244.23s13.71,15.54,20.93,32.55" transform="translate(-105.8 -93.33)" fill="none" stroke="#231f20" stroke-miterlimit="10" stroke-width="2"/><path d="M251,244.68s8.86,20.09,10.62,28.3" transform="translate(-105.8 -93.33)" fill="none" stroke="#231f20" stroke-miterlimit="10" stroke-width="2"/><path d="M244.68,234.88s6,22.23,4.72,31.23" transform="translate(-105.8 -93.33)" fill="none" stroke="#231f20" stroke-miterlimit="10" stroke-width="2"/><path d="M239.49,229s2.27,23.5,2.07,27.19" transform="translate(-105.8 -93.33)" fill="none" stroke="#231f20" stroke-miterlimit="10" stroke-width="2"/><path d="M232.74,221.36s2.67,18.21,2.31,24.21" transform="translate(-105.8 -93.33)" fill="none" stroke="#231f20" stroke-miterlimit="10" stroke-width="2"/><path d="M228.06,212.34s1.29,17.16.7,23" transform="translate(-105.8 -93.33)" fill="none" stroke="#231f20" stroke-miterlimit="10" stroke-width="2"/><path d="M224.47,206.74a164.59,164.59,0,0,1-2.24,18.19" transform="translate(-105.8 -93.33)" fill="none" stroke="#231f20" stroke-miterlimit="10" stroke-width="2"/><path d="M228.43,182.91A88.93,88.93,0,0,1,248.33,164" transform="translate(-105.8 -93.33)" fill="none" stroke="#231f20" stroke-miterlimit="10" stroke-width="2"/><path d="M237.32,180.69s14-15.93,23.5-19.53" transform="translate(-105.8 -93.33)" fill="none" stroke="#231f20" stroke-miterlimit="10" stroke-width="2"/><path d="M247.92,177.8s17.87-16.05,26.52-18.74" transform="translate(-105.8 -93.33)" fill="none" stroke="#231f20" stroke-miterlimit="10" stroke-width="2"/><path d="M260.47,175.6s15.27-11.59,24.7-14.14" transform="translate(-105.8 -93.33)" fill="none" stroke="#231f20" stroke-miterlimit="10" stroke-width="2"/><path d="M268.62,176.19s19.85-10.26,30.65-13.92" transform="translate(-105.8 -93.33)" fill="none" stroke="#231f20" stroke-miterlimit="10" stroke-width="2"/><path d="M277.29,177.42s20-5.36,38.46-4.27" transform="translate(-105.8 -93.33)" fill="none" stroke="#231f20" stroke-miterlimit="10" stroke-width="2"/><path d="M275.54,182s21.93,1,30.06,3.07" transform="translate(-105.8 -93.33)" fill="none" stroke="#231f20" stroke-miterlimit="10" stroke-width="2"/><path d="M263.93,183.28S286.49,187.84,294,193" transform="translate(-105.8 -93.33)" fill="none" stroke="#231f20" stroke-miterlimit="10" stroke-width="2"/><path d="M256.31,185.29s22.06,8.42,25.28,10.24" transform="translate(-105.8 -93.33)" fill="none" stroke="#231f20" stroke-miterlimit="10" stroke-width="2"/><path d="M246.51,188s17.5,5.71,22.72,8.7" transform="translate(-105.8 -93.33)" fill="none" stroke="#231f20" stroke-miterlimit="10" stroke-width="2"/><path d="M236.36,188.15s15.94,6.48,20.91,9.61" transform="translate(-105.8 -93.33)" fill="none" stroke="#231f20" stroke-miterlimit="10" stroke-width="2"/><path d="M229.74,188.87A164.4,164.4,0,0,1,245,199" transform="translate(-105.8 -93.33)" fill="none" stroke="#231f20" stroke-miterlimit="10" stroke-width="2"/><path d="M337.33,344.3s60.41,1.81,70,2.17c9.33.36-18,11.72-18,11.72s-17.34,8.69,25.33,9.25,56.26,0,56.26,0" transform="translate(-105.8 -93.33)" fill="none" stroke="#231f20" stroke-miterlimit="10" stroke-width="2.79"/><circle cx="275.94" cy="122.38" r="35.75" fill="none" stroke="#231f20" stroke-miterlimit="10" stroke-width="2.79"/></svg>