<?xml version="1.0" encoding="utf-8"?>
<!-- Generator: Adobe Illustrator 22.1.0, SVG Export Plug-In . SVG Version: 6.00 Build 0)  -->
<!DOCTYPE svg PUBLIC "-//W3C//DTD SVG 1.0//EN" "http://www.w3.org/TR/2001/REC-SVG-20010904/DTD/svg10.dtd">
<svg version="1.0" id="Color" xmlns="http://www.w3.org/2000/svg" xmlns:xlink="http://www.w3.org/1999/xlink" x="0px" y="0px"
	 width="288px" height="288px" viewBox="0 0 288 288" enable-background="new 0 0 288 288" xml:space="preserve">
<g id="Layer_2">
	<path fill="#FFFFFF" stroke="#27AAE1" stroke-width="2" stroke-miterlimit="10" d="M56.8,173.8c-0.3,6-0.6,12-0.9,18.1
		c8.9,0.3,17.9,0.5,26.9,0.4c-0.2-3.4-0.3-6.8-0.5-10.3c-0.1-1.3-0.1-2.7-0.9-3.8c-1.1-1.7-3.3-2.3-5.3-2.7
		c-6.4-1.2-13-1.5-19.5-1.8"/>
	<path fill="#FFFFFF" stroke="#27AAE1" stroke-width="2" stroke-miterlimit="10" d="M136,171.7c-0.1,6.3,0.2,12.7,0.9,19
		c0.1,0.8,0.3,1.8,0.9,2.3c0.5,0.4,1.2,0.5,1.9,0.5c7.1,0.3,14.2-0.1,21.1-1.3c0.2,0,0.5-0.1,0.7-0.3c0.2-0.2,0.3-0.6,0.3-0.9
		c0.1-6.3-1.1-12.7,0.2-18.8c0.1-0.5,0.2-1.1-0.1-1.5c-0.3-0.4-0.9-0.4-1.3-0.4c-8.5,0.3-17,0.9-25.5,1.8"/>
	<path fill="#FFFFFF" stroke="#27AAE1" stroke-width="2" stroke-miterlimit="10" d="M206.5,179.7c0,4,0.1,8,0.1,12
		c0,0.2,0,0.4,0.1,0.5c0.1,0.1,0.2,0.1,0.4,0.1c8.3,1,16.6,1.1,24.9,0.5c0.2,0,0.4,0,0.6-0.2c0.3-0.3,0.3-0.8,0.2-1.2
		c-1-5-1.5-10.1-1.3-15.2c-2.6-0.5-5.1,0.4-7.6,1.1c-3.2,0.8-6.4,1.1-9.7,1.4c-2.8,0.3-5.6,0.5-8.3,0.8"/>
</g>
<path fill="#FFFFFF" stroke="#27AAE1" stroke-width="2" stroke-miterlimit="10" d="M76.9,117.5c-1.9-3.6-2.2-9.4-1.2-14.9
	c1.8-9.5,8-16.3,13.8-15.2s9.1,9.7,7.3,19.2c-1.1,5.7-4.7,11.6-7.9,14.2"/>
<path fill="#FFFFFF" stroke="#27AAE1" stroke-width="2" stroke-miterlimit="10" d="M88.8,177.8c-0.2,2.5-0.3,3.9-0.3,3.9
	s-24.2-1-34.8-7c0,0,6-43.7,13.2-59c0,0,21.2,2.5,26.2,8.7c0,0-1.9,23.4-3.3,40.3"/>
<path fill="#FFFFFF" stroke="#27AAE1" stroke-width="2" stroke-miterlimit="10" d="M79.2,130.8l2,34.8l12.1,20l-1.1,3.7
	c0,0,1.2,1.5,1.8,1.3c0.7-0.2,2.8-1.2,2.8-1.2v8.7l6.5-6.5L88.5,162l-0.8-28.3"/>
<line fill="#FFFFFF" stroke="#27AAE1" stroke-width="2" stroke-miterlimit="10" x1="56.9" y1="176.3" x2="55.7" y2="192"/>
<line fill="#FFFFFF" stroke="#27AAE1" stroke-width="2" stroke-miterlimit="10" x1="82.3" y1="181.3" x2="82.3" y2="192"/>
<line fill="#FFFFFF" stroke="#27AAE1" stroke-width="2" stroke-miterlimit="10" x1="81.2" y1="165.7" x2="88.5" y2="162"/>
<path fill="#FFFFFF" stroke="#27AAE1" stroke-width="2" stroke-miterlimit="10" d="M211.4,117.5c1.9-3.6,2.2-9.4,1.2-14.9
	c-1.8-9.5-8-16.3-13.8-15.2s-9.1,9.7-7.3,19.2c1.1,5.7,4.7,11.6,7.9,14.2"/>
<path fill="#FFFFFF" stroke="#27AAE1" stroke-width="2" stroke-miterlimit="10" d="M199.5,177.8c0.2,2.5,0.3,3.9,0.3,3.9
	s24.2-1,34.8-7c0,0-6-43.7-13.2-59c0,0-21.2,2.5-26.2,8.7c0,0,1.9,23.4,3.3,40.3"/>
<path fill="#FFFFFF" stroke="#27AAE1" stroke-width="2" stroke-miterlimit="10" d="M209.1,130.8l-2,34.8l-12.1,20l1.1,3.7
	c0,0-1.2,1.5-1.8,1.3c-0.7-0.2-2.8-1.2-2.8-1.2v8.7l-6.5-6.5l14.8-29.7l0.8-28.3"/>
<line fill="#FFFFFF" stroke="#27AAE1" stroke-width="2" stroke-miterlimit="10" x1="231.3" y1="176.3" x2="232.6" y2="192"/>
<line fill="#FFFFFF" stroke="#27AAE1" stroke-width="2" stroke-miterlimit="10" x1="205.9" y1="181.3" x2="205.9" y2="192"/>
<line fill="#FFFFFF" stroke="#27AAE1" stroke-width="2" stroke-miterlimit="10" x1="207.1" y1="165.7" x2="199.8" y2="162"/>
<path fill="#FFFFFF" stroke="#27AAE1" stroke-width="2" stroke-miterlimit="10" d="M145.6,122.1c-3.6-2.1-6.1-7.4-6.1-13.7
	c0-8.1,4.3-14.7,9.7-14.7c5.3,0,9.7,6.6,9.7,14.7c0,5.7-2.2,10.7-5.3,13.1"/>
<path fill="#FFFFFF" stroke="#27AAE1" stroke-width="2" stroke-miterlimit="10" d="M134.3,123.8c0,0,20-4.8,29.2,0l-1.3,50h-26.7
	L134.3,123.8z"/>
<line fill="#FFFFFF" stroke="#27AAE1" stroke-width="2" stroke-miterlimit="10" x1="135.5" y1="173.8" x2="137.8" y2="192.8"/>
<line fill="#FFFFFF" stroke="#27AAE1" stroke-width="2" stroke-miterlimit="10" x1="162.2" y1="173.8" x2="161" y2="192.8"/>
<path fill="#FFFFFF" stroke="#27AAE1" stroke-width="2" stroke-miterlimit="10" d="M134.3,123.8l-10.2,23.9L123,179l3,9.7
	c0,0,2.2-1.2,2.7-2s0-7.5,0-7.5l2.7,1l1-2.8l-3.7-5l3.1-22.1l2.9-6.1"/>
<line fill="#FFFFFF" stroke="#27AAE1" stroke-width="2" stroke-miterlimit="10" x1="131.8" y1="150.2" x2="124.1" y2="147.8"/>
<path fill="#FFFFFF" stroke="#27AAE1" stroke-width="2" stroke-miterlimit="10" d="M163.4,123.5l10.2,23.9l1.1,31.2l-3,9.7
	c0,0-2.2-1.2-2.7-2s0-7.5,0-7.5l-2.7,1l-1-2.8l3.7-5l-3.1-22.1l-2.9-6.1"/>
<line fill="#FFFFFF" stroke="#27AAE1" stroke-width="2" stroke-miterlimit="10" x1="165.9" y1="150" x2="173.6" y2="147.5"/>
</svg>
