<?xml version="1.0" encoding="utf-8"?>
<!-- Generator: Adobe Illustrator 19.2.1, SVG Export Plug-In . SVG Version: 6.00 Build 0)  -->
<svg version="1.0" xmlns="http://www.w3.org/2000/svg" xmlns:xlink="http://www.w3.org/1999/xlink" x="0px" y="0px" width="288px"
	 height="288px" viewBox="0 0 288 288" enable-background="new 0 0 288 288" xml:space="preserve">
<g id="Layer_2">
	<path fill="#27AAE1" d="M141.8,138.8c0,0-6.3-6.1-8.8-4.6c-2.5,1.5-4,4.1-4,4.1s0.6,10.2,1.6,11.9c1.1,1.8,6.5,6.8,6.5,6.8l6.5,2.6
		l9-6.4l4.8-7.3l0.7-6.6c0,0-2.8-5.4-2.8-5.4c-0.1-0.1-4.3-0.9-4.9-0.7c-0.6,0.2-5.3,3.1-5.3,3.1L141.8,138.8z"/>
</g>
<g id="Layer_1">
	<path fill="none" stroke="#000000" stroke-width="2" stroke-miterlimit="10" d="M142.4,139.5c0,0-12.5-13.2-13.4,2
		c-0.9,15.2,14.6,18.2,14.6,18.2s14.5-6.7,14.5-18.2S148.1,131,142.4,139.5z"/>
</g>
<g id="Layer_3">
	<path opacity="0" fill="none" stroke="#27AAE1" stroke-width="18" stroke-miterlimit="10" d="M129.9,133.5c8.1-1,16.3-1.1,24.5-0.4
		c-8.8,0.6-17.5,1.2-26.3,1.8c-1.2,0.1-2.5,0.2-3.3,1.2c12.5,2.2,25.4,0.2,38,1.4c-12.8,1.6-25.7,3.2-38.5,4.8
		c12.1-0.2,24.2-0.4,36.2-0.7c-12.5,2.1-24.9,4.2-37.4,6.3c11.5-0.2,23-0.5,34.6-0.7c-9.8,1.3-19.5,2.5-29.3,3.8
		c9.8-0.1,19.6-0.2,29.3-0.2c-12.9,1.4-25.7,2.8-38.6,4.2c0.3,0.9,1.5,1.1,2.4,1.2c13.7,0.9,27.5,0.7,41.3-0.4"/>
</g>
</svg>
