<?xml version="1.0" encoding="utf-8"?>
<!-- Generator: Adobe Illustrator 19.2.1, SVG Export Plug-In . SVG Version: 6.00 Build 0)  -->
<svg version="1.0" id="Layer_1" xmlns="http://www.w3.org/2000/svg" xmlns:xlink="http://www.w3.org/1999/xlink" x="0px" y="0px"
	 width="288px" height="288px" viewBox="0 0 288 288" enable-background="new 0 0 288 288" xml:space="preserve">
<path fill="none" stroke="#27AAE1" stroke-width="2" stroke-miterlimit="10" d="M76.9,117.5c-1.9-3.6-2.2-9.4-1.2-14.9
	c1.8-9.5,8-16.3,13.8-15.2s9.1,9.7,7.3,19.2c-1.1,5.7-4.7,11.6-7.9,14.2"/>
<path fill="none" stroke="#27AAE1" stroke-width="2" stroke-miterlimit="10" d="M88.8,177.8c-0.2,2.5-0.3,3.9-0.3,3.9
	s-24.2-1-34.8-7c0,0,6-43.7,13.2-59c0,0,21.2,2.5,26.2,8.7c0,0-1.9,23.4-3.3,40.3"/>
<path fill="none" stroke="#27AAE1" stroke-width="2" stroke-miterlimit="10" d="M79.2,130.8l2,34.8l12.1,20l-1.1,3.7
	c0,0,1.2,1.5,1.8,1.3c0.7-0.2,2.8-1.2,2.8-1.2v8.7l6.5-6.5L88.5,162l-0.8-28.3"/>
<line fill="none" stroke="#27AAE1" stroke-width="2" stroke-miterlimit="10" x1="56.9" y1="176.3" x2="55.7" y2="192"/>
<line fill="none" stroke="#27AAE1" stroke-width="2" stroke-miterlimit="10" x1="82.3" y1="181.3" x2="82.3" y2="192"/>
<line fill="none" stroke="#27AAE1" stroke-width="2" stroke-miterlimit="10" x1="81.2" y1="165.7" x2="88.5" y2="162"/>
<path fill="none" stroke="#27AAE1" stroke-width="2" stroke-miterlimit="10" d="M211.4,117.5c1.9-3.6,2.2-9.4,1.2-14.9
	c-1.8-9.5-8-16.3-13.8-15.2c-5.8,1.1-9.1,9.7-7.3,19.2c1.1,5.7,4.7,11.6,7.9,14.2"/>
<path fill="none" stroke="#27AAE1" stroke-width="2" stroke-miterlimit="10" d="M199.5,177.8c0.2,2.5,0.3,3.9,0.3,3.9s24.2-1,34.8-7
	c0,0-6-43.7-13.2-59c0,0-21.2,2.5-26.2,8.7c0,0,1.9,23.4,3.3,40.3"/>
<path fill="none" stroke="#27AAE1" stroke-width="2" stroke-miterlimit="10" d="M209.1,130.8l-2,34.8l-12.1,20l1.1,3.7
	c0,0-1.2,1.5-1.8,1.3c-0.7-0.2-2.8-1.2-2.8-1.2v8.7l-6.5-6.5l14.8-29.7l0.8-28.3"/>
<line fill="none" stroke="#27AAE1" stroke-width="2" stroke-miterlimit="10" x1="231.3" y1="176.3" x2="232.6" y2="192"/>
<line fill="none" stroke="#27AAE1" stroke-width="2" stroke-miterlimit="10" x1="205.9" y1="181.3" x2="205.9" y2="192"/>
<line fill="none" stroke="#27AAE1" stroke-width="2" stroke-miterlimit="10" x1="207.1" y1="165.7" x2="199.8" y2="162"/>
<path fill="none" stroke="#27AAE1" stroke-width="2" stroke-miterlimit="10" d="M145.6,122.1c-3.6-2.1-6.1-7.4-6.1-13.7
	c0-8.1,4.3-14.7,9.7-14.7c5.3,0,9.7,6.6,9.7,14.7c0,5.7-2.2,10.7-5.3,13.1"/>
<path fill="none" stroke="#27AAE1" stroke-width="2" stroke-miterlimit="10" d="M134.3,123.8c0,0,20-4.8,29.2,0l-1.3,50h-26.7
	L134.3,123.8z"/>
<line fill="none" stroke="#27AAE1" stroke-width="2" stroke-miterlimit="10" x1="135.5" y1="173.8" x2="137.8" y2="192.8"/>
<line fill="none" stroke="#27AAE1" stroke-width="2" stroke-miterlimit="10" x1="162.2" y1="173.8" x2="161" y2="192.8"/>
<path fill="none" stroke="#27AAE1" stroke-width="2" stroke-miterlimit="10" d="M134.3,123.8l-10.2,23.9L123,179l3,9.7
	c0,0,2.2-1.2,2.7-2s0-7.5,0-7.5l2.7,1l1-2.8l-3.7-5l3.1-22.1l2.9-6.1"/>
<line fill="none" stroke="#27AAE1" stroke-width="2" stroke-miterlimit="10" x1="131.8" y1="150.2" x2="124.1" y2="147.8"/>
<path fill="none" stroke="#27AAE1" stroke-width="2" stroke-miterlimit="10" d="M163.4,123.5l10.2,23.9l1.1,31.2l-3,9.7
	c0,0-2.2-1.2-2.7-2c-0.5-0.8,0-7.5,0-7.5l-2.7,1l-1-2.8l3.7-5l-3.1-22.1l-2.9-6.1"/>
<line fill="none" stroke="#27AAE1" stroke-width="2" stroke-miterlimit="10" x1="165.9" y1="150" x2="173.6" y2="147.5"/>
</svg>
