<svg id="Layer_1" data-name="Layer 1" xmlns="http://www.w3.org/2000/svg" viewBox="0 0 543.38 295.55"><title>Boat</title><path d="M264,262.33,229,143.67s38.33,12,80,74.66l-51.5,18.92" transform="translate(-19.22 -141.56)" fill="none" stroke="#231f20" stroke-miterlimit="10" stroke-width="2.79"/><polyline points="237.93 122.19 208.81 27.19 206.81 95.94 229.55 94.87" fill="none" stroke="#231f20" stroke-miterlimit="10" stroke-width="2.79"/><path d="M337,307c31.75-20,30.5-72.75,30.5-72.75l-174.75,46s5,21.25,12,25" transform="translate(-19.22 -141.56)" fill="none" stroke="#231f20" stroke-miterlimit="10" stroke-width="2.79"/><path d="M200,287l20.55-5.31" transform="translate(-19.22 -141.56)" fill="none" stroke="#231f20" stroke-miterlimit="10" stroke-width="2.79"/><path d="M232.16,278.7l68.78-17.77" transform="translate(-19.22 -141.56)" fill="none" stroke="#231f20" stroke-miterlimit="10" stroke-width="2.79"/><path d="M314.17,257.51l53-13.69" transform="translate(-19.22 -141.56)" fill="none" stroke="#231f20" stroke-miterlimit="10" stroke-width="2.79"/><path d="M242.61,285.34l-44.72,11.33" transform="translate(-19.22 -141.56)" fill="none" stroke="#231f20" stroke-miterlimit="10" stroke-width="2.79"/><path d="M332.07,262.67l-58.66,14.86" transform="translate(-19.22 -141.56)" fill="none" stroke="#231f20" stroke-miterlimit="10" stroke-width="2.79"/><path d="M366.09,254.05l-23,5.83" transform="translate(-19.22 -141.56)" fill="none" stroke="#231f20" stroke-miterlimit="10" stroke-width="2.79"/><path d="M203.29,304.17,226,298.52" transform="translate(-19.22 -141.56)" fill="none" stroke="#231f20" stroke-miterlimit="10" stroke-width="2.79"/><path d="M256.84,290.85l28.32-7.05" transform="translate(-19.22 -141.56)" fill="none" stroke="#231f20" stroke-miterlimit="10" stroke-width="2.79"/><path d="M292.34,282l71-17.68" transform="translate(-19.22 -141.56)" fill="none" stroke="#231f20" stroke-miterlimit="10" stroke-width="2.79"/><path d="M302.58,289.21,264,299" transform="translate(-19.22 -141.56)" fill="none" stroke="#231f20" stroke-miterlimit="10" stroke-width="2.79"/><path d="M360.15,274.63l-46.4,11.75" transform="translate(-19.22 -141.56)" fill="none" stroke="#231f20" stroke-miterlimit="10" stroke-width="2.79"/><path d="M322.18,294.69,355.71,287" transform="translate(-19.22 -141.56)" fill="none" stroke="#231f20" stroke-miterlimit="10" stroke-width="2.79"/><path d="M225.73,304.17s-38.45,9.58-66.2-13.17c0,0-43.25,31.09-69.5-7.2,0,0-33.25,13.24-70.75,14.72" transform="translate(-19.22 -141.56)" fill="none" stroke="#231f20" stroke-miterlimit="10" stroke-width="2.79"/><path d="M389.53,341.75c-107-.5-137.25-57.41-137.25-57.41S227.36,315,114.69,351" transform="translate(-19.22 -141.56)" fill="none" stroke="#231f20" stroke-miterlimit="10" stroke-width="2.79"/><path d="M275.11,308.76S306.19,304.59,317,299c0,0,13.83,10.21,35,9.78" transform="translate(-19.22 -141.56)" fill="none" stroke="#231f20" stroke-miterlimit="10" stroke-width="2.79"/><path d="M300.94,324.25s77.42-18.69,111.75-46.72c0,0,29.34,32.14,85.67,32.8" transform="translate(-19.22 -141.56)" fill="none" stroke="#231f20" stroke-miterlimit="10" stroke-width="2.79"/><path d="M450.9,301.45S490.36,292,501.69,282c0,0,23,13.74,60.67,7.2" transform="translate(-19.22 -141.56)" fill="none" stroke="#231f20" stroke-miterlimit="10" stroke-width="2.79"/><path d="M33,373.25s127.75,7,174-21c0,0,41.33,85.75,174.66,83.42" transform="translate(-19.22 -141.56)" fill="none" stroke="#231f20" stroke-miterlimit="10" stroke-width="2.79"/><path d="M337,391.67s35.08-10,44.74-20c0,0,28.67,23.33,87.34,16" transform="translate(-19.22 -141.56)" fill="none" stroke="#231f20" stroke-miterlimit="10" stroke-width="2.79"/><polyline points="13.8 170.78 57.14 156.96 52.8 164.62 64.14 159.89 64.14 167.23 71.47 165.44" fill="none" stroke="#231f20" stroke-miterlimit="10" stroke-width="2.79"/><path d="M122.89,315.33c2.14-.33,27.08-9.9,27.08-9.9l-4.62,8.24,20-9.78-1,8.44,8-2.72" transform="translate(-19.22 -141.56)" fill="none" stroke="#231f20" stroke-miterlimit="10" stroke-width="2.79"/><path d="M212.36,336s27.9-10.32,39.75-23.67c0,0-1.42,12-5.75,21.34a66.68,66.68,0,0,0,17.6-9.5s.07,10.83-4.27,15.5" transform="translate(-19.22 -141.56)" fill="none" stroke="#231f20" stroke-miterlimit="10" stroke-width="2.79"/><polyline points="343.73 177.44 386.41 156.96 379.95 170.78 394.98 162.61 392.17 172.11 403.86 167.2 403.86 173.78" fill="none" stroke="#231f20" stroke-miterlimit="10" stroke-width="2.79"/><polyline points="469.14 159.33 482.14 152.54 480.81 159.33 491.14 156.96" fill="none" stroke="#231f20" stroke-miterlimit="10" stroke-width="2.79"/><path d="M75,408s74.47-7.67,115.73-29.67c0,0-11.38,24.34-22.39,32.67,0,0,23-6.33,29.52-12.67,0,0-5.24,16.79-11.86,22.79,0,0,12.91-2.12,21.33-9.74,0,0-7.33,18.12-9.71,21.62" transform="translate(-19.22 -141.56)" fill="none" stroke="#231f20" stroke-miterlimit="10" stroke-width="2.79"/><path d="M355.19,401.17s15.22-7.66,22.81-15.57l-4,13.23,14.66-9.5-1.24,8.5,7.58-.16" transform="translate(-19.22 -141.56)" fill="none" stroke="#231f20" stroke-miterlimit="10" stroke-width="2.79"/><path d="M199.75,154.67,194,161.39" transform="translate(-19.22 -141.56)" fill="none" stroke="#231f20" stroke-miterlimit="10" stroke-width="2.79"/><path d="M189.59,166.53l-11.18,13" transform="translate(-19.22 -141.56)" fill="none" stroke="#231f20" stroke-miterlimit="10" stroke-width="2.79"/><path d="M173.85,184.89,164.32,196" transform="translate(-19.22 -141.56)" fill="none" stroke="#231f20" stroke-miterlimit="10" stroke-width="2.79"/><path d="M158.82,202.44l-7.51,8.76" transform="translate(-19.22 -141.56)" fill="none" stroke="#231f20" stroke-miterlimit="10" stroke-width="2.79"/><path d="M145.76,217.68l-10,11.72" transform="translate(-19.22 -141.56)" fill="none" stroke="#231f20" stroke-miterlimit="10" stroke-width="2.79"/><path d="M129.58,236.57l-9.25,10.79" transform="translate(-19.22 -141.56)" fill="none" stroke="#231f20" stroke-miterlimit="10" stroke-width="2.79"/><path d="M114.94,253.65l-9.36,10.92" transform="translate(-19.22 -141.56)" fill="none" stroke="#231f20" stroke-miterlimit="10" stroke-width="2.79"/><path d="M100.38,270.64l-5,5.87" transform="translate(-19.22 -141.56)" fill="none" stroke="#231f20" stroke-miterlimit="10" stroke-width="2.79"/><path d="M224.77,154.67,219,161.39" transform="translate(-19.22 -141.56)" fill="none" stroke="#231f20" stroke-miterlimit="10" stroke-width="2.79"/><path d="M214.61,166.53l-11.18,13" transform="translate(-19.22 -141.56)" fill="none" stroke="#231f20" stroke-miterlimit="10" stroke-width="2.79"/><path d="M198.87,184.89,189.34,196" transform="translate(-19.22 -141.56)" fill="none" stroke="#231f20" stroke-miterlimit="10" stroke-width="2.79"/><path d="M183.84,202.44l-7.51,8.76" transform="translate(-19.22 -141.56)" fill="none" stroke="#231f20" stroke-miterlimit="10" stroke-width="2.79"/><path d="M170.78,217.68l-10,11.72" transform="translate(-19.22 -141.56)" fill="none" stroke="#231f20" stroke-miterlimit="10" stroke-width="2.79"/><path d="M154.6,236.57l-9.25,10.79" transform="translate(-19.22 -141.56)" fill="none" stroke="#231f20" stroke-miterlimit="10" stroke-width="2.79"/><path d="M140,253.65l-9.36,10.92" transform="translate(-19.22 -141.56)" fill="none" stroke="#231f20" stroke-miterlimit="10" stroke-width="2.79"/><path d="M125.4,270.64l-5,5.87" transform="translate(-19.22 -141.56)" fill="none" stroke="#231f20" stroke-miterlimit="10" stroke-width="2.79"/><path d="M213.86,202.44l-7.5,8.76" transform="translate(-19.22 -141.56)" fill="none" stroke="#231f20" stroke-miterlimit="10" stroke-width="2.79"/><path d="M200.81,217.68,190.76,229.4" transform="translate(-19.22 -141.56)" fill="none" stroke="#231f20" stroke-miterlimit="10" stroke-width="2.79"/><path d="M184.62,236.57l-9.24,10.79" transform="translate(-19.22 -141.56)" fill="none" stroke="#231f20" stroke-miterlimit="10" stroke-width="2.79"/><path d="M170,253.65l-9.36,10.92" transform="translate(-19.22 -141.56)" fill="none" stroke="#231f20" stroke-miterlimit="10" stroke-width="2.79"/><path d="M155.43,270.64l-5,5.87" transform="translate(-19.22 -141.56)" fill="none" stroke="#231f20" stroke-miterlimit="10" stroke-width="2.79"/><path d="M285.82,154.67l-5.77,6.72" transform="translate(-19.22 -141.56)" fill="none" stroke="#231f20" stroke-miterlimit="10" stroke-width="2.79"/><path d="M215.65,236.57l-9.25,10.79" transform="translate(-19.22 -141.56)" fill="none" stroke="#231f20" stroke-miterlimit="10" stroke-width="2.79"/><path d="M201,253.65l-9.36,10.92" transform="translate(-19.22 -141.56)" fill="none" stroke="#231f20" stroke-miterlimit="10" stroke-width="2.79"/><path d="M310.84,154.67l-5.77,6.72" transform="translate(-19.22 -141.56)" fill="none" stroke="#231f20" stroke-miterlimit="10" stroke-width="2.79"/><path d="M300.68,166.53l-11.18,13" transform="translate(-19.22 -141.56)" fill="none" stroke="#231f20" stroke-miterlimit="10" stroke-width="2.79"/><path d="M226,253.65l-9.36,10.92" transform="translate(-19.22 -141.56)" fill="none" stroke="#231f20" stroke-miterlimit="10" stroke-width="2.79"/><path d="M335.43,154.67l-5.76,6.72" transform="translate(-19.22 -141.56)" fill="none" stroke="#231f20" stroke-miterlimit="10" stroke-width="2.79"/><path d="M325.27,166.53l-11.17,13" transform="translate(-19.22 -141.56)" fill="none" stroke="#231f20" stroke-miterlimit="10" stroke-width="2.79"/><path d="M309.53,184.89,300,196" transform="translate(-19.22 -141.56)" fill="none" stroke="#231f20" stroke-miterlimit="10" stroke-width="2.79"/><path d="M360.32,154.67l-5.76,6.72" transform="translate(-19.22 -141.56)" fill="none" stroke="#231f20" stroke-miterlimit="10" stroke-width="2.79"/><path d="M350.16,166.53l-11.17,13" transform="translate(-19.22 -141.56)" fill="none" stroke="#231f20" stroke-miterlimit="10" stroke-width="2.79"/><path d="M334.42,184.89,324.9,196" transform="translate(-19.22 -141.56)" fill="none" stroke="#231f20" stroke-miterlimit="10" stroke-width="2.79"/><path d="M319.39,202.44l-7.5,8.76" transform="translate(-19.22 -141.56)" fill="none" stroke="#231f20" stroke-miterlimit="10" stroke-width="2.79"/><path d="M290.15,236.57l-9.24,10.79" transform="translate(-19.22 -141.56)" fill="none" stroke="#231f20" stroke-miterlimit="10" stroke-width="2.79"/><path d="M386,154.67l-5.76,6.72" transform="translate(-19.22 -141.56)" fill="none" stroke="#231f20" stroke-miterlimit="10" stroke-width="2.79"/><path d="M375.85,166.53l-11.17,13" transform="translate(-19.22 -141.56)" fill="none" stroke="#231f20" stroke-miterlimit="10" stroke-width="2.79"/><path d="M360.11,184.89,350.59,196" transform="translate(-19.22 -141.56)" fill="none" stroke="#231f20" stroke-miterlimit="10" stroke-width="2.79"/><path d="M345.08,202.44l-7.5,8.76" transform="translate(-19.22 -141.56)" fill="none" stroke="#231f20" stroke-miterlimit="10" stroke-width="2.79"/><path d="M332,217.68,322,229.4" transform="translate(-19.22 -141.56)" fill="none" stroke="#231f20" stroke-miterlimit="10" stroke-width="2.79"/><path d="M411.39,154.67l-5.76,6.72" transform="translate(-19.22 -141.56)" fill="none" stroke="#231f20" stroke-miterlimit="10" stroke-width="2.79"/><path d="M401.23,166.53l-11.18,13" transform="translate(-19.22 -141.56)" fill="none" stroke="#231f20" stroke-miterlimit="10" stroke-width="2.79"/><path d="M385.49,184.89,376,196" transform="translate(-19.22 -141.56)" fill="none" stroke="#231f20" stroke-miterlimit="10" stroke-width="2.79"/><path d="M370.46,202.44,363,211.2" transform="translate(-19.22 -141.56)" fill="none" stroke="#231f20" stroke-miterlimit="10" stroke-width="2.79"/><path d="M357.4,217.68l-10,11.72" transform="translate(-19.22 -141.56)" fill="none" stroke="#231f20" stroke-miterlimit="10" stroke-width="2.79"/><path d="M440.1,154.67l-5.76,6.72" transform="translate(-19.22 -141.56)" fill="none" stroke="#231f20" stroke-miterlimit="10" stroke-width="2.79"/><path d="M429.94,166.53l-11.18,13" transform="translate(-19.22 -141.56)" fill="none" stroke="#231f20" stroke-miterlimit="10" stroke-width="2.79"/><path d="M414.2,184.89,404.67,196" transform="translate(-19.22 -141.56)" fill="none" stroke="#231f20" stroke-miterlimit="10" stroke-width="2.79"/><path d="M399.17,202.44l-7.51,8.76" transform="translate(-19.22 -141.56)" fill="none" stroke="#231f20" stroke-miterlimit="10" stroke-width="2.79"/><path d="M386.11,217.68l-10,11.72" transform="translate(-19.22 -141.56)" fill="none" stroke="#231f20" stroke-miterlimit="10" stroke-width="2.79"/><path d="M477.07,154.67l-5.76,6.72" transform="translate(-19.22 -141.56)" fill="none" stroke="#231f20" stroke-miterlimit="10" stroke-width="2.79"/><path d="M466.91,166.53l-11.17,13" transform="translate(-19.22 -141.56)" fill="none" stroke="#231f20" stroke-miterlimit="10" stroke-width="2.79"/><path d="M451.17,184.89,441.64,196" transform="translate(-19.22 -141.56)" fill="none" stroke="#231f20" stroke-miterlimit="10" stroke-width="2.79"/><path d="M436.14,202.44l-7.5,8.76" transform="translate(-19.22 -141.56)" fill="none" stroke="#231f20" stroke-miterlimit="10" stroke-width="2.79"/><path d="M423.08,217.68,413,229.4" transform="translate(-19.22 -141.56)" fill="none" stroke="#231f20" stroke-miterlimit="10" stroke-width="2.79"/><path d="M406.9,236.57l-9.24,10.79" transform="translate(-19.22 -141.56)" fill="none" stroke="#231f20" stroke-miterlimit="10" stroke-width="2.79"/><path d="M392.27,253.65l-9.36,10.92" transform="translate(-19.22 -141.56)" fill="none" stroke="#231f20" stroke-miterlimit="10" stroke-width="2.79"/><path d="M377.71,270.64l-5,5.87" transform="translate(-19.22 -141.56)" fill="none" stroke="#231f20" stroke-miterlimit="10" stroke-width="2.79"/></svg>