<?xml version="1.0" encoding="utf-8"?>
<!-- Generator: Adobe Illustrator 22.1.0, SVG Export Plug-In . SVG Version: 6.00 Build 0)  -->
<!DOCTYPE svg PUBLIC "-//W3C//DTD SVG 1.0//EN" "http://www.w3.org/TR/2001/REC-SVG-20010904/DTD/svg10.dtd">
<svg version="1.0" id="Layer_1" xmlns="http://www.w3.org/2000/svg" xmlns:xlink="http://www.w3.org/1999/xlink" x="0px" y="0px"
	 width="288px" height="288px" viewBox="0 0 288 288" enable-background="new 0 0 288 288" xml:space="preserve">
<g id="Layer_2_1_">
	<path fill="#27AAE1" d="M139.6,138.2c0.6-2.2-5-5-6.6-4c-2.5,1.5-4,4.1-4,4.1s0.6,10.2,1.6,11.9c1.1,1.8,6.5,6.8,6.5,6.8l6.5,2.6
		l9-6.4l4.8-7.3l0.7-6.6c0,0-2.8-5.4-2.8-5.4c-0.3-0.3-1.6-0.4-2-0.4c-0.8-0.1-1.8-0.4-2.6-0.3c-1.1,0.2-1.8,1.1-2.6,1.9
		c-1.1,1.1-2,2.1-2.3,3.6c-0.3,1.8,0.5,3.7,2.1,4.5c0.3,0.2,0.8,0.3,0.9,0.6c0.3,0.6-0.3,1.1-0.8,1.5c-3,2.3-4.8,5.9-8.2,7.7
		c0.5-1.7,1.1-3.4,1.6-5.1c0.4-1.4,0.9-3,0.4-4.4c-0.5-1.4-1.9-2.3-3.3-2.8c-0.5-0.2-1-0.4-0.9-0.9c0.7-0.3,1.5-0.6,1.9-1.3
		C139.6,138.4,139.6,138.3,139.6,138.2z"/>
</g>
<g id="Layer_1_1_">
	<path fill="none" stroke="#000000" stroke-width="2" stroke-miterlimit="10" d="M140.4,138c-1.7-1.9-4.6-4.1-7.3-3.8
		c-3.3,0.3-3.9,4.7-4.1,7.3c-0.9,15.2,14.6,18.2,14.6,18.2s14.5-6.7,14.5-18.2c0-3.4-1-7.7-4.8-8.4c-1.4-0.3-3.3-0.1-4.5,0.7
		c-1.9,1.3-3.1,4.1-3.5,6.2c-0.1,0.4-0.2,0.9,0.1,1.3c0.1,0.3,0.4,0.5,0.7,0.7c1,0.8,2,1.5,3,2.3c-3.2,2.3-6.1,5-8.7,8
		c0.2-2.8,2.1-5.2,2.1-8c0-0.3,0-0.6-0.1-0.8c-0.1-0.3-0.4-0.5-0.6-0.7c-1.4-1-2.9-1.9-4.5-2.6C138.1,139.3,139.2,138.5,140.4,138z"
		/>
</g>
<g id="Layer_3">
	<path fill="none" stroke="#27AAE1" stroke-width="18" stroke-miterlimit="10" stroke-opacity="0" d="M129.9,133.5
		c8.1-1,16.3-1.1,24.5-0.4c-8.8,0.6-17.5,1.2-26.3,1.8c-1.2,0.1-2.5,0.2-3.3,1.2c12.5,2.2,25.4,0.2,38,1.4
		c-12.8,1.6-25.7,3.2-38.5,4.8c12.1-0.2,24.2-0.4,36.2-0.7c-12.5,2.1-24.9,4.2-37.4,6.3c11.5-0.2,23-0.5,34.6-0.7
		c-9.8,1.3-19.5,2.5-29.3,3.8c9.8-0.1,19.6-0.2,29.3-0.2c-12.9,1.4-25.7,2.8-38.6,4.2c0.3,0.9,1.5,1.1,2.4,1.2
		c13.7,0.9,27.5,0.7,41.3-0.4"/>
</g>
</svg>
