<?xml version="1.0" encoding="utf-8"?>
<!-- Generator: Adobe Illustrator 22.1.0, SVG Export Plug-In . SVG Version: 6.00 Build 0)  -->
<!DOCTYPE svg PUBLIC "-//W3C//DTD SVG 1.0//EN" "http://www.w3.org/TR/2001/REC-SVG-20010904/DTD/svg10.dtd">
<svg version="1.0" id="Layer_1" xmlns="http://www.w3.org/2000/svg" xmlns:xlink="http://www.w3.org/1999/xlink" x="0px" y="0px"
	 width="612px" height="792px" viewBox="0 0 612 792" enable-background="new 0 0 612 792" xml:space="preserve">
<path fill="#5EBF00" d="M279.3,622.3c-20.6,6.9-45.6,8.1-65.9-0.3c-14.9-6.1-36.3-18.9-37.4-37.2c-0.7-12.7,11.7-21.8,17.7-33
	c7.6-14.1,4.9-31.6-0.2-46.8c-5.1-15.2-12.4-30.1-13.4-46.1c-0.8-13.2,2.7-26.4,1.4-39.6c-2.4-22.8-19-42.2-21.8-65
	c-1.5-12.4,1.3-24.8,4-37c3.9-17.2,7.8-34.5,11.7-51.7c1-4.4,2-8.8,4.4-12.6c3-4.7,7.9-7.8,11.3-12.2c10.4-13.5,4.3-33.1,8.6-49.6
	c5.2-19.9,24.6-32.2,42.4-42.6c4.6-2.7,9.4-5.4,14.7-6.3c12.6-2,24.7,7.6,29.9,19.3c5.2,11.6,5.1,24.8,5.1,37.6
	c0,12.7,0.2,26,5.9,37.4c6,12.1,18.2,20.9,31.5,22.9c2.7,0.4,5.6,0.5,8-0.7c2.7-1.4,4.3-4.2,5.6-6.9c7.7-16.3,8.7-35.8,19.8-50
	c9.4-12,25.5-18.3,40.5-16c15,2.4,28.4,13.3,33.8,27.6c3.6,9.7,3.7,20.4,3.7,30.8c0,25.1-1,52.6-17.7,71.2
	c-7.4,8.1-17.1,13.7-26.2,19.8c-28.8,19.1-53.2,44.8-70.8,74.5c-4.2,7-8,14.4-9.9,22.4c-2.3,9.8-1.4,20.1-0.6,30.1
	c2.5,29,5,57.9,7.5,86.9c0.8,9.8,1.7,19.8-0.4,29.4C317.8,599.4,299.6,615.4,279.3,622.3z"/>
<path opacity="0" fill="none" stroke="#000000" stroke-width="51" stroke-linecap="round" stroke-linejoin="round" stroke-miterlimit="10" d="
	M173,163.2c64.3-0.4,128.5,3.2,192.7,6.8c30,1.7,61,3.7,87.5,17.9c-5.1-1.4-5.1,8-9.2,11.3c-1.8,1.4-4.2,1.4-6.4,1.4
	c-58.9-0.1-117.9-0.3-176.8-0.4c-25.5-0.1-51.5-0.1-75.9,7.3c-17.2,5.2-33.2,13.9-49,22.6c-3.4,1.8-7.2,6.1-4.5,8.8
	c1.1,1.1,3,1.2,4.6,1.2c18.2-0.1,36.3-2,54.4-3.5c99.6-8.1,200.2-3.3,298.6,14.4c-10.8,4.7-21.6,7.4-31.9,12.6c-10,5-20,8.5-31,10.8
	c-6.2,1.3-12.6,2.4-18.9,2.4c-20.1-0.1-38.8-9.9-59-10.2c-23.7-0.4-47.9,2.6-71.5,4.5c-46.8,3.7-93.4,8.6-140.1,13.5
	c-5.4,0.6-12,2.1-13.4,7.4c43.2,15.8,89.9,15.9,135.3,15c41.8-0.8,83.4-0.5,124.9-4.7c7.5-0.8,16.4-1.6,21.4,4.1
	c10.5,11.7-4.4,22.7-15.3,22.7c-34.2,0-68.3,0.1-102.5,0.1c-29.7,0-64.8-5.7-92.6,5.4c-10.5,4.2-21.5,8.8-28.1,17.9
	c-2.2,3-3.9,6.6-3.3,10.2c1,6.4,8,9.8,14.3,11.3c22.7,5.4,40.9-6.6,62.6-5.5c27.2,1.3,54.5,2.7,81.8,3.8c14.9,0.6,30.1,1.3,43.8,6.9
	c-29.3,22.5-65.7,35.6-102.5,36.8c-34,1.2-71.5-6.5-99.4,12.8c-2.2,1.5-4.5,3.5-4.6,6.2c50.4,19.1,106.1,15.8,159.9,19.6
	c4.6,0.3,9.6,0.9,12.7,4.3c6.6,7.1-1.2,18.7-10.1,22.6c-9.6,4.2-20.3,4.7-30.8,5.1c-32.9,1.3-65.8,2.6-98.7,3.8
	c-5.3,0.2-11.7,1.1-13.8,6c-3.1,7.4,6.7,13.3,14.5,15.2c33.4,8.2,67.4,13.5,101.7,16c14.4,1.1,29.8,2,41.4,10.6
	c-0.8,8.6-11.2,12.3-19.7,13.7c-18.1,2.9-36.4,4.1-54.7,3.5c-23.9-0.8-44.9,0.2-68.2,5.5c-9.4,2.1-19.1,6.4-23.7,14.8
	c-0.5,0.9-0.9,1.9-0.7,2.9c0.4,1.8,2.5,2.4,4.3,2.7c26.1,4.5,52.5,6.5,79,6c26.7-0.6,52.4,2.1,78.5,7.8
	c-15.7,17.8-40.2,25.1-63.8,27.8s-47.6,1.6-70.8,6.6"/>
</svg>
