<?xml version="1.0" encoding="utf-8"?>
<!-- Generator: Adobe Illustrator 22.1.0, SVG Export Plug-In . SVG Version: 6.00 Build 0)  -->
<!DOCTYPE svg PUBLIC "-//W3C//DTD SVG 1.0//EN" "http://www.w3.org/TR/2001/REC-SVG-20010904/DTD/svg10.dtd">
<svg version="1.0" id="Layer_1" xmlns="http://www.w3.org/2000/svg" xmlns:xlink="http://www.w3.org/1999/xlink" x="0px" y="0px"
	 width="612px" height="792px" viewBox="0 0 612 792" enable-background="new 0 0 612 792" xml:space="preserve">
<path fill="#5EBF00" d="M40.6,436c-0.9-18.4,3.9-36.8,1.8-55.1c-1.8-15.2-8.3-29.4-11.4-44.3c-6.4-31,2-62.9,10.3-93.4
	c2.4-8.7,5.3-18.2,12.9-23.1c9.1-5.8,21.3-2.6,30.4,3.1c9.1,5.7,16.7,13.8,26.4,18.5c27.1,13.2,61-3.3,89,7.7
	c16.4,6.4,31,22,48.2,18.4c0.8-10.8,2.1-22.6,10-30c13.5-12.6,35.6-3.7,53.7-7.7c13-2.9,23.5-12.4,36-17c8.6-3.1,17.8-3.7,27-4.4
	c8-0.5,16.8-0.9,23.2,4c9,6.8,9,20.1,13.3,30.5c9,21.7,35.5,29.1,58.6,33.1c23.1,4,49.6,9.2,61.2,29.6c9.5,16.6,5.5,37.3,2,56.1
	c-3.5,18.8-5.7,40.3,6.2,55.2c11.7,14.6,34.6,19.7,40.5,37.4c6,17.9-9.4,35-17,52.2c-5.8,13.2-7.4,28.2-15.3,40.3
	c-8.7,13.3-23.8,20.9-38.4,27.1c-8.6,3.7-18,7.1-27.1,5.1c-5.6-1.2-10.5-4.4-15.7-6.8c-35.3-15.8-78.8,8.5-114.4-6.7
	c-11.7-5-21.2-13.8-32.2-20.1c-39.9-23-93.2-10.8-132.8-34.4c-7.6-4.6-14.5-10.3-22.3-14.6c-14.8-8.1-31.8-10-48.3-11.4
	c-14.1-1.2-36.2,0.4-48.5-6.6c-8.7-5-14.5-7.7-19.8-16.6C43.5,454.4,41.1,445.1,40.6,436z"/>
<path opacity="0" fill="none" stroke="#000000" stroke-width="51" stroke-linecap="round" stroke-linejoin="round" stroke-miterlimit="10" d="
	M33.5,223.7c15.8-5.2,31.5,6.4,46.9,12.4c26.9,10.5,57.8,4.3,85.2,13.5c11.6,3.9,22.5,10.6,34.8,11.8c10.2,1,20.4-1.9,30.3-4.7
	c19.6-5.7,39.3-11.4,58.9-17.1c17.9-5.2,35.8-10.4,54.2-13.2c20.7-3.2,42-3.3,62.7-0.3c5.9,0.9,20.4,1,18.8,10.4
	c-1.6,9.7-17.4,8.1-23.9,7.4c-10.3-1.1-20.6-2-31-2.3c-10.2-0.4-20.5,2.3-30.7,4.2c-15.3,2.8-30.7,5.6-45.3,11
	c-11.3,4.2-22,9.9-33.5,13.6c-16.2,5.2-33.5,6-50.5,5.9c-29.8-0.1-59.6-3-88.8-8.6c-26.2-5-52.1-12.2-78.8-13.9
	c-4.9-0.3-10.6-0.1-13.6,3.8c-3.5,4.5-0.8,11.6,3.9,14.8c4.8,3.2,10.8,3.5,16.5,3.7c49,1.9,98,3.9,147,5.8
	c41.1,1.6,82.5,3.2,123.3-2.2c22.1-2.9,44-7.9,66.2-10.4c42.5-4.8,86.1-0.2,126.7,13.2c-121.2,9.1-242.7,14.6-364.2,12.9
	c-37.4-0.5-74.9-1.8-112,2.8c-3.9,0.5-9,2.7-8.1,6.5c0.4,1.6,1.9,2.8,3.4,3.6c13.5,8.2,30.2,8.1,46,7.8
	c102.2-2.2,204.3-4.4,306.5-6.6c60.5-1.3,122.1-2.4,180,15.2c-33.5,19.4-74.9,16.9-113.6,14.9c-143.1-7.6-286.6-0.8-429.7,6
	c3.7,10.7,17.1,13.8,28.4,14.8c16.8,1.5,33.7,2.1,50.6,2.6c109.5,3.7,219,7.3,328.5,4.6c17.3-0.4,34.7-1,52.1-0.1
	c8,0.4,16,0.5,24,0.7c6.7,0.2,19.5-1.5,25.4,1.7c13.6,7.2-0.5,19.9-10.6,21.4c-30.6,4.3-61.6,4-92.4,3.7
	c-120.7-1.1-241.4-2.2-362-3.3c-4.5,0-9.4,0-13.3,2.3s-6.3,7.8-3.7,11.6c1.8,2.6,5.2,3.4,8.3,4c36.9,7,74.8,6.9,112.3,6.9
	c110.5,0.1,221,1.5,331.5,4.5c10.9,0.3,22.2,1.4,33.1,0.8c10.1-0.6,18.4-1.1,27.6,4.3c2,1.2,3.9,2.6,5.8,4c4.2,3.3,8.5,7.1,9.8,12.3
	c1.4,5.2-1.4,11.8-6.7,12.5c-1.7,0.3-3.5-0.1-5.2-0.5c-17.9-4-34.3-7.9-52.6-8c-160.2-1-320.5-25.3-480.1-10.8
	c6.5,13.3,24.1,15.8,39,16.3c54.2,1.9,108.5,0.6,162.7-0.8c52.2-1.3,104.7,6.3,157.2,5.2c54.9-1.2,108.9-2.2,163.1,7.5
	c9.8,1.7,20.7,4.5,25.7,13.1c-3.4,8.8-15.1,10.2-24.5,10.2c-42.2,0-84.5-0.1-126.7-0.1c-65.4-0.1-130.8-0.1-195.9-5.8
	c-43.1-3.7-86-9.9-129.2-10.9c-15.8-0.4-31.5-0.1-47.2,0.8c12.9,17.2,37.4,19.5,58.9,20.3c159.3,6,318.4,16.7,477.1,31.9
	c-1.1,10.2-14.8,12.6-25.1,12.2c-134.5-5.2-269-10.4-403.6-15.6c55.7,24.8,118.4,27.2,179.3,27.6c43.4,0.3,86.8-0.4,130.1-1.8
	c24.8-0.8,50.5-1.8,73.7,7.2c-12.3,8.8-28.6,8.5-43.7,7.6c-68.7-4.3-138.1-15.9-205.8-3.8C368.4,585.1,449.8,557,526,568"/>
</svg>
