<?xml version="1.0" encoding="utf-8"?>
<!-- Generator: Adobe Illustrator 22.1.0, SVG Export Plug-In . SVG Version: 6.00 Build 0)  -->
<!DOCTYPE svg PUBLIC "-//W3C//DTD SVG 1.0//EN" "http://www.w3.org/TR/2001/REC-SVG-20010904/DTD/svg10.dtd">
<svg version="1.0" id="Layer_1" xmlns="http://www.w3.org/2000/svg" xmlns:xlink="http://www.w3.org/1999/xlink" x="0px" y="0px"
	 width="612px" height="792px" viewBox="0 0 612 792" enable-background="new 0 0 612 792" xml:space="preserve">
<path fill="#5EBF00" d="M164.2,319.7c-4.3,14.8-6.6,30.1-12.8,44.2c-7.1,16.2-14.7,32.2-22.1,48.2c-5.4,11.9-10.9,23.8-17.4,35.1
	c-11,19.2-25,36.6-37.1,55.1c-16.2,24.8-37.9,59.9-30,90.7c3.4,13.3,13.4,27,26.7,31.8c14.1,5.2,29.7-1.8,44-3.7
	c16.7-2.2,33.5,2.3,50.1,5.2c23.7,4.1,47.9,5,71.9,5.8c17.7,0.6,37.2,0.7,50.7-10.8c16.7-14.2,16.9-39.6,13.8-61.3
	c-2-14.2-3.5-31.7,8.5-39.6c10.5-6.9,24.3-1.4,36,3c51.1,19.6,107.7,17.4,162.4,14.9c15.7-0.7,33.1-2.2,43.6-13.9
	c10-11.1,10.2-27.6,9.8-42.5c-1.4-59.1-2.8-118.3-4.2-177.4c-0.4-16.1-0.8-32.3-3.7-48.2c-2.2-12-5.9-23.8-10.9-34.9
	c-3.9-8.6-8.7-17.1-16.1-22.9c-10-7.8-23.2-9.8-35.9-10.3c-22.7-0.8-47.1,3.3-63.6,19c-9.5,9-15.7,21.5-26.8,28.4
	c-7.5,4.7-16.4,6.4-25.2,7.2c-43,3.9-86.9-11.1-128.9-1.4C208.1,250.5,175.3,281.5,164.2,319.7z"/>
<path opacity="0" fill="none" stroke="#000000" stroke-width="51" stroke-linecap="round" stroke-linejoin="round" stroke-miterlimit="10" d="
	M415,170.3c50.9-2.7,102.4,10,146.2,36.1c0.9,7-9.2,9.1-16.2,8.4c-37.1-4-74.3-7.9-111.4-11.9c-10.6-1.1-23.6-1.2-29.1,7.9
	c19.1,16,46.1,16.8,70.8,20.2c37.1,5,73.1,17.4,105.4,36.4c-90-2.4-179.9-4.8-269.9-7.2c-50.6-1.3-103.8-2.1-148.4,21.7
	c21.9,13.4,49.3,12.6,74.9,11.7c78.5-2.7,157.2-2.2,235.8-1.7c33.6,0.2,67.6,0.5,100.1,9c3.1,7.8-6.6,14.3-14.7,16.6
	c-28.4,8.1-58.3,8.2-87.8,8.3c-98.9,0.2-197.8,0.5-296.7,0.7c-8,0-16.3,0.1-23.3,3.9c-7,3.8-12,12.5-8.9,19.8
	c3.4,7.9,13.5,9.9,22,10.8c82.9,8.1,166.6,8.6,249.7,1.4c56.8-4.9,116.2-13.1,169.3,7.7c0,10-8.3,18.6-17.7,22s-19.8,3.1-29.8,2.6
	c-113.1-5.3-226.4-7.9-339.7-8c-20.2,0-40.4,0-60.5,1.2c-6.8,0.4-13.9,1-19.5,4.9S107,405,111,410.5c3.6,5,10.8,5.5,17,5.5
	c85.6-0.3,171.2-0.6,256.8-0.9c25.7-0.1,51.5-0.2,76.7,4.5c20.6,3.8,40.7,10.7,61.5,12.3c21.5,1.7,45-1.9,63,10
	c-4.3,9.3-16,12-26.2,13.3c-163.6,21.1-330.6-27.5-493.7-3.2c-2.7,0.4-5.7,1-7.3,3.2c-3.7,5,3.1,11.1,8.9,13.5
	c16.7,6.7,34.1,11.4,51.9,13.9c32.9,4.8,66.3,2.3,99.5,0.3c113.3-6.8,227-7.3,340.3-1.8c11.8,0.6,25.1,1.9,32.7,11
	c-18.1,15.7-42.8,21.1-66.7,23.5c-46.3,4.6-93,0-139.5-3.1c-110.5-7.5-221.5-7-331.9,1.8c53.7,17.5,111,19.9,167.5,21
	c103.6,2,207.2,0,310.7-4.1c13.5-0.5,27.8-1,39.8,5.4c-0.3,13.6-16.2,20.7-29.5,23.7c-68.8,15.2-140.2,7.2-210.4,1.3
	c-98.1-8.2-196.5-12-294.9-11.5c-7.4,0-17.1,2-17.9,9.4c-1,8.5,10.5,11.8,19,12c83.4,2.1,166.8,4.1,250.2,6.2
	c6.3,0.2,14.5,2.1,14.8,8.3c0.3,6.1-7.3,9-13.4,9.7c-40.2,4.8-80.7-3-121.1-5.6c-41.9-2.7-84.1,0.2-125.2,8.7
	c-0.7,3.3,3.3,5.5,6.6,6.4c85.2,23.5,175.3,18.2,263.5,12.8"/>
</svg>
