<?xml version="1.0" encoding="utf-8"?>
<!-- Generator: Adobe Illustrator 22.1.0, SVG Export Plug-In . SVG Version: 6.00 Build 0)  -->
<!DOCTYPE svg PUBLIC "-//W3C//DTD SVG 1.0//EN" "http://www.w3.org/TR/2001/REC-SVG-20010904/DTD/svg10.dtd">
<svg version="1.0" id="Layer_1" xmlns="http://www.w3.org/2000/svg" xmlns:xlink="http://www.w3.org/1999/xlink" x="0px" y="0px"
	 width="612px" height="792px" viewBox="0 0 612 792" enable-background="new 0 0 612 792" xml:space="preserve">
<path fill="#5EBF00" d="M173.8,391.7c-3.4-16.7-8.9-34.3-3.5-50.5c2-6,5.5-11.5,6.3-17.8c0.5-4-0.1-8-0.6-11.9
	c-2.7-21.5-2.8-43.2-0.3-64.7c0.7-5.7,1.5-11.4,4-16.5c2.9-5.9,7.7-10.6,12.5-15.1c20.8-19.9,41.6-39.8,62.4-59.6
	c5.4-5.1,10.8-10.3,17.5-13.6c5.9-2.9,12.4-4.2,18.9-4.7c24-1.9,48.6,6.7,66.2,23c17.6,16.3,28,40.2,28,64.2c0,8-1.1,16.2,0.8,24
	c2.4,10.1,9.6,18.3,16.3,26.1c11.3,13.1,22.4,26.7,29,42.6c6.5,16,7.8,35-0.5,50.1c-3.2,5.7-7.6,10.8-9.8,17
	c-3.5,9.8-1,20.6,1.6,30.6c13.8,53.2,28.5,106.2,44.2,159c4.5,15.2,8.5,33.5-2,45.4c-8,9.1-21.7,10.5-33.7,8.8
	c-12-1.6-23.8-5.7-35.9-5.1c-10,0.5-19.6,4-29.4,6.6c-17.2,4.5-35.1,5.9-52.8,7.3c-17.2,1.3-34.6,2.7-51.8,0.8
	c-11.3-1.2-22.4-3.8-33.5-6.3c-15.5-3.6-31-7.2-46.5-10.7c-14-3.2-26.7-9.3-28.7-25c-2-15.6,4-27.3,7.6-42
	c4.5-18.1,8.7-36.3,12-54.6C178.3,463.6,181,427.2,173.8,391.7z"/>
<path opacity="0" fill="none" stroke="#000000" stroke-width="51" stroke-linecap="round" stroke-linejoin="round" stroke-miterlimit="10" d="
	M170,156.5c45.6-1.1,91.1-2.2,136.7-3.4c33.4-0.8,67-1.6,100.2,2.1c11.1,1.2,22.6,3.1,31.8,9.4c-7.6,14.3-26.2,17.8-42.4,19.1
	c-85.1,7.2-172.5,0.9-254.3,25.5c-1.8,0.5-3.8,1.2-4.8,2.8c-3.1,4.6,4,9.2,9.4,10.2c109,19.8,225.4-8.5,329.5,29.1
	c-7.9,7.1-19.4,8-30,8.3c-112.4,3.5-227.3-16-336.2,12.2c2,6,8.3,9.4,14.1,11.8c42.5,17.5,90.1,15.3,136,15.7
	c58.3,0.6,116.5,6.1,173.9,16.3c7.7,1.4,17.2,5,17.2,12.7c-12.8,8-28.2,10.6-43.2,12.2c-89,9.7-179.9-9.9-268,5.7
	c-3,4.7,2.6,10.1,7.6,12.5c19,9,40.4,11.5,61.3,12.9c92.5,6,187.8-7.3,276.3,20.4c-103.2,27.5-212.8,8.4-318.9,21
	c-4.6,0.5-9.6,1.3-12.8,4.6c-5.5,5.7-2.5,16,3.9,20.6c6.4,4.7,14.8,5.3,22.8,5.7c39.9,2.2,79.8,4.4,119.7,6.7
	c20,1.1,39.9,2.2,59.9,3.3c9.8,0.5,20.2,2.1,30,1.7c7.5-0.4,14.2-3.7,21.8-3.6c8.1,0.1,15.6,4,22.7,7.9
	c11.9,6.4,38.3,18.3,19.1,32.4c-5,3.6-11.4,4.3-17.6,4.8c-86.1,5.9-171.8-21.5-257.5-13.2c-14.5,1.4-29.1,3.1-42.6,8.6
	c6.7,7.2-2,19.9,9,29.1c16.5,13.6,44,9.1,63.9,9.9c25.5,1.1,51.1,2.4,76.6,4.1c32.7,2.1,71,11.2,103.3,6.6
	c33.8-4.9,67.1-3,100.4,5.7c5.3,1.4,7.1,5.6,12.5,6.6c-11.4,18.2-36.6,20.6-58.1,20.6c-80.5-0.1-160.8-7.4-241.3-7.1
	c-17.2,0.1-35.1,0.7-50.3,8.6c-8,4.2-14.5,13.4-7.7,21.9c5.5,6.8,18.4,6.4,26.2,7.3c27.9,3.4,56.1,3.8,84.2,4.1
	c78.4,1,156.8,1.9,235.1,2.9c-21.2,15.7-51.8,18.8-78.2,20.1c-31,1.6-62,3.2-93,4.8c-18.9,1-38,2-56.6-1.5"/>
</svg>
