<?xml version="1.0" encoding="utf-8"?>
<!-- Generator: Adobe Illustrator 20.1.0, SVG Export Plug-In . SVG Version: 6.00 Build 0)  -->
<!DOCTYPE svg PUBLIC "-//W3C//DTD SVG 1.0//EN" "http://www.w3.org/TR/2001/REC-SVG-20010904/DTD/svg10.dtd">
<svg version="1.0" xmlns="http://www.w3.org/2000/svg" xmlns:xlink="http://www.w3.org/1999/xlink" x="0px" y="0px" width="288px"
	 height="288px" viewBox="0 0 288 288" enable-background="new 0 0 288 288" xml:space="preserve">
<g id="Color">
	<path fill="#FFFFFF" d="M127.8,139.6l5.5,18.8c0,0,12.4,3.9,23.2-0.7l3.6-20.1l-9.1,3.7l-7.1-13l-6.9,13.3L127.8,139.6z"/>
</g>
<g id="Lines">
	<path fill="none" stroke="#000000" stroke-width="2" stroke-miterlimit="10" d="M127.8,139.6l5.5,18.8c0,0,12.4,3.9,23.2-0.7
		l3.6-20.1l-9.1,3.7l-7.1-13l-6.9,13.3L127.8,139.6z"/>
</g>
<g id="Stroke">
	
		<path opacity="0" fill="none" stroke="#231F20" stroke-width="9" stroke-linecap="round" stroke-linejoin="round" stroke-miterlimit="10" d="
		M119.4,139.5c4-2.5,7.1-6.1,11-8.8c3.9-2.7,8.4-4.5,12.8-6.2c3-1.1,6-2.3,9.1-2.5c0.2,1-0.6,1.9-1.3,2.7
		c-6,5.5-12.8,10.1-20.2,13.5c-2.1,1-4.4,1.9-6.1,3.4c-1.8,1.5-3.1,3.8-2.8,6.1c0.1,0.4,0.2,0.8,0.5,1.2c0.5,0.6,1.3,0.7,2.1,0.7
		c2.9-0.1,5.7-1.2,8.2-2.8c2.5-1.6,4.7-3.5,7-5.3c6.7-5.2,14.4-9.1,21.9-13c-1.2,3.7-3.9,6.7-6.9,9.2c-2.7,2.3-5.6,4.4-8.7,6.1
		c-3.4,1.9-7,3.4-10.4,5.3c-3.4,1.9-6.7,4.2-9,7.3c-0.6,0.9-1.2,1.9-1.1,2.9c2.3-0.3,4.4-1.1,6.6-2c3.6-1.4,7.2-2.9,10.4-5
		c2.6-1.7,4.9-3.9,7.6-5.6c3.5-2.2,7.5-3.4,11.2-5.2c2.6-1.2,5.1-2.7,7.6-4c0.8-0.4,1.7-0.9,2.7-0.8c-1.5,4.8-5,8.7-9.2,11.5
		c-4.1,2.8-8.8,4.6-13.5,6.4c-4.7,1.8-9.4,3.5-13.6,6.2c-1.5,0.9-3,2.3-2.8,4c6.2-0.4,11.5-4.2,17-7c5.4-2.6,11.3-4.3,17.2-4.9
		c-1.3,3.5-4.4,6.2-7.5,8.3c-3.1,2.1-6.5,3.9-9.2,6.6"/>
</g>
</svg>
