<?xml version="1.0" encoding="utf-8"?>
<!-- Generator: Adobe Illustrator 22.1.0, SVG Export Plug-In . SVG Version: 6.00 Build 0)  -->
<!DOCTYPE svg PUBLIC "-//W3C//DTD SVG 1.0//EN" "http://www.w3.org/TR/2001/REC-SVG-20010904/DTD/svg10.dtd">
<svg version="1.0" id="Layer_1" xmlns="http://www.w3.org/2000/svg" xmlns:xlink="http://www.w3.org/1999/xlink" x="0px" y="0px"
	 width="288px" height="288px" viewBox="0 0 288 288" enable-background="new 0 0 288 288" xml:space="preserve">
<g id="Layer_1_1_">
	
		<ellipse transform="matrix(1.504548e-02 -0.9999 0.9999 1.504548e-02 68.4431 353.4054)" fill="none" stroke="#000000" stroke-width="2" stroke-miterlimit="10" cx="213.6" cy="142" rx="10" ry="15.1"/>
	<polyline fill="none" stroke="#000000" stroke-width="2" stroke-miterlimit="10" points="199.9,146.1 194.4,145.8 194.3,139.5 
		197.9,139.4 	"/>
	<path fill="none" stroke="#000000" stroke-width="2" stroke-miterlimit="10" d="M193.2,133.6c1-0.1,0.2,22.9,0.2,22.9l-33.5,7.9
		c0,0-11.1-15.4-10.1-16.1c1-0.7-0.1-11.7-0.1-11.7L193.2,133.6z"/>
	<polyline fill="none" stroke="#000000" stroke-width="2" stroke-miterlimit="10" points="183.9,159.6 182.4,163.7 176.5,171.8 
		168.6,177.2 148.1,184.1 143.5,180.6 130.9,184.1 129.2,187.7 143.2,188.4 172.2,187.7 187.9,174.8 193.4,156.5 	"/>
	<line fill="none" stroke="#000000" stroke-width="2" stroke-miterlimit="10" x1="148.1" y1="184.1" x2="143.8" y2="187.8"/>
	<line fill="none" stroke="#000000" stroke-width="2" stroke-miterlimit="10" x1="169.1" y1="176.9" x2="172.2" y2="187.7"/>
	<polyline fill="none" stroke="#000000" stroke-width="2" stroke-miterlimit="10" points="191.8,133.6 169.1,129.6 155.2,136.3 	"/>
	<polyline fill="none" stroke="#000000" stroke-width="2" stroke-miterlimit="10" points="149.8,148.3 71,165.1 71.9,170.1 
		159.9,164.4 	"/>
	<path fill="none" stroke="#000000" stroke-width="2" stroke-miterlimit="10" d="M71.2,160.4c0.6-0.1,78.6-23.7,78.6-23.7"/>
	<polygon fill="none" stroke="#000000" stroke-width="2" stroke-miterlimit="10" points="70.7,165.4 71.3,151.9 64.2,147.5 
		66.1,169.8 70.5,170.1 70.6,167.2 	"/>
	<polyline fill="none" stroke="#000000" stroke-width="2" stroke-miterlimit="10" points="64.1,148.1 59.3,146.1 62.2,167.7 
		66,168.8 	"/>
</g>
</svg>
