<svg id="Layer_1" data-name="Layer 1" xmlns="http://www.w3.org/2000/svg" viewBox="0 0 115.89 414.02"><title>DepressedMan</title><ellipse cx="314.58" cy="124.2" rx="41.5" ry="27.83" transform="translate(-131.49 301.58) rotate(-71.74)" fill="none" stroke="#231f20" stroke-miterlimit="10" stroke-width="2.79"/><line x1="60.16" y1="70.85" x2="51.97" y2="84.98" fill="none" stroke="#231f20" stroke-miterlimit="10" stroke-width="2.79"/><line x1="75.28" y1="81.93" x2="72.9" y2="91.87" fill="none" stroke="#231f20" stroke-miterlimit="10" stroke-width="2.79"/><polyline points="64.95 206.56 85.04 95.86 30.95 78.06 14.95 196.56 49.99 208.06" fill="none" stroke="#231f20" stroke-miterlimit="10" stroke-width="2.79"/><polyline points="49.99 101.06 38.95 168.06 57.45 232.63 68.95 232.63 58.45 166.85 68.95 107.06" fill="none" stroke="#231f20" stroke-miterlimit="10" stroke-width="2.79"/><polyline points="57.45 232.63 63.11 247.47 59.45 264.39 71.11 268.56 75.78 245.9 68.95 232.63" fill="none" stroke="#231f20" stroke-miterlimit="10" stroke-width="2.79"/><line x1="38.95" y1="168.06" x2="58.45" y2="166.85" fill="none" stroke="#231f20" stroke-miterlimit="10" stroke-width="2.79"/><polyline points="14.95 196.56 6.11 383.56 17.3 384.89 33.87 278.54" fill="none" stroke="#231f20" stroke-miterlimit="10" stroke-width="2.79"/><polyline points="17.3 197.33 56.45 389.23 66.11 389.23 63.45 265.89" fill="none" stroke="#231f20" stroke-miterlimit="10" stroke-width="2.79"/><polyline points="6.11 383.56 1.78 398.89 41.71 403.89 48.89 396.61 17.3 384.89" fill="none" stroke="#231f20" stroke-miterlimit="10" stroke-width="2.79"/><polyline points="56.45 389.23 56.45 403.23 96.11 412.56 111.78 406.23 66.11 389.23" fill="none" stroke="#231f20" stroke-miterlimit="10" stroke-width="2.79"/></svg>