<?xml version="1.0" encoding="utf-8"?>
<!-- Generator: Adobe Illustrator 21.0.0, SVG Export Plug-In . SVG Version: 6.00 Build 0)  -->
<!DOCTYPE svg PUBLIC "-//W3C//DTD SVG 1.0//EN" "http://www.w3.org/TR/2001/REC-SVG-20010904/DTD/svg10.dtd">
<svg version="1.0" xmlns="http://www.w3.org/2000/svg" xmlns:xlink="http://www.w3.org/1999/xlink" x="0px" y="0px" width="288px"
	 height="288px" viewBox="0 0 288 288" enable-background="new 0 0 288 288" xml:space="preserve">
<g id="Fill">
	<path fill="#27AAE1" d="M106.4,107.1c0.3-0.2,0.6-0.3,0.9-0.4c1.8-0.8,2.3-0.3,4,0.2c0.7,0.2,3.6,0.1,4.1-0.4s1.6-1.4,2.2-1.4
		s2-0.2,2.8,0s2.6-0.3,3.6-0.1c1,0.2,4.9,0.5,5.9-0.1s4-2,4-2h2.2c0,0,3.1,1.6,3.8,2c0.6,0.4,1.9,2.4,1.6,3s-1,3.2-1,3.2l-0.1,4.1
		l1.2,0.8l4-1.4l3.9-2.2l3.1-1.9l4.4-0.4l0.9,0.9v2.1l-2.2,2.9l0.6,2l2.9,2.9l0.9,2l1.6,2.6v1.9h-1.9h-2.6h-3.1h-2
		c0,0-0.6,2.6-0.8,3.1s-0.2,3.4-0.2,3.4s-0.8,2-1.8,2.2s-2.9,0-2.9,0l-3.2,0.9c0,0-1.4,1.6-1.4,2.2s0.5,1.4,1,2.5s1.9,2.9,1.2,3.4
		s-1.6,1.8-2.9,1.5s-3.1-0.1-4.6-1.4s-4-2.8-4-2.8s-1.5-1.1-3.6-1c-2.1,0.1-2-0.2-2.9,0.5s-0.9,2-0.9,2l0.8,3.5c0,0,1.4,3.1,1.8,3.8
		c0.4,0.7,2.9,4.6,4.5,4.9s3.5-1.1,3.9,0s4.4,4.5,4.8,4.5s2.8-0.5,2.8-1.1s-0.6-1.6-0.1-3.1s0.8-3.2,1.6-3.8s0.1-0.6,1.9-1.1
		s3.8-1.1,3.8-1.1s1.6-0.2,2.8-0.2s2.6,0.2,2.6,0.6s0.4,1.1,0.4,2.2s1.2,3.6,1.5,4s2.6,2.5,3.1,2.5s3.8,1.1,3.8,1.1l3.6,1l1.2,2.1
		v3.9l-0.9,2l-1.4,3.5l-1.5,3.4c0,0,0.1,2.5-0.1,3.6s1.4,0.4-0.5,2.5s-3.1,3.4-3.5,4.1s-2.6,3.5-2.6,3.5l-2.5,1.2l-4,0.8l-2.6-0.6
		l-2.5-2.6c0,0-2.1-2.1-1.9-4s0.4-2.2,0.5-3s0.2-1.9,0.1-4s-0.4-3.6-0.4-3.6l-0.5-1.8l-2.9-1.4l-0.8-0.4l-3-2.1l-0.1-1.9l-0.6-2
		l-0.9-2.1l-3.4-2.5l-4-1.6l-4.3-0.4l-6.1-1.4c0,0,0.4,1.5-1.5-1s-2.6-3.6-2.6-3.6s-0.9-4.5-0.9-5.2s-0.8-3-0.8-3h-1.9
		c0,0-2.1-0.2-2.2-0.5s-0.9-2.2-0.9-2.2l-2.1-4.4v-2.1c0,0-3.2,0-3.2,0.4s1.6,2.6,0,3s-2.5,1.9-3.1,1.1s-2.8-3.9-2.8-3.9
		s-1.8-3-1.8-3.6s1-8.1,1.4-8.2s4-1.9,4-1.9s1.8-2.2,1.2-2.5c-0.9-0.5-3.1-3.2-3.2-4.2c0-0.9,0.8-1.4,1.3-2.1
		c0.8-1.2,1.1-2.3,2.3-3.2C103.9,108.8,105.1,107.8,106.4,107.1z"/>
	<path fill="#27AAE1" d="M170.8,97.5c0.1,4.1,0.7,8.2,1.8,12.1c0.1,0.3,0.2,0.6,0.4,0.7c0.1,0.1,0.3,0.2,0.4,0.2
		c3.7,1.5,7.9,1.7,11.8,0.7c0-0.4-0.2-0.7-0.4-1.1c-1.9-2.9-3.9-6-6.8-7.9c-1-0.6-2.1-1.2-2.9-1.9c-0.6-0.6-1.1-1.2-1.8-1.7
		s-1.5-0.8-2.3-0.5"/>
	<path fill="#26A9E1" d="M190.9,168.6c-1.2-0.7-2.6-1.4-3-2.7c-0.1-0.4-0.2-0.9-0.2-1.3c0-1.5,0.3-3,0-4.4c-0.6-2.1-2.6-3.5-3.5-5.4
		c-0.9-1.9-0.7-4-0.4-6c0.2-1.5,0.5-3,1.1-4.4c0.3-0.7,0.8-1.3,1.2-2c1.2-1.7,2.4-3.5,3.6-5.2c0.9-1.4,2-2.8,3.5-3.5
		c0.8-0.3,1.8-0.4,2.5,0.1c0.9,0.7,0.8,2.1,0.8,3.2c-0.1,1.3-0.1,2.6,0,3.9c0.1,2,0.5,3.7,0.3,5.7c-0.2,2.2-0.4,4.3-0.6,6.5
		c-0.2,2.6-1.1,5.2-1.9,7.7c-0.7,2.2-1.4,4.4-2.5,6.4c-0.2,0.4-0.5,0.9-0.9,1.2s-1.1,0.3-1.4-0.1"/>
</g>
<g id="Stroke">
	
		<path opacity="0" fill="none" stroke="#D54F9D" stroke-width="7" stroke-linecap="round" stroke-linejoin="round" stroke-miterlimit="10" d="
		M122.8,126.5c-1,0.4-1.7-1.5-0.8-2c1-0.5,2.1,0.8,1.7,1.8c-0.5,1-2,1.1-2.7,0.3c-1.1-1.1-0.2-3.4,1.4-3.6c1.6-0.1,3,1.6,2.6,3.2
		c-0.5,2.4-4.4,2.8-5.7,0.7c-1.3-2.1,0.3-5.1,2.7-5.5c3.1-0.5,5.9,3.3,4.5,6.2c-1.4,2.8-5.9,3.2-7.8,0.7s-0.5-6.7,2.4-7.7
		c3-1,6.5,1.2,7.1,4.3c0.5,3.1-1.9,6.3-5,6.8c-3.8,0.6-7.7-3.2-6.8-7c0.3-1.3,1.1-2.5,2.1-3.5c2.5-2.4,6.5-3.6,9.6-1.8
		c3.2,1.9,3.9,6.6,2,9.7c-2,3.1-6,4.5-9.7,3.9c-1.4-0.2-2.9-0.8-3.8-1.9c-0.6-0.8-1-1.7-1.3-2.7c-1.1-3.6-1.3-8.2,1.7-10.5
		c1.3-1,2.9-1.4,4.6-1.5c3.3-0.2,6.8,0.7,9.2,3.1c2.4,2.3,3.4,6.2,1.9,9.1c-1.9,3.8-6.8,5-11.1,5.1c-1.4,0-2.9,0-4.2-0.7
		c-2.9-1.4-3.8-5.1-4-8.4c-0.1-2.1,0-4.4,1.4-6c1.5-1.8,4-2.2,6.3-2.4c2.2-0.2,4.6-0.3,6.7,0.3c3.2,1,5.8,3.7,6.5,7
		c0.7,3.3-0.4,6.9-2.9,9.1c-2.7,2.5-6.7,3.2-10.4,3c-2.8-0.1-5.7-0.8-7.5-2.9c-1.5-1.8-1.7-4.3-1.9-6.6c-0.2-2.8-0.3-6.1,1.7-8.1
		c1-1,2.3-1.5,3.6-2c3.4-1.1,7.1-1.8,10.6-1c3.5,0.8,6.8,3.1,8,6.5c1.4,4-0.5,8.6-3.8,11.3c-3.3,2.7-7.6,3.8-11.8,4
		c-1.5,0.1-3.1,0-4.5-0.6c-1.1-0.5-1.9-1.4-2.6-2.4c-3.6-4.6-5.2-11.6-1.6-16.2c2.1-2.8,5.7-4.1,9.2-4.3c3.5-0.2,6.9,0.6,10.3,1.5
		c1.7,0.4,3.5,0.9,4.8,2.1c2.5,2.2,2.6,6,2.5,9.4c-0.1,1.5-0.1,3-0.9,4.3c-0.8,1.5-2.4,2.4-3.9,3.3c-3.8,2.2-7.7,4.3-12,4.9
		c-4.3,0.5-9.2-1.1-11.2-4.9c-1.2-2.3-1.3-5-1.3-7.6c0-2.7,0-5.5,0.8-8.2s2.7-5.1,5.3-5.9c1.5-0.5,3.1-0.4,4.7-0.4
		c2.6,0.1,5.2,0.2,7.9,0.4c2.7,0.1,5.5,0.3,7.7,1.8c4,2.8,4.1,8.5,3.8,13.3c-0.1,2-0.3,4.1-1.3,5.8c-1.5,2.4-4.5,3.5-7.2,4.2
		c-5.4,1.3-11,1.9-16.6,1.8c-1.7,0-3.6-0.3-4.4-1.7c-0.5-0.9-0.5-2.1-0.7-3.1c-0.2-1.1-1-2.2-2-2.1c0.3-4.8,0.5-9.5,0.8-14.3
		c0.1-2,0.3-4.2,1.6-5.8c1.4-1.7,3.9-2.2,6.1-2.4c5.3-0.5,10.6-0.1,15.7,1.1c2.3,0.6,4.8,1.4,6.5,3.1c2.2,2.2,2.9,5.6,3.2,8.7
		c0.4,3.6,0.4,7.4-1.1,10.7s-4.7,6.1-8.3,5.9c-1.7-0.1-3.4-0.7-5.1-0.5c-1,0.1-1.9,0.5-2.9,0.8c-4.5,1.6-9.4,2.1-14.1,1.3
		c0-1.8,0-3.7-0.7-5.3c-0.8-1.6-2.6-2.9-4.3-2.4c0.9-6.7,1.8-13.4,2.7-20.2c0.2-1.3,0.4-2.7,1.4-3.5c0.9-0.8,2.1-0.9,3.3-1
		c3.1-0.2,6.1-0.4,9.2-0.7c6-0.4,12.7-0.6,17,3.6c3.1,3,4,7.6,4.5,11.9c0.4,2.9,0.6,5.8,0,8.6c-0.6,2.8-2.2,5.5-4.7,6.9
		c-4,2.1-9,0.4-13.2,1.8c-1.4,0.5-2.7,1.3-4.1,1.7c-2.3,0.7-4.8,0.2-7.1-0.3c-2-0.4-4.4-1.1-4.9-3.1c-0.3-1.1,0.1-2.3-0.3-3.3
		c-0.7-1.6-2.8-1.9-4.5-2c-0.2-7.4,0.9-14.7,3-21.8c0.3-0.9,0.6-1.9,1.3-2.6c1-0.9,2.4-1.1,3.7-1.2c6.9-0.8,13.8-1.5,20.8-2.3
		c2.2-0.2,4.5-0.5,6.7-0.3c0.5,0,1,0.2,1.1,0.7c0,0.3-0.2,0.6-0.5,0.8c-1.3,1.1-3.1,1.5-4.7,1c0-1.5,2.5-1.5,3.3-0.3
		s0.6,2.8,0.8,4.3c0.6,3.8,4.1,6.4,5.4,9.9c1.5,3.8,0.2,8.1-1,11.9c-0.4,1.1-0.8,2.3-1.6,3.2c-2.2,2.2-6.7,1.2-8.3,3.9
		c-3.3-0.9-7.4-1.6-9.4,1.1c-0.3,0.5-0.6,1-1.1,1.3c-0.5,0.3-1.1,0.2-1.6,0.2c-2.6-0.2-5.2-0.5-7.7-0.7c-1.5-0.1-3.1-0.3-4.1-1.5
		c-1.4-1.6-0.8-4.1-1.8-5.9c-0.7-1.3-2.4-2-3.8-1.8s-2.7,1.6-2.9,3.1c-3.2-3.4-3-9.5,0.4-12.8c2.2,2.2,2,6.4-0.5,8.4
		c-1.5-2.1-0.4-5,0.9-7.3c1.3-2.3,2.6-5,1.4-7.3c-0.4-0.8-1.1-1.4-1.5-2.2c-0.8-1.6-0.3-3.6,0.8-5c1.1-1.4,2.8-2.2,4.4-3
		c1,2.6-0.3,5.9-2.8,7.1c-0.3-3.1,3.4-4.8,6.4-5.5c3.6-0.9,7.3-1.6,11-2.2c5.5-0.9,11.6-1.3,16.3,1.7c0,2.5,0.6,5.2,2.5,6.8
		c1.9,1.6,5.3,1.5,6.4-0.7c3.5,6,3.4,13.9-0.2,19.8c-1.7-1.8-1.6-4.5-1.4-6.9c0.3-3.4,0.5-6.8,1.9-9.9c1.3-3.1,3.9-5.9,7.3-6.5
		c1-0.2,2.3,0.2,2.3,1.1c0,0.4-0.4,0.8-0.7,1.1c-1.4,1.3-3.1,2.3-4.9,3c-0.9-0.8,0.3-2.4,1.5-2.1s1.9,1.5,2.4,2.5
		c0.3,0.5,0.5,1,0.8,1.5c0.1,0.2,0.2,0.5,0.3,0.7c0.1,0.7-0.5,1.4-1,2c-2,2.3-3.5,5-4.4,7.9c-2.4-3.1-1.9-8,1.1-10.6
		c1.9,2.7,5,4.3,8,5.7c-2.2,2.1-6.5-0.4-8.7,1.7c-1.8,1.7-0.8,4.9-2.2,6.9c-1.7,2.4-6.3,2-7.3,4.9c-0.4,1.2,0.1,2.6-0.2,3.8
		c-0.6,2.4-4.4,2.9-5.6,0.8c-0.2-0.4-0.3-0.9-0.1-1.2c0.2-0.3,0.7-0.4,1.1-0.3c1.8,0.1,3.5,1.4,4.2,3.1c-1.1,1-2.9,0.4-4-0.7
		c-1.1-1-1.9-2.4-3.2-3.1c-1.6-0.8-3.5-0.5-5.3,0c-1.3,0.3-2.6,0.6-3.4,1.7c-0.5,0.6-0.7,1.4-1.1,2c-1.7,2.4-5.3,1.8-8.1,0.9
		c2.9-0.8,6.1-0.2,8.5,1.5c0.2,1.3-1.6,1.9-2.9,2c-3,0.1-6,0.3-9,0.4c2,2.2,5.5,1.9,8.3,1c2.8-0.9,5.7-2.2,8.6-1.4
		c-1.7,2.1-4.8,2.3-7.5,2.6c-2.7,0.3-5.9,1.5-6.4,4.1c2.4,1.4,5.4-0.2,7.6-1.9c2.2-1.7,4.8-3.7,7.5-3c-2,3-4.7,5.6-7.8,7.5
		c4.5,0.9,8.8-2.1,12.4-5c-0.9,2.8-1.8,5.6-2.7,8.4c4.6-0.4,6.1-7.3,10.6-8.1c-1.1,5.9-8,10.2-7.1,16.2c3.2-2.3,5.6-5.7,6.8-9.5
		c0.8-2.7,1.8-6.3,4.6-6.5c-2.1,7.2-3.4,14.6-3.8,22.1c5.5-8.3,3.1-20.4,9.7-27.8c-3.5,13.2-13.2,25.2-12.2,38.8
		c5.1-12.1,10.3-24.2,17.3-35.3c-4.5,14.4-8.9,28.9-13.4,43.3c4-6.1,5.6-13.4,7.7-20.4c2.1-7,5-14.2,10.8-18.6
		c-5.1,13.2-10.2,26.4-15.3,39.5c6.8-9.1,10.6-20.2,14.1-31c0.7-2,1.5-4.3,3.5-5.1c-2.6,12.3-5.5,24.5-8.8,36.6
		c3.2-5.9,5.5-12.3,6.8-18.8c0.6-3.2,1.1-6.5,2.2-9.5c1.2-3.1,3.2-6,6.1-7.4c-2.6,9.5-5.1,19-7.7,28.5c4.3-4.2,8.6-8.5,11.2-14
		c0.9-1.9,1.5-3.9,2.2-5.9c3.8-11.3,8.2-22.5,12.5-33.6c-3.7,8.4-5.5,17.6-5.4,26.8c2.4-9,4.5-18,6.4-27.1
		c-0.5,10.7-1.9,21.4-4.2,31.9c1.9-10.8,3.8-21.6,5.7-32.4c-0.3,11.8-1.5,23.6-3.7,35.2c6-10.3,3.5-23.5,8.1-34.5
		c-2.8,11.4-4.2,23.1-4.1,34.9c5.2-7.7,6.9-17.3,6.4-26.6s-2.9-18.3-5.3-27.3c-0.5-2-1.1-4-2.4-5.6c-1-1.2-2.4-2-3.7-2.8
		c-5.8-3.5-11.6-7.1-17.5-10.6c5.9,4.1,11,9.3,15,15.2c-6.7-4.7-13.4-9.4-20.1-14.1c3.5,2.7,7.7,4.2,11.6,6.3c3.9,2,7.7,4.7,9.6,8.7
		c-4.9-1.3-9.5-3.5-13.7-6.3c2.6,2,5.2,4,7.8,6c-3.4-1.5-7.1-2.3-10.8-2.6c1.9,2,4.3,3.6,6.8,4.6c-0.1,1.1-0.3,2.3-0.4,3.4"/>
</g>
</svg>
