<?xml version="1.0" encoding="utf-8"?>
<!-- Generator: Adobe Illustrator 20.1.0, SVG Export Plug-In . SVG Version: 6.00 Build 0)  -->
<!DOCTYPE svg PUBLIC "-//W3C//DTD SVG 1.0//EN" "http://www.w3.org/TR/2001/REC-SVG-20010904/DTD/svg10.dtd">
<svg version="1.0" xmlns="http://www.w3.org/2000/svg" xmlns:xlink="http://www.w3.org/1999/xlink" x="0px" y="0px" width="288px"
	 height="288px" viewBox="0 0 288 288" enable-background="new 0 0 288 288" xml:space="preserve">
<g id="Color">
	<path fill="#FFFFFF" d="M259.4,117.4c-1.3,3.7-9,17.3-11.5,21.8c-0.1,0-0.2,0-0.3,0c3.2-10.1,0.7-35.9,0.7-35.9
		C248.2,111.7,235,137,235,137c0.5-8.7-3.5-21-3.5-21c-0.8,8.7-6.7,18.6-8,20.6c-1.3,0.5-2.6,1.2-3.9,1.8c-1.5,0.7-2.9,1.5-4.4,2.2
		c-2.8,1.4-5.6,3-7.3,5.7c-0.5,0.8-0.8,1.4-1.1,1.8c-2.5-6.9-7.6-15.1-7.6-15.1c0.3,6.8-3.7,18.1-3.7,18.1
		c-3.2-17.1-9.2-28.5-9.2-28.5c2.6,11.3-4.5,29.2-4.5,29.2c-3.2-6.3-11.7-8.8-11.7-8.8c4,7,5.2,13.7,5.5,17.3
		c-0.3,0.6-0.6,1.3-1,1.8c-2.6,3.7-8.5,3.2-11.7,6.4c-2.2,2.2-3.6,6.3-6.6,6.2c-0.3-1.8-0.7-5,0-5.7c0,0-0.3,0.3-0.7,0.8
		c0-0.4-0.1-0.8-0.1-1.2c-5.3,6.7-11.3,12.8-17.8,18.2c-0.2-0.9-0.4-1.8-0.6-2.7l-4.3-24.3c-0.4,1.3-0.7,2.4-1.1,3.6
		c-0.2-0.2-0.4-0.3-0.7-0.3c-1.1,5.1-3.4,10-6.6,14.2c-7.4-15.4-23.2-61.4-23.2-61.4c-2.3,17.6,2.2,50.1,3.3,57.7
		c-0.1,0.3-0.1,0.6-0.2,1c0,0-0.1,0-0.1,0c-2.1-2.7-9.7-12.6-9.7-12.6c0,0.5-0.1,1-0.1,1.5c-6.3-7.2-17.6-7.1-26.6-11
		c0-0.6-0.1-1.3-0.1-1.9c-0.2-12.7,4.5-34.8,4.5-34.8c-7.7,4.7-15.2,18-15.2,18c-2.7-7-9.2-45.7-9.2-45.7
		c-6.5,12.6-3.7,41.8-3.7,41.8c-4.3-4.8-16.8-21.5-16.8-21.5c0.8,13.3,6.3,28.6,8.1,33.4c-0.1,0.1-0.3,0.2-0.4,0.3
		c-0.2,2.5,1.1,5.1,3.2,6.5c-1.1,0.4-2.2,0.8-3.3,1.2c-4,8.4,7.3,5.2,10.9,4.4c1.1-0.3,2.2,0.6,2.2,1.8v6.1c0,1.2,1.2,2.1,2.4,1.8
		l2.3-0.7c1.2-0.4,2.4,0.5,2.4,1.8v5.6c0,1.5,1.6,2.3,2.8,1.5l7.8-5c1.2-0.8,2.7,0,2.8,1.4l1,14.1c0.1,1.4,1.6,2.2,2.8,1.4l7.3-4.6
		c0.9-0.5,2-0.3,2.6,0.6l5.4,9c0.6,1,2,1.2,2.8,0.4l4.6-4.2c0.9-0.8,2.2-0.6,2.8,0.4l5.5,9.4c0.6,1.1,2.1,1.2,2.9,0.3l7-7.6
		c0.8-0.9,2.3-0.7,2.9,0.3l6,10.2c0.7,1.2,2.5,1.2,3.2,0l0.4-0.7c0.6-1.1,2.1-1.2,2.9-0.3l5.2,5.6c0.8,0.8,2.1,0.8,2.8-0.1l5.5-7.2
		c0.6-0.7,1.6-0.9,2.4-0.5l6.6,3.7c1,0.6,2.3,0.1,2.7-1.1l2.7-9c0.4-1.3,2.1-1.8,3.1-0.8l2,2c1,1.1,2.9,0.5,3.1-1l2.5-13.9
		c0.2-1.2,1.5-1.9,2.6-1.3c5.1,2.4,17.4,8.2,17.9,7.4c0.5-0.7,5.2-6.8,8.1-10.5c0.9-1.2,2.8-0.8,3.2,0.6l0.9,3
		c0.4,1.4,2.2,1.7,3.1,0.6l3.1-3.6c0.9-1,2.6-0.8,3.1,0.5l1,2.5c0.5,1.4,2.4,1.6,3.2,0.4l1.9-2.7c0.6-0.9,2-1,2.8-0.3l3.1,3
		c0.9,0.9,2.5,0.6,3-0.6l1.2-2.8c0.5-1.1,1.8-1.5,2.8-0.8l3.7,2.8c1.2,0.9,2.9,0,2.9-1.5c0,0,0-11.8,0-11.8c0-1.7,1-1.9,2.2-1.7
		c1.2,0.2,2.7,0.9,3.4,0.9c2.9,0,3.5-1.5,4.5-4.2c1.2-3.2,3.7-5.9,6.8-7.3c0.9-0.4,1.9-1,2.1-1.8
		C261.6,133.7,259.4,117.4,259.4,117.4z"/>
</g>
<g id="Stroke">
	
		<path opacity="0" fill="none" stroke="#000000" stroke-width="16" stroke-linecap="round" stroke-linejoin="round" stroke-miterlimit="10" d="
		M21.3,88.8c16.8-4,34.6-4,51.4,0c-8.9,4.6-19,6.2-28.6,9.1s-19.4,7.3-24.8,15.8c18.5-2.2,37.1-4.5,55.6-6.7c0.6,5.1-5.4,8-10.3,9.4
		c-11.1,3.2-22.2,6.5-33.3,9.7c-3.3,1-6.7,2-9.5,4s-5,5.3-4.7,8.7c11.8,1.6,23.2-4.3,33.8-9.5s22.8-10.2,34.2-6.6
		c-14.8,7.5-29.3,15.6-43.4,24.4c-7.4,4.6-15.6,10.9-15.6,19.7c9.7-1.7,19.8-3.6,27.5-9.7c4.1-3.2,7.3-7.5,11.3-10.8
		c4.1-3.3,9.6-5.6,14.5-3.8c-9,8.4-17.6,17.2-25.9,26.3c-3.2,3.5-6.5,7.6-6,12.3c7.5-1.3,14.3-5.8,18.4-12.2
		c2.7-4.1,4.3-8.9,7.4-12.7s8.6-6.4,12.9-4c-5,10.6-8.9,21.7-11.7,33.1c-0.7,2.8-0.8,6.5,1.8,7.6c2.6,1.1,5.2-1.6,6.6-4.1
		c3.5-6.1,6.1-12.7,7.6-19.5c0.7-2.9,1.1-5.9,2.6-8.5c1.5-2.6,4.1-4.8,7.1-4.6c1.2,6.5-0.5,13.1-0.9,19.7s1,14,6.5,17.7
		c2.4-2.5,2.5-6.2,2.4-9.7c-0.4-19-3.9-38-10.1-55.9c-1-2.9-2.1-5.9-1.5-8.8c0.6-3,3.7-5.6,6.5-4.6c2.8,15.3,5.7,30.6,8.5,45.8
		c2.9,15.8,6.1,32.1,14.8,45.6c-0.4-15.6,0.2-31.3,1.9-46.8c3.9-0.4,5.4,4.9,5.5,8.8c0.2,6.9,1.9,13.7,2.1,20.6
		c0.1,3.2,0.7,6.4,2.1,9.3c1.4,2.8,2.4,5.1,5.6,4.6c18.4-5.3,0.9-26.1,3.5-38.8c5.8,1.6,9.1,7.5,11.2,13.1
		c2.1,5.6,3.8,11.8,8.3,15.6c5.7-5.3,2.1-14.6,1.8-21.2c-0.3-8.9,0.8-18.5,2.2-27.2c2.5,2.7,3.8,6.2,5,9.7c1,2.8,2,5.6,2.9,8.3
		c1.5,4.2,2.3,9.7,4.7,13.5c1.9,3,4.8,5.9,7,8.8c6.2-20.2-17-38.6-10-59.1c11.7,17.2,21.1,36,27.9,55.6c15.6-7.2,5.2-15.1,3-22.9
		c-2.2-7.8-5.6-15.7-4.2-23.6c9,9,16.2,19.8,21.2,31.5c1.8,4.2,4.4,9.3,8.9,9.1c7.4-20.4-10.6-31.4-16-47.2
		c13.4,6.4,22.9,19.6,36.9,24.6c0.8-10.3-4.5-20.9-13.3-26.3c-5.5-3.4-12.8-5.5-15.1-11.6c11.4,2.8,22.7,5.6,34.1,8.3
		c1,0.2,2.2,0.5,3.1-0.1c0.8-0.5,1.2-1.4,1.3-2.3c1-5.5-3.7-10.2-8.2-13.6c-6-4.5-15.1-1.1-21.6-4.8"/>
</g>
</svg>
