<?xml version="1.0" encoding="utf-8"?>
<!-- Generator: Adobe Illustrator 22.1.0, SVG Export Plug-In . SVG Version: 6.00 Build 0)  -->
<!DOCTYPE svg PUBLIC "-//W3C//DTD SVG 1.0//EN" "http://www.w3.org/TR/2001/REC-SVG-20010904/DTD/svg10.dtd">
<svg version="1.0" id="Layer_1" xmlns="http://www.w3.org/2000/svg" xmlns:xlink="http://www.w3.org/1999/xlink" x="0px" y="0px"
	 width="576px" height="576px" viewBox="0 0 576 576" enable-background="new 0 0 576 576" xml:space="preserve">
<g id="Layer_1_1_">
	
		<ellipse transform="matrix(0.9982 -5.924952e-02 5.924952e-02 0.9982 -7.8953 16.3102)" fill="none" stroke="#000000" stroke-width="2.785" stroke-miterlimit="10" cx="271.1" cy="141.3" rx="21.4" ry="34.2"/>
	<line fill="none" stroke="#000000" stroke-width="2.785" stroke-miterlimit="10" x1="267" y1="174" x2="268" y2="183.7"/>
	<line fill="none" stroke="#000000" stroke-width="2.785" stroke-miterlimit="10" x1="280.6" y1="172.7" x2="280.6" y2="181.2"/>
	<polygon fill="none" stroke="#000000" stroke-width="2.785" stroke-miterlimit="10" points="244.7,187.2 309,177.7 311,292.2 
		261.3,294 	"/>
	<polyline fill="none" stroke="#000000" stroke-width="2.785" stroke-miterlimit="10" points="244.7,187.2 214,230.2 253,285 
		259.4,281.7 	"/>
	<polyline fill="none" stroke="#000000" stroke-width="2.785" stroke-miterlimit="10" points="249.5,213 236.7,234 258.5,275.7 	"/>
	<line fill="none" stroke="#000000" stroke-width="2.785" stroke-miterlimit="10" x1="236.7" y1="234" x2="214" y2="230.2"/>
	<polyline fill="none" stroke="#000000" stroke-width="2.785" stroke-miterlimit="10" points="253,285 232,285 236.7,299.8 
		261.3,291 	"/>
	<polyline fill="none" stroke="#000000" stroke-width="2.785" stroke-miterlimit="10" points="309,177.7 342,171.2 336,127.5 
		326.5,120.7 324,92.2 329.8,92.2 332.2,105.5 345.2,105.5 348,120.7 337,122.5 334,112.2 	"/>
	<polyline fill="none" stroke="#000000" stroke-width="2.785" stroke-miterlimit="10" points="344.1,122.1 362,183.7 309,199.5 	"/>
	<line fill="none" stroke="#000000" stroke-width="2.785" stroke-miterlimit="10" x1="340.6" y1="171.5" x2="362" y2="183.7"/>
	<polyline fill="none" stroke="#000000" stroke-width="2.785" stroke-miterlimit="10" points="310.4,293.5 317.7,483.4 308.4,483.4 
		287.9,293.5 277.4,483.4 266.8,483.4 261.3,294.8 	"/>
	<polyline fill="none" stroke="#000000" stroke-width="2.785" stroke-miterlimit="10" points="317.4,483.5 345.3,495.5 327.6,504.2 
		308.1,483.5 	"/>
	<polyline fill="none" stroke="#000000" stroke-width="2.785" stroke-miterlimit="10" points="277.4,483.4 263,504.3 244.9,495.4 
		267.3,483.7 	"/>
	<line fill="none" stroke="#000000" stroke-width="2.785" stroke-miterlimit="10" x1="244.8" y1="111.7" x2="227" y2="98.7"/>
	<line fill="none" stroke="#000000" stroke-width="2.785" stroke-miterlimit="10" x1="252.8" y1="103.3" x2="236.7" y2="78.7"/>
	<line fill="none" stroke="#000000" stroke-width="2.785" stroke-miterlimit="10" x1="270.3" y1="98.7" x2="273.1" y2="71"/>
	<line fill="none" stroke="#000000" stroke-width="2.785" stroke-miterlimit="10" x1="286.2" y1="101.3" x2="297" y2="78.7"/>
	<line fill="none" stroke="#000000" stroke-width="2.785" stroke-miterlimit="10" x1="294.7" y1="110.5" x2="307.7" y2="98.7"/>
</g>
</svg>
