<?xml version="1.0" encoding="utf-8"?>
<!-- Generator: Adobe Illustrator 20.1.0, SVG Export Plug-In . SVG Version: 6.00 Build 0)  -->
<!DOCTYPE svg PUBLIC "-//W3C//DTD SVG 1.0//EN" "http://www.w3.org/TR/2001/REC-SVG-20010904/DTD/svg10.dtd">
<svg version="1.0" xmlns="http://www.w3.org/2000/svg" xmlns:xlink="http://www.w3.org/1999/xlink" x="0px" y="0px" width="288px"
	 height="288px" viewBox="0 0 288 288" enable-background="new 0 0 288 288" xml:space="preserve">
<g id="Color">
	<polygon fill="#27AAE1" points="153.6,90.3 125.4,137.6 124.5,150.1 156.4,99.7 159.3,96.8 158.8,90.9 	"/>
</g>
<g id="Lines">
	<path fill="none" stroke="#000000" stroke-width="2" stroke-miterlimit="10" d="M140.1,84.3h4.3c6.6,0,12-5.4,12-12V55.6
		c0-6.6-5.4-12-12-12h-4.3c-6.6,0-12,5.4-12,12v16.7C128.1,78.9,133.5,84.3,140.1,84.3z"/>
	<path fill="none" stroke="#000000" stroke-width="2" stroke-miterlimit="10" d="M156.4,65.8c0,0-3.3,1-7.2,0c-3.8-1-5.8-2.8-10.7-1
		c-4.8,1.8-10.5,0.3-10.5,0.3"/>
	<path fill="none" stroke="#000000" stroke-width="2" stroke-miterlimit="10" d="M128.1,59.6c0,0-5.8,4.2,0,7"/>
	<path fill="none" stroke="#000000" stroke-width="2" stroke-miterlimit="10" d="M133.4,90c-4.9-0.4-16.6-6.8-16.6-6.8
		c1.8-3.7,5.4-39.7,8.7-44.2s16.8-0.6,16.8-0.6s17.2-3.5,19.1,6.5s4.8,32.6,7.4,36.2c0,0-2.1,8-11.6,9.9"/>
	<polyline fill="none" stroke="#000000" stroke-width="2" stroke-miterlimit="10" points="146.2,84.3 145.6,89.8 137.4,90 137.4,84 
			"/>
	<path fill="none" stroke="#000000" stroke-width="2" stroke-miterlimit="10" d="M127.7,90.3c0,0,21.3-1.5,31,0.7
		c0,0,11.5,86.9,10.7,117.2c0,0-22.3,11.2-54.3,0C115.2,208.1,130,123.4,127.7,90.3z"/>
	<path fill="none" stroke="#000000" stroke-width="2" stroke-miterlimit="10" d="M127.6,109.6l-12.8,51l-14.1-18.7
		C108.3,120.9,128,90,128,90"/>
	<polyline fill="none" stroke="#000000" stroke-width="2" stroke-miterlimit="10" points="108.9,152.7 98.7,166.3 97.7,155.5 
		104.9,147.5 	"/>
	<polyline fill="none" stroke="#000000" stroke-width="2" stroke-miterlimit="10" points="106.2,156.2 106.4,161.7 109.2,161.8 
		111.1,155.8 	"/>
	<path fill="none" stroke="#000000" stroke-width="2" stroke-miterlimit="10" d="M150.8,90c0,0-21.2,34.6-25.2,44.9l-1.9,16.5
		L159.4,95l-0.5-4.1C158.8,90.9,153.5,90,150.8,90z"/>
	<polyline fill="none" stroke="#000000" stroke-width="2" stroke-miterlimit="10" points="148.5,212.9 151.1,238.3 156.6,238.3 
		158.8,211.5 	"/>
	<polyline fill="none" stroke="#000000" stroke-width="2" stroke-miterlimit="10" points="127.7,211.5 131,238.3 137.1,238.3 
		138.5,213.1 	"/>
	<polygon fill="none" stroke="#000000" stroke-width="2" stroke-miterlimit="10" points="137.1,238.3 115.2,240.8 123.7,251.1 
		137.1,240.9 	"/>
	<polyline fill="none" stroke="#000000" stroke-width="2" stroke-miterlimit="10" points="151.1,238.3 149.5,242.8 171.3,251.1 
		176.5,239.8 156.6,238.3 	"/>
	<path fill="none" stroke="#000000" stroke-width="2" stroke-miterlimit="10" d="M159.4,91c0,0,19.7,30.9,27.3,51.9l-14.1,18.7
		l-10.8-51"/>
	<polyline fill="none" stroke="#000000" stroke-width="2" stroke-miterlimit="10" points="182.5,148.5 189.7,156.5 188.7,167.3 
		178.5,153.7 	"/>
	<polyline fill="none" stroke="#000000" stroke-width="2" stroke-miterlimit="10" points="176.2,156.8 178.2,162.8 180.9,162.7 
		181.2,157.2 	"/>
</g>
<g id="Stroke">
	
		<path opacity="0" fill="none" stroke="#000000" stroke-width="23" stroke-linecap="round" stroke-linejoin="round" stroke-miterlimit="10" d="
		M179.8,95.6c-9.1-3.9-18.5-7.3-28.1-10c-2.1-0.6-4.2-1.2-6.4-0.8s-4.2,1.9-4.4,4.1c-0.4,3.6,3.8,5.6,7,7.2
		c5.4,2.7,9.8,7.5,12.1,13.1c-9.7-0.5-19.4-1.6-29-3.2c0.8,4.3,4.6,7.4,8.5,9.6c3.9,2.2,8.1,3.9,10.9,7.4
		c-6.3,2.1-13.1,4.2-19.5,2.3c-2.1-0.6-4.1-1.7-6.3-1.6c-2.2,0.1-4.4,2.3-3.6,4.3c6.7,1.2,12,7.5,12,14.3c-8,0.5-16,1-24,1.4"/>
</g>
</svg>
