<?xml version="1.0" encoding="utf-8"?>
<!-- Generator: Adobe Illustrator 22.1.0, SVG Export Plug-In . SVG Version: 6.00 Build 0)  -->
<!DOCTYPE svg PUBLIC "-//W3C//DTD SVG 1.0//EN" "http://www.w3.org/TR/2001/REC-SVG-20010904/DTD/svg10.dtd">
<svg version="1.0" id="Layer_1" xmlns="http://www.w3.org/2000/svg" xmlns:xlink="http://www.w3.org/1999/xlink" x="0px" y="0px"
	 width="432px" height="432px" viewBox="0 0 432 432" enable-background="new 0 0 432 432" xml:space="preserve">
<g id="Layer_1_1_">
	<ellipse fill="none" stroke="#000000" stroke-width="2" stroke-miterlimit="10" cx="254.4" cy="107.9" rx="15.4" ry="24.5"/>
	<polyline fill="none" stroke="#000000" stroke-width="2" stroke-miterlimit="10" points="249.4,131.1 249.4,138.2 258.8,138.2 
		258.8,131.4 	"/>
	<polygon fill="none" stroke="#000000" stroke-width="2" stroke-miterlimit="10" points="234.2,138.2 275.5,138.2 271.3,220 
		239,220 	"/>
	<path fill="none" stroke="#000000" stroke-width="2" stroke-miterlimit="10" d="M279.5,180.6"/>
	<polyline fill="none" stroke="#000000" stroke-width="2" stroke-miterlimit="10" points="239,220 241.7,356.4 248.3,356.4 
		255.2,220 262.7,356.4 270.3,356.4 271.3,220 	"/>
	<polyline fill="none" stroke="#000000" stroke-width="2" stroke-miterlimit="10" points="241.7,356.4 221.6,365 234.4,371.2 
		248.3,356.4 	"/>
	<polyline fill="none" stroke="#000000" stroke-width="2" stroke-miterlimit="10" points="262.7,356.4 273.4,371.2 286.4,364.9 
		270.3,356.4 	"/>
	<ellipse fill="none" stroke="#000000" stroke-width="2" stroke-miterlimit="10" cx="187.9" cy="118.8" rx="14.1" ry="23.4"/>
	<path fill="none" stroke="#000000" stroke-width="2" stroke-miterlimit="10" d="M182.3,139.9c-0.1,0.9-0.4,5-0.4,5"/>
	<line fill="none" stroke="#000000" stroke-width="2" stroke-miterlimit="10" x1="191.4" y1="141.5" x2="191.4" y2="144.9"/>
	<path fill="none" stroke="#000000" stroke-width="2" stroke-miterlimit="10" d="M178.8,144.4c11.5,0.4,28,1.1,28,1.1l-8.7,79.3H168
		V144"/>
	<polyline fill="none" stroke="#000000" stroke-width="2" stroke-miterlimit="10" points="168,144 152.5,183.2 154.2,229.7 
		160.2,228.9 162,184.4 168,171.8 	"/>
	<polyline fill="none" stroke="#000000" stroke-width="2" stroke-miterlimit="10" points="160.2,229.2 165,238.5 161.6,241.1 
		158.4,236.2 157.4,237.6 158.4,249 151.9,246.2 154.2,230 	"/>
	<line fill="none" stroke="#000000" stroke-width="2" stroke-miterlimit="10" x1="153.1" y1="183.1" x2="162" y2="184.4"/>
	<polyline fill="none" stroke="#000000" stroke-width="2" stroke-miterlimit="10" points="206.8,145.5 212.8,224.8 208.2,225.7 
		202.5,185.6 	"/>
	<polyline fill="none" stroke="#000000" stroke-width="2" stroke-miterlimit="10" points="208.2,225.7 205.9,233.6 209.1,235.8 
		210.9,232.6 214.6,243.5 221.8,242.5 212.8,224.8 	"/>
	<polyline fill="none" stroke="#000000" stroke-width="2" stroke-miterlimit="10" points="168,224.8 169,353.6 175.2,353.6 
		182.6,225.6 184.7,225.6 197.2,353.6 204.5,353.6 198.2,224.8 	"/>
	<polyline fill="none" stroke="#000000" stroke-width="2" stroke-miterlimit="10" points="169,353.6 149,364.2 165.3,368.5 
		175.2,353.6 	"/>
	<polyline fill="none" stroke="#000000" stroke-width="2" stroke-miterlimit="10" points="197.2,353.6 200.6,370.9 217,368.5 
		204.5,353.6 	"/>
	<path fill="none" stroke="#000000" stroke-width="2" stroke-miterlimit="10" d="M172.2,141.5"/>
	<path fill="none" stroke="#000000" stroke-width="2" stroke-miterlimit="10" d="M234.2,138.2"/>
	<path fill="none" stroke="#000000" stroke-width="2" stroke-miterlimit="10" d="M207.2,150"/>
	<path fill="none" stroke="#000000" stroke-width="2" stroke-miterlimit="10" d="M234.2,151.5"/>
	<path fill="none" stroke="#000000" stroke-width="2" stroke-miterlimit="10" d="M175.9,140.5"/>
	<path fill="none" stroke="#000000" stroke-width="2" stroke-miterlimit="10" d="M234.2,138.2c0,0-20.4,0.1-38.2,0.2"/>
	<path fill="none" stroke="#000000" stroke-width="2" stroke-miterlimit="10" d="M180.3,138.5c-6.1,0-10.3,0.1-10.3,0.1l-1.3,5.6
		l1.4,9.4l7.8,0.7l1.2-12.6"/>
	<path fill="none" stroke="#000000" stroke-width="2" stroke-miterlimit="10" d="M234.2,150c0,0-13.7-1.4-27.5-2.8"/>
	<line fill="none" stroke="#000000" stroke-width="2" stroke-miterlimit="10" x1="172.2" y1="153.6" x2="172.5" y2="146.6"/>
	<line fill="none" stroke="#000000" stroke-width="2" stroke-miterlimit="10" x1="175.1" y1="153.6" x2="175.6" y2="146.8"/>
	<polyline fill="none" stroke="#000000" stroke-width="2" stroke-miterlimit="10" points="275.5,138.2 300.6,158.9 323.8,136.4 
		329.2,132.1 346,132.1 345.2,136.4 336.5,136.4 335.2,144 326.5,144 301.2,174.5 274.7,154.2 	"/>
	<line fill="none" stroke="#000000" stroke-width="2" stroke-miterlimit="10" x1="336.1" y1="138.2" x2="328.8" y2="137.9"/>
	<line fill="none" stroke="#000000" stroke-width="2" stroke-miterlimit="10" x1="328.8" y1="140.6" x2="335.2" y2="141"/>
	<line fill="none" stroke="#000000" stroke-width="2" stroke-miterlimit="10" x1="300.6" y1="158.9" x2="301.2" y2="174.5"/>
</g>
</svg>
