<?xml version="1.0" encoding="utf-8"?>
<!-- Generator: Adobe Illustrator 19.2.1, SVG Export Plug-In . SVG Version: 6.00 Build 0)  -->
<svg version="1.0" xmlns="http://www.w3.org/2000/svg" xmlns:xlink="http://www.w3.org/1999/xlink" x="0px" y="0px" width="288px"
	 height="288px" viewBox="0 0 288 288" enable-background="new 0 0 288 288" xml:space="preserve">
<g id="Layer_2">
	<path fill="#27AAE1" d="M113,113c1.1,0.1,7.2,0.2,7.4-0.6c0.2-0.8-2-6.9-2-6.9l-6.9,4.4L113,113z"/>
	<path fill="#27AAE1" d="M111,130.6c3.1-0.2,8.6-3.3,9.3-2.8s1.9-2,1.8,0c-0.1,2-0.8,6.2-0.8,6.2h-8.8L111,130.6z"/>
	<path fill="#27AAE1" d="M123.9,142.4c0,0-12.3,52.1-4.8,84.5c0,0,3.6-47.3,3.8-50.8c0.2-3.6,4.6-30,8.9-32.6L123.9,142.4z"/>
	<path fill="#27AAE1" d="M145.6,143.5c0,0,11.4,60.4,10.9,76.6l-16.9-71.9l-0.8-4.7H145.6z"/>
	<polygon fill="#27AAE1" points="120.8,231.9 107.3,237.4 110.6,241 122.2,235.6 	"/>
	<path fill="#27AAE1" d="M155.2,228.9c0,0-3.2,2.9-2.5,3.9c0.8,1,15.5,9.2,16,8.8s7.2-8.2,7.2-8.2L155.2,228.9z"/>
	<path fill="#27AAE1" d="M149.4,84.6c-12.6-19.9,1.2-37.2,1.2-37.2s-12.7,1-12.9,17.4c-0.3,14.8,9.5,19.1,11.5,19.8
		C149.3,84.7,149.3,84.6,149.4,84.6z"/>
	<path fill="#27AAE1" d="M136.6,87.4l-9.8,55.5l-5.3-1.8c0,0,5-52,10.4-54c5.4-1.9,0,0,0,0L136.6,87.4z"/>
</g>
<g id="Layer_1">
	<path fill="none" stroke="#000000" stroke-width="2" stroke-miterlimit="10" d="M162.4,76.2c-2.8,5.6-7.7,9.1-12.8,8.6
		c-7.5-0.7-12.8-9.6-11.8-19.9s7.8-18.1,15.3-17.4c7.5,0.7,12.8,9.6,11.8,19.9c-0.2,1.6-0.5,3.2-0.9,4.7"/>
	<path fill="none" stroke="#000000" stroke-width="2" stroke-miterlimit="10" d="M142,50.2c0.2,0,12.8,1.2,17.9-1.7"/>
	<path fill="none" stroke="#000000" stroke-width="2" stroke-miterlimit="10" d="M139.1,52.6c0.5,0.2,11.8,2.3,23.1-2.2"/>
	<path fill="none" stroke="#000000" stroke-width="2" stroke-miterlimit="10" d="M137.5,56.8c1.1-0.2,14.2,2.3,26.8-4.8"/>
	<polyline fill="none" stroke="#000000" stroke-width="2" stroke-miterlimit="10" points="145,83.2 143.5,88.3 148.7,89.2 
		150.9,84.8 	"/>
	<path fill="none" stroke="#000000" stroke-width="2" stroke-miterlimit="10" d="M130.1,87.4c0,0,13-3,31.5,7.5
		c0,0-8.3,21.8-12.2,47.8c0,0-17.2,2.3-28-1C121.5,141.7,122.6,108.4,130.1,87.4z"/>
	<path fill="none" stroke="#000000" stroke-width="2" stroke-miterlimit="10" d="M130.1,87.4c0,0-12.7,4.3-21.2,17.2
		c0,0,10.1,14.5,13.3,24.8"/>
	<path fill="none" stroke="#000000" stroke-width="2" stroke-miterlimit="10" d="M113.3,109.9c0,0,4.9-5.5,12.9-8"/>
	<path fill="none" stroke="#000000" stroke-width="2" stroke-miterlimit="10" d="M118,105.9c0,0,5.7,10.2,5.2,14.2"/>
	<polyline fill="none" stroke="#000000" stroke-width="2" stroke-miterlimit="10" points="120.7,127.7 109,128.6 112.5,133.4 
		122,133.4 	"/>
	<path fill="none" stroke="#000000" stroke-width="2" stroke-miterlimit="10" d="M158.4,104.3c0,0,4.4,11.5,15.4,15.8
		c0,0,11.5-19.7-2.2-42.7l-1.7,1.5c0,0,4.8,18,0.8,27c0,0-7.2-8.1-8.7-10.9"/>
	<line fill="none" stroke="#000000" stroke-width="2" stroke-miterlimit="10" x1="170.8" y1="105.9" x2="173.3" y2="118.8"/>
	<polygon fill="none" stroke="#000000" stroke-width="2" stroke-miterlimit="10" points="172.7,75.7 159.1,70.2 158.4,72.3 
		167.8,80.1 	"/>
	<path fill="none" stroke="#000000" stroke-width="2" stroke-miterlimit="10" d="M138.6,143.5c0,0,16.7,62.5,18.2,83.9
		c0,0,0.5-65.8-7.3-84.7"/>
	<path fill="none" stroke="#000000" stroke-width="2" stroke-miterlimit="10" d="M121.4,142.4c0.4-1-18.9,51.1-0.7,87.1
		c0,0-1.9-67.2,11.5-86"/>
	<path fill="none" stroke="#000000" stroke-width="2" stroke-miterlimit="10" d="M120.6,230.1c-0.2,0-15.3,6.2-15.3,6.2
		s5.1,4.6,5.4,4.6s10.9-7.1,10.9-7.1L120.6,230.1z"/>
	<polygon fill="none" stroke="#000000" stroke-width="2" stroke-miterlimit="10" points="156.4,227 154.7,231.1 170.1,238.6 
		173.7,231.8 	"/>
</g>
<g id="Layer_3" opacity="0">
	<path fill="none" stroke="#00A651" stroke-width="34" stroke-miterlimit="10" d="M130.7,48.3c6.5-2.7,13.8-3.7,20.8-2.9
		c-6.7,4.7-13.9,8.7-21.5,11.8c6.2-0.1,12.4-0.3,18.6-0.4c-5.9,4.4-12.5,7.6-19.6,9.6c6.2,0,12.4,0,18.6-0.1
		c-8.5,3.8-17.3,7-26.3,9.6c8.5,0.1,17.1,0.1,25.6,0.2c-6.6,1.6-13.3,2.5-20.1,2.5c9.6-0.2,19.2,0.3,28.7,1.4
		c-6.7,3.5-14.4,3.9-21.8,5.3c-12.6,2.4-25.5,8.5-31.6,19.9c10.2-4.8,21.2-8.1,32.4-9.8c-9.2,5.8-18.4,11.6-27.6,17.4
		c10.3-1.7,20.5-3.5,30.8-5.2c-10.2,7.7-20.9,14.9-31.9,21.4c9.5-4.3,19.5-7.6,29.7-9.9c-10.8,6.3-21.5,12.7-32.3,19
		c8-0.7,16-2,23.8-4.1c-6.3,3.8-12.3,7.8-18.2,12.1c18.9-7.4,39.8-9.7,59.9-6.7c-18.3,4.4-36.7,8.9-55,13.3
		c12.2-0.2,24.4-0.4,36.7-0.6c-18.5,2.6-36.5,8.5-52.9,17.4c13.8-1.6,27.7-2.2,41.6-1.7c-11.6,2.3-23.5,4.7-33.7,10.7
		c16.8-6.2,34.5-9.9,52.3-11.1c-3,3.2-6.9,5.3-10.8,7.3c-12.7,6.5-25.4,13.1-38.1,19.6c15.9-4.9,32.6-7.7,49.3-8.2
		c-15.2,7.6-34.4,6-48,16.1c16.1-1.3,32.2-2.7,48.3-4c-12.5,2.4-25,4.8-37.5,7.1c-3.6,0.7-7.3,1.4-10.4,3.4c17,0,34,0.1,51.1,0.1
		c-21.5,7.4-43.2,14-65.1,20c23-4,46.4-5.9,69.8-5.5c-23.1,5.7-48.2,4.2-69.6,14.4c27.3,3.8,54-13.9,81.4-11.4
		c-13,7.1-27.1,12.3-41.6,15.5c13.8-3.1,27.7-5.3,41.7-6.8c-3.9,3.4-8.3,6.3-12.9,8.6c7.4,0.4,14.8-2.1,20.4-7
		c-9.5-0.6-19.1,1-27.8,4.7"/>
</g>
</svg>
