<?xml version="1.0" encoding="utf-8"?>
<!-- Generator: Adobe Illustrator 19.2.1, SVG Export Plug-In . SVG Version: 6.00 Build 0)  -->
<svg version="1.0" xmlns="http://www.w3.org/2000/svg" xmlns:xlink="http://www.w3.org/1999/xlink" x="0px" y="0px" width="288px"
	 height="288px" viewBox="0 0 288 288" enable-background="new 0 0 288 288" xml:space="preserve">
<g id="Layer_2">
	<path fill="#27AAE1" d="M79.2,69.2c0,0-9.6,29.2,5.6,40.9c0,0-12.8-3.3-13.8-20.5S79.2,69.2,79.2,69.2z"/>
	<path fill="#27AAE1" d="M70.9,122.2c0,0-14.9,26.9,0,63.3l1.7-0.6l-2.5-13.6l-1.5-0.4c0,0-3-15.8-2-20.7c1-4.8,3.2-14.1,3.2-14.1
		l2.8-3.3l1.8,43.9l5.2,62.5l-14.5,7.5l11.6,5.8l9.1-10.8l-3.4-1.7l-3.4-63.5l-2.4-49l2.4-2.5l-4.1,1.8L70.9,122.2z"/>
	<polygon fill="#27AAE1" points="94,176.8 96.2,239.3 112.8,249.9 98,252.5 92.5,241 93.5,239.3 90.7,192.5 89.7,176.8 	"/>
	<polygon fill="#27AAE1" points="153.6,90.3 125.4,137.6 124.5,150.1 156.4,99.7 159.3,96.8 158.8,90.9 	"/>
</g>
<g id="Layer_1">
	
		<ellipse transform="matrix(0.9945 -0.1043 0.1043 0.9945 -8.8921 9.3265)" fill="none" stroke="#000000" stroke-width="2" stroke-miterlimit="10" cx="84.8" cy="89.7" rx="13.8" ry="20.6"/>
	<path fill="none" stroke="#000000" stroke-width="2" stroke-miterlimit="10" d="M140.1,84.3h4.3c6.6,0,12-5.4,12-12V55.6
		c0-6.6-5.4-12-12-12h-4.3c-6.6,0-12,5.4-12,12v16.7C128.1,78.9,133.5,84.3,140.1,84.3z"/>
	<path fill="none" stroke="#000000" stroke-width="2" stroke-miterlimit="10" d="M156.4,65.8c0,0-3.3,1-7.2,0c-3.8-1-5.8-2.8-10.7-1
		c-4.8,1.8-10.5,0.3-10.5,0.3"/>
	<path fill="none" stroke="#000000" stroke-width="2" stroke-miterlimit="10" d="M128.1,59.6c0,0-5.8,4.2,0,7"/>
	<path fill="none" stroke="#000000" stroke-width="2" stroke-miterlimit="10" d="M133.4,90c-4.9-0.4-16.6-6.8-16.6-6.8
		c1.8-3.7,5.4-39.7,8.7-44.2c3.3-4.5,16.8-0.6,16.8-0.6s17.2-3.5,19.1,6.5s4.8,32.6,7.4,36.2c0,0-2.1,8-11.6,9.9"/>
	<path fill="none" stroke="#000000" stroke-width="2" stroke-miterlimit="10" d="M73.7,73.8c0,0,9.8-0.2,15.3-3.5"/>
	<path fill="none" stroke="#000000" stroke-width="2" stroke-miterlimit="10" d="M71.2,76.3c0,0,9.8,2.3,22.8-4.2"/>
	<path fill="none" stroke="#000000" stroke-width="2" stroke-miterlimit="10" d="M70,79.4c0,0,14,1.7,26.5-3.7"/>
	<polyline fill="none" stroke="#000000" stroke-width="2" stroke-miterlimit="10" points="81.4,109.2 82.7,115.3 90.5,114.4 
		90.5,109.1 	"/>
	<polyline fill="none" stroke="#000000" stroke-width="2" stroke-miterlimit="10" points="146.2,84.3 145.6,89.8 137.4,90 137.4,84 
			"/>
	<path fill="none" stroke="#000000" stroke-width="2" stroke-miterlimit="10" d="M79.8,115.6c6.3-0.8,15-1.6,20-1l2,61.5
		c0,0-19,1.5-27.3,0c0,0-1.6-37.3-2.2-52.8"/>
	<path fill="none" stroke="#000000" stroke-width="2" stroke-miterlimit="10" d="M68.8,118.7c0,0-16.1,25.2-3.8,53.2l3.8-0.8
		c0,0-6.8-26.4,3.9-39.2"/>
	<line fill="none" stroke="#000000" stroke-width="2" stroke-miterlimit="10" x1="61.9" y1="136.2" x2="67.7" y2="142.6"/>
	<polygon fill="none" stroke="#000000" stroke-width="2" stroke-miterlimit="10" points="65,171.9 64.1,179.3 67.7,186.6 72.6,185 
		69.7,171.4 	"/>
	<path fill="none" stroke="#000000" stroke-width="2" stroke-miterlimit="10" d="M99.9,119.6c0,0,13.1,8.8,25.4,8"/>
	<path fill="none" stroke="#000000" stroke-width="2" stroke-miterlimit="10" d="M100.3,131.1c0,0,13.2,6,25,2.5"/>
	<line fill="none" stroke="#000000" stroke-width="2" stroke-miterlimit="10" x1="110.1" y1="134" x2="117.7" y2="127"/>
	<path fill="none" stroke="#000000" stroke-width="2" stroke-miterlimit="10" d="M127.7,90.3c0,0,21.3-1.5,31,0.7
		c0,0,11.5,86.9,10.7,117.2c0,0-22.3,11.2-54.3,0C115.2,208.1,130,123.4,127.7,90.3z"/>
	<line fill="none" stroke="#000000" stroke-width="2" stroke-miterlimit="10" x1="127.7" y1="90.3" x2="95" y2="104.8"/>
	<line fill="none" stroke="#000000" stroke-width="2" stroke-miterlimit="10" x1="127.7" y1="104.2" x2="104.5" y2="122.2"/>
	<polyline fill="none" stroke="#000000" stroke-width="2" stroke-miterlimit="10" points="79.1,107.7 73.2,108 67.6,117.3 
		74.8,126.3 81.4,122.7 79.4,112.2 	"/>
	<line fill="none" stroke="#000000" stroke-width="2" stroke-miterlimit="10" x1="76.8" y1="125.2" x2="73.1" y2="118.3"/>
	<line fill="none" stroke="#000000" stroke-width="2" stroke-miterlimit="10" x1="76.8" y1="116.4" x2="79.2" y2="123.6"/>
	<polyline fill="none" stroke="#000000" stroke-width="2" stroke-miterlimit="10" points="158.8,90.9 211.9,90.9 211.9,118 
		160.1,101.6 	"/>
	<polyline fill="none" stroke="#000000" stroke-width="2" stroke-miterlimit="10" points="212.4,91.3 232.6,91.3 231.4,94.8 
		225.9,95.4 223.5,102.4 211.9,100.9 	"/>
	<path fill="none" stroke="#000000" stroke-width="2" stroke-miterlimit="10" d="M150.8,90c0,0-21.2,34.6-25.2,44.9l-1.9,16.5
		l35.7-56.4l-0.5-4.1C158.8,90.9,153.5,90,150.8,90z"/>
	<polyline fill="none" stroke="#000000" stroke-width="2" stroke-miterlimit="10" points="74.5,176.1 79.7,239.3 84.2,239.3 
		86.9,176.8 	"/>
	<polyline fill="none" stroke="#000000" stroke-width="2" stroke-miterlimit="10" points="89.7,176.8 93.8,239.3 97.3,239.3 
		100.3,176.8 	"/>
	<polyline fill="none" stroke="#000000" stroke-width="2" stroke-miterlimit="10" points="148.5,212.9 151.1,238.3 156.6,238.3 
		158.8,211.5 	"/>
	<polyline fill="none" stroke="#000000" stroke-width="2" stroke-miterlimit="10" points="127.7,211.5 131,238.3 137.1,238.3 
		138.5,213.1 	"/>
	<polygon fill="none" stroke="#000000" stroke-width="2" stroke-miterlimit="10" points="79.7,240.1 65.2,244.3 76,249.3 
		84.2,240.1 	"/>
	<polygon fill="none" stroke="#000000" stroke-width="2" stroke-miterlimit="10" points="92.5,240.1 98.8,239.3 113,247.9 
		100.3,249.9 	"/>
	<polygon fill="none" stroke="#000000" stroke-width="2" stroke-miterlimit="10" points="137.1,238.3 115.2,240.8 123.7,251.1 
		137.1,240.9 	"/>
	<polyline fill="none" stroke="#000000" stroke-width="2" stroke-miterlimit="10" points="151.1,238.3 149.5,242.8 171.3,251.1 
		176.5,239.8 156.6,238.3 	"/>
</g>
<g id="Layer_3">
	<path opacity="0" fill="none" stroke="#000000" stroke-width="25" stroke-miterlimit="10" d="M68.7,70.5c5.5-0.2,11-0.4,16.5-0.6
		c-6.6,3.4-13.8,5.4-21.2,5.9c8.7,0.3,17.5,0.1,26.2-0.5c-7.9,4.2-16.1,7.8-24.4,10.9c31.2-2.5,62.7-1.7,93.8,2.3
		c2.6,0.3,5.5,1,6.6,3.4c-34.9-2.5-70.1-1.1-104.7,4c37.1,0.3,74.1,0.6,111.2,0.9c-36.8,9.2-77.5-4.3-112.6,10
		c26.4-0.2,52.7-0.3,79.1-0.5c11-0.1,22-0.1,32.7,2c-27.8,1-55.7,1.4-83.6,1.3c-7,0-14.4,0-20.4,3.5c27.8,6.3,56.2,9.9,84.7,10.5
		c-30.3,9.1-63.8-0.3-94.1,8.6c31.3-0.5,62.5,2.6,93.5,6.8c-36.1,5.4-73.1,2.3-108.9,9.3c36.7,1.2,73.4,2.5,110.1,3.7
		c-5.1,2-10.8,1.9-16.3,2c-23.8,0.3-47.6,3.5-70.6,9.5c-2.4,0.6-4.8,1.3-6.7,2.8c25.8,3.2,51.5,6.3,77.3,9.5
		c-25.7,5.4-52.6,2.4-78.3,8c16.7,4.4,33.5,9,50.1,13.6c-18.8,0.7-37.7,1.4-55.9,6.1c23.3,2.1,46.6,4.2,70,6.3
		c-19,10.3-39.7,17.2-61,20.4c22,1,43.9,1,65.9,1.1c-26,4.6-52,9.3-78.1,13.9c22.8,0.2,45.6,1.3,68.3,3.4"/>
</g>
</svg>
