<?xml version="1.0" encoding="utf-8"?>
<!-- Generator: Adobe Illustrator 19.2.1, SVG Export Plug-In . SVG Version: 6.00 Build 0)  -->
<svg version="1.0" xmlns="http://www.w3.org/2000/svg" xmlns:xlink="http://www.w3.org/1999/xlink" x="0px" y="0px" width="288px"
	 height="288px" viewBox="0 0 288 288" enable-background="new 0 0 288 288" xml:space="preserve">
<g id="Layer_2">
	<path fill="#27AAE1" d="M107.7,37.3c0,0-12.5,23.2,2.5,38.3c0,0-12.3-2.5-12.5-19.2C97.5,39.8,107.7,37.3,107.7,37.3z"/>
	<path fill="#27AAE1" d="M88.1,106.2c-1-0.4-1.7-1.3-1.4-2.4c0.3-0.9,1.4-1.7,2.4-1.4c0.4,0.2,0.8,0.3,1.2,0.5l3.2-5.2L92.2,91
		l-10.7,16.8l3.7,3.5l3.1-5C88.2,106.3,88.2,106.3,88.1,106.2z"/>
	<path fill="#27AAE1" d="M99.6,103.9c0.3,0,0.5,0,0.8,0l-1.6-22.3l-6.6,0.9l1.6,21.6C95.7,104,97.7,103.9,99.6,103.9z"/>
	<path fill="#27AAE1" d="M103,140.3l-0.5-7c-1.1,0.3-2.4,0.4-3.6,0.5c-1.1,0-2.1-0.1-2.9-0.3l6.3,97.2L83,245.5l12.9,4.2l8.9-19.4
		v-85.3l16.6-0.4L103,140.3z"/>
	<path fill="#27AAE1" d="M119.7,145.1l5.3,83.7l20,13.9c0,0-13.3,7.7-13.6,7.1s-8.7-20.5-8.7-20.5l-8.1-84.2H119.7z"/>
</g>
<g id="Layer_1">
	<ellipse fill="none" stroke="#000000" stroke-width="2" stroke-miterlimit="10" cx="110.2" cy="56.5" rx="12.5" ry="19.2"/>
	<path fill="none" stroke="#000000" stroke-width="2" stroke-miterlimit="10" d="M101.3,39.8c0,0,7.5,1.8,16-0.7"/>
	<path fill="none" stroke="#000000" stroke-width="2" stroke-miterlimit="10" d="M99.2,43.2c0,0,8.2,2.5,21-0.8"/>
	<path fill="none" stroke="#000000" stroke-width="2" stroke-miterlimit="10" d="M97.7,46.8c0,0,17.8,2.3,24.2-2"/>
	<polyline fill="none" stroke="#000000" stroke-width="2" stroke-miterlimit="10" points="106.2,74.7 106.2,81.2 115,80.9 
		114.2,74.7 	"/>
	<path fill="none" stroke="#000000" stroke-width="2" stroke-miterlimit="10" d="M126.8,101.1c0-10.8,0-19.5,0-19.5
		c-12.8-2.2-34.7,0.8-34.7,0.8s0.8,9.4,1.9,20.7"/>
	<path fill="none" stroke="#000000" stroke-width="2" stroke-miterlimit="10" d="M92.2,82.5c0,0-14,18.8-18.3,32.1
		c0,0,7.7,8.4,15.9,12.8"/>
	<path fill="none" stroke="#000000" stroke-width="2" stroke-miterlimit="10" d="M93.4,96.3c0,0-1.9,2.7-3.9,6.1"/>
	<path fill="none" stroke="#000000" stroke-width="2" stroke-miterlimit="10" d="M87.6,106c-0.9,1.8-1.8,3.7-2.3,5.3"/>
	<line fill="none" stroke="#000000" stroke-width="2" stroke-miterlimit="10" x1="89.3" y1="116.7" x2="79" y2="103.1"/>
	<polygon fill="none" stroke="#000000" stroke-width="2" stroke-miterlimit="10" points="88.2,116.5 90,129.2 101.3,127 100.8,119 	
		"/>
	<path fill="none" stroke="#000000" stroke-width="2" stroke-miterlimit="10" d="M126.4,81.6c0,0,17.3,13.1,22.4,24.1l-3,15.8"/>
	<polygon fill="none" stroke="#000000" stroke-width="2" stroke-miterlimit="10" points="146.4,123.8 143.2,111.4 132.1,114.8 
		133.6,122.7 	"/>
	<line fill="none" stroke="#000000" stroke-width="2" stroke-miterlimit="10" x1="148.8" y1="105.7" x2="140.2" y2="106.2"/>
	<path fill="none" stroke="#000000" stroke-width="2" stroke-miterlimit="10" d="M93.1,129.1c0.5,2.3,0.9,3.7,0.9,3.7l20.5,0.3"/>
	<path fill="none" stroke="#000000" stroke-width="2" stroke-miterlimit="10" d="M109.1,108.8l1.5-3.4l-23.6-3c0,0,1.6,6.9,3.2,14.1
		"/>
	<polygon fill="none" stroke="#000000" stroke-width="2" stroke-miterlimit="10" points="109.3,109.2 120.2,107.5 122.7,132.8 
		115,134 	"/>
	<path fill="none" stroke="#000000" stroke-width="2" stroke-miterlimit="10" d="M120.4,107.2l-3.1-2.7l21.5-8.2
		c0,0,0.7,8.2,1.4,16.3"/>
	<path fill="none" stroke="#000000" stroke-width="2" stroke-miterlimit="10" d="M141.1,123.1c0.3,3.6,0.5,6.1,0.5,6.1l-19,2.9"/>
	<line fill="none" stroke="#000000" stroke-width="2" stroke-miterlimit="10" x1="131.4" y1="119.7" x2="129.6" y2="106.6"/>
	<line fill="none" stroke="#000000" stroke-width="2" stroke-miterlimit="10" x1="126.8" y1="110" x2="133.4" y2="108.7"/>
	<path fill="none" stroke="#000000" stroke-width="2" stroke-miterlimit="10" d="M96.7,133.2c0.6,6.1,0.9,10.3,0.9,10.3
		s17.7,3.5,29.2,0c0,0,0-5.1,0-12.4"/>
	<polyline fill="none" stroke="#000000" stroke-width="2" stroke-miterlimit="10" points="97.7,143.5 102.8,230.2 106.2,230.2 
		111.8,145 	"/>
	<polyline fill="none" stroke="#000000" stroke-width="2" stroke-miterlimit="10" points="114.5,145.1 122.7,229.2 126.8,228.8 
		126.8,143.5 	"/>
	<polygon fill="none" stroke="#000000" stroke-width="2" stroke-miterlimit="10" points="103.8,230.2 84.1,243.1 99.9,248.9 
		107.6,230.9 	"/>
	<polygon fill="none" stroke="#000000" stroke-width="2" stroke-miterlimit="10" points="122.7,229.2 131.4,249.8 149,240.5 
		126.8,228.8 	"/>
	<ellipse fill="none" stroke="#000000" stroke-width="2" stroke-miterlimit="10" cx="206.6" cy="59.2" rx="12.2" ry="18.7"/>
	<line fill="none" stroke="#000000" stroke-width="2" stroke-miterlimit="10" x1="202.3" y1="76.7" x2="201.5" y2="83"/>
	<line fill="none" stroke="#000000" stroke-width="2" stroke-miterlimit="10" x1="209.8" y1="77.3" x2="209.8" y2="83.2"/>
	<path fill="none" stroke="#000000" stroke-width="2" stroke-miterlimit="10" d="M189.6,98.4c0.6-8.2,1-14.4,1-14.4s19-3,28.2,1.2
		c0,0-0.2,7.3-0.6,16.7"/>
	<path fill="none" stroke="#000000" stroke-width="2" stroke-miterlimit="10" d="M188,104.8c3.8,1.4,14.7,4.7,23.7,0.3l6.3,4.3
		c-18.2,15.6-42.6-1.1-42.6-1.1c1.3-11.2,15.1-23.2,15.1-23.2"/>
	<polygon fill="none" stroke="#000000" stroke-width="2" stroke-miterlimit="10" points="199.2,101.5 194.4,97.8 186.7,98.9 
		187.3,104.5 196.8,107 	"/>
	<polyline fill="none" stroke="#000000" stroke-width="2" stroke-miterlimit="10" points="209.8,106.2 199.5,102.3 196.8,107.5 	"/>
	<path fill="none" stroke="#000000" stroke-width="2" stroke-miterlimit="10" d="M218.9,85.2c0,0,11.8,17.7,12.3,27.4
		c0,0-9.1,7.7-22.3,2.1"/>
	<polyline fill="none" stroke="#000000" stroke-width="2" stroke-miterlimit="10" points="211.8,105.1 214.6,100.5 218.9,101.5 
		220.1,107.5 218.1,109.4 	"/>
	<line fill="none" stroke="#000000" stroke-width="2" stroke-miterlimit="10" x1="220.1" y1="107.5" x2="230.8" y2="112.2"/>
	<line fill="none" stroke="#000000" stroke-width="2" stroke-miterlimit="10" x1="187.3" y1="104.5" x2="176.2" y2="107.5"/>
	<path fill="none" stroke="#000000" stroke-width="2" stroke-miterlimit="10" d="M217.8,116.8c-0.4,12.9-0.8,24.8-0.8,24.8
		s-20,1.8-30.3-2.2c0,0,0.9-11.9,1.8-24.7"/>
	<polyline fill="none" stroke="#000000" stroke-width="2" stroke-miterlimit="10" points="186.7,139.5 191.8,230.2 195.8,230.2 
		201.5,142.1 	"/>
	<polyline fill="none" stroke="#000000" stroke-width="2" stroke-miterlimit="10" points="203.3,142 211.8,230.2 215.9,230.2 
		217,141.7 	"/>
	<polyline fill="none" stroke="#000000" stroke-width="2" stroke-miterlimit="10" points="191.8,230.2 173,244 188.2,248.2 
		195.8,230.2 	"/>
	<polyline fill="none" stroke="#000000" stroke-width="2" stroke-miterlimit="10" points="211.8,230.2 216.4,249.8 233,244 
		215.9,230.2 	"/>
</g>
<g id="Layer_3">
	<path opacity="0" fill="none" stroke="#000000" stroke-width="23" stroke-miterlimit="10" d="M95.8,40.7c4.2-0.9,8.6-1.1,12.9-0.6
		c-5.1,4.1-11,7.3-17.2,9.5c6.5,0,13-0.1,19.5-0.1c-7.8,3-15.7,6-23.5,9.1c8.8-0.2,17.7,0.1,26.4,1.1c-9.5,2.2-19,4.4-28.5,6.6
		c6.8,0.9,13.7,1.9,20.5,2.8c-9.6,2.4-19.2,4.8-28.9,7.2c8.6-0.1,17.2,0.9,25.5,2.7c-7.8,5-16,9.4-24.4,13
		c10.2-1.3,20.5-2.1,30.8-2.1c-9.4,6.4-19.6,11.5-30.4,15.2c10.4-1.2,21-1.5,31.5-0.9c-9.4,4.1-19,7.7-28.7,10.9
		c10.9-0.2,21.8,0.4,32.6,1.8c-9.9,4.1-19.7,8.5-29.3,13.4c9.8,0.6,19.5,2.2,29,4.8c-11.8,2.6-23.3,6.5-34.2,11.6
		c15.7,0.1,31.3,0.2,47,0.3c-12.9,4-25.8,8-38.7,12c16.8,1.7,33.6,2.5,50.5,2.2c-16.9,5-34.5,6.7-52,8.3c14.7,1.7,29.4,3.5,44.2,5.2
		c-12.6,5.8-26,9.9-39.6,12.4c11.9-0.3,23.9,0,35.8,0.8c-11.1,6.8-24,9.9-36.7,12.9c15.5,0.2,31,0.4,46.5,0.6
		c-17,3.4-34.1,6.7-51.1,10.1c13.9,0.9,27.7,2.8,41.4,5.5c-11,4.5-22.5,7.8-34.2,9.7c12-0.1,24,0.2,36,0.9c-13.9,4-29.7-1.2-42.8,5
		c18.8,3.2,37.9,4.2,56.9,2.7c-21.3,5.3-43.9,3.9-65.1,9.5c26,2.4,52.1,3.1,78.1,2.2"/>
</g>
</svg>
