<?xml version="1.0" encoding="utf-8"?>
<!-- Generator: Adobe Illustrator 19.2.1, SVG Export Plug-In . SVG Version: 6.00 Build 0)  -->
<svg version="1.0" xmlns="http://www.w3.org/2000/svg" xmlns:xlink="http://www.w3.org/1999/xlink" x="0px" y="0px" width="288px"
	 height="288px" viewBox="0 0 288 288" enable-background="new 0 0 288 288" xml:space="preserve">
<g id="Layer_2">
	<path fill="#27AAE1" d="M165.5,49c0,0-16.1,19.3-4.6,36.3c0,0-11.9-6.3-8.7-21.2C155.5,49.2,165.5,49,165.5,49z"/>
	<path fill="#27AAE1" d="M149.4,87.4L138.3,140l9.1,6.3l-12.1-3.2l-8.9,78.4l-6.2,19.4l-11.3-3.2l15.5-16.8l4.8-80.6l9.2-38.4
		c0,0,0.4-12.2,1.8-12.6C141.4,88.8,149.4,87.4,149.4,87.4z"/>
	<polygon fill="#27AAE1" points="140,97.2 125,103.2 131.9,128.6 134.2,123.1 129.2,104.5 138.1,102.7 	"/>
	<polygon fill="#27AAE1" points="148.3,147.6 147.7,221.9 165,235 156.3,239.5 144.5,221.5 143.2,145.4 	"/>
</g>
<g id="Layer_1">
	
		<ellipse transform="matrix(0.1802 -0.9836 0.9836 0.1802 68.573 216.6592)" fill="none" stroke="#000000" stroke-width="2" stroke-miterlimit="10" cx="164.3" cy="67.2" rx="18.4" ry="12.4"/>
	<path fill="none" stroke="#000000" stroke-width="2" stroke-miterlimit="10" d="M155.1,51.5c0,0,13.8,1.9,21,0"/>
	<path fill="none" stroke="#000000" stroke-width="2" stroke-miterlimit="10" d="M153.2,54.7c0,0,14,2.8,24.8,0"/>
	<path fill="none" stroke="#000000" stroke-width="2" stroke-miterlimit="10" d="M151.8,58.3c0,0,16.2,3.7,26.6,0"/>
	<path fill="none" stroke="#000000" stroke-width="2" stroke-miterlimit="10" d="M170.9,94.2c0,0-17.8-11.1-29.5-5.4l-12.5,52.6
		l27.2,7.2L170.9,94.2z"/>
	<line fill="none" stroke="#000000" stroke-width="2" stroke-miterlimit="10" x1="119.4" y1="107.1" x2="138.3" y2="101.9"/>
	<path fill="none" stroke="#000000" stroke-width="2" stroke-miterlimit="10" d="M155.9,82.4c0,0-0.6,2.9-1.1,5.1"/>
	<path fill="none" stroke="#000000" stroke-width="2" stroke-miterlimit="10" d="M162,90c0.4-1.8,1.1-5.2,1.1-5.2"/>
	<polyline fill="none" stroke="#000000" stroke-width="2" stroke-miterlimit="10" points="128.9,141.4 124.3,221.5 128.2,221.5 
		140,144.5 	"/>
	<polyline fill="none" stroke="#000000" stroke-width="2" stroke-miterlimit="10" points="143.2,145.4 144.5,221.5 148.7,221.5 
		155.7,148.6 	"/>
	<path fill="none" stroke="#000000" stroke-width="2" stroke-miterlimit="10" d="M141.4,88.8c-1,0.2-25.3,9.3-25.3,9.3l13,31l-9-2.4
		l1.4,8l9.1-0.8"/>
	<line fill="none" stroke="#000000" stroke-width="2" stroke-miterlimit="10" x1="129.1" y1="104.4" x2="133.1" y2="123.6"/>
	<polyline fill="none" stroke="#000000" stroke-width="2" stroke-miterlimit="10" points="170.8,94.9 178.2,115.6 160.4,134 
		159.9,135.5 167.4,136.3 166.1,141.4 159.1,139.3 	"/>
	<line fill="none" stroke="#000000" stroke-width="2" stroke-miterlimit="10" x1="167.1" y1="108.3" x2="173.2" y2="120.7"/>
	<line fill="none" stroke="#000000" stroke-width="2" stroke-miterlimit="10" x1="169.8" y1="114.5" x2="163.7" y2="120.7"/>
	<path fill="none" stroke="#000000" stroke-width="2" stroke-miterlimit="10" d="M124.3,221.5l-14.8,14.2c0,0,13.3,4,13.8,3.5
		s5.8-17.7,5.8-17.7H125"/>
	<polygon fill="none" stroke="#000000" stroke-width="2" stroke-miterlimit="10" points="144.5,221.9 155.7,238.8 165,232 
		149.4,221.9 	"/>
</g>
<g id="Layer_3">
	<path opacity="0" fill="none" stroke="#27AAE1" stroke-width="18" stroke-miterlimit="10" d="M149.1,48.3c6.2,0.5,12.4,1,18.5,1.4
		c-9.3,3.1-18.9,5.7-28.5,7.6c11.7,0.2,23.4,0.4,35,0.5c-13,2.4-26,4.8-38.9,7.3c10.5,2.2,21.1,3.9,31.8,5
		c-13.3,2.7-26.6,5.6-39.8,8.8c16.6,2.1,33.4,2.9,50.2,3.6c-19.5,2.6-39,5.3-58.5,7.9c-1.7,0.2-3.7,0.7-4.2,2.4
		c15.8,3.5,32.2,4.5,48.4,3c-13.8,8.1-29.9,11.2-45.7,14.1c12.8,1.8,25.6,3.6,38.3,5.3c-10.7,4.5-21.5,8.7-32.4,12.5
		c12.9,0.3,25.8,1.7,38.5,4.2c-14.8,3.5-29.6,6.9-44.4,10.4c10.8,1.8,21.6,3.5,32.3,5.3c-8.3,3.2-16.9,5.8-25.7,7.5
		c10-0.6,20.1-0.1,30,1.5c-11.5,4.5-23.3,8.3-35.2,11.3c11.5,0.9,22.9,2.3,34.2,4.3c-14.1,5.3-28.8,8.8-43.4,12.2
		c14.5,0,29,0.9,43.4,2.5c-12.5,5.9-27.7,5.1-39.5,12.2c16.6,1.4,33.2,2.9,49.8,4.3c-18.5,1.6-37,3.8-55.4,6.6
		c-3.4,0.5-7,1.1-9.8,3.2c17,1.9,34,3.2,51.1,4c-17.4,2.4-34.8,4.8-52.2,7.2c26-0.7,51.9-1.5,77.9-2.2
		c-20.8,12.1-48.1,5.2-70.2,14.9c22.5,0.6,45.1-1.7,67.1-6.7"/>
</g>
</svg>
