<?xml version="1.0" encoding="utf-8"?>
<!-- Generator: Adobe Illustrator 21.0.0, SVG Export Plug-In . SVG Version: 6.00 Build 0)  -->
<!DOCTYPE svg PUBLIC "-//W3C//DTD SVG 1.0//EN" "http://www.w3.org/TR/2001/REC-SVG-20010904/DTD/svg10.dtd">
<svg version="1.0" id="Layer_1" xmlns="http://www.w3.org/2000/svg" xmlns:xlink="http://www.w3.org/1999/xlink" x="0px" y="0px"
	 width="432px" height="432px" viewBox="0 0 432 432" enable-background="new 0 0 432 432" xml:space="preserve">
<g id="Layer_2">
	<path fill="#27AAE1" d="M255.2,83.4c0,0,19.9,25.2-0.8,49.1c0,0,16.4-0.2,15.9-24.5C269.8,84.2,255.2,83.4,255.2,83.4z"/>
	<path fill="#27AAE1" d="M267.5,138.2l-4.5,77.5c0,0-17.8,4-21.9,4.2h23.1l3.2,136.1l8,14.1l10.9-5.3l-16-8.8l1-136.1l3.4-65.8
		l0.8-16L267.5,138.2z"/>
	<polygon fill="#27AAE1" points="249.8,220 245,356.4 223.5,366.9 236.6,373.9 248.3,356.4 255.2,224.8 255.2,220 	"/>
	<polygon fill="#27AAE1" points="275.5,146.6 300.6,164.6 325.8,144 300.6,174.5 272.2,153.3 	"/>
</g>
<g id="Layer_1_1_">
	<ellipse fill="none" stroke="#000000" stroke-width="2" stroke-miterlimit="10" cx="254.4" cy="107.9" rx="15.4" ry="24.5"/>
	<path fill="none" stroke="#000000" stroke-width="2" stroke-miterlimit="10" d="M244.2,85.5c0,0,12.2,2.3,18.8,0"/>
	<path fill="none" stroke="#000000" stroke-width="2" stroke-miterlimit="10" d="M242.4,88.8c1.1,0.6,12.9,3.4,23.1,0.5"/>
	<path fill="none" stroke="#000000" stroke-width="2" stroke-miterlimit="10" d="M241.1,92.4c0,0,12.7,5.4,25.5,0.7"/>
	<polyline fill="none" stroke="#000000" stroke-width="2" stroke-miterlimit="10" points="249.4,131.1 249.4,138.2 258.8,138.2 
		258.8,131.4 	"/>
	<polygon fill="none" stroke="#000000" stroke-width="2" stroke-miterlimit="10" points="234.2,138.2 275.5,138.2 271.3,220 
		239,220 	"/>
	<path fill="none" stroke="#000000" stroke-width="2" stroke-miterlimit="10" d="M279.5,180.6"/>
	<polyline fill="none" stroke="#000000" stroke-width="2" stroke-miterlimit="10" points="239,220 241.7,356.4 248.3,356.4 
		255.2,220 262.7,356.4 270.3,356.4 271.3,220 	"/>
	<polyline fill="none" stroke="#000000" stroke-width="2" stroke-miterlimit="10" points="241.7,356.4 221.6,365 234.4,371.2 
		248.3,356.4 	"/>
	<polyline fill="none" stroke="#000000" stroke-width="2" stroke-miterlimit="10" points="262.7,356.4 273.4,371.2 286.4,364.9 
		270.3,356.4 	"/>
	<ellipse fill="none" stroke="#000000" stroke-width="2" stroke-miterlimit="10" cx="187.9" cy="118.8" rx="14.1" ry="23.4"/>
	<path fill="none" stroke="#000000" stroke-width="2" stroke-miterlimit="10" d="M182.3,139.9c-0.1,0.9-0.4,5-0.4,5"/>
	<line fill="none" stroke="#000000" stroke-width="2" stroke-miterlimit="10" x1="191.4" y1="141.5" x2="191.4" y2="144.9"/>
	<path fill="none" stroke="#000000" stroke-width="2" stroke-miterlimit="10" d="M178.8,144.4c11.5,0.4,28,1.1,28,1.1l-8.7,79.3H168
		V144"/>
	<polyline fill="none" stroke="#000000" stroke-width="2" stroke-miterlimit="10" points="168,144 152.5,183.2 154.2,229.7 
		160.2,228.9 162,184.4 168,171.8 	"/>
	<polyline fill="none" stroke="#000000" stroke-width="2" stroke-miterlimit="10" points="160.2,229.2 165,238.5 161.6,241.1 
		158.4,236.2 157.4,237.6 158.4,249 151.9,246.2 154.2,230 	"/>
	<line fill="none" stroke="#000000" stroke-width="2" stroke-miterlimit="10" x1="153.1" y1="183.1" x2="162" y2="184.4"/>
	<polyline fill="none" stroke="#000000" stroke-width="2" stroke-miterlimit="10" points="206.8,145.5 212.8,224.8 208.2,225.7 
		202.5,185.6 	"/>
	<polyline fill="none" stroke="#000000" stroke-width="2" stroke-miterlimit="10" points="208.2,225.7 205.9,233.6 209.1,235.8 
		210.9,232.6 214.6,243.5 221.8,242.5 212.8,224.8 	"/>
	<polyline fill="none" stroke="#000000" stroke-width="2" stroke-miterlimit="10" points="168,224.8 169,353.6 175.2,353.6 
		182.6,225.6 184.7,225.6 197.2,353.6 204.5,353.6 198.2,224.8 	"/>
	<polyline fill="none" stroke="#000000" stroke-width="2" stroke-miterlimit="10" points="169,353.6 149,364.2 165.3,368.5 
		175.2,353.6 	"/>
	<polyline fill="none" stroke="#000000" stroke-width="2" stroke-miterlimit="10" points="197.2,353.6 200.6,370.9 217,368.5 
		204.5,353.6 	"/>
	<path fill="none" stroke="#000000" stroke-width="2" stroke-miterlimit="10" d="M172.2,141.5"/>
	<path fill="none" stroke="#000000" stroke-width="2" stroke-miterlimit="10" d="M234.2,138.2"/>
	<path fill="none" stroke="#000000" stroke-width="2" stroke-miterlimit="10" d="M207.2,150"/>
	<path fill="none" stroke="#000000" stroke-width="2" stroke-miterlimit="10" d="M234.2,151.5"/>
	<path fill="none" stroke="#000000" stroke-width="2" stroke-miterlimit="10" d="M175.9,140.5"/>
	<path fill="none" stroke="#000000" stroke-width="2" stroke-miterlimit="10" d="M234.2,138.2c0,0-20.4,0.1-38.2,0.2"/>
	<path fill="none" stroke="#000000" stroke-width="2" stroke-miterlimit="10" d="M180.3,138.5c-6.1,0-10.3,0.1-10.3,0.1l-1.3,5.6
		l1.4,9.4l7.8,0.7l1.2-12.6"/>
	<path fill="none" stroke="#000000" stroke-width="2" stroke-miterlimit="10" d="M234.2,150c0,0-13.7-1.4-27.5-2.8"/>
	<line fill="none" stroke="#000000" stroke-width="2" stroke-miterlimit="10" x1="172.2" y1="153.6" x2="172.5" y2="146.6"/>
	<line fill="none" stroke="#000000" stroke-width="2" stroke-miterlimit="10" x1="175.1" y1="153.6" x2="175.6" y2="146.8"/>
	<polyline fill="none" stroke="#000000" stroke-width="2" stroke-miterlimit="10" points="275.5,138.2 300.6,158.9 323.8,136.4 
		329.2,132.1 346,132.1 345.2,136.4 336.5,136.4 335.2,144 326.5,144 301.2,174.5 274.7,154.2 	"/>
	<line fill="none" stroke="#000000" stroke-width="2" stroke-miterlimit="10" x1="336.1" y1="138.2" x2="328.8" y2="137.9"/>
	<line fill="none" stroke="#000000" stroke-width="2" stroke-miterlimit="10" x1="328.8" y1="140.6" x2="335.2" y2="141"/>
	<line fill="none" stroke="#000000" stroke-width="2" stroke-miterlimit="10" x1="300.6" y1="158.9" x2="301.2" y2="174.5"/>
</g>
<g id="Layer_2_1_">
	
		<path opacity="0" fill="none" stroke="#000000" stroke-width="20" stroke-linecap="round" stroke-linejoin="round" stroke-miterlimit="10" d="
		M253.7,86.2c8-1.1,16.2-0.4,23.8,2.1c-5.9,1.8-12,3-18.2,3.5c4.6,1.6,8.9,4,12.6,7.1c-5.9,2.3-12.1,3.8-18.3,4.3
		c7,0.3,13.9,1.4,20.7,3.3c-5.3,3-11.2,4.8-17.3,5.2c5.5,1.5,10.7,3.9,15.4,7.1c-4.8,3.1-10.7,4.5-16.4,3.7
		c4.3,2.1,8.6,4.3,12.9,6.4c-5.2,2.5-11.2,3.4-16.9,2.4c3.4,1.3,6.8,2.5,10.1,3.8c-1.6,2.6-4.3,4.6-7.3,5.3
		c11.9,0.4,23.7,0.8,35.6,1.3c-10,1.4-20.2,2-30.3,1.6c7.4-0.2,14.8,0.5,22.1,2c-11.4,1.2-22.6,3.6-33.6,7c19.9,1.4,39.9-2,59.2-7.4
		c-21.5,6.1-42.7,13.3-63.5,21.5c22.3-6.3,44.5-12.7,66.8-19c7.2-2,14.4-4.1,20.9-7.7c-27.9,13.1-55.4,26.8-82.6,41.2
		c27.8-10.6,55.9-21.2,85.4-25.6c-27.7,12.4-56.2,23.1-85.2,32c21.8-3.9,43.7-7.8,65.3-12.9c-11.7,3.9-23.4,7.8-35.1,11.6
		c-13.2,4.4-26.6,8.8-38.5,16.1c11.6,0.4,23.2,0.7,34.8,1.1c-13.2,3.9-26.1,8.6-38.7,14.2c16.8,3.3,34.2,3.5,51,0.7
		c-17.1,1.1-34,3.7-50.6,7.6c12.1-0.6,24.3,0.3,36.2,2.4c-18.5,3.1-37,6.3-55.4,9.4c28.8,0.2,57.5,2.1,86.1,5.6
		c-23-0.9-46-0.6-68.9,0.8c18.3-0.4,36.8,2.2,54.3,7.7c-16.3,1.8-32.6,4.5-48.6,8.1c11.4,0,22.8,0,34.3,0c-14.7,1.8-29.1,5-43.2,9.5
		c17,2.5,34.1,4.9,51.1,7.4c-17.8,1.6-35.6,3.3-53.4,4.9c12.8,2.3,25.4,5.1,38,8.4c-12,3.9-23.9,7.8-35.9,11.7
		c13.9,1.1,27.8,0.3,41.7-0.5c-15.9,1.7-31.9,3.5-47.8,5.2c19.2,1.5,38.3,5.3,56.6,11.3c-12,3.1-24,6.2-36,9.3
		c15.1,1.1,30.4,2.3,44.8,6.8c-18.2-0.5-36.4,1-54.2,4.5c11.5,3.8,22.9,7.6,34.4,11.5c-10.9,1.5-21.8,2.9-32.7,4.4
		c19.3,4.8,38.8,8.6,58.5,11.5c-19.1-1.5-38.1-2.9-57.2-4.3c-5.8-0.4-11.8-0.8-17.2,1.3c14.4,3,28.9,5.2,43.5,6.8
		c-14.2-0.2-28.5-1.3-42.6-3.3c5.1,2.7,10.2,5.3,15.2,8"/>
</g>
</svg>
