<?xml version="1.0" encoding="utf-8"?>
<!-- Generator: Adobe Illustrator 19.2.1, SVG Export Plug-In . SVG Version: 6.00 Build 0)  -->
<svg version="1.0" xmlns="http://www.w3.org/2000/svg" xmlns:xlink="http://www.w3.org/1999/xlink" x="0px" y="0px" width="288px"
	 height="288px" viewBox="0 0 288 288" enable-background="new 0 0 288 288" xml:space="preserve">
<g id="Layer_2">
	<path fill="#27AAE1" d="M131.1,40.7c0,0-12.1,24,10.8,37.3c0,0-14.8,0.3-18.2-15.2C120.2,47.2,131.1,40.7,131.1,40.7z"/>
	<path fill="#27AAE1" d="M131.1,85.2c0,0,5.8,23.4,8.1,54.1l19.7,2.6l-24.2,3.7l-10.6-58.2L131.1,85.2z"/>
	<path fill="#27AAE1" d="M125.5,118.3c-0.7-0.9-1.5-2.7-1.9-3.3c-0.8-1.2-1.8-1.7-2.2-3.2c-1.2-4.4,2.7-6.5,6.3-6.9
		c0.3,0,0.5,0,0.8,0l-1.4-9.5c0,0-9.7,8.8-14.1,19.9l18.4,19.2l-5,8.7l7.2-4l-2.7-17.9C128.9,121.1,127,120.2,125.5,118.3z"/>
	<polygon fill="#27AAE1" points="139.2,145.6 145.4,233.6 143,233.6 134.7,145.6 	"/>
	<path fill="#27AAE1" d="M153.8,142.8c0,0,11.9,32,6.4,88.5h-1.3c0,0,0.2-58.7-6-74.8l-3.9-13L153.8,142.8z"/>
	<polygon fill="#27AAE1" points="144,233.6 129.5,246.2 141.8,249.2 147.3,233.6 	"/>
	<polygon fill="#27AAE1" points="158.9,231.3 160.5,250.8 173.5,245 160.2,231.3 	"/>
</g>
<g id="Layer_1">
	
		<ellipse transform="matrix(0.966 -0.2584 0.2584 0.966 -10.6596 37.3654)" fill="none" stroke="#000000" stroke-width="2" stroke-miterlimit="10" cx="136.8" cy="59.2" rx="13.7" ry="19.4"/>
	<path fill="none" stroke="#000000" stroke-width="2" stroke-miterlimit="10" d="M143,40.1c0,0-9.2,7.4-20.9,6.1"/>
	<path fill="none" stroke="#000000" stroke-width="2" stroke-miterlimit="10" d="M147.6,41.8c-0.9,0.4-9.4,8.9-25.8,7"/>
	<path fill="none" stroke="#000000" stroke-width="2" stroke-miterlimit="10" d="M150.5,46.9c0,0-17.9,7.2-29.8,5.2"/>
	<polyline fill="none" stroke="#000000" stroke-width="2" stroke-miterlimit="10" points="136.8,78 139.2,83.3 145.4,82.3 
		145.4,76.2 	"/>
	<path fill="none" stroke="#000000" stroke-width="2" stroke-miterlimit="10" d="M124.1,87.4c0,0,17.2-6.8,34.7-5.6
		c0,0,4.8,35.8,0,60l-24.2,3.7L124.1,87.4z"/>
	<path fill="none" stroke="#000000" stroke-width="2" stroke-miterlimit="10" d="M124.1,87.4c0,0-10,14.3-13.8,25.4l22.6,23.6"/>
	<path fill="none" stroke="#000000" stroke-width="2" stroke-miterlimit="10" d="M116.6,119.2c0,0,2.9-9.9,10.5-15.9"/>
	<path fill="none" stroke="#000000" stroke-width="2" stroke-miterlimit="10" d="M120.8,110.7c0,0,8.3,10.1,10.6,16.4"/>
	<polyline fill="none" stroke="#000000" stroke-width="2" stroke-miterlimit="10" points="131.3,134.6 119.1,136.4 127,144 
		133.5,139.3 	"/>
	<path fill="none" stroke="#000000" stroke-width="2" stroke-miterlimit="10" d="M158.9,81.9c0,0,14,14.8,18,21.9l-16.4,26"/>
	<path fill="none" stroke="#000000" stroke-width="2" stroke-miterlimit="10" d="M160.4,97.9c0,0,7.8,7,11.3,14.1"/>
	<line fill="none" stroke="#000000" stroke-width="2" stroke-miterlimit="10" x1="165.5" y1="103.8" x2="161" y2="114.2"/>
	<polyline fill="none" stroke="#000000" stroke-width="2" stroke-miterlimit="10" points="160.2,132.9 169.3,138.1 173.5,129.8 
		161,129 	"/>
	<polyline fill="none" stroke="#000000" stroke-width="2" stroke-miterlimit="10" points="149,144 147.3,233.6 143.5,233.6 
		134.7,145.6 	"/>
	<path fill="none" stroke="#000000" stroke-width="2" stroke-miterlimit="10" d="M158.9,141.9c0,0,19.1,31.5,2.6,89.4h-2.6
		c0,0,2.1-56.9-9.9-87.8"/>
	<polyline fill="none" stroke="#000000" stroke-width="2" stroke-miterlimit="10" points="158.9,231.3 162.4,248.2 174.2,242.1 
		161.8,231.3 	"/>
	<polyline fill="none" stroke="#000000" stroke-width="2" stroke-miterlimit="10" points="143,233.6 131.1,241.9 141.2,248.2 
		147.3,233.6 	"/>
</g>
<g id="Layer_3">
	<path opacity="0" fill="none" stroke="#726658" stroke-width="20" stroke-miterlimit="10" d="M120.1,44.4c-0.6,0.5-1.2,1-1.7,1.6
		c8.2-2.3,16.7-3.3,25.2-3.2c-12.5,4.9-24.9,9.9-37.4,14.8c14.1-6.2,28.3-12.4,43.1-16.5c-12.5,8.6-24.9,17.3-37.4,25.9
		c12.3-7.6,26.3-12.4,40.7-14c-14,7.2-28.4,13.7-43,19.5c13.1-5.1,26.7-9,40.6-11.6c-11.5,8.2-23.9,15.3-36.7,21.2
		c10.5-4,21.4-7,32.5-8.7c-8.2,5.7-19,6.8-27,12.9c11.6-5.3,24.1-8.6,36.8-9.6c-20,6.9-39.4,15.8-57.7,26.3
		c19.5-4.5,39-8.9,58.5-13.4c-15.6,6.1-31.4,12.3-44.7,22.6c20.4-5.5,40.9-11,61.3-16.5c-18.6,9.4-37.3,18.8-55.9,28.3
		c16.3-4,32.6-8.1,49.2-10.3c-18.5,8.2-36.6,17.4-54.1,27.5c15.7-3.6,31.4-7.3,47.2-10.9c-10.6,5-21.1,10.1-31.7,15.1
		c11.3-2.2,22.7-4.3,34-6.5c-13.6,12.8-28.7,24.1-44.9,33.5c12.5-4.2,33.7-10.7,46.3-14.9c-9.8,5.5-28,13.4-37.4,19.5
		c12.6-2.5,25.2-5,37.8-7.5c-15.4,8.7-31.2,16.6-47.4,23.6c14.1-1.8,28.2-3.6,42.4-5.4c-7.9,4-15.7,8-23.6,12
		c11.8-1.6,23.5-3.3,35.2-5.3c-9.4,4.2-18.9,8.5-28.3,12.7c6.9-0.1,13.8-0.1,20.7-0.2c-7.6,4.8-15.3,9.6-22.9,14.4
		c4.8,0.8,22-0.9,26.5-2.5c-9.5,3.7-31.2,8.9-40.7,12.6c10.5-0.2,21-0.4,31.5-0.6c-8.8,3.6-17.2,8-25.3,13
		c10.9,0.2,21.8-1.2,32.4-3.9c-8.7,0.4-17.4,1.5-26,3.3c9.2,0.2,18.5,0.1,27.7-0.3c-1.3,1.8-1,4.6,0.7,6c1.7,1.5,4.4,1.4,6.1-0.1"/>
</g>
</svg>
