<?xml version="1.0" encoding="utf-8"?>
<!-- Generator: Adobe Illustrator 19.2.1, SVG Export Plug-In . SVG Version: 6.00 Build 0)  -->
<svg version="1.0" id="Layer_1" xmlns="http://www.w3.org/2000/svg" xmlns:xlink="http://www.w3.org/1999/xlink" x="0px" y="0px"
	 width="432px" height="432px" viewBox="0 0 432 432" enable-background="new 0 0 432 432" xml:space="preserve">
<path fill="none" stroke="#000000" stroke-width="2" stroke-miterlimit="10" d="M110.7,225.9c2-18.9,20.3-33.7,42.6-33.7
	c22.4,0,40.8,15,42.6,34"/>
<rect x="106.5" y="226.1" fill="none" stroke="#000000" stroke-width="2" stroke-miterlimit="10" width="94.2" height="8"/>
<path fill="none" stroke="#000000" stroke-width="2" stroke-miterlimit="10" d="M369.7,253.9h-11.8c0,0,0-49,0-49.8s-30.2,0-30.2,0
	v50.1h-10.1l-6.4-6.4v-24.2h-24.5v32.5h-6L270.2,243h-6.8v16.1h-10v-19.3h-4.5v-2c0-1.8,0-1.1,0-1.1c0,0,0-0.1,0-0.1
	c0-3.8-4.6-6.8-10.4-6.8s-10.4,3.1-10.4,6.8c0,0,0,0.1,0,0.1c0,0,0,0.3,0,3.2v2.1h-3.2c0-3,0-5.3,0-5.3c0,0,0-0.1,0-0.1
	c0-3.8-4.6-6.8-10.4-6.8s-10.4,3.1-10.4,6.8c0,0,0,0.1,0,0.1c0,0,0,2,0,4.8l-8-0.2c0-1.1,0-7.3,0-7.3"/>
<polyline fill="none" stroke="#000000" stroke-width="2" stroke-miterlimit="10" points="148,192.2 150.4,182.1 156.7,182.1 
	158.5,192.4 "/>
<line fill="none" stroke="#000000" stroke-width="2" stroke-miterlimit="10" x1="153.3" y1="182.1" x2="153.3" y2="164.5"/>
<line fill="none" stroke="#000000" stroke-width="2" stroke-miterlimit="10" x1="148.6" y1="170.5" x2="158" y2="170.5"/>
<g>
	<polyline fill="none" stroke="#000000" stroke-width="2" stroke-miterlimit="10" points="74.6,211.3 74.6,220.7 79.1,225.8 
		79.1,247.4 70.2,247.4 70.2,265.8 	"/>
	<polyline fill="none" stroke="#000000" stroke-width="2" stroke-miterlimit="10" points="111,234.1 111,259.1 98.1,265.8 
		98.1,247.4 88.6,247.4 88.6,225.8 93.1,220.7 93.1,211.3 	"/>
</g>
<polygon fill="none" stroke="#000000" stroke-width="2" stroke-miterlimit="10" points="66,211.3 102.3,211.3 89,202.2 79.3,202.2 
	"/>
<path fill="none" stroke="#000000" stroke-width="2" stroke-miterlimit="10" d="M84.1,177.6c-2.3,0-4.1,1.8-4.1,4.1v7h8.2v-7
	C88.2,179.5,86.4,177.6,84.1,177.6z"/>
<line fill="none" stroke="#000000" stroke-width="2" stroke-miterlimit="10" x1="84.1" y1="171.6" x2="84.1" y2="177.6"/>
<circle fill="none" stroke="#000000" stroke-width="2" stroke-miterlimit="10" cx="84.1" cy="170.2" r="2.2"/>
<rect x="77.6" y="188.8" fill="none" stroke="#000000" stroke-width="2" stroke-miterlimit="10" width="13.1" height="3.3"/>
<line fill="none" stroke="#000000" stroke-width="2" stroke-miterlimit="10" x1="80" y1="191.3" x2="80" y2="201.6"/>
<line fill="none" stroke="#000000" stroke-width="2" stroke-miterlimit="10" x1="88.2" y1="191.3" x2="88.2" y2="202.2"/>
</svg>
