<?xml version="1.0" encoding="utf-8"?>
<!-- Generator: Adobe Illustrator 21.0.0, SVG Export Plug-In . SVG Version: 6.00 Build 0)  -->
<!DOCTYPE svg PUBLIC "-//W3C//DTD SVG 1.0//EN" "http://www.w3.org/TR/2001/REC-SVG-20010904/DTD/svg10.dtd">
<svg version="1.0" id="Layer_1" xmlns="http://www.w3.org/2000/svg" xmlns:xlink="http://www.w3.org/1999/xlink" x="0px" y="0px"
	 width="288px" height="288px" viewBox="0 0 288 288" enable-background="new 0 0 288 288" xml:space="preserve">
<g id="Layer_2">
	<path fill="#FFFFFF" d="M142.9,90.6L142.9,90.6c-6.7,0-12.1-5.4-12.1-12v-8.9c0-6.6,5.4-12,12-12h0.1c6.6,0,12,5.4,12,12v8.9
		C154.9,85.2,149.5,90.6,142.9,90.6z"/>
	<path fill="#FFFFFF" d="M130.8,73.6c0,0,4.8,2.2,7.5,1.3c2.8-1,5.6-1.4,9.8,0c4.1,1.4,6.8-1.6,6.8-1.6"/>
	<path fill="#FFFFFF" d="M130.8,71c0,0-5.6,2.2,0,6.5"/>
	<path fill="#FFFFFF" d="M155.4,71.1c0,0,5.6,2.2,0,6.5"/>
	<path fill="#FFFFFF" d="M162.5,99c1.8-0.5,3.6-1.1,3.6-1.1c-6.7-6.5-4.4-36.2-7.3-42.8s-15.8-4-15.8-4s-14.6-2.8-16.4,6.7
		c-1.6,8.2-1.2,30.2-3.4,37.6l5.3,1.5"/>
	<path fill="#FFFFFF" d="M139.4,91c-0.5-0.4,0,5.4,0,5.4l8.4,0.2V91C147.7,91,141.4,92.5,139.4,91z"/>
	<path fill="#FFFFFF" d="M127.4,97.1c0,0,22.8-2.5,34.9,2.2c0,0-7.4,74.7,9.1,114.2c0,0-36.9,11.7-58-8.9c0,0,12.9-61.1,12.9-68.8
		S127.4,97.1,127.4,97.1z"/>
	<polyline fill="#FFFFFF" points="127.4,97.1 80.1,103 86.1,124.2 127,107.4 	"/>
	<polyline fill="#FFFFFF" points="80.1,103 71.8,100.8 71.8,103.5 73.6,105.5 61.5,110.1 62.7,117.8 83.5,116 	"/>
	<polyline fill="#FFFFFF" points="160.7,98.8 208,104.7 201.9,125.8 161,109.1 	"/>
	<polyline fill="#FFFFFF" points="208,104.7 216.2,102.4 216.2,105.2 214.4,107.1 226.5,111.8 225.3,119.5 204.5,117.7 	"/>
	<polygon fill="#FFFFFF" points="151.3,97.4 126.2,128.6 125.8,140.7 161.9,100.2 	"/>
	<polyline fill="#FFFFFF" points="131.9,215.5 134.3,226 135.6,226 138,216.3 	"/>
	<polyline fill="#FFFFFF" points="155.6,217.1 153.2,227.7 151.9,227.7 149.3,216.8 	"/>
	<polygon fill="#FFFFFF" points="134.2,226 115.9,228.4 123,235.8 136.6,228.4 	"/>
	<polygon fill="#FFFFFF" points="153.3,227.7 171.6,230 164.5,237.5 150.9,230 	"/>
	<polygon fill="#27AAE1" points="154.9,98.3 126.3,131.8 125.8,143.1 161.9,100.2 	"/>
</g>
<g id="Layer_1_2_">
	<path fill="none" stroke="#000000" stroke-width="2" stroke-miterlimit="10" d="M142.9,90.6L142.9,90.6c-6.7,0-12.1-5.4-12.1-12
		v-8.9c0-6.6,5.4-12,12-12h0.1c6.6,0,12,5.4,12,12v8.9C154.9,85.2,149.5,90.6,142.9,90.6z"/>
	<path fill="none" stroke="#000000" stroke-width="2" stroke-miterlimit="10" d="M130.8,73.6c0,0,4.8,2.2,7.5,1.3
		c2.8-1,5.6-1.4,9.8,0c4.1,1.4,6.8-1.6,6.8-1.6"/>
	<path fill="none" stroke="#000000" stroke-width="2" stroke-miterlimit="10" d="M130.8,71c0,0-5.6,2.2,0,6.5"/>
	<path fill="none" stroke="#000000" stroke-width="2" stroke-miterlimit="10" d="M155.4,71.1c0,0,5.6,2.2,0,6.5"/>
	<path fill="none" stroke="#000000" stroke-width="2" stroke-miterlimit="10" d="M162.5,99c1.8-0.5,3.6-1.1,3.6-1.1
		c-6.7-6.5-4.4-36.2-7.3-42.8s-15.8-4-15.8-4s-14.6-2.8-16.4,6.7c-1.6,8.2-1.2,30.2-3.4,37.6l5.3,1.5"/>
	<path fill="none" stroke="#000000" stroke-width="2" stroke-miterlimit="10" d="M139.4,91c-0.5-0.4,0,5.4,0,5.4l8.4,0.2V91
		C147.7,91,141.4,92.5,139.4,91z"/>
	<path fill="none" stroke="#000000" stroke-width="2" stroke-miterlimit="10" d="M127.4,97.1c0,0,22.8-2.5,34.9,2.2
		c0,0-7.4,74.7,9.1,114.2c0,0-36.9,11.7-58-8.9c0,0,12.9-61.1,12.9-68.8S127.4,97.1,127.4,97.1z"/>
	<polyline fill="none" stroke="#000000" stroke-width="2" stroke-miterlimit="10" points="127.4,97.1 80.1,103 86.1,124.2 
		127,107.4 	"/>
	<polyline fill="none" stroke="#000000" stroke-width="2" stroke-miterlimit="10" points="80.1,103 71.8,100.8 71.8,103.5 
		73.6,105.5 61.5,110.1 62.7,117.8 83.5,116 	"/>
	<polyline fill="none" stroke="#000000" stroke-width="2" stroke-miterlimit="10" points="160.7,98.8 208,104.7 201.9,125.8 
		161,109.1 	"/>
	<polyline fill="none" stroke="#000000" stroke-width="2" stroke-miterlimit="10" points="208,104.7 216.2,102.4 216.2,105.2 
		214.4,107.1 226.5,111.8 225.3,119.5 204.5,117.7 	"/>
	<polygon fill="none" stroke="#000000" stroke-width="2" stroke-miterlimit="10" points="151.3,97.4 126.2,128.6 125.8,140.7 
		161.9,100.2 	"/>
	<polyline fill="none" stroke="#000000" stroke-width="2" stroke-miterlimit="10" points="131.9,215.5 134.3,226 135.6,226 
		138,216.3 	"/>
	<polyline fill="none" stroke="#000000" stroke-width="2" stroke-miterlimit="10" points="155.6,217.1 153.2,227.7 151.9,227.7 
		149.3,216.8 	"/>
	<polygon fill="none" stroke="#000000" stroke-width="2" stroke-miterlimit="10" points="134.2,226 115.9,228.4 123,235.8 
		136.6,228.4 	"/>
	<polygon fill="none" stroke="#000000" stroke-width="2" stroke-miterlimit="10" points="153.3,227.7 171.6,230 164.5,237.5 
		150.9,230 	"/>
</g>
</svg>
