<?xml version="1.0" encoding="utf-8"?>
<!-- Generator: Adobe Illustrator 22.1.0, SVG Export Plug-In . SVG Version: 6.00 Build 0)  -->
<!DOCTYPE svg PUBLIC "-//W3C//DTD SVG 1.0//EN" "http://www.w3.org/TR/2001/REC-SVG-20010904/DTD/svg10.dtd">
<svg version="1.0" id="Layer_1" xmlns="http://www.w3.org/2000/svg" xmlns:xlink="http://www.w3.org/1999/xlink" x="0px" y="0px"
	 width="612px" height="792px" viewBox="0 0 612 792" enable-background="new 0 0 612 792" xml:space="preserve">
<g id="Layer_2_1_">
	<path fill="#27AAE1" d="M333.7,342.2c-3.1,2.5-40.4,46.6-40.4,46.6s-1.5,16.1,0,14.9s50.3-59.2,50.3-59.2L333.7,342.2z"/>
</g>
<g id="Layer_4">
	<path fill="none" stroke="#70BF44" stroke-width="15" stroke-miterlimit="10" stroke-opacity="0" d="M323.7,341
		c11.4,0.3,22.7,0.6,34.1,0.9c-14.6,1.4-29.3,1.3-44,1.2c11.3,2.5,22.9,3.6,34.5,3.2c-10.9,0.8-21.7,2.4-32.4,4.8
		c10.5,0.6,21,1.2,31.5,1.9c-13.1-0.1-26.2,0.4-39.3,1.6c0.5,1.8,2.8,2.2,4.7,2.2c7.1,0.2,14.2,0.3,21.3,0.5c-10,0-20,0.6-29.9,1.9
		c9.4,4,20.2,1.2,30.3,2.6c-14.1,0.3-28.2,1.9-42,4.9c12.3,1.5,24.7,2.3,37.1,2.6c-12.2,2-25.1-0.6-37,3c10.9,1.8,22,2.3,33,1.7
		c-12,0.6-24,1.3-35.9,1.9c9.4,0.6,18.7,1.2,28.1,1.7c-10.9,2.1-21.8,4.2-32.7,6.3c9.9,0.9,19.8,1.7,29.7,2.6
		c-7.3,1.2-14.6,2.5-21.9,3.7c6.3-1,12.8-1.4,19.2-1.1c-8.8,2-17.8,3.5-26.8,4.4c6.4-0.4,12.9-0.5,19.3-0.4
		c-6.8,0.5-13.6,1.8-20.1,4c10.1,2.4,20.7,2.9,31,1.3"/>
</g>
<path fill="none" stroke="#000000" stroke-width="2" stroke-miterlimit="10" d="M324.7,330h-12.4c-5.9,0-10.8-4.9-10.8-10.8v-24.9
	c0-5.9,4.9-10.8,10.8-10.8h12.4c5.9,0,10.8,4.9,10.8,10.8v24.9C335.5,325.2,330.6,330,324.7,330z"/>
<path fill="none" stroke="#000000" stroke-width="2" stroke-miterlimit="10" d="M301.4,306c0,0,6.8,3.1,10.7,1.8
	c3.9-1.4,8-1.9,13.8,0s9.6-2.2,9.6-2.2"/>
<path fill="none" stroke="#000000" stroke-width="2" stroke-miterlimit="10" d="M290.5,337.1c3.2-10.5,2.7-41.5,4.9-53.2
	c2.5-13.4,23.2-9.5,23.2-9.5s18.2-3.7,22.3,5.6c4.1,9.3,0.8,51.3,10.3,60.5c0,0-3.3,1-5.8,1.7"/>
<path fill="none" stroke="#000000" stroke-width="2" stroke-miterlimit="10" d="M301.4,302.5c0,0-7.9,3.1,0,9.3"/>
<path fill="none" stroke="#000000" stroke-width="2" stroke-miterlimit="10" d="M336.1,302.5c0,0,7.9,3.1,0,9.3"/>
<path fill="none" stroke="#000000" stroke-width="2" stroke-miterlimit="10" d="M313.5,330.5c-0.7-0.6-0.1,7.6-0.1,7.6l11.8,0.3v-8
	C325.3,330.5,316.3,332.8,313.5,330.5z"/>
<path fill="none" stroke="#000000" stroke-width="2" stroke-miterlimit="10" d="M296.5,339.4c0,0,32.3-3.5,49.4,3.1
	c0,0-10.5,105.6,12.8,161.4c0,0-52.1,16.5-82.1-12.6c0,0,18.3-86.3,18.3-97.2S296.5,339.4,296.5,339.4z"/>
<polygon fill="none" stroke="#000000" stroke-width="2" stroke-miterlimit="10" points="330.3,339.6 294.9,383.8 294.2,401 
	344.8,343.5 "/>
<polyline fill="none" stroke="#000000" stroke-width="2" stroke-miterlimit="10" points="260.6,300.6 247,313.6 274.9,358.6 
	294.9,353.8 296.5,339.4 283.5,334.5 280.6,300.6 271.1,297.1 "/>
<path fill="none" stroke="#000000" stroke-width="2" stroke-miterlimit="10" d="M263.3,288.8l-5.4-8.7l6.4-25.9h2.3v14.8
	c0,0,4.5,4.9,5.1,4.5c0.6-0.4,3.3-1.9,3.3-1.9l1.7,4.3l-7.8,13l4.1,15.4l-5.7,7.5l-7.3-3.8L263.3,288.8z"/>
<polyline fill="none" stroke="#000000" stroke-width="2" stroke-miterlimit="10" points="259.9,271.4 268.5,275.4 269.6,280.4 "/>
<polyline fill="none" stroke="#000000" stroke-width="2" stroke-miterlimit="10" points="258.7,276.4 264.2,279.2 265.2,283.5 "/>
<polygon fill="none" stroke="#000000" stroke-width="2" stroke-miterlimit="10" points="374.3,401 351.1,415.4 344.4,363.9 
	346.5,344.8 "/>
<polyline fill="none" stroke="#000000" stroke-width="2" stroke-miterlimit="10" points="359.9,410.9 365.6,420.6 375.8,425 
	379.6,422.8 367.4,405.5 "/>
<polyline fill="none" stroke="#000000" stroke-width="2" stroke-miterlimit="10" points="359.9,410.9 358,418.4 359.6,422.2 
	361.2,422.2 363.7,416.8 "/>
<polyline fill="none" stroke="#000000" stroke-width="2" stroke-miterlimit="10" points="302.9,506.5 306.2,521.5 308.2,521.5 
	311.5,507.8 "/>
<polyline fill="none" stroke="#000000" stroke-width="2" stroke-miterlimit="10" points="336.4,508.9 333.1,523.9 331.1,523.9 
	327.4,508.5 "/>
<polygon fill="none" stroke="#000000" stroke-width="2" stroke-miterlimit="10" points="306.1,521.5 280.2,524.9 290.3,535.4 
	309.6,524.9 "/>
<polygon fill="none" stroke="#000000" stroke-width="2" stroke-miterlimit="10" points="333.2,523.9 359.1,527.2 349,537.7 
	329.7,527.2 "/>
</svg>
