<?xml version="1.0" encoding="utf-8"?>
<!-- Generator: Adobe Illustrator 22.1.0, SVG Export Plug-In . SVG Version: 6.00 Build 0)  -->
<!DOCTYPE svg PUBLIC "-//W3C//DTD SVG 1.0//EN" "http://www.w3.org/TR/2001/REC-SVG-20010904/DTD/svg10.dtd">
<svg version="1.0" id="Layer_1" xmlns="http://www.w3.org/2000/svg" xmlns:xlink="http://www.w3.org/1999/xlink" x="0px" y="0px"
	 width="288px" height="288px" viewBox="0 0 288 288" enable-background="new 0 0 288 288" xml:space="preserve">
<g id="Layer_1_1_">
	<polyline fill="#FFFFFF" stroke="#000000" stroke-width="2" stroke-miterlimit="10" points="161.9,100.2 201.1,135.2 183.1,147.8 
		161.7,109.2 	"/>
	<path fill="#FFFFFF" stroke="#000000" stroke-width="2" stroke-miterlimit="10" d="M162.5,99c1.8-0.5,3.6-1.1,3.6-1.1
		c-6.7-6.5-4.4-36.2-7.3-42.8s-15.8-4-15.8-4s-14.6-2.8-16.4,6.7c-1.6,8.2-1.2,30.2-3.4,37.6l5.3,1.5"/>
	<path fill="#FFFFFF" stroke="#000000" stroke-width="2" stroke-miterlimit="10" d="M142.9,90.6L142.9,90.6c-6.7,0-12.1-5.4-12.1-12
		v-8.9c0-6.6,5.4-12,12-12h0.1c6.6,0,12,5.4,12,12v8.9C154.9,85.2,149.5,90.6,142.9,90.6z"/>
	<path fill="#FFFFFF" stroke="#000000" stroke-width="2" stroke-miterlimit="10" d="M130.8,73.6c0,0,4.8,2.2,7.5,1.3
		c2.8-1,5.6-1.4,9.8,0c4.1,1.4,6.8-1.6,6.8-1.6"/>
	<path fill="#FFFFFF" stroke="#000000" stroke-width="2" stroke-miterlimit="10" d="M130.8,71c0,0-5.6,2.2,0,6.5"/>
	<path fill="#FFFFFF" stroke="#000000" stroke-width="2" stroke-miterlimit="10" d="M155.4,71.1c0,0,5.6,2.2,0,6.5"/>
	<path fill="#FFFFFF" stroke="#000000" stroke-width="2" stroke-miterlimit="10" d="M139.4,91c-0.5-0.4,0,5.4,0,5.4l8.4,0.2V91
		C147.7,91,141.4,92.5,139.4,91z"/>
	<polyline fill="#FFFFFF" stroke="#000000" stroke-width="2" stroke-miterlimit="10" points="128.5,96.9 86.8,131.5 104.1,145.1 
		127.3,107.5 	"/>
	<path fill="#FFFFFF" stroke="#000000" stroke-width="2" stroke-miterlimit="10" d="M127.4,97.1c0,0,22.8-2.5,34.9,2.2
		c0,0-7.4,74.7,9.1,114.2c0,0-36.9,11.7-58-8.9c0,0,12.9-61.1,12.9-68.8S127.4,97.1,127.4,97.1z"/>
	<polyline fill="#FFFFFF" stroke="#000000" stroke-width="2" stroke-miterlimit="10" points="86.8,131.5 78.7,134.6 80.3,136.8 
		83,137.3 75.9,148.2 81.3,153.7 97.1,140 	"/>
	<polyline fill="#FFFFFF" stroke="#000000" stroke-width="2" stroke-miterlimit="10" points="201.1,135.2 208.9,138.5 207.2,140.7 
		204.6,141 211.1,152.3 205.3,157.5 190.2,143.1 	"/>
	<g id="Layer_2_1_">
		<polygon fill="#27AAE1" points="154.9,98.3 126.3,131.8 125.8,143.1 161.9,100.2 		"/>
	</g>
	<polygon fill="none" stroke="#000000" stroke-width="2" stroke-miterlimit="10" points="151.3,97.4 126.2,128.6 125.8,140.7 
		161.9,100.2 	"/>
	<polyline fill="#FFFFFF" stroke="#000000" stroke-width="2" stroke-miterlimit="10" points="131.9,215.5 134.3,226 135.6,226 
		138,216.3 	"/>
	<polyline fill="#FFFFFF" stroke="#000000" stroke-width="2" stroke-miterlimit="10" points="155.6,217.1 153.2,227.7 151.9,227.7 
		149.3,216.8 	"/>
	<polygon fill="#FFFFFF" stroke="#000000" stroke-width="2" stroke-miterlimit="10" points="134.2,226 115.9,228.4 123,235.8 
		136.6,228.4 	"/>
	<polygon fill="#FFFFFF" stroke="#000000" stroke-width="2" stroke-miterlimit="10" points="153.3,227.7 171.6,230 164.5,237.5 
		150.9,230 	"/>
</g>
<g id="Layer_3" display="none">
	<path display="inline" fill="none" stroke="#27AAE1" stroke-width="15" stroke-miterlimit="10" stroke-opacity="0" d="M142.7,96.7
		c8.8-0.1,17.6,1.3,26,4.1c-11.5,0.8-23,1.7-34.4,2.5c7.6,1.7,15.3,3.4,22.9,5.1c-7.8,0.3-15.6,2-22.8,5c6.2,0.7,12.3,1.9,18.3,3.5
		c-10.2,0.8-20.5,1.7-30.7,2.5c8.5,1.6,17.1,3.2,25.6,4.7c-8.4,0.5-16.8,1.1-25.3,1.6c-1.3,0.1-2.6,0.2-3.7,0.8
		c-1.1,0.6-1.9,1.9-1.5,3.1c8.7,1.4,18.6,3.7,22.9,11.4"/>
</g>
</svg>
