<?xml version="1.0" encoding="utf-8"?>
<!-- Generator: Adobe Illustrator 19.2.1, SVG Export Plug-In . SVG Version: 6.00 Build 0)  -->
<svg version="1.0" xmlns="http://www.w3.org/2000/svg" xmlns:xlink="http://www.w3.org/1999/xlink" x="0px" y="0px" width="288px"
	 height="288px" viewBox="0 0 288 288" enable-background="new 0 0 288 288" xml:space="preserve">
<g id="Layer_2">
	<path fill="#27AAE1" d="M106.2,135.4c-2.9-2.7-5-6.2-5.9-10c-6.1,5.2-12.2,9.7-17,11.5l-5.7,15.2c0,0,14.4-4.8,27.9-15.8
		C105.4,136.3,106.3,135.5,106.2,135.4z"/>
	<path fill="#27AAE1" d="M126.9,99.1c0,0-7.7,8.6-17.2,17.8c0.4,0.4,0.7,0.9,0.8,1.4c0.3,1.9,1.8,2.4,3.3,3.3c1.6,1,3.3,2.1,4.7,3.4
		c6.5-6,10.5-10.1,10.5-10.1l2.5-12.5L126.9,99.1z"/>
</g>
<g id="Layer_1">
	<path fill="none" stroke="#000000" stroke-width="2" stroke-miterlimit="10" d="M123.6,88.8l-4-0.6c-6.5-0.9-11.1-7-10.2-13.5
		l2.2-15.7c0.9-6.5,7-11.1,13.5-10.2l4,0.6c6.5,0.9,11.1,7,10.2,13.5l-2.2,15.7C136.2,85.1,130.1,89.7,123.6,88.8z"/>
	<path fill="none" stroke="#000000" stroke-width="2" stroke-miterlimit="10" d="M110.2,69c0,0,6.2,2.2,10.2,1.3s9.6,0.3,10.2,1.9
		s7.1,2.5,7.1,2.5"/>
	<path fill="none" stroke="#000000" stroke-width="2" stroke-miterlimit="10" d="M110.9,63.6c0,0-4.2-0.9-4.9,2.9
		c-0.7,3.8,3,6.1,3,6.1"/>
	<path fill="none" stroke="#000000" stroke-width="2" stroke-miterlimit="10" d="M124.7,96.1c6.3,0.3,12.9-0.4,19.4-2.9
		c0,0-3.5-12.9-1.3-24.9c2.3-12,2.4-26.8-13.1-28.2c0,0-23.7-7.9-33.2,25c0,0-5.7,18.8-7.1,19.9c0,0,13,6.2,22.4,9.4"/>
	<polyline fill="none" stroke="#000000" stroke-width="2" stroke-miterlimit="10" points="115.5,87.9 113.5,93.9 124.4,97.5 
		124.7,89.6 	"/>
	<path fill="none" stroke="#000000" stroke-width="2" stroke-miterlimit="10" d="M126.2,127.1c3-11.4,5.3-24.6,5.3-24.6
		c-6.6-7.8-31.5-9.8-31.5-9.8l-23.1,61.6c9.5,17.5,8.8,64.2,8.8,64.2c24.8,10.2,52.2,4,52.2,4l-13.9-75"/>
	<path fill="none" stroke="#000000" stroke-width="2" stroke-miterlimit="10" d="M102.5,101c0,0,8.4,43,51.7,19l-1.7,25.4
		c0,0-47.3,19.1-55.1-34"/>
	<polyline fill="none" stroke="#000000" stroke-width="2" stroke-miterlimit="10" points="154.2,129.8 158.2,128.4 161,131.2 
		173.2,131.2 173.2,116.5 159.8,116.5 154.2,120 150.2,115 158.5,109.5 	"/>
	<path fill="none" stroke="#000000" stroke-width="2" stroke-miterlimit="10" d="M130.7,106.7c0,0,8.7,18.2,20.7,9.8"/>
	<path fill="none" stroke="#000000" stroke-width="2" stroke-miterlimit="10" d="M124.4,97.5c0,0-7.7,7.2-16.3,15.2"/>
	<path fill="none" stroke="#000000" stroke-width="2" stroke-miterlimit="10" d="M98.9,121.2c-8,7.5-14.9,13.8-14.9,13.8"/>
	<path fill="none" stroke="#000000" stroke-width="2" stroke-miterlimit="10" d="M129,115c0,0-3.6,4.2-9.5,9.9"/>
	<path fill="none" stroke="#000000" stroke-width="2" stroke-miterlimit="10" d="M107.1,135.8c-8.8,7-19.2,13.7-29.4,16.3"/>
	<polyline fill="none" stroke="#000000" stroke-width="2" stroke-miterlimit="10" points="93.9,222.1 95.4,238.2 100,238.2 102,223 
			"/>
	<path fill="none" stroke="#000000" stroke-width="2" stroke-miterlimit="10" d="M120.4,224.1c0.9,4.2,3.1,14.2,3.1,14.2h5
		c0,0,0.9-10.1,1.4-15"/>
	<path fill="none" stroke="#000000" stroke-width="2" stroke-miterlimit="10" d="M95.4,238.2c-0.2,2,19.3,14.7,19.3,14.7l7.5-10.3
		l-22.2-4.3"/>
	<polyline fill="none" stroke="#000000" stroke-width="2" stroke-miterlimit="10" points="123.5,238.2 139.7,250.2 150.2,241.8 
		127.6,238.2 	"/>
	
		<ellipse transform="matrix(0.2981 -0.9545 0.9545 0.2981 30.7887 255.3079)" fill="none" stroke="#000000" stroke-width="2" stroke-miterlimit="10" cx="189" cy="106.7" rx="15" ry="10.6"/>
	<path fill="none" stroke="#000000" stroke-width="2" stroke-miterlimit="10" d="M196.7,115c0,0,15.3,14.6,13.1,44.8
		s-8.5,29.9-8.5,29.9l-29.2-7.1c0,0,7.7-15.3,11.1-36.1"/>
	<path fill="none" stroke="#000000" stroke-width="2" stroke-miterlimit="10" d="M200,124.9c0,0-9,17.6-26.8,4.4"/>
	<path fill="none" stroke="#000000" stroke-width="2" stroke-miterlimit="10" d="M165.9,131.2c0,0,9.9,26.2,35.4,8"/>
	<polyline fill="none" stroke="#000000" stroke-width="2" stroke-miterlimit="10" points="161.2,116.5 158.5,109.5 168,106.7 
		173.2,116.5 	"/>
	<path fill="none" stroke="#000000" stroke-width="2" stroke-miterlimit="10" d="M173.2,124.9c0,0,7.8,4.1,11.5,2.3"/>
	<path fill="none" stroke="#000000" stroke-width="2" stroke-miterlimit="10" d="M184.5,134.2c0.3-4.3,0.3-8.7,0-13.2"/>
	<polyline fill="none" stroke="#000000" stroke-width="2" stroke-miterlimit="10" points="178.2,184 169,210.2 187.8,241.1 
		192.2,241.1 	"/>
	<path fill="none" stroke="#000000" stroke-width="2" stroke-miterlimit="10" d="M191,187.1l-9.7,22.4l12,34.7l4.2-1.7
		c0,0-2.2-32-2.2-33.5s6-19.4,6-19.4"/>
	<polyline fill="none" stroke="#000000" stroke-width="2" stroke-miterlimit="10" points="193.2,244.2 178.5,250.2 192.2,255.2 
		197.5,242.5 	"/>
	<polyline fill="none" stroke="#000000" stroke-width="2" stroke-miterlimit="10" points="187.8,241.1 172,242.5 181.8,248.9 	"/>
</g>
<g id="Layer_3">
	<path opacity="0" fill="none" stroke="#000000" stroke-width="12" stroke-miterlimit="10" d="M121.7,99.6c5.2,0.6,10.2,2,14.9,4.2
		c-7.9,1.7-15.9,2.5-24,2.3c6.7,1.8,13.4,3.5,20.1,5.3c-10.1-0.2-20.2,0-30.3,0.4c10.1,2.7,20.3,4.7,30.6,6.1
		c-14,0.7-27.9,1.4-41.9,2.2c3.1,2,6.8,2.7,10.4,3.3c7.9,1.4,15.7,2.8,23.6,4.2c-14.2,1-28.5,2.1-42.7,3.1c9.9,0.2,19.8,2,29.1,5.5
		c-12.2,1.7-24.6,1.5-37,1.3c9.2,2,18.4,4.1,27.6,6.1c-11,1.6-22.2,2-33.3,1.1"/>
</g>
</svg>
