<?xml version="1.0" encoding="utf-8"?>
<!-- Generator: Adobe Illustrator 20.1.0, SVG Export Plug-In . SVG Version: 6.00 Build 0)  -->
<!DOCTYPE svg PUBLIC "-//W3C//DTD SVG 1.0//EN" "http://www.w3.org/TR/2001/REC-SVG-20010904/DTD/svg10.dtd">
<svg version="1.0" xmlns="http://www.w3.org/2000/svg" xmlns:xlink="http://www.w3.org/1999/xlink" x="0px" y="0px" width="288px"
	 height="288px" viewBox="0 0 288 288" enable-background="new 0 0 288 288" xml:space="preserve">
<g id="Layer_1">
	<path d="M137.2,53.3v24.9l-2.5,5.7c0,0-2.6,2.1-3.1,2.1S87,86,87,86v7.2l-3.2,0.1v6.2H87v4h42.3l-3,22.8l0.9,17.4h1.8l7.8,27.1
		l0.3,42.7H149v-84.2c0,0,0.7-15.8,0-16.5s1.4-9.3,2.6-9.3c1.2,0,43.5,0,43.5,0h0.8v-3.8c0,0,2,0.5,2-0.2s0-6.2,0-6.2l-2.3-0.1
		l0.3-7.3h-37.5l-1.7-7.1c0,0-1.1-2.3-1.6-2.8s-5.7-2.5-6.2-3.1s0-19.8,0-19.8h-11.7V53.3z"/>
</g>
<g id="Layer_2_1_">
	<g id="Layer_3">
		<path fill="none" stroke="#90D4D7" stroke-width="32" stroke-miterlimit="10" stroke-opacity="0" d="M134,53.5
			c7.1-0.3,14.2-0.1,21.2,0.6c-10.4,1.9-20.8,3.5-31.3,4.8c11.1,0.6,22.2,1.2,33.3,1.8c-9,3-18.5,4.7-28,5.1
			c9.8,0.1,19.5,0.8,29.2,2.1c-13.1,1.4-26.3,2.8-39.4,4.1c15.9,3.6,32,6.1,48.3,7.4c-23.5-1.1-47-0.7-70.5,1.4
			C90.7,81.3,84.5,82,79,84.7c39.4,7.6,80,5.5,120.1,3.5c-6.8,3.6-14.7,4.2-22.3,4.7c-32.7,2.2-65.5,3.2-98.2,3
			c41.1,3.4,82.4,4.7,123.6,3.7c-33,3.1-66.3,3.3-99.4,3.5c-8,0-16,0.1-24.1,0.1c19.5,2.2,39.1,2.9,58.6,2.2
			c12.1-0.4,24.3-1.4,36.2,0.5c-20.5,3.6-41.4,5.4-62.2,5.4c23.7,1.2,47.3,2.4,71,3.6c-22.1,2-44.2,4.1-66.4,6.1
			c15.6,1.3,31.3,2.6,46.9,3.9c-16.4,1.2-32.7,2.4-49.1,3.6c19.6,0.6,39.2,2.4,58.7,5.3c-18.5,9.4-39.9,10.4-60.6,11.3
			c13.6,0.7,27,3.7,39.6,8.8c-13.4,1.6-26.7,4.4-39.7,8.2c16.3,0.1,32.6,1.1,48.7,3.1c-12.2,2.5-24.3,5-36.5,7.5
			c-1.8,0.4-3.7,0.8-4.7,2.3c15.1,1,30.1,3.5,44.6,7.5c-15.3,3.9-30.5,7.8-45.8,11.6c3.1,1.8,6.6,2.7,10.1,3.6
			c11.3,2.8,22.6,5.7,33.9,8.5c-13.9-0.1-27.9-0.3-41.6,2c10.4,4.8,21.4,8.3,32.6,10.7c2.3,0.5,5.7-0.1,5.4-2.4"/>
	</g>
</g>
</svg>
