<?xml version="1.0" encoding="utf-8"?>
<!-- Generator: Adobe Illustrator 19.2.1, SVG Export Plug-In . SVG Version: 6.00 Build 0)  -->
<svg version="1.0" xmlns="http://www.w3.org/2000/svg" xmlns:xlink="http://www.w3.org/1999/xlink" x="0px" y="0px" width="288px"
	 height="288px" viewBox="0 0 288 288" enable-background="new 0 0 288 288" xml:space="preserve">
<g id="Layer_2">
	<path fill="#27AAE1" d="M150.9,108.7c-1.9,1.6-25.7,29.6-25.7,29.6s-1,10.2,0,9.5c1-0.7,31.9-37.6,31.9-37.6L150.9,108.7z"/>
</g>
<g id="Layer_1">
	<path fill="none" stroke="#000000" stroke-width="2" stroke-miterlimit="10" d="M140.1,101.5L140.1,101.5
		c-5.9,0-10.8-4.9-10.8-10.8v-7.9c0-5.9,4.9-10.8,10.8-10.8h0c5.9,0,10.8,4.9,10.8,10.8v7.9C150.9,96.7,146.1,101.5,140.1,101.5z"/>
	<path fill="none" stroke="#000000" stroke-width="2" stroke-miterlimit="10" d="M129.3,86.3c0,0,4.3,2,6.8,1.1
		c2.5-0.9,5.1-1.2,8.8,0s6.1-1.4,6.1-1.4"/>
	<path fill="none" stroke="#000000" stroke-width="2" stroke-miterlimit="10" d="M129.3,84c0,0-5,1.9,0,5.9"/>
	<path fill="none" stroke="#000000" stroke-width="2" stroke-miterlimit="10" d="M151.3,84c0,0,5,1.9,0,5.9"/>
	<path fill="none" stroke="#000000" stroke-width="2" stroke-miterlimit="10" d="M122.4,106c2-6.7,1.7-26.3,3.1-33.7
		c1.6-8.5,14.7-6,14.7-6s11.5-2.3,14.1,3.6s0.5,32.6,6.5,38.4c0,0-1.6,0.5-3.2,0.9"/>
	<path fill="none" stroke="#000000" stroke-width="2" stroke-miterlimit="10" d="M137,101.9c-0.5-0.4,0,4.8,0,4.8l7.5,0.2v-5.1
		C144.5,101.9,138.8,103.2,137,101.9z"/>
	<path fill="none" stroke="#000000" stroke-width="2" stroke-miterlimit="10" d="M126.2,107.4c0,0,20.5-2.2,31.3,2
		c0,0-6.7,67,8.1,102.4c0,0-33.1,10.5-52.1-8c0,0,11.6-54.8,11.6-61.7S126.2,107.4,126.2,107.4z"/>
	<polyline fill="none" stroke="#000000" stroke-width="2" stroke-miterlimit="10" points="103.5,82.9 94.8,91.1 112.5,119.7 
		125.2,116.5 126.2,107.4 118,104.4 116.1,82.9 110.1,80.6 	"/>
	<path fill="none" stroke="#000000" stroke-width="2" stroke-miterlimit="10" d="M105.1,75.3l-3.5-5.6l4.1-16.4h1.5v9.4
		c0,0,2.8,3.1,3.2,2.8s2.1-1.2,2.1-1.2l1.1,2.7l-4.9,8.3l2.6,9.7l-3.6,4.8l-4.6-2.4L105.1,75.3z"/>
	<polyline fill="none" stroke="#000000" stroke-width="2" stroke-miterlimit="10" points="103,64.4 108.5,66.8 109.2,70 	"/>
	<polyline fill="none" stroke="#000000" stroke-width="2" stroke-miterlimit="10" points="102.3,67.4 105.7,69.3 106.3,72 	"/>
	<polygon fill="none" stroke="#000000" stroke-width="2" stroke-miterlimit="10" points="182,139.5 172,154 156.6,123 157.2,110.2 	
		"/>
	<polyline fill="none" stroke="#000000" stroke-width="2" stroke-miterlimit="10" points="177.6,146.5 182.9,150.6 189.9,150.9 
		191.7,148.7 180.6,141.2 	"/>
	<polyline fill="none" stroke="#000000" stroke-width="2" stroke-miterlimit="10" points="177.3,146.1 177.9,150.9 179.7,152.9 
		180.6,152.5 180.9,148.7 	"/>
	<polygon fill="none" stroke="#000000" stroke-width="2" stroke-miterlimit="10" points="147.7,107.6 125.2,135.6 124.8,146.5 
		157.2,110.2 	"/>
	<polyline fill="none" stroke="#000000" stroke-width="2" stroke-miterlimit="10" points="130.3,213.5 132.4,223 133.6,223 
		135.7,214.3 	"/>
	<polyline fill="none" stroke="#000000" stroke-width="2" stroke-miterlimit="10" points="151.5,215 149.4,224.5 148.2,224.5 
		145.8,214.7 	"/>
	<polygon fill="none" stroke="#000000" stroke-width="2" stroke-miterlimit="10" points="132.3,223 115.9,225.1 122.3,231.8 
		134.5,225.1 	"/>
	<polygon fill="none" stroke="#000000" stroke-width="2" stroke-miterlimit="10" points="149.5,224.5 165.9,226.6 159.5,233.3 
		147.3,226.6 	"/>
</g>
<g id="Layer_3">
	<path opacity="0" fill="none" stroke="#000000" stroke-width="10" stroke-miterlimit="10" d="M143.6,107c5.1,1.3,10.4,1.9,15.7,1.9
		c-6.7,0.8-13.3,2.5-19.6,5.1c5.1-1,10.3-1.1,15.4-0.3c-6.6,2-13.5,3.3-20.4,3.9c6.6,1,13.2,1.7,19.9,2c-7.6,1.4-15.2,2.8-22.9,4.1
		c4.4,1.9,9.2,2.7,13.9,2.5c-6,1.3-12.2,2.1-18.3,2.3c5.6,0.5,11.2,1.1,16.9,1.6c-7.4,1.3-14.9,2.2-22.4,2.9
		c5.2,0.7,10.3,1.4,15.5,2.1c-5.7,2.5-11.7,4.2-17.8,5c6.5,0.1,13,0.2,19.6,0.2c-6.7,2.1-13.6,3.2-20.6,3.3"/>
</g>
</svg>
