<svg id="Layer_1" data-name="Layer 1" xmlns="http://www.w3.org/2000/svg" viewBox="0 0 206.63 385.21"><title>JudgeTwo</title><ellipse cx="97.6" cy="91.86" rx="20.75" ry="30.25" fill="none" stroke="#231f20" stroke-miterlimit="10" stroke-width="2.79"/><path d="M260.52,153.75s18.74-18.13,41.87,0" transform="translate(-183.67 -95.89)" fill="none" stroke="#231f20" stroke-miterlimit="10" stroke-width="2.79"/><circle cx="76.85" cy="65.07" r="7.21" fill="none" stroke="#231f20" stroke-miterlimit="10" stroke-width="2.79"/><circle cx="71.5" cy="77.87" r="6.51" fill="none" stroke="#231f20" stroke-miterlimit="10" stroke-width="2.79"/><circle cx="69.16" cy="92.65" r="7.19" fill="none" stroke="#231f20" stroke-miterlimit="10" stroke-width="2.79"/><circle cx="70.35" cy="108.78" r="7.67" fill="none" stroke="#231f20" stroke-miterlimit="10" stroke-width="2.79"/><circle cx="118.22" cy="65.07" r="7.21" fill="none" stroke="#231f20" stroke-miterlimit="10" stroke-width="2.79"/><circle cx="123.56" cy="77.87" r="6.51" fill="none" stroke="#231f20" stroke-miterlimit="10" stroke-width="2.79"/><circle cx="125.91" cy="92.65" r="7.19" fill="none" stroke="#231f20" stroke-miterlimit="10" stroke-width="2.79"/><circle cx="124.72" cy="108.78" r="7.67" fill="none" stroke="#231f20" stroke-miterlimit="10" stroke-width="2.79"/><polyline points="90 120.01 88.35 130.44 98.46 153.61 108.58 129.61 105.45 120.69" fill="none" stroke="#231f20" stroke-miterlimit="10" stroke-width="2.79"/><polyline points="88.35 130.44 98.46 133.72 108.58 129.61" fill="none" stroke="#231f20" stroke-miterlimit="10" stroke-width="2.79"/><line x1="98.46" y1="133.72" x2="93.51" y2="142.28" fill="none" stroke="#231f20" stroke-miterlimit="10" stroke-width="2.79"/><line x1="98.08" y1="134.38" x2="103.24" y2="142.28" fill="none" stroke="#231f20" stroke-miterlimit="10" stroke-width="2.79"/><polyline points="88.98 126.46 79.51 126.28 41.01 98.44 50.68 70.61 54.85 69.28 60.16 58.79 48.35 51.61 44.18 55.94 47.68 59.78 43.35 63.61" fill="none" stroke="#231f20" stroke-miterlimit="10" stroke-width="2.79"/><polyline points="67.18 180.11 71.01 153.61 17.35 105.11 36.35 64.78 34.18 54.94 45.51 38.11 63.51 48.11 59.57 59.52" fill="none" stroke="#231f20" stroke-miterlimit="10" stroke-width="2.79"/><line x1="36.35" y1="64.78" x2="50.68" y2="70.61" fill="none" stroke="#231f20" stroke-miterlimit="10" stroke-width="2.79"/><polyline points="107.42 126.46 116.88 126.28 155.38 98.44 145.72 70.61 141.55 69.28 136.23 58.79 148.05 51.61 152.22 55.94 148.72 59.78 153.05 63.61" fill="none" stroke="#231f20" stroke-miterlimit="10" stroke-width="2.79"/><polyline points="129.22 180.11 125.38 153.61 179.05 105.11 160.05 64.78 162.22 54.94 150.88 38.11 132.88 48.11 136.83 59.52" fill="none" stroke="#231f20" stroke-miterlimit="10" stroke-width="2.79"/><line x1="160.05" y1="64.78" x2="145.72" y2="70.61" fill="none" stroke="#231f20" stroke-miterlimit="10" stroke-width="2.79"/><polygon points="15.35 180.11 182.35 180.11 181.01 191.11 17.35 196.52 15.35 180.11" fill="none" stroke="#231f20" stroke-miterlimit="10" stroke-width="2.79"/><path d="M213.35,292.41,202.13,427.29" transform="translate(-183.67 -95.89)" fill="none" stroke="#231f20" stroke-miterlimit="10" stroke-width="2.79"/><path d="M354.9,287.32,365.56,415.4" transform="translate(-183.67 -95.89)" fill="none" stroke="#231f20" stroke-miterlimit="10" stroke-width="2.79"/><path d="M230.65,397.42a47.2,47.2,0,0,1-1.3-11.09c0-18.41,10.26-33.33,22.92-33.33s22.91,14.92,22.91,33.33c0,11.86-5.49,22.27-11.9,28.18" transform="translate(-183.67 -95.89)" fill="none" stroke="#231f20" stroke-miterlimit="10" stroke-width="2.79"/><path d="M343.32,397.42a47.2,47.2,0,0,0,1.3-11.09c0-18.41-10.26-33.33-22.92-33.33s-22.92,14.92-22.92,33.33c0,11.86,5.49,22.27,11.91,28.18" transform="translate(-183.67 -95.89)" fill="none" stroke="#231f20" stroke-miterlimit="10" stroke-width="2.79"/><path d="M185,469.67s11-42,37-72.67c0,0,22.33.33,38,7,0,0,7.33,14,12,77" transform="translate(-183.67 -95.89)" fill="none" stroke="#231f20" stroke-miterlimit="10" stroke-width="2.79"/><path d="M389,469.67s-11-42-37-72.67c0,0-22.33.33-38,7,0,0-7.33,14-12,77" transform="translate(-183.67 -95.89)" fill="none" stroke="#231f20" stroke-miterlimit="10" stroke-width="2.79"/><line x1="72.68" y1="277.44" x2="83.51" y2="286.28" fill="none" stroke="#231f20" stroke-miterlimit="10" stroke-width="2.79"/><line x1="133.95" y1="277.44" x2="123.11" y2="286.28" fill="none" stroke="#231f20" stroke-miterlimit="10" stroke-width="2.79"/><polyline points="77.85 11.61 75.6 20.73 83.85 25.86 80.6 34.73 87.72 40.98" fill="none" stroke="#231f20" stroke-miterlimit="10" stroke-width="2.79"/><polyline points="98.6 0.48 94.97 10.36 100.85 15.86 95.22 25.73 101.72 32.48 97.78 43.16" fill="none" stroke="#231f20" stroke-miterlimit="10" stroke-width="2.79"/><polyline points="116.61 11.25 119.97 20.02 112.42 26.14 116.75 34.54 110.45 41.62" fill="none" stroke="#231f20" stroke-miterlimit="10" stroke-width="2.79"/></svg>