<svg id="Layer_1" data-name="Layer 1" xmlns="http://www.w3.org/2000/svg" viewBox="0 0 206.63 336.8"><title>JudgeOne</title><ellipse cx="97.6" cy="43.45" rx="20.75" ry="30.25" fill="none" stroke="#231f20" stroke-miterlimit="10" stroke-width="2.79"/><path d="M261.61,133.75s18.75-18.13,41.87,0" transform="translate(-184.76 -124.3)" fill="none" stroke="#231f20" stroke-miterlimit="10" stroke-width="2.79"/><circle cx="76.85" cy="16.66" r="7.21" fill="none" stroke="#231f20" stroke-miterlimit="10" stroke-width="2.79"/><circle cx="71.5" cy="29.46" r="6.51" fill="none" stroke="#231f20" stroke-miterlimit="10" stroke-width="2.79"/><circle cx="69.16" cy="44.24" r="7.19" fill="none" stroke="#231f20" stroke-miterlimit="10" stroke-width="2.79"/><circle cx="70.35" cy="60.36" r="7.67" fill="none" stroke="#231f20" stroke-miterlimit="10" stroke-width="2.79"/><circle cx="118.22" cy="16.66" r="7.21" fill="none" stroke="#231f20" stroke-miterlimit="10" stroke-width="2.79"/><circle cx="123.56" cy="29.46" r="6.51" fill="none" stroke="#231f20" stroke-miterlimit="10" stroke-width="2.79"/><circle cx="125.91" cy="44.24" r="7.19" fill="none" stroke="#231f20" stroke-miterlimit="10" stroke-width="2.79"/><circle cx="124.72" cy="60.36" r="7.67" fill="none" stroke="#231f20" stroke-miterlimit="10" stroke-width="2.79"/><polyline points="90 71.6 88.35 82.03 98.46 105.2 108.58 81.2 105.45 72.28" fill="none" stroke="#231f20" stroke-miterlimit="10" stroke-width="2.79"/><polyline points="88.35 82.03 98.46 85.31 108.58 81.2" fill="none" stroke="#231f20" stroke-miterlimit="10" stroke-width="2.79"/><line x1="98.46" y1="85.31" x2="93.51" y2="93.87" fill="none" stroke="#231f20" stroke-miterlimit="10" stroke-width="2.79"/><line x1="98.08" y1="85.97" x2="103.24" y2="93.87" fill="none" stroke="#231f20" stroke-miterlimit="10" stroke-width="2.79"/><polyline points="88.95 78.23 67.51 85.97 61.97 131.7" fill="none" stroke="#231f20" stroke-miterlimit="10" stroke-width="2.79"/><polyline points="108.08 78.23 129.52 85.97 135.05 131.7" fill="none" stroke="#231f20" stroke-miterlimit="10" stroke-width="2.79"/><path d="M252.15,211.22c-.13,1.12-12.63,26.61-12.63,26.61L227.35,212l-7,7.17,8.5,36.83" transform="translate(-184.76 -124.3)" fill="none" stroke="#231f20" stroke-miterlimit="10" stroke-width="2.79"/><polyline points="42.59 87.7 41.59 78.23 30.42 78.23 30.42 82.96 35.59 84.2" fill="none" stroke="#231f20" stroke-miterlimit="10" stroke-width="2.79"/><polyline points="37.59 78.23 21.59 71.6 16.09 89.92 31.74 92.97 33.76 84.65" fill="none" stroke="#231f20" stroke-miterlimit="10" stroke-width="2.79"/><line x1="31.74" y1="92.97" x2="35.59" y2="94.86" fill="none" stroke="#231f20" stroke-miterlimit="10" stroke-width="2.79"/><rect x="206.95" y="176.92" width="28.63" height="15.5" transform="translate(-108.85 -188.5) rotate(19.86)" fill="none" stroke="#231f20" stroke-miterlimit="10" stroke-width="2.79"/><path d="M216.17,191.07l-2.34,7.54" transform="translate(-184.76 -124.3)" fill="none" stroke="#231f20" stroke-miterlimit="10" stroke-width="2.79"/><path d="M218.1,200.48l1.92-7.31" transform="translate(-184.76 -124.3)" fill="none" stroke="#231f20" stroke-miterlimit="10" stroke-width="2.79"/><path d="M208.57,215.51l-3,9.82,5.67,1.5,2.74-10.48" transform="translate(-184.76 -124.3)" fill="none" stroke="#231f20" stroke-miterlimit="10" stroke-width="2.79"/><line x1="129.52" y1="85.97" x2="147.15" y2="111.67" fill="none" stroke="#231f20" stroke-miterlimit="10" stroke-width="2.79"/><polygon points="138.76 113.6 156.71 109.47 156.71 130.7 140.18 130.7 138.76 113.6" fill="none" stroke="#231f20" stroke-miterlimit="10" stroke-width="2.79"/><line x1="139.15" y1="118.3" x2="149.73" y2="117.02" fill="none" stroke="#231f20" stroke-miterlimit="10" stroke-width="2.79"/><line x1="139.61" y1="122.14" x2="149.73" y2="121.58" fill="none" stroke="#231f20" stroke-miterlimit="10" stroke-width="2.79"/><line x1="139.89" y1="127.15" x2="149.73" y2="126.28" fill="none" stroke="#231f20" stroke-miterlimit="10" stroke-width="2.79"/><polygon points="15.35 131.7 182.35 131.7 181.01 142.7 17.35 148.11 15.35 131.7" fill="none" stroke="#231f20" stroke-miterlimit="10" stroke-width="2.79"/><path d="M214.44,272.41,203.22,407.29" transform="translate(-184.76 -124.3)" fill="none" stroke="#231f20" stroke-miterlimit="10" stroke-width="2.79"/><path d="M356,267.32,366.65,395.4" transform="translate(-184.76 -124.3)" fill="none" stroke="#231f20" stroke-miterlimit="10" stroke-width="2.79"/><path d="M231.74,377.42a47.2,47.2,0,0,1-1.3-11.09c0-18.41,10.26-33.33,22.92-33.33s22.91,14.92,22.91,33.33c0,11.86-5.48,22.27-11.9,28.18" transform="translate(-184.76 -124.3)" fill="none" stroke="#231f20" stroke-miterlimit="10" stroke-width="2.79"/><path d="M344.41,377.42a47.2,47.2,0,0,0,1.3-11.09c0-18.41-10.26-33.33-22.92-33.33s-22.91,14.92-22.91,33.33c0,11.86,5.48,22.27,11.9,28.18" transform="translate(-184.76 -124.3)" fill="none" stroke="#231f20" stroke-miterlimit="10" stroke-width="2.79"/><path d="M186.11,449.67s11-42,37-72.67c0,0,22.33.33,38,7,0,0,7.33,14,12,77" transform="translate(-184.76 -124.3)" fill="none" stroke="#231f20" stroke-miterlimit="10" stroke-width="2.79"/><path d="M390,449.67s-11-42-37-72.67c0,0-22.33.33-38,7,0,0-7.33,14-12,77" transform="translate(-184.76 -124.3)" fill="none" stroke="#231f20" stroke-miterlimit="10" stroke-width="2.79"/></svg>