<?xml version="1.0" encoding="utf-8"?>
<!-- Generator: Adobe Illustrator 22.1.0, SVG Export Plug-In . SVG Version: 6.00 Build 0)  -->
<!DOCTYPE svg PUBLIC "-//W3C//DTD SVG 1.0//EN" "http://www.w3.org/TR/2001/REC-SVG-20010904/DTD/svg10.dtd">
<svg version="1.0" id="Layer_1" xmlns="http://www.w3.org/2000/svg" xmlns:xlink="http://www.w3.org/1999/xlink" x="0px" y="0px"
	 width="5184px" height="3456px" viewBox="0 0 5184 3456" enable-background="new 0 0 5184 3456" xml:space="preserve">
<g id="Color">
	<path fill="#FFFFFF" d="M1595.5,1150.9c0,0-14.3-2.5-22.3-2.7c-8-0.2-17.5-1.5-21.8,1.3c-4.4,2.8-23.2,10.5-25.1,11
		s-12.1,4.9-12.1,4.9l-21.1,10.5l-10.2,14.3c0,0-9.5,8.1-9.5,18.6s0,11.3,0,21.1c0,9.8-1.8,54.1,27.5,61.8
		c29.3,7.7,46,26.6,70.8,25.2c24.8-1.4,52.4-4.4,52.4-4.4s10.2,3.6,23.3-2.9s24.8-6.9,29.9-15.1c5.1-8.2,5.1-13.6,10.9-21.8
		c5.8-8.2,8.7-7.5,11.7-15.5c2.9-8,0-27.7,0-27.7s-2.9-36.7-17.5-46.4c-14.6-9.7-17.5-14.1-22.6-18.4c-5.1-4.3-14.6-6.3-21.8-7.5
		c-7.3-1.2-18.9,7.9-24.8,3.4C1607.3,1156.1,1595.5,1150.9,1595.5,1150.9z"/>
	<path fill="#FFFFFF" d="M1637.7,1319l-6.8,3.5l0.5,6l4.4,5.5h6.5c0,0,5.3-5,4.8-5.8c-0.5-0.8-2.2-3.3-2.5-3.9c-0.3-0.6,0-3.9,0-3.9
		L1637.7,1319z"/>
	<path fill="#FFFFFF" d="M1628.1,1338.2l-5.8,1.9v7.2c0,0,2.3,4.8,3.4,4.8c1.1,0,5.6-1.8,5.6-1.8l4.5-3.8c0,0-1.2-3.2-1.2-3.8
		C1634.6,1342.1,1628.1,1338.2,1628.1,1338.2z"/>
	<polygon fill="#FFFFFF" points="1617,1353.3 1608.7,1355 1608.7,1359.5 1611.1,1363.5 1614.7,1363.5 1621,1360.8 	"/>
	<path fill="#FFFFFF" d="M1598.7,1363.5h-3.2l-1.6,5c0,0,2.8,5.1,3.3,4.9c0.5-0.2,3.9-1.9,3.9-1.9l2.4-3.1v-2.7l-1-2.2H1598.7z"/>
</g>
<g id="Lines">
	<path fill="none" stroke="#000000" stroke-width="4" stroke-miterlimit="10" d="M2889.1,1257.2c-22.6,2.7-44.9,2.4-66.8-4.8
		c-17.1-5.6-32.5-15.2-49-22.5c-33.6-14.9-71.4-19.9-108-15.9c-29.3,3.2-57.6,12.1-85.8,20.8c-11.2,0-26.6,8.3-37.3,11.7
		c-13.2,4.1-26.4,8.3-39.7,12.4c-24.9,7.8-47.6,18.3-71.4,29.3c-4.3,2-8.7,4.1-11.8,7.6c-4.9,5.6-5.7,13.6-8.3,20.6
		c-3.5,9.4-10.3,17.1-17,24.6c-7.4,8.2-14.7,16.4-22.1,24.6c-7.7,8.6-15.6,17.5-19.4,28.4c-3.3,9.3-3.3,19.4-5.4,29.1
		c-3.6,16.2-16.2,30.1-33.1,31.7c-12.1,1.2-17.2,1.2-25.5,11.2c-20.4,24.7-38.8,51.4-58.1,77c-4.8,6.3-12.4,11.4-17.7,17.4
		c-12.8,14.3-23.9,30.7-30.9,48.6c-8.2,21.1-8.5,41.9-10.4,63.9c-2.4,28-13.4,54.5-15,82.6c-1.1,18.4,2,36.8,3.6,55.1
		c5.9,67.1-6.1,139.6,27.4,198c20.5,35.6,55.9,60.8,94.2,75.4c38.3,14.6,79.7,19.5,120.6,21.8c19.1,1.1,38.9,1.8,55.9,10.4
		c7.9,4,14.9,9.5,22.5,13.9c24,14.2,52.7,17.5,78.8,27.3c17,6.5,32.8,15.7,49.3,23.4c134.1,62.9,288.8,26.5,430.8,46.1
		c19.6,2.7,39.1,6,58.3,11c19,5,37.7,11.7,57.3,13.3c51,4,100.5-30.1,122.7-76.3c5-10.5,9-21.7,16.3-30.7
		c18.3-22.8,53.9-27.5,69.4-52.3c5.6-9,7.8-19.5,11-29.6c5-15.9,12.4-30.9,19.8-45.9c8-16.1,16-32.3,24-48.4
		c20.8-42.1,18.1-90.8,15.2-136.4c-1.4-20.9-5.9-35.9-18.7-52.9c-11.8-15.7-26.6-29.9-33.8-48.7c-2.3-5.9-3.7-12.1-6.2-17.9
		c-8.1-18.5-27-32.2-29.3-52.2c-2.2-18.5,10.9-36.1,9.5-54.7c-1.6-20.3-19.9-36-22.9-56.1c-1.6-11.1,1.6-22.3,2.1-33.5
		c0.7-15.1-8-21.7-13.1-33.7c-6.8-16.1-7.8-32.9-17.6-48.1c-6.9-10.7-16.2-19.5-25.4-28.3c-25.5-24.3-50.9-48.6-76.4-72.8
		c-46.3-44.2-97.6-90.8-161.3-97.4C2990,1230.4,2938.9,1251.2,2889.1,1257.2z"/>
	<path fill="none" stroke="#000000" stroke-width="4" stroke-miterlimit="10" d="M2355.2,1333.6l-11.1,2.8l-1.9,9.5l3.8,10.2
		l9.1,2.5c0,0,9.6-5.7,9.2-7.1c-0.4-1.4-1.7-6-1.8-7c-0.2-1,1.7-6,1.7-6L2355.2,1333.6z"/>
	<path fill="none" stroke="#000000" stroke-width="4" stroke-miterlimit="10" d="M2283.1,1355.9l-9,0.7l-3.1,11.1
		c0,0,1.2,8.3,2.7,8.7s8.6-0.6,8.6-0.6l8-4.1c0,0-0.3-5.4-0.1-6.3S2283.1,1355.9,2283.1,1355.9z"/>
	<polygon fill="none" stroke="#000000" stroke-width="4" stroke-miterlimit="10" points="2226.3,1382.8 2213.9,1382.2 
		2211.9,1389.1 2213.6,1396.3 2218.7,1397.7 2228.7,1395.9 	"/>
	<path fill="none" stroke="#000000" stroke-width="4" stroke-miterlimit="10" d="M2166.3,1402.8l-4.5-1.3l-4.4,7.1
		c0,0,1.7,9,2.5,8.9c0.8-0.1,6.3-1.4,6.3-1.4l4.7-3.9l1.2-4.2l-0.5-3.8L2166.3,1402.8z"/>
</g>
</svg>
