<svg id="Layer_1" data-name="Layer 1" xmlns="http://www.w3.org/2000/svg" viewBox="0 0 308.55 185.48"><title>LightBeam</title><path d="M233,197l-23.94,24.06" transform="translate(-134.53 -196.02)" fill="none" stroke="#231f20" stroke-miterlimit="10" stroke-width="2.79"/><path d="M203.59,226.57,161.2,269.18" transform="translate(-134.53 -196.02)" fill="none" stroke="#231f20" stroke-miterlimit="10" stroke-width="2.79"/><path d="M154.22,276.2,135.52,295" transform="translate(-134.53 -196.02)" fill="none" stroke="#231f20" stroke-miterlimit="10" stroke-width="2.79"/><path d="M253,200,217.9,255.24" transform="translate(-134.53 -196.02)" fill="none" stroke="#231f20" stroke-miterlimit="10" stroke-width="2.79"/><path d="M214.54,260.53l-32.44,51" transform="translate(-134.53 -196.02)" fill="none" stroke="#231f20" stroke-miterlimit="10" stroke-width="2.79"/><path d="M178.64,317,164,340" transform="translate(-134.53 -196.02)" fill="none" stroke="#231f20" stroke-miterlimit="10" stroke-width="2.79"/><path d="M271,205l-12.27,36.46" transform="translate(-134.53 -196.02)" fill="none" stroke="#231f20" stroke-miterlimit="10" stroke-width="2.79"/><path d="M256,249.55,236.25,308.3" transform="translate(-134.53 -196.02)" fill="none" stroke="#231f20" stroke-miterlimit="10" stroke-width="2.79"/><path d="M234.06,314.79,219.52,358" transform="translate(-134.53 -196.02)" fill="none" stroke="#231f20" stroke-miterlimit="10" stroke-width="2.79"/><path d="M289,205v69" transform="translate(-134.53 -196.02)" fill="none" stroke="#231f20" stroke-miterlimit="10" stroke-width="2.79"/><path d="M289,285v42.67" transform="translate(-134.53 -196.02)" fill="none" stroke="#231f20" stroke-miterlimit="10" stroke-width="2.79"/><path d="M289,335.67V381.5" transform="translate(-134.53 -196.02)" fill="none" stroke="#231f20" stroke-miterlimit="10" stroke-width="2.79"/><path d="M306.59,205l12.28,36.46" transform="translate(-134.53 -196.02)" fill="none" stroke="#231f20" stroke-miterlimit="10" stroke-width="2.79"/><path d="M321.59,249.55l19.77,58.75" transform="translate(-134.53 -196.02)" fill="none" stroke="#231f20" stroke-miterlimit="10" stroke-width="2.79"/><path d="M343.55,314.79,358.09,358" transform="translate(-134.53 -196.02)" fill="none" stroke="#231f20" stroke-miterlimit="10" stroke-width="2.79"/><path d="M324.59,200l35.12,55.24" transform="translate(-134.53 -196.02)" fill="none" stroke="#231f20" stroke-miterlimit="10" stroke-width="2.79"/><path d="M363.08,260.53c10.79,17,23.5,37,32.43,51" transform="translate(-134.53 -196.02)" fill="none" stroke="#231f20" stroke-miterlimit="10" stroke-width="2.79"/><path d="M399,317l14.62,23" transform="translate(-134.53 -196.02)" fill="none" stroke="#231f20" stroke-miterlimit="10" stroke-width="2.79"/><path d="M344.59,197l23.94,24.06" transform="translate(-134.53 -196.02)" fill="none" stroke="#231f20" stroke-miterlimit="10" stroke-width="2.79"/><path d="M374,226.57l42.39,42.61" transform="translate(-134.53 -196.02)" fill="none" stroke="#231f20" stroke-miterlimit="10" stroke-width="2.79"/><path d="M423.39,276.2l18.7,18.8" transform="translate(-134.53 -196.02)" fill="none" stroke="#231f20" stroke-miterlimit="10" stroke-width="2.79"/></svg>