<svg id="Layer_1" data-name="Layer 1" xmlns="http://www.w3.org/2000/svg" viewBox="0 0 400.73 308.33"><title>ManBrokenIdol</title><ellipse cx="239.27" cy="201.32" rx="38.44" ry="24.94" transform="translate(-55.17 306.84) rotate(-88.71)" fill="none" stroke="#231f20" stroke-miterlimit="10" stroke-width="2.79"/><path d="M226,233.81l-4.5,9.95" transform="translate(-87.81 -129.18)" fill="none" stroke="#231f20" stroke-miterlimit="10" stroke-width="2.79"/><line x1="147.76" y1="122.75" x2="152.18" y2="111.05" fill="none" stroke="#231f20" stroke-miterlimit="10" stroke-width="2.79"/><path d="M236.5,359.21l5.78-29.92L255,263.78c0-.13-42.75-24.88-42.75-24.88-31.57,45.24-41,118.46-41,118.46,10.73,13.79,42.09,16.35,55.84,16.8" transform="translate(-87.81 -129.18)" fill="none" stroke="#231f20" stroke-miterlimit="10" stroke-width="2.79"/><polyline points="125.25 128.55 121.46 199.07 141.71 251.43 153.46 249.57 140.71 197.32 143.71 133.32" fill="none" stroke="#231f20" stroke-miterlimit="10" stroke-width="2.79"/><polyline points="142.33 251.95 143.21 262.07 154.21 265.12 160.86 277.75 167.14 264.58 153.46 249.57" fill="none" stroke="#231f20" stroke-miterlimit="10" stroke-width="2.79"/><path d="M171.16,357.36s-8.82,59.56,51.84,54.56" transform="translate(-87.81 -129.18)" fill="none" stroke="#231f20" stroke-miterlimit="10" stroke-width="2.79"/><path d="M247.55,404.5l11.37,24.64s-84,19.36-133.84-23.78l6.31-15.09s25.7,12.64,54.92,13.49" transform="translate(-87.81 -129.18)" fill="none" stroke="#231f20" stroke-miterlimit="10" stroke-width="2.79"/><polyline points="43.58 261.1 34.74 255.41 2.33 300.38 27.8 306.7 39.95 278.42" fill="none" stroke="#231f20" stroke-miterlimit="10" stroke-width="2.79"/><path d="M127.54,387.45l7.32-6.84s18.68,13.87,43.31,13.68" transform="translate(-87.81 -129.18)" fill="none" stroke="#231f20" stroke-miterlimit="10" stroke-width="2.79"/><polyline points="30.49 300.44 43.58 295.59 47.91 284.15" fill="none" stroke="#231f20" stroke-miterlimit="10" stroke-width="2.79"/><path d="M400.46,241.71l-2.17-14.23L388.21,221l-.11-12.26-8.67,6.93-3-6.61-9.9,8.25-4.18-8.55-13.06,4.14,20.61-39.06,19.05,10.83-13.41-18.11,2.23-9.37-5.62-3.73,1-11.06,3.87-.45,2,7.92,6.64,2.67L382.21,166l11,13.72,4.4-1.83,6.16,11-4.8,21.92,11.47,15.46-3.7,19.87L416.1,274l.25,25.35,4.94,27.79-5.17,14.94,6.8,18.09-9.56.47" transform="translate(-87.81 -129.18)" fill="none" stroke="#231f20" stroke-miterlimit="10" stroke-width="2.79"/><path d="M407.73,240.64l-39.79,5.85.65,13.24,41.66-2.8" transform="translate(-87.81 -129.18)" fill="none" stroke="#231f20" stroke-miterlimit="10" stroke-width="2.79"/><line x1="284.27" y1="130.38" x2="285.82" y2="212.67" fill="none" stroke="#231f20" stroke-miterlimit="10" stroke-width="2.79"/><path d="M418.82,334.28l-51.4,8.61,1,20,46.94-2.31" transform="translate(-87.81 -129.18)" fill="none" stroke="#231f20" stroke-miterlimit="10" stroke-width="2.79"/><path d="M382.87,340.3s-3.91-73.32.82-73.8,6.62,73.44,6.62,73.44" transform="translate(-87.81 -129.18)" fill="none" stroke="#231f20" stroke-miterlimit="10" stroke-width="2.79"/><path d="M399.29,337.55c.24,0-2.24-74.2,3.23-74.85s8.42,72.9,8.42,72.9" transform="translate(-87.81 -129.18)" fill="none" stroke="#231f20" stroke-miterlimit="10" stroke-width="2.79"/><path d="M434.73,232.4l2.73-17.58-6.44-8,6.72-12,9.32,4.5,5-6,6.75,3.75,2.75-6.75H472l-25-29.5-8.54,10.5,1.71-16.23-2-10,4-3.5-3.74-11h-2.75v8.5l-5.75,4.5,3,12.25-3,15.5-5.11-1.92,3.44,12.09-9.67,21.17L427.35,216,424,237l6,25.66-3.34,31.75L430,321l-2.67,14.33,5,17.74H465v-29.5l-36.27,4.25" transform="translate(-87.81 -129.18)" fill="none" stroke="#231f20" stroke-miterlimit="10" stroke-width="2.79"/><path d="M426.91,249.39l31.86-.57V230.07l-34.18,3.32" transform="translate(-87.81 -129.18)" fill="none" stroke="#231f20" stroke-miterlimit="10" stroke-width="2.79"/><line x1="366.2" y1="119.73" x2="369.96" y2="194.39" fill="none" stroke="#231f20" stroke-miterlimit="10" stroke-width="2.79"/><path d="M437.46,326.8s.56-71.71,4.31-72.1,5.29,71,5.29,71" transform="translate(-87.81 -129.18)" fill="none" stroke="#231f20" stroke-miterlimit="10" stroke-width="2.79"/><polygon points="305.31 245.16 311.12 250.82 321.21 247.99 321.21 242.82 317.13 240.49 305.31 245.16" fill="none" stroke="#231f20" stroke-miterlimit="10" stroke-width="2.79"/><polygon points="371.21 240.49 366.2 239.16 362.04 242.66 364.54 249.16 374.87 248.16 378.87 242.99 371.21 240.49" fill="none" stroke="#231f20" stroke-miterlimit="10" stroke-width="2.79"/><polygon points="275.21 238.16 265.71 235.32 263.21 240.49 269.21 248.16 277.04 245.66 275.21 238.16" fill="none" stroke="#231f20" stroke-miterlimit="10" stroke-width="2.79"/><polygon points="386.21 225.66 379.54 230.49 388.21 236.99 397.21 233.69 398.87 229.49 386.21 225.66" fill="none" stroke="#231f20" stroke-miterlimit="10" stroke-width="2.79"/><polygon points="338.54 246.82 335.11 252.99 341.71 255.99 348.87 254.16 342.87 250.82 338.54 246.82" fill="none" stroke="#231f20" stroke-miterlimit="10" stroke-width="2.79"/><polygon points="350.87 236.99 343.54 237.66 345.21 241.74 350.87 242.82 350.87 236.99" fill="none" stroke="#231f20" stroke-miterlimit="10" stroke-width="2.79"/><polygon points="291.68 244.74 286.18 247.07 288.93 251.57 296.18 248.74 291.68 244.74" fill="none" stroke="#231f20" stroke-miterlimit="10" stroke-width="2.79"/></svg>