<svg id="Layer_1" data-name="Layer 1" xmlns="http://www.w3.org/2000/svg" viewBox="0 0 389.78 308.56"><title>ManIdol</title><ellipse cx="260.67" cy="204.4" rx="38.44" ry="24.94" transform="translate(-81.56 294.81) rotate(-79.43)" fill="none" stroke="#231f20" stroke-miterlimit="10" stroke-width="2.79"/><polyline points="148.35 105.87 142.79 118.18 155.71 125.53 160.13 113.83" fill="none" stroke="#231f20" stroke-miterlimit="10" stroke-width="2.79"/><path d="M248,328.7l-8.69,45s-48.54,1-62.43-16.89c0,0,9.47-73.21,41-118.46,0,0,30,11.29,42.79,24.69l-7.31,37.79" transform="translate(-93.49 -128.36)" fill="none" stroke="#231f20" stroke-miterlimit="10" stroke-width="2.79"/><path d="M240.61,262.83s9.47,36,16.73,44.82c0,0,19.89-5.36,35-26.83l8.21,4.42s-11,47-60,43.25c0,0-20.66-24.63-21.85-51.14" transform="translate(-93.49 -128.36)" fill="none" stroke="#231f20" stroke-miterlimit="10" stroke-width="2.79"/><path d="M292.38,280.82l-1.58-18,4.42-2.53,6.31-19.25,6.63,2.21s2.84,14.2,2.21,21.62-9.78,19.57-9.78,19.57" transform="translate(-93.49 -128.36)" fill="none" stroke="#231f20" stroke-miterlimit="10" stroke-width="2.79"/><path d="M300.63,241.05h-5.88l-6.47,15.31h-4.42v21.15S270.8,296,255,294.77" transform="translate(-93.49 -128.36)" fill="none" stroke="#231f20" stroke-miterlimit="10" stroke-width="2.79"/><line x1="190.36" y1="149.15" x2="197.31" y2="153.1" fill="none" stroke="#231f20" stroke-miterlimit="10" stroke-width="2.79"/><line x1="163.85" y1="179.3" x2="147.12" y2="200.13" fill="none" stroke="#231f20" stroke-miterlimit="10" stroke-width="2.79"/><path d="M176.85,356.77s-8.83,59.56,51.84,54.56" transform="translate(-93.49 -128.36)" fill="none" stroke="#231f20" stroke-miterlimit="10" stroke-width="2.79"/><path d="M239.28,373.66l25.32,54.89s-84,19.36-133.84-23.78l6.31-15.08s25.7,12.63,54.92,13.48" transform="translate(-93.49 -128.36)" fill="none" stroke="#231f20" stroke-miterlimit="10" stroke-width="2.79"/><polyline points="43.58 261.33 34.74 255.65 2.33 300.62 27.8 306.93 39.95 278.65" fill="none" stroke="#231f20" stroke-miterlimit="10" stroke-width="2.79"/><path d="M133.22,386.86l7.33-6.84s18.68,13.88,43.31,13.69" transform="translate(-93.49 -128.36)" fill="none" stroke="#231f20" stroke-miterlimit="10" stroke-width="2.79"/><polyline points="30.49 300.67 43.58 295.82 47.91 284.38" fill="none" stroke="#231f20" stroke-miterlimit="10" stroke-width="2.79"/><polyline points="349.49 103.23 352.21 85.64 345.78 77.64 352.49 65.64 361.82 70.14 366.78 64.14 373.53 67.89 376.28 61.14 386.78 61.14 361.82 31.64 353.28 42.14 354.98 25.91 353.03 15.89 357.02 12.39 353.28 1.39 350.53 1.39 350.53 9.89 344.78 14.39 347.78 26.64 344.78 42.14 338.78 39.89 332.53 42.14 322.24 27.89 326.28 14.64 319.78 11.64 318.21 3.64 314.32 3.89 312.78 14.89 318.21 18.89 315.53 28.14 328.03 46.89 309.53 35.14 287.03 73.14 300.28 69.64 304.03 78.39 314.32 70.64 317.03 77.39 326.03 70.89 325.53 83.14 335.28 90.14 336.74 104.46" fill="none" stroke="#231f20" stroke-miterlimit="10" stroke-width="2.79"/><polyline points="336.9 80.64 344.78 87.14 342.62 103.89" fill="none" stroke="#231f20" stroke-miterlimit="10" stroke-width="2.79"/><polygon points="304.03 107.64 304.03 120.89 373.53 119.64 373.53 100.89 304.03 107.64" fill="none" stroke="#231f20" stroke-miterlimit="10" stroke-width="2.79"/><line x1="307.53" y1="120.89" x2="305.03" y2="203.16" fill="none" stroke="#231f20" stroke-miterlimit="10" stroke-width="2.79"/><line x1="368.77" y1="119.73" x2="372.53" y2="194.39" fill="none" stroke="#231f20" stroke-miterlimit="10" stroke-width="2.79"/><polygon points="298.78 203.89 298.78 223.89 379.78 223.89 379.78 194.39 298.78 203.89" fill="none" stroke="#231f20" stroke-miterlimit="10" stroke-width="2.79"/><path d="M407.82,330.43s-.3-73.43,4.45-73.68,3,73.68,3,73.68" transform="translate(-93.49 -128.36)" fill="none" stroke="#231f20" stroke-miterlimit="10" stroke-width="2.79"/><path d="M424.36,328.49c.24,0,1.41-74.22,6.91-74.61s4.82,73.23,4.82,73.23" transform="translate(-93.49 -128.36)" fill="none" stroke="#231f20" stroke-miterlimit="10" stroke-width="2.79"/><path d="M445.71,326s.56-71.71,4.31-72.1,5.29,71,5.29,71" transform="translate(-93.49 -128.36)" fill="none" stroke="#231f20" stroke-miterlimit="10" stroke-width="2.79"/></svg>