<svg id="Layer_1" data-name="Layer 1" xmlns="http://www.w3.org/2000/svg" viewBox="0 0 145.83 404.14"><title>MoneyGuy</title><ellipse cx="73.11" cy="42.89" rx="27.83" ry="41.5" fill="none" stroke="#231f20" stroke-miterlimit="10" stroke-width="2.79"/><path d="M261.13,109.45S280,119.22,308,105.39" transform="translate(-212.3 -86.84)" fill="none" stroke="#231f20" stroke-miterlimit="10" stroke-width="2.79"/><line x1="65.41" y1="82.77" x2="65.41" y2="94.06" fill="none" stroke="#231f20" stroke-miterlimit="10" stroke-width="2.79"/><line x1="80.84" y1="82.77" x2="82.62" y2="94.06" fill="none" stroke="#231f20" stroke-miterlimit="10" stroke-width="2.79"/><path d="M256.88,246.4l-5-62.83,67.66-4.67-2.07,62.76" transform="translate(-212.3 -86.84)" fill="none" stroke="#231f20" stroke-miterlimit="10" stroke-width="2.79"/><polyline points="39.62 96.73 7.69 158.16 72.47 193.09 76.16 180.57 30.44 150.16 42.15 128.85" fill="none" stroke="#231f20" stroke-miterlimit="10" stroke-width="2.79"/><polyline points="76.16 180.57 86.44 173.91 96.44 173.91 96.44 178.41 108.69 178.91 108.69 192.66 90.57 198.53 73.2 193.3" fill="none" stroke="#231f20" stroke-miterlimit="10" stroke-width="2.79"/><polyline points="104.53 178.69 109.94 155.91 93.13 151.72 87.69 173.91" fill="none" stroke="#231f20" stroke-miterlimit="10" stroke-width="2.79"/><path d="M295.85,262.63c.45-.3,0-23.06,0-23.06h9.34" transform="translate(-212.3 -86.84)" fill="none" stroke="#231f20" stroke-miterlimit="10" stroke-width="2.79"/><polyline points="83.55 154.16 75.31 155.74 79.43 177.9" fill="none" stroke="#231f20" stroke-miterlimit="10" stroke-width="2.79"/><line x1="30.44" y1="150.16" x2="7.69" y2="158.16" fill="none" stroke="#231f20" stroke-miterlimit="10" stroke-width="2.79"/><polyline points="107.28 92.06 144.1 141.8 108.69 190.49" fill="none" stroke="#231f20" stroke-miterlimit="10" stroke-width="2.79"/><polyline points="106.28 122.31 123.19 141.28 106.84 168.95" fill="none" stroke="#231f20" stroke-miterlimit="10" stroke-width="2.79"/><line x1="123.19" y1="141.28" x2="144.1" y2="141.8" fill="none" stroke="#231f20" stroke-miterlimit="10" stroke-width="2.79"/><path d="M316.22,281l-.64,19.25H261.13l-2.75-34.83" transform="translate(-212.3 -86.84)" fill="none" stroke="#231f20" stroke-miterlimit="10" stroke-width="2.79"/><polyline points="48.83 213.39 61.95 372.73 71.3 372.73 76.62 213.39" fill="none" stroke="#231f20" stroke-miterlimit="10" stroke-width="2.79"/><polyline points="80.28 213.39 84.62 372.73 94.28 372.73 103.28 213.39" fill="none" stroke="#231f20" stroke-miterlimit="10" stroke-width="2.79"/><polyline points="61.95 372.73 31.28 390.06 59.28 401.06 71.3 372.73" fill="none" stroke="#231f20" stroke-miterlimit="10" stroke-width="2.79"/><polyline points="84.62 372.73 99.62 402.39 126.28 392.39 94.28 372.73" fill="none" stroke="#231f20" stroke-miterlimit="10" stroke-width="2.79"/><path d="M226.24,102.62l-12.41,6.86s1.52,9.28,2.46,10.28,16,1.41,16,1.41l4.49,8.13-16.55,9.14" transform="translate(-212.3 -86.84)" fill="none" stroke="#231f20" stroke-miterlimit="10" stroke-width="2.79"/><path d="M214.53,102.45c.2,1,16,37.24,16,37.24" transform="translate(-212.3 -86.84)" fill="none" stroke="#231f20" stroke-miterlimit="10" stroke-width="2.79"/><line x1="7.71" y1="12.2" x2="24.24" y2="53.72" fill="none" stroke="#231f20" stroke-miterlimit="10" stroke-width="2.79"/><path d="M351.94,114.08l-14.08-1.59s-4.14,8.44-3.95,9.8,12.19,10.38,12.19,10.38l-1.05,9.24-18.78-2.13" transform="translate(-212.3 -86.84)" fill="none" stroke="#231f20" stroke-miterlimit="10" stroke-width="2.79"/><path d="M342.49,107.16c-.43,1-8.51,39.63-8.51,39.63" transform="translate(-212.3 -86.84)" fill="none" stroke="#231f20" stroke-miterlimit="10" stroke-width="2.79"/><line x1="136.64" y1="20.71" x2="126.08" y2="64.13" fill="none" stroke="#231f20" stroke-miterlimit="10" stroke-width="2.79"/></svg>