<?xml version="1.0" encoding="utf-8"?>
<!-- Generator: Adobe Illustrator 19.2.1, SVG Export Plug-In . SVG Version: 6.00 Build 0)  -->
<svg version="1.0" id="Layer_1" xmlns="http://www.w3.org/2000/svg" xmlns:xlink="http://www.w3.org/1999/xlink" x="0px" y="0px"
	 width="288px" height="288px" viewBox="0 0 288 288" enable-background="new 0 0 288 288" xml:space="preserve">
<path fill="none" stroke="#000000" stroke-width="2" stroke-miterlimit="10" d="M112.6,199.9c0,0,18.5-130.9-26.5-128.7
	c-45,2.2-25.4,133.1-25.4,133.1L112.6,199.9z"/>
<line fill="none" stroke="#000000" stroke-width="2" stroke-miterlimit="10" x1="56.5" y1="136.5" x2="116.2" y2="133.4"/>
<line fill="none" stroke="#000000" stroke-width="2" stroke-miterlimit="10" x1="116.2" y1="144.7" x2="56.5" y2="149.7"/>
<path fill="none" stroke="#000000" stroke-width="2" stroke-miterlimit="10" d="M67.4,83.7c0,0,0.4,25,0.9,52.2"/>
<path fill="none" stroke="#000000" stroke-width="2" stroke-miterlimit="10" d="M68.5,148c0.5,28.4,0.9,55.5,0.9,55.5"/>
<path fill="none" stroke="#000000" stroke-width="2" stroke-miterlimit="10" d="M78.8,72.9c0,0,0.7,30.9,1.4,62.5"/>
<path fill="none" stroke="#000000" stroke-width="2" stroke-miterlimit="10" d="M80.4,147.9c0.6,28.7,1.2,54.6,1.2,54.6"/>
<path fill="none" stroke="#000000" stroke-width="2" stroke-miterlimit="10" d="M91.1,71.5c0,0.5,0.5,31.8,1.1,63.5"/>
<path fill="none" stroke="#000000" stroke-width="2" stroke-miterlimit="10" d="M92.4,147.5c0.5,28.5,0.9,54,0.9,54"/>
<path fill="none" stroke="#000000" stroke-width="2" stroke-miterlimit="10" d="M104.7,81.4c0,0,0,25.4,0,52.7"/>
<path fill="none" stroke="#000000" stroke-width="2" stroke-miterlimit="10" d="M104.7,145.8c0,28.1,0,54.8,0,54.8"/>
<path fill="none" stroke="#000000" stroke-width="2" stroke-miterlimit="10" d="M173,199.9c0,0-18.5-130.9,26.5-128.7
	c45,2.2,25.4,133.1,25.4,133.1L173,199.9z"/>
<line fill="none" stroke="#000000" stroke-width="2" stroke-miterlimit="10" x1="229.1" y1="136.5" x2="169.4" y2="133.4"/>
<line fill="none" stroke="#000000" stroke-width="2" stroke-miterlimit="10" x1="169.4" y1="144.7" x2="229.1" y2="149.7"/>
<path fill="none" stroke="#000000" stroke-width="2" stroke-miterlimit="10" d="M218.2,83.7c0,0-0.4,25-0.9,52.2"/>
<path fill="none" stroke="#000000" stroke-width="2" stroke-miterlimit="10" d="M217.1,148c-0.5,28.4-0.9,55.5-0.9,55.5"/>
<path fill="none" stroke="#000000" stroke-width="2" stroke-miterlimit="10" d="M206.8,72.9c0,0-0.7,30.9-1.4,62.5"/>
<path fill="none" stroke="#000000" stroke-width="2" stroke-miterlimit="10" d="M205.2,147.9c-0.6,28.7-1.2,54.6-1.2,54.6"/>
<path fill="none" stroke="#000000" stroke-width="2" stroke-miterlimit="10" d="M194.5,71.5c0,0.5-0.5,31.8-1.1,63.5"/>
<path fill="none" stroke="#000000" stroke-width="2" stroke-miterlimit="10" d="M193.2,147.5c-0.5,28.5-0.9,54-0.9,54"/>
<path fill="none" stroke="#000000" stroke-width="2" stroke-miterlimit="10" d="M180.9,81.4c0,0,0,25.4,0,52.8"/>
<path fill="none" stroke="#000000" stroke-width="2" stroke-miterlimit="10" d="M180.9,145.8c0,28.1,0,54.8,0,54.8"/>
<path fill="none" stroke="#000000" stroke-width="2" stroke-miterlimit="10" d="M141.4,129.7c0,0,0.4-12.7,1-27.3"/>
<path fill="none" stroke="#000000" stroke-width="2" stroke-miterlimit="10" d="M142.9,86.1c0.5-14.6,1-27.2,1-27.2"/>
<path fill="none" stroke="#000000" stroke-width="2" stroke-miterlimit="10" d="M149.1,129.7c0,0,0.8-2.5,2-6.4"/>
<path fill="none" stroke="#000000" stroke-width="2" stroke-miterlimit="10" d="M153.6,115.4c1.6-5.1,3.5-10.9,5.2-16.4"/>
<path fill="none" stroke="#000000" stroke-width="2" stroke-miterlimit="10" d="M162.1,88.6c2.2-6.8,3.7-11.7,3.7-11.7"/>
<path fill="none" stroke="#000000" stroke-width="2" stroke-miterlimit="10" d="M134.9,129.7c0,0-0.9-2.9-2.3-7.3"/>
<path fill="none" stroke="#000000" stroke-width="2" stroke-miterlimit="10" d="M129.8,113.8c-1.8-5.8-4-12.5-5.9-18.5"/>
<path fill="none" stroke="#000000" stroke-width="2" stroke-miterlimit="10" d="M121.3,86.8c-1.9-5.9-3.2-9.9-3.2-9.9"/>
<path fill="none" stroke="#000000" stroke-width="2" stroke-miterlimit="10" d="M141.4,157.6c0,0,0.4,12.7,1,27.3"/>
<path fill="none" stroke="#000000" stroke-width="2" stroke-miterlimit="10" d="M142.9,201.1c0.5,14.6,1,27.2,1,27.2"/>
<path fill="none" stroke="#000000" stroke-width="2" stroke-miterlimit="10" d="M149.1,157.6c0,0,0.8,2.5,2,6.4"/>
<path fill="none" stroke="#000000" stroke-width="2" stroke-miterlimit="10" d="M153.6,171.9c1.6,5.1,3.5,10.9,5.2,16.4"/>
<path fill="none" stroke="#000000" stroke-width="2" stroke-miterlimit="10" d="M162.1,198.6c2.2,6.8,3.7,11.7,3.7,11.7"/>
<path fill="none" stroke="#000000" stroke-width="2" stroke-miterlimit="10" d="M134.9,157.6c0,0-0.9,2.9-2.3,7.3"/>
<path fill="none" stroke="#000000" stroke-width="2" stroke-miterlimit="10" d="M129.8,173.4c-1.8,5.8-4,12.5-5.9,18.5"/>
<path fill="none" stroke="#000000" stroke-width="2" stroke-miterlimit="10" d="M121.3,200.4c-1.9,5.9-3.2,9.9-3.2,9.9"/>
</svg>
