<?xml version="1.0" encoding="utf-8"?>
<!-- Generator: Adobe Illustrator 22.1.0, SVG Export Plug-In . SVG Version: 6.00 Build 0)  -->
<!DOCTYPE svg PUBLIC "-//W3C//DTD SVG 1.0//EN" "http://www.w3.org/TR/2001/REC-SVG-20010904/DTD/svg10.dtd">
<svg version="1.0" id="Layer_1" xmlns="http://www.w3.org/2000/svg" xmlns:xlink="http://www.w3.org/1999/xlink" x="0px" y="0px"
	 width="288px" height="288px" viewBox="0 0 288 288" enable-background="new 0 0 288 288" xml:space="preserve">
<g id="Layer_1_1_">
	
		<ellipse transform="matrix(0.9951 -9.902659e-02 9.902659e-02 0.9951 -4.6452 14.2183)" fill="none" stroke="#000000" stroke-width="2" stroke-miterlimit="10" cx="140.9" cy="53.9" rx="14" ry="20.7"/>
	<polyline fill="none" stroke="#000000" stroke-width="2" stroke-miterlimit="10" points="140.2,74.3 141.6,80.2 149,78.9 148,72.5 
			"/>
	<path fill="none" stroke="#000000" stroke-width="2" stroke-miterlimit="10" d="M126.2,83.4c0,0,28-6.3,36.8-6.1l2.2,61.1
		l-27.7,3.3L126.2,83.4z"/>
	<polyline fill="none" stroke="#000000" stroke-width="2" stroke-miterlimit="10" points="126.2,83.4 108.7,97.8 99,70.7 94.7,73.1 
		102.7,112.9 129.1,98.3 	"/>
	<polyline fill="none" stroke="#000000" stroke-width="2" stroke-miterlimit="10" points="99.2,71 99.2,60.7 95.4,60.1 95.4,63.4 
		77.7,65.2 81.3,69.6 94.7,73.1 	"/>
	<line fill="none" stroke="#000000" stroke-width="2" stroke-miterlimit="10" x1="108.7" y1="97.8" x2="102.7" y2="112.9"/>
	<polyline fill="none" stroke="#000000" stroke-width="2" stroke-miterlimit="10" points="163,77.3 188.9,84.7 187,54.3 192.4,54.3 
		201,95.3 163.5,90 	"/>
	<polyline fill="none" stroke="#000000" stroke-width="2" stroke-miterlimit="10" points="187,54.3 184.2,45 188.9,43.5 190,46.3 
		210,46.2 203.4,51.9 192.4,54.3 	"/>
	<line fill="none" stroke="#000000" stroke-width="2" stroke-miterlimit="10" x1="188.9" y1="84.7" x2="200" y2="93.8"/>
	<path fill="none" stroke="#000000" stroke-width="2" stroke-miterlimit="10" d="M137.6,141.7c0,0,3.7,69.5,10.7,97.5h5l-1.8-98.6
		l3.6-0.2c0,0,12.9,79.3,13.7,96.8l5.2-0.2c0,0,1-75-8.8-98.5"/>
	<polygon fill="none" stroke="#000000" stroke-width="2" stroke-miterlimit="10" points="148.8,239.2 129,250.3 145.5,253.7 
		153.5,239.8 	"/>
	<polygon fill="none" stroke="#000000" stroke-width="2" stroke-miterlimit="10" points="168.3,238.3 174.3,254.8 193,248.4 
		174.5,237.4 	"/>
</g>
</svg>
