<?xml version="1.0" encoding="utf-8"?>
<!-- Generator: Adobe Illustrator 22.1.0, SVG Export Plug-In . SVG Version: 6.00 Build 0)  -->
<!DOCTYPE svg PUBLIC "-//W3C//DTD SVG 1.0//EN" "http://www.w3.org/TR/2001/REC-SVG-20010904/DTD/svg10.dtd">
<svg version="1.0" id="Layer_1" xmlns="http://www.w3.org/2000/svg" xmlns:xlink="http://www.w3.org/1999/xlink" x="0px" y="0px"
	 width="288px" height="288px" viewBox="0 0 288 288" enable-background="new 0 0 288 288" xml:space="preserve">
<g id="Layer_2_1_">
	<path fill="#27AAE1" d="M137.6,33.5c0,0-13,29.1,5.3,41c0,0-15.2-3-16-19.2S136.4,33.7,137.6,33.5z"/>
	<path fill="#27AAE1" d="M131.3,82.3l9.6,53.2l13.9,4.2l-9,2c0,0,0.4,58.2,4.7,97.5l-2.4-0.6c0,0-8.4-51.1-8.9-71.8
		s-2.8-31.1-2.8-31.1L129,98.3l-2.9-14.9L131.3,82.3z"/>
	<path fill="#27AAE1" d="M160,139.1c0,0,10.8,40.3,10.8,98.9l-2.5,0.3c0,0-1.8-23.5-4.2-39.8s-9.3-58.8-9.3-58.8L160,139.1z"/>
	<polygon fill="#27AAE1" points="79.6,66.6 95.8,68.5 105.7,102 126.9,91.8 129.1,98.3 102,112.9 94.4,72.9 80.9,69.1 	"/>
	<polygon fill="#27AAE1" points="152,240.3 142.8,254.8 130,250.5 	"/>
	<polygon fill="#27AAE1" points="172,238.3 193,251.5 170.8,256.5 168.3,238.3 	"/>
	<polygon fill="#27AAE1" points="152,240.3 148.1,238.6 130,250.5 140.5,252 	"/>
</g>
<g id="Layer_1_1_">
	
		<ellipse transform="matrix(0.9951 -9.902659e-02 9.902659e-02 0.9951 -4.6452 14.2183)" fill="none" stroke="#000000" stroke-width="2" stroke-miterlimit="10" cx="140.9" cy="53.9" rx="14" ry="20.7"/>
	<path fill="none" stroke="#000000" stroke-width="2" stroke-miterlimit="10" d="M149,34.7c0,0-13.7,4.2-22.8,4.3"/>
	<path fill="none" stroke="#000000" stroke-width="2" stroke-miterlimit="10" d="M151,37.3c0,0-11.5,6-24.8,5.4"/>
	<path fill="none" stroke="#000000" stroke-width="2" stroke-miterlimit="10" d="M152.7,39c0,0-12.2,10.2-28.5,7.5"/>
	<polyline fill="none" stroke="#000000" stroke-width="2" stroke-miterlimit="10" points="140.2,74.3 141.6,80.2 149,78.9 148,72.5 
			"/>
	<path fill="none" stroke="#000000" stroke-width="2" stroke-miterlimit="10" d="M126.2,83.4c0,0,28-6.3,36.8-6.1l2.2,61.1
		l-27.7,3.3L126.2,83.4z"/>
	<polyline fill="none" stroke="#000000" stroke-width="2" stroke-miterlimit="10" points="126.2,83.4 108.7,97.8 99,70.7 94.7,73.1 
		102.7,112.9 129.1,98.3 	"/>
	<polyline fill="none" stroke="#000000" stroke-width="2" stroke-miterlimit="10" points="99.2,71 99.2,60.7 95.4,60.1 95.4,63.4 
		77.7,65.2 81.3,69.6 94.7,73.1 	"/>
	<line fill="none" stroke="#000000" stroke-width="2" stroke-miterlimit="10" x1="108.7" y1="97.8" x2="102.7" y2="112.9"/>
	<polyline fill="none" stroke="#000000" stroke-width="2" stroke-miterlimit="10" points="163,77.3 188.9,84.7 187,54.3 192.4,54.3 
		201,95.3 163.5,90 	"/>
	<polyline fill="none" stroke="#000000" stroke-width="2" stroke-miterlimit="10" points="187,54.3 184.2,45 188.9,43.5 190,46.3 
		210,46.2 203.4,51.9 192.4,54.3 	"/>
	<line fill="none" stroke="#000000" stroke-width="2" stroke-miterlimit="10" x1="188.9" y1="84.7" x2="200" y2="93.8"/>
	<path fill="none" stroke="#000000" stroke-width="2" stroke-miterlimit="10" d="M137.6,141.7c0,0,3.7,69.5,10.7,97.5h5l-1.8-98.6
		l3.6-0.2c0,0,12.9,79.3,13.7,96.8l5.2-0.2c0,0,1-75-8.8-98.5"/>
	<polygon fill="none" stroke="#000000" stroke-width="2" stroke-miterlimit="10" points="148.8,239.2 129,250.3 145.5,253.7 
		153.5,239.8 	"/>
	<polygon fill="none" stroke="#000000" stroke-width="2" stroke-miterlimit="10" points="168.3,238.3 174.3,254.8 193,248.4 
		174.5,237.4 	"/>
</g>
<g id="Layer_3">
	<path fill="none" stroke="#27AAE1" stroke-width="25" stroke-miterlimit="10" stroke-opacity="0" d="M96.3,34.3
		c22.6-0.5,45.1-1,67.7-1.5c-24.4,4.9-48.5,10.7-72.4,17.5c-8.5,2.4-17,5-24.5,9.5c32.4-2.9,64.9-4.6,97.4-5.3
		c-34.1,3.8-68,10.3-101.1,19.6c31.3,1.4,62.8,0.8,94-1.9c-11.5,1.4-22.7,4.7-33.8,8C106.4,85.4,89.2,90.5,72,95.7
		c29.2-2.3,58.3-4.6,87.5-6.8c-29.7,5.5-59.6,11-87.9,21.3c25.4-0.5,50.8-2.5,76-5.9c-24.2,8.8-48.3,17.6-72.5,26.3
		c23.8-0.8,47.6-2.9,71.3-6.2c-17.8,7.2-35.9,13.9-54.2,19.8c28.2-4,57.7,2.6,84.8-6.2c-15.8,13.3-36.5,18.7-56.4,23.9
		c22.3-0.7,44.5-1.5,66.8-2.2c-19.1,5-38,10.4-56.8,16.2c18.8,1.3,37.6,2.6,56.4,3.9c-30.1,5.3-60.3,10.6-90.4,15.9
		c32.9,0.5,65.7,2.2,98.4,4.9c-25.5,6.6-51,13.2-76.5,19.8c23.2,1,46.3,2,69.5,3.1c-21.1,5.2-42.8,7.7-64.5,10.1
		c19.1,9.2,40.6,13.5,61.9,12.4"/>
</g>
</svg>
