<?xml version="1.0" encoding="utf-8"?>
<!-- Generator: Adobe Illustrator 22.1.0, SVG Export Plug-In . SVG Version: 6.00 Build 0)  -->
<!DOCTYPE svg PUBLIC "-//W3C//DTD SVG 1.0//EN" "http://www.w3.org/TR/2001/REC-SVG-20010904/DTD/svg10.dtd">
<svg version="1.0" id="Layer_1" xmlns="http://www.w3.org/2000/svg" xmlns:xlink="http://www.w3.org/1999/xlink" x="0px" y="0px"
	 width="288px" height="288px" viewBox="0 0 288 288" enable-background="new 0 0 288 288" xml:space="preserve">
<g id="Lines">
	<ellipse fill="none" stroke="#000000" stroke-width="2" stroke-miterlimit="10" cx="150.3" cy="75.3" rx="13.4" ry="21.4"/>
	<path fill="none" stroke="#000000" stroke-width="2" stroke-miterlimit="10" d="M129.4,122.6c0-17,0-34.7,0-34.7s3.3-2.2,9-3.5"/>
	<path fill="none" stroke="#000000" stroke-width="2" stroke-miterlimit="10" d="M168.7,97.6c0,18.5,0,57.4,0,57.4
		s-26.2,2.4-39.4-1.2c0,0,0.1-29.4,0.1-31.2"/>
	<path fill="none" stroke="#000000" stroke-width="2" stroke-miterlimit="10" d="M163.1,83.8l3.2,1.4c4.4,1.9,7.5,5.7,8.5,10.4
		c3.1,14.8,5.9,40.1,4.8,60.3l-5.4,1.2c0,0,2.2-19.2-5.6-36"/>
	<polyline fill="none" stroke="#000000" stroke-width="2" stroke-miterlimit="10" points="174.3,156.9 171.9,165.1 174.3,167.6 
		174.3,178.5 182.6,173.2 179.7,155.7 	"/>
	<path fill="none" stroke="#000000" stroke-width="2" stroke-miterlimit="10" d="M170.7,125.8c-0.1-0.3,6.6-5.7,6.6-5.7"/>
	<path fill="none" stroke="#000000" stroke-width="2" stroke-miterlimit="10" d="M117,146.9c2.4-28.7,6.7-46,8.6-52.1
		c0,0,2-5.8,3.8-6.8"/>
	<path fill="none" stroke="#000000" stroke-width="2" stroke-miterlimit="10" d="M129.4,122.1c-2.4,7.5-6.8,34.8-6.8,34.8l-5.4-1.2
		c-0.2-2.9-0.2-5.9-0.2-8.8"/>
	<polyline fill="none" stroke="#000000" stroke-width="2" stroke-miterlimit="10" points="122.7,156.9 125.1,165.1 122.7,167.6 
		122.7,178.5 114.4,173.2 117.3,155.7 	"/>
	<polyline fill="none" stroke="#000000" stroke-width="2" stroke-miterlimit="10" points="131.8,154.3 136.9,234.1 143.8,234.1 
		149,155.7 	"/>
	<polyline fill="none" stroke="#000000" stroke-width="2" stroke-miterlimit="10" points="150.3,155.7 159.8,234.1 165.6,234.1 
		168.7,154.9 	"/>
	<polyline fill="none" stroke="#000000" stroke-width="2" stroke-miterlimit="10" points="136.9,234.1 120,248.2 140.4,251.6 
		143.8,234.1 	"/>
	<polyline fill="none" stroke="#000000" stroke-width="2" stroke-miterlimit="10" points="159.8,234.1 163.7,252.9 182.6,247.5 
		165.6,234.1 	"/>
</g>
</svg>
