<?xml version="1.0" encoding="utf-8"?>
<!-- Generator: Adobe Illustrator 21.0.0, SVG Export Plug-In . SVG Version: 6.00 Build 0)  -->
<!DOCTYPE svg PUBLIC "-//W3C//DTD SVG 1.0//EN" "http://www.w3.org/TR/2001/REC-SVG-20010904/DTD/svg10.dtd">
<svg version="1.0" xmlns="http://www.w3.org/2000/svg" xmlns:xlink="http://www.w3.org/1999/xlink" x="0px" y="0px" width="288px"
	 height="288px" viewBox="0 0 288 288" enable-background="new 0 0 288 288" xml:space="preserve">
<g id="Color">
	<path fill="#27AAE1" d="M174.7,55.9c0,0-12,23.4,3.1,41c0,0-12.3-6.6-11.3-22.4S174.7,55.9,174.7,55.9z"/>
	<path fill="#27AAE1" d="M155.5,123c0.3,0,0.5,0.1,0.8,0.1c0.8-1.8,1.6-3.4,2.7-4.5l-0.8-13c0,0-3.5,6.7-6.2,17.4
		C153.1,122.9,154.3,122.9,155.5,123z"/>
	<path fill="#27AAE1" d="M159,118.6c-0.6,0.2-6.1,4.7-7,4.4c4.7-31.3,0.3,0.2,0,0c-2.4,16.9-2.8,30.9-2.5,33.7l2.7,0.6
		C152.3,157.3,158.9,123.3,159,118.6z"/>
	<path fill="#27AAE1" d="M161,122.8l-0.1,6.2c1-0.7,2-1.1,3.1-1.3l-2-41l-3.9,1.6l0.8,34.1L161,122.8z"/>
	<path fill="#27AAE1" d="M165.2,151.4l-1.2-23.7c-0.8,0-3.1-6.4-4-6.5c-0.3-0.1-0.3,6.9-0.5,7.6l-0.1,0.8l0.2,21.6l-0.7,0.1v2.7
		l2.4,0.6l5.1,79.8L149,252l17.8,2.2l3.2-19.7l2.1-78.4l19.5-0.3L165.2,151.4z"/>
	<polygon fill="#27AAE1" points="185.4,156.1 192.5,234.5 210.5,249.6 191,252 189.4,234.5 179.9,156.1 	"/>
</g>
<g id="Lines">
	<ellipse fill="none" stroke="#000000" stroke-width="2" stroke-miterlimit="10" cx="179.9" cy="75.7" rx="13.4" ry="21.4"/>
	<path fill="none" stroke="#000000" stroke-width="2" stroke-miterlimit="10" d="M170,55.9c0,0,11.6,6,19.1,2.3"/>
	<path fill="none" stroke="#000000" stroke-width="2" stroke-miterlimit="10" d="M168,60.1c0,0,13.2,7.7,23.7,2.5"/>
	<path fill="none" stroke="#000000" stroke-width="2" stroke-miterlimit="10" d="M166.5,64.1c0,0,14.4,6.6,26.7,2.7"/>
	<path fill="none" stroke="#000000" stroke-width="2" stroke-miterlimit="10" d="M165.2,68.3c0,0,17.7,7.1,29.4,1.4"/>
	<path fill="none" stroke="#000000" stroke-width="2" stroke-miterlimit="10" d="M159,123c0-17,0-34.7,0-34.7s3.3-2.2,9-3.5"/>
	<path fill="none" stroke="#000000" stroke-width="2" stroke-miterlimit="10" d="M198.3,98c0,18.5,0,57.4,0,57.4s-26.2,2.4-39.4-1.2
		c0,0,0.1-29.4,0.1-31.2"/>
	<path fill="none" stroke="#000000" stroke-width="2" stroke-miterlimit="10" d="M192.7,84.2l3.2,1.4c4.4,1.9,7.5,5.7,8.5,10.4
		c3.1,14.8,5.9,40.1,4.8,60.3l-5.4,1.2c0,0,2.2-19.2-5.6-36"/>
	<polyline fill="none" stroke="#000000" stroke-width="2" stroke-miterlimit="10" points="203.9,157.3 201.5,165.5 203.9,168 
		203.9,178.9 212.2,173.6 209.3,156.1 	"/>
	<path fill="none" stroke="#000000" stroke-width="2" stroke-miterlimit="10" d="M200.3,126.2c-0.1-0.3,6.6-5.7,6.6-5.7"/>
	<path fill="none" stroke="#000000" stroke-width="2" stroke-miterlimit="10" d="M146.6,147.3c2.4-28.7,6.7-46,8.6-52.1
		c0,0,2-5.8,3.8-6.8"/>
	<path fill="none" stroke="#000000" stroke-width="2" stroke-miterlimit="10" d="M159,122.5c-2.4,7.5-6.8,34.8-6.8,34.8l-5.4-1.2
		c-0.2-2.9-0.2-5.9-0.2-8.8"/>
	<polyline fill="none" stroke="#000000" stroke-width="2" stroke-miterlimit="10" points="152.3,157.3 154.7,165.5 152.3,168 
		152.3,178.9 144,173.6 146.9,156.1 	"/>
	<polyline fill="none" stroke="#000000" stroke-width="2" stroke-miterlimit="10" points="161.4,154.7 166.5,234.5 173.4,234.5 
		178.6,156.1 	"/>
	<polyline fill="none" stroke="#000000" stroke-width="2" stroke-miterlimit="10" points="179.9,156.1 189.4,234.5 195.2,234.5 
		198.3,155.3 	"/>
	<polyline fill="none" stroke="#000000" stroke-width="2" stroke-miterlimit="10" points="166.5,234.5 149.6,248.6 170,252 
		173.4,234.5 	"/>
	<polyline fill="none" stroke="#000000" stroke-width="2" stroke-miterlimit="10" points="189.4,234.5 193.3,253.3 212.2,247.9 
		195.2,234.5 	"/>
</g>
<g id="Stroke">
	<path fill="none" stroke="#27AAE1" stroke-width="25" stroke-miterlimit="10" stroke-opacity="0" d="M133.3,50.3
		c19.9,1.3,39.8,4.4,59.1,9.2c-26,3.8,1.1,8.7-24.9,12.4c-2.2,0.3-4.9,1.2-5,3.4c28.2-0.2,3.4-1.5,31.4,1.7
		c-27.7,11.4-6.8,4.4-35.4,13.5c29.4,1,5.7,1.5,35,3.8c-25.7,2.1,1.7,5.4-24.1,7.5c-5.5,0.5-11.8,1.4-14.8,6
		c22.4,0-8.1-1.2,13.8,3.7c-24.2,2.8,4.6,6.6-19.6,9.4c-2.9,0.3-6.2,0.9-8,3.2c30,0.1,6.9-1,36.9-0.9c-29.6,6.1-6.1,13.3-35.2,21.5
		c10.5,1,21,1.9,31.6,2.9c5,0.5-43.1-0.2-38.1,0.1c11.5,0.7,23,0.5,34.4-0.6c10.1,2.3,20.2,4.6,30.4,7c-17.6,0.2-35.2,3.5-51.6,9.9
		c-1.6,0.6-4.2,0.6-4.2-1.1c-1.5,1.4-0.9,4,0.7,5.3c1.5,1.3,3.6,1.7,5.6,2c14.1,2.2,28.2,4.4,42.2,6.5c-16.2,2.2-32.4,4.5-48.6,7
		c-2.7,0.4-5.9,1.2-6.9,3.8c26.6,2.6,53.2,5.1,79.8,7.7c-23.7,5.1-47.4,10.1-71.1,15.2c-1.9,0.4-3.9,0.9-5.1,2.4
		c19.1,1.4,38.2,3.1,57.2,5c-7.4,4-15.5,6.2-23.6,8.4c-12,3.3-24,6.5-36.1,9.8c24.8,0.8,49.6,1.5,74.4,2.3
		c-27,2.5-54.4,1.4-80.9,7.2c-1.9,0.4-4,1.1-4.6,2.9c27.9,1.6,55.8,2,83.7,1.3"/>
</g>
</svg>
