<svg id="Layer_1" data-name="Layer 1" xmlns="http://www.w3.org/2000/svg" viewBox="0 0 215.33 404.14"><title>ScientistOne</title><ellipse cx="64.36" cy="42.89" rx="27.83" ry="41.5" fill="none" stroke="#231f20" stroke-miterlimit="10" stroke-width="2.79"/><path d="M248.47,132.19s22.86,2.95,26.36-11.39c0,0,3.78,14.2,26.39,11.49" transform="translate(-210.47 -102.61)" fill="none" stroke="#231f20" stroke-miterlimit="10" stroke-width="2.79"/><line x1="56.66" y1="82.77" x2="56.66" y2="95.83" fill="none" stroke="#231f20" stroke-miterlimit="10" stroke-width="2.79"/><line x1="72.09" y1="82.77" x2="73.87" y2="94.06" fill="none" stroke="#231f20" stroke-miterlimit="10" stroke-width="2.79"/><path d="M317.48,252.2l17.18,24.27,56-36.67L388,203.14,338,241.8l-31.33-45.13L239,199.14s-20.66,31.66-27,77.33c0,0,22.36,10,57.89,12.67l2.2-32-44.75-3" transform="translate(-210.47 -102.61)" fill="none" stroke="#231f20" stroke-miterlimit="10" stroke-width="2.79"/><line x1="47.49" y1="95.83" x2="66.52" y2="126.11" fill="none" stroke="#231f20" stroke-miterlimit="10" stroke-width="2.79"/><path d="M292.72,197.18l-23,45.73L269.29,256" transform="translate(-210.47 -102.61)" fill="none" stroke="#231f20" stroke-miterlimit="10" stroke-width="2.79"/><path d="M264.6,209c.73-1,11.09-10.37,11.09-10.37L286.78,209" transform="translate(-210.47 -102.61)" fill="none" stroke="#231f20" stroke-miterlimit="10" stroke-width="2.79"/><polyline points="60.94 99.91 62.52 108.02 60.51 116.53" fill="none" stroke="#231f20" stroke-miterlimit="10" stroke-width="2.79"/><path d="M280.19,202.84c-.07.63-1.64,8-1.64,8l3.13,9.13" transform="translate(-210.47 -102.61)" fill="none" stroke="#231f20" stroke-miterlimit="10" stroke-width="2.79"/><line x1="63.4" y1="108.22" x2="68.09" y2="108.22" fill="none" stroke="#231f20" stroke-miterlimit="10" stroke-width="2.79"/><line x1="29.2" y1="152.4" x2="32.52" y2="128.86" fill="none" stroke="#231f20" stroke-miterlimit="10" stroke-width="2.79"/><path d="M271.46,263.63l7.29.51,5-5.84,12.74.84v5l14.79,2.16-1,15.17H282.73l-5.27-4.5-7.17-.74" transform="translate(-210.47 -102.61)" fill="none" stroke="#231f20" stroke-miterlimit="10" stroke-width="2.74"/><path d="M276.33,264.43l1.33-23,40.3,2.41-3.27,56.41-39.61-2L276.31,277" transform="translate(-210.47 -102.61)" fill="none" stroke="#231f20" stroke-miterlimit="10" stroke-width="2.79"/><path d="M290,241.85v-.07a7.19,7.19,0,0,1,14.36.52" transform="translate(-210.47 -102.61)" fill="none" stroke="#231f20" stroke-miterlimit="10" stroke-width="2.79"/><polyline points="183.52 101.21 201.27 97.36 202.27 103.36 189.92 108.36 190.02 113.73 185.27 119.36" fill="none" stroke="#231f20" stroke-miterlimit="10" stroke-width="2.79"/><path d="M407.2,209.14v13.91a4.69,4.69,0,0,0,9.38,0V186.28H407.2v14.36" transform="translate(-210.47 -102.61)" fill="none" stroke="#231f20" stroke-miterlimit="10" stroke-width="2.79"/><path d="M390.66,226s8,1,8.67,1,7.87-2.17,7.87-2.17" transform="translate(-210.47 -102.61)" fill="none" stroke="#231f20" stroke-miterlimit="10" stroke-width="2.79"/><polyline points="177.52 100.52 185.19 94.57 196.73 93.19" fill="none" stroke="#231f20" stroke-miterlimit="10" stroke-width="2.79"/><polyline points="207.02 93.19 213.19 96.02 213.19 115.19 206.11 118.52" fill="none" stroke="#231f20" stroke-miterlimit="10" stroke-width="2.79"/><path d="M236.66,284.47l-7,88.67L280,393.47l37-20-4.94-74" transform="translate(-210.47 -102.61)" fill="none" stroke="#231f20" stroke-miterlimit="10" stroke-width="2.79"/><path d="M268.08,289.88l-3.48,97.37" transform="translate(-210.47 -102.61)" fill="none" stroke="#231f20" stroke-miterlimit="10" stroke-width="2.79"/><path d="M256.14,383.83c3.59,43.71,7.53,91.51,7.53,91.51H273l2.81-84.21" transform="translate(-210.47 -102.61)" fill="none" stroke="#231f20" stroke-miterlimit="10" stroke-width="2.79"/><path d="M284.05,391.3l2.29,84H296l5.3-93.7" transform="translate(-210.47 -102.61)" fill="none" stroke="#231f20" stroke-miterlimit="10" stroke-width="2.79"/><polyline points="53.2 372.73 22.53 390.06 50.53 401.06 62.55 372.73" fill="none" stroke="#231f20" stroke-miterlimit="10" stroke-width="2.79"/><polyline points="75.87 372.73 90.87 402.39 117.53 392.39 85.53 372.73" fill="none" stroke="#231f20" stroke-miterlimit="10" stroke-width="2.79"/><circle cx="198.57" cy="72.05" r="3.67" fill="none" stroke="#231f20" stroke-miterlimit="10" stroke-width="2.79"/><circle cx="208.9" cy="56.76" r="5.04" fill="none" stroke="#231f20" stroke-miterlimit="10" stroke-width="2.79"/><circle cx="196.8" cy="45.12" r="3.91" fill="none" stroke="#231f20" stroke-miterlimit="10" stroke-width="2.79"/></svg>