<svg id="Layer_1" data-name="Layer 1" xmlns="http://www.w3.org/2000/svg" viewBox="0 0 259.69 441.93"><title>ScientistTwo</title><ellipse cx="64.36" cy="80.69" rx="27.83" ry="41.5" fill="none" stroke="#231f20" stroke-miterlimit="10" stroke-width="2.79"/><path d="M248.47,132.19s22.86,2.95,26.36-11.39c0,0,3.78,14.2,26.39,11.49" transform="translate(-210.47 -64.82)" fill="none" stroke="#231f20" stroke-miterlimit="10" stroke-width="2.79"/><line x1="56.66" y1="120.57" x2="56.66" y2="133.63" fill="none" stroke="#231f20" stroke-miterlimit="10" stroke-width="2.79"/><line x1="72.09" y1="120.57" x2="73.87" y2="131.86" fill="none" stroke="#231f20" stroke-miterlimit="10" stroke-width="2.79"/><path d="M317.48,252.2l17.18,24.27,56-36.67L388,203.14,338,241.8l-31.33-45.13L239,199.14s-20.66,31.66-27,77.33c0,0,22.36,10,57.89,12.67l2.2-32-44.75-3" transform="translate(-210.47 -64.82)" fill="none" stroke="#231f20" stroke-miterlimit="10" stroke-width="2.79"/><line x1="47.49" y1="133.63" x2="66.52" y2="163.9" fill="none" stroke="#231f20" stroke-miterlimit="10" stroke-width="2.79"/><path d="M292.72,197.18l-23,45.73L269.29,256" transform="translate(-210.47 -64.82)" fill="none" stroke="#231f20" stroke-miterlimit="10" stroke-width="2.79"/><path d="M264.6,209c.73-1,11.09-10.37,11.09-10.37L286.78,209" transform="translate(-210.47 -64.82)" fill="none" stroke="#231f20" stroke-miterlimit="10" stroke-width="2.79"/><polyline points="60.94 137.71 62.52 145.82 60.51 154.33" fill="none" stroke="#231f20" stroke-miterlimit="10" stroke-width="2.79"/><path d="M280.19,202.84c-.07.63-1.64,8-1.64,8l3.13,9.13" transform="translate(-210.47 -64.82)" fill="none" stroke="#231f20" stroke-miterlimit="10" stroke-width="2.79"/><line x1="63.4" y1="146.02" x2="68.09" y2="146.02" fill="none" stroke="#231f20" stroke-miterlimit="10" stroke-width="2.79"/><line x1="29.2" y1="190.2" x2="32.52" y2="166.65" fill="none" stroke="#231f20" stroke-miterlimit="10" stroke-width="2.79"/><path d="M271.46,263.63l7.29.51,5-5.84,12.74.84v5l14.79,2.16-1,15.17H282.73l-5.27-4.5-7.17-.74" transform="translate(-210.47 -64.82)" fill="none" stroke="#231f20" stroke-miterlimit="10" stroke-width="2.74"/><path d="M276.33,264.43l1.33-23,40.3,2.41-3.27,56.41-39.61-2L276.31,277" transform="translate(-210.47 -64.82)" fill="none" stroke="#231f20" stroke-miterlimit="10" stroke-width="2.79"/><path d="M290,241.85v-.07a7.19,7.19,0,0,1,14.36.52" transform="translate(-210.47 -64.82)" fill="none" stroke="#231f20" stroke-miterlimit="10" stroke-width="2.79"/><polyline points="183.52 139 201.27 135.15 202.27 141.15 189.92 146.15 190.02 151.53 185.27 157.15" fill="none" stroke="#231f20" stroke-miterlimit="10" stroke-width="2.79"/><path d="M407.2,209.14v13.91a4.69,4.69,0,0,0,9.38,0V186.28H407.2v14.36" transform="translate(-210.47 -64.82)" fill="none" stroke="#231f20" stroke-miterlimit="10" stroke-width="2.79"/><path d="M390.66,226s8,1,8.67,1,7.87-2.17,7.87-2.17" transform="translate(-210.47 -64.82)" fill="none" stroke="#231f20" stroke-miterlimit="10" stroke-width="2.79"/><polyline points="177.52 138.32 185.19 132.37 196.73 130.99" fill="none" stroke="#231f20" stroke-miterlimit="10" stroke-width="2.79"/><polyline points="207.02 130.99 213.19 133.82 213.19 152.99 206.11 156.32" fill="none" stroke="#231f20" stroke-miterlimit="10" stroke-width="2.79"/><path d="M236.66,284.47l-7,88.67L280,393.47l37-20-4.94-74" transform="translate(-210.47 -64.82)" fill="none" stroke="#231f20" stroke-miterlimit="10" stroke-width="2.79"/><path d="M268.08,289.88l-3.48,97.37" transform="translate(-210.47 -64.82)" fill="none" stroke="#231f20" stroke-miterlimit="10" stroke-width="2.79"/><path d="M256.14,383.83c3.59,43.71,7.53,91.51,7.53,91.51H273l2.81-84.21" transform="translate(-210.47 -64.82)" fill="none" stroke="#231f20" stroke-miterlimit="10" stroke-width="2.79"/><path d="M284.05,391.3l2.29,84H296l5.3-93.7" transform="translate(-210.47 -64.82)" fill="none" stroke="#231f20" stroke-miterlimit="10" stroke-width="2.79"/><polyline points="53.2 410.52 22.53 427.86 50.53 438.86 62.55 410.52" fill="none" stroke="#231f20" stroke-miterlimit="10" stroke-width="2.79"/><polyline points="75.87 410.52 90.87 440.19 117.53 430.19 85.53 410.52" fill="none" stroke="#231f20" stroke-miterlimit="10" stroke-width="2.79"/><polyline points="196.27 121.05 188 112.04 189.81 104.29 189.81 96.29 196.27 102.54 196.27 108.79 200.96 106.79 201.81 101.54 196.7 97.79 192.44 88.79 194.31 77.04 200.96 67.4 199.56 80.28 205.65 89.29 209.19 96.54 208.06 102.04 214.31 100.29 212.73 106.54 214.31 111.29 205.65 121.05" fill="none" stroke="#231f20" stroke-miterlimit="10" stroke-width="2.79"/><path d="M392.74,151.6s-3.06-2.16-3.34-3.15-.24-8.76-.24-8.76l6.9-3.44a13,13,0,0,1-2.1-3.44,29.46,29.46,0,0,1-.13-4.75l4.9-1.52s-1-8.59-1.6-9.57,1.75-5.3,2.73-6.08,7.71-1.47,7.71-1.47-1.49-5.46-1.22-6.22,1.4-5.06,2.14-5.57,4.18-2.6,4.18-2.6l2.9,2.4,3.25-10.33,5.92-4.5,6.43,3.32" transform="translate(-210.47 -64.82)" fill="none" stroke="#231f20" stroke-miterlimit="10" stroke-width="2.79"/><path d="M416.11,126.31s-.41-4.88,0-5.92,5.42-7.28,5.42-7.28l7,1.75-2-5.67,3.5-7,8.34.67L435,96.36l3.84-5.84,6.41,2.84-1.5-6.5,1.5-4.25,6-1.25,1.5-8.25,7.75-5.5,9,4.5" transform="translate(-210.47 -64.82)" fill="none" stroke="#231f20" stroke-miterlimit="10" stroke-width="2.79"/><polyline points="214.31 86.79 212.73 81.37 215.06 73.21 219.4 71.54 224.9 72.54 221.56 64.21 223.23 57.87 228.73 52.29 233.4 52.29 239.06 54.71 239.06 47.37 240.73 41.54 245.06 40.21 251.4 41.04" fill="none" stroke="#231f20" stroke-miterlimit="10" stroke-width="2.79"/><line x1="46.03" y1="32.14" x2="36.54" y2="13.79" fill="none" stroke="#231f20" stroke-miterlimit="10" stroke-width="2.79"/><line x1="56.89" y1="27.94" x2="48.56" y2="0.4" fill="none" stroke="#231f20" stroke-miterlimit="10" stroke-width="2.79"/><line x1="70.56" y1="27.94" x2="78.89" y2="0.4" fill="none" stroke="#231f20" stroke-miterlimit="10" stroke-width="2.79"/><line x1="81.42" y1="32.14" x2="90.92" y2="13.79" fill="none" stroke="#231f20" stroke-miterlimit="10" stroke-width="2.79"/></svg>