<?xml version="1.0" encoding="utf-8"?>
<!-- Generator: Adobe Illustrator 19.2.1, SVG Export Plug-In . SVG Version: 6.00 Build 0)  -->
<svg version="1.0" id="Layer_1" xmlns="http://www.w3.org/2000/svg" xmlns:xlink="http://www.w3.org/1999/xlink" x="0px" y="0px"
	 width="288px" height="288px" viewBox="0 0 288 288" enable-background="new 0 0 288 288" xml:space="preserve">
<ellipse transform="matrix(0.9663 -0.2575 0.2575 0.9663 -17.7034 44.7012)" fill="none" stroke="#000000" stroke-width="2" stroke-miterlimit="10" cx="161.8" cy="89.9" rx="11.6" ry="16.3"/>
<path fill="none" stroke="#000000" stroke-width="2" stroke-miterlimit="10" d="M185.6,101.9l9.9-4c0,0-14.3-10.8-19.2-19.8
	c-4.8-9.1-13.5-16.7-23.2-12c-9.7,4.7-10.5,21.9-5.2,37.6c0,0,3.8,11.2,3,14.7"/>
<polyline fill="none" stroke="#000000" stroke-width="2" stroke-miterlimit="10" points="171.1,101.9 173.2,107 167.9,109.3 
	165.2,105.8 "/>
<polyline fill="none" stroke="#000000" stroke-width="2" stroke-miterlimit="10" points="165.8,107.5 160.9,112.9 165.8,112.9 
	169.7,118.9 171.7,113.9 179.4,117.4 177.8,111.3 183.6,107 177.8,105.1 179.4,101.9 171.9,104 "/>
<polyline fill="none" stroke="#000000" stroke-width="2" stroke-miterlimit="10" points="179.2,102.4 186.8,101.9 203.2,117.2 
	198,117.2 199.2,124.2 193.1,121.8 192.6,128.6 184.6,120.4 "/>
<line fill="none" stroke="#000000" stroke-width="2" stroke-miterlimit="10" x1="163.2" y1="110.4" x2="154.8" y2="116.5"/>
<path fill="none" stroke="#000000" stroke-width="2" stroke-miterlimit="10" d="M199.7,117.2l6.3,10.8c0,0-12.5,21.9-15.5,27.1"/>
<path fill="none" stroke="#000000" stroke-width="2" stroke-miterlimit="10" d="M186.4,150.9c0.7-1.5,8.8-19.4,8.8-19.4l-2.6-4.8"/>
<line fill="none" stroke="#000000" stroke-width="2" stroke-miterlimit="10" x1="206.1" y1="127.3" x2="195.1" y2="131.9"/>
<polygon fill="none" stroke="#000000" stroke-width="2" stroke-miterlimit="10" points="177.9,167.1 186.6,169.9 188.4,159.2 
	183.2,156.8 "/>
<path fill="none" stroke="#000000" stroke-width="2" stroke-miterlimit="10" d="M203.2,132.6l-2,34.8l23.9,4l-10.1,5.5l7.2,1.5
	l-7.2,4.2l7.4,2.9l-7.4,3.1l7.9,9c0,0-17.2,0-33.5,0"/>
<polyline fill="none" stroke="#000000" stroke-width="2" stroke-miterlimit="10" points="220,178.1 235.3,176.9 235.3,180 
	220.1,185.6 "/>
<path fill="none" stroke="#000000" stroke-width="2" stroke-miterlimit="10" d="M234.1,180.4c-0.3,0.1-1.8,18.6-1.8,18.6h8.2
	l-5.2-19"/>
<ellipse transform="matrix(0.9187 -0.395 0.395 0.9187 -38.7373 73.6507)" fill="none" stroke="#000000" stroke-width="2" stroke-miterlimit="10" cx="159.5" cy="130.9" rx="10" ry="15.1"/>
<polyline fill="none" stroke="#000000" stroke-width="2" stroke-miterlimit="10" points="168.6,142.2 169.8,147.5 163.7,149.2 
	162.7,145.7 "/>
<line fill="none" stroke="#000000" stroke-width="2" stroke-miterlimit="10" x1="170.1" y1="146.3" x2="177.3" y2="146.7"/>
<path fill="none" stroke="#000000" stroke-width="2" stroke-miterlimit="10" d="M161.5,145.3l-2,3.9h4.8l-0.5,6.1l5.3-4.6l5,5.4
	l0.9-6.8l1.8-2.7c0,0,4.8,0.7,7.1,1.1c2.3,0.4,8.8,12.1,8.8,12.1l-4.5,0.7"/>
<path fill="none" stroke="#000000" stroke-width="2" stroke-miterlimit="10" d="M155.1,146.5l-7.8,3.6l2.4,8.5c0,0,5.8,2.9,6,2.9
	s3.9-2.7,3.9-2.7L155.1,146.5z"/>
<path fill="none" stroke="#000000" stroke-width="2" stroke-miterlimit="10" d="M149.2,149.2c0,0-3.2-13-0.6-21.8"/>
<line fill="none" stroke="#000000" stroke-width="2" stroke-miterlimit="10" x1="152.9" y1="147.5" x2="153.2" y2="139.7"/>
<path fill="none" stroke="#000000" stroke-width="2" stroke-miterlimit="10" d="M151.5,159.6c0,0-13.3,18.6-25.7,21.9l8.8,1l0.5,3.1
	l6.4-1.5l-0.4,5.8l8.2-3.1l2.3,7.4l5.9-3.5c0,0,4.2,4.4,5.3,3.5c1.1-0.9,18.8-25.9,18.8-25.9"/>
<polyline fill="none" stroke="#000000" stroke-width="2" stroke-miterlimit="10" points="192.8,159.8 200.6,178.6 183.6,205.8 
	168.5,210.6 165.5,207.9 173.7,199.8 180.8,199.9 189.5,179 186.6,169.9 "/>
<line fill="none" stroke="#000000" stroke-width="2" stroke-miterlimit="10" x1="180.8" y1="199.9" x2="183" y2="205.1"/>
<line fill="none" stroke="#000000" stroke-width="2" stroke-miterlimit="10" x1="189.3" y1="178.4" x2="200.6" y2="178.6"/>
<polyline fill="none" stroke="#000000" stroke-width="2" stroke-miterlimit="10" points="161.2,193.9 67.8,224.8 69.1,221.4 
	65.1,220.6 140,185.5 "/>
<path fill="none" stroke="#000000" stroke-width="2" stroke-miterlimit="10" d="M63.9,214.6c0.6-0.3,64.1-32.8,64.1-32.8"/>
<polyline fill="none" stroke="#000000" stroke-width="2" stroke-miterlimit="10" points="65.1,219.8 61.6,205.1 52.5,202.5 
	61.4,225.8 66.2,224.8 65.1,220.6 "/>
<polyline fill="none" stroke="#000000" stroke-width="2" stroke-miterlimit="10" points="52.5,203.2 46.6,202.5 56.5,224.8 
	61,224.8 "/>
<path fill="none" stroke="#000000" stroke-width="2" stroke-miterlimit="10" d="M182.2,197.6c-11.7,0-21.3,0-21.3,0l1.8-3.5"/>
</svg>
