<?xml version="1.0" encoding="utf-8"?>
<!-- Generator: Adobe Illustrator 22.1.0, SVG Export Plug-In . SVG Version: 6.00 Build 0)  -->
<!DOCTYPE svg PUBLIC "-//W3C//DTD SVG 1.0//EN" "http://www.w3.org/TR/2001/REC-SVG-20010904/DTD/svg10.dtd">
<svg version="1.0" id="Layer_1" xmlns="http://www.w3.org/2000/svg" xmlns:xlink="http://www.w3.org/1999/xlink" x="0px" y="0px"
	 width="288px" height="288px" viewBox="0 0 288 288" enable-background="new 0 0 288 288" xml:space="preserve">
<g id="Layer_1_1_">
	
		<ellipse transform="matrix(0.9187 -0.395 0.395 0.9187 -39.441 64.9777)" fill="none" stroke="#000000" stroke-width="2" stroke-miterlimit="10" cx="138.1" cy="128.3" rx="10" ry="15.1"/>
	<polyline fill="none" stroke="#000000" stroke-width="2" stroke-miterlimit="10" points="147.2,139.6 148.3,144.9 142.2,146.6 
		141.2,143.1 	"/>
	<line fill="none" stroke="#000000" stroke-width="2" stroke-miterlimit="10" x1="159.3" y1="197.3" x2="161.6" y2="202.5"/>
	<line fill="none" stroke="#000000" stroke-width="2" stroke-miterlimit="10" x1="167.9" y1="175.8" x2="179.1" y2="176"/>
	<polyline fill="none" stroke="#000000" stroke-width="2" stroke-miterlimit="10" points="126.9,179.3 63.7,211.5 66.1,216 
		146.3,184.8 	"/>
	<path fill="none" stroke="#000000" stroke-width="2" stroke-miterlimit="10" d="M62.5,206.9c0.5-0.3,55.2-31.3,55.2-31.3"/>
	<path fill="none" stroke="#000000" stroke-width="2" stroke-miterlimit="10" d="M135.1,148.1c1-0.1,24.2-4.2,24.2-4.2l-13.1,41.2
		c0,0-30.3-8.4-29.3-9.1c1-0.7,13.7-18.8,13.7-18.8L135.1,148.1z"/>
	<polygon fill="none" stroke="#000000" stroke-width="2" stroke-miterlimit="10" points="63.5,211.9 60.1,198.8 52,196.7 
		60.4,217.4 64.7,216.4 64,213.6 	"/>
	<polyline fill="none" stroke="#000000" stroke-width="2" stroke-miterlimit="10" points="52.1,197.3 46.9,196.8 56.1,216.6 
		60.1,216.5 	"/>
	<polyline fill="none" stroke="#000000" stroke-width="2" stroke-miterlimit="10" points="155.6,156.7 159.1,159.3 165.1,167.3 
		168,176.4 159.3,197.3 152.2,197.2 144,205.3 147,208 162.1,203.2 179.1,176 171.3,157.2 159.6,143.6 	"/>
	<polyline fill="none" stroke="#000000" stroke-width="2" stroke-miterlimit="10" points="135.1,148.1 124.3,158.3 120.9,170.8 	"/>
</g>
</svg>
