<svg id="Layer_1" data-name="Layer 1" xmlns="http://www.w3.org/2000/svg" viewBox="0 0 143.04 405.43"><title>SuitMan</title><ellipse cx="282.81" cy="131.41" rx="28.67" ry="44.67" transform="translate(-225.19 -65.28) rotate(-4.02)" fill="none" stroke="#231f20" stroke-miterlimit="10" stroke-width="2.79"/><path d="M266.34,93.28s7.53,1.34,18.88-6" transform="translate(-216.68 -85.42)" fill="none" stroke="#231f20" stroke-miterlimit="10" stroke-width="2.79"/><path d="M292.27,90.3S276,101.22,261.9,99.78" transform="translate(-216.68 -85.42)" fill="none" stroke="#231f20" stroke-miterlimit="10" stroke-width="2.79"/><path d="M258,106.53s22.26,1.25,39.89-11.56" transform="translate(-216.68 -85.42)" fill="none" stroke="#231f20" stroke-miterlimit="10" stroke-width="2.79"/><path d="M255.9,113s28,2.71,45.9-13.16" transform="translate(-216.68 -85.42)" fill="none" stroke="#231f20" stroke-miterlimit="10" stroke-width="2.79"/><line x1="61.75" y1="89.56" x2="60.88" y2="98.22" fill="none" stroke="#231f20" stroke-miterlimit="10" stroke-width="2.79"/><line x1="76.57" y1="88.52" x2="78.68" y2="96.13" fill="none" stroke="#231f20" stroke-miterlimit="10" stroke-width="2.79"/><path d="M260.45,255.42,250,188.25l64.33-9.5,1.62,92.75" transform="translate(-216.68 -85.42)" fill="none" stroke="#231f20" stroke-miterlimit="10" stroke-width="2.79"/><polyline points="44.78 101.13 54.31 114.58 49.95 120.33 73.2 140.06 93.11 116.56 88.31 112.33 97.64 94.7" fill="none" stroke="#231f20" stroke-miterlimit="10" stroke-width="2.79"/><line x1="58.56" y1="99.84" x2="74.81" y2="134.58" fill="none" stroke="#231f20" stroke-miterlimit="10" stroke-width="2.79"/><polyline points="85.12 96.13 72.31 143.33 75.66 183.99" fill="none" stroke="#231f20" stroke-miterlimit="10" stroke-width="2.79"/><polyline points="63.95 111.37 71.21 98.22 81.76 108.5" fill="none" stroke="#231f20" stroke-miterlimit="10" stroke-width="2.79"/><polyline points="67.69 104.79 70.33 110.46 68.41 120.9" fill="none" stroke="#231f20" stroke-miterlimit="10" stroke-width="2.79"/><polyline points="75.94 102.83 75.44 109.33 78.91 119.01" fill="none" stroke="#231f20" stroke-miterlimit="10" stroke-width="2.79"/><line x1="70.33" y1="110.46" x2="75.44" y2="109.33" fill="none" stroke="#231f20" stroke-miterlimit="10" stroke-width="2.79"/><polyline points="33.79 103.59 1.87 165.03 66.65 199.95 70.33 187.44 24.62 157.02 37.58 133.43" fill="none" stroke="#231f20" stroke-miterlimit="10" stroke-width="2.79"/><polyline points="70.33 187.44 80.62 180.77 90.62 180.77 90.62 185.27 102.87 185.77 102.87 199.52 84.74 205.4 67.37 200.17" fill="none" stroke="#231f20" stroke-miterlimit="10" stroke-width="2.79"/><line x1="24.62" y1="157.02" x2="1.87" y2="165.03" fill="none" stroke="#231f20" stroke-miterlimit="10" stroke-width="2.79"/><line x1="61.75" y1="181.73" x2="58.56" y2="195.59" fill="none" stroke="#231f20" stroke-miterlimit="10" stroke-width="2.79"/><polyline points="97.64 93.33 123.31 142.25 127.31 212.92 116.45 214.51 106.33 148.58 98.28 129.92" fill="none" stroke="#231f20" stroke-miterlimit="10" stroke-width="2.79"/><polyline points="116.45 214.51 115.64 228.75 120.31 229.75 120.31 250.25 131.98 242.92 127.31 212.92" fill="none" stroke="#231f20" stroke-miterlimit="10" stroke-width="2.79"/><line x1="106.33" y1="148.58" x2="123.31" y2="142.25" fill="none" stroke="#231f20" stroke-miterlimit="10" stroke-width="2.79"/><line x1="115.05" y1="205.4" x2="126.79" y2="203.74" fill="none" stroke="#231f20" stroke-miterlimit="10" stroke-width="2.79"/><path d="M316.2,286.49l.12,6.79-49.69,1.8-3.12-20" transform="translate(-216.68 -85.42)" fill="none" stroke="#231f20" stroke-miterlimit="10" stroke-width="2.79"/><polyline points="99.03 209.15 106.33 375.09 97.05 375.09 76.52 209.15 66.08 375.09 55.4 375.09 49.95 210.5" fill="none" stroke="#231f20" stroke-miterlimit="10" stroke-width="2.79"/><polyline points="66.56 374.63 50.43 403.2 21.12 388.7 56.38 374.83" fill="none" stroke="#231f20" stroke-miterlimit="10" stroke-width="2.79"/><polyline points="106.07 375.09 139.92 389.59 115.38 403.57 96.78 375.09" fill="none" stroke="#231f20" stroke-miterlimit="10" stroke-width="2.79"/></svg>