<?xml version="1.0" encoding="utf-8"?>
<!-- Generator: Adobe Illustrator 22.1.0, SVG Export Plug-In . SVG Version: 6.00 Build 0)  -->
<!DOCTYPE svg PUBLIC "-//W3C//DTD SVG 1.0//EN" "http://www.w3.org/TR/2001/REC-SVG-20010904/DTD/svg10.dtd">
<svg version="1.0" xmlns="http://www.w3.org/2000/svg" xmlns:xlink="http://www.w3.org/1999/xlink" x="0px" y="0px" width="1920px"
	 height="1080px" viewBox="0 0 1920 1080" enable-background="new 0 0 1920 1080" xml:space="preserve">
<g id="Stroke">
	
		<path opacity="0" fill="none" stroke="#000000" stroke-width="46" stroke-linecap="round" stroke-linejoin="round" stroke-miterlimit="10" d="
		M1116,411.8c7,56.2,8.3,113,3.8,169.5c-14.8-25.1-13.7-56.1-16.6-85.1c-3.3-33.2-12.3-65.9-26.5-96.1c-6.6,32.4-2.1,65.8-0.2,98.8
		c1.3,23.6,1.3,47.3-0.2,70.9c-0.2,3.4-1.5,7.8-4.9,7.7c-8-17.4-9.5-37-11.3-56.1c-3.6-39.4-19.3-79.5-38.2-114.3
		c-16.6,56,11.7,116.8,1.3,174.3c-3.5-5.4-5-11.8-6.5-18c-12.2-51.1-25.9-101.8-41.2-152.1c-6.8,5.9-8,16-8.1,25
		c-0.4,50.2,19.6,100.3,10.3,149.7c-19.7-23.7-22.7-56.4-28.6-86.6c-5.2-26.8-13.4-53-24.3-78c-8,6.1-11.8,16.4-12.4,26.4
		s1.6,19.9,3.6,29.8c3.6,18.1,6.4,36.4,8.4,54.8c1.2,10.7,8.1,36.6,3.7,46.1c-6.9,14.9-19.8,6.7-24-4.7c-3.7-10.1-3.5-23.5-4.7-34.1
		c-3.9-34.6-7.4-69.2-11.2-103.8c-5.2,0.3-9.5,4.8-11,9.8s-1.1,10.4-0.6,15.6c4.2,43.3,8.3,86.6,12.5,129.9"/>
</g>
<g id="Color">
	<path fill="#76FF00" d="M1116.9,484.7c-2.1-9.6-4.7-19.2-7.7-28.6c-2.1-6.6-4.7-12.9-9.6-17.9c-5.4-5.7-12.5-8.4-19.7-11
		c-20.2-7.3-41.9-14-63.6-11.7c-11.2,1.2-21.5,4.2-32.3,7c-2,0.5-3.9,1-5.9,1.4c-0.6,0.1-1.3,0.2-1.9,0.4l0,0
		c-1.6,0-3.3,0.1-4.9,0.1c-1.1-0.4-4.1-1-4.6-1.1c-6.3-1.8-13-3.6-19.7-3.2c-8.3,0.5-15.4,3.3-22.8,6.9c-11,5.3-22,10.8-33,16.2
		c-10.2,5-14.6,19.1-10.7,29.6c-9.9,9.9-14,25.7-13,39.7c1.7,22.6,10.3,44.6,30.4,56.9c4.3,2.6,8.7,4.6,13.4,6
		c6,6.1,14.7,8.6,23.9,6.7c8.7-1.8,17.4-3.7,26.1-5.5c4.4-0.9,8.1-3.3,11-6.4c1.5,0,3.2,0.1,3.6,0.5c-0.9-0.1-1.8-0.2-2.7-0.3
		c0.9,0.1,1.8,0.3,2.8,0.5c3.4,0.6,6.7,1.3,10.1,1.8c10.4,1.5,19.3,1.5,29.6-0.3c6.7-1.2,13.2-3.3,19.9-4.8c2.6-0.6,6.3-1.9,9-1.7
		c-3.2,0.4-3.8,0.5-2,0.3c0.9-0.1,1.8-0.2,2.7-0.3c1.8-0.2,3.7-0.3,5.5-0.4c6.4-0.3,12.8-0.2,19.2,0.4c1,0.1,2,0.1,3.1,0.3
		c0.8,0.2,1.7,0.4,2.2,0.5c3.6,0.7,7.2,1.5,10.7,2.4c13.2,3.5,26-4.4,30.1-17.1C1123.3,529.8,1121.6,506.7,1116.9,484.7z"/>
</g>
</svg>
