<?xml version="1.0" encoding="utf-8"?>
<!-- Generator: Adobe Illustrator 19.2.1, SVG Export Plug-In . SVG Version: 6.00 Build 0)  -->
<svg version="1.0" xmlns="http://www.w3.org/2000/svg" xmlns:xlink="http://www.w3.org/1999/xlink" x="0px" y="0px" width="288px"
	 height="288px" viewBox="0 0 288 288" enable-background="new 0 0 288 288" xml:space="preserve">
<g id="Layer_2">
	<path fill="#27AAE1" d="M72.3,218.5H222v-19c0,0-4.4-17.4-4.6-18.2c-0.2-0.8-5.9-21.3-5.9-21.3l-17.7-17.3L177.5,123h-62l-6.8,5.9
		l-12.2,10.6l-24.2,45V218.5z"/>
</g>
<g id="Layer_1">
	<path fill="none" stroke="#000000" stroke-width="2" stroke-miterlimit="10" d="M260.5,218.5v-34l-7-20v-21l-25-32.5l-15-23.5
		c0,0-21-11.5-22.5-12s-28-6-31-5.5s-35.5,9.5-38.5,11S90,97.5,90,97.5L84.5,110l-31,20c0,0-12,36-14,38.5s-12,21-12,21l4,29"/>
	<path fill="none" stroke="#000000" stroke-width="2" stroke-miterlimit="10" d="M72.3,218.5v-34L83.1,164l13.4-24.5l19-16.5H149
		h28.5l15.5,19c0,0,18,16.5,18.5,18s10.5,38,10.5,38v20.5"/>
	<line fill="none" stroke="#000000" stroke-width="2" stroke-miterlimit="10" x1="231.8" y1="211" x2="237.8" y2="206.2"/>
	<line fill="none" stroke="#000000" stroke-width="2" stroke-miterlimit="10" x1="236.2" y1="211" x2="240.5" y2="208.6"/>
	<line fill="none" stroke="#000000" stroke-width="2" stroke-miterlimit="10" x1="231.8" y1="175" x2="234.8" y2="179.2"/>
	<path fill="none" stroke="#000000" stroke-width="2" stroke-miterlimit="10" d="M233.2,170.8c1.2,1,5.1,8.5,5.1,8.5"/>
	<path fill="none" stroke="#000000" stroke-width="2" stroke-miterlimit="10" d="M189.2,95.8c0,0-3.5,1.5-1.2,5.8"/>
	<line fill="none" stroke="#000000" stroke-width="2" stroke-miterlimit="10" x1="200.8" y1="118.5" x2="205.5" y2="114.5"/>
	<line fill="none" stroke="#000000" stroke-width="2" stroke-miterlimit="10" x1="200.8" y1="121.5" x2="206.5" y2="121.5"/>
	<path fill="none" stroke="#000000" stroke-width="2" stroke-miterlimit="10" d="M90.2,120.4c0,0-1.2,1.5-1.2,5.2"/>
	<path fill="none" stroke="#000000" stroke-width="2" stroke-miterlimit="10" d="M93.8,119.8c0,0-1.2,1.5-1.2,5.2"/>
	<line fill="none" stroke="#000000" stroke-width="2" stroke-miterlimit="10" x1="125.6" y1="94" x2="129.6" y2="92.9"/>
	<line fill="none" stroke="#000000" stroke-width="2" stroke-miterlimit="10" x1="127.6" y1="99.1" x2="132.2" y2="99.8"/>
	<line fill="none" stroke="#000000" stroke-width="2" stroke-miterlimit="10" x1="48.6" y1="185.4" x2="53.9" y2="180"/>
	<line fill="none" stroke="#000000" stroke-width="2" stroke-miterlimit="10" x1="49.6" y1="190" x2="53.9" y2="185.4"/>
</g>
<g id="Layer_3">
	<path opacity="0" fill="none" stroke="#27AAE1" stroke-width="27" stroke-miterlimit="10" d="M109.8,122.6
		c27.6,1,55.1,1.3,82.7,1.1c-30.8,1.5-61.7,3-92.5,4.5c28.8-0.4,57.6-0.8,86.3-1.2c-31.5-0.4-63,0.2-94.4,1.9
		c7.2,3.5,15.5,3.5,23.4,3.4c25.7-0.3,51.5-0.5,77.2-0.8c-35.3,1.6-70.5,3.3-105.8,4.9c46.4,2.3,92.9,3.2,139.4,2.5
		c-49.4,0.3-98.9,0.6-148.2,3.1c50.9,6.4,102.3,5.8,153.6,5.3c-56.1,6.1-112.4,12.1-168.8,10.5c49.6,0.7,99.1,7.8,148.6,4.4
		c-47.2-0.7-94.1,12.1-141.1,7.8c49.2,1.9,98.5,3.2,147.7,3.8c-45.7,3.4-91.6,0-137.3,1.9c-4,0.2-8.1,0.4-11.7,2.3
		c10.7,1.9,21.7,2.1,32.6,2.3c41.5,0.5,83-0.3,124.4-1c-53.4,3.1-106.9,0.4-160.4,2c-2.2,0.1-4.4,0.1-6.4,0.9
		c4.9,3.8,11.3,4.9,17.5,5.7c49.4,6.1,99.7-1.4,149.3,3.1c-45.9-1.9-91.9-1.4-137.8,1.4c-7.8,0.5-15.8,1.1-23,4.1
		c55.6-0.1,111.1-0.1,166.7-0.2c-54.5,1.7-109,3.5-163.4,7.2c47.9,4.4,96,8.2,144.1,7.3c5.6-0.1,11.7-0.5,15.7-4.5
		c-21.5,3.9-43.4,4.7-65.2,5.4c-37.1,1.2-74.1,2.4-111.2,3.1c62.8,5.9,126.1,6.7,189.1,2.4"/>
</g>
</svg>
