<?xml version="1.0" encoding="utf-8"?>
<!-- Generator: Adobe Illustrator 20.1.0, SVG Export Plug-In . SVG Version: 6.00 Build 0)  -->
<!DOCTYPE svg PUBLIC "-//W3C//DTD SVG 1.0//EN" "http://www.w3.org/TR/2001/REC-SVG-20010904/DTD/svg10.dtd">
<svg version="1.0" id="Layer_1" xmlns="http://www.w3.org/2000/svg" xmlns:xlink="http://www.w3.org/1999/xlink" x="0px" y="0px"
	 width="288px" height="288px" viewBox="0 0 288 288" enable-background="new 0 0 288 288" xml:space="preserve">
<path fill="#FFFFFF" stroke="#000000" stroke-width="2" stroke-miterlimit="10" d="M200.4,126l-21.9-23.8l-24.8-2.5h-24.4l-19.1,8.7
	l-15,13.5c0,0-21,14.2-21.5,14.2s-5.8,20-5.8,20l-4.5,22.2c0,0,4.5,26.8,4.8,28s5.2,8.5,8,9.5s13.4,4.2,17.2,5s31.9-1.2,31.9-1.2
	l14.9,4.8l23.8,2l18.8-1.8l11.5-1.8l26.5-14.2c0,0,1.2-10.2,1.2-10.5s3-13.8,3-13.8l0.2-23.2L217,144c0,0-8.5-9.2-8.5-10
	S200.4,126,200.4,126z"/>
<line fill="none" stroke="#000000" stroke-width="2" stroke-miterlimit="10" x1="130.3" y1="167.3" x2="133.6" y2="171"/>
<line fill="none" stroke="#000000" stroke-width="2" stroke-miterlimit="10" x1="80" y1="201.8" x2="85.5" y2="205.5"/>
<line fill="none" stroke="#000000" stroke-width="2" stroke-miterlimit="10" x1="77.8" y1="205.5" x2="82.8" y2="209.5"/>
<line fill="none" stroke="#000000" stroke-width="2" stroke-miterlimit="10" x1="155.5" y1="117.1" x2="161.2" y2="119"/>
<line fill="none" stroke="#000000" stroke-width="2" stroke-miterlimit="10" x1="155.5" y1="120.2" x2="161.2" y2="124"/>
<line fill="none" stroke="#000000" stroke-width="2" stroke-miterlimit="10" x1="199" y1="190.5" x2="196.2" y2="195.8"/>
<line fill="none" stroke="#000000" stroke-width="2" stroke-miterlimit="10" x1="205.2" y1="190.5" x2="200.4" y2="198.3"/>
<line fill="none" stroke="#000000" stroke-width="2" stroke-miterlimit="10" x1="147.5" y1="213.5" x2="153.2" y2="213.5"/>
<line fill="none" stroke="#000000" stroke-width="2" stroke-miterlimit="10" x1="147.5" y1="217.8" x2="153.2" y2="218.5"/>
<line fill="none" stroke="#000000" stroke-width="2" stroke-miterlimit="10" x1="92.2" y1="158.5" x2="93.4" y2="153.2"/>
<path fill="none" stroke="#000000" stroke-width="2" stroke-miterlimit="10" d="M97.5,151.6c-0.5,0.6-2,8.9-2,8.9"/>
<line fill="none" stroke="#000000" stroke-width="2" stroke-miterlimit="10" x1="133.3" y1="165.3" x2="136.6" y2="169"/>
</svg>
