<?xml version="1.0" encoding="utf-8"?>
<!-- Generator: Adobe Illustrator 19.2.1, SVG Export Plug-In . SVG Version: 6.00 Build 0)  -->
<svg version="1.0" id="Layer_1" xmlns="http://www.w3.org/2000/svg" xmlns:xlink="http://www.w3.org/1999/xlink" x="0px" y="0px"
	 width="288px" height="288px" viewBox="0 0 288 288" enable-background="new 0 0 288 288" xml:space="preserve">
<path fill="none" stroke="#000000" stroke-width="2" stroke-miterlimit="10" d="M260.2,210.5v-34l-7-20v-21l-25-32.5l-15-23.5
	c0,0-21-11.5-22.5-12s-28-6-31-5.5s-35.5,9.5-38.5,11S89.7,89.5,89.7,89.5L84.2,102l-31,20c0,0-12,36-14,38.5s-12,21-12,21l4,29"/>
<line fill="none" stroke="#000000" stroke-width="2" stroke-miterlimit="10" x1="231.4" y1="203" x2="237.4" y2="198.3"/>
<line fill="none" stroke="#000000" stroke-width="2" stroke-miterlimit="10" x1="235.9" y1="203" x2="240.2" y2="200.6"/>
<line fill="none" stroke="#000000" stroke-width="2" stroke-miterlimit="10" x1="231.4" y1="167" x2="234.4" y2="171.3"/>
<path fill="none" stroke="#000000" stroke-width="2" stroke-miterlimit="10" d="M232.9,162.8c1.2,1,5.1,8.5,5.1,8.5"/>
<path fill="none" stroke="#000000" stroke-width="2" stroke-miterlimit="10" d="M188.9,87.8c0,0-3.5,1.5-1.2,5.8"/>
<line fill="none" stroke="#000000" stroke-width="2" stroke-miterlimit="10" x1="200.4" y1="110.5" x2="205.2" y2="106.5"/>
<line fill="none" stroke="#000000" stroke-width="2" stroke-miterlimit="10" x1="200.4" y1="113.5" x2="206.2" y2="113.5"/>
<path fill="none" stroke="#000000" stroke-width="2" stroke-miterlimit="10" d="M89.9,112.4c0,0-1.2,1.5-1.2,5.2"/>
<path fill="none" stroke="#000000" stroke-width="2" stroke-miterlimit="10" d="M93.4,111.8c0,0-1.2,1.5-1.2,5.2"/>
<line fill="none" stroke="#000000" stroke-width="2" stroke-miterlimit="10" x1="125.3" y1="86" x2="129.3" y2="84.9"/>
<line fill="none" stroke="#000000" stroke-width="2" stroke-miterlimit="10" x1="127.3" y1="91.1" x2="131.9" y2="91.8"/>
<line fill="none" stroke="#000000" stroke-width="2" stroke-miterlimit="10" x1="48.3" y1="177.4" x2="53.6" y2="172"/>
<line fill="none" stroke="#000000" stroke-width="2" stroke-miterlimit="10" x1="49.3" y1="182" x2="53.6" y2="177.4"/>
<path fill="none" stroke="#000000" stroke-width="2" stroke-miterlimit="10" d="M200.4,126l-21.9-23.8l-24.8-2.5h-24.4l-19.1,8.7
	l-15,13.5c0,0-21,14.2-21.5,14.2c-0.5,0-5.8,20-5.8,20l-4.5,22.2c0,0,4.5,26.8,4.8,28s5.2,8.5,8,9.5s13.4,4.2,17.2,5
	c3.8,0.8,31.9-1.2,31.9-1.2l14.9,4.8l23.8,2l18.8-1.8l11.5-1.8l26.5-14.2c0,0,1.2-10.2,1.2-10.5s3-13.8,3-13.8l0.2-23.2L217,144
	c0,0-8.5-9.2-8.5-10S200.4,126,200.4,126z"/>
<line fill="none" stroke="#000000" stroke-width="2" stroke-miterlimit="10" x1="130.3" y1="167.3" x2="133.6" y2="171"/>
<line fill="none" stroke="#000000" stroke-width="2" stroke-miterlimit="10" x1="80" y1="201.8" x2="85.5" y2="205.5"/>
<line fill="none" stroke="#000000" stroke-width="2" stroke-miterlimit="10" x1="77.8" y1="205.5" x2="82.8" y2="209.5"/>
<line fill="none" stroke="#000000" stroke-width="2" stroke-miterlimit="10" x1="155.5" y1="117.1" x2="161.2" y2="119"/>
<line fill="none" stroke="#000000" stroke-width="2" stroke-miterlimit="10" x1="155.5" y1="120.2" x2="161.2" y2="124"/>
<line fill="none" stroke="#000000" stroke-width="2" stroke-miterlimit="10" x1="199" y1="190.5" x2="196.2" y2="195.8"/>
<line fill="none" stroke="#000000" stroke-width="2" stroke-miterlimit="10" x1="205.2" y1="190.5" x2="200.4" y2="198.3"/>
<line fill="none" stroke="#000000" stroke-width="2" stroke-miterlimit="10" x1="147.5" y1="213.5" x2="153.2" y2="213.5"/>
<line fill="none" stroke="#000000" stroke-width="2" stroke-miterlimit="10" x1="147.5" y1="217.8" x2="153.2" y2="218.5"/>
<line fill="none" stroke="#000000" stroke-width="2" stroke-miterlimit="10" x1="92.2" y1="158.5" x2="93.4" y2="153.2"/>
<path fill="none" stroke="#000000" stroke-width="2" stroke-miterlimit="10" d="M97.5,151.6c-0.5,0.6-2,8.9-2,8.9"/>
<line fill="none" stroke="#000000" stroke-width="2" stroke-miterlimit="10" x1="133.3" y1="165.3" x2="136.6" y2="169"/>
</svg>
