<?xml version="1.0" encoding="utf-8"?>
<!-- Generator: Adobe Illustrator 21.0.0, SVG Export Plug-In . SVG Version: 6.00 Build 0)  -->
<!DOCTYPE svg PUBLIC "-//W3C//DTD SVG 1.0//EN" "http://www.w3.org/TR/2001/REC-SVG-20010904/DTD/svg10.dtd">
<svg version="1.0" id="Layer_1" xmlns="http://www.w3.org/2000/svg" xmlns:xlink="http://www.w3.org/1999/xlink" x="0px" y="0px"
	 width="288px" height="288px" viewBox="0 0 288 288" enable-background="new 0 0 288 288" xml:space="preserve">
<path fill="none" stroke="#FFFFFF" stroke-width="32" stroke-miterlimit="10" d="M145.6,160.2c-1.1-0.8-2.9-0.1-3.4,1.2
	c-0.5,1.3,0.1,2.8,1.1,3.7c1.6,1.4,4.1,1.5,5.8,0.3c1.7-1.2,2.5-3.5,2-5.5c-1-3.9-5.8-5.2-9.8-5.2c-2.2,0-4.5,0.2-6.5,1.2
	c-4.2,2.1-6.2,7.5-5,12c1.2,4.5,5.3,8,9.8,9.3c6.5,1.8,14-0.9,17.8-6.4c3.9-5.5,3.8-13.5-0.1-19c-2.1-3-5.2-5.2-8.5-6.7
	c-7-3.4-15.4-4.2-22.8-1.5c-7.4,2.6-13.5,8.8-15.6,16.3c-2.3,8.3,0.4,17.5,5.8,24.1c5.4,6.7,13.3,11,21.5,13.5s16.9,3.3,25.4,3.9
	c4.6,0.3,9.6,0.5,13.4-2.1c5.2-3.6,6.2-10.8,6.4-17.1c0.3-8.8,0.1-17.7-2.2-26.1c-2.4-8.4-7.2-16.5-14.6-21.2
	c-6.1-3.9-13.4-5.3-20.5-6.3c-8.2-1.2-16.8-1.9-24.8,0.3c-8.5,2.3-15.8,7.6-22.3,13.5c-3.6,3.2-7.1,6.7-9.4,11
	c-3.8,7.1-3.9,15.9-1.2,23.5c2.7,7.6,7.9,13.1,14.1,18.3c3.6,3.1,7.7,6.7,12.1,8.5c3.1,1.3,6.2,0.9,9.5,0.5
	c19.4-2.2,38.2-0.8,55.8,4.7c3.5,1.1,5-2.1,8.4-3.5c9.1-3.7,14.1-8,16-17.7c1.9-9.6,3.8-18.4,2.4-28.1c-0.5-3.3-4.6-4.2-6-7.2
	c-1.7-3.6-5.5-5.7-8.2-8.5c-6.8-6.8-11.7-13.2-18.5-20c-2.1-2.1-1.5-5.9-4.3-7.1c-2.7-1.1-5.7-0.7-8.6-0.8
	c-7.1-0.1-14.1,0.3-21.2,0.2c-3,0-6-0.1-8.9,0.7c-2.1,0.5-4.1,1-6,1.9c-3.5,1.7-7.1,5.4-10.5,7.1c-0.7,0.4-2.4,2.7-3.1,3.1
	c-3.8,2.2-6.6,5.4-10.2,8.4c-3.9,3.3-9.9,4.4-12.8,7.9c-3.5,4.3-0.4,1.9-2.6,6.9c-0.9,2-0.9,4-1.2,6c-0.5,2.8-2.1,5.6-2.7,8.7
	c-0.8,4-1.8,8.3-1.6,12.4c0.2,3.6,1.6,7.2,2,10.4c0.5,4.2-0.7,7.9,1.9,10.8c1.6,1.8,3.8,1.8,6.5,3c1.9,0.8,6.3,0.6,8.2,1.3
	c3.7,1.5,6.8-1,10.8-1c6.3,0,13.1,0.3,19.8,0.8c5.1,0.4,10.3,3,15.2,3.8c1.7,0.2,3.3,0,4.9,0.3c1.2,0.2,1.5-2.1,2.7-1.9
	c2.2,0.4,4.3,2.3,6.2,2.7c12.3,2.3,20.5,1.7,33.3-4.2c2.7-1.2,8-3.4,11.4-4.7c2.3-0.9,4.3-0.9,3.5-2.1c-1.8-2.9-0.9-0.4,0.7-5.5
	c0.9-3,1.2-10.9,1.3-14c0.2-4.4,1.5-8,1-11.2c-1.9-13-10.4-18-21.6-32c-2.4-3-5.6-5.2-8-8.6c-1.3-1.8-2.5-2.9-3.8-4.7
	c-1.3-1.8-2.8-4.4-4.7-5.1c-4.6-1.7-5.8,0.1-10.7-0.4c-7.8-0.7-13.4-2-21.2-2.3c-6.4-0.3-17.4,4.7-22.9,8"/>
<path fill="none" stroke="#000000" stroke-width="2" stroke-miterlimit="10" d="M200.4,126l-21.9-23.8l-24.8-2.5h-24.4l-19.1,8.7
	l-15,13.5c0,0-21,14.2-21.5,14.2s-5.8,20-5.8,20l-4.5,22.2c0,0,4.5,26.8,4.8,28s5.2,8.5,8,9.5s13.4,4.2,17.2,5s31.9-1.2,31.9-1.2
	l14.9,4.8l23.8,2l18.8-1.8l11.5-1.8l26.5-14.2c0,0,1.2-10.2,1.2-10.5s3-13.8,3-13.8l0.2-23.2L217,144c0,0-8.5-9.2-8.5-10
	S200.4,126,200.4,126z"/>
<line fill="none" stroke="#000000" stroke-width="2" stroke-miterlimit="10" x1="130.3" y1="167.3" x2="133.6" y2="171"/>
<line fill="none" stroke="#000000" stroke-width="2" stroke-miterlimit="10" x1="80" y1="201.8" x2="85.5" y2="205.5"/>
<line fill="none" stroke="#000000" stroke-width="2" stroke-miterlimit="10" x1="77.8" y1="205.5" x2="82.8" y2="209.5"/>
<line fill="none" stroke="#000000" stroke-width="2" stroke-miterlimit="10" x1="155.5" y1="117.1" x2="161.2" y2="119"/>
<line fill="none" stroke="#000000" stroke-width="2" stroke-miterlimit="10" x1="155.5" y1="120.2" x2="161.2" y2="124"/>
<line fill="none" stroke="#000000" stroke-width="2" stroke-miterlimit="10" x1="199" y1="190.5" x2="196.2" y2="195.8"/>
<line fill="none" stroke="#000000" stroke-width="2" stroke-miterlimit="10" x1="205.2" y1="190.5" x2="200.4" y2="198.3"/>
<line fill="none" stroke="#000000" stroke-width="2" stroke-miterlimit="10" x1="147.5" y1="213.5" x2="153.2" y2="213.5"/>
<line fill="none" stroke="#000000" stroke-width="2" stroke-miterlimit="10" x1="147.5" y1="217.8" x2="153.2" y2="218.5"/>
<line fill="none" stroke="#000000" stroke-width="2" stroke-miterlimit="10" x1="92.2" y1="158.5" x2="93.4" y2="153.2"/>
<path fill="none" stroke="#000000" stroke-width="2" stroke-miterlimit="10" d="M97.5,151.6c-0.5,0.6-2,8.9-2,8.9"/>
<line fill="none" stroke="#000000" stroke-width="2" stroke-miterlimit="10" x1="133.3" y1="165.3" x2="136.6" y2="169"/>
</svg>
