<?xml version="1.0" encoding="utf-8"?>
<!-- Generator: Adobe Illustrator 22.1.0, SVG Export Plug-In . SVG Version: 6.00 Build 0)  -->
<!DOCTYPE svg PUBLIC "-//W3C//DTD SVG 1.0//EN" "http://www.w3.org/TR/2001/REC-SVG-20010904/DTD/svg10.dtd">
<svg version="1.0" xmlns="http://www.w3.org/2000/svg" xmlns:xlink="http://www.w3.org/1999/xlink" x="0px" y="0px" width="282.3px"
	 height="282.3px" viewBox="0 0 282.3 282.3" enable-background="new 0 0 282.3 282.3" xml:space="preserve">
<g id="Layer_2">
	<path fill="#27AAE1" d="M143,40.5c-8.9,6.9-12.1,20.2-7.2,30.4c0.8,1.6,1.7,3.1,2.1,4.8s0.1,3.7-1.3,4.8c-1.9,1.6-4.7,0.7-7.2,0.6
		c-3.8-0.1-7.4,2.1-9.8,5s-3.9,6.5-5.2,10c-6.6,17.5-10.8,35.9-12.6,54.5c-1.1,0.6-2.3,0.9-3.5,0.9c0.5-1.2,0.2-2.6-0.8-3.5
		c-0.3-0.3-0.8-0.6-1-1c-0.5-1.1,0.7-2.1,1.6-2.9c4.2-3.7,4.3-10,4.4-15.5c0.1-11.7,1.6-23.7,7.2-33.9c3.3-5.9,7.9-11.1,13.4-15
		c3.3-1.8,7.6-1.6,10.7,0.5c1.9-3.3-0.8-7.1-2.7-10.3c-3.2-5.4-4.3-12.2-2.2-18.1c2.1-5.9,7.9-10.6,14.2-10.6"/>
	<path fill="#27AAE1" d="M141.8,177.6c2.3-4,2.7-8.9,3-13.6c0.2-3.5,0.4-7,0.7-10.5c0.3-4.9,0.3-10.6-3-13.7
		c-2.1,9.4-3.5,19-4.1,28.6c-0.1,1.9-0.2,3.7,0.2,5.6c0.4,2.2,1.5,4.3,3.1,5.8"/>
	<path fill="#27AAE1" d="M125.7,137.3c2.5,0.1,3.4,3.4,3.4,5.9c0.5,16-0.9,31.4-2.6,47.3c-0.5,5-1.1,10-2.5,14.8
		c-1.3,4.5-3.3,8.8-3.9,13.5c-0.5,4,0.8,8.8-4.2,10.7c0.8-0.3,1-8.3,1.3-9.7c0.7-4.7,2.8-9.1,3.6-13.7c0.8-4.4,0.8-9.1,1.2-13.6
		c0.1-1,0.2-2.1,0.6-3.1c0.4-0.9,1-1.7,1.4-2.5c0.6-1.3,0.6-2.8,0.6-4.2c0-6-0.6-12-0.7-18c-0.1-7.7,1.2-14.9-0.3-22.7
		c-0.2-1.1-0.5-2.3-0.2-3.4c0.2-1.1,1.1-2.2,2.2-2.3c1.1-0.1,2.2,1.3,1.6,2.3"/>
</g>
<g id="Layer_1">
	
		<ellipse transform="matrix(0.1309 -0.9914 0.9914 0.1309 64.5369 189.8768)" fill="none" stroke="#010101" stroke-width="2" stroke-miterlimit="10" cx="140.6" cy="58.1" rx="17.3" ry="12.4"/>
	<path fill="none" stroke="#000000" stroke-width="2" stroke-miterlimit="10" d="M152.7,42.9c0,0-13.7,4.2-22.8,4.3"/>
	<path fill="none" stroke="#000000" stroke-width="2" stroke-miterlimit="10" d="M154.7,45.5c0,0-11.5,6-24.8,5.4"/>
	<path fill="none" stroke="#000000" stroke-width="2" stroke-miterlimit="10" d="M156.4,47.2c0,0-12.2,10.2-28.5,7.5"/>
	<polyline fill="none" stroke="#010101" stroke-width="2" stroke-miterlimit="10" points="134.9,74.4 134.9,79.4 140.7,80.1 
		141.7,75.7 	"/>
	<path fill="none" stroke="#010101" stroke-width="2" stroke-miterlimit="10" d="M122.4,137.4h19.7l9.2-54.6
		c-12.1-3.9-30-3.1-30-3.1L122.4,137.4z"/>
	<path fill="none" stroke="#010101" stroke-width="2" stroke-miterlimit="10" d="M121.2,79.7c0,0-12.9,12.7-18.1,39"/>
	<path fill="none" stroke="#010101" stroke-width="2" stroke-miterlimit="10" d="M103.1,118.7c-0.3,3.2-2,16.7-2.1,20.2l4.8,1.1
		c0,0,3.1-12.7,4.7-19.2"/>
	<path fill="none" stroke="#010101" stroke-width="2" stroke-miterlimit="10" d="M110.5,120.8c2.5-7.8,6-16,10.7-20.2"/>
	<line fill="none" stroke="#010101" stroke-width="2" stroke-miterlimit="10" x1="114" y1="111.5" x2="107.5" y2="103.2"/>
	<path fill="none" stroke="#010101" stroke-width="2" stroke-miterlimit="10" d="M101,138.9l-4.7,7.1c0,0,2.1,6.6,2.4,6.6
		s11.3,0,11.3,0l1.8-8.2l-6.1-4.5"/>
	<path fill="none" stroke="#010101" stroke-width="2" stroke-miterlimit="10" d="M150.6,86.6c0,0,2.1,25.1,24.3,33.6L173,125
		c0,0-16.7,0.1-25.9-19"/>
	<polyline fill="none" stroke="#010101" stroke-width="2" stroke-miterlimit="10" points="174.7,120.5 179.3,117.6 187.1,119.9 
		184,131.9 174.3,129.6 173,125.7 	"/>
	<path fill="none" stroke="#010101" stroke-width="2" stroke-miterlimit="10" d="M122.4,137.4c6.9,45.6-7,92.1-7,92.1l7.9,0.7
		c15.5-31.1,18.8-92.9,18.8-92.9"/>
	<path fill="none" stroke="#010101" stroke-width="2" stroke-miterlimit="10" d="M142.4,135.6c11.7,35.7,18.6,95.5,18.6,95.5
		l-7.5,0.8c0,0-9.7-50-15.3-58"/>
	<polyline fill="none" stroke="#010101" stroke-width="2" stroke-miterlimit="10" points="123.3,230.3 139.9,234.6 130,240.6 
		113.1,233.4 115.4,229.5 	"/>
	<polyline fill="none" stroke="#010101" stroke-width="2" stroke-miterlimit="10" points="153.5,232 153.5,238.5 174.5,241.8 
		181.7,232 161,231.2 	"/>
</g>
</svg>
