<?xml version="1.0" encoding="utf-8"?>
<!-- Generator: Adobe Illustrator 22.1.0, SVG Export Plug-In . SVG Version: 6.00 Build 0)  -->
<!DOCTYPE svg PUBLIC "-//W3C//DTD SVG 1.1//EN" "http://www.w3.org/Graphics/SVG/1.1/DTD/svg11.dtd">
<svg version="1.1" id="Layer_1" xmlns="http://www.w3.org/2000/svg" xmlns:xlink="http://www.w3.org/1999/xlink" x="0px" y="0px"
	 width="297.4px" height="297.4px" viewBox="0 0 297.4 297.4" style="enable-background:new 0 0 297.4 297.4;" xml:space="preserve"
	>
<style type="text/css">
	.st0{fill:#27AAE1;}
	.st1{fill:none;stroke:#010101;stroke-width:2;stroke-miterlimit:10;}
	.st2{fill:none;stroke:#000000;stroke-width:2;stroke-miterlimit:10;}
</style>
<g id="Layer_2_1_">
	<path class="st0" d="M103.7,241.2c4.1-2,6.7-6.2,8.3-10.4c1.3-3.3,1.8-7.2,3.6-10.2c1.5-2.4,3.4-4.4,4.8-6.9
		c7.5-13.5,12.7-28.2,15.5-43.4c1.1-5.8,1.9-11.7,2.2-17.5c0.2-2.7,0.7-4-1.7-5.2c-1.5-0.7-4.6-0.2-5.7,1c-0.4,0.5-0.6,1.1-0.7,1.7
		c-2.8,13.2-2.7,27-7.5,39.6c-1.9,5-4.5,9.6-6.3,14.7c-1.6,4.5-2.5,9.2-4,13.8c-2.6,7.6-7.1,14.3-11.5,21c1.3,0.5,2.3,1.5,3,2.7"/>
	<path class="st0" d="M146.2,160.3c1.4,4.7,3.2,9.2,4.6,14c1.4,4.6,4.8,11.1,4.8,15.9c1.5,5,3.1,10.1,5,14.9c4,10,10,19.9,9,30.6
		c-3-3.9-4.3-8.9-5.7-13.7c-2.5-8.9-5.4-17.6-9-26.1c-1.5-3.6-3.7-6.7-4.8-10.4c-1.3-4.3-2.4-8.5-4-12.6c-0.8-2.2-2-4.1-2.3-6.4
		c-0.2-1.5,1.7-5.8,1.2-6.7c0.5,1.1,1,2.1,1.6,3.2"/>
	<path class="st0" d="M141.2,72.9c-1.1-6.1,1.1-13.7,5.5-18.1c3.4-3.4,6.8-4.9,11.6-4.8c0.4,2.7-2.3,4.4-3.7,6.4
		c-1.8,2.5-3.2,5.2-4.2,8c-2,5.5-2.5,11.6-1.6,17.4c0.5,2.9,1.3,5.9,0.9,8.8c-1.5,0.1-1.7-2.1-1.8-3.6
		C147.4,81.8,142.1,78.1,141.2,72.9z"/>
	<path class="st0" d="M135.1,97.4c-6.5,4.4-11.7,11.1-19.2,13.4c-1.5-1.1-2.3-3.4-1.1-4.9c0.4-0.5,1-0.8,1.6-1.2
		c6.4-3.6,12.6-7.6,18.6-11.9c0.9,1.5,1.2,3.4,0.5,5"/>
</g>
<g id="Lines">
	
		<ellipse transform="matrix(0.2321 -0.9727 0.9727 0.2321 52.7248 203.4854)" class="st1" cx="155.2" cy="68.3" rx="18.6" ry="12.9"/>
	<polyline class="st1" points="148.1,85.2 147,90.8 153.3,92.1 154.7,86.5 	"/>
	<path class="st1" d="M130.5,142.6c1.3-12,5.6-51.8,5.6-51.8s17-0.4,24.5,4.7l-11.2,53c0,0-12.3-1.6-17.2-2.3"/>
	<polyline class="st1" points="136.1,90.8 114.5,107.5 121,137.8 126.2,136.6 123.9,109.8 	"/>
	<line class="st1" x1="134.8" y1="103.2" x2="115.8" y2="115"/>
	<polyline class="st1" points="121,137.8 119.6,145.7 124.6,151.1 133.6,146.9 126.2,136.6 	"/>
	<polyline class="st1" points="159.5,100.7 167.8,117.9 185.2,112.6 186.5,117.4 165.9,127.6 156.6,116.3 	"/>
	<path class="st1" d="M185.2,112.6v-4l8-5l3.4,4.5c0,0,3.3,5.7,3.4,6"/>
	<path class="st1" d="M200,114.2c-1.2,0.9-7.3,5.9-7.3,5.9l-6.3-2.6"/>
	<path class="st1" d="M147,148.5c0,0-4.2,56.8-36.1,86.8l-4.1-2.5c0,0,23.8-53.7,23.4-84.1"/>
	<path class="st1" d="M149.4,148.5c0,0,19.5,44.2,23.1,85.2l-5.3,1.6c0,0-19.5-63-22.8-69.6"/>
	<path class="st1" d="M106.3,232.7l-6,5.8c0,0,11,10,11.5,10s17.8-0.6,17.8-0.6l-18.7-12.6"/>
	<path class="st1" d="M167.2,235.4v7.7c0,0,10-1.2,17.5-2l8.5-0.5l-0.7-8.3c-7.8,0.6-20,1.5-20,1.5"/>
	<path class="st2" d="M169,51.8c0,0-13.7,4.2-22.8,4.3"/>
	<path class="st2" d="M171,54.4c0,0-11.5,6-24.8,5.4"/>
	<path class="st2" d="M172.7,56.1c0,0-12.2,10.2-28.5,7.5"/>
</g>
</svg>
