<?xml version="1.0" encoding="utf-8"?>
<!-- Generator: Adobe Illustrator 19.2.1, SVG Export Plug-In . SVG Version: 6.00 Build 0)  -->
<svg version="1.0" id="Layer_1" xmlns="http://www.w3.org/2000/svg" xmlns:xlink="http://www.w3.org/1999/xlink" x="0px" y="0px"
	 width="288px" height="288px" viewBox="0 0 288 288" enable-background="new 0 0 288 288" xml:space="preserve">
<ellipse transform="matrix(0.12 -0.9928 0.9928 0.12 36.8139 174.8634)" fill="none" stroke="#000000" stroke-width="2" stroke-miterlimit="10" cx="117" cy="66.7" rx="17.6" ry="11.4"/>
<polyline fill="none" stroke="#000000" stroke-width="2" stroke-miterlimit="10" points="107.3,77.4 97.6,81 105.8,88 101.5,95.5 
	108.6,95.5 115.5,102.8 115.1,97.2 120.6,97.2 118.8,91.8 126,90.1 118.1,83.9 "/>
<polyline fill="none" stroke="#000000" stroke-width="2" stroke-miterlimit="10" points="97.6,81 88.2,87.6 86.8,98.1 "/>
<polyline fill="none" stroke="#000000" stroke-width="2" stroke-miterlimit="10" points="91.5,93.8 78.8,104.9 85.8,106.1 
	86.1,112.6 91.5,109.9 94.9,116 99.9,109 "/>
<polyline fill="none" stroke="#000000" stroke-width="2" stroke-miterlimit="10" points="82.7,106.3 75.2,117.5 75.2,143.2 
	72.5,149.3 76.5,156.7 82.7,155.7 81.7,149.3 84,149.5 85.3,146.3 80.7,143.2 83.7,120.9 92.8,112.2 "/>
<line fill="none" stroke="#000000" stroke-width="2" stroke-miterlimit="10" x1="75.2" y1="117.5" x2="83.7" y2="120.9"/>
<line fill="none" stroke="#000000" stroke-width="2" stroke-miterlimit="10" x1="75.8" y1="143.2" x2="80.7" y2="143.2"/>
<path fill="none" stroke="#000000" stroke-width="2" stroke-miterlimit="10" d="M114.7,101.9c0,0-0.7,32.9,2.9,44.9l-4.6-2.2
	l-2.5,3.1l-7.6-4.6l-6.2,9.7l-2.8-8l-7.1,5.6l0.5-33"/>
<polyline fill="none" stroke="#000000" stroke-width="2" stroke-miterlimit="10" points="114.8,118.4 117.6,128.2 126.7,144.3 
	126,151.2 129.5,154 139.8,147.2 137.2,141.1 130.7,138.2 123,122.7 119,97.2 "/>
<line fill="none" stroke="#000000" stroke-width="2" stroke-miterlimit="10" x1="122.9" y1="121.8" x2="117.6" y2="128.2"/>
<line fill="none" stroke="#000000" stroke-width="2" stroke-miterlimit="10" x1="130.7" y1="138.2" x2="126.7" y2="144.3"/>
<polyline fill="none" stroke="#000000" stroke-width="2" stroke-miterlimit="10" points="105.7,144.9 130.8,233.7 127.3,233.7 
	125.2,236.7 87.6,149.9 "/>
<path fill="none" stroke="#000000" stroke-width="2" stroke-miterlimit="10" d="M115.7,146.8c0,0-1.3,6.6-4.4,16.9"/>
<path fill="none" stroke="#000000" stroke-width="2" stroke-miterlimit="10" d="M103.1,186.7c-5.7,14.1-13.6,30.1-24.4,45.3
	l-1.8-3.7l-5.3,1c0,0,24.1-49.1,24.5-59.6"/>
<polyline fill="none" stroke="#000000" stroke-width="2" stroke-miterlimit="10" points="73.5,229.3 71.7,234.7 87.6,245.8 
	96.3,238.7 79,230.2 "/>
<polyline fill="none" stroke="#000000" stroke-width="2" stroke-miterlimit="10" points="125.9,235.6 127.3,239.5 144.1,242.9 
	148.2,234.2 129.2,233.7 "/>
<ellipse transform="matrix(0.12 -0.9928 0.9928 0.12 100.4868 256.8362)" fill="none" stroke="#000000" stroke-width="2" stroke-miterlimit="10" cx="195.1" cy="71.7" rx="17.6" ry="11.4"/>
<path fill="none" stroke="#000000" stroke-width="2" stroke-miterlimit="10" d="M200.5,92.4c0.3,0.2,9.1-1.7,9.1-1.7
	s-0.6-14,0.9-22.8s2-26.5-12.5-25.1s-27.4,9.5-36.2,38.2l3.5,4.1"/>
<polyline fill="none" stroke="#000000" stroke-width="2" stroke-miterlimit="10" points="180.1,81 175.7,86.1 183.8,93.1 
	179.6,100.6 186.7,100.6 193.6,107.8 193.2,102.2 198.7,102.2 196.8,96.8 204.1,95.2 196.1,89 "/>
<polyline fill="none" stroke="#000000" stroke-width="2" stroke-miterlimit="10" points="173.4,102.8 168.8,104.9 167.6,100.4 
	163.2,102.8 160.9,95.5 153.8,96.4 166.6,84 181.5,81 183.8,76.8 "/>
<polyline fill="none" stroke="#000000" stroke-width="2" stroke-miterlimit="10" points="158.1,95.8 148.9,112.5 148,139.5 
	144.4,142.5 145.9,151.9 155.8,150.2 156.9,144.1 152.2,140.5 159.4,114.9 167.6,102.8 "/>
<line fill="none" stroke="#000000" stroke-width="2" stroke-miterlimit="10" x1="148.9" y1="112.5" x2="159.4" y2="114.9"/>
<path fill="none" stroke="#000000" stroke-width="2" stroke-miterlimit="10" d="M148,139.5c0.8,0.4,4.2,1,4.2,1"/>
<line fill="none" stroke="#000000" stroke-width="2" stroke-miterlimit="10" x1="155.6" y1="142.7" x2="163.2" y2="109.3"/>
<polyline fill="none" stroke="#000000" stroke-width="2" stroke-miterlimit="10" points="191.4,105.5 188.5,134.5 195.8,213.2 
	185,208.3 179.7,215 172.8,208.8 165.2,216.5 160.2,207.2 150.1,212 154.8,151.2 "/>
<polyline fill="none" stroke="#000000" stroke-width="2" stroke-miterlimit="10" points="190.3,124 193.2,133.8 202.2,149.9 
	201.6,156.8 205.1,159.6 215.4,152.8 212.7,146.7 206.2,143.8 198.6,128.3 194.6,102.8 "/>
<line fill="none" stroke="#000000" stroke-width="2" stroke-miterlimit="10" x1="198.4" y1="127.4" x2="193.2" y2="133.8"/>
<line fill="none" stroke="#000000" stroke-width="2" stroke-miterlimit="10" x1="206.2" y1="143.8" x2="202.2" y2="149.9"/>
<polyline fill="none" stroke="#000000" stroke-width="2" stroke-miterlimit="10" points="159.2,207.6 153.2,232 157,232 
	164.7,215.6 "/>
<polyline fill="none" stroke="#000000" stroke-width="2" stroke-miterlimit="10" points="181.2,213.1 189.3,232 193.2,231.3 
	189.8,210.5 "/>
<polyline fill="none" stroke="#000000" stroke-width="2" stroke-miterlimit="10" points="153.2,232 165.7,242.9 173,234.7 
	156.3,232 "/>
<polyline fill="none" stroke="#000000" stroke-width="2" stroke-miterlimit="10" points="189.3,232 205.3,240.9 212.5,232 
	192.6,231.3 "/>
</svg>
