<?xml version="1.0" encoding="utf-8"?>
<!-- Generator: Adobe Illustrator 19.2.1, SVG Export Plug-In . SVG Version: 6.00 Build 0)  -->
<svg version="1.0" xmlns="http://www.w3.org/2000/svg" xmlns:xlink="http://www.w3.org/1999/xlink" x="0px" y="0px" width="288px"
	 height="288px" viewBox="0 0 288 288" enable-background="new 0 0 288 288" xml:space="preserve">
<g id="Layer_2">
	<path fill="#27AAE1" d="M78.6,55.9c0,0-17.6,41.4,17.7,58.6c0,0-25.1,3.2-29-27.7C63.7,56.7,78.6,55.9,78.6,55.9z"/>
	<path fill="#27AAE1" d="M77.4,136.1c0,0-4.9,19.5,6.6,39.5l6.8,0.4L81.6,144L77.4,136.1z"/>
	<path fill="#27AAE1" d="M131.2,160.1c0,0-13.9,23.9-46.5,24.6l14.3,10.2c0,0,29.7-13.7,38.7-33.9L131.2,160.1z"/>
	<polygon fill="#27AAE1" points="102.9,194.1 106.7,210 133,210.9 111.2,216.5 114,228.5 102.9,228.5 100,217.2 94.9,192.8 
		98.9,194.9 	"/>
	<path fill="#27AAE1" d="M199,49.7c0,0,15,37.1-10.7,58.6c0,0,24.5,0.5,22.6-37.5C210.9,70.7,208.8,50.6,199,49.7z"/>
	<path fill="#27AAE1" d="M208.1,150.8c0.9-11.6,1.6-20.9,1.6-20.9l1.4-14.3l-10-1.3c0,0-1.8,15.6-3.6,38
		C201.1,151.9,204.6,151.1,208.1,150.8z"/>
	<path fill="#27AAE1" d="M196.7,163.5c-1.3,19.6-2.5,42.7-2.3,64.8l9.8-1.4c0,0,0.4-31.2,0.4-32.1c0-0.4,1.3-16.8,2.6-33
		C203.8,162.9,200.3,163.3,196.7,163.5z"/>
	<path fill="#27AAE1" d="M233.3,153.5c-13.9,8.6-39.1,10.4-58.2,10.4c-0.7,0.9-1.3,1.7-2.1,2.5c-0.3,0.4-0.8,0.7-1.2,0.9
		c48,7.3,63.1-8.4,63.1-8.4L233.3,153.5z"/>
	<path fill="#27AAE1" d="M164.6,163.6c-9-0.3-14.9-0.9-14.9-0.9l9.7,2.3c2.3,0.5,4.4,0.9,6.6,1.3
		C165.2,165.5,164.7,164.6,164.6,163.6z"/>
</g>
<g id="Layer_1">
	
		<ellipse transform="matrix(0.9571 -0.2897 0.2897 0.9571 -20.9339 29.0031)" fill="none" stroke="#000000" stroke-width="2" stroke-miterlimit="10" cx="87.5" cy="85.2" rx="19.9" ry="30.6"/>
	
		<ellipse transform="matrix(0.1416 -0.9899 0.9899 0.1416 86.1356 255.7836)" fill="none" stroke="#000000" stroke-width="2" stroke-miterlimit="10" cx="190.6" cy="78.2" rx="30.2" ry="20.3"/>
	<path fill="none" stroke="#000000" stroke-width="2" stroke-miterlimit="10" d="M78.6,55.9c0,0-35.3,0.1-25.6,50.8
		c0,0,4,16.9,0,21.1c0,0,10.5,2.6,20.6,1.1"/>
	<path fill="none" stroke="#000000" stroke-width="2" stroke-miterlimit="10" d="M66.7,73.7c0,0-9,5.8-7.7,19.2s1.5,30.9-0.1,36.9"
		/>
	<path fill="none" stroke="#000000" stroke-width="2" stroke-miterlimit="10" d="M70.4,96.3c0,0-1.7,29-6.1,33.6"/>
	<path fill="none" stroke="#000000" stroke-width="2" stroke-miterlimit="10" d="M79.9,109.7c0,0-0.4,13.6-2.4,16.5"/>
	<path fill="none" stroke="#000000" stroke-width="2" stroke-miterlimit="10" d="M183.5,49.7c0,0,10,3.4,20.7,2"/>
	<path fill="none" stroke="#000000" stroke-width="2" stroke-miterlimit="10" d="M180.3,50.8c0,0,8.2,8,27.4,5.4"/>
	<path fill="none" stroke="#000000" stroke-width="2" stroke-miterlimit="10" d="M177.6,55c0,0,13,10,33.6,5.9"/>
	<line fill="none" stroke="#000000" stroke-width="2" stroke-miterlimit="10" x1="90.2" y1="115" x2="92.7" y2="122"/>
	<line fill="none" stroke="#000000" stroke-width="2" stroke-miterlimit="10" x1="103.3" y1="109.7" x2="105" y2="117.3"/>
	<polyline fill="none" stroke="#000000" stroke-width="2" stroke-miterlimit="10" points="180.3,106.4 180.3,112.1 191.3,113 
		191.7,107.8 	"/>
	<path fill="none" stroke="#000000" stroke-width="2" stroke-miterlimit="10" d="M207.9,150.2c1.7-19.2,3.2-34.6,3.2-34.6
		c-22.8-4.2-51.8-4.5-51.8-4.5l-3.9,42.6"/>
	<path fill="none" stroke="#000000" stroke-width="2" stroke-miterlimit="10" d="M90.8,176.1c-4.7-17.9-10.7-36.8-17.2-47.2
		c-1-1.7,35.6-13.2,42.3-14.6c0,0,5.8,11.9,12.6,28.5"/>
	<path fill="none" stroke="#000000" stroke-width="2" stroke-miterlimit="10" d="M73.6,128.9c0,0-19.4,41.5,25.4,66
		c0,0,28.6-10.8,38.7-33.9"/>
	<path fill="none" stroke="#000000" stroke-width="2" stroke-miterlimit="10" d="M126.2,159.4c0,0-19.4,22-50,15"/>
	<path fill="none" stroke="#000000" stroke-width="2" stroke-miterlimit="10" d="M160.3,153.8c-2.8,0-5.8,0-8.8,0l-1.8,8.9
		c5.6,1.4,10.9,2.6,15.9,3.5"/>
	<polyline fill="none" stroke="#000000" stroke-width="2" stroke-miterlimit="10" points="151.5,153.8 148.9,151.9 149.8,140.6 
		124.4,142.5 122.3,158.9 149.7,162.7 	"/>
	<path fill="none" stroke="#000000" stroke-width="2" stroke-miterlimit="10" d="M130.2,142.5c0.1-0.5,0-8,0-8l13.2-8.3l9.7,5.5
		l-8.8,5.1v3.8"/>
	<path fill="none" stroke="#000000" stroke-width="2" stroke-miterlimit="10" d="M153.1,153.8c0.7,0,7.4-5.7,7.4-5.7l10.4-0.7
		l5.4,15.7l-9.1,6.6l-7.8-17.2"/>
	<line fill="none" stroke="#000000" stroke-width="2" stroke-miterlimit="10" x1="159.3" y1="111.2" x2="117.7" y2="119.6"/>
	<line fill="none" stroke="#000000" stroke-width="2" stroke-miterlimit="10" x1="119.5" y1="122" x2="133" y2="132.8"/>
	<line fill="none" stroke="#000000" stroke-width="2" stroke-miterlimit="10" x1="147.7" y1="134.8" x2="157.2" y2="134.4"/>
	<path fill="none" stroke="#000000" stroke-width="2" stroke-miterlimit="10" d="M170.8,167.1c46.5,7.1,64.1-8.2,64.1-8.2
		c-5.7-23-23.8-43.2-23.8-43.2"/>
	<path fill="none" stroke="#000000" stroke-width="2" stroke-miterlimit="10" d="M229.4,144.6c0,0-9.6,7.3-56.5,8.9"/>
	<line fill="none" stroke="#000000" stroke-width="2" stroke-miterlimit="10" x1="209" y1="136.1" x2="214.5" y2="149.3"/>
	<polyline fill="none" stroke="#000000" stroke-width="2" stroke-miterlimit="10" points="155.4,164.1 154,216 153.1,230.9 	"/>
	<path fill="none" stroke="#000000" stroke-width="2" stroke-miterlimit="10" d="M153.1,216l51.1,3.3c-0.6-9.5,0.6-30,2.2-50.4"/>
	<path fill="none" stroke="#000000" stroke-width="2" stroke-miterlimit="10" d="M136.7,163.7c5.2,14.4,9.9,29.8,12.2,43.1
		l-48.4,12.5c0,0-2.1-11.4-5.5-26.5"/>
	<line fill="none" stroke="#000000" stroke-width="2" stroke-miterlimit="10" x1="100.4" y1="219.3" x2="102.9" y2="228.5"/>
	<path fill="none" stroke="#000000" stroke-width="2" stroke-miterlimit="10" d="M126.2,213.3c0.7,0.4,2.5,17.7,2.5,17.7"/>
	<line fill="none" stroke="#000000" stroke-width="2" stroke-miterlimit="10" x1="128.7" y1="212" x2="133.7" y2="230.9"/>
	<line fill="none" stroke="#000000" stroke-width="2" stroke-miterlimit="10" x1="148.8" y1="207.4" x2="153.3" y2="227"/>
	<line fill="none" stroke="#000000" stroke-width="2" stroke-miterlimit="10" x1="176.2" y1="217.5" x2="174.7" y2="230.2"/>
	<line fill="none" stroke="#000000" stroke-width="2" stroke-miterlimit="10" x1="182.8" y1="217.9" x2="182.8" y2="229.6"/>
	<line fill="none" stroke="#000000" stroke-width="2" stroke-miterlimit="10" x1="204.3" y1="219.3" x2="204.3" y2="227"/>
	<path fill="none" stroke="#000000" stroke-width="2" stroke-miterlimit="10" d="M99.4,214.4c-1.7,0-17.2,3.3-30.1,9.5
		c0,0,91.3,17.6,161.4-2.8c0,0-3.5-5.9-27.3-11.1"/>
	<path fill="none" stroke="#000000" stroke-width="2" stroke-miterlimit="10" d="M77.8,214.3l-23.4,12.1c0,0,23.8,14.6,80.4,14.3"/>
	<path fill="none" stroke="#000000" stroke-width="2" stroke-miterlimit="10" d="M213.4,206.8c0,0,14,3.3,26.4,10.6
		c0,0,4.9,8.6-34.9,16.9"/>
	<path fill="none" stroke="#000000" stroke-width="2" stroke-miterlimit="10" d="M120.9,236.4c0,0,42.8,1.6,70.8-2.1"/>
</g>
<g id="Layer_3">
	<path opacity="0" fill="none" stroke="#27AAE1" stroke-width="30" stroke-miterlimit="10" d="M65,49.8c52.3-1,104.6-1.9,156.8-2.9
		c-47.5,4.4-94.9,8.8-142.4,13.2C70,61.1,60.4,62,51.1,64.3c56.1,2.7,112.4,2,168.6,1.2c-20.6,6.2-42.6,4.6-64.1,5.4
		c-33.7,1.3-67,8.8-100.7,10.9c56.4,1.6,112.9,2,169.3,1.1C176.8,90,129.1,97.1,81.1,97.1c-2.1,0-4.6,0.2-5.5,2.1
		c0.3,2.8,3.9,3.7,6.7,3.9c50.9,3.6,101.9,5.1,152.9,4.6c-16.3,8-34.9,9.9-53,10.9c-49.7,2.9-100.2,0.9-148.5,12.9
		c51.6-1.2,103.2-2.4,154.9-3.6c14.3-0.3,28.7-0.7,43,0c-6.5,9.5-19.5,11.2-31,12.1c-44.8,3.6-89.5,7.2-134.3,10.7
		c8.5,2.1,17.3,2.7,26.1,3.3c53.6,3.7,107.3,6.8,160.9,4.2c-50.5,5.9-101,11.9-151.8,13.3c-10.7,0.3-21.6,0.4-31.8,3.8
		c9.1,4.4,18.8,7.2,28.7,9.2c36.9,7.4,74.9,1.9,112.4-0.9c0.1,1.2,0.2,2.3,0.2,3.5c-40.9,10.7-82.2,21.4-124.5,22.8
		c43-0.2,86.1,0.6,129.1,2.3c-41.4,8.8-83.9,12.5-126.2,10.8c-2.2-0.1-5.4,1.1-4.6,3.1c44.5,4.5,89.4,1.4,134.1-1.8"/>
</g>
</svg>
