<?xml version="1.0" encoding="utf-8"?>
<!-- Generator: Adobe Illustrator 19.2.1, SVG Export Plug-In . SVG Version: 6.00 Build 0)  -->
<svg version="1.0" id="Layer_2" xmlns="http://www.w3.org/2000/svg" xmlns:xlink="http://www.w3.org/1999/xlink" x="0px" y="0px"
	 width="288px" height="288px" viewBox="0 0 288 288" enable-background="new 0 0 288 288" xml:space="preserve">
<polygon fill="none" stroke="#000000" stroke-miterlimit="10" points="94.4,160.1 182.7,160.1 183.5,154.4 94.4,154.4 "/>
<path fill="none" stroke="#000000" stroke-miterlimit="10" d="M94.4,154.4c0,0,2.6-1.3,5.6-2.9"/>
<path fill="none" stroke="#000000" stroke-miterlimit="10" d="M104.2,149.4c2.4-1.3,4.4-2.2,4.4-2.2s10.2-0.1,22.3-0.3"/>
<path fill="none" stroke="#000000" stroke-miterlimit="10" d="M150.7,146.5c10.6-0.2,19-0.3,19-0.3s2.5,1.5,5.4,3.2"/>
<path fill="none" stroke="#000000" stroke-miterlimit="10" d="M179,151.8c2.5,1.5,4.5,2.6,4.5,2.6"/>
<polyline fill="none" stroke="#000000" stroke-miterlimit="10" points="96.3,160.1 98.6,203.7 101.1,203.7 100.3,160.1 "/>
<path fill="none" stroke="#000000" stroke-miterlimit="10" d="M109.1,160.1c0,0,0.3,4,0.6,9.3"/>
<path fill="none" stroke="#000000" stroke-miterlimit="10" d="M110.2,176.9c0.6,9.5,1.4,20.6,1.4,20.6h2.4l-0.9-37.4"/>
<polyline fill="none" stroke="#000000" stroke-miterlimit="10" points="182.6,160.1 180.3,203.7 177.8,203.7 178.6,160.1 "/>
<path fill="none" stroke="#000000" stroke-miterlimit="10" d="M169.8,160.1c0,0-0.3,3.9-0.6,9.2"/>
<path fill="none" stroke="#000000" stroke-miterlimit="10" d="M168.9,174.4c-0.7,10.6-1.5,23.1-1.5,23.1h-2.4l0.9-37.4"/>
<polygon fill="none" stroke="#000000" stroke-miterlimit="10" points="130.5,150.1 130.5,145.2 143.9,139.7 150.7,143.2 
	150.7,147.2 138.7,154.1 "/>
<polyline fill="none" stroke="#000000" stroke-miterlimit="10" points="130.5,145.2 138.6,148.8 150.7,143.2 "/>
<line fill="none" stroke="#000000" stroke-miterlimit="10" x1="138.6" y1="148.8" x2="138.7" y2="154.1"/>
<line fill="none" stroke="#000000" stroke-miterlimit="10" x1="137.1" y1="146" x2="144.4" y2="142.1"/>
<line fill="none" stroke="#000000" stroke-miterlimit="10" x1="141.6" y1="142.1" x2="143.7" y2="144.1"/>
<ellipse transform="matrix(0.2285 -0.9735 0.9735 0.2285 -36.9353 175.9379)" fill="none" stroke="#000000" stroke-miterlimit="10" cx="92.5" cy="111.3" rx="10.4" ry="7.1"/>
<polyline fill="none" stroke="#000000" stroke-miterlimit="10" points="87.3,119.6 85.9,123.6 90.6,124.8 91.1,121.8 "/>
<path fill="none" stroke="#000000" stroke-miterlimit="10" d="M90.4,149.2c-1.3,7.9-2.5,14.7-2.5,14.7l-13.9-1.1
	c0,0,1.9-28,7.4-40.2l12.9,3.2c0,0-1.5,8.7-3,17.8"/>
<path fill="none" stroke="#000000" stroke-miterlimit="10" d="M89.4,131.6l1.4,11.7c0,0,10.9,5.7,12.2,6.1l6.9,0.5l1.9,2.8h-1.9
	h-6.5l-18.2-5.2l-1-15.9"/>
<path fill="none" stroke="#000000" stroke-miterlimit="10" d="M74.1,162.7c0,0,1.4,4.4,1.8,5.7"/>
<path fill="none" stroke="#000000" stroke-miterlimit="10" d="M95.3,171.8c0.5,0.1,1,0.2,1.6,0.2"/>
<path fill="none" stroke="#000000" stroke-miterlimit="10" d="M100.5,172.6c2.4,0.4,4,0.6,4,0.6l-1.1,27.1c0,0,2.5,0.1,2.5,0
	s5.6-30.8,5.6-30.8s-5.5-1.3-11.1-2.7"/>
<path fill="none" stroke="#000000" stroke-miterlimit="10" d="M96.5,166c-4.7-1.1-8.6-2.1-8.6-2.1"/>
<polyline fill="none" stroke="#000000" stroke-miterlimit="10" points="103.4,200.4 103.4,203.7 114.9,204.4 115.8,201.6 
	105.9,200.4 "/>
<polygon fill="none" stroke="#000000" stroke-miterlimit="10" points="72.8,163.9 75.1,114.9 67.4,114.9 70.4,171.5 95.1,171.8 
	95.1,167.6 72.7,168.2 "/>
<polyline fill="none" stroke="#000000" stroke-miterlimit="10" points="71.4,171.8 74.1,204.4 76.4,204.4 75.7,171.8 "/>
<polyline fill="none" stroke="#000000" stroke-miterlimit="10" points="91.9,171.8 91.9,204.4 94.4,204.4 95.1,171.8 "/>
<polyline fill="none" stroke="#000000" stroke-miterlimit="10" points="93.2,132.6 99.1,137.9 110.9,139.7 110.9,142.1 98.7,141.4 
	92.2,138.7 "/>
<ellipse fill="none" stroke="#000000" stroke-miterlimit="10" cx="113.5" cy="141" rx="2.5" ry="3.1"/>
<ellipse transform="matrix(0.9735 -0.2285 0.2285 0.9735 -20.4842 45.6633)" fill="none" stroke="#000000" stroke-miterlimit="10" cx="186.9" cy="111.3" rx="7.1" ry="10.4"/>
<polyline fill="none" stroke="#000000" stroke-miterlimit="10" points="192.1,119.6 193.5,123.6 188.8,124.8 188.3,121.8 "/>
<path fill="none" stroke="#000000" stroke-miterlimit="10" d="M189.1,149.2c1.3,7.9,2.5,14.7,2.5,14.7l13.9-1.1c0,0-1.9-28-7.4-40.2
	l-12.9,3.2c0,0,1.5,8.7,3,17.8"/>
<path fill="none" stroke="#000000" stroke-miterlimit="10" d="M190,131.6l-1.4,11.7c0,0-10.9,5.7-12.2,6.1l-6.9,0.5l-1.9,2.8h1.9
	h6.5l18.2-5.2l1-15.9"/>
<path fill="none" stroke="#000000" stroke-miterlimit="10" d="M184.1,171.8c-0.8,0.1-1.5,0.2-2.2,0.4"/>
<path fill="none" stroke="#000000" stroke-miterlimit="10" d="M178.4,172.7c-2.1,0.3-3.5,0.6-3.5,0.6l1.1,27.1c0,0-2.5,0.1-2.5,0
	s-5.6-30.8-5.6-30.8s5-1.2,10.5-2.6"/>
<path fill="none" stroke="#000000" stroke-miterlimit="10" d="M182.4,166.1c4.9-1.2,9.1-2.2,9.1-2.2"/>
<polyline fill="none" stroke="#000000" stroke-miterlimit="10" points="176,200.4 176,203.7 164.5,204.4 163.6,201.6 173.5,200.4 
	"/>
<polygon fill="none" stroke="#000000" stroke-miterlimit="10" points="206.6,163.9 204.4,114.9 212,114.9 209,171.5 184.3,171.8 
	184.3,167.6 206.8,168.2 "/>
<polyline fill="none" stroke="#000000" stroke-miterlimit="10" points="208,171.8 205.4,204.4 203,204.4 203.8,171.8 "/>
<polyline fill="none" stroke="#000000" stroke-miterlimit="10" points="187.5,171.8 187.5,204.4 185.1,204.4 184.3,171.8 "/>
<path fill="none" stroke="#000000" stroke-miterlimit="10" d="M186.4,133.9c-1.8,1.3-4.2,3-4.2,3l-11.7,2.8v2.4l12.2-0.7
	c0,0,2.7-1.1,4.7-1.9"/>
<ellipse fill="none" stroke="#000000" stroke-miterlimit="10" cx="168" cy="141" rx="2.5" ry="3.1"/>
<ellipse transform="matrix(1.816051e-03 -1 1 1.816051e-03 30.2482 249.374)" fill="none" stroke="#000000" stroke-miterlimit="10" cx="140" cy="109.5" rx="10.4" ry="7.1"/>
<polyline fill="none" stroke="#000000" stroke-miterlimit="10" points="137.9,119.6 137.9,122 142.7,122 142.4,119.4 "/>
<polyline fill="none" stroke="#000000" stroke-miterlimit="10" points="149.9,142.8 149.9,121.7 131.3,122.2 132.9,144.3 "/>
<polyline fill="none" stroke="#000000" stroke-miterlimit="10" points="131.3,122.2 124.1,135.9 115.6,139.3 "/>
<path fill="none" stroke="#000000" stroke-miterlimit="10" d="M115.8,142.1c0.3,0.2,10.6-2.4,10.6-2.4l5.5-8.1"/>
<polyline fill="none" stroke="#000000" stroke-miterlimit="10" points="149.9,121.7 157.6,135.9 166.1,139.3 "/>
<path fill="none" stroke="#000000" stroke-miterlimit="10" d="M165.8,142.1c-0.3,0.2-10.6-2.4-10.6-2.4l-5.4-7.9"/>
<polyline fill="none" stroke="#000000" stroke-miterlimit="10" points="132.9,160.1 132.9,198.7 136.1,198.7 140.6,160.1 
	142.7,160.1 147,198.7 150.7,198.7 151.7,160.1 "/>
<polyline fill="none" stroke="#000000" stroke-miterlimit="10" points="133.2,198.7 126.7,203.7 134.1,204.8 136.1,198.7 "/>
<polyline fill="none" stroke="#000000" stroke-miterlimit="10" points="147,198.7 148.9,204.8 156.3,204.4 150.7,198.7 "/>
<path fill="none" stroke="#000000" stroke-miterlimit="10" d="M128.9,160.1v4.8c0,0,1.6,0,4,0"/>
<path fill="none" stroke="#000000" stroke-miterlimit="10" d="M140.3,164.8c1,0,2,0,3,0"/>
<path fill="none" stroke="#000000" stroke-miterlimit="10" d="M151.8,164.8c1.9,0,3.1,0,3.1,0v-4.7"/>
<path fill="none" stroke="#000000" stroke-miterlimit="10" d="M129.6,165l-0.7,31.6c0,0,1.6,0.3,1.9,0c0.3-0.3,2-26.2,2-26.2"/>
<polyline fill="none" stroke="#000000" stroke-miterlimit="10" points="154.9,164.7 157.4,196.7 154.9,196.7 151.6,165 "/>
</svg>
