<?xml version="1.0" encoding="utf-8"?>
<!-- Generator: Adobe Illustrator 19.2.1, SVG Export Plug-In . SVG Version: 6.00 Build 0)  -->
<svg version="1.0" xmlns="http://www.w3.org/2000/svg" xmlns:xlink="http://www.w3.org/1999/xlink" x="0px" y="0px" width="288px"
	 height="288px" viewBox="0 0 288 288" enable-background="new 0 0 288 288" xml:space="preserve">
<g id="Layer_2">
	<path fill="#27AAE1" d="M99.1,55.5c0,0-30.8,25.7-6.6,64.2c0,0-21.1-3.1-17.6-37.6C75,82,82,56.4,99.1,55.5z"/>
	<polygon fill="#27AAE1" points="63.3,139 36.2,164.7 57.1,203.5 51.6,187.1 43.5,167.3 61.5,155.1 59.5,182.7 65.3,180.7 	"/>
	<polygon fill="#27AAE1" points="107.5,153.6 117.4,158.3 115.8,164.7 106,160.8 	"/>
	<polygon fill="#27AAE1" points="124.2,160.8 121.7,167.9 142.6,169.4 138.4,162.7 128.3,162.7 	"/>
	<path fill="#27AAE1" d="M198.8,62.4c0,0,28.8,20.4,11,55.5c0,0,17.8-8.4,10.7-33.4C213.4,59.4,198.8,62.4,198.8,62.4z"/>
	<polygon fill="#27AAE1" points="230.3,133.8 235.1,174 241.4,165.6 	"/>
	<path fill="#27AAE1" d="M238,185.1c-0.5,0,0,8.7,0,8.7l2.9,9.8l8.5-1.4l-4.8-10l-1.1-13C243.7,179.2,239.1,185.2,238,185.1z"/>
	<polygon fill="#27AAE1" points="194.1,150.4 180.2,166.8 190,185.1 194.8,182.7 185.5,165.6 194.4,152.1 	"/>
</g>
<g id="Layer_1">
	
		<ellipse transform="matrix(0.1386 -0.9903 0.9903 0.1386 -3.2079 171.5528)" fill="none" stroke="#000000" stroke-width="2" stroke-miterlimit="10" cx="97" cy="87.6" rx="32.3" ry="21.7"/>
	
		<ellipse transform="matrix(0.9844 -0.1761 0.1761 0.9844 -12.796 37.012)" fill="none" stroke="#000000" stroke-width="2" stroke-miterlimit="10" cx="202.1" cy="90.6" rx="19.2" ry="28.5"/>
	<path fill="none" stroke="#000000" stroke-width="2" stroke-miterlimit="10" d="M87.2,58.9c0,0,21.5,2.3,27,1.3"/>
	<path fill="none" stroke="#000000" stroke-width="2" stroke-miterlimit="10" d="M81.8,63c0,0,20.6,4.1,35.1,1.4"/>
	<path fill="none" stroke="#000000" stroke-width="2" stroke-miterlimit="10" d="M79.5,66.3c0,0,17.1,6.8,39.2,2.8"/>
	<path fill="none" stroke="#000000" stroke-width="2" stroke-miterlimit="10" d="M197.1,62.6c0,0,21.5-8.1,29.9,10.4
		s10.6,28.2,19.1,35.2c0,0-3.2,7.2-21,13.7"/>
	<path fill="none" stroke="#000000" stroke-width="2" stroke-miterlimit="10" d="M211.9,68.3c0,0,8.7,2.2,16.7,21.3s12.4,24,12.4,24
		"/>
	<path fill="none" stroke="#000000" stroke-width="2" stroke-miterlimit="10" d="M221.7,93.1c0,0,5.8,19.6,11,25.5"/>
	<path fill="none" stroke="#000000" stroke-width="2" stroke-miterlimit="10" d="M219,108.1c0,0,3.4,7.8,7.4,13.2"/>
	<polyline fill="none" stroke="#000000" stroke-width="2" stroke-miterlimit="10" points="87.6,118.6 86.7,127.2 93.8,128.1 
		95.9,119.7 	"/>
	<path fill="none" stroke="#000000" stroke-width="2" stroke-miterlimit="10" d="M205.1,118.3c1.4,3,3.7,8.1,3.7,8.1l8.7-2.4
		c0,0-1.6-6.4-2.5-10"/>
	<path fill="none" stroke="#000000" stroke-width="2" stroke-miterlimit="10" d="M105.5,171.8l2-42.1l-42.2-5.2c0,0-5,32.9-5.7,58.2
		"/>
	<path fill="none" stroke="#000000" stroke-width="2" stroke-miterlimit="10" d="M65.3,124.5c0,0-31.8,24.5-38.8,40.5
		c0,0,13.8,34,33.7,46.2"/>
	<path fill="none" stroke="#000000" stroke-width="2" stroke-miterlimit="10" d="M61.6,153.6c-1.6,0.6-18.1,14.3-18.1,14.3"/>
	<path fill="none" stroke="#000000" stroke-width="2" stroke-miterlimit="10" d="M37.4,149.9c0,0,10.5,31.3,16.3,41.1"/>
	<path fill="none" stroke="#000000" stroke-width="2" stroke-miterlimit="10" d="M122.8,170.5c3.1,0.1,4.9,0.6,5.1,1.4
		c0.5,2.7-15.8,8.3-36.5,12.5c-20.7,4.2-37.9,5.4-38.5,2.7c-0.5-2.7,15.8-8.3,36.5-12.5c8.1-1.6,15.6-2.8,21.8-3.5"/>
	<path fill="none" stroke="#000000" stroke-width="2" stroke-miterlimit="10" d="M61.9,214.3c-4-6.6-6.7-15.8-9.1-27.2"/>
	<path fill="none" stroke="#000000" stroke-width="2" stroke-miterlimit="10" d="M61.6,213.9c0,0,7.1,0.3,7.9,0s10-5.6,10-5.6
		l8.8,10.2l-18.9,9.2L61.6,213.9z"/>
	<line fill="none" stroke="#000000" stroke-width="2" stroke-miterlimit="10" x1="81.5" y1="210.6" x2="75" y2="214.6"/>
	<line fill="none" stroke="#000000" stroke-width="2" stroke-miterlimit="10" x1="83.5" y1="213.4" x2="77" y2="218"/>
	<line fill="none" stroke="#000000" stroke-width="2" stroke-miterlimit="10" x1="85.5" y1="216" x2="80.3" y2="219.2"/>
	<path fill="none" stroke="#000000" stroke-width="2" stroke-miterlimit="10" d="M127.8,171.9c0,0,14.2,39.3-21.8,51.1
		c-14.1,4.6-24.2,5.3-31.7,2.4"/>
	<path fill="none" stroke="#000000" stroke-width="2" stroke-miterlimit="10" d="M107.5,129.8c0,0,4.4,13.3,10.2,18.5"/>
	<path fill="none" stroke="#000000" stroke-width="2" stroke-miterlimit="10" d="M115.8,164.7c-3.3-1.1-6.6-2.4-9.8-3.9"/>
	<polygon fill="none" stroke="#000000" stroke-width="2" stroke-miterlimit="10" points="130.6,146.9 115.8,148.4 114.1,157.3 
		129.1,162.4 	"/>
	<path fill="none" stroke="#000000" stroke-width="2" stroke-miterlimit="10" d="M130.3,149.9l12.3,19.6c0,0-8.9-0.2-19.8-2.8"/>
	<line fill="none" stroke="#000000" stroke-width="2" stroke-miterlimit="10" x1="115.4" y1="150.4" x2="121.6" y2="150.8"/>
	<line fill="none" stroke="#000000" stroke-width="2" stroke-miterlimit="10" x1="115.6" y1="152.6" x2="120.8" y2="153.6"/>
	<line fill="none" stroke="#000000" stroke-width="2" stroke-miterlimit="10" x1="114.9" y1="155.1" x2="120.4" y2="156.3"/>
	<path fill="none" stroke="#000000" stroke-width="2" stroke-miterlimit="10" d="M119.6,148.1c2.5-11.8,5.3-24.8,5.3-24.8l7.2,1.2
		c0,0-2.8,11.7-5.5,23"/>
	<path fill="none" stroke="#000000" stroke-width="2" stroke-miterlimit="10" d="M110.5,180.1c-0.3-4-0.3-13.2,5-13.2
		c0,0,0.8-3.6,1.9-8.6"/>
	<path fill="none" stroke="#000000" stroke-width="2" stroke-miterlimit="10" d="M123.6,160.1c-1.1,4.6-1.9,7.8-1.9,7.8
		s1.6,3.6,1.4,7.6"/>
	<path fill="none" stroke="#000000" stroke-width="2" stroke-miterlimit="10" d="M230.3,133.8l11.2,31.8l-16.2,21.5l-10.5,1.2
		l-11.5,13.2l10.2,8.2l15.5-10.1l1.2-6.1l26.3-27.7c-3.2-12.7-19.7-47.2-19.7-47.2l-43.8,12.2l-22.5,36.2l17.7,20.2"/>
	<path fill="none" stroke="#000000" stroke-width="2" stroke-miterlimit="10" d="M193.6,183.6c0.2-0.7-8.3-17-8.3-17.5
		s9.2-14,9.2-14l7.7,33"/>
	<path fill="none" stroke="#000000" stroke-width="2" stroke-miterlimit="10" d="M190.9,198.6c0-0.5-6.5-8.8-6.5-8.8l3.2-3.5
		l8.7-4.3l6.6,4.2l-2.7,12.5H190.9z"/>
	<line fill="none" stroke="#000000" stroke-width="2" stroke-miterlimit="10" x1="193.7" y1="198.6" x2="190" y2="190.3"/>
	<line fill="none" stroke="#000000" stroke-width="2" stroke-miterlimit="10" x1="195.8" y1="198.6" x2="194.9" y2="188.9"/>
	<line fill="none" stroke="#000000" stroke-width="2" stroke-miterlimit="10" x1="198.3" y1="198.6" x2="198.8" y2="188.9"/>
	<path fill="none" stroke="#000000" stroke-width="2" stroke-miterlimit="10" d="M187.2,193.4c-10.2,0.9-19.8,1.7-19.8,1.7
		s11.8,13.2,37.5,4.4"/>
	<path fill="none" stroke="#000000" stroke-width="2" stroke-miterlimit="10" d="M212.1,191.4c0,0-4.2,0.4-10,0.8"/>
	<line fill="none" stroke="#000000" stroke-width="2" stroke-miterlimit="10" x1="206.5" y1="203.5" x2="209.8" y2="200.7"/>
	<line fill="none" stroke="#000000" stroke-width="2" stroke-miterlimit="10" x1="209.8" y1="206.1" x2="212.1" y2="203.5"/>
	<line fill="none" stroke="#000000" stroke-width="2" stroke-miterlimit="10" x1="212.1" y1="208.1" x2="214.8" y2="205.2"/>
	<path fill="none" stroke="#000000" stroke-width="2" stroke-miterlimit="10" d="M244.8,178c0,0,0.2,13.2,0,14.1l4.8,10"/>
	<line fill="none" stroke="#000000" stroke-width="2" stroke-miterlimit="10" x1="244.8" y1="192.1" x2="229.9" y2="194.4"/>
	<path fill="none" stroke="#000000" stroke-width="2" stroke-miterlimit="10" d="M200.9,200.7c0.8,1.2,1.2,2.7,1.2,4.2
		c0,4.4-3.6,8-8,8c-4.4,0-8-3.6-8-8c0-0.6,0.1-1.2,0.2-1.7"/>
	<ellipse fill="none" stroke="#000000" stroke-width="2" stroke-miterlimit="10" cx="185.5" cy="223.8" rx="10.3" ry="8.1"/>
	<ellipse fill="none" stroke="#000000" stroke-width="2" stroke-miterlimit="10" cx="169.8" cy="214.9" rx="5.4" ry="4.3"/>
	<path fill="none" stroke="#000000" stroke-width="2" stroke-miterlimit="10" d="M31.3,202.1c0,0,7,0,18.6,0"/>
	<path fill="none" stroke="#000000" stroke-width="2" stroke-miterlimit="10" d="M128.3,202.1c18,0,36.6,0,54,0"/>
	<path fill="none" stroke="#000000" stroke-width="2" stroke-miterlimit="10" d="M224.6,202.1c22.2,0,37.2,0,37.2,0"/>
</g>
<g id="Layer_3">
	<path opacity="0" fill="none" stroke="#27AAE1" stroke-width="25" stroke-miterlimit="10" d="M80.4,53.4c59.6,3.8,119.3,5,179,3.6
		c-17.6,2.9-35.4,4.1-53.2,5.3c-46.2,3-92.4,5.8-138.6,8.3c19,5.8,39.2,6.1,59.1,6.3c30.8,0.4,61.7,0.8,92.5,0.8
		c-53.3,3.7-106.9,2.9-160.3,2.2C115,95.7,174.4,94.7,232.7,93.6c-53,4.7-106.3,6.7-159.6,6.1c-7.9-0.1-15.9-0.2-23.5,1.8
		c6.8,3.4,14.7,4.1,22.3,4.7c53.1,3.7,124.4,4.9,177.6,4.2c-51.8,7.7-122.5,1.8-174.9,2.1c-4.7,0-10.3,0.6-12.4,4.8
		c30,2.2,60.1,2.7,90.1,1.5c0.3-0.9,0.6-1.8,0.9-2.7c27.4,2.1,54.8,2.5,82.2,1c-19.9,7.7-41.3,10.6-62.5,13.5
		c-37.3,5.1-74.8,10.2-112.5,9.6c-6.8-0.1-13.9-0.3-19.7,3.2c49.2,1.7,98.4,6.1,147.6,6c11.9,0,23.8-0.3,35.3-3.2
		c4.8-1.2,9.5-2.8,14.4-3s10.2,1.5,13,5.6c-13.7,7.5-29.8,8.8-45.4,9.7c-49.1,2.9-98.4,3-147.6,0.5c-11.7-0.6-23.7-1.3-34.9,2.3
		c-0.9,0.3-1.8,0.6-2.3,1.4c-1.8,2.5,2.2,5.2,5.3,5.7c53.9,9.3,109.1,11.3,163.6,5.9c21.7-2.1,43.3-5.4,65.1-5.8
		c2.8,0,6.6,1.1,6.2,3.8c-9.1,5-19.5,7.1-29.8,8.4c-19.5,2.5-39.1,2.6-58.8,2.6c-34.7,0.1-69.5,0.1-104.2,0.2
		c-9.8,0-19.7,0-29.2,2.4c-1.9,0.5-4.3,1.5-4.3,3.5c0,0.9,0.5,1.8,1,2.5c2.8,3.4,7.7,4.1,12.1,4.5c34.6,3.3,69.3,4.9,104,4.7
		c10.9-0.1,21.7-0.3,32.5-1.4c27.6-2.9,55.3-11.7,82.7-6.7c-5.7,5.6-13.9,7.9-21.8,9.7c-68.7,15.7-140.2,12.4-210.6,9.1"/>
</g>
</svg>
