<?xml version="1.0" encoding="utf-8"?>
<!-- Generator: Adobe Illustrator 21.0.0, SVG Export Plug-In . SVG Version: 6.00 Build 0)  -->
<!DOCTYPE svg PUBLIC "-//W3C//DTD SVG 1.0//EN" "http://www.w3.org/TR/2001/REC-SVG-20010904/DTD/svg10.dtd">
<svg version="1.0" id="Layer_1" xmlns="http://www.w3.org/2000/svg" xmlns:xlink="http://www.w3.org/1999/xlink" x="0px" y="0px"
	 width="288px" height="288px" viewBox="0 0 288 288" enable-background="new 0 0 288 288" xml:space="preserve">
<ellipse transform="matrix(6.972634e-02 -0.9976 0.9976 6.972634e-02 11.8512 94.4499)" fill="none" stroke="#000000" stroke-width="2" stroke-miterlimit="10" cx="56.6" cy="40.9" rx="21.4" ry="13.8"/>
<ellipse transform="matrix(5.247882e-02 -0.9986 0.9986 5.247882e-02 69.0654 154.2834)" fill="none" stroke="#000000" stroke-width="2" stroke-miterlimit="10" cx="115.8" cy="40.7" rx="23.3" ry="14.3"/>
<ellipse transform="matrix(0.9998 -1.853455e-02 1.853455e-02 0.9998 -0.7405 3.2988)" fill="none" stroke="#000000" stroke-width="2" stroke-miterlimit="10" cx="177.6" cy="41.6" rx="14.3" ry="23.3"/>
<ellipse transform="matrix(0.9976 -6.972634e-02 6.972634e-02 0.9976 -2.5328 16.6412)" fill="none" stroke="#000000" stroke-width="2" stroke-miterlimit="10" cx="237.1" cy="44.6" rx="13.8" ry="21.4"/>
<polyline fill="none" stroke="#000000" stroke-width="2" stroke-miterlimit="10" points="51.5,61.2 51.2,67.1 58.6,67.5 60.1,61.2 
	"/>
<path fill="none" stroke="#000000" stroke-width="2" stroke-miterlimit="10" d="M68.4,141.7l-30.3-1.2C33.4,115.2,41.4,66,41.4,66
	l27,3.1C61.5,89.5,68.4,141.7,68.4,141.7z"/>
<path fill="none" stroke="#000000" stroke-width="2" stroke-miterlimit="10" d="M65.4,96.5c10,10.1,4.8,47,4.8,47l5.3,2.7
	c14.6-49.9-7.1-76.1-7.1-76.1"/>
<line fill="none" stroke="#000000" stroke-width="2" stroke-miterlimit="10" x1="70.4" y1="108.8" x2="80.1" y2="103.9"/>
<path fill="none" stroke="#000000" stroke-width="2" stroke-miterlimit="10" d="M36.5,123.8L16,93.7C22.6,81.9,41.3,66,41.3,66"/>
<line fill="none" stroke="#000000" stroke-width="2" stroke-miterlimit="10" x1="21.6" y1="101.9" x2="38.8" y2="84.9"/>
<line fill="none" stroke="#000000" stroke-width="2" stroke-miterlimit="10" x1="37.1" y1="104.5" x2="30.7" y2="93.7"/>
<polygon fill="none" stroke="#000000" stroke-width="2" stroke-miterlimit="10" points="70.2,143 68,146.2 65.8,169.2 69.4,169.2 
	75.4,160.1 76.2,146.2 "/>
<path fill="none" stroke="#000000" stroke-width="2" stroke-miterlimit="10" d="M36.5,124.1l-14-4.3l-6.5,6.9c0,0,12.4,6.9,12.6,7.1
	c0.3,0.2,7.9-2.7,7.9-2.7"/>
<path fill="none" stroke="#000000" stroke-width="2" stroke-miterlimit="10" d="M52.5,141.7L33.9,247.1h-5.2
	c2-52.7,9.4-106.6,9.4-106.6"/>
<polyline fill="none" stroke="#000000" stroke-width="2" stroke-miterlimit="10" points="51.7,146.2 52.5,237.4 59.5,237.4 
	68.4,141.7 "/>
<path fill="none" stroke="#000000" stroke-width="2" stroke-miterlimit="10" d="M51.7,238.3l14.2,16.1l13.5-8.1c0,0-20.1-8-20.5-8
	H51.7z"/>
<polygon fill="none" stroke="#000000" stroke-width="2" stroke-miterlimit="10" points="24.8,263.9 8.4,257.3 26.8,247.6 
	34.2,247.1 "/>
<polyline fill="none" stroke="#000000" stroke-width="2" stroke-miterlimit="10" points="109.8,62.3 109.8,69.7 117.3,69.7 
	118.3,63.4 "/>
<polyline fill="none" stroke="#000000" stroke-width="2" stroke-miterlimit="10" points="173.3,63.6 173.3,72.6 181,72.7 
	182.5,63.6 "/>
<polyline fill="none" stroke="#000000" stroke-width="2" stroke-miterlimit="10" points="233.6,64.9 235.1,71.2 242.5,70.8 
	242.2,64.9 "/>
<path fill="none" stroke="#000000" stroke-width="2" stroke-miterlimit="10" d="M95.2,74.6c-0.2-3.3-0.3-5.2-0.3-5.2
	s26.5-0.4,37.7,4.5l-7.1,65.8l-26.7-2C98.8,137.7,96.3,94.7,95.2,74.6"/>
<path fill="none" stroke="#000000" stroke-width="2" stroke-miterlimit="10" d="M94.9,68.8c0,0-0.5,3.3-1.2,8.1"/>
<path fill="none" stroke="#000000" stroke-width="2" stroke-miterlimit="10" d="M93.7,76.9c-1.5,9.8-5.2,35.6-5.2,35.6l3.8,27
	l4.7-1.6l0.2-29.7"/>
<polyline fill="none" stroke="#000000" stroke-width="2" stroke-miterlimit="10" points="132.6,73.8 142.4,113.9 140.6,141.8 
	133.9,140 132.6,115.7 129.1,105.9 "/>
<line fill="none" stroke="#000000" stroke-width="2" stroke-miterlimit="10" x1="132.6" y1="115.7" x2="142.2" y2="113.2"/>
<polyline fill="none" stroke="#000000" stroke-width="2" stroke-miterlimit="10" points="92,138.9 90.9,152.4 95.2,160.8 
	98.9,160.8 "/>
<polygon fill="none" stroke="#000000" stroke-width="2" stroke-miterlimit="10" points="134,140.4 131.5,151.7 136.7,164.9 
	143.4,159.4 140.7,142.2 "/>
<path fill="none" stroke="#000000" stroke-width="2" stroke-miterlimit="10" d="M159.2,96.7c0.4-12.3,0.7-22.6,0.6-24.1
	c0,0,19.8-0.4,33.7,2.5c0,0-0.3,10.7-0.8,23.6"/>
<path fill="none" stroke="#000000" stroke-width="2" stroke-miterlimit="10" d="M159.8,72.7c0,0-5.4,11.7-9.7,21.1"/>
<path fill="none" stroke="#000000" stroke-width="2" stroke-miterlimit="10" d="M148.7,96.8c-2.3,5.1-4.1,8.9-4.1,8.9
	s12,13.2,40.3,2.6"/>
<path fill="none" stroke="#000000" stroke-width="2" stroke-miterlimit="10" d="M192.9,74.9c0,0,10.4,20.5,11.5,37.7l-42.6-9.4
	l-9.6,1.5l-4.9-11.1l14.5,3l35,1.8"/>
<polyline fill="none" stroke="#000000" stroke-width="2" stroke-miterlimit="10" points="192.9,92.5 186.1,90.3 179.2,97.4 "/>
<path fill="none" stroke="#000000" stroke-width="2" stroke-miterlimit="10" d="M192.3,110.8c-0.5,16.9-1.1,33.4-1.1,33.4l-33.7-1.1
	c0,0,0.6-15.4,1.1-31.9"/>
<path fill="none" stroke="#000000" stroke-width="2" stroke-miterlimit="10" d="M225.3,72.8l27-3.1c0,0,8,49.2,3.3,74.5l-30.3,1.2
	C225.3,145.4,232.2,93.2,225.3,72.8z"/>
<path fill="none" stroke="#000000" stroke-width="2" stroke-miterlimit="10" d="M225.3,73.8c0,0-21.7,26.2-7.1,76.1l5.3-2.7
	c0,0-5.2-36.9,4.8-47"/>
<line fill="none" stroke="#000000" stroke-width="2" stroke-miterlimit="10" x1="213.6" y1="107.6" x2="223.3" y2="112.5"/>
<path fill="none" stroke="#000000" stroke-width="2" stroke-miterlimit="10" d="M252.4,69.7c0,0,18.7,15.9,25.3,27.7l-20.5,30.1"/>
<line fill="none" stroke="#000000" stroke-width="2" stroke-miterlimit="10" x1="254.9" y1="88.6" x2="272.1" y2="105.6"/>
<line fill="none" stroke="#000000" stroke-width="2" stroke-miterlimit="10" x1="263" y1="97.4" x2="256.6" y2="108.2"/>
<polygon fill="none" stroke="#000000" stroke-width="2" stroke-miterlimit="10" points="217.5,149.9 218.3,163.8 224.3,172.9 
	227.9,172.9 225.7,149.9 223.5,146.7 "/>
<path fill="none" stroke="#000000" stroke-width="2" stroke-miterlimit="10" d="M257.2,134.8c0,0,7.6,2.9,7.9,2.7
	c0.2-0.2,12.6-7.1,12.6-7.1l-6.5-6.9l-14,4.3"/>
<polyline fill="none" stroke="#000000" stroke-width="2" stroke-miterlimit="10" points="98.7,137.5 98.7,240.2 106.7,240.2 
	112.8,147.2 "/>
<polyline fill="none" stroke="#000000" stroke-width="2" stroke-miterlimit="10" points="125.5,139.5 131.7,242.8 125.5,244.1 
	111.7,138.9 "/>
<path fill="none" stroke="#000000" stroke-width="2" stroke-miterlimit="10" d="M255.6,144.2c0,0,7.4,53.9,9.4,106.6h-5.2
	l-18.6-105.4"/>
<path fill="none" stroke="#000000" stroke-width="2" stroke-miterlimit="10" d="M159.2,143.1c0,0,1.4,50.1,2.8,99.6h5.9l7-98.5"/>
<polyline fill="none" stroke="#000000" stroke-width="2" stroke-miterlimit="10" points="191.2,144.2 191.2,242.7 184.9,242.7 
	176.3,144.2 "/>
<polyline fill="none" stroke="#000000" stroke-width="2" stroke-miterlimit="10" points="225.3,145.4 234.2,241.1 241.2,241.1 
	242,149.9 "/>
<polygon fill="none" stroke="#000000" stroke-width="2" stroke-miterlimit="10" points="98.7,241.1 84,254.6 100.9,260.6 
	107.5,241.1 "/>
<polygon fill="none" stroke="#000000" stroke-width="2" stroke-miterlimit="10" points="123.7,244.7 133.2,242.7 147.2,257.6 
	129.2,265.3 "/>
<polygon fill="none" stroke="#000000" stroke-width="2" stroke-miterlimit="10" points="162.4,243.5 148.1,254 163.8,262.7 
	169.4,244.1 "/>
<polygon fill="none" stroke="#000000" stroke-width="2" stroke-miterlimit="10" points="184.9,243.5 192.2,243.5 213.1,254 
	199.9,264 "/>
<path fill="none" stroke="#000000" stroke-width="2" stroke-miterlimit="10" d="M234.8,242c-0.4,0-20.5,8-20.5,8l13.5,8.1L242,242
	H234.8z"/>
<polygon fill="none" stroke="#000000" stroke-width="2" stroke-miterlimit="10" points="259.5,250.8 266.9,251.3 285.3,261 
	268.9,267.6 "/>
</svg>
