<?xml version="1.0" encoding="utf-8"?>
<!-- Generator: Adobe Illustrator 20.1.0, SVG Export Plug-In . SVG Version: 6.00 Build 0)  -->
<!DOCTYPE svg PUBLIC "-//W3C//DTD SVG 1.0//EN" "http://www.w3.org/TR/2001/REC-SVG-20010904/DTD/svg10.dtd">
<svg version="1.0" xmlns="http://www.w3.org/2000/svg" xmlns:xlink="http://www.w3.org/1999/xlink" x="0px" y="0px" width="288px"
	 height="288px" viewBox="0 0 288 288" enable-background="new 0 0 288 288" xml:space="preserve">
<g id="Color">
	<path fill="#27AAE1" d="M34.6,17.4c0,0-8,16.6-5.5,27.2S35.5,62.1,41.6,64c6.1,2,0,0,0,0s-16,1.4-19.3-21s0,0,0,0
		S17.5,22.1,34.6,17.4"/>
	<polygon fill="#27AAE1" points="41.6,64 42.8,71.3 39,71.3 37.2,64 	"/>
	<polygon fill="#27AAE1" points="38.1,72.8 38.1,140.4 42.8,146.7 35.5,147.2 25.9,73.8 	"/>
	<path fill="#27AAE1" d="M27.8,87.5c0,0-18.9,17.9-19.6,26.9l6.1,4.4l7.6-10.6l-3.3-3.6l5.7-7.5l4.2-3.6L27.8,87.5z"/>
	<polygon fill="#27AAE1" points="30.8,136.5 30.8,141 35.4,139.7 35.4,136.2 	"/>
	<polygon fill="#27AAE1" points="61.7,83.2 83.2,104.5 97.7,81 83.2,108.2 61.3,87.5 	"/>
	<polygon fill="#27AAE1" points="42.8,146.7 41.7,245.6 35.5,147.2 	"/>
	<polygon fill="#27AAE1" points="54.3,146 58.6,245.6 49.1,147.2 	"/>
	<path fill="#27AAE1" d="M40,248.5c-1.1-0.8-20.9,14.2-20.9,14.2l22.5,9l7.5-20.9L40,248.5z"/>
	<polygon fill="#27AAE1" points="61.3,248.5 68.3,250.1 78.7,262.7 61.3,273.5 58.6,250.1 	"/>
</g>
<g id="Lines">
	
		<ellipse transform="matrix(0.989 -0.148 0.148 0.989 -5.6042 6.0861)" fill="none" stroke="#000000" stroke-width="2" stroke-miterlimit="10" cx="38.1" cy="40.7" rx="16" ry="23.6"/>
	
		<ellipse transform="matrix(5.247766e-02 -0.9986 0.9986 5.247766e-02 69.1148 154.2487)" fill="none" stroke="#000000" stroke-width="2" stroke-miterlimit="10" cx="115.8" cy="40.7" rx="23.3" ry="14.3"/>
	
		<ellipse transform="matrix(0.9998 -1.853403e-02 1.853403e-02 0.9998 -0.7405 3.2987)" fill="none" stroke="#000000" stroke-width="2" stroke-miterlimit="10" cx="177.6" cy="41.6" rx="14.3" ry="23.3"/>
	
		<ellipse transform="matrix(0.9976 -6.972871e-02 6.972871e-02 0.9976 -2.5328 16.6417)" fill="none" stroke="#000000" stroke-width="2" stroke-miterlimit="10" cx="237.1" cy="44.6" rx="13.8" ry="21.4"/>
	<path fill="none" stroke="#000000" stroke-width="2" stroke-miterlimit="10" d="M37.2,63.3c0.7,3.3,1.8,8,1.8,8l7-0.3
		c0,0,0-4.5,0-8.1"/>
	<polyline fill="none" stroke="#000000" stroke-width="2" stroke-miterlimit="10" points="109.8,62.3 109.8,69.7 117.3,69.7 
		118.3,63.4 	"/>
	<polyline fill="none" stroke="#000000" stroke-width="2" stroke-miterlimit="10" points="173.3,63.6 173.3,72.6 181,72.7 
		182.5,63.6 	"/>
	<polyline fill="none" stroke="#000000" stroke-width="2" stroke-miterlimit="10" points="233.6,64.9 235.1,71.2 242.5,70.8 
		242.2,64.9 	"/>
	<path fill="none" stroke="#000000" stroke-width="2" stroke-miterlimit="10" d="M25.9,73.8c1.8,0,35.4-4.5,35.4-4.5l2.1,76.1
		l-27.9,1.8L25.9,73.8z"/>
	<path fill="none" stroke="#000000" stroke-width="2" stroke-miterlimit="10" d="M25.9,73.8c0,0-19.6,23.5-22.3,37.4l29.9,21.3"/>
	<path fill="none" stroke="#000000" stroke-width="2" stroke-miterlimit="10" d="M11,116.5c0,0,9.2-17.1,17.1-23"/>
	<line fill="none" stroke="#000000" stroke-width="2" stroke-miterlimit="10" x1="19.2" y1="104.6" x2="32" y2="120.5"/>
	<polyline fill="none" stroke="#000000" stroke-width="2" stroke-miterlimit="10" points="33.2,135.8 19.1,134.9 21.9,144.1 
		33.7,140 	"/>
	<polyline fill="none" stroke="#000000" stroke-width="2" stroke-miterlimit="10" points="61.3,69.3 82.4,95 95.5,73.8 111.2,74.7 
		111.8,81.5 97.7,81 83.9,109.1 61.6,87 	"/>
	<line fill="none" stroke="#000000" stroke-width="2" stroke-miterlimit="10" x1="82.4" y1="95" x2="83.9" y2="109.1"/>
	<path fill="none" stroke="#000000" stroke-width="2" stroke-miterlimit="10" d="M95.2,74.6c-0.2-3.3-0.3-5.2-0.3-5.2
		s26.5-0.4,37.7,4.5l-7.1,65.8l-26.7-2c0,0-1.8-32.9-2.9-53"/>
	<path fill="none" stroke="#000000" stroke-width="2" stroke-miterlimit="10" d="M94.9,68.8c0,0-0.5,3.3-1.2,8.1"/>
	<path fill="none" stroke="#000000" stroke-width="2" stroke-miterlimit="10" d="M91.2,94.3c-1.5,9.8-2.7,18.2-2.7,18.2l3.8,27
		l4.7-1.6l0.2-29.7"/>
	<polyline fill="none" stroke="#000000" stroke-width="2" stroke-miterlimit="10" points="132.6,73.8 142.4,113.9 140.6,141.8 
		133.9,140 132.6,115.7 129.1,105.9 	"/>
	<line fill="none" stroke="#000000" stroke-width="2" stroke-miterlimit="10" x1="132.6" y1="115.7" x2="142.2" y2="113.2"/>
	<polyline fill="none" stroke="#000000" stroke-width="2" stroke-miterlimit="10" points="92,138.9 90.9,152.4 95.2,160.8 
		98.9,160.8 	"/>
	<polygon fill="none" stroke="#000000" stroke-width="2" stroke-miterlimit="10" points="134,140.4 131.5,151.7 136.7,164.9 
		143.4,159.4 140.7,142.2 	"/>
	<path fill="none" stroke="#000000" stroke-width="2" stroke-miterlimit="10" d="M159.2,96.7c0.4-12.3,0.7-22.6,0.6-24.1
		c0,0,19.8-0.4,33.7,2.5c0,0-0.3,10.7-0.8,23.6"/>
	<path fill="none" stroke="#000000" stroke-width="2" stroke-miterlimit="10" d="M159.8,72.7c0,0-5.4,11.7-9.7,21.1"/>
	<path fill="none" stroke="#000000" stroke-width="2" stroke-miterlimit="10" d="M148.7,96.8c-2.3,5.1-4.1,8.9-4.1,8.9
		s12,13.2,40.3,2.6"/>
	<path fill="none" stroke="#000000" stroke-width="2" stroke-miterlimit="10" d="M192.9,74.9c0,0,10.4,20.5,11.5,37.7l-42.6-9.4
		l-9.6,1.5l-4.9-11.1l14.5,3l35,1.8"/>
	<polyline fill="none" stroke="#000000" stroke-width="2" stroke-miterlimit="10" points="192.9,92.5 186.1,90.3 179.2,97.4 	"/>
	<path fill="none" stroke="#000000" stroke-width="2" stroke-miterlimit="10" d="M192.3,110.8c-0.5,16.9-1.1,33.4-1.1,33.4
		l-33.7-1.1c0,0,0.6-15.4,1.1-31.9"/>
	<path fill="none" stroke="#000000" stroke-width="2" stroke-miterlimit="10" d="M225.3,72.8l27-3.1c0,0,8,49.2,3.3,74.5l-30.3,1.2
		C225.3,145.4,232.2,93.2,225.3,72.8z"/>
	<path fill="none" stroke="#000000" stroke-width="2" stroke-miterlimit="10" d="M225.3,73.8c0,0-21.7,26.2-7.1,76.1l5.3-2.7
		c0,0-5.2-36.9,4.8-47"/>
	<line fill="none" stroke="#000000" stroke-width="2" stroke-miterlimit="10" x1="213.6" y1="107.6" x2="223.3" y2="112.5"/>
	<path fill="none" stroke="#000000" stroke-width="2" stroke-miterlimit="10" d="M252.4,69.7c0,0,18.7,15.9,25.3,27.7l-20.5,30.1"/>
	<line fill="none" stroke="#000000" stroke-width="2" stroke-miterlimit="10" x1="254.9" y1="88.6" x2="272.1" y2="105.6"/>
	<line fill="none" stroke="#000000" stroke-width="2" stroke-miterlimit="10" x1="263" y1="97.4" x2="256.6" y2="108.2"/>
	<polygon fill="none" stroke="#000000" stroke-width="2" stroke-miterlimit="10" points="217.5,149.9 218.3,163.8 224.3,172.9 
		227.9,172.9 225.7,149.9 223.5,146.7 	"/>
	<path fill="none" stroke="#000000" stroke-width="2" stroke-miterlimit="10" d="M257.2,134.8c0,0,7.6,2.9,7.9,2.7
		c0.2-0.2,12.6-7.1,12.6-7.1l-6.5-6.9l-14,4.3"/>
	<polyline fill="none" stroke="#000000" stroke-width="2" stroke-miterlimit="10" points="35.4,147.2 41.7,245.6 46,245.6 
		49.1,147.2 58.6,245.6 63.4,245.6 63.4,145.4 	"/>
	<polyline fill="none" stroke="#000000" stroke-width="2" stroke-miterlimit="10" points="98.7,137.5 98.7,240.2 106.7,240.2 
		112.8,147.2 	"/>
	<polyline fill="none" stroke="#000000" stroke-width="2" stroke-miterlimit="10" points="125.5,139.5 131.7,242.8 125.5,244.1 
		111.7,138.9 	"/>
	<path fill="none" stroke="#000000" stroke-width="2" stroke-miterlimit="10" d="M255.6,144.2c0,0,7.4,53.9,9.4,106.6h-5.2
		l-18.6-105.4"/>
	<path fill="none" stroke="#000000" stroke-width="2" stroke-miterlimit="10" d="M159.2,143.1c0,0,1.4,50.1,2.8,99.6h5.9l7-98.5"/>
	<polyline fill="none" stroke="#000000" stroke-width="2" stroke-miterlimit="10" points="191.2,144.2 191.2,242.7 184.9,242.7 
		176.3,144.2 	"/>
	<polyline fill="none" stroke="#000000" stroke-width="2" stroke-miterlimit="10" points="225.3,145.4 234.2,241.1 241.2,241.1 
		242,149.9 	"/>
	<polygon fill="none" stroke="#000000" stroke-width="2" stroke-miterlimit="10" points="41.1,246.5 18.8,259.3 41.1,268.7 
		47.2,247.3 	"/>
	<polygon fill="none" stroke="#000000" stroke-width="2" stroke-miterlimit="10" points="57.9,246.5 60.9,270.6 78.7,259.6 
		64.7,246.5 	"/>
	<polygon fill="none" stroke="#000000" stroke-width="2" stroke-miterlimit="10" points="98.7,241.1 84,254.6 100.9,260.6 
		107.5,241.1 	"/>
	<polygon fill="none" stroke="#000000" stroke-width="2" stroke-miterlimit="10" points="123.7,244.7 133.2,242.7 147.2,257.6 
		129.2,265.3 	"/>
	<polygon fill="none" stroke="#000000" stroke-width="2" stroke-miterlimit="10" points="162.4,243.5 148.1,254 163.8,262.7 
		169.4,244.1 	"/>
	<polygon fill="none" stroke="#000000" stroke-width="2" stroke-miterlimit="10" points="184.9,243.5 192.2,243.5 213.1,254 
		199.9,264 	"/>
	<path fill="none" stroke="#000000" stroke-width="2" stroke-miterlimit="10" d="M234.8,242c-0.4,0-20.5,8-20.5,8l13.5,8.1L242,242
		H234.8z"/>
	<polygon fill="none" stroke="#000000" stroke-width="2" stroke-miterlimit="10" points="259.5,250.8 266.9,251.3 285.3,261 
		268.9,267.6 	"/>
	<path fill="none" stroke="#000000" stroke-width="2" stroke-miterlimit="10" d="M25.9,22.8c0,0,9.2,5.7,18.4-2.6"/>
	<path fill="none" stroke="#000000" stroke-width="2" stroke-miterlimit="10" d="M28.5,19.2c0,0,6,3.3,11.5-1.3"/>
	<path fill="none" stroke="#000000" stroke-width="2" stroke-miterlimit="10" d="M23.8,26.5c0,0,7.7,6,24.9-1.8"/>
</g>
<g id="Stroke">
	
		<path opacity="0" fill="none" stroke="#000000" stroke-width="14" stroke-linecap="round" stroke-linejoin="round" stroke-miterlimit="10" d="
		M37,13c-5.3,1.1-10.4,2.9-15.3,5.2c5.1,0.8,10.3,1.5,15.4,2.3c-5.5,1.7-10.9,3.5-16.4,5.2c-0.8,0.2-1.6,0.6-1.9,1.3
		c-0.6,1.5,1.6,2.6,3.3,2.7c4.1,0.4,8.2,0.9,12.3,1.3c-5.8,3.1-11.6,6.2-17.4,9.3c4.4,1.9,9.2,2.7,14,2.1
		c-3.6,3.7-7.5,7.1-11.7,10.1c5-0.1,9.9-0.2,14.9-0.3c-2.2,3.3-4.8,6.3-7.6,9c5.4,0,10.9,0,16.3,0c-2.7,2.1-5.8,3.8-9.1,5.1
		c2.4-0.2,4.8-0.3,7.1,0.5c2.2,0.8,4.2,2.9,4,5.3c-8.8,0-17.6,0.8-26.3,2.5c9.8,1.6,19.7,3.2,29.5,4.7c-14.7,1.2-29.5,2.4-43.9,5.9
		C15,89,26.8,87.5,38,86.2c24.6-2.7,49.5-3.8,74.2-3.1c-7.4,4.2-16.1,5.3-24.6,6C59.1,91.5,30.1,90.7,2,96.3
		c-3.3,0.7-7.3,2.3-7.3,5.6c36.9,2.2,74-11.6,110.4-4.8c-26.1,13.5-57.1,11.1-86.4,12c-10.4,0.3-21.2,1.3-30,6.8
		c-1.4,0.9-3,2.5-2.3,4c32-1.8,64.1-3.6,96.1-5.5c6.5-0.4,13.1-0.7,19.6,0.4c-11.3,9-26.4,11-40.8,12c-14.4,1-29.3,1.4-42.1,7.9
		c-2.3,1.2-4.9,3.7-3.5,5.9c14.1,0,28.2-0.1,42.3-0.1c6.7,0,13.8,0.1,19.7,3.4c-16.8,5.7-34.2,9.5-51.8,11.3c10.4,3,21.2,4.9,32,5.7
		c2.8,0.2,6.5,1,6.9,3.9c-12.8,4.4-26.2,4.8-39,9.2c13.5,1.9,27.4,7.9,40.9,9.9c-6.7,3.5-14.2,5.6-21.8,6.1
		c-4.9,0.3-11,0.7-12.8,5.3c11.9,2.2,23.7,4.4,35.6,6.7c-10.2,4.3-22.9,1.3-33.1,5.6c13.1,1.5,29.1,10.5,40.9,16.3
		c-19.7,1.6-37.2-4.7-56.9-3c0.3,3.2,1.6,12.8,4.7,13.6c20.5,5.7,43.5,5.7,60.6,18.4c-18.8,1.6-37.6-0.4-56.4-2.3
		c-7.7-0.8-15.4-1.6-23-2.4c25.1,9.8,51.8,11.9,78.1,17.9c-23.2,0-46.7,1.9-69.5-2.2"/>
</g>
</svg>
