<?xml version="1.0" encoding="utf-8"?>
<!-- Generator: Adobe Illustrator 20.1.0, SVG Export Plug-In . SVG Version: 6.00 Build 0)  -->
<!DOCTYPE svg PUBLIC "-//W3C//DTD SVG 1.0//EN" "http://www.w3.org/TR/2001/REC-SVG-20010904/DTD/svg10.dtd">
<svg version="1.0" xmlns="http://www.w3.org/2000/svg" xmlns:xlink="http://www.w3.org/1999/xlink" x="0px" y="0px" width="288px"
	 height="288px" viewBox="0 0 288 288" enable-background="new 0 0 288 288" xml:space="preserve">
<g id="Fill">
	<g>
		<path fill="#FFFFFF" d="M37.3,63.8c0.7,3.2,1.7,7.5,1.7,7.5l7-0.3c0,0,0-4.5,0-8.1l-1,0c6.7-3.4,10.6-13.5,8.9-24.6
			c-1.9-12.9-10.6-22.3-19.3-21c-8.7,1.3-14.3,12.8-12.3,25.7C23.9,53.8,30.2,62.2,37.3,63.8z"/>
		<path fill="#FFFFFF" d="M109.8,62.3v7.4h7.5l1-6.3l0,0c6.3-2.3,11.3-11.1,11.8-21.9c0.7-12.9-5.2-23.6-13.1-24
			c-7.9-0.4-14.8,9.7-15.5,22.5C101,50,104.5,58.8,109.8,62.3z"/>
		<path fill="#FFFFFF" d="M173.3,63.7v8.9l7.7,0.1l1.5-9.1c5.6-3.2,9.6-12,9.4-22.3c-0.2-12.9-6.8-23.2-14.7-23
			c-7.9,0.1-14.1,10.7-13.9,23.6C163.5,52,167.7,60.6,173.3,63.7z"/>
		<path fill="#FFFFFF" d="M233.7,64.9L233.7,64.9l1.4,6.3l7.4-0.4l-0.3-5.9c5.7-2.9,9.4-11.4,8.7-21.3c-0.8-11.8-7.7-20.9-15.3-20.4
			c-7.6,0.5-13.1,10.5-12.3,22.3C224,54.7,228.2,62.2,233.7,64.9z"/>
		<path fill="#FFFFFF" d="M11,116.5C11,116.5,11,116.5,11,116.5L11,116.5l22.5,16l-7.6-58.7c0,0-19.6,23.5-22.3,37.4L11,116.5z"/>
		<polygon fill="#FFFFFF" points="33.2,135.8 19.1,134.9 21.9,144.1 33.7,140 		"/>
		<path fill="#FFFFFF" d="M95.9,84.7c0.8,15.2,2.1,37.7,2.6,47.8l-1.6,1.8L95.9,84.7l-4.7,9.6c-1.5,9.8-2.7,18.2-2.7,18.2l3.8,27
			l-1.4,12.9l4.3,8.4h3.5v79.4h8l6.1-92.9l12.7,96.8l6.2-1.3l-6.2-103.2l3.6-33.6l3.5,9.7l1.3,24.3l6.7,1.8l1.8-27.9l-9.8-40.1
			l0,0.1c-11.2-4.9-37.7-4.5-37.7-4.5s0.1,1.8,0.3,4.9l-1.4,2.3l1.2-7.9c0,0-0.5,3.2-1.2,7.9L82.4,95L61.3,69.3
			c0,0-33.6,4.5-35.4,4.5l9.6,73.4l-0.1,0l6.3,98.4H46l3.1-98.4l9.5,98.4h4.8V145.4l-1.6-58.2l22.1,21.9L95.9,84.7L95.9,84.7z
			 M98.5,132.5c0.1,2.6,0.2,4.4,0.3,5l-0.1,0v8.6L98.5,132.5z M113.4,138.8l5.8,0.4l-5.8-0.3L113.4,138.8z"/>
		<polygon fill="#FFFFFF" points="134,140.4 131.5,151.7 136.7,164.9 143.4,159.4 140.7,142.2 		"/>
		<path fill="#FFFFFF" d="M204.4,112.6c-0.9-14.8-8.7-32-10.9-36.5c0-0.6,0-1,0-1c-0.2,0-0.4-0.1-0.6-0.1c0-0.1,0-0.1,0-0.1l0,0.1
			c-13.9-2.8-33.1-2.4-33.1-2.4c-1.3,2.9-6,13.2-9.9,21.5l-2.6-0.5l1.4,3.2c-2.3,5.1-4.1,8.9-4.1,8.9s4.4,4.8,14,6.3
			c-0.5,16.2-1.1,31.1-1.1,31.1l1.7,0.1c0,1.8,1.4,51,2.8,99.5h5.9l7-98.5l-14.2-1l30.5,1c0,0,0.6-18.3,1.1-34.3L204.4,112.6z"/>
		<path fill="#FFFFFF" d="M217.5,149.9l0.8,13.9l6,9.1h3.6l6.3,68.2h7l0.8-91.2l17.8,100.9h5.2c-2-52.7-9.4-106.6-9.4-106.6
			l-13.6,1.1l0-0.6l13.6-0.5c1-5.3,1.4-11.6,1.5-18.3l0.1,1.6l20.5-30.1c-6.6-11.8-25.3-27.7-25.3-27.7l0.1,1.4
			c-0.1-0.9-0.2-1.4-0.2-1.4l-27,3.1c6.9,20.4,0,72.6,0,72.6l0,0v0l0,0l0,0l1.1,11.5l-0.7-7l-2.2-3.2l-0.1,0
			c-0.6-4.3-4.5-37.1,4.9-46.5l-3-26.4c0,0-21.6,26.1-7.2,75.8L217.5,149.9z"/>
		<path fill="#FFFFFF" d="M257.2,134.8c0,0,7.6,2.9,7.9,2.7c0.2-0.2,12.6-7.1,12.6-7.1l-6.5-6.9l-14,4.3V134.8z"/>
		<polygon fill="#FFFFFF" points="184.9,242.7 191.2,242.7 191.2,144.2 176.3,144.2 		"/>
		<polygon fill="#FFFFFF" points="18.8,259.3 41.1,268.7 47.2,247.3 41.1,246.5 		"/>
		<polygon fill="#FFFFFF" points="57.9,246.5 60.9,270.6 78.7,259.6 64.7,246.5 		"/>
		<polygon fill="#FFFFFF" points="84,254.6 100.9,260.6 107.5,241.1 98.7,241.1 		"/>
		<polygon fill="#FFFFFF" points="123.7,244.7 129.2,265.3 147.2,257.6 133.2,242.7 		"/>
		<polygon fill="#FFFFFF" points="148.1,254 163.8,262.7 169.4,244.1 162.4,243.5 		"/>
		<polygon fill="#FFFFFF" points="184.9,243.5 199.9,264 213.1,254 192.2,243.5 		"/>
		<path fill="#FFFFFF" d="M214.3,250l13.5,8.1L242,242h-7.2C234.4,242,214.3,250,214.3,250z"/>
		<polygon fill="#FFFFFF" points="266.9,251.3 259.5,250.8 268.9,267.6 285.3,261 		"/>
	</g>
</g>
<g id="Stroke">
	
		<path opacity="0" fill="none" stroke="#000000" stroke-width="24" stroke-linecap="round" stroke-linejoin="round" stroke-miterlimit="10" d="
		M17.3,14.5c48,1.8,95.9,3.7,143.9,5.5c32.2,1.2,64.5,2.5,96.4,6.9c-6.6,3.6-14.4,4-21.9,4.2c-62.2,2-124.5,2.2-186.7,0.5
		C36.8,31.3,23.9,31,13.3,37c23.2,4.3,46.9,3.4,70.5,3.2c57.8-0.6,115.6,3,172.8,10.8c-5.1,5.1-13.1,5.7-20.3,5.8
		C164,58.2,89.6,41.4,20.6,63.2c86.8,1.1,173.6,1.1,260.4-0.1c-8.5,12.6-26.2,13.4-41.4,13.2c-87.4-1.4-174.9,2.6-261.8,11.9
		c-4.5,0.5-9.6,1.4-11.8,5.4c16.7,2,33.4,2.8,50.2,3.1c90.7,1.8,181.5-9.8,272.1-4c-18,10.2-40,8.8-60.6,7.7
		c-52-2.8-104.2-2.3-156.1,1.6c-32.2,2.4-64.6,6.2-95.2,16.3c88.4-2.8,176.8-5.7,265.2-8.5c15-0.5,31-0.7,43.7,7.2
		c-9.1,5.2-20.3,4.8-30.7,4.4c-80.8-2.9-161.5,5.7-241.8,14.7c-2.8,0.3-6.4,1.7-5.9,4.5c13.2,5,27.8,0.9,41.7-1.4
		c30.6-5.1,62-0.8,93,0c40.8,1.1,81.7-3.9,122.3-0.4c3.5,0.3,8.3,2.7,6.8,5.9c-88,14.6-180.6-5.6-265.9,20.4
		c35.7,12.4,74.6,8.7,112.2,5.8c55.5-4.2,111.1-6.3,166.7-6.1c-37.9,16.1-80.1,19-121.4,18.5s-82.6-4-123.6,0
		c-4,0.4-9.1,2.3-8.5,6.2c69-2.1,138.2-4.2,207.2-0.7c12.4,0.6,25.7,1.7,35.5,9.4c-83.5,15.6-170.3-1.1-254.1,12.8
		c4.2,7.4,13.9,9,22.4,9.5c77.5,5,155.2-11.1,232.7-5.6c-8.5,9.7-23,10.7-35.9,10.9c-68,0.8-136.6-3.9-203.7,7.2
		c17.4,6.8,36.6,6.9,55.2,7c42.6,0.1,85.2,0.3,127.9,0.4c20.2,0.1,40.6,0.1,60.6,3.1c-10.8,7.8-24.6,10.2-37.8,10.7
		c-20.6,0.8-41.1-2.5-61.6-4.5c-48.3-4.9-101.2-3.2-149.1,4.9c37,10,79.9,10.3,118.2,10.6c45.3,0.4,90.6,0.7,135.8-2.3"/>
</g>
</svg>
