<?xml version="1.0" encoding="utf-8"?>
<!-- Generator: Adobe Illustrator 21.0.0, SVG Export Plug-In . SVG Version: 6.00 Build 0)  -->
<!DOCTYPE svg PUBLIC "-//W3C//DTD SVG 1.0//EN" "http://www.w3.org/TR/2001/REC-SVG-20010904/DTD/svg10.dtd">
<svg version="1.0" xmlns="http://www.w3.org/2000/svg" xmlns:xlink="http://www.w3.org/1999/xlink" x="0px" y="0px" width="288px"
	 height="288px" viewBox="0 0 288 288" enable-background="new 0 0 288 288" xml:space="preserve">
<g id="Color">
	<g>
		<path d="M22.3,43.1c1.6,10.8,7.9,19.1,15,20.8c0.7,3.2,1.7,7.5,1.7,7.5l7-0.3c0,0,0-4.5,0-8.1l-1,0c6.7-3.4,10.6-13.5,8.9-24.6
			c-0.8-5.3-2.7-10-5.3-13.6c0,0,0.1,0,0.1,0l-0.1,0c-1.3-1.8-2.7-3.3-4.3-4.5c0,0,0,0,0,0l0,0c-3-2.3-6.3-3.3-9.7-2.8
			c-1.6,0.2-3,0.8-4.4,1.6l-1.7,0.2c0,0,0.3,0.2,0.9,0.4c-1.1,0.9-2.2,1.9-3.1,3.2l-0.4,0.1c0,0,0.1,0.1,0.3,0.1
			c-0.8,1.1-1.4,2.2-2,3.5l-0.4,0c0,0,0.1,0.1,0.3,0.2C22.1,31.2,21.4,37,22.3,43.1z"/>
		<path d="M109.8,62.4v7.3h7.5l1-6.3c6.3-2.3,11.3-11.1,11.8-21.9c0.7-12.9-5.2-23.6-13.1-24c-7.9-0.4-14.8,9.7-15.5,22.5
			C101,50.1,104.5,58.8,109.8,62.4z"/>
		<path d="M173.3,63.7v8.9l7.7,0.1l1.5-9.1c5.6-3.2,9.6-12,9.4-22.3c-0.2-12.9-6.8-23.2-14.7-23c-7.9,0.1-14.1,10.7-13.9,23.6
			C163.5,52,167.7,60.6,173.3,63.7z"/>
		<path d="M233.7,64.9L233.7,64.9l1.4,6.3l7.4-0.4l-0.3-5.9c5.7-2.9,9.4-11.4,8.7-21.3c-0.8-11.8-7.7-20.9-15.3-20.4
			c-7.6,0.5-13.1,10.5-12.3,22.3C224,54.7,228.2,62.2,233.7,64.9z"/>
		<path d="M11,116.5C11,116.5,11,116.5,11,116.5L11,116.5l22.5,16l-7.6-58.7c0,0-19.6,23.5-22.3,37.4L11,116.5z"/>
		<polygon points="33.2,135.8 19.1,134.9 21.9,144.1 33.7,140 		"/>
		<path d="M95.9,84.7C96.3,91.6,95.5,76.6,95.9,84.7l-4.7,9.6c-1.5,9.8-2.7,18.2-2.7,18.2l3.8,27l4.7-1.6l0.2-29.5
			c0.8,14.5,1.5,27.7,1.6,29.1l-0.1-0.1v22.7L92,138.9l-1.1,13.5l4.3,8.4h3.5v79.4h8l4.5-91l14.3,94.9l6.2-1.3l-6.2-103.2l3.6-33.6
			l3.5,9.7l1.3,24.3l6.7,1.8l1.8-27.9l-9.8-40.1l0,0.1c-11.2-4.9-37.7-4.5-37.7-4.5s0.1,1.8,0.3,4.9l-1.4,2.3l1.2-7.9
			c0,0-0.5,3.2-1.2,7.9L82.4,95L61.3,69.3c0,0-33.6,4.5-35.4,4.5l9.6,73.4l-0.1,0l6.3,98.4H46l3.1-98.4l9.5,98.4h4.8V145.4
			l-1.6-58.2l22.1,21.9L95.9,84.7L95.9,84.7z M99,137.7l20.1,1.5l-7.4-0.3l-4.2-6.4L99,137.7z"/>
		<polygon points="134,140.4 131.5,151.7 136.7,164.9 143.4,159.4 140.7,142.2 		"/>
		<path d="M150.1,93.8l9.7-21.1C159.8,72.7,154.4,84.4,150.1,93.8z"/>
		<path d="M176.1,111c2.8-0.6,5.7-1.5,8.8-2.7l-1.2,2.6l20.7,1.7c-0.9-14.8-8.7-32-10.9-36.5c0-0.6,0-1,0-1c-0.2,0-0.4-0.1-0.6-0.1
			c0-0.1,0-0.1,0-0.1l0,0.1c-13.9-2.8-33.1-2.4-33.1-2.4c0.1,1.5-0.2,11.5-0.6,23.5l0.6-23.5l-11.1,24.2l0,0
			c-2.3,5.1-4.1,8.9-4.1,8.9s4.4,4.8,14,6.3c-0.5,16.2-1.1,31.1-1.1,31.1l1.7,0.1c0,1.8,1.4,51,2.8,99.5h5.9l7-98.5l-14.2-1l30.5,1
			c0,0,0.6-16.5,1.1-33.4L176.1,111z M192.8,95.3l-0.1,2.9c0.3-8.6,0.6-16.2,0.7-20.2L192.8,95.3z"/>
		<path d="M217.5,149.9l0.8,13.9l6,9.1h3.6l6.3,68.2h7l0.8-86.9l17.8,96.6h5.2c-2-52.7-9.4-106.6-9.4-106.6l-12.1-3.8l-8.2-3.9
			l-9.9,8.9l30.3-1.2c1-5.3,1.4-11.6,1.5-18.3l0.1,1.6l20.5-30.1c-6.6-11.8-25.3-27.7-25.3-27.7l0.1,1.4c-0.1-0.9-0.2-1.4-0.2-1.4
			l-27,3.1c6.9,20.4,0,72.6,0,72.6l0,0v0l0,0l0,0l1.1,11.5l-0.7-7l-2.2-3.2l-0.1,0c-0.6-4.3-4.5-37.1,4.9-46.5l-3-26.4
			c0,0-21.6,26.1-7.2,75.8L217.5,149.9z"/>
		<path d="M257.2,134.8c0,0,7.6,2.9,7.9,2.7c0.2-0.2,12.6-7.1,12.6-7.1l-6.5-6.9l-14,4.3V134.8z"/>
		<polygon points="184.9,242.7 191.2,242.7 191.2,144.2 176.3,144.2 		"/>
		<polygon points="18.8,259.3 41.1,268.7 47.2,247.3 41.1,246.5 		"/>
		<polygon points="57.9,246.5 60.9,270.6 78.7,259.6 64.7,246.5 		"/>
		<polygon points="84,254.6 100.9,260.6 107.5,241.1 98.7,241.1 		"/>
		<polygon points="123.7,244.7 129.2,265.3 147.2,257.6 133.2,242.7 		"/>
		<polygon points="148.1,254 163.8,262.7 169.4,244.1 162.4,243.5 		"/>
		<polygon points="184.9,243.5 199.9,264 213.1,254 192.2,243.5 		"/>
		<path d="M214.3,250l13.5,8.1L242,242h-7.2C234.4,242,214.3,250,214.3,250z"/>
		<polygon points="266.9,251.3 259.5,250.8 268.9,267.6 285.3,261 		"/>
	</g>
</g>
<g id="Stroke">
	
		<path opacity="0" fill="none" stroke="#3C8AA5" stroke-width="33" stroke-linecap="round" stroke-linejoin="round" stroke-miterlimit="10" d="
		M-1.5,6.9c99.1-5.5,199.3-7.3,296.8,11.5C252.7,32.7,206.7,32,161.6,32.1C106.4,32.2,51.1,33.8-4,37c8.1,6.3,18.6,8.2,28.8,9.5
		c45.3,5.7,91.1,3,136.8,3.2c46.1,0.2,92.2,3.5,138,9.7c-0.5,4.6-6.4,5.9-11,6.1c-87.9,3.3-175.9,6.6-263.8,9.9
		c-12.8,0.5-26.7,1.4-37.7,7.2c-3.3,1.7-2.6,11.1,1.1,11.1l329.6,2.5c-6.9,8.3-18.1,11.5-28.6,13.7c-61.3,12.7-124.7,6.6-187.2,8.4
		c-40.4,1.2-80.7,5.7-120.9,10.2c-5.2,0.6-10.5,1.2-15.7,1.8c3.8,5.8,11.8,6.6,18.7,6.7c118.3,3.1,236.8-5,354.9,2.2
		c-19.4,13-43.5,16.5-66.7,18.6c-100.4,9.2-201.7-0.6-302.3,5.7c8.2,5.4,18.4,6.8,28.1,7.9c102.2,11.9,205.3,11.1,308.2,10.2
		c-1.8,9.2-13.4,12.1-22.7,12.9c-90.9,8-182.5-1.6-273.5,4.3c-7,0.5-15.9,2.7-16.7,9.7c95.1,15.8,193.3,1.1,288.2,17.6
		c-25.8,14.9-57.5,13.2-87.1,11.3c-51-3.3-102.5-5.7-153,2.3c-12.2,1.9-24.6,4.6-34.9,11.3c0.4,3.7,4.7,5.3,8.3,6
		c27.5,5.4,55.7,5.3,83.7,5.1c67-0.4,134.2-0.8,201-5.4"/>
</g>
</svg>
