<?xml version="1.0" encoding="utf-8"?>
<!-- Generator: Adobe Illustrator 21.0.0, SVG Export Plug-In . SVG Version: 6.00 Build 0)  -->
<!DOCTYPE svg PUBLIC "-//W3C//DTD SVG 1.0//EN" "http://www.w3.org/TR/2001/REC-SVG-20010904/DTD/svg10.dtd">
<svg version="1.0" id="Layer_2" xmlns="http://www.w3.org/2000/svg" xmlns:xlink="http://www.w3.org/1999/xlink" x="0px" y="0px"
	 width="569.7px" height="288px" viewBox="0 0 569.7 288" enable-background="new 0 0 569.7 288" xml:space="preserve">
<path fill="#7CC242" d="M3,255.5l23.2-11.2c0,0,6.2-101.9,4.5-102.6s-22.3-11-22.3-11l8.6-17.3l9.3,2.3c0,0-24.5-21.7-17.9-25.2
	C15,87,41.3,61.2,41.3,61.2S33.3,45,36.5,37S47,14.3,47,14.3h13.1l99.7-8.7c0,0,164.8-0.7,167.4,0s199.3,5.3,200.6,6.7
	s15.1,28.9,17.5,32.4c2.4,3.6,17.1,39.7,17.8,48.6s0,86,0,95.5c0,9.5,4,68.2,4,73.9s22.4,17.6-16.5,17.6s-529.5-4-534.5-4
	S3,255.5,3,255.5z"/>
</svg>
