<?xml version="1.0" encoding="utf-8"?>
<!-- Generator: Adobe Illustrator 19.2.1, SVG Export Plug-In . SVG Version: 6.00 Build 0)  -->
<svg version="1.0" id="Layer_1" xmlns="http://www.w3.org/2000/svg" xmlns:xlink="http://www.w3.org/1999/xlink" x="0px" y="0px"
	 width="288px" height="288px" viewBox="0 0 288 288" enable-background="new 0 0 288 288" xml:space="preserve">
<ellipse transform="matrix(0.989 -0.148 0.148 0.989 -5.6102 6.0877)" fill="none" stroke="#000000" stroke-width="2" stroke-miterlimit="10" cx="38.1" cy="40.7" rx="16" ry="23.6"/>
<ellipse transform="matrix(5.247650e-02 -0.9986 0.9986 5.247650e-02 69.116 154.3052)" fill="none" stroke="#000000" stroke-width="2" stroke-miterlimit="10" cx="115.9" cy="40.7" rx="23.3" ry="14.3"/>
<ellipse transform="matrix(0.9998 -1.853351e-02 1.853351e-02 0.9998 -0.7401 3.2996)" fill="none" stroke="#000000" stroke-width="2" stroke-miterlimit="10" cx="177.6" cy="41.6" rx="14.3" ry="23.3"/>
<ellipse transform="matrix(0.9976 -6.973109e-02 6.973109e-02 0.9976 -2.5345 16.6404)" fill="none" stroke="#000000" stroke-width="2" stroke-miterlimit="10" cx="237.1" cy="44.6" rx="13.8" ry="21.4"/>
<path fill="none" stroke="#000000" stroke-width="2" stroke-miterlimit="10" d="M37.2,63.3c0.7,3.3,1.8,8,1.8,8l7-0.3
	c0,0,0-4.5,0-8.1"/>
<polyline fill="none" stroke="#000000" stroke-width="2" stroke-miterlimit="10" points="109.8,62.3 109.8,69.7 117.3,69.7 
	118.3,63.4 "/>
<polyline fill="none" stroke="#000000" stroke-width="2" stroke-miterlimit="10" points="173.3,63.6 173.3,72.6 181,72.7 
	182.5,63.6 "/>
<polyline fill="none" stroke="#000000" stroke-width="2" stroke-miterlimit="10" points="233.6,64.9 235.1,71.2 242.5,70.8 
	242.2,64.9 "/>
<path fill="none" stroke="#000000" stroke-width="2" stroke-miterlimit="10" d="M25.9,73.8c1.8,0,35.4-4.5,35.4-4.5l2.1,76.1
	l-27.9,1.8L25.9,73.8z"/>
<path fill="none" stroke="#000000" stroke-width="2" stroke-miterlimit="10" d="M25.9,73.8c0,0-19.6,23.5-22.3,37.4l29.9,21.3"/>
<path fill="none" stroke="#000000" stroke-width="2" stroke-miterlimit="10" d="M11,116.5c0,0,9.2-17.1,17.1-23"/>
<line fill="none" stroke="#000000" stroke-width="2" stroke-miterlimit="10" x1="19.2" y1="104.6" x2="32" y2="120.5"/>
<polyline fill="none" stroke="#000000" stroke-width="2" stroke-miterlimit="10" points="33.2,135.8 19.1,134.9 21.9,144.1 
	33.7,140 "/>
<polyline fill="none" stroke="#000000" stroke-width="2" stroke-miterlimit="10" points="61.3,69.3 82.4,95 95.5,73.8 111.2,74.7 
	111.8,81.5 97.7,81 83.9,109.1 61.6,87 "/>
<line fill="none" stroke="#000000" stroke-width="2" stroke-miterlimit="10" x1="82.4" y1="95" x2="83.9" y2="109.1"/>
<path fill="none" stroke="#000000" stroke-width="2" stroke-miterlimit="10" d="M95.2,74.6c-0.2-3.3-0.3-5.2-0.3-5.2
	s26.5-0.4,37.7,4.5l-7.1,65.8l-26.7-2c0,0-1.8-32.9-2.9-53"/>
<path fill="none" stroke="#000000" stroke-width="2" stroke-miterlimit="10" d="M94.9,68.8c0,0-0.5,3.3-1.2,8.1"/>
<path fill="none" stroke="#000000" stroke-width="2" stroke-miterlimit="10" d="M91.2,94.3c-1.5,9.8-2.7,18.2-2.7,18.2l3.8,27
	l4.7-1.6l0.2-29.7"/>
<polyline fill="none" stroke="#000000" stroke-width="2" stroke-miterlimit="10" points="132.6,73.8 142.4,113.9 140.6,141.8 
	133.9,140 132.6,115.7 129.1,105.9 "/>
<line fill="none" stroke="#000000" stroke-width="2" stroke-miterlimit="10" x1="132.6" y1="115.7" x2="142.2" y2="113.2"/>
<polyline fill="none" stroke="#000000" stroke-width="2" stroke-miterlimit="10" points="92,138.9 90.9,152.4 95.2,160.8 
	98.9,160.8 "/>
<polygon fill="none" stroke="#000000" stroke-width="2" stroke-miterlimit="10" points="134,140.4 131.5,151.7 136.7,164.9 
	143.4,159.4 140.7,142.2 "/>
<path fill="none" stroke="#000000" stroke-width="2" stroke-miterlimit="10" d="M159.2,96.7c0.4-12.3,0.7-22.6,0.6-24.1
	c0,0,19.8-0.4,33.7,2.5c0,0-0.3,10.7-0.8,23.6"/>
<path fill="none" stroke="#000000" stroke-width="2" stroke-miterlimit="10" d="M159.8,72.7c0,0-5.4,11.7-9.7,21.1"/>
<path fill="none" stroke="#000000" stroke-width="2" stroke-miterlimit="10" d="M148.7,96.8c-2.3,5.1-4.1,8.9-4.1,8.9
	s12,13.2,40.3,2.6"/>
<path fill="none" stroke="#000000" stroke-width="2" stroke-miterlimit="10" d="M192.9,74.9c0,0,10.4,20.5,11.5,37.7l-42.6-9.4
	l-9.6,1.5l-4.9-11.1l14.5,3l35,1.8"/>
<polyline fill="none" stroke="#000000" stroke-width="2" stroke-miterlimit="10" points="192.9,92.5 186.1,90.3 179.2,97.4 "/>
<path fill="none" stroke="#000000" stroke-width="2" stroke-miterlimit="10" d="M192.3,110.8c-0.5,16.9-1.1,33.4-1.1,33.4l-33.7-1.1
	c0,0,0.6-15.4,1.1-31.9"/>
<path fill="none" stroke="#000000" stroke-width="2" stroke-miterlimit="10" d="M225.3,72.8l27-3.1c0,0,8,49.2,3.3,74.5l-30.3,1.2
	C225.3,145.4,232.2,93.2,225.3,72.8z"/>
<path fill="none" stroke="#000000" stroke-width="2" stroke-miterlimit="10" d="M225.3,73.8c0,0-21.7,26.2-7.1,76.1l5.3-2.7
	c0,0-5.2-36.9,4.8-47"/>
<line fill="none" stroke="#000000" stroke-width="2" stroke-miterlimit="10" x1="213.6" y1="107.6" x2="223.3" y2="112.5"/>
<path fill="none" stroke="#000000" stroke-width="2" stroke-miterlimit="10" d="M252.4,69.7c0,0,18.7,15.9,25.3,27.7l-20.5,30.1"/>
<line fill="none" stroke="#000000" stroke-width="2" stroke-miterlimit="10" x1="254.9" y1="88.6" x2="272.1" y2="105.6"/>
<line fill="none" stroke="#000000" stroke-width="2" stroke-miterlimit="10" x1="263" y1="97.4" x2="256.6" y2="108.2"/>
<polygon fill="none" stroke="#000000" stroke-width="2" stroke-miterlimit="10" points="217.5,149.9 218.3,163.8 224.3,172.9 
	227.9,172.9 225.7,149.9 223.5,146.7 "/>
<path fill="none" stroke="#000000" stroke-width="2" stroke-miterlimit="10" d="M257.2,134.8c0,0,7.6,2.9,7.9,2.7
	c0.2-0.2,12.6-7.1,12.6-7.1l-6.5-6.9l-14,4.3"/>
<polyline fill="none" stroke="#000000" stroke-width="2" stroke-miterlimit="10" points="35.4,147.2 41.7,245.6 46,245.6 
	49.1,147.2 58.6,245.6 63.4,245.6 63.4,145.4 "/>
<polyline fill="none" stroke="#000000" stroke-width="2" stroke-miterlimit="10" points="98.7,137.5 98.7,240.2 106.7,240.2 
	112.8,147.2 "/>
<polyline fill="none" stroke="#000000" stroke-width="2" stroke-miterlimit="10" points="125.5,139.5 131.7,242.8 125.5,244.1 
	111.7,138.9 "/>
<path fill="none" stroke="#000000" stroke-width="2" stroke-miterlimit="10" d="M255.6,144.2c0,0,7.4,53.9,9.4,106.6h-5.2
	l-18.6-105.4"/>
<path fill="none" stroke="#000000" stroke-width="2" stroke-miterlimit="10" d="M159.2,143.1c0,0,1.4,50.1,2.8,99.6h5.9l7-98.5"/>
<polyline fill="none" stroke="#000000" stroke-width="2" stroke-miterlimit="10" points="191.2,144.2 191.2,242.7 184.9,242.7 
	176.3,144.2 "/>
<polyline fill="none" stroke="#000000" stroke-width="2" stroke-miterlimit="10" points="225.3,145.4 234.2,241.1 241.2,241.1 
	242,149.9 "/>
<polygon fill="none" stroke="#000000" stroke-width="2" stroke-miterlimit="10" points="41.1,246.5 18.8,259.3 41.1,268.7 
	47.2,247.3 "/>
<polygon fill="none" stroke="#000000" stroke-width="2" stroke-miterlimit="10" points="57.9,246.5 60.9,270.6 78.7,259.6 
	64.7,246.5 "/>
<polygon fill="none" stroke="#000000" stroke-width="2" stroke-miterlimit="10" points="98.7,241.1 84,254.6 100.9,260.6 
	107.5,241.1 "/>
<polygon fill="none" stroke="#000000" stroke-width="2" stroke-miterlimit="10" points="123.7,244.7 133.2,242.7 147.2,257.6 
	129.2,265.3 "/>
<polygon fill="none" stroke="#000000" stroke-width="2" stroke-miterlimit="10" points="162.4,243.5 148.1,254 163.8,262.7 
	169.4,244.1 "/>
<polygon fill="none" stroke="#000000" stroke-width="2" stroke-miterlimit="10" points="184.9,243.5 192.2,243.5 213.1,254 
	199.9,264 "/>
<path fill="none" stroke="#000000" stroke-width="2" stroke-miterlimit="10" d="M234.8,242c-0.4,0-20.5,8-20.5,8l13.5,8.1L242,242
	H234.8z"/>
<polygon fill="none" stroke="#000000" stroke-width="2" stroke-miterlimit="10" points="259.5,250.8 266.9,251.3 285.3,261 
	268.9,267.6 "/>
</svg>
