<?xml version="1.0" encoding="utf-8"?>
<!-- Generator: Adobe Illustrator 19.2.1, SVG Export Plug-In . SVG Version: 6.00 Build 0)  -->
<svg version="1.0" xmlns="http://www.w3.org/2000/svg" xmlns:xlink="http://www.w3.org/1999/xlink" x="0px" y="0px" width="288px"
	 height="288px" viewBox="0 0 288 288" enable-background="new 0 0 288 288" xml:space="preserve">
<g id="Layer_2">
	<path fill="#27AAE1" d="M71.6,78.1c0,0-16.6,7.6-15.9,29.1s11.2,34.9,21,35.2C76.7,142.5,45.3,111.3,71.6,78.1z"/>
	<polygon fill="#27AAE1" points="56,165.9 60.2,167.7 59.2,181.9 53,185.5 	"/>
	<path fill="#27AAE1" d="M184.8,80.9c0,0-12.8,15.9-8,40.4s13.9,24.2,13.9,24.2s-24.5-1-23.1-35.5C168.8,81.8,184.8,80.9,184.8,80.9
		z"/>
	<path fill="#27AAE1" d="M161.9,165.9c0,0-12.8,8.5-14.9,20.2l6.8,2.3c0,0,5.2-8.8,7.7-10.5L161.9,165.9z"/>
	<path fill="#27AAE1" d="M98.9,166.9c0,0-38.2,36-54.4,41.6c0,0,43.2-34.4,51.4-45.1l2-1.9L98.9,166.9z"/>
	<path fill="#27AAE1" d="M203.2,170l14.6-12.7l0-3l-3.1-0.4l-15.3,13.8C200.9,167.8,202.3,168.8,203.2,170z"/>
	<path fill="#27AAE1" d="M187.3,178.6L165,198.6l-0.3,4.9l22.9-19.9C187.1,182,187,180.3,187.3,178.6z"/>
</g>
<g id="Layer_1">
	
		<ellipse transform="matrix(0.998 -6.334711e-02 6.334711e-02 0.998 -6.8165 5.0801)" fill="none" stroke="#000000" stroke-width="2" stroke-miterlimit="10" cx="76.7" cy="110" rx="21" ry="32.5"/>
	
		<ellipse transform="matrix(0.998 -6.334747e-02 6.334747e-02 0.998 -6.7876 12.177)" fill="none" stroke="#000000" stroke-width="2" stroke-miterlimit="10" cx="188.6" cy="113.1" rx="21" ry="32.5"/>
	<path fill="none" stroke="#000000" stroke-width="2" stroke-miterlimit="10" d="M74.6,77.6c0,0-24.3-4.1-28.8,21.6
		s-2.1,39.1-8.3,44.1c0,0,15.8,7.2,35.2,2.9"/>
	<path fill="none" stroke="#000000" stroke-width="2" stroke-miterlimit="10" d="M58,93.5c0,0-6.2,12.1-7.6,29.1s-5.2,23.1-5.2,23.1
		"/>
	<path fill="none" stroke="#000000" stroke-width="2" stroke-miterlimit="10" d="M58,122.6c-1,8.7-3,18.5-6.7,24.2"/>
	<path fill="none" stroke="#000000" stroke-width="2" stroke-miterlimit="10" d="M63.1,133.5c0,0-0.9,11.8-3.9,13.9"/>
	<path fill="none" stroke="#000000" stroke-width="2" stroke-miterlimit="10" d="M176.8,83.9c0,0,13.2,1.8,23.3,0"/>
	<path fill="none" stroke="#000000" stroke-width="2" stroke-miterlimit="10" d="M173.2,86.3c0,0,16.8,7.1,30.3,1.4"/>
	<path fill="none" stroke="#000000" stroke-width="2" stroke-miterlimit="10" d="M169.9,90.6c0,0,17.6,8.2,37.4,2.9"/>
	<polyline fill="none" stroke="#000000" stroke-width="2" stroke-miterlimit="10" points="72.7,141.5 74,150.7 83.3,149.3 
		83.1,141.5 	"/>
	<polyline fill="none" stroke="#000000" stroke-width="2" stroke-miterlimit="10" points="184.1,144.6 184.1,153.3 194,153.3 
		194,145 	"/>
	<path fill="none" stroke="#000000" stroke-width="2" stroke-miterlimit="10" d="M92.2,149.4c-17,0.5-41.2,4.1-41.2,4.1
		s-7.9,12.5-11.3,42"/>
	<path fill="none" stroke="#000000" stroke-width="2" stroke-miterlimit="10" d="M53,185.5c1.5-9.9,3-19.6,3-19.6"/>
	<path fill="none" stroke="#000000" stroke-width="2" stroke-miterlimit="10" d="M33.4,199.2c29.5-15.7,74.1-65.8,74.1-65.8l9.3,8.3
		c0,0-48.1,53.1-82.1,71.8"/>
	<path fill="none" stroke="#000000" stroke-width="2" stroke-miterlimit="10" d="M103.7,155.6c1,1.2,7.3,50.7,7.3,50.7"/>
	<path fill="none" stroke="#000000" stroke-width="2" stroke-miterlimit="10" d="M99.2,210.6l2.6-27.9c0,0-2.2-11.9-3.9-21.5"/>
	<path fill="none" stroke="#000000" stroke-width="2" stroke-miterlimit="10" d="M37.4,143.5c-1.7,2.5-2.7,5.5-2.7,8.7
		c0,0,0,37,0,38.6v6.9"/>
	<path fill="none" stroke="#000000" stroke-width="2" stroke-miterlimit="10" d="M89.5,136.8c6.7,0,11.6,0,11.6,0
		c1.2,0,2.4,0.1,3.6,0.4"/>
	<path fill="none" stroke="#000000" stroke-width="2" stroke-miterlimit="10" d="M114.4,144.6c1.3,2.2,2,4.8,2,7.6c0,0,0,37,0,38.6"
		/>
	<path fill="none" stroke="#000000" stroke-width="2" stroke-miterlimit="10" d="M198.5,153.3c-17.8,0.1-36.4,2.3-36.4,2.3
		s-0.2,10.9-0.5,22.7"/>
	<path fill="none" stroke="#000000" stroke-width="2" stroke-miterlimit="10" d="M162.1,155.6c0,0-18.3,11.2-28.6,28.1"/>
	<path fill="none" stroke="#000000" stroke-width="2" stroke-miterlimit="10" d="M153.7,188.4c0,0,2.5-5.7,7.9-10.7"/>
	<polyline fill="none" stroke="#000000" stroke-width="2" stroke-miterlimit="10" points="142.9,186.1 128.6,181.9 127.6,205 
		141.4,205 	"/>
	<polygon fill="none" stroke="#000000" stroke-width="2" stroke-miterlimit="10" points="163.9,191.8 143,184.8 141.4,205 
		164.7,203.6 	"/>
	<line fill="none" stroke="#000000" stroke-width="2" stroke-miterlimit="10" x1="163.2" y1="194.7" x2="153.5" y2="192.9"/>
	<line fill="none" stroke="#000000" stroke-width="2" stroke-miterlimit="10" x1="163.5" y1="197.7" x2="153.5" y2="197.3"/>
	<line fill="none" stroke="#000000" stroke-width="2" stroke-miterlimit="10" x1="164" y1="200.6" x2="153.7" y2="201"/>
	<path fill="none" stroke="#000000" stroke-width="2" stroke-miterlimit="10" d="M160.1,190.6c1,0.3,1.9,0.8,2.7,1.6
		c0.5,0.4,0.8,1,1.1,1.5c4-10.4,14.4-17.8,26.7-17.8c11.2,0,21.5,6.9,26.1,16"/>
	<path fill="none" stroke="#000000" stroke-width="2" stroke-miterlimit="10" d="M225.3,189.8c-5.3-13.7-18.8-22.9-34.8-22.9
		c-16,0-29.3,8.7-34.6,22.4"/>
	<path fill="none" stroke="#000000" stroke-width="2" stroke-miterlimit="10" d="M200.3,200.5c0,0,0-0.1,0-0.1
		c0-5.4-4.4-9.7-9.7-9.7c-5.4,0-9.7,4.4-9.7,9.7c0,0.3,0,0.5,0,0.8"/>
	<line fill="none" stroke="#000000" stroke-width="2" stroke-miterlimit="10" x1="187.7" y1="175.7" x2="187.7" y2="191.3"/>
	<line fill="none" stroke="#000000" stroke-width="2" stroke-miterlimit="10" x1="194" y1="175.7" x2="194" y2="191"/>
	<polygon fill="none" stroke="#000000" stroke-width="2" stroke-miterlimit="10" points="216.6,191.8 237.5,184.8 239.1,205 
		215.8,203.6 	"/>
	<line fill="none" stroke="#000000" stroke-width="2" stroke-miterlimit="10" x1="217" y1="194.7" x2="226.7" y2="192.9"/>
	<line fill="none" stroke="#000000" stroke-width="2" stroke-miterlimit="10" x1="216.7" y1="197.7" x2="226.7" y2="197.3"/>
	<line fill="none" stroke="#000000" stroke-width="2" stroke-miterlimit="10" x1="216.3" y1="200.6" x2="226.5" y2="201"/>
	<polyline fill="none" stroke="#000000" stroke-width="2" stroke-miterlimit="10" points="237.6,186.1 251.9,181.9 252.9,205 
		239.1,205 	"/>
	<path fill="none" stroke="#000000" stroke-width="2" stroke-miterlimit="10" d="M220.1,180.8c-1.2-13.4-2.4-26.5-2.4-26.5
		c-1.2-0.2-1.8-0.2-3.1-0.4"/>
	<path fill="none" stroke="#000000" stroke-width="2" stroke-miterlimit="10" d="M218.4,155.6c0,0,18.3,11.2,28.6,28.1"/>
	<path fill="none" stroke="#000000" stroke-width="2" stroke-miterlimit="10" d="M227.4,188.1c0,0-2.5-5.7-7.9-10.7"/>
	<path fill="none" stroke="#000000" stroke-width="2" stroke-miterlimit="10" d="M225.2,145c1.1,2.1,1.8,4.6,1.8,7.2
		c0,0,0,4.4,0,10.3"/>
	<path fill="none" stroke="#000000" stroke-width="2" stroke-miterlimit="10" d="M145.3,168.6c0-8.6,0-16.4,0-16.4
		c0-8.5,6.9-15.4,15.4-15.4c0,0,5.7,0,14.6,0"/>
	<path fill="none" stroke="#000000" stroke-width="2" stroke-miterlimit="10" d="M204.1,136.8c4.5,0,7.5,0,7.5,0
		c1.5,0,3,0.2,4.4,0.6"/>
	<path fill="none" stroke="#000000" stroke-width="2" stroke-miterlimit="10" d="M184.1,167.4c16.3-15.1,35.5-32.8,35.5-32.8
		s6.5,3.7,7.9,7.8c0,0-13.6,12.2-28.2,25.3"/>
	<path fill="none" stroke="#000000" stroke-width="2" stroke-miterlimit="10" d="M187.4,178.5c-12.5,11.2-23,20.7-23,20.7"/>
</g>
<g id="Layer_3">
	<path opacity="0" fill="none" stroke="#27AAE1" stroke-width="25" stroke-miterlimit="10" d="M53.7,79.5c41.4-2.8,83-3.9,124.5-3.1
		c6.9,0.1,14,0.3,20.5,2.8c-15.7,5-32.6,5-49.1,5c-28.4,0-56.8,0.1-85.2,0.1c-5.5,0-12,0.4-15.2,5c48,1.6,96.1,3.3,144.1,4.9
		c-39.5,0-79,0.1-118.6,0.1c-8.7,0-17.5,0-26.1,1.4c2.5,3.4,7.4,3.7,11.6,3.8c42.7,0.9,85.4,1.8,128.1,2.6
		c-47.4,5-96.2-0.5-142.3,11.7c50.4-0.7,100.9-0.5,151.3,0.6c-50.2,2.9-100.3,9.1-149.8,18c46,3.3,92.3,2.2,138.4,1.2
		c-34.1,6-68.8,8.7-103.4,8.2c-7.5-0.1-15.2-0.3-22,2.8c-1.2,0.5-2.4,2.1-1.3,2.8c27.7-0.2,55.4-0.4,83.1-0.6
		c6.7-0.1,13.3-0.1,20,0.5c5.5,0.5,11,1.3,16.5,1.9c12.3,1.1,24.7,0.5,36.9,1.4c1.8,0.1,3.6,0.3,5.1,1.2c1.5,0.9,2.5,2.8,1.9,4.5
		c-43.3-2-86.9-4-130,0.9c-9.6,1.1-19.2,2.5-28.8,1.8c-0.1,0.8-0.2,1.6-0.3,2.4c-6.1-0.7-12.4,0.8-17.6,4.1
		c15.5,4.9,32.2,3.1,48.4,1.6c41-3.7,82.3-5,123.5-4.1c-13.8,7-29.7,8.1-45.1,9.1c-40.7,2.5-81.3,5.1-122,7.6
		c-3.4,0.2-7.4,0.7-9.4,3.5c20,4.4,40.7,3.6,61.1,3c31.6-0.9,63.3-1.2,94.9-0.9c0.2,1-0.7,1.8-1.5,2.4c-8.4,6-18.8,8.5-29.1,9.1
		s-20.6-0.5-30.9-1.3c-22.4-1.7-44.9-1.8-67.4-1.5c-12.3,0.2-25.1,0.5-36.1,6.1c-1.7,0.9-3.6,2.2-3.7,4.1c-0.2,2.7,2.9,4.3,5.5,4.9
		c14.4,3.5,29.4,1.1,44.1-0.6c13.2-1.5,26.5-2.4,39.8-2.9c29.2-1.3,58.5-1.3,87.7-0.1"/>
</g>
</svg>
