<?xml version="1.0" encoding="utf-8"?>
<!-- Generator: Adobe Illustrator 19.2.1, SVG Export Plug-In . SVG Version: 6.00 Build 0)  -->
<svg version="1.0" xmlns="http://www.w3.org/2000/svg" xmlns:xlink="http://www.w3.org/1999/xlink" x="0px" y="0px" width="288px"
	 height="288px" viewBox="0 0 288 288" enable-background="new 0 0 288 288" xml:space="preserve">
<g id="Layer_2">
	<path fill="#27AAE1" d="M117.4,89.9L83.2,129c0,0-1.4,12.2-0.6,11.4s43.2-47.7,43.2-47.7L117.4,89.9z"/>
	<path fill="#27AAE1" d="M224.9,152.8c0,0,2.4,13.4-6.7,19.1c0,0,8.1-0.4,9.4-9.3C229,153.7,224.9,152.8,224.9,152.8z"/>
	<path fill="#27AAE1" d="M223,175.9c0,0-6.5,43.3-6,72.8l1.4,9.5l9.5-3.3l-9.5-6.2l2.4-43.2l4.2-19.2l3.8,11l1.8,8.1l-1.3,4.9
		l1.3,3.6c0,0,2.4,0.8,1.9,0.5c-0.5-0.3-0.3-15.2-1.8-19.4s-3.5-15.2-3.9-15.6s-0.8-2.9-0.8-2.9L223,175.9z"/>
	<path fill="#27AAE1" d="M206.6,248.7c0,0.6-9,6.1-9,6.1l4.5,4l5.9-9.5l5.1-37.8l1-7.3h-2.7C211.5,204.2,206.3,234.7,206.6,248.7z"
		/>
</g>
<g id="Layer_1">
	<path fill="none" stroke="#000000" stroke-width="2" stroke-miterlimit="10" d="M105.4,80.3h-5.2c-6.6,0-12-5.4-12-12V52.4
		c0-6.6,5.4-12,12-12h5.2c6.6,0,12,5.4,12,12v15.9C117.4,74.9,112,80.3,105.4,80.3z"/>
	<path fill="none" stroke="#000000" stroke-width="2" stroke-miterlimit="10" d="M88.2,59.7c0,0,5.8,2.7,9.1,1.5
		c3.3-1.2,6.8-1.7,11.8,0c5,1.7,8.2-1.9,8.2-1.9"/>
	<path fill="none" stroke="#000000" stroke-width="2" stroke-miterlimit="10" d="M126.5,90.5c2.2-0.6,4.3-1.3,4.3-1.3
		c-8.2-7.8-5.3-43.8-8.8-51.8c-3.5-8-19.1-4.8-19.1-4.8S85.1,29.2,83,40.7c-1.9,10-1.4,36.5-4.2,45.6l6.4,1.8"/>
	<path fill="none" stroke="#000000" stroke-width="2" stroke-miterlimit="10" d="M88.2,56.6c0,0-6.8,2.6,0,7.9"/>
	<path fill="none" stroke="#000000" stroke-width="2" stroke-miterlimit="10" d="M117.9,56.6c0,0,6.8,2.6,0,7.9"/>
	<path fill="none" stroke="#000000" stroke-width="2" stroke-miterlimit="10" d="M98.6,80.7c-0.6-0.5,0,6.5,0,6.5l10.1,0.3v-6.8
		C108.7,80.7,100.9,82.6,98.6,80.7z"/>
	<path fill="none" stroke="#000000" stroke-width="2" stroke-miterlimit="10" d="M84,88.2c0,0,27.7-3,42.3,2.7c0,0-9,90.5,11,138.3
		c0,0-44.7,14.2-70.3-10.8c0,0,15.7-74,15.7-83.3S84,88.2,84,88.2z"/>
	<polygon fill="none" stroke="#000000" stroke-width="2" stroke-miterlimit="10" points="113,88.5 82.6,126.3 82,141 125.8,92 	"/>
	<path fill="none" stroke="#000000" stroke-width="2" stroke-miterlimit="10" d="M83.2,88.5c0,0-25.1,56-25.1,56l17.2,9.2
		c0,0,7.5-39,7.8-41.9"/>
	<polyline fill="none" stroke="#000000" stroke-width="2" stroke-miterlimit="10" points="70.5,151.9 67,160.3 59,165.3 55.4,163.9 
		63.5,147.7 	"/>
	<polyline fill="none" stroke="#000000" stroke-width="2" stroke-miterlimit="10" points="70.6,151.2 73.1,157.3 72.3,160.8 
		71,161.1 68.1,156.7 	"/>
	<path fill="none" stroke="#000000" stroke-width="2" stroke-miterlimit="10" d="M125.8,92c0,0,22.2,55.3,22.2,55.3l-17.2,9.2
		l-5.8-47.1c0,0,0.6-13.4,0.8-16.6"/>
	<polyline fill="none" stroke="#000000" stroke-width="2" stroke-miterlimit="10" points="136.4,154.4 139.9,162.7 148,167.8 
		151.5,166.3 143.4,150.2 	"/>
	<polyline fill="none" stroke="#000000" stroke-width="2" stroke-miterlimit="10" points="136.3,153.7 133.8,159.8 134.6,163.3 
		135.9,163.5 138.8,159.1 	"/>
	<polyline fill="none" stroke="#000000" stroke-width="2" stroke-miterlimit="10" points="89.5,231.6 92.3,244.4 94,244.4 
		96.8,232.6 	"/>
	<polyline fill="none" stroke="#000000" stroke-width="2" stroke-miterlimit="10" points="118.1,233.6 115.3,246.4 113.6,246.4 
		110.5,233.2 	"/>
	<polygon fill="none" stroke="#000000" stroke-width="2" stroke-miterlimit="10" points="92.2,244.4 70,247.2 78.7,256.2 
		95.2,247.2 	"/>
	<polygon fill="none" stroke="#000000" stroke-width="2" stroke-miterlimit="10" points="115.4,246.4 137.6,249.3 128.9,258.3 
		112.4,249.3 	"/>
	<polygon fill="none" stroke="#000000" stroke-width="2" stroke-miterlimit="10" points="151.5,32 158.9,256.2 180.2,258.3 
		180.2,32 	"/>
	<line fill="none" stroke="#000000" stroke-width="2" stroke-miterlimit="10" x1="151.9" y1="44.9" x2="161.5" y2="44.9"/>
	<line fill="none" stroke="#000000" stroke-width="2" stroke-miterlimit="10" x1="152.1" y1="49.4" x2="167.2" y2="49.4"/>
	<line fill="none" stroke="#000000" stroke-width="2" stroke-miterlimit="10" x1="152.2" y1="53.4" x2="162.5" y2="53.4"/>
	<line fill="none" stroke="#000000" stroke-width="2" stroke-miterlimit="10" x1="153" y1="72.9" x2="159.7" y2="72.2"/>
	<line fill="none" stroke="#000000" stroke-width="2" stroke-miterlimit="10" x1="153" y1="77.4" x2="164.9" y2="77.4"/>
	<line fill="none" stroke="#000000" stroke-width="2" stroke-miterlimit="10" x1="153.2" y1="82.4" x2="162.1" y2="82.4"/>
	<line fill="none" stroke="#000000" stroke-width="2" stroke-miterlimit="10" x1="153.9" y1="103.2" x2="163.5" y2="103.2"/>
	<line fill="none" stroke="#000000" stroke-width="2" stroke-miterlimit="10" x1="154.1" y1="107.7" x2="169.2" y2="107.7"/>
	<line fill="none" stroke="#000000" stroke-width="2" stroke-miterlimit="10" x1="154.2" y1="111.7" x2="164.5" y2="111.7"/>
	<line fill="none" stroke="#000000" stroke-width="2" stroke-miterlimit="10" x1="155" y1="131.2" x2="161.7" y2="130.5"/>
	<line fill="none" stroke="#000000" stroke-width="2" stroke-miterlimit="10" x1="155" y1="135.7" x2="166.9" y2="135.7"/>
	<line fill="none" stroke="#000000" stroke-width="2" stroke-miterlimit="10" x1="155.2" y1="140.7" x2="164.1" y2="140.7"/>
	<line fill="none" stroke="#000000" stroke-width="2" stroke-miterlimit="10" x1="155.9" y1="170.1" x2="165.5" y2="170.1"/>
	<line fill="none" stroke="#000000" stroke-width="2" stroke-miterlimit="10" x1="156.1" y1="174.6" x2="171.2" y2="174.6"/>
	<line fill="none" stroke="#000000" stroke-width="2" stroke-miterlimit="10" x1="156.2" y1="178.6" x2="166.5" y2="178.6"/>
	<line fill="none" stroke="#000000" stroke-width="2" stroke-miterlimit="10" x1="157" y1="198.1" x2="163.7" y2="197.4"/>
	<line fill="none" stroke="#000000" stroke-width="2" stroke-miterlimit="10" x1="157" y1="202.6" x2="168.9" y2="202.6"/>
	<line fill="none" stroke="#000000" stroke-width="2" stroke-miterlimit="10" x1="157.2" y1="207.6" x2="166.1" y2="207.6"/>
	<line fill="none" stroke="#000000" stroke-width="2" stroke-miterlimit="10" x1="157.9" y1="232.5" x2="167.5" y2="232.5"/>
	<line fill="none" stroke="#000000" stroke-width="2" stroke-miterlimit="10" x1="158.1" y1="237" x2="173.2" y2="237"/>
	<line fill="none" stroke="#000000" stroke-width="2" stroke-miterlimit="10" x1="158.2" y1="241" x2="168.5" y2="241"/>
	
		<ellipse transform="matrix(0.2662 -0.9639 0.9639 0.2662 5.4985 331.9548)" fill="none" stroke="#000000" stroke-width="2" stroke-miterlimit="10" cx="220.8" cy="162.4" rx="9.8" ry="6.7"/>
	<path fill="none" stroke="#000000" stroke-width="2" stroke-miterlimit="10" d="M227.6,156.4c0,0-7.5-1.4-9.3-4"/>
	<path fill="none" stroke="#000000" stroke-width="2" stroke-miterlimit="10" d="M227.6,159.9c0,0-8-1.9-11.6-5.8"/>
	<path fill="none" stroke="#000000" stroke-width="2" stroke-miterlimit="10" d="M214.5,156.7c0,0,6.5,5.5,12.5,5.7"/>
	<polyline fill="none" stroke="#000000" stroke-width="2" stroke-miterlimit="10" points="220.3,171.9 219.2,175.1 216.4,174.4 
		216.6,171.1 	"/>
	<path fill="none" stroke="#000000" stroke-width="2" stroke-miterlimit="10" d="M226.7,176.7l-16.6-3.6c0,0-4.2,13.9-2.2,29.8
		l13.6,2.9L226.7,176.7z"/>
	<path fill="none" stroke="#000000" stroke-width="2" stroke-miterlimit="10" d="M210.1,173.1c0,0-9.5,14.5-10,31.5l1.7,0.8
		c0,0,2.8-12.2,5.7-16.5"/>
	<polygon fill="none" stroke="#000000" stroke-width="2" stroke-miterlimit="10" points="202,205.3 203,209.8 201.9,210.4 
		201.9,213.2 198.9,214.5 200.1,204.6 	"/>
	<line fill="none" stroke="#000000" stroke-width="2" stroke-miterlimit="10" x1="206.6" y1="190.4" x2="203.2" y2="187.9"/>
	<path fill="none" stroke="#000000" stroke-width="2" stroke-miterlimit="10" d="M226.8,176.8c2.5,5.6,6.3,16.4,5.9,28l-1.8,0.7
		c0,0-3.3-14.7-5.9-19.2"/>
	<polygon fill="none" stroke="#000000" stroke-width="2" stroke-miterlimit="10" points="230.6,205.4 229.3,209.9 230.3,210.5 
		230.1,213.3 233.1,214.8 232.6,204.9 	"/>
	<line fill="none" stroke="#000000" stroke-width="2" stroke-miterlimit="10" x1="227" y1="190.3" x2="230.6" y2="188"/>
	<path fill="none" stroke="#000000" stroke-width="2" stroke-miterlimit="10" d="M221.5,205.8l-3.1,43h-2.4l-1.7-44.5l-6.2,44.5
		l-1.6-0.5c0,0-4-30.2,3.2-45"/>
	<polygon fill="none" stroke="#000000" stroke-width="2" stroke-miterlimit="10" points="218.3,248.7 227,253 220.2,256.4 
		215.9,248.7 	"/>
	<polygon fill="none" stroke="#000000" stroke-width="2" stroke-miterlimit="10" points="208.1,248.7 202.7,256.4 195.8,251.1 
		206.2,248 	"/>
</g>
<g id="Layer_3">
	<path opacity="0" fill="none" stroke="#27AAE1" stroke-width="25" stroke-miterlimit="10" d="M80.5,85c17.3,0.5,34.6,1,51.9,1.4
		c-20.7,6.1-42.1,9.8-63.6,11c25.7,0,51.5,0.1,77.2,0.1c-26,1.8-51.8,6-77.1,12.3c20.9,1.7,41.9,1.4,62.9,1.1
		c-23.5,2.4-46.9,4.7-70.4,7.1c20.5,0.2,41,0.4,61.5,0.6c-21.4,1.6-42.7,3.3-64.1,4.9c18.7,2,37.6,2.8,56.4,2.5c-20.4,0.5-41,1-61,5
		c24.2,5.9,49.4,4.7,74.3,5.5c34.3,1.2,68.4,6.5,101.4,15.8c0.4,4-2,7.9-5.2,10.4s-7.1,3.8-10.9,5c5.4,0.1,10.8,0.2,16.2,0.3
		c-6.2,4.3-13.6,7.1-21.1,7.9c8.1,0,16.3,0,24.4,0c-12.7,3.3-25.9,4.1-39.1,4.9c11.5,1.4,23.1,1.7,34.6,0.7
		c-12.9,2.6-25.8,5.3-38.6,7.9c14.7,1.1,29.4,2.2,44,3.3c-9.7,2.5-19.7,4.1-29.8,4.6c13,0,26,0.1,39,0.1
		c-11.8,7.2-25.3,11.4-39.1,12.2c16.7,1.1,33.4,2.3,50,3.4c-13.5-0.3-27,1.5-39.9,5.6c9.6,1.5,19.1,3,28.7,4.4
		c-15.2,2.1-30.4,4.9-45.3,8.3c10.1,0.3,20.3,0.6,30.4,0.9c-13.7-1-27.6-0.7-41.3,1.1c14,1.9,28.2,2.6,42.3,2.1
		c-15.1,3.2-30.1,6.4-45.2,9.6c13.9,1,27.7,2,41.6,3c-10.2,2-20.4,4.5-30.4,7.5c9.2,4,19.4,5.9,29.4,5.5"/>
</g>
</svg>
