<?xml version="1.0" encoding="utf-8"?>
<!-- Generator: Adobe Illustrator 19.2.1, SVG Export Plug-In . SVG Version: 6.00 Build 0)  -->
<svg version="1.0" xmlns="http://www.w3.org/2000/svg" xmlns:xlink="http://www.w3.org/1999/xlink" x="0px" y="0px" width="288px"
	 height="288px" viewBox="0 0 288 288" enable-background="new 0 0 288 288" xml:space="preserve">
<g id="Layer_2">
	<path fill="#27AAE1" d="M95.6,34c0,0-18.6,18.7-7.1,39.5c0,0-12.9-5.2-9.6-19.8C81.4,42,86.5,34.2,95.6,34z"/>
	<path fill="#27AAE1" d="M78.3,76.6c0,0-4.6,39.6-9.9,57l15.7,7.6L61.8,138L70,84.3l1.2-8.1L78.3,76.6z"/>
	<path fill="#27AAE1" d="M45.8,100.2l24.4-17.3L68.8,91l-16.2,9.6l0.4,37.2l-2,0.3C51,138,45.7,116.2,45.8,100.2z"/>
	<polygon fill="#27AAE1" points="98.9,92.3 114.5,110.5 134.1,88.4 150.3,86 150.3,89.8 135.5,89.7 114.5,120 97.3,98.4 	"/>
	<path fill="#27AAE1" d="M71.3,139.4c0.7,0.4,34.3,58.3,45.3,95.7l-2,0.3c0,0-24.1-52-37.3-70.7S61.8,138,61.8,138L71.3,139.4z"/>
	<path fill="#27AAE1" d="M74,159.2c0,0-6.1,45-28.2,70.9l22.3,14.6L58,250.2l-21.1-10.9l3.4-8.9c0,0,9.3-10.5,11-14.5
		s10.6-23.8,11.2-32.3s3.3-37,3.3-37L74,159.2z"/>
	<polygon fill="#27AAE1" points="116.5,235.1 144,246 139.2,255.2 115.8,250.2 114.5,235.4 	"/>
	<path fill="#27AAE1" d="M202.6,34c0,0,12.7,22.5-5.8,39.9c0,0,13.6-1,14.9-19.9C213,35,202.6,34,202.6,34z"/>
	<path fill="#27AAE1" d="M182.2,90.5L164.5,103l-2.5,37v10.4c0,0-3.6,11-2.9,11s8.4-9.9,8-11.2c-0.4-1.3-3.6-10.4-3.6-10.4l5-35.9
		l12.5-9.9c0,0-6.3,15-2.8,39.7l8.8,1.5C187.1,135.1,183.5,97,182.2,90.5z"/>
	<path fill="#27AAE1" d="M186,135c0,0-10.2,37-17.5,63.5c0,0,8.8,8.6,32.5,10.1c0,0-23.1,0.4-42-5.8l19.2-69.1L186,135z"/>
	<path fill="#27AAE1" d="M178.7,207.5l-7.3,32.7l21.1,6.7L183,257c0,0-15.1-9.5-15.9-11c-0.8-1.5,7.3-39.2,7.3-39.2L178.7,207.5z"/>
	<path fill="#27AAE1" d="M209.1,206.8c0,0,10.7,33.1,11.1,33.4s23.8,6.7,23.8,6.7l-6,10.1l-23.6-9l0.1-7.8l-11.9-31.7L209.1,206.8z"
		/>
</g>
<g id="Layer_1">
	
		<ellipse transform="matrix(0.192 -0.9814 0.9814 0.192 22.0398 134.4927)" fill="none" stroke="#000000" stroke-width="2" stroke-miterlimit="10" cx="92.7" cy="53.9" rx="20.1" ry="13.8"/>
	
		<ellipse transform="matrix(0.1346 -0.9909 0.9909 0.1346 118.4161 243.0242)" fill="none" stroke="#000000" stroke-width="2" stroke-miterlimit="10" cx="198.3" cy="53.7" rx="20.3" ry="13.7"/>
	<path fill="none" stroke="#000000" stroke-width="2" stroke-miterlimit="10" d="M86,34.8c0,0,8,3.3,19.2,2"/>
	<path fill="none" stroke="#000000" stroke-width="2" stroke-miterlimit="10" d="M80.6,38.5c0,0,16.2,4.9,26.4,1.9"/>
	<path fill="none" stroke="#000000" stroke-width="2" stroke-miterlimit="10" d="M107.8,43.4c0,0-16.9,4.1-28-0.9"/>
	<path fill="none" stroke="#000000" stroke-width="2" stroke-miterlimit="10" d="M201.1,33.6c0,0,17.8,1.9,17.8,20.1
		s1.8,22.5,3.5,25.7c0,0-5.6,1.6-12.1,1.4"/>
	<path fill="none" stroke="#000000" stroke-width="2" stroke-miterlimit="10" d="M211.7,46.2c0,0,2.3,10.5,3.6,17.1
		s2.9,14.5,3.6,16.8"/>
	<path fill="none" stroke="#000000" stroke-width="2" stroke-miterlimit="10" d="M211,60.7c0,0,0.7,15.9,3.3,20"/>
	<path fill="none" stroke="#000000" stroke-width="2" stroke-miterlimit="10" d="M205.6,69.7c0,0,0.7,8.6,2.3,10.4"/>
	<polyline fill="none" stroke="#000000" stroke-width="2" stroke-miterlimit="10" points="85.2,72 84.2,77.4 90.3,78.6 92.7,73.6 	
		"/>
	<polyline fill="none" stroke="#000000" stroke-width="2" stroke-miterlimit="10" points="195.6,73.8 195.6,78.2 201.1,78.8 
		202.6,72.2 	"/>
	<path fill="none" stroke="#000000" stroke-width="2" stroke-miterlimit="10" d="M71.3,76.1c0,0,19,0.2,30,6.7
		c0,0-12.5,51.2-17.2,58.3L61.8,138L71.3,76.1z"/>
	<path fill="none" stroke="#000000" stroke-width="2" stroke-miterlimit="10" d="M71.3,76.1l-31,18.7c0,0,1.6,23.4,9.2,42.9H53
		c0,0-1.3-28.6-0.4-37.2"/>
	<line fill="none" stroke="#000000" stroke-width="2" stroke-miterlimit="10" x1="69.1" y1="90.5" x2="41.6" y2="106.7"/>
	<polygon fill="none" stroke="#000000" stroke-width="2" stroke-miterlimit="10" points="53,137.8 57,144.7 55,146.4 53,146.4 
		54.3,157.7 47,153.2 49.5,137.8 	"/>
	<polyline fill="none" stroke="#000000" stroke-width="2" stroke-miterlimit="10" points="101.3,82.9 114.5,104.4 133.1,87.8 
		135.7,89.3 114.5,119.3 97.3,98.4 	"/>
	<polyline fill="none" stroke="#000000" stroke-width="2" stroke-miterlimit="10" points="133.1,87.8 133.1,82.9 150.3,79.3 
		150.3,89.3 135.7,89.3 	"/>
	<line fill="none" stroke="#000000" stroke-width="2" stroke-miterlimit="10" x1="114.5" y1="104.4" x2="114.5" y2="119.3"/>
	<path fill="none" stroke="#000000" stroke-width="2" stroke-miterlimit="10" d="M210.3,80.8c-10.3-3.5-27.6-3.3-27.6-3.3
		l-23.6,22.6l0.8,39.2c0,0,3.3,1.1,3.8,0.4c0.5-0.7,4-35.3,4-35.3l13.7-11.9c0,0-6.3,22.3-3.2,41c0,0,16.3,3.5,23.5,2L213,98.9
		L210.3,80.8z"/>
	<polyline fill="none" stroke="#000000" stroke-width="2" stroke-miterlimit="10" points="163.8,139.8 167.1,150.1 159.8,161.4 
		154.6,159.1 159.9,139.4 	"/>
	<path fill="none" stroke="#000000" stroke-width="2" stroke-miterlimit="10" d="M211.7,103.1c0,0,8.7,14.3,20.7,20.9l-1.3,3.8
		c0,0-12.8-2-23.2-12.3"/>
	<path fill="none" stroke="#000000" stroke-width="2" stroke-miterlimit="10" d="M231.1,127.8l16.3,8.1l3.2-6.8l-11.7-7.5
		c0,0-6.1,1.5-6.4,2.4"/>
	<path fill="none" stroke="#000000" stroke-width="2" stroke-miterlimit="10" d="M61.8,138c0,0,48.3,81.8,52.8,97.3l4.2-1.2
		c0,0-11.7-56.4-34.7-93"/>
	<path fill="none" stroke="#000000" stroke-width="2" stroke-miterlimit="10" d="M65.6,144.7c0,0,4.4,48.9-24,85l5.4,1
		c0,0,30-26.7,32.7-61.7"/>
	<path fill="none" stroke="#000000" stroke-width="2" stroke-miterlimit="10" d="M178.3,133.6c0,0-15.7,46.3-19.2,69.1
		c0,0,43.4,16.9,73.3-6.8l-30.7-60.3"/>
	<path fill="none" stroke="#000000" stroke-width="2" stroke-miterlimit="10" d="M174.4,206.8l-5.8,33.4h2.9
		c0,0,17.1-24.7,17.4-31.7"/>
	<polyline fill="none" stroke="#000000" stroke-width="2" stroke-miterlimit="10" points="202.6,208.5 214.4,240.2 220.2,238.4 
		219,203.7 	"/>
	<polygon fill="none" stroke="#000000" stroke-width="2" stroke-miterlimit="10" points="40.4,230.1 36.9,239.4 57.8,246.7 
		68.1,240.7 47,230.8 	"/>
	<polygon fill="none" stroke="#000000" stroke-width="2" stroke-miterlimit="10" points="114.5,235.4 115.9,246.9 137.1,251.4 
		144,242.9 119.6,234.6 	"/>
	<polyline fill="none" stroke="#000000" stroke-width="2" stroke-miterlimit="10" points="168.5,240.2 167.5,243.7 183.2,253.5 
		192.5,244.9 171.4,240.2 	"/>
	<polyline fill="none" stroke="#000000" stroke-width="2" stroke-miterlimit="10" points="214.4,240.2 215,245 238.2,253.5 
		242.5,243 220.2,238.4 	"/>
</g>
<g id="Layer_3">
	<path opacity="0" fill="none" stroke="#27AAE1" stroke-width="25" stroke-miterlimit="10" d="M72.1,32.9c48.5-2.9,97-3.5,145.5-2
		c-4.2,5.2-11.7,5.8-18.4,6c-44.3,1.4-88.7,2-132.8,6.5c55.6,9.1,112.7-0.7,168.8,4.6c-56.6,8.1-114.4,1.1-171.2,7.5
		c51.4,13.2,105.7,6.3,158.5,10.8c-55.6,0.9-111.3,1.8-166.9,2.7c3.9,3.3,9.4,3.8,14.5,4.1c17.7,1.2,35.4,2.1,53.1,3.1
		c25.7,1.4,51.5,2.8,77.2,4.1c-36.5,5.5-73.3,8.3-110.2,8.3c-20.1,0-41.1-0.6-59.2,8.2c59.5,5.5,119.4-1.9,179.1-0.2
		c-36.1,3.3-72.4,4.6-108.7,3.9c-22.7-0.5-46.7-1.4-66.4,9.8c4.8,3,10.7,3.5,16.4,4c45.3,3.6,90.8,4.3,136.1,2.2
		c-14.7,4.4-30.1,5.7-45.5,6.9c-36.6,2.9-73.2,5.8-109.8,8.8c57,11.5,116.1,2,174.2,6c-39,4.6-78.3,6.8-117.6,6.4
		c-15.2-0.1-31-0.5-44.8,5.6c52,8.1,104.8,10.2,157.3,6.3c-44.2,7.6-88.9,12.1-133.7,13.5c-8.3,0.3-17,0.5-24.2,4.5
		c44.7,7.6,90.4,8.7,135.4,3.4c-40.4,10.5-81.5,21-123.1,19.4c41.2,1.2,82.3,2.2,123.5,3c-45.7,8.2-92.4,9-138.9,9.8
		c61.5,10.6,124.3,8.5,186.7,6.4c-1.4,2.9-5.2,3.6-8.4,4c-51.7,5.7-103.8,2.9-155.8,0.7c-13.5-0.6-29.3,0-36.9,11.2
		c28.6,9.4,59.3,9.5,89.4,9.6c49.3,0,98.5,0.1,147.8,0.1c-10,7.5-23.5,7.8-36,7.8c-65.2-0.2-130.5-0.5-195.7-0.7"/>
</g>
</svg>
