<?xml version="1.0" encoding="utf-8"?>
<!-- Generator: Adobe Illustrator 19.2.1, SVG Export Plug-In . SVG Version: 6.00 Build 0)  -->
<svg version="1.0" xmlns="http://www.w3.org/2000/svg" xmlns:xlink="http://www.w3.org/1999/xlink" x="0px" y="0px" width="288px"
	 height="288px" viewBox="0 0 288 288" enable-background="new 0 0 288 288" xml:space="preserve">
<g id="Layer_2">
	<path fill="#27AAE1" d="M137,39.3c0,0-14.8,19,3,39.3c0,0-10-0.8-12-9.7C126,60.7,123.1,45.6,137,39.3z"/>
	<path fill="#27AAE1" d="M88.1,63.7l11.3,2.5L93.8,97l30.3-3.7l7.3,46.2c0,0,13.9,2.5,24.9,1.3v1.5c0,0-20.6,4.6-27.8,1.3l-4-46.1
		L88.8,102l8.6-34.7h-9.2V63.7z"/>
	<path fill="#27AAE1" d="M132.5,144.6v87.5c0,0-1.6,0.8-1.6,0s-2.5-88.5-2.5-88.5L132.5,144.6z"/>
	<polygon fill="#27AAE1" points="147,144 156.3,229.7 153.9,229.7 144,144.4 	"/>
	<polygon fill="#27AAE1" points="133.5,232.5 116.2,245.5 128.4,251.2 136.5,233.4 	"/>
	<polygon fill="#27AAE1" points="154.6,230.8 158,251.2 174.3,242.7 159.3,229.7 	"/>
</g>
<g id="Layer_1">
	<ellipse fill="none" stroke="#000000" stroke-width="2" stroke-miterlimit="10" cx="139.9" cy="58.8" rx="14" ry="19.9"/>
	<path fill="none" stroke="#000000" stroke-width="2" stroke-miterlimit="10" d="M130.8,38.9c0,0,8.8,5.4,19.5,3.4"/>
	<path fill="none" stroke="#000000" stroke-width="2" stroke-miterlimit="10" d="M126.8,44.3c0,0,13.7,4.3,25.5,0.7"/>
	<path fill="none" stroke="#000000" stroke-width="2" stroke-miterlimit="10" d="M125.1,48.3c0,0,14.3,5,28.8-0.8"/>
	<polyline fill="none" stroke="#000000" stroke-width="2" stroke-miterlimit="10" points="136.1,78.6 136.1,81.5 144.3,81.5 
		144.3,77.8 	"/>
	<path fill="none" stroke="#000000" stroke-width="2" stroke-miterlimit="10" d="M123.3,84.1c0,0,14-5.5,33-1.2v59.4
		c0,0-17.5,3-27.8,1.3L123.3,84.1z"/>
	<polyline fill="none" stroke="#000000" stroke-width="2" stroke-miterlimit="10" points="123.3,84.1 99.4,91.5 105.1,63.3 
		88.1,58.8 88.1,67.3 97.3,67.3 88.8,102 124.4,97.6 	"/>
	<line fill="none" stroke="#000000" stroke-width="2" stroke-miterlimit="10" x1="97.3" y1="67.3" x2="105.1" y2="63.3"/>
	<line fill="none" stroke="#000000" stroke-width="2" stroke-miterlimit="10" x1="99.4" y1="91.5" x2="88.8" y2="102"/>
	<polyline fill="none" stroke="#000000" stroke-width="2" stroke-miterlimit="10" points="156.3,94.8 187.1,98.8 183.9,66.1 
		196.6,66.1 199.6,58.8 177.9,61.3 176.6,85.2 156.3,83 	"/>
	<line fill="none" stroke="#000000" stroke-width="2" stroke-miterlimit="10" x1="177.9" y1="61.3" x2="183.9" y2="66.1"/>
	<line fill="none" stroke="#000000" stroke-width="2" stroke-miterlimit="10" x1="176.6" y1="85.2" x2="187" y2="97.6"/>
	<polyline fill="none" stroke="#000000" stroke-width="2" stroke-miterlimit="10" points="128.4,143.6 130.9,232.1 136.8,232.1 
		140.8,144.1 	"/>
	<polyline fill="none" stroke="#000000" stroke-width="2" stroke-miterlimit="10" points="144.3,144.2 153.9,229.7 161.1,229.7 
		156.3,142.4 	"/>
	<polyline fill="none" stroke="#000000" stroke-width="2" stroke-miterlimit="10" points="130.9,232.1 116.2,241.9 127.5,248.6 
		137,232.6 	"/>
	<polyline fill="none" stroke="#000000" stroke-width="2" stroke-miterlimit="10" points="154.6,229.7 159.7,247.8 174.3,240.4 
		161.1,229.7 	"/>
</g>
<g id="Layer_3">
	<path opacity="0" fill="none" stroke="#27AAE1" stroke-width="22" stroke-miterlimit="10" d="M116.7,36.5
		c9.6,0.4,19.2,0.7,28.9,1.1C125.7,44,103,39.2,84.1,47.9c19.6-1.7,39.2-2.8,58.9-3.4c-18.8,1.9-37.5,4.3-56.1,7
		c-2.2,0.3-5,1.1-5.5,3.3c5.1,2,10.8,2,16.2,2c13.5-0.1,27.1-0.4,40.6-1c-18.4,2.3-36.7,6.5-54.3,12.4c19.2,0.2,38.4-0.9,57.4-3.3
		c-17.2,7.9-37.6,7.8-53.5,18c18.6,0.6,37.4-1.5,55.4-6.1c-14.2,4.4-28.4,8.7-42.5,13.2c-5.4,1.7-11.1,3.7-14.7,8.1
		c14.6-1.5,29.2-2.9,43.8-4.4c-7.2,3.8-14.2,7.9-21,12.4c7.2,0.4,14.5,1.1,21.6,2.2c-5.5,4.3-11.4,8.1-17.6,11.5
		c7.1,0.3,14.2,0.5,21.3,0.8c-7.3,3.7-14.5,7.4-21.8,11.1c9.8,0.8,19.6,1.6,29.3,2.4c-6.6,2-12.9,4.9-18.6,8.6
		c10.6,1.1,21.3,1.8,32,2c-11.3,2.9-22.6,5.8-33.9,8.7c13.8,1.7,27.6,3.5,41.4,5.2c-7.5,0.9-15,1.8-22.5,2.7
		c-7.6,0.9-15.4,1.8-22.5,4.6c12.6,3.3,25.3,6,38.2,8c-10.7,4.9-21.9,8.7-33.4,11.3c11.2-0.4,22.4,0.1,33.5,1.5
		c-12,6-24.8,10.5-37.9,13.3c18.1,1.6,36.1,3.1,54.2,4.7c-15.1,2.7-30.1,5.4-45.2,8.1c11.2,1.7,22.5,3.4,33.7,5.1
		c-14.7,0.6-29.4,1.3-44,1.9c12.7,4.3,26.1,6.4,39.5,6c-12.3,2.9-24.5,6.4-36.5,10.6c20.2,0.3,40.5-0.5,60.6-2.4
		c-22.1,0.5-42.9,10.8-65,12.9c20.8,1.7,41.6,2.6,62.4,2.6"/>
</g>
</svg>
