<?xml version="1.0" encoding="utf-8"?>
<!-- Generator: Adobe Illustrator 20.1.0, SVG Export Plug-In . SVG Version: 6.00 Build 0)  -->
<!DOCTYPE svg PUBLIC "-//W3C//DTD SVG 1.0//EN" "http://www.w3.org/TR/2001/REC-SVG-20010904/DTD/svg10.dtd">
<svg version="1.0" id="Layer_1" xmlns="http://www.w3.org/2000/svg" xmlns:xlink="http://www.w3.org/1999/xlink" x="0px" y="0px"
	 width="792px" height="612px" viewBox="0 0 792 612" enable-background="new 0 0 792 612" xml:space="preserve">
<path fill="none" stroke="#FFFFFF" stroke-width="16" stroke-linecap="round" stroke-linejoin="round" stroke-miterlimit="10" d="
	M294.1,233c26.5,0,53,0,79.5,0c36.5,0,73.1,0,109.6,0c3,0,15,0,7,5.5c-1.9,1.3-4.3,1.4-6.6,1.4c-59.4,1.1-118.8,0.8-178.2-1.1
	c-3.5-0.1-7.8,0.1-9.7,3.1c54.7,4.3,109.6,5.8,164.5,4.4c12.4-0.3,25.1-0.7,36.6,3.6c-11.7,5.1-25,3.2-37.7,2.1
	c-21.3-1.9-42.7-1.4-64.1-0.9c-20,0.5-40.1,1-60.1,1.4c-14.9,0.4-29.8,0.7-44.4,3.6c-1.7,0.3-3.8,1.1-3.9,2.9
	c-0.1,1.9,2.2,2.8,4,3.2c13.7,2.5,27.8,1.3,41.7,0.5c20.5-1.2,41-1.4,61.5-1.5c30.8-0.3,61.6-0.5,92.4-0.8c3.1,0,7.2,0.7,7.6,3.8
	c-4.2,4.3-10.8,4.8-16.8,4.9c-28.1,0.4-56.1-3.2-84.1-3.8c-31.5-0.7-63,2.3-94.4,5.3c-1.5,0.1-3.1,0.4-4.2,1.5
	c-1.5,1.5-0.9,4.2,0.6,5.7c1.5,1.5,3.6,2.2,5.7,2.7c8.8,2.4,18,4.3,27.1,2.9c6.5-1,12.7-3.8,19.1-5.4c8.4-2.2,17.1-2.4,25.8-2.4
	c40,0.2,80.2,7.1,119.9,2.3c2.2,3,0.7,7.5-2.3,9.7c-2.9,2.2-6.8,2.7-10.5,3c-34.8,2.7-69.7-6.7-104.5-4c-13.4,1.1-26.6,3.9-40,4.9
	c-13.9,1-27.9,0-41.8-1c7.2,6.7,17.2,9.7,27,10.4c9.8,0.8,19.6-0.6,29.4-1.5c47.4-4.4,95.6-2.6,143.3-2c-24.8,6-50.8,4.5-76.3,5.5
	c-21,0.8-41.9,3.4-62.9,5.2c-26.2,2.2-52.4,3.3-78.6,4.3c1.6,3.4,6,3.9,9.8,4.1c11.7,0.4,23.3,0.7,35,1.1
	c16.1,0.5,32.2,0.9,48.3,0.1c17-0.8,33.9-3,50.9-3.5c30.2-0.9,60.2,3.2,90.1,7.3c-7.3,3-15.4,3-23.2,2.9
	c-47.3-0.3-94.6-0.3-141.9-0.1c-19.3,0.1-38.5,0.3-57.8,1.4c-4,0.2-8.6,0.8-10.9,4.2c7.8,0.3,15.5,0.6,23.3,0.9
	c60.7,2.2,121.5,4.5,182.2,2.3c5.2-0.2,10.8-0.3,14.9,2.9c-5.7,4.9-13.5,6.6-21,7.4c-29,3.2-58.2-2.9-87.4-5
	c-36.4-2.6-72.8,1.2-109.1,4.9c1.1,2.4,4,3.2,6.6,3.7c19.5,3.6,39.5,3,59.4,3c44.7,0,89.4,3.2,134,6.4"/>
</svg>
