<?xml version="1.0" encoding="utf-8"?>
<!-- Generator: Adobe Illustrator 19.2.1, SVG Export Plug-In . SVG Version: 6.00 Build 0)  -->
<svg version="1.0" id="Layer_1" xmlns="http://www.w3.org/2000/svg" xmlns:xlink="http://www.w3.org/1999/xlink" x="0px" y="0px"
	 width="288px" height="288px" viewBox="0 0 288 288" enable-background="new 0 0 288 288" xml:space="preserve">
<polyline fill="none" stroke="#000000" stroke-width="2" stroke-miterlimit="10" points="101.1,96.9 107.8,138.7 99.8,150.2 
	118.1,176.9 128.6,177.7 132.8,171.3 132.9,138.7 143.7,134.7 141.7,125.7 128.6,132.4 121.7,92.9 "/>
<polyline fill="none" stroke="#000000" stroke-width="2" stroke-miterlimit="10" points="189.4,96.9 182.6,138.7 190.7,150.2 
	172.4,176.9 161.9,177.7 157.7,171.3 157.6,138.7 146.8,134.7 148.7,125.7 161.9,132.4 168.7,92.9 "/>
<path fill="none" stroke="#000000" stroke-width="2" stroke-miterlimit="10" d="M101.5,151.5c-1.7,2-4.5,6.3-5.5,12.3
	c-1.3,8.7,5.7,12.3,6.7,16.3s8.6,14.3,15.1,10.3c6.5-4,12.6-5,14.9-5c2.3,0,9.6-3.3,9.6-3.3l22.6,5c0,0,16.9-1.3,19-2.5
	c2.1-1.2,5.8-4.8,7.4-12.5c1.7-7.7,0-17.3,0-17.3s-0.8-1.2-1.8-2.8"/>
<path fill="none" stroke="#000000" stroke-width="2" stroke-miterlimit="10" d="M151.2,136.5c-2.6,0-5.1,0-6.6,0
	c-1.2,0-2.8-0.3-4.4-0.6"/>
<line fill="none" stroke="#000000" stroke-width="2" stroke-miterlimit="10" x1="123.1" y1="177.3" x2="111.9" y2="156.6"/>
<line fill="none" stroke="#000000" stroke-width="2" stroke-miterlimit="10" x1="128.6" y1="177.7" x2="117.6" y2="152.7"/>
<line fill="none" stroke="#000000" stroke-width="2" stroke-miterlimit="10" x1="131.3" y1="173.7" x2="125.3" y2="152.1"/>
<line fill="none" stroke="#000000" stroke-width="2" stroke-miterlimit="10" x1="159.2" y1="173.7" x2="165.1" y2="152.1"/>
<line fill="none" stroke="#000000" stroke-width="2" stroke-miterlimit="10" x1="161.9" y1="177.7" x2="172.9" y2="152.7"/>
<line fill="none" stroke="#000000" stroke-width="2" stroke-miterlimit="10" x1="167.4" y1="177.3" x2="178.6" y2="156.6"/>
<path fill="none" stroke="#000000" stroke-width="2" stroke-miterlimit="10" d="M107.2,177.5c0,0,0,4.7,2.2,7"/>
<path fill="none" stroke="#000000" stroke-width="2" stroke-miterlimit="10" d="M109.4,173.3c0,0,0.5,7.5,5,11.2"/>
<path fill="none" stroke="#000000" stroke-width="2" stroke-miterlimit="10" d="M146.1,143.3c0,0,3.7-0.4,6.1,0"/>
<path fill="none" stroke="#000000" stroke-width="2" stroke-miterlimit="10" d="M153.8,148.1c-0.4-0.3-7.8-2.3-10.1-1.3"/>
<path fill="none" stroke="#000000" stroke-width="2" stroke-miterlimit="10" d="M141.2,169.8c0,0,4.3,3.5,7.2,3.1"/>
<path fill="none" stroke="#000000" stroke-width="2" stroke-miterlimit="10" d="M139.5,173.7c0.5,0,4.8,3.2,7.1,3.1"/>
<path fill="none" stroke="#000000" stroke-width="2" stroke-miterlimit="10" d="M181.1,180c0,0,3.4-3.2,3.6-6.4"/>
<path fill="none" stroke="#000000" stroke-width="2" stroke-miterlimit="10" d="M176.6,181.3c0,0,5.1-5.6,4.6-11.3"/>
</svg>
