<?xml version="1.0" encoding="utf-8"?>
<!-- Generator: Adobe Illustrator 20.1.0, SVG Export Plug-In . SVG Version: 6.00 Build 0)  -->
<!DOCTYPE svg PUBLIC "-//W3C//DTD SVG 1.0//EN" "http://www.w3.org/TR/2001/REC-SVG-20010904/DTD/svg10.dtd">
<svg version="1.0" id="Layer_1" xmlns="http://www.w3.org/2000/svg" xmlns:xlink="http://www.w3.org/1999/xlink" x="0px" y="0px"
	 width="288px" height="288px" viewBox="0 0 288 288" enable-background="new 0 0 288 288" xml:space="preserve">
<polyline fill="none" stroke="#000000" stroke-width="0.75" stroke-miterlimit="10" points="122.2,97.8 127.4,126.8 141.5,126.8 
	148.8,93.4 "/>
<path fill="none" stroke="#000000" stroke-width="0.75" stroke-miterlimit="10" d="M126.7,126.8l-10.3,3.5c0,0-8.5,16-7.7,16.2
	s7.7,4.2,8.2,3.8s11.9-10.8,12.5-10.8c0.5,0,40.9,7.7,40.9,7.7l8.7-8.6l-37.3-11.8"/>
<line fill="none" stroke="#000000" stroke-width="0.75" stroke-miterlimit="10" x1="174.5" y1="142.2" x2="144.6" y2="133.5"/>
<ellipse fill="none" stroke="#000000" stroke-width="0.75" stroke-miterlimit="10" cx="140.2" cy="154.8" rx="2.8" ry="3.2"/>
<ellipse fill="none" stroke="#000000" stroke-width="0.75" stroke-miterlimit="10" cx="127.2" cy="168.5" rx="2.6" ry="3"/>
<circle fill="none" stroke="#000000" stroke-width="0.75" stroke-miterlimit="10" cx="139.3" cy="165.8" r="0.8"/>
<ellipse fill="none" stroke="#000000" stroke-width="0.75" stroke-miterlimit="10" cx="152" cy="165.3" rx="2.7" ry="3.1"/>
<ellipse fill="none" stroke="#000000" stroke-width="0.75" stroke-miterlimit="10" cx="144.2" cy="178.4" rx="3" ry="3.8"/>
<ellipse fill="none" stroke="#000000" stroke-width="0.75" stroke-miterlimit="10" cx="130.4" cy="188" rx="2.5" ry="2.9"/>
<circle fill="none" stroke="#000000" stroke-width="0.75" stroke-miterlimit="10" cx="158.7" cy="174.8" r="0.8"/>
<circle fill="none" stroke="#000000" stroke-width="0.75" stroke-miterlimit="10" cx="143.7" cy="191.8" r="0.8"/>
</svg>
