<?xml version="1.0" encoding="utf-8"?>
<!-- Generator: Adobe Illustrator 19.2.1, SVG Export Plug-In . SVG Version: 6.00 Build 0)  -->
<svg version="1.0" xmlns="http://www.w3.org/2000/svg" xmlns:xlink="http://www.w3.org/1999/xlink" x="0px" y="0px" width="288px"
	 height="288px" viewBox="0 0 288 288" enable-background="new 0 0 288 288" xml:space="preserve">
<g id="Layer_2">
	<path fill="#27AAE1" d="M120.1,39.2c0,0-12.8,25,12.5,38c0,0-9.6,3.4-17.5-10.8S117.5,40.1,120.1,39.2z"/>
	<path fill="#27AAE1" d="M121.4,86.5c0,0,10.3,32.6,11.9,54.2l14,1.3l-17.9,3.8l-13.2-54l-1.1-5.4H121.4z"/>
	<polygon fill="#27AAE1" points="118,99.1 109.8,118 120.5,151.9 122.2,151.9 115.1,114.1 120.3,106.8 	"/>
	<polygon fill="#27AAE1" points="135,144.7 138,233.7 135.9,233.7 129.5,145.9 	"/>
	<path fill="#27AAE1" d="M149.1,141.7c0,0,7.6,46.4,10.2,91.1l-2.5,1L146,154.4l-1.7-11.7L149.1,141.7z"/>
	<polygon fill="#27AAE1" points="138,233.7 118.1,246.8 135,251 142.2,233.7 	"/>
	<polygon fill="#27AAE1" points="156.9,233.7 165.2,251 184.8,241.6 160.8,232.3 	"/>
</g>
<g id="Layer_1">
	
		<ellipse transform="matrix(0.9639 -0.2662 0.2662 0.9639 -10.8072 35.9704)" fill="none" stroke="#000000" stroke-width="2" stroke-miterlimit="10" cx="127.3" cy="57.9" rx="13.8" ry="20.1"/>
	<path fill="none" stroke="#000000" stroke-width="2" stroke-miterlimit="10" d="M111.6,45.8c0,0,15.3-2.9,19-8.1"/>
	<path fill="none" stroke="#000000" stroke-width="2" stroke-miterlimit="10" d="M110.6,49.1c0,0,16.7-2.8,24.5-10.1"/>
	<path fill="none" stroke="#000000" stroke-width="2" stroke-miterlimit="10" d="M136.1,41.7c0,0-13.3,11.2-25.5,11.7"/>
	<polyline fill="none" stroke="#000000" stroke-width="2" stroke-miterlimit="10" points="128.2,77.4 130.6,83.9 136.1,82.4 
		135.8,75.7 	"/>
	<path fill="none" stroke="#000000" stroke-width="2" stroke-miterlimit="10" d="M115.1,87.2l34-7.4c0,0,8.7,28.4,4.5,60.9
		l-24.2,5.2L115.1,87.2z"/>
	<polyline fill="none" stroke="#000000" stroke-width="2" stroke-miterlimit="10" points="115.1,87.2 103.6,118.9 119.1,151.9 
		121.4,150.9 115,114.4 	"/>
	<line fill="none" stroke="#000000" stroke-width="2" stroke-miterlimit="10" x1="119.6" y1="105.5" x2="107.8" y2="128.2"/>
	<polygon fill="none" stroke="#000000" stroke-width="2" stroke-miterlimit="10" points="122.2,151.9 127.2,159.6 123.6,168.9 
		117.1,167.2 119.1,158.6 119.3,153.2 	"/>
	<path fill="none" stroke="#000000" stroke-width="2" stroke-miterlimit="10" d="M149.1,79.8c0,0,19.5,29.7,20.5,64.4l-3.5,1.7
		c0,0-5.7-24.9-11.7-33.7"/>
	<polygon fill="none" stroke="#000000" stroke-width="2" stroke-miterlimit="10" points="165.6,145.7 163.6,154.9 165.8,156.1 
		165.8,161.9 172,164.6 169.6,144.2 	"/>
	<line fill="none" stroke="#000000" stroke-width="2" stroke-miterlimit="10" x1="156.2" y1="115.2" x2="163.2" y2="110.1"/>
	<path fill="none" stroke="#000000" stroke-width="2" stroke-miterlimit="10" d="M129.5,145.9l6.4,87.8h5l3.4-91l12.6,91l3.2-1.1
		c0,0,8.2-61.8-6.5-91.9"/>
	<polygon fill="none" stroke="#000000" stroke-width="2" stroke-miterlimit="10" points="135.9,233.7 118.1,242.4 132,249.5 
		140.9,233.7 	"/>
	<polygon fill="none" stroke="#000000" stroke-width="2" stroke-miterlimit="10" points="156.9,233.7 167.8,249.5 182,238.6 
		160.8,232.3 	"/>
</g>
<g id="Layer_3">
	<path opacity="0" fill="none" stroke="#75C043" stroke-width="23" stroke-miterlimit="10" d="M110.5,40.3c10.7-2,21.7-2.6,32.6-1.7
		c-12.5,2.5-24.8,6.5-36.4,11.7c11-1.6,22.2-2.6,33.3-3.1c-11.9,5.5-24.2,10.2-36.7,14.1c17.1-2.1,34.2-4.2,51.3-6.3
		c-21.1,8-42.3,16-63.4,24c17.9-2.1,35.8-4.2,53.7-6.3c-15,6.6-30,13.2-45,19.8c20.3-4.5,40.9-7.5,61.6-9.1
		c-20.6,9.3-41.2,18.5-61.8,27.8c21.1-4.8,42.7-7.2,64.3-7.1c-19,5.7-37.4,13.8-54.4,24.1c20.8-5.5,42.4-7.9,64-7.3
		c-28.8,11-60,16.4-86.8,31.6c28.1-2.1,56.2-4.7,84.2-7.7c-19,6.8-37.3,15.5-54.7,25.7c15.6-5.9,32.4-8.5,49.1-7.6
		c-15.4,8.9-30.8,17.9-46.2,26.8c16.5-4.4,33.4-7.7,50.4-9.7c-15.3,8.4-30.2,17.8-44.5,27.9c17-8,36.2-9.5,55-10.9
		c-16.5,8.1-32.9,16.2-49.4,24.4c12.9-2.3,25.9-3.8,38.9-4.5c-19.8,9.4-39.6,18.9-59.4,28.3c12.1,0.9,24.3-0.7,36.3-2.4
		c-5.5,2.9-11.1,5.9-16.6,8.8c9.1-5,18.3-9.9,28.1-13.2s20.5-4.8,30.6-2.6c-12.5,3.9-24.9,8.2-37.2,12.9c10.4-3.4,21.1-5.7,32-6.7
		c-7,5.9-14.9,10.7-23.4,14.2c7.2-0.4,14.4-1,21.5-1.9"/>
</g>
</svg>
