<?xml version="1.0" encoding="utf-8"?>
<!-- Generator: Adobe Illustrator 19.2.1, SVG Export Plug-In . SVG Version: 6.00 Build 0)  -->
<svg version="1.0" xmlns="http://www.w3.org/2000/svg" xmlns:xlink="http://www.w3.org/1999/xlink" x="0px" y="0px" width="288px"
	 height="288px" viewBox="0 0 288 288" enable-background="new 0 0 288 288" xml:space="preserve">
<g id="Layer_2">
	<path fill="#27AAE1" d="M155.4,40.6c0,0,11.3,20.1-1.1,32.6l5.5,1.8c0,0,4.8-9,4.9-18.5C164.8,47,157.1,41.1,155.4,40.6z"/>
	<path fill="#27AAE1" d="M161.6,79.2c0,0,13.4,11.3,13.6,31.9L162.6,101l4.2,42.9l-11.4,1.3V84h5.3l6,6.3l-7-9.6L161.6,79.2z"/>
	<path fill="#27AAE1" d="M159.8,145.2l6.5,88.5l1.8-0.9c0,0,3.1-41.7,2.3-56s-3-29.7-3-29.7l-0.7-3.1L159.8,145.2z"/>
	<path fill="#27AAE1" d="M147,145.6c0,0,4.6,67,1.9,88.1l3.5,0.6l1.1-50.1l0.9-28.7l0-10L147,145.6z"/>
	<polygon fill="#27AAE1" points="148.9,233.7 130.4,246.5 144,250 152.4,234.3 	"/>
	<polygon fill="#27AAE1" points="164.2,234 170.6,248.4 185.1,244 166.3,233.7 	"/>
</g>
<g id="Layer_1">
	<path fill="none" stroke="#000000" stroke-width="2" stroke-miterlimit="10" d="M153.2,78.1c-1.3,0.4-2.6,0.6-3.9,0.5
		c-7.5-0.7-12.9-9.9-11.9-20.5c0.9-10.7,7.8-18.8,15.3-18.2c7.5,0.7,12.9,9.9,11.9,20.5c-0.5,5.7-2.7,10.7-5.8,14"/>
	<path fill="none" stroke="#000000" stroke-width="2" stroke-miterlimit="10" d="M139.8,43.4c0,0,11.2,3.8,21.8-1.5"/>
	<path fill="none" stroke="#000000" stroke-width="2" stroke-miterlimit="10" d="M136.1,46.6c1,0,11.9,5.1,26.6-2.4"/>
	<path fill="none" stroke="#000000" stroke-width="2" stroke-miterlimit="10" d="M135.1,52.4c0,0,19.2,0.5,29.8-5.4"/>
	<polyline fill="none" stroke="#000000" stroke-width="2" stroke-miterlimit="10" points="145.5,77.5 146.4,84 152.4,83 152.4,78.4 
			"/>
	<path fill="none" stroke="#000000" stroke-width="2" stroke-miterlimit="10" d="M130.4,86.2c0,0,15.2-3.7,31.2-2.1
		c0,0,2.1,45.1,5.2,59.8c0,0-17.2,2.6-26.5,1.3C140.2,145.2,132.1,121.8,130.4,86.2z"/>
	<polyline fill="none" stroke="#000000" stroke-width="2" stroke-miterlimit="10" points="130.4,86.2 117.1,111 137.2,133.4 	"/>
	<path fill="none" stroke="#000000" stroke-width="2" stroke-miterlimit="10" d="M121.8,116.2c0,0,7.3-10.1,9.6-11.7"/>
	<line fill="none" stroke="#000000" stroke-width="2" stroke-miterlimit="10" x1="127.2" y1="109.1" x2="134.2" y2="120.2"/>
	<polyline fill="none" stroke="#000000" stroke-width="2" stroke-miterlimit="10" points="136.4,132.5 126,135.5 133.9,142.4 
		138.3,136.6 	"/>
	<polygon fill="none" stroke="#000000" stroke-width="2" stroke-miterlimit="10" points="161.6,79.2 166.3,73.6 163.9,71.4 
		160.6,75.3 148.9,71.4 148.1,76.6 159.8,80.7 	"/>
	<path fill="none" stroke="#000000" stroke-width="2" stroke-miterlimit="10" d="M163,77.5c0,0,15.4,15,18.3,38.7L162.6,101"/>
	<path fill="none" stroke="#000000" stroke-width="2" stroke-miterlimit="10" d="M159.8,80.7c0,0,12.4,11.9,10.1,26.2"/>
	<line fill="none" stroke="#000000" stroke-width="2" stroke-miterlimit="10" x1="161.6" y1="85.3" x2="166.8" y2="90.4"/>
	<path fill="none" stroke="#000000" stroke-width="2" stroke-miterlimit="10" d="M140.2,145.5c0,0-0.6,57.2,7.9,88.8h4.3l1.9-88.8
		l9.9,87.4l3.9-0.2c0,0,6.3-59.4-1.4-88.5"/>
	<path fill="none" stroke="#000000" stroke-width="2" stroke-miterlimit="10" d="M147.5,234.3c-0.4,0.3-17.9,7.2-17.9,7.2
		s10.8,7.2,11.6,6.9s11.5-13.5,11.5-13.5L147.5,234.3z"/>
	<polygon fill="none" stroke="#000000" stroke-width="2" stroke-miterlimit="10" points="164.2,234 173.8,248.4 185.1,241.3 
		169,233.3 	"/>
</g>
<g id="Layer_3">
	<path opacity="0" fill="none" stroke="#EF4136" stroke-width="22" stroke-miterlimit="10" d="M139.8,43.4c-0.5,0.4-1.2-0.6-0.8-1.1
		s1.1-0.7,1.7-0.7c8.3-0.7,16.6-0.8,24.9-0.3c-8.4,0.2-16.8,1.1-25.1,2.7c6.5,0.6,13.1,1.3,19.6,1.9c-10.5,3.9-21.1,7.7-31.6,11.6
		c12.7-0.5,25.5-1,38.2-1.5c-10.8,1.5-21.4,5.1-30.8,10.8c11.9-1.3,23.9-1.9,35.9-1.8c-12.3,2-24.3,5.5-35.8,10.3
		c13.7-1.3,27.5-1.9,41.2-1.5c-16.1,5.2-32.7,9-49.5,11.4c16.5-0.7,33.1-1.3,49.6-2c-14.5,3.6-29,7.1-43.5,10.7
		c16.7,0,33.3,0.1,50,0.1c-16.6,3.8-33.1,7.5-49.7,11.3c17.2-1.7,34.5-2.6,51.8-2.7c-17.6-0.2-35.2,4.4-50.4,13.1
		c14.5-0.6,29-1.2,43.5-1.8c-14.2,7.1-29.1,12.9-44.4,17.2c13.2-1.7,26.5-2.3,39.8-1.9c-18.7,4.1-37.3,8.7-55.7,13.8
		c19.2,0.3,38.5,0,57.6-1.2c-15,6.5-30.8,11.2-46.9,13.7c18.2-0.1,36.4-0.9,54.5-2.5c-18,6.3-36.3,11.8-54.8,16.4
		c14.6-0.5,29.2-0.9,43.8-1.4c-10.1,4.9-20.7,8.9-31.5,11.8c11.1,0.2,22.2,0.3,33.3,0.5c-12,6.9-24.4,13.2-37.1,18.6
		c10.7,0.2,21.3,0.5,32,0.7c-9.8,1.9-19.4,4.5-28.9,7.7c13.2,0.1,26.4,0.3,39.5,0.4c-16.2,4.1-32.2,9.3-47.7,15.5
		c13.6-1.3,27.2-2.6,40.9-2c-14,2.4-27.9,5.8-41.4,10c15.4-0.3,30.8-0.7,46.2-1c-14,5.1-28.3,9.4-42.8,13.1
		c11.9-0.6,23.7-1.3,35.6-1.9c-11.9,3.3-30.1,5.9-42.4,7.1c18.4,1.5,42.9,0,60.9-3.9"/>
</g>
</svg>
