<?xml version="1.0" encoding="utf-8"?>
<!-- Generator: Adobe Illustrator 19.2.1, SVG Export Plug-In . SVG Version: 6.00 Build 0)  -->
<svg version="1.0" xmlns="http://www.w3.org/2000/svg" xmlns:xlink="http://www.w3.org/1999/xlink" x="0px" y="0px" width="288px"
	 height="288px" viewBox="0 0 288 288" enable-background="new 0 0 288 288" xml:space="preserve">
<g id="Layer_2">
	<path fill="#27AAE1" d="M150.3,44.2c0,0,9.2,26-7.5,37.4c0,0,10-0.1,12.3-6.9c2.3-6.8,3.2-15.5,3.2-15.5S158.7,48.4,150.3,44.2z"/>
	<path fill="#27AAE1" d="M148.6,87c0,0,0.6,11.6,2,24.4c1.5-0.8,3-1.6,4.6-2.1c0.8-0.2,1.5,0,2,0.4c-0.4-3.9-0.9-7.3-1-7.6
		c-0.3-0.5-1.1-15.1-1.1-15.1H148.6z"/>
	<path fill="#27AAE1" d="M158.1,119c5.9-3.1,10-6.5,10-6.5L155.8,93l0.4,9.2l6.3,9.2l-4.8,2.6c0-0.2,0-0.5-0.1-0.7
		c0,0-0.1,0.1-0.1,0.1c-1.7,1.6-4,3.2-6.3,4c0,0.3,0.1,0.5,0.1,0.8l-7.9,5.8c2.8-0.3,5.7-1.1,8.3-2c1.1,7.8,2.4,15,4,19l-13.3,6.8
		l23.6-3c0,0-7.8-20.9-8-25.2C158.2,119.3,158.2,119.2,158.1,119z"/>
	<path fill="#27AAE1" d="M149.2,147.7l11.2,2.7c0,0,1.2,67.9,4.8,78.3l1-82.9L149.2,147.7z"/>
	<path fill="#27AAE1" d="M149.2,147.7c0,0-11.5,37.1-1.7,83.4c0,0-16-44.9-5-83.4H149.2z"/>
	<polygon fill="#27AAE1" points="146.7,231 133.5,236.7 138.3,239.3 149.8,235.2 	"/>
	<path fill="#27AAE1" d="M165.2,228.6c-0.2,0.7,1.7,15.3,1.7,15.3l11.8-3.1l-12.4-12.2H165.2z"/>
</g>
<g id="Layer_1">
	
		<ellipse transform="matrix(8.716325e-02 -0.9962 0.9962 8.716325e-02 69.9518 200.8162)" fill="none" stroke="#000000" stroke-width="2" stroke-miterlimit="10" cx="144.6" cy="62.2" rx="19.4" ry="13.7"/>
	<path fill="none" stroke="#000000" stroke-width="2" stroke-miterlimit="10" d="M134.3,45.4c0,0,10.3,3.8,19.9-1.5"/>
	<path fill="none" stroke="#000000" stroke-width="2" stroke-miterlimit="10" d="M130.9,48.6c0.9,0,10.8,5.1,24.3-2.4"/>
	<path fill="none" stroke="#000000" stroke-width="2" stroke-miterlimit="10" d="M130,54.4c0,0,17.6,0.5,27.2-5.4"/>
	<polyline fill="none" stroke="#000000" stroke-width="2" stroke-miterlimit="10" points="139,80.4 139.9,86.2 146,86 146,81.4 	"/>
	<path fill="none" stroke="#000000" stroke-width="2" stroke-miterlimit="10" d="M125.1,109.4c-0.7-6.1-1.2-12.9-1.2-20.2
		c0,0,15.2-3.7,31.2-2.1c0,0,0.2,9.7,1.5,21.4"/>
	<path fill="none" stroke="#000000" stroke-width="2" stroke-miterlimit="10" d="M124,91.4c0,0-9.3,11.4-12.2,30.8
		c0,0,16.8,14.2,45.4-8.5l1.2-5.7c0,0-22.6,11.3-38.6,7.8"/>
	<path fill="none" stroke="#000000" stroke-width="2" stroke-miterlimit="10" d="M155.1,87c0,0,10,10.2,17.8,26.7
		c0,0-6.1,12.4-32.2,9.9"/>
	<polygon fill="none" stroke="#000000" stroke-width="2" stroke-miterlimit="10" points="133.4,112.1 114,106.4 118.1,114.5 
		130.4,116.4 	"/>
	<line fill="none" stroke="#000000" stroke-width="2" stroke-miterlimit="10" x1="111.8" y1="122.2" x2="121.3" y2="115"/>
	<line fill="none" stroke="#000000" stroke-width="2" stroke-miterlimit="10" x1="133.4" y1="112.1" x2="140.7" y2="114.5"/>
	<polyline fill="none" stroke="#000000" stroke-width="2" stroke-miterlimit="10" points="155.8,99.9 161.8,111.4 173,113.7 	"/>
	<line fill="none" stroke="#000000" stroke-width="2" stroke-miterlimit="10" x1="157.2" y1="113.7" x2="161.8" y2="111.4"/>
	<path fill="none" stroke="#000000" stroke-width="2" stroke-miterlimit="10" d="M158.8,123.3c1.6,8.6,4,16.7,7.3,21.4
		c0,0-23.3,5.2-31.5,1.9c0,0-3.5-7-6.5-19.7"/>
	<path fill="none" stroke="#000000" stroke-width="2" stroke-miterlimit="10" d="M166.1,144.7l-0.4,83.4l-2.8,0.5
		c0,0-9.4-24.7-14.4-81.2"/>
	<path fill="none" stroke="#000000" stroke-width="2" stroke-miterlimit="10" d="M135.1,147.7c0,0-12.7,37.1,10,81.5l2.5,2.9
		c0,0-8.4-55.4,1-84.7"/>
	<polygon fill="none" stroke="#000000" stroke-width="2" stroke-miterlimit="10" points="146.1,231 129.8,234.8 138.3,239.3 
		149.2,234.3 	"/>
	<polygon fill="none" stroke="#000000" stroke-width="2" stroke-miterlimit="10" points="163,228.6 165.8,228.1 175.9,238.3 
		162.9,243.9 	"/>
</g>
<g id="Layer_3">
	<path opacity="0" fill="none" stroke="#000000" stroke-width="30" stroke-miterlimit="10" d="M126,43.9c10-1,20.1-0.9,30.1,0
		c-11.8,3.6-23.6,7.2-35.4,10.8c13.4-2.8,26.9-5.6,40.3-8.5c-13,4-25.4,9.7-37,16.8c15.3-0.7,30.6-1.4,46-2.1
		c-18.6,8-37.7,14.9-57.1,20.6c15.1-2.1,30.2-4.3,45.2-6.4c-12.2,4.6-24.5,9.2-36.7,13.8c11.2-2,22.5-4,33.7-6
		c-14.5,5.3-28.9,10.7-43.4,16c24-5.6,48.3-11.2,72.9-12.3c-18.1,6.5-36.3,13-54.4,19.4c17.8-2.2,35.6-4.4,53.4-6.6
		c-26.6,6.5-53.2,13-79.7,19.5c5.1,1.7,10.6,1.5,16,1.2c19.3-1,38.6-2.7,57.8-5c-19.1,3.8-37.8,9.6-55.6,17.3
		c-0.5,0.2-1.2,0.8-0.9,1.3c0.3,0.5,0.4-0.8,0.2-0.3c12.9-4.7,26.6-7.2,40.3-7.6c-23.1,4.7-46.1,9.5-69.2,14.2
		c26-2.7,51.9-5.7,77.9-8.8c-18.1,3.8-35.9,8.6-53.5,14.3c18.3-5.2,37-8.5,55.9-10c-17.2,5.1-34.2,10.9-50.9,17.3
		c23-3.8,46.4-5.8,69.7-5.9c-16,4.7-31.6,10.8-46.5,18.3c12.5-1.7,25-3.4,37.5-5.1c-19.5,8.2-39.4,15.6-59.6,21.9
		c21.9-2.7,43.7-6,65.4-9.9c-20.2,3.4-40.1,8.6-59.4,15.6c6.9,2.7,31.7,7,39,5.3c-15.1,6.1-46.2,11.3-58.2,22.3
		c19.7-2,39.3-4.1,59-6.1c-14.3,6.5-28.4,13.8-42,21.7c8.8-0.5,17.6-1.1,26.4-1.6c-6.4,4-12.8,7.9-19.3,11.9
		c15.4-1.2,30.9-2.3,46.3-3.5c-6.2,2.4-12.4,4.9-18.6,7.3c2.9,0,5.9,0,8.8,0"/>
</g>
</svg>
