<?xml version="1.0" encoding="utf-8"?>
<!-- Generator: Adobe Illustrator 19.2.1, SVG Export Plug-In . SVG Version: 6.00 Build 0)  -->
<svg version="1.0" id="Layer_1" xmlns="http://www.w3.org/2000/svg" xmlns:xlink="http://www.w3.org/1999/xlink" x="0px" y="0px"
	 width="288px" height="288px" viewBox="0 0 288 288" enable-background="new 0 0 288 288" xml:space="preserve">
<path fill="none" stroke="#000000" stroke-width="2" stroke-miterlimit="10" d="M151.8,34.2c0,0-14.3-2.5-22.3-2.7
	c-8-0.2-17.5-1.5-21.8,1.3c-4.4,2.8-23.2,10.5-25.1,11s-12.1,4.9-12.1,4.9L49.4,59.2L39.2,73.5c0,0-9.5,8.1-9.5,18.6s0,11.3,0,21.1
	s-1.8,54.1,27.5,61.8s46,26.6,70.8,25.2s52.4-4.4,52.4-4.4s10.2,3.6,23.3-2.9c13.1-6.5,24.8-6.9,29.9-15.1s5.1-13.6,10.9-21.8
	s8.7-7.5,11.7-15.5c2.9-8,0-27.7,0-27.7s-2.9-36.7-17.5-46.4c-14.6-9.7-17.5-14.1-22.6-18.4s-14.6-6.3-21.8-7.5
	c-7.3-1.2-18.9,7.9-24.8,3.4S151.8,34.2,151.8,34.2z"/>
<path fill="none" stroke="#000000" stroke-width="2" stroke-miterlimit="10" d="M194,202.3l-6.8,3.5l0.5,6l4.4,5.5h6.5
	c0,0,5.3-5,4.8-5.8s-2.2-3.3-2.5-3.9c-0.3-0.6,0-3.9,0-3.9L194,202.3z"/>
<path fill="none" stroke="#000000" stroke-width="2" stroke-miterlimit="10" d="M184.4,221.5l-5.8,1.9v7.2c0,0,2.3,4.8,3.4,4.8
	c1.1,0,5.6-1.8,5.6-1.8l4.5-3.8c0,0-1.2-3.2-1.2-3.8S184.4,221.5,184.4,221.5z"/>
<polygon fill="none" stroke="#000000" stroke-width="2" stroke-miterlimit="10" points="173.3,236.6 165,238.3 165,242.8 
	167.4,246.8 171,246.8 177.3,244.1 "/>
<path fill="none" stroke="#000000" stroke-width="2" stroke-miterlimit="10" d="M155,246.8h-3.2l-1.6,5c0,0,2.8,5.1,3.3,4.9
	c0.5-0.2,3.9-1.9,3.9-1.9l2.4-3.1V249l-1-2.2H155z"/>
</svg>
