<?xml version="1.0" encoding="utf-8"?>
<!-- Generator: Adobe Illustrator 20.1.0, SVG Export Plug-In . SVG Version: 6.00 Build 0)  -->
<!DOCTYPE svg PUBLIC "-//W3C//DTD SVG 1.0//EN" "http://www.w3.org/TR/2001/REC-SVG-20010904/DTD/svg10.dtd">
<svg version="1.0" xmlns="http://www.w3.org/2000/svg" xmlns:xlink="http://www.w3.org/1999/xlink" x="0px" y="0px" width="288px"
	 height="288px" viewBox="0 0 288 288" enable-background="new 0 0 288 288" xml:space="preserve">
<g id="Color">
	<path fill="#FFFFFF" d="M151.8,34.2c0,0-14.3-2.5-22.3-2.7S112,30,107.7,32.8c-4.4,2.8-23.2,10.5-25.1,11s-12.1,4.9-12.1,4.9
		L49.4,59.2L39.2,73.5c0,0-9.5,8.1-9.5,18.6s0,11.3,0,21.1s-1.8,54.1,27.5,61.8s46,26.6,70.8,25.2s52.4-4.4,52.4-4.4
		s10.2,3.6,23.3-2.9s24.8-6.9,29.9-15.1s5.1-13.6,10.9-21.8s8.7-7.5,11.7-15.5c2.9-8,0-27.7,0-27.7s-2.9-36.7-17.5-46.4
		S221.2,52.3,216.1,48s-14.6-6.3-21.8-7.5c-7.3-1.2-18.9,7.9-24.8,3.4S151.8,34.2,151.8,34.2z"/>
	<path fill="#FFFFFF" d="M194,202.3l-6.8,3.5l0.5,6l4.4,5.5h6.5c0,0,5.3-5,4.8-5.8s-2.2-3.3-2.5-3.9c-0.3-0.6,0-3.9,0-3.9L194,202.3
		z"/>
	<path fill="#FFFFFF" d="M184.4,221.5l-5.8,1.9v7.2c0,0,2.3,4.8,3.4,4.8c1.1,0,5.6-1.8,5.6-1.8l4.5-3.8c0,0-1.2-3.2-1.2-3.8
		S184.4,221.5,184.4,221.5z"/>
	<polygon fill="#FFFFFF" points="173.3,236.6 165,238.3 165,242.8 167.4,246.8 171,246.8 177.3,244.1 	"/>
	<path fill="#FFFFFF" d="M155,246.8h-3.2l-1.6,5c0,0,2.8,5.1,3.3,4.9c0.5-0.2,3.9-1.9,3.9-1.9l2.4-3.1V249l-1-2.2H155z"/>
</g>
<g id="Lines">
	<path fill="none" stroke="#000000" stroke-width="2" stroke-miterlimit="10" d="M151.8,34.2c0,0-14.3-2.5-22.3-2.7
		S112,30,107.7,32.8c-4.4,2.8-23.2,10.5-25.1,11s-12.1,4.9-12.1,4.9L49.4,59.2L39.2,73.5c0,0-9.5,8.1-9.5,18.6s0,11.3,0,21.1
		s-1.8,54.1,27.5,61.8s46,26.6,70.8,25.2s52.4-4.4,52.4-4.4s10.2,3.6,23.3-2.9s24.8-6.9,29.9-15.1s5.1-13.6,10.9-21.8
		s8.7-7.5,11.7-15.5c2.9-8,0-27.7,0-27.7s-2.9-36.7-17.5-46.4S221.2,52.3,216.1,48s-14.6-6.3-21.8-7.5c-7.3-1.2-18.9,7.9-24.8,3.4
		S151.8,34.2,151.8,34.2z"/>
	<path fill="none" stroke="#000000" stroke-width="2" stroke-miterlimit="10" d="M194,202.3l-6.8,3.5l0.5,6l4.4,5.5h6.5
		c0,0,5.3-5,4.8-5.8s-2.2-3.3-2.5-3.9c-0.3-0.6,0-3.9,0-3.9L194,202.3z"/>
	<path fill="none" stroke="#000000" stroke-width="2" stroke-miterlimit="10" d="M184.4,221.5l-5.8,1.9v7.2c0,0,2.3,4.8,3.4,4.8
		c1.1,0,5.6-1.8,5.6-1.8l4.5-3.8c0,0-1.2-3.2-1.2-3.8S184.4,221.5,184.4,221.5z"/>
	<polygon fill="none" stroke="#000000" stroke-width="2" stroke-miterlimit="10" points="173.3,236.6 165,238.3 165,242.8 
		167.4,246.8 171,246.8 177.3,244.1 	"/>
	<path fill="none" stroke="#000000" stroke-width="2" stroke-miterlimit="10" d="M155,246.8h-3.2l-1.6,5c0,0,2.8,5.1,3.3,4.9
		c0.5-0.2,3.9-1.9,3.9-1.9l2.4-3.1V249l-1-2.2H155z"/>
</g>
<g id="Stroke">
	
		<path opacity="0" fill="none" stroke="#231F20" stroke-width="31" stroke-linecap="round" stroke-linejoin="round" stroke-miterlimit="10" d="
		M38.1,11.5c70.6,3.8,141.1,7.6,211.7,11.5c2.1,0.1,5,1.2,4.4,3.3c-77.7,1.6-155.3,3.2-233,4.8c-2.3,2.7,2.5,5.7,6,5.9
		c80.2,6.7,160.8,5.4,241.3,4c-0.9,10.5-13.6,15.4-24.2,16c-13.1,0.7-26.1-1.4-39.1-3.1C149,47,92.1,50.1,35.5,53.2
		c-2.8,0.2-5.8,0.4-8.1,1.9s-3.8,4.9-2.2,7.3c80.6,3.7,161.2,6.1,241.9,7.4c-3.2,6.9-10.4,11.4-17.8,13.2
		c-7.4,1.8-15.2,1.3-22.8,0.9c-63.1-3.6-126.4-4-189.6-1.2c-8,0.3-17.8,2-20.4,9.5c84.4,2.3,168.9,4.5,253.3,6.8
		c0.5,8.1-6.6,15.1-14.4,17.5s-16.1,1.3-24.2,0.4c-70.8-8.2-142.4-1.8-213.3,4.5c-0.4,2.4-0.8,4.8-1.2,7.1c24.6,3.7,49.7,3.4,74.6,3
		c58.4-0.9,116.7-1.8,175.1-2.6c0.3,5.1-3.7,9.8-8.5,11.8c-4.7,2-10.1,2.1-15.2,2.1c-73.1,0.3-146.2,6.9-218.2,19.8
		c1.6,4.4,7.4,5.1,12.1,5c71.9-1.7,143.7-4.2,215.5-7.4c-0.5,7.1-8.9,10.4-15.9,11.7c-26.6,4.9-53.8,3.9-80.8,5.4
		c-27,1.4-54.6,5.5-77.9,19.2c51.1-2.6,102.2-5.2,153.2-7.8c3.9,3.7,1.3,10.8-3.5,13.3c-4.7,2.5-10.4,1.9-15.8,1.4
		c-19.6-1.6-39.6,0.2-58.5,5.5c11.4,5.7,23.5,9.9,36,12.3c4.7,0.9,9.8,1.8,13.5,4.9s5.1,9.5,1.5,12.7c-15.5,0.6-31,0-46.5-1.8
		c1.8,8.1,6.9,15.5,13.9,19.9c-12.4-0.3-24.9-0.5-37.3-0.8c-0.9-1.8-1.2-4-0.9-6"/>
</g>
</svg>
