<?xml version="1.0" encoding="utf-8"?>
<!-- Generator: Adobe Illustrator 20.1.0, SVG Export Plug-In . SVG Version: 6.00 Build 0)  -->
<!DOCTYPE svg PUBLIC "-//W3C//DTD SVG 1.0//EN" "http://www.w3.org/TR/2001/REC-SVG-20010904/DTD/svg10.dtd">
<svg version="1.0" xmlns="http://www.w3.org/2000/svg" xmlns:xlink="http://www.w3.org/1999/xlink" x="0px" y="0px" width="288px"
	 height="288px" viewBox="0 0 288 288" enable-background="new 0 0 288 288" xml:space="preserve">
<g id="Color">
	<path fill="#FFFFFF" d="M156.5,100c0,0-9.8-1.7-15.3-1.9s-12-1-15,0.9s-15.9,7.2-17.2,7.6c-1.3,0.4-8.3,3.4-8.3,3.4l-14.5,7.2
		l-7,9.9c0,0-6.5,5.6-6.5,12.8s0,7.8,0,14.5s-1.2,37.2,18.9,42.4s31.6,18.3,48.6,17.3s36-3,36-3s7,2.5,16-2s17-4.7,20.5-10.3
		s3.5-9.3,7.5-15c4-5.6,6-5.1,8-10.6s0-19,0-19s-2-25.2-12-31.9c-10-6.7-12-9.7-15.5-12.7s-10-4.3-15-5.2c-5-0.8-13,5.4-17,2.3
		C164.6,103.5,156.5,100,156.5,100z"/>
</g>
<g id="Layer_1">
	<path fill="none" stroke="#000000" stroke-width="2" stroke-miterlimit="10" d="M156.5,100c0,0-9.8-1.7-15.3-1.9s-12-1-15,0.9
		s-15.9,7.2-17.2,7.6c-1.3,0.4-8.3,3.4-8.3,3.4l-14.5,7.2l-7,9.9c0,0-6.5,5.6-6.5,12.8s0,7.8,0,14.5s-1.2,37.2,18.9,42.4
		s31.6,18.3,48.6,17.3s36-3,36-3s7,2.5,16-2s17-4.7,20.5-10.3s3.5-9.3,7.5-15c4-5.6,6-5.1,8-10.6s0-19,0-19s-2-25.2-12-31.9
		c-10-6.7-12-9.7-15.5-12.7s-10-4.3-15-5.2c-5-0.8-13,5.4-17,2.3C164.6,103.5,156.5,100,156.5,100z"/>
	<path fill="none" stroke="#000000" stroke-width="2" stroke-miterlimit="10" d="M87.1,175.5c0,0,2.2,8.2,10,13"/>
	<path fill="none" stroke="#000000" stroke-width="2" stroke-miterlimit="10" d="M89.4,173.1c0,0,5,10.4,10.2,12.2"/>
	<path fill="none" stroke="#000000" stroke-width="2" stroke-miterlimit="10" d="M105.4,121.1c0,0-7.2,6.1-9.5,13.2"/>
	<path fill="none" stroke="#000000" stroke-width="2" stroke-miterlimit="10" d="M99.6,121.1c0,0-4,1.1-6.2,6.6"/>
	<path fill="none" stroke="#000000" stroke-width="2" stroke-miterlimit="10" d="M123.6,161.9c0,0,4.2,7.7,9,9.5"/>
	<path fill="none" stroke="#000000" stroke-width="2" stroke-miterlimit="10" d="M121.6,166.6c0,0,2.8,6.1,6.5,7.1"/>
	<path fill="none" stroke="#000000" stroke-width="2" stroke-miterlimit="10" d="M161.8,193.9c0,0,10.9,3.8,17.6-3.7"/>
	<path fill="none" stroke="#000000" stroke-width="2" stroke-miterlimit="10" d="M162.4,199.4c0,0,10.3,4,17-3.1"/>
	<path fill="none" stroke="#000000" stroke-width="2" stroke-miterlimit="10" d="M209.1,146c0,0,1.2,9.2-3.5,14.1"/>
	<path fill="none" stroke="#000000" stroke-width="2" stroke-miterlimit="10" d="M212.6,143c0,0,2.4,15.2-5.2,21.2"/>
	<path fill="none" stroke="#000000" stroke-width="2" stroke-miterlimit="10" d="M174.9,124.4c0,0,5,0.3,6,3.3"/>
	<path fill="none" stroke="#000000" stroke-width="2" stroke-miterlimit="10" d="M173.9,121.1c0,0,7.2-3,11.2,3.3"/>
	<path fill="none" stroke="#000000" stroke-width="2" stroke-miterlimit="10" d="M176.8,149.8c0,0-1.4,6.2-7.1,7.7"/>
	<path fill="none" stroke="#000000" stroke-width="2" stroke-miterlimit="10" d="M180,152.8c0,0-2,6.7-7.2,7.6"/>
</g>
<g id="Stroke">
	
		<path opacity="0" fill="none" stroke="#000000" stroke-width="27" stroke-linecap="round" stroke-linejoin="round" stroke-miterlimit="10" d="
		M58.1,120.6c26.2-17.5,54.2-32.5,83.4-44.6c-33.5,22.7-69.1,47.8-82.9,85.9c28.3-13.7,53.1-34.3,71.9-59.4
		c7.6-10.2,16.6-22.4,29.3-21.6c2.9,5.6-0.7,12.2-4.4,17.2c-9.2,12.4-20.1,23.6-32.2,33.3c-12.8,10.2-26.9,18.7-39.4,29.3
		s-23.4,24-27.1,40c21.9,5.5,29.7-13,43.9-30.6s38.2-34.6,53.5-51.3c10.1-11.1,22.4-19.8,34.9-28.2c-7.1,33.5-34.6,61-60.9,83
		c-16.2,13.5-27,28.1-35.8,47.3c29.1-4.3,50.6-28.9,67.6-53s33.7-50.6,60.5-62.8c-3.8,25.3-17.7,48-34.3,67.5s-35.9,36.4-53.3,55.1
		c23.8-0.8,42.6-20.5,54.6-41c5.9-10.1,10.9-20.8,19-29.3c8-8.5,20-14.4,31.3-11.5c-7.4,14-16.6,27-27.4,38.6
		c-9.9,10.7-21.7,21.2-24.4,35.5c20.3-11.1,40.7-22.1,61-33.2"/>
</g>
</svg>
