<?xml version="1.0" encoding="utf-8"?>
<!-- Generator: Adobe Illustrator 20.1.0, SVG Export Plug-In . SVG Version: 6.00 Build 0)  -->
<!DOCTYPE svg PUBLIC "-//W3C//DTD SVG 1.0//EN" "http://www.w3.org/TR/2001/REC-SVG-20010904/DTD/svg10.dtd">
<svg version="1.0" xmlns="http://www.w3.org/2000/svg" xmlns:xlink="http://www.w3.org/1999/xlink" x="0px" y="0px" width="288px"
	 height="288px" viewBox="0 0 288 288" enable-background="new 0 0 288 288" xml:space="preserve">
<g id="Color">
	<path fill="#FFFFFF" d="M171.2,107.5c0,0-7.4-0.3-11.7-0.6c-4.3-0.2-9.5-1.5-13.8-1.9s-15.3,2.9-17.3,3s-12.4,1.5-15.9,4
		c-3.6,2.6-10.6,5-13.3,5.4c-2.7,0.4-6.6,5-8.2,8.3c-1.5,3.3-9.8,8.2-9.8,8.2s-5.7,5.6-3.9,15.7c1.9,10.1,4,16.4,8.6,19.2
		c4.6,2.9,18.4,13.2,28.1,11.9s20-2.8,25.7-3.7c5.7-0.8,19.8,3.4,25,3.8c5.2,0.4,16.7,6.2,31.2-3.2s16.7-11.5,14.3-18.8
		s-4.3-4.3-4-12s5.1-15-5.2-19.6c-10.3-4.5-13.8-2.3-16-7C182.8,115.7,184.8,110.2,171.2,107.5z"/>
</g>
<g id="Layer_1">
	<path fill="none" stroke="#000000" stroke-width="2" stroke-miterlimit="10" d="M171.2,107.5c0,0-7.4-0.3-11.7-0.6
		c-4.3-0.2-9.5-1.5-13.8-1.9s-15.3,2.9-17.3,3s-12.4,1.5-15.9,4c-3.6,2.6-10.6,5-13.3,5.4c-2.7,0.4-6.6,5-8.2,8.3
		c-1.5,3.3-9.8,8.2-9.8,8.2s-5.7,5.6-3.9,15.7c1.9,10.1,4,16.4,8.6,19.2c4.6,2.9,18.4,13.2,28.1,11.9s20-2.8,25.7-3.7
		c5.7-0.8,19.8,3.4,25,3.8c5.2,0.4,16.7,6.2,31.2-3.2s16.7-11.5,14.3-18.8s-4.3-4.3-4-12s5.1-15-5.2-19.6c-10.3-4.5-13.8-2.3-16-7
		C182.8,115.7,184.8,110.2,171.2,107.5z"/>
	<path fill="none" stroke="#000000" stroke-width="2" stroke-miterlimit="10" d="M87,154.2c0,0,2.4,9,12.8,13.7"/>
	<path fill="none" stroke="#000000" stroke-width="2" stroke-miterlimit="10" d="M92,152.5c0,0,3.1,5.3,7.9,8.5"/>
	<path fill="none" stroke="#000000" stroke-width="2" stroke-miterlimit="10" d="M177.2,171.1c0,0,13.6-4,15.6-14.2"/>
	<path fill="none" stroke="#000000" stroke-width="2" stroke-miterlimit="10" d="M181.3,173.9c0,0,9.3-2.1,13.8-9.9"/>
	<path fill="none" stroke="#000000" stroke-width="2" stroke-miterlimit="10" d="M110.2,122.9c0,0-4.5,2.4-8,8.9"/>
	<path fill="none" stroke="#000000" stroke-width="2" stroke-miterlimit="10" d="M114,124.9c0,0-5.9,3.3-7,8.3"/>
	<path fill="none" stroke="#000000" stroke-width="2" stroke-miterlimit="10" d="M126,150.9c0,0-0.6,3.3,8.2,6"/>
	<path fill="none" stroke="#000000" stroke-width="2" stroke-miterlimit="10" d="M126,146.9c0,0,5.3,5.3,9.1,5.7"/>
	<path fill="none" stroke="#000000" stroke-width="2" stroke-miterlimit="10" d="M168.9,130.4c0,0,4.7,3,4.7,8.8"/>
	<path fill="none" stroke="#000000" stroke-width="2" stroke-miterlimit="10" d="M173.6,127.3c0,0,4.8,4.4,5,9.9"/>
</g>
<g id="Stroke">
	
		<path opacity="0" fill="none" stroke="#000000" stroke-width="26" stroke-linecap="round" stroke-linejoin="round" stroke-miterlimit="10" d="
		M166.8,84.4c27.8,17.8,51.6,41.8,69.3,69.8c-34.8-24.4-80.3-43.7-115-68.2c7.9,20,35.9,29.4,51.9,43.8s32,31.2,35.5,52.4
		c-20.3-2.4-34.8-20-48.4-35.2c-15.6-17.4-41.5-27.8-60-42c8.7,36.8,60,52.6,68.1,89.5c-36.7-12.6-61.7-45.5-88.5-73.5
		c-3.6,6,0.7,13.5,4.9,19.1c12.2,16.5,24.4,33,36.6,49.5c-11.4,6.9-26.4,0.5-36.2-8.4s-4.9-25.4-16.8-31.5"/>
</g>
</svg>
