<?xml version="1.0" encoding="utf-8"?>
<!-- Generator: Adobe Illustrator 20.1.0, SVG Export Plug-In . SVG Version: 6.00 Build 0)  -->
<!DOCTYPE svg PUBLIC "-//W3C//DTD SVG 1.0//EN" "http://www.w3.org/TR/2001/REC-SVG-20010904/DTD/svg10.dtd">
<svg version="1.0" id="Layer_1" xmlns="http://www.w3.org/2000/svg" xmlns:xlink="http://www.w3.org/1999/xlink" x="0px" y="0px"
	 width="288px" height="288px" viewBox="0 0 288 288" enable-background="new 0 0 288 288" xml:space="preserve">
<g id="Layer_1_1_">
	<path fill="none" stroke="#000000" stroke-width="0.75" stroke-miterlimit="10" d="M214.4,86c0,0-26.1-3-44.7-1.2
		c-18.6,1.6-32.4-3.3-38.4-4.2c-6.1-0.9-33.6-8.4-50.3,14.7s-22.6,16.1-29.8,19.8c-7,3.5-20.7,10.5-21.7,34.5s8.2,36.3,16.5,41.7
		s21.9,21.4,57.1,9.3c35.2-12.1,30.5-9.8,46.6-7.9c16.1,2.1,53.4,14.4,74.1,9.3c20.7-5.1,23.1-14.4,27.7-27.7
		c4.7-13.3,11.6-29.4,6.3-40.5C252.6,122.6,244,91.8,214.4,86z"/>
	<path fill="none" stroke="#000000" stroke-width="0.75" stroke-miterlimit="10" d="M60.9,166.1c0,0,0,11,5.1,16.3"/>
	<path fill="none" stroke="#000000" stroke-width="0.75" stroke-miterlimit="10" d="M66,156.4c0,0,1.2,17.5,11.6,26.1"/>
	<path fill="none" stroke="#000000" stroke-width="0.75" stroke-miterlimit="10" d="M189.9,176.6c0,0,22.1-7,26.3-20.3"/>
	<path fill="none" stroke="#000000" stroke-width="0.75" stroke-miterlimit="10" d="M203,180.6c0,0,14-2.3,19.1-11.2"/>
	<path fill="none" stroke="#000000" stroke-width="0.75" stroke-miterlimit="10" d="M102.8,122.3c0,0,4-7.7,7.7-12.1"/>
	<path fill="none" stroke="#000000" stroke-width="0.75" stroke-miterlimit="10" d="M121.9,113.2c-1.2,0.5-14.4,12.3-15.1,18.2"/>
	<path fill="none" stroke="#000000" stroke-width="0.75" stroke-miterlimit="10" d="M136.6,162.2c0,0,10,8.2,16.8,7.2"/>
	<path fill="none" stroke="#000000" stroke-width="0.75" stroke-miterlimit="10" d="M132.8,171.3c1.2,0,11.2,7.5,16.5,7.2"/>
</g>
</svg>
