<?xml version="1.0" encoding="utf-8"?>
<!-- Generator: Adobe Illustrator 20.1.0, SVG Export Plug-In . SVG Version: 6.00 Build 0)  -->
<!DOCTYPE svg PUBLIC "-//W3C//DTD SVG 1.0//EN" "http://www.w3.org/TR/2001/REC-SVG-20010904/DTD/svg10.dtd">
<svg version="1.0" xmlns="http://www.w3.org/2000/svg" xmlns:xlink="http://www.w3.org/1999/xlink" x="0px" y="0px" width="288px"
	 height="288px" viewBox="0 0 288 288" enable-background="new 0 0 288 288" xml:space="preserve">
<g id="Color_Layer">
	<path fill="#FFFFFF" d="M174.5,117.9c0,0-11.2-1.3-19.2-0.5c-8,0.7-13.9-1.4-16.5-1.8s-14.4-3.6-21.6,6.3s-9.7,6.9-12.8,8.5
		c-3,1.5-8.9,4.5-9.3,14.8s3.5,15.6,7.1,17.9s9.4,9.2,24.5,4s13.1-4.2,20-3.4c6.9,0.9,22.9,6.2,31.8,4c8.9-2.2,9.9-6.2,11.9-11.9
		s5-12.6,2.7-17.4C190.9,133.6,187.2,120.4,174.5,117.9z"/>
</g>
<g id="Layer_1">
	<path fill="none" stroke="#000000" stroke-width="2" stroke-miterlimit="10" d="M174.5,117.9c0,0-11.2-1.3-19.2-0.5
		c-8,0.7-13.9-1.4-16.5-1.8s-14.4-3.6-21.6,6.3s-9.7,6.9-12.8,8.5c-3,1.5-8.9,4.5-9.3,14.8s3.5,15.6,7.1,17.9s9.4,9.2,24.5,4
		s13.1-4.2,20-3.4c6.9,0.9,22.9,6.2,31.8,4c8.9-2.2,9.9-6.2,11.9-11.9s5-12.6,2.7-17.4C190.9,133.6,187.2,120.4,174.5,117.9z"/>
	<path fill="none" stroke="#000000" stroke-width="2" stroke-miterlimit="10" d="M108.6,152.3c0,0,0,4.7,2.2,7"/>
	<path fill="none" stroke="#000000" stroke-width="2" stroke-miterlimit="10" d="M110.8,148.1c0,0,0.5,7.5,5,11.2"/>
	<path fill="none" stroke="#000000" stroke-width="2" stroke-miterlimit="10" d="M164,156.8c0,0,9.5-3,11.3-8.7"/>
	<path fill="none" stroke="#000000" stroke-width="2" stroke-miterlimit="10" d="M169.6,158.5c0,0,6-1,8.2-4.8"/>
	<path fill="none" stroke="#000000" stroke-width="2" stroke-miterlimit="10" d="M126.6,133.5c0,0,1.7-3.3,3.3-5.2"/>
	<path fill="none" stroke="#000000" stroke-width="2" stroke-miterlimit="10" d="M134.8,129.6c-0.5,0.2-6.2,5.3-6.5,7.8"/>
	<path fill="none" stroke="#000000" stroke-width="2" stroke-miterlimit="10" d="M141.1,150.6c0,0,4.3,3.5,7.2,3.1"/>
	<path fill="none" stroke="#000000" stroke-width="2" stroke-miterlimit="10" d="M139.5,154.5c0.5,0,4.8,3.2,7.1,3.1"/>
</g>
<g id="White_Stroke">
	
		<path opacity="0" fill="none" stroke="#000000" stroke-width="21" stroke-linecap="round" stroke-linejoin="round" stroke-miterlimit="10" d="
		M83.5,139.3c11.1-16.8,29.3-28.8,49.1-32.5C111,118.1,95.5,140.2,92,164.4c8.6-4.3,13.9-12.9,19.8-20.5
		c12.1-15.3,28.3-27.4,46.4-34.7c0.2,6.1-3.7,11.7-8.5,15.6s-10.4,6.4-15.6,9.7c-14.9,9.6-25.5,25.8-28.2,43.3
		c13.5-9,22.3-23.3,32.1-36.3c9.8-12.9,22.3-25.5,38.3-28.1c-0.1,12.5-9.4,22.9-18.4,31.7s-18.8,18.2-20.6,30.6
		c12.1-7.6,20.7-19.4,30.1-30.1s20.8-20.9,34.9-23.2c-4.6,20.1-28.4,32.3-30.6,52.8c13.2-6.4,29.3-8.5,39.2-19.3"/>
</g>
</svg>
