<?xml version="1.0" encoding="utf-8"?>
<!-- Generator: Adobe Illustrator 19.2.1, SVG Export Plug-In . SVG Version: 6.00 Build 0)  -->
<svg version="1.0" id="Layer_1" xmlns="http://www.w3.org/2000/svg" xmlns:xlink="http://www.w3.org/1999/xlink" x="0px" y="0px"
	 width="288px" height="288px" viewBox="0 0 288 288" enable-background="new 0 0 288 288" xml:space="preserve">
<path fill="none" stroke="#000000" stroke-width="2" stroke-miterlimit="10" d="M174.5,117.9c0,0-11.2-1.3-19.2-0.5
	c-8,0.7-13.9-1.4-16.5-1.8c-2.6-0.4-14.4-3.6-21.6,6.3s-9.7,6.9-12.8,8.5c-3,1.5-8.9,4.5-9.3,14.8s3.5,15.6,7.1,17.9s9.4,9.2,24.5,4
	s13.1-4.2,20-3.4c6.9,0.9,22.9,6.2,31.8,4c8.9-2.2,9.9-6.2,11.9-11.9s5-12.6,2.7-17.4C190.9,133.6,187.2,120.4,174.5,117.9z"/>
<path fill="none" stroke="#000000" stroke-width="2" stroke-miterlimit="10" d="M108.6,152.3c0,0,0,4.7,2.2,7"/>
<path fill="none" stroke="#000000" stroke-width="2" stroke-miterlimit="10" d="M110.8,148.1c0,0,0.5,7.5,5,11.2"/>
<path fill="none" stroke="#000000" stroke-width="2" stroke-miterlimit="10" d="M164,156.8c0,0,9.5-3,11.3-8.7"/>
<path fill="none" stroke="#000000" stroke-width="2" stroke-miterlimit="10" d="M169.6,158.5c0,0,6-1,8.2-4.8"/>
<path fill="none" stroke="#000000" stroke-width="2" stroke-miterlimit="10" d="M126.6,133.5c0,0,1.7-3.3,3.3-5.2"/>
<path fill="none" stroke="#000000" stroke-width="2" stroke-miterlimit="10" d="M134.8,129.6c-0.5,0.2-6.2,5.3-6.5,7.8"/>
<path fill="none" stroke="#000000" stroke-width="2" stroke-miterlimit="10" d="M141.1,150.6c0,0,4.3,3.5,7.2,3.1"/>
<path fill="none" stroke="#000000" stroke-width="2" stroke-miterlimit="10" d="M139.5,154.5c0.5,0,4.8,3.2,7.1,3.1"/>
</svg>
