<?xml version="1.0" encoding="utf-8"?>
<!-- Generator: Adobe Illustrator 19.2.1, SVG Export Plug-In . SVG Version: 6.00 Build 0)  -->
<svg version="1.0" id="Layer_1" xmlns="http://www.w3.org/2000/svg" xmlns:xlink="http://www.w3.org/1999/xlink" x="0px" y="0px"
	 width="288px" height="288px" viewBox="0 0 288 288" enable-background="new 0 0 288 288" xml:space="preserve">
<path fill="none" stroke="#000000" stroke-width="2" stroke-miterlimit="10" d="M156.5,100c0,0-9.8-1.7-15.3-1.9s-12-1-15,0.9
	c-3,1.9-15.9,7.2-17.2,7.6c-1.3,0.4-8.3,3.4-8.3,3.4l-14.5,7.2l-7,9.9c0,0-6.5,5.6-6.5,12.8c0,7.2,0,7.8,0,14.5s-1.2,37.2,18.9,42.4
	s31.6,18.3,48.6,17.3s36-3,36-3s7,2.5,16-2s17-4.7,20.5-10.3c3.5-5.6,3.5-9.3,7.5-15c4-5.6,6-5.1,8-10.6s0-19,0-19s-2-25.2-12-31.9
	c-10-6.7-12-9.7-15.5-12.7s-10-4.3-15-5.2c-5-0.8-13,5.4-17,2.3C164.6,103.5,156.5,100,156.5,100z"/>
<path fill="none" stroke="#000000" stroke-width="2" stroke-miterlimit="10" d="M87.1,175.5c0,0,2.2,8.2,10,13"/>
<path fill="none" stroke="#000000" stroke-width="2" stroke-miterlimit="10" d="M89.4,173.1c0,0,5,10.4,10.2,12.2"/>
<path fill="none" stroke="#000000" stroke-width="2" stroke-miterlimit="10" d="M105.4,121.1c0,0-7.2,6.1-9.5,13.2"/>
<path fill="none" stroke="#000000" stroke-width="2" stroke-miterlimit="10" d="M99.6,121.1c0,0-4,1.1-6.2,6.6"/>
<path fill="none" stroke="#000000" stroke-width="2" stroke-miterlimit="10" d="M123.6,161.9c0,0,4.2,7.7,9,9.5"/>
<path fill="none" stroke="#000000" stroke-width="2" stroke-miterlimit="10" d="M121.6,166.6c0,0,2.8,6.1,6.5,7.1"/>
<path fill="none" stroke="#000000" stroke-width="2" stroke-miterlimit="10" d="M161.8,193.9c0,0,10.9,3.8,17.6-3.7"/>
<path fill="none" stroke="#000000" stroke-width="2" stroke-miterlimit="10" d="M162.4,199.4c0,0,10.3,4,17-3.1"/>
<path fill="none" stroke="#000000" stroke-width="2" stroke-miterlimit="10" d="M209.1,146c0,0,1.2,9.2-3.5,14.1"/>
<path fill="none" stroke="#000000" stroke-width="2" stroke-miterlimit="10" d="M212.6,143c0,0,2.4,15.2-5.2,21.2"/>
<path fill="none" stroke="#000000" stroke-width="2" stroke-miterlimit="10" d="M174.9,124.4c0,0,5,0.3,6,3.3"/>
<path fill="none" stroke="#000000" stroke-width="2" stroke-miterlimit="10" d="M173.9,121.1c0,0,7.2-3,11.2,3.3"/>
<path fill="none" stroke="#000000" stroke-width="2" stroke-miterlimit="10" d="M176.8,149.8c0,0-1.4,6.2-7.1,7.7"/>
<path fill="none" stroke="#000000" stroke-width="2" stroke-miterlimit="10" d="M180,152.8c0,0-2,6.7-7.2,7.6"/>
</svg>
