<?xml version="1.0" encoding="utf-8"?>
<!-- Generator: Adobe Illustrator 21.0.0, SVG Export Plug-In . SVG Version: 6.00 Build 0)  -->
<!DOCTYPE svg PUBLIC "-//W3C//DTD SVG 1.0//EN" "http://www.w3.org/TR/2001/REC-SVG-20010904/DTD/svg10.dtd">
<svg version="1.0" id="Layer_1" xmlns="http://www.w3.org/2000/svg" xmlns:xlink="http://www.w3.org/1999/xlink" x="0px" y="0px"
	 width="288px" height="288px" viewBox="0 0 288 288" enable-background="new 0 0 288 288" xml:space="preserve">
<path fill="none" stroke="#000000" stroke-width="2" stroke-miterlimit="10" d="M24.8,104.5l38.9-2.5l-4.4,10.7H38.5l6.7,19.2
	c0,0-5.9,10.4-5.9,9.6S24.8,104.5,24.8,104.5z"/>
<path fill="none" stroke="#000000" stroke-width="2" stroke-miterlimit="10" d="M69,102L21.5,206l63.7-3.8L67,155.5l-11,14
	l14.8,21.7c0,0-34,3-33.2,2.5s45.5-91.6,45.5-91.6L69,102L69,102z"/>
<path fill="none" stroke="#000000" stroke-width="2" stroke-miterlimit="10" d="M92.8,103.6c0,1.4,0,82.6,1.4,83.7
	c1.4,1.1,8,14.3,9.3,14.3s20.6,1.1,21.1,0s12.1-14.3,12.1-14.3l2.2-85.3c0,0-11.2-3.6-11-1.1c0.3,2.5-1.1,85.1-1.1,85.1
	s-20.6,1-20.6,0c0-3.3-0.8-81.5-0.8-81.5L92.8,103.6z"/>
<line fill="none" stroke="#000000" stroke-width="2" stroke-miterlimit="10" x1="126.8" y1="185.9" x2="126.8" y2="198.8"/>
<path fill="none" stroke="#000000" stroke-width="2" stroke-miterlimit="10" d="M106.3,185.9c-0.8,1.4-6.1,11.1-6.1,11.1"/>
<path fill="none" stroke="#000000" stroke-width="2" stroke-miterlimit="10" d="M159.2,200.5l4.4-98.5h-14c0,0-0.5,100,0,100.1
	L159.2,200.5z"/>
<path fill="none" stroke="#000000" stroke-width="2" stroke-miterlimit="10" d="M163.6,111.9c0,0,17.3,60.6,17.3,59.5
	s17.8-71.4,17.8-71.4s15.4,1.7,15.4,2s-28.8,86.7-28.8,86.7h-7.1l-16.4-44.3"/>
<polyline fill="none" stroke="#000000" stroke-width="2" stroke-miterlimit="10" points="205.2,129 203.9,200.2 215.5,202.1 
	214.1,102 "/>
<path fill="none" stroke="#000000" stroke-width="2" stroke-miterlimit="10" d="M222.9,102l4.1,100.1l43.1-1.9v-14.3l-35.7,6.4
	l-1.4-34.7l25.5,0.3c0,0,1.6-14,0-13.6s-25.5,2.9-25.5,2.9l-1.6-35.4l32.1-0.8l1.6-12.9L222.9,102z"/>
<path fill="none" stroke="#000000" stroke-width="2" stroke-miterlimit="10" d="M118.9,82.5l8.2,1.1l-9.3,16.4
	c0,0-12.6-0.2-11.5-1.3C107.4,97.6,118.9,82.5,118.9,82.5z"/>
</svg>
