<?xml version="1.0" encoding="utf-8"?>
<!-- Generator: Adobe Illustrator 21.0.0, SVG Export Plug-In . SVG Version: 6.00 Build 0)  -->
<!DOCTYPE svg PUBLIC "-//W3C//DTD SVG 1.0//EN" "http://www.w3.org/TR/2001/REC-SVG-20010904/DTD/svg10.dtd">
<svg version="1.0" xmlns="http://www.w3.org/2000/svg" xmlns:xlink="http://www.w3.org/1999/xlink" x="0px" y="0px" width="288px"
	 height="288px" viewBox="0 0 288 288" enable-background="new 0 0 288 288" xml:space="preserve">
<g id="Fill">
	<g id="Layer_2">
		<path fill="#27AAE1" d="M38.6,136.5c0,0-12.2-30.2-11.7-30.2s33.3-2.7,33.4-2c0.1,0.7-4,9-4,9l-19.2,0.2l6.5,15.5L38.6,136.5z"/>
		<path fill="#27AAE1" d="M66.5,104.2h13.8c0,0-44.7,86-43.7,86.3s30.8-2.8,30.8-2.8l-9-19.2l8.8-13.8l17.5,46.4l-66.6,1.6
			L66.5,104.2z"/>
		<path fill="#27AAE1" d="M93.1,107c0,0.5,2.5,87,2.5,87l4.6,6.6h21.1c0,0,2.6-3.3,2.9-3.6c0.3-0.4-0.7-12-0.7-12l-20.6,0.1
			l-0.7-80.8L93.1,107z"/>
		<polygon fill="#27AAE1" points="130.4,99.6 128.3,190.5 134.1,186.2 136.3,101 		"/>
		<path fill="#27AAE1" d="M120.5,82.2c-0.7,0.8-13.9,17.4-13.9,17.4l9.2,1.4l10-17L120.5,82.2z"/>
		<path fill="#27AAE1" d="M153.8,101l-2.7,100.1l7.3-2.6l3.2-46.6l14.2,35.8h6.2l28.1-84.4l-10.4-2.3l-21.3,79.3l-18-56.7V113
			c0,0,1.3-12,0.7-12S153.8,101,153.8,101z"/>
		<path fill="#27AAE1" d="M210.8,105.3c-0.6,0-9.3,24.8-9.3,24.8l-0.8,70.9l14.3,4L210.8,105.3z"/>
		<path fill="#27AAE1" d="M261.1,102.4l-36.2,1.8c0,0,1.8,98.3,2.7,98.4c0.8,0.2,39.8,0,39.8,0l1.3-15l-36.2,6.6
			c0,0-0.2-35,0.3-35.3s19.3-0.5,19.3-0.5l0.8-11.3l-22.3,2.9l-1.2-38.9l28-1.1l2.5-0.1L261.1,102.4z"/>
	</g>
</g>
<g id="Stroke">
	<g id="Layer_3">
		
			<path fill="none" stroke="#231F20" stroke-width="35" stroke-linecap="round" stroke-linejoin="round" stroke-miterlimit="10" stroke-opacity="0" d="
			M57.3,80.9c34.1-1.4,68-3.2,101.7-5.2c-34.9,4-70,8-105,12c41-2.6,82-5.2,122.7-7.7c-54.5,4.9-109,9.9-163.3,14.8
			c68.6-3.3,137.1-6.7,205.7-10c-38.1,2.8-76.1,5.7-114.2,8.5c-31.5,2.4-63.2,4.7-93.7,8c93.7-4.3,187.9-7.4,282.4-9.1
			c-81.3,7.6-165,12.8-249.6,15.2c50.5-2.4,101.1-4.7,151.6-7c-71.3,5.4-142.7,10.7-214,16.1c91.6-3,183.5-6,275.1-9
			c-96.5,6.3-193,12.9-289,19.6c122.3-4.5,245.2-7.3,368.4-8.4c-115.5,7.9-231.5,15.6-349.6,17.3c99.9-5.2,217.4-7,318.5-9.9
			c-12.7,0.4-41.6-0.5-53.7,0.9c-89.8,10.2-183.3,17.3-278,21.3c131.8-5.2,263.8-10.4,395.6-15.7c-89.4,4.9-228.7,20.6-319.3,22.8
			c71.9-4.2,197.4-13.1,269.3-17.3c-82,7.2-193,11.2-277.9,13.7c78.1-1.9,182.1-4.7,260.4-5.5c-81.1,2.1-161.7,6-241,11.6
			c53.7-0.9,107.4-1.9,161.1-2.8c-42.2,1.3-84.2,3.4-125.6,6.1c-26,1.7-52.3,3.7-76.3,7.4c88.8-0.2,177.8-0.4,266.6-0.7
			c-77.3,2.4-154.6,4.8-232.1,7.2c64.2-1.4,128.2-2.7,192.6-3.2c22-0.2,44.4-0.2,65.6,1.7c-65.4,5.4-218,9.9-285.2,11.8
			c30.1,0.2,145.3-2,174.8-0.1c-3.8,1.7-11.1,2.1-17.6,2.4c-37.9,1.9-75.7,3.7-113.6,5.6c44-0.7,88.2-1,132.4-0.6
			c-51.7,3.5-104.2,5.9-156.8,7.3c-25.2,0.7-51.1,1.1-73.9,4.6c37.1-0.8,158.9-2.6,196-1.3c-36.5,3.4-158.7,6.9-196.6,8.4
			c128-1.1,255.9-1.7,383.9-1.7c-103.5,0-206.9,0.1-310.4,0.1c33.1,1.2,65.4,4.4,94.5,9.3c-35.1,2.3-71.3,3.2-107.2,2.7
			c20.2-0.3,40.4-0.1,60.4,0.7"/>
	</g>
</g>
</svg>
