<?xml version="1.0" encoding="utf-8"?>
<!-- Generator: Adobe Illustrator 19.2.1, SVG Export Plug-In . SVG Version: 6.00 Build 0)  -->
<svg version="1.0" id="Layer_1" xmlns="http://www.w3.org/2000/svg" xmlns:xlink="http://www.w3.org/1999/xlink" x="0px" y="0px"
	 width="288px" height="288px" viewBox="0 0 288 288" enable-background="new 0 0 288 288" xml:space="preserve">
<path fill="none" stroke="#000000" stroke-width="2" stroke-miterlimit="10" d="M136.1,148c0,0-6.9-19.8,2.8-22.4
	c10.7-2.9,14.6,0.1,16.1,19.4"/>
<path fill="none" stroke="#000000" stroke-width="2" stroke-miterlimit="10" d="M132.9,148.5l25.8-4c0,0,4.9,28-7.4,31.1
	C138.9,178.7,134.7,164,132.9,148.5z"/>
<path fill="none" stroke="#000000" stroke-width="2" stroke-miterlimit="10" d="M150.3,145.8c0,0-1.5-14.5-6.4-14.1
	c-4.9,0.5-4.1,7.1-2.8,15.5"/>
<path fill="none" stroke="#000000" stroke-width="2" stroke-miterlimit="10" d="M146.1,159.9c-1.8-0.4-3.3-2-3.4-4
	c-0.2-2.4,1.7-4.5,4.1-4.7c2.4-0.2,4.5,1.7,4.7,4.1c0.1,1.7-0.7,3.2-2.1,4.1"/>
<polyline fill="none" stroke="#000000" stroke-width="2" stroke-miterlimit="10" points="145.1,159.6 144.5,167.6 153.6,166.2 
	150.2,158.7 "/>
<ellipse fill="none" stroke="#000000" stroke-width="2" stroke-miterlimit="10" cx="146.2" cy="144.3" rx="65.2" ry="67"/>
<path fill="none" stroke="#000000" stroke-width="2" stroke-miterlimit="10" d="M99.8,98.2l3.4-0.9c0,0,1.9,0.8,2.8,0.9
	c0.9,0.2,4.5,0.2,5.1-0.5c0.6-0.6,2-1.7,2.8-1.7c0.8,0,2.5-0.3,3.4,0s3.2-0.4,4.5-0.1c1.2,0.3,6,0.7,7.3-0.1
	c1.2-0.7,4.9-2.4,4.9-2.4h2.8c0,0,3.9,1.9,4.6,2.4c0.8,0.5,2.3,3,2,3.7c-0.3,0.8-1.2,4-1.2,4l-0.2,5.1l1.4,0.9l4.9-1.7l4.8-2.8
	l3.9-2.3l5.4-0.5l1.1,1.1v2.6l-2.8,3.6l0.8,2.5l3.6,3.6l1.1,2.5l2,3.2v2.3h-2.3h-3.2h-3.9h-2.5c0,0-0.8,3.2-0.9,3.9
	c-0.2,0.6-0.3,4.2-0.3,4.2s-0.6,1.6-1.5,2.4"/>
<path fill="none" stroke="#000000" stroke-width="2" stroke-miterlimit="10" d="M147.6,134.9c-1.1,0.3-2.4,0.6-2.4,0.6
	s-1.7,2-1.7,2.8c0,0.8,0.6,1.7,1.2,3.1c0.6,1.4,2.3,3.5,1.5,4.1"/>
<path fill="none" stroke="#000000" stroke-width="2" stroke-miterlimit="10" d="M135.8,145c-1.8-1.3-3.9-2.6-3.9-2.6
	s-1.9-1.4-4.5-1.2s-2.5-0.3-3.6,0.6c-1.1,0.9-1.1,2.5-1.1,2.5l0.9,4.3c0,0,1.7,3.9,2.2,4.6c0.5,0.8,3.6,5.7,5.6,6
	c1.1,0.2,2.2-0.2,3.1-0.4"/>
<path fill="none" stroke="#000000" stroke-width="2" stroke-miterlimit="10" d="M158.7,151.8c1.1,0.1,2.3,0.4,2.3,0.7
	c0,0.5,0.5,1.4,0.5,2.8s1.5,4.5,1.9,4.9c0.3,0.5,3.2,3.1,3.9,3.1s4.6,1.4,4.6,1.4l4.5,1.2l1.5,2.6v4.8l-1.1,2.5l-1.7,4.3l-1.9,4.2
	c0,0,0.2,3.1-0.2,4.5c-0.3,1.4,1.7,0.5-0.6,3.1s-3.9,4.2-4.3,5.1c-0.5,0.9-3.2,4.3-3.2,4.3l-3.1,1.5l-4.9,0.9l-3.2-0.8l-3.1-3.2
	c0,0-2.6-2.6-2.3-4.9c0.3-2.3,0.5-2.8,0.6-3.7c0.2-0.9,0.3-2.3,0.2-4.9c-0.2-2.6-0.5-4.5-0.5-4.5l-0.6-2.2l-3.6-1.7l-0.9-0.5
	l-3.7-2.6l-0.2-2.3c0,0,0,0,0-0.1"/>
<path fill="none" stroke="#000000" stroke-width="2" stroke-miterlimit="10" d="M137.6,167.4l-4.2-3.1l-4.9-2l-5.3-0.5l-7.6-1.7
	c0,0,0.5,1.9-1.9-1.2c-2.3-3.1-3.2-4.5-3.2-4.5s-1.1-5.6-1.1-6.5c0-0.9-0.9-3.7-0.9-3.7h-2.3c0,0-2.6-0.2-2.8-0.7
	c-0.2-0.5-1.1-2.8-1.1-2.8l-2.6-5.4v-2.6c0,0-4,0-4,0.5c0,0.5,2,3.2,0,3.7c-2,0.5-3.1,2.3-3.9,1.4c-0.8-0.9-3.4-4.8-3.4-4.8
	s-2.2-3.7-2.2-4.5s1.2-10,1.7-10.2c0.5-0.2,4.9-2.3,4.9-2.3s2.2-2.8,1.5-3.1s-3.7-4.6-3.7-4.6"/>
<path fill="none" stroke="#000000" stroke-width="2" stroke-miterlimit="10" d="M210.1,130.8c0,0-4.6,0.9-5.1,1.3s-2.6,4.5-2.6,4.5
	l-4.2,5.7c0,0-2.6,2.6-2.6,3.6c0,0.9,0,5.4,0,5.4v5.4l2,4.2c0,0,1.9,1.4,2.3,2.5c0.5,1.1,0.8,3.9,0.8,3.9s-0.2,3.1,0,3.6
	s3.7,3.8,3.7,3.8"/>
<path fill="none" stroke="#000000" stroke-width="2" stroke-miterlimit="10" d="M179.4,87.3c0,0,1.2,8,1.2,8.7s-0.3,4.8,0.9,6.2
	c1.2,1.4,3.9,2.2,4.5,2.2s1.4,0.2,2.6,0c1.2-0.2,1.9,0.3,2.8,0.1c0.9-0.2,3.4-0.5,4.2-0.5s2.7,0.1,2.7,0.1"/>
<path fill="none" stroke="#000000" stroke-width="2" stroke-miterlimit="10" d="M153.7,132.2c4.1-0.4,7.5,1,7.9,3.3
	c0.4,2.5-2.9,5-7.4,5.7c-4.5,0.7-8.4-0.8-8.8-3.2c-0.2-1.2,0.5-2.5,1.9-3.5"/>
<ellipse transform="matrix(0.9881 -0.1537 0.1537 0.9881 -18.7129 27.2245)" fill="none" stroke="#000000" stroke-width="2" stroke-miterlimit="10" cx="166.7" cy="134.7" rx="8.2" ry="4.5"/>
<ellipse transform="matrix(0.9752 -0.2211 0.2211 0.9752 -24.6174 42.8624)" fill="none" stroke="#000000" stroke-width="2" stroke-miterlimit="10" cx="179.1" cy="131.4" rx="8.2" ry="4.5"/>
<ellipse transform="matrix(0.9752 -0.2211 0.2211 0.9752 -23.5173 45.6111)" fill="none" stroke="#000000" stroke-width="2" stroke-miterlimit="10" cx="192" cy="127.8" rx="8.2" ry="4.5"/>
<ellipse transform="matrix(0.9752 -0.2211 0.2211 0.9752 -22.5386 48.1127)" fill="none" stroke="#000000" stroke-width="2" stroke-miterlimit="10" cx="203.6" cy="124.7" rx="8.2" ry="4.5"/>
<path fill="none" stroke="#000000" stroke-width="2" stroke-miterlimit="10" d="M140,136.5c1.7,0.8,2.7,2,2.7,3.3
	c0,2.5-3.6,4.6-8.1,4.7c-4.5,0.1-8.2-1.9-8.2-4.4c0-2.4,3.2-4.4,7.4-4.7"/>
<ellipse transform="matrix(0.9998 -1.873744e-02 1.873744e-02 0.9998 -2.6007 2.3014)" fill="none" stroke="#000000" stroke-width="2" stroke-miterlimit="10" cx="121.5" cy="139.9" rx="8.2" ry="4.5"/>
<ellipse transform="matrix(3.848039e-02 -0.9993 0.9993 3.848039e-02 -35.2183 242.4296)" fill="none" stroke="#000000" stroke-width="2" stroke-miterlimit="10" cx="108.4" cy="139.5" rx="4.5" ry="8.2"/>
<ellipse transform="matrix(3.848039e-02 -0.9993 0.9993 3.848039e-02 -45.903 227.7201)" fill="none" stroke="#000000" stroke-width="2" stroke-miterlimit="10" cx="95.4" cy="137.7" rx="4.5" ry="8.2"/>
<ellipse transform="matrix(3.848039e-02 -0.9993 0.9993 3.848039e-02 -55.949 213.7189)" fill="none" stroke="#000000" stroke-width="2" stroke-miterlimit="10" cx="83.1" cy="135.9" rx="4.5" ry="8.2"/>
<path fill="none" stroke="#000000" stroke-width="2" stroke-miterlimit="10" d="M147.2,133.7c-1.8,1.3-3.7,1.6-5,0.8
	c-2.1-1.4-1.7-5.6,0.8-9.3c2.5-3.8,6.2-5.7,8.3-4.3c1.7,1.1,1.8,4.2,0.3,7.3"/>
<path fill="none" stroke="#000000" stroke-width="2" stroke-miterlimit="10" d="M158.2,110c2.1,1.4,1.7,5.6-0.8,9.3
	c-2.5,3.8-6.2,5.7-8.3,4.3c-2.1-1.4-1.7-5.6,0.8-9.3C152.4,110.5,156.1,108.6,158.2,110z"/>
<path fill="none" stroke="#000000" stroke-width="2" stroke-miterlimit="10" d="M164.9,100c2.1,1.4,1.7,5.6-0.8,9.3
	c-2.5,3.8-6.2,5.7-8.3,4.3s-1.7-5.6,0.8-9.3C159.1,100.5,162.8,98.6,164.9,100z"/>
<path fill="none" stroke="#000000" stroke-width="2" stroke-miterlimit="10" d="M172.1,90.1c2.1,1.4,1.7,5.6-0.8,9.3
	c-2.5,3.8-6.2,5.7-8.3,4.3c-2.1-1.4-1.7-5.6,0.8-9.3C166.2,90.6,170,88.7,172.1,90.1z"/>
<path fill="none" stroke="#000000" stroke-width="2" stroke-miterlimit="10" d="M178.8,80.5c2.1,1.4,1.7,5.6-0.8,9.3
	c-2.5,3.8-6.2,5.7-8.3,4.3c-2.1-1.4-1.7-5.6,0.8-9.3C172.9,81.1,176.7,79.1,178.8,80.5z"/>
<path fill="none" stroke="#000000" stroke-width="2" stroke-miterlimit="10" d="M139.7,142.9c1.9,1.5,1.5,5.5-0.9,9.2
	c-2.5,3.8-6.2,5.7-8.3,4.3c-2.1-1.4-1.7-5.6,0.8-9.3c1.1-1.7,2.5-3,3.9-3.8"/>
<path fill="none" stroke="#000000" stroke-width="2" stroke-miterlimit="10" d="M132,153.5c2.1,1.4,1.7,5.6-0.8,9.3
	c-2.5,3.8-6.2,5.7-8.3,4.3c-2.1-1.4-1.7-5.6,0.8-9.3C126.2,154,129.9,152.1,132,153.5z"/>
<path fill="none" stroke="#000000" stroke-width="2" stroke-miterlimit="10" d="M125,164.3c2.1,1.4,1.7,5.6-0.8,9.3
	c-2.5,3.8-6.2,5.7-8.3,4.3c-2.1-1.4-1.7-5.6,0.8-9.3C119.2,164.8,122.9,162.9,125,164.3z"/>
<path fill="none" stroke="#000000" stroke-width="2" stroke-miterlimit="10" d="M117.8,174.6c2.1,1.4,1.7,5.6-0.8,9.3
	c-2.5,3.8-6.2,5.7-8.3,4.3s-1.7-5.6,0.8-9.3C112,175.1,115.7,173.2,117.8,174.6z"/>
<path fill="none" stroke="#000000" stroke-width="2" stroke-miterlimit="10" d="M110.9,185.6c2.1,1.4,1.7,5.6-0.8,9.3
	c-2.5,3.8-6.2,5.7-8.3,4.3c-2.1-1.4-1.7-5.6,0.8-9.3C105.1,186.1,108.8,184.2,110.9,185.6z"/>
</svg>
