<?xml version="1.0" encoding="utf-8"?>
<!-- Generator: Adobe Illustrator 21.0.0, SVG Export Plug-In . SVG Version: 6.00 Build 0)  -->
<!DOCTYPE svg PUBLIC "-//W3C//DTD SVG 1.0//EN" "http://www.w3.org/TR/2001/REC-SVG-20010904/DTD/svg10.dtd">
<svg version="1.0" xmlns="http://www.w3.org/2000/svg" xmlns:xlink="http://www.w3.org/1999/xlink" x="0px" y="0px" width="288px"
	 height="288px" viewBox="0 0 288 288" enable-background="new 0 0 288 288" xml:space="preserve">
<g id="Color">
	<path fill="#FFFFFF" d="M158.7,144.5L155,145c0,0,2.5-19.8-12.3-20.3s-7.7,23.5-7.7,23.5l-2.1,1.7c0,0,2.8,28.4,17.4,26.1
		C164.9,173.8,158.7,144.5,158.7,144.5z M150.3,145.8l-9.5,1c0.2-0.8-3.8-15.2,3.2-15.4S150.3,145.8,150.3,145.8z"/>
</g>
<g id="Stroke">
	<path fill="none" stroke="#000000" stroke-width="4" stroke-miterlimit="10" d="M136.1,148c0,0-6.9-19.8,2.8-22.4
		c10.7-2.9,14.6,0.1,16.1,19.4"/>
	<path fill="none" stroke="#000000" stroke-width="4" stroke-miterlimit="10" d="M132.9,148.5l25.8-4c0,0,4.9,28-7.4,31.1
		C138.9,178.7,134.7,164,132.9,148.5z"/>
	<path fill="none" stroke="#000000" stroke-width="4" stroke-miterlimit="10" d="M150.3,145.8c0,0-1.5-14.5-6.4-14.1
		c-4.9,0.5-4.1,7.1-2.8,15.5"/>
	<path fill="none" stroke="#000000" stroke-width="4" stroke-miterlimit="10" d="M146.1,159.9c-1.8-0.4-3.3-2-3.4-4
		c-0.2-2.4,1.7-4.5,4.1-4.7c2.4-0.2,4.5,1.7,4.7,4.1c0.1,1.7-0.7,3.2-2.1,4.1"/>
	<polyline fill="none" stroke="#000000" stroke-width="4" stroke-miterlimit="10" points="145.1,159.6 144.5,167.6 153.6,166.2 
		150.2,158.7 	"/>
	<path fill="none" stroke="#000000" stroke-width="4" stroke-miterlimit="10" d="M153.7,132.2c4.1-0.4,7.5,1,7.9,3.3
		c0.4,2.5-2.9,5-7.4,5.7s-8.4-0.8-8.8-3.2c-0.2-1.2,0.5-2.5,1.9-3.5"/>
	
		<ellipse transform="matrix(0.9881 -0.1537 0.1537 0.9881 -18.7228 27.2239)" fill="none" stroke="#000000" stroke-width="4" stroke-miterlimit="10" cx="166.7" cy="134.7" rx="8.2" ry="4.5"/>
	
		<ellipse transform="matrix(0.9752 -0.2211 0.2211 0.9752 -24.6222 42.852)" fill="none" stroke="#000000" stroke-width="4" stroke-miterlimit="10" cx="179.1" cy="131.4" rx="8.2" ry="4.5"/>
	
		<ellipse transform="matrix(0.9752 -0.2211 0.2211 0.9752 -23.5042 45.6114)" fill="none" stroke="#000000" stroke-width="4" stroke-miterlimit="10" cx="192" cy="127.8" rx="8.2" ry="4.5"/>
	
		<ellipse transform="matrix(0.9752 -0.2211 0.2211 0.9752 -22.5345 48.1011)" fill="none" stroke="#000000" stroke-width="4" stroke-miterlimit="10" cx="203.6" cy="124.7" rx="8.2" ry="4.5"/>
	<path fill="none" stroke="#000000" stroke-width="4" stroke-miterlimit="10" d="M140,136.5c1.7,0.8,2.7,2,2.7,3.3
		c0,2.5-3.6,4.6-8.1,4.7c-4.5,0.1-8.2-1.9-8.2-4.4c0-2.4,3.2-4.4,7.4-4.7"/>
	
		<ellipse transform="matrix(0.9998 -1.873790e-02 1.873790e-02 0.9998 -2.6 2.3011)" fill="none" stroke="#000000" stroke-width="4" stroke-miterlimit="10" cx="121.5" cy="139.9" rx="8.2" ry="4.5"/>
	
		<ellipse transform="matrix(3.847883e-02 -0.9993 0.9993 3.847883e-02 -35.1843 242.3818)" fill="none" stroke="#000000" stroke-width="4" stroke-miterlimit="10" cx="108.4" cy="139.5" rx="4.5" ry="8.2"/>
	
		<ellipse transform="matrix(3.847883e-02 -0.9993 0.9993 3.847883e-02 -45.8818 227.6886)" fill="none" stroke="#000000" stroke-width="4" stroke-miterlimit="10" cx="95.4" cy="137.7" rx="4.5" ry="8.2"/>
	
		<ellipse transform="matrix(3.847883e-02 -0.9993 0.9993 3.847883e-02 -55.9481 213.6691)" fill="none" stroke="#000000" stroke-width="4" stroke-miterlimit="10" cx="83.1" cy="135.9" rx="4.5" ry="8.2"/>
	<path fill="none" stroke="#000000" stroke-width="4" stroke-miterlimit="10" d="M147.2,133.7c-1.8,1.3-3.7,1.6-5,0.8
		c-2.1-1.4-1.7-5.6,0.8-9.3c2.5-3.8,6.2-5.7,8.3-4.3c1.7,1.1,1.8,4.2,0.3,7.3"/>
	<path fill="none" stroke="#000000" stroke-width="4" stroke-miterlimit="10" d="M158.2,110c2.1,1.4,1.7,5.6-0.8,9.3
		c-2.5,3.8-6.2,5.7-8.3,4.3c-2.1-1.4-1.7-5.6,0.8-9.3C152.4,110.5,156.1,108.6,158.2,110z"/>
	<path fill="none" stroke="#000000" stroke-width="4" stroke-miterlimit="10" d="M164.9,100c2.1,1.4,1.7,5.6-0.8,9.3
		c-2.5,3.8-6.2,5.7-8.3,4.3s-1.7-5.6,0.8-9.3C159.1,100.5,162.8,98.6,164.9,100z"/>
	<path fill="none" stroke="#000000" stroke-width="4" stroke-miterlimit="10" d="M172.1,90.1c2.1,1.4,1.7,5.6-0.8,9.3
		c-2.5,3.8-6.2,5.7-8.3,4.3c-2.1-1.4-1.7-5.6,0.8-9.3C166.2,90.6,170,88.7,172.1,90.1z"/>
	<path fill="none" stroke="#000000" stroke-width="4" stroke-miterlimit="10" d="M178.8,80.5c2.1,1.4,1.7,5.6-0.8,9.3
		c-2.5,3.8-6.2,5.7-8.3,4.3c-2.1-1.4-1.7-5.6,0.8-9.3C172.9,81.1,176.7,79.1,178.8,80.5z"/>
	<path fill="none" stroke="#000000" stroke-width="4" stroke-miterlimit="10" d="M139.7,142.9c1.9,1.5,1.5,5.5-0.9,9.2
		c-2.5,3.8-6.2,5.7-8.3,4.3s-1.7-5.6,0.8-9.3c1.1-1.7,2.5-3,3.9-3.8"/>
	<path fill="none" stroke="#000000" stroke-width="4" stroke-miterlimit="10" d="M132,153.5c2.1,1.4,1.7,5.6-0.8,9.3
		c-2.5,3.8-6.2,5.7-8.3,4.3c-2.1-1.4-1.7-5.6,0.8-9.3C126.2,154,129.9,152.1,132,153.5z"/>
	<path fill="none" stroke="#000000" stroke-width="4" stroke-miterlimit="10" d="M125,164.3c2.1,1.4,1.7,5.6-0.8,9.3
		c-2.5,3.8-6.2,5.7-8.3,4.3c-2.1-1.4-1.7-5.6,0.8-9.3C119.2,164.8,122.9,162.9,125,164.3z"/>
	<path fill="none" stroke="#000000" stroke-width="4" stroke-miterlimit="10" d="M117.8,174.6c2.1,1.4,1.7,5.6-0.8,9.3
		c-2.5,3.8-6.2,5.7-8.3,4.3s-1.7-5.6,0.8-9.3C112,175.1,115.7,173.2,117.8,174.6z"/>
	<path fill="none" stroke="#000000" stroke-width="4" stroke-miterlimit="10" d="M110.9,185.6c2.1,1.4,1.7,5.6-0.8,9.3
		c-2.5,3.8-6.2,5.7-8.3,4.3c-2.1-1.4-1.7-5.6,0.8-9.3C105.1,186.1,108.8,184.2,110.9,185.6z"/>
</g>
</svg>
