<?xml version="1.0" encoding="utf-8"?>
<!-- Generator: Adobe Illustrator 19.2.1, SVG Export Plug-In . SVG Version: 6.00 Build 0)  -->
<svg version="1.0" xmlns="http://www.w3.org/2000/svg" xmlns:xlink="http://www.w3.org/1999/xlink" x="0px" y="0px" width="288px"
	 height="288px" viewBox="0 0 288 288" enable-background="new 0 0 288 288" xml:space="preserve">
<g id="Layer_2">
	<path fill="#27AAE1" d="M153.3,106.5c0,0-19.5,34-30.4,41.5v5.8l9.4-2.7c0,0,7.4-7.3,8.8-9.2s15.7-24.6,15.7-24.6v-10.8H153.3z"/>
</g>
<g id="Layer_1">
	<path fill="none" stroke="#000000" stroke-width="2" stroke-miterlimit="10" d="M141.3,99.5h-2.7c-6.6,0-12-5.4-12-12v-14
		c0-6.6,5.4-12,12-12h2.7c6.6,0,12,5.4,12,12v14C153.3,94.1,147.9,99.5,141.3,99.5z"/>
	<path fill="none" stroke="#000000" stroke-width="2" stroke-miterlimit="10" d="M126.6,83.1c0,0,5.3,0.7,10,0s6.3-0.6,8.5,0.2
		c2.2,0.7,8.2-0.6,8.2-0.6"/>
	<path fill="none" stroke="#000000" stroke-width="2" stroke-miterlimit="10" d="M126.6,78.6c0,0-6.9,3.2,0,7.1"/>
	<path fill="none" stroke="#000000" stroke-width="2" stroke-miterlimit="10" d="M153.3,78.6c0,0,6.4,3.7,0,6"/>
	<path fill="none" stroke="#000000" stroke-width="2" stroke-miterlimit="10" d="M152.3,105.6l12.1-5.3c-1.2-3.4-3.2-19.9-3.2-19.9
		C160.7,66,156,59.6,151,56.9c0,0-7.4-2.6-10.7,0c0,0-9.3-2.8-13.8,1.4c-4.2,4.1-8.4,10.1-8.2,24.3c0,0-0.4,16.8-1.8,20.5l10.7,2.8"
		/>
	<polyline fill="none" stroke="#000000" stroke-width="2" stroke-miterlimit="10" points="135.8,99.5 135.8,104.6 144.9,104.6 
		144.7,99.5 	"/>
	<path fill="none" stroke="#000000" stroke-width="2" stroke-miterlimit="10" d="M124.4,106.5c0,0,16.8-4,32.1,0l2.2,45.3
		c0,0-28-1-36.5,1.6L124.4,106.5z"/>
	<path fill="none" stroke="#000000" stroke-width="2" stroke-miterlimit="10" d="M124.4,106.5c0,0-11.8,5.2-13.1,41.5"/>
	<path fill="none" stroke="#000000" stroke-width="2" stroke-miterlimit="10" d="M119.7,161.1c0.1-0.6,2.5-13.7,2.5-13.7l-16.6,0.6
		l4.9,14.1L119.7,161.1z"/>
	<path fill="none" stroke="#000000" stroke-width="2" stroke-miterlimit="10" d="M156.8,106.5c0,0,11.8,5.2,13.1,41.5"/>
	<path fill="none" stroke="#000000" stroke-width="2" stroke-miterlimit="10" d="M161.5,161.1c-0.1-0.6-2.5-13.7-2.5-13.7l16.6,0.6
		l-4.9,14.1L161.5,161.1z"/>
	<line fill="none" stroke="#000000" stroke-width="2" stroke-miterlimit="10" x1="113" y1="161.9" x2="111.9" y2="154.8"/>
	<line fill="none" stroke="#000000" stroke-width="2" stroke-miterlimit="10" x1="115.1" y1="161.6" x2="115.1" y2="154"/>
	<line fill="none" stroke="#000000" stroke-width="2" stroke-miterlimit="10" x1="117.9" y1="160.9" x2="118.5" y2="154"/>
	<line fill="none" stroke="#000000" stroke-width="2" stroke-miterlimit="10" x1="163.7" y1="160.9" x2="163" y2="153.5"/>
	<line fill="none" stroke="#000000" stroke-width="2" stroke-miterlimit="10" x1="165.9" y1="160.9" x2="166.4" y2="154"/>
	<line fill="none" stroke="#000000" stroke-width="2" stroke-miterlimit="10" x1="168.3" y1="161.9" x2="169.9" y2="154.5"/>
	<path fill="none" stroke="#000000" stroke-width="2" stroke-miterlimit="10" d="M120.3,158.3l-2.4,58.4c0,0,33.6,5.3,51.4,0
		l-8.5-59.3"/>
	<polyline fill="none" stroke="#000000" stroke-width="2" stroke-miterlimit="10" points="129.8,218.1 133.1,227.1 135,227.1 
		137.8,219.1 	"/>
	<polyline fill="none" stroke="#000000" stroke-width="2" stroke-miterlimit="10" points="148.1,219.1 150.8,227.1 153.7,227.1 
		155.2,218.9 	"/>
	<polygon fill="none" stroke="#000000" stroke-width="2" stroke-miterlimit="10" points="131.9,227.1 120,234 130.9,236.6 
		136.4,227.1 	"/>
	<polygon fill="none" stroke="#000000" stroke-width="2" stroke-miterlimit="10" points="149.5,227.1 155.2,238.6 166.5,235.9 
		155.2,227.1 	"/>
	<path fill="none" stroke="#000000" stroke-width="2" stroke-miterlimit="10" d="M150.8,105.4c0,0-13.1,25.9-28.2,40.3"/>
	<path fill="none" stroke="#000000" stroke-width="2" stroke-miterlimit="10" d="M157,117c0,0-16.6,30.9-26.5,35.2"/>
	<path fill="none" stroke="#000000" stroke-width="2" stroke-miterlimit="10" d="M107.5,153.1c-4.7-0.3-8.7-0.5-8.7-0.5v10l24.1-0.7
		v-8c0,0-0.5,0-1.3-0.1"/>
	<path fill="none" stroke="#000000" stroke-width="2" stroke-miterlimit="10" d="M173.6,153.2c5.4-0.3,10.3-0.6,10.3-0.6v10
		c0,0-17.8-0.5-22.8-0.7"/>
	<path fill="none" stroke="#000000" stroke-width="2" stroke-miterlimit="10" d="M104.2,162.5v66.3h18.8c0,0-0.1-4.9-0.3-12"/>
	<path fill="none" stroke="#000000" stroke-width="2" stroke-miterlimit="10" d="M122.9,228.8c0,0,2.2,0,5.6,0"/>
	<path fill="none" stroke="#000000" stroke-width="2" stroke-miterlimit="10" d="M135.2,228.8c4.9,0,10.5,0,15.1,0"/>
	<path fill="none" stroke="#000000" stroke-width="2" stroke-miterlimit="10" d="M178.6,162.5v66.3h-18.8c0,0,0.1-4.3,0.3-10.6"/>
	<line fill="none" stroke="#000000" stroke-width="2" stroke-miterlimit="10" x1="109.2" y1="162.6" x2="109.2" y2="228.8"/>
	<line fill="none" stroke="#000000" stroke-width="2" stroke-miterlimit="10" x1="115" y1="162.6" x2="115.6" y2="228.8"/>
	<line fill="none" stroke="#000000" stroke-width="2" stroke-miterlimit="10" x1="173.5" y1="162.6" x2="173.5" y2="228.8"/>
	<path fill="none" stroke="#000000" stroke-width="2" stroke-miterlimit="10" d="M167.7,162.6c0,0-0.2,22-0.4,40.6"/>
	<path fill="none" stroke="#000000" stroke-width="2" stroke-miterlimit="10" d="M167.2,217.3c-0.1,6.8-0.1,11.5-0.1,11.5"/>
	<path fill="none" stroke="#000000" stroke-width="2" stroke-miterlimit="10" d="M178.6,152.9l1.5-76.2c-0.4-8.6-14.1-7.1-14.1-7.1
		s0.4-12.3-13.7-17.1c0,0-15.7-3.6-25.8-0.2c-15.5,5.3-15.1,19-15.1,19c-12-0.4-14.5,9.1-14.5,9.1l5.5,72.1"/>
	<line fill="none" stroke="#000000" stroke-width="2" stroke-miterlimit="10" x1="104.5" y1="210.7" x2="43.4" y2="210.7"/>
	<line fill="none" stroke="#000000" stroke-width="2" stroke-miterlimit="10" x1="179.6" y1="210.7" x2="257.4" y2="210.7"/>
	<line fill="none" stroke="#000000" stroke-width="2" stroke-miterlimit="10" x1="82.3" y1="243.4" x2="203.7" y2="243.4"/>
</g>
<g id="Layer_3">
	<path opacity="0" fill="none" stroke="#27AAE1" stroke-width="15" stroke-miterlimit="10" d="M142.7,106.4
		c10.8-0.9,21.8-0.5,32.5,0.9c-13.3,2.9-26.8,4.9-40.4,5.8c-1.1,0.1-2.5,0.4-2.6,1.5c9.3,1.2,18.6,2.4,27.9,3.6
		c-13.1,0.3-26.2,2.4-38.4,7.1c12.5,0.5,24.9,1,37.4,1.4c-12.7,4.5-26.1,6.6-39.3,8.6c9.8,0.4,19.6,0.8,29.4,1.2
		c-12.5,0.6-25.2,1.3-37,5.4c-0.5,0.2-1,0.4-1.3,0.8c-0.7,1.2,0.9,2.3,2.2,2.7c10.1,3.1,20.5,5.3,31,6.7"/>
</g>
</svg>
