<?xml version="1.0" encoding="utf-8"?>
<!-- Generator: Adobe Illustrator 19.2.1, SVG Export Plug-In . SVG Version: 6.00 Build 0)  -->
<svg version="1.0" id="Layer_1" xmlns="http://www.w3.org/2000/svg" xmlns:xlink="http://www.w3.org/1999/xlink" x="0px" y="0px"
	 width="288px" height="288px" viewBox="0 0 288 288" enable-background="new 0 0 288 288" xml:space="preserve">
<path fill="none" stroke="#000000" stroke-width="2" stroke-miterlimit="10" d="M155.3,140.7c11.3,0,20.4,0,20.4,0
	s-2.9-71.4-30.7-69.4c-27.8,2-30.7,30.4-31.9,69.4c0,0,5.6,0,13.4,0"/>
<path fill="none" stroke="#000000" stroke-width="2" stroke-miterlimit="10" d="M48.5,224.7h41.5c0,0,5.4-74.9-18.1-74.9
	C48.5,149.8,46,178.2,48.5,224.7z"/>
<path fill="none" stroke="#000000" stroke-width="2" stroke-miterlimit="10" d="M193.9,224.7h41.5c0,0,5.4-74.9-18.1-74.9
	C193.9,149.8,191.4,178.2,193.9,224.7z"/>
<line fill="none" stroke="#000000" stroke-width="2" stroke-miterlimit="10" x1="69.2" y1="150" x2="69.2" y2="224.7"/>
<line fill="none" stroke="#000000" stroke-width="2" stroke-miterlimit="10" x1="47.8" y1="187.3" x2="89.8" y2="187.3"/>
<path fill="none" stroke="#000000" stroke-width="2" stroke-miterlimit="10" d="M145,71.3c0,0,0,39.2,0,59"/>
<line fill="none" stroke="#000000" stroke-width="2" stroke-miterlimit="10" x1="117.9" y1="95.9" x2="168.1" y2="95.9"/>
<line fill="none" stroke="#000000" stroke-width="2" stroke-miterlimit="10" x1="214.3" y1="150" x2="214.3" y2="224.7"/>
<line fill="none" stroke="#000000" stroke-width="2" stroke-miterlimit="10" x1="192.8" y1="187.3" x2="234.9" y2="187.3"/>
<line fill="none" stroke="#000000" stroke-width="2" stroke-miterlimit="10" x1="102.7" y1="63.2" x2="66.4" y2="134.5"/>
<line fill="none" stroke="#000000" stroke-width="2" stroke-miterlimit="10" x1="113.1" y1="63.2" x2="83.5" y2="145.5"/>
<line fill="none" stroke="#000000" stroke-width="2" stroke-miterlimit="10" x1="116.1" y1="72.8" x2="102.7" y2="131.7"/>
<line fill="none" stroke="#000000" stroke-width="2" stroke-miterlimit="10" x1="174.3" y1="72.8" x2="187.7" y2="131.7"/>
<line fill="none" stroke="#000000" stroke-width="2" stroke-miterlimit="10" x1="177.3" y1="63.2" x2="207" y2="145.5"/>
<line fill="none" stroke="#000000" stroke-width="2" stroke-miterlimit="10" x1="187.7" y1="63.2" x2="224.1" y2="134.5"/>
</svg>
