<?xml version="1.0" encoding="utf-8"?>
<!-- Generator: Adobe Illustrator 21.0.0, SVG Export Plug-In . SVG Version: 6.00 Build 0)  -->
<!DOCTYPE svg PUBLIC "-//W3C//DTD SVG 1.0//EN" "http://www.w3.org/TR/2001/REC-SVG-20010904/DTD/svg10.dtd">
<svg version="1.0" xmlns="http://www.w3.org/2000/svg" xmlns:xlink="http://www.w3.org/1999/xlink" x="0px" y="0px" width="288px"
	 height="288px" viewBox="0 0 288 288" enable-background="new 0 0 288 288" xml:space="preserve">
<g id="Color_1_">
	<path fill="#61BDEB" d="M85.8,174.5v-24.7l2.1-8.1l-4.7-3.6l-5,0.5v-0.1v0.1L75,137l-2.5,15.9l2.5-18.1c-0.2-0.8-0.5-1.6-0.8-2.4
		l0.4,0.3c4-1.9,7.6-5.8,9.6-11c3.5-9.2,0.6-18.9-6.5-21.6s-15.8,2.5-19.3,11.7c-1.3,3.1-1.7,6.4-1.5,9.4l0.1,0.1
		c-4.3,0.1-7.5,1.3-7.5,1.3c-18,17.2-29.7,64-29.7,64c0.6,0.5,1.2,0.9,1.8,1.3l1,0.3L8.8,213.5l20.2,6.2c0.2-2.8-0.3-14.8,2.7-14.8
		c1,0,1.9,0.5,2.9,0.7c1.2,0.2,2.4-0.1,3.6-0.1c4.8,0.1,1.5,6.3,0.8,9.1c-0.6,2.3-1.2,4.7-1.8,7l19,2.2l-1.9-17.1l32.8-9.7
		c-0.1-3.8-16.5-27.2-16.9-27.8l1.9-13.8C73,156.6,85.8,174.5,85.8,174.5z"/>
	<path fill="#61BDEB" d="M212.7,155.4l1.9,13.8c-0.4,0.6-16.8,24-16.9,27.8l32.8,9.7l-1.9,17.1l19-2.2c-0.6-2.3-1.2-4.7-1.8-7
		c-0.7-2.8-4-9,0.8-9.1c1.2,0,2.4,0.3,3.6,0.1c1-0.2,1.9-0.7,2.9-0.7c3,0,2.5,12,2.7,14.8l20.2-6.2l-13.8-25.3l1-0.3
		c0.6-0.4,1.2-0.8,1.8-1.3c0,0-11.7-46.8-29.7-64c0,0-3.3-1.2-7.5-1.3l0.1-0.1c0.2-3-0.2-6.3-1.5-9.4c-3.5-9.2-12.2-14.4-19.3-11.7
		c-7.1,2.7-10,12.4-6.5,21.6c2,5.2,5.6,9.1,9.6,11l0.4-0.3c-0.3,0.8-0.6,1.5-0.8,2.4l2.5,18.1l-2.5-15.9l-3.2,1.6v-0.1v0.1l-5-0.5
		l-4.7,3.6l2.1,8.1v24.7C199,174.5,211.8,156.6,212.7,155.4z"/>
	<path fill="#61BDEB" d="M105.5,84.9L105.5,84.9c0.3-0.2,3.8-7.9,3.8-7.9l-2-2.9l-2.9,1.8l1.9-12.7l-9.9,2.9l3.6,19.3l-0.7,25
		l20.7,25.9l2.2-15l-13.8-14.9L105.5,84.9z"/>
	<path fill="#61BDEB" d="M183.1,66.1l-9.9-2.9l1.9,12.7l-2.9-1.8l-2,2.9c0,0,3.5,7.7,3.8,7.9l0,0l-2.9,21.5l-13.7,14.7
		c-1.6-1-3.4-1.8-5.2-2.3c1.1-2.5,1.7-5.4,1.7-8.5c0-9.2-5.7-16.6-12.7-16.6s-12.7,7.5-12.7,16.6c0,3.1,0.7,6,1.8,8.5
		c-4.9,1.1-8.2,2.5-8.2,2.5l-7.6,73.3c1.7,0.8,3.7,1.4,5.8,1.9h0.4l-6.2,20.9l19,2.3l-2-22c5.2,0.2,10.6-0.1,15.5-0.5l-15.5,0.5
		l-0.1-1.3l15.7-0.2l1,23.6l15.9-3.2l-6.7-20.5h0.3c4.4-0.7,8.2-1.4,8.2-1.4l-6.5-59.7l0.2,1.4l20.6-25.9l-0.7-25h0.1L183.1,66.1z"
		/>
</g>
<g id="Stroke_1_">
	
		<path fill="none" stroke="#231F20" stroke-width="31" stroke-linecap="round" stroke-linejoin="round" stroke-miterlimit="10" stroke-opacity="0" d="
		M38.3,61c50.9,2.2,101.7,4.3,152.6,6.5c28.2,1.2,56.7,2.4,83.8,9.3c-6.5,3.1-14.2,3.3-21.6,3.5c-47.9,0.8-95.7,1.6-143.6,2.4
		c-24.2,0.4-48.9,0.9-71.9,7.5C35,91,31.9,92.7,32.8,95c23.7,6.6,49.2,3.5,74,3.4c41-0.2,82.1,7.7,122.8,3.5
		c11-1.1,22.6-3.1,32.9,0.4c2.1,0.7,4.1,1.7,5.1,3.5c1.5,2.7-0.2,6.1-3,7.8c-2.8,1.7-6.3,2.1-9.6,2.4c-56.1,5-84.3,10.7-140.4,12.3
		c-18.2,0.5-62.2-6.8-89.7,0.1c-1.2,3.7,3.6,6.6,7.6,8c36.1,12.4,75.6,14.3,114.3,13.4c38.7-0.9,77.3-4.5,115.9-2.5
		c1.2,0.1,2.6,0.2,3.5,0.9c1.5,1.2,0.9,3.6-0.7,4.7c-1.5,1.1-3.6,1.4-5.6,1.6c-72.1,8-144.9,7.5-217.4,11.4
		c-10.7,0.6-21.9,1.4-31.2,6.2c-0.9,0.4-1.8,1-2.1,1.8c-1,2.2,2.4,3.9,5,4.4c45.2,8.9,92.1,5.1,138.3,3c48.1-2.2,96.2-2.5,144.3-2.8
		c1.6,4.7,2.4,9.6,2.4,14.5c0,1.5-0.1,3-1,4.2c-1,1.3-2.9,2-4.7,2.4c-16.3,4.4-33.8,4.1-50.8,3.7c-79.7-1.7-159.4-2.1-239.1-2.5
		c-2.1,0-4.3,0-6.2,0.9s-3.1,3-2.2,4.7c0.8,1.5,2.8,2,4.7,2.4c74.6,15.1,152.3,3.6,228.6-0.7c16.2-0.9,32.9-1.4,48.3,3.2
		c0.9,2.8-2.7,5.1-5.8,6.1c-8.4,2.7-17.3,4-26.1,5c-20.3,2.3-40.7,3.2-61.1,4c-59.6,2.5-119.4,4.9-179,1.7"/>
</g>
</svg>
