<?xml version="1.0" encoding="utf-8"?>
<!-- Generator: Adobe Illustrator 21.0.0, SVG Export Plug-In . SVG Version: 6.00 Build 0)  -->
<!DOCTYPE svg PUBLIC "-//W3C//DTD SVG 1.0//EN" "http://www.w3.org/TR/2001/REC-SVG-20010904/DTD/svg10.dtd">
<svg version="1.0" id="Layer_1" xmlns="http://www.w3.org/2000/svg" xmlns:xlink="http://www.w3.org/1999/xlink" x="0px" y="0px"
	 width="288px" height="288px" viewBox="0 0 288 288" enable-background="new 0 0 288 288" xml:space="preserve">
<path fill="none" stroke="#000000" stroke-width="4" stroke-miterlimit="10" d="M56.9,121.2c-0.2-3,0.2-6.3,1.5-9.4
	c3.5-9.2,12.2-14.4,19.3-11.7c7.1,2.7,10,12.4,6.5,21.6c-2,5.2-5.6,9.1-9.6,11"/>
<path fill="none" stroke="#000000" stroke-width="4" stroke-miterlimit="10" d="M21.6,187.9c-0.6-0.4-1.2-0.8-1.8-1.3
	c0,0,11.7-46.8,29.7-64c0,0,19.8-7.3,25.5,12.2l-8.3,59.6c0,0-5.6,2.1-13.9,2.4"/>
<polygon fill="none" stroke="#000000" stroke-width="4" stroke-miterlimit="10" points="31.5,188.6 24,185.5 8.8,213.5 29,219.7 "/>
<path fill="none" stroke="#000000" stroke-width="4" stroke-miterlimit="10" d="M43.7,196.4c-4.1-0.6-8.6-1.7-13.2-3.6"/>
<polygon fill="none" stroke="#000000" stroke-width="4" stroke-miterlimit="10" points="44.4,193.3 52.9,194 56.2,223.7 37.2,221.5 
	"/>
<line fill="none" stroke="#000000" stroke-width="4" stroke-miterlimit="10" x1="30.2" y1="204.7" x2="40.4" y2="206.6"/>
<path fill="none" stroke="#000000" stroke-width="4" stroke-miterlimit="10" d="M70.2,169.1c0,0,16.8,24,16.9,27.8l-32.8,9.7"/>
<path fill="none" stroke="#000000" stroke-width="4" stroke-miterlimit="10" d="M72.1,155.3c0.5,0.8,13.7,19.2,13.7,19.2v-24.7
	l2.1-8.1l-4.7-3.6l-5,0.5L75,137"/>
<line fill="none" stroke="#000000" stroke-width="4" stroke-miterlimit="10" x1="74.5" y1="139.2" x2="85.8" y2="157.8"/>
<polyline fill="none" stroke="#000000" stroke-width="4" stroke-miterlimit="10" points="78.2,138.5 78.3,144.9 82.7,147.2 "/>
<path fill="none" stroke="#000000" stroke-width="4" stroke-miterlimit="10" d="M130.7,119.5c-1.3-2.6-2.1-5.8-2.1-9.2
	c0-9.1,5.7-16.6,12.7-16.6s12.7,7.4,12.7,16.6c0,3.5-0.8,6.7-2.2,9.4"/>
<path fill="none" stroke="#000000" stroke-width="4" stroke-miterlimit="10" d="M120.4,196.5c-2.1-0.5-4.1-1.1-5.8-1.9l7.6-73.3
	c0,0,21.5-8.9,35.6,0l8,73.3c0,0-3.8,0.7-8.2,1.4"/>
<polygon fill="none" stroke="#000000" stroke-width="4" stroke-miterlimit="10" points="122.7,190.3 131,191.6 133.6,219.7 
	114.6,217.4 "/>
<path fill="none" stroke="#000000" stroke-width="4" stroke-miterlimit="10" d="M147.1,197.2c-5,0.4-10.4,0.7-15.7,0.5"/>
<polygon fill="none" stroke="#000000" stroke-width="4" stroke-miterlimit="10" points="146.9,190.3 148.1,219.7 164,216.5 
	155.4,190.3 "/>
<polyline fill="none" stroke="#000000" stroke-width="4" stroke-miterlimit="10" points="122.2,121.3 108.4,106.4 105.4,84.4 
	100,85.3 99.3,110.4 120,136.3 "/>
<path fill="none" stroke="#000000" stroke-width="4" stroke-miterlimit="10" d="M105.5,84.9c0.3-0.2,3.8-7.9,3.8-7.9l-2-2.9
	l-2.9,1.8l1.9-12.7l-9.9,2.9l3.6,19.3"/>
<polyline fill="none" stroke="#000000" stroke-width="4" stroke-miterlimit="10" points="157.2,121.3 171.1,106.4 174.1,84.4 
	179.4,85.3 180.1,110.4 159.5,136.3 "/>
<path fill="none" stroke="#000000" stroke-width="4" stroke-miterlimit="10" d="M174,84.9c-0.3-0.2-3.8-7.9-3.8-7.9l2-2.9l2.9,1.8
	l-1.9-12.7l9.9,2.9l-3.6,19.3"/>
<path fill="none" stroke="#000000" stroke-width="4" stroke-miterlimit="10" d="M227.3,121.2c0.2-3-0.2-6.3-1.5-9.4
	c-3.5-9.2-12.2-14.4-19.3-11.7s-10,12.4-6.5,21.6c2,5.2,5.6,9.1,9.6,11"/>
<path fill="none" stroke="#000000" stroke-width="4" stroke-miterlimit="10" d="M262.6,187.9c0.6-0.4,1.2-0.8,1.8-1.3
	c0,0-11.7-46.8-29.7-64c0,0-19.8-7.3-25.5,12.2l8.3,59.6c0,0,5.6,2.1,13.9,2.4"/>
<polygon fill="none" stroke="#000000" stroke-width="4" stroke-miterlimit="10" points="239.8,193.3 231.4,194 228,223.7 247,221.5 
	"/>
<path fill="none" stroke="#000000" stroke-width="4" stroke-miterlimit="10" d="M240.5,196.4c4.1-0.6,8.6-1.7,13.2-3.6"/>
<polygon fill="none" stroke="#000000" stroke-width="4" stroke-miterlimit="10" points="252.7,188.6 260.3,185.5 275.5,213.5 
	255.2,219.7 "/>
<line fill="none" stroke="#000000" stroke-width="4" stroke-miterlimit="10" x1="254" y1="204.7" x2="243.9" y2="206.6"/>
<path fill="none" stroke="#000000" stroke-width="4" stroke-miterlimit="10" d="M214,169.1c0,0-16.8,24-16.9,27.8l32.8,9.7"/>
<path fill="none" stroke="#000000" stroke-width="4" stroke-miterlimit="10" d="M212.1,155.3c-0.5,0.8-13.7,19.2-13.7,19.2v-24.7
	l-2.1-8.1l4.7-3.6l5,0.5l3.2-1.6"/>
<line fill="none" stroke="#000000" stroke-width="4" stroke-miterlimit="10" x1="209.8" y1="139.2" x2="198.5" y2="157.8"/>
<polyline fill="none" stroke="#000000" stroke-width="4" stroke-miterlimit="10" points="206.1,138.5 205.9,144.9 201.6,147.2 "/>
</svg>
