<?xml version="1.0" encoding="utf-8"?>
<!-- Generator: Adobe Illustrator 21.0.0, SVG Export Plug-In . SVG Version: 6.00 Build 0)  -->
<!DOCTYPE svg PUBLIC "-//W3C//DTD SVG 1.0//EN" "http://www.w3.org/TR/2001/REC-SVG-20010904/DTD/svg10.dtd">
<svg version="1.0" id="Layer_1" xmlns="http://www.w3.org/2000/svg" xmlns:xlink="http://www.w3.org/1999/xlink" x="0px" y="0px"
	 width="432px" height="432px" viewBox="0 0 432 432" enable-background="new 0 0 432 432" xml:space="preserve">
<path fill="#FFFFFF" stroke="#000000" stroke-width="4" stroke-miterlimit="10" d="M190.7,118.7L178,117l-10,0.8l-5.3,3.2l-7.3,3.3
	l-6.7,1.3c0,0-6-1-11.7,2.3s-5.7,3.3-5.7,3.3L120,139l-3.7,5.3c0,0-2.3,3.1-2.3,6.2s-1.3,7.8-1.3,7.8l-2,6.3l-2,5.3l-2.7,11.3
	c0,0,1-7,0,2.7s-3,13.7-2,17s2.3,7.7,2.7,10c0.3,2.3,1,5.7,1.7,8s1.3,3.8,2.3,8.8s6,13.2,6,13.2l6,4l7.3,1.4l7.7,2.9
	c0,0,6.4,5.7,9.5,6.7s7.8,4,11.5,4s1.7,2,11.7,0s9.3-1.7,12.3-3.3c3-1.7,3.3-2.7,8-2.7s9.7,0,9.7,0s6,1.3,14.7,1.7
	c8.7,0.3,6.3,1.7,12.3,0.3c6-1.3,10-2,10-2s10-3,17.7-5.3s14.5-2.2,14.5-2.2s22.2,1.6,24.5,1.6s13-1.6,13-1.6l5.7-3.8
	c0,0,7.3-2.7,8.3-7s3-12.7,3-12.7l3.6-8.3c0,0,1.6-14.3,0-15.7s-1.3-2.6-2.6-7.3c-1.3-4.7-1,1-2-8.4c-1-9.3-1-15.7-1-15.7l-3-12
	c0,0-2.7-4.7-5-8.7s-1.7-4.7-4.7-8.3c-3-3.7-1.1-3.5-4.1-6.4c-2.9-2.9-11.3-6.2-11.3-6.2l-9-3.1l-4.3-2.2l-15.3-3.7l-9.7-3.5H242
	h-15.3l-8.7,1.3l-11.7,3.5l-6.7,0.7L190.7,118.7z"/>
<path fill="#FFFFFF" stroke="#000000" stroke-width="4" stroke-miterlimit="10" d="M198.8,267h-5.5l-3.5,3.2l-2.2,5.2
	c0,0-1,2.8,0,4.2s-1.8-0.2,1,1.5s4.4,2.2,4.4,2.2h5.8c0,0,3-0.2,4.5-1.8s2-2,3-3.2s4,0,2.8-3.2s0-3-1.8-4.8s-1-3.2-3.2-3.5
	S198.8,267,198.8,267z"/>
<path fill="#FFFFFF" stroke="#000000" stroke-width="4" stroke-miterlimit="10" d="M175,288.2h-4.5h-2.2l-5,4.2c0,0,0.5,1.2,0,3.2
	s-1,3.2,0,5s3.2,3.5,3.2,3.5h2.3h4.9l8-1.2c0,0-0.2-1,0-3.2s-0.5-3.8,0-5.5s0.1-5,0.1-5l-2.8-1H175z"/>
<path fill="#FFFFFF" stroke="#000000" stroke-width="4" stroke-miterlimit="10" d="M139.2,301.8h-5.8l-2,4.5l-1.5,4.2c0,0-2,3.8,0,6
	s2,2.2,2,2.2l7.2,1h5c0,0,4.5-5.2,4.5-6s0-1,0-3s1-5.5,0-6.5s-1.5-2.2-3-2.5S139.2,301.8,139.2,301.8z"/>
</svg>
