<?xml version="1.0" encoding="utf-8"?>
<!-- Generator: Adobe Illustrator 19.2.1, SVG Export Plug-In . SVG Version: 6.00 Build 0)  -->
<svg version="1.0" id="Layer_1" xmlns="http://www.w3.org/2000/svg" xmlns:xlink="http://www.w3.org/1999/xlink" x="0px" y="0px"
	 width="720px" height="432px" viewBox="0 0 720 432" enable-background="new 0 0 720 432" xml:space="preserve">
<ellipse fill="none" stroke="#000000" stroke-width="2" stroke-miterlimit="10" cx="212.1" cy="132.7" rx="11.2" ry="17.3"/>
<polyline fill="none" stroke="#000000" stroke-width="2" stroke-miterlimit="10" points="209,149.3 208.5,157.3 217.4,157.3 
	216.4,148.7 "/>
<path fill="none" stroke="#000000" stroke-width="2" stroke-miterlimit="10" d="M192.9,174.4c0.7-10.4,1.1-17.1,1.1-17.1h33.8
	c0,0,0.5,8.9,1.1,22.1"/>
<path fill="none" stroke="#000000" stroke-width="2" stroke-miterlimit="10" d="M229.8,197.4c2.1,40.7,5,97.6,5,97.6
	s-22.7,6.9-49.7,0c0,0,4-60.7,6.6-101.5"/>
<path fill="none" stroke="#000000" stroke-width="2" stroke-miterlimit="10" d="M194,157.3l-11.8,31.1c0,0,20.8,13.4,41,13.9
	l4.2-22.5l-35.3,4.1"/>
<path fill="none" stroke="#000000" stroke-width="2" stroke-miterlimit="10" d="M203.1,182.6c-0.4-0.9-3.4-6.7-3.4-6.7l-9-2.1
	l-1.5,5.9l6.2,3.8"/>
<polyline fill="none" stroke="#000000" stroke-width="2" stroke-miterlimit="10" points="227.5,179.8 231.7,177.5 234.8,181.8 
	227.1,181.8 "/>
<polyline fill="none" stroke="#000000" stroke-width="2" stroke-miterlimit="10" points="227.8,157.3 244.9,189.3 223.8,199.7 "/>
<path fill="none" stroke="#000000" stroke-width="2" stroke-miterlimit="10" d="M223.2,157.3c0,0-10.2,14.4-19.8,25.6"/>
<path fill="none" stroke="#000000" stroke-width="2" stroke-miterlimit="10" d="M228.5,171.3c0,0-2.8,3.8-7.1,9.1"/>
<path fill="none" stroke="#000000" stroke-width="2" stroke-miterlimit="10" d="M205.3,199.1c-5.6,5.8-11.1,10.6-14.8,11.9"/>
<polyline fill="none" stroke="#000000" stroke-width="2" stroke-miterlimit="10" points="201.4,297.6 202.4,308.3 205.9,308.3 
	206.8,297.8 "/>
<polyline fill="none" stroke="#000000" stroke-width="2" stroke-miterlimit="10" points="214.4,297.6 215.7,308.3 219.2,308.3 
	220.2,297.1 "/>
<polyline fill="none" stroke="#000000" stroke-width="2" stroke-miterlimit="10" points="202.4,308.3 184.4,315 196.7,320.3 
	205.9,308.3 "/>
<polyline fill="none" stroke="#000000" stroke-width="2" stroke-miterlimit="10" points="215.7,308.3 225.1,320.3 236.9,315.9 
	219.2,308.3 "/>
<ellipse fill="none" stroke="#000000" stroke-width="2" stroke-miterlimit="10" cx="283.6" cy="130.4" rx="11.2" ry="17.3"/>
<path fill="none" stroke="#000000" stroke-width="2" stroke-miterlimit="10" d="M296.3,155h-29.3c0,0-6.7,119.3-8.9,137.4
	c0,0,33.5,8.2,51.2-1.7L296.3,155z"/>
<path fill="none" stroke="#000000" stroke-width="2" stroke-miterlimit="10" d="M306,155"/>
<polyline fill="none" stroke="#000000" stroke-width="2" stroke-miterlimit="10" points="286.7,147.1 287.3,155 278.4,155 
	279.3,146.4 "/>
<line fill="none" stroke="#000000" stroke-width="2" stroke-miterlimit="10" x1="271.5" y1="155" x2="300.4" y2="198"/>
<line fill="none" stroke="#000000" stroke-width="2" stroke-miterlimit="10" x1="266.2" y1="167.4" x2="302.2" y2="217.2"/>
<polyline fill="none" stroke="#000000" stroke-width="2" stroke-miterlimit="10" points="266.9,155 244.8,209.8 263.3,217.2 "/>
<polyline fill="none" stroke="#000000" stroke-width="2" stroke-miterlimit="10" points="258.8,215.4 260.8,224.2 258,225.3 
	255.9,221.8 253.3,234.9 247.3,226.4 251.8,212.6 "/>
<polyline fill="none" stroke="#000000" stroke-width="2" stroke-miterlimit="10" points="291.3,295.3 290.3,306.1 286.8,306.1 
	285.9,295.6 "/>
<polyline fill="none" stroke="#000000" stroke-width="2" stroke-miterlimit="10" points="278.4,295.3 277,306.1 273.5,306.1 
	272.5,294.8 "/>
<polyline fill="none" stroke="#000000" stroke-width="2" stroke-miterlimit="10" points="290.3,306.1 308.3,312.8 296,318.1 
	286.8,306.1 "/>
<polyline fill="none" stroke="#000000" stroke-width="2" stroke-miterlimit="10" points="277,306.1 267.7,318.1 255.9,313.6 
	273.5,306.1 "/>
<polyline fill="none" stroke="#000000" stroke-width="2" stroke-miterlimit="10" points="296.3,155 321.2,209.8 302.7,217.2 "/>
<polyline fill="none" stroke="#000000" stroke-width="2" stroke-miterlimit="10" points="307.2,215.4 305.3,224.2 308,225.3 
	310.1,221.8 312.7,234.9 318.7,226.4 314.2,212.6 "/>
<ellipse fill="none" stroke="#000000" stroke-width="2" stroke-miterlimit="10" cx="363.8" cy="130.4" rx="11.2" ry="17.3"/>
<path fill="none" stroke="#000000" stroke-width="2" stroke-miterlimit="10" d="M376.4,155h-29.3c0,0-6.7,119.3-8.9,137.4
	c0,0,33.5,8.2,51.2-1.7L376.4,155z"/>
<path fill="none" stroke="#000000" stroke-width="2" stroke-miterlimit="10" d="M386.1,155"/>
<polyline fill="none" stroke="#000000" stroke-width="2" stroke-miterlimit="10" points="366.9,147.1 367.4,155 358.5,155 
	359.5,146.4 "/>
<line fill="none" stroke="#000000" stroke-width="2" stroke-miterlimit="10" x1="351.6" y1="155" x2="380.5" y2="198"/>
<line fill="none" stroke="#000000" stroke-width="2" stroke-miterlimit="10" x1="346.4" y1="167.4" x2="382.3" y2="217.2"/>
<polyline fill="none" stroke="#000000" stroke-width="2" stroke-miterlimit="10" points="371.5,295.3 370.5,306.1 367,306.1 
	366.1,295.6 "/>
<polyline fill="none" stroke="#000000" stroke-width="2" stroke-miterlimit="10" points="358.5,295.3 357.1,306.1 353.6,306.1 
	352.6,294.8 "/>
<polyline fill="none" stroke="#000000" stroke-width="2" stroke-miterlimit="10" points="370.5,306.1 388.5,312.8 376.1,318.1 
	367,306.1 "/>
<polyline fill="none" stroke="#000000" stroke-width="2" stroke-miterlimit="10" points="357.1,306.1 347.8,318.1 336,313.6 
	353.6,306.1 "/>
<polyline fill="none" stroke="#000000" stroke-width="2" stroke-miterlimit="10" points="347.1,155 323.9,177.4 328.7,215.4 
	343.9,209.5 338,181.2 346.1,171.3 "/>
<line fill="none" stroke="#000000" stroke-width="2" stroke-miterlimit="10" x1="342.5" y1="210.3" x2="343.7" y2="212.6"/>
<polyline fill="none" stroke="#000000" stroke-width="2" stroke-miterlimit="10" points="333.8,213.4 332.6,219.4 336,224.4 
	343.3,221.3 "/>
<path fill="none" stroke="#000000" stroke-width="2" stroke-miterlimit="10" d="M376.5,155l23.2,22.4l-4.9,38c0,0-8.7-3.3-13.1-5.1"
	/>
<path fill="none" stroke="#000000" stroke-width="2" stroke-miterlimit="10" d="M381.1,202.9c1.8-8.4,4.5-21.8,4.5-21.8l-7.7-10.2"
	/>
<polyline fill="none" stroke="#000000" stroke-width="2" stroke-miterlimit="10" points="389.8,213.4 391,219.4 387.6,224.4 
	382.8,222.3 "/>
<ellipse fill="none" stroke="#000000" stroke-width="2" stroke-miterlimit="10" cx="143.6" cy="130.4" rx="11.2" ry="17.3"/>
<path fill="none" stroke="#000000" stroke-width="2" stroke-miterlimit="10" d="M156.2,155h-29.3c0,0-6.7,119.3-8.9,137.4
	c0,0,33.5,8.2,51.3-1.7L156.2,155z"/>
<path fill="none" stroke="#000000" stroke-width="2" stroke-miterlimit="10" d="M165.9,155"/>
<polyline fill="none" stroke="#000000" stroke-width="2" stroke-miterlimit="10" points="146.7,147.1 147.2,155 138.3,155 
	139.3,146.4 "/>
<line fill="none" stroke="#000000" stroke-width="2" stroke-miterlimit="10" x1="131.4" y1="155" x2="160.3" y2="198"/>
<line fill="none" stroke="#000000" stroke-width="2" stroke-miterlimit="10" x1="126.2" y1="167.4" x2="162.1" y2="217.2"/>
<polyline fill="none" stroke="#000000" stroke-width="2" stroke-miterlimit="10" points="151.3,295.3 150.3,306.1 146.8,306.1 
	145.9,295.6 "/>
<polyline fill="none" stroke="#000000" stroke-width="2" stroke-miterlimit="10" points="138.3,295.3 136.9,306.1 133.4,306.1 
	132.4,294.8 "/>
<polyline fill="none" stroke="#000000" stroke-width="2" stroke-miterlimit="10" points="150.3,306.1 168.3,312.8 155.9,318.1 
	146.8,306.1 "/>
<polyline fill="none" stroke="#000000" stroke-width="2" stroke-miterlimit="10" points="136.9,306.1 127.6,318.1 115.8,313.6 
	133.4,306.1 "/>
<path fill="none" stroke="#000000" stroke-width="2" stroke-miterlimit="10" d="M156.3,155l23.2,22.4l-4.9,38c0,0-8.7-3.3-13.1-5.1"
	/>
<path fill="none" stroke="#000000" stroke-width="2" stroke-miterlimit="10" d="M160.9,202.9c1.8-8.4,4.5-21.8,4.5-21.8l-7.7-10.2"
	/>
<polyline fill="none" stroke="#000000" stroke-width="2" stroke-miterlimit="10" points="169.6,213.4 170.8,219.4 167.4,224.4 
	162.6,222.3 "/>
<polyline fill="none" stroke="#000000" stroke-width="2" stroke-miterlimit="10" points="126.9,155 109.2,172.2 86.1,164.3 
	86.1,186.1 112.9,192.3 125.9,172.2 "/>
<path fill="none" stroke="#000000" stroke-width="2" stroke-miterlimit="10" d="M86.1,164.3l-0.9-9.2h-5H66.5c0,0,1.3,4.4,1.7,4.3
	s6.1,0.5,6.1,0.5L75,170l11.2,1"/>
<ellipse transform="matrix(0.9715 -0.2368 0.2368 0.9715 -20.2045 106.1352)" fill="none" stroke="#000000" stroke-width="2" stroke-miterlimit="10" cx="431.7" cy="137.2" rx="11.2" ry="17.3"/>
<polyline fill="none" stroke="#000000" stroke-width="2" stroke-miterlimit="10" points="441.7,148.6 442.3,157.3 429.9,157.3 "/>
<path fill="none" stroke="#000000" stroke-width="2" stroke-miterlimit="10" d="M454.5,174.4c-0.7-10.4-1.1-17.1-1.1-17.1h-33.8
	c0,0-0.5,8.9-1.1,22.1"/>
<path fill="none" stroke="#000000" stroke-width="2" stroke-miterlimit="10" d="M417.6,197.4c-2.1,40.7-5,97.6-5,97.6
	s22.7,6.9,49.8,0c0,0-4-60.7-6.6-101.5"/>
<path fill="none" stroke="#000000" stroke-width="2" stroke-miterlimit="10" d="M453.4,157.3l11.8,31.1c0,0-20.8,13.4-41,13.9
	l-4.2-22.5l35.3,4.1"/>
<path fill="none" stroke="#000000" stroke-width="2" stroke-miterlimit="10" d="M444.3,182.6c0.4-0.9,3.4-6.7,3.4-6.7l9-2.1l1.5,5.9
	l-6.2,3.8"/>
<polyline fill="none" stroke="#000000" stroke-width="2" stroke-miterlimit="10" points="419.9,179.8 415.7,177.5 412.6,181.8 
	420.3,181.8 "/>
<polyline fill="none" stroke="#000000" stroke-width="2" stroke-miterlimit="10" points="419.6,157.3 402.5,189.3 423.6,199.7 "/>
<path fill="none" stroke="#000000" stroke-width="2" stroke-miterlimit="10" d="M424.2,157.3c0,0,10.2,14.4,19.8,25.6"/>
<path fill="none" stroke="#000000" stroke-width="2" stroke-miterlimit="10" d="M418.9,171.3c0,0,2.8,3.8,7.1,9.1"/>
<path fill="none" stroke="#000000" stroke-width="2" stroke-miterlimit="10" d="M442.1,199.1c5.6,5.8,11.1,10.6,14.8,11.9"/>
<polyline fill="none" stroke="#000000" stroke-width="2" stroke-miterlimit="10" points="446,297.6 445,308.3 441.5,308.3 
	440.6,297.8 "/>
<polyline fill="none" stroke="#000000" stroke-width="2" stroke-miterlimit="10" points="433,297.6 431.7,308.3 428.2,308.3 
	427.1,297.1 "/>
<polyline fill="none" stroke="#000000" stroke-width="2" stroke-miterlimit="10" points="445,308.3 463,315 450.7,320.3 
	441.5,308.3 "/>
<polyline fill="none" stroke="#000000" stroke-width="2" stroke-miterlimit="10" points="431.7,308.3 422.3,320.3 410.5,315.9 
	428.2,308.3 "/>
<line fill="none" stroke="#000000" stroke-width="2" stroke-miterlimit="10" x1="429.9" y1="153.8" x2="429.9" y2="157.3"/>
<ellipse fill="none" stroke="#000000" stroke-width="2" stroke-miterlimit="10" cx="501.2" cy="130.4" rx="11.2" ry="17.3"/>
<path fill="none" stroke="#000000" stroke-width="2" stroke-miterlimit="10" d="M513.9,155h-29.3c0,0-6.7,119.3-8.9,137.4
	c0,0,33.5,8.2,51.2-1.7L513.9,155z"/>
<path fill="none" stroke="#000000" stroke-width="2" stroke-miterlimit="10" d="M523.6,155"/>
<polyline fill="none" stroke="#000000" stroke-width="2" stroke-miterlimit="10" points="504.4,147.1 504.9,155 496,155 497,146.4 
	"/>
<line fill="none" stroke="#000000" stroke-width="2" stroke-miterlimit="10" x1="489.1" y1="155" x2="518" y2="198"/>
<line fill="none" stroke="#000000" stroke-width="2" stroke-miterlimit="10" x1="483.8" y1="167.4" x2="519.8" y2="217.2"/>
<polyline fill="none" stroke="#000000" stroke-width="2" stroke-miterlimit="10" points="484.5,155 462.4,209.8 480.9,217.2 "/>
<polyline fill="none" stroke="#000000" stroke-width="2" stroke-miterlimit="10" points="476.4,215.4 478.4,224.2 475.6,225.3 
	473.5,221.8 470.9,234.9 464.9,226.4 469.4,212.6 "/>
<polyline fill="none" stroke="#000000" stroke-width="2" stroke-miterlimit="10" points="508.9,295.3 507.9,306.1 504.4,306.1 
	503.5,295.6 "/>
<polyline fill="none" stroke="#000000" stroke-width="2" stroke-miterlimit="10" points="496,295.3 494.6,306.1 491.1,306.1 
	490.1,294.8 "/>
<polyline fill="none" stroke="#000000" stroke-width="2" stroke-miterlimit="10" points="507.9,306.1 525.9,312.8 513.6,318.1 
	504.4,306.1 "/>
<polyline fill="none" stroke="#000000" stroke-width="2" stroke-miterlimit="10" points="494.6,306.1 485.3,318.1 473.5,313.6 
	491.1,306.1 "/>
<polyline fill="none" stroke="#000000" stroke-width="2" stroke-miterlimit="10" points="513.9,155 538.8,209.8 520.3,217.2 "/>
<polyline fill="none" stroke="#000000" stroke-width="2" stroke-miterlimit="10" points="524.8,215.4 522.9,224.2 525.6,225.3 
	527.8,221.8 530.3,234.9 536.3,226.4 531.8,212.6 "/>
<ellipse fill="none" stroke="#000000" stroke-width="2" stroke-miterlimit="10" cx="576.7" cy="130.4" rx="11.2" ry="17.3"/>
<path fill="none" stroke="#000000" stroke-width="2" stroke-miterlimit="10" d="M564,155h29.3c0,0,6.7,119.2,8.9,137.4
	c0,0-33.5,8.2-51.3-1.7L564,155z"/>
<polyline fill="none" stroke="#000000" stroke-width="2" stroke-miterlimit="10" points="573.6,147.1 573,155 581.9,155 581,146.4 
	"/>
<line fill="none" stroke="#000000" stroke-width="2" stroke-miterlimit="10" x1="588.8" y1="155" x2="559.9" y2="198"/>
<line fill="none" stroke="#000000" stroke-width="2" stroke-miterlimit="10" x1="594.1" y1="167.4" x2="558.1" y2="217.2"/>
<polyline fill="none" stroke="#000000" stroke-width="2" stroke-miterlimit="10" points="569,295.3 570,306.1 573.5,306.1 
	574.4,295.6 "/>
<polyline fill="none" stroke="#000000" stroke-width="2" stroke-miterlimit="10" points="581.9,295.3 583.3,306.1 586.8,306.1 
	587.8,294.8 "/>
<polyline fill="none" stroke="#000000" stroke-width="2" stroke-miterlimit="10" points="570,306.1 552,312.8 564.3,318.1 
	573.5,306.1 "/>
<polyline fill="none" stroke="#000000" stroke-width="2" stroke-miterlimit="10" points="583.3,306.1 592.6,318.1 604.4,313.6 
	586.8,306.1 "/>
<path fill="none" stroke="#000000" stroke-width="2" stroke-miterlimit="10" d="M563.9,155l-23.2,22.4l4.9,38c0,0,8.7-3.3,13.1-5.1"
	/>
<path fill="none" stroke="#000000" stroke-width="2" stroke-miterlimit="10" d="M559.4,202.9c-1.8-8.4-4.5-21.8-4.5-21.8l7.7-10.2"
	/>
<polyline fill="none" stroke="#000000" stroke-width="2" stroke-miterlimit="10" points="550.7,213.4 549.5,219.4 552.8,224.4 
	557.6,222.3 "/>
<polyline fill="none" stroke="#000000" stroke-width="2" stroke-miterlimit="10" points="593.4,155 611,172.2 634.1,164.3 
	634.1,186.1 607.3,192.3 594.4,172.2 "/>
<path fill="none" stroke="#000000" stroke-width="2" stroke-miterlimit="10" d="M634.1,164.3l0.9-9.2h5h13.8c0,0-1.3,4.4-1.7,4.3
	s-6.1,0.5-6.1,0.5l-0.8,10.2l-11.2,1"/>
</svg>
