<?xml version="1.0" encoding="utf-8"?>
<!-- Generator: Adobe Illustrator 19.2.1, SVG Export Plug-In . SVG Version: 6.00 Build 0)  -->
<svg version="1.0" id="Layer_1" xmlns="http://www.w3.org/2000/svg" xmlns:xlink="http://www.w3.org/1999/xlink" x="0px" y="0px"
	 width="432px" height="432px" viewBox="0 0 432 432" enable-background="new 0 0 432 432" xml:space="preserve">
<path fill="none" stroke="#000000" stroke-width="2" stroke-miterlimit="10" d="M26.4,276.1c0-5.4,0-27,0-27v-27.7v-6.3h11.3v6.3
	h5.7v-6.3h11.3v6.3h5.7v-6.3h11.3v6.3h5.7v-6.3h11.3v6.3h5.7v-6.3h11.3v6.3h4.7v-6.3h11.3v6.3v27.7c0,0,0,2.1,0,5.7v0.3h2.7
	c0,0,7.7,0,7.7,0v-6.3h11.3v6.3h7.7v-6.3h11.3v6.3h7.7v-6.3h11.3v6.3h7.7v-6.3h11.3v6.3h6.7v-6.3h11.3v6.3c0,0,9.7,0,9.7,0v-9.5
	l3.8-0.2v-27h12.7v27h5.3v-30.3h8.8V172h5.3v-14.2h8.2v14.3h5.2v43h9.5v30.3h8.5v10h7.8V245h11.5v10.8h9.2v-11.5h11v11.2h8.7l2.5,0
	c0-8.9,0-23.3,0-23.3h-2.6v-4.3h3.1c1.5-4.7,5.9-8.2,11.1-8.2c5.2,0,9.6,3.4,11.1,8.2h3.1v4.3h-2.6c0,0,0,4.8,0,10.5h15.3l20.8,33.4
	"/>
</svg>
