<?xml version="1.0" encoding="utf-8"?>
<!-- Generator: Adobe Illustrator 21.0.2, SVG Export Plug-In . SVG Version: 6.00 Build 0)  -->
<!DOCTYPE svg PUBLIC "-//W3C//DTD SVG 1.0//EN" "http://www.w3.org/TR/2001/REC-SVG-20010904/DTD/svg10.dtd">
<svg version="1.0" id="Layer_1" xmlns="http://www.w3.org/2000/svg" xmlns:xlink="http://www.w3.org/1999/xlink" x="0px" y="0px"
	 width="432px" height="432px" viewBox="0 0 432 432" enable-background="new 0 0 432 432" xml:space="preserve">
<path fill="none" stroke="#000000" stroke-miterlimit="10" d="M142.8,157.1c0,0-4.3-2.7-4.3,0s-1.3,3.7,0,4.7s5.3,3.7,5.7,4.7
	c0.3,1-2,3.7-1.7,5.3c0.3,1.7,5.7,2.3,5.7,2.3s6.3,0,11,0s12.3,1,14.7,0c2.3-1,6-2.3,7-1.7c1,0.7,2.7-0.1,3.7,2.1
	c1,2.2,2.7,3.6,4,5.2c1.3,1.7,1,2.3,3,2.7c2,0.3,5,0,5,0s1.3-2,2.7-3c1.3-1,1.3-3.7,5-3.7s6.3,1,6.3,1l7.7,1.3l4.7,2.7
	c0,0,0-1.4,1.7,1.8s1.7,3.2,1.7,3.2s2.3-3.7,6.7,0c4.3,3.7,5.7,5,5.7,5v2c0,0,2.7,0.3,0,6s-3,9.7-3,9.7s-0.3,1.3-1,4.7
	s-2,3.3-0.7,7.7c1.3,4.3,1.7,7,1.7,7s1,2.7,2.7,6.7s2.7,3.3,3.3,7c0.7,3.7,1,1.7,2,6.7s2,9.3,4.7,11.3s0.7,2.3,4.7,3.3
	c4,1,5.7,2.3,5.7,2.3h4.3c0,0,2.7,2,2.7,3.7s0,6.3,0,6.3l2,7.3c0,0-1,2,2,2.3s5.7,0.3,8,0s6-3.7,7-4.7s3.3-1,3.7-4.7
	c0.3-3.7,0.3-8,1.3-10s2.7-2,2.7-5.7c0-3.7,0-0.7,0-7c0-6.3-0.3-3.7,0-9s1.7-1,0-8.3s-1.7-6.3-3-9.3s-2.7-5.6-2.7-5.6s-1.7-1-3.7-6
	s0.3-2-2-5s0.3,1.3-2.3-3c-2.7-4.3,0.3-0.3-2.7-4.3s-3-2.3-3.3-6s-0.7,0.3-0.3-3.7c0.3-4,0,0.7,0.3-4s1-1.7,0.3-4.7s-0.7-3-0.7-3
	l-1.7-0.7c0,0-1.7,0-3.7-3.7s-2-3.7-2-3.7l-3.3-2.3c0,0-2.3-0.7-4.3-5.3c-2-4.7-1.3-2.7-2-4.7c-0.7-2-0.7,0.3-1.3-4.5
	c-0.7-4.8-0.7-4.8-0.7-4.8l-6.3-2.3c0,0-2,0-4.3,0s-4.3-0.7-5.3,0s0.7-2-1,0.7s-1,0.3-1.7,2.7s-1,3.7-1,3.7l-4.3-1.3l-5-3.7
	c0,0-8.1,1-8.7,1.3s-4.6,1-4.6,1s-6.3,1.7-9.3,2s-7.3,0-8.3,0s-3.3,0.3-4.7-1.3c-1.3-1.7-2.7-6.4-4-5.5s-7-0.1-7-0.1l-5.7,3.7
	l-3.3,1.7l-10,1.7l-8.7,2.3L142.8,157.1z"/>
</svg>
