<?xml version="1.0" encoding="utf-8"?>
<!-- Generator: Adobe Illustrator 19.2.1, SVG Export Plug-In . SVG Version: 6.00 Build 0)  -->
<svg version="1.0" xmlns="http://www.w3.org/2000/svg" xmlns:xlink="http://www.w3.org/1999/xlink" x="0px" y="0px" width="432px"
	 height="432px" viewBox="0 0 432 432" enable-background="new 0 0 432 432" xml:space="preserve">
<g id="Layer_2">
	<path fill="#27AAE1" d="M204.7,111.9c0,0-11.1,22.3,7.1,42.3c0,0-13.4-1-15.2-17.8C194.6,119.7,200.8,112.5,204.7,111.9z"/>
	<path fill="#27AAE1" d="M199.1,160.5l5.3,65.6c0,0,18.3,3.3,22.7,3.2c0,0-15.9,2.8-28-0.3l-6.3-68.5H199.1z"/>
	<polygon fill="#27AAE1" points="203,229.3 203,330.1 185,344.9 200.7,351.8 207.8,330.1 216.2,231.4 	"/>
	<polygon fill="#27AAE1" points="224.5,230.4 235.8,329.1 255.7,344.4 239.5,351.8 228.8,329.1 217.8,230.7 	"/>
	<path fill="#27AAE1" d="M193.7,170.5c-1.2,0.7-12.7,23.7-12.7,23.7l6.3,31.8l-1.4-32.1l8.7-13.9L193.7,170.5z"/>
</g>
<g id="Layer_1">
	
		<ellipse transform="matrix(0.9862 -0.1658 0.1658 0.9862 -19.0983 36.6721)" fill="none" stroke="#000000" stroke-width="2" stroke-miterlimit="10" cx="210.1" cy="132.7" rx="14" ry="21.7"/>
	<path fill="none" stroke="#000000" stroke-width="2" stroke-miterlimit="10" d="M197.8,115.1c0,0,10.4,1.5,18.2-4.3"/>
	<path fill="none" stroke="#000000" stroke-width="2" stroke-miterlimit="10" d="M195.2,118.7c0,0,15,2.7,23.5-6"/>
	<path fill="none" stroke="#000000" stroke-width="2" stroke-miterlimit="10" d="M194.2,122.5c0,0,17.7,3.2,27.5-5.5"/>
	<line fill="none" stroke="#000000" stroke-width="2" stroke-miterlimit="10" x1="208" y1="152.9" x2="208" y2="158.1"/>
	<line fill="none" stroke="#000000" stroke-width="2" stroke-miterlimit="10" x1="217.1" y1="152.8" x2="218.1" y2="157.4"/>
	<path fill="none" stroke="#000000" stroke-width="2" stroke-miterlimit="10" d="M227.8,155.7l-35,4.7l6.3,68.5c0,0,17.2,3.8,33.4,0
		L227.8,155.7z"/>
	<polyline fill="none" stroke="#000000" stroke-width="2" stroke-miterlimit="10" points="192.8,160.5 173.7,193 182.3,229 
		182.3,236 188,243.3 192.8,240.8 188.8,232.3 192.8,232.5 192.8,228.3 188,225.7 185.3,195 194.6,180.1 	"/>
	<polyline fill="none" stroke="#000000" stroke-width="2" stroke-miterlimit="10" points="200.7,229.3 200.7,330.1 207.8,330.1 
		216.3,230.7 	"/>
	<polyline fill="none" stroke="#000000" stroke-width="2" stroke-miterlimit="10" points="218,230.7 231.3,329.1 239.5,329.1 
		232.5,229 	"/>
	<polyline fill="none" stroke="#000000" stroke-width="2" stroke-miterlimit="10" points="200.7,330.1 184.2,342.8 199,348.8 
		207.8,330.1 	"/>
	<polyline fill="none" stroke="#000000" stroke-width="2" stroke-miterlimit="10" points="231.3,329.1 242,348.8 257.6,343.8 
		239.5,329.1 	"/>
	<line fill="none" stroke="#000000" stroke-width="2" stroke-miterlimit="10" x1="173.7" y1="193" x2="185.3" y2="195"/>
	<polyline fill="none" stroke="#000000" stroke-width="2" stroke-miterlimit="10" points="227,156.2 234.4,134.3 233.6,106.7 
		229.2,102.4 226.2,97.8 229.7,93.5 232.1,96.2 232.4,85.1 238.4,82.3 243.7,86 244.2,98.8 241.4,106.5 245.4,136.2 229,175.4 	"/>
</g>
<g id="Layer_3">
	<path opacity="0" fill="none" stroke="#27AAE1" stroke-width="15" stroke-miterlimit="10" d="M197.6,111c2.8,0.6,5.6,1.2,8.3,1.8
		c-2.4,2.5-5.4,4.5-8.7,5.7c3.4,0.1,6.8,0.3,10.3,0.4c-3.9,1.4-7.7,3-11.3,4.9c3.5,0,7,0,10.5,0c-4.3,1.7-8.5,3.4-12.8,5
		c2.9,0.5,5.9,0.6,8.9,0.2c-3.4,1.9-6.8,3.7-10.2,5.6c3.8-0.2,7.7-0.3,11.5-0.5c-2.1,1.3-4.3,2.6-6.4,3.9c2.9,0.1,5.9,0.3,8.8,0.4
		c-2.6,2.1-5.6,3.8-8.7,4.9c4,0,8,0,12,0.1c-3.9,1.9-8,3.4-12.2,4.5c4.5-0.3,8.9-0.7,13.4-1c-1.9,0.9-3.8,1.7-5.7,2.6
		c1.8-0.1,3.5-0.1,5.3-0.2c-5.6,2.9-11.4,5.4-17.4,7.4c4.6-0.2,9.1-0.4,13.7-0.6c-4.5,2.8-9.2,5.4-14,7.8c3.4-0.2,6.7-0.4,10.1-0.7
		c-5.5,2-10.8,4.4-16,7.2c5.7,0,11.4,0,17.1,0c-5.8,2.9-12,5-18.3,6.2c6.7-0.4,13.3-0.7,20-1.1c-7,3.4-14.2,6.4-21.5,9.1
		c5.8-2.3,12.1-3.3,18.4-2.9c-8.2,3.1-16.4,6.2-24.7,9.3c8.3-1.3,16.7-2,25.1-2c-7.6,3.4-15.1,6.9-22.7,10.3
		c8.5-1.8,17.1-2.9,25.8-3c-8.2,2.7-16.4,5.3-24.7,8c8.9-0.6,17.8-1.2,26.7-1.9c-8.2,2.8-16.4,5.7-24.5,8.5
		c10.9-0.8,21.7-1.7,32.6-2.5c-9.6,2.7-19.2,5.8-28.5,9.3c6.8-0.6,13.6-1.2,20.3-1.8c-6.9,2.3-13.5,5.9-19.2,10.4
		c10.1-1.4,20.3-2.9,30.4-4.3c-7.5,0.6-14.9,2.1-22,4.6c14.3,0.4,28.7,0.9,43,1.3c-17.9,1.5-36,3-52.9,8.9c15-0.4,30-0.8,44.9-1.2
		c-13.3,3.2-26.6,6.1-39.9,8.9c12.6,0.1,25.2,0.1,37.8,0.2c-11.3,4.7-23.5,7.2-35.7,7.2c11.7,0.1,23.4,0.2,35.2,0.4
		c-11.5,2.5-22.9,5-34.4,7.5c14.8-0.1,29.7-0.3,44.5-0.4c-13.1,2.6-26.2,5.2-39.3,7.9c11.3-1,22.6-1.5,33.9-1.6
		c-13.3,4.2-26.6,8.4-39.9,12.6c14.6-1,29.1-2,43.7-3c-14.7,3.8-29.5,7.6-44.2,11.3c14.1-0.9,28.1-1.8,42.2-2.7
		c-12,5.1-24.7,8.9-37.6,11.1c13.4-1,26.8-1.4,40.2-1.3c-13.6,4.8-27.9,7.5-42.3,8.1c14.7-0.6,29.3-0.8,44-0.6
		c-13.6,3.1-27.5,5.3-41.4,6.8c13.3-0.1,26.6,0.3,39.8,1.2c-13.8,2.5-27.7,4.9-41.5,7.4c16.6,0.2,33.2,0.4,49.8,0.6
		c-17.2,3.6-34.9,4.9-52.5,4c17.6-0.6,35.3,0.1,52.8,2.3c-21,6-43.2,8.1-65,6.3c23.6,0.1,47.3,0.2,70.9,0.4
		c-21.4,1.9-42.7,3.8-64.1,5.7c23.4,0.8,46.8,1.6,70.2,2.4c-28.2,1.1-56.4,2.2-84.5,3.3c24.7,0.5,49.4,0.9,74.1,1.4
		c-22.7,1.7-45.5,3.4-68.2,5.1c30.4,1.1,60.9-0.6,90.9-5"/>
</g>
</svg>
