<?xml version="1.0" encoding="utf-8"?>
<!-- Generator: Adobe Illustrator 21.0.2, SVG Export Plug-In . SVG Version: 6.00 Build 0)  -->
<!DOCTYPE svg PUBLIC "-//W3C//DTD SVG 1.0//EN" "http://www.w3.org/TR/2001/REC-SVG-20010904/DTD/svg10.dtd">
<svg version="1.0" id="Layer_2" xmlns="http://www.w3.org/2000/svg" xmlns:xlink="http://www.w3.org/1999/xlink" x="0px" y="0px"
	 width="1369px" height="1124.5px" viewBox="0 0 1369 1124.5" enable-background="new 0 0 1369 1124.5" xml:space="preserve">
<path fill="none" stroke="#34ABDF" stroke-width="3" stroke-miterlimit="10" d="M753.5,524.6c1.1,5.8,1.8,12.6-2.3,16.9
	c-1.4,1.5-3.3,2.4-5.1,3.3c-6.4,3.2-13,6.5-20.2,6.6c-4.6,0.1-10.3-0.6-12.8,3.3c-0.8,1.2-1,2.7-1.4,4.2
	c-2.9,11.2-30.9,49.2-44.2,43.5c-15.8-6.8-15.4-26.2-32.4-24.9c-17,1.3-11.2,34-44.6,26.5"/>
<polygon fill="#27AAE1" points="738.3,547.7 861,547.7 800.6,425 "/>
<path fill="none" stroke="#34ABDF" stroke-width="3" stroke-miterlimit="10" d="M830,643.7c-19.4,1.8-39.4-8.5-49.4-25.3
	c-1-1.6-1.9-3.3-3.4-4.4c-1.7-1.2-3.9-1.5-6-1.7c-8.5-0.9-17.3-1.8-25.4,0.9c-5.1,1.7-9.6,4.7-14.9,5.9c-23.9,5.4-45-46.5-64.1-36.2
	c-15.1,8.2-11.9,27.5-28.9,27.8c-17,0.3-15.3-32.7-47.9-22.2"/>
<polygon fill="#27AAE1" points="793,676.1 897.3,676.1 845.9,571.8 "/>
</svg>
