<?xml version="1.0" encoding="utf-8"?>
<!-- Generator: Adobe Illustrator 21.0.2, SVG Export Plug-In . SVG Version: 6.00 Build 0)  -->
<!DOCTYPE svg PUBLIC "-//W3C//DTD SVG 1.0//EN" "http://www.w3.org/TR/2001/REC-SVG-20010904/DTD/svg10.dtd">
<svg version="1.0" id="Layer_2" xmlns="http://www.w3.org/2000/svg" xmlns:xlink="http://www.w3.org/1999/xlink" x="0px" y="0px"
	 width="833px" height="850px" viewBox="0 0 833 850" enable-background="new 0 0 833 850" xml:space="preserve">
<path fill="none" stroke="#000000" stroke-width="4" stroke-miterlimit="10" d="M450.9,36.2l-48.3-21.7h-39.7l-34.5,21.7h-14.9
	c0,0-28.6-15.2-36-11.1s-50.9,12.6-55.7,11.1c-4.8-1.5-24.9,12.6-24.9,12.6L169.8,65l-50.5,8.1c0,0-22.3,18.7-32.3,28.8
	s-18.6,26.8-22.3,33.8c-3.7,6.6-10,69.2-10,69.2s-24.9,23.7-27.1,38.9C25,259,19.4,313,19.4,313s0.4,35.4,0,57.1
	c-0.3,18.4-0.2,36.9-0.1,55.3c0.1,14.7-3.6,37.1,3.1,50c4.1,7.8,6.4,8.9,8,17.9c1.8,9.8,3.9,19.4,7.7,28.7c0.8,2.1,1.8,4.2,3.2,6
	c1.4,1.7,3.2,3,5,4.3c10.5,7.4,19.9,12.4,26,23.5c6.7,12.1,11.6,25.6,17.3,38.2c0,0,26,30.3,26,30.3l33.8,30.3l31.9,16.7h43.4
	c0,0,70.6,40.4,75.4,40.4s11.1,15.2,38.2,15.2s42,0,42,0h65c0,0,43.9,0,44.2,0c-1.9,0-3.7-0.1-5.4-0.7c9.4-4.2,22.1-4.4,32.3-5.7
	c26.3-3.3,44.2-25.8,68.8-36.6c8-3.5,16.4-6.5,23.2-12c13-10.4,19-28.4,33.7-36.2c9.7-5.1,21.2-4.6,32.1-5.4
	c25.3-1.9,69-13.7,76.3-41.4c3.7-14.3,5.8-36.2,15-47.9c10.6-13.4,25.9-23.4,36.4-37.8c3.8-5.3,7.5-10.9,9.3-17.2
	c1.5-5.1,1.7-10.5,1.8-15.8c0.8-22.5,1.6-45.3-3-67.3c-3.5-16.5-9.9-32.4-12.1-49.1c-2.4-18.3-2.4-34.3-9.1-51.6
	c-5.1-13.2-5-28.5-8.4-42.9c-7.4-31.8-11.1-40.4-11.1-40.4l-7.4-18.7c0,0-21.2-41.9-21.2-41.9c-8.4-19-16.2-33.8-28.5-51
	c-3-4.2-6.2-8.5-10.9-10.7c-3.9-1.8-8.3-1.9-12.3-3.2c-11.4-3.7-17.2-16.1-26-24.2c-5.6-5.1-12.4-8.5-19.2-11.9
	c-16.4-8.1-34.4-20.8-51.9-25.4c-10.4-2.7-22.8-2-33.6-3c0,0-22.3,3.5-30.8,3.5c-8.5,0-33.4,8.6-40.8,8.6S450.9,36.2,450.9,36.2z"/>
<path fill="none" stroke="#000000" stroke-width="3" stroke-miterlimit="10" d="M366.3,736.7H362c0,0-4,2.3-4.3,3.3s-1.7,3.1-2,4.9
	c-0.3,1.8-1.7,4.4,0,5.1s4.9,2,4.9,2h2.7c0,0,3.3,1.3,5.3,0s4.3-1.3,4.3-2.7c0-1.3,0-2.7,0-2.7l1.3-5.7v-4.3h-4.7h-3.2V736.7z"/>
<path fill="none" stroke="#000000" stroke-width="3" stroke-miterlimit="10" d="M377.3,764h-3.8l-4.3,4.2l-1.3,3.3
	c0,0-0.8,2.3,0,3.8s1.5,2.5,3.3,2.8s1.5-0.5,3.2,0s4.7,0.1,4.7,0.1l4-1.2l2.5-3.5v-3.7v-3.3l-1.3-2.5l-2.2-0.7L377.3,764z"/>
<path fill="none" stroke="#000000" stroke-width="3" stroke-miterlimit="10" d="M387.5,787.8c0,0-6.2-0.7-6.3,0
	c-0.2,0.7-2,4.7-2,4.7l-1.7,6.2c0,0-0.3,1.3,0.8,2c1.2,0.7,1,0.5,2.5,1.2s7.7,1.3,8.2,1c0.6-0.3,1.9-1,3.2-2.3s3.3,0,3.3-3.7
	s0-6,0-6l-1.8-3.3L387.5,787.8z"/>
</svg>
