<?xml version="1.0" encoding="utf-8"?>
<!-- Generator: Adobe Illustrator 21.0.2, SVG Export Plug-In . SVG Version: 6.00 Build 0)  -->
<!DOCTYPE svg PUBLIC "-//W3C//DTD SVG 1.0//EN" "http://www.w3.org/TR/2001/REC-SVG-20010904/DTD/svg10.dtd">
<svg version="1.0" xmlns="http://www.w3.org/2000/svg" xmlns:xlink="http://www.w3.org/1999/xlink" x="0px" y="0px" width="288px"
	 height="288px" viewBox="0 0 288 288" enable-background="new 0 0 288 288" xml:space="preserve">
<g id="Color">
	<polygon fill="#27AAE1" points="28.3,257 256.3,257 144,29 	"/>
</g>
<g id="Stroke">
	
		<path opacity="0" fill="none" stroke="#000000" stroke-width="26" stroke-linecap="round" stroke-linejoin="round" stroke-miterlimit="10" d="
		M129,28c15.5,0.1,31,0.2,46.6,0.3c-16.8,1.7-33.6,3.5-50.4,5.2c14.6,0.2,29.3,0.5,43.9,0.7c-16.3,1.5-32.7,3-49,4.6
		c21.4,0.1,42.8,0.2,64.1,0.3c-27.8,3.2-55.6,6.4-83.4,9.7c34.3,0.1,68.7,0.2,103,0.4c-41.1,3.1-82.3,6.1-123.4,9.2
		c38.5-0.3,77.1-0.7,115.6-1c-38.8,8.4-78.7,9.7-118.4,11c40,1.9,80.1,2.5,120.2,1.8c-32.2,7.9-65.8,7.5-99,7.1
		c31.8,4.5,63.9,6.1,96,5C156.1,87,117.2,89.3,78.2,89c38.2,6.2,76.9,9.2,115.7,9c-39.2,9.6-80,10.4-120.4,11.1
		c43.1,7.3,86.8,11,130.5,11c-42,6.5-84.5,8.2-127,9.8c44.3,1.2,88.6,2.5,132.9,3.7c-46.6,3.9-93.2,7.8-139.9,11.7
		c54.4,6.8,109.4,5.1,164.2,3.5c-63.1,10.5-127.1,15.8-191.1,15.7c65.6,9.5,132.2,8.3,198.4,7.2c-68.1,9.3-136.8,13.6-205.4,13.1
		C101.5,197,168.5,195,235,192.9c-61,17.9-128-0.1-189.3,16.6c72.2,0,144.3,0,216.5,0c-23.1,6-47.1,8-71,9.6
		c-58.7,4-117.5,5.6-176.3,4.8c84,8.6,168.5,11.4,252.9,8.5c-62.1,17.9-129.4,1.7-192.8,14.3c-16.3,3.2-33.1,8.4-49.3,4.6
		c71.5-1.7,143-3.5,214.5-5.2c5.1-0.1,11.2,0.4,13.4,5c-4.4,5.4-12.3,6.1-19.3,6.3c-47.1,1.3-94.2,2.7-141.3,4"/>
</g>
</svg>
