<?xml version="1.0" encoding="utf-8"?>
<!-- Generator: Adobe Illustrator 19.2.1, SVG Export Plug-In . SVG Version: 6.00 Build 0)  -->
<svg version="1.0" id="Layer_1" xmlns="http://www.w3.org/2000/svg" xmlns:xlink="http://www.w3.org/1999/xlink" x="0px" y="0px"
	 width="432px" height="432px" viewBox="0 0 432 432" enable-background="new 0 0 432 432" xml:space="preserve">
<path fill="none" stroke="#000000" stroke-width="2" stroke-miterlimit="10" d="M268.5,147.3c0,0,1.8,1.8,0,3s-3.8,2.8-4.5,3.5
	s-4.5,3.5-4.5,4.8s0.8,2.2,0,5.2s0,5,0,5s-0.9,4.2-0.3,5c0.6,0.8,1.6,2.8,3.1,3.5s5.2,1.5,5.2,1.5l-1.2-5.5c0,0-0.5-2.5-0.2-3.8
	s0.2-3.2,0.2-3.2s-1-2,1-3.2s5.8-2.2,5.8-2.2s2.5-3.2,2.5-0.8s0.8,2.5,0,4s0.9,2.5,0.3,3.5c-0.6,1,1.2,1.8,1.2,1.8s2.5,0.8,4-1
	s1.8-1.8,2.2-3.2s1.5-4.2,1.8-5s2.5-4.8,2.5-4.8s2-2,5.5-2s4.5,0.5,7.8,0s4-0.2,5.5-1.2s2.2-1.8,3.8-2s2-1,3.8-1.2s3.8-1.2,6.5-1.5
	s3.2,1,3.8,1.8s1.8,0.5,0,2.8s-5,4.8-5,4.8s-1.2,2-0.5,4.2s0.8,2.2,0.8,2.2l-3,5.8l-4.8,4.5c0,0-3.5,5-3,8.5s0.5,7,0.5,7
	s-0.2,2-0.5,5.8s1,4.8-1,8.5s-5,6.8-5,6.8l-3.5,6.5c0,0-4.5,5.8-5.8,8.2s-0.1,1.2-1.3,4.5c-1.2,3.2-1.4,4.2-1.9,6.8
	s-0.5,2.5-0.5,2.5s-1.1,5,2.4,7.8c3.6,2.8,4.8,4.2,4.8,4.2s3,1.2,3,3s-0.5-3.2,0,1.8c0.5,5,2,8.7,2,8.7s-2.8-0.5-5,0s-3.2,0-3.2,0
	s0.1-3.5-1.6-4.8c-1.7-1.2-0.9-0.8-3.4-2c-2.5-1.2-1,0.8-2.5-1.2c-1.5-2,0.5,0.5-1.5-2c-2-2.5-1.8-2.2-3.8-4.2s0.5,0.8-2-2
	s-1.8-3.2-5.8-3.5s-6.2-0.2-6.2-0.2s-1-0.8-3.2,0s-4.5,2.5-4.5,2.5l-2.2,5c0,0-1.5,3-4.8,4.7c-3.2,1.8-7.8,3.2-7.8,3.2
	s-1,0.2-5.5,0.5s-5.5,1.2-8.2,1.5s-2.8-0.8-4.8,1.5s-4,1.8-5.8,5.2s-4.2,6.8-4.2,6.8v4.8c0,0-2,6.2-3.2,7.8s-3,2.8-3,2.8
	s0.8,0.2-2.2,0s-1.8,2.5-3-0.2s-0.8-1.8-1.8-4s-0.5-1.2-1.2-4.8s-1.8-3.8-2-5.2s0-4.5,0-4.5l-0.1-1.8c0,0-1.9-3-2.6-3.5
	s-1-1.8-3.2-1.8s-3.8,0.2-4.8,0.5s-1,0.2-1,0.2s-3.2-4.8-3.8-5.8s-1-1.5-1.5-3c-0.5-1.5,0-2.2-1.2-3.2s-5.5-1.8-5.5-1.8l-4.2-0.8
	c0,0-3.8,0-5.5,0s-3.8,0-3.8,0l-4.8-1.5c0,0-1.2-1.2-4.5-1.2s-5-0.2-7,0s-1.5,0.5-4,0.5s-4.8-0.2-4.8-0.2l-3-2c0,0-5.8-4.5-8-8
	s-3-2.5-4-5.5s-2.5-5.2-2.5-5.2s-1.2-1.2-2.5-4s-2-2.1-2.8-4.2s-2.8-3.8-2.8-3.8s-2.8-1.8-2.5-3.8s1.2-1.2,1.8-2.8s1.5-3.2,1.5-3.2
	l0.8-4l-1-4.2c0,0-0.5-1-1.2-2.8s-1.8-3.5-1.8-3.5s-1.5-3.8-1.2-5.5s3.2-4.5,4-6.5s0,0.2,1-3.2s1.5-5,1.5-5s1-1.2,1.5-5
	s0.8-2.5,0.8-5s0.8-3.8,0.8-3.8l1.5-4c0,0-0.2-2,0.2-4.8s-0.2-1.2,0.5-2.8s4,0,4,0l4-0.7c0,0,1-1.6,1.8-2.1s3.5-1.8,3.5-1.8l5.5,1.2
	h5.2l12.2,0.8l6.5-0.2l9.2,0.5l5.8,2c0,0,3.2,1,9,2.5s8.5,1.8,8.5,1.8l7.5,0.2c0,0,10.2,1.2,15.8,1.2s5.2,0.8,8.2,0s4.5-1,6.5-1.5
	s5.2-2,7.8-2s3,0,4.8,0s5.5,1,5.5,1s-0.2,1-0.5,2s1,1.5,1,1.5l6-2.5l2.8-0.2c0,0,0.2,1,2.8,0.2S268.5,147.3,268.5,147.3z"/>
</svg>
