<?xml version="1.0" encoding="utf-8"?>
<!-- Generator: Adobe Illustrator 24.0.0, SVG Export Plug-In . SVG Version: 6.00 Build 0)  -->
<svg version="1.1" id="Layer_1" xmlns="http://www.w3.org/2000/svg" xmlns:xlink="http://www.w3.org/1999/xlink" x="0px" y="0px"
	 viewBox="0 0 1353 626" style="enable-background:new 0 0 1353 626;" xml:space="preserve">
<style type="text/css">
	.st0{fill:#27AAE1;}
	.st1{fill:none;stroke:#27AAE1;stroke-width:34;stroke-miterlimit:10;stroke-opacity:0;}
	.st2{fill:none;stroke:#000000;stroke-width:1.9999;stroke-miterlimit:9.9995;}
	.st3{fill:none;stroke:#000000;stroke-width:2;stroke-miterlimit:10;}
	.st4{fill:none;stroke:#000000;stroke-miterlimit:10;}
	.st5{fill:#FFFFFF;}
	.st6{fill:none;stroke:#000000;stroke-width:8;stroke-miterlimit:10;}
	.st7{fill:none;stroke:#000000;stroke-width:2;stroke-miterlimit:10.0001;}
	.st8{fill:none;stroke:#000000;stroke-width:2;stroke-miterlimit:9.9998;}
	.st9{fill:none;stroke:#000000;stroke-width:1.9999;stroke-miterlimit:9.9997;}
	.st10{fill:none;stroke:#000000;stroke-width:2.0001;stroke-miterlimit:10.0003;}
	.st11{fill:none;stroke:#27AAE1;stroke-width:25;stroke-miterlimit:10;stroke-opacity:0;}
</style>
<g id="Layer_5">
	<path class="st0" d="M587.25,18.79c0,0-24.84,28.03-5,61.34c0,0-18.04-3.05-15.82-31.64C568.66,20.17,587.25,18.79,587.25,18.79z"
		/>
	<path class="st0" d="M565.46,90.53l-1.67,98.81l41.91,25.4c0,0-33.03,79.66-31.64,79.79c1.39,0.14,31.5,7.08,31.5,7.08l-0.97,5.83
		l-37.47-10.82l30.25-80.07l-58.15-30.25l1.8-9.44l16.65-86.46L565.46,90.53z"/>
	<path class="st0" d="M574.48,136.6l4.3-1.8c0,0,23.04,19.15,24.84,19.71c1.8,0.56,57.17,7.49,57.17,7.49l1.39,3.89h-24.98
		c0,0-8.74-1.39-10.13-1.67c-1.39-0.28-29.56-4.86-29.56-4.86L574.48,136.6z"/>
</g>
<g id="Layer_6">
	<path class="st1" d="M567.69,22.81c7.91,0.28,15.96,0.69,23.87,0.97c-6.8,3.61-13.88,6.52-21.37,8.6
		c7.63,0.56,15.26,1.11,22.9,1.67c-12.63,3.19-25.26,6.52-37.88,9.71c9.02,1.39,18.04,2.08,27.06,1.94
		c-5.83,3.47-12.07,6.52-18.32,9.02c6.94,0.42,13.88,0.83,20.82,1.25c-9.58,8.19-25.4,3.19-35.94,9.99
		c13.32,2.22,26.92,3.33,40.38,3.19c-9.58,4.02-19.71,6.52-29.97,7.22c7.35-1.11,14.99-0.56,22.06,1.67
		c-16.65,5.97-33.03,12.63-48.85,20.26c23.17,0.69,46.21,1.39,69.39,2.22c-15.68,6.11-32.61,8.05-49.4,9.85
		c28.86,3.89,57.87,5.83,87.01,5.83c-37.47,6.8-75.08,13.6-112.54,20.4c36.91,0.42,73.97,0.97,110.88,1.39
		c-36.77,2.36-73.83,4.72-109.63,14.02c10.55,3.33,21.93,3.47,33.03,3.33c35.94-0.14,71.75-1.67,107.55-4.58
		c-53.57,7.35-107.27,14.57-160.84,21.93c49.54-1.8,99.08-3.47,148.49-5.27c-48.57,15.54-101.03,11.1-151.26,19.98
		c48.15,1.8,96.31,1.11,144.32-2.08c-35.11,4.72-70.22,10.41-105.05,17.21c30.81-0.83,61.75-1.67,92.14,3.47
		c-16.93,2.22-33.86,4.44-50.65,6.66c-14.29,1.94-28.59,3.75-42.33,8.19c22.62,1.11,45.24,1.8,67.72,2.08
		c-13.32,5.27-27.89,7.08-41.77,10.55c-13.88,3.47-28.17,9.16-37.05,20.4c27.34,2.5,55.09,0.69,81.88-5.55
		c-19.01,3.89-37.75,9.16-55.93,15.82c-2.78,0.97-5.97,2.36-6.94,5.13c14.15,0.42,28.31,0.69,42.6,1.11
		c-14.29,3.89-28.73,7.77-43.02,11.66c-6.94,1.8-14.02,3.75-20.12,7.63c0.42,3.19,4.58,4.02,7.91,4.02
		c18.73-0.14,37.33-1.11,55.93-2.91c-10.69-0.42-21.65,1.67-31.36,6.38c18.73-0.42,37.33-0.83,56.06-1.25
		c-21.09,0.28-42.6,0.69-62.45,7.49c11.52,2.91,23.59,3.47,35.39,1.67c5.13-0.83,10.41-2.08,14.85-4.86
		c4.44-2.78,7.91-7.49,8.19-12.77"/>
</g>
<g id="Layer_1_1_">
	
		<ellipse transform="matrix(0.1033 -0.9946 0.9946 0.1033 475.7079 626.6947)" class="st2" cx="585.43" cy="49.51" rx="30.81" ry="19.01"/>
	<path class="st3" d="M576.01,20.31c0,0,13.04,3.89,22.34,1.53"/>
	<path class="st3" d="M573.93,22.53c0,0,17.49,6.11,26.92,3.05"/>
	<path class="st3" d="M571.43,26.56c0.14,0.28,17.9,7.35,32.06,2.78"/>
	<polyline class="st3" points="575.46,77.21 572.82,90.53 587.25,90.53 587.25,79.57 	"/>
	<path class="st3" d="M589.06,150.2c-1.94,19.57-3.61,36.22-3.61,36.22s-27.06,6.52-46.21,0l18.6-95.89h37.05
		c0,0-1.94,20.4-4.16,42.33"/>
	<polyline class="st3" points="578.09,117.87 602.52,147.01 639.99,157.97 659.69,160.33 663.44,165.88 637.21,165.88 
		597.52,159.36 572.82,134.94 	"/>
	<line class="st3" x1="602.52" y1="147.01" x2="597.52" y2="159.36"/>
	<polyline class="st3" points="641.51,158.53 645.68,154.51 648.03,154.51 648.03,158.95 	"/>
	<polyline class="st3" points="539.24,186.42 597.52,216.81 570.74,290.36 576.29,292.44 618.2,208.63 583.78,186.84 	"/>
	<polyline class="st3" points="570.74,290.36 568.8,296.19 604.46,307.57 606.4,295.64 576.29,292.44 	"/>
	<path class="st3" d="M568.8,201.83l-29.56-3.33l-2.5-103.25l-10.55,1.94c0,0,3.47,116.15,4.72,116.57
		c1.11,0.42,56.34-2.36,56.34-2.36"/>
	<polyline class="st3" points="530.91,213.76 536.74,301.74 544.65,301.74 546.59,213.76 	"/>
	<path class="st3" d="M589.19,212.51c0,0,0,12.35,0,27.06"/>
	<path class="st3" d="M589.19,266.49c0,10.96,0,21.09,0,27.34"/>
	<path class="st3" d="M594.47,294.53c0.56-8.74,1.8-27.06,2.91-44.27"/>
	<path class="st3" d="M667.6,141.88c14.29-1.25,30.11-1.94,46.77-1.94c10.41,0,20.54,0.28,30.11,0.83"/>
	<path class="st3" d="M799.16,147.15c2.22,0.42,4.3,0.97,6.38,1.39"/>
	<path class="st3" d="M821.36,153.81c6.38,2.91,9.99,6.11,9.99,9.44c0,12.91-52.32,23.31-116.85,23.31s-116.85-10.41-116.85-23.31
		c0-1.25,0.56-2.64,1.67-3.89"/>
	<path class="st3" d="M704.1,186.42l5,80.21c0,0-14.99,8.19-13.6,8.19c1.39,0,41.22,0,41.22,0l-16.79-8.19l4.44-80.07"/>
	<path class="st3" d="M594.47,94.97c0,0.28,27.75,46.91,27.75,46.91l22.48-0.97l3.33-5.27l8.33,6.38l-2.64,5.13l-4.3-3.19"/>
	<path class="st3" d="M592.25,117.87c0,0,24.15,33.17,25.95,33.72c1.8,0.56,26.64-3.05,26.64-3.05s4.3,1.53,6.8,2.5"/>
	<polyline class="st3" points="651.64,138.27 651.64,130.91 667.74,130.91 667.74,153.95 651.64,153.95 651.64,145.49 	"/>
	<path class="st3" d="M651.64,131.61c0,0,10.82,5.27,16.1,0"/>
	
		<ellipse transform="matrix(0.9946 -0.1033 0.1033 0.9946 -0.6829 85.7584)" class="st2" cx="827.58" cy="49.47" rx="19.01" ry="30.81"/>
	<polyline class="st3" points="837.6,77.21 840.37,90.53 825.94,90.53 825.94,79.57 	"/>
	<path class="st3" d="M824.14,150.2c0.14,1.8,0.28,3.47,0.56,5.13"/>
	<path class="st3" d="M826.08,170.46c0.97,9.58,1.53,15.96,1.53,15.96s27.06,6.52,46.21,0l-18.6-95.89h-37.05
		c0,0,1.94,20.4,4.16,42.33"/>
	<polyline class="st3" points="834.96,117.87 810.54,147.01 773.21,157.97 753.5,160.33 749.62,165.88 775.84,165.88 815.53,159.36 
		840.37,134.94 	"/>
	<line class="st3" x1="810.54" y1="147.01" x2="815.53" y2="159.36"/>
	<polyline class="st3" points="771.68,158.53 767.38,154.51 765.02,154.51 765.02,158.95 	"/>
	<polyline class="st3" points="873.82,186.42 815.53,216.81 842.32,290.36 836.76,292.44 794.99,208.63 829.27,186.84 	"/>
	<polyline class="st3" points="842.32,290.36 844.4,296.19 808.59,307.57 806.65,295.64 836.76,292.44 	"/>
	<path class="st3" d="M844.4,201.83l29.56-3.33l2.5-103.25L887,97.19c0,0-3.47,116.15-4.72,116.57c-1.25,0.42-56.34-2.36-56.34-2.36
		"/>
	<polyline class="st3" points="882.28,213.76 876.31,301.74 868.54,301.74 866.46,213.76 	"/>
	<path class="st3" d="M823.86,212.51c0,0,0,12.35,0,27.06"/>
	<path class="st3" d="M823.86,266.49c0,10.96,0,21.09,0,27.34"/>
	<path class="st3" d="M818.72,294.53c-0.56-8.74-1.8-27.06-2.91-44.27"/>
	<path class="st3" d="M818.72,94.97c0,0.28-27.75,46.91-27.75,46.91l-22.48-0.97l-3.47-5.27l-8.33,6.38l2.64,5.13l4.3-3.19"/>
	<path class="st3" d="M820.94,117.87c0,0-24.15,33.17-25.95,33.72c-1.8,0.56-26.64-3.05-26.64-3.05s-4.3,1.53-6.8,2.5"/>
	<polyline class="st3" points="761.41,138.27 761.41,130.91 745.45,130.91 745.45,153.95 761.41,153.95 761.41,145.49 	"/>
	<path class="st3" d="M761.41,131.61c0,0-10.82,5.27-16.1,0"/>
	<polygon class="st3" points="686.34,168.24 686.34,157.14 716.45,144.51 731.99,152.56 731.99,161.58 704.79,177.13 	"/>
	<polyline class="st3" points="686.34,157.14 704.65,165.19 731.99,152.56 	"/>
	<line class="st3" x1="704.65" y1="165.19" x2="704.79" y2="177.13"/>
	<line class="st4" x1="701.05" y1="158.95" x2="717.7" y2="150.06"/>
	<line class="st4" x1="711.45" y1="150.06" x2="716.03" y2="154.51"/>
</g>
<g id="Layer_3">
	<polygon class="st5" points="794.86,122.17 733.52,122.17 733.52,141.88 718.67,180.32 725.89,182.68 736.57,176.71 738.37,209.6 
		716.31,220.28 729.49,295.91 721.03,298.55 730.74,303.13 738.37,303.27 736.57,244.01 743.93,246.37 798.88,244.98 796.38,165.88 
			"/>
	<polygon class="st5" points="624.86,122.17 686.2,122.17 686.06,141.88 701.05,180.32 693.69,182.68 683,176.71 681.2,209.6 
		703.4,220.28 690.22,295.91 698.69,298.55 688.83,303.13 681.2,303.27 683,244.01 675.65,246.37 620.7,244.98 623.19,165.88 	"/>
</g>
<g id="Layer_2_1_">
	<ellipse class="st3" cx="654.97" cy="87.06" rx="19.01" ry="27.34"/>
	<polyline class="st3" points="648.03,112.6 647.06,122.17 659.41,122.17 659.41,114.54 	"/>
	<path class="st3" d="M686.34,122.17c0,0-60.5-0.42-61.34,0l-4.02,109.91h59.26L686.34,122.17z"/>
	<polyline class="st3" points="620.83,246.37 625.41,329.5 632.77,329.5 632.77,246.37 	"/>
	<polyline class="st3" points="663.72,246.37 668.99,329.5 678.29,327.14 678.29,246.37 697.58,237.35 696.88,226.39 680.09,232.08 
		678.29,246.37 620.83,246.37 620.83,232.08 	"/>
	<path class="st3" d="M681.34,209.6l22.2,10.69l-14.43,82.85c0,0-7.35,1.67-7.63,0.28c-0.69-2.36,2.5-59.53,2.5-59.53"/>
	<path class="st3" d="M647.06,246.37l-1.11,57.04c0,0,7.77,1.39,7.35,0c-0.56-1.39,5.97-57.04,5.97-57.04"/>
	<polyline class="st3" points="689.11,303.13 698.82,298.55 690.08,296.75 	"/>
	<polyline class="st3" points="652.61,303.82 665.1,296.75 654.42,294.25 	"/>
	<polyline class="st3" points="685.36,139.66 701.18,180.32 693.97,182.68 683.28,176.71 	"/>
	<ellipse class="st3" cx="764.88" cy="87.06" rx="19.01" ry="27.34"/>
	<polyline class="st3" points="771.68,112.6 772.79,122.17 760.3,122.17 760.3,114.54 	"/>
	<path class="st3" d="M733.52,122.17c0,0,60.5-0.42,61.34,0l4.02,109.91h-59.26L733.52,122.17z"/>
	<polyline class="st3" points="798.88,246.37 794.44,329.5 786.95,329.5 786.95,246.37 	"/>
	<polyline class="st3" points="756,246.37 750.73,329.5 741.43,327.14 741.43,246.37 722.14,237.35 722.83,226.39 739.62,232.08 
		741.43,246.37 798.88,246.37 798.88,232.08 	"/>
	<path class="st3" d="M738.37,209.6l-22.2,10.69l14.43,82.85c0,0,7.35,1.67,7.63,0.28c0.69-2.36-2.5-59.53-2.5-59.53"/>
	<path class="st3" d="M772.79,246.37l1.11,57.04c0,0-7.77,1.39-7.35,0c0.56-1.39-5.97-57.04-5.97-57.04"/>
	<polyline class="st3" points="730.74,303.13 721.03,298.55 729.63,296.75 	"/>
	<polyline class="st3" points="767.24,303.82 754.75,296.75 765.3,294.25 	"/>
	<polyline class="st3" points="736.57,176.71 725.89,182.68 718.67,180.32 734.49,139.66 	"/>
</g>
<g id="Layer_4">
	<path class="st3" d="M665.8,65.41c1.53-10.69,7.91-18.6,15.26-18.46c8.33,0.28,14.71,10.69,14.29,23.17S688,92.75,679.67,92.47
		c-1.8,0-3.47-0.56-5-1.53"/>
	<path class="st3" d="M683.28,92.89l-0.83,7.22l-10.41-0.97l1.94-8.6C673.98,90.53,680.09,93.86,683.28,92.89z"/>
	<polyline class="st3" points="682.45,100.11 695.49,101.63 700.21,139.93 	"/>
	<path class="st3" d="M808.45,50.98c-2.5-2.64-5.55-4.02-8.88-4.02c-8.33,0.28-14.71,10.69-14.29,23.17s7.49,22.62,15.82,22.48
		c8.05-0.28,14.15-9.99,14.29-21.93"/>
	<path class="st3" d="M797.63,92.89l0.83,7.22l10.41-0.97l-1.94-8.6C806.93,90.53,800.68,93.86,797.63,92.89z"/>
	<path class="st3" d="M815.53,98.86l-31.36,2.78c0,0-1.25,10.13-2.5,20.12"/>
</g>
<line class="st6" x1="67.59" y1="374.94" x2="1293.69" y2="374.94"/>
<ellipse transform="matrix(0.989 -0.148 0.148 0.989 -61.2595 100.4043)" class="st7" cx="644.05" cy="461.84" rx="10.12" ry="14.93"/>
<ellipse transform="matrix(0.0525 -0.9986 0.9986 0.0525 195.6504 1129.892)" class="st8" cx="693.24" cy="461.85" rx="14.74" ry="9.05"/>
<ellipse transform="matrix(0.9998 -0.0185 0.0185 0.9998 -8.4446 13.6521)" class="st9" cx="732.31" cy="462.41" rx="9.05" ry="14.74"/>
<ellipse transform="matrix(0.9976 -0.0697 0.0697 0.9976 -30.5017 54.8185)" class="st10" cx="769.96" cy="464.31" rx="8.73" ry="13.54"/>
<path class="st3" d="M643.48,476.14c0.44,2.09,1.14,5.06,1.14,5.06l4.43-0.19c0,0,0-2.85,0-5.12"/>
<polyline class="st3" points="689.42,475.51 689.42,480.19 694.16,480.19 694.79,476.2 "/>
<polyline class="st3" points="729.59,476.33 729.59,482.03 734.46,482.09 735.41,476.33 "/>
<polyline class="st3" points="767.74,477.15 768.69,481.14 773.37,480.89 773.18,477.15 "/>
<path class="st3" d="M636.34,482.78c1.14,0,22.4-2.85,22.4-2.85l1.33,48.15l-17.65,1.14L636.34,482.78z"/>
<path class="st3" d="M636.34,482.78c0,0-12.4,14.87-14.11,23.66l18.92,13.48"/>
<path class="st3" d="M626.91,509.8c0,0,5.82-10.82,10.82-14.55"/>
<line class="st3" x1="632.1" y1="502.27" x2="640.19" y2="512.33"/>
<polyline class="st3" points="640.95,522.01 632.03,521.44 633.8,527.26 641.27,524.67 "/>
<polyline class="st3" points="658.73,479.94 672.08,496.2 680.37,482.78 690.3,483.35 690.68,487.66 681.76,487.34 673.03,505.12 
	658.92,491.14 "/>
<line class="st3" x1="672.08" y1="496.2" x2="673.03" y2="505.12"/>
<path class="st3" d="M680.18,483.29c-0.13-2.09-0.19-3.29-0.19-3.29s16.77-0.25,23.85,2.85l-4.49,41.63l-16.89-1.27
	c0,0-1.14-20.81-1.83-33.53"/>
<path class="st3" d="M679.99,479.62c0,0-0.32,2.09-0.76,5.12"/>
<path class="st3" d="M677.65,495.75c-0.95,6.2-1.71,11.51-1.71,11.51l2.4,17.08l2.97-1.01l0.13-18.79"/>
<polyline class="st3" points="703.84,482.78 710.04,508.15 708.9,525.81 704.66,524.67 703.84,509.29 701.63,503.09 "/>
<line class="st3" x1="703.84" y1="509.29" x2="709.92" y2="507.71"/>
<polyline class="st3" points="678.16,523.97 677.46,532.51 680.18,537.83 682.52,537.83 "/>
<polygon class="st3" points="704.73,524.92 703.15,532.07 706.44,540.42 710.67,536.94 708.97,526.06 "/>
<path class="st3" d="M720.67,497.27c0.25-7.78,0.44-14.3,0.38-15.25c0,0,12.53-0.25,21.32,1.58c0,0-0.19,6.77-0.51,14.93"/>
<path class="st3" d="M721.05,482.09c0,0-3.42,7.4-6.14,13.35"/>
<path class="st3" d="M714.03,497.34c-1.46,3.23-2.59,5.63-2.59,5.63s7.59,8.35,25.5,1.64"/>
<path class="st3" d="M741.99,483.48c0,0,6.58,12.97,7.28,23.85l-26.95-5.95l-6.07,0.95l-3.1-7.02l9.17,1.9l22.14,1.14"/>
<polyline class="st3" points="741.99,494.62 737.69,493.22 733.32,497.72 "/>
<path class="st3" d="M741.61,506.19c-0.32,10.69-0.7,21.13-0.7,21.13l-21.32-0.7c0,0,0.38-9.74,0.7-20.18"/>
<path class="st3" d="M762.49,482.15l17.08-1.96c0,0,5.06,31.13,2.09,47.13l-19.17,0.76C762.49,528.08,766.86,495.06,762.49,482.15z"
	/>
<path class="st3" d="M762.49,482.78c0,0-13.73,16.58-4.49,48.15l3.35-1.71c0,0-3.29-23.35,3.04-29.74"/>
<line class="st3" x1="755.09" y1="504.17" x2="761.23" y2="507.27"/>
<path class="st3" d="M779.64,480.19c0,0,11.83,10.06,16.01,17.53l-12.97,19.04"/>
<line class="st3" x1="781.22" y1="492.15" x2="792.1" y2="502.9"/>
<line class="st3" x1="786.34" y1="497.72" x2="782.29" y2="504.55"/>
<polygon class="st3" points="757.56,530.93 758.06,539.73 761.86,545.48 764.14,545.48 762.74,530.93 761.35,528.91 "/>
<path class="st3" d="M782.67,521.38c0,0,4.81,1.83,5,1.71c0.13-0.13,7.97-4.49,7.97-4.49l-4.11-4.37l-8.86,2.72"/>
<polyline class="st3" points="642.35,529.22 646.33,591.48 649.05,591.48 651.01,529.22 657.02,591.48 660.06,591.48 660.06,528.08 
	"/>
<polyline class="st3" points="682.39,523.09 682.39,588.06 687.46,588.06 691.31,529.22 "/>
<polyline class="st3" points="699.35,524.35 703.27,589.71 699.35,590.53 690.62,523.97 "/>
<path class="st3" d="M781.66,527.32c0,0,4.68,34.1,5.95,67.44h-3.29l-11.77-66.68"/>
<path class="st3" d="M720.67,526.63c0,0,0.89,31.7,1.77,63.01h3.73l4.43-62.32"/>
<polyline class="st3" points="740.92,527.32 740.92,589.64 736.93,589.64 731.49,527.32 "/>
<polyline class="st3" points="762.49,528.08 768.12,588.63 772.55,588.63 773.06,530.93 "/>
<polygon class="st3" points="645.95,592.05 631.84,600.15 645.95,606.09 649.81,592.55 "/>
<polygon class="st3" points="656.58,592.05 658.48,607.29 669.74,600.34 660.88,592.05 "/>
<polygon class="st3" points="682.39,588.63 673.09,597.17 683.79,600.97 687.96,588.63 "/>
<polygon class="st3" points="698.21,590.91 704.22,589.64 713.08,599.07 701.69,603.94 "/>
<polygon class="st3" points="722.7,590.15 713.65,596.79 723.58,602.3 727.12,590.53 "/>
<polygon class="st3" points="736.93,590.15 741.55,590.15 754.77,596.79 746.42,603.12 "/>
<path class="st3" d="M768.5,589.2c-0.25,0-12.97,5.06-12.97,5.06l8.54,5.12l8.98-10.19H768.5z"/>
<polygon class="st3" points="784.13,594.77 788.81,595.08 800.45,601.22 790.08,605.4 "/>
<ellipse transform="matrix(0.1509 -0.9885 0.9885 0.1509 658.5465 1686.4246)" class="st7" cx="1311.01" cy="459.84" rx="14.93" ry="10.2"/>
<ellipse transform="matrix(0.9986 -0.0533 0.0533 0.9986 -22.7349 67.9492)" class="st8" cx="1261.46" cy="459.85" rx="9.11" ry="14.74"/>
<ellipse transform="matrix(0.0188 -0.9998 0.9998 0.0188 738.7424 1673.6198)" class="st9" cx="1222.1" cy="460.41" rx="14.74" ry="9.11"/>
<ellipse transform="matrix(0.071 -0.9975 0.9975 0.071 638.9543 1610.6691)" class="st10" cx="1184.17" cy="462.31" rx="13.54" ry="8.8"/>
<path class="st3" d="M1311.58,474.14c-0.45,2.09-1.15,5.06-1.15,5.06l-4.46-0.19c0,0,0-2.85,0-5.12"/>
<polyline class="st3" points="1265.31,473.51 1265.31,478.19 1260.53,478.19 1259.89,474.2 "/>
<polyline class="st3" points="1224.84,474.33 1224.84,480.03 1219.93,480.09 1218.97,474.33 "/>
<polyline class="st3" points="1186.4,475.15 1185.45,479.14 1180.73,478.89 1180.92,475.15 "/>
<path class="st3" d="M1318.79,480.78c-1.15,0-22.56-2.85-22.56-2.85l-1.34,48.15l17.78,1.14L1318.79,480.78z"/>
<path class="st3" d="M1318.79,480.78c0,0,12.49,14.87,14.21,23.66l-19.06,13.48"/>
<path class="st3" d="M1328.28,507.8c0,0-5.86-10.82-10.9-14.55"/>
<line class="st3" x1="1323.06" y1="500.27" x2="1314.9" y2="510.33"/>
<polyline class="st3" points="1314.13,520.01 1323.12,519.44 1321.34,525.26 1313.81,522.67 "/>
<polyline class="st3" points="1296.22,477.94 1282.77,494.2 1274.43,480.78 1264.42,481.35 1264.04,485.66 1273.02,485.34 
	1281.82,503.12 1296.03,489.14 "/>
<line class="st3" x1="1282.77" y1="494.2" x2="1281.82" y2="503.12"/>
<path class="st3" d="M1274.62,481.29c0.13-2.09,0.19-3.29,0.19-3.29s-16.89-0.25-24.03,2.85l4.53,41.63l17.02-1.27
	c0,0,1.15-20.81,1.85-33.53"/>
<path class="st3" d="M1274.81,477.62c0,0,0.32,2.09,0.76,5.12"/>
<path class="st3" d="M1277.17,493.75c0.96,6.2,1.72,11.51,1.72,11.51l-2.42,17.08l-3-1.01l-0.13-18.79"/>
<polyline class="st3" points="1250.78,480.78 1244.53,506.15 1245.68,523.81 1249.95,522.67 1250.78,507.29 1253.01,501.09 "/>
<line class="st3" x1="1250.78" y1="507.29" x2="1244.66" y2="505.71"/>
<polyline class="st3" points="1276.66,521.97 1277.36,530.51 1274.62,535.83 1272.26,535.83 "/>
<polygon class="st3" points="1249.89,522.92 1251.48,530.07 1248.17,538.42 1243.89,534.94 1245.62,524.06 "/>
<path class="st3" d="M1233.82,495.27c-0.25-7.78-0.45-14.3-0.38-15.25c0,0-12.62-0.25-21.48,1.58c0,0,0.19,6.77,0.51,14.93"/>
<path class="st3" d="M1233.44,480.09c0,0,3.44,7.4,6.18,13.35"/>
<path class="st3" d="M1240.52,495.34c1.47,3.23,2.61,5.63,2.61,5.63s-7.65,8.35-25.69,1.64"/>
<path class="st3" d="M1212.34,481.48c0,0-6.63,12.97-7.33,23.85l27.15-5.95l6.12,0.95l3.12-7.02l-9.24,1.9l-22.31,1.14"/>
<polyline class="st3" points="1212.34,492.62 1216.68,491.22 1221.08,495.72 "/>
<path class="st3" d="M1212.73,504.19c0.32,10.69,0.7,21.13,0.7,21.13l21.48-0.7c0,0-0.38-9.74-0.7-20.18"/>
<path class="st3" d="M1191.69,480.15l-17.21-1.96c0,0-5.1,31.13-2.1,47.13l19.31,0.76C1191.69,526.08,1187.3,493.06,1191.69,480.15z
	"/>
<path class="st3" d="M1191.69,480.78c0,0,13.83,16.58,4.53,48.15l-3.38-1.71c0,0,3.31-23.35-3.06-29.74"/>
<line class="st3" x1="1199.15" y1="502.17" x2="1192.97" y2="505.27"/>
<path class="st3" d="M1174.42,478.19c0,0-11.92,10.06-16.13,17.53l13.07,19.04"/>
<line class="st3" x1="1172.83" y1="490.15" x2="1161.86" y2="500.9"/>
<line class="st3" x1="1167.66" y1="495.72" x2="1171.74" y2="502.55"/>
<polygon class="st3" points="1196.67,528.93 1196.16,537.73 1192.33,543.48 1190.04,543.48 1191.44,528.93 1192.84,526.91 "/>
<path class="st3" d="M1171.36,519.38c0,0-4.84,1.83-5.04,1.71c-0.13-0.13-8.03-4.49-8.03-4.49l4.14-4.37l8.92,2.72"/>
<polyline class="st3" points="1312.73,527.22 1308.72,589.48 1305.98,589.48 1304,527.22 1297.94,589.48 1294.88,589.48 
	1294.88,526.08 "/>
<polyline class="st3" points="1272.39,521.09 1272.39,586.06 1267.29,586.06 1263.4,527.22 "/>
<polyline class="st3" points="1255.3,522.35 1251.35,587.71 1255.3,588.53 1264.1,521.97 "/>
<path class="st3" d="M1172.38,525.32c0,0-4.72,34.1-5.99,67.44h3.31l11.86-66.68"/>
<path class="st3" d="M1233.82,524.63c0,0-0.89,31.7-1.78,63.01h-3.76l-4.46-62.32"/>
<polyline class="st3" points="1213.43,525.32 1213.43,587.64 1217.44,587.64 1222.92,525.32 "/>
<polyline class="st3" points="1191.69,526.08 1186.02,586.63 1181.56,586.63 1181.05,528.93 "/>
<polygon class="st3" points="1309.1,590.05 1323.31,598.15 1309.1,604.09 1305.21,590.55 "/>
<polygon class="st3" points="1298.39,590.05 1296.48,605.29 1285.13,598.34 1294.06,590.05 "/>
<polygon class="st3" points="1272.39,586.63 1281.75,595.17 1270.98,598.97 1266.78,586.63 "/>
<polygon class="st3" points="1256.45,588.91 1250.4,587.64 1241.47,597.07 1252.95,601.94 "/>
<polygon class="st3" points="1231.78,588.15 1240.9,594.79 1230.89,600.3 1227.32,588.53 "/>
<polygon class="st3" points="1217.44,588.15 1212.79,588.15 1199.47,594.79 1207.88,601.12 "/>
<path class="st3" d="M1185.64,587.2c0.25,0,13.07,5.06,13.07,5.06l-8.6,5.12l-9.05-10.19H1185.64z"/>
<polygon class="st3" points="1169.9,592.77 1165.18,593.08 1153.45,599.22 1163.9,603.4 "/>
<ellipse transform="matrix(0.9958 -0.0913 0.0913 0.9958 -38.2223 97.0569)" class="st10" cx="1041.75" cy="466.31" rx="9.64" ry="13.55"/>
<polyline class="st3" points="1039.3,479.15 1040.35,483.14 1045.52,482.89 1045.31,479.15 "/>
<path class="st3" d="M1033.5,484.15l18.88-1.96c0,0,5.59,31.13,2.31,47.13l-21.19,0.76C1033.5,530.08,1038.32,497.06,1033.5,484.15z
	"/>
<path class="st3" d="M1033.5,484.78c0,0-15.17,16.58-4.96,48.15l3.71-1.71c0,0-3.64-23.35,3.36-29.74"/>
<line class="st3" x1="1025.31" y1="506.17" x2="1032.1" y2="509.27"/>
<path class="st3" d="M1052.45,482.19c0,0,13.08,10.06,17.69,17.53l-14.33,19.04"/>
<line class="st3" x1="1054.19" y1="494.15" x2="1066.22" y2="504.9"/>
<line class="st3" x1="1059.86" y1="499.72" x2="1055.38" y2="506.55"/>
<polygon class="st3" points="1028.04,532.93 1028.6,541.73 1032.8,547.48 1035.31,547.48 1033.78,532.93 1032.24,530.91 "/>
<path class="st3" d="M1055.8,523.38c0,0,5.31,1.83,5.52,1.71c0.14-0.13,8.81-4.49,8.81-4.49l-4.55-4.37l-9.79,2.72"/>
<path class="st3" d="M1054.68,529.32c0,0,5.17,34.1,6.57,67.44h-3.64l-13.01-66.68"/>
<polyline class="st3" points="1033.5,530.08 1039.72,590.63 1044.61,590.63 1045.17,532.93 "/>
<path class="st3" d="M1040.14,591.2c-0.28,0-14.33,5.06-14.33,5.06l9.44,5.12l9.93-10.19H1040.14z"/>
<polygon class="st3" points="1057.41,596.77 1062.58,597.08 1075.45,603.22 1063.98,607.4 "/>
<ellipse transform="matrix(0.0697 -0.9976 0.9976 0.0697 -13.2571 909.1702)" class="st10" cx="480.84" cy="461.69" rx="13.69" ry="8.83"/>
<ellipse transform="matrix(0.0525 -0.9986 0.9986 0.0525 30.4632 955.4205)" class="st8" cx="518.71" cy="461.66" rx="14.91" ry="9.15"/>
<ellipse transform="matrix(0.9998 -0.0185 0.0185 0.9998 -8.4706 10.4266)" class="st9" cx="558.25" cy="462.18" rx="9.15" ry="14.91"/>
<ellipse transform="matrix(0.9976 -0.0697 0.0697 0.9976 -30.9077 42.7079)" class="st10" cx="596.33" cy="464.1" rx="8.83" ry="13.69"/>
<polyline class="st3" points="477.58,474.72 477.38,478.5 482.12,478.75 483.08,474.72 "/>
<path class="st3" d="M488.39,526.23L469,525.46c-3.01-16.19,2.11-47.67,2.11-47.67l17.27,1.98
	C483.97,492.83,488.39,526.23,488.39,526.23z"/>
<path class="st3" d="M486.47,497.31c6.4,6.46,3.07,30.07,3.07,30.07l3.39,1.73c9.34-31.93-4.54-48.69-4.54-48.69"/>
<line class="st3" x1="489.67" y1="505.18" x2="495.87" y2="502.04"/>
<path class="st3" d="M467.98,514.77l-13.12-19.26c4.22-7.55,16.19-17.72,16.19-17.72"/>
<line class="st3" x1="458.45" y1="500.76" x2="469.45" y2="489.88"/>
<line class="st3" x1="468.36" y1="502.42" x2="464.27" y2="495.51"/>
<polygon class="st3" points="489.54,527.06 488.13,529.1 486.72,543.82 489.03,543.82 492.87,538 493.38,529.1 "/>
<path class="st3" d="M467.98,514.96l-8.96-2.75l-4.16,4.41c0,0,7.93,4.41,8.06,4.54c0.19,0.13,5.05-1.73,5.05-1.73"/>
<path class="st3" d="M478.22,526.23l-11.9,67.44h-3.33c1.28-33.72,6.01-68.2,6.01-68.2"/>
<polyline class="st3" points="477.7,529.1 478.22,587.45 482.69,587.45 488.39,526.23 "/>
<path class="st3" d="M477.7,588.03l9.09,10.3l8.64-5.18c0,0-12.86-5.12-13.12-5.12H477.7z"/>
<polygon class="st3" points="460.49,604.41 450,600.19 461.77,593.98 466.51,593.66 "/>
<polyline class="st3" points="514.88,475.42 514.88,480.16 519.67,480.16 520.31,476.13 "/>
<polyline class="st3" points="555.5,476.26 555.5,482.01 560.43,482.08 561.39,476.26 "/>
<polyline class="st3" points="594.08,477.09 595.04,481.12 599.78,480.86 599.59,477.09 "/>
<path class="st3" d="M505.54,483.29c-0.13-2.11-0.19-3.33-0.19-3.33s16.95-0.26,24.12,2.88l-4.54,42.1l-17.08-1.28
	C507.84,523.67,506.24,496.15,505.54,483.29"/>
<path class="st3" d="M505.34,479.58c0,0-0.32,2.11-0.77,5.18"/>
<path class="st3" d="M504.58,484.77c-0.96,6.27-3.33,22.78-3.33,22.78l2.43,17.27l3.01-1.02l0.13-19"/>
<polyline class="st3" points="529.46,482.78 535.73,508.44 534.58,526.29 530.3,525.14 529.46,509.59 527.22,503.32 "/>
<line class="st3" x1="529.46" y1="509.59" x2="535.61" y2="507.99"/>
<polyline class="st3" points="503.49,524.43 502.78,533.07 505.54,538.45 507.9,538.45 "/>
<polygon class="st3" points="530.36,525.39 528.76,532.62 532.09,541.07 536.37,537.55 534.65,526.55 "/>
<path class="st3" d="M546.48,497.43c0.26-7.87,0.45-14.46,0.38-15.42c0,0,12.67-0.26,21.56,1.6c0,0-0.19,6.85-0.51,15.1"/>
<path class="st3" d="M546.87,482.08c0,0-3.45,7.49-6.21,13.5"/>
<path class="st3" d="M539.76,497.5c-1.47,3.26-2.62,5.69-2.62,5.69s7.68,8.45,25.78,1.66"/>
<path class="st3" d="M568.04,483.49c0,0,6.65,13.12,7.36,24.12l-27.26-6.01l-6.14,0.96l-3.14-7.1l9.28,1.92l22.39,1.15"/>
<polyline class="st3" points="568.04,494.75 563.69,493.34 559.28,497.88 "/>
<path class="st3" d="M567.66,506.46c-0.32,10.81-0.7,21.37-0.7,21.37l-21.56-0.7c0,0,0.38-9.85,0.7-20.41"/>
<path class="st3" d="M588.77,482.14l17.27-1.98c0,0,5.12,31.48,2.11,47.67l-19.39,0.77C588.77,528.59,593.19,495.19,588.77,482.14z"
	/>
<path class="st3" d="M588.77,482.78c0,0-13.88,16.76-4.54,48.69l3.39-1.73c0,0-3.33-23.61,3.07-30.07"/>
<line class="st3" x1="581.29" y1="504.41" x2="587.49" y2="507.54"/>
<path class="st3" d="M606.11,480.16c0,0,11.96,10.17,16.19,17.72l-13.12,19.26"/>
<line class="st3" x1="607.71" y1="492.25" x2="618.72" y2="503.13"/>
<line class="st3" x1="612.89" y1="497.88" x2="608.8" y2="504.79"/>
<polygon class="st3" points="583.78,531.47 584.3,540.37 588.13,546.19 590.44,546.19 589.03,531.47 587.62,529.42 "/>
<path class="st3" d="M609.18,521.81c0,0,4.86,1.86,5.05,1.73c0.13-0.13,8.06-4.54,8.06-4.54l-4.16-4.41l-8.96,2.75"/>
<polyline class="st3" points="507.77,523.54 507.77,589.25 512.89,589.25 516.8,529.74 "/>
<polyline class="st3" points="524.92,524.82 528.89,590.91 524.92,591.74 516.09,524.43 "/>
<path class="st3" d="M608.16,527.83c0,0,4.73,34.49,6.01,68.2h-3.33l-11.9-67.44"/>
<path class="st3" d="M546.48,527.12c0,0,0.9,32.05,1.79,63.72h3.77l4.48-63.02"/>
<polyline class="st3" points="566.96,527.83 566.96,590.85 562.93,590.85 557.42,527.83 "/>
<polyline class="st3" points="588.77,528.59 594.47,589.82 598.95,589.82 599.46,531.47 "/>
<polygon class="st3" points="507.77,589.82 498.37,598.46 509.18,602.3 513.4,589.82 "/>
<polygon class="st3" points="523.77,592.13 529.85,590.85 538.81,600.38 527.29,605.31 "/>
<polygon class="st3" points="548.53,591.36 539.38,598.08 549.43,603.64 553.01,591.74 "/>
<polygon class="st3" points="562.93,591.36 567.6,591.36 580.97,598.08 572.52,604.47 "/>
<path class="st3" d="M594.85,590.4c-0.26,0-13.12,5.12-13.12,5.12l8.64,5.18l9.09-10.3H594.85z"/>
<polygon class="st3" points="610.66,596.03 615.39,596.35 627.16,602.55 616.67,606.78 "/>
<ellipse transform="matrix(0.0697 -0.9976 0.9976 0.0697 313.8838 1264.7399)" class="st10" cx="835.05" cy="464.08" rx="13.75" ry="8.87"/>
<ellipse transform="matrix(0.0525 -0.9986 0.9986 0.0525 363.8625 1311.566)" class="st8" cx="873.08" cy="464.04" rx="14.97" ry="9.19"/>
<ellipse transform="matrix(0.9998 -0.0185 0.0185 0.9998 -8.4539 16.9986)" class="st9" cx="912.8" cy="464.56" rx="9.19" ry="14.97"/>
<ellipse transform="matrix(0.9976 -0.0697 0.0697 0.9976 -30.2114 67.4453)" class="st10" cx="951.04" cy="466.49" rx="8.87" ry="13.75"/>
<polyline class="st3" points="831.78,477.16 831.58,480.95 836.34,481.21 837.3,477.16 "/>
<path class="st3" d="M842.64,528.88l-19.47-0.77c-3.02-16.26,2.12-47.87,2.12-47.87l17.35,1.99
	C838.2,495.34,842.64,528.88,842.64,528.88z"/>
<path class="st3" d="M840.71,499.84c6.43,6.49,3.08,30.2,3.08,30.2l3.41,1.73c9.38-32.06-4.56-48.9-4.56-48.9"/>
<line class="st3" x1="843.92" y1="507.74" x2="850.15" y2="504.6"/>
<path class="st3" d="M822.14,517.38l-13.17-19.34c4.24-7.58,16.26-17.8,16.26-17.8"/>
<line class="st3" x1="812.57" y1="503.31" x2="823.62" y2="492.39"/>
<line class="st3" x1="822.52" y1="504.98" x2="818.41" y2="498.04"/>
<polygon class="st3" points="843.79,529.72 842.38,531.77 840.97,546.55 843.28,546.55 847.13,540.71 847.65,531.77 "/>
<path class="st3" d="M822.14,517.57l-9-2.76l-4.18,4.43c0,0,7.97,4.43,8.1,4.56c0.19,0.13,5.08-1.73,5.08-1.73"/>
<path class="st3" d="M832.42,528.88l-11.95,67.72h-3.34c1.29-33.86,6.04-68.49,6.04-68.49"/>
<polyline class="st3" points="831.91,531.77 832.42,590.37 836.92,590.37 842.64,528.88 "/>
<path class="st3" d="M831.91,590.95l9.12,10.34l8.67-5.2c0,0-12.91-5.14-13.17-5.14H831.91z"/>
<polygon class="st3" points="814.62,607.4 804.08,603.16 815.91,596.93 820.66,596.61 "/>
<polyline class="st3" points="869.24,477.87 869.24,482.62 874.06,482.62 874.7,478.57 "/>
<polyline class="st3" points="910.04,478.7 910.04,484.48 914.98,484.55 915.95,478.7 "/>
<polyline class="st3" points="948.78,479.54 949.75,483.58 954.5,483.33 954.31,479.54 "/>
<path class="st3" d="M859.86,485.77c-0.13-2.12-0.19-3.34-0.19-3.34s17.03-0.26,24.22,2.89l-4.56,42.28l-17.16-1.29
	C862.17,526.31,860.56,498.68,859.86,485.77"/>
<path class="st3" d="M859.66,482.04c0,0-0.32,2.12-0.77,5.2"/>
<path class="st3" d="M858.89,487.25c-0.96,6.3-3.34,22.87-3.34,22.87l2.44,17.35l3.02-1.03l0.13-19.08"/>
<polyline class="st3" points="883.89,485.26 890.18,511.02 889.03,528.95 884.72,527.79 883.89,512.18 881.64,505.88 "/>
<line class="st3" x1="883.89" y1="512.18" x2="890.05" y2="510.57"/>
<polyline class="st3" points="857.8,527.08 857.09,535.76 859.86,541.16 862.23,541.16 "/>
<polygon class="st3" points="884.79,528.05 883.18,535.31 886.52,543.79 890.83,540.26 889.09,529.2 "/>
<path class="st3" d="M900.98,499.97c0.26-7.9,0.45-14.52,0.39-15.48c0,0,12.72-0.26,21.65,1.61c0,0-0.19,6.88-0.51,15.16"/>
<path class="st3" d="M901.36,484.55c0,0-3.47,7.52-6.23,13.56"/>
<path class="st3" d="M894.23,500.03c-1.48,3.28-2.63,5.72-2.63,5.72s7.71,8.48,25.89,1.67"/>
<path class="st3" d="M922.63,485.96c0,0,6.68,13.17,7.39,24.22l-27.37-6.04l-6.17,0.96l-3.15-7.13l9.32,1.93l22.49,1.16"/>
<polyline class="st3" points="922.63,497.27 918.26,495.86 913.83,500.42 "/>
<path class="st3" d="M922.24,509.03c-0.32,10.86-0.71,21.46-0.71,21.46l-21.65-0.71c0,0,0.39-9.89,0.71-20.5"/>
<path class="st3" d="M943.45,484.61l17.35-1.99c0,0,5.14,31.61,2.12,47.87l-19.47,0.77C943.45,531.26,947.88,497.72,943.45,484.61z"
	/>
<path class="st3" d="M943.45,485.26c0,0-13.94,16.83-4.56,48.9l3.41-1.73c0,0-3.34-23.71,3.08-30.2"/>
<line class="st3" x1="935.93" y1="506.97" x2="942.16" y2="510.12"/>
<path class="st3" d="M960.86,482.62c0,0,12.02,10.22,16.26,17.8l-13.17,19.34"/>
<line class="st3" x1="962.47" y1="494.76" x2="973.52" y2="505.69"/>
<line class="st3" x1="967.67" y1="500.42" x2="963.56" y2="507.36"/>
<polygon class="st3" points="938.44,534.15 938.95,543.08 942.81,548.93 945.12,548.93 943.71,534.15 942.29,532.1 "/>
<path class="st3" d="M963.94,524.45c0,0,4.88,1.86,5.08,1.73c0.13-0.13,8.1-4.56,8.1-4.56l-4.18-4.43l-9,2.76"/>
<polyline class="st3" points="862.1,526.18 862.1,592.17 867.24,592.17 871.16,532.42 "/>
<polyline class="st3" points="879.32,527.47 883.31,593.84 879.32,594.68 870.46,527.08 "/>
<path class="st3" d="M962.92,530.49c0,0,4.75,34.63,6.04,68.49h-3.34l-11.95-67.72"/>
<path class="st3" d="M900.98,529.78c0,0,0.9,32.19,1.8,64h3.79l4.5-63.29"/>
<polyline class="st3" points="921.54,530.49 921.54,593.78 917.49,593.78 911.96,530.49 "/>
<polyline class="st3" points="943.45,531.26 949.17,592.75 953.66,592.75 954.18,534.15 "/>
<polygon class="st3" points="862.1,592.75 852.66,601.42 863.52,605.28 867.76,592.75 "/>
<polygon class="st3" points="878.17,595.06 884.27,593.78 893.27,603.35 881.7,608.3 "/>
<polygon class="st3" points="903.03,594.29 893.85,601.04 903.93,606.63 907.53,594.68 "/>
<polygon class="st3" points="917.49,594.29 922.18,594.29 935.61,601.04 927.13,607.46 "/>
<path class="st3" d="M949.55,593.33c-0.26,0-13.17,5.14-13.17,5.14l8.67,5.2l9.12-10.34H949.55z"/>
<polygon class="st3" points="965.42,598.98 970.18,599.3 982,605.54 971.46,609.78 "/>
<ellipse transform="matrix(0.0697 -0.9976 0.9976 0.0697 -379.5875 514.2388)" class="st10" cx="85.92" cy="460.64" rx="13.74" ry="8.86"/>
<ellipse transform="matrix(0.0525 -0.9986 0.9986 0.0525 -342.5132 560.2164)" class="st8" cx="123.96" cy="460.6" rx="14.96" ry="9.18"/>
<ellipse transform="matrix(0.9998 -0.0185 0.0185 0.9998 -8.5193 3.1122)" class="st9" cx="163.63" cy="461.13" rx="9.18" ry="14.96"/>
<ellipse transform="matrix(0.9976 -0.0697 0.0697 0.9976 -31.7942 15.1996)" class="st10" cx="201.84" cy="463.06" rx="8.86" ry="13.74"/>
<polyline class="st3" points="82.67,473.72 82.48,477.51 87.23,477.76 88.19,473.72 "/>
<path class="st3" d="M93.52,525.4l-19.45-0.77c-3.02-16.24,2.12-47.83,2.12-47.83l17.34,1.99C89.09,491.89,93.52,525.4,93.52,525.4z
	"/>
<path class="st3" d="M91.6,496.38c6.42,6.48,3.08,30.18,3.08,30.18l3.4,1.73c9.37-32.04-4.56-48.86-4.56-48.86"/>
<line class="st3" x1="94.81" y1="504.28" x2="101.04" y2="501.13"/>
<path class="st3" d="M73.04,513.91l-13.16-19.33c4.24-7.58,16.24-17.78,16.24-17.78"/>
<line class="st3" x1="63.48" y1="499.85" x2="74.52" y2="488.93"/>
<line class="st3" x1="73.43" y1="501.52" x2="69.32" y2="494.58"/>
<polygon class="st3" points="94.68,526.24 93.27,528.29 91.85,543.06 94.17,543.06 98.02,537.22 98.53,528.29 "/>
<path class="st3" d="M73.04,514.1l-8.99-2.76l-4.17,4.43c0,0,7.96,4.43,8.09,4.56c0.19,0.13,5.07-1.73,5.07-1.73"/>
<path class="st3" d="M83.31,525.4l-11.94,67.67h-3.34c1.28-33.84,6.04-68.44,6.04-68.44"/>
<polyline class="st3" points="82.8,528.29 83.31,586.85 87.81,586.85 93.52,525.4 "/>
<path class="st3" d="M82.8,587.43l9.12,10.34l8.67-5.2c0,0-12.91-5.14-13.16-5.14H82.8z"/>
<polygon class="st3" points="65.53,603.86 55,599.62 66.81,593.4 71.56,593.08 "/>
<polyline class="st3" points="120.1,474.42 120.1,479.18 124.92,479.18 125.56,475.13 "/>
<polyline class="st3" points="160.87,475.26 160.87,481.04 165.82,481.1 166.78,475.26 "/>
<polyline class="st3" points="199.59,476.09 200.55,480.14 205.3,479.88 205.11,476.09 "/>
<path class="st3" d="M110.73,482.32c-0.13-2.12-0.19-3.34-0.19-3.34s17.01-0.26,24.21,2.89l-4.56,42.25l-17.14-1.28
	C113.04,522.84,111.44,495.23,110.73,482.32"/>
<path class="st3" d="M110.54,478.6c0,0-0.32,2.12-0.77,5.2"/>
<path class="st3" d="M109.77,483.8c-0.96,6.29-3.34,22.86-3.34,22.86l2.44,17.34l3.02-1.03l0.13-19.07"/>
<polyline class="st3" points="134.74,481.81 141.03,507.55 139.88,525.47 135.58,524.31 134.74,508.71 132.5,502.42 "/>
<line class="st3" x1="134.74" y1="508.71" x2="140.91" y2="507.1"/>
<polyline class="st3" points="108.68,523.61 107.97,532.27 110.73,537.67 113.11,537.67 "/>
<polygon class="st3" points="135.64,524.57 134.04,531.82 137.38,540.3 141.68,536.77 139.94,525.72 "/>
<path class="st3" d="M151.82,496.51c0.26-7.9,0.45-14.51,0.39-15.47c0,0,12.71-0.26,21.64,1.61c0,0-0.19,6.87-0.51,15.15"/>
<path class="st3" d="M152.21,481.1c0,0-3.47,7.51-6.23,13.55"/>
<path class="st3" d="M145.08,496.58c-1.48,3.27-2.63,5.71-2.63,5.71s7.7,8.48,25.87,1.67"/>
<path class="st3" d="M173.46,482.51c0,0,6.68,13.16,7.38,24.21l-27.35-6.04l-6.16,0.96l-3.15-7.13l9.31,1.93l22.47,1.16"/>
<polyline class="st3" points="173.46,493.81 169.09,492.4 164.66,496.96 "/>
<path class="st3" d="M173.07,505.56c-0.32,10.85-0.71,21.44-0.71,21.44l-21.64-0.71c0,0,0.39-9.89,0.71-20.48"/>
<path class="st3" d="M194.26,481.17l17.34-1.99c0,0,5.14,31.59,2.12,47.83l-19.45,0.77C194.26,527.78,198.69,494.26,194.26,481.17z"
	/>
<path class="st3" d="M194.26,481.81c0,0-13.93,16.82-4.56,48.86l3.4-1.73c0,0-3.34-23.69,3.08-30.18"/>
<line class="st3" x1="186.75" y1="503.51" x2="192.98" y2="506.66"/>
<path class="st3" d="M211.66,479.18c0,0,12.01,10.21,16.24,17.78l-13.16,19.33"/>
<line class="st3" x1="213.27" y1="491.31" x2="224.31" y2="502.23"/>
<line class="st3" x1="218.47" y1="496.96" x2="214.36" y2="503.89"/>
<polygon class="st3" points="189.25,530.67 189.77,539.59 193.62,545.44 195.93,545.44 194.52,530.67 193.11,528.61 "/>
<path class="st3" d="M214.74,520.97c0,0,4.88,1.86,5.07,1.73c0.13-0.13,8.09-4.56,8.09-4.56l-4.17-4.43l-8.99,2.76"/>
<polyline class="st3" points="112.98,522.71 112.98,588.65 118.11,588.65 122.03,528.93 "/>
<polyline class="st3" points="130.18,523.99 134.16,590.31 130.18,591.15 121.32,523.61 "/>
<path class="st3" d="M213.72,527.01c0,0,4.75,34.61,6.04,68.44h-3.34l-11.94-67.67"/>
<path class="st3" d="M151.82,526.3c0,0,0.9,32.17,1.8,63.95h3.79l4.49-63.24"/>
<polyline class="st3" points="172.37,527.01 172.37,590.25 168.32,590.25 162.8,527.01 "/>
<polyline class="st3" points="194.26,527.78 199.98,589.22 204.47,589.22 204.98,530.67 "/>
<polygon class="st3" points="112.98,589.22 103.54,597.89 114.39,601.74 118.63,589.22 "/>
<polygon class="st3" points="129.03,591.53 135.13,590.25 144.12,599.82 132.56,604.76 "/>
<ellipse transform="matrix(0.0525 -0.9986 0.9986 0.0525 576.3246 1538.6104)" class="st8" cx="1098.96" cy="465.6" rx="14.96" ry="9.18"/>
<polyline class="st3" points="1095.1,479.42 1095.1,484.18 1099.92,484.18 1100.56,480.13 "/>
<path class="st3" d="M1085.73,487.32c-0.13-2.12-0.19-3.34-0.19-3.34s17.01-0.26,24.21,2.89l-4.56,42.25l-17.14-1.28
	C1088.04,527.84,1086.44,500.23,1085.73,487.32"/>
<path class="st3" d="M1085.54,483.6c0,0-0.32,2.12-0.77,5.2"/>
<path class="st3" d="M1084.77,488.8c-0.96,6.29-3.34,22.86-3.34,22.86l2.44,17.34l3.02-1.03l0.13-19.07"/>
<polyline class="st3" points="1109.74,486.81 1116.03,512.55 1114.88,530.47 1110.58,529.31 1109.74,513.71 1107.5,507.42 "/>
<line class="st3" x1="1109.74" y1="513.71" x2="1115.91" y2="512.1"/>
<polyline class="st3" points="1083.68,528.61 1082.97,537.27 1085.73,542.67 1088.11,542.67 "/>
<polygon class="st3" points="1110.64,529.57 1109.04,536.82 1112.38,545.3 1116.68,541.77 1114.94,530.72 "/>
<polyline class="st3" points="1087.98,527.71 1087.98,593.65 1093.11,593.65 1097.03,533.93 "/>
<polyline class="st3" points="1105.18,528.99 1109.16,595.31 1105.18,596.15 1096.32,528.61 "/>
<polygon class="st3" points="1087.98,594.22 1078.54,602.89 1089.39,606.74 1093.63,594.22 "/>
<polygon class="st3" points="1104.03,596.53 1110.13,595.25 1119.12,604.82 1107.56,609.76 "/>
<ellipse transform="matrix(0.9986 -0.0534 0.0534 0.9986 -23.1136 61.5152)" class="st8" cx="1140.43" cy="463.6" rx="9.25" ry="14.96"/>
<polyline class="st3" points="1144.31,477.42 1144.31,482.18 1139.46,482.18 1138.81,478.13 "/>
<path class="st3" d="M1153.75,485.32c0.13-2.12,0.19-3.34,0.19-3.34s-17.14-0.26-24.39,2.89l4.59,42.25l17.27-1.28
	C1151.43,525.84,1153.04,498.23,1153.75,485.32"/>
<path class="st3" d="M1153.95,481.6c0,0,0.32,2.12,0.78,5.2"/>
<path class="st3" d="M1154.73,486.8c0.97,6.29,3.36,22.86,3.36,22.86l-2.46,17.34l-3.04-1.03l-0.13-19.07"/>
<polyline class="st3" points="1129.56,484.81 1123.22,510.55 1124.39,528.47 1128.72,527.31 1129.56,511.71 1131.83,505.42 "/>
<line class="st3" x1="1129.56" y1="511.71" x2="1123.35" y2="510.1"/>
<polyline class="st3" points="1155.82,526.61 1156.54,535.27 1153.75,540.67 1151.36,540.67 "/>
<polygon class="st3" points="1128.66,527.57 1130.27,534.82 1126.91,543.3 1122.57,539.77 1124.32,528.72 "/>
<polyline class="st3" points="1151.49,525.71 1151.49,591.65 1146.32,591.65 1142.37,531.93 "/>
<polyline class="st3" points="1134.15,526.99 1130.14,593.31 1134.15,594.15 1143.08,526.61 "/>
<polygon class="st3" points="1151.49,592.22 1161,600.89 1150.07,604.74 1145.8,592.22 "/>
<polygon class="st3" points="1135.32,594.53 1129.17,593.25 1120.12,602.82 1131.76,607.76 "/>
<polygon class="st3" points="153.88,590.76 144.69,597.51 154.77,603.09 158.37,591.15 "/>
<polygon class="st3" points="168.32,590.76 173.01,590.76 186.43,597.51 177.95,603.93 "/>
<path class="st3" d="M200.36,589.8c-0.26,0-13.16,5.14-13.16,5.14l8.67,5.2l9.12-10.34H200.36z"/>
<polygon class="st3" points="216.22,595.45 220.97,595.77 232.78,602 222.25,606.24 "/>
<ellipse transform="matrix(0.989 -0.148 0.148 0.989 -65.4365 41.9581)" class="st7" cx="249.23" cy="460.69" rx="10.27" ry="15.15"/>
<ellipse transform="matrix(0.0525 -0.9986 0.9986 0.0525 -176.5633 735.2631)" class="st8" cx="299.18" cy="460.67" rx="14.96" ry="9.18"/>
<ellipse transform="matrix(0.9998 -0.0185 0.0185 0.9998 -8.4911 6.3584)" class="st9" cx="338.78" cy="461.26" rx="9.18" ry="14.96"/>
<ellipse transform="matrix(0.9976 -0.0697 0.0697 0.9976 -31.3787 27.4187)" class="st10" cx="377.07" cy="463.19" rx="8.86" ry="13.74"/>
<path class="st3" d="M248.71,475.19c0.45,2.12,1.16,5.14,1.16,5.14l4.49-0.19c0,0,0-2.89,0-5.2"/>
<polyline class="st3" points="295.32,474.55 295.32,479.3 300.14,479.3 300.78,475.26 "/>
<polyline class="st3" points="336.09,475.39 336.09,481.17 341.03,481.23 342,475.39 "/>
<polyline class="st3" points="374.81,476.22 375.77,480.27 380.52,480.01 380.26,476.22 "/>
<path class="st3" d="M241.45,481.94c1.16,0,22.73-2.89,22.73-2.89l1.35,48.86l-17.91,1.16L241.45,481.94z"/>
<path class="st3" d="M241.45,481.94c0,0-12.58,15.09-14.32,24.01l19.2,13.68"/>
<path class="st3" d="M231.89,509.35c0,0,5.91-10.98,10.98-14.77"/>
<line class="st3" x1="237.15" y1="501.71" x2="245.37" y2="511.92"/>
<polyline class="st3" points="246.14,521.74 237.09,521.17 238.88,527.07 246.46,524.44 "/>
<polyline class="st3" points="264.18,479.05 277.66,495.55 286.14,481.94 296.22,482.51 296.6,486.88 287.55,486.56 278.69,504.6 
	264.37,490.41 "/>
<line class="st3" x1="277.66" y1="495.55" x2="278.69" y2="504.6"/>
<path class="st3" d="M285.95,482.45c-0.13-2.12-0.19-3.34-0.19-3.34s17.01-0.26,24.21,2.89l-4.56,42.25l-17.14-1.28
	c0,0-1.16-21.12-1.86-34.03"/>
<path class="st3" d="M285.75,478.73c0,0-0.32,2.12-0.77,5.2"/>
<path class="st3" d="M283.38,495.1c-0.96,6.29-1.73,11.69-1.73,11.69l2.44,17.34l3.02-1.03l0.13-19.07"/>
<polyline class="st3" points="309.96,481.94 316.19,507.68 315.1,525.6 310.79,524.44 309.96,508.84 307.71,502.55 "/>
<line class="st3" x1="309.96" y1="508.84" x2="316.12" y2="507.23"/>
<polyline class="st3" points="283.89,523.73 283.19,532.4 285.95,537.79 288.32,537.79 "/>
<polygon class="st3" points="310.86,524.7 309.25,531.95 312.59,540.43 316.83,536.9 315.16,525.85 "/>
<path class="st3" d="M327.04,496.64c0.26-7.9,0.45-14.51,0.39-15.47c0,0,12.71-0.26,21.64,1.61c0,0-0.19,6.87-0.51,15.15"/>
<path class="st3" d="M327.42,481.23c0,0-3.47,7.51-6.23,13.55"/>
<path class="st3" d="M320.3,496.7c-1.48,3.27-2.63,5.71-2.63,5.71s7.7,8.48,25.87,1.67"/>
<path class="st3" d="M348.67,482.64c0,0,6.68,13.16,7.38,24.21l-27.35-6.04l-6.16,0.96l-3.15-7.13l9.31,1.93l22.47,1.16"/>
<polyline class="st3" points="348.67,493.94 344.31,492.53 339.88,497.09 "/>
<path class="st3" d="M348.29,505.69c-0.32,10.85-0.71,21.44-0.71,21.44l-21.64-0.71c0,0,0.39-9.89,0.71-20.48"/>
<path class="st3" d="M369.48,481.29l17.34-1.99c0,0,5.14,31.59,2.12,47.83l-19.45,0.77C369.48,527.91,373.91,494.39,369.48,481.29z"
	/>
<path class="st3" d="M369.48,481.94c0,0-13.93,16.82-4.56,48.86l3.4-1.73c0,0-3.34-23.69,3.08-30.18"/>
<line class="st3" x1="361.96" y1="503.64" x2="368.19" y2="506.78"/>
<path class="st3" d="M386.81,479.3c0,0,12.01,10.21,16.24,17.78l-13.16,19.33"/>
<line class="st3" x1="388.48" y1="491.44" x2="399.52" y2="502.35"/>
<line class="st3" x1="393.68" y1="497.09" x2="389.57" y2="504.02"/>
<polygon class="st3" points="364.47,530.8 364.98,539.72 368.83,545.56 371.15,545.56 369.73,530.8 368.32,528.74 "/>
<path class="st3" d="M389.96,521.1c0,0,4.88,1.86,5.07,1.73c0.13-0.13,8.09-4.56,8.09-4.56l-4.17-4.43l-8.99,2.76"/>
<polyline class="st3" points="247.49,529.06 251.6,592.24 254.36,592.24 256.35,529.06 262.45,592.24 265.46,592.24 265.46,527.91 
	"/>
<polyline class="st3" points="288.19,522.84 288.19,588.77 293.33,588.77 297.25,529.06 "/>
<polyline class="st3" points="305.4,524.12 309.38,590.44 305.4,591.28 296.54,523.73 "/>
<path class="st3" d="M388.93,527.14c0,0,4.75,34.61,6.04,68.44h-3.34l-12.01-67.67"/>
<path class="st3" d="M327.04,526.43c0,0,0.9,32.17,1.8,63.95h3.79l4.49-63.24"/>
<polyline class="st3" points="347.58,527.14 347.58,590.38 343.54,590.38 338.02,527.14 "/>
<polyline class="st3" points="369.48,527.91 375.19,589.35 379.62,589.35 380.2,530.8 "/>
<polygon class="st3" points="251.21,592.82 236.89,601.04 251.21,607.07 255.13,593.33 "/>
<polygon class="st3" points="262,592.82 263.92,608.29 275.35,601.23 266.36,592.82 "/>
<polygon class="st3" points="288.19,589.35 278.76,598.02 289.61,601.87 293.84,589.35 "/>
<polygon class="st3" points="304.24,591.66 310.34,590.38 319.33,599.95 307.78,604.89 "/>
<polygon class="st3" points="329.03,590.89 319.91,597.63 329.99,603.22 333.52,591.28 "/>
<polygon class="st3" points="343.54,590.89 348.22,590.89 361.64,597.63 353.17,604.05 "/>
<path class="st3" d="M375.58,589.93c-0.26,0-13.16,5.14-13.16,5.14l8.67,5.2l9.12-10.34H375.58L375.58,589.93z"/>
<polygon class="st3" points="391.44,595.58 396.19,595.9 408,602.13 397.47,606.37 "/>
<g id="Layer_2_2_">
	<path class="st0" d="M999.1,454.71c0,0,5.41,19.87-10.06,27.33c0,0,11.41,1.2,13.86-11.22c2.45-12.42-3.89-16.96-3.89-16.96"/>
	<path class="st0" d="M1000.2,484.78l1.69,41.63c0,0-14.87,6-14.2,6c0.68-0.09,11.83-1.28,15.55-2.4c0,0-1.18,55.6,1.86,65.88
		c0.34,1.03,5.58,12.76,5.58,12.76l7.01-4.28l-10.73-8.48c0,0,2.28-39.06,2.28-44.12c0-4.97-1.18-23.39-1.18-23.39l-2.96-44.37
		L1000.2,484.78z"/>
	<path class="st0" d="M990.99,532.32l-0.68,63.56l-9.29,10.54c0,0,9.13,5.31,9.29,4.97c0.17-0.26,2.2-15.68,2.2-15.68l2.79-63.48
		h-4.31V532.32z"/>
	<polygon class="st0" points="1005.69,489.06 1015.75,498.49 1007.3,517.33 1007.21,511.08 1012.11,497.97 1005.95,493.95 	"/>
</g>
<g id="Layer_1_2_">
	
		<ellipse transform="matrix(0.2699 -0.9629 0.9629 0.2699 274.5277 1297.8615)" class="st10" cx="993.14" cy="467.89" rx="14.72" ry="10.24"/>
	<path class="st3" d="M990.14,453c0,0,5.24,4.2,13.18,4.97"/>
	<path class="st3" d="M987.69,454.88c0,0,7.52,5.65,16.22,6.08"/>
	<path class="st3" d="M985.58,457.45c0,0,11.83,7.02,18.34,6.17"/>
	<polyline class="st3" points="989.05,481.95 990.82,485.89 995.47,485.21 995.47,480.58 	"/>
	<path class="st3" d="M980.43,487.86l24.67-3.85l2.96,44.29c0,0-15.38,6.68-25.18,2.74L980.43,487.86z"/>
	<path class="st3" d="M980.43,487.86c0,0-7.69,10.11-11.75,15.85l13.1,19.87l-5.15,3.94l1.77,1.63l4.14-0.86"/>
	<line class="st3" x1="981.02" y1="498.49" x2="971.89" y2="508.51"/>
	<path class="st3" d="M977.05,502.86c-0.25,0.26,4.9,11.99,4.9,11.99"/>
	<path class="st3" d="M1005.1,484.01c0,0,11.32,7.71,15.63,14.39l-12.76,22.02l6.42,3.34l-1.94,2.57l-4.65-0.86"/>
	<path class="st3" d="M1005.69,493.26c0,0.09,8.62,5.4,12,10.37"/>
	<path class="st3" d="M1012.37,498.49c0,0.69-5.41,13.53-5.41,13.53"/>
	<path class="st3" d="M985.41,531.81c0,0,0.84,50.54,3.46,63.9h3.63l2.79-63.48"/>
	<path class="st3" d="M997.24,531.55l6.42,64.16h3.55c0,0,3.97-51.4,0.76-67.42"/>
	<polyline class="st3" points="992.09,595.89 989.47,608.74 980.68,604.02 989.89,595.89 	"/>
	<polyline class="st3" points="1006.87,595.8 1015.75,602.05 1008.14,606.85 1003.66,595.8 	"/>
</g>
<g id="Layer_3_1_">
	<path class="st11" d="M985.41,455.14c7.69-0.17,15.46,0.26,23.15,1.28c-7.52,1.54-14.87,3.68-22.05,6.25
		c7.27,0.51,14.53,1.11,21.88,1.63c-8.11,2.74-16.22,5.4-24.34,8.14c7.69-0.09,15.46,0.17,23.15,0.77
		c-7.6,2.48-15.21,4.97-22.81,7.45c-1.44,0.43-3.21,1.63-2.7,3.08c0.42,1.03,1.69,1.2,2.79,1.2c7.69,0.26,15.38,0.43,23.07,0.69
		c-4.39,1.54-8.7,3.17-13.1,4.71c-2.2,0.77-4.56,1.63-6.17,3.34c10.39,0,20.87,0.43,31.26,1.28c-10.39,1.03-20.62,3.68-30.33,7.62
		c8.96,1.46,18.08,1.8,27.12,1.11c-9.97,2.14-19.94,4.28-29.91,6.42c9.29,0.94,18.59,1.97,27.88,2.91
		c-10.98,3.77-21.63,8.65-31.77,14.56c9.29-1.11,18.76-1.46,28.14-1.03c-10.73,2.31-21.72,4.8-31.26,10.37
		c11.07-0.26,22.14-1.2,33.12-3c-9.89,3.34-19.77,7.02-29.41,11.05c9.8-0.51,19.52-1.03,29.32-1.54
		c-8.62,2.83-16.98,6.6-24.84,11.22c7.94,0.34,15.89,0.69,23.74-0.26c-8.53,3-16.73,6.6-24.67,10.88c8.79-0.34,17.58-0.6,26.36-0.94
		c-9.72,3-19.18,6.42-28.56,10.28c8.53-0.26,17.07-0.6,25.6-0.86c-9.46,1.8-18.76,5.05-27.29,9.59c9.13,0.43,18.34,0.77,27.46,1.2
		c-5.58,1.88-11.15,3.77-16.82,5.65c-3.04,1.03-6.17,2.06-8.37,4.37c12.34,0.09,24.67,0.09,36.93,0.17
		c-12.76,3.51-25.94,5.14-39.04,6.77c10.82,1.71,21.8,2.31,32.7,1.63c-7.69,2.23-15.63,3.51-23.66,3.94
		c-5.15,0.26-10.73,0.26-14.79,3.51c14.36,0.86,28.9-0.6,42.84-4.45"/>
</g>
<g id="Layer_2_3_">
	<path class="st0" d="M425.45,451.71c0,0-5.07,19.87,9.42,27.33c0,0-10.69,1.2-12.98-11.22c-2.3-12.42,3.64-16.96,3.64-16.96"/>
	<path class="st0" d="M424.42,481.78l-1.58,41.63c0,0,13.93,6,13.3,6c-0.63-0.09-11.08-1.28-14.56-2.4c0,0,1.11,55.6-1.74,65.88
		c-0.32,1.03-5.22,12.76-5.22,12.76l-6.57-4.28l10.05-8.48c0,0-2.14-39.06-2.14-44.12c0-4.97,1.11-23.39,1.11-23.39l2.77-44.37
		L424.42,481.78z"/>
	<path class="st0" d="M433.05,529.32l0.63,63.56l8.71,10.54c0,0-8.55,5.31-8.71,4.97c-0.16-0.26-2.06-15.68-2.06-15.68l-2.61-63.48
		h4.04V529.32z"/>
	<polygon class="st0" points="419.28,486.06 409.86,495.49 417.77,514.33 417.85,508.08 413.26,494.97 419.04,490.95 	"/>
</g>
<g id="Layer_1_3_">
	
		<ellipse transform="matrix(0.9734 -0.229 0.229 0.9734 -94.9981 111.0489)" class="st10" cx="431.04" cy="464.89" rx="9.63" ry="14.66"/>
	<path class="st3" d="M433.84,450c0,0-4.91,4.2-12.35,4.97"/>
	<path class="st3" d="M436.14,451.88c0,0-7.04,5.65-15.2,6.08"/>
	<path class="st3" d="M438.12,454.45c0,0-11.08,7.02-17.18,6.17"/>
	<polyline class="st3" points="434.87,478.95 433.21,482.89 428.85,482.21 428.85,477.58 	"/>
	<path class="st3" d="M442.94,484.86l-23.11-3.85l-2.77,44.29c0,0,14.41,6.68,23.59,2.74L442.94,484.86z"/>
	<path class="st3" d="M442.94,484.86c0,0,7.2,10.11,11,15.85l-12.27,19.87l4.83,3.94l-1.66,1.63l-3.88-0.86"/>
	<line class="st3" x1="442.39" y1="495.49" x2="450.94" y2="505.51"/>
	<path class="st3" d="M446.11,499.86c0.24,0.26-4.59,11.99-4.59,11.99"/>
	<path class="st3" d="M419.83,481.01c0,0-10.61,7.71-14.64,14.39l11.95,22.02l-6.02,3.34l1.82,2.57l4.35-0.86"/>
	<path class="st3" d="M419.28,490.26c0,0.09-8.07,5.4-11.24,10.37"/>
	<path class="st3" d="M413.02,495.49c0,0.69,5.07,13.53,5.07,13.53"/>
	<path class="st3" d="M438.27,528.81c0,0-0.79,50.54-3.25,63.9h-3.4l-2.61-63.48"/>
	<path class="st3" d="M427.19,528.55l-6.02,64.16h-3.32c0,0-3.72-51.4-0.71-67.42"/>
	<polyline class="st3" points="432.02,592.89 434.47,605.74 442.71,601.02 434.08,592.89 	"/>
	<polyline class="st3" points="418.17,592.8 409.86,599.05 416.98,603.85 421.18,592.8 	"/>
</g>
<g id="Layer_3_2_">
	<path class="st11" d="M438.27,452.14c-7.2-0.17-14.49,0.26-21.69,1.28c7.04,1.54,13.93,3.68,20.66,6.25
		c-6.81,0.51-13.61,1.11-20.5,1.63c7.6,2.74,15.2,5.4,22.8,8.14c-7.2-0.09-14.49,0.17-21.69,0.77c7.12,2.48,14.25,4.97,21.37,7.45
		c1.35,0.43,3.01,1.63,2.53,3.08c-0.4,1.03-1.58,1.2-2.61,1.2c-7.2,0.26-14.41,0.43-21.61,0.69c4.12,1.54,8.15,3.17,12.27,4.71
		c2.06,0.77,4.27,1.63,5.78,3.34c-9.74,0-19.55,0.43-29.29,1.28c9.74,1.03,19.31,3.68,28.42,7.62c-8.39,1.46-16.94,1.8-25.41,1.11
		c9.34,2.14,18.68,4.28,28.02,6.42c-8.71,0.94-17.41,1.97-26.12,2.91c10.29,3.77,20.26,8.65,29.76,14.56
		c-8.71-1.11-17.57-1.46-26.36-1.03c10.05,2.31,20.34,4.8,29.29,10.37c-10.37-0.26-20.74-1.2-31.03-3
		c9.26,3.34,18.52,7.02,27.55,11.05c-9.18-0.51-18.28-1.03-27.47-1.54c8.07,2.83,15.91,6.6,23.27,11.22
		c-7.44,0.34-14.88,0.69-22.24-0.26c7.99,3,15.67,6.6,23.11,10.88c-8.23-0.34-16.46-0.6-24.7-0.94c9.1,3,17.97,6.42,26.75,10.28
		c-7.99-0.26-15.99-0.6-23.98-0.86c8.87,1.8,17.57,5.05,25.57,9.59c-8.55,0.43-17.18,0.77-25.73,1.2
		c5.22,1.88,10.45,3.77,15.75,5.65c2.85,1.03,5.78,2.06,7.84,4.37c-11.56,0.09-23.11,0.09-34.59,0.17
		c11.95,3.51,24.3,5.14,36.57,6.77c-10.13,1.71-20.42,2.31-30.63,1.63c7.2,2.23,14.64,3.51,22.16,3.94
		c4.83,0.26,10.05,0.26,13.85,3.51c-13.46,0.86-27.07-0.6-40.13-4.45"/>
</g>
<g id="Layer_2_4_">
	<path class="st0" d="M34.45,451.71c0,0-5.07,19.87,9.42,27.33c0,0-10.69,1.2-12.98-11.22c-2.3-12.42,3.64-16.96,3.64-16.96"/>
	<path class="st0" d="M33.42,481.78l-1.58,41.63c0,0,13.93,6,13.3,6c-0.63-0.09-11.08-1.28-14.56-2.4c0,0,1.11,55.6-1.74,65.88
		c-0.32,1.03-5.22,12.76-5.22,12.76l-6.57-4.28l10.05-8.48c0,0-2.14-39.06-2.14-44.12c0-4.97,1.11-23.39,1.11-23.39l2.77-44.37
		L33.42,481.78z"/>
	<path class="st0" d="M42.05,529.32l0.63,63.56l8.71,10.54c0,0-8.55,5.31-8.71,4.97c-0.16-0.26-2.06-15.68-2.06-15.68l-2.61-63.48
		h4.04V529.32z"/>
	<polygon class="st0" points="28.28,486.06 18.86,495.49 26.77,514.33 26.85,508.08 22.26,494.97 28.04,490.95 	"/>
</g>
<g id="Layer_1_4_">
	
		<ellipse transform="matrix(0.9734 -0.229 0.229 0.9734 -105.3863 21.5189)" class="st10" cx="40.04" cy="464.89" rx="9.63" ry="14.66"/>
	<path class="st3" d="M42.84,450c0,0-4.91,4.2-12.35,4.97"/>
	<path class="st3" d="M45.14,451.88c0,0-7.04,5.65-15.2,6.08"/>
	<path class="st3" d="M47.12,454.45c0,0-11.08,7.02-17.18,6.17"/>
	<polyline class="st3" points="43.87,478.95 42.21,482.89 37.85,482.21 37.85,477.58 	"/>
	<path class="st3" d="M51.94,484.86l-23.11-3.85l-2.77,44.29c0,0,14.41,6.68,23.59,2.74L51.94,484.86z"/>
	<path class="st3" d="M51.94,484.86c0,0,7.2,10.11,11,15.85l-12.27,19.87l4.83,3.94l-1.66,1.63l-3.88-0.86"/>
	<line class="st3" x1="51.39" y1="495.49" x2="59.94" y2="505.51"/>
	<path class="st3" d="M55.11,499.86c0.24,0.26-4.59,11.99-4.59,11.99"/>
	<path class="st3" d="M28.83,481.01c0,0-10.61,7.71-14.64,14.39l11.95,22.02l-6.02,3.34l1.82,2.57l4.35-0.86"/>
	<path class="st3" d="M28.28,490.26c0,0.09-8.07,5.4-11.24,10.37"/>
	<path class="st3" d="M22.02,495.49c0,0.69,5.07,13.53,5.07,13.53"/>
	<path class="st3" d="M47.27,528.81c0,0-0.79,50.54-3.25,63.9h-3.4l-2.61-63.48"/>
	<path class="st3" d="M36.19,528.55l-6.02,64.16h-3.32c0,0-3.72-51.4-0.71-67.42"/>
	<polyline class="st3" points="41.02,592.89 43.47,605.74 51.71,601.02 43.08,592.89 	"/>
	<polyline class="st3" points="27.17,592.8 18.86,599.05 25.98,603.85 30.18,592.8 	"/>
</g>
<g id="Layer_3_3_">
	<path class="st11" d="M47.27,452.14c-7.2-0.17-14.49,0.26-21.69,1.28c7.04,1.54,13.93,3.68,20.66,6.25
		c-6.81,0.51-13.61,1.11-20.5,1.63c7.6,2.74,15.2,5.4,22.8,8.14c-7.2-0.09-14.49,0.17-21.69,0.77c7.12,2.48,14.25,4.97,21.37,7.45
		c1.35,0.43,3.01,1.63,2.53,3.08c-0.4,1.03-1.58,1.2-2.61,1.2c-7.2,0.26-14.41,0.43-21.61,0.69c4.12,1.54,8.15,3.17,12.27,4.71
		c2.06,0.77,4.27,1.63,5.78,3.34c-9.74,0-19.55,0.43-29.29,1.28c9.74,1.03,19.31,3.68,28.42,7.62c-8.39,1.46-16.94,1.8-25.41,1.11
		c9.34,2.14,18.68,4.28,28.02,6.42c-8.71,0.94-17.41,1.97-26.12,2.91c10.29,3.77,20.26,8.65,29.76,14.56
		c-8.71-1.11-17.57-1.46-26.36-1.03c10.05,2.31,20.34,4.8,29.29,10.37c-10.37-0.26-20.74-1.2-31.03-3
		c9.26,3.34,18.52,7.02,27.55,11.05c-9.18-0.51-18.28-1.03-27.47-1.54c8.07,2.83,15.91,6.6,23.27,11.22
		c-7.44,0.34-14.88,0.69-22.24-0.26c7.99,3,15.67,6.6,23.11,10.88c-8.23-0.34-16.46-0.6-24.7-0.94c9.1,3,17.97,6.42,26.75,10.28
		c-7.99-0.26-15.99-0.6-23.98-0.86c8.87,1.8,17.57,5.05,25.57,9.59c-8.55,0.43-17.18,0.77-25.73,1.2
		c5.22,1.88,10.45,3.77,15.75,5.65c2.85,1.03,5.78,2.06,7.84,4.37c-11.56,0.09-23.11,0.09-34.59,0.17
		c11.95,3.51,24.3,5.14,36.57,6.77c-10.13,1.71-20.42,2.31-30.63,1.63c7.2,2.23,14.64,3.51,22.16,3.94
		c4.83,0.26,10.05,0.26,13.85,3.51c-13.46,0.86-27.07-0.6-40.13-4.45"/>
</g>
</svg>
