<?xml version="1.0" encoding="utf-8"?>
<!-- Generator: Adobe Illustrator 24.0.0, SVG Export Plug-In . SVG Version: 6.00 Build 0)  -->
<svg version="1.1" id="Layer_1" xmlns="http://www.w3.org/2000/svg" xmlns:xlink="http://www.w3.org/1999/xlink" x="0px" y="0px"
	 viewBox="0 0 1437 698" style="enable-background:new 0 0 1437 698;" xml:space="preserve">
<style type="text/css">
	.st0{fill:none;stroke:#000000;stroke-width:8;stroke-miterlimit:10;}
	.st1{fill:none;stroke:#000000;stroke-width:2;stroke-miterlimit:10.0001;}
	.st2{fill:none;stroke:#000000;stroke-width:2;stroke-miterlimit:9.9998;}
	.st3{fill:none;stroke:#000000;stroke-width:1.9999;stroke-miterlimit:9.9997;}
	.st4{fill:none;stroke:#000000;stroke-width:2.0001;stroke-miterlimit:10.0003;}
	.st5{fill:none;stroke:#000000;stroke-width:2;stroke-miterlimit:10;}
	.st6{fill:#27AAE1;}
	.st7{fill:none;stroke:#27AAE1;stroke-width:25;stroke-miterlimit:10;stroke-opacity:0;}
	.st8{fill:none;stroke:#000000;stroke-width:2.0001;stroke-miterlimit:10.0004;}
	.st9{fill:none;stroke:#70BF44;stroke-width:15;stroke-miterlimit:10;stroke-opacity:0;}
	.st10{fill:none;stroke:#000000;stroke-width:6;stroke-miterlimit:10;}
</style>
<line class="st0" x1="76.95" y1="435.62" x2="1303.05" y2="435.62"/>
<ellipse transform="matrix(0.989 -0.148 0.148 0.989 -70.1378 102.4588)" class="st1" cx="653.42" cy="522.53" rx="10.12" ry="14.93"/>
<ellipse transform="matrix(0.0525 -0.9986 0.9986 0.0525 143.9227 1196.7472)" class="st2" cx="702.61" cy="522.53" rx="14.74" ry="9.05"/>
<ellipse transform="matrix(0.9998 -0.0185 0.0185 0.9998 -9.5677 13.8361)" class="st3" cx="741.68" cy="523.1" rx="9.05" ry="14.74"/>
<ellipse transform="matrix(0.9976 -0.0697 0.0697 0.9976 -34.7105 55.6193)" class="st4" cx="779.33" cy="525" rx="8.73" ry="13.54"/>
<path class="st5" d="M652.85,536.83c0.44,2.09,1.14,5.06,1.14,5.06l4.43-0.19c0,0,0-2.85,0-5.12"/>
<polyline class="st5" points="698.78,536.2 698.78,540.88 703.53,540.88 704.16,536.89 "/>
<polyline class="st5" points="738.96,537.02 738.96,542.71 743.83,542.77 744.78,537.02 "/>
<polyline class="st5" points="777.11,537.84 778.06,541.83 782.74,541.57 782.55,537.84 "/>
<path class="st5" d="M645.7,543.47c1.14,0,22.4-2.85,22.4-2.85l1.33,48.15l-17.65,1.14L645.7,543.47z"/>
<path class="st5" d="M645.7,543.47c0,0-12.4,14.87-14.11,23.66l18.92,13.48"/>
<path class="st5" d="M636.27,570.49c0,0,5.82-10.82,10.82-14.55"/>
<line class="st5" x1="641.46" y1="562.96" x2="649.56" y2="573.02"/>
<polyline class="st5" points="650.32,582.7 641.4,582.13 643.17,587.95 650.64,585.35 "/>
<polyline class="st5" points="668.1,540.62 681.45,556.88 689.74,543.47 699.67,544.04 700.05,548.34 691.13,548.03 682.4,565.8 
	668.29,551.82 "/>
<line class="st5" x1="681.45" y1="556.88" x2="682.4" y2="565.8"/>
<path class="st5" d="M689.55,543.98c-0.13-2.09-0.19-3.29-0.19-3.29s16.77-0.25,23.85,2.85l-4.49,41.63l-16.89-1.27
	c0,0-1.14-20.82-1.83-33.53"/>
<path class="st5" d="M689.36,540.31c0,0-0.32,2.09-0.76,5.12"/>
<path class="st5" d="M687.02,556.44c-0.95,6.2-1.71,11.51-1.71,11.51l2.4,17.08l2.97-1.01l0.13-18.79"/>
<polyline class="st5" points="713.21,543.47 719.41,568.84 718.27,586.49 714.03,585.35 713.21,569.98 710.99,563.78 "/>
<line class="st5" x1="713.21" y1="569.98" x2="719.28" y2="568.4"/>
<polyline class="st5" points="687.52,584.66 686.83,593.2 689.55,598.51 691.89,598.51 "/>
<polygon class="st5" points="714.09,585.61 712.51,592.76 715.8,601.11 720.04,597.63 718.33,586.75 "/>
<path class="st5" d="M730.04,557.96c0.25-7.78,0.44-14.3,0.38-15.25c0,0,12.53-0.25,21.32,1.58c0,0-0.19,6.77-0.51,14.93"/>
<path class="st5" d="M730.42,542.77c0,0-3.42,7.4-6.14,13.35"/>
<path class="st5" d="M723.39,558.02c-1.46,3.23-2.59,5.63-2.59,5.63s7.59,8.35,25.5,1.64"/>
<path class="st5" d="M751.36,544.17c0,0,6.58,12.97,7.28,23.85l-26.95-5.95l-6.07,0.95l-3.1-7.02l9.17,1.9l22.14,1.14"/>
<polyline class="st5" points="751.36,555.3 747.06,553.91 742.69,558.4 "/>
<path class="st5" d="M750.98,566.88c-0.32,10.69-0.7,21.13-0.7,21.13l-21.32-0.7c0,0,0.38-9.74,0.7-20.18"/>
<path class="st5" d="M771.86,542.84l17.08-1.96c0,0,5.06,31.13,2.09,47.13l-19.17,0.76C771.86,588.77,776.22,555.74,771.86,542.84z"
	/>
<path class="st5" d="M771.86,543.47c0,0-13.73,16.58-4.49,48.15l3.35-1.71c0,0-3.29-23.35,3.04-29.74"/>
<line class="st5" x1="764.45" y1="564.86" x2="770.59" y2="567.96"/>
<path class="st5" d="M789,540.88c0,0,11.83,10.06,16.01,17.53l-12.97,19.04"/>
<line class="st5" x1="790.58" y1="552.83" x2="801.47" y2="563.59"/>
<line class="st5" x1="795.71" y1="558.4" x2="791.66" y2="565.23"/>
<polygon class="st5" points="766.92,591.62 767.43,600.41 771.22,606.17 773.5,606.17 772.11,591.62 770.72,589.59 "/>
<path class="st5" d="M792.04,582.06c0,0,4.81,1.83,5,1.71c0.13-0.13,7.97-4.49,7.97-4.49l-4.11-4.37l-8.86,2.72"/>
<polyline class="st5" points="651.71,589.91 655.7,652.16 658.42,652.16 660.38,589.91 666.39,652.16 669.43,652.16 669.43,588.77 
	"/>
<polyline class="st5" points="691.76,583.77 691.76,648.75 696.82,648.75 700.68,589.91 "/>
<polyline class="st5" points="708.72,585.04 712.64,650.39 708.72,651.22 699.99,584.66 "/>
<path class="st5" d="M791.03,588.01c0,0,4.68,34.1,5.95,67.44h-3.29l-11.77-66.68"/>
<path class="st5" d="M730.04,587.32c0,0,0.89,31.7,1.77,63.01h3.73l4.43-62.32"/>
<polyline class="st5" points="750.28,588.01 750.28,650.33 746.3,650.33 740.86,588.01 "/>
<polyline class="st5" points="771.86,588.77 777.49,649.32 781.92,649.32 782.42,591.62 "/>
<polygon class="st5" points="655.32,652.73 641.21,660.83 655.32,666.78 659.18,653.24 "/>
<polygon class="st5" points="665.95,652.73 667.85,667.98 679.11,661.02 670.25,652.73 "/>
<polygon class="st5" points="691.76,649.32 682.46,657.86 693.15,661.65 697.33,649.32 "/>
<polygon class="st5" points="707.58,651.59 713.59,650.33 722.45,659.76 711.06,664.63 "/>
<polygon class="st5" points="732.06,650.84 723.01,657.48 732.95,662.98 736.49,651.22 "/>
<polygon class="st5" points="746.3,650.84 750.92,650.84 764.14,657.48 755.79,663.81 "/>
<path class="st5" d="M777.87,649.89c-0.25,0-12.97,5.06-12.97,5.06l8.54,5.12l8.98-10.19H777.87z"/>
<polygon class="st5" points="793.49,655.45 798.18,655.77 809.82,661.91 799.44,666.08 "/>
<ellipse transform="matrix(0.1509 -0.9885 0.9885 0.1509 606.5082 1747.2096)" class="st1" cx="1320.38" cy="520.53" rx="14.93" ry="10.2"/>
<ellipse transform="matrix(0.9986 -0.0533 0.0533 0.9986 -25.9589 68.5353)" class="st2" cx="1270.83" cy="520.53" rx="9.11" ry="14.74"/>
<ellipse transform="matrix(0.0188 -0.9998 0.9998 0.0188 687.2569 1742.5273)" class="st3" cx="1231.47" cy="521.1" rx="14.74" ry="9.11"/>
<ellipse transform="matrix(0.071 -0.9975 0.9975 0.071 587.1227 1676.3898)" class="st4" cx="1193.53" cy="523" rx="13.54" ry="8.8"/>
<path class="st5" d="M1320.95,534.83c-0.45,2.09-1.15,5.06-1.15,5.06l-4.46-0.19c0,0,0-2.85,0-5.12"/>
<polyline class="st5" points="1274.68,534.2 1274.68,538.88 1269.9,538.88 1269.26,534.89 "/>
<polyline class="st5" points="1234.2,535.02 1234.2,540.71 1229.3,540.77 1228.34,535.02 "/>
<polyline class="st5" points="1195.77,535.84 1194.81,539.83 1190.1,539.57 1190.29,535.84 "/>
<path class="st5" d="M1328.15,541.47c-1.15,0-22.56-2.85-22.56-2.85l-1.34,48.15l17.78,1.14L1328.15,541.47z"/>
<path class="st5" d="M1328.15,541.47c0,0,12.49,14.87,14.21,23.66l-19.06,13.48"/>
<path class="st5" d="M1337.65,568.49c0,0-5.86-10.82-10.9-14.55"/>
<line class="st5" x1="1332.42" y1="560.96" x2="1324.27" y2="571.02"/>
<polyline class="st5" points="1323.5,580.7 1332.49,580.13 1330.7,585.95 1323.18,583.35 "/>
<polyline class="st5" points="1305.59,538.62 1292.14,554.88 1283.79,541.47 1273.78,542.04 1273.4,546.34 1282.39,546.03 
	1291.19,563.8 1305.4,549.82 "/>
<line class="st5" x1="1292.14" y1="554.88" x2="1291.19" y2="563.8"/>
<path class="st5" d="M1283.98,541.98c0.13-2.09,0.19-3.29,0.19-3.29s-16.89-0.25-24.03,2.85l4.53,41.63l17.02-1.27
	c0,0,1.15-20.82,1.85-33.53"/>
<path class="st5" d="M1284.17,538.31c0,0,0.32,2.09,0.76,5.12"/>
<path class="st5" d="M1286.53,554.44c0.96,6.2,1.72,11.51,1.72,11.51l-2.42,17.08l-3-1.01l-0.13-18.79"/>
<polyline class="st5" points="1260.14,541.47 1253.9,566.84 1255.05,584.49 1259.32,583.35 1260.14,567.98 1262.38,561.78 "/>
<line class="st5" x1="1260.14" y1="567.98" x2="1254.03" y2="566.4"/>
<polyline class="st5" points="1286.02,582.66 1286.72,591.2 1283.98,596.51 1281.62,596.51 "/>
<polygon class="st5" points="1259.25,583.61 1260.85,590.76 1257.53,599.11 1253.26,595.63 1254.98,584.75 "/>
<path class="st5" d="M1243.19,555.96c-0.25-7.78-0.45-14.3-0.38-15.25c0,0-12.62-0.25-21.48,1.58c0,0,0.19,6.77,0.51,14.93"/>
<path class="st5" d="M1242.81,540.77c0,0,3.44,7.4,6.18,13.35"/>
<path class="st5" d="M1249.88,556.02c1.47,3.23,2.61,5.63,2.61,5.63s-7.65,8.35-25.69,1.64"/>
<path class="st5" d="M1221.71,542.17c0,0-6.63,12.97-7.33,23.85l27.15-5.95l6.12,0.95l3.12-7.02l-9.24,1.9l-22.31,1.14"/>
<polyline class="st5" points="1221.71,553.3 1226.05,551.91 1230.44,556.4 "/>
<path class="st5" d="M1222.09,564.88c0.32,10.69,0.7,21.13,0.7,21.13l21.48-0.7c0,0-0.38-9.74-0.7-20.18"/>
<path class="st5" d="M1201.06,540.84l-17.21-1.96c0,0-5.1,31.13-2.1,47.13l19.31,0.76C1201.06,586.77,1196.66,553.74,1201.06,540.84
	z"/>
<path class="st5" d="M1201.06,541.47c0,0,13.83,16.58,4.53,48.15l-3.38-1.71c0,0,3.31-23.35-3.06-29.74"/>
<line class="st5" x1="1208.52" y1="562.86" x2="1202.33" y2="565.96"/>
<path class="st5" d="M1183.79,538.88c0,0-11.92,10.06-16.13,17.53l13.07,19.04"/>
<line class="st5" x1="1182.19" y1="550.83" x2="1171.23" y2="561.59"/>
<line class="st5" x1="1177.03" y1="556.4" x2="1181.11" y2="563.23"/>
<polygon class="st5" points="1206.03,589.62 1205.52,598.41 1201.7,604.17 1199.4,604.17 1200.81,589.62 1202.21,587.59 "/>
<path class="st5" d="M1180.73,580.06c0,0-4.84,1.83-5.04,1.71c-0.13-0.13-8.03-4.49-8.03-4.49l4.14-4.37l8.92,2.72"/>
<polyline class="st5" points="1322.1,587.91 1318.08,650.16 1315.34,650.16 1313.37,587.91 1307.31,650.16 1304.25,650.16 
	1304.25,586.77 "/>
<polyline class="st5" points="1281.75,581.77 1281.75,646.75 1276.65,646.75 1272.76,587.91 "/>
<polyline class="st5" points="1264.67,583.04 1260.72,648.39 1264.67,649.22 1273.47,582.66 "/>
<path class="st5" d="M1181.75,586.01c0,0-4.72,34.1-5.99,67.44h3.31l11.86-66.68"/>
<path class="st5" d="M1243.19,585.32c0,0-0.89,31.7-1.78,63.01h-3.76l-4.46-62.32"/>
<polyline class="st5" points="1222.79,586.01 1222.79,648.33 1226.81,648.33 1232.29,586.01 "/>
<polyline class="st5" points="1201.06,586.77 1195.39,647.32 1190.93,647.32 1190.42,589.62 "/>
<polygon class="st5" points="1318.46,650.73 1332.68,658.83 1318.46,664.78 1314.58,651.24 "/>
<polygon class="st5" points="1307.76,650.73 1305.84,665.98 1294.5,659.02 1303.42,650.73 "/>
<polygon class="st5" points="1281.75,647.32 1291.12,655.86 1280.35,659.65 1276.14,647.32 "/>
<polygon class="st5" points="1265.82,649.59 1259.76,648.33 1250.84,657.76 1262.31,662.63 "/>
<polygon class="st5" points="1241.15,648.84 1250.27,655.48 1240.26,660.98 1236.69,649.22 "/>
<polygon class="st5" points="1226.81,648.84 1222.16,648.84 1208.84,655.48 1217.25,661.81 "/>
<path class="st5" d="M1195,647.89c0.25,0,13.07,5.06,13.07,5.06l-8.6,5.12l-9.05-10.19H1195z"/>
<polygon class="st5" points="1179.26,653.45 1174.55,653.77 1162.82,659.91 1173.27,664.08 "/>
<ellipse transform="matrix(0.9958 -0.0913 0.0913 0.9958 -43.7237 98.1655)" class="st4" cx="1051.12" cy="527" rx="9.64" ry="13.55"/>
<polyline class="st5" points="1048.67,539.84 1049.72,543.83 1054.89,543.57 1054.68,539.84 "/>
<path class="st5" d="M1042.86,544.84l18.88-1.96c0,0,5.59,31.13,2.31,47.13l-21.19,0.76
	C1042.86,590.77,1047.69,557.74,1042.86,544.84z"/>
<path class="st5" d="M1042.86,545.47c0,0-15.17,16.58-4.96,48.15l3.71-1.71c0,0-3.64-23.35,3.36-29.74"/>
<line class="st5" x1="1034.68" y1="566.86" x2="1041.46" y2="569.96"/>
<path class="st5" d="M1061.81,542.88c0,0,13.08,10.06,17.69,17.53l-14.33,19.04"/>
<line class="st5" x1="1063.56" y1="554.83" x2="1075.59" y2="565.59"/>
<line class="st5" x1="1069.22" y1="560.4" x2="1064.75" y2="567.23"/>
<polygon class="st5" points="1037.41,593.62 1037.97,602.41 1042.16,608.17 1044.68,608.17 1043.14,593.62 1041.6,591.59 "/>
<path class="st5" d="M1065.17,584.06c0,0,5.31,1.83,5.52,1.71c0.14-0.13,8.81-4.49,8.81-4.49l-4.55-4.37l-9.79,2.72"/>
<path class="st5" d="M1064.05,590.01c0,0,5.17,34.1,6.57,67.44h-3.64l-13.01-66.68"/>
<polyline class="st5" points="1042.86,590.77 1049.09,651.32 1053.98,651.32 1054.54,593.62 "/>
<path class="st5" d="M1049.51,651.89c-0.28,0-14.33,5.06-14.33,5.06l9.44,5.12l9.93-10.19H1049.51z"/>
<polygon class="st5" points="1066.78,657.45 1071.95,657.77 1084.82,663.91 1073.35,668.08 "/>
<ellipse transform="matrix(0.0697 -0.9976 0.9976 0.0697 -65.0823 974.9689)" class="st4" cx="490.2" cy="522.38" rx="13.69" ry="8.83"/>
<ellipse transform="matrix(0.0525 -0.9986 0.9986 0.0525 -21.2645 1022.2756)" class="st2" cx="528.07" cy="522.34" rx="14.91" ry="9.15"/>
<ellipse transform="matrix(0.9998 -0.0185 0.0185 0.9998 -9.5939 10.6107)" class="st3" cx="567.62" cy="522.87" rx="9.15" ry="14.91"/>
<ellipse transform="matrix(0.9976 -0.0697 0.0697 0.9976 -35.1162 43.5087)" class="st4" cx="605.7" cy="524.79" rx="8.83" ry="13.69"/>
<polyline class="st5" points="486.94,535.41 486.75,539.18 491.48,539.44 492.44,535.41 "/>
<path class="st5" d="M497.75,586.91l-19.39-0.77c-3.01-16.19,2.11-47.67,2.11-47.67l17.27,1.98
	C493.34,553.51,497.75,586.91,497.75,586.91z"/>
<path class="st5" d="M495.84,557.99c6.4,6.46,3.07,30.07,3.07,30.07l3.39,1.73c9.34-31.93-4.54-48.69-4.54-48.69"/>
<line class="st5" x1="499.03" y1="565.86" x2="505.24" y2="562.73"/>
<path class="st5" d="M477.35,575.46l-13.12-19.26c4.22-7.55,16.19-17.72,16.19-17.72"/>
<line class="st5" x1="467.81" y1="561.45" x2="478.82" y2="550.57"/>
<line class="st5" x1="477.73" y1="563.11" x2="473.63" y2="556.2"/>
<polygon class="st5" points="498.91,587.74 497.5,589.79 496.09,604.51 498.39,604.51 502.23,598.68 502.75,589.79 "/>
<path class="st5" d="M477.35,575.65l-8.96-2.75l-4.16,4.41c0,0,7.93,4.41,8.06,4.54c0.19,0.13,5.05-1.73,5.05-1.73"/>
<path class="st5" d="M487.58,586.91l-11.9,67.44h-3.33c1.28-33.72,6.01-68.2,6.01-68.2"/>
<polyline class="st5" points="487.07,589.79 487.58,648.14 492.06,648.14 497.75,586.91 "/>
<path class="st5" d="M487.07,648.72l9.09,10.3l8.64-5.18c0,0-12.86-5.12-13.12-5.12H487.07z"/>
<polygon class="st5" points="469.86,665.1 459.37,660.87 471.14,654.67 475.87,654.35 "/>
<polyline class="st5" points="524.24,536.11 524.24,540.85 529.04,540.85 529.68,536.82 "/>
<polyline class="st5" points="564.87,536.94 564.87,542.7 569.8,542.77 570.76,536.94 "/>
<polyline class="st5" points="603.45,537.77 604.41,541.81 609.15,541.55 608.95,537.77 "/>
<path class="st5" d="M514.9,543.98c-0.13-2.11-0.19-3.33-0.19-3.33s16.95-0.26,24.12,2.88l-4.54,42.1l-17.08-1.28
	C517.2,584.35,515.61,556.84,514.9,543.98"/>
<path class="st5" d="M514.71,540.27c0,0-0.32,2.11-0.77,5.18"/>
<path class="st5" d="M513.94,545.45c-0.96,6.27-3.33,22.78-3.33,22.78l2.43,17.27l3.01-1.02l0.13-19"/>
<polyline class="st5" points="538.83,543.47 545.1,569.13 543.95,586.98 539.66,585.82 538.83,570.28 536.59,564.01 "/>
<line class="st5" x1="538.83" y1="570.28" x2="544.97" y2="568.68"/>
<polyline class="st5" points="512.85,585.12 512.15,593.76 514.9,599.13 517.27,599.13 "/>
<polygon class="st5" points="539.73,586.08 538.13,593.31 541.45,601.76 545.74,598.24 544.01,587.23 "/>
<path class="st5" d="M555.85,558.12c0.26-7.87,0.45-14.46,0.38-15.42c0,0,12.67-0.26,21.56,1.6c0,0-0.19,6.85-0.51,15.1"/>
<path class="st5" d="M556.23,542.77c0,0-3.45,7.49-6.21,13.5"/>
<path class="st5" d="M549.13,558.18c-1.47,3.26-2.62,5.69-2.62,5.69s7.68,8.45,25.78,1.66"/>
<path class="st5" d="M577.41,544.17c0,0,6.65,13.12,7.36,24.12l-27.26-6.01l-6.14,0.96l-3.14-7.1l9.28,1.92l22.39,1.15"/>
<polyline class="st5" points="577.41,555.43 573.06,554.03 568.65,558.57 "/>
<path class="st5" d="M577.03,567.14c-0.32,10.81-0.7,21.37-0.7,21.37l-21.56-0.7c0,0,0.38-9.85,0.7-20.41"/>
<path class="st5" d="M598.14,542.83l17.27-1.98c0,0,5.12,31.48,2.11,47.67l-19.39,0.77C598.14,589.28,602.56,555.88,598.14,542.83z"
	/>
<path class="st5" d="M598.14,543.47c0,0-13.88,16.76-4.54,48.69l3.39-1.73c0,0-3.33-23.61,3.07-30.07"/>
<line class="st5" x1="590.65" y1="565.09" x2="596.86" y2="568.23"/>
<path class="st5" d="M615.48,540.85c0,0,11.96,10.17,16.19,17.72l-13.12,19.26"/>
<line class="st5" x1="617.08" y1="552.94" x2="628.08" y2="563.81"/>
<line class="st5" x1="622.26" y1="558.57" x2="618.17" y2="565.48"/>
<polygon class="st5" points="593.15,592.16 593.66,601.05 597.5,606.87 599.8,606.87 598.4,592.16 596.99,590.11 "/>
<path class="st5" d="M618.55,582.5c0,0,4.86,1.86,5.05,1.73c0.13-0.13,8.06-4.54,8.06-4.54l-4.16-4.41l-8.96,2.75"/>
<polyline class="st5" points="517.14,584.22 517.14,649.93 522.26,649.93 526.16,590.43 "/>
<polyline class="st5" points="534.29,585.5 538.25,651.6 534.29,652.43 525.46,585.12 "/>
<path class="st5" d="M617.53,588.51c0,0,4.73,34.49,6.01,68.2h-3.33l-11.9-67.44"/>
<path class="st5" d="M555.85,587.81c0,0,0.9,32.05,1.79,63.72h3.77l4.48-63.02"/>
<polyline class="st5" points="576.32,588.51 576.32,651.53 572.29,651.53 566.79,588.51 "/>
<polyline class="st5" points="598.14,589.28 603.83,650.51 608.31,650.51 608.83,592.16 "/>
<polygon class="st5" points="517.14,650.51 507.74,659.15 518.55,662.98 522.77,650.51 "/>
<polygon class="st5" points="533.14,652.81 539.21,651.53 548.17,661.07 536.66,665.99 "/>
<polygon class="st5" points="557.9,652.04 548.75,658.76 558.79,664.33 562.38,652.43 "/>
<polygon class="st5" points="572.29,652.04 576.96,652.04 590.33,658.76 581.89,665.16 "/>
<path class="st5" d="M604.22,651.08c-0.26,0-13.12,5.12-13.12,5.12l8.64,5.18l9.09-10.3H604.22z"/>
<polygon class="st5" points="620.02,656.71 624.76,657.03 636.53,663.24 626.04,667.46 "/>
<ellipse transform="matrix(0.0697 -0.9976 0.9976 0.0697 262.0586 1330.5386)" class="st4" cx="844.42" cy="524.76" rx="13.75" ry="8.87"/>
<ellipse transform="matrix(0.0525 -0.9986 0.9986 0.0525 312.1347 1378.421)" class="st2" cx="882.45" cy="524.73" rx="14.97" ry="9.19"/>
<ellipse transform="matrix(0.9998 -0.0185 0.0185 0.9998 -9.5772 17.1826)" class="st3" cx="922.16" cy="525.25" rx="9.19" ry="14.97"/>
<ellipse transform="matrix(0.9976 -0.0697 0.0697 0.9976 -34.4198 68.246)" class="st4" cx="960.4" cy="527.18" rx="8.87" ry="13.75"/>
<polyline class="st5" points="841.14,537.85 840.95,541.64 845.71,541.89 846.67,537.85 "/>
<path class="st5" d="M852,589.57l-19.47-0.77c-3.02-16.26,2.12-47.87,2.12-47.87l17.35,1.99C847.57,556.03,852,589.57,852,589.57z"
	/>
<path class="st5" d="M850.07,560.53c6.43,6.49,3.08,30.2,3.08,30.2l3.41,1.73c9.38-32.06-4.56-48.9-4.56-48.9"/>
<line class="st5" x1="853.29" y1="568.43" x2="859.52" y2="565.28"/>
<path class="st5" d="M831.51,578.07l-13.17-19.34c4.24-7.58,16.26-17.8,16.26-17.8"/>
<line class="st5" x1="821.93" y1="564" x2="832.98" y2="553.07"/>
<line class="st5" x1="831.89" y1="565.67" x2="827.78" y2="558.73"/>
<polygon class="st5" points="853.16,590.4 851.75,592.46 850.33,607.24 852.64,607.24 856.5,601.39 857.01,592.46 "/>
<path class="st5" d="M831.51,578.26l-9-2.76l-4.18,4.43c0,0,7.97,4.43,8.1,4.56c0.19,0.13,5.08-1.73,5.08-1.73"/>
<path class="st5" d="M841.79,589.57l-11.95,67.72h-3.34c1.29-33.86,6.04-68.49,6.04-68.49"/>
<polyline class="st5" points="841.27,592.46 841.79,651.06 846.28,651.06 852,589.57 "/>
<path class="st5" d="M841.27,651.64l9.12,10.34l8.67-5.2c0,0-12.91-5.14-13.17-5.14H841.27z"/>
<polygon class="st5" points="823.99,668.09 813.45,663.85 825.27,657.61 830.03,657.29 "/>
<polyline class="st5" points="878.6,538.55 878.6,543.31 883.42,543.31 884.06,539.26 "/>
<polyline class="st5" points="919.4,539.39 919.4,545.17 924.35,545.23 925.31,539.39 "/>
<polyline class="st5" points="958.15,540.22 959.11,544.27 963.87,544.01 963.67,540.22 "/>
<path class="st5" d="M869.22,546.46c-0.13-2.12-0.19-3.34-0.19-3.34s17.03-0.26,24.22,2.89l-4.56,42.28L871.53,587
	C871.53,587,869.93,559.37,869.22,546.46"/>
<path class="st5" d="M869.03,542.73c0,0-0.32,2.12-0.77,5.2"/>
<path class="st5" d="M868.26,547.93c-0.96,6.3-3.34,22.87-3.34,22.87l2.44,17.35l3.02-1.03l0.13-19.08"/>
<polyline class="st5" points="893.25,545.94 899.55,571.71 898.39,589.63 894.09,588.48 893.25,572.86 891,566.57 "/>
<line class="st5" x1="893.25" y1="572.86" x2="899.42" y2="571.26"/>
<polyline class="st5" points="867.17,587.77 866.46,596.44 869.22,601.84 871.6,601.84 "/>
<polygon class="st5" points="894.15,588.73 892.55,595.99 895.89,604.48 900.19,600.94 898.46,589.89 "/>
<path class="st5" d="M910.34,560.66c0.26-7.9,0.45-14.52,0.39-15.48c0,0,12.72-0.26,21.65,1.61c0,0-0.19,6.88-0.51,15.16"/>
<path class="st5" d="M910.73,545.23c0,0-3.47,7.52-6.23,13.56"/>
<path class="st5" d="M903.6,560.72c-1.48,3.28-2.63,5.72-2.63,5.72s7.71,8.48,25.89,1.67"/>
<path class="st5" d="M932,546.65c0,0,6.68,13.17,7.39,24.22l-27.37-6.04l-6.17,0.96l-3.15-7.13l9.32,1.93l22.49,1.16"/>
<polyline class="st5" points="932,557.96 927.63,556.54 923.19,561.11 "/>
<path class="st5" d="M931.61,569.71c-0.32,10.86-0.71,21.46-0.71,21.46l-21.65-0.71c0,0,0.39-9.89,0.71-20.5"/>
<path class="st5" d="M952.81,545.3l17.35-1.99c0,0,5.14,31.61,2.12,47.87l-19.47,0.77C952.81,591.95,957.25,558.41,952.81,545.3z"/>
<path class="st5" d="M952.81,545.94c0,0-13.94,16.83-4.56,48.9l3.41-1.73c0,0-3.34-23.71,3.08-30.2"/>
<line class="st5" x1="945.3" y1="567.66" x2="951.53" y2="570.81"/>
<path class="st5" d="M970.23,543.31c0,0,12.02,10.22,16.26,17.8l-13.17,19.34"/>
<line class="st5" x1="971.83" y1="555.45" x2="982.89" y2="566.37"/>
<line class="st5" x1="977.04" y1="561.11" x2="972.93" y2="568.04"/>
<polygon class="st5" points="947.8,594.84 948.32,603.77 952.17,609.62 954.49,609.62 953.07,594.84 951.66,592.78 "/>
<path class="st5" d="M973.31,585.14c0,0,4.88,1.86,5.08,1.73c0.13-0.13,8.1-4.56,8.1-4.56l-4.18-4.43l-9,2.76"/>
<polyline class="st5" points="871.47,586.87 871.47,652.86 876.61,652.86 880.53,593.1 "/>
<polyline class="st5" points="888.69,588.16 892.67,654.53 888.69,655.36 879.82,587.77 "/>
<path class="st5" d="M972.28,591.18c0,0,4.75,34.63,6.04,68.49h-3.34l-11.95-67.72"/>
<path class="st5" d="M910.34,590.47c0,0,0.9,32.19,1.8,64h3.79l4.5-63.29"/>
<polyline class="st5" points="930.9,591.18 930.9,654.46 926.86,654.46 921.33,591.18 "/>
<polyline class="st5" points="952.81,591.95 958.53,653.44 963.03,653.44 963.54,594.84 "/>
<polygon class="st5" points="871.47,653.44 862.03,662.11 872.88,665.97 877.12,653.44 "/>
<polygon class="st5" points="887.53,655.75 893.64,654.46 902.63,664.04 891.07,668.99 "/>
<polygon class="st5" points="912.4,654.98 903.21,661.73 913.3,667.32 916.9,655.36 "/>
<polygon class="st5" points="926.86,654.98 931.55,654.98 944.98,661.73 936.49,668.15 "/>
<path class="st5" d="M958.92,654.01c-0.26,0-13.17,5.14-13.17,5.14l8.67,5.2l9.12-10.34H958.92z"/>
<polygon class="st5" points="974.79,659.67 979.54,659.99 991.37,666.22 980.83,670.46 "/>
<ellipse transform="matrix(0.0697 -0.9976 0.9976 0.0697 -431.4127 580.0377)" class="st4" cx="95.29" cy="521.33" rx="13.74" ry="8.86"/>
<ellipse transform="matrix(0.0525 -0.9986 0.9986 0.0525 -394.2409 627.0714)" class="st2" cx="133.33" cy="521.29" rx="14.96" ry="9.18"/>
<ellipse transform="matrix(0.9998 -0.0185 0.0185 0.9998 -9.6425 3.2963)" class="st3" cx="173" cy="521.82" rx="9.18" ry="14.96"/>
<ellipse transform="matrix(0.9976 -0.0697 0.0697 0.9976 -36.0026 16.0004)" class="st4" cx="211.21" cy="523.75" rx="8.86" ry="13.74"/>
<polyline class="st5" points="92.04,534.4 91.85,538.19 96.6,538.45 97.56,534.4 "/>
<path class="st5" d="M102.89,586.09l-19.45-0.77c-3.02-16.24,2.12-47.83,2.12-47.83l17.34,1.99
	C98.46,552.57,102.89,586.09,102.89,586.09z"/>
<path class="st5" d="M100.96,557.07c6.42,6.48,3.08,30.18,3.08,30.18l3.4,1.73c9.37-32.04-4.56-48.86-4.56-48.86"/>
<line class="st5" x1="104.17" y1="564.97" x2="110.4" y2="561.82"/>
<path class="st5" d="M82.41,574.6l-13.16-19.33c4.24-7.58,16.24-17.78,16.24-17.78"/>
<line class="st5" x1="72.84" y1="560.54" x2="83.88" y2="549.62"/>
<line class="st5" x1="82.79" y1="562.21" x2="78.68" y2="555.27"/>
<polygon class="st5" points="104.05,586.92 102.63,588.98 101.22,603.75 103.53,603.75 107.38,597.9 107.9,588.98 "/>
<path class="st5" d="M82.41,574.79l-8.99-2.76l-4.17,4.43c0,0,7.96,4.43,8.09,4.56c0.19,0.13,5.07-1.73,5.07-1.73"/>
<path class="st5" d="M92.68,586.09l-11.94,67.67H77.4c1.28-33.84,6.04-68.44,6.04-68.44"/>
<polyline class="st5" points="92.17,588.98 92.68,647.53 97.18,647.53 102.89,586.09 "/>
<path class="st5" d="M92.17,648.11l9.12,10.34l8.67-5.2c0,0-12.91-5.14-13.16-5.14H92.17z"/>
<polygon class="st5" points="74.9,664.55 64.37,660.31 76.18,654.08 80.93,653.76 "/>
<polyline class="st5" points="129.47,535.11 129.47,539.86 134.29,539.86 134.93,535.82 "/>
<polyline class="st5" points="170.24,535.95 170.24,541.72 175.18,541.79 176.15,535.95 "/>
<polyline class="st5" points="208.96,536.78 209.92,540.82 214.67,540.57 214.48,536.78 "/>
<path class="st5" d="M120.1,543.01c-0.13-2.12-0.19-3.34-0.19-3.34s17.01-0.26,24.21,2.89l-4.56,42.25l-17.14-1.28
	C122.41,583.52,120.8,555.91,120.1,543.01"/>
<path class="st5" d="M119.9,539.28c0,0-0.32,2.12-0.77,5.2"/>
<path class="st5" d="M119.13,544.48c-0.96,6.29-3.34,22.86-3.34,22.86l2.44,17.34l3.02-1.03l0.13-19.07"/>
<polyline class="st5" points="144.11,542.49 150.4,568.24 149.25,586.15 144.94,585 144.11,569.4 141.86,563.1 "/>
<line class="st5" x1="144.11" y1="569.4" x2="150.27" y2="567.79"/>
<polyline class="st5" points="118.04,584.29 117.34,592.96 120.1,598.35 122.47,598.35 "/>
<polygon class="st5" points="145.01,585.25 143.4,592.51 146.74,600.99 151.04,597.45 149.31,586.41 "/>
<path class="st5" d="M161.19,557.2c0.26-7.9,0.45-14.51,0.39-15.47c0,0,12.71-0.26,21.64,1.61c0,0-0.19,6.87-0.51,15.15"/>
<path class="st5" d="M161.57,541.79c0,0-3.47,7.51-6.23,13.55"/>
<path class="st5" d="M154.45,557.26c-1.48,3.27-2.63,5.71-2.63,5.71s7.7,8.48,25.87,1.67"/>
<path class="st5" d="M182.82,543.2c0,0,6.68,13.16,7.38,24.21l-27.35-6.04l-6.16,0.96l-3.15-7.13l9.31,1.93l22.47,1.16"/>
<polyline class="st5" points="182.82,554.5 178.46,553.09 174.03,557.65 "/>
<path class="st5" d="M182.44,566.25c-0.32,10.85-0.71,21.44-0.71,21.44l-21.64-0.71c0,0,0.39-9.89,0.71-20.48"/>
<path class="st5" d="M203.63,541.85l17.34-1.99c0,0,5.14,31.59,2.12,47.83l-19.45,0.77C203.63,588.47,208.06,554.95,203.63,541.85z"
	/>
<path class="st5" d="M203.63,542.49c0,0-13.93,16.82-4.56,48.86l3.4-1.73c0,0-3.34-23.69,3.08-30.18"/>
<line class="st5" x1="196.12" y1="564.2" x2="202.34" y2="567.34"/>
<path class="st5" d="M221.03,539.86c0,0,12.01,10.21,16.24,17.78l-13.16,19.33"/>
<line class="st5" x1="222.63" y1="552" x2="233.68" y2="562.91"/>
<line class="st5" x1="227.83" y1="557.65" x2="223.72" y2="564.58"/>
<polygon class="st5" points="198.62,591.35 199.13,600.28 202.99,606.12 205.3,606.12 203.88,591.35 202.47,589.3 "/>
<path class="st5" d="M224.11,581.66c0,0,4.88,1.86,5.07,1.73c0.13-0.13,8.09-4.56,8.09-4.56l-4.17-4.43l-8.99,2.76"/>
<polyline class="st5" points="122.34,583.39 122.34,649.33 127.48,649.33 131.4,589.62 "/>
<polyline class="st5" points="139.55,584.68 143.53,651 139.55,651.84 130.69,584.29 "/>
<path class="st5" d="M223.08,587.69c0,0,4.75,34.61,6.04,68.44h-3.34l-11.94-67.67"/>
<path class="st5" d="M161.19,586.99c0,0,0.9,32.17,1.8,63.95h3.79l4.49-63.24"/>
<polyline class="st5" points="181.73,587.69 181.73,650.94 177.69,650.94 172.17,587.69 "/>
<polyline class="st5" points="203.63,588.47 209.34,649.91 213.84,649.91 214.35,591.35 "/>
<polygon class="st5" points="122.34,649.91 112.91,658.58 123.76,662.43 127.99,649.91 "/>
<polygon class="st5" points="138.4,652.22 144.49,650.94 153.48,660.5 141.93,665.45 "/>
<ellipse transform="matrix(0.0525 -0.9986 0.9986 0.0525 524.5969 1605.4653)" class="st2" cx="1108.33" cy="526.29" rx="14.96" ry="9.18"/>
<polyline class="st5" points="1104.47,540.11 1104.47,544.86 1109.29,544.86 1109.93,540.82 "/>
<path class="st5" d="M1095.1,548.01c-0.13-2.12-0.19-3.34-0.19-3.34s17.01-0.26,24.21,2.89l-4.56,42.25l-17.14-1.28
	C1097.41,588.52,1095.8,560.91,1095.1,548.01"/>
<path class="st5" d="M1094.9,544.28c0,0-0.32,2.12-0.77,5.2"/>
<path class="st5" d="M1094.13,549.48c-0.96,6.29-3.34,22.86-3.34,22.86l2.44,17.34l3.02-1.03l0.13-19.07"/>
<polyline class="st5" points="1119.11,547.49 1125.4,573.24 1124.25,591.15 1119.94,590 1119.11,574.4 1116.86,568.1 "/>
<line class="st5" x1="1119.11" y1="574.4" x2="1125.27" y2="572.79"/>
<polyline class="st5" points="1093.04,589.29 1092.34,597.96 1095.1,603.35 1097.47,603.35 "/>
<polygon class="st5" points="1120.01,590.25 1118.4,597.51 1121.74,605.99 1126.04,602.45 1124.31,591.41 "/>
<polyline class="st5" points="1097.34,588.39 1097.34,654.33 1102.48,654.33 1106.4,594.62 "/>
<polyline class="st5" points="1114.55,589.68 1118.53,656 1114.55,656.84 1105.69,589.29 "/>
<polygon class="st5" points="1097.34,654.91 1087.91,663.58 1098.76,667.43 1102.99,654.91 "/>
<polygon class="st5" points="1113.4,657.22 1119.49,655.94 1128.48,665.5 1116.93,670.45 "/>
<ellipse transform="matrix(0.9986 -0.0534 0.0534 0.9986 -26.3385 62.1014)" class="st2" cx="1149.79" cy="524.29" rx="9.25" ry="14.96"/>
<polyline class="st5" points="1153.68,538.11 1153.68,542.86 1148.83,542.86 1148.18,538.82 "/>
<path class="st5" d="M1163.12,546.01c0.13-2.12,0.19-3.34,0.19-3.34s-17.14-0.26-24.39,2.89l4.59,42.25l17.27-1.28
	C1160.79,586.52,1162.41,558.91,1163.12,546.01"/>
<path class="st5" d="M1163.32,542.28c0,0,0.32,2.12,0.78,5.2"/>
<path class="st5" d="M1164.09,547.48c0.97,6.29,3.36,22.86,3.36,22.86l-2.46,17.34l-3.04-1.03l-0.13-19.07"/>
<polyline class="st5" points="1138.93,545.49 1132.59,571.24 1133.75,589.15 1138.09,588 1138.93,572.4 1141.19,566.1 "/>
<line class="st5" x1="1138.93" y1="572.4" x2="1132.72" y2="570.79"/>
<polyline class="st5" points="1165.19,587.29 1165.9,595.96 1163.12,601.35 1160.73,601.35 "/>
<polygon class="st5" points="1138.02,588.25 1139.64,595.51 1136.28,603.99 1131.94,600.45 1133.69,589.41 "/>
<polyline class="st5" points="1160.86,586.39 1160.86,652.33 1155.68,652.33 1151.74,592.62 "/>
<polyline class="st5" points="1143.52,587.68 1139.51,654 1143.52,654.84 1152.45,587.29 "/>
<polygon class="st5" points="1160.86,652.91 1170.37,661.58 1159.43,665.43 1155.16,652.91 "/>
<polygon class="st5" points="1144.69,655.22 1138.54,653.94 1129.48,663.5 1141.13,668.45 "/>
<polygon class="st5" points="163.24,651.45 154.06,658.19 164.14,663.78 167.74,651.84 "/>
<polygon class="st5" points="177.69,651.45 182.38,651.45 195.79,658.19 187.32,664.61 "/>
<path class="st5" d="M209.73,650.49c-0.26,0-13.16,5.14-13.16,5.14l8.67,5.2l9.12-10.34H209.73z"/>
<polygon class="st5" points="225.59,656.14 230.34,656.46 242.15,662.69 231.62,666.92 "/>
<ellipse transform="matrix(0.989 -0.148 0.148 0.989 -74.3148 44.0127)" class="st1" cx="258.59" cy="521.37" rx="10.27" ry="15.15"/>
<ellipse transform="matrix(0.0525 -0.9986 0.9986 0.0525 -228.291 802.1182)" class="st2" cx="308.54" cy="521.36" rx="14.96" ry="9.18"/>
<ellipse transform="matrix(0.9998 -0.0185 0.0185 0.9998 -9.6143 6.5424)" class="st3" cx="348.15" cy="521.95" rx="9.18" ry="14.96"/>
<ellipse transform="matrix(0.9976 -0.0697 0.0697 0.9976 -35.5873 28.2195)" class="st4" cx="386.43" cy="523.87" rx="8.86" ry="13.74"/>
<path class="st5" d="M258.07,535.88c0.45,2.12,1.16,5.14,1.16,5.14l4.49-0.19c0,0,0-2.89,0-5.2"/>
<polyline class="st5" points="304.69,535.24 304.69,539.99 309.5,539.99 310.14,535.95 "/>
<polyline class="st5" points="345.46,536.07 345.46,541.85 350.4,541.92 351.36,536.07 "/>
<polyline class="st5" points="384.17,536.91 385.14,540.95 389.89,540.7 389.63,536.91 "/>
<path class="st5" d="M250.82,542.62c1.16,0,22.73-2.89,22.73-2.89l1.35,48.86l-17.91,1.16L250.82,542.62z"/>
<path class="st5" d="M250.82,542.62c0,0-12.58,15.09-14.32,24.01l19.2,13.68"/>
<path class="st5" d="M241.25,570.04c0,0,5.91-10.98,10.98-14.77"/>
<line class="st5" x1="246.52" y1="562.4" x2="254.73" y2="572.61"/>
<polyline class="st5" points="255.51,582.43 246.45,581.85 248.25,587.76 255.83,585.13 "/>
<polyline class="st5" points="273.55,539.73 287.03,556.23 295.51,542.62 305.59,543.2 305.97,547.57 296.92,547.25 288.06,565.29 
	273.74,551.1 "/>
<line class="st5" x1="287.03" y1="556.23" x2="288.06" y2="565.29"/>
<path class="st5" d="M295.31,543.14c-0.13-2.12-0.19-3.34-0.19-3.34s17.01-0.26,24.21,2.89l-4.56,42.25l-17.14-1.28
	c0,0-1.16-21.12-1.86-34.03"/>
<path class="st5" d="M295.12,539.41c0,0-0.32,2.12-0.77,5.2"/>
<path class="st5" d="M292.74,555.78c-0.96,6.29-1.73,11.69-1.73,11.69l2.44,17.34l3.02-1.03l0.13-19.07"/>
<polyline class="st5" points="319.33,542.62 325.55,568.37 324.46,586.28 320.16,585.13 319.33,569.52 317.08,563.23 "/>
<line class="st5" x1="319.33" y1="569.52" x2="325.49" y2="567.92"/>
<polyline class="st5" points="293.26,584.42 292.55,593.09 295.31,598.48 297.69,598.48 "/>
<polygon class="st5" points="320.22,585.38 318.62,592.64 321.96,601.11 326.2,597.58 324.53,586.54 "/>
<path class="st5" d="M336.4,557.33c0.26-7.9,0.45-14.51,0.39-15.47c0,0,12.71-0.26,21.64,1.61c0,0-0.19,6.87-0.51,15.15"/>
<path class="st5" d="M336.79,541.92c0,0-3.47,7.51-6.23,13.55"/>
<path class="st5" d="M329.66,557.39c-1.48,3.27-2.63,5.71-2.63,5.71s7.7,8.48,25.87,1.67"/>
<path class="st5" d="M358.04,543.33c0,0,6.68,13.16,7.38,24.21l-27.35-6.04l-6.16,0.96l-3.15-7.13l9.31,1.93l22.47,1.16"/>
<polyline class="st5" points="358.04,554.63 353.67,553.22 349.24,557.78 "/>
<path class="st5" d="M357.66,566.38c-0.32,10.85-0.71,21.44-0.71,21.44l-21.64-0.71c0,0,0.39-9.89,0.71-20.48"/>
<path class="st5" d="M378.84,541.98l17.34-1.99c0,0,5.14,31.59,2.12,47.83l-19.45,0.77C378.84,588.59,383.27,555.08,378.84,541.98z"
	/>
<path class="st5" d="M378.84,542.62c0,0-13.93,16.82-4.56,48.86l3.4-1.73c0,0-3.34-23.69,3.08-30.18"/>
<line class="st5" x1="371.33" y1="564.32" x2="377.56" y2="567.47"/>
<path class="st5" d="M396.18,539.99c0,0,12.01,10.21,16.24,17.78l-13.16,19.33"/>
<line class="st5" x1="397.85" y1="552.12" x2="408.89" y2="563.04"/>
<line class="st5" x1="403.05" y1="557.78" x2="398.94" y2="564.71"/>
<polygon class="st5" points="373.84,591.48 374.35,600.41 378.2,606.25 380.51,606.25 379.1,591.48 377.69,589.43 "/>
<path class="st5" d="M399.32,581.79c0,0,4.88,1.86,5.07,1.73c0.13-0.13,8.09-4.56,8.09-4.56l-4.17-4.43l-8.99,2.76"/>
<polyline class="st5" points="256.85,589.75 260.96,652.93 263.72,652.93 265.71,589.75 271.81,652.93 274.83,652.93 274.83,588.59 
	"/>
<polyline class="st5" points="297.56,583.52 297.56,649.46 302.7,649.46 306.61,589.75 "/>
<polyline class="st5" points="314.77,584.81 318.75,651.13 314.77,651.96 305.91,584.42 "/>
<path class="st5" d="M398.3,587.82c0,0,4.75,34.61,6.04,68.44h-3.34l-12.01-67.67"/>
<path class="st5" d="M336.4,587.12c0,0,0.9,32.17,1.8,63.95h3.79l4.49-63.24"/>
<polyline class="st5" points="356.95,587.82 356.95,651.07 352.9,651.07 347.38,587.82 "/>
<polyline class="st5" points="378.84,588.59 384.56,650.04 388.99,650.04 389.57,591.48 "/>
<polygon class="st5" points="260.58,653.5 246.26,661.72 260.58,667.76 264.49,654.02 "/>
<polygon class="st5" points="271.36,653.5 273.29,668.98 284.72,661.92 275.73,653.5 "/>
<polygon class="st5" points="297.56,650.04 288.12,658.71 298.97,662.56 303.21,650.04 "/>
<polygon class="st5" points="313.61,652.35 319.71,651.07 328.7,660.63 317.14,665.58 "/>
<polygon class="st5" points="338.39,651.58 329.28,658.32 339.36,663.91 342.89,651.96 "/>
<polygon class="st5" points="352.9,651.58 357.59,651.58 371.01,658.32 362.54,664.74 "/>
<path class="st5" d="M384.94,650.62c-0.26,0-13.16,5.14-13.16,5.14l8.67,5.2l9.12-10.34H384.94L384.94,650.62z"/>
<polygon class="st5" points="400.8,656.27 405.55,656.59 417.37,662.81 406.84,667.05 "/>
<g id="Layer_2_2_">
	<path class="st6" d="M1008.47,515.4c0,0,5.41,19.87-10.06,27.33c0,0,11.41,1.2,13.86-11.22s-3.89-16.96-3.89-16.96"/>
	<path class="st6" d="M1009.57,545.47l1.69,41.63c0,0-14.87,6-14.2,6c0.68-0.09,11.83-1.28,15.55-2.4c0,0-1.18,55.6,1.86,65.88
		c0.34,1.03,5.58,12.76,5.58,12.76l7.01-4.28l-10.73-8.48c0,0,2.28-39.06,2.28-44.12c0-4.97-1.18-23.39-1.18-23.39l-2.96-44.37
		L1009.57,545.47z"/>
	<path class="st6" d="M1000.36,593.01l-0.68,63.56l-9.29,10.54c0,0,9.13,5.31,9.29,4.97c0.17-0.26,2.2-15.68,2.2-15.68l2.79-63.48
		h-4.31V593.01z"/>
	<polygon class="st6" points="1015.06,549.75 1025.11,559.17 1016.66,578.02 1016.58,571.77 1021.48,558.66 1015.31,554.63 	"/>
</g>
<g id="Layer_1_2_">
	
		<ellipse transform="matrix(0.2699 -0.9629 0.9629 0.2699 222.9323 1351.1848)" class="st4" cx="1002.5" cy="528.58" rx="14.72" ry="10.24"/>
	<path class="st5" d="M999.51,513.69c0,0,5.24,4.2,13.18,4.97"/>
	<path class="st5" d="M997.06,515.57c0,0,7.52,5.65,16.22,6.08"/>
	<path class="st5" d="M994.95,518.14c0,0,11.83,7.02,18.34,6.17"/>
	<polyline class="st5" points="998.41,542.64 1000.19,546.58 1004.83,545.9 1004.83,541.27 	"/>
	<path class="st5" d="M989.79,548.55l24.67-3.85l2.96,44.29c0,0-15.38,6.68-25.18,2.74L989.79,548.55z"/>
	<path class="st5" d="M989.79,548.55c0,0-7.69,10.11-11.75,15.85l13.1,19.87l-5.15,3.94l1.77,1.63l4.14-0.86"/>
	<line class="st5" x1="990.39" y1="559.17" x2="981.26" y2="569.2"/>
	<path class="st5" d="M986.41,563.54c-0.25,0.26,4.9,11.99,4.9,11.99"/>
	<path class="st5" d="M1014.47,544.7c0,0,11.32,7.71,15.63,14.39l-12.76,22.02l6.42,3.34l-1.94,2.57l-4.65-0.86"/>
	<path class="st5" d="M1015.06,553.95c0,0.09,8.62,5.4,12,10.37"/>
	<path class="st5" d="M1021.73,559.17c0,0.69-5.41,13.53-5.41,13.53"/>
	<path class="st5" d="M994.78,592.5c0,0,0.84,50.54,3.46,63.9h3.63l2.79-63.48"/>
	<path class="st5" d="M1006.61,592.24l6.42,64.16h3.55c0,0,3.97-51.4,0.76-67.42"/>
	<polyline class="st5" points="1001.45,656.57 998.83,669.42 990.05,664.71 999.26,656.57 	"/>
	<polyline class="st5" points="1016.24,656.49 1025.11,662.74 1017.51,667.54 1013.03,656.49 	"/>
</g>
<g id="Layer_3_1_">
	<path class="st7" d="M994.78,515.83c7.69-0.17,15.46,0.26,23.15,1.28c-7.52,1.54-14.87,3.68-22.05,6.25
		c7.27,0.51,14.53,1.11,21.88,1.63c-8.11,2.74-16.22,5.4-24.34,8.14c7.69-0.09,15.46,0.17,23.15,0.77
		c-7.6,2.48-15.21,4.97-22.81,7.45c-1.44,0.43-3.21,1.63-2.7,3.08c0.42,1.03,1.69,1.2,2.79,1.2c7.69,0.26,15.38,0.43,23.07,0.69
		c-4.39,1.54-8.7,3.17-13.1,4.71c-2.2,0.77-4.56,1.63-6.17,3.34c10.39,0,20.87,0.43,31.26,1.28c-10.39,1.03-20.62,3.68-30.33,7.62
		c8.96,1.46,18.08,1.8,27.12,1.11c-9.97,2.14-19.94,4.28-29.91,6.42c9.29,0.94,18.59,1.97,27.88,2.91
		c-10.98,3.77-21.63,8.65-31.77,14.56c9.29-1.11,18.76-1.46,28.14-1.03c-10.73,2.31-21.72,4.8-31.26,10.37
		c11.07-0.26,22.14-1.2,33.12-3c-9.89,3.34-19.77,7.02-29.41,11.05c9.8-0.51,19.52-1.03,29.32-1.54
		c-8.62,2.83-16.98,6.6-24.84,11.22c7.94,0.34,15.89,0.69,23.74-0.26c-8.53,3-16.73,6.6-24.67,10.88c8.79-0.34,17.58-0.6,26.36-0.94
		c-9.72,3-19.18,6.42-28.56,10.28c8.53-0.26,17.07-0.6,25.6-0.86c-9.46,1.8-18.76,5.05-27.29,9.59c9.13,0.43,18.34,0.77,27.46,1.2
		c-5.58,1.88-11.15,3.77-16.82,5.65c-3.04,1.03-6.17,2.06-8.37,4.37c12.34,0.09,24.67,0.09,36.93,0.17
		c-12.76,3.51-25.94,5.14-39.04,6.77c10.82,1.71,21.8,2.31,32.7,1.63c-7.69,2.23-15.63,3.51-23.66,3.94
		c-5.15,0.26-10.73,0.26-14.79,3.51c14.36,0.86,28.9-0.6,42.84-4.45"/>
</g>
<g id="Layer_2_3_">
	<path class="st6" d="M434.82,512.4c0,0-5.07,19.87,9.42,27.33c0,0-10.69,1.2-12.98-11.22s3.64-16.96,3.64-16.96"/>
	<path class="st6" d="M433.79,542.47l-1.58,41.63c0,0,13.93,6,13.3,6c-0.63-0.09-11.08-1.28-14.56-2.4c0,0,1.11,55.6-1.74,65.88
		c-0.32,1.03-5.22,12.76-5.22,12.76l-6.57-4.28l10.05-8.48c0,0-2.14-39.06-2.14-44.12c0-4.97,1.11-23.39,1.11-23.39l2.77-44.37
		L433.79,542.47z"/>
	<path class="st6" d="M442.42,590.01l0.63,63.56l8.71,10.54c0,0-8.55,5.31-8.71,4.97c-0.16-0.26-2.06-15.68-2.06-15.68l-2.61-63.48
		h4.04V590.01z"/>
	<polygon class="st6" points="428.64,546.75 419.22,556.17 427.14,575.02 427.22,568.77 422.63,555.66 428.41,551.63 	"/>
</g>
<g id="Layer_1_3_">
	
		<ellipse transform="matrix(0.9734 -0.229 0.229 0.9734 -108.645 114.806)" class="st4" cx="440.4" cy="525.58" rx="9.63" ry="14.66"/>
	<path class="st5" d="M443.21,510.69c0,0-4.91,4.2-12.35,4.97"/>
	<path class="st5" d="M445.5,512.57c0,0-7.04,5.65-15.2,6.08"/>
	<path class="st5" d="M447.48,515.14c0,0-11.08,7.02-17.18,6.17"/>
	<polyline class="st5" points="444.24,539.64 442.57,543.58 438.22,542.9 438.22,538.27 	"/>
	<path class="st5" d="M452.31,545.55l-23.11-3.85l-2.77,44.29c0,0,14.41,6.68,23.59,2.74L452.31,545.55z"/>
	<path class="st5" d="M452.31,545.55c0,0,7.2,10.11,11,15.85l-12.27,19.87l4.83,3.94l-1.66,1.63l-3.88-0.86"/>
	<line class="st5" x1="451.76" y1="556.17" x2="460.31" y2="566.2"/>
	<path class="st5" d="M455.48,560.54c0.24,0.26-4.59,11.99-4.59,11.99"/>
	<path class="st5" d="M429.2,541.7c0,0-10.61,7.71-14.64,14.39l11.95,22.02l-6.02,3.34l1.82,2.57l4.35-0.86"/>
	<path class="st5" d="M428.64,550.95c0,0.09-8.07,5.4-11.24,10.37"/>
	<path class="st5" d="M422.39,556.17c0,0.69,5.07,13.53,5.07,13.53"/>
	<path class="st5" d="M447.64,589.5c0,0-0.79,50.54-3.25,63.9h-3.4l-2.61-63.48"/>
	<path class="st5" d="M436.56,589.24l-6.02,64.16h-3.32c0,0-3.72-51.4-0.71-67.42"/>
	<polyline class="st5" points="441.39,653.57 443.84,666.42 452.07,661.71 443.45,653.57 	"/>
	<polyline class="st5" points="427.54,653.49 419.22,659.74 426.35,664.54 430.54,653.49 	"/>
</g>
<g id="Layer_3_2_">
	<path class="st7" d="M447.64,512.83c-7.2-0.17-14.49,0.26-21.69,1.28c7.04,1.54,13.93,3.68,20.66,6.25
		c-6.81,0.51-13.61,1.11-20.5,1.63c7.6,2.74,15.2,5.4,22.8,8.14c-7.2-0.09-14.49,0.17-21.69,0.77c7.12,2.48,14.25,4.97,21.37,7.45
		c1.35,0.43,3.01,1.63,2.53,3.08c-0.4,1.03-1.58,1.2-2.61,1.2c-7.2,0.26-14.41,0.43-21.61,0.69c4.12,1.54,8.15,3.17,12.27,4.71
		c2.06,0.77,4.27,1.63,5.78,3.34c-9.74,0-19.55,0.43-29.29,1.28c9.74,1.03,19.31,3.68,28.42,7.62c-8.39,1.46-16.94,1.8-25.41,1.11
		c9.34,2.14,18.68,4.28,28.02,6.42c-8.71,0.94-17.41,1.97-26.12,2.91c10.29,3.77,20.26,8.65,29.76,14.56
		c-8.71-1.11-17.57-1.46-26.36-1.03c10.05,2.31,20.34,4.8,29.29,10.37c-10.37-0.26-20.74-1.2-31.03-3
		c9.26,3.34,18.52,7.02,27.55,11.05c-9.18-0.51-18.28-1.03-27.47-1.54c8.07,2.83,15.91,6.6,23.27,11.22
		c-7.44,0.34-14.88,0.69-22.24-0.26c7.99,3,15.67,6.6,23.11,10.88c-8.23-0.34-16.46-0.6-24.7-0.94c9.1,3,17.97,6.42,26.75,10.28
		c-7.99-0.26-15.99-0.6-23.98-0.86c8.87,1.8,17.57,5.05,25.57,9.59c-8.55,0.43-17.18,0.77-25.73,1.2
		c5.22,1.88,10.45,3.77,15.75,5.65c2.85,1.03,5.78,2.06,7.84,4.37c-11.56,0.09-23.11,0.09-34.59,0.17
		c11.95,3.51,24.3,5.14,36.57,6.77c-10.13,1.71-20.42,2.31-30.63,1.63c7.2,2.23,14.64,3.51,22.16,3.94
		c4.83,0.26,10.05,0.26,13.85,3.51c-13.46,0.86-27.07-0.6-40.13-4.45"/>
</g>
<g id="Layer_2_4_">
	<path class="st6" d="M43.82,512.4c0,0-5.07,19.87,9.42,27.33c0,0-10.69,1.2-12.98-11.22s3.64-16.96,3.64-16.96"/>
	<path class="st6" d="M42.79,542.47l-1.58,41.63c0,0,13.93,6,13.3,6c-0.63-0.09-11.08-1.28-14.56-2.4c0,0,1.11,55.6-1.74,65.88
		c-0.32,1.03-5.22,12.76-5.22,12.76l-6.57-4.28l10.05-8.48c0,0-2.14-39.06-2.14-44.12c0-4.97,1.11-23.39,1.11-23.39l2.77-44.37
		L42.79,542.47z"/>
	<path class="st6" d="M51.42,590.01l0.63,63.56l8.71,10.54c0,0-8.55,5.31-8.71,4.97c-0.16-0.26-2.06-15.68-2.06-15.68l-2.61-63.48
		h4.04V590.01z"/>
	<polygon class="st6" points="37.64,546.75 28.22,556.17 36.14,575.02 36.22,568.77 31.63,555.66 37.41,551.63 	"/>
</g>
<g id="Layer_1_4_">
	
		<ellipse transform="matrix(0.9734 -0.229 0.229 0.9734 -119.0332 25.2759)" class="st4" cx="49.4" cy="525.58" rx="9.63" ry="14.66"/>
	<path class="st5" d="M52.21,510.69c0,0-4.91,4.2-12.35,4.97"/>
	<path class="st5" d="M54.5,512.57c0,0-7.04,5.65-15.2,6.08"/>
	<path class="st5" d="M56.48,515.14c0,0-11.08,7.02-17.18,6.17"/>
	<polyline class="st5" points="53.24,539.64 51.57,543.58 47.22,542.9 47.22,538.27 	"/>
	<path class="st5" d="M61.31,545.55L38.2,541.7l-2.77,44.29c0,0,14.41,6.68,23.59,2.74L61.31,545.55z"/>
	<path class="st5" d="M61.31,545.55c0,0,7.2,10.11,11,15.85l-12.27,19.87l4.83,3.94l-1.66,1.63l-3.88-0.86"/>
	<line class="st5" x1="60.76" y1="556.17" x2="69.31" y2="566.2"/>
	<path class="st5" d="M64.48,560.54c0.24,0.26-4.59,11.99-4.59,11.99"/>
	<path class="st5" d="M38.2,541.7c0,0-10.61,7.71-14.64,14.39l11.95,22.02l-6.02,3.34l1.82,2.57l4.35-0.86"/>
	<path class="st5" d="M37.64,550.95c0,0.09-8.07,5.4-11.24,10.37"/>
	<path class="st5" d="M31.39,556.17c0,0.69,5.07,13.53,5.07,13.53"/>
	<path class="st5" d="M56.64,589.5c0,0-0.79,50.54-3.25,63.9h-3.4l-2.61-63.48"/>
	<path class="st5" d="M45.56,589.24l-6.02,64.16h-3.32c0,0-3.72-51.4-0.71-67.42"/>
	<polyline class="st5" points="50.39,653.57 52.84,666.42 61.07,661.71 52.45,653.57 	"/>
	<polyline class="st5" points="36.54,653.49 28.22,659.74 35.35,664.54 39.54,653.49 	"/>
</g>
<g id="Layer_3_3_">
	<path class="st7" d="M56.64,512.83c-7.2-0.17-14.49,0.26-21.69,1.28c7.04,1.54,13.93,3.68,20.66,6.25
		c-6.81,0.51-13.61,1.11-20.5,1.63c7.6,2.74,15.2,5.4,22.8,8.14c-7.2-0.09-14.49,0.17-21.69,0.77c7.12,2.48,14.25,4.97,21.37,7.45
		c1.35,0.43,3.01,1.63,2.53,3.08c-0.4,1.03-1.58,1.2-2.61,1.2c-7.2,0.26-14.41,0.43-21.61,0.69c4.12,1.54,8.15,3.17,12.27,4.71
		c2.06,0.77,4.27,1.63,5.78,3.34c-9.74,0-19.55,0.43-29.29,1.28c9.74,1.03,19.31,3.68,28.42,7.62c-8.39,1.46-16.94,1.8-25.41,1.11
		c9.34,2.14,18.68,4.28,28.02,6.42c-8.71,0.94-17.41,1.97-26.12,2.91c10.29,3.77,20.26,8.65,29.76,14.56
		c-8.71-1.11-17.57-1.46-26.36-1.03c10.05,2.31,20.34,4.8,29.29,10.37c-10.37-0.26-20.74-1.2-31.03-3
		c9.26,3.34,18.52,7.02,27.55,11.05c-9.18-0.51-18.28-1.03-27.47-1.54c8.07,2.83,15.91,6.6,23.27,11.22
		c-7.44,0.34-14.88,0.69-22.24-0.26c7.99,3,15.67,6.6,23.11,10.88c-8.23-0.34-16.46-0.6-24.7-0.94c9.1,3,17.97,6.42,26.75,10.28
		c-7.99-0.26-15.99-0.6-23.98-0.86c8.87,1.8,17.57,5.05,25.57,9.59c-8.55,0.43-17.18,0.77-25.73,1.2
		c5.22,1.88,10.45,3.77,15.75,5.65c2.85,1.03,5.78,2.06,7.84,4.37c-11.56,0.09-23.11,0.09-34.59,0.17
		c11.95,3.51,24.3,5.14,36.57,6.77c-10.13,1.71-20.42,2.31-30.63,1.63c7.2,2.23,14.64,3.51,22.16,3.94
		c4.83,0.26,10.05,0.26,13.85,3.51c-13.46,0.86-27.07-0.6-40.13-4.45"/>
</g>
<g id="Layer_2_1_">
	<path class="st6" d="M1109.49,106.7c-2.37,1.91-30.9,35.65-30.9,35.65s-1.15,12.32,0,11.4s38.48-45.28,38.48-45.28L1109.49,106.7z"
		/>
</g>
<g id="Layer_1_1_">
	<ellipse class="st5" cx="1016.48" cy="76.64" rx="10.71" ry="17.06"/>
	<polyline class="st5" points="1019.92,92.78 1019.92,97.67 1013.35,97.67 1013.35,92.93 	"/>
	<polygon class="st5" points="1030.48,97.67 1001.79,97.67 1004.7,154.51 1027.19,154.51 	"/>
	<polyline class="st5" points="1001.79,97.67 990.86,124.14 993.3,159.25 997.66,159.25 999.04,127.12 1002.71,116.42 	"/>
	<polyline class="st5" points="997.59,159.17 1000.72,164.68 998.35,166.06 995.83,163.38 995.22,174.85 990.17,170.11 
		993.23,159.17 	"/>
	<line class="st5" x1="999.04" y1="127.12" x2="990.86" y2="124.14"/>
	<polyline class="st5" points="1030.4,97.67 1041.34,124.14 1038.89,159.25 1034.46,159.25 1033.16,127.12 1029.41,116.42 	"/>
	<polyline class="st5" points="1034.53,159.17 1031.4,164.68 1033.84,166.06 1036.29,163.38 1036.98,174.85 1041.95,170.11 
		1038.89,159.17 	"/>
	<line class="st5" x1="1033.16" y1="127.12" x2="1041.34" y2="124.14"/>
	<polyline class="st5" points="1027.19,154.51 1039.2,241.17 1025.28,249.28 1005.39,249.28 994.22,240.41 1004.7,154.51 	"/>
	<polyline class="st5" points="1025.28,249.28 1039.2,255.25 1030.4,259.61 1020.69,249.28 	"/>
	<polyline class="st5" points="1010.74,249.28 1003.25,259.61 994.22,255.17 1005.39,249.28 	"/>
	<path class="st5" d="M1101.23,98.06h-9.48c-4.51,0-8.26-3.75-8.26-8.26V70.75c0-4.51,3.75-8.26,8.26-8.26h9.48
		c4.51,0,8.26,3.75,8.26,8.26V89.8C1109.49,94.39,1105.75,98.06,1101.23,98.06z"/>
	<path class="st5" d="M1083.41,79.7c0,0,5.2,2.37,8.18,1.38c2.98-1.07,6.12-1.45,10.56,0c4.44,1.45,7.34-1.68,7.34-1.68"/>
	<path class="st5" d="M1075.07,103.49c2.45-8.03,2.07-31.74,3.75-40.69c1.91-10.25,17.75-7.27,17.75-7.27s13.92-2.83,17.06,4.28
		c3.14,7.11,0.61,39.24,7.88,46.28c0,0-2.52,0.76-4.44,1.3"/>
	<path class="st5" d="M1083.41,76.95c0,0-6.04,2.37,0,7.11"/>
	<path class="st5" d="M1109.95,76.95c0,0,6.04,2.37,0,7.11"/>
	<path class="st5" d="M1092.67,98.44c-0.54-0.46-0.08,5.81-0.08,5.81l9.03,0.23v-6.12C1101.69,98.44,1094.81,100.12,1092.67,98.44z"
		/>
	<path class="st5" d="M1079.66,105.17c0,0,24.71-2.68,37.79,2.37c0,0-8.03,80.78,9.79,123.46c0,0-39.85,12.62-62.8-9.64
		c0,0,14-66.01,14-74.35S1079.66,105.17,1079.66,105.17z"/>
	<polygon class="st5" points="1105.52,105.4 1078.44,139.13 1077.9,152.29 1116.61,108.38 	"/>
	<polyline class="st5" points="1052.2,75.57 1041.8,85.51 1063.14,119.93 1078.44,116.19 1079.66,105.17 1069.72,101.5 
		1067.5,75.57 1060.23,72.89 	"/>
	<path class="st5" d="M1054.27,66.47l-4.13-6.65l4.9-19.81h1.76v11.32c0,0,3.44,3.75,3.9,3.44s2.52-1.45,2.52-1.45l1.3,3.29
		l-5.97,9.94l3.14,11.78l-4.36,5.74l-5.58-2.91L1054.27,66.47z"/>
	<polyline class="st5" points="1051.67,53.23 1058.25,56.22 1059.09,60.12 	"/>
	<polyline class="st5" points="1050.75,56.98 1054.96,59.2 1055.72,62.49 	"/>
	<polygon class="st5" points="1139.17,152.29 1121.43,163.3 1116.3,123.91 1117.91,109.3 	"/>
	<polyline class="st5" points="1128.16,159.86 1132.52,167.36 1140.32,170.72 1143.23,168.96 1133.9,155.81 	"/>
	<polyline class="st5" points="1128.16,159.86 1126.71,165.6 1127.93,168.58 1129.15,168.58 1131.07,164.38 	"/>
	<polyline class="st5" points="1084.56,233.06 1087.08,244.54 1088.61,244.54 1091.14,233.98 	"/>
	<polyline class="st5" points="1110.18,234.9 1107.66,246.3 1106.13,246.3 1103.3,234.59 	"/>
	<polygon class="st5" points="1087.01,244.54 1067.2,247.06 1074.92,255.09 1089.68,247.06 	"/>
	<polygon class="st5" points="1107.74,246.3 1127.55,248.82 1119.82,256.85 1105.06,248.82 	"/>
	<ellipse class="st5" cx="1059.24" cy="300.84" rx="14" ry="20.73"/>
	<path class="st5" d="M1039.28,327.68c0,0,19.05-12.24,37.86,0l5.51,54.46c0,0-32.36,12.09-48.34,0L1039.28,327.68z"/>
	<path class="st5" d="M1036.37,383.52l5.58,11.86c0,0,12.39,3.9,30.75,0l5.66-11.86"/>
	<path class="st5" d="M1039.2,328.6l-17.29,51.25l-15.6,3.75c0,0,1.61,4.44,2.07,3.98c0.46-0.46,14.38-1.45,14.38-1.45l4.67,2.45
		l3.06-2.29l-2.45-5.12l8.64-25.4"/>
	<path class="st5" d="M1077.22,328.3l17.75,51.48l15.6,3.75c0,0-1.61,4.44-2.07,3.98c-0.46-0.46-14.38-1.45-14.38-1.45l-4.67,2.45
		l-3.06-2.29l2.45-5.12l-8.72-24.63"/>
	
		<ellipse transform="matrix(0.1877 -0.9822 0.9822 0.1877 645.472 1339.3793)" class="st3" cx="1132.52" cy="279.44" rx="18.2" ry="12.24"/>
	<line class="st5" x1="1141.62" y1="289.67" x2="1144.38" y2="294.18"/>
	<path class="st5" d="M1134.89,342.37l-12.24,4.44l-6.12-3.06l11.63-43.06l20.81-8.18c0,0,10.71,14.15,17.75,57.98
		c0,0-18.74,7.42-31.13,4.36l-2.45-39.93"/>
	<path class="st5" d="M1133.59,322.87c0,0.54-4.05,15.68-9.87,23.56"/>
	<path class="st5" d="M1116.53,343.75l-15.07,4.97v11.63c0,0,15.3,12.09,24.71,12.24c9.41,0.15,32.51-2.83,35.03-7.42
		c2.52-4.59,4.36-14.3,4.36-14.3"/>
	<path class="st5" d="M1135.43,353.31c0,0-10.48-4.21-24.78-4.97"/>
	<polygon class="st5" points="1222.93,147.78 1217.12,224.19 1222.93,224.19 1233.87,147.78 	"/>
	<polygon class="st5" points="1225.46,224.19 1171.91,222.74 1172.83,235.51 1225.46,232.99 	"/>
	<polyline class="st5" points="1177.96,235.28 1181.7,280.26 1185.22,280.26 1185.22,235.51 	"/>
	<polyline class="st5" points="1222.93,233.14 1222.93,279.57 1217.12,279.57 1214.75,233.52 	"/>
	<line class="st5" x1="1185.22" y1="254.18" x2="1215.82" y2="254.18"/>
	<line class="st5" x1="1185.22" y1="259.76" x2="1216.05" y2="258.84"/>
	
		<ellipse transform="matrix(0.0297 -0.9996 0.9996 0.0297 1026.2119 1343.8176)" class="st8" cx="1205.29" cy="143.32" rx="18.59" ry="12.55"/>
	<path class="st5" d="M1199.53,213.79c-2.68,0.31-4.59,0.54-4.59,0.54s6.5-16.9,5.51-45.67c0,0,14.61-5.74,15.3-5.51
		c0.69,0.23,5.05,17.82,2.22,48.5c0,0-6.35,0.76-12.39,1.45"/>
	<path class="st5" d="M1206.33,173.4l-7.65,45.89l-11.86,1.15c0,0-0.31,1.15-0.61,2.45"/>
	<line class="st5" x1="1202.66" y1="224.19" x2="1212.22" y2="183.8"/>
	<polyline class="st5" points="1194.94,214.25 1164.42,214.86 1160.06,255.71 1169.54,257.77 1170.76,268.1 1174.97,268.1 
		1175.89,235.51 	"/>
	<path class="st5" d="M1170.76,268.1c-1.84,0.31-18.43,7.27-18.43,7.27l12.09,4.9l10.56-12.16"/>
	<polyline class="st5" points="1170.38,264.89 1149.73,266.26 1156.77,273.53 	"/>
	<line class="st5" x1="1204.73" y1="161.93" x2="1204.88" y2="166.98"/>
	<line class="st5" x1="1210.31" y1="160.24" x2="1211.15" y2="164.07"/>
	
		<ellipse transform="matrix(0.9822 -0.1877 0.1877 0.9822 -34.9827 189.549)" class="st3" cx="983.36" cy="279.49" rx="12.24" ry="18.2"/>
	<line class="st5" x1="974.26" y1="289.75" x2="971.5" y2="294.26"/>
	<path class="st5" d="M980.91,342.45l12.24,4.44l6.12-3.06l-11.63-43.06l-20.81-8.18c0,0-10.71,14.15-17.75,57.98
		c0,0,18.74,7.42,31.13,4.36l2.45-39.93"/>
	<path class="st5" d="M982.29,322.94c0,0.54,4.05,15.68,9.87,23.56"/>
	<path class="st5" d="M999.27,343.82l15.07,4.97v11.63c0,0-15.3,12.09-24.71,12.24c-9.41,0.15-32.51-2.83-35.03-7.42
		c-2.52-4.59-4.36-14.3-4.36-14.3"/>
	<path class="st5" d="M980.38,353.46c0,0,10.48-4.21,24.78-4.97"/>
	
		<ellipse transform="matrix(0.9996 -0.0297 0.0297 0.9996 -3.6965 27.1423)" class="st8" cx="911.15" cy="137.91" rx="12.55" ry="18.59"/>
	<line class="st5" x1="906.18" y1="154.81" x2="905.26" y2="158.64"/>
	<line class="st5" x1="911.69" y1="156.5" x2="911.53" y2="161.47"/>
	<path class="st5" d="M916.89,208.28c2.68,0.31,4.59,0.54,4.59,0.54s-6.5-16.9-5.51-45.67c0,0-14.61-5.74-15.3-5.51
		s-5.05,17.82-2.22,48.5c0,0,6.35,0.76,12.39,1.45"/>
	<path class="st5" d="M910.16,167.89l7.65,45.89l11.86,1.15c0,0,0.31,1.15,0.61,2.45"/>
	<line class="st5" x1="913.75" y1="218.76" x2="904.27" y2="178.37"/>
	<polyline class="st5" points="921.48,208.82 952.08,209.43 959.95,238.8 948.33,240.48 945.65,262.67 941.52,262.67 940.53,230.08 
			"/>
	<path class="st5" d="M945.65,262.67c1.84,0.31,18.43,7.27,18.43,7.27l-12.09,4.9l-10.56-12.16"/>
	<polyline class="st5" points="946.03,259.45 966.69,260.83 959.72,268.1 	"/>
	<polygon class="st5" points="893.56,142.35 899.37,218.76 893.56,218.76 882.62,142.35 	"/>
	<polygon class="st5" points="890.96,218.76 944.5,217.31 943.58,230.08 890.96,227.56 	"/>
	<polyline class="st5" points="938.46,229.85 934.71,274.83 931.27,274.83 931.27,230.08 	"/>
	<polyline class="st5" points="893.56,227.63 893.56,274.14 899.37,274.14 901.67,228.09 	"/>
	<line class="st5" x1="931.27" y1="248.75" x2="900.6" y2="248.75"/>
	<line class="st5" x1="931.27" y1="254.33" x2="900.37" y2="253.41"/>
</g>
<g id="Layer_4">
	<path class="st9" d="M1101.85,105.78c8.72,0.23,17.36,0.46,26.08,0.69c-11.17,1.07-22.41,0.99-33.66,0.92
		c8.64,1.91,17.52,2.75,26.39,2.45c-8.34,0.61-16.6,1.84-24.78,3.67c8.03,0.46,16.06,0.92,24.09,1.45
		c-10.02-0.08-20.04,0.31-30.06,1.22c0.38,1.38,2.14,1.68,3.6,1.68c5.43,0.15,10.86,0.23,16.29,0.38c-7.65,0-15.3,0.46-22.87,1.45
		c7.19,3.06,15.45,0.92,23.18,1.99c-10.79,0.23-21.57,1.45-32.13,3.75c9.41,1.15,18.89,1.76,28.38,1.99
		c-9.33,1.53-19.2-0.46-28.3,2.29c8.34,1.38,16.83,1.76,25.24,1.3c-9.18,0.46-18.36,0.99-27.46,1.45c7.19,0.46,14.3,0.92,21.49,1.3
		c-8.34,1.61-16.68,3.21-25.01,4.82c7.57,0.69,15.15,1.3,22.72,1.99c-5.58,0.92-11.17,1.91-16.75,2.83
		c4.82-0.76,9.79-1.07,14.69-0.84c-6.73,1.53-13.62,2.68-20.5,3.37c4.9-0.31,9.87-0.38,14.76-0.31c-5.2,0.38-10.4,1.38-15.37,3.06
		c7.73,1.84,15.83,2.22,23.71,0.99"/>
</g>
<g id="Layer_2_5_">
	<path class="st6" d="M447.5,102.7c-2.37,1.91-30.9,35.65-30.9,35.65s-1.15,12.32,0,11.4s38.48-45.28,38.48-45.28L447.5,102.7z"/>
</g>
<g id="Layer_1_5_">
	<ellipse class="st5" cx="354.48" cy="72.64" rx="10.71" ry="17.06"/>
	<polyline class="st5" points="357.92,88.78 357.92,93.67 351.35,93.67 351.35,88.93 	"/>
	<polygon class="st5" points="368.48,93.67 339.79,93.67 342.7,150.51 365.19,150.51 	"/>
	<polyline class="st5" points="339.79,93.67 328.86,120.14 331.3,155.25 335.66,155.25 337.04,123.12 340.71,112.42 	"/>
	<polyline class="st5" points="335.59,155.17 338.72,160.68 336.35,162.06 333.83,159.38 333.22,170.85 328.17,166.11 
		331.23,155.17 	"/>
	<line class="st5" x1="337.04" y1="123.12" x2="328.86" y2="120.14"/>
	<polyline class="st5" points="368.4,93.67 379.34,120.14 376.89,155.25 372.46,155.25 371.16,123.12 367.41,112.42 	"/>
	<polyline class="st5" points="372.53,155.17 369.4,160.68 371.84,162.06 374.29,159.38 374.98,170.85 379.95,166.11 376.89,155.17 
			"/>
	<line class="st5" x1="371.16" y1="123.12" x2="379.34" y2="120.14"/>
	<polyline class="st5" points="365.19,150.51 377.2,237.17 363.28,245.28 343.39,245.28 332.22,236.41 342.7,150.51 	"/>
	<polyline class="st5" points="363.28,245.28 377.2,251.25 368.4,255.61 358.69,245.28 	"/>
	<polyline class="st5" points="348.74,245.28 341.25,255.61 332.22,251.17 343.39,245.28 	"/>
	<path class="st5" d="M439.23,94.06h-9.48c-4.51,0-8.26-3.75-8.26-8.26V66.75c0-4.51,3.75-8.26,8.26-8.26h9.48
		c4.51,0,8.26,3.75,8.26,8.26V85.8C447.5,90.39,443.75,94.06,439.23,94.06z"/>
	<path class="st5" d="M421.41,75.7c0,0,5.2,2.37,8.18,1.38c2.98-1.07,6.12-1.45,10.56,0c4.44,1.45,7.34-1.68,7.34-1.68"/>
	<path class="st5" d="M413.07,99.49c2.45-8.03,2.07-31.74,3.75-40.69c1.91-10.25,17.75-7.27,17.75-7.27s13.92-2.83,17.06,4.28
		c3.14,7.11,0.61,39.24,7.88,46.28c0,0-2.52,0.76-4.44,1.3"/>
	<path class="st5" d="M421.41,72.95c0,0-6.04,2.37,0,7.11"/>
	<path class="st5" d="M447.95,72.95c0,0,6.04,2.37,0,7.11"/>
	<path class="st5" d="M430.67,94.44c-0.54-0.46-0.08,5.81-0.08,5.81l9.03,0.23v-6.12C439.69,94.44,432.81,96.12,430.67,94.44z"/>
	<path class="st5" d="M417.66,101.17c0,0,24.71-2.68,37.79,2.37c0,0-8.03,80.78,9.79,123.46c0,0-39.85,12.62-62.8-9.64
		c0,0,14-66.01,14-74.35S417.66,101.17,417.66,101.17z"/>
	<polygon class="st5" points="443.52,101.4 416.44,135.13 415.9,148.29 454.61,104.38 	"/>
	<polyline class="st5" points="390.2,71.57 379.8,81.51 401.14,115.93 416.44,112.19 417.66,101.17 407.72,97.5 405.5,71.57 
		398.23,68.89 	"/>
	<path class="st5" d="M392.27,62.47l-4.13-6.65l4.9-19.81h1.76v11.32c0,0,3.44,3.75,3.9,3.44s2.52-1.45,2.52-1.45l1.3,3.29
		l-5.97,9.94l3.14,11.78l-4.36,5.74l-5.58-2.91L392.27,62.47z"/>
	<polyline class="st5" points="389.67,49.23 396.25,52.22 397.09,56.12 	"/>
	<polyline class="st5" points="388.75,52.98 392.96,55.2 393.72,58.49 	"/>
	<polygon class="st5" points="477.17,148.29 459.43,159.3 454.3,119.91 455.91,105.3 	"/>
	<polyline class="st5" points="466.16,155.86 470.52,163.36 478.32,166.72 481.23,164.96 471.9,151.81 	"/>
	<polyline class="st5" points="466.16,155.86 464.71,161.6 465.93,164.58 467.15,164.58 469.07,160.38 	"/>
	<polyline class="st5" points="422.56,229.06 425.08,240.54 426.61,240.54 429.14,229.98 	"/>
	<polyline class="st5" points="448.18,230.9 445.66,242.3 444.13,242.3 441.3,230.59 	"/>
	<polygon class="st5" points="425.01,240.54 405.2,243.06 412.92,251.09 427.68,243.06 	"/>
	<polygon class="st5" points="445.74,242.3 465.55,244.82 457.82,252.85 443.06,244.82 	"/>
	<ellipse class="st5" cx="397.24" cy="296.84" rx="14" ry="20.73"/>
	<path class="st5" d="M377.28,323.68c0,0,19.05-12.24,37.86,0l5.51,54.46c0,0-32.36,12.09-48.34,0L377.28,323.68z"/>
	<path class="st5" d="M374.37,379.52l5.58,11.86c0,0,12.39,3.9,30.75,0l5.66-11.86"/>
	<path class="st5" d="M377.2,324.6l-17.29,51.25l-15.6,3.75c0,0,1.61,4.44,2.07,3.98c0.46-0.46,14.38-1.45,14.38-1.45l4.67,2.45
		l3.06-2.29l-2.45-5.12l8.64-25.4"/>
	<path class="st5" d="M415.22,324.3l17.75,51.48l15.6,3.75c0,0-1.61,4.44-2.07,3.98c-0.46-0.46-14.38-1.45-14.38-1.45l-4.67,2.45
		l-3.06-2.29l2.45-5.12l-8.72-24.63"/>
	
		<ellipse transform="matrix(0.1877 -0.9822 0.9822 0.1877 111.6616 685.8969)" class="st3" cx="470.52" cy="275.44" rx="18.2" ry="12.24"/>
	<line class="st5" x1="479.62" y1="285.67" x2="482.38" y2="290.18"/>
	<path class="st5" d="M472.89,338.37l-12.24,4.44l-6.12-3.06l11.63-43.06l20.81-8.18c0,0,10.71,14.15,17.75,57.98
		c0,0-18.74,7.42-31.13,4.36l-2.45-39.93"/>
	<path class="st5" d="M471.59,318.87c0,0.54-4.05,15.68-9.87,23.56"/>
	<path class="st5" d="M454.53,339.75l-15.07,4.97v11.63c0,0,15.3,12.09,24.71,12.24c9.41,0.15,32.51-2.83,35.03-7.42
		c2.52-4.59,4.36-14.3,4.36-14.3"/>
	<path class="st5" d="M473.43,349.31c0,0-10.48-4.21-24.78-4.97"/>
	<polygon class="st5" points="560.93,143.78 555.12,220.19 560.93,220.19 571.87,143.78 	"/>
	<polygon class="st5" points="563.46,220.19 509.91,218.74 510.83,231.51 563.46,228.99 	"/>
	<polyline class="st5" points="515.96,231.28 519.7,276.26 523.22,276.26 523.22,231.51 	"/>
	<polyline class="st5" points="560.93,229.14 560.93,275.57 555.12,275.57 552.75,229.52 	"/>
	<line class="st5" x1="523.22" y1="250.18" x2="553.82" y2="250.18"/>
	<line class="st5" x1="523.22" y1="255.76" x2="554.05" y2="254.84"/>
	
		<ellipse transform="matrix(0.0297 -0.9996 0.9996 0.0297 387.8862 678.2289)" class="st8" cx="543.29" cy="139.32" rx="18.59" ry="12.55"/>
	<path class="st5" d="M537.53,209.79c-2.68,0.31-4.59,0.54-4.59,0.54s6.5-16.9,5.51-45.67c0,0,14.61-5.74,15.3-5.51
		s5.05,17.82,2.22,48.5c0,0-6.35,0.76-12.39,1.45"/>
	<path class="st5" d="M544.33,169.4l-7.65,45.89l-11.86,1.15c0,0-0.31,1.15-0.61,2.45"/>
	<line class="st5" x1="540.66" y1="220.19" x2="550.22" y2="179.8"/>
	<polyline class="st5" points="532.94,210.25 502.42,210.86 498.06,251.71 507.54,253.77 508.76,264.1 512.97,264.1 513.89,231.51 	
		"/>
	<path class="st5" d="M508.76,264.1c-1.84,0.31-18.43,7.27-18.43,7.27l12.09,4.9l10.56-12.16"/>
	<polyline class="st5" points="508.38,260.89 487.73,262.26 494.77,269.53 	"/>
	<line class="st5" x1="542.73" y1="157.93" x2="542.88" y2="162.98"/>
	<line class="st5" x1="548.31" y1="156.24" x2="549.15" y2="160.07"/>
	
		<ellipse transform="matrix(0.9822 -0.1877 0.1877 0.9822 -45.9986 65.2173)" class="st3" cx="321.36" cy="275.49" rx="12.24" ry="18.2"/>
	<line class="st5" x1="312.26" y1="285.75" x2="309.5" y2="290.26"/>
	<path class="st5" d="M318.91,338.45l12.24,4.44l6.12-3.06l-11.63-43.06l-20.81-8.18c0,0-10.71,14.15-17.75,57.98
		c0,0,18.74,7.42,31.13,4.36l2.45-39.93"/>
	<path class="st5" d="M320.29,318.94c0,0.54,4.05,15.68,9.87,23.56"/>
	<path class="st5" d="M337.27,339.82l15.07,4.97v11.63c0,0-15.3,12.09-24.71,12.24s-32.51-2.83-35.03-7.42
		c-2.52-4.59-4.36-14.3-4.36-14.3"/>
	<path class="st5" d="M318.38,349.46c0,0,10.48-4.21,24.78-4.97"/>
	
		<ellipse transform="matrix(0.9996 -0.0297 0.0297 0.9996 -3.8701 7.4645)" class="st8" cx="249.15" cy="133.91" rx="12.55" ry="18.59"/>
	<line class="st5" x1="244.18" y1="150.81" x2="243.26" y2="154.64"/>
	<line class="st5" x1="249.69" y1="152.5" x2="249.53" y2="157.47"/>
	<path class="st5" d="M254.89,204.28c2.68,0.31,4.59,0.54,4.59,0.54s-6.5-16.9-5.51-45.67c0,0-14.61-5.74-15.3-5.51
		c-0.69,0.23-5.05,17.82-2.22,48.5c0,0,6.35,0.76,12.39,1.45"/>
	<path class="st5" d="M248.16,163.89l7.65,45.89l11.86,1.15c0,0,0.31,1.15,0.61,2.45"/>
	<line class="st5" x1="251.75" y1="214.76" x2="242.27" y2="174.37"/>
	<polyline class="st5" points="259.48,204.82 290.08,205.43 297.95,234.8 286.33,236.48 283.65,258.67 279.52,258.67 278.53,226.08 
			"/>
	<path class="st5" d="M283.65,258.67c1.84,0.31,18.43,7.27,18.43,7.27l-12.09,4.9l-10.56-12.16"/>
	<polyline class="st5" points="284.03,255.45 304.69,256.83 297.72,264.1 	"/>
	<polygon class="st5" points="231.56,138.35 237.37,214.76 231.56,214.76 220.62,138.35 	"/>
	<polygon class="st5" points="228.96,214.76 282.5,213.31 281.58,226.08 228.96,223.56 	"/>
	<polyline class="st5" points="276.46,225.85 272.71,270.83 269.27,270.83 269.27,226.08 	"/>
	<polyline class="st5" points="231.56,223.63 231.56,270.14 237.37,270.14 239.67,224.09 	"/>
	<line class="st5" x1="269.27" y1="244.75" x2="238.6" y2="244.75"/>
	<line class="st5" x1="269.27" y1="250.33" x2="238.37" y2="249.41"/>
</g>
<g id="Layer_4_1_">
	<path class="st9" d="M439.85,101.78c8.72,0.23,17.36,0.46,26.08,0.69c-11.17,1.07-22.41,0.99-33.66,0.92
		c8.64,1.91,17.52,2.75,26.39,2.45c-8.34,0.61-16.6,1.84-24.78,3.67c8.03,0.46,16.06,0.92,24.09,1.45
		c-10.02-0.08-20.04,0.31-30.06,1.22c0.38,1.38,2.14,1.68,3.6,1.68c5.43,0.15,10.86,0.23,16.29,0.38c-7.65,0-15.3,0.46-22.87,1.45
		c7.19,3.06,15.45,0.92,23.18,1.99c-10.79,0.23-21.57,1.45-32.13,3.75c9.41,1.15,18.89,1.76,28.38,1.99
		c-9.33,1.53-19.2-0.46-28.3,2.29c8.34,1.38,16.83,1.76,25.24,1.3c-9.18,0.46-18.36,0.99-27.46,1.45c7.19,0.46,14.3,0.92,21.49,1.3
		c-8.34,1.61-16.68,3.21-25.01,4.82c7.57,0.69,15.15,1.3,22.72,1.99c-5.58,0.92-11.17,1.91-16.75,2.83
		c4.82-0.76,9.79-1.07,14.69-0.84c-6.73,1.53-13.62,2.68-20.5,3.37c4.9-0.31,9.87-0.38,14.76-0.31c-5.2,0.38-10.4,1.38-15.37,3.06
		c7.73,1.84,15.83,2.22,23.71,0.99"/>
</g>
<line class="st10" x1="726.65" y1="146.59" x2="726.65" y2="264.84"/>
<line class="st10" x1="665.52" y1="203.69" x2="782.04" y2="203.69"/>
</svg>
