<?xml version="1.0" encoding="utf-8"?>
<!-- Generator: Adobe Illustrator 24.0.0, SVG Export Plug-In . SVG Version: 6.00 Build 0)  -->
<svg version="1.1" id="Layer_1" xmlns="http://www.w3.org/2000/svg" xmlns:xlink="http://www.w3.org/1999/xlink" x="0px" y="0px"
	 viewBox="0 0 541 119" style="enable-background:new 0 0 541 119;" xml:space="preserve">
<style type="text/css">
	.st0{fill:none;stroke:#FFFFFF;stroke-width:2;stroke-miterlimit:10;}
	.st1{fill:none;}
	.st2{fill:#FFFFFF;}
	.st3{font-family:'MyriadPro-Regular';}
	.st4{font-size:60px;}
</style>
<polyline class="st0" points="428.73,14.72 435.43,56.52 427.43,68.02 445.73,94.72 456.23,95.52 460.43,89.12 460.53,56.52 
	471.33,52.52 469.33,43.52 456.23,50.22 449.33,10.72 "/>
<polyline class="st0" points="517.03,14.72 510.23,56.52 518.33,68.02 500.03,94.72 489.53,95.52 485.33,89.12 485.23,56.52 
	474.43,52.52 476.33,43.52 489.53,50.22 496.33,10.72 "/>
<path class="st0" d="M429.13,69.32c-1.7,2-4.5,6.3-5.5,12.3c-1.3,8.7,5.7,12.3,6.7,16.3s8.6,14.3,15.1,10.3s12.6-5,14.9-5
	c2.3,0,9.6-3.3,9.6-3.3l22.6,5c0,0,16.9-1.3,19-2.5s5.8-4.8,7.4-12.5c1.7-7.7,0-17.3,0-17.3s-0.8-1.2-1.8-2.8"/>
<path class="st0" d="M478.83,54.32c-2.6,0-5.1,0-6.6,0c-1.2,0-2.8-0.3-4.4-0.6"/>
<line class="st0" x1="450.73" y1="95.12" x2="439.53" y2="74.42"/>
<line class="st0" x1="456.23" y1="95.52" x2="445.23" y2="70.52"/>
<line class="st0" x1="458.93" y1="91.52" x2="452.93" y2="69.92"/>
<line class="st0" x1="486.83" y1="91.52" x2="492.73" y2="69.92"/>
<line class="st0" x1="489.53" y1="95.52" x2="500.53" y2="70.52"/>
<line class="st0" x1="495.03" y1="95.12" x2="506.23" y2="74.42"/>
<path class="st0" d="M434.83,95.32c0,0,0,4.7,2.2,7"/>
<path class="st0" d="M437.03,91.12c0,0,0.5,7.5,5,11.2"/>
<path class="st0" d="M473.73,61.12c0,0,3.7-0.4,6.1,0"/>
<path class="st0" d="M481.43,65.92c-0.4-0.3-7.8-2.3-10.1-1.3"/>
<path class="st0" d="M468.83,87.62c0,0,4.3,3.5,7.2,3.1"/>
<path class="st0" d="M467.13,91.52c0.5,0,4.8,3.2,7.1,3.1"/>
<path class="st0" d="M508.73,97.82c0,0,3.4-3.2,3.6-6.4"/>
<path class="st0" d="M504.23,99.12c0,0,5.1-5.6,4.6-11.3"/>
<path class="st0" d="M64,34.66c0,0-6.43-1.12-10.04-1.25s-7.88-0.66-9.85,0.59c-1.97,1.25-10.44,4.73-11.29,4.99
	c-0.85,0.26-5.45,2.23-5.45,2.23l-9.52,4.73l-4.59,6.5c0,0-4.27,3.68-4.27,8.4s0,5.12,0,9.52c0,4.4-0.79,24.42,12.4,27.83
	s20.74,12.01,31.9,11.35c11.16-0.66,23.63-1.97,23.63-1.97s4.59,1.64,10.5-1.31c5.91-2.95,11.16-3.08,13.46-6.76
	c2.3-3.68,2.3-6.1,4.92-9.85c2.63-3.68,3.94-3.35,5.25-6.96s0-12.47,0-12.47s-1.31-16.54-7.88-20.94s-7.88-6.37-10.17-8.34
	c-2.3-1.97-6.56-2.82-9.85-3.41c-3.28-0.53-8.53,3.54-11.16,1.51C69.32,36.96,64,34.66,64,34.66z"/>
<path class="st0" d="M18.45,84.21c0,0,1.44,5.38,6.56,8.53"/>
<path class="st0" d="M19.96,82.64c0,0,3.28,6.83,6.69,8.01"/>
<path class="st0" d="M30.46,48.51c0,0-4.73,4-6.24,8.66"/>
<path class="st0" d="M26.66,48.51c0,0-2.63,0.72-4.07,4.33"/>
<path class="st0" d="M42.41,75.29c0,0,2.76,5.05,5.91,6.24"/>
<path class="st0" d="M41.1,78.37c0,0,1.84,4,4.27,4.66"/>
<path class="st0" d="M67.48,96.29c0,0,7.15,2.49,11.55-2.43"/>
<path class="st0" d="M67.87,99.9c0,0,6.76,2.63,11.16-2.03"/>
<path class="st0" d="M98.53,64.85c0,0,0.79,6.04-2.3,9.25"/>
<path class="st0" d="M100.82,62.88c0,0,1.58,9.98-3.41,13.91"/>
<path class="st0" d="M76.08,50.67c0,0,3.28,0.2,3.94,2.17"/>
<path class="st0" d="M75.42,48.51c0,0,4.73-1.97,7.35,2.17"/>
<path class="st0" d="M77.33,67.35c0,0-0.92,4.07-4.66,5.05"/>
<path class="st0" d="M79.43,69.31c0,0-1.31,4.4-4.73,4.99"/>
<polyline class="st0" points="239.45,7 244.65,36 258.75,36 266.05,2.6 "/>
<path class="st0" d="M243.95,36l-10.3,3.5c0,0-8.5,16-7.7,16.2s7.7,4.2,8.2,3.8s11.9-10.8,12.5-10.8c0.5,0,40.9,7.7,40.9,7.7
	l8.7-8.6L258.95,36"/>
<line class="st0" x1="291.75" y1="51.4" x2="261.85" y2="42.7"/>
<ellipse class="st0" cx="257.45" cy="64" rx="2.8" ry="3.2"/>
<ellipse class="st0" cx="244.45" cy="77.7" rx="2.6" ry="3"/>
<circle class="st0" cx="256.55" cy="75" r="0.8"/>
<ellipse class="st0" cx="269.25" cy="74.5" rx="2.7" ry="3.1"/>
<ellipse class="st0" cx="261.45" cy="87.6" rx="3" ry="3.8"/>
<ellipse class="st0" cx="247.65" cy="97.2" rx="2.5" ry="2.9"/>
<circle class="st0" cx="275.95" cy="84" r="0.8"/>
<circle class="st0" cx="260.95" cy="101" r="0.8"/>
<rect x="154.73" y="44.39" class="st1" width="56.57" height="51"/>
<text transform="matrix(1 0 0 1 154.7251 86.9902)" class="st2 st3 st4">+</text>
<rect x="342.73" y="44.39" class="st1" width="56.57" height="51"/>
<text transform="matrix(1 0 0 1 342.7251 86.9902)" class="st2 st3 st4">+</text>
</svg>
