<?xml version="1.0" encoding="utf-8"?>
<!-- Generator: Adobe Illustrator 19.2.1, SVG Export Plug-In . SVG Version: 6.00 Build 0)  -->
<svg version="1.0" id="Layer_1" xmlns="http://www.w3.org/2000/svg" xmlns:xlink="http://www.w3.org/1999/xlink" x="0px" y="0px"
	 width="432px" height="432px" viewBox="0 0 432 432" enable-background="new 0 0 432 432" xml:space="preserve">
<path fill="none" stroke="#000000" stroke-width="2" stroke-miterlimit="10" d="M159.2,241.5l11.2-10.5l8.2,2.2l5-5.8H195l12.8,3
	c0,0,9.2-5.2,9.8-6s8.2,0,8.2,0l9,8.3l11.8-2.8h9.8l7,6.5l10.5,5"/>
<polyline fill="none" stroke="#000000" stroke-width="2" stroke-miterlimit="10" points="189.5,227.5 183.2,196.3 197.9,228.2 
	199.2,228.5 209.2,189.8 209.7,229.4 "/>
<polyline fill="none" stroke="#000000" stroke-width="2" stroke-miterlimit="10" points="232,230.3 221.8,201.5 236.5,223.5 
	248.9,191.9 245,225.8 270.2,211.1 254,230 "/>
<polygon fill="none" stroke="#000000" stroke-width="2" stroke-miterlimit="10" points="184.2,241.5 179.6,241.5 178.9,246.6 
	187.2,246.6 "/>
<line fill="none" stroke="#000000" stroke-width="2" stroke-miterlimit="10" x1="200.4" y1="244.1" x2="205.9" y2="241.5"/>
<path fill="none" stroke="#000000" stroke-width="2" stroke-miterlimit="10" d="M200.4,248.1c0.6,0,8-4.1,8-4.1"/>
<line fill="none" stroke="#000000" stroke-width="2" stroke-miterlimit="10" x1="227" y1="238.4" x2="232.5" y2="242.8"/>
<polygon fill="none" stroke="#000000" stroke-width="2" stroke-miterlimit="10" points="251.4,242.8 246,241.5 244.1,246.1 
	248.5,248.1 "/>
</svg>
