<?xml version="1.0" encoding="utf-8"?>
<!-- Generator: Adobe Illustrator 19.2.1, SVG Export Plug-In . SVG Version: 6.00 Build 0)  -->
<svg version="1.0" id="Layer_1" xmlns="http://www.w3.org/2000/svg" xmlns:xlink="http://www.w3.org/1999/xlink" x="0px" y="0px"
	 width="432px" height="432px" viewBox="0 0 432 432" enable-background="new 0 0 432 432" xml:space="preserve">
<path fill="none" stroke="#000000" stroke-width="2" stroke-miterlimit="10" d="M104.5,257.5c0,0,109,36,224.7,0v-49
	c-115.8,36-224.7,0-224.7,0V257.5z"/>
<line fill="none" stroke="#000000" stroke-width="2" stroke-miterlimit="10" x1="107.2" y1="214.2" x2="92" y2="194.8"/>
<line fill="none" stroke="#000000" stroke-width="2" stroke-miterlimit="10" x1="107.2" y1="254" x2="92" y2="266.5"/>
<line fill="none" stroke="#000000" stroke-width="2" stroke-miterlimit="10" x1="323.9" y1="214.3" x2="339.2" y2="194.8"/>
<line fill="none" stroke="#000000" stroke-width="2" stroke-miterlimit="10" x1="323.9" y1="254" x2="339.2" y2="266.5"/>
<path fill="none" stroke="#000000" stroke-width="2" stroke-miterlimit="10" d="M112.5,131.8c0,0,71.7,69.6,208.3,66.4"/>
<path fill="none" stroke="#000000" stroke-width="2" stroke-miterlimit="10" d="M320.8,131.8c0,0-71.7,69.6-208.3,66.4"/>
<polygon fill="none" stroke="#000000" stroke-width="2" stroke-miterlimit="10" points="207.2,203.5 202,210.5 208.2,212 "/>
<polygon fill="none" stroke="#000000" stroke-width="2" stroke-miterlimit="10" points="138.4,175.2 144.1,171.5 146.2,183.2 "/>
<path fill="none" stroke="#000000" stroke-width="2" stroke-miterlimit="10" d="M83,233l5.5,2.1c0,0-6.2,8.6-6.2,7.9S83,233,83,233z
	"/>
<polygon fill="none" stroke="#000000" stroke-width="2" stroke-miterlimit="10" points="138.4,276 131.2,287 138.4,287 "/>
<polygon fill="none" stroke="#000000" stroke-width="2" stroke-miterlimit="10" points="169.2,287 177.2,287 175,296.5 "/>
<polygon fill="none" stroke="#000000" stroke-width="2" stroke-miterlimit="10" points="220.2,288.8 218.8,299 228.8,296.5 "/>
<polygon fill="none" stroke="#000000" stroke-width="2" stroke-miterlimit="10" points="253,204.5 261.5,204.5 257.2,214.3 "/>
<polygon fill="none" stroke="#000000" stroke-width="2" stroke-miterlimit="10" points="211.5,160.8 206.8,170 215.2,170 "/>
<polygon fill="none" stroke="#000000" stroke-width="2" stroke-miterlimit="10" points="281.5,177.4 278.5,186 293,183.2 "/>
<polygon fill="none" stroke="#000000" stroke-width="2" stroke-miterlimit="10" points="296.2,281.5 301.5,285 294,291.8 "/>
<polygon fill="none" stroke="#000000" stroke-width="2" stroke-miterlimit="10" points="341,244.8 348,233 349.3,246.8 "/>
<polygon fill="none" stroke="#000000" stroke-width="2" stroke-miterlimit="10" points="165.3,204.5 163.7,212 173.2,210.3 "/>
</svg>
