<?xml version="1.0" encoding="utf-8"?>
<!-- Generator: Adobe Illustrator 19.2.1, SVG Export Plug-In . SVG Version: 6.00 Build 0)  -->
<svg version="1.0" xmlns="http://www.w3.org/2000/svg" xmlns:xlink="http://www.w3.org/1999/xlink" x="0px" y="0px" width="432px"
	 height="432px" viewBox="0 0 432 432" enable-background="new 0 0 432 432" xml:space="preserve">
<g id="Layer_2">
	<path fill="#27AAE1" d="M169.8,77.1c0,0-14.8,32.2,5.5,44.2c0,0-15.1,6.3-19.2-17.7C152.5,82.5,169.8,77.1,169.8,77.1z"/>
	<polygon fill="#27AAE1" points="154.2,128 152.2,211.6 155.9,213.1 163.6,213.1 158.5,208.2 160.5,128 	"/>
	<polygon fill="#27AAE1" points="162,213.1 162,335.8 189.8,346.3 177.8,355.1 159,336.4 155.9,213.1 	"/>
</g>
<g id="Layer_1">
	<ellipse fill="none" stroke="#000000" stroke-width="2" stroke-miterlimit="10" cx="170.8" cy="99.7" rx="14.9" ry="22.7"/>
	<path fill="none" stroke="#000000" stroke-width="2" stroke-miterlimit="10" d="M161.4,79.1c0.5,0,9.8,2,18.4-0.8"/>
	<path fill="none" stroke="#000000" stroke-width="2" stroke-miterlimit="10" d="M158.5,82.4c0,0,14.1,2.2,23.6-0.6"/>
	<path fill="none" stroke="#000000" stroke-width="2" stroke-miterlimit="10" d="M155.9,85.2c2.1,0.8,19.5,3.9,27.9-1.1"/>
	<polyline fill="none" stroke="#000000" stroke-width="2" stroke-miterlimit="10" points="166.2,121.3 166.2,128 173.8,128 
		173.8,121.9 	"/>
	<path fill="none" stroke="#000000" stroke-width="2" stroke-miterlimit="10" d="M163.6,213.1c-4.4,0.2-8.9,0-11.3-1.5l2-83.6h30.4
		l-8.7,83.6c0,0-1.7,0.3-4.2,0.7"/>
	<polyline fill="none" stroke="#000000" stroke-width="2" stroke-miterlimit="10" points="163,137 159,179.3 164.8,225 172,239 
		181.2,233.2 173.8,224 179.1,224.6 179.6,220.5 172.2,218.1 169.4,179.1 174.4,140.2 	"/>
	<path fill="none" stroke="#000000" stroke-width="2" stroke-miterlimit="10" d="M155.9,213.1l3.1,122.6h6.8c0,0,4.5-61.5,7.1-97.8"
		/>
	<path fill="none" stroke="#000000" stroke-width="2" stroke-miterlimit="10" d="M174.3,218.2c0.3-4.1,0.5-6.5,0.5-6.5"/>
	<polyline fill="none" stroke="#000000" stroke-width="2" stroke-miterlimit="10" points="171.9,251 171.9,332 165.3,332 	"/>
	<polyline fill="none" stroke="#000000" stroke-width="2" stroke-miterlimit="10" points="165.8,335.8 190.8,344 178.2,351.8 
		159,335.8 	"/>
	<polyline fill="none" stroke="#000000" stroke-width="2" stroke-miterlimit="10" points="171.9,332 189.8,333.1 180.8,340.7 	"/>
	<ellipse fill="none" stroke="#000000" stroke-width="2" stroke-miterlimit="10" cx="261.2" cy="99.7" rx="14.9" ry="22.7"/>
	<polyline fill="none" stroke="#000000" stroke-width="2" stroke-miterlimit="10" points="265.8,121.3 265.8,128 258.2,128 
		258.2,121.9 	"/>
	<path fill="none" stroke="#000000" stroke-width="2" stroke-miterlimit="10" d="M268.4,213.1c4.4,0.2,8.9,0,11.3-1.5l-2-83.6h-30.4
		l-1,83.8c0,0,11.3,0.1,13.8,0.5"/>
	<polyline fill="none" stroke="#000000" stroke-width="2" stroke-miterlimit="10" points="269,137 273,179.3 267.2,225 260,239 
		250.8,233.2 258.2,224 252.9,224.6 252.4,220.5 259.8,218.1 262.6,179.1 257.6,140.2 	"/>
	<path fill="none" stroke="#000000" stroke-width="2" stroke-miterlimit="10" d="M275.1,213.1L272,335.8h-6.8c0,0-4.1-56.5-7.1-97.4
		"/>
	<path fill="none" stroke="#000000" stroke-width="2" stroke-miterlimit="10" d="M256.8,218.8c-0.2-2.2-0.3-4.3-0.4-6.2"/>
	<polyline fill="none" stroke="#000000" stroke-width="2" stroke-miterlimit="10" points="249.6,212.6 259.1,332 265.7,332 	"/>
	<polyline fill="none" stroke="#000000" stroke-width="2" stroke-miterlimit="10" points="265.2,335.8 240.2,344 252.8,351.8 
		272,335.8 	"/>
	<polyline fill="none" stroke="#000000" stroke-width="2" stroke-miterlimit="10" points="259.1,332 241.2,333.1 250.2,340.7 	"/>
</g>
<g id="Layer_3">
	<path opacity="0" fill="none" stroke="#27AAE1" stroke-width="20" stroke-miterlimit="10" d="M151.6,79.1
		c9.6-0.2,19.2-0.3,28.7-0.5c-13,3.9-25.8,8.3-38.5,13.1c8.4-0.5,16.8-0.2,25.2,1c-5.1,2.3-10.1,4.5-15.2,6.8
		c4.9-0.5,9.7-1.1,14.6-1.6c-7.8,3.8-15.8,7.2-23.9,10.2c12.2,0,24.5,0,36.7,0c-8.7,4.3-17.9,7.6-27.4,10c5.3-0.4,10.5-0.8,15.8-1.2
		c-9.5,6.5-19.4,12.3-29.6,17.6c11.5-0.2,22.9-0.4,34.4-0.6c-7.6,2.9-15.1,6.2-22.4,10c6.7-0.6,13.4-1.2,20.1-1.8
		c-10.1,3.2-19.8,7.8-28.7,13.6c6.7-0.2,13.4-0.5,20.1-0.7c-9.5,5.3-18.9,10.5-28.4,15.8c12.3,0.5,24.6,0.5,36.9,0.3
		c-7.1,2.6-14.2,5.2-21.3,7.9c11.5-0.2,23.1-0.5,34.6-0.7c-9.8,3.4-19.3,7.4-28.6,12c5.7,0,11.4-0.5,17-1.3c-7,2.5-13.7,6-19.7,10.4
		c6.7,0.7,13.4-0.1,19.8-2.1c-8.9,2.1-18.4,4.9-23.6,12.4c-1.2,1.7-2.1,3.7-2.7,5.7c8.6,0.2,17.2,0.2,25.7-0.1
		c-7.6,3.7-14.9,7.9-21.9,12.6c6.1-2,12.1-4,18.2-6c-11.8,5.7-23.5,11.4-35.3,17.1c10.5-0.3,21-0.7,31.5-1
		c-7.5,3.3-14.2,8.4-19.3,14.7c11.2,0.6,22.5-0.2,33.5-2.4c-10.8,3.7-21.3,8.2-31.3,13.6c4.6-0.3,9.1-0.6,13.7-0.9
		c-9,5-18.3,10.3-23.8,18.9c13.8-1.3,27.5-4,40.9-8c-7.5,3.7-15.1,7.4-22.6,11.1c4.1-0.3,8.2-0.6,12.3-0.8
		c-8.4,3.3-15.7,9.1-21,16.4c7.9,1.6,16.1,1.6,23.9,0c-4.8,1.9-9.3,4.3-13.5,7.3c7.1,0.5,14.2,0,21.1-1.6
		c-7.5,3.5-14.7,7.6-21.6,12.2c6.9,0.5,13.8,0.4,20.7-0.2c-9.3,3.8-18.3,8.3-27,13.5c7.5-0.2,15.1-0.4,22.6-0.6
		c-6,1.2-11.5,4.2-15.8,8.6c11.8-0.4,23.6-1,35.4-2c-9.9,2.3-19.1,7.3-26.5,14.2c6.7,1.1,13.5,2.2,20.2,1.1
		c6.7-1.1,13.3-4.7,16.3-10.7"/>
</g>
</svg>
