<?xml version="1.0" encoding="utf-8"?>
<!-- Generator: Adobe Illustrator 19.2.1, SVG Export Plug-In . SVG Version: 6.00 Build 0)  -->
<svg version="1.0" xmlns="http://www.w3.org/2000/svg" xmlns:xlink="http://www.w3.org/1999/xlink" x="0px" y="0px" width="432px"
	 height="432px" viewBox="0 0 432 432" enable-background="new 0 0 432 432" xml:space="preserve">
<g id="Layer_2">
	<path fill="#27AAE1" d="M127.1,84.6c0,0-19.1,28.3,5,51.3c0,0-17.4-2.8-19.2-23.2C111.2,92.5,125.3,84.9,127.1,84.6z"/>
	<polygon fill="#27AAE1" points="63.7,93 66.7,91.6 84.6,130 113.4,146.9 122.5,145.8 134.2,224.8 147.8,228.2 135.5,228.8 
		130.2,343.2 122.2,360.5 108,358.2 127.1,343.2 126.5,312.7 124,229.7 115.3,162.8 75.3,130.1 62.7,93.9 	"/>
	<polygon fill="#27AAE1" points="149.2,228.1 159.2,343.2 181,361 163.8,366.3 156.2,343.2 141.8,229.2 	"/>
</g>
<g id="Layer_1">
	
		<ellipse transform="matrix(0.9985 -5.423368e-02 5.423368e-02 0.9985 -5.7809 7.2527)" fill="none" stroke="#000000" stroke-width="2" stroke-miterlimit="10" cx="130.7" cy="110.1" rx="18" ry="25.9"/>
	<path fill="none" stroke="#000000" stroke-width="2" stroke-miterlimit="10" d="M116.6,87.5c0,0,12.4,3,23.7-1.7"/>
	<path fill="none" stroke="#000000" stroke-width="2" stroke-miterlimit="10" d="M114.5,91.8c0,0,15.8,3.6,30.1-1.5"/>
	<path fill="none" stroke="#000000" stroke-width="2" stroke-miterlimit="10" d="M112.1,96.5c0,0,23.9,3.8,34.4-1.9"/>
	<polyline fill="none" stroke="#000000" stroke-width="2" stroke-miterlimit="10" points="127.1,136.2 127.1,144.8 138.9,143.5 
		136.8,134.8 	"/>
	<polygon fill="none" stroke="#000000" stroke-width="2" stroke-miterlimit="10" points="113.4,146.9 155.5,141.8 159.2,227.5 
		124.5,229.7 	"/>
	<path fill="none" stroke="#000000" stroke-width="2" stroke-miterlimit="10" d="M115.7,164l-40.4-33.9c-1-2.7-13.7-39.1-13.7-39.1
		l-5-3.2l-3.1-9.1l20.4-4.5l0.6,11.3L69,91.5L86.8,125l26.7,21.9"/>
	<path fill="none" stroke="#000000" stroke-width="2" stroke-miterlimit="10" d="M74.2,80c-0.7,0-11,2-11,2L63,86.4l3.8-0.1
		l-1.2,3.2"/>
	<polyline fill="none" stroke="#000000" stroke-width="2" stroke-miterlimit="10" points="124.5,229.7 127.1,343.2 133,343.2 
		141.9,228.8 	"/>
	<polyline fill="none" stroke="#000000" stroke-width="2" stroke-miterlimit="10" points="141.9,228.8 156.2,343.2 162,343.2 
		159.2,227.5 	"/>
	<polyline fill="none" stroke="#000000" stroke-width="2" stroke-miterlimit="10" points="127.1,343.2 109.1,355.7 127.1,358.2 
		133,343.2 	"/>
	<polyline fill="none" stroke="#000000" stroke-width="2" stroke-miterlimit="10" points="156.2,343.2 164.5,363.5 181,358.2 
		162,343.2 	"/>
	<path fill="none" stroke="#000000" stroke-width="2" stroke-miterlimit="10" d="M156.3,160.6l33.4-38.8c0.5-2.8,7.2-40.8,7.2-40.8
		l4.5-4l1.6-9.5l-20.8-1.1l1.2,11.3l6.5,5l-12.1,35.9l-22,24.3"/>
	<path fill="none" stroke="#000000" stroke-width="2" stroke-miterlimit="10" d="M182.7,72.2c0.7-0.1,11.2,0.2,11.2,0.2l0.9,4.3
		l-3.8,0.5l1.7,2.9"/>
	
		<ellipse transform="matrix(5.423368e-02 -0.9985 0.9985 5.423368e-02 176.2856 406.4023)" fill="none" stroke="#000000" stroke-width="2" stroke-miterlimit="10" cx="302.7" cy="110.1" rx="25.9" ry="18"/>
	<polyline fill="none" stroke="#000000" stroke-width="2" stroke-miterlimit="10" points="306.3,136.2 306.3,144.8 294.6,143.5 
		296.6,134.8 	"/>
	<polygon fill="none" stroke="#000000" stroke-width="2" stroke-miterlimit="10" points="320,146.9 277.9,141.8 274.2,227.5 
		308.9,229.7 	"/>
	<path fill="none" stroke="#000000" stroke-width="2" stroke-miterlimit="10" d="M317.7,164l40.4-33.9c1-2.7,13.7-39.1,13.7-39.1
		l5-3.2l3.1-9.1l-20.4-4.5l-0.6,11.3l5.6,5.9L346.7,125L320,146.9"/>
	<path fill="none" stroke="#000000" stroke-width="2" stroke-miterlimit="10" d="M359.2,80c0.7,0,11,2,11,2l0.2,4.4l-3.8-0.1
		l1.2,3.2"/>
	<polyline fill="none" stroke="#000000" stroke-width="2" stroke-miterlimit="10" points="308.9,229.7 306.3,343.2 300.4,343.2 
		291.6,228.8 	"/>
	<polyline fill="none" stroke="#000000" stroke-width="2" stroke-miterlimit="10" points="291.6,228.8 277.2,343.2 271.5,343.2 
		274.2,227.5 	"/>
	<polyline fill="none" stroke="#000000" stroke-width="2" stroke-miterlimit="10" points="306.3,343.2 324.3,355.7 306.3,358.2 
		300.4,343.2 	"/>
	<polyline fill="none" stroke="#000000" stroke-width="2" stroke-miterlimit="10" points="277.2,343.2 268.9,363.5 252.4,358.2 
		271.5,343.2 	"/>
	<path fill="none" stroke="#000000" stroke-width="2" stroke-miterlimit="10" d="M277.1,160.6l-33.4-38.8
		c-0.5-2.8-7.2-40.8-7.2-40.8l-4.5-4l-1.6-9.5l20.8-1.1l-1.2,11.3l-6.5,5l12.1,35.9l22,24.3"/>
	<path fill="none" stroke="#000000" stroke-width="2" stroke-miterlimit="10" d="M250.8,72.2c-0.7-0.1-11.2,0.2-11.2,0.2l-0.9,4.3
		l3.8,0.5l-1.7,2.9"/>
	<line fill="none" stroke="#000000" stroke-width="2" stroke-miterlimit="10" x1="155.6" y1="100.7" x2="168.7" y2="87.1"/>
	<line fill="none" stroke="#000000" stroke-width="2" stroke-miterlimit="10" x1="155.6" y1="109" x2="173" y2="100.7"/>
	<line fill="none" stroke="#000000" stroke-width="2" stroke-miterlimit="10" x1="159.2" y1="115" x2="172.3" y2="115"/>
	<line fill="none" stroke="#000000" stroke-width="2" stroke-miterlimit="10" x1="267.3" y1="89.4" x2="279.7" y2="100.7"/>
	<line fill="none" stroke="#000000" stroke-width="2" stroke-miterlimit="10" x1="263.7" y1="104.8" x2="279.7" y2="109"/>
	<line fill="none" stroke="#000000" stroke-width="2" stroke-miterlimit="10" x1="263.7" y1="115" x2="277.8" y2="116.7"/>
</g>
<g id="Layer_3">
	<path opacity="0" fill="none" stroke="#27AAE1" stroke-width="20" stroke-miterlimit="10" d="M55.8,81.1
		c22.1,0.2,44.2,0.3,66.3,0.5C101.9,90.7,79.3,92.9,57.2,95c28.6-1.7,57.3-3.4,85.9-5c-25.7,5.8-51.4,11.5-77.2,17.3
		c26.5-2.2,53.1-4.4,79.6-6.6c-27.1,6.1-54.2,12.3-81.2,18.4c26.6-2,53.2-3.9,79.8-5.9c-28.7,5.2-57.3,10.5-86,15.7
		c6.4,1.9,13.3,1.6,20,1.2c19.3-1.1,38.5-2.1,57.8-3.2c-22.1,5.1-44.2,10.2-66.3,15.3c22.4-0.9,44.9-1.8,67.3-2.6
		c-16.6,5.7-33.6,10.3-50.9,13.6c15.2-0.6,30.4-0.4,45.6,0.5c-13.6,6.1-27.8,10.7-42.4,13.7c15.1,0,30.3,0,45.4,0
		c-13.5,5.8-27.4,10.5-41.7,13.8c11.6,0.2,23.1,0.3,34.7,0.5c-10.3,5-20.6,10-30.9,15c17.9-0.5,35.8,0,53.7,1.5
		c-12.8,3.9-25.8,7.1-39,9.3c6.6,0.1,13.1,0.1,19.7,0.2c-5.7,3.2-11.6,6.1-17.6,8.4c11.2,0.4,22.4,0.8,33.6,1.2
		c-16.4,11.3-34.9,19.6-54.3,24.4c27.2-0.3,54.5-0.5,81.7-0.8c-22.5,4.9-44.9,10.5-67.1,16.6c17.2-0.6,34.3-1.3,51.5-1.9
		c-16.1,7.9-32.2,15.8-48.3,23.8c19.6,0.2,39.2-0.2,58.8-1c-23.9,2.7-47.6,7.4-70.7,14.2c19.1-0.4,38.2-0.7,57.3-1.1
		c-11.9,4.2-23.8,8.5-35.8,12.7c17.8,1.9,35.7,2.5,53.6,1.8c-20.6,4.9-41.2,9.9-61.8,14.8c16.4-1.1,32.7-2.2,49.1-3.4
		c-17.7,5.4-35.9,11-50.4,22.5c20.4,2.8,41.1,0.8,61.6-1.2c-16.9,2.2-33.8,4.4-50.7,6.5c14.8,0.9,29.7,1.2,44.6,0.9
		c-17.9,2.4-35.5,7-52.2,13.8c16.5,3.3,33.3,4.8,50.1,4.4c3.2-0.1,6.5-0.2,9.5-1.6s5.4-4.2,5.3-7.5"/>
</g>
</svg>
