<?xml version="1.0" encoding="utf-8"?>
<!-- Generator: Adobe Illustrator 19.2.1, SVG Export Plug-In . SVG Version: 6.00 Build 0)  -->
<svg version="1.0" id="Layer_1" xmlns="http://www.w3.org/2000/svg" xmlns:xlink="http://www.w3.org/1999/xlink" x="0px" y="0px"
	 width="432px" height="432px" viewBox="0 0 432 432" enable-background="new 0 0 432 432" xml:space="preserve">
<path fill="none" stroke="#000000" stroke-width="2" stroke-miterlimit="10" d="M155.5,247.5l12.2,1.8c0,0,7.2-0.8,8.2-0.9
	s7.5-0.4,10,0s12.5-0.4,13.5-0.9s8.2,1,8.9,0.9s8.1-3.9,10.6-3s9,2.1,12,1.9c3-0.2,16.5,0.2,17.1,0c0.6-0.2,5.4-1.2,7.2-1
	s12.9,1,12.9,1h9.5"/>
<line fill="none" stroke="#000000" stroke-width="2" stroke-miterlimit="10" x1="191" y1="198" x2="191" y2="248.5"/>
<path fill="none" stroke="#000000" stroke-width="2" stroke-miterlimit="10" d="M190.4,198.2c0,0-11.6-9.6-11.3-13.2
	S188.2,186.2,190.4,198.2z"/>
<path fill="none" stroke="#000000" stroke-width="2" stroke-miterlimit="10" d="M202.4,185c-0.3-3.6-9,1.2-11.3,13.2"/>
<path fill="none" stroke="#000000" stroke-width="2" stroke-miterlimit="10" d="M191.1,198.2c0,0,11.6-9.6,11.3-13.2"/>
<path fill="none" stroke="#000000" stroke-width="2" stroke-miterlimit="10" d="M189,226c0,0-11.8-15.8-14-11.1S189,226,189,226z"/>
<path fill="none" stroke="#000000" stroke-width="2" stroke-miterlimit="10" d="M193.8,226c0,0,11.8-15.8,14-11.1
	S193.8,226,193.8,226z"/>
<line fill="none" stroke="#000000" stroke-width="2" stroke-miterlimit="10" x1="239" y1="198" x2="239" y2="247.2"/>
<path fill="none" stroke="#000000" stroke-width="2" stroke-miterlimit="10" d="M238.4,198.2c0,0-11.6-9.6-11.3-13.2
	S236.2,186.2,238.4,198.2z"/>
<path fill="none" stroke="#000000" stroke-width="2" stroke-miterlimit="10" d="M250.4,185c-0.3-3.6-9,1.2-11.3,13.2"/>
<path fill="none" stroke="#000000" stroke-width="2" stroke-miterlimit="10" d="M239.1,198.2c0,0,11.6-9.6,11.3-13.2"/>
<path fill="none" stroke="#000000" stroke-width="2" stroke-miterlimit="10" d="M237,226c0,0-11.8-15.8-14-11.1S237,226,237,226z"/>
<path fill="none" stroke="#000000" stroke-width="2" stroke-miterlimit="10" d="M241.8,226c0,0,11.8-15.8,14-11.1
	S241.8,226,241.8,226z"/>
</svg>
