<?xml version="1.0" encoding="utf-8"?>
<!-- Generator: Adobe Illustrator 19.2.1, SVG Export Plug-In . SVG Version: 6.00 Build 0)  -->
<svg version="1.0" xmlns="http://www.w3.org/2000/svg" xmlns:xlink="http://www.w3.org/1999/xlink" x="0px" y="0px" width="432px"
	 height="432px" viewBox="0 0 432 432" enable-background="new 0 0 432 432" xml:space="preserve">
<g id="Layer_2">
	<path fill="#27AAE1" d="M160.2,69.3c0,0-19.3,21.1-3.9,46.3c0,0-15.1-6.4-12.8-23.2S154.2,69.9,160.2,69.3z"/>
	<path fill="#27AAE1" d="M147.8,121.1L138,206l17.2,6.2h-12c0,0-12,115.8-21.8,131.5l23.7,14.2l-15.2,6.5l-13-20.8
		c0,0,11.8-72.2,12.3-101s2-34.5,2-34.5l9.2-88.2L147.8,121.1z"/>
	<path fill="#27AAE1" d="M153.4,212.7c0,0,11.6,89.3,10.8,129.3l21.3,13.5l-13.1,5.5l-11.6-19c0,0-4.4-51.3-4.8-55.1
		c-0.4-3.9-6.1-44.6-6.1-44.6l-2.4-5.5l1.7-17.8v-6.4L153.4,212.7z"/>
</g>
<g id="Layer_1">
	
		<ellipse transform="matrix(7.653460e-02 -0.9971 0.9971 7.653460e-02 55.6604 245.2897)" fill="none" stroke="#000000" stroke-width="2" stroke-miterlimit="10" cx="160.2" cy="92.6" rx="23.4" ry="16.7"/>
	<path fill="none" stroke="#000000" stroke-width="2" stroke-miterlimit="10" d="M151.2,69.8c0,0,12.7,4.7,21.3,2.7"/>
	<path fill="none" stroke="#000000" stroke-width="2" stroke-miterlimit="10" d="M148.7,73c0,0,13.5,6.8,25.7,3.3"/>
	<path fill="none" stroke="#000000" stroke-width="2" stroke-miterlimit="10" d="M145.2,76.2c0,0,14.8,9,31.5,4.2"/>
	<polyline fill="none" stroke="#000000" stroke-width="2" stroke-miterlimit="10" points="152.3,113.7 151.2,121.3 160.9,122.3 
		161.5,115.8 	"/>
	<path fill="none" stroke="#000000" stroke-width="2" stroke-miterlimit="10" d="M166.7,168.4c-2.9,21.9-5.8,43.9-5.8,43.9
		s-21.9,1.5-29.7-4l9.2-88.2l32,4.8c0,0-1.8,13.6-4,30"/>
	<path fill="none" stroke="#000000" stroke-width="2" stroke-miterlimit="10" d="M131.2,208.2c0,0-5.8,119.5-13.5,135.5h6.8
		c0,0,27.2-102.9,24.5-131.3"/>
	<path fill="none" stroke="#000000" stroke-width="2" stroke-miterlimit="10" d="M160.9,212.2c0,0,10.1,107.8,6.8,129.8h-6.8
		c0,0-6.6-92.9-13.1-107.3"/>
	<path fill="none" stroke="#000000" stroke-width="2" stroke-miterlimit="10" d="M117,343.8c0.3,0.8,13.8,18.1,13.8,18.1l14.7-6.3
		l-21-11.8"/>
	<polyline fill="none" stroke="#000000" stroke-width="2" stroke-miterlimit="10" points="160.9,342 174.2,359.5 188.2,352.8 
		167.7,342 	"/>
	<path fill="none" stroke="#000000" stroke-width="2" stroke-miterlimit="10" d="M153.4,133.3l20.7,30l39.4,4.9c0,0,0.9,0.3,2.2,0.6
		"/>
	<path fill="none" stroke="#000000" stroke-width="2" stroke-miterlimit="10" d="M219.5,169.9c3.2,0.9,6.5,1.8,6.5,1.8l-4,10.7
		l-10-5.3c0,0-41-2.7-41.8-3.8c-0.8-1.2-25-30-25-30"/>
	<line fill="none" stroke="#000000" stroke-width="2" stroke-miterlimit="10" x1="174.1" y1="163.3" x2="170.2" y2="173.2"/>
	
		<ellipse transform="matrix(0.9971 -7.653461e-02 7.653461e-02 0.9971 -6.3089 21.184)" fill="none" stroke="#000000" stroke-width="2" stroke-miterlimit="10" cx="273.2" cy="92.9" rx="16.7" ry="23.4"/>
	<polyline fill="none" stroke="#000000" stroke-width="2" stroke-miterlimit="10" points="281.2,114 282.3,121.6 272.6,122.6 
		272,116.1 	"/>
	<path fill="none" stroke="#000000" stroke-width="2" stroke-miterlimit="10" d="M266.9,169.4c2.9,21.7,5.7,43.1,5.7,43.1
		s21.9,1.5,29.7-4l-9.2-88.3l-32,4.8c0,0,1.8,13.8,4,30.4"/>
	<path fill="none" stroke="#000000" stroke-width="2" stroke-miterlimit="10" d="M302.2,208.6c0,0,5.8,119.5,13.5,135.5H309
		c0,0-27.2-102.9-24.5-131.3"/>
	<path fill="none" stroke="#000000" stroke-width="2" stroke-miterlimit="10" d="M272.6,212.6c0,0-10.1,107.8-6.8,129.8h6.8
		c0,0,6.6-92.9,13.1-107.3"/>
	<path fill="none" stroke="#000000" stroke-width="2" stroke-miterlimit="10" d="M316.5,344.1c-0.3,0.8-13.8,18.1-13.8,18.1
		l-14.7-6.3l21-11.8"/>
	<polyline fill="none" stroke="#000000" stroke-width="2" stroke-miterlimit="10" points="272.6,342.3 259.3,359.8 245.3,353.1 
		265.8,342.3 	"/>
	<path fill="none" stroke="#000000" stroke-width="2" stroke-miterlimit="10" d="M280.1,133.6l-20.7,30c0,0-34.2,2.6-36.7,2.9"/>
	<path fill="none" stroke="#000000" stroke-width="2" stroke-miterlimit="10" d="M224.4,177.3c4.9-0.3,38.2-2.7,38.9-3.8
		c0.8-1.2,25-30,25-30"/>
	<line fill="none" stroke="#000000" stroke-width="2" stroke-miterlimit="10" x1="259.4" y1="163.6" x2="263.3" y2="173.5"/>
	<path fill="none" stroke="#000000" stroke-width="2" stroke-miterlimit="10" d="M223.9,167.5l-3-3.4c0,0-7.5,6.1-7.1,6.4
		s3.1,2,3.1,2l4.2-4"/>
</g>
<g id="Layer_3">
	<path opacity="0" fill="none" stroke="#27AAE1" stroke-width="15" stroke-miterlimit="10" d="M142.9,71.1c6.4-1.8,13.1-2.1,19.6-1
		c-9.8,4.9-20.1,8.9-30.6,11.7c8.6-1.1,17.2-2.3,25.8-3.4c-7.7,3.9-15.7,7.1-23.9,9.6c9.2-0.2,18.4-0.4,27.5-0.6
		c-18.7,7.1-38.6,11.3-58.6,12.4c19.3-1,38.7,0,57.7,3c-7.9,2.5-16.1,3.9-24.4,4.3c15-0.2,29.9-0.3,44.9-0.5
		c-22.1,2.2-44.2,5.2-66.1,9c8.7,0.3,17.3,0.7,26,1c-10,3.6-20,7-30.2,10.2c16.8-0.4,33.7-0.3,50.5,0.4c-12.8,3.6-25.7,6.7-38.7,9.5
		c14.2,0.5,28.4,1,42.7,1.4c-14.8,3.1-29.4,7.1-43.7,12.1c6.5,1.3,13.2,1.7,19.8,1.3c-10.3,3.6-20.1,8.6-29,14.8
		c10.2,0,20.5,0,30.7,0c-9,1.1-17.8,4.1-25.6,8.7c6.4,0.9,12.8,1,19.2,0.5c-9.8,2.9-18.9,8.1-26.4,15c13.9,1.5,27.9,1.8,41.8,0.8
		c-8.6,3.2-16.7,7.5-24.2,12.8c9.6,0.7,19.4,0.2,28.9-1.3c-9.7,3.5-18.8,8.6-26.9,15.1c8.1-1.3,16-3.5,23.6-6.7
		c-12.1,6.4-23.9,13.6-35.1,21.5c11.4-1,22.7-2,34.1-3c-5.3,2.7-10.3,5.9-15.1,9.5c8.3-0.2,16.6-1.1,24.7-2.9
		c-14.7,7.3-29.9,13.7-45.5,19c14-2.1,28.1-3.6,42.2-4.8c-7,3.4-13.9,6.8-20.9,10.2c9.8-1.3,19.5-2.7,29.3-4
		c-16.5,6-33,12.1-49.4,18.1c18.9-0.3,37.7-0.6,56.6-0.8c-14.4,3.9-29,6.8-43.8,8.6c9.9-0.8,19.9-1.6,29.8-2.4
		c-12.8,3.3-25.7,6.7-38.5,10c11-0.6,22-1.1,32.9-1.7c-7.9,2.6-15.7,5.2-23.6,7.8c20.3,0,40.6,0,60.9-0.1
		c-31.3,7.2-63.2,11.7-95,16.1c26.1,0.3,52.1,0.7,78.2,1c-12.2,3.8-24.7,7.1-37.2,9.7c13.2-0.3,26.4-1.5,39.5-3.6
		c-26.9,5.7-54,10.6-81.1,14.7c22.9-0.7,45.7-1,68.6-0.8c-15.1,5.1-30.8,8.4-46.6,9.8c25.1,0.6,50.3,0.7,75.5,0.4
		c-31.5,1-62.9,4.2-94,9.5c19.9,1.1,39.8,1.3,59.7,0.7c-8.1,2.5-16.1,5-24.2,7.6c22.7,1.4,45.5,0.4,68-3c3-0.5,7-2.5,5.9-5.3"/>
</g>
</svg>
