<?xml version="1.0" encoding="utf-8"?>
<!-- Generator: Adobe Illustrator 19.2.1, SVG Export Plug-In . SVG Version: 6.00 Build 0)  -->
<svg version="1.0" xmlns="http://www.w3.org/2000/svg" xmlns:xlink="http://www.w3.org/1999/xlink" x="0px" y="0px" width="432px"
	 height="432px" viewBox="0 0 432 432" enable-background="new 0 0 432 432" xml:space="preserve">
<g id="Layer_2">
	<path fill="#27AAE1" d="M188.2,85.7c0,0-21.3,26.9,0.7,47c0,0-13.7-2-15.3-19.6C172,95.3,183.5,87,188.2,85.7z"/>
	<path fill="#27AAE1" d="M160.1,97.9l-11.2,26.1l18.2,20.6l0.3,78.7c0,0,3.8,70.5,8.5,99.2l-15.7,13.1l12.5,4.5l8.7-17l7-83.7
		l1.1-13.3l0.4-4.6l-11.3-6l1-76l-6.1-0.6l-19-16l7.6-23.3L160.1,97.9z"/>
	<path fill="#27AAE1" d="M198,300l2.4,23c0,0,11.1,18.3,11.5,18.3c0.5,0,11.5-6.2,11.5-6.2l-8.4-7.5l-11-5l-0.5-13.1L198,300z"/>
</g>
<g id="Layer_1">
	<ellipse fill="none" stroke="#000000" stroke-width="2" stroke-miterlimit="10" cx="189.8" cy="109.1" rx="16.5" ry="23.5"/>
	<path fill="none" stroke="#000000" stroke-width="2" stroke-miterlimit="10" d="M176.5,89.3c0,0,16.8,2,23.3-1.8"/>
	<path fill="none" stroke="#000000" stroke-width="2" stroke-miterlimit="10" d="M174.8,92.8c0,0,18.2,3.2,28-1.5"/>
	<path fill="none" stroke="#000000" stroke-width="2" stroke-miterlimit="10" d="M173.3,95.8c0,0,21.3,4.4,30.8-2"/>
	<polyline fill="none" stroke="#000000" stroke-width="2" stroke-miterlimit="10" points="184.8,131.8 184.8,138.5 194.8,138.5 
		194.8,131.5 	"/>
	<path fill="none" stroke="#000000" stroke-width="2" stroke-miterlimit="10" d="M190,221.5c-11.2,0-22.8,0-22.8,0V140l39.1-1.5
		c0,0,0.2,4.7,0.6,11.8"/>
	<path fill="none" stroke="#000000" stroke-width="2" stroke-miterlimit="10" d="M167.1,91.7c2,1.3,3.5,2.4,3.5,2.4l4.7,1.7l-1.8-5
		l-13.2-9.9l-1.6,5.1c0,0,2.1,1.5,4.6,3.1"/>
	<line fill="none" stroke="#000000" stroke-width="2" stroke-miterlimit="10" x1="162.2" y1="88.3" x2="164.5" y2="84"/>
	<polyline fill="none" stroke="#000000" stroke-width="2" stroke-miterlimit="10" points="160.5,90.9 165.9,87.9 168.2,89.6 
		164.5,94.9 	"/>
	<polyline fill="none" stroke="#000000" stroke-width="2" stroke-miterlimit="10" points="171.5,89.2 170.3,81.6 162.7,82.7 	"/>
	<polyline fill="none" stroke="#000000" stroke-width="2" stroke-miterlimit="10" points="160,86.8 157.8,95.9 162,99.7 169.6,94.1 
			"/>
	<polyline fill="none" stroke="#000000" stroke-width="2" stroke-miterlimit="10" points="161.4,99.6 154.4,123 174.4,139.7 	"/>
	<polyline fill="none" stroke="#000000" stroke-width="2" stroke-miterlimit="10" points="158.1,96.2 138,126.1 167.5,152.1 	"/>
	<line fill="none" stroke="#000000" stroke-width="2" stroke-miterlimit="10" x1="138.6" y1="126" x2="153.9" y2="122.9"/>
	<path fill="none" stroke="#000000" stroke-width="2" stroke-miterlimit="10" d="M167.2,221.5c0,0,5.1,89.5,8.8,101.5h5.3
		c0,0,7.6-96.5,8-101.2"/>
	<path fill="none" stroke="#000000" stroke-width="2" stroke-miterlimit="10" d="M197.3,293.8c1.6,15.6,3,29.2,3,29.2h6
		c0,0,0.1-2.7,0.3-8.1"/>
	<path fill="none" stroke="#000000" stroke-width="2" stroke-miterlimit="10" d="M176,323l-17.5,9.7c0,0,14.5,4.7,15,4.7
		s7.8-14.3,7.8-14.3"/>
	<path fill="none" stroke="#000000" stroke-width="2" stroke-miterlimit="10" d="M200.3,323c0,0,10.5,17,11,17l12.1-4.8"/>
	<line fill="none" stroke="#000000" stroke-width="2" stroke-miterlimit="10" x1="206.3" y1="138.5" x2="215" y2="150.5"/>
	<path fill="none" stroke="#000000" stroke-width="2" stroke-miterlimit="10" d="M229.3,178.3H215l-1,8.5c0,0,13.8,4.2,13.7,3.5
		C227.5,189.7,229.3,178.3,229.3,178.3z"/>
	<path fill="none" stroke="#000000" stroke-width="2" stroke-miterlimit="10" d="M225.2,190c-4.3,36.4-9.2,137.4,67.8,137.4
		c0,0-33,24.7-34,24.7s-57.8-7.4-66-79.8s0-122.8,0-122.8h1.8c2.4,0,41.2,2.6,41.2,2.6s-7.9,23.1-8.9,26"/>
	<line fill="none" stroke="#000000" stroke-width="2" stroke-miterlimit="10" x1="206.3" y1="323" x2="215.7" y2="327.6"/>
</g>
<g id="Layer_3">
	<path opacity="0" fill="none" stroke="#27AAE1" stroke-width="20" stroke-miterlimit="10" d="M149.6,84.9
		c16.3-0.6,32.7-0.7,49.1-0.3c-8.1,4.1-17.1,5.6-26.1,7.1c-12.1,2-24.2,4-36.3,6c22-0.7,44-1.4,66.1-2
		c-21.4,8.5-43.4,15.4-65.8,20.4c15.4-4,31.4-5.6,47.3-4.8c-17.8,4.5-35.7,9.1-53.5,13.6c20.6-3.9,41.4-6.6,62.2-8.1
		c-16.5,8.6-34.1,15.1-52.3,19.1c18.5-2.4,37.2-4,55.9-4.6c-23.2,9.2-47.5,15.3-72.3,18.4c19.4-0.5,38.8-0.9,58.2-1.4
		c-15.7,5.6-31.4,11.1-47.1,16.7c16-0.1,32.1-0.3,48.1-0.4c-12.1,4.9-24.3,9.7-36.4,14.6c15.4,0.6,30.8,0.4,46.2-0.4
		c-14.1,6.2-28.5,11.5-43.2,16.1c9,0.1,18.1,0.1,27.1,0.2c-9.4,4.4-18.7,8.7-28.1,13.1c11.1,0.3,22.2-0.1,33.3-1.4
		c-10.6,3.7-20.8,8.3-30.5,13.9c17.9,0.5,35.8,1,53.7,1.5c-15.8,11-37.6,11.9-51.9,24.8c17.9-0.4,35.8-1.7,53.5-4
		c-15.9,4.9-31.7,9.8-47.6,14.7c15.3,1.4,30.7,1.2,46-0.7c-15.8,4.5-31.8,9.1-46.3,16.9c15.8,0.7,31.6,0.2,47.3-1.3
		c-14.4,5-28.5,11-42.2,17.9c9.7-0.6,19.4-2.4,28.7-5.2c-14.8,4.1-29.2,9.9-42.7,17.3c16.3-2.3,32.6-4.1,48.9-5.4
		c-11,4.4-22,8.7-33,13.1c14.5-2.8,29-5.6,43.6-8.4c-19,7.2-37.7,15.2-56,23.9c22,0.2,44.1-0.7,66.1-2.7
		c-12.8,2.6-25.3,6.6-37.3,11.9c14.8-2.2,29.5-4.4,44.3-6.6c-14.9,2.4-29.7,5.5-44.3,9.5c12.5,0.8,25,0.7,37.5-0.1
		c2.6-0.2,5.2-0.4,7.4-1.7c2.2-1.3,3.9-3.9,3.2-6.4"/>
</g>
</svg>
