<?xml version="1.0" encoding="utf-8"?>
<!-- Generator: Adobe Illustrator 19.2.1, SVG Export Plug-In . SVG Version: 6.00 Build 0)  -->
<svg version="1.0" id="Layer_1" xmlns="http://www.w3.org/2000/svg" xmlns:xlink="http://www.w3.org/1999/xlink" x="0px" y="0px"
	 width="288px" height="288px" viewBox="0 0 288 288" enable-background="new 0 0 288 288" xml:space="preserve">
<g id="Layer_2">
	<path fill="#27AAE1" d="M155.1,72.7c0,0-21.9,13.9-9.3,36.5c0,0-14-3.9-7.7-21.6C144.2,69.8,155.1,72.7,155.1,72.7z"/>
	<path fill="#27AAE1" d="M127.7,104c0,0-22.2,24.7-25.2,48.6c0,0,14.8,22,45.7,45.1l-44.2,4.7c0,0-23.4,1.8-26.9,0
		c-3.4-1.8-4.8-2.2-4.8-2.2s-3.8,10.6-4.7,11.7s-11.8,0.7-10.1,0s14-20.5,13.2-19.9s-7,8.6-7,8.6l-6.3-3.8l14.9-12.5h4.8v1.1
		l29.4,2.7l13-2.4c0,0-13-10.7-14.9-13.2s-9-14-9-14l-2.3-3.1l8.4-22.6l12.4-20.9l10.1-10.7L127.7,104z"/>
</g>
<g id="Layer_1_1_">
	
		<ellipse transform="matrix(0.4031 -0.9152 0.9152 0.4031 6.7631 192.11)" fill="none" stroke="#000000" stroke-width="2" stroke-miterlimit="10" cx="150.6" cy="90.9" rx="19.2" ry="13"/>
	<path fill="none" stroke="#000000" stroke-width="2" stroke-miterlimit="10" d="M147.2,72.7c0,0,9.7,5.5,17.7,5"/>
	<path fill="none" stroke="#000000" stroke-width="2" stroke-miterlimit="10" d="M144.3,75.1c0,0,10.8,8.4,21.6,6.8"/>
	<path fill="none" stroke="#000000" stroke-width="2" stroke-miterlimit="10" d="M141.7,77.6c0,0,16.5,11.1,25.5,8.8"/>
	<polyline fill="none" stroke="#000000" stroke-width="2" stroke-miterlimit="10" points="137.5,102.4 131.8,106.8 140,114.4 
		144.3,108.9 	"/>
	<path fill="none" stroke="#000000" stroke-width="2" stroke-miterlimit="10" d="M136.4,152.6c-3.5,9.2-6.4,16.9-6.4,16.9
		s-18.5,1-36.8-14c0,0,9.2-35.9,31-54.5l23.9,20.5c0,0-3.1,8.2-6.5,17.3"/>
	<path fill="none" stroke="#000000" stroke-width="2" stroke-miterlimit="10" d="M119.5,123.7c0,0,7.9,23.9,17,28.9
		c1.2,0.7,29.2,6.7,29.2,6.7l5.8-5.2l2,6.5l4-2.3l-2.2-10h-8.8l-2.4,4.3L142.5,141c0,0-7-14.8-8.5-22"/>
	<polyline fill="none" stroke="#000000" stroke-width="2" stroke-miterlimit="10" points="165.8,159.2 169.1,161.8 170.9,160 
		169.3,156 	"/>
	<path fill="none" stroke="#000000" stroke-width="2" stroke-miterlimit="10" d="M136.4,152.6c0.1,0.1,6.4-11.4,6.4-11.4"/>
	<path fill="none" stroke="#000000" stroke-width="2" stroke-miterlimit="10" d="M130,169.5c0,0,16.5,20.3,18.2,28.2
		c0,0-58.2,9.3-75.8,2.5l2.2-5.8c0,0,40.7-6.8,45.2-8.9"/>
	<path fill="none" stroke="#000000" stroke-width="2" stroke-miterlimit="10" d="M94.9,156.8c0,0,11.1,24.7,29.3,30.5"/>
	<polygon fill="none" stroke="#000000" stroke-width="2" stroke-miterlimit="10" points="56.2,210.9 67.6,211.9 74.6,192.9 
		70.4,191.2 	"/>
	<line fill="none" stroke="#000000" stroke-width="2" stroke-miterlimit="10" x1="109.5" y1="188" x2="77.1" y2="186.1"/>
	<polyline fill="none" stroke="#000000" stroke-width="2" stroke-miterlimit="10" points="74.6,192.9 77.5,184.1 72,184.1 
		56.2,196.1 64.3,199.7 	"/>
	<path fill="none" stroke="#000000" stroke-width="2" stroke-miterlimit="10" d="M145.7,191.9h22.6l2.6-2.8h3.6c0,0,2.3,2.2,3,2.1
		s6.7-2.1,6.7-2.1s4.8-0.3,5.7,0c0.8,0.3,6.3-0.1,6.3-0.1l5.8-1l2,1.2l2.7,2.8h26.5"/>
	<path fill="none" stroke="#000000" stroke-width="2" stroke-miterlimit="10" d="M159.2,198v4.7l4.3,3.2c0,0,3.2-0.8,4,0
		s1.8,2.2,3.4,2.8c1.6,0.7,4.3,1,5.6,1s6.3,0.5,7.2,0c0.8-0.5,6.3-2.5,7.3-2.5s4.7-0.3,6.5-0.3s3.3,0.2,3.8-0.5s0.2-3.2,1.7-3.7
		s1.8-0.9,4-1.1s4-1.8,4-1.8"/>
	<line fill="none" stroke="#000000" stroke-width="2" stroke-miterlimit="10" x1="139.6" y1="208.7" x2="142.8" y2="207.2"/>
	<line fill="none" stroke="#000000" stroke-width="2" stroke-miterlimit="10" x1="141.2" y1="213.3" x2="144.3" y2="209.9"/>
	<path fill="none" stroke="#000000" stroke-width="2" stroke-miterlimit="10" d="M162.3,211.9c0,0-3.5-1.7-4.2,0.8s2.1,4,2.1,4"/>
	<line fill="none" stroke="#000000" stroke-width="2" stroke-miterlimit="10" x1="198.7" y1="211.3" x2="202.7" y2="215"/>
	<line fill="none" stroke="#000000" stroke-width="2" stroke-miterlimit="10" x1="202.7" y1="209.9" x2="206.3" y2="209.9"/>
	<line fill="none" stroke="#000000" stroke-width="2" stroke-miterlimit="10" x1="219.3" y1="198" x2="224.8" y2="200.5"/>
	<line fill="none" stroke="#000000" stroke-width="2" stroke-miterlimit="10" x1="219.3" y1="201.6" x2="222.1" y2="205.3"/>
	<path fill="none" stroke="#000000" stroke-width="2" stroke-miterlimit="10" d="M168.3,192.7c0,0-0.5,6.3,0,6.6s3.9,2.3,3.9,2.3
		l7.3,3.1c0,0,5.5-5.8,6.5-5.4s5.5,0.6,6,1.2s7.3-1.8,7.3-1.8l5.2-1.7l1.8-4.3"/>
	<path fill="none" stroke="#000000" stroke-width="2" stroke-miterlimit="10" d="M172.4,166.7c0,0-1.6,1.4-1.6,3.1
		c0,1.7,2.4,3,2.4,3S177.3,169.4,172.4,166.7z"/>
</g>
<g id="Layer_3">
	<path fill="none" stroke="#27AAE1" stroke-width="18" stroke-miterlimit="10" stroke-opacity="0" d="M133.6,71.4
		c11.2,0,22.4,0,33.6,0c-15.2,2-30.2,5-45,8.8c15.3,0.9,30.6,1.5,45.9,1.8c-14.6,4.8-30.2,5.6-45.6,6.4c13.4,1.1,26.7,2.1,40.1,3.2
		c-20.1,0.8-40,3.1-59.7,6.9c18,5.4,36.7,8.3,55.4,8.7c-19.6,0.8-39.2,3.8-57.8,10.1c13.9,1.9,27.9,2.7,41.8,3.4
		c-16.1,0.2-32.1,2.8-47.5,7.6c3.5,1.5,7.5,1.7,11.3,1.9c12.8,0.7,25.6,1.4,38.5,2.1c-18.3,4.2-36.5,8.4-54.8,12.5
		c10.8,2.1,21.5,4.1,32.3,6.2c3.7,0.7,7.5,1.4,11.2,1.3c-12.7,1.9-25.3,3.7-38,5.6c-9,1.3-18,2.6-26.7,5.3
		c21.6,2.1,43.3,4.2,64.9,6.4c-23.5,0.2-46.9,2.4-70,6.5c-5.1,0.9-10.3,2-14.6,4.7c32.2,0.2,64.4-0.1,96.5-0.9
		c-32.9,4.9-66,9.7-99.3,9.7c-1.6,0-3.9,0.8-3.3,2.3c0.2,0.4,0.5,0.7,0.9,1c4,3,8.7,5,13.5,6.4c10.4,2.9,21.5,2.8,32.2,1.5
		c9-1.1,18-3,27-3.9c14-1.5,28-0.7,42,0.1c-25.9,4.7-52,8.4-78.1,11.1c-6.8,0.7-13.5,1.3-20.3,1"/>
</g>
</svg>
