<?xml version="1.0" encoding="utf-8"?>
<!-- Generator: Adobe Illustrator 21.0.0, SVG Export Plug-In . SVG Version: 6.00 Build 0)  -->
<!DOCTYPE svg PUBLIC "-//W3C//DTD SVG 1.0//EN" "http://www.w3.org/TR/2001/REC-SVG-20010904/DTD/svg10.dtd">
<svg version="1.0" id="Layer_2" xmlns="http://www.w3.org/2000/svg" xmlns:xlink="http://www.w3.org/1999/xlink" x="0px" y="0px"
	 width="960px" height="523px" viewBox="0 0 960 523" enable-background="new 0 0 960 523" xml:space="preserve">
<path fill="#FFFFFF" stroke="#000000" stroke-width="8" stroke-miterlimit="10" d="M378.5,39l-50.8-4.9l-40,2.3l-21.2,9.2l-29.2,9.5
	l-26.8,3.7c0,0-24-2.9-46.8,6.6S141,74.9,141,74.9L95.8,97.3L81,112.5c0,0-9.2,8.9-9.2,17.8s-5.2,22.4-5.2,22.4l-8,18.1l-8,15.2
	l-10.8,32.5c0,0,4-20.1,0,7.8s-12,39.4-8,48.8s9.2,22.1,10.8,28.7c1.2,6.6,4,16.4,6.8,23s5.2,10.9,9.2,25.3s24,37.9,24,37.9l24,11.5
	l29.2,4l30.8,8.3c0,0,25.6,16.4,38,19.2c12.4,2.9,31.2,11.5,46,11.5c14.8,0,6.8,5.7,46.8,0s37.2-4.9,49.2-9.5
	c12-4.9,13.2-7.8,32-7.8s38.8,0,38.8,0s24,3.7,58.8,4.9c34.8,0.9,25.2,4.9,49.2,0.9c24-3.7,40-5.7,40-5.7s40-8.6,70.8-15.2
	s58-6.3,58-6.3s88.8,4.6,98,4.6s52-4.6,52-4.6l22.8-10.9c0,0,29.2-7.8,33.2-20.1s12-36.5,12-36.5l14.4-23.8c0,0,6.4-41.1,0-45.1
	s-5.2-7.5-10.4-21s-4,2.9-8-24.1c-4-26.7-4-45.1-4-45.1l-12-34.5c0,0-10.8-13.5-20-25s-6.8-13.5-18.8-23.8
	c-12-10.6-4.4-10.1-16.4-18.4c-11.6-8.3-45.2-17.8-45.2-17.8l-36-8.9l-17.2-6.3l-61.2-10.6l-38.8-10.1h-54.8h-61.2l-34.8,3.7
	L441,37.6l-26.8,2L378.5,39z"/>
</svg>
