<?xml version="1.0" encoding="utf-8"?>
<!-- Generator: Adobe Illustrator 19.2.1, SVG Export Plug-In . SVG Version: 6.00 Build 0)  -->
<svg version="1.0" xmlns="http://www.w3.org/2000/svg" xmlns:xlink="http://www.w3.org/1999/xlink" x="0px" y="0px" width="432px"
	 height="432px" viewBox="0 0 432 432" enable-background="new 0 0 432 432" xml:space="preserve">
<g id="Layer_2">
	<path fill="#27AAE1" d="M117.4,128.2c0.3-0.1,0.5-0.2,0.8-0.3c-0.1-0.1-0.2-0.2-0.3-0.3c-26.2-21.6-5-51.3-5-51.3
		s-14.5,5-14.2,27.4c0.3,22.5,18,23.9,18,23.9S116.9,127.8,117.4,128.2z"/>
	<polygon fill="#27AAE1" points="109.3,137.3 118.9,216.6 137.6,219.1 120.4,220.7 115.6,334.8 109.3,353.1 94.9,350.8 113.2,334.6 
		112.5,321 110.3,219.1 101.9,160.2 78.4,182.9 47.6,155 50.7,153.5 78.4,174.6 100.4,148.5 99.3,139.3 	"/>
</g>
<g id="Layer_1">
	
		<ellipse transform="matrix(0.9985 -5.423368e-02 5.423368e-02 0.9985 -5.3478 6.4671)" fill="none" stroke="#000000" stroke-width="2" stroke-miterlimit="10" cx="116.5" cy="101.8" rx="18" ry="25.9"/>
	<path fill="none" stroke="#000000" stroke-width="2" stroke-miterlimit="10" d="M102.4,79.1c0,0,12.4,3,23.7-1.7"/>
	<path fill="none" stroke="#000000" stroke-width="2" stroke-miterlimit="10" d="M100.2,83.4c0,0,15.8,3.6,30.1-1.5"/>
	<path fill="none" stroke="#000000" stroke-width="2" stroke-miterlimit="10" d="M97.9,88.1c0,0,23.9,3.8,34.4-1.9"/>
	<polyline fill="none" stroke="#000000" stroke-width="2" stroke-miterlimit="10" points="112.8,127.9 112.8,136.4 124.6,135.1 
		122.5,126.4 	"/>
	<polygon fill="none" stroke="#000000" stroke-width="2" stroke-miterlimit="10" points="99.2,138.5 141.3,133.4 144.9,219.1 
		110.3,221.3 	"/>
	<polyline fill="none" stroke="#000000" stroke-width="2" stroke-miterlimit="10" points="140.5,134.1 167.1,163.6 188.2,141.3 
		185.1,133.8 189.6,123.4 207.1,134.7 201.1,142.1 195.3,143.4 168.8,175.4 142.3,156.3 	"/>
	<line fill="none" stroke="#000000" stroke-width="2" stroke-miterlimit="10" x1="167.1" y1="163.6" x2="168.8" y2="175.4"/>
	<path fill="none" stroke="#000000" stroke-width="2" stroke-miterlimit="10" d="M187.3,128.7c0.7,0.2,9.6,5.7,9.6,5.7l-1.3,4.2
		l-3.5-1.4v3.4"/>
	<polyline fill="none" stroke="#000000" stroke-width="2" stroke-miterlimit="10" points="99.2,138.5 78.4,170.9 54.3,151.9 
		56.4,144.1 50.4,134.4 34.6,148.1 41.7,154.6 47.6,155 78.4,182.9 101.9,160.2 	"/>
	<line fill="none" stroke="#000000" stroke-width="2" stroke-miterlimit="10" x1="78.4" y1="170.9" x2="78.4" y2="182.9"/>
	<path fill="none" stroke="#000000" stroke-width="2" stroke-miterlimit="10" d="M53.4,139.3c-0.6,0.3-8.7,7-8.7,7l1.9,3.9l3.3-1.9
		l0.5,3.3"/>
	<polyline fill="none" stroke="#000000" stroke-width="2" stroke-miterlimit="10" points="110.3,221.3 112.8,334.8 118.7,334.8 
		127.6,220.4 	"/>
	<polyline fill="none" stroke="#000000" stroke-width="2" stroke-miterlimit="10" points="127.6,220.4 141.9,334.8 147.7,334.8 
		144.9,219.1 	"/>
	<polyline fill="none" stroke="#000000" stroke-width="2" stroke-miterlimit="10" points="112.8,334.8 94.9,347.3 112.8,349.8 
		118.7,334.8 	"/>
	<polyline fill="none" stroke="#000000" stroke-width="2" stroke-miterlimit="10" points="141.9,334.8 150.3,355.1 166.7,349.8 
		147.7,334.8 	"/>
	
		<ellipse transform="matrix(5.423368e-02 -0.9985 0.9985 5.423368e-02 196.956 411.4805)" fill="none" stroke="#000000" stroke-width="2" stroke-miterlimit="10" cx="315.7" cy="101.8" rx="25.9" ry="18"/>
	<polyline fill="none" stroke="#000000" stroke-width="2" stroke-miterlimit="10" points="319.3,127.9 319.3,136.4 307.6,135.1 
		309.7,126.4 	"/>
	<polygon fill="none" stroke="#000000" stroke-width="2" stroke-miterlimit="10" points="333,138.5 290.9,133.4 287.3,219.1 
		321.9,221.3 	"/>
	<polyline fill="none" stroke="#000000" stroke-width="2" stroke-miterlimit="10" points="291.7,134.1 265.1,163.6 243.9,141.3 
		247.1,133.8 242.6,123.4 225,134.7 231.1,142.1 236.9,143.4 263.4,175.4 289.9,156.3 	"/>
	<line fill="none" stroke="#000000" stroke-width="2" stroke-miterlimit="10" x1="265.1" y1="163.6" x2="263.4" y2="175.4"/>
	<path fill="none" stroke="#000000" stroke-width="2" stroke-miterlimit="10" d="M244.9,128.7c-0.7,0.2-9.6,5.7-9.6,5.7l1.3,4.2
		l3.5-1.4v3.4"/>
	<polyline fill="none" stroke="#000000" stroke-width="2" stroke-miterlimit="10" points="333,138.5 353.7,170.9 377.9,151.9 
		375.8,144.1 381.8,134.4 397.5,148.1 390.5,154.6 384.5,155 353.8,182.9 330.3,160.2 	"/>
	<line fill="none" stroke="#000000" stroke-width="2" stroke-miterlimit="10" x1="353.7" y1="170.9" x2="353.8" y2="182.9"/>
	<path fill="none" stroke="#000000" stroke-width="2" stroke-miterlimit="10" d="M378.7,139.3c0.6,0.3,8.7,7,8.7,7l-1.9,3.9
		l-3.3-1.9l-0.5,3.3"/>
	<polyline fill="none" stroke="#000000" stroke-width="2" stroke-miterlimit="10" points="321.9,221.3 319.3,334.8 313.5,334.8 
		304.6,220.4 	"/>
	<polyline fill="none" stroke="#000000" stroke-width="2" stroke-miterlimit="10" points="304.6,220.4 290.3,334.8 284.5,334.8 
		287.3,219.1 	"/>
	<polyline fill="none" stroke="#000000" stroke-width="2" stroke-miterlimit="10" points="319.3,334.8 337.3,347.3 319.3,349.8 
		313.5,334.8 	"/>
	<polyline fill="none" stroke="#000000" stroke-width="2" stroke-miterlimit="10" points="290.3,334.8 281.9,355.1 265.5,349.8 
		284.5,334.8 	"/>
</g>
<g id="Layer_3">
	<path opacity="0" fill="none" stroke="#27AAE1" stroke-width="25" stroke-miterlimit="10" d="M96.5,78.4c6.2-0.1,12.4-0.3,18.7-0.4
		c-8.4,4.9-17.6,8.7-27,11.1c8.3,0,16.7,0,25,0.1c-7.4,2.6-14.9,5.1-22.3,7.7c6.7,0.1,13.4,0.2,20.1,0.2c-7.5,2.6-15,5.2-22.6,7.7
		c8.8-0.3,17.7-0.6,26.5-0.9c-8.4,2.8-16.6,6-24.7,9.6c6.2,0.1,12.3,0.1,18.5,0.2c-7.2,2.2-14.4,4.3-21.7,6.5
		c10.3,0.2,20.7,0.4,31,0.5c-8.2,1.6-16.3,3.4-24.3,5.6c6.6,0.7,13.1,1.5,19.7,2.2c-23.4,12.8-53.2,8.8-76.5,21.8
		c24.4-1.2,48.8-2.3,73.2-3.5c2.3-0.1,5.3-0.8,5.5-3.1c-18.2,6.4-37.5,10-56.8,10.4c-5.3,0.1-11.2,0.2-15,3.9
		c23.5-1.7,47.1-3.5,70.6-5.2c-19.5,8-39.3,16-60.1,19.3c24.2-4.5,48.3-9,72.5-13.5c-21.6,6.1-43,13.3-63.9,21.5
		c11.2-2,22.4-3.9,33.7-5.9c7.3-1.3,14.6-2.6,21.4-5.5c-7.5,1.8-14.7,4.5-21.4,8.2c8.7-0.3,17.5-0.5,26.2-0.8
		c-9.6,3.7-19.2,7.4-28.8,11.1c8.2,0.1,16.5,0.1,24.7,0.2c-7,3.1-14.3,5.5-21.8,7.2c9.5-0.5,19.1-1.1,28.6-1.6
		c-8.8,2.2-17.5,4.4-26.3,6.6c7.3-0.3,14.5-0.6,21.8-1c-9.2,2-18.1,4.9-26.7,8.8c10.5-0.5,21-0.1,31.4,1.3
		c-9.3,2.4-18.5,4.8-27.8,7.2c8.6,0,17.1,0,25.7,0c-8.7,2.2-17.4,4.4-26.1,6.6c8.1,0.2,16.2,0,24.3-0.5c-6.6,2.3-12.8,5.4-18.6,9.3
		c6-0.5,12-0.3,17.9,0.7c-3.9,3.1-8,5.9-12.2,8.4c5.6-1.5,11.4-2,17.2-1.5c-6.6,3.7-13.1,7.4-19.7,11.1c5.4-1,10.9-1.4,16.4-1.2
		c-5.7,3.1-11.5,5.8-17.5,8.1c4.8-0.4,9.5-0.8,14.3-1.2c-5.9,3.5-11.6,7.3-17.1,11.4c7.7-0.5,15.4-0.9,23.1-1.4
		c-6.8,2.5-13.6,5-20.5,7.5c3.4-1,7-1.4,10.5-1.2c-3,2.1-6.3,3.9-9.7,5.1c3.2-0.1,6.5-0.1,9.7-0.2c0.7,0,1.5,0.1,1.7,0.8
		c0.2,0.7-1.3,0.6-0.9,0.1c0.9-0.3,1.8-0.6,2.6-0.8c-7,3.4-14,6.7-20.9,10.1c4.7-1.7,9.8-2.5,14.8-2.4c-3.6,1.4-7.2,2.8-10.8,4.3
		c6-0.5,12-1,18-1.6c-5.2,2.8-10.7,5.2-16.2,7.3c3.4-0.3,6.8-0.6,10.3-0.9c-5.4,2.7-11.2,4.4-17.2,5c4.5-0.1,9.1-0.1,13.6-0.2
		c-3.3,1.4-6.6,2.8-9.9,4.2c3.5-0.1,7-0.2,10.5-0.3c-2.3,1.6-4.6,3.2-6.8,4.9c4.1,0.1,8.2,0.2,12.4,0.3c-4.6,2.4-9.3,4.9-13.9,7.3
		c6.8,0.2,13.6,0.4,20.5,0.6c-6.1,2.3-12.1,4.7-18.2,7c6.6-0.9,13.4-0.3,19.8,1.5c-8.5,3.3-17.1,6.7-25.6,10
		c3.6,0.3,7.2,0.6,10.8,0.9c-5.5,2-11,4.1-16.4,6.1c7.5,2.4,15.3,3.9,23.2,4.4c-6.1,1.5-12.3,3-18.4,4.4c1.6,0.3,3.2,0.5,4.7,0.8
		c-1.9,0.2-3.8,0.9-5.4,2c2.9,1,5.8,2,8.8,1.7c3-0.3,6.1-2.2,6.7-5.2"/>
</g>
</svg>
