<?xml version="1.0" encoding="utf-8"?>
<!-- Generator: Adobe Illustrator 19.2.1, SVG Export Plug-In . SVG Version: 6.00 Build 0)  -->
<svg version="1.0" id="Layer_1" xmlns="http://www.w3.org/2000/svg" xmlns:xlink="http://www.w3.org/1999/xlink" x="0px" y="0px"
	 width="288px" height="288px" viewBox="0 0 288 288" enable-background="new 0 0 288 288" xml:space="preserve">
<polygon fill="none" stroke="#000000" stroke-width="2" stroke-miterlimit="10" points="165,62.5 165,50.5 127.5,50.5 127.5,39.5 
	111.5,53.5 126,71.2 127,61.5 "/>
<polygon fill="none" stroke="#000000" stroke-width="2" stroke-miterlimit="10" points="118,104.7 116.9,92.7 154.3,89.4 
	153.3,78.4 170.5,91 157.6,109.9 155.7,100.3 "/>
<path fill="none" stroke="#000000" stroke-width="2" stroke-miterlimit="10" d="M138.2,171.9c-0.4-0.7-0.4-34.9-0.3-69.8"/>
<path fill="none" stroke="#000000" stroke-width="2" stroke-miterlimit="10" d="M138,90.9c0-10.3,0.1-20.4,0.1-29.4"/>
<path fill="none" stroke="#000000" stroke-width="2" stroke-miterlimit="10" d="M138.1,50.8c0.1-13.4,0.1-22.3,0.1-22.3h9
	c0,0,0,8.6,0,21.5"/>
<path fill="none" stroke="#000000" stroke-width="2" stroke-miterlimit="10" d="M147.2,61.5c0,8.7,0,18.5,0,28.5"/>
<path fill="none" stroke="#000000" stroke-width="2" stroke-miterlimit="10" d="M147.2,101.2c0,35.5,0,70.6,0,70.6"/>
<polyline fill="none" stroke="#000000" stroke-width="2" stroke-miterlimit="10" points="108.3,258 124,200.3 85,154.2 "/>
<polyline fill="none" stroke="#000000" stroke-width="2" stroke-miterlimit="10" points="180.3,261 162.7,200 203.3,158.3 "/>
<polyline fill="none" stroke="#000000" stroke-width="2" stroke-miterlimit="10" points="96,152.8 142.7,185.8 196.7,154.2 "/>
</svg>
