<?xml version="1.0" encoding="utf-8"?>
<!-- Generator: Adobe Illustrator 19.2.1, SVG Export Plug-In . SVG Version: 6.00 Build 0)  -->
<svg version="1.0" xmlns="http://www.w3.org/2000/svg" xmlns:xlink="http://www.w3.org/1999/xlink" x="0px" y="0px" width="432px"
	 height="432px" viewBox="0 0 432 432" enable-background="new 0 0 432 432" xml:space="preserve">
<g id="Layer_2">
	<path fill="#27AAE1" d="M115.7,93.1c0,0-25.1,28.5-5.4,52.1c0,0-17.2-3.8-12.9-30.7C101.1,91,115.7,93.1,115.7,93.1z"/>
	<polygon fill="#27AAE1" points="96.7,154 92.5,237.9 130.8,258.7 102.2,327.3 130.5,330.4 128.8,340.4 97.4,329.5 121.9,260.5 
		73.8,235.5 89.5,154 	"/>
</g>
<g id="Layer_1">
	
		<ellipse transform="matrix(0.1033 -0.9946 0.9946 0.1033 -17.1728 219.2328)" fill="none" stroke="#000000" stroke-width="2" stroke-miterlimit="10" cx="113" cy="119.1" rx="26.2" ry="16.2"/>
	<path fill="none" stroke="#000000" stroke-width="2" stroke-miterlimit="10" d="M105,94.4c0,0,11.1,3.2,19,1.2"/>
	<path fill="none" stroke="#000000" stroke-width="2" stroke-miterlimit="10" d="M103.2,96.3c0,0,14.9,5.2,22.9,2.6"/>
	<path fill="none" stroke="#000000" stroke-width="2" stroke-miterlimit="10" d="M101.1,99.6c0.1,0.3,15.2,6.3,27.2,2.4"/>
	<polyline fill="none" stroke="#000000" stroke-width="2" stroke-miterlimit="10" points="104.5,142.7 102.2,154 114.5,154 
		114.5,144.7 	"/>
	<path fill="none" stroke="#000000" stroke-width="2" stroke-miterlimit="10" d="M116,204.7c-1.6,16.6-3,30.8-3,30.8s-23,5.5-39.3,0
		L89.5,154H121c0,0-1.7,17.3-3.5,36"/>
	<polyline fill="none" stroke="#000000" stroke-width="2" stroke-miterlimit="10" points="106.8,177.2 127.5,202 159.2,211.2 
		176,213.2 179.2,218 157,218 123.2,212.5 102.2,191.8 	"/>
	<line fill="none" stroke="#000000" stroke-width="2" stroke-miterlimit="10" x1="127.5" y1="202" x2="123.2" y2="212.5"/>
	<polyline fill="none" stroke="#000000" stroke-width="2" stroke-miterlimit="10" points="160.6,211.8 164.2,208.4 166.2,208.4 
		166.2,212.1 	"/>
	<polyline fill="none" stroke="#000000" stroke-width="2" stroke-miterlimit="10" points="73.8,235.5 123.2,261.2 100.5,323.8 
		105.2,325.5 140.8,254.2 111.6,235.8 	"/>
	<polyline fill="none" stroke="#000000" stroke-width="2" stroke-miterlimit="10" points="100.5,323.8 98.8,328.7 129.2,338.3 
		130.8,328.2 105.2,325.5 	"/>
	<path fill="none" stroke="#000000" stroke-width="2" stroke-miterlimit="10" d="M98.8,248.5l-25.1-2.9L71.7,158l-9,1.7
		c0,0,3,98.7,4,99c1,0.3,47.8-2,47.8-2"/>
	<polyline fill="none" stroke="#000000" stroke-width="2" stroke-miterlimit="10" points="66.7,258.7 71.7,333.3 78.3,333.3 
		80,258.7 	"/>
	<path fill="none" stroke="#000000" stroke-width="2" stroke-miterlimit="10" d="M116.2,257.6c0,0,0,10.4,0,23"/>
	<path fill="none" stroke="#000000" stroke-width="2" stroke-miterlimit="10" d="M116.2,303.5c0,9.3,0,17.9,0,23.2"/>
	<path fill="none" stroke="#000000" stroke-width="2" stroke-miterlimit="10" d="M120.6,327.3c0.5-7.4,1.5-22.9,2.5-37.6"/>
	<path fill="none" stroke="#000000" stroke-width="2" stroke-miterlimit="10" d="M184.3,197.5c11.8-1,24.7-1.5,38.2-1.5
		c8.9,0,17.5,0.2,25.7,0.7"/>
	<path fill="none" stroke="#000000" stroke-width="2" stroke-miterlimit="10" d="M293.9,202c1.8,0.4,3.5,0.7,5.1,1.1"/>
	<path fill="none" stroke="#000000" stroke-width="2" stroke-miterlimit="10" d="M313.5,207.8c5.3,2.4,8.3,5.1,8.3,7.9
		c0,10.9-44.4,19.8-99.2,19.8s-99.2-8.8-99.2-19.8c0-1.1,0.4-2.1,1.3-3.2"/>
	<path fill="none" stroke="#000000" stroke-width="2" stroke-miterlimit="10" d="M213.7,235.4l4.3,68.1c0,0-12.8,7-11.5,7s35,0,35,0
		l-14.2-7l3.8-68"/>
	<path fill="none" stroke="#000000" stroke-width="2" stroke-miterlimit="10" d="M120.6,157.8c0,0.2,23.6,39.9,23.6,39.9l19.1-0.9
		l2.8-4.5l7.1,5.4L171,202l-3.6-2.7"/>
	<path fill="none" stroke="#000000" stroke-width="2" stroke-miterlimit="10" d="M118.7,177.2c0,0,20.5,28.2,22,28.6
		c1.5,0.4,22.6-2.6,22.6-2.6s3.6,1.4,5.7,2.1"/>
	<polyline fill="none" stroke="#000000" stroke-width="2" stroke-miterlimit="10" points="169.2,194.6 169.2,188.2 182.9,188.2 
		182.9,207.9 169.2,207.9 169.2,200.7 	"/>
	<path fill="none" stroke="#000000" stroke-width="2" stroke-miterlimit="10" d="M169.2,188.9c0,0,9.1,4.5,13.6,0"/>
	
		<ellipse transform="matrix(0.9946 -0.1033 0.1033 0.9946 -10.6065 33.5748)" fill="none" stroke="#000000" stroke-width="2" stroke-miterlimit="10" cx="318.7" cy="119.1" rx="16.2" ry="26.2"/>
	<polyline fill="none" stroke="#000000" stroke-width="2" stroke-miterlimit="10" points="327.2,142.7 329.5,154 317.2,154 
		317.2,144.7 	"/>
	<path fill="none" stroke="#000000" stroke-width="2" stroke-miterlimit="10" d="M315.5,205.4c0.1,1.3,0.2,2.5,0.4,3.8"/>
	<path fill="none" stroke="#000000" stroke-width="2" stroke-miterlimit="10" d="M317.4,222.1c0.8,7.7,1.3,13.4,1.3,13.4
		s23,5.5,39.3,0L342.2,154h-31.5c0,0,1.7,17.3,3.5,36"/>
	<polyline fill="none" stroke="#000000" stroke-width="2" stroke-miterlimit="10" points="325,177.2 304.2,202 272.5,211.2 
		255.7,213.2 252.5,218 274.7,218 308.5,212.5 329.5,191.8 	"/>
	<line fill="none" stroke="#000000" stroke-width="2" stroke-miterlimit="10" x1="304.2" y1="202" x2="308.5" y2="212.5"/>
	<polyline fill="none" stroke="#000000" stroke-width="2" stroke-miterlimit="10" points="271.1,211.8 267.5,208.4 265.5,208.4 
		265.5,212.1 	"/>
	<polyline fill="none" stroke="#000000" stroke-width="2" stroke-miterlimit="10" points="358,235.5 308.5,261.2 331.2,323.8 
		326.5,325.5 291,254.2 320.1,235.8 	"/>
	<polyline fill="none" stroke="#000000" stroke-width="2" stroke-miterlimit="10" points="331.2,323.8 332.9,328.7 302.5,338.3 
		300.9,328.2 326.5,325.5 	"/>
	<path fill="none" stroke="#000000" stroke-width="2" stroke-miterlimit="10" d="M332.9,248.5l25.1-2.9L360,158l9,1.7
		c0,0-3,98.7-4,99c-1,0.3-47.8-2-47.8-2"/>
	<polyline fill="none" stroke="#000000" stroke-width="2" stroke-miterlimit="10" points="365,258.7 360,333.3 353.4,333.3 
		351.7,258.7 	"/>
	<path fill="none" stroke="#000000" stroke-width="2" stroke-miterlimit="10" d="M315.5,257.6c0,0,0,10.4,0,23"/>
	<path fill="none" stroke="#000000" stroke-width="2" stroke-miterlimit="10" d="M315.5,303.5c0,9.3,0,17.9,0,23.2"/>
	<path fill="none" stroke="#000000" stroke-width="2" stroke-miterlimit="10" d="M311.1,327.3c-0.5-7.4-1.5-22.9-2.5-37.6"/>
	<path fill="none" stroke="#000000" stroke-width="2" stroke-miterlimit="10" d="M311.1,157.8c0,0.2-23.6,39.9-23.6,39.9l-19.1-0.9
		l-2.8-4.5l-7.1,5.4l2.2,4.4l3.6-2.7"/>
	<path fill="none" stroke="#000000" stroke-width="2" stroke-miterlimit="10" d="M313,177.2c0,0-20.5,28.2-22,28.6
		c-1.5,0.4-22.6-2.6-22.6-2.6s-3.6,1.4-5.7,2.1"/>
	<polyline fill="none" stroke="#000000" stroke-width="2" stroke-miterlimit="10" points="262.5,194.6 262.5,188.2 248.8,188.2 
		248.8,207.9 262.5,207.9 262.5,200.7 	"/>
	<path fill="none" stroke="#000000" stroke-width="2" stroke-miterlimit="10" d="M262.5,188.9c0,0-9.1,4.5-13.6,0"/>
</g>
<g id="Layer_3">
	<path opacity="0" fill="none" stroke="#27AAE1" stroke-width="20" stroke-miterlimit="10" d="M94.4,94.1c8-1.9,16.5-1.6,24.4,1
		c-9.3,4.1-19,7.1-29,9c9.5-0.5,19-0.7,28.5-0.4c-9.5,4.2-19.5,7.5-29.7,9.6c6.8,0.1,13.7,0.2,20.5,0.3c-8.7,4.1-17.8,7.6-27,10.5
		c11.2,0.1,22.4,0.2,33.6,0.4c-9.8,4.5-20,8-30.5,10.4c9.4,0.1,18.8,0.1,28.1,0.2c-13.1,4.2-26.5,7.3-40.1,9.5
		c14.4-0.6,28.9-1.2,42.9,1.7c-14.3,4.7-28.5,9.5-42.8,14.2c13.9-0.5,27.8-1,41.7-1.4c-13.5,6.4-27.3,12.3-41.3,17.5
		c9.9-0.3,19.8-0.5,29.7-0.8c-13.4,5.5-27,10.1-40.9,14c13.1-0.6,26.1-1.3,39.2-1.9c-13.1,3.9-26.1,8.2-38.9,13
		c11.8-1.9,23.7-2.8,35.7-2.7c-11.4,5.2-22.9,10.4-34.3,15.6c11.8-0.5,23.7-1.1,35.5-1.6c-11.2,4.9-22.4,9.9-33.6,14.8
		c13.4,0.1,26.9,0.3,40.3,0.4c-13.2,1.1-26.1,5.1-37.6,11.7c17.4,0,34.7,0.1,52.1,0.1c-9.8,2.6-19.6,5.2-29.4,7.8
		c17.9,0.6,35.7,1.5,53.5,2.9c-12.9,1.9-25.6,4.8-38,8.6c9.6,0.2,19.3,0.4,28.9,0.6c-13.7,2.4-27.2,5.6-40.5,9.6
		c0.4,1,2,0.5,2.5-0.5s0.4-2.1,1.1-3c0.7-1,2.1-1.1,3.3-1.2c19.4-1.7,39-2.1,58.4-1.2c-26.2,10.9-52.7,21.3-79.5,31
		c16.6-2.8,33.5-4.4,50.4-4.7c-12.9,5.5-25.8,11-38.7,16.5c20.2-1.6,40.3-3.1,60.5-4.7c-25.5,4.6-50.9,9.3-76.4,13.9
		c16.3-2.4,32.8-2.9,49.2-1.5c-10,4.4-20,8.7-30,13.1c11.4,0.6,22.7,2.1,33.9,4.5c-5.8,2.4-11.6,4.7-17.4,7.1
		c5.7,2.9,12.5,3.5,18.6,1.4"/>
</g>
</svg>
