<?xml version="1.0" encoding="utf-8"?>
<!-- Generator: Adobe Illustrator 21.0.0, SVG Export Plug-In . SVG Version: 6.00 Build 0)  -->
<!DOCTYPE svg PUBLIC "-//W3C//DTD SVG 1.0//EN" "http://www.w3.org/TR/2001/REC-SVG-20010904/DTD/svg10.dtd">
<svg version="1.0" id="Lines" xmlns="http://www.w3.org/2000/svg" xmlns:xlink="http://www.w3.org/1999/xlink" x="0px" y="0px"
	 width="288px" height="288px" viewBox="0 0 288 288" enable-background="new 0 0 288 288" xml:space="preserve">
<ellipse fill="none" stroke="#000000" stroke-width="2" stroke-miterlimit="10" cx="104.7" cy="84" rx="13.7" ry="19.7"/>
<polyline fill="none" stroke="#000000" stroke-width="2" stroke-miterlimit="10" points="99.7,102.4 99,109.3 107.9,109.3 
	107.9,103.8 "/>
<path fill="none" stroke="#000000" stroke-width="2" stroke-miterlimit="10" d="M127.3,109.3c0,0-43.6-0.3-44.2,0l-2.9,79.2h42.7
	L127.3,109.3z"/>
<polyline fill="none" stroke="#000000" stroke-width="2" stroke-miterlimit="10" points="80.1,198.8 83.4,258.7 88.7,258.7 
	88.7,198.8 "/>
<polyline fill="none" stroke="#000000" stroke-width="2" stroke-miterlimit="10" points="111,198.8 114.8,258.7 121.5,257 
	121.5,198.8 135.4,192.3 134.9,184.4 122.8,188.5 121.5,198.8 80.1,198.8 80.1,188.5 "/>
<path fill="none" stroke="#000000" stroke-width="2" stroke-miterlimit="10" d="M123.7,172.3l16,7.7l-10.4,59.7c0,0-5.3,1.2-5.5,0.2
	c-0.5-1.7,1.8-42.9,1.8-42.9"/>
<path fill="none" stroke="#000000" stroke-width="2" stroke-miterlimit="10" d="M99,198.8l-0.8,41.1c0,0,5.6,1,5.3,0
	c-0.4-1,4.3-41.1,4.3-41.1"/>
<polyline fill="none" stroke="#000000" stroke-width="2" stroke-miterlimit="10" points="129.3,239.7 136.3,236.4 130,235.1 "/>
<polyline fill="none" stroke="#000000" stroke-width="2" stroke-miterlimit="10" points="103,240.2 112,235.1 104.3,233.3 "/>
<polyline fill="none" stroke="#000000" stroke-width="2" stroke-miterlimit="10" points="126.6,121.9 138,151.2 132.8,152.9 
	125.1,148.6 "/>
<ellipse fill="none" stroke="#000000" stroke-width="2" stroke-miterlimit="10" cx="183.9" cy="84" rx="13.7" ry="19.7"/>
<polyline fill="none" stroke="#000000" stroke-width="2" stroke-miterlimit="10" points="188.8,102.4 189.6,109.3 180.6,109.3 
	180.6,103.8 "/>
<path fill="none" stroke="#000000" stroke-width="2" stroke-miterlimit="10" d="M161.3,109.3c0,0,43.6-0.3,44.2,0l2.9,79.2h-42.7
	L161.3,109.3z"/>
<polyline fill="none" stroke="#000000" stroke-width="2" stroke-miterlimit="10" points="208.4,198.8 205.2,258.7 199.8,258.7 
	199.8,198.8 "/>
<polyline fill="none" stroke="#000000" stroke-width="2" stroke-miterlimit="10" points="177.5,198.8 173.7,258.7 167,257 
	167,198.8 153.1,192.3 153.6,184.4 165.7,188.5 167,198.8 208.4,198.8 208.4,188.5 "/>
<path fill="none" stroke="#000000" stroke-width="2" stroke-miterlimit="10" d="M164.8,172.3l-16,7.7l10.4,59.7c0,0,5.3,1.2,5.5,0.2
	c0.5-1.7-1.8-42.9-1.8-42.9"/>
<path fill="none" stroke="#000000" stroke-width="2" stroke-miterlimit="10" d="M189.6,198.8l0.8,41.1c0,0-5.6,1-5.3,0
	c0.4-1-4.3-41.1-4.3-41.1"/>
<polyline fill="none" stroke="#000000" stroke-width="2" stroke-miterlimit="10" points="159.3,239.7 152.3,236.4 158.5,235.1 "/>
<polyline fill="none" stroke="#000000" stroke-width="2" stroke-miterlimit="10" points="185.6,240.2 176.6,235.1 184.2,233.3 "/>
<polyline fill="none" stroke="#000000" stroke-width="2" stroke-miterlimit="10" points="163.5,148.6 155.8,152.9 150.6,151.2 
	162,121.9 "/>
<path fill="none" stroke="#000000" stroke-width="2" stroke-miterlimit="10" d="M112.5,68.4c1.1-7.7,5.7-13.4,11-13.3
	c6,0.2,10.6,7.7,10.3,16.7s-5.3,16.3-11.3,16.1c-1.3,0-2.5-0.4-3.6-1.1"/>
<path fill="none" stroke="#000000" stroke-width="2" stroke-miterlimit="10" d="M125.1,88.2l-0.6,5.2l-7.5-0.7l1.4-6.2
	C118.4,86.5,122.8,88.9,125.1,88.2z"/>
<polyline fill="none" stroke="#000000" stroke-width="2" stroke-miterlimit="10" points="124.5,93.4 133.9,94.5 137.3,122.1 "/>
<path fill="none" stroke="#000000" stroke-width="2" stroke-miterlimit="10" d="M215.3,58c-1.8-1.9-4-2.9-6.4-2.9
	c-6,0.2-10.6,7.7-10.3,16.7S204,88.1,210,88c5.8-0.2,10.2-7.2,10.3-15.8"/>
<path fill="none" stroke="#000000" stroke-width="2" stroke-miterlimit="10" d="M207.5,88.2l0.6,5.2l7.5-0.7l-1.4-6.2
	C214.2,86.5,209.7,88.9,207.5,88.2z"/>
<path fill="none" stroke="#000000" stroke-width="2" stroke-miterlimit="10" d="M220.4,92.5l-22.6,2c0,0-0.9,7.3-1.8,14.5"/>
</svg>
