<?xml version="1.0" encoding="utf-8"?>
<!-- Generator: Adobe Illustrator 21.0.0, SVG Export Plug-In . SVG Version: 6.00 Build 0)  -->
<!DOCTYPE svg PUBLIC "-//W3C//DTD SVG 1.0//EN" "http://www.w3.org/TR/2001/REC-SVG-20010904/DTD/svg10.dtd">
<svg version="1.0" xmlns="http://www.w3.org/2000/svg" xmlns:xlink="http://www.w3.org/1999/xlink" x="0px" y="0px" width="288px"
	 height="288px" viewBox="0 0 288 288" enable-background="new 0 0 288 288" xml:space="preserve">
<g id="Color_1_">
	<ellipse fill="#FFFFFF" cx="104.7" cy="84" rx="13.7" ry="19.7"/>
	<polyline fill="#FFFFFF" points="99.7,102.4 99,109.3 107.9,109.3 107.9,103.8 	"/>
	<path fill="#FFFFFF" d="M127.3,109.3c0,0-43.6-0.3-44.2,0l-2.9,79.2h42.7L127.3,109.3z"/>
	<polyline fill="#FFFFFF" points="80.1,198.8 83.4,258.7 88.7,258.7 88.7,198.8 	"/>
	<path fill="#FFFFFF" d="M99,198.8l-0.8,41.1c0,0,5.6,1,5.3,0c-0.4-1,4.3-41.1,4.3-41.1"/>
	<polyline fill="#FFFFFF" points="129.3,239.7 136.3,236.4 130,235.1 	"/>
	<polyline fill="#FFFFFF" points="103,240.2 112,235.1 104.3,233.3 	"/>
	<polyline fill="#FFFFFF" points="126.6,121.9 138,151.2 132.8,152.9 125.1,148.6 	"/>
	<ellipse fill="#FFFFFF" cx="183.9" cy="84" rx="13.7" ry="19.7"/>
	<polyline fill="#FFFFFF" points="188.8,102.4 189.6,109.3 180.6,109.3 180.6,103.8 	"/>
	<path fill="#FFFFFF" d="M161.3,109.3c0,0,43.6-0.3,44.2,0l2.9,79.2h-42.7L161.3,109.3z"/>
	<polyline fill="#FFFFFF" points="208.4,198.8 205.2,258.7 199.8,258.7 199.8,198.8 	"/>
	<polygon fill="#FFFFFF" points="177.5,198.8 173.7,258.7 167,257 167,198.8 153.1,192.3 153.6,184.4 165.7,188.5 208.4,188.5 
		208.4,188.5 208.4,198.8 	"/>
	<path fill="#FFFFFF" d="M164.8,172.3l-16,7.7l10.4,59.7c0,0,5.3,1.2,5.5,0.2c0.5-1.7-1.8-42.9-1.8-42.9l4.4-6L164.8,172.3z"/>
	<path fill="#FFFFFF" d="M189.6,198.8l0.8,41.1c0,0-5.6,1-5.3,0c0.4-1-4.3-41.1-4.3-41.1"/>
	<polyline fill="#FFFFFF" points="159.3,239.7 152.3,236.4 158.5,235.1 	"/>
	<polyline fill="#FFFFFF" points="185.6,240.2 176.6,235.1 184.2,233.3 	"/>
	<polyline fill="#FFFFFF" points="163.5,148.6 155.8,152.9 150.6,151.2 162,121.9 	"/>
	<path fill="#FFFFFF" d="M121.7,191l4.4,6c0,0-2.3,41.2-1.8,42.9c0.2,1,5.5-0.2,5.5-0.2l10.4-59.7l-16-7.7L121.7,191z"/>
	<polygon fill="#FFFFFF" points="79.9,198.8 79.9,188.5 79.9,188.5 122.6,188.5 134.6,184.4 135.1,192.3 121.2,198.8 121.2,257 
		114.6,258.7 110.8,198.8 	"/>
</g>
<g id="Stroke">
	
		<path opacity="0" fill="none" stroke="#000000" stroke-width="31" stroke-linecap="round" stroke-linejoin="round" stroke-miterlimit="10" d="
		M95.9,61.5c22.9-3.3,46.1,1.7,69.2,1.2c14.2-0.3,33.4,0.8,46.4,6.6c-15.2,10.2-39.3,6-57.6,6c-19.9,0.1-39.8,2-59.3,5.6
		c-3.8,0.3-7.5,0.5-11.3,0.8c0.2,5,6.4,7.1,11.4,7.7c38,4.9,76.4,5.1,114.6,3.5c-0.7,5.9-7.6,8.7-13.4,9.8
		c-38.9,7.7-80.7-3.9-118.2,9.1c2.2,4.8,8.1,6.2,13.3,7c39.2,5.8,79,6.2,118.6,6.5c-0.1,3.8-2.7,7.2-5.9,9.2c-3.2,2-7,2.9-10.7,3.6
		c-34.3,6.2-69.7-1.5-104.5,1.6c-5.5,0.5-11.9,1.9-14,7c13.2,3.4,26.8,4.5,40.3,5.5c33.5,2.5,67.1,4.2,100.7,5.1
		c0.1,6.2-6.5,10.2-12.4,12.2c-42.4,14.6-89.4-0.3-133.8,6.5c44.9,16.6,93.7,22.6,141.3,17.5c2.4,2.1,1.8,6.3-0.4,8.6
		c-2.2,2.3-5.5,3.2-8.6,3.8c-47.4,10-98.6-6.5-144.2,10c1.7,1.3,3.7,2.2,5.7,3.1c23.7,10.2,50,12,75.8,11.7s51.6-2.5,77.2,0.1
		c3.2,0.3,7,1.1,8.3,4.1c-5.1,3.6-11.4,4.7-17.6,5.4c-23.1,2.7-46.5,1-69.8,1.7c-23.3,0.7-47.2,4-67.2,15.8
		c48.7,1.9,97.5,3.8,146.2,5.7"/>
</g>
</svg>
