<?xml version="1.0" encoding="utf-8"?>
<!-- Generator: Adobe Illustrator 19.2.1, SVG Export Plug-In . SVG Version: 6.00 Build 0)  -->
<svg version="1.1" xmlns="http://www.w3.org/2000/svg" xmlns:xlink="http://www.w3.org/1999/xlink" x="0px" y="0px"
	 viewBox="0 0 288 288" style="enable-background:new 0 0 288 288;" xml:space="preserve">
<style type="text/css">
	.st0{fill:#27AAE1;}
	.st1{opacity:0;fill:none;stroke:#27AAE1;stroke-width:34;stroke-miterlimit:10;}
	.st2{fill:none;stroke:#000000;stroke-width:2;stroke-miterlimit:10;}
	.st3{fill:none;stroke:#000000;stroke-miterlimit:10;}
	.st4{fill:#FFFFFF;}
</style>
<g id="Layer_5">
	<path class="st0" d="M55.9,34.8c0,0-17.9,20.2-3.6,44.2c0,0-13-2.2-11.4-22.8C42.5,35.8,55.9,34.8,55.9,34.8z"/>
	<path class="st0" d="M40.2,86.5L39,157.7L69.2,176c0,0-23.8,57.4-22.8,57.5s22.7,5.1,22.7,5.1l-0.7,4.2l-27-7.8l21.8-57.7
		l-41.9-21.8l1.3-6.8l12-62.3L40.2,86.5z"/>
	<path class="st0" d="M46.7,119.7l3.1-1.3c0,0,16.6,13.8,17.9,14.2c1.3,0.4,41.2,5.4,41.2,5.4l1,2.8H91.9c0,0-6.3-1-7.3-1.2
		c-1-0.2-21.3-3.5-21.3-3.5L46.7,119.7z"/>
</g>
<g id="Layer_6">
	<path class="st1" d="M41.8,37.7c5.7,0.2,11.5,0.5,17.2,0.7c-4.9,2.6-10,4.7-15.4,6.2c5.5,0.4,11,0.8,16.5,1.2
		c-9.1,2.3-18.2,4.7-27.3,7c6.5,1,13,1.5,19.5,1.4c-4.2,2.5-8.7,4.7-13.2,6.5c5,0.3,10,0.6,15,0.9c-6.9,5.9-18.3,2.3-25.9,7.2
		c9.6,1.6,19.4,2.4,29.1,2.3c-6.9,2.9-14.2,4.7-21.6,5.2c5.3-0.8,10.8-0.4,15.9,1.2c-12,4.3-23.8,9.1-35.2,14.6
		c16.7,0.5,33.3,1,50,1.6c-11.3,4.4-23.5,5.8-35.6,7.1c20.8,2.8,41.7,4.2,62.7,4.2c-27,4.9-54.1,9.8-81.1,14.7
		c26.6,0.3,53.3,0.7,79.9,1c-26.5,1.7-53.2,3.4-79,10.1c7.6,2.4,15.8,2.5,23.8,2.4c25.9-0.1,51.7-1.2,77.5-3.3
		c-38.6,5.3-77.3,10.5-115.9,15.8c35.7-1.3,71.4-2.5,107-3.8c-35,11.2-72.8,8-109,14.4c34.7,1.3,69.4,0.8,104-1.5
		c-25.3,3.4-50.6,7.5-75.7,12.4c22.2-0.6,44.5-1.2,66.4,2.5c-12.2,1.6-24.4,3.2-36.5,4.8c-10.3,1.4-20.6,2.7-30.5,5.9
		c16.3,0.8,32.6,1.3,48.8,1.5c-9.6,3.8-20.1,5.1-30.1,7.6s-20.3,6.6-26.7,14.7c19.7,1.8,39.7,0.5,59-4c-13.7,2.8-27.2,6.6-40.3,11.4
		c-2,0.7-4.3,1.7-5,3.7c10.2,0.3,20.4,0.5,30.7,0.8c-10.3,2.8-20.7,5.6-31,8.4c-5,1.3-10.1,2.7-14.5,5.5c0.3,2.3,3.3,2.9,5.7,2.9
		c13.5-0.1,26.9-0.8,40.3-2.1c-7.7-0.3-15.6,1.2-22.6,4.6c13.5-0.3,26.9-0.6,40.4-0.9c-15.2,0.2-30.7,0.5-45,5.4
		c8.3,2.1,17,2.5,25.5,1.2c3.7-0.6,7.5-1.5,10.7-3.5s5.7-5.4,5.9-9.2"/>
</g>
<g id="Layer_1">
	
		<ellipse transform="matrix(0.1033 -0.9946 0.9946 0.1033 -7.6449 105.3674)" class="st2" cx="54.6" cy="56.9" rx="22.2" ry="13.7"/>
	<path class="st2" d="M47.8,35.9c0,0,9.4,2.8,16.1,1.1"/>
	<path class="st2" d="M46.3,37.5c0,0,12.6,4.4,19.4,2.2"/>
	<path class="st2" d="M44.5,40.4c0.1,0.2,12.9,5.3,23.1,2"/>
	<polyline class="st2" points="47.4,76.9 45.5,86.5 55.9,86.5 55.9,78.6 	"/>
	<path class="st2" d="M57.2,129.5c-1.4,14.1-2.6,26.1-2.6,26.1s-19.5,4.7-33.3,0l13.4-69.1h26.7c0,0-1.4,14.7-3,30.5"/>
	<polyline class="st2" points="49.3,106.2 66.9,127.2 93.9,135.1 108.1,136.8 110.8,140.8 91.9,140.8 63.3,136.1 45.5,118.5 	"/>
	<line class="st2" x1="66.9" y1="127.2" x2="63.3" y2="136.1"/>
	<polyline class="st2" points="95,135.5 98,132.6 99.7,132.6 99.7,135.8 	"/>
	<polyline class="st2" points="21.3,155.6 63.3,177.5 44,230.5 48,232 78.2,171.6 53.4,155.9 	"/>
	<polyline class="st2" points="44,230.5 42.6,234.7 68.3,242.9 69.7,234.3 48,232 	"/>
	<path class="st2" d="M42.6,166.7l-21.3-2.4l-1.8-74.4l-7.6,1.4c0,0,2.5,83.7,3.4,84c0.8,0.3,40.6-1.7,40.6-1.7"/>
	<polyline class="st2" points="15.3,175.3 19.5,238.7 25.2,238.7 26.6,175.3 	"/>
	<path class="st2" d="M57.3,174.4c0,0,0,8.9,0,19.5"/>
	<path class="st2" d="M57.3,213.3c0,7.9,0,15.2,0,19.7"/>
	<path class="st2" d="M61.1,233.5c0.4-6.3,1.3-19.5,2.1-31.9"/>
	<path class="st2" d="M113.8,123.5c10.3-0.9,21.7-1.4,33.7-1.4c7.5,0,14.8,0.2,21.7,0.6"/>
	<path class="st2" d="M208.6,127.3c1.6,0.3,3.1,0.7,4.6,1"/>
	<path class="st2" d="M224.6,132.1c4.6,2.1,7.2,4.4,7.2,6.8c0,9.3-37.7,16.8-84.2,16.8s-84.2-7.5-84.2-16.8c0-0.9,0.4-1.9,1.2-2.8"
		/>
	<path class="st2" d="M140.1,155.6l3.6,57.8c0,0-10.8,5.9-9.8,5.9s29.7,0,29.7,0l-12.1-5.9l3.2-57.7"/>
	<path class="st2" d="M61.1,89.7c0,0.2,20,33.8,20,33.8l16.2-0.7l2.4-3.8l6,4.6l-1.9,3.7l-3.1-2.3"/>
	<path class="st2" d="M59.5,106.2c0,0,17.4,23.9,18.7,24.3s19.2-2.2,19.2-2.2s3.1,1.1,4.9,1.8"/>
	<polyline class="st2" points="102.3,120.9 102.3,115.6 113.9,115.6 113.9,132.2 102.3,132.2 102.3,126.1 	"/>
	<path class="st2" d="M102.3,116.1c0,0,7.8,3.8,11.6,0"/>
	<ellipse transform="matrix(0.9946 -0.1033 0.1033 0.9946 -4.656 23.9855)" class="st2" cx="229.1" cy="56.9" rx="13.7" ry="22.2"/>
	<polyline class="st2" points="236.3,76.9 238.3,86.5 227.9,86.5 227.9,78.6 	"/>
	<path class="st2" d="M226.6,129.5c0.1,1.3,0.2,2.5,0.4,3.7"/>
	<path class="st2" d="M228,144.1c0.7,6.9,1.1,11.5,1.1,11.5s19.5,4.7,33.3,0l-13.4-69.1h-26.7c0,0,1.4,14.7,3,30.5"/>
	<polyline class="st2" points="234.4,106.2 216.8,127.2 189.9,135.1 175.7,136.8 172.9,140.8 191.8,140.8 220.4,136.1 238.3,118.5 	
		"/>
	<line class="st2" x1="216.8" y1="127.2" x2="220.4" y2="136.1"/>
	<polyline class="st2" points="188.8,135.5 185.7,132.6 184,132.6 184,135.8 	"/>
	<polyline class="st2" points="262.4,155.6 220.4,177.5 239.7,230.5 235.7,232 205.6,171.6 230.3,155.9 	"/>
	<polyline class="st2" points="239.7,230.5 241.2,234.7 215.4,242.9 214,234.3 235.7,232 	"/>
	<path class="st2" d="M241.2,166.7l21.3-2.4l1.8-74.4l7.6,1.4c0,0-2.5,83.7-3.4,84s-40.6-1.7-40.6-1.7"/>
	<polyline class="st2" points="268.5,175.3 264.2,238.7 258.6,238.7 257.1,175.3 	"/>
	<path class="st2" d="M226.4,174.4c0,0,0,8.9,0,19.5"/>
	<path class="st2" d="M226.4,213.3c0,7.9,0,15.2,0,19.7"/>
	<path class="st2" d="M222.7,233.5c-0.4-6.3-1.3-19.5-2.1-31.9"/>
	<path class="st2" d="M222.7,89.7c0,0.2-20,33.8-20,33.8l-16.2-0.7L184,119l-6,4.6l1.9,3.7l3.1-2.3"/>
	<path class="st2" d="M224.3,106.2c0,0-17.4,23.9-18.7,24.3s-19.2-2.2-19.2-2.2s-3.1,1.1-4.9,1.8"/>
	<polyline class="st2" points="181.4,120.9 181.4,115.6 169.9,115.6 169.9,132.2 181.4,132.2 181.4,126.1 	"/>
	<path class="st2" d="M181.4,116.1c0,0-7.8,3.8-11.6,0"/>
	<polygon class="st2" points="127.3,142.5 127.3,134.5 149,125.4 160.2,131.2 160.2,137.7 140.6,148.9 	"/>
	<polyline class="st2" points="127.3,134.5 140.5,140.3 160.2,131.2 	"/>
	<line class="st2" x1="140.5" y1="140.3" x2="140.6" y2="148.9"/>
	<line class="st3" x1="137.9" y1="135.8" x2="149.9" y2="129.4"/>
	<line class="st3" x1="145.4" y1="129.4" x2="148.7" y2="132.6"/>
</g>
<g id="Layer_3">
	<polygon class="st4" points="205.5,109.3 161.3,109.3 161.3,123.5 150.6,151.2 155.8,152.9 163.5,148.6 164.8,172.3 148.9,180 
		158.4,234.5 152.3,236.4 159.3,239.7 164.8,239.8 163.5,197.1 168.8,198.8 208.4,197.8 206.6,140.8 	"/>
	<polygon class="st4" points="83,109.3 127.2,109.3 127.1,123.5 137.9,151.2 132.6,152.9 124.9,148.6 123.6,172.3 139.6,180 
		130.1,234.5 136.2,236.4 129.1,239.7 123.6,239.8 124.9,197.1 119.6,198.8 80,197.8 81.8,140.8 	"/>
</g>
<g id="Layer_2">
	<ellipse class="st2" cx="104.7" cy="84" rx="13.7" ry="19.7"/>
	<polyline class="st2" points="99.7,102.4 99,109.3 107.9,109.3 107.9,103.8 	"/>
	<path class="st2" d="M127.3,109.3c0,0-43.6-0.3-44.2,0l-2.9,79.2h42.7L127.3,109.3z"/>
	<polyline class="st2" points="80.1,198.8 83.4,258.7 88.7,258.7 88.7,198.8 	"/>
	<polyline class="st2" points="111,198.8 114.8,258.7 121.5,257 121.5,198.8 135.4,192.3 134.9,184.4 122.8,188.5 121.5,198.8 
		80.1,198.8 80.1,188.5 	"/>
	<path class="st2" d="M123.7,172.3l16,7.7l-10.4,59.7c0,0-5.3,1.2-5.5,0.2c-0.5-1.7,1.8-42.9,1.8-42.9"/>
	<path class="st2" d="M99,198.8l-0.8,41.1c0,0,5.6,1,5.3,0c-0.4-1,4.3-41.1,4.3-41.1"/>
	<polyline class="st2" points="129.3,239.7 136.3,236.4 130,235.1 	"/>
	<polyline class="st2" points="103,240.2 112,235.1 104.3,233.3 	"/>
	<polyline class="st2" points="126.6,121.9 138,151.2 132.8,152.9 125.1,148.6 	"/>
	<ellipse class="st2" cx="183.9" cy="84" rx="13.7" ry="19.7"/>
	<polyline class="st2" points="188.8,102.4 189.6,109.3 180.6,109.3 180.6,103.8 	"/>
	<path class="st2" d="M161.3,109.3c0,0,43.6-0.3,44.2,0l2.9,79.2h-42.7L161.3,109.3z"/>
	<polyline class="st2" points="208.4,198.8 205.2,258.7 199.8,258.7 199.8,198.8 	"/>
	<polyline class="st2" points="177.5,198.8 173.7,258.7 167,257 167,198.8 153.1,192.3 153.6,184.4 165.7,188.5 167,198.8 
		208.4,198.8 208.4,188.5 	"/>
	<path class="st2" d="M164.8,172.3l-16,7.7l10.4,59.7c0,0,5.3,1.2,5.5,0.2c0.5-1.7-1.8-42.9-1.8-42.9"/>
	<path class="st2" d="M189.6,198.8l0.8,41.1c0,0-5.6,1-5.3,0c0.4-1-4.3-41.1-4.3-41.1"/>
	<polyline class="st2" points="159.3,239.7 152.3,236.4 158.5,235.1 	"/>
	<polyline class="st2" points="185.6,240.2 176.6,235.1 184.2,233.3 	"/>
	<polyline class="st2" points="163.5,148.6 155.8,152.9 150.6,151.2 162,121.9 	"/>
</g>
<g id="Layer_4">
	<path class="st2" d="M112.5,68.4c1.1-7.7,5.7-13.4,11-13.3c6,0.2,10.6,7.7,10.3,16.7s-5.3,16.3-11.3,16.1c-1.3,0-2.5-0.4-3.6-1.1"
		/>
	<path class="st2" d="M125.1,88.2l-0.6,5.2l-7.5-0.7l1.4-6.2C118.4,86.5,122.8,88.9,125.1,88.2z"/>
	<polyline class="st2" points="124.5,93.4 133.9,94.5 137.3,122.1 	"/>
	<path class="st2" d="M215.3,58c-1.8-1.9-4-2.9-6.4-2.9c-6,0.2-10.6,7.7-10.3,16.7S204,88.1,210,88c5.8-0.2,10.2-7.2,10.3-15.8"/>
	<path class="st2" d="M207.5,88.2l0.6,5.2l7.5-0.7l-1.4-6.2C214.2,86.5,209.7,88.9,207.5,88.2z"/>
	<path class="st2" d="M220.4,92.5l-22.6,2c0,0-0.9,7.3-1.8,14.5"/>
</g>
</svg>
