<?xml version="1.0" encoding="utf-8"?>
<!-- Generator: Adobe Illustrator 19.2.1, SVG Export Plug-In . SVG Version: 6.00 Build 0)  -->
<svg version="1.0" xmlns="http://www.w3.org/2000/svg" xmlns:xlink="http://www.w3.org/1999/xlink" x="0px" y="0px" width="432px"
	 height="432px" viewBox="0 0 432 432" enable-background="new 0 0 432 432" xml:space="preserve">
<g id="Layer_2">
	<path fill="#27AAE1" d="M213.7,143.1c0,0-20.1,45.3,5.5,59.4c0,0-19.2,2.2-22.7-25.4C193.2,151.5,213.7,143.1,213.7,143.1z"/>
	<path fill="#27AAE1" d="M188.5,271.3c-0.5,0.5-1.1,0.9-1.7,1.1v15.4l16.1-1.2l-2.4-32.6C197.6,260.3,193.4,266.3,188.5,271.3z"/>
	<path fill="#27AAE1" d="M192.2,232.3c2.3-4,3.5-11.4,3.5-15.8c0-1.7,0.7-3,1.8-3.8l-1.1-14.5h-9.6v40
		C189,235.5,190.4,235.4,192.2,232.3z"/>
	<path fill="#27AAE1" d="M205.5,240.2c0,0-5.7-1-5.8,0s-19.3,27.4-39.4,28.4l-1.4,20.1c0,0,19.9-6.7,28.2-16.1
		c8.3-9.4,12.6-15.8,12.6-15.8L205.5,240.2z"/>
</g>
<g id="Layer_1">
	
		<ellipse transform="matrix(0.9982 -6.018231e-02 6.018231e-02 0.9982 -9.995 13.395)" fill="none" stroke="#000000" stroke-width="2" stroke-miterlimit="10" cx="217.4" cy="172.6" rx="20.6" ry="29.9"/>
	<path fill="none" stroke="#000000" stroke-width="2" stroke-miterlimit="10" d="M203,146.5c0,0,18.9,1.2,25.1-1.2"/>
	<path fill="none" stroke="#000000" stroke-width="2" stroke-miterlimit="10" d="M199.8,150c1,0.2,21,4,32.5-1.2"/>
	<path fill="none" stroke="#000000" stroke-width="2" stroke-miterlimit="10" d="M198.5,153.8c0,0,23.5,6.6,35.2-2.2"/>
	<path fill="none" stroke="#000000" stroke-width="2" stroke-miterlimit="10" d="M250.8,283l-4.3-90c0,0-6.6,0.7-14.4,1.5"/>
	<path fill="none" stroke="#000000" stroke-width="2" stroke-miterlimit="10" d="M206.1,197.2c-10.6,1.1-19.1,2-19.1,2
		c-0.2,0.7-0.2,20-0.1,40.3"/>
	<path fill="none" stroke="#000000" stroke-width="2" stroke-miterlimit="10" d="M187,272.6c0,8.3,0,13.9,0,13.9"/>
	<path fill="none" stroke="#000000" stroke-width="2" stroke-miterlimit="10" d="M186.9,200.8C160,221,159,287.8,159,287.8
		c39-9,46.5-47.5,46.5-47.5l13.5-5c0,0,4.8-11,4.8-12s-1.5-4.8-1.5-4.8s2.5-2.8,3.2-2.3s-3.8-6.5-3.8-6.5l-5.8,1.5l-5.8-5l-4.5-2.8
		c0,0-3.8,2.2-4.5,2.8l-4.4,5.8l-4.5,20.7c0,0-17.1,21.2-30.5,29.3"/>
	<path fill="none" stroke="#000000" stroke-width="2" stroke-miterlimit="10" d="M186.9,230c0,0-5.1,13.3-6.5,16.1"/>
	<polyline fill="none" stroke="#000000" stroke-width="2" stroke-miterlimit="10" points="199.3,214.3 208.3,218.5 210.8,215.6 
		206.5,206.8 	"/>
	<line fill="none" stroke="#000000" stroke-width="2" stroke-miterlimit="10" x1="222.6" y1="226.6" x2="213.7" y2="223.3"/>
	<line fill="none" stroke="#000000" stroke-width="2" stroke-miterlimit="10" x1="220.7" y1="231.2" x2="211.9" y2="228.8"/>
	<line fill="none" stroke="#000000" stroke-width="2" stroke-miterlimit="10" x1="222.2" y1="218.5" x2="215.2" y2="217.3"/>
	<polyline fill="none" stroke="#000000" stroke-width="2" stroke-miterlimit="10" points="246.5,193 268.2,248.8 274.7,282.5 	"/>
	<path fill="none" stroke="#000000" stroke-width="2" stroke-miterlimit="10" d="M249.2,249c0,0.7,4,7.8,4,7.8l5.7,26.3"/>
	<line fill="none" stroke="#000000" stroke-width="2" stroke-miterlimit="10" x1="268.2" y1="248.8" x2="253.2" y2="256.8"/>
</g>
<g id="Layer_3">
	<path opacity="0" fill="none" stroke="#27AAE1" stroke-width="20" stroke-miterlimit="10" d="M191.3,145.9
		c9.3-0.5,18.5-0.9,27.8-1.4c-11,2-22.1,4-33.1,5.9c9.9,0,19.8,0,29.7,0c-9.5,4.5-19.3,8.3-29.4,11.3c13.5,0.2,26.9,0.4,40.4,0.6
		c-13,3.2-25.9,6.5-38.9,9.7c10.2-0.1,20.4-0.3,30.6-0.4c-11.3,2.8-22.5,5.6-33.8,8.3c13.2,0.2,26.4,0.4,39.6,0.6
		c-20.2,6.4-41.7,7.6-62.9,8.7c15.7,0.4,31.5,0.8,47.2,1.2c-13.2,4.5-26.3,9-39.5,13.5c15.3-0.7,30.6-0.9,45.9-0.5
		c-16.4,4-32.8,8-49.2,12c14.8-1.1,29.6-2.2,44.3-0.3c-18.1,5.2-36.5,9.6-55.1,13.1c20-0.4,39.9-0.8,59.9-1.3
		c-23.1,8.3-47.8,10.9-72.2,13.4c20-0.2,40-0.3,60-0.5c-19.7,5.7-39.4,11.4-59.2,17.2c19.3-1.4,38.7-2.7,58-4.1
		c-17.3,9.2-38.9,7.9-55.9,17.7c23.3,0,46.6-0.5,69.8-1.6c-20.5,5.5-41.4,9.5-62.5,12.1c15.5-1.8,31.1-2.9,46.8-3.3
		c-10.4,1.6-20.5,5.3-29.4,10.9c33.5-1.5,66.9-3.1,100.4-4.8c1.7-0.1,3.6-0.2,5-1.2c1.4-1,2.1-3.2,1-4.5"/>
</g>
</svg>
