<?xml version="1.0" encoding="utf-8"?>
<!-- Generator: Adobe Illustrator 19.2.1, SVG Export Plug-In . SVG Version: 6.00 Build 0)  -->
<svg version="1.0" xmlns="http://www.w3.org/2000/svg" xmlns:xlink="http://www.w3.org/1999/xlink" x="0px" y="0px" width="432px"
	 height="432px" viewBox="0 0 432 432" enable-background="new 0 0 432 432" xml:space="preserve">
<g id="Layer_2">
	<path fill="#27AAE1" d="M172.5,169c0,0-16.4,33.4-32.8,44.8l-2.5,21.9c0,0,43.1-30.6,40.7-51.6c-0.2-1.4-0.9-14.6-0.9-14.6
		l-4.8-1.6"/>
	<path fill="#27AAE1" d="M303.5,121.4c0,0-13.6,20-4.6,36.3c0,0-12.7-7.3-8.9-20.3C293.9,124.3,301.5,121.3,303.5,121.4z"/>
	<path fill="#27AAE1" d="M285.7,162.3l-2.8,56l42.3,80h-3c0,0-26.2-48.3-33.4-57.1l-0.9-1.4l-1,7.5c0,0-5.4,21.2-14.8,30.1
		s-16.4,18.3-16.4,18.3l16,10.8l-12.2,3.4l-15-11.6c0,0,13.6-14.3,16.8-21.8c3.2-7.5,10.2-27.2,11.4-34.5s2.9-21.9,2.9-21.9l-2-3.1
		l4.4-40.4l-13.6,3.8l-5.9,23.7h-2l4.8-28.7l16.7-10.9L285.7,162.3z"/>
	<polygon fill="#27AAE1" points="322.3,298.3 321.5,303 341.1,309.9 349.5,301.5 	"/>
</g>
<g id="Layer_1">
	
		<ellipse transform="matrix(0.1802 -0.9836 0.9836 0.1802 110.4675 411.7721)" fill="none" stroke="#000000" stroke-width="2" stroke-miterlimit="10" cx="302.3" cy="139.6" rx="18.4" ry="12.4"/>
	<path fill="none" stroke="#000000" stroke-width="2" stroke-miterlimit="10" d="M292.3,124.1c0,0,13.8,1.9,21,0"/>
	<path fill="none" stroke="#000000" stroke-width="2" stroke-miterlimit="10" d="M290.4,127.3c0,0,14,2.8,24.8,0"/>
	<path fill="none" stroke="#000000" stroke-width="2" stroke-miterlimit="10" d="M289,130.9c0,0,16.2,3.7,26.6,0"/>
	<polyline fill="none" stroke="#000000" stroke-width="2" stroke-miterlimit="10" points="293.9,154.8 292.3,162.1 299.8,163.5 
		301.2,157.3 	"/>
	<path fill="none" stroke="#000000" stroke-width="2" stroke-miterlimit="10" d="M308.9,166.6c0,0-17.8-8.3-29.5-2.6l-5.7,52.9
		l19.4,2.6L308.9,166.6z"/>
	<polyline fill="none" stroke="#000000" stroke-width="2" stroke-miterlimit="10" points="279.4,164.1 257.5,172.9 254.3,204.2 
		258.6,204.2 264.5,180.5 	"/>
	<line fill="none" stroke="#000000" stroke-width="2" stroke-miterlimit="10" x1="256.5" y1="182.6" x2="278.1" y2="176.7"/>
	<polyline fill="none" stroke="#000000" stroke-width="2" stroke-miterlimit="10" points="258.6,204.2 261.3,209 261.3,214.4 
		258.1,214.4 256.5,211.7 255,223.8 250.2,217.6 254.3,203.8 	"/>
	<path fill="none" stroke="#000000" stroke-width="2" stroke-miterlimit="10" d="M308.1,169.5c0,0,4.9,27,28.4,27.7v5.3
		c0,0-19.7,2-32.9-16.5"/>
	<polyline fill="none" stroke="#000000" stroke-width="2" stroke-miterlimit="10" points="336.5,197.2 344,194.7 355.3,200.8 
		349.6,203.8 344.5,202.6 345.9,205.1 342,205.8 336.5,202.5 	"/>
	<path fill="none" stroke="#000000" stroke-width="2" stroke-miterlimit="10" d="M273.7,217c0,0,39.2,61,48.6,81.2h6.4
		c0,0-21.6-57-35.6-78.6"/>
	<path fill="none" stroke="#000000" stroke-width="2" stroke-miterlimit="10" d="M275.4,219.7c0,0-0.7,45.9-25.2,73l4.1,3
		c0,0,31.9-24.5,33.7-56"/>
	<polygon fill="none" stroke="#000000" stroke-width="2" stroke-miterlimit="10" points="322.3,298.3 348,299.5 337.1,307.8 
		321.5,303 	"/>
	<path fill="none" stroke="#000000" stroke-width="2" stroke-miterlimit="10" d="M250.2,292.7l-5.7,5.6c0,0,8.9,10.6,9.4,10.6
		c0.5,0,16.5-3.7,16.5-3.7l-16-9.6"/>
	<path fill="none" stroke="#000000" stroke-width="2" stroke-miterlimit="10" d="M29,292.7c0,0,54.7,0,110.6,0"/>
	<path fill="none" stroke="#000000" stroke-width="2" stroke-miterlimit="10" d="M149.6,292.7c6.7,0,13.3,0,19.8,0"/>
	<path fill="none" stroke="#000000" stroke-width="2" stroke-miterlimit="10" d="M181.1,292.7c30.8,0,57.5,0,69.5,0"/>
	<path fill="none" stroke="#000000" stroke-width="2" stroke-miterlimit="10" d="M258.4,292.7c19.7,0,41.1,0,61,0"/>
	<path fill="none" stroke="#000000" stroke-width="2" stroke-miterlimit="10" d="M327.1,292.7c39.6,0,71.8,0,71.8,0"/>
	<line fill="none" stroke="#000000" stroke-width="2" stroke-miterlimit="10" x1="7.4" y1="323.2" x2="424.3" y2="323.2"/>
	<path fill="none" stroke="#000000" stroke-width="2" stroke-miterlimit="10" d="M163.9,161l-4,0.2c-6.6,0.3-12.2-4.9-12.5-11.5
		l-0.7-15.8c-0.3-6.6,4.9-12.2,11.5-12.5l4-0.2c6.6-0.3,12.2,4.9,12.5,11.5l0.7,15.8C175.7,155.1,170.5,160.7,163.9,161z"/>
	<path fill="none" stroke="#000000" stroke-width="2" stroke-miterlimit="10" d="M147.2,143.9c0,0,6.4,1,10.3-0.6
		c3.9-1.6,9.5-1.4,10.3,0c0.8,1.5,7.4,1.2,7.4,1.2"/>
	<path fill="none" stroke="#000000" stroke-width="2" stroke-miterlimit="10" d="M146.9,138.5c0,0-4.3-0.1-4.3,3.8
		c0,3.8,4.1,5.4,4.1,5.4"/>
	<path fill="none" stroke="#000000" stroke-width="2" stroke-miterlimit="10" d="M166.3,167.9c6.3-0.8,12.6-2.7,18.5-6.3
		c0,0-5.8-12.1-5.8-24.3s-2.5-26.8-18-25.4c0,0-24.7-3.4-28.2,30.7c0,0-2.2,19.5-3.3,20.8c0,0,7.6,4.1,17.4,5.6"/>
	<polyline fill="none" stroke="#000000" stroke-width="2" stroke-miterlimit="10" points="154.8,160.3 154.8,167.9 166.3,167.9 
		166.3,160.6 	"/>
	<path fill="none" stroke="#000000" stroke-width="2" stroke-miterlimit="10" d="M143.7,169.5c0,0,22.5-4.1,33.3,0
		c0,0,5,87.5,8.8,112.8c0,0-29.4,11-53.2,0L143.7,169.5z"/>
	<path fill="none" stroke="#000000" stroke-width="2" stroke-miterlimit="10" d="M143.7,169.8c-5.9,2.2-12.6,4.7-12.6,4.7
		l-25.2,36.3c0,0,12.7,13.3,22.2,14.3l9.5-34.3c0,0,1.8-1,4.1-2.3"/>
	<path fill="none" stroke="#000000" stroke-width="2" stroke-miterlimit="10" d="M111.7,216.8c-0.3,0.9-5.8,12.5-5.8,12.5l2.9,11.2
		l8.2-11.9l1.7,4.9l4-2.3l-1.7-8.4"/>
	<path fill="none" stroke="#000000" stroke-width="2" stroke-miterlimit="10" d="M209,205.6c5.3,0.8,14.9,2.2,14.9,2.2l-2.3,4.4
		l-8.2,0.9l5.6,3.8l-2.9,3.3l-8.2-4.3"/>
	<path fill="none" stroke="#000000" stroke-width="2" stroke-miterlimit="10" d="M177.6,179.5c7.1,7.1,21,20,30.9,22.3l-0.6,28.3
		c0,0-17.4-7.9-28.6-25"/>
	<path fill="none" stroke="#000000" stroke-width="2" stroke-miterlimit="10" d="M169.5,168.7c0,0-13.8,25-30,41.9"/>
	<path fill="none" stroke="#000000" stroke-width="2" stroke-miterlimit="10" d="M177.9,184.1c0.1,0.8-19.3,36-40.9,49.7"/>
	<path fill="none" stroke="#000000" stroke-width="2" stroke-miterlimit="10" d="M142,286.2c-1.7,4.6-5.8,15.8-5.8,15.8h4.8
		c0,0,8.2-7.5,13.2-15.1"/>
	<polyline fill="none" stroke="#000000" stroke-width="2" stroke-miterlimit="10" points="165.2,287.2 176.9,303 182.5,303 
		178.5,284.3 	"/>
	<path fill="none" stroke="#000000" stroke-width="2" stroke-miterlimit="10" d="M136.5,303c2.2,0,23.3,3.9,23.3,3.9l-11.7,6.6
		L136.5,303z"/>
	<polygon fill="none" stroke="#000000" stroke-width="2" stroke-miterlimit="10" points="176.2,303 199.9,303 193.4,309.9 
		176.2,306 	"/>
</g>
<g id="Layer_3">
	<path opacity="0" fill="none" stroke="#27AAE1" stroke-width="20" stroke-miterlimit="10" d="M156.3,116.8
		c52.5,0.6,104.9-0.2,157.3-2.6c-33.3,6.3-66.9,10.9-100.6,13.8c36.1,0.3,72.2,0.5,108.3,0.8c-57.5,0.6-114.7,6.8-171.8,13
		c58.5-1.1,117.1-2.2,175.6-3.3c-50.2,4.1-100.4,8.1-150.6,12.2c46.2,1.3,92.5,0.8,138.7-1.6c-55.1,4.9-110.3,9.1-165.6,12.5
		c61.5,0,123,0.6,184.5,1.9c-17.9,4.7-36.7,4.5-55.2,4.6c-49.8,0.4-99.7,3.7-149.1,10.6c-11.1,1.6-22.8,3.5-31.5,10.6
		c58.4-10.1,117.4-18.2,176.6-19.5c10.8-0.2,22.1-0.1,31.9,4.5c-59.5,17.7-124.7,2.9-184.8,18.8c61.6-3.6,123.3-5.8,185-6.6
		c9.4-0.1,18.9-0.2,28.1,1.7c-12.6,2.6-25.6,2.3-38.4,2.1c-44-0.6-88,0.3-131.9,3.9c-10,0.8-20.2,1.8-29.4,5.9
		c54-0.7,108-0.7,162-0.1c-10.1,6-22,7.9-33.6,9.5c-42.8,5.8-85.9,8.6-129.1,8.4c55.7-5.9,111.6-9.6,167.6-11.1
		c-63.6,8.5-128.8,1.6-191.7,14.2c55.8-0.4,111.6-0.7,167.3-1.1c-45.6,13.4-94.3,9.2-141.2,16.3c69.9,1.3,139.4-10.7,209.3-10.4
		c-57.8,11.3-116.8,14.5-175.6,17.6c48-0.9,96-1.8,144-2.8c-44.2,5.2-88.3,10.4-132.5,15.7c41-1.2,82.1-1.7,123.1-1.7
		c-31.6,5.6-63.2,11.2-93.9,20.5c48.4-1.9,96.7-3.8,145.1-5.7c-46.2,4.6-92.4,9.2-138.6,13.8c42.3-0.2,84.6-0.4,126.6,4.1
		c-42.5,7.5-85.9,8.4-129.1,9.3c44.3,0.3,88.7,0.5,133,0.8c-37.8,4.7-75.8,7.9-113.9,9.3c45.8-1.5,91.8-10.5,137.2-4.3
		c-5.4,3.3-12.1,3.7-18.5,4c-20.3,0.8-40.5,1-60.8,0.6c11.3-0.1,22.5-0.1,33.8-0.2c2.8,0,5.7-0.1,8-1.6c2.3-1.5,3.4-5.1,1.5-7.1"/>
</g>
</svg>
