<?xml version="1.0" encoding="utf-8"?>
<!-- Generator: Adobe Illustrator 21.0.0, SVG Export Plug-In . SVG Version: 6.00 Build 0)  -->
<!DOCTYPE svg PUBLIC "-//W3C//DTD SVG 1.0//EN" "http://www.w3.org/TR/2001/REC-SVG-20010904/DTD/svg10.dtd">
<svg version="1.0" id="Layer_1" xmlns="http://www.w3.org/2000/svg" xmlns:xlink="http://www.w3.org/1999/xlink" x="0px" y="0px"
	 width="432px" height="432px" viewBox="0 0 432 432" enable-background="new 0 0 432 432" xml:space="preserve">
<g id="Layer_2">
	<path fill="#27AAE1" d="M280.7,171.2c0,0-16.4,33.4-32.8,44.8l-2.5,21.9c0,0,43.1-30.6,40.7-51.6c-0.2-1.4-0.9-14.6-0.9-14.6
		l-4.8-1.6"/>
	<path fill="#27AAE1" d="M158.5,123.6c0,0-13.6,20-4.6,36.3c0,0-12.7-7.3-8.9-20.3C148.9,126.5,156.5,123.5,158.5,123.6z"/>
	<path fill="#27AAE1" d="M140.7,164.5l-2.8,56l42.3,80h-3c0,0-26.2-48.3-33.4-57.1l-0.9-1.4l-1,7.5c0,0-5.4,21.2-14.8,30.1
		s-16.4,18.3-16.4,18.3l16,10.8l-12.2,3.4l-15-11.6c0,0,13.6-14.3,16.8-21.8c3.2-7.5,10.2-27.2,11.4-34.5c1.2-7.3,2.9-21.9,2.9-21.9
		l-2-3.1l4.4-40.4l-13.6,3.8l-5.9,23.7h-2l4.8-28.7l16.7-10.9L140.7,164.5z"/>
	<polygon fill="#27AAE1" points="177.2,300.5 176.5,305.2 196.1,312.1 204.5,303.7 	"/>
</g>
<g id="Layer_1_1_">
	
		<ellipse transform="matrix(0.1802 -0.9836 0.9836 0.1802 -10.5908 270.8642)" fill="none" stroke="#000000" stroke-width="2" stroke-miterlimit="10" cx="157.2" cy="141.8" rx="18.4" ry="12.4"/>
	<path fill="none" stroke="#000000" stroke-width="2" stroke-miterlimit="10" d="M147.2,126.3c0,0,13.8,1.9,21,0"/>
	<path fill="none" stroke="#000000" stroke-width="2" stroke-miterlimit="10" d="M145.4,129.5c0,0,14,2.8,24.8,0"/>
	<path fill="none" stroke="#000000" stroke-width="2" stroke-miterlimit="10" d="M144,133.1c0,0,16.2,3.7,26.6,0"/>
	<polyline fill="none" stroke="#000000" stroke-width="2" stroke-miterlimit="10" points="148.9,157 147.2,164.3 154.8,165.7 
		156.2,159.5 	"/>
	<path fill="none" stroke="#000000" stroke-width="2" stroke-miterlimit="10" d="M163.9,168.8c0,0-17.8-8.3-29.5-2.6l-5.7,52.9
		l19.4,2.6L163.9,168.8z"/>
	<polyline fill="none" stroke="#000000" stroke-width="2" stroke-miterlimit="10" points="134.4,166.3 112.5,175.1 109.3,206.4 
		113.6,206.4 119.5,182.7 	"/>
	<line fill="none" stroke="#000000" stroke-width="2" stroke-miterlimit="10" x1="111.5" y1="184.8" x2="133.1" y2="178.9"/>
	<polyline fill="none" stroke="#000000" stroke-width="2" stroke-miterlimit="10" points="113.6,206.4 116.2,211.2 116.2,216.6 
		113.1,216.6 111.5,213.9 110,226 105.2,219.8 109.3,206 	"/>
	<path fill="none" stroke="#000000" stroke-width="2" stroke-miterlimit="10" d="M163.1,171.7c0,0,4.9,27,28.4,27.7v5.3
		c0,0-19.7,2-32.9-16.5"/>
	<polyline fill="none" stroke="#000000" stroke-width="2" stroke-miterlimit="10" points="191.5,199.4 199,196.9 210.2,203 
		204.6,206 199.5,204.8 200.9,207.3 197,208 191.5,204.7 	"/>
	<path fill="none" stroke="#000000" stroke-width="2" stroke-miterlimit="10" d="M128.7,219.2c0,0,39.2,61,48.6,81.2h6.4
		c0,0-21.6-57-35.6-78.6"/>
	<path fill="none" stroke="#000000" stroke-width="2" stroke-miterlimit="10" d="M130.4,221.9c0,0-0.7,45.9-25.2,73l4.1,3
		c0,0,31.9-24.5,33.7-56"/>
	<polygon fill="none" stroke="#000000" stroke-width="2" stroke-miterlimit="10" points="177.2,300.5 203,301.7 192.1,310 
		176.5,305.2 	"/>
	<path fill="none" stroke="#000000" stroke-width="2" stroke-miterlimit="10" d="M105.2,294.9l-5.7,5.6c0,0,8.9,10.6,9.4,10.6
		s16.5-3.7,16.5-3.7l-16-9.6"/>
	<path fill="none" stroke="#000000" stroke-width="2" stroke-miterlimit="10" d="M272.5,164.3l-4,0.2c-6.6,0.3-12.2-4.9-12.5-11.5
		l-0.7-15.8c-0.3-6.6,4.9-12.2,11.5-12.5l4-0.2c6.6-0.3,12.2,4.9,12.5,11.5l0.7,15.8C284.4,158.4,279.1,164,272.5,164.3z"/>
	<path fill="none" stroke="#000000" stroke-width="2" stroke-miterlimit="10" d="M255.9,147.2c0,0,6.4,1,10.3-0.6s9.5-1.4,10.3,0
		c0.8,1.5,7.4,1.2,7.4,1.2"/>
	<path fill="none" stroke="#000000" stroke-width="2" stroke-miterlimit="10" d="M255.5,141.8c0,0-4.3-0.1-4.3,3.8
		c0,3.8,4.1,5.4,4.1,5.4"/>
	<path fill="none" stroke="#000000" stroke-width="2" stroke-miterlimit="10" d="M275,171.2c6.3-0.8,12.6-2.7,18.5-6.3
		c0,0-5.8-12.1-5.8-24.3s-2.5-26.8-18-25.4c0,0-24.7-3.4-28.2,30.7c0,0-2.2,19.5-3.3,20.8c0,0,7.6,4.1,17.4,5.6"/>
	<polyline fill="none" stroke="#000000" stroke-width="2" stroke-miterlimit="10" points="263.5,163.6 263.5,171.2 275,171.2 
		275,163.9 	"/>
	<path fill="none" stroke="#000000" stroke-width="2" stroke-miterlimit="10" d="M252.4,172.8c0,0,22.5-4.1,33.3,0
		c0,0,5,87.5,8.8,112.8c0,0-29.4,11-53.2,0L252.4,172.8z"/>
	<path fill="none" stroke="#000000" stroke-width="2" stroke-miterlimit="10" d="M252.4,173.1c-5.9,2.2-12.6,4.7-12.6,4.7
		l-25.2,36.3c0,0,12.7,13.3,22.2,14.3l9.5-34.3c0,0,1.8-1,4.1-2.3"/>
	<path fill="none" stroke="#000000" stroke-width="2" stroke-miterlimit="10" d="M220.4,220.1c-0.3,0.9-5.8,12.5-5.8,12.5l2.9,11.2
		l8.2-11.9l1.7,4.9l4-2.3l-1.7-8.4"/>
	<path fill="none" stroke="#000000" stroke-width="2" stroke-miterlimit="10" d="M317.6,208.9c5.3,0.8,14.9,2.2,14.9,2.2l-2.3,4.4
		l-8.2,0.9l5.6,3.8l-2.9,3.3l-8.2-4.3"/>
	<path fill="none" stroke="#000000" stroke-width="2" stroke-miterlimit="10" d="M286.2,182.8c7.1,7.1,21,20,30.9,22.3l-0.6,28.3
		c0,0-17.4-7.9-28.6-25"/>
	<path fill="none" stroke="#000000" stroke-width="2" stroke-miterlimit="10" d="M278.1,172c0,0-13.8,25-30,41.9"/>
	<path fill="none" stroke="#000000" stroke-width="2" stroke-miterlimit="10" d="M286.5,187.4c0.1,0.8-19.3,36-40.9,49.7"/>
	<path fill="none" stroke="#000000" stroke-width="2" stroke-miterlimit="10" d="M250.6,289.5c-1.7,4.6-5.8,15.8-5.8,15.8h4.8
		c0,0,8.2-7.5,13.2-15.1"/>
	<polyline fill="none" stroke="#000000" stroke-width="2" stroke-miterlimit="10" points="273.9,290.5 285.5,306.3 291.1,306.3 
		287.1,287.6 	"/>
	<path fill="none" stroke="#000000" stroke-width="2" stroke-miterlimit="10" d="M245.1,306.3c2.2,0,23.3,3.9,23.3,3.9l-11.7,6.6
		L245.1,306.3z"/>
	<polygon fill="none" stroke="#000000" stroke-width="2" stroke-miterlimit="10" points="284.9,306.3 308.5,306.3 302,313.2 
		284.9,309.3 	"/>
</g>
<g id="Layer_3">
	<path fill="none" stroke="#27AAE1" stroke-width="20" stroke-miterlimit="10" stroke-opacity="0" d="M78.4,298.3
		c-1.9,2-0.8,5.6,1.5,7.1s5.2,1.6,8,1.6c11.3,0.1,22.5,0.1,33.8,0.2c-20.3,0.4-40.5,0.2-60.8-0.6c-6.4-0.3-13.1-0.7-18.5-4
		c45.4-6.2,91.4,2.8,137.2,4.3c-38.1-1.4-76.1-4.6-113.9-9.3c44.3-0.3,88.7-0.5,133-0.8c-43.2-0.9-86.6-1.8-129.1-9.3
		c42-4.5,84.3-4.3,126.6-4.1c-46.2-4.6-92.4-9.2-138.6-13.8c48.4,1.9,96.7,3.8,145.1,5.7c-30.7-9.3-62.3-14.9-93.9-20.5
		c41,0,82.1,0.5,123.1,1.7c-44.2-5.3-88.3-10.5-132.5-15.7c48,1,96,1.9,144,2.8c-58.8-3.1-117.8-6.3-175.6-17.6
		c69.9-0.3,139.4,11.7,209.3,10.4c-46.9-7.1-95.6-2.9-141.2-16.3c55.7,0.4,111.5,0.7,167.3,1.1c-62.9-12.6-128.1-5.7-191.7-14.2
		c56,1.5,111.9,5.2,167.6,11.1c-43.2,0.2-86.3-2.6-129.1-8.4c-11.6-1.6-23.5-3.5-33.6-9.5c54-0.6,108-0.6,162,0.1
		c-9.2-4.1-19.4-5.1-29.4-5.9c-43.9-3.6-87.9-4.5-131.9-3.9c-12.8,0.2-25.8,0.5-38.4-2.1c9.2-1.9,18.7-1.8,28.1-1.7
		c61.7,0.8,123.4,3,185,6.6c-60.1-15.9-125.3-1.1-184.8-18.8c9.8-4.6,21.1-4.7,31.9-4.5c59.2,1.3,118.2,9.4,176.6,19.5
		c-8.7-7.1-20.4-9-31.5-10.6c-49.4-6.9-99.3-10.2-149.1-10.6c-18.5-0.1-37.3,0.1-55.2-4.6c61.5-1.3,123-1.9,184.5-1.9
		c-55.3-3.4-110.5-7.6-165.6-12.5c46.2,2.4,92.5,2.9,138.7,1.6c-50.2-4.1-100.4-8.1-150.6-12.2c58.5,1.1,117.1,2.2,175.6,3.3
		c-57.1-6.2-114.3-12.4-171.8-13c36.1-0.3,72.2-0.5,108.3-0.8c-33.7-2.9-67.3-7.5-100.6-13.8c52.4,2.4,104.8,3.2,157.3,2.6"/>
</g>
</svg>
