<?xml version="1.0" encoding="utf-8"?>
<!-- Generator: Adobe Illustrator 21.0.0, SVG Export Plug-In . SVG Version: 6.00 Build 0)  -->
<!DOCTYPE svg PUBLIC "-//W3C//DTD SVG 1.0//EN" "http://www.w3.org/TR/2001/REC-SVG-20010904/DTD/svg10.dtd">
<svg version="1.0" id="Lines" xmlns="http://www.w3.org/2000/svg" xmlns:xlink="http://www.w3.org/1999/xlink" x="0px" y="0px"
	 width="678.1px" height="1854.2px" viewBox="0 0 678.1 1854.2" enable-background="new 0 0 678.1 1854.2" xml:space="preserve">
<line fill="none" stroke="#27AAE1" stroke-width="4" stroke-miterlimit="10" x1="572" y1="828.7" x2="480.5" y2="793"/>
<ellipse transform="matrix(0.9914 -0.1309 0.1309 0.9914 -81.9814 62.0865)" fill="none" stroke="#010101" stroke-width="3" stroke-miterlimit="10" cx="431.3" cy="654.6" rx="16.5" ry="23"/>
<polyline fill="none" stroke="#010101" stroke-width="3" stroke-miterlimit="10" points="429.7,678.1 431,683.9 438.8,682.9 
	438.8,676.2 "/>
<path fill="none" stroke="#010101" stroke-width="3" stroke-miterlimit="10" d="M456.7,683.1c0,0-23.9-1-40,4.2l12.3,72.8h26.3
	L456.7,683.1z"/>
<path fill="none" stroke="#010101" stroke-width="3" stroke-miterlimit="10" d="M481.1,735.3c-7-34.9-24.1-51.9-24.1-51.9"/>
<path fill="none" stroke="#010101" stroke-width="3" stroke-miterlimit="10" d="M471.3,738.2c2.1,8.6,6.3,25.6,6.3,25.6l6.3-1.5
	c-0.1-4.7-2.5-22.7-2.8-27"/>
<path fill="none" stroke="#010101" stroke-width="3" stroke-miterlimit="10" d="M457,711c6.3,5.7,11,16.7,14.3,27"/>
<line fill="none" stroke="#010101" stroke-width="3" stroke-miterlimit="10" x1="475.3" y1="714.7" x2="466.6" y2="725.7"/>
<path fill="none" stroke="#010101" stroke-width="3" stroke-miterlimit="10" d="M478,763.4l-8.2,6l2.3,11c0,0,14.7,0,15,0
	c0.4,0,3.2-8.8,3.2-8.8l-6.3-9.5"/>
<path fill="none" stroke="#010101" stroke-width="3" stroke-miterlimit="10" d="M422.6,718.3c-12.2,25.5-34.5,25.3-34.5,25.3
	l-2.5-6.3c29.5-11.3,32.3-44.8,32.3-44.8"/>
<polyline fill="none" stroke="#010101" stroke-width="3" stroke-miterlimit="10" points="388.1,744.6 386.4,749.8 373.4,752.8 
	369.3,736.8 379.7,733.8 385.7,737.7 "/>
<path fill="none" stroke="#010101" stroke-width="3" stroke-miterlimit="10" d="M429.1,759.9c0,0,4.4,82.2,25,123.7l10.5-1
	c0,0-18.5-61.7-9.3-122.5"/>
<path fill="none" stroke="#010101" stroke-width="3" stroke-miterlimit="10" d="M434.4,808.8c-7.3,10.6-20.3,77.2-20.3,77.2l-10-1
	c0,0,9.2-79.8,24.8-127.2"/>
<polyline fill="none" stroke="#010101" stroke-width="3" stroke-miterlimit="10" points="464.6,882.8 467.8,888 445.3,897.5 
	432.2,889.5 454.2,883.8 "/>
<polyline fill="none" stroke="#010101" stroke-width="3" stroke-miterlimit="10" points="404,885 376.4,886.2 386.1,899.1 
	414,894.8 414,886.2 "/>
<line fill="none" stroke="#27AAE1" stroke-width="4" stroke-miterlimit="10" x1="572" y1="1031.4" x2="480.5" y2="1064.5"/>
<ellipse transform="matrix(0.9727 -0.2321 0.2321 0.9727 -211.7006 124.0185)" fill="none" stroke="#010101" stroke-width="3" stroke-miterlimit="10" cx="421.2" cy="961.7" rx="17.1" ry="24.8"/>
<polyline fill="none" stroke="#010101" stroke-width="3" stroke-miterlimit="10" points="421.8,985.9 423.6,993.4 432.1,991.7 
	430.6,984.2 "/>
<path fill="none" stroke="#010101" stroke-width="3" stroke-miterlimit="10" d="M452,1065.6c-6.7,0.8-23,3-23,3L414,998
	c10-6.8,32.6-6.3,32.6-6.3s5.8,52.9,7.5,68.9"/>
<polyline fill="none" stroke="#010101" stroke-width="3" stroke-miterlimit="10" points="462.9,1017 459.8,1052.6 466.7,1054.3 
	475.4,1013.8 446.6,991.7 "/>
<line fill="none" stroke="#010101" stroke-width="3" stroke-miterlimit="10" x1="473.6" y1="1023.8" x2="448.3" y2="1008.2"/>
<polyline fill="none" stroke="#010101" stroke-width="3" stroke-miterlimit="10" points="459.8,1052.6 449.9,1066.3 461.9,1072 
	468.6,1064.8 466.7,1054.3 "/>
<polyline fill="none" stroke="#010101" stroke-width="3" stroke-miterlimit="10" points="419.3,1025.7 407,1040.7 379.5,1027 
	381.2,1020.7 404.5,1027.7 415.5,1004.9 "/>
<path fill="none" stroke="#010101" stroke-width="3" stroke-miterlimit="10" d="M361.5,1022.7c0.2-0.3,4.5-8,4.5-8l4.5-6l10.7,6.7
	v5.3"/>
<path fill="none" stroke="#010101" stroke-width="3" stroke-miterlimit="10" d="M379.5,1027.1l-8.3,3.5c0,0-8-6.6-9.7-7.8"/>
<path fill="none" stroke="#010101" stroke-width="3" stroke-miterlimit="10" d="M454.6,1068.8c-0.5,40.5,31.1,111.9,31.1,111.9
	l-5.5,3.3c-42.4-39.9-48.1-115.5-48.1-115.5"/>
<path fill="none" stroke="#010101" stroke-width="3" stroke-miterlimit="10" d="M435.5,1091.4c-4.3,8.8-30.3,92.7-30.3,92.7l-7-2.2
	c4.8-54.6,30.8-113.4,30.8-113.4"/>
<path fill="none" stroke="#010101" stroke-width="3" stroke-miterlimit="10" d="M480.3,1183.9l-25,16.8c0,0,23,0.8,23.6,0.8
	s15.3-13.3,15.3-13.3l-8-7.7"/>
<path fill="none" stroke="#010101" stroke-width="3" stroke-miterlimit="10" d="M398.1,1182.1c0,0-16.3-1.2-26.6-2l-1,11l11.3,0.7
	c10,1,23.3,2.7,23.3,2.7v-10.3"/>
<line fill="none" stroke="#27AAE1" stroke-width="4" stroke-miterlimit="10" x1="402" y1="670" x2="315.5" y2="515"/>
<ellipse transform="matrix(0.9914 -0.1309 0.1309 0.9914 -44.4767 37.3215)" fill="none" stroke="#010101" stroke-width="3" stroke-miterlimit="10" cx="261.7" cy="357" rx="16.5" ry="23"/>
<polyline fill="none" stroke="#010101" stroke-width="3" stroke-miterlimit="10" points="260,380.5 261.4,386.3 269.2,385.3 
	269.2,378.7 "/>
<path fill="none" stroke="#010101" stroke-width="3" stroke-miterlimit="10" d="M287.1,385.6c0,0-23.9-1-40,4.2l12.3,72.8h26.3
	L287.1,385.6z"/>
<path fill="none" stroke="#010101" stroke-width="3" stroke-miterlimit="10" d="M311.4,437.7c-7-34.9-24.1-51.9-24.1-51.9"/>
<path fill="none" stroke="#010101" stroke-width="3" stroke-miterlimit="10" d="M301.7,440.7c2.1,8.6,6.3,25.6,6.3,25.6l6.3-1.5
	c-0.1-4.7-2.5-22.7-2.8-27"/>
<path fill="none" stroke="#010101" stroke-width="3" stroke-miterlimit="10" d="M287.3,413.4c6.3,5.7,11,16.7,14.3,27"/>
<line fill="none" stroke="#010101" stroke-width="3" stroke-miterlimit="10" x1="305.6" y1="417.1" x2="297" y2="428.1"/>
<path fill="none" stroke="#010101" stroke-width="3" stroke-miterlimit="10" d="M308.3,465.9l-8.2,6l2.3,11c0,0,14.7,0,15,0
	c0.4,0,3.2-8.8,3.2-8.8l-6.3-9.5"/>
<path fill="none" stroke="#010101" stroke-width="3" stroke-miterlimit="10" d="M252.9,420.8c-12.2,25.5-34.5,25.3-34.5,25.3
	l-2.5-6.3c29.5-11.3,32.3-44.8,32.3-44.8"/>
<polyline fill="none" stroke="#010101" stroke-width="3" stroke-miterlimit="10" points="218.4,447.1 216.7,452.3 203.7,455.3 
	199.6,439.3 210.1,436.3 216.1,440.1 "/>
<path fill="none" stroke="#010101" stroke-width="3" stroke-miterlimit="10" d="M259.5,462.4c0,0,4.4,82.2,25,123.7l10.5-1
	c0,0-18.5-61.7-9.3-122.5"/>
<path fill="none" stroke="#010101" stroke-width="3" stroke-miterlimit="10" d="M264.7,511.2c-7.3,10.6-20.3,77.2-20.3,77.2l-10-1
	c0,0,9.2-79.8,24.8-127.2"/>
<polyline fill="none" stroke="#010101" stroke-width="3" stroke-miterlimit="10" points="295,585.3 298.1,590.4 275.7,599.9 
	262.5,591.9 284.5,586.3 "/>
<polyline fill="none" stroke="#010101" stroke-width="3" stroke-miterlimit="10" points="234.4,587.4 206.7,588.6 216.4,601.6 
	244.4,597.3 244.4,588.6 "/>
<path fill="none" stroke="#27AAE1" stroke-width="4" stroke-miterlimit="10" d="M391,810.9c-5-0.9-80,30.1-80,30.1"/>
<ellipse transform="matrix(0.9727 -0.2321 0.2321 0.9727 -147.5522 74.2859)" fill="none" stroke="#010101" stroke-width="3" stroke-miterlimit="10" cx="241.9" cy="664.2" rx="17.1" ry="24.8"/>
<polyline fill="none" stroke="#010101" stroke-width="3" stroke-miterlimit="10" points="242.5,688.3 244.4,695.8 252.8,694.2 
	251.3,686.7 "/>
<path fill="none" stroke="#010101" stroke-width="3" stroke-miterlimit="10" d="M272.7,768.1c-6.7,0.8-23,3-23,3l-15-70.6
	c10-6.8,32.6-6.3,32.6-6.3s5.8,52.9,7.5,68.9"/>
<polyline fill="none" stroke="#010101" stroke-width="3" stroke-miterlimit="10" points="283.6,719.5 280.5,755.1 287.5,756.8 
	296.1,716.3 267.3,694.2 "/>
<line fill="none" stroke="#010101" stroke-width="3" stroke-miterlimit="10" x1="294.3" y1="726.3" x2="269" y2="710.6"/>
<polyline fill="none" stroke="#010101" stroke-width="3" stroke-miterlimit="10" points="280.5,755.1 270.7,768.7 282.6,774.4 
	289.3,767.2 287.5,756.8 "/>
<polyline fill="none" stroke="#010101" stroke-width="3" stroke-miterlimit="10" points="240,728.1 227.7,743.1 200.2,729.4 
	201.9,723.1 225.2,730.1 236.2,707.3 "/>
<path fill="none" stroke="#010101" stroke-width="3" stroke-miterlimit="10" d="M182.2,725.1c0.2-0.3,4.5-8,4.5-8l4.5-6l10.7,6.7
	v5.3"/>
<path fill="none" stroke="#010101" stroke-width="3" stroke-miterlimit="10" d="M200.3,729.6l-8.3,3.5c0,0-8-6.6-9.7-7.8"/>
<path fill="none" stroke="#010101" stroke-width="3" stroke-miterlimit="10" d="M275.3,771.2c-0.5,40.5,31.1,111.9,31.1,111.9
	l-5.5,3.3c-42.4-39.9-48.1-115.5-48.1-115.5"/>
<path fill="none" stroke="#010101" stroke-width="3" stroke-miterlimit="10" d="M256.2,793.8c-4.3,8.8-30.3,92.7-30.3,92.7l-7-2.2
	c4.8-54.6,30.8-113.4,30.8-113.4"/>
<path fill="none" stroke="#010101" stroke-width="3" stroke-miterlimit="10" d="M301.1,886.3l-25,16.8c0,0,22.9,0.8,23.6,0.8
	c0.6,0,15.3-13.3,15.3-13.3l-8-7.7"/>
<path fill="none" stroke="#010101" stroke-width="3" stroke-miterlimit="10" d="M218.9,884.5c0,0-16.3-1.2-26.6-2l-1,11l11.3,0.7
	c10,1,23.3,2.7,23.3,2.7v-10.3"/>
<line fill="none" stroke="#27AAE1" stroke-width="4" stroke-miterlimit="10" x1="384.7" y1="1118.8" x2="306.3" y2="1082"/>
<ellipse transform="matrix(0.9914 -0.1309 0.1309 0.9914 -122.5084 40.4142)" fill="none" stroke="#010101" stroke-width="3" stroke-miterlimit="10" cx="246.2" cy="952.1" rx="16.5" ry="23"/>
<polyline fill="none" stroke="#010101" stroke-width="3" stroke-miterlimit="10" points="244.5,975.6 245.9,981.4 253.7,980.4 
	253.7,973.8 "/>
<path fill="none" stroke="#010101" stroke-width="3" stroke-miterlimit="10" d="M271.6,980.7c0,0-23.9-1-40,4.2l12.3,72.8h26.3
	L271.6,980.7z"/>
<path fill="none" stroke="#010101" stroke-width="3" stroke-miterlimit="10" d="M295.9,1032.8c-7-34.9-24.1-51.9-24.1-51.9"/>
<path fill="none" stroke="#010101" stroke-width="3" stroke-miterlimit="10" d="M286.2,1035.8c2.1,8.6,6.3,25.6,6.3,25.6l6.3-1.5
	c-0.1-4.7-2.5-22.7-2.8-27"/>
<path fill="none" stroke="#010101" stroke-width="3" stroke-miterlimit="10" d="M271.8,1008.5c6.3,5.7,11,16.7,14.3,27"/>
<line fill="none" stroke="#010101" stroke-width="3" stroke-miterlimit="10" x1="290.1" y1="1012.2" x2="281.5" y2="1023.2"/>
<path fill="none" stroke="#010101" stroke-width="3" stroke-miterlimit="10" d="M292.8,1061l-8.2,6l2.3,11c0,0,14.7,0,15,0
	c0.4,0,3.2-8.8,3.2-8.8l-6.3-9.5"/>
<path fill="none" stroke="#010101" stroke-width="3" stroke-miterlimit="10" d="M237.4,1015.9c-12.2,25.5-34.5,25.3-34.5,25.3
	l-2.5-6.3c29.5-11.3,32.3-44.8,32.3-44.8"/>
<polyline fill="none" stroke="#010101" stroke-width="3" stroke-miterlimit="10" points="202.9,1042.2 201.2,1047.4 188.2,1050.4 
	184.1,1034.4 194.6,1031.4 200.6,1035.2 "/>
<path fill="none" stroke="#010101" stroke-width="3" stroke-miterlimit="10" d="M244,1057.5c0,0,4.4,82.2,25,123.7l10.5-1
	c0,0-18.5-61.7-9.3-122.5"/>
<path fill="none" stroke="#010101" stroke-width="3" stroke-miterlimit="10" d="M249.2,1106.4c-7.3,10.6-20.3,77.2-20.3,77.2l-10-1
	c0,0,9.2-79.8,24.8-127.2"/>
<polyline fill="none" stroke="#010101" stroke-width="3" stroke-miterlimit="10" points="279.5,1180.4 282.6,1185.5 260.2,1195 
	247,1187 269,1181.4 "/>
<polyline fill="none" stroke="#010101" stroke-width="3" stroke-miterlimit="10" points="218.9,1182.5 191.2,1183.7 200.9,1196.7 
	228.9,1192.4 228.9,1183.7 "/>
<line fill="none" stroke="#27AAE1" stroke-width="4" stroke-miterlimit="10" x1="365" y1="1201.5" x2="296.6" y2="1295.1"/>
<ellipse transform="matrix(0.9727 -0.2321 0.2321 0.9727 -285.7565 89.8415)" fill="none" stroke="#010101" stroke-width="3" stroke-miterlimit="10" cx="238.9" cy="1259.3" rx="17.1" ry="24.8"/>
<polyline fill="none" stroke="#010101" stroke-width="3" stroke-miterlimit="10" points="239.5,1283.4 241.4,1290.9 249.8,1289.3 
	248.3,1281.8 "/>
<path fill="none" stroke="#010101" stroke-width="3" stroke-miterlimit="10" d="M269.7,1363.2c-6.7,0.8-23,3-23,3l-15-70.6
	c10-6.8,32.6-6.3,32.6-6.3s5.8,52.9,7.5,68.9"/>
<polyline fill="none" stroke="#010101" stroke-width="3" stroke-miterlimit="10" points="280.6,1314.6 277.5,1350.2 284.5,1351.9 
	293.1,1311.4 264.3,1289.3 "/>
<line fill="none" stroke="#010101" stroke-width="3" stroke-miterlimit="10" x1="291.3" y1="1321.4" x2="266" y2="1305.7"/>
<polyline fill="none" stroke="#010101" stroke-width="3" stroke-miterlimit="10" points="277.5,1350.2 267.7,1363.8 279.6,1369.5 
	286.3,1362.3 284.5,1351.9 "/>
<polyline fill="none" stroke="#010101" stroke-width="3" stroke-miterlimit="10" points="237,1323.2 224.7,1338.2 197.2,1324.6 
	198.9,1318.2 222.2,1325.2 233.2,1302.4 "/>
<path fill="none" stroke="#010101" stroke-width="3" stroke-miterlimit="10" d="M179.2,1320.2c0.2-0.3,4.5-8,4.5-8l4.5-6l10.7,6.7
	v5.3"/>
<path fill="none" stroke="#010101" stroke-width="3" stroke-miterlimit="10" d="M197.3,1324.7l-8.3,3.5c0,0-8-6.6-9.7-7.8"/>
<path fill="none" stroke="#010101" stroke-width="3" stroke-miterlimit="10" d="M272.3,1366.3c-0.5,40.5,31.1,111.9,31.1,111.9
	l-5.5,3.3c-42.4-39.9-48.1-115.5-48.1-115.5"/>
<path fill="none" stroke="#010101" stroke-width="3" stroke-miterlimit="10" d="M253.2,1388.9c-4.3,8.8-30.3,92.7-30.3,92.7l-7-2.2
	c4.8-54.6,30.8-113.4,30.8-113.4"/>
<path fill="none" stroke="#010101" stroke-width="3" stroke-miterlimit="10" d="M298.1,1481.5l-25,16.8c0,0,22.9,0.8,23.6,0.8
	c0.6,0,15.3-13.3,15.3-13.3l-8-7.7"/>
<path fill="none" stroke="#010101" stroke-width="3" stroke-miterlimit="10" d="M215.9,1479.6c0,0-16.3-1.2-26.6-2l-1,11l11.3,0.7
	c10,1,23.3,2.7,23.3,2.7v-10.3"/>
<line fill="none" stroke="#27AAE1" stroke-width="4" stroke-miterlimit="10" x1="225.2" y1="369" x2="134.2" y2="224"/>
<ellipse transform="matrix(0.9914 -0.1309 0.1309 0.9914 -6.1725 11.9582)" fill="none" stroke="#010101" stroke-width="3" stroke-miterlimit="10" cx="87.9" cy="52.9" rx="16.5" ry="23"/>
<polyline fill="none" stroke="#010101" stroke-width="3" stroke-miterlimit="10" points="86.4,76.5 87.7,82.3 95.5,81.3 95.5,74.6 
	"/>
<path fill="none" stroke="#010101" stroke-width="3" stroke-miterlimit="10" d="M113.4,81.5c0,0-23.9-1-40,4.2l12.3,72.8H112
	L113.4,81.5z"/>
<path fill="none" stroke="#010101" stroke-width="3" stroke-miterlimit="10" d="M137.8,133.7c-7-34.9-24.1-51.9-24.1-51.9"/>
<path fill="none" stroke="#010101" stroke-width="3" stroke-miterlimit="10" d="M128,136.6c2.1,8.6,6.3,25.6,6.3,25.6l6.3-1.5
	c-0.1-4.7-2.5-22.7-2.8-27"/>
<path fill="none" stroke="#010101" stroke-width="3" stroke-miterlimit="10" d="M113.7,109.4c6.3,5.7,11,16.7,14.3,27"/>
<line fill="none" stroke="#010101" stroke-width="3" stroke-miterlimit="10" x1="132" y1="113.1" x2="123.3" y2="124.1"/>
<path fill="none" stroke="#010101" stroke-width="3" stroke-miterlimit="10" d="M134.6,161.8l-8.2,6l2.3,11c0,0,14.7,0,15,0
	c0.4,0,3.2-8.8,3.2-8.8l-6.3-9.5"/>
<path fill="none" stroke="#010101" stroke-width="3" stroke-miterlimit="10" d="M79.2,116.7C67,142.2,44.7,142,44.7,142l-2.5-6.3
	c29.5-11.3,32.3-44.8,32.3-44.8"/>
<polyline fill="none" stroke="#010101" stroke-width="3" stroke-miterlimit="10" points="44.7,143.1 43.1,148.2 30.1,151.2 
	25.9,135.2 36.4,132.2 42.4,136.1 "/>
<path fill="none" stroke="#010101" stroke-width="3" stroke-miterlimit="10" d="M85.8,158.3c0,0,4.4,82.2,25,123.7l10.5-1
	c0,0-18.5-61.7-9.3-122.5"/>
<path fill="none" stroke="#010101" stroke-width="3" stroke-miterlimit="10" d="M91,207.2c-7.3,10.6-20.3,77.2-20.3,77.2l-10-1
	c0,0,9.2-79.8,24.8-127.2"/>
<polyline fill="none" stroke="#010101" stroke-width="3" stroke-miterlimit="10" points="121.3,281.2 124.5,286.4 102,295.9 
	88.8,287.9 110.8,282.2 "/>
<polyline fill="none" stroke="#010101" stroke-width="3" stroke-miterlimit="10" points="60.7,283.4 33.1,284.6 42.7,297.5 
	70.7,293.2 70.7,284.6 "/>
<line fill="none" stroke="#27AAE1" stroke-width="4" stroke-miterlimit="10" x1="214.2" y1="508" x2="143.2" y2="541"/>
<ellipse transform="matrix(0.9727 -0.2321 0.2321 0.9727 -81.4177 28.2443)" fill="none" stroke="#010101" stroke-width="3" stroke-miterlimit="10" cx="79.3" cy="360.1" rx="17.1" ry="24.8"/>
<polyline fill="none" stroke="#010101" stroke-width="3" stroke-miterlimit="10" points="79.9,384.3 81.7,391.8 90.2,390.1 
	88.7,382.6 "/>
<path fill="none" stroke="#010101" stroke-width="3" stroke-miterlimit="10" d="M110.1,464c-6.7,0.8-23,3-23,3l-15-70.6
	c10-6.8,32.6-6.3,32.6-6.3s5.8,52.9,7.5,68.9"/>
<polyline fill="none" stroke="#010101" stroke-width="3" stroke-miterlimit="10" points="121,415.4 117.8,451 124.8,452.7 
	133.5,412.3 104.7,390.1 "/>
<line fill="none" stroke="#010101" stroke-width="3" stroke-miterlimit="10" x1="131.6" y1="422.2" x2="106.3" y2="406.6"/>
<polyline fill="none" stroke="#010101" stroke-width="3" stroke-miterlimit="10" points="117.8,451 108,464.7 120,470.4 
	126.6,463.2 124.8,452.7 "/>
<polyline fill="none" stroke="#010101" stroke-width="3" stroke-miterlimit="10" points="77.4,424.1 65,439.1 37.6,425.4 
	39.2,419.1 62.5,426.1 73.5,403.3 "/>
<path fill="none" stroke="#010101" stroke-width="3" stroke-miterlimit="10" d="M19.5,421.1c0.2-0.3,4.5-8,4.5-8l4.5-6l10.7,6.7v5.3
	"/>
<path fill="none" stroke="#010101" stroke-width="3" stroke-miterlimit="10" d="M37.6,425.5l-8.3,3.5c0,0-8-6.6-9.7-7.8"/>
<path fill="none" stroke="#010101" stroke-width="3" stroke-miterlimit="10" d="M112.7,467.2c-0.5,40.5,31.1,111.9,31.1,111.9
	l-5.5,3.3c-42.4-39.9-48.1-115.5-48.1-115.5"/>
<path fill="none" stroke="#010101" stroke-width="3" stroke-miterlimit="10" d="M93.5,489.8c-4.3,8.8-30.3,92.7-30.3,92.7l-7-2.2
	C61,525.7,87,466.9,87,466.9"/>
<path fill="none" stroke="#010101" stroke-width="3" stroke-miterlimit="10" d="M138.4,582.3l-25,16.8c0,0,23,0.8,23.6,0.8
	c0.6,0,15.3-13.3,15.3-13.3l-8-7.7"/>
<path fill="none" stroke="#010101" stroke-width="3" stroke-miterlimit="10" d="M56.2,580.5c0,0-16.3-1.2-26.6-2l-1,11l11.3,0.7
	c10,1,23.3,2.7,23.3,2.7v-10.3"/>
<line fill="none" stroke="#27AAE1" stroke-width="4" stroke-miterlimit="10" x1="210.8" y1="793" x2="134.2" y2="793"/>
<ellipse transform="matrix(0.9914 -0.1309 0.1309 0.9914 -84.0838 16.8835)" fill="none" stroke="#010101" stroke-width="3" stroke-miterlimit="10" cx="86.4" cy="648" rx="16.5" ry="23"/>
<polyline fill="none" stroke="#010101" stroke-width="3" stroke-miterlimit="10" points="84.9,671.6 86.2,677.4 94,676.4 94,669.7 
	"/>
<path fill="none" stroke="#010101" stroke-width="3" stroke-miterlimit="10" d="M111.9,676.6c0,0-23.9-1-40,4.2l12.3,72.8h26.3
	L111.9,676.6z"/>
<path fill="none" stroke="#010101" stroke-width="3" stroke-miterlimit="10" d="M136.3,728.8c-7-34.9-24.1-51.9-24.1-51.9"/>
<path fill="none" stroke="#010101" stroke-width="3" stroke-miterlimit="10" d="M126.5,731.7c2.1,8.6,6.3,25.6,6.3,25.6l6.3-1.5
	c-0.1-4.7-2.5-22.7-2.8-27"/>
<path fill="none" stroke="#010101" stroke-width="3" stroke-miterlimit="10" d="M112.2,704.5c6.3,5.7,11,16.7,14.3,27"/>
<line fill="none" stroke="#010101" stroke-width="3" stroke-miterlimit="10" x1="130.5" y1="708.2" x2="121.8" y2="719.2"/>
<path fill="none" stroke="#010101" stroke-width="3" stroke-miterlimit="10" d="M133.1,756.9l-8.2,6l2.3,11c0,0,14.7,0,15,0
	c0.4,0,3.2-8.8,3.2-8.8l-6.3-9.5"/>
<path fill="none" stroke="#010101" stroke-width="3" stroke-miterlimit="10" d="M77.7,711.8c-12.2,25.5-34.5,25.3-34.5,25.3
	l-2.5-6.3C70.2,719.5,73,686,73,686"/>
<polyline fill="none" stroke="#010101" stroke-width="3" stroke-miterlimit="10" points="43.2,738.2 41.6,743.3 28.6,746.3 
	24.4,730.3 34.9,727.3 40.9,731.2 "/>
<path fill="none" stroke="#010101" stroke-width="3" stroke-miterlimit="10" d="M84.3,753.4c0,0,4.4,82.2,25,123.7l10.5-1
	c0,0-18.5-61.7-9.3-122.5"/>
<path fill="none" stroke="#010101" stroke-width="3" stroke-miterlimit="10" d="M89.5,802.3c-7.3,10.6-20.3,77.2-20.3,77.2l-10-1
	c0,0,9.2-79.8,24.8-127.2"/>
<polyline fill="none" stroke="#010101" stroke-width="3" stroke-miterlimit="10" points="119.8,876.3 123,881.5 100.5,891 87.3,883 
	109.3,877.3 "/>
<polyline fill="none" stroke="#010101" stroke-width="3" stroke-miterlimit="10" points="59.2,878.5 31.6,879.7 41.2,892.7 
	69.2,888.3 69.2,879.7 "/>
<line fill="none" stroke="#27AAE1" stroke-width="4" stroke-miterlimit="10" x1="215.6" y1="1100.4" x2="136.5" y2="1100.4"/>
<ellipse transform="matrix(0.9727 -0.2321 0.2321 0.9727 -219.2807 44.701)" fill="none" stroke="#010101" stroke-width="3" stroke-miterlimit="10" cx="80.3" cy="954.2" rx="17.1" ry="24.8"/>
<polyline fill="none" stroke="#010101" stroke-width="3" stroke-miterlimit="10" points="80.9,978.4 82.7,985.9 91.2,984.2 
	89.7,976.7 "/>
<path fill="none" stroke="#010101" stroke-width="3" stroke-miterlimit="10" d="M111.1,1058.1c-6.7,0.8-23,3-23,3l-15-70.6
	c10-6.8,32.6-6.3,32.6-6.3s5.8,52.9,7.5,68.9"/>
<polyline fill="none" stroke="#010101" stroke-width="3" stroke-miterlimit="10" points="122,1009.5 118.8,1045.2 125.8,1046.8 
	134.5,1006.4 105.7,984.2 "/>
<line fill="none" stroke="#010101" stroke-width="3" stroke-miterlimit="10" x1="132.6" y1="1016.4" x2="107.3" y2="1000.7"/>
<polyline fill="none" stroke="#010101" stroke-width="3" stroke-miterlimit="10" points="118.8,1045.2 109,1058.8 121,1064.5 
	127.6,1057.3 125.8,1046.8 "/>
<polyline fill="none" stroke="#010101" stroke-width="3" stroke-miterlimit="10" points="78.4,1018.2 66,1033.2 38.6,1019.5 
	40.2,1013.2 63.5,1020.2 74.5,997.4 "/>
<path fill="none" stroke="#010101" stroke-width="3" stroke-miterlimit="10" d="M20.5,1015.2c0.2-0.3,4.5-8,4.5-8l4.5-6l10.7,6.7
	v5.3"/>
<path fill="none" stroke="#010101" stroke-width="3" stroke-miterlimit="10" d="M38.6,1019.7l-8.3,3.5c0,0-8-6.6-9.7-7.8"/>
<path fill="none" stroke="#010101" stroke-width="3" stroke-miterlimit="10" d="M113.7,1061.3c-0.5,40.5,31.1,111.9,31.1,111.9
	l-5.5,3.3C96.9,1136.6,91.2,1061,91.2,1061"/>
<path fill="none" stroke="#010101" stroke-width="3" stroke-miterlimit="10" d="M94.5,1083.9c-4.3,8.8-30.3,92.7-30.3,92.7l-7-2.2
	C62,1119.8,88,1061,88,1061"/>
<path fill="none" stroke="#010101" stroke-width="3" stroke-miterlimit="10" d="M139.4,1176.4l-25,16.8c0,0,23,0.8,23.6,0.8
	c0.6,0,15.3-13.3,15.3-13.3l-8-7.7"/>
<path fill="none" stroke="#010101" stroke-width="3" stroke-miterlimit="10" d="M57.2,1174.6c0,0-16.3-1.2-26.6-2l-1,11l11.3,0.7
	c10,1,23.3,2.7,23.3,2.7v-10.3"/>
<path fill="none" stroke="#27AAE1" stroke-width="4" stroke-miterlimit="10" d="M201.6,1406c-2.6-2-79.6-28-79.6-28"/>
<ellipse transform="matrix(0.9914 -0.1309 0.1309 0.9914 -162.2232 20.4254)" fill="none" stroke="#010101" stroke-width="3" stroke-miterlimit="10" cx="74.3" cy="1244.2" rx="16.5" ry="23"/>
<polyline fill="none" stroke="#010101" stroke-width="3" stroke-miterlimit="10" points="72.7,1267.6 74.1,1273.5 81.9,1272.5 
	81.9,1265.8 "/>
<path fill="none" stroke="#010101" stroke-width="3" stroke-miterlimit="10" d="M99.8,1272.7c0,0-23.9-1-40,4.2l12.3,72.8h26.3
	L99.8,1272.7z"/>
<path fill="none" stroke="#010101" stroke-width="3" stroke-miterlimit="10" d="M124.1,1324.9c-7-34.9-24.1-51.9-24.1-51.9"/>
<path fill="none" stroke="#010101" stroke-width="3" stroke-miterlimit="10" d="M114.4,1327.8c2.1,8.6,6.3,25.6,6.3,25.6l6.3-1.5
	c-0.1-4.7-2.5-22.7-2.8-27"/>
<path fill="none" stroke="#010101" stroke-width="3" stroke-miterlimit="10" d="M100,1300.6c6.3,5.7,11,16.7,14.3,27"/>
<line fill="none" stroke="#010101" stroke-width="3" stroke-miterlimit="10" x1="118.3" y1="1304.3" x2="109.7" y2="1315.3"/>
<path fill="none" stroke="#010101" stroke-width="3" stroke-miterlimit="10" d="M121,1353l-8.2,6l2.3,11c0,0,14.7,0,15,0
	c0.4,0,3.2-8.8,3.2-8.8l-6.3-9.5"/>
<path fill="none" stroke="#010101" stroke-width="3" stroke-miterlimit="10" d="M65.6,1307.9c-12.2,25.5-34.5,25.3-34.5,25.3
	l-2.5-6.3c29.5-11.3,32.3-44.8,32.3-44.8"/>
<polyline fill="none" stroke="#010101" stroke-width="3" stroke-miterlimit="10" points="31.1,1334.2 29.4,1339.4 16.5,1342.4 
	12.3,1326.4 22.8,1323.4 28.8,1327.2 "/>
<path fill="none" stroke="#010101" stroke-width="3" stroke-miterlimit="10" d="M72.2,1349.5c0,0,4.4,82.2,25,123.7l10.5-1
	c0,0-18.5-61.7-9.3-122.5"/>
<path fill="none" stroke="#010101" stroke-width="3" stroke-miterlimit="10" d="M77.4,1398.4c-7.3,10.6-20.3,77.2-20.3,77.2l-10-1
	c0,0,9.2-79.8,24.8-127.2"/>
<polyline fill="none" stroke="#010101" stroke-width="3" stroke-miterlimit="10" points="107.7,1472.4 110.9,1477.6 88.4,1487.1 
	75.2,1479.1 97.2,1473.4 "/>
<polyline fill="none" stroke="#010101" stroke-width="3" stroke-miterlimit="10" points="47.1,1474.6 19.5,1475.8 29.1,1488.7 
	57.1,1484.4 57.1,1475.8 "/>
<line fill="none" stroke="#27AAE1" stroke-width="4" stroke-miterlimit="10" x1="196.2" y1="1508" x2="122" y2="1591.4"/>
<ellipse transform="matrix(0.9727 -0.2321 0.2321 0.9727 -361.0616 59.9413)" fill="none" stroke="#010101" stroke-width="3" stroke-miterlimit="10" cx="74.2" cy="1564.4" rx="17.1" ry="24.8"/>
<polyline fill="none" stroke="#010101" stroke-width="3" stroke-miterlimit="10" points="74.7,1588.5 76.6,1596 85.1,1594.3 
	83.6,1586.8 "/>
<path fill="none" stroke="#010101" stroke-width="3" stroke-miterlimit="10" d="M104.9,1668.2c-6.7,0.8-23,3-23,3l-15-70.6
	c10-6.8,32.6-6.3,32.6-6.3s5.8,52.9,7.5,68.9"/>
<polyline fill="none" stroke="#010101" stroke-width="3" stroke-miterlimit="10" points="115.9,1619.6 112.7,1655.2 119.7,1656.9 
	128.3,1616.4 99.5,1594.3 "/>
<line fill="none" stroke="#010101" stroke-width="3" stroke-miterlimit="10" x1="126.5" y1="1626.4" x2="101.2" y2="1610.8"/>
<polyline fill="none" stroke="#010101" stroke-width="3" stroke-miterlimit="10" points="112.7,1655.2 102.9,1668.9 114.9,1674.5 
	121.5,1667.4 119.7,1656.9 "/>
<polyline fill="none" stroke="#010101" stroke-width="3" stroke-miterlimit="10" points="72.2,1628.3 59.9,1643.2 32.4,1629.6 
	34.1,1623.3 57.4,1630.3 68.4,1607.5 "/>
<path fill="none" stroke="#010101" stroke-width="3" stroke-miterlimit="10" d="M14.4,1625.3c0.2-0.3,4.5-8,4.5-8l4.5-6l10.7,6.7
	v5.3"/>
<path fill="none" stroke="#010101" stroke-width="3" stroke-miterlimit="10" d="M32.5,1629.7l-8.3,3.5c0,0-8-6.6-9.7-7.8"/>
<path fill="none" stroke="#010101" stroke-width="3" stroke-miterlimit="10" d="M107.6,1671.4c-0.5,40.5,31.1,111.9,31.1,111.9
	l-5.5,3.3c-42.4-39.9-48.1-115.5-48.1-115.5"/>
<path fill="none" stroke="#010101" stroke-width="3" stroke-miterlimit="10" d="M88.4,1694c-4.3,8.8-30.3,92.7-30.3,92.7l-7-2.2
	c4.8-54.6,30.8-113.4,30.8-113.4"/>
<path fill="none" stroke="#010101" stroke-width="3" stroke-miterlimit="10" d="M133.3,1786.5l-25,16.8c0,0,22.9,0.8,23.6,0.8
	c0.6,0,15.3-13.3,15.3-13.3l-8-7.7"/>
<path fill="none" stroke="#010101" stroke-width="3" stroke-miterlimit="10" d="M51.1,1784.7c0,0-16.3-1.2-26.6-2l-1,11l11.3,0.7
	c10,1,23.3,2.7,23.3,2.7v-10.3"/>
</svg>
