<?xml version="1.0" encoding="utf-8"?>
<!-- Generator: Adobe Illustrator 19.2.1, SVG Export Plug-In . SVG Version: 6.00 Build 0)  -->
<svg version="1.0" id="Layer_1" xmlns="http://www.w3.org/2000/svg" xmlns:xlink="http://www.w3.org/1999/xlink" x="0px" y="0px"
	 width="288px" height="288px" viewBox="0 0 288 288" enable-background="new 0 0 288 288" xml:space="preserve">
<path fill="none" stroke="#000000" stroke-width="2" stroke-miterlimit="10" d="M121,161.5c-2.2-3.4-3.5-7.4-3.5-11.6
	c0-12.8,11.7-23.2,26.2-23.2c14.5,0,26.2,10.4,26.2,23.2c0,3-0.6,5.8-1.8,8.4"/>
<line fill="none" stroke="#000000" stroke-width="2" stroke-miterlimit="10" x1="117.8" y1="153.6" x2="126" y2="153"/>
<line fill="none" stroke="#000000" stroke-width="2" stroke-miterlimit="10" x1="118.3" y1="144.2" x2="127.1" y2="148.6"/>
<line fill="none" stroke="#000000" stroke-width="2" stroke-miterlimit="10" x1="122.4" y1="136.3" x2="129.6" y2="143.3"/>
<line fill="none" stroke="#000000" stroke-width="2" stroke-miterlimit="10" x1="128.4" y1="130.9" x2="134.3" y2="140.2"/>
<line fill="none" stroke="#000000" stroke-width="2" stroke-miterlimit="10" x1="135.7" y1="127.7" x2="138.8" y2="137.8"/>
<line fill="none" stroke="#000000" stroke-width="2" stroke-miterlimit="10" x1="145.2" y1="137.8" x2="145.2" y2="126.6"/>
<line fill="none" stroke="#000000" stroke-width="2" stroke-miterlimit="10" x1="151.2" y1="137.8" x2="154.9" y2="128.8"/>
<line fill="none" stroke="#000000" stroke-width="2" stroke-miterlimit="10" x1="156.6" y1="141" x2="163.3" y2="134.4"/>
<line fill="none" stroke="#000000" stroke-width="2" stroke-miterlimit="10" x1="160.9" y1="147.5" x2="168.9" y2="145.3"/>
</svg>
