<?xml version="1.0" encoding="utf-8"?>
<!-- Generator: Adobe Illustrator 20.1.0, SVG Export Plug-In . SVG Version: 6.00 Build 0)  -->
<!DOCTYPE svg PUBLIC "-//W3C//DTD SVG 1.0//EN" "http://www.w3.org/TR/2001/REC-SVG-20010904/DTD/svg10.dtd">
<svg version="1.0" xmlns="http://www.w3.org/2000/svg" xmlns:xlink="http://www.w3.org/1999/xlink" x="0px" y="0px" width="288px"
	 height="288px" viewBox="0 0 288 288" enable-background="new 0 0 288 288" xml:space="preserve">
<g id="Color">
	<g>
		<path fill="#FFFFFF" d="M131.5,146.6l-14.6-19.4l-8.3-1.1l-0.6-4c5.1-3.3,8.3-10.8,8.1-19.2c-0.2-11.5-6.5-20.4-14.4-20.4
			c-0.1,0-0.1,0-0.2,0c-8,0.2-14,9.4-13.8,21c0.2,7.3,2.8,13.8,7,17.5c-0.4,1.7-0.2,3.7-0.1,5.7c0,0.1,0,0.1,0,0.2l-10.8,0.3
			l-0.6,0.8c-1.4,1.9-13.4,18.8-14.9,24l-0.1,0.4l0.1,0.5c0.2,1,4.4,23.8,8.4,33.9l-0.1,0.6c-1.2,5.8-2.6,12.2-3,13.9l-0.4,0.5
			l0.2,1.1c0.2,1,0.3,1.6,7.7,4.4l2.8,1.1l-0.3-11l3.9-2.6c0,0.2-0.1,0.5-0.1,0.7c-0.1,0.3-0.1,0.6-0.2,1c-0.4,2-0.4,3.9-0.5,5.8
			c0,0.3,0,0.6,0.1,0.8l-1.5,2.3l4.4-0.7c11.1-1.7,19.9-1.8,26.9-0.1l1.9,0.4l0.5-1.9c0-0.1,0-0.2,0.1-0.3c0.1-0.1,0.1-0.3,0.2-0.5
			l0.3-0.1l-2.6-18.1c0-1,0.1-1.9,0.2-2.7l0.1-0.5c0.2-1.8,0.4-3.7-0.2-5.6l0.7-24.4l2.2,3l2.2,29.2l-2.4,6.9l5.3,2.7l1.6,11.2
			l9.4-9l-6.3-12.5L131.5,146.6z M84.8,186.8l-3.4-31.1l3.2-4.5l2.4,24l0,0.4c0,0.3-0.1,0.6-0.1,0.9c-0.1,1.6-0.2,3.5,0,5.4
			c0.1,0.9,0.3,1.8,0.4,2.6l0.3,4.9c0,0.7,0.1,1.3,0.1,2L84.8,186.8z"/>
		<path fill="#FFFFFF" d="M212.2,167.2c-0.2-2.1-0.3-4.2-0.4-6.3l0-0.3l-5.1-12.4l6.3-3.8l-1.8-1.8c-0.1-0.1-6.8-7.1-10-31.1
			c-1.5-10.5-4.9-17.8-10.2-21.6c-4.5-3.2-8.8-2.8-9.6-2.7c-1.9,0.1-17.9,2.1-19.4,26.7c-1.4,23.1-9,30.5-9,30.5l-2.3,2.1l7.7,3.4
			l-3.6,11.7l-1.4,32.6l-3.3,15.5l14.1,5.5l-1.4-9.5l0.6,0.4l4.3-6.4l-5.1-4.5l4.5-28.5l1.9-6.2l1.2,9.8
			c-4.9,13.3-4.9,13.7-4.9,14.1c0,0.2,0.2,3.2,0.3,5.7l0.1,2.2l37.3-5.8c1.2,5.3,1.9,5.4,3.1,5.5c0.8,0.1,1.7-0.2,2.3-0.8
			c0.9,1.1,2.2,1.5,3.4,1.1l1.4-0.5l0-1.4C213.3,182.6,212.8,174.8,212.2,167.2z M199.5,173c0-1-0.2-4.7-0.4-9l0.3,0.7
			c0.1,0.7,0.4,2.2,0.7,4.1c0.7,4.4,1.3,7.9,1.7,10.7C200.8,176.8,199.7,173.7,199.5,173z"/>
	</g>
</g>
<g id="Stroke">
	
		<path opacity="0" fill="none" stroke="#231F20" stroke-width="19" stroke-linecap="round" stroke-linejoin="round" stroke-miterlimit="10" d="
		M89.3,80.9c43.2,0.6,86.5,1.4,129.6,4.6c-4.3,4.3-11,4.8-17,5c-48.4,1.9-96.9,3.7-145.3,5.6c-2.3,0.1-5.5,1.2-5,3.4
		c5.2,2.9,11.2,3.9,17,4.7c52.1,7.1,105.5-2.5,157.3,6.5c-46.4,17.5-92,2.8-137.8,7.3c-6.2,0.6-12.7,1.5-17.7,5.3
		c-1.1,0.8-2.1,2.1-1.5,3.3c0.4,0.9,1.5,1.1,2.4,1.3c52,9.1,105.7,1.6,157.9,9.4c-6.7,5.5-16,6.4-24.7,6.7
		c-28.7,0.9-57.5-2.5-86.2-1.8c-21.5,0.5-42.8,3.3-64.1,6.1c-3,0.4-6.1,0.8-8.7,2.4c58.5,13.4,119.5,5.9,179.5,7.6
		c-3.1,3.5-8.3,4-13,4.3c-32.3,1.7-64.6,3.4-97,5.1c-8.9,0.5-18,1-26.5,3.4c-5.4,1.6-11.7-1.9-16.8,0.4c-3.9,1.8-6.8,9.3-9.9,12.3
		c43.8,0.5,87.7-1.9,131.2-7.1c11.5-1.4,23.1-3,34.5-1.3c-5,9.6-17.4,12.3-28.2,13.1c-23.2,1.7-46.5-0.3-69.8-0.4s-47,1.6-68.6,10.3
		c-2.3,0.9-4.9,2.4-5.1,4.9c8,3.1,16.9,2.5,25.4,1.8c48-3.6,96-7.1,144-10.7c-11.7,10.9-27.3,16.7-43.1,19.1
		c-15.8,2.4-31.8,1.7-47.7,0.9"/>
</g>
</svg>
