<?xml version="1.0" encoding="utf-8"?>
<!-- Generator: Adobe Illustrator 20.1.0, SVG Export Plug-In . SVG Version: 6.00 Build 0)  -->
<!DOCTYPE svg PUBLIC "-//W3C//DTD SVG 1.0//EN" "http://www.w3.org/TR/2001/REC-SVG-20010904/DTD/svg10.dtd">
<svg version="1.0" id="Layer_1" xmlns="http://www.w3.org/2000/svg" xmlns:xlink="http://www.w3.org/1999/xlink" x="0px" y="0px"
	 width="288px" height="288px" viewBox="0 0 288 288" enable-background="new 0 0 288 288" xml:space="preserve">
<ellipse transform="matrix(0.9998 -2.068596e-02 2.068596e-02 0.9998 -2.1151 2.13)" fill="none" stroke="#000000" stroke-width="2" stroke-miterlimit="10" cx="101.9" cy="103.3" rx="12.2" ry="18.7"/>
<path fill="none" stroke="#000000" stroke-width="2" stroke-miterlimit="10" d="M97.6,120.7l-0.4,8.2l-12.3,0.3
	c0,0-13.2,18.4-14.6,23.4c0,0,4.9,26.7,9.1,35.3l3.4-0.6l-3.5-32.1l6.7-9.6l4.2,42.3L89,203.1"/>
<path fill="none" stroke="#000000" stroke-width="2" stroke-miterlimit="10" d="M82.7,187.3l3.7,5.7l-3,2l-1.9-0.9l0.3,11.2
	c0,0-6.8-2.6-6.4-3c0.3-0.4,3.2-14.5,3.2-14.5L82.7,187.3z"/>
<polyline fill="none" stroke="#000000" stroke-width="2" stroke-miterlimit="10" points="105.8,121.1 106.5,127.9 115.8,129.1 
	129.5,147.2 127.6,182.9 124.1,183.4 121.8,153.2 115.8,145.1 114.6,187.3 117.6,202.5 "/>
<polyline fill="none" stroke="#000000" stroke-width="2" stroke-miterlimit="10" points="124.1,183.4 122.1,189.1 125.4,190.8 
	126.6,190.1 128,199.9 133.5,194.6 127.6,182.9 "/>
<ellipse transform="matrix(0.9997 -2.246554e-02 2.246554e-02 0.9997 -2.4476 4.1165)" fill="none" stroke="#000000" stroke-width="2" stroke-miterlimit="10" cx="182" cy="111" rx="10.4" ry="15.9"/>
<path fill="none" stroke="#000000" stroke-width="2" stroke-miterlimit="10" d="M160.9,148.9l-6.6-2.9c0,0,8.2-7.4,9.7-31.9
	s17.6-24.8,17.6-24.8s14.1-2.6,17.6,22.6c3.4,25.2,10.6,32.2,10.6,32.2l-5.4,3.2"/>
<polyline fill="none" stroke="#000000" stroke-width="2" stroke-miterlimit="10" points="179.7,126.5 179.4,133.4 186.2,133.4 
	185,126.4 "/>
<path fill="none" stroke="#000000" stroke-width="2" stroke-miterlimit="10" d="M167.6,190c-0.2-3.5-0.3-5.5-0.3-5.6
	c0-0.5,4.9-13.9,4.9-13.9l-2.5-19.7l-4.6,15.4l-4.7,29.7l4.6,4.1l-2.2,3.3l-2.7-1.8l1.6,10.6l-9.3-3.6l3-14l1.4-32.5l7.4-24.3
	c0,0,17.9-6.8,34.7-3.1c0,0,10.9,26.5,10.9,26.5c0.6,9.7,1.6,19.4,1.5,29.2c-0.9,0.3-1.6-0.7-2-1.6c-0.3-0.9-0.8-1.9-1.8-1.9
	c0.2,0.6,0.3,1.3,0.1,2c-0.2,0.6-0.7,1.2-1.4,1.2c-1.3-0.1-4.5-22.9-5-25.7l-4.8-13.4c0,0,1,21.9,1,22.4c0,0.4,2.9,8.6,4,11.5"/>
</svg>
