<?xml version="1.0" encoding="utf-8"?>
<!-- Generator: Adobe Illustrator 20.1.0, SVG Export Plug-In . SVG Version: 6.00 Build 0)  -->
<!DOCTYPE svg PUBLIC "-//W3C//DTD SVG 1.0//EN" "http://www.w3.org/TR/2001/REC-SVG-20010904/DTD/svg10.dtd">
<svg version="1.0" id="Layer_1" xmlns="http://www.w3.org/2000/svg" xmlns:xlink="http://www.w3.org/1999/xlink" x="0px" y="0px"
	 width="288px" height="288px" viewBox="0 0 288 288" enable-background="new 0 0 288 288" xml:space="preserve">
<ellipse transform="matrix(0.9998 -2.068596e-02 2.068596e-02 0.9998 -2.086 3.036)" fill="none" stroke="#000000" stroke-width="2" stroke-miterlimit="10" cx="145.7" cy="102.3" rx="12.2" ry="18.7"/>
<path fill="none" stroke="#000000" stroke-width="2" stroke-miterlimit="10" d="M141.4,119.7l-0.4,8.2l-12.3,0.3
	c0,0-13.2,18.4-14.6,23.4c0,0,4.9,26.7,9.1,35.3l3.4-0.6l-3.5-32.1l6.7-9.6l1.7,42.3l-1.7,15.2"/>
<path fill="none" stroke="#000000" stroke-width="2" stroke-miterlimit="10" d="M126.5,186.3l3.7,5.7l-3,2l-1.9-0.9l0.3,11.2
	c0,0-6.8-2.6-6.4-3c0.3-0.4,3.2-14.5,3.2-14.5L126.5,186.3z"/>
<polyline fill="none" stroke="#000000" stroke-width="2" stroke-miterlimit="10" points="149.6,120.1 150.3,126.9 159.6,128.1 
	173.3,146.2 171.4,181.9 167.9,182.4 165.6,152.2 159.6,144.1 160.9,186.3 163.4,201.5 "/>
<polyline fill="none" stroke="#000000" stroke-width="2" stroke-miterlimit="10" points="167.9,182.4 165.9,188.1 169.2,189.8 
	170.4,189.1 171.8,198.9 177.3,193.6 171.4,181.9 "/>
</svg>
