<?xml version="1.0" encoding="utf-8"?>
<!-- Generator: Adobe Illustrator 21.0.0, SVG Export Plug-In . SVG Version: 6.00 Build 0)  -->
<!DOCTYPE svg PUBLIC "-//W3C//DTD SVG 1.0//EN" "http://www.w3.org/TR/2001/REC-SVG-20010904/DTD/svg10.dtd">
<svg version="1.0" xmlns="http://www.w3.org/2000/svg" xmlns:xlink="http://www.w3.org/1999/xlink" x="0px" y="0px"
	 width="1818.1px" height="829.9px" viewBox="0 0 1818.1 829.9" enable-background="new 0 0 1818.1 829.9" xml:space="preserve">
<g id="Color">
	<path fill="#27AAE1" d="M85,745.9c0,0,339-20,393-8c0,0,3-41,0-44s-8-26-4-44s26-115,26-124s-6-166-11-178s-27-58-24-68
		s-232-69-287-12s-141,162-143,192s-10,237-5,249S85,745.9,85,745.9z"/>
	<path fill="#27AAE1" d="M1289,815.9c8,4,43,12,67,6s87-2,129-6s146,0,178,0s55-41,55-41s-10-60,18-107s58-51,48-112s29-222,21-233
		s-14-72-25-88s-213-216-213-216s-47-15-118,0s-179,86-189,104s-51,104-50,109s-18,68-16,71s109,32,109,32s-24,17-25,31
		s-17,61-17,61s2,103,2,106s16,76,16,79s8,97,8,97L1289,815.9z"/>
</g>
<g id="Stroke">
	
		<path opacity="0" fill="none" stroke="#000000" stroke-width="136" stroke-linecap="round" stroke-linejoin="round" stroke-miterlimit="10" d="
		M61.6,268.1c24.1-12.2,50.6-18.8,76.9-24.7c66.9-15.1,134.5-26.7,202.6-34.6c-118.7,17-231.7,71.5-318.9,153.8
		c65.5-9.4,129.6-26.3,193.2-44.4c52.7-15,105.2-30.7,157.4-47.3c38.2-12.1,77.9-24.9,117.7-19.6c-44.2,33.5-102,41.1-156.4,51.8
		C218.6,325.8,104,368.8,16.8,448c122.6-24.7,242.7-61.7,357.9-110.5c37.5-15.9,77.5-33.4,117.6-25.7
		c-151.7,120.9-357.5,148.9-524,248.5c46.5-2.2,91.8-14.6,137.7-22c39.9-6.4,80.6-9.2,119.4-20.4c38.5-11.1,74.2-30.1,109.5-49
		c45.9-24.6,92-49.3,134.5-79.4c20.1-14.3,40.3-30.2,64.4-35.4c-8.3,15.3-22.3,26.6-36.4,36.9c-44.3,32.4-92.7,58.5-141.5,83.4
		c-122,62-248,116.4-378.1,158.9c-15.6,5.1-34.8,15.3-32.2,31.5c2.3,14.7,20.8,19.8,35.7,20.6c70,3.8,140-14.8,202.8-46
		c33.7-16.7,65.5-36.9,98.8-54.3c30-15.6,61.2-29,90.4-45.9c47.4-27.4,91.1-64.9,144.8-75.6c-0.7,16.6-16.9,27.7-31.3,36
		c-84,48.5-168.9,97.5-261.4,126.9c-36.8,11.7-74.7,20.3-109.8,36.2s-68.1,40.4-84.9,75.1c90.1-9.5,175.9-42,260.6-74.3
		c67.3-25.6,134.7-51.3,202-76.9c2.1-0.8,4.3-1.6,6.5-1.1c7.5,1.9,3.3,13.3-2.3,18.5c-58.7,54.4-136.9,81.6-204.5,124.6
		c-13.4,8.5-26.9,18.3-33.3,32.8c79.5-21.4,159-42.7,238.4-64.1c-4.2,24-37.3,33.8-42.9,57.5c-7.8,6.7-1.8,17.6,5.8,24.4
		c7.6,6.8,18.5,8.6,28.7,9.6c60.4,5.5,122.5-8.6,174.6-39.7C747,699.9,799,613.7,853.7,534.6C967,371,1105.3,224.7,1262.3,102.5
		c41.2-32.1,84.4-62.9,133.3-81.4c41.4-15.6,85.6-25.4,129.9-19.3c-0.7,13.9-13.6,23.6-25.2,31.4c-102.9,68.8-201.1,144.7-293.6,227
		c-8,7.1-16.7,15.7-16.5,26.5c65.5-3.6,118-52.3,170.1-92.1c82.8-63.1,178.4-109.3,279.3-135c1.1,15-9,28.2-19.3,39.2
		c-92.9,98.9-238,137.7-325.8,241.1c87.3-1.8,165.9-50,239.6-96.7c41.3-26.2,83.1-52.3,128.4-71.2c22.5-9.4,45.9-17,69.9-21.4
		c9.2-1.7,27.5-7.3,36.4-4.2c9.1,3.2,7.8,16,2.2,24.3c-4.3,6.3-10.7,10.7-17,15c-52.1,35.3-104.2,70.6-157.6,103.8
		c-33.5,20.9-67.6,41-103.8,56.7c-73.5,31.9-154.5,45.2-225.7,82.2c-6.5,3.4-13.8,8.5-13.5,15.8c0.5,9.2,12.1,12.8,21.4,13.5
		c24.7,2,49.6,1.6,74.2-1.1c18.6-2.1,36.9,0.4,55.3-2.6c49.1-7.8,97.2-22.2,143.9-39.1c89.9-32.6,175.9-75.6,266.1-107.5
		c8.3,20-10.2,40.4-27.5,53.3c-59,44-126,75.6-193.6,104c-34.1,14.3-68.5,27.9-102.7,42.1c-32.6,13.5-71.6,17.5-106.3,25.8
		c-15.2,3.6-30.5,7.3-45.7,10.9c-11.5,2.8-23.4,5.7-33,12.7c-16.8,12.4-22.8,34.4-27.7,54.7c-1.1,4.8-2.2,10.3,0.7,14.3
		c1.9,2.7,5.3,4.1,8.5,5c12.1,3.3,24.9,1.7,37.4,0.1c27.3-3.6,54.7-7.2,81.4-13.7c26.3-6.5,50.9-17.4,76.7-24.8
		c60.5-17.4,118.5-43,179.1-60.3c45-12.9,91.2-21.2,137.9-24.5c-61.6,62.5-143.9,99.8-226,130.5c-82.1,30.8-166.9,56.8-241.9,102.3
		c-15.7,9.5-32.1,21.6-35.7,39.6c90.7,8.8,179.9-24.1,263.5-60.2s167.8-76.6,258.6-84.4c0.5,5.9-5.2,10.3-10.3,13.4
		c-87,54-178.7,100.5-273.8,138.6c-15.3,6.1-31.4,12.6-41.3,25.7c93,0.4,179-58.9,271.9-56.1c-13.3,24.4-35.8,43.6-62.1,52.8"/>
</g>
</svg>
