<?xml version="1.0" encoding="utf-8"?>
<!-- Generator: Adobe Illustrator 19.2.1, SVG Export Plug-In . SVG Version: 6.00 Build 0)  -->
<svg version="1.0" id="Layer_1" xmlns="http://www.w3.org/2000/svg" xmlns:xlink="http://www.w3.org/1999/xlink" x="0px" y="0px"
	 width="288px" height="288px" viewBox="0 0 288 288" enable-background="new 0 0 288 288" xml:space="preserve">
<path fill="none" stroke="#000000" stroke-width="2" stroke-miterlimit="10" d="M95.8,110.5c0,0-13.5,0.6-26.7,6.2"/>
<path fill="none" stroke="#000000" stroke-width="2" stroke-miterlimit="10" d="M89,116.7c0,0-21,2.9-29.2,8.9"/>
<path fill="none" stroke="#000000" stroke-width="2" stroke-miterlimit="10" d="M80.8,123.9c0,0-23.2,6.1-30.2,11.8"/>
<path fill="none" stroke="#000000" stroke-width="2" stroke-miterlimit="10" d="M72,133.2c0,0-18.1,6.4-25.4,12.8"/>
<path fill="none" stroke="#000000" stroke-width="2" stroke-miterlimit="10" d="M68,140.3c0,0-19.5,10.9-28.5,17.9"/>
<path fill="none" stroke="#000000" stroke-width="2" stroke-miterlimit="10" d="M64.3,148.2c0,0-15.5,13.8-24.7,29.8"/>
<path fill="none" stroke="#000000" stroke-width="2" stroke-miterlimit="10" d="M69,149.3c0,0-11.2,18.9-14,26.8"/>
<path fill="none" stroke="#000000" stroke-width="2" stroke-miterlimit="10" d="M76.5,140.3c0,0-8.6,21.3-8.5,30.4"/>
<path fill="none" stroke="#000000" stroke-width="2" stroke-miterlimit="10" d="M82.4,135.1c0,0-5.1,23-5.4,26.7"/>
<path fill="none" stroke="#000000" stroke-width="2" stroke-miterlimit="10" d="M90,128.4c0,0-4.9,17.8-5.2,23.8"/>
<path fill="none" stroke="#000000" stroke-width="2" stroke-miterlimit="10" d="M95.8,120c0,0-3.4,16.9-3.5,22.8"/>
<path fill="none" stroke="#000000" stroke-width="2" stroke-miterlimit="10" d="M100,114.9c0,0-0.6,11.3,0,18.3"/>
<path fill="none" stroke="#000000" stroke-width="2" stroke-miterlimit="10" d="M187.9,110.2c0,0,21.2-1.1,30.4,3.2"/>
<path fill="none" stroke="#000000" stroke-width="2" stroke-miterlimit="10" d="M197.4,115.7c0,0,24,1.6,31.9,5.9"/>
<path fill="none" stroke="#000000" stroke-width="2" stroke-miterlimit="10" d="M207.7,123.2c0,0,19,2.9,27.4,7.8"/>
<path fill="none" stroke="#000000" stroke-width="2" stroke-miterlimit="10" d="M213,129.4c0,0,21.2,7.1,31.4,12.3"/>
<path fill="none" stroke="#000000" stroke-width="2" stroke-miterlimit="10" d="M218.2,136.5c0,0,17.8,10.6,29.9,24.6"/>
<path fill="none" stroke="#000000" stroke-width="2" stroke-miterlimit="10" d="M213.7,138.4c0,0,14.6,16.4,18.8,23.7"/>
<path fill="none" stroke="#000000" stroke-width="2" stroke-miterlimit="10" d="M204.7,131c0,0,12.5,19.3,14.1,28.3"/>
<path fill="none" stroke="#000000" stroke-width="2" stroke-miterlimit="10" d="M197.9,127c0,0,9.4,21.7,10.3,25.2"/>
<path fill="none" stroke="#000000" stroke-width="2" stroke-miterlimit="10" d="M189.2,121.8c0,0,8.1,16.5,9.6,22.3"/>
<path fill="none" stroke="#000000" stroke-width="2" stroke-miterlimit="10" d="M181.9,114.7c0,0,6.5,15.9,7.7,21.7"/>
<path fill="none" stroke="#000000" stroke-width="2" stroke-miterlimit="10" d="M176.8,110.4c0,0,2.7,11,3.4,18"/>
<path fill="none" stroke="#000000" stroke-width="2" stroke-miterlimit="10" d="M129,113.4c0,0-11.4,3.4-13.8,4.6"/>
<path fill="none" stroke="#000000" stroke-width="2" stroke-miterlimit="10" d="M126.6,118.7c-0.4,0.2-11.9,3.8-15.8,6.8"/>
<path fill="none" stroke="#000000" stroke-width="2" stroke-miterlimit="10" d="M122.1,124.9c0,0-11.6,5.4-14.2,8.3"/>
<path fill="none" stroke="#000000" stroke-width="2" stroke-miterlimit="10" d="M120.5,131.4c0,0-13.2,6.7-14.8,9"/>
<line fill="none" stroke="#000000" stroke-width="2" stroke-miterlimit="10" x1="120" y1="136.5" x2="107.9" y2="149.3"/>
<path fill="none" stroke="#000000" stroke-width="2" stroke-miterlimit="10" d="M124.2,134.4c0,0,0.1,10.6-0.6,14.9"/>
<path fill="none" stroke="#000000" stroke-width="2" stroke-miterlimit="10" d="M126.6,127.9c0,0,4.2,10.9,3.4,17.3"/>
<path fill="none" stroke="#000000" stroke-width="2" stroke-miterlimit="10" d="M130.9,124c0,0,3.9,12.1,3.5,15.6"/>
<path fill="none" stroke="#000000" stroke-width="2" stroke-miterlimit="10" d="M133.3,116.7c0,0,4.3,10.8,4.3,14.4"/>
<path fill="none" stroke="#000000" stroke-width="2" stroke-miterlimit="10" d="M153.8,113.4c0,0,11.4,3.4,13.8,4.6"/>
<path fill="none" stroke="#000000" stroke-width="2" stroke-miterlimit="10" d="M156.3,118.7c0.4,0.2,11.9,3.8,15.8,6.8"/>
<path fill="none" stroke="#000000" stroke-width="2" stroke-miterlimit="10" d="M160.7,124.9c0,0,11.6,5.4,14.2,8.3"/>
<path fill="none" stroke="#000000" stroke-width="2" stroke-miterlimit="10" d="M162.3,131.4c0,0,13.2,6.7,14.8,9"/>
<line fill="none" stroke="#000000" stroke-width="2" stroke-miterlimit="10" x1="162.8" y1="136.5" x2="174.9" y2="149.3"/>
<path fill="none" stroke="#000000" stroke-width="2" stroke-miterlimit="10" d="M158.6,134.4c0,0-0.1,10.6,0.6,14.9"/>
<path fill="none" stroke="#000000" stroke-width="2" stroke-miterlimit="10" d="M156.3,127.9c0,0-4.2,10.9-3.4,17.3"/>
<path fill="none" stroke="#000000" stroke-width="2" stroke-miterlimit="10" d="M151.9,124c0,0-3.9,12.1-3.5,15.6"/>
<path fill="none" stroke="#000000" stroke-width="2" stroke-miterlimit="10" d="M149.5,116.7c0,0-4.3,10.8-4.3,14.4"/>
</svg>
