<?xml version="1.0" encoding="utf-8"?>
<!-- Generator: Adobe Illustrator 20.1.0, SVG Export Plug-In . SVG Version: 6.00 Build 0)  -->
<!DOCTYPE svg PUBLIC "-//W3C//DTD SVG 1.0//EN" "http://www.w3.org/TR/2001/REC-SVG-20010904/DTD/svg10.dtd">
<svg version="1.0" id="Layer_1" xmlns="http://www.w3.org/2000/svg" xmlns:xlink="http://www.w3.org/1999/xlink" x="0px" y="0px"
	 width="288px" height="288px" viewBox="0 0 288 288" enable-background="new 0 0 288 288" xml:space="preserve">
<path fill="none" stroke="#000000" stroke-width="2" stroke-miterlimit="10" d="M156.3,176c0-4.1,0.1-7.1,0.1-7.1l-18.5,19.4
	l-5.1-28.6c-3.5,11.9-7.9,18.5-7.9,18.5c-7.2-14.2-23.7-62.5-23.7-62.5c-2.6,20,3.5,59.3,3.5,59.3l-10.2-13.3l-1.2,12.2"/>
<path fill="none" stroke="#000000" stroke-width="2" stroke-miterlimit="10" d="M36,143c0,0-7.7-19-8.7-35c0,0,12.5,16.7,16.8,21.5
	c0,0-2.8-29.2,3.7-41.8c0,0,6.5,38.7,9.2,45.7c0,0,7.5-13.3,15.2-18c0,0-4.7,22.1-4.5,34.8c0,0.8,0.1,1.6,0.1,2.4"/>
<path fill="none" stroke="#000000" stroke-width="2" stroke-miterlimit="10" d="M175.9,163c0,0,0.2-9.7-5.7-20c0,0,8.5,2.5,11.7,8.8
	c0,0,7.1-17.9,4.5-29.2c0,0,6,11.4,9.2,28.5c0,0,4-11.3,3.7-18.1c0,0,6.6,10.7,8.5,17.9"/>
<path fill="none" stroke="#000000" stroke-width="2" stroke-miterlimit="10" d="M223.3,137c0,0,7.3-11.2,8.2-21c0,0,4,12.3,3.5,21
	c0,0,13.2-25.3,13.3-33.7c0,0,2.8,28.5-1.2,37.3c0,0,10.7-18.8,12.3-23.2c0,0,2.3,16.7-5.8,28.3"/>
<path fill="none" stroke="#000000" stroke-width="2" stroke-miterlimit="10" d="M37,155.8l8.8-2c1.1-0.3,2.2,0.6,2.2,1.8v6.1
	c0,1.2,1.2,2.1,2.4,1.8l2.3-0.7c1.2-0.4,2.4,0.5,2.4,1.8v5.6c0,1.5,1.6,2.3,2.8,1.5l7.8-5c1.2-0.8,2.7,0,2.8,1.4l1,14.1
	c0.1,1.4,1.6,2.2,2.8,1.4l7.3-4.6c0.9-0.5,2-0.3,2.6,0.6l5.4,9c0.6,1,2,1.2,2.8,0.4l4.6-4.2c0.9-0.8,2.2-0.6,2.8,0.4l5.5,9.4
	c0.6,1.1,2.1,1.2,2.9,0.3l7-7.6c0.8-0.9,2.3-0.7,2.9,0.3l6,10.2c0.7,1.2,2.5,1.2,3.2,0l0.4-0.7c0.6-1.1,2.1-1.2,2.9-0.3l5.2,5.6
	c0.8,0.8,2.1,0.8,2.8-0.1l5.5-7.2c0.6-0.7,1.6-0.9,2.4-0.5l6.6,3.7c1,0.6,2.3,0.1,2.7-1.1l2.7-9c0.4-1.3,2.1-1.8,3.1-0.8l2,2
	c1,1.1,2.9,0.5,3.1-1l2.5-13.9c0.2-1.2,1.5-1.9,2.6-1.3c5.1,2.4,17.4,8.2,17.9,7.4c0.5-0.7,5.2-6.8,8.1-10.5
	c0.9-1.2,2.8-0.8,3.2,0.6l0.9,3c0.4,1.4,2.2,1.7,3.1,0.6l3.1-3.6c0.9-1,2.6-0.8,3.1,0.5l1,2.5c0.5,1.4,2.4,1.6,3.2,0.4l1.9-2.7
	c0.6-0.9,2-1,2.8-0.3l3.1,3c0.9,0.9,2.5,0.6,3-0.6l1.2-2.8c0.5-1.1,1.8-1.5,2.8-0.8l3.7,2.8c1.2,0.9,2.9,0,2.9-1.5v-11.8
	c0-1.2,1.1-2,2.2-1.8l5.4,1.1"/>
<path fill="none" stroke="#000000" stroke-width="2" stroke-miterlimit="10" d="M156.3,176c0-4.1,0.1-7.1,0.1-7.1l-18.5,19.4
	l-5.1-28.6c-3.5,11.9-7.9,18.5-7.9,18.5c-7.2-14.2-23.7-62.5-23.7-62.5c-2.6,20,3.5,59.3,3.5,59.3l-10.2-13.3l-1.2,12.2"/>
</svg>
