<?xml version="1.0" encoding="utf-8"?>
<!-- Generator: Adobe Illustrator 20.1.0, SVG Export Plug-In . SVG Version: 6.00 Build 0)  -->
<!DOCTYPE svg PUBLIC "-//W3C//DTD SVG 1.0//EN" "http://www.w3.org/TR/2001/REC-SVG-20010904/DTD/svg10.dtd">
<svg version="1.0" id="Layer_2" xmlns="http://www.w3.org/2000/svg" xmlns:xlink="http://www.w3.org/1999/xlink" x="0px" y="0px"
	 width="288px" height="288px" viewBox="0 0 288 288" enable-background="new 0 0 288 288" xml:space="preserve">
<ellipse transform="matrix(0.9998 -2.068596e-02 2.068596e-02 0.9998 -0.9982 2.0502)" fill="none" stroke="#000000" stroke-width="2" stroke-miterlimit="10" cx="98.6" cy="49.3" rx="12.2" ry="18.7"/>
<path fill="none" stroke="#000000" stroke-width="2" stroke-miterlimit="10" d="M94.3,66.7l-0.4,8.2l-12.3,0.3
	c0,0-13.2,18.4-14.6,23.4c0,0,0.9,26.7,5.1,35.3l3.4-0.6l0.5-32.1l6.7-9.6v34.1l-1.2,15.2"/>
<path fill="none" stroke="#000000" stroke-width="2" stroke-miterlimit="10" d="M75.4,133.3l2.7,5.7l-2,2l-1.9-0.9l0.3,11.2
	c0,0-6.8-2.6-6.4-3c0.3-0.4,3.2-14.5,3.2-14.5L75.4,133.3z"/>
<polyline fill="none" stroke="#000000" stroke-width="2" stroke-miterlimit="10" points="102.5,67.1 103.2,73.9 112.5,75.1 
	126.2,93.2 124.3,128.9 120.8,129.4 118.5,99.2 112.5,91.1 110.8,123.6 113.8,136.3 "/>
<polyline fill="none" stroke="#000000" stroke-width="2" stroke-miterlimit="10" points="120.8,129.4 118.8,135.1 122.1,136.8 
	123.3,136.1 124.7,145.9 130.2,140.6 124.3,128.9 "/>
<ellipse transform="matrix(0.9997 -2.246554e-02 2.246554e-02 0.9997 -1.3826 3.8619)" fill="none" stroke="#000000" stroke-width="2" stroke-miterlimit="10" cx="171.2" cy="63.5" rx="10.4" ry="15.9"/>
<path fill="none" stroke="#000000" stroke-width="2" stroke-miterlimit="10" d="M150.1,101.4l-6.6-2.9c0,0,8.2-7.4,9.7-31.9
	s17.6-24.8,17.6-24.8s14.1-2.6,17.6,22.6c3.4,25.2,10.6,32.2,10.6,32.2l-5.4,3.2"/>
<polyline fill="none" stroke="#000000" stroke-width="2" stroke-miterlimit="10" points="168.9,79 168.6,85.9 175.4,85.9 
	174.2,78.9 "/>
<path fill="none" stroke="#000000" stroke-width="2" stroke-miterlimit="10" d="M157.8,142c1.2-5.6,2-7.5,2-7.6
	c0-0.5,1.6-11.4,1.6-11.4l-2.5-19.7l-4.6,15.4l-4.7,29.7l4.6,4.1l-2.2,3.3l-2.7-1.8l1.6,10.6l-9.3-3.6l3-14l1.4-32.5l7.4-24.3
	c0,0,17.9-6.8,34.7-3.1l10.9,26.5l2.2,33.1l5.7,12.9l-7.2,4.3l-0.6-7.5l-2,3.1l-3.3-1.5l2.8-9.6l-6.1-31.7l-4.8-13.4
	c0,0,1,21.9,1,22.4c0,0.4,1.2,12.2,2.3,15.1"/>
</svg>
