<?xml version="1.0" encoding="utf-8"?>
<!-- Generator: Adobe Illustrator 20.1.0, SVG Export Plug-In . SVG Version: 6.00 Build 0)  -->
<!DOCTYPE svg PUBLIC "-//W3C//DTD SVG 1.0//EN" "http://www.w3.org/TR/2001/REC-SVG-20010904/DTD/svg10.dtd">
<svg version="1.0" xmlns="http://www.w3.org/2000/svg" xmlns:xlink="http://www.w3.org/1999/xlink" x="0px" y="0px" width="288px"
	 height="288px" viewBox="0 0 288 288" enable-background="new 0 0 288 288" xml:space="preserve">
<g id="Fill">
	<path fill="#FFFFFF" d="M113.7,139c0.5-0.1,2.1-0.4,3.1-1.9c0.6-1,0.6-2,0.6-2.4c0-2.2,0-4.3,0.1-6.6c0-3.3,0.1-6.6,0-10l1.5,0
		l0-0.3c7,0.6,14.1,1,21,1.4c4,0.2,8,0.5,12.1,0.8l1.7,0.1l4.1-6.2c0.1,8.4-0.3,16.1-3.1,23.1c-0.4,1-1,2.5-0.6,4.2l0.6,2.5
		c0,0,2.5-0.1,2.5-0.1c1.3-0.1,4.9-0.6,5.6,0.9c0.2,0.4,0.2,0.8,0.2,1.1c0,3,0,6,0,9c0,1.7,0,3.5,0.7,5.1c0.7,1.6,2.2,2.9,3.9,2.8
		c1.1-0.1,2.1-0.8,3-1.4c0.6-0.4,1.2-0.9,1.6-1.5c0.4-0.6,0.4-1.3,0.6-2c0.2-0.7,0.9-0.8,1.2-1.3c0-0.1,0.1-0.2,0.1-0.2
		c0-0.3,0-0.7-0.1-1c-0.2-1.4-0.1-2.7,0.2-4.1c0.1-0.6,0.3-1.2,0.4-1.8c0.1-0.5,0-1.1,0-1.7c0-0.1,0-0.2,0-0.3
		c0-0.1,0.1-0.1,0.2-0.2c0.5-0.4,1-0.3,1.5-0.3c0.1,0,0.2,0,0.3-0.1c0.1-0.1,0.2-0.2,0.3-0.3c0.4-0.6,0.4-1.4,0.8-1.9
		c0.5-0.6,1.4-0.9,2-1.3c0.7-0.4,1.5-0.7,2.3-0.8c2.1-0.3,4.7,0.2,6.9,0.3c0,0,5.1,0.4,5.1,0.4l-2.1-4.6c-1.3-2.7-2.2-5-2-7.1
		c0.1-0.6,0.2-1.2,0.4-1.8c0.1-0.4,0.2-0.8,0.3-1.3c0.5-2.1,0.6-4.3,0.6-6.4l0-1.5c0-6.8,0-13.8,1.1-20.3l0.3-1.5
		c0.1-0.7,0.1-1.5,0.1-2.9c0-0.4,0-1.3,0-2.1c0.3,0.1,0.8,0.1,1.3,0.2c0.7,0.1,1.3,0.3,2,0.3l3,0.2l0.2-3c0.1-1.6,0.4-3.2,0.8-4.7
		c5.5-13.8,6.6-27.8,2.8-35.7c-1.5-3.2-3.9-5.3-6.7-6.2c-10.2-3.1-15.3-1.5-23.5,13.5c-7.4,13.7-17.1,20-17.2,20.1l-3.5,2.2l6.9,5.6
		c-0.3,0.7-0.5,1.5-0.7,2.3l0,0.2c-0.7,6-0.6,12.2-0.4,18.2l-0.6-0.2c0.1-6.1-1.3-10.2-4.1-12c-0.1-2.6-2.9-7-3.7-7.5
		c-3.3-2.3-7.7-2.2-10.8,0.1c-2.6,2-2.9,4.2-3.2,6.3c-0.1,0.6-0.2,1.2-0.3,1.9c-0.2,0.8-0.4,1.6-0.7,2.4c-0.4,1.4-0.9,2.8-1.1,4.5
		c0,0.4-0.1,0.8-0.1,1.1c-0.2,1-0.1,1.6-0.1,2.1c0,0,0,0.1-0.1,0.1c-0.1,0.2-0.5,0.7-0.8,1.1c-0.4,0.5-0.8,1-1.1,1.6
		c-3.9-0.6-7.6-1.5-11.3-2.9l-0.7-0.2c-0.7-0.3-1.5-0.6-2.3-0.8l0,0c0-0.1-0.1-0.2-0.1-0.3l0-0.1c-0.1-0.2-0.1-0.4-0.1-0.6l0-0.2
		c0-0.1,0-0.1,0.1-0.2l0.3-0.7l0-0.8c-0.1-5.6-0.3-10.6-0.5-15.4c5.2-2.7,9.4-9,11-16.5c2.4-11.6-1.9-22-9.9-23.6
		c-8-1.7-16.1,6.1-18.5,17.7c-0.4,1.9-0.4,3.7-0.3,5.4c0.1,3.1,0,4.4-1.4,5.5c-1.2,1.1-2.9,1.8-4.6,2.6c-1.8,0.8-3.6,1.6-5.3,2.9
		c-5.8,4.3-9,9.6-9.5,15.5c-1.1,15.9-1,31.2,0.4,44.3l0.3,1.4c0,0,1,0.7,1,0.7c0.9,0.7,3,0.2,3.6,0.7c1.2,1.3,0,4.7-0.2,6.4
		c-0.1,1.8,0.1,3.7,0.3,5.5c0.2,1.9,0.5,3.8,0.7,5.7c0.2,1.5,0.4,3,1.1,4.3c0.7,1.3,1.9,2.4,3.4,2.5c1.6,0.1,2.9-0.9,4.2-1.9
		c0-0.7,0.8-0.9,1.4-1.3c1.4-0.8,1.7-2.6,1.9-4.2c0.3-2.5,0.6-4.9,1-7.4c0.1-0.9,0.2-1.8,0.3-2.7c0.4-2.8-1-8.3,2.4-9.7
		c1.7-0.7,5.3,0.1,7.3-0.2C109.3,139.7,111.5,139.4,113.7,139z"/>
</g>
<g id="Stroke">
	
		<path opacity="0" fill="none" stroke="#231F20" stroke-width="18" stroke-linecap="round" stroke-linejoin="round" stroke-miterlimit="10" d="
		M75.3,41c21.5-2.6,43.3-1.7,64.9-0.9c22,0.8,43.9,1.7,65.9,2.5c-2.5,3.3-7,4-11.1,4.4c-38.3,3.8-77.1-0.3-115.3,4.8
		c19.2,6.7,40.1,6,60.4,5.8c22.7-0.2,45.4,0.4,68.1,1c0.1,1.8-2.3,3.1-3.2,4.4c-1.2,1.6-1.9,3.5-3.1,5c-0.7,0.9-1.5,1.7-2.6,2
		c-2,0.5-3.9-0.9-5.7-2c-5.5-3.3-12.8-1.6-19-2.1c-7-0.5-14-1.4-21-2c-22.9-1.7-45.9,1.7-68.6,5.1c-1.3,0.2-2.8,0.5-3.4,1.7
		c-1,2,1.4,3.9,3.4,4.8c11.6,4.9,24.6,5.1,37.2,5.3c26.8,0.4,53.6,0.8,80.3,1.2c0.1,1,0.2,1.9,0.4,2.9c-22.3,7.6-46.5,4.9-70,4.4
		c-15-0.3-30.1,0.4-45.1,1c-5.6,0.2-11.3,0.5-16.9,0.7c-0.6,2.3,1.8,4.3,4,5.3c10.9,5.3,23.2,7.1,35.3,7.3
		c12.1,0.2,24.2-1.1,36.3-1.8c21-1.1,42.1,0,63.1,1c0.5,1.4-1.2,2.4-2.6,2.9c-42.4,12.8-89.6-2.8-131.8,10.7
		c6.6,2.4,13.3,4.4,20.1,6c10.5,2.4,21.2,3.8,32,3.6c9.7-0.1,19.3-1.5,28.9-2.6c16.9-2,33.9-3.1,51-3.4c1.1,0,2.6,0.4,2.4,1.5
		c-35.7,3.4-71.8,4.8-107.5,9c-7,0.8-26.2,3.2-19.5,1c10.7-3.6,2.6-1.1,3.3-0.3c0.4,0.4-1.6-2.6-1-2.5c15.9,2.8,34.6-11.9,48-2.9
		c20.7,13.8,52.9,3.7,79.3,6.5c0.6,0.1,1.1,1,1.1,1.7c-6.2,1.2-12.5,1.2-18.8,1.2c-15.1,0-30.2-0.1-45.3-0.1
		c-8.2,0-16.4-0.1-24.5,1.1c-8.1,1.2-16.1,3.6-24.4,4c-4.1,0.2-8.2-0.1-12.3,0.4c-4.1,0.5-8.2,2.1-10.8,5.3
		c47,3.6,94.1-5.8,141.2-4.2c-1,3.1-5,3.9-8.2,4.2c-24.7,1.9-49.5,3.8-74.2,5.8c-10.1,0.8-20.2,1.6-30.3,1.6
		c-6.9,0-13.8-0.4-20.7,0.7c-2.5,0.4-5.2,1-7.1,2.7c-1.9,1.7-2.8,4.8-1.4,6.9c10.6-1.4,21.4-2.2,32.1-2.4c7.8-0.1,15.7,0.1,23.5-0.2
		c6.2-0.2,12.5-0.7,18.7-1.2c13.3-1,26.6-2.1,39.9-3.1"/>
</g>
</svg>
