<?xml version="1.0" encoding="utf-8"?>
<!-- Generator: Adobe Illustrator 19.2.1, SVG Export Plug-In . SVG Version: 6.00 Build 0)  -->
<svg version="1.0" id="Layer_1" xmlns="http://www.w3.org/2000/svg" xmlns:xlink="http://www.w3.org/1999/xlink" x="0px" y="0px"
	 width="288px" height="288px" viewBox="0 0 288 288" enable-background="new 0 0 288 288" xml:space="preserve">
<ellipse transform="matrix(0.2049 -0.9788 0.9788 0.2049 24.7428 164.0375)" fill="none" stroke="#000000" stroke-width="2" stroke-miterlimit="10" cx="113.3" cy="66.8" rx="18.1" ry="11.5"/>
<path fill="none" stroke="#000000" stroke-width="2" stroke-miterlimit="10" d="M102.1,75.5c0,0-20.5,7-20.8,21.1
	c-0.3,14.1-1,93.7,8,127.4h4l5.7-75.7l2.2-0.2l9.6,75.8h3.8l-1.2-140.6"/>
<path fill="none" stroke="#000000" stroke-width="2" stroke-miterlimit="10" d="M94,88.5c0,0-8.3,17-6.7,54l4.3,0.9
	c0,0,3.5-37,9.6-46.8"/>
<line fill="none" stroke="#000000" stroke-width="2" stroke-miterlimit="10" x1="88.3" y1="112.5" x2="95.2" y2="117.5"/>
<polyline fill="none" stroke="#000000" stroke-width="2" stroke-miterlimit="10" points="87.3,142.5 84.8,149.8 88.3,161.6 
	94.2,159 92.4,149.8 95.2,149.8 96.2,146.6 91.6,143.4 "/>
<polyline fill="none" stroke="#000000" stroke-width="2" stroke-miterlimit="10" points="89.3,224 93.5,241.2 106.5,234.3 93.3,224 
	"/>
<polyline fill="none" stroke="#000000" stroke-width="2" stroke-miterlimit="10" points="110.8,224 117.2,235.2 128.3,229.6 
	114.5,224 "/>
<path fill="none" stroke="#000000" stroke-width="2" stroke-miterlimit="10" d="M113.5,105.5c0,0,12.5,6.7,20.5,6.4v-2.7l2.1-1.8"/>
<polyline fill="none" stroke="#000000" stroke-width="2" stroke-miterlimit="10" points="113.3,115 134.6,115.9 152.2,117.1 
	157,109.8 153.8,108.7 "/>
<line fill="none" stroke="#000000" stroke-width="2" stroke-miterlimit="10" x1="134" y1="111.9" x2="134" y2="115.9"/>
<path fill="none" stroke="#000000" stroke-width="2" stroke-miterlimit="10" d="M144.6,98.8c0,0-5.8-2-7-1s-3.1,11,0,12.6
	s9,1.5,9,1.5s7.2,0.8,7.4-4.5S153.3,92.4,144.6,98.8z"/>
<line fill="none" stroke="#000000" stroke-width="2" stroke-miterlimit="10" x1="144.6" y1="98.8" x2="142.7" y2="92.7"/>
<path fill="none" stroke="#000000" stroke-width="2" stroke-miterlimit="10" d="M145,97.5c0,0,1.7-7.5,3.7-6.2
	C153,94.3,145,97.5,145,97.5z"/>
<ellipse transform="matrix(0.2201 -0.9755 0.9755 0.2201 81.1927 236.4664)" fill="none" stroke="#000000" stroke-width="2" stroke-miterlimit="10" cx="188.5" cy="67.5" rx="14.2" ry="8.7"/>
<path fill="none" stroke="#000000" stroke-width="2" stroke-miterlimit="10" d="M162.9,85.6l-5.9-4.8c0,0,10.2-6.5,18.2-21.2
	s12-14.5,20-12.1s9.4,19.4,1.9,38.1c0,0-0.9,3.8-0.9,5.5l-6.1-0.7"/>
<path fill="none" stroke="#000000" stroke-width="2" stroke-miterlimit="10" d="M180,75.5c0,0-20,8.3-19.5,14.6
	c0.5,6.3,1.7,38.2,1.7,38.2s-6.5,14.4-5.2,23.7s10.5,71.9,10.5,71.9h3.2l5.2-76l2.3-0.2L189,224h4.5c0,0-2.7-84.6-6.2-93.5
	c0,0,4.5-41.7,2.2-50.1"/>
<polyline fill="none" stroke="#000000" stroke-width="2" stroke-miterlimit="10" points="175.2,93.1 171.2,114.1 171,139.9 
	167.4,140.8 164.2,118 168.3,91.1 "/>
<polyline fill="none" stroke="#000000" stroke-width="2" stroke-miterlimit="10" points="167.4,140.8 165.5,148 168.2,157.6 
	172.9,155.6 172.1,146.1 175.4,145.5 176.6,143.4 171.1,139.9 "/>
<polyline fill="none" stroke="#000000" stroke-width="2" stroke-miterlimit="10" points="167.5,224 174.2,239.1 183.6,234 
	170.7,224 "/>
<polyline fill="none" stroke="#000000" stroke-width="2" stroke-miterlimit="10" points="189,224 194.1,235.8 205,230.8 193.5,224 
	"/>
</svg>
