<?xml version="1.0" encoding="utf-8"?>
<!-- Generator: Adobe Illustrator 20.1.0, SVG Export Plug-In . SVG Version: 6.00 Build 0)  -->
<!DOCTYPE svg PUBLIC "-//W3C//DTD SVG 1.0//EN" "http://www.w3.org/TR/2001/REC-SVG-20010904/DTD/svg10.dtd">
<svg version="1.0" xmlns="http://www.w3.org/2000/svg" xmlns:xlink="http://www.w3.org/1999/xlink" x="0px" y="0px" width="288px"
	 height="288px" viewBox="0 0 288 288" enable-background="new 0 0 288 288" xml:space="preserve">
<g id="Fill">
	<g>
		<polygon fill="#FFFFFF" points="110.8,224 117.2,235.2 128.3,229.6 114.5,224 		"/>
		<path fill="#FFFFFF" d="M153.8,108.7L153.8,108.7c0.1-0.4,0.2-0.8,0.2-1.3c0.2-5.3-0.7-15-9.4-8.6c0,0-5.8-2-7-1
			c-4.2,3.5,1.3,12.2-6.2,13.9c-1.5,0.3-3.5-0.2-5-0.5c-2.4-0.5-6-1.2-8-2.8c-0.5-0.4-1-0.9-1.5-1.4c-1.2-1.1-2.5-1.7-3.4-1.9
			c0-0.2,0.1-0.4,0.1-0.6l-0.2-20.2c5-1.4,9.6-7.4,11.2-15.2c2-9.8-1.3-18.8-7.5-20.1c-6.2-1.3-12.9,5.6-15,15.4
			c-0.8,4-0.8,7.8,0,11l0,0c0,0-20.5,7-20.8,21.1c-0.3,14.1-1,93.7,8,127.4l4.2,17.2l13-6.9L93.3,224l5.7-75.7l2.2-0.2l9.6,75.8h3.8
			l-0.9-108.8c0,0,0.1,0,0.1,0c2.4,0.8,5.9,1.1,8.5,1.1c4.3-0.1,8.6-0.8,13-0.5c5.6,0.4,11.3,1,17,1.4l4.8-7.3L153.8,108.7z"/>
		<path fill="#FFFFFF" d="M148.7,91.3c-2-1.3-3.7,6.2-3.7,6.2S153,94.3,148.7,91.3z"/>
		<polygon fill="#FFFFFF" points="167.5,224 174.2,239.1 183.6,234 170.7,224 		"/>
		<path fill="#FFFFFF" d="M193.5,224c0,0-2.7-84.6-6.2-93.5c0,0,2.7-24.9,2.8-40.1l6.1,0.7c0-1.7,0.9-5.5,0.9-5.5
			c7.5-18.7,6.1-35.7-1.9-38.1c-8-2.4-12-2.6-20,12.1S157,80.8,157,80.8l5.9,4.8c-1.5,1.5-2.5,3.1-2.4,4.5
			c0.5,6.3,1.7,38.2,1.7,38.2s-6.5,14.4-5.2,23.7s10.5,71.9,10.5,71.9h3.2l5.2-76l2.3-0.2L189,224l5.1,11.8l10.9-5L193.5,224z"/>
	</g>
</g>
<g id="Stroke">
	
		<path opacity="0" fill="none" stroke="#000000" stroke-width="23" stroke-linecap="round" stroke-linejoin="round" stroke-miterlimit="10" d="
		M93.5,44c40.7-4.1,82,4.8,122.7,7.5C163.9,68.6,106,53.8,53.6,70.9c56.5,8.3,114.3-0.5,170.9,6.6C196.3,90,163.9,89.8,133,92.2
		c-20.7,1.6-41,2.8-61.3,7.1c-2.6,0.5-5.9,2.3-5,4.8c0.4,1.3,2.2,7.9,3.6,8.4c47,16.8,90.7-14.7,140.5-11.2c1,1.9,4.3,11.5,2.2,12.2
		c-39.8,13.5-69.4,18.7-111.2,22c-13.8,1.1-26.2-4.5-39.2,0.2c51.6,34.2,82.5,9.3,135,3.8c12.8-1.4,5.2,7.7,12.5,11.5
		c-45.9,16.5-77,10.1-125.2,17.8c-7.8,1.2-18.6,13-21.8,20.3c47.2,3.6,95.5-24.7,139.8-7.8c-48,12.7-90,17.8-136.8,34.5
		c65.9,8,83.2-8.5,149.5-12.7c-18.7,32.8-66.5,32.2-132.2,34"/>
</g>
</svg>
