<?xml version="1.0" encoding="utf-8"?>
<!-- Generator: Adobe Illustrator 19.2.1, SVG Export Plug-In . SVG Version: 6.00 Build 0)  -->
<svg version="1.0" id="Layer_1" xmlns="http://www.w3.org/2000/svg" xmlns:xlink="http://www.w3.org/1999/xlink" x="0px" y="0px"
	 width="288px" height="288px" viewBox="0 0 288 288" enable-background="new 0 0 288 288" xml:space="preserve">
<circle fill="none" stroke="#000000" stroke-width="2" stroke-miterlimit="10" cx="189.4" cy="80.1" r="34.3"/>
<path fill="none" stroke="#000000" stroke-width="2" stroke-miterlimit="10" d="M149.7,85.1c0,0-15.4,3.8-31.3,7.7"/>
<path fill="none" stroke="#000000" stroke-width="2" stroke-miterlimit="10" d="M108,97c-12.7,3.1-23.4,5.8-23.4,5.8"/>
<path fill="none" stroke="#000000" stroke-width="2" stroke-miterlimit="10" d="M153.5,99.9c0,0-9.9,4.9-23.2,11.5"/>
<path fill="none" stroke="#000000" stroke-width="2" stroke-miterlimit="10" d="M117.3,117.8c-10.3,5.1-21.3,10.5-30.7,15.1"/>
<path fill="none" stroke="#000000" stroke-width="2" stroke-miterlimit="10" d="M75.1,138.6c-7.4,3.7-12.2,6-12.2,6"/>
<path fill="none" stroke="#000000" stroke-width="2" stroke-miterlimit="10" d="M159.4,112.9c0,0-13.7,9.5-28.9,20"/>
<path fill="none" stroke="#000000" stroke-width="2" stroke-miterlimit="10" d="M117.5,141.9c-14.2,9.9-26.6,18.4-26.6,18.4"/>
<path fill="none" stroke="#000000" stroke-width="2" stroke-miterlimit="10" d="M169.5,121.4c0,0-3.3,4.9-8.4,12.5"/>
<path fill="none" stroke="#000000" stroke-width="2" stroke-miterlimit="10" d="M155.8,141.6c-7.7,11.3-17.3,25.7-25.7,38.1"/>
<path fill="none" stroke="#000000" stroke-width="2" stroke-miterlimit="10" d="M122.6,190.9c-6.7,9.9-11.3,16.7-11.3,16.7"/>
<path fill="none" stroke="#000000" stroke-width="2" stroke-miterlimit="10" d="M182.5,125.5c0,0-2.4,5.8-6.2,14.7"/>
<path fill="none" stroke="#000000" stroke-width="2" stroke-miterlimit="10" d="M173.5,146.9c-3.3,7.8-7.2,17-11.2,26.7"/>
<path fill="none" stroke="#000000" stroke-width="2" stroke-miterlimit="10" d="M158.8,181.6c-4.4,10.4-8.8,21-12.8,30.3"/>
<path fill="none" stroke="#000000" stroke-width="2" stroke-miterlimit="10" d="M142.5,220.4c-5.6,13.2-9.4,22.4-9.4,22.4"/>
</svg>
