<?xml version="1.0" encoding="utf-8"?>
<!-- Generator: Adobe Illustrator 20.1.0, SVG Export Plug-In . SVG Version: 6.00 Build 0)  -->
<!DOCTYPE svg PUBLIC "-//W3C//DTD SVG 1.0//EN" "http://www.w3.org/TR/2001/REC-SVG-20010904/DTD/svg10.dtd">
<svg version="1.0" id="Layer_1" xmlns="http://www.w3.org/2000/svg" xmlns:xlink="http://www.w3.org/1999/xlink" x="0px" y="0px"
	 width="182.7px" height="163.9px" viewBox="0 0 182.7 163.9" enable-background="new 0 0 182.7 163.9" xml:space="preserve">
<g>
	<text transform="matrix(1 0 0 1 50.1122 94.3349)" font-family="'SkippySharp'" font-size="44.9943px">Gospel</text>
	<text transform="matrix(1 0 0 1 73.4061 73.1802)" font-family="'SkippySharp'" font-size="28.8464px">the</text>
	<path fill="none" stroke="#000000" stroke-width="3" stroke-linecap="round" stroke-miterlimit="10" d="M38.7,38.4
		c3.9,4.7,18,20.8,18,23.9"/>
	<path fill="none" stroke="#000000" stroke-width="3" stroke-linecap="round" stroke-miterlimit="10" d="M138.1,80.1
		c6.1-0.2,27.5-1.3,30,0.6"/>
	<path fill="none" stroke="#000000" stroke-width="3" stroke-linecap="round" stroke-miterlimit="10" d="M115.8,129.4
		c-1.8-4.8-8.4-21.3-7.6-23.9"/>
	<path fill="none" stroke="#000000" stroke-width="3" stroke-linecap="round" stroke-miterlimit="10" d="M115.1,52.6
		c2.7-1.1,10.7-12,21-10.1"/>
	<path fill="none" stroke="#000000" stroke-width="3" stroke-linecap="round" stroke-miterlimit="10" d="M14.7,85.1
		c4.2-0.3,26.2-0.7,29.9-2.7"/>
	<path fill="none" stroke="#000000" stroke-width="3" stroke-linecap="round" stroke-miterlimit="10" d="M123.1,104.7
		c10.6,12.5,15.3,13.7,19.6,23.5"/>
	<path fill="none" stroke="#000000" stroke-width="3" stroke-linecap="round" stroke-miterlimit="10" d="M86.5,103.3
		c0,0,2.1,37.7-0.1,46.3"/>
	<path fill="none" stroke="#000000" stroke-width="3" stroke-linecap="round" stroke-miterlimit="10" d="M87.3,16.8
		c0,0,0.9,25.7-1.5,31.1"/>
	<path fill="none" stroke="#000000" stroke-width="3" stroke-linecap="round" stroke-miterlimit="10" d="M21.6,56.4
		c0,0,22.7,12,26.2,16.8"/>
	<path fill="none" stroke="#000000" stroke-width="3" stroke-linecap="round" stroke-miterlimit="10" d="M65.5,135.2
		c0,0,2.7-25.5,5.9-30.5"/>
	<path fill="none" stroke="#000000" stroke-width="3" stroke-linecap="round" stroke-miterlimit="10" d="M57.6,102.5
		c-2.6,1.2-9.9,12.7-20.4,11.3"/>
	<path fill="none" stroke="#000000" stroke-width="3" stroke-linecap="round" stroke-miterlimit="10" d="M70.6,53.3
		c0-4.2-2.3-8.1-4.3-11.8s-3.7-8-2.6-12.1"/>
	<path fill="none" stroke="#000000" stroke-width="3" stroke-linecap="round" stroke-miterlimit="10" d="M102,48.7
		c3.1-7.2,10.1-12.2,13.4-19.3"/>
	<path fill="none" stroke="#000000" stroke-width="3" stroke-linecap="round" stroke-miterlimit="10" d="M133.4,64.6
		c3.4-1.1,7.1-1.6,10.7-1.6c3.5,0.1,7.5,0.6,10.2-1.7"/>
	<path fill="none" stroke="#000000" stroke-width="3" stroke-linecap="round" stroke-miterlimit="10" d="M132.8,94.2
		c5,1.5,9.9,3.5,14.5,5.9c1.5,0.8,2.9,1.6,3.9,2.9c0.9,1.2,1.6,2.9,3.1,3.2"/>
	<path fill="none" stroke="#000000" stroke-width="3" stroke-linecap="round" stroke-miterlimit="10" d="M46.1,92.8
		c-4.2,3.2-9.2,5.6-14.4,6.8c-4.4,1-9.3,1.3-13,4"/>
</g>
</svg>
