<?xml version="1.0" encoding="utf-8"?>
<!-- Generator: Adobe Illustrator 21.0.0, SVG Export Plug-In . SVG Version: 6.00 Build 0)  -->
<!DOCTYPE svg PUBLIC "-//W3C//DTD SVG 1.0//EN" "http://www.w3.org/TR/2001/REC-SVG-20010904/DTD/svg10.dtd">
<svg version="1.0" id="Layer_1" xmlns="http://www.w3.org/2000/svg" xmlns:xlink="http://www.w3.org/1999/xlink" x="0px" y="0px"
	 width="182.7px" height="163.9px" viewBox="0 0 182.7 163.9" enable-background="new 0 0 182.7 163.9" xml:space="preserve">
<g>
	<text transform="matrix(1 0 0 1 50.1122 94.3349)" font-family="'SkippySharp'" font-size="44.9943px">Gospel</text>
	<text transform="matrix(1 0 0 1 73.4061 73.1802)" font-family="'SkippySharp'" font-size="28.8464px">the</text>
</g>
<line fill="none" stroke="#231F20" stroke-width="3" stroke-miterlimit="10" x1="93.2" y1="46.3" x2="93.2" y2="11.9"/>
<line fill="none" stroke="#231F20" stroke-width="3" stroke-miterlimit="10" x1="110.2" y1="52.7" x2="125.3" y2="26.3"/>
<line fill="none" stroke="#231F20" stroke-width="3" stroke-miterlimit="10" x1="126.1" y1="58.8" x2="146.9" y2="46.6"/>
<line fill="none" stroke="#231F20" stroke-width="3" stroke-miterlimit="10" x1="136.5" y1="78.4" x2="168.9" y2="78.4"/>
<line fill="none" stroke="#231F20" stroke-width="3" stroke-miterlimit="10" x1="128.8" y1="102.3" x2="149.9" y2="109.3"/>
<line fill="none" stroke="#231F20" stroke-width="3" stroke-miterlimit="10" x1="113.1" y1="105.9" x2="130.2" y2="129.3"/>
<line fill="none" stroke="#231F20" stroke-width="3" stroke-miterlimit="10" x1="93.2" y1="109.3" x2="93.2" y2="151.9"/>
<line fill="none" stroke="#231F20" stroke-width="3" stroke-miterlimit="10" x1="79.1" y1="109.3" x2="66.3" y2="131.4"/>
<line fill="none" stroke="#231F20" stroke-width="3" stroke-miterlimit="10" x1="59.1" y1="99.8" x2="41.1" y2="117"/>
<line fill="none" stroke="#231F20" stroke-width="3" stroke-miterlimit="10" x1="45.4" y1="83.5" x2="9.3" y2="85.2"/>
<line fill="none" stroke="#231F20" stroke-width="3" stroke-miterlimit="10" x1="55.7" y1="66.6" x2="32.5" y2="56.6"/>
<line fill="none" stroke="#231F20" stroke-width="3" stroke-miterlimit="10" x1="70.7" y1="52.7" x2="53.5" y2="31.7"/>
</svg>
