<?xml version="1.0" encoding="utf-8"?>
<!-- Generator: Adobe Illustrator 20.1.0, SVG Export Plug-In . SVG Version: 6.00 Build 0)  -->
<!DOCTYPE svg PUBLIC "-//W3C//DTD SVG 1.0//EN" "http://www.w3.org/TR/2001/REC-SVG-20010904/DTD/svg10.dtd">
<svg version="1.0" id="Layer_1" xmlns="http://www.w3.org/2000/svg" xmlns:xlink="http://www.w3.org/1999/xlink" x="0px" y="0px"
	 width="117.3px" height="163.7px" viewBox="0 0 117.3 163.7" enable-background="new 0 0 117.3 163.7" xml:space="preserve">
<ellipse transform="matrix(0.9997 -2.246554e-02 2.246554e-02 0.9997 -1.0718 1.3585)" fill="none" stroke="#010101" stroke-width="2" stroke-miterlimit="10" cx="59.9" cy="48.4" rx="10.4" ry="15.9"/>
<path fill="none" stroke="#010101" stroke-width="2" stroke-miterlimit="10" d="M38.8,86.3l-6.6-2.9c0,0,8.2-7.4,9.7-31.9
	s17.6-24.8,17.6-24.8s14.1-2.6,17.6,22.6c3.4,25.2,10.6,32.2,10.6,32.2l-5.4,3.2"/>
<polyline fill="none" stroke="#010101" stroke-width="2" stroke-miterlimit="10" points="57.6,63.9 57.3,70.8 64.1,70.8 62.9,63.8 
	"/>
<path fill="none" stroke="#010101" stroke-width="2" stroke-miterlimit="10" d="M45.5,127.4c-0.2-3.5-0.3-5.5-0.3-5.6
	c0-0.5,4.9-13.9,4.9-13.9l-2.5-19.7L43,103.6l-4.7,29.7l4.6,4.1l-2.2,3.3l-2.7-1.8l1.6,10.6l-9.3-3.6l3-14l1.4-32.5l7.4-24.3
	c0,0,17.9-6.8,34.7-3.1l10.9,26.5l2.2,33.1l5.7,12.9l-7.2,4.3l-0.6-7.5l-2,3.1l-3.3-1.5l2.8-9.6l-6.1-31.7l-4.8-13.4
	c0,0,1,21.9,1,22.4c0,0.4,2.9,8.6,4,11.5"/>
</svg>
