<?xml version="1.0" encoding="utf-8"?>
<!-- Generator: Adobe Illustrator 21.0.0, SVG Export Plug-In . SVG Version: 6.00 Build 0)  -->
<!DOCTYPE svg PUBLIC "-//W3C//DTD SVG 1.0//EN" "http://www.w3.org/TR/2001/REC-SVG-20010904/DTD/svg10.dtd">
<svg version="1.0" xmlns="http://www.w3.org/2000/svg" xmlns:xlink="http://www.w3.org/1999/xlink" x="0px" y="0px" width="288px"
	 height="288px" viewBox="0 0 288 288" enable-background="new 0 0 288 288" xml:space="preserve">
<g id="Color">
	<polygon fill="#27AAE1" points="161.4,39.1 172.7,49.3 167.8,86.6 158,86.1 156.5,106.6 164.7,110.4 149.9,258.4 145.6,259.9 	"/>
	<polygon fill="#27AAE1" points="230.4,90 239.6,97.9 237.1,114.8 164.7,110.4 156.5,106.6 226.3,110.4 	"/>
	<polygon fill="#27AAE1" points="66.6,102.2 75.8,106.6 124.5,109.2 124.1,104.5 	"/>
</g>
<g id="Lines">
	<polygon fill="none" stroke="#000000" stroke-width="2" stroke-miterlimit="10" points="118.5,39.1 161.4,39.1 172.7,49.3 
		167.8,86.6 158,86.1 156.5,106.6 164.7,110.4 149.9,258.4 133.5,258.6 	"/>
	<line fill="none" stroke="#000000" stroke-width="2" stroke-miterlimit="10" x1="161.4" y1="39.1" x2="145.6" y2="259.9"/>
	<polyline fill="none" stroke="#000000" stroke-width="2" stroke-linejoin="bevel" stroke-miterlimit="10" points="230.4,90 
		239.6,97.9 237.1,114.8 164.7,110.4 156.5,106.6 226.3,110.4 230.4,90 158,86.1 	"/>
	<line fill="none" stroke="#000000" stroke-width="2" stroke-miterlimit="10" x1="226.3" y1="110.4" x2="237.1" y2="114.8"/>
	<polyline fill="none" stroke="#000000" stroke-width="2" stroke-miterlimit="10" points="122.4,85.1 66.6,85.1 66.6,102.2 
		124.1,104.5 	"/>
	<polyline fill="none" stroke="#000000" stroke-width="2" stroke-miterlimit="10" points="66.6,102.2 75.8,106.6 124.5,109.2 	"/>
	<polyline fill="none" stroke="#000000" stroke-width="2" stroke-miterlimit="10" points="116.5,259.9 125.9,258.6 131.1,258.6 
		142.4,258.4 153.9,259.9 165.1,259.9 	"/>
</g>
<g id="Stroke">
	
		<path opacity="0" fill="none" stroke="#000000" stroke-width="14" stroke-linecap="round" stroke-linejoin="round" stroke-miterlimit="10" d="
		M149.8,37.1c8.3,3.4,16.7,6.9,25,10.3c2.1,0.9,4.6,2.6,3.8,4.7c-0.6,1.4-2.4,1.8-3.9,2c-6.1,0.8-12.2,1.6-18.3,2.4
		c1.7,3.2,5.7,4,9.1,4.9c3.5,0.9,7.4,3,7.4,6.6c-5.7,2.5-11.6,4.5-17.6,6c3.5,0.9,7.1,1.7,10.6,2.6c1.5,0.4,3.3,1,3.6,2.5
		c0.6,2.8-3.8,3.3-6.7,3.4c-3.5,0.2-6.9,2.1-8.8,5.1c5.3-1.6,11.4-0.4,15.7,3.1c-9.4,4.9-20.4,5.2-31,5.6c-22.3,0.9-44.5,3.3-66.4,7
		c7.4,2.9,15.6,2.4,23.5,2.2c49.2-1.3,98.1,7.6,147.2,7.6c-1.9-4.3-6.7-6.5-11-8.3c4.7,0.8,8.4-6,5.2-9.6c-1-1.1-2.5-1.8-3.9-1.3
		c-2,0.7-2.7,3.2-2.4,5.3c0.2,2.1,1.1,4.2,0.6,6.3c-0.9,4.5-6.5,6-11.1,6.3c-21.6,1.6-43.7-1.8-64.6,3.6c2.1,1.9,4.6,3.3,7.4,3.9
		c-2.4,2.9-5.4,5.2-8.7,6.8c1,1.5,2.8,2.5,4.6,2.6c2.8,3.1-5.2,7-3.6,10.9c0.4,0.9,1.2,1.5,1.6,2.4c1,2.5-2.3,4.5-5,5.3
		c3.1,1.4,5.6,4,7,7c-2.2,2.1-4.8,3.9-7.7,5.1c-0.7,1,0.3,2.4,1.5,2.9c1.2,0.5,2.5,0.6,3.3,1.6c1.4,1.8-0.4,4.3-2.2,5.6
		c-1.9,1.2-4.2,2.6-4.3,4.9c0,3.9,6.4,4.2,7.9,7.8c1,2.4-0.8,5.1-2.4,7.1c-2.4,3-4.9,6-7.3,8.9c1.5,0.9,3,1.9,4.5,2.8
		c2.1,2.4-0.1,6.1-2.3,8.5c-2.2,2.4-4.3,6.1-2.1,8.5c1,1.1,2.5,1.3,3.9,1.9c1.3,0.6,2.6,2,2,3.4c-3.7,1.9-8.1,5.1-6.9,9.1
		c1.1,3.8,7.2,6.2,5.7,9.9c-2.1,2.9-8.8,1.3-8.6,4.8c0,0.6,0.3,1.2,0.6,1.7c1.8,3.2,3.5,6.4,5.3,9.7"/>
</g>
</svg>
