<?xml version="1.0" encoding="utf-8"?>
<!-- Generator: Adobe Illustrator 19.2.1, SVG Export Plug-In . SVG Version: 6.00 Build 0)  -->
<svg version="1.0" id="Layer_1" xmlns="http://www.w3.org/2000/svg" xmlns:xlink="http://www.w3.org/1999/xlink" x="0px" y="0px"
	 width="288px" height="288px" viewBox="0 0 288 288" enable-background="new 0 0 288 288" xml:space="preserve">
<ellipse transform="matrix(0.1636 -0.9865 0.9865 0.1636 -16.798 185.665)" fill="none" stroke="#000000" stroke-width="2" stroke-miterlimit="10" cx="101.1" cy="102.7" rx="16.4" ry="11.9"/>
<polyline fill="none" stroke="#000000" stroke-width="2" stroke-miterlimit="10" points="93.9,116.8 93.2,123.1 98.6,124.2 
	100.4,119 "/>
<path fill="none" stroke="#000000" stroke-width="2" stroke-miterlimit="10" d="M102.5,86.3c0,0-17.5-6.4-29,22.8
	c0,0,1.5,9.7,12,15.5"/>
<path fill="none" stroke="#000000" stroke-width="2" stroke-miterlimit="10" d="M91.1,95.2c0,0-10.3,4.6-15.7,19.4"/>
<path fill="none" stroke="#000000" stroke-width="2" stroke-miterlimit="10" d="M89.1,106.1c0,0-5.9,4.8-9.8,13.8"/>
<path fill="none" stroke="#000000" stroke-width="2" stroke-miterlimit="10" d="M90.7,113.8c0,0-2.9,3.8-4.5,9.4"/>
<path fill="none" stroke="#000000" stroke-width="2" stroke-miterlimit="10" d="M102.8,141.2c0.5-1.5,0.9-2.8,0.9-2.8l-1.2-12.5
	c-4.8-3.2-15.2-2.8-16.2-2.8c0,0-5.5,25.8-6.2,48"/>
<path fill="none" stroke="#000000" stroke-width="2" stroke-miterlimit="10" d="M96,130.5c0,0,5.2,13.6,16.2,18.9l12.5-6.2l1.8-5.9
	h3.2v5.9H142l-3.5,4l-10.2,0.4l-16.8,9.6c0,0-12.8,0-20.8-18.8"/>
<path fill="none" stroke="#000000" stroke-width="2" stroke-miterlimit="10" d="M99.4,151.4c-0.6,2.8-1.6,8-1.6,8l3.4,10.5"/>
<line fill="none" stroke="#000000" stroke-width="2" stroke-miterlimit="10" x1="112.2" y1="149.4" x2="110.8" y2="157.1"/>
<path fill="none" stroke="#000000" stroke-width="2" stroke-miterlimit="10" d="M81,157.1c0,0,7.8,3.5,16.8,2.2"/>
<ellipse fill="none" stroke="#000000" stroke-width="2" stroke-miterlimit="10" cx="175.3" cy="106.2" rx="11.1" ry="15.8"/>
<path fill="none" stroke="#000000" stroke-width="2" stroke-miterlimit="10" d="M175.3,122c0,0,1.8,5.5,3.7,13"/>
<path fill="none" stroke="#000000" stroke-width="2" stroke-miterlimit="10" d="M186.4,109.1c0,0,30.4,7.6,24.2,59.7"/>
<path fill="none" stroke="#000000" stroke-width="2" stroke-miterlimit="10" d="M195.6,124.9l-16,27l-24-5.8h-8.2v-3l9.5-0.8l1-4
	h2.8l1,3l12.8,1.8c0,0,5.7-8.5,8.1-18.2"/>
<line fill="none" stroke="#000000" stroke-width="2" stroke-miterlimit="10" x1="174.3" y1="143.1" x2="179.6" y2="151.9"/>
<path fill="none" stroke="#000000" stroke-width="2" stroke-miterlimit="10" d="M181.6,148.5c1.2,8.5,1.4,16.8-1.3,21.4"/>
<path fill="none" stroke="#000000" stroke-width="2" stroke-miterlimit="10" d="M130.1,135c0,0-0.4,7.2,0.6,7.2s25.4,0,25.4,0
	l2.1-7.9L130.1,135z"/>
<path fill="none" stroke="#000000" stroke-width="2" stroke-miterlimit="10" d="M135.3,110.9c0,0-1.9,4-0.9,7s4,3.7,3,6.8
	c-1,3.1-2.3,4.2-1.5,7.2"/>
<path fill="none" stroke="#000000" stroke-width="2" stroke-miterlimit="10" d="M143.3,104.8c0,0-3.1,5.8-1.9,9.7s3.8,6.3,2.8,8.6
	s-1.4,8.8-1.4,8.8"/>
<path fill="none" stroke="#000000" stroke-width="2" stroke-miterlimit="10" d="M150.1,109.1c0,0-2.9,3.6-1.9,6.4s5,2.6,2.7,6.5
	c-2.2,3.9-1.1,9.3-1.1,9.3"/>
</svg>
