<?xml version="1.0" encoding="utf-8"?>
<!-- Generator: Adobe Illustrator 21.0.0, SVG Export Plug-In . SVG Version: 6.00 Build 0)  -->
<!DOCTYPE svg PUBLIC "-//W3C//DTD SVG 1.0//EN" "http://www.w3.org/TR/2001/REC-SVG-20010904/DTD/svg10.dtd">
<svg version="1.0" xmlns="http://www.w3.org/2000/svg" xmlns:xlink="http://www.w3.org/1999/xlink" x="0px" y="0px" width="288px"
	 height="288px" viewBox="0 0 288 288" enable-background="new 0 0 288 288" xml:space="preserve">
<g id="Color">
	<path fill="#27AAE1" d="M169.4,167.5v-3.7l-1-1.8l-3.4-0.9c-1.6-0.5-3.4-1.1-3.7-1.1c-0.8,0-3.3-2.5-3.5-2.7
		c-0.3-0.4-1.6-3.1-1.6-4.3c0-0.6-0.1-1.1-0.3-1.5c-0.1-0.2-0.1-0.4-0.1-0.6c-0.3-0.1-1.1-0.3-2.1-0.3c-1.1,0-2.7,0.2-2.7,0.2
		c0,0-2,0.6-3.7,1.1c-1,0.3-1.1,0.4-1.2,0.5c-0.1,0.1-0.2,0.3-0.5,0.5c-0.5,0.4-0.8,1.4-1.1,2.4c-0.1,0.4-0.2,0.7-0.3,1.1
		c-0.3,0.9-0.1,1.6,0,2.2c0.1,0.3,0.1,0.5,0.1,0.7c0,1.3-3.3,1.6-3.3,1.6c-0.8,0-4.9-3.7-5.3-4.8c-0.1-0.2-0.4-0.1-1.2,0.1
		c-0.7,0.2-1.5,0.4-2.3,0.2c-2-0.4-4.8-5.1-4.8-5.1c-0.4-0.7-1.8-3.7-1.8-3.8l-0.8-3.7c0-0.1,0-1.6,1.1-2.4c0.7-0.6,1-0.6,1.8-0.6
		c0.3,0,0.7,0,1.3,0c2.3-0.1,3.9,1,3.9,1.1c0.1,0,2.5,1.5,4,2.8c1,0.9,2.1,1,3.2,1.1c0.4,0,0.8,0.1,1.2,0.2c0.7,0.2,1.2-0.3,1.9-0.9
		c0.2-0.2,0.4-0.4,0.6-0.5c0.1-0.2-0.5-1.3-0.8-1.7c-0.2-0.4-0.4-0.7-0.6-1c-0.1-0.3-0.3-0.6-0.4-0.8c-0.4-0.8-0.7-1.3-0.7-1.9
		c0-0.7,1.1-2,1.5-2.5l0.1-0.1l3.4-1l0.1,0c0,0,1.8,0.2,2.8,0c0.5-0.1,1.1-1.1,1.4-1.8c0-1,0-3,0.2-3.5c0.1-0.3,0.5-2,0.8-3l0.1-0.4
		h9.5v-1.3l-1.5-2.5l-0.9-2l-2.9-2.9l-0.7-2.4l2.3-3v-1.7l-0.6-0.6l-4.1,0.4l-3,1.8l-3.9,2.2l-4.3,1.5l-1.6-1.1l0.1-4.5
		c0.1-0.3,0.7-2.7,1-3.3c0.1-0.4-0.9-2-1.4-2.4c-0.6-0.3-3.1-1.6-3.6-1.9h-2c-0.5,0.2-3,1.4-3.9,1.9c-1.3,0.8-5.6,0.3-6.3,0.2
		c-0.4-0.1-1.1,0-1.8,0.1c-0.7,0.1-1.4,0.2-1.9,0c-0.5-0.1-1.3-0.1-2,0c-0.3,0-0.5,0-0.7,0c-0.3,0-1.2,0.6-1.8,1.3
		c-0.7,0.7-3.9,0.7-4.6,0.5c-0.6-0.2-1.7-0.6-2.1-0.8c-0.3,0.1-0.7,0.2-1,0.2c-0.5,0.1-1.1,0.2-1.6,0.4c-0.4,0.1-0.7,0.3-0.9,0.4
		c-0.2,0.2-0.4,0.4-0.6,0.6c-0.2,0.2-0.4,0.4-0.6,0.6c-0.2,0.2-0.4,0.3-0.6,0.5c-0.2,0.1-0.4,0.3-0.6,0.4c-0.6,0.5-1,1.1-1.4,1.8
		c-0.6,1-1.1,2-1.5,3c-0.3,0.8-0.3,0.9,0.2,1.6c0.2,0.2,0.3,0.5,0.5,0.7c0.5,0.7,1.1,1.7,1.7,2c0.2,0.1,0.3,0.3,0.4,0.5
		c0.2,0.7-0.8,2-1.4,2.8l-0.2,0.1c-0.8,0.4-3.1,1.5-3.9,1.9c-0.4,1-1.2,7.2-1.2,7.8c0,0.3,0.9,2,1.7,3.3c0,0,2.2,3.1,2.8,3.9
		c0.1,0,0.5-0.2,0.7-0.4c0.5-0.3,1.1-0.7,1.9-0.9c0.2-0.1,0.3-0.2,0.3-0.2c0.2-0.3-0.2-1.1-0.4-1.6c-0.2-0.4-0.3-0.6-0.3-0.8
		c0-0.4,0-0.9,3.7-0.9h0.5v2.5l2.1,4.3c0.1,0.2,0.7,1.6,0.9,2.1c0.3,0.1,1.1,0.2,1.8,0.3l2.2,0l0.1,0.3c0.1,0.4,0.8,2.4,0.8,3.2
		c0,0.5,0.5,3.3,0.9,5c0.2,0.3,0.9,1.4,2.5,3.5c0.2,0.3,0.4,0.5,0.5,0.7l6.8,1.6l4.4,0.4l4.1,1.7l3.5,2.6l1,2.2l0.6,2.2l0.1,1.7
		l2.8,2l3.8,1.9l0.6,2c0,0.1,0.3,1.6,0.4,3.7c0.1,2.1,0,3.2-0.1,4.1c0,0.3-0.1,0.6-0.2,0.8c-0.1,0.4-0.2,1-0.3,2.2
		c-0.2,1.6,1.7,3.6,1.8,3.6l2.4,2.5l2.4,0.5l3.8-0.8l2.3-1.1c0.7-0.8,2.2-2.8,2.5-3.3c0.4-0.7,1.4-1.8,3.1-3.7l0.5-0.5
		c0.6-0.7,0.8-1,0.8-1.1c0,0,0,0,0,0c-0.2-0.2-0.5-0.5-0.4-1.2c0.2-1,0.1-3.5,0.1-3.5l0-0.1l1.5-3.5l1.4-3.5L169.4,167.5z"/>
	<path fill="#27AAE1" d="M188.4,165.6c0.1,0.2,0.5,0.6,0.8,0.9c0.1,0.1,0.2,0.2,0.3,0.3c0.3,0.3,0.5,0.6,0.7,0.9
		c0.9,1.3,1.4-0.6,1.6-1.4c0.4-1.3,1.1-2.3,1.4-3.6c0.7-2.5,1.2-5.1,1.9-7.6c0.7-2.2,1.6-4.6,1.6-6.9c0-2.4-0.1-4.8-0.1-7.2
		c0-0.9,0-1.7-0.1-2.6c-0.1-1.1-0.5-2.2-0.7-3.3c-0.2-1.1,0-1.9-1.3-1.4c-0.3,0.1-0.5,0.2-0.7,0.3c-0.2,0.1-0.4,0.1-0.6,0.2
		c-0.5,0.1-1.2,0.3-1.5,0.6c-0.2,0.2-1.2,1.9-2,3.5l-3.4,4.7c-1.1,1.1-2,2.3-2,2.6v8.7l1.5,3.2c0.4,0.3,1.6,1.2,2,2.1
		c0.4,0.9,0.6,3,0.6,3.3C188.4,164,188.3,165.3,188.4,165.6z"/>
	<path fill="#27AAE1" d="M172.9,109.8c0.9,1,2.9,1.6,3.2,1.6c0.2,0,0.3,0,0.5,0c0.4,0,0.9,0,1.5,0c0.2,0,0.3,0,0.5,0
		c0.4,0,0.7,0,0.9,0.1c0.3,0,0.5,0.1,0.8,0l0.4-0.1c0.6-0.1,1.2-0.2,1.8-0.2c0.4,0,0.7,0,1.1,0c0.4,0,0.8,0.1,1.1,0
		c0.2-0.1,0.3-0.2,0.3-0.3c0-0.1-0.2-0.4-0.3-0.5l-1.5-1.9c-1.4-1.8-2.9-3.7-4.7-5.3c-0.7-0.6-2.4-1.1-2.8-2
		c-0.2-0.4-0.2-0.8-0.5-1.1c-0.2-0.4-0.6-0.6-1-0.8c-0.4-0.2-0.8-0.4-1.1-0.6c-0.3-0.1-0.6-0.3-0.9-0.4c-1.6-0.3-1.2,0.8-0.8,1.9
		c0.1,0.4,0.3,0.8,0.3,1.1c0,0.3,0.1,0.7,0.2,1c0.2,0.8,0.3,1.7,0.3,2.6l0,0.2C172.1,108.3,172.5,109.4,172.9,109.8z"/>
</g>
<g id="Stroke">
	
		<path opacity="0" fill="none" stroke="#000000" stroke-width="2" stroke-linecap="round" stroke-linejoin="round" stroke-miterlimit="10" d="
		M154.6,168.2c0.4,0.1,0.7,0.4,0.7,0.8c0.1,0.4-0.1,0.8-0.4,1c-0.1,0.1-0.2,0.1-0.3,0.1c-0.1,0-0.2-0.1-0.3-0.1
		c-0.2-0.1-0.5-0.3-0.6-0.6c-0.1-0.3-0.2-0.6,0-0.8c0.1-0.1,0.2-0.2,0.3-0.2c0.4-0.2,0.9-0.1,1.1,0.2c0.3,0.3,0.2,0.9-0.1,1.1
		c-0.2,0.2-0.5,0.2-0.8,0s-0.3-0.5-0.2-0.7c0.2-0.4,0.7-0.5,1.1-0.4c0.2,0.5,0.1,1-0.2,1.4c-0.2,0.2-0.4,0.4-0.7,0.4
		c-0.3,0-0.6-0.3-0.7-0.7s0-0.7,0-1c0.6,0,1.2,0,1.8,0c0.1,0,0.2,0,0.3,0.1c0.1,0.1,0.1,0.2,0.1,0.3c0,0.2,0,0.5,0,0.7
		c0,0.1,0,0.2-0.1,0.3c-0.1,0.1-0.2,0.2-0.3,0.2c-0.5,0.2-1.1,0.3-1.6,0.1s-0.8-0.8-0.6-1.3c0.2-0.3,0.6-0.4,1-0.5
		c0.4,0,0.9,0,1.3,0c0.1,0.1,0.1,0.3,0,0.4"/>
</g>
</svg>
