<?xml version="1.0" encoding="utf-8"?>
<!-- Generator: Adobe Illustrator 19.2.1, SVG Export Plug-In . SVG Version: 6.00 Build 0)  -->
<svg version="1.0" id="Layer_1" xmlns="http://www.w3.org/2000/svg" xmlns:xlink="http://www.w3.org/1999/xlink" x="0px" y="0px"
	 width="288px" height="288px" viewBox="0 0 288 288" enable-background="new 0 0 288 288" xml:space="preserve">
<ellipse transform="matrix(7.348959e-02 -0.9973 0.9973 7.348959e-02 9.862 216.0016)" fill="none" stroke="#000000" stroke-width="2" stroke-miterlimit="10" cx="121.2" cy="102.7" rx="19.5" ry="14.4"/>
<polyline fill="none" stroke="#000000" stroke-width="2" stroke-miterlimit="10" points="115,120.7 114.4,125.1 122.9,125.7 
	122.9,121.9 "/>
<path fill="none" stroke="#000000" stroke-width="2" stroke-miterlimit="10" d="M130.4,143.4l0.7-15.5c-10.2-4.7-31.5-2.2-31.5-2.2
	l-1.8,20"/>
<path fill="none" stroke="#000000" stroke-width="2" stroke-miterlimit="10" d="M99.5,125.7c0,0-15.5,9.2-20.3,15.5
	c0,0,8.4,16.8,26,25.7l3.7,6.5l5.5-0.5l0.8-3.3l-6.2-1.2l0.2-4.7l7.8,6l1.3-6.3l-13.2-5c0,0-8.8-7-14.2-16.3"/>
<path fill="none" stroke="#000000" stroke-width="2" stroke-miterlimit="10" d="M98.4,138.7c0,0-11.6,6.2-14.6,9.7"/>
<path fill="none" stroke="#000000" stroke-width="2" stroke-miterlimit="10" d="M175.6,134.8c8-3.7,15.1-6.9,15.1-6.9l1.7-5l11-6.5
	l4,11.5l-10.7,5.2l-4-0.3c0,0-5.5,3.4-12.1,7.5"/>
<path fill="none" stroke="#000000" stroke-width="2" stroke-miterlimit="10" d="M94.8,146.6c10.9-3.7,24.4,0.3,27.1,0.5
	c4.5,0.3,7-2,7-2c12.3-15.3,24.5,0,24.5,0s8.3-3.8,17-7.8"/>
<path fill="none" stroke="#000000" stroke-width="2" stroke-miterlimit="10" d="M172.6,145.2c-8.2,5.1-15.9,9.8-15.9,9.8
	c2.3,14.8-10.8,16-19.5,15.8c-8.7-0.2-15.5,3.8-18.7,10.7c-3.2,6.8-38.3,24-38-11.2c0.1-8.9,2.5-14.9,6.1-18.7"/>
<path fill="none" stroke="#000000" stroke-width="2" stroke-miterlimit="10" d="M131,127.9c0,0,5.5,8.5,13.1,10.9"/>
<path fill="none" stroke="#000000" stroke-width="2" stroke-miterlimit="10" d="M157,158.1c18.1,5,24.9-16,24.9-16l-8.5-9.7l-3.5,3
	l3,10.2l3.6,0.8"/>
<path fill="none" stroke="#000000" stroke-width="2" stroke-miterlimit="10" d="M107.9,159.9c0.9-4.3,4.7-7.4,9.2-7.4
	c5.2,0,9.4,4.2,9.4,9.4c0,5.2-4.2,9.4-9.4,9.4c-0.7,0-1.4-0.1-2-0.2"/>
<polyline fill="none" stroke="#000000" stroke-width="2" stroke-miterlimit="10" points="155.4,85.1 147,83.6 152.6,99.8 "/>
<ellipse transform="matrix(0.9594 -0.2819 0.2819 0.9594 -22.6137 45.9787)" fill="none" stroke="#000000" stroke-width="2" stroke-miterlimit="10" cx="148.5" cy="101.6" rx="4.5" ry="2.9"/>
<polyline fill="none" stroke="#000000" stroke-width="2" stroke-miterlimit="10" points="176.5,103.6 170.7,99.6 169.4,113.7 "/>
<ellipse transform="matrix(0.1367 -0.9906 0.9906 0.1367 30.4638 262.2076)" fill="none" stroke="#000000" stroke-width="2" stroke-miterlimit="10" cx="165.7" cy="113.6" rx="2.4" ry="3.7"/>
<polygon fill="none" stroke="#000000" stroke-width="2" stroke-miterlimit="10" points="89,164.6 92.9,161.8 104.8,180.8 
	96.2,184.1 "/>
</svg>
