<?xml version="1.0" encoding="utf-8"?>
<!-- Generator: Adobe Illustrator 19.2.1, SVG Export Plug-In . SVG Version: 6.00 Build 0)  -->
<svg version="1.0" id="Layer_1" xmlns="http://www.w3.org/2000/svg" xmlns:xlink="http://www.w3.org/1999/xlink" x="0px" y="0px"
	 width="288px" height="288px" viewBox="0 0 288 288" enable-background="new 0 0 288 288" xml:space="preserve">
<ellipse transform="matrix(0.1409 -0.99 0.99 0.1409 -13.4983 230.2889)" fill="none" stroke="#000000" stroke-width="2" stroke-miterlimit="10" cx="125.9" cy="122.9" rx="14.1" ry="10.3"/>
<ellipse fill="none" stroke="#000000" stroke-width="2" stroke-miterlimit="10" cx="156.6" cy="132.5" rx="10.6" ry="14"/>
<polyline fill="none" stroke="#000000" stroke-width="2" stroke-miterlimit="10" points="119.7,134.8 119.7,138.7 125.9,139.9 
	127.6,136.5 "/>
<path fill="none" stroke="#000000" stroke-width="2" stroke-miterlimit="10" d="M135.2,158.8c-0.5-8.1-1-15.5-1-15.5
	c-10.3-6.3-26-4.8-26-4.8l-2.5,40.6"/>
<path fill="none" stroke="#000000" stroke-width="2" stroke-miterlimit="10" d="M112.2,141.6c0,0,13,16.5,14.3,17.7s17.2-3,17.2-3
	v3.2l-15.8,8.8c0,0-10.6-3-17.6-13.3"/>
<path fill="none" stroke="#000000" stroke-width="2" stroke-miterlimit="10" d="M136.5,180.3c0,0-0.5-7.7-1-16"/>
<polyline fill="none" stroke="#000000" stroke-width="2" stroke-miterlimit="10" points="152.5,157 150,147.3 147.4,147.3 
	143.7,156.3 143.7,159.5 148.1,159.5 151.9,161.8 "/>
<line fill="none" stroke="#000000" stroke-width="2" stroke-miterlimit="10" x1="126.5" y1="159.3" x2="128" y2="168.3"/>
<path fill="none" stroke="#000000" stroke-width="2" stroke-miterlimit="10" d="M148.8,141.6c-5,2.1-8.1,4.9-8.1,4.9
	s-0.6,3.9-1,10.8"/>
<path fill="none" stroke="#000000" stroke-width="2" stroke-miterlimit="10" d="M139.4,161.9c-0.2,4.8-0.2,11.4,0,17.8"/>
<line fill="none" stroke="#000000" stroke-width="2" stroke-miterlimit="10" x1="174.9" y1="165.2" x2="176.5" y2="177.5"/>
<path fill="none" stroke="#000000" stroke-width="2" stroke-miterlimit="10" d="M146.1,179.1c0,0,0-14.9,0-20.3"/>
<path fill="none" stroke="#000000" stroke-width="2" stroke-miterlimit="10" d="M172.2,155.8l-19.7,1.2l-0.7,4.8
	c11.5,6.7,27.3,2.1,27.3,2.1l-4.3-20.5c-0.4-0.2-1.6-0.9-2-1.1"/>
<line fill="none" stroke="#000000" stroke-width="2" stroke-miterlimit="10" x1="148.7" y1="147.3" x2="148.1" y2="159"/>
<path fill="none" stroke="#000000" stroke-width="2" stroke-miterlimit="10" d="M133.6,142.9c0,0,7.3-2.6,13.3-5.2"/>
<line fill="none" stroke="#000000" stroke-width="2" stroke-miterlimit="10" x1="140.2" y1="151" x2="134.8" y2="153.2"/>
<polyline fill="none" stroke="#000000" stroke-width="2" stroke-miterlimit="10" points="166.8,136.5 171.6,137.7 173.5,146.5 
	169.2,147.3 164.5,141.9 "/>
</svg>
