<?xml version="1.0" encoding="utf-8"?>
<!-- Generator: Adobe Illustrator 19.2.1, SVG Export Plug-In . SVG Version: 6.00 Build 0)  -->
<svg version="1.0" id="Layer_1" xmlns="http://www.w3.org/2000/svg" xmlns:xlink="http://www.w3.org/1999/xlink" x="0px" y="0px"
	 width="288px" height="288px" viewBox="0 0 288 288" enable-background="new 0 0 288 288" xml:space="preserve">
<circle fill="none" stroke="#000000" stroke-width="2" stroke-miterlimit="10" cx="143.4" cy="144.1" r="47.4"/>
<path fill="none" stroke="#000000" stroke-width="2" stroke-miterlimit="10" d="M111.1,133.7c4.4-13,16.6-22.3,31.1-22.3
	c18.1,0,32.8,14.7,32.8,32.7s-14.7,32.8-32.8,32.8c-13.1,0-24.4-7.7-29.7-18.8"/>
<polygon fill="none" stroke="#000000" stroke-width="2" stroke-miterlimit="10" points="103.2,135.3 154.2,123 158.2,142.7 
	105.9,160.4 "/>
<path fill="none" stroke="#000000" stroke-width="2" stroke-miterlimit="10" d="M139.2,149.6c2.2,9.3,4.1,17.1,4.1,17.1l19.4-6.2
	l-3-41.2l-27.5,1.5c0,0,0.7,2.8,1.7,7.1"/>
<path fill="none" stroke="#000000" stroke-width="2" stroke-miterlimit="10" d="M119.6,130.5c-0.3-0.7-0.5-1.5-0.5-2.4
	c0-3.2,2.6-5.7,5.7-5.7s5.7,2.6,5.7,5.7c0,0.1,0,0.2,0,0.3"/>
<path fill="none" stroke="#000000" stroke-width="2" stroke-miterlimit="10" d="M128.7,168.1c-0.1,0-0.2,0-0.2,0
	c-3.2,0-5.7-2.6-5.7-5.7c0-3.2,2.6-5.7,5.7-5.7c2.8,0,5.2,2.1,5.6,4.8"/>
<circle fill="none" stroke="#000000" stroke-width="2" stroke-miterlimit="10" cx="134.9" cy="167.5" r="5.7"/>
<path fill="none" stroke="#000000" stroke-width="2" stroke-miterlimit="10" d="M161.4,136.9c0.9-0.6,2-0.9,3.2-0.9
	c3.2,0,5.7,2.6,5.7,5.7c0,3.2-2.6,5.7-5.7,5.7c-0.9,0-1.8-0.2-2.5-0.6"/>
<polyline fill="none" stroke="#000000" stroke-width="2" stroke-miterlimit="10" points="119.1,138.8 114.6,137.6 111.1,139.2 
	111.6,144.1 119.6,144.1 122.1,149.1 118.6,152 111.1,151.4 "/>
<line fill="none" stroke="#000000" stroke-width="2" stroke-miterlimit="10" x1="113.5" y1="135.3" x2="117.1" y2="153.8"/>
<polyline fill="none" stroke="#000000" stroke-width="2" stroke-miterlimit="10" points="148.9,130.7 145.1,129.7 142.2,131 
	141.9,136.2 149.3,135.1 151.5,139.3 148.6,140.2 142.2,141.2 "/>
<line fill="none" stroke="#000000" stroke-width="2" stroke-miterlimit="10" x1="144.2" y1="127.7" x2="147.4" y2="143.9"/>
<polyline fill="none" stroke="#000000" stroke-width="2" stroke-miterlimit="10" points="156.3,155.9 157.1,152.5 155.9,149.9 
	152.3,150.3 152.4,156.3 148.8,158.3 146.7,155.7 147,150 "/>
<line fill="none" stroke="#000000" stroke-width="2" stroke-miterlimit="10" x1="158.9" y1="151.8" x2="144" y2="155"/>
</svg>
