<?xml version="1.0" encoding="utf-8"?>
<!-- Generator: Adobe Illustrator 19.2.1, SVG Export Plug-In . SVG Version: 6.00 Build 0)  -->
<svg version="1.0" id="Layer_1" xmlns="http://www.w3.org/2000/svg" xmlns:xlink="http://www.w3.org/1999/xlink" x="0px" y="0px"
	 width="288px" height="288px" viewBox="0 0 288 288" enable-background="new 0 0 288 288" xml:space="preserve">
<ellipse fill="none" stroke="#000000" stroke-width="2" stroke-miterlimit="10" cx="152.9" cy="64.7" rx="11.2" ry="17.3"/>
<polyline fill="none" stroke="#000000" stroke-width="2" stroke-miterlimit="10" points="149.8,81.3 149.3,89.2 158.2,89.2 
	157.2,80.7 "/>
<path fill="none" stroke="#000000" stroke-width="2" stroke-miterlimit="10" d="M134.5,89.2h36.8l10.2,137.9c0,0-37.5,6.3-52.5,0.9
	L134.5,89.2z"/>
<path fill="none" stroke="#000000" stroke-width="2" stroke-miterlimit="10" d="M165,89.2c0,0-22,31.3-32,37.3"/>
<path fill="none" stroke="#000000" stroke-width="2" stroke-miterlimit="10" d="M172.2,101.7c0,0-28.5,37.6-39.8,41.3"/>
<polyline fill="none" stroke="#000000" stroke-width="2" stroke-miterlimit="10" points="105.3,66.7 93.6,77.8 116.5,107.4 
	133.7,103.2 135.1,90.8 123.9,86.7 122.4,66.7 114.8,63.8 "/>
<path fill="none" stroke="#000000" stroke-width="2" stroke-miterlimit="10" d="M114.2,60.3c0.8,3.1,1.7,12.3,1.7,12.3l-4.9,6.4
	l-6.3-3.3c0,0,0.8-10.9,1.4-14.2l0.4-3.1c-1-0.9-4.1-4-4.1-4l2.3-15.7l2.9-3l4.9,1.6l2,11.7l3.4-3.4l1.4,4.4l-3.1,5.1
	c0,0-1.5,0.9-2.5,1.4L114.2,60.3z"/>
<polyline fill="none" stroke="#000000" stroke-width="2" stroke-miterlimit="10" points="171.2,89.2 194.3,144 175.8,151.4 "/>
<polyline fill="none" stroke="#000000" stroke-width="2" stroke-miterlimit="10" points="182.3,149.3 180.4,158.1 183.1,159.2 
	185.3,155.7 187.8,168.8 193.8,160.3 189.3,146.5 "/>
<polyline fill="none" stroke="#000000" stroke-width="2" stroke-miterlimit="10" points="145.9,229.6 146.9,240.3 150.4,240.3 
	151.3,229.8 "/>
<polyline fill="none" stroke="#000000" stroke-width="2" stroke-miterlimit="10" points="158.8,229.6 160.2,240.3 163.7,240.3 
	164.7,229.1 "/>
<polyline fill="none" stroke="#000000" stroke-width="2" stroke-miterlimit="10" points="146.9,240.3 128.9,247 141.2,252.3 
	150.4,240.3 "/>
<polyline fill="none" stroke="#000000" stroke-width="2" stroke-miterlimit="10" points="160.2,240.3 169.5,252.3 181.3,247.9 
	163.7,240.3 "/>
</svg>
