<?xml version="1.0" encoding="utf-8"?>
<!-- Generator: Adobe Illustrator 19.2.1, SVG Export Plug-In . SVG Version: 6.00 Build 0)  -->
<svg version="1.0" id="Layer_1" xmlns="http://www.w3.org/2000/svg" xmlns:xlink="http://www.w3.org/1999/xlink" x="0px" y="0px"
	 width="288px" height="288px" viewBox="0 0 288 288" enable-background="new 0 0 288 288" xml:space="preserve">
<ellipse fill="none" stroke="#000000" stroke-width="2" stroke-miterlimit="10" cx="123.8" cy="58.7" rx="11.2" ry="17.3"/>
<polyline fill="none" stroke="#000000" stroke-width="2" stroke-miterlimit="10" points="126.9,75.3 127.4,83.2 118.5,83.2 
	119.5,74.7 "/>
<path fill="none" stroke="#000000" stroke-width="2" stroke-miterlimit="10" d="M136.4,83.2h-29.3c0,0-6.7,119.2-8.9,137.4
	c0,0,33.5,8.2,51.2-1.7L136.4,83.2z"/>
<polyline fill="none" stroke="#000000" stroke-width="2" stroke-miterlimit="10" points="107.1,83.2 85,138 103.5,145.4 "/>
<polyline fill="none" stroke="#000000" stroke-width="2" stroke-miterlimit="10" points="99,143.6 100.9,152.4 98.2,153.5 96,150 
	93.5,163.2 87.5,154.7 92,140.8 "/>
<polyline fill="none" stroke="#000000" stroke-width="2" stroke-miterlimit="10" points="136.4,83.2 182.4,83.2 182.4,109.9 
	137.2,91.3 "/>
<polyline fill="none" stroke="#000000" stroke-width="2" stroke-miterlimit="10" points="182.4,83.2 187.5,78.4 202,78.4 202,81.8 
	196,83.2 195.4,91.4 182.4,90.1 "/>
<line fill="none" stroke="#000000" stroke-width="2" stroke-miterlimit="10" x1="111.7" y1="83.2" x2="140.5" y2="126.2"/>
<line fill="none" stroke="#000000" stroke-width="2" stroke-miterlimit="10" x1="106.4" y1="95.7" x2="142.4" y2="145.4"/>
<polyline fill="none" stroke="#000000" stroke-width="2" stroke-miterlimit="10" points="131.5,223.6 130.5,234.3 127,234.3 
	126.1,223.8 "/>
<polyline fill="none" stroke="#000000" stroke-width="2" stroke-miterlimit="10" points="118.5,223.6 117.2,234.3 113.7,234.3 
	112.7,223.1 "/>
<polyline fill="none" stroke="#000000" stroke-width="2" stroke-miterlimit="10" points="117.2,234.3 107.8,246.3 96,241.9 
	113.7,234.3 "/>
<polyline fill="none" stroke="#000000" stroke-width="2" stroke-miterlimit="10" points="130.5,234.3 148.5,241 136.2,246.3 
	127,234.3 "/>
</svg>
