<?xml version="1.0" encoding="utf-8"?>
<!-- Generator: Adobe Illustrator 19.2.1, SVG Export Plug-In . SVG Version: 6.00 Build 0)  -->
<svg version="1.0" id="Layer_1" xmlns="http://www.w3.org/2000/svg" xmlns:xlink="http://www.w3.org/1999/xlink" x="0px" y="0px"
	 width="288px" height="288px" viewBox="0 0 288 288" enable-background="new 0 0 288 288" xml:space="preserve">
<ellipse fill="none" stroke="#000000" stroke-width="2" stroke-miterlimit="10" cx="142.6" cy="58.7" rx="11.2" ry="17.3"/>
<polyline fill="none" stroke="#000000" stroke-width="2" stroke-miterlimit="10" points="139.5,75.3 139,83.2 147.8,83.2 
	146.9,74.7 "/>
<path fill="none" stroke="#000000" stroke-width="2" stroke-miterlimit="10" d="M123.4,100.4c0.7-10.4,1.1-17.1,1.1-17.1h33.8
	c0,0,0.5,8.9,1.1,22.1"/>
<path fill="none" stroke="#000000" stroke-width="2" stroke-miterlimit="10" d="M153.7,83.2c0,0-10.2,14.4-19.8,25.6"/>
<path fill="none" stroke="#000000" stroke-width="2" stroke-miterlimit="10" d="M159,97.3c0,0-2.8,3.8-7.1,9.1"/>
<path fill="none" stroke="#000000" stroke-width="2" stroke-miterlimit="10" d="M124.5,83.2l-11.8,31.1c0,0,20.8,13.4,41,13.9
	l4.2-22.5l-35.3,4.1"/>
<polyline fill="none" stroke="#000000" stroke-width="2" stroke-miterlimit="10" points="158,105.8 162.2,103.5 165.2,107.8 
	157.6,107.8 "/>
<polyline fill="none" stroke="#000000" stroke-width="2" stroke-miterlimit="10" points="158.2,83.2 175.3,115.3 154.3,125.7 "/>
<path fill="none" stroke="#000000" stroke-width="2" stroke-miterlimit="10" d="M133.6,108.6c-0.4-0.9-3.4-6.7-3.4-6.7l-9-2.1
	l-1.5,5.9l6.2,3.8"/>
<path fill="none" stroke="#000000" stroke-width="2" stroke-miterlimit="10" d="M160.3,123.4c2.1,40.7,5,97.6,5,97.6
	s-22.7,6.9-49.8,0c0,0,4-60.7,6.6-101.5"/>
<path fill="none" stroke="#000000" stroke-width="2" stroke-miterlimit="10" d="M135.8,125.1c-5.6,5.8-11.1,10.6-14.8,11.9"/>
<polyline fill="none" stroke="#000000" stroke-width="2" stroke-miterlimit="10" points="131.9,223.6 132.9,234.3 136.4,234.3 
	137.3,223.8 "/>
<polyline fill="none" stroke="#000000" stroke-width="2" stroke-miterlimit="10" points="144.8,223.6 146.2,234.3 149.7,234.3 
	150.7,223.1 "/>
<polyline fill="none" stroke="#000000" stroke-width="2" stroke-miterlimit="10" points="132.9,234.3 114.9,241 127.2,246.3 
	136.4,234.3 "/>
<polyline fill="none" stroke="#000000" stroke-width="2" stroke-miterlimit="10" points="146.2,234.3 155.5,246.3 167.3,241.9 
	149.7,234.3 "/>
</svg>
