<?xml version="1.0" encoding="utf-8"?>
<!-- Generator: Adobe Illustrator 19.2.1, SVG Export Plug-In . SVG Version: 6.00 Build 0)  -->
<svg version="1.0" id="Layer_1" xmlns="http://www.w3.org/2000/svg" xmlns:xlink="http://www.w3.org/1999/xlink" x="0px" y="0px"
	 width="288px" height="288px" viewBox="0 0 288 288" enable-background="new 0 0 288 288" xml:space="preserve">
<ellipse fill="none" stroke="#000000" stroke-width="2" stroke-miterlimit="10" cx="149.5" cy="59" rx="11.2" ry="17.3"/>
<path fill="none" stroke="#000000" stroke-width="2" stroke-miterlimit="10" d="M144.9,78.2c0.2-1.7,0.4-3.2,0.4-3.2"/>
<path fill="none" stroke="#000000" stroke-width="2" stroke-miterlimit="10" d="M152.7,75.6c0,0,0.1,0.8,0.1,1.9"/>
<polyline fill="none" stroke="#000000" stroke-width="2" stroke-miterlimit="10" points="119.5,79.3 95.8,77.4 95.8,94.7 
	121.4,91.9 "/>
<polyline fill="none" stroke="#000000" stroke-width="2" stroke-miterlimit="10" points="95.8,83.5 86,80.8 86,88.7 95.8,87.8 "/>
<polygon fill="none" stroke="#000000" stroke-width="2" stroke-miterlimit="10" points="119.5,78.3 134.5,78.3 132.1,93.7 
	121.8,93.7 "/>
<polyline fill="none" stroke="#000000" stroke-width="2" stroke-miterlimit="10" points="134.1,79.3 157.9,77.4 157.9,94.7 
	132.2,91.9 "/>
<polyline fill="none" stroke="#000000" stroke-width="2" stroke-miterlimit="10" points="157.9,83.5 167.6,80.8 167.6,88.7 
	157.9,87.8 "/>
<line fill="none" stroke="#000000" stroke-width="2" stroke-miterlimit="10" x1="123.9" y1="93.7" x2="123.9" y2="86"/>
<line fill="none" stroke="#000000" stroke-width="2" stroke-miterlimit="10" x1="126.8" y1="93.7" x2="127" y2="86"/>
<line fill="none" stroke="#000000" stroke-width="2" stroke-miterlimit="10" x1="129.8" y1="93.7" x2="129.8" y2="86"/>
<line fill="none" stroke="#000000" stroke-width="2" stroke-miterlimit="10" x1="101.2" y1="94.1" x2="101.2" y2="164.6"/>
<line fill="none" stroke="#000000" stroke-width="2" stroke-miterlimit="10" x1="153.2" y1="94.1" x2="154.6" y2="164.1"/>
<polygon fill="none" stroke="#000000" stroke-width="2" stroke-miterlimit="10" points="121.4,178.7 95.8,181.4 95.8,164.1 
	119.5,166 126.2,166.8 134.1,166 157.9,164.1 157.9,181.4 132.2,178.7 127.2,178 "/>
<polyline fill="none" stroke="#000000" stroke-width="2" stroke-miterlimit="10" points="95.8,170.3 86,167.5 86,175.4 95.8,174.6 
	"/>
<polyline fill="none" stroke="#000000" stroke-width="2" stroke-miterlimit="10" points="157.9,170.3 167.6,167.5 167.6,175.4 
	157.9,174.6 "/>
<path fill="none" stroke="#000000" stroke-width="2" stroke-miterlimit="10" d="M182,148.3l18.8-36c0,0-20-17.1-32.9-25.4"/>
<path fill="none" stroke="#000000" stroke-width="2" stroke-miterlimit="10" d="M188.5,111.8l-27.7,1.7v4h6.8c0,0,1.8,7.9,2.4,7.7
	s11.5-2.4,11.5-2.4"/>
<path fill="none" stroke="#000000" stroke-width="2" stroke-miterlimit="10" d="M172.5,124.7c0,1.3,9.5,24.7,9.5,23.7
	s-1.7-36-1.7-36"/>
<path fill="none" stroke="#000000" stroke-width="2" stroke-miterlimit="10" d="M165,113.2c-1-10.8-1.9-19.7-2.4-24.8"/>
<path fill="none" stroke="#000000" stroke-width="2" stroke-miterlimit="10" d="M127.2,178.3c-1.3,19.9-2.5,36.6-3.2,42.6
	c0,0,33.5,8.2,51.2-1.7c0,0-5.9-61.2-9.7-101.4"/>
<path fill="none" stroke="#000000" stroke-width="2" stroke-miterlimit="10" d="M153.3,107.2c6.7,10,13,19.3,13,19.3"/>
<path fill="none" stroke="#000000" stroke-width="2" stroke-miterlimit="10" d="M153.6,125.7c7.7,10.6,14.5,20,14.5,20"/>
<polyline fill="none" stroke="#000000" stroke-width="2" stroke-miterlimit="10" points="144.3,223.9 142.9,234.6 139.4,234.6 
	138.4,223.4 "/>
<polyline fill="none" stroke="#000000" stroke-width="2" stroke-miterlimit="10" points="157.3,223.9 156.3,234.6 152.8,234.6 
	151.9,224.1 "/>
<polyline fill="none" stroke="#000000" stroke-width="2" stroke-miterlimit="10" points="142.9,234.6 133.6,246.6 121.8,242.2 
	139.4,234.6 "/>
<polyline fill="none" stroke="#000000" stroke-width="2" stroke-miterlimit="10" points="156.3,234.6 174.3,241.3 161.9,246.6 
	152.8,234.6 "/>
</svg>
