<?xml version="1.0" encoding="utf-8"?>
<!-- Generator: Adobe Illustrator 19.2.1, SVG Export Plug-In . SVG Version: 6.00 Build 0)  -->
<svg version="1.0" id="Layer_1" xmlns="http://www.w3.org/2000/svg" xmlns:xlink="http://www.w3.org/1999/xlink" x="0px" y="0px"
	 width="288px" height="288px" viewBox="0 0 288 288" enable-background="new 0 0 288 288" xml:space="preserve">
<ellipse fill="none" stroke="#000000" stroke-width="2" stroke-miterlimit="10" cx="163.4" cy="58.7" rx="11.2" ry="17.3"/>
<polyline fill="none" stroke="#000000" stroke-width="2" stroke-miterlimit="10" points="160.3,75.3 159.8,83.2 168.6,83.2 
	167.7,74.7 "/>
<path fill="none" stroke="#000000" stroke-width="2" stroke-miterlimit="10" d="M150.8,83.2h29.3c0,0,6.7,119.2,8.9,137.4
	c0,0-33.5,8.2-51.2-1.7L150.8,83.2z"/>
<polyline fill="none" stroke="#000000" stroke-width="2" stroke-miterlimit="10" points="150.8,83.2 104.8,83.2 104.8,109.9 
	150,91.3 "/>
<polyline fill="none" stroke="#000000" stroke-width="2" stroke-miterlimit="10" points="104.8,83.2 99.6,78.4 85.1,78.4 85.1,81.8 
	91.1,83.2 91.8,91.4 104.8,90.1 "/>
<line fill="none" stroke="#000000" stroke-width="2" stroke-miterlimit="10" x1="175.5" y1="83.2" x2="146.6" y2="126.2"/>
<line fill="none" stroke="#000000" stroke-width="2" stroke-miterlimit="10" x1="180.8" y1="95.7" x2="144.8" y2="145.4"/>
<polyline fill="none" stroke="#000000" stroke-width="2" stroke-miterlimit="10" points="180.1,83.2 202.2,138 183.7,145.4 "/>
<polyline fill="none" stroke="#000000" stroke-width="2" stroke-miterlimit="10" points="188.2,143.6 186.2,152.4 189,153.5 
	191.1,150 193.7,163.2 199.7,154.7 195.2,140.8 "/>
<polyline fill="none" stroke="#000000" stroke-width="2" stroke-miterlimit="10" points="155.7,223.6 156.7,234.3 160.2,234.3 
	161.1,223.8 "/>
<polyline fill="none" stroke="#000000" stroke-width="2" stroke-miterlimit="10" points="168.6,223.6 170,234.3 173.5,234.3 
	174.5,223.1 "/>
<polyline fill="none" stroke="#000000" stroke-width="2" stroke-miterlimit="10" points="156.7,234.3 138.7,241 151,246.3 
	160.2,234.3 "/>
<polyline fill="none" stroke="#000000" stroke-width="2" stroke-miterlimit="10" points="170,234.3 179.3,246.3 191.1,241.9 
	173.5,234.3 "/>
</svg>
