<?xml version="1.0" encoding="utf-8"?>
<!-- Generator: Adobe Illustrator 19.2.1, SVG Export Plug-In . SVG Version: 6.00 Build 0)  -->
<svg version="1.0" id="Layer_1" xmlns="http://www.w3.org/2000/svg" xmlns:xlink="http://www.w3.org/1999/xlink" x="0px" y="0px"
	 width="288px" height="288px" viewBox="0 0 288 288" enable-background="new 0 0 288 288" xml:space="preserve">
<ellipse fill="none" stroke="#000000" stroke-width="2" stroke-miterlimit="10" cx="149.8" cy="68.3" rx="11.2" ry="17.3"/>
<polyline fill="none" stroke="#000000" stroke-width="2" stroke-miterlimit="10" points="146.7,85 146.2,92.9 155.1,92.9 
	154.1,84.3 "/>
<path fill="none" stroke="#000000" stroke-width="2" stroke-miterlimit="10" d="M131.4,92.9h36.8l10.2,137.9c0,0-37.5,6.3-52.5,0.9
	L131.4,92.9z"/>
<polyline fill="none" stroke="#000000" stroke-width="2" stroke-miterlimit="10" points="131.4,92.9 98.6,59.1 97.5,88.3 
	130.9,109.3 "/>
<line fill="none" stroke="#000000" stroke-width="2" stroke-miterlimit="10" x1="87" y1="55.1" x2="98.1" y2="69.1"/>
<polygon fill="none" stroke="#000000" stroke-width="2" stroke-miterlimit="10" points="84.9,55.1 94.4,55.1 94.4,33 85.9,32 
	82.1,35.4 "/>
<polyline fill="none" stroke="#000000" stroke-width="2" stroke-miterlimit="10" points="94.4,45.6 98,42 100.9,45.6 94.4,55.1 
	98.5,59.1 "/>
<polyline fill="none" stroke="#000000" stroke-width="2" stroke-miterlimit="10" points="168.1,92.9 200.6,59.1 201.8,88.3 
	169.3,108.8 "/>
<polyline fill="none" stroke="#000000" stroke-width="2" stroke-miterlimit="10" points="204.9,45.6 201.3,42 198.4,45.6 
	204.9,55.1 200.8,59.1 "/>
<polygon fill="none" stroke="#000000" stroke-width="2" stroke-miterlimit="10" points="214.4,55.1 204.9,55.1 204.9,33 213.4,32 
	217.1,35.4 "/>
<line fill="none" stroke="#000000" stroke-width="2" stroke-miterlimit="10" x1="212.2" y1="55.1" x2="201.1" y2="69.1"/>
<path fill="none" stroke="#000000" stroke-width="2" stroke-miterlimit="10" d="M161.9,92.9c0,0-22,31.3-32,37.3"/>
<path fill="none" stroke="#000000" stroke-width="2" stroke-miterlimit="10" d="M169,105.3c0,0-28.5,37.6-39.8,41.3"/>
<polyline fill="none" stroke="#000000" stroke-width="2" stroke-miterlimit="10" points="142.7,233.2 143.7,244 147.2,244 
	148.1,233.4 "/>
<polyline fill="none" stroke="#000000" stroke-width="2" stroke-miterlimit="10" points="155.7,233.2 157.1,244 160.6,244 
	161.6,232.7 "/>
<polyline fill="none" stroke="#000000" stroke-width="2" stroke-miterlimit="10" points="143.7,244 125.7,250.7 138.1,256 
	147.2,244 "/>
<polyline fill="none" stroke="#000000" stroke-width="2" stroke-miterlimit="10" points="157.1,244 166.4,256 178.2,251.5 
	160.6,244 "/>
</svg>
