<?xml version="1.0" encoding="utf-8"?>
<!-- Generator: Adobe Illustrator 19.2.1, SVG Export Plug-In . SVG Version: 6.00 Build 0)  -->
<svg version="1.0" id="Layer_1" xmlns="http://www.w3.org/2000/svg" xmlns:xlink="http://www.w3.org/1999/xlink" x="0px" y="0px"
	 width="288px" height="288px" viewBox="0 0 288 288" enable-background="new 0 0 288 288" xml:space="preserve">
<ellipse transform="matrix(0.6717 -0.7408 0.7408 0.6717 -24.4126 145.8372)" fill="none" stroke="#000000" stroke-width="2" stroke-miterlimit="10" cx="152.4" cy="100.5" rx="17.3" ry="11.2"/>
<path fill="none" stroke="#000000" stroke-width="2" stroke-miterlimit="10" d="M138.7,102.4l-20.2,4.1c0,0-23.2,27-22.5,68.8
	c0,0,27.2,14.4,46,4.8"/>
<path fill="none" stroke="#000000" stroke-width="2" stroke-miterlimit="10" d="M124.5,110.7l-3.8,38.3c0,0,12.5,14,37.8,13.5v-19.6
	l-22.4-3.9l-1.8-23.2"/>
<polyline fill="none" stroke="#000000" stroke-width="2" stroke-miterlimit="10" points="158.5,142.9 163.5,140.8 169.2,142.9 
	169.2,150.5 158.5,150.5 "/>
<polyline fill="none" stroke="#000000" stroke-width="2" stroke-miterlimit="10" points="169.2,150.5 174.5,170.8 162.7,182.9 "/>
<path fill="none" stroke="#000000" stroke-width="2" stroke-miterlimit="10" d="M99.6,177c0,0,10.1,26,11.1,26.4s61.8-7.8,61.8-7.8
	s-23.5-30-30.8-35"/>
<line fill="none" stroke="#000000" stroke-width="2" stroke-miterlimit="10" x1="97.5" y1="183.9" x2="102" y2="182.9"/>
<line fill="none" stroke="#000000" stroke-width="2" stroke-miterlimit="10" x1="97.5" y1="187.9" x2="105.2" y2="191"/>
<path fill="none" stroke="#000000" stroke-width="2" stroke-miterlimit="10" d="M94.2,181.7c-0.5,1.8-6.2,18.1-6.2,18.1h9.8v-16.1
	L94.2,181.7z"/>
<polyline fill="none" stroke="#000000" stroke-width="2" stroke-miterlimit="10" points="170.9,174.5 172.5,190 168.6,191.3 "/>
<polyline fill="none" stroke="#000000" stroke-width="2" stroke-miterlimit="10" points="172.5,190 190,193.4 181.2,199.5 
	170.6,196.4 "/>
<line fill="none" stroke="#000000" stroke-width="2" stroke-miterlimit="10" x1="143.8" y1="115" x2="139.6" y2="139.6"/>
<path fill="none" stroke="#000000" stroke-width="2" stroke-miterlimit="10" d="M142,114.2c-0.2,0.3-2.8,3.6-7,8.1"/>
<path fill="none" stroke="#000000" stroke-width="2" stroke-miterlimit="10" d="M122.1,134c-6.5,5.1-14.3,9.8-22.8,12.4"/>
<path fill="none" stroke="#000000" stroke-width="2" stroke-miterlimit="10" d="M140.4,135c0,0-1,1.3-3,3.3"/>
<path fill="none" stroke="#000000" stroke-width="2" stroke-miterlimit="10" d="M121.9,150.5c-6.9,4.2-15.4,7.8-25.1,8.9"/>
</svg>
