<?xml version="1.0" encoding="utf-8"?>
<!-- Generator: Adobe Illustrator 20.1.0, SVG Export Plug-In . SVG Version: 6.00 Build 0)  -->
<!DOCTYPE svg PUBLIC "-//W3C//DTD SVG 1.0//EN" "http://www.w3.org/TR/2001/REC-SVG-20010904/DTD/svg10.dtd">
<svg version="1.0" id="Layer_1" xmlns="http://www.w3.org/2000/svg" xmlns:xlink="http://www.w3.org/1999/xlink" x="0px" y="0px"
	 width="288px" height="288px" viewBox="0 0 288 288" enable-background="new 0 0 288 288" xml:space="preserve">
<path fill="none" stroke="#000000" stroke-width="2" stroke-miterlimit="10" d="M198.6,122.2c0,0,14.4-3.9,14.2,8.9
	s-21.5,25-21.5,25s-36.2,11.7-31.2,23.5s19.5,14.2,20.2,14s38.2-3.5,40.3,3.2c2.2,6.7,9,21.7-6,26.3c-15,4.7-23,5-23.5,5
	s-38.8-3.2-40.7,5c-1.8,8.2,2.5,12.7,2.5,12.7"/>
<polyline fill="none" stroke="#000000" stroke-width="2" stroke-miterlimit="10" points="164.3,228 166.2,234.3 169.3,227.7 "/>
<polyline fill="none" stroke="#000000" stroke-width="2" stroke-miterlimit="10" points="178.2,227.6 181.5,218.2 183.8,227.8 "/>
<polyline fill="none" stroke="#000000" stroke-width="2" stroke-miterlimit="10" points="152.4,230.8 143.4,227.7 150.1,235.2 "/>
<polyline fill="none" stroke="#000000" stroke-width="2" stroke-miterlimit="10" points="199.8,227 206.8,235.2 206.8,225.4 "/>
<polyline fill="none" stroke="#000000" stroke-width="2" stroke-miterlimit="10" points="224.1,210.5 212.3,208.3 221.8,217.2 "/>
<polyline fill="none" stroke="#000000" stroke-width="2" stroke-miterlimit="10" points="218.4,194.8 229.2,189 222.6,202.5 "/>
<polyline fill="none" stroke="#000000" stroke-width="2" stroke-miterlimit="10" points="191.7,192.9 194,202.5 198.2,192.9 "/>
<polyline fill="none" stroke="#000000" stroke-width="2" stroke-miterlimit="10" points="164.3,185.9 158.5,195.7 170,190.2 "/>
<polyline fill="none" stroke="#000000" stroke-width="2" stroke-miterlimit="10" points="164.3,169.7 152.4,163 160,175.3 "/>
<polyline fill="none" stroke="#000000" stroke-width="2" stroke-miterlimit="10" points="183.8,158.9 189.7,167.2 191.4,156.2 "/>
<polyline fill="none" stroke="#000000" stroke-width="2" stroke-miterlimit="10" points="210.2,139.3 200.7,133.2 205.4,145.3 "/>
<polyline fill="none" stroke="#000000" stroke-width="2" stroke-miterlimit="10" points="211.8,125.9 222.7,127.3 212.7,132.5 "/>
</svg>
