<?xml version="1.0" encoding="utf-8"?>
<!-- Generator: Adobe Illustrator 21.1.0, SVG Export Plug-In . SVG Version: 6.00 Build 0)  -->
<!DOCTYPE svg PUBLIC "-//W3C//DTD SVG 1.0//EN" "http://www.w3.org/TR/2001/REC-SVG-20010904/DTD/svg10.dtd">
<svg version="1.0" id="Layer_1" xmlns="http://www.w3.org/2000/svg" xmlns:xlink="http://www.w3.org/1999/xlink" x="0px" y="0px"
	 width="576px" height="576px" viewBox="0 0 576 576" enable-background="new 0 0 576 576" xml:space="preserve">
<g id="Color">
	<g>
		<ellipse fill="#FFFFFF" cx="289" cy="143.3" rx="28.7" ry="44.7"/>
	</g>
	<g>
		<polygon fill="#FFFFFF" points="256.2,196.7 320.5,196.7 309.8,298.3 261.5,298.3 		"/>
	</g>
	<g>
		<path fill="#FFFFFF" d="M256.2,196.7l-53.7,37.7l14,68.7l-10.7,25.7l23.5,12l-9.8-18l12-6.7c0,0-1,13,0.7,12.7s12-13,12-13
			l-14.8-17.3l-3.5-57l31.7-17.7"/>
	</g>
	<g>
		<path fill="#FFFFFF" d="M320.5,196.7l26,59l12.3,50l14.7,8.3c0,0-3.3,29.7-3.3,28.7s-7.3-21-7.3-21l-9.7,1.3l6.3,8l-16,1.7
			L347,308l-14.8-46.7l-15.5-28.1"/>
	</g>
	<g>
		<polyline fill="#FFFFFF" points="261.5,298.3 245.5,450.7 257.6,450.7 285.2,298.3 		"/>
	</g>
	<g>
		<polyline fill="#FFFFFF" points="309.8,298.3 339.6,450.7 328.5,450.7 288.3,298.3 		"/>
	</g>
	<g>
		<polyline fill="#FFFFFF" points="245.5,450.7 214.2,465 247.8,477.3 257.6,450.7 		"/>
	</g>
	<g>
		<polyline fill="#FFFFFF" points="339.6,450.7 369.5,464.3 338.2,475.7 328.5,450.7 		"/>
	</g>
	<g>
		<polygon fill="#FFFFFF" points="278.8,200.4 280.6,177.6 295.4,181.9 300.1,208.2 285.2,204.7 		"/>
	</g>
	<g>
		<path d="M288,189.5c-16.7,0-30.2-20.7-30.2-46.2c0-25.5,13.5-46.2,30.2-46.2s30.2,20.7,30.2,46.2
			C318.2,168.8,304.7,189.5,288,189.5z M288,100.1c-15,0-27.2,19.4-27.2,43.2c0,23.8,12.2,43.2,27.2,43.2s27.2-19.4,27.2-43.2
			C315.2,119.5,303,100.1,288,100.1z"/>
	</g>
	<g>
		<rect x="275.5" y="190.1" transform="matrix(0.1738 -0.9848 0.9848 0.1738 43.22 434.7181)" width="10.4" height="3"/>
	</g>
	<g>
		<rect x="296" y="186.4" transform="matrix(0.9795 -0.2016 0.2016 0.9795 -32.521 63.9044)" width="3" height="10.4"/>
	</g>
	<g>
		<path d="M312.2,299.8h-51.1l-5.5-104.6h67.5L312.2,299.8z M263.9,296.8h45.5l10.4-98.6h-61.1L263.9,296.8z"/>
	</g>
	<g>
		<path d="M233.9,344.3l-29.1-14.8l11.1-26.6l-14.1-69.2l54.5-38.3l1.7,2.5l-52.9,37.1l13.9,68.2l-10.3,24.8l17.9,9.2l-8.2-15
			l15.7-8.8l-0.2,2.8c-0.3,3.7-0.4,8.1-0.2,10.3c2-1.9,5.9-6.4,9.4-10.7l-14.3-16.7l-3.6-58.4l32.5-18.2l1.5,2.6l-30.9,17.2
			l3.4,55.6l15.3,17.9l-0.8,1c-10.7,13.1-12.3,13.4-12.9,13.5c-0.6,0.1-1.1-0.1-1.6-0.5c-0.4-0.4-1.6-1.5-1.1-11.1l-8.3,4.6
			L233.9,344.3z"/>
	</g>
	<g>
		<rect x="213.6" y="225.6" transform="matrix(0.2877 -0.9577 0.9577 0.2877 -74.4984 375.4301)" width="3" height="24.3"/>
	</g>
	<g>
		<path d="M371.3,344.2c0,0-0.1,0-0.1,0l-1.4-0.1l0-1.3c-0.3-1.4-4.2-12.2-6.8-19.5l-5.9,0.8l6.4,8.1l-20.6,2.2l3.7-26.3l-14.7-46.2
			l-15.4-28l2.6-1.4l15.6,28.4l14.9,47l-3.3,23.1l11.4-1.2l-6.2-7.9l13.5-1.8l0.4,1.1c2.5,6.8,4.1,11.4,5.2,14.6
			c0.7-5.8,1.6-14.3,2.4-21l-14.4-8.1l-12.4-50.5l-25.9-58.9l2.7-1.2l26.1,59.1l12.2,49.5l15,8.5l-0.1,1c0,0-0.8,7.2-1.6,14.4
			c-0.4,3.6-0.8,7.2-1.1,9.9c-0.2,1.4-0.3,2.5-0.4,3.3C372.7,343.1,372.5,344.2,371.3,344.2z M369.7,342.7
			C369.7,342.7,369.7,342.7,369.7,342.7L369.7,342.7z"/>
	</g>
	<g>
		<rect x="332.9" y="257.8" transform="matrix(0.9665 -0.2565 0.2565 0.9665 -55.1346 96.0393)" width="15.2" height="3"/>
	</g>
	<g>
		<polygon points="259.9,452.2 244.8,452.2 261,298.1 264,298.5 248.2,449.2 257.3,449.2 284.7,298 287.7,298.6 		"/>
	</g>
	<g>
		<polygon points="342.4,452.2 328.3,452.2 287.8,298.7 290.8,297.9 330.7,449.2 338.8,449.2 309.3,298.6 312.3,298 		"/>
	</g>
	<g>
		<polygon points="249.7,479.2 211.3,465.2 245.9,449.3 247.1,452.1 219.1,464.8 247.9,475.4 257.2,450.2 260,451.2 		"/>
	</g>
	<g>
		<polygon points="338.3,477.6 328.1,451.2 330.9,450.2 340.1,473.8 366.5,464.1 340,452.1 341.2,449.3 374.5,464.5 		"/>
	</g>
	<g>
		<rect x="274.5" y="191.1" transform="matrix(0.1739 -0.9848 0.9848 0.1739 42.3802 433.7199)" width="10.4" height="1"/>
	</g>
	<g>
		<rect x="296" y="186.4" transform="matrix(0.9795 -0.2016 0.2016 0.9795 -32.5416 63.7027)" width="1" height="10.4"/>
	</g>
	<g>
		<line fill="none" x1="202.5" y1="234.3" x2="225.8" y2="241.3"/>
	</g>
	<g>
		<line fill="none" x1="332.2" y1="261.3" x2="346.9" y2="257.4"/>
	</g>
</g>
<g id="Stroke">
	<path fill="none" stroke="#15EEFF" stroke-width="30" stroke-linejoin="round" stroke-miterlimit="10" stroke-opacity="0" d="
		M241.3,99.9c31.1-5.7,63.9-1,92.2,13.1c-27.5,14.8-61.5,7.9-91.8,15.5c28.7,7.7,58.3,12.2,88,13.4c6.2,0.3,13.4,1,16.5,6.3
		c-23.6,11.8-50.6,16.7-76.9,13.9c-9.3-1-20.2-2.4-26.6,4.3c31.3,1.9,62.5,3.8,93.8,5.8c2.6,0.2,5.5,0.4,7.4,2.3
		c-47.6,24.4-108.8-1.1-157.6,20.9c67.1,1.7,134.6,3.5,200.6,15.8c-22.2,9.3-47,9.7-71.1,9.9c-36.3,0.4-72.5,0.7-108.8,1.1
		c-7.7,0.1-18.1,14.2-23.9,30.1c53.7,0.2,108.8-25,162.5-24.8c14.2,0.1,29.5,0.4,41,8.7C318.5,253,248,276.5,177.9,278.6
		c28.1,2.1,54.1-3,82.3-3.2c40.2-0.2,83.1-5.7,120.9,8.1c-63.7,10-128,14.9-192.3,19.8c42.6,12.9,93.1-2.1,139.6-2
		c22.8,0,45.9,0.3,68,6.1c-79.1,8.7-157.2,26.3-236.6,30.4c51.6-0.3,103.3-0.6,154.9-0.9c20.8-0.1,41.8-0.2,62.1,4.4
		c-18,7.6-38.2,7-57.8,6.8c-27.1-0.2-54.2,0.7-81.1,2.8c-4.1,0.3-8.8,1.1-10.7,4.7c13.4,3.3,27.2,4.4,40.9,5.5
		c35.6,2.8,71.3,5.7,106.9,8.5c-5.9,6.5-15.7,7.2-24.5,7.5c-47,1.9-93.9,7.1-140.1,15.8c58.3-2.2,117.7-4.2,173.9,11.3
		c-68,20-143.4,0.9-210.6,23.5c74.5-11.7,150.4-14.6,225.6-8.5c2.7,0.2,5.6,0.5,7.7,2.2c-63.2,18.2-129.2,26.4-194.8,24.5
		c57.1-6.8,114.8,2.1,171.6,11.1c0.7,2.4-2.6,3.8-5,4c-52,5.9-104.5,7.6-156.7,4.9c-10.3-0.5-21-1.1-30.3,3.3c22.1,3,44.1,6,66.2,9"
		/>
</g>
</svg>
