<?xml version="1.0" encoding="utf-8"?>
<!-- Generator: Adobe Illustrator 21.1.0, SVG Export Plug-In . SVG Version: 6.00 Build 0)  -->
<!DOCTYPE svg PUBLIC "-//W3C//DTD SVG 1.0//EN" "http://www.w3.org/TR/2001/REC-SVG-20010904/DTD/svg10.dtd">
<svg version="1.0" id="Layer_1" xmlns="http://www.w3.org/2000/svg" xmlns:xlink="http://www.w3.org/1999/xlink" x="0px" y="0px"
	 width="576px" height="576px" viewBox="0 0 576 576" enable-background="new 0 0 576 576" xml:space="preserve">
<ellipse fill="none" stroke="#000000" stroke-width="3" stroke-miterlimit="10" cx="255.7" cy="143.3" rx="28.7" ry="44.7"/>
<line fill="none" stroke="#000000" stroke-width="3" stroke-miterlimit="10" x1="248.2" y1="186.5" x2="246.5" y2="196.7"/>
<line fill="none" stroke="#000000" stroke-width="3" stroke-miterlimit="10" x1="263.1" y1="186.5" x2="265.2" y2="196.7"/>
<polygon fill="none" stroke="#000000" stroke-width="3" stroke-miterlimit="10" points="223.8,196.7 288.2,196.7 277.5,298.3 
	229.2,298.3 "/>
<path fill="none" stroke="#000000" stroke-width="3" stroke-miterlimit="10" d="M223.8,196.7l-53.7,37.7l14,68.7l-10.7,25.7l23.5,12
	l-9.8-18l12-6.7c0,0-1,13,0.7,12.7s12-13,12-13L197,298.3l-3.5-57l31.7-17.7"/>
<line fill="none" stroke="#000000" stroke-width="3" stroke-miterlimit="10" x1="170.2" y1="234.3" x2="193.5" y2="241.3"/>
<path fill="none" stroke="#000000" stroke-width="3" stroke-miterlimit="10" d="M288.2,196.7l35,40.8l39.9-11.2
	c0-1.2,5.3-13.5,5.3-13.5l14.7-12l1.8,6.4l21.4-6.2v3.3l-12,6.7l0.6,15.3l-15.3,7.3h-11.7l-46.1,25.8l-36.8-33"/>
<line fill="none" stroke="#000000" stroke-width="3" stroke-miterlimit="10" x1="323.3" y1="237.2" x2="321.6" y2="259.5"/>
<line fill="none" stroke="#000000" stroke-width="3" stroke-miterlimit="10" x1="363" y1="226.4" x2="368.3" y2="234.7"/>
<polyline fill="none" stroke="#000000" stroke-width="3" stroke-miterlimit="10" points="229.2,298.3 213.2,450.7 225.2,450.7 
	252.8,298.3 "/>
<polyline fill="none" stroke="#000000" stroke-width="3" stroke-miterlimit="10" points="277.5,298.3 307.2,450.7 296.2,450.7 
	256,298.3 "/>
<polyline fill="none" stroke="#000000" stroke-width="3" stroke-miterlimit="10" points="213.2,450.7 181.8,465 215.5,477.3 
	225.2,450.7 "/>
<polyline fill="none" stroke="#000000" stroke-width="3" stroke-miterlimit="10" points="307.2,450.7 337.2,464.3 305.8,475.7 
	296.2,450.7 "/>
</svg>
