<?xml version="1.0" encoding="utf-8"?>
<!-- Generator: Adobe Illustrator 21.1.0, SVG Export Plug-In . SVG Version: 6.00 Build 0)  -->
<!DOCTYPE svg PUBLIC "-//W3C//DTD SVG 1.0//EN" "http://www.w3.org/TR/2001/REC-SVG-20010904/DTD/svg10.dtd">
<svg version="1.0" id="Layer_1" xmlns="http://www.w3.org/2000/svg" xmlns:xlink="http://www.w3.org/1999/xlink" x="0px" y="0px"
	 width="576px" height="576px" viewBox="0 0 576 576" enable-background="new 0 0 576 576" xml:space="preserve">
<ellipse fill="none" stroke="#000000" stroke-width="3" stroke-miterlimit="10" cx="288" cy="143.3" rx="28.7" ry="44.7"/>
<line fill="none" stroke="#000000" stroke-width="3" stroke-miterlimit="10" x1="280.6" y1="186.5" x2="278.8" y2="196.7"/>
<line fill="none" stroke="#000000" stroke-width="3" stroke-miterlimit="10" x1="295.4" y1="186.5" x2="297.5" y2="196.7"/>
<polygon fill="none" stroke="#000000" stroke-width="3" stroke-miterlimit="10" points="256.2,196.7 320.5,196.7 309.8,298.3 
	261.5,298.3 "/>
<path fill="none" stroke="#000000" stroke-width="3" stroke-miterlimit="10" d="M256.2,196.7l-53.7,37.7l14,68.7l-10.7,25.7l23.5,12
	l-9.8-18l12-6.7c0,0-1,13,0.7,12.7s12-13,12-13l-14.8-17.3l-3.5-57l31.7-17.7"/>
<line fill="none" stroke="#000000" stroke-width="3" stroke-miterlimit="10" x1="202.5" y1="234.3" x2="225.8" y2="241.3"/>
<path fill="none" stroke="#000000" stroke-width="3" stroke-miterlimit="10" d="M320.5,196.7l26,59l12.3,50l14.7,8.3
	c0,0-3.3,29.7-3.3,28.7s-7.3-21-7.3-21l-9.7,1.3l6.3,8l-16,1.7L347,308l-14.8-46.7l-15.5-28.1"/>
<line fill="none" stroke="#000000" stroke-width="3" stroke-miterlimit="10" x1="332.2" y1="261.3" x2="346.9" y2="257.4"/>
<polyline fill="none" stroke="#000000" stroke-width="3" stroke-miterlimit="10" points="261.5,298.3 245.5,450.7 257.6,450.7 
	285.2,298.3 "/>
<polyline fill="none" stroke="#000000" stroke-width="3" stroke-miterlimit="10" points="309.8,298.3 339.6,450.7 328.5,450.7 
	288.3,298.3 "/>
<polyline fill="none" stroke="#000000" stroke-width="3" stroke-miterlimit="10" points="245.5,450.7 214.2,465 247.8,477.3 
	257.6,450.7 "/>
<polyline fill="none" stroke="#000000" stroke-width="3" stroke-miterlimit="10" points="339.6,450.7 369.5,464.3 338.2,475.7 
	328.5,450.7 "/>
</svg>
