<?xml version="1.0" encoding="utf-8"?>
<!-- Generator: Adobe Illustrator 21.1.0, SVG Export Plug-In . SVG Version: 6.00 Build 0)  -->
<!DOCTYPE svg PUBLIC "-//W3C//DTD SVG 1.0//EN" "http://www.w3.org/TR/2001/REC-SVG-20010904/DTD/svg10.dtd">
<svg version="1.0" id="Layer_1" xmlns="http://www.w3.org/2000/svg" xmlns:xlink="http://www.w3.org/1999/xlink" x="0px" y="0px"
	 width="576px" height="576px" viewBox="0 0 576 576" enable-background="new 0 0 576 576" xml:space="preserve">
<ellipse transform="matrix(0.9975 -7.005875e-02 7.005875e-02 0.9975 -8.4816 19.7618)" fill="none" stroke="#000000" stroke-width="3" stroke-miterlimit="10" cx="277.5" cy="130.8" rx="28.7" ry="44.7"/>
<line fill="none" stroke="#000000" stroke-width="3" stroke-miterlimit="10" x1="273.1" y1="174.4" x2="272.1" y2="184.7"/>
<line fill="none" stroke="#000000" stroke-width="3" stroke-miterlimit="10" x1="288" y1="173.3" x2="290.1" y2="180.9"/>
<polygon fill="none" stroke="#000000" stroke-width="3" stroke-miterlimit="10" points="244.7,187.6 309,178.1 311,292.7 
	261.3,294.5 "/>
<polyline fill="none" stroke="#000000" stroke-width="3" stroke-miterlimit="10" points="244.7,187.6 214,230.7 253,285.5 
	259.4,282.2 "/>
<polyline fill="none" stroke="#000000" stroke-width="3" stroke-miterlimit="10" points="248.9,214.5 236.7,234.5 258.5,276.2 "/>
<line fill="none" stroke="#000000" stroke-width="3" stroke-miterlimit="10" x1="236.7" y1="234.5" x2="214" y2="230.7"/>
<polyline fill="none" stroke="#000000" stroke-width="3" stroke-miterlimit="10" points="253,285.5 232,285.5 236.7,300.2 
	261.3,291.5 "/>
<polyline fill="none" stroke="#000000" stroke-width="3" stroke-miterlimit="10" points="309,178.1 342,171.7 336,128 326.5,121.1 
	324,92.7 329.8,92.7 332.3,106 345.3,106 348,121.1 337,123 334,112.7 "/>
<polyline fill="none" stroke="#000000" stroke-width="3" stroke-miterlimit="10" points="344.1,122.6 362,184.2 309,200 "/>
<line fill="none" stroke="#000000" stroke-width="3" stroke-miterlimit="10" x1="340.6" y1="172" x2="362" y2="184.2"/>
<polyline fill="none" stroke="#000000" stroke-width="3" stroke-miterlimit="10" points="310.4,294 317.7,459.9 308.4,459.9 
	287.9,294 277.5,459.9 266.8,459.9 261.3,295.3 "/>
<polyline fill="none" stroke="#000000" stroke-width="3" stroke-miterlimit="10" points="278,459.5 261.8,488 232.5,473.5 
	267.8,459.7 "/>
<polyline fill="none" stroke="#000000" stroke-width="3" stroke-miterlimit="10" points="317.5,459.9 351.3,474.4 326.8,488.4 
	308.2,459.9 "/>
</svg>
