<?xml version="1.0" encoding="utf-8"?>
<!-- Generator: Adobe Illustrator 21.1.0, SVG Export Plug-In . SVG Version: 6.00 Build 0)  -->
<!DOCTYPE svg PUBLIC "-//W3C//DTD SVG 1.0//EN" "http://www.w3.org/TR/2001/REC-SVG-20010904/DTD/svg10.dtd">
<svg version="1.0" id="Layer_1" xmlns="http://www.w3.org/2000/svg" xmlns:xlink="http://www.w3.org/1999/xlink" x="0px" y="0px"
	 width="576px" height="576px" viewBox="0 0 576 576" enable-background="new 0 0 576 576" xml:space="preserve">
<g id="Color">
	<ellipse cx="289" cy="143.3" rx="28.7" ry="44.7"/>
	<ellipse fill="none" stroke="#000000" stroke-width="3" stroke-miterlimit="10" cx="288" cy="143.3" rx="28.7" ry="44.7"/>
	<line fill="none" stroke="#000000" stroke-width="3" stroke-miterlimit="10" x1="281.6" y1="186.5" x2="279.8" y2="196.7"/>
	<line fill="none" stroke="#000000" stroke-width="3" stroke-miterlimit="10" x1="296.4" y1="186.5" x2="298.5" y2="196.7"/>
	<polygon fill="none" stroke="#000000" stroke-width="3" stroke-miterlimit="10" points="257.2,196.7 321.5,196.7 310.8,298.3 
		262.5,298.3 	"/>
	<path fill="none" stroke="#000000" stroke-width="3" stroke-miterlimit="10" d="M257.2,196.7l-53.7,37.7l14,68.7l-10.7,25.7
		l23.5,12l-9.8-18l12-6.7c0,0-1,13,0.7,12.7s12-13,12-13l-14.8-17.3l-3.5-57l31.7-17.7"/>
	<line fill="none" stroke="#000000" stroke-width="3" stroke-miterlimit="10" x1="203.5" y1="234.3" x2="226.8" y2="241.3"/>
	<path fill="none" stroke="#000000" stroke-width="3" stroke-miterlimit="10" d="M321.5,196.7l26,59l12.3,50l14.7,8.3
		c0,0-3.3,29.7-3.3,28.7s-7.3-21-7.3-21l-9.7,1.3l6.3,8l-16,1.7L348,308l-14.8-46.7l-15.5-28.1"/>
	<line fill="none" stroke="#000000" stroke-width="3" stroke-miterlimit="10" x1="333.2" y1="261.3" x2="347.9" y2="257.4"/>
	<polyline fill="none" stroke="#000000" stroke-width="3" stroke-miterlimit="10" points="262.5,298.3 246.5,450.7 258.6,450.7 
		286.2,298.3 	"/>
	<polyline fill="none" stroke="#000000" stroke-width="3" stroke-miterlimit="10" points="310.8,298.3 340.6,450.7 329.5,450.7 
		289.3,298.3 	"/>
	<polyline fill="none" stroke="#000000" stroke-width="3" stroke-miterlimit="10" points="246.5,450.7 215.2,465 248.8,477.3 
		258.6,450.7 	"/>
	<polyline fill="none" stroke="#000000" stroke-width="3" stroke-miterlimit="10" points="340.6,450.7 370.5,464.3 339.2,475.7 
		329.5,450.7 	"/>
	<line fill="none" stroke="#000000" stroke-miterlimit="10" x1="280.6" y1="186.5" x2="278.8" y2="196.7"/>
	<line fill="none" stroke="#000000" stroke-miterlimit="10" x1="295.4" y1="186.5" x2="297.5" y2="196.7"/>
	<polygon points="256.2,196.7 320.5,196.7 309.8,298.3 261.5,298.3 	"/>
	<path d="M256.2,196.7l-53.7,37.7l14,68.7l-10.7,25.7l23.5,12l-9.8-18l12-6.7c0,0-1,13,0.7,12.7s12-13,12-13l-14.8-17.3l-3.5-57
		l31.7-17.7"/>
	<line fill="none" x1="202.5" y1="234.3" x2="225.8" y2="241.3"/>
	<path d="M320.5,196.7l26,59l12.3,50l14.7,8.3c0,0-3.3,29.7-3.3,28.7s-7.3-21-7.3-21l-9.7,1.3l6.3,8l-16,1.7L347,308l-14.8-46.7
		l-15.5-28.1"/>
	<line fill="none" x1="332.2" y1="261.3" x2="346.9" y2="257.4"/>
	<polyline points="261.5,298.3 245.5,450.7 257.6,450.7 285.2,298.3 	"/>
	<polyline points="309.8,298.3 339.6,450.7 328.5,450.7 288.3,298.3 	"/>
	<polyline points="245.5,450.7 214.2,465 247.8,477.3 257.6,450.7 	"/>
	<polyline points="339.6,450.7 369.5,464.3 338.2,475.7 328.5,450.7 	"/>
	<polygon points="278.8,200.4 280.6,177.6 295.4,181.9 300.1,208.2 285.2,204.7 	"/>
</g>
<g id="Stroke">
	<path fill="none" stroke="#15EEFF" stroke-width="30" stroke-linejoin="round" stroke-miterlimit="10" stroke-opacity="0" d="
		M241.3,99.9c31.1-5.7,63.9-1,92.2,13.1c-27.5,14.8-61.5,7.9-91.8,15.5c28.7,7.7,58.3,12.2,88,13.4c6.2,0.3,13.4,1,16.5,6.3
		c-23.6,11.8-50.6,16.7-76.9,13.9c-9.3-1-20.2-2.4-26.6,4.3c31.3,1.9,62.5,3.8,93.8,5.8c2.6,0.2,5.5,0.4,7.4,2.3
		c-47.6,24.4-108.8-1.1-157.6,20.9c67.1,1.7,134.6,3.5,200.6,15.8c-22.2,9.3-47,9.7-71.1,9.9c-36.3,0.4-72.5,0.7-108.8,1.1
		c-7.7,0.1-18.1,14.2-23.9,30.1c53.7,0.2,108.8-25,162.5-24.8c14.2,0.1,29.5,0.4,41,8.7C318.5,253,248,276.5,177.9,278.6
		c28.1,2.1,54.1-3,82.3-3.2c40.2-0.2,83.1-5.7,120.9,8.1c-63.7,10-128,14.9-192.3,19.8c42.6,12.9,93.1-2.1,139.6-2
		c22.8,0,45.9,0.3,68,6.1c-79.1,8.7-157.2,26.3-236.6,30.4c51.6-0.3,103.3-0.6,154.9-0.9c20.8-0.1,41.8-0.2,62.1,4.4
		c-18,7.6-38.2,7-57.8,6.8c-27.1-0.2-54.2,0.7-81.1,2.8c-4.1,0.3-8.8,1.1-10.7,4.7c13.4,3.3,27.2,4.4,40.9,5.5
		c35.6,2.8,71.3,5.7,106.9,8.5c-5.9,6.5-15.7,7.2-24.5,7.5c-47,1.9-93.9,7.1-140.1,15.8c58.3-2.2,117.7-4.2,173.9,11.3
		c-68,20-143.4,0.9-210.6,23.5c74.5-11.7,150.4-14.6,225.6-8.5c2.7,0.2,5.6,0.5,7.7,2.2c-63.2,18.2-129.2,26.4-194.8,24.5
		c57.1-6.8,114.8,2.1,171.6,11.1c0.7,2.4-2.6,3.8-5,4c-52,5.9-104.5,7.6-156.7,4.9c-10.3-0.5-21-1.1-30.3,3.3c22.1,3,44.1,6,66.2,9"
		/>
</g>
</svg>
