<?xml version="1.0" encoding="utf-8"?>
<!-- Generator: Adobe Illustrator 21.1.0, SVG Export Plug-In . SVG Version: 6.00 Build 0)  -->
<!DOCTYPE svg PUBLIC "-//W3C//DTD SVG 1.0//EN" "http://www.w3.org/TR/2001/REC-SVG-20010904/DTD/svg10.dtd">
<svg version="1.0" xmlns="http://www.w3.org/2000/svg" xmlns:xlink="http://www.w3.org/1999/xlink" x="0px" y="0px" width="288px"
	 height="288px" viewBox="0 0 288 288" enable-background="new 0 0 288 288" xml:space="preserve">
<g id="Color">
	<path fill="#FFFFFF" d="M140.1,54.9c-11.8-3.6-23.8-2.4-35.5,3.9c-1,0.5-1.9,1.1-2.8,1.8c-2.6,1.3-5.1,3-7.3,5.1
		c-7.1,6.9-10.8,16.1-10.8,25.7c-1.6,3.4-2.5,7.1-2.7,11.2c-0.4,12.2,6.1,21.6,13.8,30.4c7.7,8.9,23.2,9.3,32.3,2.2
		c0.1,0,0.3,0,0.4,0c8.5-0.4,16.3-3.8,22.7-9c2.5-1.8,4.8-3.8,6.8-6.1c9.1-1.8,16-8.4,18.9-17.3C183.4,80.1,162.3,56.4,140.1,54.9z"
		/>
	<g>
		<ellipse fill="#FFFFFF" cx="143.9" cy="144.1" rx="52.8" ry="54.2"/>
		<path d="M143.9,199.3c-29.7,0-53.8-24.8-53.8-55.2c0-30.4,24.1-55.2,53.8-55.2s53.8,24.8,53.8,55.2
			C197.7,174.5,173.6,199.3,143.9,199.3z M143.9,90.9c-28.6,0-51.8,23.9-51.8,53.2s23.2,53.2,51.8,53.2c28.6,0,51.8-23.9,51.8-53.2
			S172.5,90.9,143.9,90.9z"/>
	</g>
	<g>
		<path d="M152.9,193.2l-3.1-0.7l-2.7-2.8c-0.2-0.2-2.4-2.5-2.2-4.8c0.1-1.3,0.3-1.8,0.4-2.3c0.1-0.2,0.1-0.4,0.1-0.7
			c0.1-0.8,0.2-1.9,0.1-3.8c-0.1-2-0.4-3.4-0.4-3.5l-0.4-1.3l-3.4-1.7l-3.4-2.4l-0.1-2.3l-0.5-1.8l-0.8-1.8l-3.1-2.3l-3.7-1.5
			l-4.3-0.4l-5.2-1.2c-0.1,0.1-0.2,0.1-0.2,0.2c-0.9,0.5-1.7-0.4-2.7-1.7c-1.9-2.5-2.6-3.6-2.6-3.7l-0.1-0.2l0-0.2
			c-0.2-1.1-0.9-4.7-0.9-5.4c0-0.3-0.2-1.1-0.5-2h-1.2c-2.6-0.2-3-0.7-3.1-1.2c-0.1-0.2-0.5-1.2-0.9-2.1l-2.2-4.6v-1.3
			c-0.3,0-0.6,0-0.8,0c0.3,0.7,0.5,1.5,0.2,2.3c-0.2,0.3-0.5,0.8-1.3,1c-0.5,0.1-1,0.4-1.4,0.7c-0.6,0.4-1.8,1.2-2.8,0
			c-0.6-0.8-2.8-3.9-2.8-3.9c-2-3.3-2-4-2-4.2c0-0.4,0.3-2.7,0.6-4.4c0.7-4.3,0.9-4.6,1.6-4.7c0.3-0.1,2-0.9,3.6-1.7
			c0.3-0.4,0.7-0.9,0.8-1.2c-0.6-0.6-1.6-1.8-2.8-3.6l1.6-1.2c1,1.4,2.3,3.2,2.7,3.4c0.3,0.1,0.5,0.4,0.6,0.8
			c0.1,0.3,0.2,1.1-1.5,3.2l-0.1,0.2l-0.2,0.1c-1.8,0.9-3,1.5-3.7,1.8c-0.4,1.4-1.1,6.5-1.1,7.4c0.1,0.4,0.9,2,1.7,3.1l0,0
			c0,0,1.7,2.4,2.5,3.5c0.1-0.1,0.2-0.1,0.3-0.2c0.5-0.3,1.1-0.8,2-1c0-0.3-0.3-0.8-0.4-1.1c-0.2-0.4-0.3-0.7-0.3-1
			c0-1.1,0.9-1.4,4.2-1.4h1v2.9l2,4.2c0.2,0.4,0.6,1.3,0.8,1.9c0.3,0.1,0.9,0.2,1.5,0.2l2.5,0l0.2,0.7c0.2,0.6,0.9,2.5,0.9,3.3
			c0,0.4,0.4,2.7,0.8,4.8c0.3,0.4,1,1.5,2.5,3.4c0.2,0.2,0.3,0.4,0.5,0.6l0.5,0.1l6,1.4l4.5,0.5l4.2,1.7l3.6,2.7l1,2.5l0.6,2.2
			l0.1,1.4l2.5,1.8l4,2l0.6,2.2c0,0.1,0.3,1.7,0.4,3.8c0.1,2.1,0,3.3-0.1,4.2c0,0.3-0.1,0.6-0.2,0.9c-0.1,0.4-0.2,1-0.3,2.1
			c-0.1,1.2,1.2,2.7,1.6,3.2l2.3,2.4l2.1,0.5l3.7-0.7l2.2-1c0.8-1.1,2.1-2.8,2.4-3.2c0.4-0.7,1.4-1.9,3.2-3.8l0.5-0.5
			c0.3-0.3,0.5-0.5,0.6-0.7c-0.2-0.3-0.4-0.7-0.3-1.3c0.1-0.8,0.1-2.7,0.1-3.4l0-0.2l1.6-3.6l1.4-3.5l0.8-1.8V164l-0.9-1.5l-3.2-0.9
			c-1.5-0.5-3.2-1-3.6-1.1h0c-1.2,0-3.8-2.9-3.9-2.9c-0.3-0.5-1.7-3.2-1.7-4.6c0-0.5-0.1-1-0.2-1.3c0-0.1-0.1-0.2-0.1-0.3
			c-0.3-0.1-0.9-0.2-1.7-0.2c-1,0-2.3,0.1-2.6,0.2c-0.4,0.1-2.1,0.6-3.7,1.1c-0.7,0.2-0.9,0.3-1,0.3c-0.1,0.2-0.3,0.4-0.6,0.6
			c-0.3,0.3-0.7,1.3-0.9,2.2c-0.1,0.4-0.2,0.8-0.3,1.1c-0.3,0.8-0.1,1.4,0,1.9c0.1,0.3,0.1,0.6,0.1,0.9c0,1.8-3.8,2.1-3.8,2.1
			c-1,0-4.8-3.5-5.6-4.9c-0.2,0-0.5,0.1-0.7,0.2c-0.7,0.2-1.6,0.4-2.5,0.2c-2.3-0.4-5.2-5.3-5.2-5.4c-0.4-0.7-1.7-3.6-1.8-3.9
			l-0.1-0.2l-0.8-3.7c0-0.2,0-1.8,1.3-2.8c0.8-0.7,1.2-0.7,2.2-0.7c0.3,0,0.7,0,1.3,0c2.4-0.1,4.2,1.1,4.2,1.2c0,0,2.5,1.5,4.1,2.9
			c0.9,0.8,1.9,0.9,2.9,1c0.4,0,0.8,0.1,1.2,0.2c0.4,0.1,0.9-0.2,1.5-0.8c0.1-0.1,0.2-0.2,0.4-0.3c-0.1-0.3-0.5-1-0.7-1.3
			c-0.2-0.4-0.4-0.8-0.6-1.1c-0.1-0.3-0.3-0.5-0.4-0.8c-0.4-0.8-0.7-1.4-0.7-2.1c0-0.6,0.6-1.6,1.6-2.9l0.2-0.2l3.7-1l0.2,0
			c0.7,0.1,2,0.1,2.6,0c0.2-0.1,0.7-0.8,1-1.4c0-1.9,0.1-3.1,0.3-3.6c0.1-0.3,0.5-1.7,0.8-3l0.2-0.8h9.4v-0.6l-1.5-2.5l-0.8-1.8
			l-2.9-2.9l-0.8-2.7l2.3-3v-1.3l-0.3-0.3l-3.7,0.3l-2.9,1.8l-4.1,2.3l-4.5,1.6l-2.1-1.4l0.1-4.9c0.1-0.4,0.7-2.4,1-3.2
			c-0.1-0.5-0.9-1.6-1.2-1.9c-0.5-0.3-2.8-1.5-3.5-1.8h-1.7c-0.7,0.3-2.9,1.4-3.7,1.9c-1.5,0.9-6.1,0.3-6.6,0.2
			c-0.4-0.1-1,0-1.6,0.1c-0.8,0.1-1.5,0.2-2,0c-0.4-0.1-1.3,0-1.8,0c-0.3,0-0.6,0-0.8,0c-0.2,0-0.9,0.6-1.5,1.1
			c-0.9,0.9-4.4,0.9-5.1,0.7c-0.5-0.2-1.5-0.5-2-0.7l-2.5,0.7l-0.5-1.9l3.1-0.9l0.3,0.1c0.4,0.2,1.6,0.6,2.1,0.8
			c0.5,0.1,2.7,0,3.2-0.2c0.4-0.4,1.8-1.6,2.9-1.6c0.2,0,0.4,0,0.6,0c0.8-0.1,1.7-0.1,2.4,0.1c0.2,0.1,0.9,0,1.3-0.1
			c0.8-0.1,1.6-0.2,2.2,0c1.3,0.3,4.6,0.4,5.2,0c1-0.6,4-2,4.1-2l0.2-0.1h2.7l0.2,0.1c0.1,0.1,3.1,1.6,3.8,2c0.8,0.5,2.7,3,2,4.3
			c-0.2,0.3-0.6,1.7-0.9,2.9l-0.1,3.4l0.3,0.2l3.4-1.2l3.8-2.2l3.3-2l5.1-0.5l1.5,1.5v2.9l-2.1,2.8l0.4,1.3l2.9,2.9l0.9,2.1l1.7,2.8
			v3.2h-9.8c-0.2,0.9-0.5,2.1-0.7,2.5c-0.1,0.3-0.1,1.8-0.1,3v0.2l-0.1,0.2c-0.2,0.6-1.1,2.5-2.5,2.8c-1,0.2-2.5,0.1-3,0l-2.7,0.8
			c-0.4,0.5-0.9,1.1-1,1.4c0,0.2,0.3,0.8,0.5,1.2c0.1,0.3,0.3,0.5,0.4,0.8c0.1,0.3,0.3,0.6,0.5,0.9c0.7,1.2,1.6,2.8,0.4,3.7
			c-0.1,0.1-0.3,0.2-0.4,0.4c-0.7,0.6-1.8,1.6-3.3,1.3c-0.3-0.1-0.7-0.1-1-0.2c-1.2-0.1-2.7-0.3-4-1.5c-1.4-1.2-3.8-2.7-3.9-2.7
			c-0.1-0.1-1.3-0.9-3-0.9c-0.7,0-1.1,0-1.4,0c-0.5,0-0.5,0-0.9,0.3c-0.4,0.3-0.5,0.9-0.5,1.1l0.7,3.3c0.4,0.9,1.4,3.1,1.7,3.6
			c0.9,1.6,3,4.3,3.8,4.4c0.5,0.1,1.1-0.1,1.7-0.2c0.9-0.2,2.4-0.6,3,0.9c0.3,0.7,3.1,3.2,4,3.8c0.4-0.1,1.1-0.2,1.5-0.4
			c0,0,0,0,0,0c-0.2-0.6-0.4-1.7,0-3c0.1-0.3,0.2-0.7,0.3-1.1c0.4-1.3,0.8-2.6,1.6-3.2c0.2-0.1,0.2-0.2,0.2-0.2c0.4-0.5,0.7-0.7,2-1
			c1.8-0.5,3.8-1.1,3.8-1.1l0.2,0c0.1,0,1.7-0.2,2.9-0.2c2.4,0,3.6,0.5,3.6,1.6c0,0.1,0,0.2,0.1,0.3c0.1,0.4,0.3,1.1,0.3,1.9
			c0,0.8,1,3,1.3,3.4c0.3,0.3,1.9,1.8,2.5,2.1c0.6,0.1,1.9,0.5,3.9,1.1l3.9,1.1l1.5,2.7v4.4l-1,2.2l-1.4,3.5l-1.4,3.2
			c0,0.7,0.1,2.4-0.1,3.5c1,1.1,0,2.3-0.8,3.1l-0.5,0.5c-1.5,1.7-2.6,2.9-2.9,3.4c-0.4,0.7-2.5,3.3-2.7,3.6L160,191l-2.9,1.4
			L152.9,193.2z M161.5,158.5L161.5,158.5L161.5,158.5z M161.3,158.5C161.3,158.5,161.3,158.5,161.3,158.5
			C161.3,158.5,161.3,158.5,161.3,158.5z M161.3,158.5C161.3,158.5,161.3,158.5,161.3,158.5C161.3,158.5,161.3,158.5,161.3,158.5z
			 M142.8,139.3L142.8,139.3L142.8,139.3z M97.4,124.5C97.4,124.6,97.4,124.6,97.4,124.5C97.4,124.6,97.4,124.6,97.4,124.5z
			 M101.8,120.1C101.8,120.1,101.8,120.1,101.8,120.1C101.8,120.1,101.8,120.1,101.8,120.1z"/>
	</g>
	<g>
		<path d="M190.2,169.5c-3.1-2.9-3.2-3.3-3.3-3.6c-0.1-0.4-0.1-1.4,0-3.1c-0.1-0.8-0.3-2.2-0.5-2.7c-0.2-0.4-1.1-1.2-1.6-1.6
			l-0.2-0.1l-1.8-3.8v-9c0-1,1.3-2.5,2.3-3.6l3.3-4.5c0.8-1.5,1.8-3.4,2.2-3.8c0.2-0.2,0.6-0.6,5.6-2.1l0.6,1.9
			c-1.9,0.6-4.3,1.3-4.8,1.6c-0.3,0.4-1.2,2-1.9,3.3l-0.1,0.1l-3.5,4.7c-0.9,0.9-1.7,1.9-1.8,2.3l0,8.5l1.4,3c0.5,0.4,1.6,1.3,2,2.2
			c0.5,1,0.7,3.2,0.7,3.4l0,0.1l0,0.1c0,0.9-0.1,2.1,0,2.5c0.4,0.4,1.6,1.7,2.7,2.7L190.2,169.5z M188.8,165.3L188.8,165.3
			L188.8,165.3z M192,135.2L192,135.2L192,135.2z"/>
	</g>
	<g>
		<path d="M180.1,113c-0.3,0-0.6,0-0.8-0.1c-0.3,0-0.6-0.1-1-0.1c-0.8,0.1-1.4,0-1.8,0c-0.2,0-0.3,0-0.4,0c-0.7,0-3.1-0.8-4.3-2.1
			c-1-1.1-1.1-3.5-1.1-5.5l0-0.2c0-0.4-0.5-3.8-1-6.8l2-0.3c0.3,2,1,6.6,1,7.2l0,0.3c-0.1,3,0.4,3.9,0.5,4.1
			c0.8,0.9,2.5,1.4,2.9,1.5c0.1,0,0.3,0,0.5,0c0.4,0,0.8,0,1.5,0c0.6-0.1,1.1,0,1.5,0.1c0.3,0,0.5,0.1,0.6,0c2-0.3,3.1-0.4,3.5-0.4
			h2.2v2h-2.2c-0.2,0-0.9,0.1-3.3,0.4C180.4,113,180.2,113,180.1,113z"/>
	</g>
</g>
<g id="Stroke">
	
		<path opacity="0" fill="none" stroke="#9AFF6A" stroke-width="16" stroke-linecap="round" stroke-linejoin="round" stroke-miterlimit="10" d="
		M78.2,55.7c28.9-0.2,57.8-0.3,86.6,1.3c-5.7,1.7-11.7,2-17.7,2.2c-24.3,0.6-48.9-1.4-72.7,3.4c-2.5,0.5-5.1,1.2-6.9,2.9
		c10.3,1.9,20.9,0.7,31.3-0.2c21.9-1.8,44-2,66-2.2c-7.5,5.5-17.2,6.7-26.5,7.6c-17.5,1.7-34.9,3-52.5,3.8
		c-5.6,0.3-11.4,0.6-16.5,2.9c26.9,3.4,54-3.9,81-3c5.5,0.2,11.1,0.7,16.4,2.6c-0.1,1.4-1.2,2.6-2.5,3.3c-1.3,0.7-2.7,0.9-4.1,1
		c-15,2-30.1,3.2-45.2,3.4c-6.2,0.1-13.3-0.8-19.3,1.2c-5.8,1.9-12,1.6-18.1,2.1c-6.2,0.6-12.2,2.1-17.9,4.5
		c-0.9,0.4-1.9,0.8-2.4,1.7c9.7,1.6,19.7,1.2,29.5,0.1c5-0.5,10-1.3,15-1.9c4.2-0.6,8.2-1.9,12.4-2.5c3.3-0.5,6.7-1,10-1.4
		c6.7-0.8,13.4-1.4,20.1-1.6c6.7-0.3,13.5-0.3,20.2,0c3.4,0.1,6.7,0.3,10.1,0.6c1.7,0.1,3.5,0.3,5.2,0.5c1.1,0.1,3.4,0.8,4.4,0.5
		c-19.4,6.2-40.2,5.6-60.2,9.2c-12.8,2.3-25.2,6.3-37.6,10.3c35.2-1.1,70.5-6.6,105.6-3.8c-5.5,4.8-13.2,5.7-20.5,6.5
		c-27.5,2.9-55,5.7-82.6,8.6c-5.1,0.5-10.9,1.4-14.1,5.4c47,6.3,94.6-11.9,141.6-5.9c-24.5,8.6-50.7,11.1-76.7,11.8s-52-0.2-77.9,2
		c-4.3,0.4-9.1,1.1-11.5,4.6c5.1,2.5,10.7,3.7,16.3,4.6c49.1,7.9,98.8-11,148.4-8.6c-9.1,6.7-20.3,10-31.5,12.3
		c-12.7,2.6-25.7,4.2-38.6,5.4c-30.9,3-62,4.3-93.1,4c-3.5,0-7.3,0-10.3,1.8c5.3,1.9,10.9,2.7,16.4,3.4c35.8,4.7,72.1,4.7,107.9,0
		c14.4-1.9,29.2-4.6,43.3-1c-17,8.4-36.8,8.7-55.8,9.6c-24.9,1.3-49.6,4.1-74.2,8.5c19.8,5.9,40.2,6.4,60.8,6.5
		c19.8,0.1,40.9-7.3,60.7-6c-4,4.5-11.2,13.7-17.1,15.1c-17.2,4.2-35,5.7-52.6,4.2c-9.4-0.8-19.2-2.3-27.9,1.4
		c8.5,4.9,18.7,6.3,28.5,6.5c9.9,0.2,19.8-0.5,29.6,0.5"/>
</g>
</svg>
