<?xml version="1.0" encoding="utf-8"?>
<!-- Generator: Adobe Illustrator 21.1.0, SVG Export Plug-In . SVG Version: 6.00 Build 0)  -->
<!DOCTYPE svg PUBLIC "-//W3C//DTD SVG 1.0//EN" "http://www.w3.org/TR/2001/REC-SVG-20010904/DTD/svg10.dtd">
<svg version="1.0" xmlns="http://www.w3.org/2000/svg" xmlns:xlink="http://www.w3.org/1999/xlink" x="0px" y="0px" width="576px"
	 height="576px" viewBox="0 0 576 576" enable-background="new 0 0 576 576" xml:space="preserve">
<g id="Lines">
	<g>
		<path d="M295.9,168.5l-1.4-2.4c1.9-1.1,3.8-2.6,5.6-4.4l2,2C300.1,165.7,298,167.3,295.9,168.5z"/>
	</g>
	<g>
		<path d="M261.6,153.5c-2.1-4.3-3.6-9-4.5-14l2.7-0.5c0.9,4.8,2.3,9.2,4.3,13.3L261.6,153.5z M310.1,151.1l-2.6-1.1
			c1.8-4.2,3-8.7,3.6-13.5l2.8,0.4C313.2,142,311.9,146.8,310.1,151.1z M259,125.1l-2.8-0.2c0.3-5,1.1-9.9,2.6-14.4l2.7,0.8
			C260.1,115.7,259.3,120.3,259,125.1z M311.4,122.6c-0.5-4.8-1.5-9.4-3.1-13.6l2.6-1c1.7,4.5,2.7,9.3,3.2,14.3L311.4,122.6z
			 M267.5,98.9l-2.3-1.6c3.2-4.4,7.1-7.8,11.3-9.7l1.2,2.5C273.9,91.8,270.4,94.9,267.5,98.9z M301.6,97c-3.2-3.8-7-6.5-10.9-7.7
			l0.8-2.7c4.4,1.4,8.7,4.4,12.2,8.6L301.6,97z"/>
	</g>
	<g>
		<path d="M277.1,169.7c-2.2-0.9-4.4-2.3-6.7-4.2l1.8-2.1c2.1,1.7,4,3,5.9,3.8L277.1,169.7z"/>
	</g>
	<g>
		<polygon points="270.2,182.5 270,179.7 276.2,179.3 276.2,172.4 279,172.4 279,181.9 		"/>
	</g>
	<g>
		<polygon points="250.1,189.8 247.5,188.6 250.9,181 259.2,180.4 259.4,183.2 252.7,183.6 		"/>
	</g>
	<g>
		<path d="M227.9,241.7l-2.6-1.1l5.6-13l2.6,1.1L227.9,241.7z M239,215.7l-2.6-1.1l5.6-13l2.6,1.1L239,215.7z"/>
	</g>
	<g>
		<polygon points="225.3,263.5 216.1,262.1 219.8,253.5 222.4,254.7 220.1,259.9 225.7,260.7 		"/>
	</g>
	<g>
		<rect x="236.9" y="259.7" transform="matrix(0.1468 -0.9892 0.9892 0.1468 -57.8964 460.9388)" width="2.8" height="8.6"/>
	</g>
	<g>
		<polygon points="257.7,274.7 257.2,268.3 250.9,267.4 251.3,264.6 259.8,265.9 260.5,274.5 		"/>
	</g>
	<g>
		<path d="M276,435.1l-1.9-16l2.8-0.3l1.9,16L276,435.1z M272.1,403l-1.9-16l2.8-0.3l1.9,16L272.1,403z M268.3,371l-1.9-16l2.8-0.3
			l1.9,16L268.3,371z M264.4,339l-1.9-16l2.8-0.3l1.9,16L264.4,339z M260.5,306.9l-0.9-7.8l-0.7-8.3l2.8-0.2l0.7,8.3l0.9,7.7
			L260.5,306.9z"/>
	</g>
	<g>
		<polygon points="274.3,463.2 272.9,460.8 278.6,457.5 277.8,451.1 280.6,450.7 281.6,459.1 		"/>
	</g>
	<g>
		<polygon points="255.9,479.7 246.3,475.9 255.3,470.8 256.7,473.2 252.7,475.5 256.9,477.1 		"/>
	</g>
	<g>
		<polygon points="278.3,488.5 270,485.2 271,482.6 276.7,484.9 279.1,479.3 281.7,480.3 		"/>
	</g>
	<g>
		<path d="M287.9,465.6l-2.6-1.1l2.8-6.5l0-8.2l2.8,0l0,8.8L287.9,465.6z M288,433.9l-0.1-15.9l2.8,0l0.1,15.9L288,433.9z
			 M287.9,402l-0.1-15.9l2.8,0l0.1,15.9L287.9,402z M287.7,370.2l-0.1-15.9l2.8,0l0.1,15.9L287.7,370.2z M287.6,338.3l-0.1-15.9
			l2.8,0l0.1,15.9L287.6,338.3z"/>
	</g>
	<g>
		<polygon points="291.3,306.5 291.1,300.4 290.2,300.4 290.2,306.5 287.4,306.5 287.4,297.6 293.9,297.6 294.1,306.5 		"/>
	</g>
	<g>
		<path d="M299.9,467.5l-4.5-8.8l-0.2-6.9l2.8-0.1l0.2,6.2l4.2,8.3L299.9,467.5z M294.8,435.6l-0.4-16.1l2.8-0.1l0.4,16.1
			L294.8,435.6z M293.9,403.4l-0.4-16.1l2.8-0.1l0.4,16.1L293.9,403.4z M293,371.1l-0.4-16.1l2.8-0.1l0.4,16.1L293,371.1z
			 M292.1,338.8l-0.4-16.1l2.8-0.1l0.4,16.1L292.1,338.8z"/>
	</g>
	<g>
		<polygon points="311.1,489.7 307.2,481.9 309.6,480.7 312.5,486.3 318.3,484.1 319.3,486.7 		"/>
	</g>
	<g>
		<polygon points="331.9,481.9 330.9,479.3 335.3,477.7 331.4,475.3 332.8,472.9 341.7,478.3 		"/>
	</g>
	<g>
		<rect x="321.1" y="464.4" transform="matrix(0.5196 -0.8544 0.8544 0.5196 -245.0655 500.4307)" width="2.8" height="7.5"/>
	</g>
	<g>
		<polygon points="312.1,463.5 305.1,459 305.5,450.7 308.3,450.9 307.9,457.6 313.5,461.1 		"/>
	</g>
	<g>
		<path d="M309.2,435l-2.8-0.2l0.9-16l2.8,0.2L309.2,435z M311,403l-2.8-0.2l0.9-16l2.8,0.2L311,403z M312.8,371.1l-2.8-0.2l0.9-16
			l2.8,0.2L312.8,371.1z M314.6,339.1l-2.8-0.2l0.9-16l2.8,0.2L314.6,339.1z M316.4,307.2l-2.8-0.2l0.5-8.1l0.2-7.8l2.8,0.1
			l-0.2,7.9L316.4,307.2z"/>
	</g>
	<g>
		<polygon points="317.6,275.2 314.8,275 315.2,266.4 323.7,265 324.1,267.8 317.8,268.8 		"/>
	</g>
	<g>
		<rect x="332.6" y="262.9" transform="matrix(0.9878 -0.1557 0.1557 0.9878 -37.0387 55.7107)" width="9" height="2.8"/>
	</g>
	<g>
		<polygon points="350.6,263.6 350.2,260.8 355.8,259.9 353.4,254.8 356,253.6 359.8,262.1 		"/>
	</g>
	<g>
		<path d="M347,240.8l-6.4-13.9l2.5-1.2l6.4,13.9L347,240.8z M334.2,212.9l-6.4-13.9l2.5-1.2l6.4,13.9L334.2,212.9z"/>
	</g>
	<g>
		<polygon points="321.3,185.1 318.6,179.2 312.1,179.6 311.9,176.8 320.4,176.2 323.9,183.9 		"/>
	</g>
	<g>
		<path d="M293.5,180.9l-0.2-1.2c0,0-0.8-4.9-1.3-8.2l2.8-0.4c0.3,2.3,0.8,5.3,1.1,6.9l6.2-0.4l0.2,2.8L293.5,180.9z"/>
	</g>
	<g>
		<path d="M315.5,256.5l0.2-9.3l2.8,0.1l-0.2,5.7c1.9-0.4,3.8-0.9,5.5-1.3l0.7,2.7c-2.2,0.6-4.8,1.2-7.4,1.7L315.5,256.5z"/>
	</g>
	<g>
		
			<rect x="313.4" y="233.7" transform="matrix(3.226390e-02 -0.9995 0.9995 3.226390e-02 72.3131 544.8794)" width="8.2" height="2.8"/>
	</g>
	<g>
		<path d="M319.4,222.7l-2.8-0.1l0.3-12.6l2.5,4.5c0,0,1.5,2.8,3.5,6.6l-2.5,1.3c-0.4-0.7-0.7-1.3-1-1.9L319.4,222.7z"/>
	</g>
	<g>
		<path d="M333.5,247.8c-1.1-2.6-3.5-7.5-6.3-12.7l2.5-1.3c2.8,5.3,5.2,10.2,6.4,12.9L333.5,247.8z"/>
	</g>
	<g>
		<path d="M253.7,224.6l-0.2-2.2c-0.3,0.6-0.6,1.2-0.9,1.9l-2.5-1.1c1.8-4,3.1-6.8,3.1-6.8l2.2-4.8l1,12.8L253.7,224.6z"/>
	</g>
	<g>
		
			<rect x="254.6" y="232" transform="matrix(0.9968 -7.935706e-02 7.935706e-02 0.9968 -17.9021 21.0589)" width="2.8" height="7.5"/>
	</g>
	<g>
		<path d="M259,256.3l-1.9-0.4c-2.5-0.6-5-1.2-7.3-1.7l0.6-2.7c1.7,0.4,3.6,0.8,5.5,1.3l-0.4-5.6l2.8-0.2L259,256.3z"/>
	</g>
	<g>
		<path d="M242.4,247.6l-2.6-1c0.9-2.2,2.4-5.8,5.1-11.8l2.5,1.1C245.8,239.6,243.5,244.8,242.4,247.6z"/>
	</g>
</g>
<g id="Stroke">
	
		<ellipse opacity="0" fill="none" stroke="#11E900" stroke-width="5" stroke-miterlimit="10" cx="285.4" cy="128.6" rx="27.7" ry="41.6"/>
	<polygon opacity="0" fill="none" stroke="#11E900" stroke-width="5" stroke-miterlimit="10" points="250.9,182.5 217.5,262 
		258.4,267.5 279.8,459.5 247.5,476.4 277.3,487 289.2,458.2 289.2,299.2 291.7,299 297,457.1 311.8,488.5 340.2,477.4 307.2,458.2 
		316.6,267.8 357.5,261 319.5,177.4 294.5,179.2 292,169 278.1,169 277.3,180.4 	"/>
	<polygon opacity="0" fill="none" stroke="#11E900" stroke-width="5" stroke-miterlimit="10" points="257.7,254.8 254.5,216.4 
		238.3,250 	"/>
	<polygon opacity="0" fill="none" stroke="#11E900" stroke-width="5" stroke-miterlimit="10" points="317.1,254.8 337.1,250.2 
		317.5,213.8 	"/>
</g>
</svg>
