<?xml version="1.0" encoding="utf-8"?>
<!-- Generator: Adobe Illustrator 19.2.1, SVG Export Plug-In . SVG Version: 6.00 Build 0)  -->
<svg version="1.0" id="Layer_1" xmlns="http://www.w3.org/2000/svg" xmlns:xlink="http://www.w3.org/1999/xlink" x="0px" y="0px"
	 width="576px" height="576px" viewBox="0 0 576 576" enable-background="new 0 0 576 576" xml:space="preserve">
<ellipse fill="none" stroke="#000000" stroke-width="2.785" stroke-miterlimit="10" cx="285.3" cy="129" rx="27.8" ry="41.5"/>
<line fill="none" stroke="#000000" stroke-width="2.785" stroke-miterlimit="10" x1="277.6" y1="168.9" x2="277.6" y2="180.2"/>
<line fill="none" stroke="#000000" stroke-width="2.785" stroke-miterlimit="10" x1="293" y1="168.9" x2="294.8" y2="180.2"/>
<path fill="none" stroke="#000000" stroke-width="2.785" stroke-miterlimit="10" d="M261,108.7c0,0,18.8,9.8,46.8-4.1"/>
<path fill="none" stroke="#000000" stroke-width="2.785" stroke-miterlimit="10" d="M257.5,255.3c-2.6-33-5.7-72.4-5.7-72.4
	l67.7-4.7c0,0-1.4,42.4-2.5,77.1"/>
<path fill="none" stroke="#000000" stroke-width="2.785" stroke-miterlimit="10" d="M251.8,182.8l-33.7,78.7l70.7,10.7l-1.7-47
	l-5.3,2.3l-8,31c0,0-33.3-6.7-33.3-8.7s14.1-32.4,14.1-32.4"/>
<line fill="none" stroke="#000000" stroke-width="2.785" stroke-miterlimit="10" x1="240.5" y1="249.8" x2="218.1" y2="261.5"/>
<path fill="none" stroke="#000000" stroke-width="2.785" stroke-miterlimit="10" d="M319.5,178.2l38.4,83.3L291,272.2l-1.5-46.1
	l4.7,1.4l8,31c0,0,33.3-6.7,33.3-8.7s-17.3-34.1-17.3-34.1"/>
<line fill="none" stroke="#000000" stroke-width="2.785" stroke-miterlimit="10" x1="335.5" y1="249.8" x2="357.9" y2="261.5"/>
<path fill="none" stroke="#000000" stroke-width="2.785" stroke-miterlimit="10" d="M316.5,268.1c-0.6,17-1,31.4-1,31.4H261
	c0,0-1-13.1-2.4-30.6"/>
<polyline fill="none" stroke="#000000" stroke-width="2.785" stroke-miterlimit="10" points="261,299.5 280.1,458.8 289.5,458.8 
	288.8,299.5 "/>
<polyline fill="none" stroke="#000000" stroke-width="2.785" stroke-miterlimit="10" points="292.5,299.5 296.8,458.8 306.5,458.8 
	315.5,299.5 "/>
<polyline fill="none" stroke="#000000" stroke-width="2.785" stroke-miterlimit="10" points="280.1,458.8 249.5,476.2 277.5,487.2 
	289.5,458.8 "/>
<polyline fill="none" stroke="#000000" stroke-width="2.785" stroke-miterlimit="10" points="296.8,458.8 311.8,488.5 338.5,478.5 
	306.5,458.8 "/>
</svg>
