<?xml version="1.0" encoding="utf-8"?>
<!-- Generator: Adobe Illustrator 19.2.1, SVG Export Plug-In . SVG Version: 6.00 Build 0)  -->
<svg version="1.0" xmlns="http://www.w3.org/2000/svg" xmlns:xlink="http://www.w3.org/1999/xlink" x="0px" y="0px" width="576px"
	 height="576px" viewBox="0 0 576 576" enable-background="new 0 0 576 576" xml:space="preserve">
<g id="Layer_2">
	<path fill="#27AAE1" d="M347.6,77.6c0,0,25.2,42.7,3.7,67.5c0,0,16.6-10.8,16.3-28c-0.3-17.2-8.9-32.2-8.9-32.2
		S350.9,77.9,347.6,77.6z"/>
	<polygon fill="#27AAE1" points="372.1,149.1 374.1,255.4 337.5,264.2 375.1,262.9 388.9,453.7 402.8,474.5 420.6,465.8 
		392.9,453.9 385.6,263.8 386.2,262.5 385,190.7 396.4,217.7 398,287.4 402.3,287.4 405.2,215.4 392.9,178.1 381.6,170.4 
		384.5,161.5 385,148.7 	"/>
	<polygon fill="#27AAE1" points="353.1,263.7 348,453.7 325.8,468.5 338.2,474.6 352.7,453.7 360,320.4 362.6,273.7 363.7,263.4 	
		"/>
</g>
<g id="Layer_1">
	<ellipse fill="none" stroke="#000000" stroke-width="2.785" stroke-miterlimit="10" cx="256.4" cy="112.9" rx="27.8" ry="41.5"/>
	<path fill="none" stroke="#000000" stroke-width="2.785" stroke-miterlimit="10" d="M232.1,92.6c0,0,18.8,9.8,46.8-4.1"/>
	<line fill="none" stroke="#000000" stroke-width="2.785" stroke-miterlimit="10" x1="248.7" y1="152.8" x2="248.7" y2="164.1"/>
	<line fill="none" stroke="#000000" stroke-width="2.785" stroke-miterlimit="10" x1="264.1" y1="152.8" x2="265.9" y2="164.1"/>
	<polygon fill="none" stroke="#000000" stroke-width="2.785" stroke-miterlimit="10" points="222.9,166.7 290.6,162.1 286.6,283.4 
		232.1,283.4 	"/>
	<polyline fill="none" stroke="#000000" stroke-width="2.785" stroke-miterlimit="10" points="222.9,166.7 203,222.4 215,289.1 
		224.7,289.1 220.4,222.7 225.8,202.7 	"/>
	<polyline fill="none" stroke="#000000" stroke-width="2.785" stroke-miterlimit="10" points="224.7,289.1 229.1,299.4 224.7,303.9 
		220.4,299.6 220.4,322.4 209.4,311.1 215,289.1 	"/>
	<line fill="none" stroke="#000000" stroke-width="2.785" stroke-miterlimit="10" x1="203" y1="222.4" x2="220.4" y2="222.7"/>
	<polyline fill="none" stroke="#000000" stroke-width="2.785" stroke-miterlimit="10" points="232.1,283.4 245.3,442.7 254.6,442.7 
		259.9,283.4 	"/>
	<polyline fill="none" stroke="#000000" stroke-width="2.785" stroke-miterlimit="10" points="263.6,283.4 267.9,442.7 277.6,442.7 
		286.6,283.4 	"/>
	<polyline fill="none" stroke="#000000" stroke-width="2.785" stroke-miterlimit="10" points="245.3,442.7 214.6,460.1 242.6,471.1 
		254.6,442.7 	"/>
	<polyline fill="none" stroke="#000000" stroke-width="2.785" stroke-miterlimit="10" points="267.9,442.7 282.9,472.4 309.6,462.4 
		277.6,442.7 	"/>
	<path fill="none" stroke="#000000" stroke-width="2.785" stroke-miterlimit="10" d="M290.9,181.3c8.6-1.8,17.2-3.5,25.8-5.3"/>
	<polyline fill="none" stroke="#000000" stroke-width="2.785" stroke-miterlimit="10" points="290.6,162.1 390.4,147.9 399.9,164.1 
		394.1,178.9 381.4,170.6 388.1,151.4 	"/>
	
		<ellipse transform="matrix(0.9982 -5.924696e-02 5.924696e-02 0.9982 -5.9998 20.7138)" fill="none" stroke="#000000" stroke-width="2.785" stroke-miterlimit="10" cx="346.3" cy="111.5" rx="21.4" ry="34.2"/>
	<path fill="none" stroke="#000000" stroke-width="2.785" stroke-miterlimit="10" d="M358.6,79.6c0,0-16.8,4.2-26.1,1.5"/>
	<path fill="none" stroke="#000000" stroke-width="2.785" stroke-miterlimit="10" d="M361.4,83.9c-1.5,1-17.6,5.8-32.1,2.6"/>
	<path fill="none" stroke="#000000" stroke-width="2.785" stroke-miterlimit="10" d="M363.5,88.9c0,0-17.1,8.5-35.4,3.1"/>
	<line fill="none" stroke="#000000" stroke-width="2.785" stroke-miterlimit="10" x1="342.2" y1="144.3" x2="343.2" y2="154"/>
	<line fill="none" stroke="#000000" stroke-width="2.785" stroke-miterlimit="10" x1="355.8" y1="142.9" x2="355.8" y2="151.4"/>
	<path fill="none" stroke="#000000" stroke-width="2.785" stroke-miterlimit="10" d="M384.6,172.4c0.6,33.6,1.6,90.1,1.6,90.1
		l-49.7,1.8l-16.6-106.8l64.3-9.5c0,0,0.1,5.3,0.2,13.5"/>
	<polyline fill="none" stroke="#000000" stroke-width="2.785" stroke-miterlimit="10" points="319.9,157.4 310.4,225.1 321.7,287.4 
		332.5,286.1 326.7,225.7 328.1,209.8 	"/>
	<line fill="none" stroke="#000000" stroke-width="2.785" stroke-miterlimit="10" x1="310.4" y1="225.1" x2="326.7" y2="225.7"/>
	<polyline fill="none" stroke="#000000" stroke-width="2.785" stroke-miterlimit="10" points="321.7,287.4 319.9,302.7 328.1,323.4 
		336.5,319.7 330.7,299.4 336.5,301.7 337.5,297.1 332.5,286.1 	"/>
	<path fill="none" stroke="#000000" stroke-width="2.785" stroke-miterlimit="10" d="M384.2,147.9c0,0,1,2.5,2.7,6.5"/>
	<path fill="none" stroke="#000000" stroke-width="2.785" stroke-miterlimit="10" d="M395.6,175c7.3,17.3,16.1,38.1,16.1,38.1
		l-5.3,74.3H398l-1.6-69.7L385,190.7"/>
	<path fill="none" stroke="#000000" stroke-width="2.785" stroke-miterlimit="10" d="M396.4,217.7c2,0.4,15.3-4.6,15.3-4.6"/>
	<polyline fill="none" stroke="#000000" stroke-width="2.785" stroke-miterlimit="10" points="398,287.4 392.9,300.1 398,303.1 
		401.7,299.1 401.7,316.1 411.7,320.4 406.4,287.4 	"/>
	<polyline fill="none" stroke="#000000" stroke-width="2.785" stroke-miterlimit="10" points="385.6,263.8 392.9,453.7 383.6,453.7 
		363.1,263.8 352.7,453.7 342,453.7 336.5,265.1 	"/>
	<polyline fill="none" stroke="#000000" stroke-width="2.785" stroke-miterlimit="10" points="392.6,453.8 420.6,465.8 402.8,474.5 
		383.4,453.8 	"/>
	<polyline fill="none" stroke="#000000" stroke-width="2.785" stroke-miterlimit="10" points="352.7,453.7 338.2,474.6 320.1,465.7 
		342.5,453.9 	"/>
</g>
<g id="Layer_3">
	<path opacity="0" fill="none" stroke="#000000" stroke-width="30" stroke-miterlimit="10" d="M346.9,79.9c5.3-3,11.5-4.6,17.6-4.6
		c-6.4,6.5-14.4,11.5-23.1,14.5c9-2.7,18.3-4.7,27.6-5.9c-7.3,3.7-14.6,7.5-21.9,11.2c2.8-1.6,5.6-3.3,8.4-4.9
		c-4.7,4.2-9.4,8.4-14.2,12.6c10.2-4,20.4-8,30.5-12c-8.9,5.6-17.8,11.2-26.8,16.8c6.5-5.3,13.7-9.5,21.5-12.6
		c-5.1,3.1-9.7,6.8-13.7,11.2c5.6-2.3,11.2-4.7,16.8-7c-9.8,6.9-19.1,14.4-27.9,22.5c7-5.5,15-9.7,23.5-12.3
		c-6,5.5-12,10.9-17.9,16.4c6.2-3.3,12.4-6.6,18.6-9.9c-8.9,5.6-17.8,11.2-26.8,16.8c9.9-3.9,19.8-7.8,29.6-11.7
		c-7.8,5.9-15.7,11.8-23.5,17.8c7-2.2,14-4.4,21.1-6.5c-7.7,5.6-15.4,11.2-23.2,16.9c6.3-3.9,13.1-7.1,20.1-9.4
		c-7,4.5-13.2,10.2-18.2,16.8c8.5-5.1,17.8-8.8,27.5-11c-2.5,3.4-5,6.8-7.4,10.1c9.4-4.3,18.7-8.5,28.1-12.8
		c-10.3,6.3-20.2,13.4-29.6,21.1c6.4-6.6,14.7-11.2,23.7-13.3c-9,7.6-18,15.2-27,22.9c7.5-1.3,14.9-3.8,21.7-7.1
		c-11.1,7.7-20.9,17.2-29.1,27.9c12.8-4.6,25.6-9.3,38.5-13.9c-9.5,5.2-18.4,11.6-26.4,19c13.4-5.7,27.3-10.3,41.4-13.8
		c-11.8,6.3-23.5,12.5-35.3,18.8c14-5.1,28.2-9.8,42.5-13.9c-16.5,5.7-32.4,12.9-47.6,21.5c21.9-6.7,44.2-12,66.7-15.8
		c-19.6,8.3-39.3,16.5-58.9,24.8c12.7-3.5,25.4-7,38.1-10.5c-15.5,8.3-31.3,16-47.5,23.1c11.4-1.1,22.7-4.3,33-9.3
		c-17,7.4-33.9,14.7-50.9,22.1c16.9-4.3,33.9-8.6,50.8-12.8c-25,12.8-51.3,23.2-78.3,31c34.1-7.9,68-16.4,101.7-25.5
		c-31.3,11.3-62.6,22.5-93.8,33.8c23.8-9,48.2-16.7,72.9-23c-17,9.7-33.1,21-48.1,33.7c23.4-6.4,46.7-12.7,70.1-19.1
		c-31.1,11.7-62.3,23.4-93.4,35.1c26.1-6.8,52.1-13.6,78.2-20.4c-25.9,9.4-51.2,20.5-75.6,33.3c28.1-3.6,56.1-7.2,84.2-10.8
		c-24.7,12.9-51.3,21.9-78.7,26.7c20-5.6,40-11.2,60.1-16.7c-26.7,7-52.9,15.7-78.5,26c22.6-2.2,45.2-4.5,67.8-6.7
		c-20.1,4.7-39.3,12.6-56.9,23.3c20.4-3.6,40.8-7.1,61.2-10.7c-18.8,9.8-37.5,19.6-56.3,29.4c23-4,46.1-8,69.1-12
		c-29.1,10.4-58.2,20.8-87.3,31.1c27.8-10.7,57.4-16.8,87.1-18c-25.1,8.8-50.3,17.5-75.4,26.2c18.7-4.8,37.3-9.7,56-14.5
		c-21.8,7.2-43,16-63.4,26.4c14.5-1.8,28.7-5.5,42.2-11c-14.3,6.7-27.8,15.3-39.9,25.6c25.2-2.9,50.2-7.3,74.9-13.2
		c-24.8,9.5-49.6,18.9-74.3,28.4c26-8.1,52-16.2,78.1-24.3c-23.1,12.1-46.2,24.2-69.2,36.4c27.3-7.3,54-17.1,79.5-29.2
		c-29.3,10.6-57.6,23.9-84.5,39.6c16-5.4,31.5-12.1,46.4-20.2c-21.5,6.7-42.4,15.5-62.3,26.2c31.5-10.1,63.4-20.2,96.5-22.5
		c-22.8,6.4-44.8,15.2-65.7,26.3c26.4-4.9,52.6-10.5,78.7-16.9c-7.7,3.6-15.4,7.3-23.1,10.9c6.1-0.7,12.2-1.3,18.3-2
		c-10.7,2.3-21.3,4.5-32,6.8c16-12.3,31-26.1,44.6-41c-26.9-0.6-53.8-1.2-80.8-1.8c14.5-11.9,30.7-21.7,48-28.8
		c-6.8,2.1-13.6,4.2-20.4,6.4c6.9-4.8,13.7-9.7,20.6-14.5c-10.6,0.6-21.3,1.1-31.9,1.7c8.8-4,17.6-7.9,26.4-11.9
		c0.8-0.3,1.7-0.9,1.7-1.7c0-0.8-1.7-1-1.5-0.2"/>
</g>
</svg>
