<?xml version="1.0" encoding="utf-8"?>
<!-- Generator: Adobe Illustrator 19.2.1, SVG Export Plug-In . SVG Version: 6.00 Build 0)  -->
<svg version="1.0" id="Layer_1" xmlns="http://www.w3.org/2000/svg" xmlns:xlink="http://www.w3.org/1999/xlink" x="0px" y="0px"
	 width="576px" height="576px" viewBox="0 0 576 576" enable-background="new 0 0 576 576" xml:space="preserve">
<ellipse fill="none" stroke="#000000" stroke-width="2.785" stroke-miterlimit="10" cx="143.6" cy="130.5" rx="27.8" ry="41.5"/>
<path fill="none" stroke="#000000" stroke-width="2.785" stroke-miterlimit="10" d="M119.3,110.2c0,0,18.8,9.8,46.8-4.1"/>
<line fill="none" stroke="#000000" stroke-width="2.785" stroke-miterlimit="10" x1="135.9" y1="170.4" x2="135.9" y2="181.7"/>
<line fill="none" stroke="#000000" stroke-width="2.785" stroke-miterlimit="10" x1="151.3" y1="170.4" x2="153.1" y2="181.7"/>
<polygon fill="none" stroke="#000000" stroke-width="2.785" stroke-miterlimit="10" points="110.1,184.3 177.8,179.7 173.8,301 
	119.3,301 "/>
<polyline fill="none" stroke="#000000" stroke-width="2.785" stroke-miterlimit="10" points="109.7,184 89.8,239.7 101.8,306.3 
	111.5,306.3 107.1,240 112.5,220 "/>
<line fill="none" stroke="#000000" stroke-width="2.785" stroke-miterlimit="10" x1="89.8" y1="239.7" x2="107.1" y2="240"/>
<polyline fill="none" stroke="#000000" stroke-width="2.785" stroke-miterlimit="10" points="111.5,306.3 115.9,316.7 111.5,321.2 
	107.1,316.9 107.1,339.7 96.1,328.4 101.8,306.3 "/>
<path fill="none" stroke="#000000" stroke-width="2.4542" stroke-miterlimit="10" d="M177.8,179.7l34.2,40.8l39.9-11.2
	c0-1.2,5.3-13.5,5.3-13.5l14.7-7.9l1.8,2.3l16.7-7.9l1.2,6.2l-8.5,5.6l0.6,15.3l-15.3,7.3h-11.7l-46.1,25.8L177,203.7"/>
<line fill="none" stroke="#000000" stroke-width="2.785" stroke-miterlimit="10" x1="212.1" y1="220.2" x2="210.5" y2="242.5"/>
<line fill="none" stroke="#000000" stroke-width="2.785" stroke-miterlimit="10" x1="251.8" y1="209.4" x2="257.1" y2="217.7"/>
<polyline fill="none" stroke="#000000" stroke-width="2.785" stroke-miterlimit="10" points="119.3,301 132.4,460.3 141.8,460.3 
	147.1,301 "/>
<polyline fill="none" stroke="#000000" stroke-width="2.785" stroke-miterlimit="10" points="150.8,301 155.1,460.3 164.8,460.3 
	173.8,301 "/>
<polyline fill="none" stroke="#000000" stroke-width="2.785" stroke-miterlimit="10" points="132.4,460.3 101.8,477.7 129.8,488.7 
	141.8,460.3 "/>
<polyline fill="none" stroke="#000000" stroke-width="2.785" stroke-miterlimit="10" points="155.1,460.3 170.1,490 196.8,480 
	164.8,460.3 "/>
<ellipse transform="matrix(0.9973 -7.345351e-02 7.345351e-02 0.9973 -10.0389 25.263)" fill="none" stroke="#000000" stroke-width="2.4542" stroke-miterlimit="10" cx="338.4" cy="149.1" rx="21.1" ry="32"/>
<path fill="none" stroke="#000000" stroke-width="2.4542" stroke-miterlimit="10" d="M333.9,186.6l-25.1-1.1
	c0,0-13.2-72.6,26.8-74.8c40-2.1,40.1,71.8,40.1,71.8l-27.5,4.3"/>
<line fill="none" stroke="#000000" stroke-width="2.4542" stroke-miterlimit="10" x1="347.6" y1="178.8" x2="348.5" y2="190.8"/>
<line fill="none" stroke="#000000" stroke-width="2.4542" stroke-miterlimit="10" x1="335.3" y1="180.4" x2="334.3" y2="191.9"/>
<path fill="none" stroke="#000000" stroke-width="2.4542" stroke-miterlimit="10" d="M369.3,262.1c-4.2-13.4-10.9-30.4-10.9-30.4
	l4.8-41.9l-43.2,3.2l8.5,41.8l-8.4,47.8c0,0,27.4,6.9,49.9-3.5"/>
<polyline fill="none" stroke="#000000" stroke-width="2.4542" stroke-miterlimit="10" points="319.9,192.9 301.8,227.2 321.1,276.2 
	"/>
<polyline fill="none" stroke="#000000" stroke-width="2.4542" stroke-miterlimit="10" points="323.3,209.6 314.4,228.6 324.1,259.3 
	"/>
<polyline fill="none" stroke="#000000" stroke-width="2.4542" stroke-miterlimit="10" points="320.5,279.8 307.7,284.3 301.5,274.3 
	319.2,271.2 "/>
<polyline fill="none" stroke="#000000" stroke-width="2.4542" stroke-miterlimit="10" points="363.2,189.7 380,237.2 380.2,301.2 
	382.7,312.4 379.9,326.5 372.6,325 371,303.9 368.4,240.4 360,217.7 "/>
<path fill="none" stroke="#000000" stroke-width="2.4542" stroke-miterlimit="10" d="M380.6,322.5c7.2,42.1,17,98.5,17,98.5
	s-32.2,21.5-92.8,6.8L320,282.5"/>
<polyline fill="none" stroke="#000000" stroke-width="2.4542" stroke-miterlimit="10" points="363.6,432 361.8,451.3 354.8,451.8 
	353.4,432.7 "/>
<polyline fill="none" stroke="#000000" stroke-width="2.4542" stroke-miterlimit="10" points="334.6,432.5 339.6,452.9 346.7,452.4 
	345.3,433.3 "/>
<polyline fill="none" stroke="#000000" stroke-width="2.4542" stroke-miterlimit="10" points="339.6,452.9 318.3,466.1 335.6,471.9 
	346.7,452.4 "/>
<polyline fill="none" stroke="#000000" stroke-width="2.4542" stroke-miterlimit="10" points="361.8,451.3 384.8,461.2 368.6,469.4 
	354.8,451.8 "/>
<ellipse transform="matrix(7.930815e-02 -0.9969 0.9969 7.930815e-02 280.0004 548.3753)" fill="none" stroke="#000000" stroke-width="2.4542" stroke-miterlimit="10" cx="436.9" cy="122.6" rx="37.9" ry="23.8"/>
<line fill="none" stroke="#000000" stroke-width="2.4542" stroke-miterlimit="10" x1="428.9" y1="160.4" x2="428" y2="171.6"/>
<line fill="none" stroke="#000000" stroke-width="2.4542" stroke-miterlimit="10" x1="443.3" y1="158.2" x2="444.2" y2="170.4"/>
<path fill="none" stroke="#000000" stroke-width="2.4542" stroke-miterlimit="10" d="M463.1,215.3c-0.3-22.5,0.1-43.3,0.1-43.3
	l-54.2-2.3c0,0,0.3,13.3,0.8,30.7"/>
<path fill="none" stroke="#000000" stroke-width="2.4542" stroke-miterlimit="10" d="M463.2,172l18.3,57.3c0,0-35.2,12.1-79.2-1.5"
	/>
<path fill="none" stroke="#000000" stroke-width="2.4542" stroke-miterlimit="10" d="M409,169.8c0,0-5.1,13.7-10.1,27.5"/>
<path fill="none" stroke="#000000" stroke-width="2.4542" stroke-miterlimit="10" d="M395.4,206.5c-3.8,10.2-6.8,18.6-6.8,18.6
	s20.1,11,73.9-10.3l-8-9.2c0,0-29.1,3.2-51.1,7"/>
<polyline fill="none" stroke="#000000" stroke-width="2.4542" stroke-miterlimit="10" points="419.3,210.1 413.2,201.2 395.1,195.8 
	393.6,204.7 406.7,212 "/>
<path fill="none" stroke="#000000" stroke-width="2.4542" stroke-miterlimit="10" d="M410.4,227.3c0.7,27,1.3,53.4,1.3,53.4
	s33.6,10.3,52.9-0.6c0,0-0.3-22.8-0.6-47.4"/>
<path fill="none" stroke="#000000" stroke-width="2.4542" stroke-miterlimit="10" d="M464.6,280c0,0-1.3,140.6-5.9,175.7l-6.1,0.5
	L438.1,285"/>
<path fill="none" stroke="#000000" stroke-width="2.4542" stroke-miterlimit="10" d="M433.7,285.8c0,0-18.1,119.1-17.9,171.3
	l-8.5,0.6c0,0-12.8-119.8,4.5-177"/>
<polyline fill="none" stroke="#000000" stroke-width="2.4542" stroke-miterlimit="10" points="458.7,455.8 485,471.2 462,479.8 
	452.6,456.2 "/>
<polyline fill="none" stroke="#000000" stroke-width="2.4542" stroke-miterlimit="10" points="415.7,457.1 400.5,480.8 381.9,472.6 
	407.2,457.7 "/>
</svg>
