<?xml version="1.0" encoding="utf-8"?>
<!-- Generator: Adobe Illustrator 19.2.1, SVG Export Plug-In . SVG Version: 6.00 Build 0)  -->
<svg version="1.0" id="Layer_1" xmlns="http://www.w3.org/2000/svg" xmlns:xlink="http://www.w3.org/1999/xlink" x="0px" y="0px"
	 width="576px" height="576px" viewBox="0 0 576 576" enable-background="new 0 0 576 576" xml:space="preserve">
<ellipse fill="none" stroke="#000000" stroke-width="2.785" stroke-miterlimit="10" cx="249.4" cy="128.8" rx="27.8" ry="41.5"/>
<path fill="none" stroke="#000000" stroke-width="2.785" stroke-miterlimit="10" d="M225.1,108.5c0,0,18.8,9.8,46.8-4.1"/>
<line fill="none" stroke="#000000" stroke-width="2.785" stroke-miterlimit="10" x1="241.7" y1="168.7" x2="241.7" y2="180"/>
<line fill="none" stroke="#000000" stroke-width="2.785" stroke-miterlimit="10" x1="257.1" y1="168.7" x2="258.9" y2="180"/>
<polygon fill="none" stroke="#000000" stroke-width="2.785" stroke-miterlimit="10" points="215.9,182.7 283.6,178 279.6,299.3 
	225.1,299.3 "/>
<polyline fill="none" stroke="#000000" stroke-width="2.785" stroke-miterlimit="10" points="215.5,182.3 195.6,238 207.6,304.7 
	217.2,304.7 212.9,238.3 218.3,218.3 "/>
<line fill="none" stroke="#000000" stroke-width="2.785" stroke-miterlimit="10" x1="195.6" y1="238" x2="212.9" y2="238.3"/>
<polyline fill="none" stroke="#000000" stroke-width="2.785" stroke-miterlimit="10" points="217.2,304.7 221.7,315 217.2,319.5 
	212.9,315.2 212.9,338 201.9,326.8 207.6,304.7 "/>
<polyline fill="none" stroke="#000000" stroke-width="2.785" stroke-miterlimit="10" points="283.6,178 318,215.3 346.7,174.3 
	342.3,165.3 351,146.5 358,148 365,132.5 379,136 367.3,177 359.3,178 321.7,243.5 282.7,203.7 "/>
<line fill="none" stroke="#000000" stroke-width="2.785" stroke-miterlimit="10" x1="318" y1="215.3" x2="321.7" y2="243.5"/>
<polyline fill="none" stroke="#000000" stroke-width="2.785" stroke-miterlimit="10" points="225.1,299.3 238.2,458.7 247.6,458.7 
	252.9,299.3 "/>
<polyline fill="none" stroke="#000000" stroke-width="2.785" stroke-miterlimit="10" points="256.6,299.3 260.9,458.7 270.6,458.7 
	279.6,299.3 "/>
<polyline fill="none" stroke="#000000" stroke-width="2.785" stroke-miterlimit="10" points="238.2,458.7 207.6,476 235.6,487 
	247.6,458.7 "/>
<polyline fill="none" stroke="#000000" stroke-width="2.785" stroke-miterlimit="10" points="260.9,458.7 275.9,488.3 302.6,478.3 
	270.6,458.7 "/>
</svg>
