<?xml version="1.0" encoding="utf-8"?>
<!-- Generator: Adobe Illustrator 19.2.1, SVG Export Plug-In . SVG Version: 6.00 Build 0)  -->
<svg version="1.0" id="Layer_1" xmlns="http://www.w3.org/2000/svg" xmlns:xlink="http://www.w3.org/1999/xlink" x="0px" y="0px"
	 width="576px" height="576px" viewBox="0 0 576 576" enable-background="new 0 0 576 576" xml:space="preserve">
<path fill="none" stroke="#000000" stroke-width="2.785" stroke-miterlimit="10" d="M474.5,379l5.5-146c0,0-4.5-16.5-18-19
	s-62.5-13-64.5-13s-52.5-4-58.5-4s-83.5,6-85.5,6.5s-64,19-66.5,23s-4,12.5-3.5,18s-0.1,132-0.1,132"/>
<path fill="none" stroke="#000000" stroke-width="2.785" stroke-miterlimit="10" d="M291,218c-2,0-36.5,3.5-40.5,5s-34,8.4-35.5,10
	s-5.5,5.5-5.5,7.5s11.5,11.5,33,13.5s34.5,4,48.5,4s43.5-0.5,48,0s68,0,68,0s43.5-8.5,49-14s15.5-5.1,6.5-11S438,220.5,404,218
	c-34-2.5-40.5,2-48,0c-7.5-2-40-1.1-42-0.8S291,218,291,218z"/>
<path fill="none" stroke="#000000" stroke-width="2.785" stroke-miterlimit="10" d="M199.5,258.2c0,0,14,3.3,17.5,3.3s16,0.5,16,2.5
	s0,11.5,0,11.5s-34.5-0.5-33.5-2S199.5,258.2,199.5,258.2z"/>
<path fill="none" stroke="#000000" stroke-width="2.785" stroke-miterlimit="10" d="M204.7,294c0.8-0.5,5-2.2,9.5-2.2
	s20.5-0.8,24.2,0c3.8,0.8,22.2-0.2,23.2,2.2s3.2,35,3.2,35s-19.2,0-22.5,0s-20.5,0.8-23,0s-13.5-4.2-13.5-4.2L204.7,294z"/>
<path fill="none" stroke="#000000" stroke-width="2.785" stroke-miterlimit="10" d="M278.5,350c0,0-1.8,9.5,0,11s0,20.8,0,20.8h58.2
	c0,0,0.9-7,1.1-9.8s0-12.2,0-12.2s1.1-13.5,0-13.5S278.5,350,278.5,350z"/>
<polygon fill="none" stroke="#000000" stroke-width="2.785" stroke-miterlimit="10" points="220.2,349.5 242.5,348.3 255.7,348.3 
	255.7,366.5 240.7,366.5 221.2,364 "/>
<polygon fill="none" stroke="#000000" stroke-width="2.785" stroke-miterlimit="10" points="292.7,292.8 294.7,305.3 327.5,305.3 
	330,290.3 "/>
<path fill="none" stroke="#000000" stroke-width="2.785" stroke-miterlimit="10" d="M353.5,297.9c0,0-0.5,7,0,7.8s0,10,0,10
	s30.8-1,32-1.6s12.5,0,12.5,0l-4-17.9c0,0-5.8-0.7-8-1.1c-2.2-0.4-10.8-0.3-12.8,0C371.2,295.4,353.5,297.9,353.5,297.9z"/>
<path fill="none" stroke="#000000" stroke-width="2.785" stroke-miterlimit="10" d="M462.7,271.8c-1,0-19.2,2.2-21.2,2.2
	s-10.5,0-10.5,0l-17.5,3.5c0,0,0.8,7,1,7.5s-1.2,14.2-1,15s1,5.1,1,5.1s18.5-0.6,20,0s30.5-2.9,30.5-2.9s-1-11,0-12.2
	S462.7,271.8,462.7,271.8z"/>
<path fill="none" stroke="#000000" stroke-width="2.785" stroke-miterlimit="10" d="M364,331.8c0,0,18.2-3.1,19.5-2.4
	c1.2,0.7,26.5-2.1,26.5-2.1s11.8-1.5,11.8,0s1,30.1,1,30.1s-5,3.4-6.2,3.4s-11.2,0-11.2,0s-39.8,2.5-39.8,1.8s0-3.2-0.2-6.5
	s-1.8-11.2-1.2-12.8S364,331.8,364,331.8z"/>
<path fill="none" stroke="#000000" stroke-width="2.785" stroke-miterlimit="10" d="M439.3,354c0,0,10.4-1.2,12.7-1.2
	s8.8,0.6,8.8,0.6l1.2,13.1l-11.3,1.2h-10.2L439.3,354z"/>
</svg>
