<?xml version="1.0" encoding="utf-8"?>
<!-- Generator: Adobe Illustrator 19.2.1, SVG Export Plug-In . SVG Version: 6.00 Build 0)  -->
<svg version="1.0" id="Layer_1" xmlns="http://www.w3.org/2000/svg" xmlns:xlink="http://www.w3.org/1999/xlink" x="0px" y="0px"
	 width="576px" height="576px" viewBox="0 0 576 576" enable-background="new 0 0 576 576" xml:space="preserve">
<path fill="none" stroke="#000000" stroke-width="2.785" stroke-miterlimit="10" d="M364.7,150.6c-4.1,3.8-9.1,6-14.4,6
	c-14.5,0-26.2-16.4-26.2-36.7c0-12.1,4.2-22.8,10.6-29.5"/>
<path fill="none" stroke="#000000" stroke-width="2.785" stroke-miterlimit="10" d="M334.2,88.6c1.2,1.3,8.4,4,16.2,11
	s10.8,28.7,10.8,30c0,1.3,9.3,60.3,9.3,60.3l25,35.8l6.6,75.5l42.7-39.7c0,0-6.3-35.1-7.3-35.9c-1-0.8-26.1-27.8-26.1-27.8
	s-3.9-24.3-3.6-27.7s3.2-28.3,3.6-36s-12.3-50.3-30.9-54c-18.7-3.7-40.3,0-40.3,0s-11.4,4.7-7.4,12.5"/>
<path fill="none" stroke="#000000" stroke-width="2.785" stroke-miterlimit="10" d="M344.5,79.6c0,0,15.7,5.8,17.7,9.3
	s12.5,37,12.5,37l-7.4,43.9"/>
<path fill="none" stroke="#000000" stroke-width="2.785" stroke-miterlimit="10" d="M388.4,143.2c0,0,3.1,33,4.3,34.8
	c1.2,1.8,19.7,20.9,19.7,20.9"/>
<line fill="none" stroke="#000000" stroke-width="2.785" stroke-miterlimit="10" x1="348.2" y1="156.6" x2="350" y2="167.5"/>
<path fill="none" stroke="#000000" stroke-width="2.785" stroke-miterlimit="10" d="M339.6,153.3c-2.1,0.9-7.7,19-7.7,19"/>
<polyline fill="none" stroke="#000000" stroke-width="2.785" stroke-miterlimit="10" points="366.3,163.2 327.2,173.6 342.9,251.5 
	"/>
<polyline fill="none" stroke="#000000" stroke-width="2.785" stroke-miterlimit="10" points="378.1,200.8 365,243.7 321.9,258.7 
	321.9,268.3 381.8,255 392.7,221.7 "/>
<line fill="none" stroke="#000000" stroke-width="2.785" stroke-miterlimit="10" x1="366.3" y1="243.6" x2="383.1" y2="254.9"/>
<path fill="none" stroke="#000000" stroke-width="2.785" stroke-miterlimit="10" d="M264.4,196.5h-19.2l-21.5,8.5l11,20.7l-11,8.6
	l5,61.3c0,0,16,8.7,20.2,9.7s14.5,1.2,15.5,1.2s19.7-6,19.7-6l13.4-62l-12.3-11.8l14.4-18.5L278,196.5H264.4z"/>
<path fill="none" stroke="#000000" stroke-width="2.785" stroke-miterlimit="10" d="M420.8,407.7c0,0,3.3-88.8,4.8-128.3"/>
<polyline fill="none" stroke="#000000" stroke-width="2.785" stroke-miterlimit="10" points="223.7,240 203.9,236.2 205.4,272.2 
	226,262.9 "/>
<polyline fill="none" stroke="#000000" stroke-width="2.785" stroke-miterlimit="10" points="224.8,247.8 212.4,246.5 213.4,260.6 
	225.5,256.7 "/>
<path fill="none" stroke="#000000" stroke-width="2.785" stroke-miterlimit="10" d="M296.3,246.1l20.1-0.9c0,0-0.9,4.8-2,10.9"/>
<polyline fill="none" stroke="#000000" stroke-width="2.785" stroke-miterlimit="10" points="321.9,258.7 315.5,252.7 314.4,255.7 
	301.5,255.7 298.8,271.3 317.1,275.7 321.9,268.3 "/>
<path fill="none" stroke="#000000" stroke-width="2.785" stroke-miterlimit="10" d="M310.9,274.8c-0.7,3.5-1.1,5.9-1.1,5.9
	l-19.1-12.1"/>
<path fill="none" stroke="#000000" stroke-width="2.785" stroke-miterlimit="10" d="M294.1,253.8c0,0,11.3,0.4,12.3,0.4"/>
<path fill="none" stroke="#000000" stroke-width="2.785" stroke-miterlimit="10" d="M300,266.3c-3.4-1.6-7.9-3.8-7.9-3.8"/>
<line fill="none" stroke="#000000" stroke-width="2.785" stroke-miterlimit="10" x1="330.5" y1="189.9" x2="287.8" y2="229.3"/>
<line fill="none" stroke="#000000" stroke-width="2.785" stroke-miterlimit="10" x1="335.8" y1="216.9" x2="297.5" y2="241.6"/>
<path fill="none" stroke="#000000" stroke-width="2.785" stroke-miterlimit="10" d="M338.2,229.3c-4.6-0.3-11.6-0.9-19-1.4"/>
<path fill="none" stroke="#000000" stroke-width="2.785" stroke-miterlimit="10" d="M291.6,226c-2.4-0.1-4.3-0.2-5.5-0.3"/>
<path fill="none" stroke="#000000" stroke-width="2.785" stroke-miterlimit="10" d="M229.7,229.5c-16.3,1.3-29.1,2.4-29.9,2.6
	c-2,0.5-64,19-66.5,23c-2.5,4-4,12.5-3.5,18c0.5,5.5-0.1,132-0.1,132"/>
<path fill="none" stroke="#000000" stroke-width="2.785" stroke-miterlimit="10" d="M342.1,246.2c-12-0.6-19.8-0.2-25.4,0.3"/>
<path fill="none" stroke="#000000" stroke-width="2.785" stroke-miterlimit="10" d="M204.6,250.2c-3.9,0.5-6.8,1.1-7.8,1.4
	c-4,1.5-34,8.4-35.5,10c-1.5,1.5-5.5,5.5-5.5,7.5s11.5,11.5,33,13.5c16.5,1.5,28.1,3.1,38.9,3.7"/>
<path fill="none" stroke="#000000" stroke-width="2.785" stroke-miterlimit="10" d="M287.1,286.8c5,0.2,18.1,0.2,32,0.1"/>
<path fill="none" stroke="#000000" stroke-width="2.785" stroke-miterlimit="10" d="M145.8,286.9c0,0,14,3.3,17.5,3.3s16,0.5,16,2.5
	s0,11.5,0,11.5s-34.5-0.5-33.5-2S145.8,286.9,145.8,286.9z"/>
<path fill="none" stroke="#000000" stroke-width="2.785" stroke-miterlimit="10" d="M151,322.7c0.8-0.5,5-2.2,9.5-2.2
	s20.5-0.8,24.2,0s22.2-0.2,23.2,2.2s3.2,35,3.2,35s-19.2,0-22.5,0s-20.5,0.8-23,0s-13.5-4.2-13.5-4.2L151,322.7z"/>
<path fill="none" stroke="#000000" stroke-width="2.785" stroke-miterlimit="10" d="M224.8,378.7c0,0-1.8,9.5,0,11s0,20.8,0,20.8
	H283c0,0,0.9-7,1.1-9.8s0-12.2,0-12.2s1.1-13.5,0-13.5S224.8,378.7,224.8,378.7z"/>
<polygon fill="none" stroke="#000000" stroke-width="2.785" stroke-miterlimit="10" points="166.5,378.2 188.8,376.9 202,376.9 
	202,395.2 187,395.2 167.5,392.7 "/>
<polygon fill="none" stroke="#000000" stroke-width="2.785" stroke-miterlimit="10" points="239,321.4 241,333.9 273.8,333.9 
	276.3,318.9 "/>
<path fill="none" stroke="#000000" stroke-width="2.785" stroke-miterlimit="10" d="M404.6,335.7c4.1-0.5,7.1-0.8,7.1-0.8
	s-1-11,0-12.2s-2.2-18.2-2.2-18.2c-0.3,0-2,0.2-4.3,0.5"/>
<path fill="none" stroke="#000000" stroke-width="2.785" stroke-miterlimit="10" d="M404.2,381.8c1.6,0.1,2.8,0.3,2.8,0.3l1.2,13.1
	c0,0-2.5,0.3-5.1,0.6"/>
<polyline fill="none" stroke="#000000" stroke-width="2.785" stroke-miterlimit="10" points="346,262.9 290.5,313.6 295.2,446.9 
	402.8,453.6 404.4,299.1 "/>
<polyline fill="none" stroke="#000000" stroke-width="2.785" stroke-miterlimit="10" points="327.8,448.9 288.5,464.6 321.9,482.9 
	350.9,450.3 "/>
<polyline fill="none" stroke="#000000" stroke-width="2.785" stroke-miterlimit="10" points="366.2,451.3 348.8,496.2 391.8,498.2 
	387.2,451.3 "/>
<ellipse fill="none" stroke="#000000" stroke-width="2.785" stroke-miterlimit="10" cx="260" cy="207.3" rx="24.1" ry="6.3"/>
</svg>
